<svg width="62" height="10" viewBox="0 0 62 10" fill="none" xmlns="http://www.w3.org/2000/svg">
<path d="M5.32397 5.51105C5.32397 5.98039 5.23597 6.38739 5.05997 6.73205C4.88397 7.06939 4.64197 7.34805 4.33397 7.56805C4.0333 7.78805 3.68863 7.95305 3.29996 8.06305C2.91863 8.16572 2.51897 8.21705 2.10096 8.21705C1.8663 8.21705 1.62063 8.19505 1.36396 8.15105C1.11463 8.10705 0.879965 8.02639 0.659965 7.90905C0.447298 7.79172 0.278632 7.62305 0.153965 7.40305C0.0512982 7.23439 -3.51258e-05 7.04739 -3.51258e-05 6.84205C-3.51258e-05 6.67339 0.0476315 6.54872 0.142965 6.46805C0.245632 6.38005 0.377632 6.33605 0.538965 6.33605C0.758965 6.33605 0.879965 6.43505 0.901965 6.63305C0.931298 6.83839 0.986298 7.04005 1.06696 7.23805C1.15496 7.42872 1.27596 7.58639 1.42996 7.71105C1.5913 7.83572 1.7893 7.89805 2.02397 7.89805C2.78663 7.89805 3.3293 7.71105 3.65197 7.33705C3.98197 6.95572 4.14697 6.39472 4.14697 5.65405C4.14697 5.16272 4.01497 4.75939 3.75097 4.44405C3.4943 4.12139 3.11297 3.96005 2.60697 3.96005C2.51163 3.96005 2.40896 3.96739 2.29897 3.98205C2.18896 3.98939 2.0863 4.00405 1.99096 4.02605C1.93963 4.03339 1.88463 4.05172 1.82596 4.08105C1.7673 4.10305 1.70863 4.11405 1.64996 4.11405C1.59863 4.11405 1.56563 4.09205 1.55096 4.04805C1.54363 4.00405 1.53997 3.96372 1.53997 3.92705C1.53997 3.87572 1.5473 3.82072 1.56196 3.76205C1.57663 3.70339 1.61696 3.67405 1.68296 3.67405C1.70497 3.67405 1.72697 3.67772 1.74896 3.68505C1.7783 3.68505 1.80763 3.68505 1.83696 3.68505C1.98363 3.68505 2.1303 3.68505 2.27697 3.68505C2.43097 3.67772 2.57763 3.65572 2.71696 3.61905C3.12763 3.50172 3.4173 3.31105 3.58596 3.04705C3.76197 2.77572 3.84997 2.43105 3.84997 2.01305C3.84997 1.72705 3.80963 1.46672 3.72897 1.23205C3.65563 0.997388 3.5273 0.810388 3.34397 0.671054C3.16063 0.531721 2.90763 0.462054 2.58496 0.462054C2.10096 0.462054 1.7343 0.612387 1.48496 0.913054C1.24296 1.20639 1.12196 1.58405 1.12196 2.04605C1.12196 2.20739 1.03396 2.28805 0.857965 2.28805C0.689298 2.28805 0.546298 2.24405 0.428965 2.15605C0.318965 2.06805 0.263965 1.93239 0.263965 1.74905C0.263965 1.66839 0.293298 1.55472 0.351965 1.40805C0.417965 1.26139 0.476632 1.15505 0.527965 1.08905C0.806632 0.729721 1.15863 0.480388 1.58396 0.341054C2.01663 0.201721 2.4493 0.132054 2.88197 0.132054C3.2193 0.132054 3.54563 0.198054 3.86096 0.330054C4.1763 0.462055 4.43663 0.656388 4.64197 0.913054C4.8473 1.16239 4.94997 1.47405 4.94997 1.84805C4.94997 2.11939 4.87297 2.37972 4.71897 2.62905C4.5723 2.87839 4.39997 3.08739 4.20197 3.25605C4.04797 3.39539 3.87563 3.50539 3.68496 3.58605C3.4943 3.66672 3.30363 3.73272 3.11297 3.78405C3.2523 3.79139 3.42097 3.80605 3.61897 3.82805C3.8243 3.85005 3.9893 3.88672 4.11396 3.93805C4.45863 4.05539 4.74463 4.25339 4.97197 4.53205C5.20663 4.80339 5.32397 5.12972 5.32397 5.51105ZM10.8442 6.05005C10.8442 5.72005 10.7746 5.44505 10.6352 5.22505C10.5032 4.99772 10.3272 4.80705 10.1072 4.65305C9.88725 4.49905 9.64525 4.37072 9.38125 4.26805C9.11725 4.15805 8.85691 4.05539 8.60025 3.96005C8.20425 4.18739 7.88891 4.47705 7.65425 4.82905C7.41958 5.17372 7.30225 5.58072 7.30225 6.05005C7.30225 6.65872 7.44891 7.11705 7.74225 7.42505C8.03558 7.73305 8.48658 7.88705 9.09525 7.88705C9.44725 7.88705 9.75158 7.80639 10.0082 7.64505C10.2722 7.48372 10.4776 7.26372 10.6242 6.98505C10.7709 6.70639 10.8442 6.39472 10.8442 6.05005ZM10.6352 1.82605C10.6352 1.32739 10.4959 0.960721 10.2172 0.726055C9.94591 0.484054 9.57191 0.363054 9.09525 0.363054C8.64791 0.363054 8.29958 0.487721 8.05025 0.737054C7.80091 0.979054 7.67625 1.32005 7.67625 1.76005C7.67625 2.10472 7.76058 2.38705 7.92925 2.60705C8.09791 2.82705 8.31425 3.00672 8.57825 3.14605C8.84958 3.28539 9.12458 3.40639 9.40325 3.50905C9.74791 3.35505 10.0376 3.13505 10.2722 2.84905C10.5142 2.55572 10.6352 2.21472 10.6352 1.82605ZM11.9332 5.67605C11.9332 6.24072 11.7939 6.71372 11.5152 7.09505C11.2439 7.46905 10.8846 7.75139 10.4372 7.94205C9.98991 8.12539 9.50225 8.21705 8.97425 8.21705C8.54158 8.21705 8.12725 8.14372 7.73125 7.99705C7.34258 7.84305 7.02358 7.60839 6.77425 7.29305C6.53225 6.97772 6.41125 6.57805 6.41125 6.09405C6.41125 5.69072 6.50291 5.35339 6.68625 5.08205C6.87691 4.80339 7.11525 4.56505 7.40125 4.36705C7.69458 4.16172 7.99525 3.97839 8.30325 3.81705C8.07591 3.72172 7.84491 3.59705 7.61025 3.44305C7.37558 3.28905 7.17758 3.10205 7.01625 2.88205C6.85491 2.66205 6.77425 2.41272 6.77425 2.13405C6.77425 1.65005 6.89891 1.25772 7.14825 0.957054C7.39758 0.649054 7.71658 0.425388 8.10525 0.286054C8.49391 0.146721 8.90091 0.0770544 9.32625 0.0770544C9.65625 0.0770544 9.98625 0.135721 10.3162 0.253054C10.6462 0.370388 10.9212 0.550054 11.1412 0.792054C11.3612 1.03405 11.4712 1.34205 11.4712 1.71605C11.4712 2.05339 11.4016 2.34305 11.2622 2.58505C11.1302 2.82705 10.9469 3.03239 10.7122 3.20105C10.4776 3.36972 10.2172 3.51639 9.93125 3.64105C10.2319 3.72905 10.5362 3.86839 10.8442 4.05905C11.1522 4.24239 11.4089 4.46972 11.6142 4.74105C11.8269 5.01239 11.9332 5.32405 11.9332 5.67605ZM16.1555 2.46405C16.1555 2.28072 16.1519 2.09739 16.1445 1.91405C16.1445 1.73072 16.1445 1.54739 16.1445 1.36405L13.3175 5.44505H16.1445C16.1445 4.94639 16.1445 4.44772 16.1445 3.94905C16.1519 3.45039 16.1555 2.95539 16.1555 2.46405ZM18.6635 5.08205C18.6635 5.09672 18.6525 5.14072 18.6305 5.21405C18.6159 5.28005 18.6049 5.32772 18.5975 5.35705C18.5755 5.43772 18.5499 5.52572 18.5205 5.62105C18.4985 5.71639 18.4802 5.80439 18.4655 5.88505C18.4582 5.93639 18.4362 5.96572 18.3995 5.97305C18.3629 5.97305 18.3225 5.97305 18.2785 5.97305H17.2005C17.2005 6.17839 17.2005 6.38372 17.2005 6.58905C17.2079 6.79439 17.2115 7.00339 17.2115 7.21605V7.61205C17.2115 7.72205 17.2519 7.79539 17.3325 7.83205C17.4205 7.86872 17.5195 7.89072 17.6295 7.89805C17.7395 7.89805 17.8275 7.89805 17.8935 7.89805C17.9449 7.89805 17.9962 7.89439 18.0475 7.88705C18.1062 7.87972 18.1612 7.87605 18.2125 7.87605C18.2639 7.87605 18.2932 7.89805 18.3005 7.94205C18.3079 7.97872 18.3115 8.01539 18.3115 8.05205C18.3115 8.08139 18.3042 8.11805 18.2895 8.16205C18.2822 8.19872 18.2602 8.21705 18.2235 8.21705C18.1942 8.21705 18.1612 8.21705 18.1245 8.21705C18.0952 8.21705 18.0622 8.21339 18.0255 8.20605C17.8055 8.19139 17.5819 8.18039 17.3545 8.17305C17.1345 8.16572 16.9182 8.16205 16.7055 8.16205C16.5149 8.16205 16.3205 8.16572 16.1225 8.17305C15.9319 8.18039 15.7412 8.18772 15.5505 8.19505C15.4845 8.20239 15.4185 8.20605 15.3525 8.20605C15.2865 8.21339 15.2242 8.21705 15.1655 8.21705C15.1069 8.21705 15.0702 8.20239 15.0555 8.17305C15.0409 8.13639 15.0335 8.09239 15.0335 8.04105C15.0335 8.00439 15.0372 7.97139 15.0445 7.94205C15.0592 7.90539 15.0922 7.88705 15.1435 7.88705C15.1802 7.88705 15.2169 7.89072 15.2535 7.89805C15.2975 7.89805 15.3379 7.89805 15.3745 7.89805C15.4552 7.89805 15.5542 7.89805 15.6715 7.89805C15.7962 7.89805 15.9025 7.87972 15.9905 7.84305C16.0859 7.79905 16.1335 7.72205 16.1335 7.61205V5.97305H12.8555C12.8042 5.97305 12.7565 5.96205 12.7125 5.94005C12.6759 5.91072 12.6575 5.87039 12.6575 5.81905C12.6575 5.76039 12.6722 5.70905 12.7015 5.66505C12.7089 5.65039 12.7162 5.63572 12.7235 5.62105C12.7309 5.60639 12.7382 5.59539 12.7455 5.58805C13.3542 4.70805 13.9665 3.82439 14.5825 2.93705C15.2059 2.04972 15.8109 1.15872 16.3975 0.264054C16.4195 0.220054 16.4452 0.183387 16.4745 0.154054C16.4965 0.117387 16.5295 0.0990542 16.5735 0.0990542H17.1565C17.1712 0.0990542 17.1932 0.102721 17.2225 0.110054C17.2519 0.110054 17.2629 0.121054 17.2555 0.143054L17.2115 0.264054V5.44505H17.8825C17.9779 5.44505 18.0732 5.43039 18.1685 5.40105C18.2712 5.36439 18.3519 5.30939 18.4105 5.23605C18.4252 5.22139 18.4399 5.19572 18.4545 5.15905C18.4765 5.11505 18.4912 5.08572 18.4985 5.07105C18.5205 5.03439 18.5462 5.01605 18.5755 5.01605C18.6342 5.01605 18.6635 5.03805 18.6635 5.08205ZM23.7218 2.93705C23.7218 2.85639 23.7218 2.77572 23.7218 2.69505C23.7218 2.60705 23.7181 2.52272 23.7108 2.44205C23.6961 2.14139 23.6301 1.84072 23.5128 1.54005C23.3955 1.23205 23.2231 0.975388 22.9958 0.770054C22.7685 0.557387 22.4825 0.451054 22.1378 0.451054C21.7491 0.451054 21.4411 0.557387 21.2138 0.770054C20.9865 0.982721 20.8215 1.25039 20.7188 1.57305C20.6235 1.89572 20.5758 2.22205 20.5758 2.55205C20.5758 2.80139 20.5905 3.05805 20.6198 3.32205C20.6491 3.57872 20.7115 3.82072 20.8068 4.04805C20.9021 4.26805 21.0451 4.44772 21.2358 4.58705C21.4265 4.71905 21.6795 4.78505 21.9948 4.78505C22.1561 4.78505 22.3395 4.75572 22.5448 4.69705C22.7575 4.63839 22.9555 4.55405 23.1388 4.44405C23.3221 4.33405 23.4578 4.20572 23.5458 4.05905C23.6485 3.89039 23.7035 3.71072 23.7108 3.52005C23.7181 3.32205 23.7218 3.12772 23.7218 2.93705ZM24.7888 3.45405C24.7888 3.70339 24.7558 3.97105 24.6898 4.25705C24.6311 4.53572 24.5578 4.79239 24.4698 5.02705C24.0958 6.03172 23.5421 6.83472 22.8088 7.43605C22.0755 8.03739 21.1955 8.47739 20.1688 8.75605C20.1615 8.75605 20.1541 8.75605 20.1468 8.75605C20.1468 8.75605 20.1431 8.75605 20.1358 8.75605C20.0698 8.75605 20.0368 8.72672 20.0368 8.66805C20.0368 8.63139 20.0515 8.60572 20.0808 8.59105C20.1101 8.57639 20.1395 8.56539 20.1688 8.55805C20.5061 8.41139 20.8398 8.25372 21.1698 8.08505C21.4998 7.91639 21.7931 7.70005 22.0498 7.43605C22.2845 7.20139 22.5081 6.92639 22.7208 6.61105C22.9408 6.29572 23.1278 5.96572 23.2818 5.62105C23.4358 5.26905 23.5275 4.92805 23.5568 4.59805C23.3001 4.76672 23.0251 4.90605 22.7318 5.01605C22.4385 5.12605 22.1341 5.18105 21.8188 5.18105C21.3421 5.18105 20.9278 5.08572 20.5758 4.89505C20.2238 4.69705 19.9488 4.42205 19.7508 4.07005C19.5601 3.71072 19.4648 3.29272 19.4648 2.81605C19.4648 2.23672 19.5858 1.74905 19.8278 1.35305C20.0698 0.957054 20.4035 0.656388 20.8288 0.451054C21.2615 0.245721 21.7528 0.143054 22.3028 0.143054C22.6988 0.143054 23.0618 0.242054 23.3918 0.440054C23.7218 0.638054 24.0005 0.898388 24.2278 1.22105C24.4551 1.53639 24.6091 1.87739 24.6898 2.24405C24.7338 2.44205 24.7595 2.64372 24.7668 2.84905C24.7815 3.04705 24.7888 3.24872 24.7888 3.45405ZM31.3211 5.35705C31.3211 5.70172 31.2514 6.06839 31.1121 6.45705C30.9728 6.84572 30.7711 7.15739 30.5071 7.39205C30.2138 7.64872 29.8618 7.84672 29.4511 7.98605C29.0404 8.12539 28.6408 8.19505 28.2521 8.19505C28.0688 8.19505 27.8488 8.17305 27.5921 8.12905C27.3354 8.07772 27.0824 8.00439 26.8331 7.90905C26.5838 7.80639 26.3748 7.67439 26.2061 7.51305C26.0374 7.34439 25.9531 7.14272 25.9531 6.90805C25.9531 6.74672 26.0081 6.62205 26.1181 6.53405C26.2281 6.43872 26.3601 6.39105 26.5141 6.39105C26.6461 6.39105 26.7634 6.42405 26.8661 6.49005C26.9688 6.55605 27.0238 6.66239 27.0311 6.80905C27.0604 7.14639 27.1558 7.40672 27.3171 7.59005C27.4858 7.77339 27.7498 7.86505 28.1091 7.86505C28.6151 7.86505 29.0258 7.74772 29.3411 7.51305C29.6564 7.27105 29.8911 6.90805 30.0451 6.42405C30.0964 6.25539 30.1258 6.08305 30.1331 5.90705C30.1478 5.72372 30.1551 5.54405 30.1551 5.36805C30.1551 5.12605 30.1258 4.86572 30.0671 4.58705C30.0158 4.30105 29.9168 4.05905 29.7701 3.86105C29.6454 3.69239 29.4841 3.57872 29.2861 3.52005C29.0954 3.46139 28.8974 3.43205 28.6921 3.43205C28.5308 3.43205 28.3548 3.46139 28.1641 3.52005C27.9734 3.57139 27.8158 3.64839 27.6911 3.75105C27.5664 3.85372 27.4528 3.98572 27.3501 4.14705C27.2474 4.30105 27.1888 4.46239 27.1741 4.63105C27.1668 4.67505 27.1594 4.73005 27.1521 4.79605C27.1448 4.86205 27.1081 4.89505 27.0421 4.89505C27.0054 4.89505 26.9284 4.88039 26.8111 4.85105C26.7011 4.81439 26.5948 4.77405 26.4921 4.73005C26.3968 4.67872 26.3491 4.63472 26.3491 4.59805C26.3491 4.57605 26.3528 4.55405 26.3601 4.53205C26.3674 4.51005 26.3748 4.48805 26.3821 4.46605C26.4334 4.29739 26.4738 4.08839 26.5031 3.83905C26.5398 3.58239 26.5654 3.31472 26.5801 3.03605C26.5948 2.75005 26.6058 2.47505 26.6131 2.21105C26.6204 1.94705 26.6241 1.72339 26.6241 1.54005C26.6241 1.10739 26.6021 0.671054 26.5581 0.231054C26.7854 0.260388 27.0091 0.282388 27.2291 0.297054C27.4564 0.311721 27.6838 0.319055 27.9111 0.319055H29.4841C29.6748 0.319055 29.8948 0.308055 30.1441 0.286054C30.4008 0.264054 30.6134 0.205387 30.7821 0.110054C30.8188 0.0880543 30.8591 0.0660544 30.9031 0.0440542C30.9544 0.0147208 30.9984 5.4121e-05 31.0351 5.4121e-05C31.0571 5.4121e-05 31.0901 0.00372074 31.1341 0.011054C31.1781 0.011054 31.2001 0.0293875 31.2001 0.0660546C31.2001 0.102721 31.1744 0.179721 31.1231 0.297054C31.0718 0.407054 31.0168 0.520721 30.9581 0.638054C30.8994 0.755388 30.8591 0.832387 30.8371 0.869054C30.8078 0.920388 30.7711 0.953388 30.7271 0.968054C30.6831 0.982721 30.6318 0.990054 30.5731 0.990054C30.4778 0.990054 30.3788 0.990054 30.2761 0.990054C30.1808 0.982721 30.0818 0.975388 29.9791 0.968054C29.8544 0.953388 29.7261 0.949721 29.5941 0.957054C29.4621 0.957054 29.3338 0.957054 29.2091 0.957054C29.0038 0.957054 28.7984 0.957054 28.5931 0.957054C28.3878 0.949721 28.1788 0.946054 27.9661 0.946054C27.8414 0.946054 27.7131 0.946054 27.5811 0.946054C27.4564 0.946054 27.3318 0.949721 27.2071 0.957054C27.1998 1.41905 27.1814 1.88472 27.1521 2.35405C27.1301 2.81605 27.1081 3.27805 27.0861 3.74005C27.4234 3.50539 27.7351 3.33305 28.0211 3.22305C28.3144 3.10572 28.6664 3.04705 29.0771 3.04705C29.3558 3.04705 29.6234 3.08739 29.8801 3.16805C30.1441 3.24872 30.3788 3.38439 30.5841 3.57505C30.8188 3.79505 30.9984 4.06639 31.1231 4.38905C31.2551 4.71172 31.3211 5.03439 31.3211 5.35705ZM40.2734 4.81805C40.2734 4.86205 40.2624 4.90239 40.2404 4.93905C40.2184 4.97572 40.1817 4.99405 40.1304 4.99405H39.4484V7.34805C38.935 7.52405 38.4254 7.71839 37.9194 7.93105C37.6774 8.03372 37.4207 8.09972 37.1494 8.12905C36.8854 8.15839 36.625 8.17305 36.3684 8.17305C36.1484 8.17305 35.9027 8.14739 35.6314 8.09605C35.36 8.04472 35.096 7.97139 34.8394 7.87605C34.59 7.78072 34.37 7.67072 34.1794 7.54605C33.622 7.17205 33.2077 6.68805 32.9364 6.09405C32.6724 5.50005 32.5404 4.86939 32.5404 4.20205C32.5404 3.63739 32.6284 3.10572 32.8044 2.60705C32.9877 2.10839 33.248 1.66839 33.5854 1.28705C33.9227 0.905721 34.326 0.608721 34.7954 0.396054C35.272 0.176054 35.8037 0.0660546 36.3904 0.0660546C36.823 0.0660546 37.2374 0.124721 37.6334 0.242054C37.6994 0.264054 37.8057 0.297054 37.9524 0.341054C38.099 0.385054 38.2457 0.429054 38.3924 0.473055C38.539 0.509721 38.638 0.528055 38.6894 0.528055C38.8434 0.528055 38.9497 0.509721 39.0084 0.473055C39.067 0.429054 39.111 0.381388 39.1404 0.330054C39.177 0.278721 39.2284 0.238387 39.2944 0.209054H39.3824C39.441 0.209054 39.474 0.242054 39.4814 0.308054C39.496 0.381388 39.4997 0.458388 39.4924 0.539054C39.4924 0.619721 39.4924 0.700388 39.4924 0.781055C39.4924 1.00839 39.496 1.23572 39.5034 1.46305C39.518 1.69039 39.5254 1.92139 39.5254 2.15605C39.5254 2.24405 39.5217 2.34672 39.5144 2.46405C39.5144 2.58139 39.4484 2.64005 39.3164 2.64005C39.2724 2.64005 39.232 2.63639 39.1954 2.62905C39.166 2.61439 39.1367 2.58872 39.1074 2.55205C39.1 2.53739 39.0817 2.49705 39.0524 2.43105C39.023 2.35772 38.9937 2.28439 38.9644 2.21105C38.935 2.13039 38.913 2.07539 38.8984 2.04605C38.7004 1.59872 38.4107 1.22472 38.0294 0.924054C37.8314 0.762721 37.5784 0.634388 37.2704 0.539054C36.9697 0.443721 36.691 0.396054 36.4344 0.396054C35.943 0.396054 35.525 0.517054 35.1804 0.759054C34.8357 0.993721 34.557 1.30172 34.3444 1.68305C34.1317 2.06439 33.9777 2.47505 33.8824 2.91505C33.787 3.35505 33.7394 3.78039 33.7394 4.19105C33.7394 4.62372 33.7907 5.04905 33.8934 5.46705C33.996 5.88505 34.1537 6.26272 34.3664 6.60005C34.5864 6.93739 34.8724 7.20872 35.2244 7.41405C35.5764 7.61205 35.998 7.71105 36.4894 7.71105C36.636 7.71105 36.812 7.69639 37.0174 7.66705C37.2227 7.63772 37.428 7.58639 37.6334 7.51305C37.8387 7.43972 38.0074 7.34072 38.1394 7.21605C38.2787 7.09139 38.3484 6.93372 38.3484 6.74305V5.29105C38.3484 5.17372 38.2897 5.10039 38.1724 5.07105C38.0624 5.03439 37.967 5.01605 37.8864 5.01605C37.7764 5.01605 37.6664 5.02339 37.5564 5.03805C37.4464 5.04539 37.3364 5.04905 37.2264 5.04905C37.1677 5.04905 37.1274 5.03072 37.1054 4.99405C37.0907 4.95739 37.0834 4.91339 37.0834 4.86205C37.0834 4.81805 37.0907 4.77772 37.1054 4.74105C37.12 4.69705 37.1567 4.67505 37.2154 4.67505C37.3327 4.67505 37.4464 4.67872 37.5564 4.68605C37.6664 4.68605 37.78 4.68605 37.8974 4.68605H38.6784C38.803 4.68605 38.9277 4.68605 39.0524 4.68605C39.177 4.68605 39.3017 4.68239 39.4264 4.67505C39.551 4.67505 39.672 4.67139 39.7894 4.66405C39.9067 4.64939 40.024 4.64205 40.1414 4.64205C40.1854 4.64205 40.2184 4.66405 40.2404 4.70805C40.2624 4.74472 40.2734 4.78139 40.2734 4.81805ZM45.4351 7.89805C45.3911 7.81005 45.3215 7.68539 45.2261 7.52405C45.1381 7.35539 45.0355 7.17939 44.9181 6.99605C44.8081 6.80539 44.7018 6.63672 44.5991 6.49005C44.5038 6.33605 44.4231 6.23705 44.3571 6.19305C44.2765 6.13439 44.1995 6.09772 44.1261 6.08305C44.0601 6.06839 43.9795 6.06105 43.8841 6.06105C43.7595 6.06105 43.6311 6.10872 43.4991 6.20405C43.3745 6.29205 43.2681 6.40205 43.1801 6.53405C43.0921 6.66605 43.0371 6.79439 43.0151 6.91905C43.1251 7.08772 43.3011 7.24905 43.5431 7.40305C43.7925 7.55705 44.0528 7.68172 44.3241 7.77705C44.6028 7.86505 44.8411 7.90905 45.0391 7.90905C45.1051 7.90905 45.1711 7.90905 45.2371 7.90905C45.3031 7.90172 45.3691 7.89805 45.4351 7.89805ZM47.6021 4.23505C47.6021 3.81705 47.5545 3.38439 47.4591 2.93705C47.3638 2.48239 47.2098 2.06439 46.9971 1.68305C46.7845 1.29439 46.5021 0.979054 46.1501 0.737054C45.8055 0.495055 45.3801 0.374055 44.8741 0.374055C44.4928 0.374055 44.1555 0.458388 43.8621 0.627055C43.5688 0.788388 43.3195 1.00839 43.1141 1.28705C42.9088 1.55839 42.7401 1.86272 42.6081 2.20005C42.4835 2.53739 42.3918 2.88205 42.3331 3.23405C42.2745 3.58605 42.2451 3.91972 42.2451 4.23505C42.2451 4.63105 42.2781 5.03072 42.3441 5.43405C42.4175 5.83739 42.5568 6.21139 42.7621 6.55605C42.9088 6.31405 43.0995 6.09405 43.3341 5.89605C43.5688 5.69072 43.8365 5.58805 44.1371 5.58805C44.4158 5.58805 44.6468 5.65039 44.8301 5.77505C45.0208 5.89239 45.1968 6.05739 45.3581 6.27005C45.5268 6.47539 45.6808 6.69172 45.8201 6.91905C45.9595 7.13905 46.0988 7.36272 46.2381 7.59005C46.3335 7.50939 46.4288 7.43239 46.5241 7.35905C46.6195 7.28572 46.7075 7.20139 46.7881 7.10605C47.1328 6.71739 47.3528 6.26639 47.4481 5.75305C47.5508 5.23972 47.6021 4.73372 47.6021 4.23505ZM49.3071 8.74505C49.3071 8.76705 49.2888 8.80005 49.2521 8.84405C49.2228 8.88805 49.2008 8.91739 49.1861 8.93205C49.0248 9.13005 48.8305 9.28772 48.6031 9.40505C48.3831 9.52239 48.1448 9.58105 47.8881 9.58105C47.5141 9.58105 47.1951 9.52239 46.9311 9.40505C46.6671 9.28772 46.4325 9.12272 46.2271 8.91005C46.0218 8.69739 45.8128 8.44805 45.6001 8.16205C45.4901 8.16939 45.3801 8.18039 45.2701 8.19505C45.1675 8.20239 45.0611 8.20605 44.9511 8.20605C44.3865 8.20605 43.8658 8.10339 43.3891 7.89805C42.9125 7.69272 42.4981 7.40672 42.1461 7.04005C41.8015 6.67339 41.5338 6.24805 41.3431 5.76405C41.1525 5.28005 41.0571 4.75939 41.0571 4.20205C41.0571 3.63005 41.1488 3.09472 41.3321 2.59605C41.5155 2.09005 41.7795 1.64639 42.1241 1.26505C42.4688 0.883721 42.8795 0.586721 43.3561 0.374055C43.8401 0.154054 44.3791 0.0440542 44.9731 0.0440542C45.8165 0.0440542 46.5241 0.227388 47.0961 0.594054C47.6681 0.960721 48.1008 1.45939 48.3941 2.09005C48.6948 2.72072 48.8451 3.43572 48.8451 4.23505C48.8451 4.74839 48.7498 5.24705 48.5591 5.73105C48.3685 6.21505 48.0971 6.65139 47.7451 7.04005C47.3931 7.42139 46.9788 7.71472 46.5021 7.92005C46.7588 8.23539 47.0265 8.49572 47.3051 8.70105C47.5838 8.91372 47.9358 9.02005 48.3611 9.02005C48.4051 9.02005 48.4785 9.00905 48.5811 8.98705C48.6911 8.96505 48.7938 8.93205 48.8891 8.88805C48.9918 8.85139 49.0541 8.81472 49.0761 8.77805L49.1311 8.72305C49.1458 8.70839 49.1605 8.69372 49.1751 8.67905C49.1898 8.66439 49.2008 8.65705 49.2081 8.65705C49.2741 8.65705 49.3071 8.68639 49.3071 8.74505ZM54.2826 4.22405C54.2826 4.01139 54.2752 3.75105 54.2606 3.44305C54.2532 3.12772 54.2276 2.79772 54.1836 2.45305C54.1396 2.10839 54.0626 1.78572 53.9526 1.48505C53.8426 1.18439 53.6922 0.942388 53.5016 0.759054C53.3109 0.568388 53.0616 0.473055 52.7536 0.473055C52.4749 0.473055 52.2402 0.572054 52.0496 0.770054C51.8589 0.960721 51.7049 1.21372 51.5876 1.52905C51.4702 1.83705 51.3786 2.16705 51.3126 2.51905C51.2539 2.86372 51.2136 3.19739 51.1916 3.52005C51.1696 3.83539 51.1586 4.09205 51.1586 4.29005C51.1586 4.48805 51.1659 4.73739 51.1806 5.03805C51.2026 5.33139 51.2392 5.64305 51.2906 5.97305C51.3419 6.29572 51.4226 6.60005 51.5326 6.88605C51.6499 7.17205 51.8002 7.40672 51.9836 7.59005C52.1669 7.76605 52.3979 7.85405 52.6766 7.85405C52.9699 7.85405 53.2119 7.76605 53.4026 7.59005C53.5932 7.40672 53.7472 7.17205 53.8646 6.88605C53.9819 6.59272 54.0699 6.28105 54.1286 5.95105C54.1946 5.61372 54.2349 5.29472 54.2496 4.99405C54.2716 4.68605 54.2826 4.42939 54.2826 4.22405ZM55.4266 4.08105C55.4266 4.41839 55.3936 4.77405 55.3276 5.14805C55.2689 5.52205 55.1736 5.88872 55.0416 6.24805C54.9096 6.60739 54.7336 6.93372 54.5136 7.22705C54.3009 7.52039 54.0406 7.75505 53.7326 7.93105C53.4246 8.09972 53.0652 8.18405 52.6546 8.18405C52.1632 8.18405 51.7489 8.06305 51.4116 7.82105C51.0816 7.57172 50.8176 7.25272 50.6196 6.86405C50.4216 6.47539 50.2786 6.06105 50.1906 5.62105C50.1026 5.17372 50.0586 4.75205 50.0586 4.35605C50.0586 4.01872 50.0879 3.65939 50.1466 3.27805C50.2052 2.88939 50.3006 2.51172 50.4326 2.14505C50.5646 1.77839 50.7369 1.44472 50.9496 1.14405C51.1696 0.843388 51.4336 0.605054 51.7416 0.429054C52.0569 0.245721 52.4236 0.154054 52.8416 0.154054C53.2376 0.154054 53.5786 0.238387 53.8646 0.407054C54.1579 0.575721 54.4036 0.799388 54.6016 1.07805C54.8069 1.35672 54.9682 1.66839 55.0856 2.01305C55.2029 2.35772 55.2872 2.70972 55.3386 3.06905C55.3972 3.42105 55.4266 3.75839 55.4266 4.08105ZM61.9148 5.35705C61.9148 5.70172 61.8452 6.06839 61.7058 6.45705C61.5665 6.84572 61.3648 7.15739 61.1008 7.39205C60.8075 7.64872 60.4555 7.84672 60.0448 7.98605C59.6342 8.12539 59.2345 8.19505 58.8458 8.19505C58.6625 8.19505 58.4425 8.17305 58.1858 8.12905C57.9292 8.07772 57.6762 8.00439 57.4268 7.90905C57.1775 7.80639 56.9685 7.67439 56.7998 7.51305C56.6312 7.34439 56.5468 7.14272 56.5468 6.90805C56.5468 6.74672 56.6018 6.62205 56.7118 6.53405C56.8218 6.43872 56.9538 6.39105 57.1078 6.39105C57.2398 6.39105 57.3572 6.42405 57.4598 6.49005C57.5625 6.55605 57.6175 6.66239 57.6248 6.80905C57.6542 7.14639 57.7495 7.40672 57.9108 7.59005C58.0795 7.77339 58.3435 7.86505 58.7028 7.86505C59.2088 7.86505 59.6195 7.74772 59.9348 7.51305C60.2502 7.27105 60.4848 6.90805 60.6388 6.42405C60.6902 6.25539 60.7195 6.08305 60.7268 5.90705C60.7415 5.72372 60.7488 5.54405 60.7488 5.36805C60.7488 5.12605 60.7195 4.86572 60.6608 4.58705C60.6095 4.30105 60.5105 4.05905 60.3638 3.86105C60.2392 3.69239 60.0778 3.57872 59.8798 3.52005C59.6892 3.46139 59.4912 3.43205 59.2858 3.43205C59.1245 3.43205 58.9485 3.46139 58.7578 3.52005C58.5672 3.57139 58.4095 3.64839 58.2848 3.75105C58.1602 3.85372 58.0465 3.98572 57.9438 4.14705C57.8412 4.30105 57.7825 4.46239 57.7678 4.63105C57.7605 4.67505 57.7532 4.73005 57.7458 4.79605C57.7385 4.86205 57.7018 4.89505 57.6358 4.89505C57.5992 4.89505 57.5222 4.88039 57.4048 4.85105C57.2948 4.81439 57.1885 4.77405 57.0858 4.73005C56.9905 4.67872 56.9428 4.63472 56.9428 4.59805C56.9428 4.57605 56.9465 4.55405 56.9538 4.53205C56.9612 4.51005 56.9685 4.48805 56.9758 4.46605C57.0272 4.29739 57.0675 4.08839 57.0968 3.83905C57.1335 3.58239 57.1592 3.31472 57.1738 3.03605C57.1885 2.75005 57.1995 2.47505 57.2068 2.21105C57.2142 1.94705 57.2178 1.72339 57.2178 1.54005C57.2178 1.10739 57.1958 0.671054 57.1518 0.231054C57.3792 0.260388 57.6028 0.282388 57.8228 0.297054C58.0502 0.311721 58.2775 0.319055 58.5048 0.319055H60.0778C60.2685 0.319055 60.4885 0.308055 60.7378 0.286054C60.9945 0.264054 61.2072 0.205387 61.3758 0.110054C61.4125 0.0880543 61.4528 0.0660544 61.4968 0.0440542C61.5482 0.0147208 61.5922 5.4121e-05 61.6288 5.4121e-05C61.6508 5.4121e-05 61.6838 0.00372074 61.7278 0.011054C61.7718 0.011054 61.7938 0.0293875 61.7938 0.0660546C61.7938 0.102721 61.7682 0.179721 61.7168 0.297054C61.6655 0.407054 61.6105 0.520721 61.5518 0.638054C61.4932 0.755388 61.4528 0.832387 61.4308 0.869054C61.4015 0.920388 61.3648 0.953388 61.3208 0.968054C61.2768 0.982721 61.2255 0.990054 61.1668 0.990054C61.0715 0.990054 60.9725 0.990054 60.8698 0.990054C60.7745 0.982721 60.6755 0.975388 60.5728 0.968054C60.4482 0.953388 60.3198 0.949721 60.1878 0.957054C60.0558 0.957054 59.9275 0.957054 59.8028 0.957054C59.5975 0.957054 59.3922 0.957054 59.1868 0.957054C58.9815 0.949721 58.7725 0.946054 58.5598 0.946054C58.4352 0.946054 58.3068 0.946054 58.1748 0.946054C58.0502 0.946054 57.9255 0.949721 57.8008 0.957054C57.7935 1.41905 57.7752 1.88472 57.7458 2.35405C57.7238 2.81605 57.7018 3.27805 57.6798 3.74005C58.0172 3.50539 58.3288 3.33305 58.6148 3.22305C58.9082 3.10572 59.2602 3.04705 59.6708 3.04705C59.9495 3.04705 60.2172 3.08739 60.4738 3.16805C60.7378 3.24872 60.9725 3.38439 61.1778 3.57505C61.4125 3.79505 61.5922 4.06639 61.7168 4.38905C61.8488 4.71172 61.9148 5.03439 61.9148 5.35705Z" fill="black"/>
</svg>
