<svg width="32" height="12" viewBox="0 0 32 12" fill="none" xmlns="http://www.w3.org/2000/svg">
<path d="M10.9321 8.64011C10.9321 8.74411 10.8841 8.79611 10.7881 8.79611C10.4921 8.79611 10.2001 8.78811 9.91212 8.77211C9.62412 8.75611 9.33612 8.74811 9.04812 8.74811C8.91212 8.74811 8.77612 8.75211 8.64012 8.76011C8.50412 8.76011 8.36812 8.76411 8.23212 8.77211C8.09612 8.78011 7.96012 8.79211 7.82412 8.80811C7.69612 8.81611 7.56412 8.82011 7.42812 8.82011C7.35612 8.82011 7.30812 8.80011 7.28412 8.76011C7.26812 8.71211 7.26012 8.66011 7.26012 8.60411C7.26012 8.57211 7.26812 8.54011 7.28412 8.50811C7.30012 8.46811 7.32812 8.44811 7.36812 8.44811C7.39212 8.44011 7.42812 8.43611 7.47612 8.43611C7.53212 8.43611 7.58812 8.44011 7.64412 8.44811C7.70812 8.44811 7.76812 8.44811 7.82412 8.44811C7.93612 8.44811 8.06012 8.43611 8.19612 8.41211C8.34012 8.38811 8.42012 8.30011 8.43612 8.14811C8.44412 8.12411 8.44412 8.10011 8.43612 8.07611C8.43612 8.05211 8.43612 8.02811 8.43612 8.00411V0.648105H8.36412C8.06012 1.47211 7.74412 2.29211 7.41612 3.10811C7.08812 3.91611 6.76012 4.72411 6.43212 5.53211C6.30412 5.86011 6.17212 6.18811 6.03612 6.51611C5.90012 6.84411 5.76412 7.17211 5.62812 7.50011C5.57212 7.64411 5.51612 7.79211 5.46012 7.94411C5.41212 8.09611 5.35212 8.24011 5.28012 8.37611C5.22412 8.46411 5.13612 8.50811 5.01612 8.50811C4.90412 8.50811 4.82012 8.46411 4.76412 8.37611C4.70012 8.25611 4.64012 8.12811 4.58412 7.99211C4.53612 7.85611 4.48412 7.72411 4.42812 7.59611C4.30812 7.31611 4.19212 7.04011 4.08012 6.76811C3.96812 6.49611 3.85612 6.22411 3.74412 5.95211C3.37612 5.07211 3.00812 4.19611 2.64012 3.32411C2.28012 2.44411 1.92012 1.5681 1.56012 0.696105C1.56012 1.93611 1.56012 3.18011 1.56012 4.42811C1.56812 5.66811 1.57212 6.90811 1.57212 8.14811C1.57212 8.30811 1.64012 8.40011 1.77612 8.42411C1.92012 8.44811 2.05212 8.46011 2.17212 8.46011C2.25212 8.46011 2.33212 8.45611 2.41212 8.44811C2.49212 8.44011 2.57212 8.43611 2.65212 8.43611C2.69212 8.43611 2.71212 8.46011 2.71212 8.50811C2.71212 8.54811 2.70812 8.60411 2.70012 8.67611C2.69212 8.74811 2.66012 8.78411 2.60412 8.78411C2.38812 8.78411 2.16812 8.78011 1.94412 8.77211C1.72812 8.75611 1.51212 8.74811 1.29612 8.74811C1.08812 8.74811 0.876121 8.75611 0.660121 8.77211C0.452121 8.78011 0.244121 8.78411 0.0361211 8.78411C0.0281211 8.76811 0.0201211 8.75611 0.0121211 8.74811C0.0121211 8.73211 0.0081211 8.72011 0.000121117 8.71211V8.60411C0.000121117 8.52411 0.0161211 8.48011 0.0481211 8.47211C0.0801211 8.46411 0.124121 8.46011 0.180121 8.46011C0.244121 8.46011 0.304121 8.46411 0.360121 8.47211C0.416121 8.47211 0.472121 8.47211 0.528121 8.47211C0.648121 8.47211 0.776121 8.45611 0.912121 8.42411C1.04812 8.39211 1.12012 8.30011 1.12812 8.14811C1.14412 8.02011 1.14812 7.89211 1.14012 7.76411C1.14012 7.62811 1.14012 7.49611 1.14012 7.36811C1.14012 7.11211 1.13612 6.85611 1.12812 6.60011C1.12812 6.33611 1.12812 6.07611 1.12812 5.82011C1.12812 4.96411 1.13212 4.11211 1.14012 3.26411C1.15612 2.41611 1.16412 1.56811 1.16412 0.720105C1.16412 0.568105 1.09212 0.468105 0.948121 0.420105C0.804121 0.372105 0.672121 0.348105 0.552121 0.348105C0.480121 0.348105 0.408121 0.352105 0.336121 0.360105C0.264121 0.368105 0.192121 0.372105 0.120121 0.372105C0.0721211 0.372105 0.0401211 0.348105 0.0241211 0.300105C0.00812111 0.252105 0.000121117 0.212105 0.000121117 0.180105C0.000121117 0.068105 0.0441211 0.012105 0.132121 0.012105C0.340121 0.012105 0.552121 0.0201051 0.768121 0.0361054C0.984121 0.0441053 1.19612 0.0481052 1.40412 0.0481052C1.81212 0.0481052 2.22012 0.0361052 2.62812 0.012105L5.47212 6.85211C5.91212 5.70811 6.37212 4.57611 6.85212 3.45611C7.33212 2.32811 7.77612 1.18811 8.18412 0.0361054C8.38412 0.0441053 8.58012 0.0521052 8.77212 0.0601051C8.97212 0.0601051 9.17212 0.0601051 9.37212 0.0601051C9.61212 0.0601051 9.84812 0.0521052 10.0801 0.0361054C10.3201 0.0121052 10.5601 0.000105143 10.8001 0.000105143C10.8481 0.000105143 10.8761 0.0241051 10.8841 0.0721049C10.8921 0.120105 10.8961 0.160105 10.8961 0.192105C10.8961 0.224105 10.8921 0.264105 10.8841 0.312105C10.8761 0.360105 10.8481 0.384105 10.8001 0.384105C10.6961 0.384105 10.5961 0.380105 10.5001 0.372105C10.4041 0.364105 10.3081 0.360105 10.2121 0.360105C10.1161 0.360105 9.99612 0.384105 9.85212 0.432105C9.71612 0.472105 9.64812 0.552105 9.64812 0.672105V8.05211C9.64812 8.23611 9.70012 8.35211 9.80412 8.40011C9.91612 8.44011 10.0561 8.46011 10.2241 8.46011C10.3201 8.46011 10.4161 8.45611 10.5121 8.44811C10.6081 8.44011 10.7081 8.43611 10.8121 8.43611C10.8761 8.43611 10.9121 8.46011 10.9201 8.50811C10.9281 8.55611 10.9321 8.60011 10.9321 8.64011ZM15.4353 7.40411C15.4033 7.04411 15.3833 6.68411 15.3753 6.32411C15.3753 5.95611 15.3713 5.58811 15.3633 5.22011H15.1953C14.9473 5.22011 14.6713 5.26011 14.3673 5.34011C14.0713 5.41211 13.7873 5.52411 13.5153 5.67611C13.2433 5.82811 13.0193 6.02011 12.8433 6.25211C12.6753 6.47611 12.5913 6.73611 12.5913 7.03211C12.5913 7.41611 12.6993 7.70811 12.9153 7.90811C13.1313 8.10011 13.4233 8.19611 13.7913 8.19611C13.9673 8.19611 14.1593 8.15611 14.3673 8.07611C14.5753 7.98811 14.7753 7.88411 14.9673 7.76411C15.1593 7.64411 15.3153 7.52411 15.4353 7.40411ZM17.5353 8.17211C17.5353 8.20411 17.5313 8.22811 17.5233 8.24411C17.4433 8.42011 17.3073 8.55611 17.1153 8.65211C16.9313 8.74011 16.7473 8.78411 16.5633 8.78411C16.2273 8.78411 15.9833 8.68811 15.8313 8.49611C15.6873 8.29611 15.5713 8.05211 15.4833 7.76411C15.1793 8.04411 14.8433 8.28011 14.4753 8.47211C14.1073 8.65611 13.7113 8.74811 13.2873 8.74811C12.9913 8.74811 12.7113 8.69211 12.4473 8.58011C12.1913 8.46011 11.9833 8.28811 11.8233 8.06411C11.6633 7.84011 11.5833 7.56811 11.5833 7.24811C11.5833 6.91211 11.6673 6.62411 11.8353 6.38411C12.0113 6.13611 12.2313 5.92811 12.4953 5.76011C12.7673 5.58411 13.0553 5.44411 13.3593 5.34011C13.6713 5.22811 13.9633 5.14411 14.2353 5.08811C14.4193 5.04811 14.6073 5.01211 14.7993 4.98011C14.9913 4.94811 15.1793 4.91611 15.3633 4.88411C15.3633 4.66011 15.3513 4.40011 15.3273 4.10411C15.3113 3.80811 15.2513 3.56411 15.1473 3.37211C15.0433 3.18811 14.9033 3.02411 14.7273 2.88011C14.5513 2.73611 14.3553 2.66411 14.1393 2.66411C13.7713 2.66411 13.4833 2.76011 13.2753 2.95211C13.0673 3.14411 12.9193 3.41611 12.8313 3.76811C12.8233 3.80811 12.8153 3.85211 12.8073 3.90011C12.8073 3.94011 12.8033 3.98011 12.7953 4.02011C12.7873 4.06811 12.7553 4.11211 12.6993 4.15211C12.6513 4.18411 12.5993 4.20011 12.5433 4.20011C12.3913 4.20011 12.2513 4.16411 12.1233 4.09211C12.0033 4.02011 11.9433 3.90011 11.9433 3.73211C11.9433 3.63611 11.9593 3.55211 11.9913 3.48011C12.0953 3.23211 12.2633 3.02811 12.4953 2.86811C12.7273 2.70011 12.9833 2.57211 13.2633 2.48411C13.5513 2.39611 13.8193 2.3521 14.0673 2.3521C14.4993 2.3521 14.8913 2.43211 15.2433 2.59211C15.5953 2.75211 15.8753 2.98811 16.0833 3.30011C16.2993 3.60411 16.4073 3.98811 16.4073 4.45211C16.4073 4.97211 16.4033 5.49611 16.3953 6.02411C16.3953 6.55211 16.4113 7.08011 16.4433 7.60811C16.4513 7.78411 16.4873 7.94011 16.5513 8.07611C16.6153 8.20411 16.7473 8.26811 16.9473 8.26811C17.0513 8.26811 17.1593 8.24411 17.2713 8.19611C17.3913 8.14011 17.4673 8.11211 17.4993 8.11211C17.5233 8.11211 17.5353 8.13211 17.5353 8.17211ZM23.2227 5.37611C23.2227 5.10411 23.2067 4.82011 23.1747 4.52411C23.1427 4.22011 23.0747 3.93611 22.9707 3.67211C22.8667 3.40811 22.7107 3.19611 22.5027 3.03611C22.2947 2.86811 22.0107 2.78411 21.6507 2.78411C21.4347 2.78411 21.2027 2.84011 20.9547 2.95211C20.7147 3.05611 20.5027 3.20011 20.3187 3.38411C20.1427 3.56811 20.0427 3.78011 20.0187 4.02011C20.0027 4.26811 19.9947 4.52011 19.9947 4.77611C19.9947 5.03211 19.9947 5.28811 19.9947 5.54411C19.9947 5.76811 19.9947 5.99611 19.9947 6.22811C20.0027 6.45211 20.0107 6.68011 20.0187 6.91211C20.0427 7.32011 20.1747 7.66811 20.4147 7.95611C20.6547 8.23611 20.9947 8.37611 21.4347 8.37611C21.8507 8.37611 22.1787 8.28411 22.4187 8.10011C22.6587 7.90811 22.8347 7.66011 22.9467 7.35611C23.0667 7.05211 23.1427 6.72811 23.1747 6.38411C23.2067 6.03211 23.2227 5.69611 23.2227 5.37611ZM24.4587 5.38811C24.4587 6.01211 24.3467 6.57611 24.1227 7.08011C23.8987 7.58411 23.5627 7.98411 23.1147 8.28011C22.6747 8.56811 22.1227 8.71211 21.4587 8.71211C21.2027 8.71211 20.9387 8.64811 20.6667 8.52011C20.4027 8.38411 20.1787 8.22811 19.9947 8.05211V10.6081C19.9947 10.7201 20.0387 10.7841 20.1267 10.8001C20.2227 10.8161 20.3107 10.8241 20.3907 10.8241C20.4627 10.8241 20.5347 10.8201 20.6067 10.8121C20.6787 10.8041 20.7507 10.8001 20.8227 10.8001C20.9267 10.8001 20.9787 10.8521 20.9787 10.9561C20.9787 11.0761 20.9187 11.1361 20.7987 11.1361C20.5507 11.1361 20.3027 11.1281 20.0547 11.1121C19.8067 11.0961 19.5587 11.0881 19.3107 11.0881C19.1027 11.0881 18.8947 11.0961 18.6867 11.1121C18.4867 11.1281 18.2827 11.1361 18.0747 11.1361C18.0187 11.1361 17.9827 11.1161 17.9667 11.0761C17.9587 11.0361 17.9547 11.0001 17.9547 10.9681C17.9547 10.8561 18.0107 10.8001 18.1227 10.8001C18.1867 10.8001 18.2507 10.8001 18.3147 10.8001C18.3787 10.8081 18.4427 10.8121 18.5067 10.8121C18.5627 10.8121 18.6427 10.8041 18.7467 10.7881C18.8587 10.7721 18.9147 10.7241 18.9147 10.6441C18.9147 9.81211 18.9147 8.97611 18.9147 8.13611C18.9227 7.29611 18.9267 6.46011 18.9267 5.62811C18.9267 5.25211 18.9227 4.88011 18.9147 4.51211C18.9147 4.14411 18.9107 3.77611 18.9027 3.40811C18.8947 3.23211 18.8627 3.11211 18.8067 3.04811C18.7507 2.97611 18.6307 2.94011 18.4467 2.94011C18.3667 2.94011 18.2867 2.95211 18.2067 2.97611C18.1267 2.99211 18.0467 3.00011 17.9667 3.00011C17.8787 3.00011 17.8347 2.96011 17.8347 2.88011C17.8347 2.80811 17.8707 2.76011 17.9427 2.7361C17.9587 2.72811 18.0307 2.71211 18.1587 2.6881C18.2867 2.66411 18.4387 2.63611 18.6147 2.60411C18.7987 2.56411 18.9787 2.52811 19.1547 2.49611C19.3307 2.46411 19.4787 2.43611 19.5987 2.4121C19.7187 2.38811 19.7827 2.37611 19.7907 2.37611C19.8547 2.37611 19.8987 2.41611 19.9227 2.49611C19.9387 2.54411 19.9467 2.63211 19.9467 2.76011C19.9547 2.88011 19.9587 3.00411 19.9587 3.13211C19.9587 3.25211 19.9587 3.34411 19.9587 3.40811C20.1827 3.11211 20.4667 2.86811 20.8107 2.67611C21.1627 2.47611 21.5267 2.37611 21.9027 2.37611C22.4547 2.37611 22.9187 2.52411 23.2947 2.82011C23.6787 3.10811 23.9667 3.48411 24.1587 3.94811C24.3587 4.40411 24.4587 4.88411 24.4587 5.38811ZM29.2634 7.40411C29.2314 7.04411 29.2114 6.68411 29.2034 6.32411C29.2034 5.95611 29.1994 5.58811 29.1914 5.22011H29.0234C28.7754 5.22011 28.4994 5.26011 28.1954 5.34011C27.8994 5.41211 27.6154 5.52411 27.3434 5.67611C27.0714 5.82811 26.8474 6.02011 26.6714 6.25211C26.5034 6.47611 26.4194 6.73611 26.4194 7.03211C26.4194 7.41611 26.5274 7.70811 26.7434 7.90811C26.9594 8.10011 27.2514 8.19611 27.6194 8.19611C27.7954 8.19611 27.9874 8.15611 28.1954 8.07611C28.4034 7.98811 28.6034 7.88411 28.7954 7.76411C28.9874 7.64411 29.1434 7.52411 29.2634 7.40411ZM31.3634 8.17211C31.3634 8.20411 31.3594 8.22811 31.3514 8.24411C31.2714 8.42011 31.1354 8.55611 30.9434 8.65211C30.7594 8.74011 30.5754 8.78411 30.3914 8.78411C30.0554 8.78411 29.8114 8.68811 29.6594 8.49611C29.5154 8.29611 29.3994 8.05211 29.3114 7.76411C29.0074 8.04411 28.6714 8.28011 28.3034 8.47211C27.9354 8.65611 27.5394 8.74811 27.1154 8.74811C26.8194 8.74811 26.5394 8.69211 26.2754 8.58011C26.0194 8.46011 25.8114 8.28811 25.6514 8.06411C25.4914 7.84011 25.4114 7.56811 25.4114 7.24811C25.4114 6.91211 25.4954 6.62411 25.6634 6.38411C25.8394 6.13611 26.0594 5.92811 26.3234 5.76011C26.5954 5.58411 26.8834 5.44411 27.1874 5.34011C27.4994 5.22811 27.7914 5.14411 28.0634 5.08811C28.2474 5.04811 28.4354 5.01211 28.6274 4.98011C28.8194 4.94811 29.0074 4.91611 29.1914 4.88411C29.1914 4.66011 29.1794 4.40011 29.1554 4.10411C29.1394 3.80811 29.0794 3.56411 28.9754 3.37211C28.8714 3.18811 28.7314 3.02411 28.5554 2.88011C28.3794 2.73611 28.1834 2.66411 27.9674 2.66411C27.5994 2.66411 27.3114 2.76011 27.1034 2.95211C26.8954 3.14411 26.7474 3.41611 26.6594 3.76811C26.6514 3.80811 26.6434 3.85211 26.6354 3.90011C26.6354 3.94011 26.6314 3.98011 26.6234 4.02011C26.6154 4.06811 26.5834 4.11211 26.5274 4.15211C26.4794 4.18411 26.4274 4.20011 26.3714 4.20011C26.2194 4.20011 26.0794 4.16411 25.9514 4.09211C25.8314 4.02011 25.7714 3.90011 25.7714 3.73211C25.7714 3.63611 25.7874 3.55211 25.8194 3.48011C25.9234 3.23211 26.0914 3.02811 26.3234 2.86811C26.5554 2.70011 26.8114 2.57211 27.0914 2.48411C27.3794 2.39611 27.6474 2.3521 27.8954 2.3521C28.3274 2.3521 28.7194 2.43211 29.0714 2.59211C29.4234 2.75211 29.7034 2.98811 29.9114 3.30011C30.1274 3.60411 30.2354 3.98811 30.2354 4.45211C30.2354 4.97211 30.2314 5.49611 30.2234 6.02411C30.2234 6.55211 30.2394 7.08011 30.2714 7.60811C30.2794 7.78411 30.3154 7.94011 30.3794 8.07611C30.4434 8.20411 30.5754 8.26811 30.7754 8.26811C30.8794 8.26811 30.9874 8.24411 31.0994 8.19611C31.2194 8.14011 31.2954 8.11211 31.3274 8.11211C31.3514 8.11211 31.3634 8.13211 31.3634 8.17211Z" fill="#8A7268"/>
</svg>
