<svg width="48" height="13" viewBox="0 0 48 13" fill="none" xmlns="http://www.w3.org/2000/svg">
<path d="M8.88705e-05 12.75V0.386363H7.46174V1.71449H1.49725V5.89205H7.07537V7.22017H1.49725V11.4219H7.55833V12.75H8.88705e-05ZM15.2796 6.78551V8.11364H9.87047V6.78551H15.2796ZM17.7864 12.75V3.47727H19.1628V4.92614H19.2836C19.4767 4.43111 19.7886 4.04676 20.2193 3.77308C20.6499 3.49538 21.1671 3.35653 21.7708 3.35653C22.3825 3.35653 22.8916 3.49538 23.2981 3.77308C23.7086 4.04676 24.0286 4.43111 24.258 4.92614H24.3546C24.592 4.44721 24.9482 4.06688 25.4231 3.78516C25.898 3.49941 26.4675 3.35653 27.1316 3.35653C27.9606 3.35653 28.6388 3.61612 29.166 4.1353C29.6932 4.65045 29.9569 5.45336 29.9569 6.54403V12.75H28.5321V6.54403C28.5321 5.85985 28.345 5.37086 27.9707 5.07706C27.5964 4.78326 27.1557 4.63636 26.6486 4.63636C25.9966 4.63636 25.4915 4.83357 25.1333 5.22798C24.7752 5.61837 24.5961 6.1134 24.5961 6.71307V12.75H23.1472V6.39915C23.1472 5.87192 22.9761 5.44732 22.6341 5.12535C22.292 4.79936 21.8513 4.63636 21.312 4.63636C20.9417 4.63636 20.5956 4.73497 20.2736 4.93217C19.9557 5.12938 19.6981 5.40305 19.5009 5.7532C19.3077 6.09931 19.2111 6.49976 19.2111 6.95455V12.75H17.7864ZM35.2905 12.9673C34.7029 12.9673 34.1696 12.8567 33.6907 12.6353C33.2118 12.4099 32.8314 12.0859 32.5497 11.6634C32.268 11.2367 32.1271 10.7216 32.1271 10.1179C32.1271 9.58665 32.2318 9.15601 32.4411 8.82599C32.6503 8.49195 32.93 8.23035 33.2802 8.04119C33.6303 7.85204 34.0167 7.71117 34.4393 7.61861C34.8659 7.52202 35.2945 7.44555 35.7251 7.3892C36.2886 7.31676 36.7454 7.26243 37.0955 7.22621C37.4497 7.18596 37.7073 7.11955 37.8683 7.02699C38.0333 6.93442 38.1158 6.77344 38.1158 6.54403V6.49574C38.1158 5.90009 37.9528 5.43726 37.6268 5.10724C37.3048 4.77723 36.8158 4.61222 36.1598 4.61222C35.4796 4.61222 34.9464 4.76113 34.56 5.05895C34.1737 5.35677 33.902 5.67472 33.745 6.01278L32.3928 5.52983C32.6342 4.96638 32.9562 4.5277 33.3587 4.21378C33.7652 3.89583 34.2079 3.67448 34.6868 3.54972C35.1697 3.42093 35.6446 3.35653 36.1115 3.35653C36.4093 3.35653 36.7514 3.39276 37.1378 3.4652C37.5282 3.53362 37.9045 3.67649 38.2667 3.89382C38.6329 4.11115 38.9368 4.43916 39.1783 4.87784C39.4197 5.31652 39.5405 5.90412 39.5405 6.64062V12.75H38.1158V11.4943H38.0433C37.9467 11.6955 37.7857 11.9109 37.5604 12.1403C37.335 12.3697 37.0352 12.5649 36.6609 12.7259C36.2866 12.8868 35.8298 12.9673 35.2905 12.9673ZM35.5078 11.6875C36.0713 11.6875 36.5462 11.5768 36.9325 11.3555C37.3229 11.1341 37.6167 10.8484 37.8139 10.4982C38.0152 10.1481 38.1158 9.77983 38.1158 9.39347V8.08949C38.0554 8.16193 37.9226 8.22834 37.7173 8.28871C37.5161 8.34505 37.2827 8.39536 37.017 8.43963C36.7554 8.47988 36.4999 8.5161 36.2504 8.5483C36.0049 8.57647 35.8056 8.60062 35.6527 8.62074C35.2824 8.66903 34.9363 8.74751 34.6143 8.85618C34.2964 8.96082 34.0388 9.11979 33.8416 9.3331C33.6484 9.54238 33.5518 9.82812 33.5518 10.1903C33.5518 10.6854 33.735 11.0597 34.1012 11.3132C34.4715 11.5627 34.9403 11.6875 35.5078 11.6875ZM42.1409 12.75V3.47727H43.5656V12.75H42.1409ZM42.8653 1.93182C42.5876 1.93182 42.3482 1.83724 42.1469 1.64808C41.9497 1.45893 41.8511 1.23153 41.8511 0.965909C41.8511 0.700284 41.9497 0.472893 42.1469 0.283735C42.3482 0.0945784 42.5876 0 42.8653 0C43.143 0 43.3805 0.0945784 43.5777 0.283735C43.7789 0.472893 43.8795 0.700284 43.8795 0.965909C43.8795 1.23153 43.7789 1.45893 43.5777 1.64808C43.3805 1.83724 43.143 1.93182 42.8653 1.93182ZM47.5998 0.386363V12.75H46.1751V0.386363H47.5998Z" fill="white"/>
</svg>
