<svg width="162" height="16" viewBox="0 0 162 16" fill="none" xmlns="http://www.w3.org/2000/svg">
<path d="M-2.21729e-05 12V3.27273H1.29543V4.63636H1.40907C1.59089 4.17045 1.88445 3.80871 2.28975 3.55114C2.69505 3.28977 3.1818 3.15909 3.74998 3.15909C4.32574 3.15909 4.8049 3.28977 5.18748 3.55114C5.57384 3.80871 5.87498 4.17045 6.09089 4.63636H6.1818C6.40528 4.18561 6.74051 3.82765 7.18748 3.5625C7.63445 3.29356 8.17043 3.15909 8.79543 3.15909C9.57574 3.15909 10.214 3.40341 10.7102 3.89205C11.2064 4.37689 11.4545 5.13258 11.4545 6.15909V12H10.1136V6.15909C10.1136 5.51515 9.93748 5.05492 9.58521 4.77841C9.23293 4.50189 8.81816 4.36364 8.34089 4.36364C7.72725 4.36364 7.25187 4.54924 6.91475 4.92045C6.57763 5.28788 6.40907 5.75379 6.40907 6.31818V12H5.04543V6.02273C5.04543 5.52652 4.88445 5.12689 4.56248 4.82386C4.24051 4.51705 3.82574 4.36364 3.31816 4.36364C2.96967 4.36364 2.64392 4.45644 2.34089 4.64205C2.04164 4.82765 1.79922 5.08523 1.61361 5.41477C1.4318 5.74053 1.34089 6.11742 1.34089 6.54545V12H-2.21729e-05ZM17.5653 12.1818C16.7244 12.1818 15.999 11.9962 15.3892 11.625C14.7831 11.25 14.3153 10.7273 13.9858 10.0568C13.66 9.38258 13.4971 8.59848 13.4971 7.70455C13.4971 6.81061 13.66 6.02273 13.9858 5.34091C14.3153 4.6553 14.7737 4.12121 15.3608 3.73864C15.9517 3.35227 16.6411 3.15909 17.429 3.15909C17.8835 3.15909 18.3324 3.23485 18.7755 3.38636C19.2187 3.53788 19.6221 3.78409 19.9858 4.125C20.3494 4.46212 20.6392 4.90909 20.8551 5.46591C21.071 6.02273 21.179 6.70833 21.179 7.52273V8.09091H14.4517V6.93182H19.8153C19.8153 6.43939 19.7168 6 19.5199 5.61364C19.3267 5.22727 19.0502 4.92235 18.6903 4.69886C18.3343 4.47538 17.9138 4.36364 17.429 4.36364C16.8949 4.36364 16.4327 4.49621 16.0426 4.76136C15.6562 5.02273 15.3589 5.36364 15.1505 5.78409C14.9422 6.20455 14.838 6.6553 14.838 7.13636V7.90909C14.838 8.56818 14.9517 9.12689 15.179 9.58523C15.41 10.0398 15.7301 10.3864 16.1392 10.625C16.5483 10.8598 17.0237 10.9773 17.5653 10.9773C17.9176 10.9773 18.2358 10.928 18.5199 10.8295C18.8077 10.7273 19.0558 10.5758 19.2642 10.375C19.4725 10.1705 19.6335 9.91667 19.7471 9.61364L21.0426 9.97727C20.9062 10.4167 20.6771 10.803 20.3551 11.1364C20.0331 11.4659 19.6354 11.7235 19.1619 11.9091C18.6884 12.0909 18.1562 12.1818 17.5653 12.1818ZM28.7187 8.43182V3.27273H30.0596V12H28.7187V10.5227H28.6278C28.4233 10.9659 28.1051 11.3428 27.6733 11.6534C27.2415 11.9602 26.696 12.1136 26.0369 12.1136C25.4915 12.1136 25.0066 11.9943 24.5824 11.7557C24.1581 11.5133 23.8248 11.1496 23.5824 10.6648C23.3399 10.1761 23.2187 9.56061 23.2187 8.81818V3.27273H24.5596V8.72727C24.5596 9.36364 24.7377 9.87121 25.0937 10.25C25.4536 10.6288 25.9119 10.8182 26.4687 10.8182C26.8021 10.8182 27.1411 10.733 27.4858 10.5625C27.8343 10.392 28.1259 10.1307 28.3608 9.77841C28.5994 9.42614 28.7187 8.97727 28.7187 8.43182ZM36.1747 12.1818C35.3338 12.1818 34.6084 11.9962 33.9986 11.625C33.3925 11.25 32.9247 10.7273 32.5951 10.0568C32.2694 9.38258 32.1065 8.59848 32.1065 7.70455C32.1065 6.81061 32.2694 6.02273 32.5951 5.34091C32.9247 4.6553 33.383 4.12121 33.9701 3.73864C34.5611 3.35227 35.2505 3.15909 36.0383 3.15909C36.4929 3.15909 36.9417 3.23485 37.3849 3.38636C37.8281 3.53788 38.2315 3.78409 38.5951 4.125C38.9588 4.46212 39.2486 4.90909 39.4645 5.46591C39.6804 6.02273 39.7883 6.70833 39.7883 7.52273V8.09091H33.0611V6.93182H38.4247C38.4247 6.43939 38.3262 6 38.1292 5.61364C37.9361 5.22727 37.6595 4.92235 37.2997 4.69886C36.9436 4.47538 36.5232 4.36364 36.0383 4.36364C35.5042 4.36364 35.0421 4.49621 34.652 4.76136C34.2656 5.02273 33.9683 5.36364 33.7599 5.78409C33.5516 6.20455 33.4474 6.6553 33.4474 7.13636V7.90909C33.4474 8.56818 33.5611 9.12689 33.7883 9.58523C34.0194 10.0398 34.3395 10.3864 34.7486 10.625C35.1576 10.8598 35.633 10.9773 36.1747 10.9773C36.527 10.9773 36.8451 10.928 37.1292 10.8295C37.4171 10.7273 37.6652 10.5758 37.8736 10.375C38.0819 10.1705 38.2429 9.91667 38.3565 9.61364L39.652 9.97727C39.5156 10.4167 39.2864 10.803 38.9645 11.1364C38.6425 11.4659 38.2448 11.7235 37.7713 11.9091C37.2978 12.0909 36.7656 12.1818 36.1747 12.1818ZM41.8281 12V3.27273H43.1236V4.63636H43.2372C43.419 4.17045 43.7126 3.80871 44.1179 3.55114C44.5232 3.28977 45.0099 3.15909 45.5781 3.15909C46.1539 3.15909 46.633 3.28977 47.0156 3.55114C47.402 3.80871 47.7031 4.17045 47.919 4.63636H48.0099C48.2334 4.18561 48.5686 3.82765 49.0156 3.5625C49.4626 3.29356 49.9986 3.15909 50.6236 3.15909C51.4039 3.15909 52.0421 3.40341 52.5383 3.89205C53.0345 4.37689 53.2826 5.13258 53.2826 6.15909V12H51.9417V6.15909C51.9417 5.51515 51.7656 5.05492 51.4133 4.77841C51.0611 4.50189 50.6463 4.36364 50.169 4.36364C49.5554 4.36364 49.08 4.54924 48.7429 4.92045C48.4058 5.28788 48.2372 5.75379 48.2372 6.31818V12H46.8736V6.02273C46.8736 5.52652 46.7126 5.12689 46.3906 4.82386C46.0686 4.51705 45.6539 4.36364 45.1463 4.36364C44.7978 4.36364 44.472 4.45644 44.169 4.64205C43.8698 4.82765 43.6273 5.08523 43.4417 5.41477C43.2599 5.74053 43.169 6.11742 43.169 6.54545V12H41.8281ZM58.3025 12.2045C57.7495 12.2045 57.2476 12.1004 56.7969 11.892C56.3461 11.6799 55.9881 11.375 55.723 10.9773C55.4578 10.5758 55.3253 10.0909 55.3253 9.52273C55.3253 9.02273 55.4237 8.61742 55.6207 8.30682C55.8177 7.99242 56.0809 7.74621 56.4105 7.56818C56.74 7.39015 57.1037 7.25758 57.5014 7.17045C57.9029 7.07955 58.3063 7.00758 58.7116 6.95455C59.2419 6.88636 59.6719 6.83523 60.0014 6.80114C60.3347 6.76326 60.5772 6.70076 60.7287 6.61364C60.884 6.52652 60.9616 6.375 60.9616 6.15909V6.11364C60.9616 5.55303 60.8082 5.11742 60.5014 4.80682C60.1984 4.49621 59.7381 4.34091 59.1207 4.34091C58.4806 4.34091 57.9787 4.48106 57.615 4.76136C57.2514 5.04167 56.9957 5.34091 56.848 5.65909L55.5753 5.20455C55.8025 4.67424 56.1056 4.26136 56.4844 3.96591C56.8669 3.66667 57.2836 3.45833 57.7344 3.34091C58.1889 3.2197 58.6359 3.15909 59.0753 3.15909C59.3556 3.15909 59.6775 3.19318 60.0412 3.26136C60.4086 3.32576 60.7628 3.46023 61.1037 3.66477C61.4484 3.86932 61.7344 4.17803 61.9616 4.59091C62.1889 5.00379 62.3025 5.55682 62.3025 6.25V12H60.9616V10.8182H60.8934C60.8025 11.0076 60.651 11.2102 60.4389 11.4261C60.2268 11.642 59.9446 11.8258 59.5923 11.9773C59.24 12.1288 58.8101 12.2045 58.3025 12.2045ZM58.5071 11C59.0374 11 59.4844 10.8958 59.848 10.6875C60.2154 10.4792 60.4919 10.2102 60.6775 9.88068C60.8669 9.55114 60.9616 9.20455 60.9616 8.84091V7.61364C60.9048 7.68182 60.7798 7.74432 60.5866 7.80114C60.3972 7.85417 60.1775 7.90151 59.9275 7.94318C59.6813 7.98106 59.4408 8.01515 59.2059 8.04545C58.9749 8.07197 58.7874 8.0947 58.6434 8.11364C58.295 8.15909 57.9692 8.23295 57.6662 8.33523C57.3669 8.43371 57.1245 8.58333 56.9389 8.78409C56.7571 8.98106 56.6662 9.25 56.6662 9.59091C56.6662 10.0568 56.8385 10.4091 57.1832 10.6477C57.5317 10.8826 57.973 11 58.5071 11ZM64.75 12V3.27273H66.0909V12H64.75ZM65.4318 1.81818C65.1704 1.81818 64.9451 1.72917 64.7557 1.55114C64.5701 1.37311 64.4773 1.15909 64.4773 0.909091C64.4773 0.659091 64.5701 0.445076 64.7557 0.267045C64.9451 0.089015 65.1704 0 65.4318 0C65.6932 0 65.9166 0.089015 66.1023 0.267045C66.2916 0.445076 66.3863 0.659091 66.3863 0.909091C66.3863 1.15909 66.2916 1.37311 66.1023 1.55114C65.9166 1.72917 65.6932 1.81818 65.4318 1.81818ZM69.8878 0.363636V12H68.5469V0.363636H69.8878ZM79.0483 15.0682C77.8892 15.0682 76.8646 14.9091 75.9744 14.5909C75.0843 14.2765 74.3362 13.8125 73.7301 13.1989C73.124 12.5852 72.6657 11.8333 72.3551 10.9432C72.0445 10.053 71.8892 9.03409 71.8892 7.88636C71.8892 6.77651 72.0464 5.78409 72.3608 4.90909C72.679 4.03409 73.1392 3.29167 73.7415 2.68182C74.3475 2.06818 75.0824 1.60038 75.946 1.27841C76.8134 0.956439 77.7945 0.795454 78.8892 0.795454C79.9536 0.795454 80.8854 0.969696 81.6846 1.31818C82.4877 1.66288 83.1581 2.13068 83.696 2.72159C84.2377 3.30871 84.643 3.9697 84.9119 4.70455C85.1846 5.43939 85.321 6.19697 85.321 6.97727C85.321 7.52651 85.2945 8.08333 85.2415 8.64773C85.1884 9.21212 85.0767 9.73106 84.9062 10.2045C84.7358 10.6742 84.4725 11.053 84.1165 11.3409C83.7642 11.6288 83.2869 11.7727 82.6846 11.7727C82.4195 11.7727 82.1278 11.7311 81.8096 11.6477C81.4915 11.5644 81.2093 11.4261 80.963 11.233C80.7168 11.0398 80.571 10.7803 80.5255 10.4545H80.4574C80.3665 10.6742 80.2263 10.8826 80.0369 11.0795C79.8513 11.2765 79.607 11.4337 79.304 11.5511C79.0047 11.6686 78.6392 11.7197 78.2074 11.7045C77.7149 11.6856 77.2812 11.5758 76.9062 11.375C76.5312 11.1705 76.2168 10.8939 75.963 10.5455C75.713 10.1932 75.5237 9.78598 75.3949 9.32386C75.2699 8.85795 75.2074 8.35606 75.2074 7.81818C75.2074 7.30682 75.2831 6.83901 75.4346 6.41477C75.5862 5.99053 75.7964 5.61932 76.0653 5.30114C76.338 4.98295 76.6562 4.72917 77.0199 4.53977C77.3873 4.34659 77.7831 4.22727 78.2074 4.18182C78.5862 4.14394 78.9308 4.16098 79.2415 4.23295C79.5521 4.30114 79.8077 4.4053 80.0085 4.54545C80.2093 4.68182 80.3362 4.83333 80.3892 5H80.4574V4.36364H81.6619V9.5C81.6619 9.81818 81.7509 10.0985 81.929 10.3409C82.107 10.5833 82.3665 10.7045 82.7074 10.7045C83.0937 10.7045 83.3892 10.572 83.5937 10.3068C83.8021 10.0417 83.9441 9.63258 84.0199 9.07955C84.0994 8.52652 84.1392 7.81818 84.1392 6.95455C84.1392 6.44697 84.0691 5.94697 83.929 5.45455C83.7926 4.95833 83.5843 4.49432 83.304 4.0625C83.0274 3.63068 82.6771 3.25 82.2528 2.92045C81.8286 2.59091 81.3305 2.33333 80.7585 2.14773C80.1903 1.95833 79.5445 1.86364 78.821 1.86364C77.9308 1.86364 77.1335 2.00189 76.429 2.27841C75.7282 2.55114 75.1316 2.95076 74.6392 3.47727C74.1505 4 73.7774 4.63636 73.5199 5.38636C73.2661 6.13258 73.1392 6.98106 73.1392 7.93182C73.1392 8.89773 73.2661 9.75568 73.5199 10.5057C73.7774 11.2557 74.1562 11.8883 74.6562 12.4034C75.16 12.9186 75.7831 13.3087 76.5255 13.5739C77.268 13.8428 78.124 13.9773 79.0937 13.9773C79.5104 13.9773 79.9214 13.9375 80.3267 13.858C80.732 13.7784 81.0899 13.6913 81.4005 13.5966C81.7112 13.5019 81.9346 13.4318 82.071 13.3864L82.3892 14.4318C82.1543 14.5303 81.8475 14.6288 81.4687 14.7273C81.0937 14.8258 80.6922 14.9072 80.2642 14.9716C79.8399 15.036 79.4346 15.0682 79.0483 15.0682ZM78.3892 10.5455C78.8968 10.5455 79.3077 10.4432 79.6221 10.2386C79.9365 10.0341 80.1657 9.72538 80.3096 9.3125C80.4536 8.89962 80.5255 8.37879 80.5255 7.75C80.5255 7.11364 80.446 6.61742 80.2869 6.26136C80.1278 5.9053 79.893 5.6553 79.5824 5.51136C79.2718 5.36742 78.8892 5.29545 78.4346 5.29545C78.0028 5.29545 77.6335 5.40909 77.3267 5.63636C77.0237 5.85985 76.7907 6.15909 76.6278 6.53409C76.4687 6.9053 76.3892 7.31061 76.3892 7.75C76.3892 8.23485 76.4536 8.69129 76.5824 9.11932C76.7112 9.54356 76.9214 9.88826 77.213 10.1534C77.5047 10.4148 77.8968 10.5455 78.3892 10.5455ZM90.8508 15.4545C90.2031 15.4545 89.6463 15.3712 89.1804 15.2045C88.7145 15.0417 88.3262 14.8258 88.0156 14.5568C87.7088 14.2917 87.4645 14.0076 87.2826 13.7045L88.3508 12.9545C88.472 13.1136 88.6255 13.2955 88.8111 13.5C88.9967 13.7083 89.2505 13.8883 89.5724 14.0398C89.8982 14.1951 90.3243 14.2727 90.8508 14.2727C91.5554 14.2727 92.1368 14.1023 92.5951 13.7614C93.0535 13.4205 93.2826 12.8864 93.2826 12.1591V10.3864H93.169C93.0705 10.5455 92.9304 10.7424 92.7486 10.9773C92.5705 11.2083 92.313 11.4148 91.9758 11.5966C91.6425 11.7746 91.1917 11.8636 90.6236 11.8636C89.919 11.8636 89.2864 11.697 88.7258 11.3636C88.169 11.0303 87.7277 10.5455 87.402 9.90909C87.08 9.27273 86.919 8.5 86.919 7.59091C86.919 6.69697 87.0762 5.91856 87.3906 5.25568C87.705 4.58901 88.1425 4.07386 88.7031 3.71023C89.2637 3.3428 89.9114 3.15909 90.6463 3.15909C91.2145 3.15909 91.6652 3.25379 91.9986 3.44318C92.3357 3.62879 92.5933 3.84091 92.7713 4.07955C92.9531 4.31439 93.0933 4.50758 93.1917 4.65909H93.3281V3.27273H94.6236V12.25C94.6236 13 94.4531 13.6098 94.1122 14.0795C93.7751 14.553 93.3205 14.8996 92.7486 15.1193C92.1804 15.3428 91.5478 15.4545 90.8508 15.4545ZM90.8054 10.6591C91.3433 10.6591 91.7978 10.536 92.169 10.2898C92.5402 10.0436 92.8224 9.68939 93.0156 9.22727C93.2088 8.76515 93.3054 8.21212 93.3054 7.56818C93.3054 6.93939 93.2107 6.38447 93.0213 5.90341C92.8319 5.42235 92.5516 5.04545 92.1804 4.77273C91.8092 4.5 91.3508 4.36364 90.8054 4.36364C90.2372 4.36364 89.7637 4.50758 89.3849 4.79545C89.0099 5.08333 88.7277 5.4697 88.5383 5.95455C88.3527 6.43939 88.2599 6.97727 88.2599 7.56818C88.2599 8.17424 88.3546 8.71023 88.544 9.17614C88.7372 9.63826 89.0213 10.0019 89.3963 10.267C89.7751 10.5284 90.2448 10.6591 90.8054 10.6591ZM97.0781 12V3.27273H98.3736V4.63636H98.4872C98.669 4.17045 98.9626 3.80871 99.3679 3.55114C99.7732 3.28977 100.26 3.15909 100.828 3.15909C101.404 3.15909 101.883 3.28977 102.266 3.55114C102.652 3.80871 102.953 4.17045 103.169 4.63636H103.26C103.483 4.18561 103.819 3.82765 104.266 3.5625C104.713 3.29356 105.249 3.15909 105.874 3.15909C106.654 3.15909 107.292 3.40341 107.788 3.89205C108.285 4.37689 108.533 5.13258 108.533 6.15909V12H107.192V6.15909C107.192 5.51515 107.016 5.05492 106.663 4.77841C106.311 4.50189 105.896 4.36364 105.419 4.36364C104.805 4.36364 104.33 4.54924 103.993 4.92045C103.656 5.28788 103.487 5.75379 103.487 6.31818V12H102.124V6.02273C102.124 5.52652 101.963 5.12689 101.641 4.82386C101.319 4.51705 100.904 4.36364 100.396 4.36364C100.048 4.36364 99.722 4.45644 99.419 4.64205C99.1198 4.82765 98.8773 5.08523 98.6917 5.41477C98.5099 5.74053 98.419 6.11742 98.419 6.54545V12H97.0781ZM113.553 12.2045C113 12.2045 112.498 12.1004 112.047 11.892C111.596 11.6799 111.238 11.375 110.973 10.9773C110.708 10.5758 110.575 10.0909 110.575 9.52273C110.575 9.02273 110.674 8.61742 110.871 8.30682C111.068 7.99242 111.331 7.74621 111.66 7.56818C111.99 7.39015 112.354 7.25758 112.751 7.17045C113.153 7.07955 113.556 7.00758 113.962 6.95455C114.492 6.88636 114.922 6.83523 115.251 6.80114C115.585 6.76326 115.827 6.70076 115.979 6.61364C116.134 6.52652 116.212 6.375 116.212 6.15909V6.11364C116.212 5.55303 116.058 5.11742 115.751 4.80682C115.448 4.49621 114.988 4.34091 114.371 4.34091C113.731 4.34091 113.229 4.48106 112.865 4.76136C112.501 5.04167 112.246 5.34091 112.098 5.65909L110.825 5.20455C111.053 4.67424 111.356 4.26136 111.734 3.96591C112.117 3.66667 112.534 3.45833 112.984 3.34091C113.439 3.2197 113.886 3.15909 114.325 3.15909C114.606 3.15909 114.928 3.19318 115.291 3.26136C115.659 3.32576 116.013 3.46023 116.354 3.66477C116.698 3.86932 116.984 4.17803 117.212 4.59091C117.439 5.00379 117.553 5.55682 117.553 6.25V12H116.212V10.8182H116.143C116.053 11.0076 115.901 11.2102 115.689 11.4261C115.477 11.642 115.195 11.8258 114.842 11.9773C114.49 12.1288 114.06 12.2045 113.553 12.2045ZM113.757 11C114.287 11 114.734 10.8958 115.098 10.6875C115.465 10.4792 115.742 10.2102 115.928 9.88068C116.117 9.55114 116.212 9.20455 116.212 8.84091V7.61364C116.155 7.68182 116.03 7.74432 115.837 7.80114C115.647 7.85417 115.428 7.90151 115.178 7.94318C114.931 7.98106 114.691 8.01515 114.456 8.04545C114.225 8.07197 114.037 8.0947 113.893 8.11364C113.545 8.15909 113.219 8.23295 112.916 8.33523C112.617 8.43371 112.375 8.58333 112.189 8.78409C112.007 8.98106 111.916 9.25 111.916 9.59091C111.916 10.0568 112.089 10.4091 112.433 10.6477C112.782 10.8826 113.223 11 113.757 11ZM120 12V3.27273H121.341V12H120ZM120.682 1.81818C120.42 1.81818 120.195 1.72917 120.006 1.55114C119.82 1.37311 119.727 1.15909 119.727 0.909091C119.727 0.659091 119.82 0.445076 120.006 0.267045C120.195 0.089015 120.42 0 120.682 0C120.943 0 121.167 0.089015 121.352 0.267045C121.542 0.445076 121.636 0.659091 121.636 0.909091C121.636 1.15909 121.542 1.37311 121.352 1.55114C121.167 1.72917 120.943 1.81818 120.682 1.81818ZM125.138 0.363636V12H123.797V0.363636H125.138ZM128.571 12.0909C128.291 12.0909 128.05 11.9905 127.849 11.7898C127.649 11.589 127.548 11.3485 127.548 11.0682C127.548 10.7879 127.649 10.5473 127.849 10.3466C128.05 10.1458 128.291 10.0455 128.571 10.0455C128.851 10.0455 129.092 10.1458 129.293 10.3466C129.493 10.5473 129.594 10.7879 129.594 11.0682C129.594 11.2538 129.546 11.4242 129.452 11.5795C129.361 11.7348 129.238 11.8598 129.082 11.9545C128.931 12.0455 128.76 12.0909 128.571 12.0909ZM135.545 12.1818C134.727 12.1818 134.023 11.9886 133.432 11.6023C132.841 11.2159 132.386 10.6837 132.068 10.0057C131.75 9.32765 131.591 8.55303 131.591 7.68182C131.591 6.79545 131.754 6.01326 132.08 5.33523C132.409 4.65341 132.867 4.12121 133.455 3.73864C134.045 3.35227 134.735 3.15909 135.523 3.15909C136.136 3.15909 136.689 3.27273 137.182 3.5C137.674 3.72727 138.078 4.04545 138.392 4.45455C138.706 4.86364 138.901 5.34091 138.977 5.88636H137.636C137.534 5.48864 137.307 5.13636 136.955 4.82955C136.606 4.51894 136.136 4.36364 135.545 4.36364C135.023 4.36364 134.564 4.5 134.17 4.77273C133.78 5.04167 133.475 5.42235 133.256 5.91477C133.04 6.40341 132.932 6.97727 132.932 7.63636C132.932 8.31061 133.038 8.89773 133.25 9.39773C133.466 9.89773 133.769 10.286 134.159 10.5625C134.553 10.839 135.015 10.9773 135.545 10.9773C135.894 10.9773 136.21 10.9167 136.494 10.7955C136.778 10.6742 137.019 10.5 137.216 10.2727C137.413 10.0455 137.553 9.77273 137.636 9.45455H138.977C138.901 9.9697 138.714 10.4337 138.415 10.8466C138.119 11.2557 137.727 11.5814 137.239 11.8239C136.754 12.0625 136.189 12.1818 135.545 12.1818ZM144.483 12.1818C143.695 12.1818 143.004 11.9943 142.409 11.6193C141.818 11.2443 141.356 10.7197 141.023 10.0455C140.693 9.37121 140.528 8.58333 140.528 7.68182C140.528 6.77273 140.693 5.97917 141.023 5.30114C141.356 4.62311 141.818 4.09659 142.409 3.72159C143.004 3.34659 143.695 3.15909 144.483 3.15909C145.271 3.15909 145.96 3.34659 146.551 3.72159C147.146 4.09659 147.608 4.62311 147.937 5.30114C148.271 5.97917 148.437 6.77273 148.437 7.68182C148.437 8.58333 148.271 9.37121 147.937 10.0455C147.608 10.7197 147.146 11.2443 146.551 11.6193C145.96 11.9943 145.271 12.1818 144.483 12.1818ZM144.483 10.9773C145.081 10.9773 145.574 10.8239 145.96 10.517C146.347 10.2102 146.633 9.80682 146.818 9.30682C147.004 8.80682 147.097 8.26515 147.097 7.68182C147.097 7.09848 147.004 6.55492 146.818 6.05114C146.633 5.54735 146.347 5.14015 145.96 4.82955C145.574 4.51894 145.081 4.36364 144.483 4.36364C143.884 4.36364 143.392 4.51894 143.006 4.82955C142.619 5.14015 142.333 5.54735 142.148 6.05114C141.962 6.55492 141.869 7.09848 141.869 7.68182C141.869 8.26515 141.962 8.80682 142.148 9.30682C142.333 9.80682 142.619 10.2102 143.006 10.517C143.392 10.8239 143.884 10.9773 144.483 10.9773ZM150.484 12V3.27273H151.78V4.63636H151.893C152.075 4.17045 152.369 3.80871 152.774 3.55114C153.179 3.28977 153.666 3.15909 154.234 3.15909C154.81 3.15909 155.289 3.28977 155.672 3.55114C156.058 3.80871 156.359 4.17045 156.575 4.63636H156.666C156.89 4.18561 157.225 3.82765 157.672 3.5625C158.119 3.29356 158.655 3.15909 159.28 3.15909C160.06 3.15909 160.698 3.40341 161.195 3.89205C161.691 4.37689 161.939 5.13258 161.939 6.15909V12H160.598V6.15909C160.598 5.51515 160.422 5.05492 160.07 4.77841C159.717 4.50189 159.303 4.36364 158.825 4.36364C158.212 4.36364 157.736 4.54924 157.399 4.92045C157.062 5.28788 156.893 5.75379 156.893 6.31818V12H155.53V6.02273C155.53 5.52652 155.369 5.12689 155.047 4.82386C154.725 4.51705 154.31 4.36364 153.803 4.36364C153.454 4.36364 153.128 4.45644 152.825 4.64205C152.526 4.82765 152.284 5.08523 152.098 5.41477C151.916 5.74053 151.825 6.11742 151.825 6.54545V12H150.484Z" fill="#919191"/>
</svg>
