<svg width="59" height="11" viewBox="0 0 59 11" fill="none" xmlns="http://www.w3.org/2000/svg">
<path d="M4.22397 4.24603C4.22397 4.03336 4.21663 3.77303 4.20197 3.46503C4.19463 3.14969 4.16897 2.81969 4.12497 2.47503C4.08097 2.13036 4.00397 1.80769 3.89397 1.50703C3.78397 1.20636 3.63363 0.96436 3.44297 0.781027C3.2523 0.59036 3.00297 0.495027 2.69496 0.495027C2.4163 0.495027 2.18163 0.594027 1.99096 0.792027C1.8003 0.982694 1.6463 1.23569 1.52896 1.55103C1.41163 1.85903 1.31996 2.18903 1.25396 2.54103C1.1953 2.88569 1.15496 3.21936 1.13296 3.54203C1.11096 3.85736 1.09996 4.11403 1.09996 4.31203C1.09996 4.51003 1.1073 4.75936 1.12196 5.06003C1.14396 5.35336 1.18063 5.66503 1.23196 5.99503C1.2833 6.31769 1.36396 6.62203 1.47396 6.90803C1.5913 7.19403 1.74163 7.42869 1.92496 7.61203C2.1083 7.78803 2.3393 7.87603 2.61796 7.87603C2.9113 7.87603 3.1533 7.78803 3.34397 7.61203C3.53463 7.42869 3.68863 7.19403 3.80597 6.90803C3.9233 6.61469 4.0113 6.30303 4.06997 5.97303C4.13597 5.63569 4.1763 5.31669 4.19096 5.01603C4.21297 4.70803 4.22397 4.45136 4.22397 4.24603ZM5.36797 4.10303C5.36797 4.44036 5.33497 4.79603 5.26897 5.17003C5.2103 5.54403 5.11496 5.91069 4.98296 6.27003C4.85097 6.62936 4.67497 6.95569 4.45497 7.24903C4.2423 7.54236 3.98197 7.77703 3.67397 7.95303C3.36597 8.12169 3.00663 8.20603 2.59596 8.20603C2.10463 8.20603 1.6903 8.08503 1.35296 7.84303C1.02296 7.59369 0.758965 7.27469 0.560965 6.88603C0.362965 6.49736 0.219965 6.08303 0.131965 5.64303C0.0439649 5.19569 -3.51258e-05 4.77403 -3.51258e-05 4.37803C-3.51258e-05 4.04069 0.0292982 3.68136 0.0879649 3.30003C0.146632 2.91136 0.241965 2.53369 0.373965 2.16703C0.505965 1.80036 0.678298 1.46669 0.890965 1.16603C1.11096 0.86536 1.37496 0.627027 1.68296 0.451027C1.9983 0.267694 2.36496 0.176027 2.78297 0.176027C3.17896 0.176027 3.51996 0.26036 3.80597 0.429027C4.0993 0.597693 4.34496 0.82136 4.54297 1.10003C4.7483 1.37869 4.90963 1.69036 5.02697 2.03503C5.1443 2.37969 5.22863 2.73169 5.27997 3.09103C5.33863 3.44303 5.36797 3.78036 5.36797 4.10303ZM10.7122 4.24603C10.7122 4.03336 10.7049 3.77303 10.6902 3.46503C10.6829 3.14969 10.6572 2.81969 10.6132 2.47503C10.5692 2.13036 10.4922 1.80769 10.3822 1.50703C10.2722 1.20636 10.1219 0.96436 9.93125 0.781027C9.74058 0.59036 9.49125 0.495027 9.18325 0.495027C8.90458 0.495027 8.66991 0.594027 8.47925 0.792027C8.28858 0.982694 8.13458 1.23569 8.01725 1.55103C7.89991 1.85903 7.80825 2.18903 7.74225 2.54103C7.68358 2.88569 7.64325 3.21936 7.62125 3.54203C7.59925 3.85736 7.58825 4.11403 7.58825 4.31203C7.58825 4.51003 7.59558 4.75936 7.61025 5.06003C7.63225 5.35336 7.66891 5.66503 7.72025 5.99503C7.77158 6.31769 7.85225 6.62203 7.96225 6.90803C8.07958 7.19403 8.22991 7.42869 8.41325 7.61203C8.59658 7.78803 8.82758 7.87603 9.10625 7.87603C9.39958 7.87603 9.64158 7.78803 9.83225 7.61203C10.0229 7.42869 10.1769 7.19403 10.2942 6.90803C10.4116 6.61469 10.4996 6.30303 10.5582 5.97303C10.6242 5.63569 10.6646 5.31669 10.6792 5.01603C10.7012 4.70803 10.7122 4.45136 10.7122 4.24603ZM11.8562 4.10303C11.8562 4.44036 11.8232 4.79603 11.7572 5.17003C11.6986 5.54403 11.6032 5.91069 11.4712 6.27003C11.3392 6.62936 11.1632 6.95569 10.9432 7.24903C10.7306 7.54236 10.4702 7.77703 10.1622 7.95303C9.85425 8.12169 9.49491 8.20603 9.08425 8.20603C8.59291 8.20603 8.17858 8.08503 7.84125 7.84303C7.51125 7.59369 7.24725 7.27469 7.04925 6.88603C6.85125 6.49736 6.70825 6.08303 6.62025 5.64303C6.53225 5.19569 6.48825 4.77403 6.48825 4.37803C6.48825 4.04069 6.51758 3.68136 6.57625 3.30003C6.63491 2.91136 6.73025 2.53369 6.86225 2.16703C6.99425 1.80036 7.16658 1.46669 7.37925 1.16603C7.59925 0.86536 7.86325 0.627027 8.17125 0.451027C8.48658 0.267694 8.85325 0.176027 9.27125 0.176027C9.66725 0.176027 10.0082 0.26036 10.2942 0.429027C10.5876 0.597693 10.8332 0.82136 11.0312 1.10003C11.2366 1.37869 11.3979 1.69036 11.5152 2.03503C11.6326 2.37969 11.7169 2.73169 11.7682 3.09103C11.8269 3.44303 11.8562 3.78036 11.8562 4.10303ZM17.2005 4.24603C17.2005 4.03336 17.1932 3.77303 17.1785 3.46503C17.1712 3.14969 17.1455 2.81969 17.1015 2.47503C17.0575 2.13036 16.9805 1.80769 16.8705 1.50703C16.7605 1.20636 16.6102 0.96436 16.4195 0.781027C16.2289 0.59036 15.9795 0.495027 15.6715 0.495027C15.3929 0.495027 15.1582 0.594027 14.9675 0.792027C14.7769 0.982694 14.6229 1.23569 14.5055 1.55103C14.3882 1.85903 14.2965 2.18903 14.2305 2.54103C14.1719 2.88569 14.1315 3.21936 14.1095 3.54203C14.0875 3.85736 14.0765 4.11403 14.0765 4.31203C14.0765 4.51003 14.0839 4.75936 14.0985 5.06003C14.1205 5.35336 14.1572 5.66503 14.2085 5.99503C14.2599 6.31769 14.3405 6.62203 14.4505 6.90803C14.5679 7.19403 14.7182 7.42869 14.9015 7.61203C15.0849 7.78803 15.3159 7.87603 15.5945 7.87603C15.8879 7.87603 16.1299 7.78803 16.3205 7.61203C16.5112 7.42869 16.6652 7.19403 16.7825 6.90803C16.8999 6.61469 16.9879 6.30303 17.0465 5.97303C17.1125 5.63569 17.1529 5.31669 17.1675 5.01603C17.1895 4.70803 17.2005 4.45136 17.2005 4.24603ZM18.3445 4.10303C18.3445 4.44036 18.3115 4.79603 18.2455 5.17003C18.1869 5.54403 18.0915 5.91069 17.9595 6.27003C17.8275 6.62936 17.6515 6.95569 17.4315 7.24903C17.2189 7.54236 16.9585 7.77703 16.6505 7.95303C16.3425 8.12169 15.9832 8.20603 15.5725 8.20603C15.0812 8.20603 14.6669 8.08503 14.3295 7.84303C13.9995 7.59369 13.7355 7.27469 13.5375 6.88603C13.3395 6.49736 13.1965 6.08303 13.1085 5.64303C13.0205 5.19569 12.9765 4.77403 12.9765 4.37803C12.9765 4.04069 13.0059 3.68136 13.0645 3.30003C13.1232 2.91136 13.2185 2.53369 13.3505 2.16703C13.4825 1.80036 13.6549 1.46669 13.8675 1.16603C14.0875 0.86536 14.3515 0.627027 14.6595 0.451027C14.9749 0.267694 15.3415 0.176027 15.7595 0.176027C16.1555 0.176027 16.4965 0.26036 16.7825 0.429027C17.0759 0.597693 17.3215 0.82136 17.5195 1.10003C17.7249 1.37869 17.8862 1.69036 18.0035 2.03503C18.1209 2.37969 18.2052 2.73169 18.2565 3.09103C18.3152 3.44303 18.3445 3.78036 18.3445 4.10303ZM24.8438 6.53403C24.8438 6.54869 24.8291 6.58903 24.7998 6.65503C24.7778 6.71369 24.7631 6.75403 24.7558 6.77603C24.7265 6.84936 24.6971 6.92269 24.6678 6.99603C24.6458 7.06936 24.6238 7.14269 24.6018 7.21603C24.5651 7.35536 24.5321 7.49469 24.5028 7.63403C24.4735 7.77336 24.4405 7.90903 24.4038 8.04103C24.3671 8.14369 24.3048 8.19503 24.2168 8.19503C24.0115 8.19503 23.7695 8.18769 23.4908 8.17303C23.2121 8.15836 22.9738 8.15103 22.7758 8.15103C22.3871 8.15103 22.0241 8.15469 21.6868 8.16203C21.3568 8.16203 21.0231 8.16569 20.6858 8.17303C20.5171 8.17303 20.3448 8.18036 20.1688 8.19503C20.0001 8.20236 19.8315 8.20603 19.6628 8.20603C19.6261 8.20603 19.5858 8.19503 19.5418 8.17303C19.4978 8.15103 19.4758 8.11436 19.4758 8.06303C19.4758 7.79169 19.5381 7.53136 19.6628 7.28203C19.7801 7.05469 19.9488 6.80169 20.1688 6.52303C20.3961 6.24436 20.6455 5.96203 20.9168 5.67603C21.1881 5.39003 21.4521 5.11869 21.7088 4.86203C21.9728 4.60536 22.2001 4.38536 22.3908 4.20203C22.6548 3.94536 22.8821 3.63736 23.0728 3.27803C23.2635 2.91136 23.3588 2.54103 23.3588 2.16703C23.3588 1.88836 23.3221 1.62803 23.2488 1.38603C23.1828 1.13669 23.0618 0.935027 22.8858 0.781027C22.7098 0.627027 22.4605 0.550027 22.1378 0.550027C21.8591 0.550027 21.6098 0.597694 21.3898 0.693027C21.1771 0.781027 20.9901 0.949694 20.8288 1.19903C20.7261 1.36036 20.6601 1.55103 20.6308 1.77103C20.6088 1.98369 20.5905 2.18536 20.5758 2.37603C20.5685 2.62536 20.4291 2.75003 20.1578 2.75003C19.7691 2.75003 19.5748 2.56669 19.5748 2.20003C19.5748 1.85536 19.6628 1.55836 19.8388 1.30903C20.0221 1.05969 20.2531 0.85436 20.5318 0.693027C20.8178 0.531694 21.1221 0.410694 21.4448 0.330027C21.7675 0.24936 22.0718 0.209027 22.3578 0.209027C22.7171 0.209027 23.0618 0.286027 23.3918 0.440027C23.7291 0.594027 24.0041 0.814027 24.2168 1.10003C24.4295 1.37869 24.5358 1.71236 24.5358 2.10103C24.5358 2.58503 24.4441 2.99936 24.2608 3.34403C24.0775 3.68869 23.8355 3.99303 23.5348 4.25703C23.2415 4.52103 22.9225 4.76669 22.5778 4.99403C22.2331 5.21403 21.8958 5.44503 21.5658 5.68703C21.3385 5.85569 21.1185 6.05003 20.9058 6.27003C20.7005 6.48269 20.5061 6.69903 20.3228 6.91903C20.2935 6.96303 20.2458 7.02903 20.1798 7.11703C20.1211 7.20503 20.0918 7.27836 20.0918 7.33703C20.0918 7.39569 20.1211 7.42503 20.1798 7.42503C20.6198 7.42503 21.0598 7.41769 21.4998 7.40303C21.9398 7.38103 22.3835 7.36636 22.8308 7.35903C23.2415 7.35169 23.5825 7.28936 23.8538 7.17203C24.1325 7.05469 24.3965 6.82736 24.6458 6.49003C24.6678 6.46069 24.6935 6.44603 24.7228 6.44603C24.7448 6.44603 24.7705 6.45703 24.7998 6.47903C24.8291 6.49369 24.8438 6.51203 24.8438 6.53403ZM31.2771 5.53303C31.2771 6.00236 31.1891 6.40936 31.0131 6.75403C30.8371 7.09136 30.5951 7.37003 30.2871 7.59003C29.9864 7.81003 29.6418 7.97503 29.2531 8.08503C28.8718 8.18769 28.4721 8.23903 28.0541 8.23903C27.8194 8.23903 27.5738 8.21703 27.3171 8.17303C27.0678 8.12903 26.8331 8.04836 26.6131 7.93103C26.4004 7.81369 26.2318 7.64503 26.1071 7.42503C26.0044 7.25636 25.9531 7.06936 25.9531 6.86403C25.9531 6.69536 26.0008 6.57069 26.0961 6.49003C26.1988 6.40203 26.3308 6.35803 26.4921 6.35803C26.7121 6.35803 26.8331 6.45703 26.8551 6.65503C26.8844 6.86036 26.9394 7.06203 27.0201 7.26003C27.1081 7.45069 27.2291 7.60836 27.3831 7.73303C27.5444 7.85769 27.7424 7.92003 27.9771 7.92003C28.7398 7.92003 29.2824 7.73303 29.6051 7.35903C29.9351 6.97769 30.1001 6.41669 30.1001 5.67603C30.1001 5.18469 29.9681 4.78136 29.7041 4.46603C29.4474 4.14336 29.0661 3.98203 28.5601 3.98203C28.4648 3.98203 28.3621 3.98936 28.2521 4.00403C28.1421 4.01136 28.0394 4.02603 27.9441 4.04803C27.8928 4.05536 27.8378 4.07369 27.7791 4.10303C27.7204 4.12503 27.6618 4.13603 27.6031 4.13603C27.5518 4.13603 27.5188 4.11403 27.5041 4.07003C27.4968 4.02603 27.4931 3.98569 27.4931 3.94903C27.4931 3.89769 27.5004 3.84269 27.5151 3.78403C27.5298 3.72536 27.5701 3.69603 27.6361 3.69603C27.6581 3.69603 27.6801 3.69969 27.7021 3.70703C27.7314 3.70703 27.7608 3.70703 27.7901 3.70703C27.9368 3.70703 28.0834 3.70703 28.2301 3.70703C28.3841 3.69969 28.5308 3.67769 28.6701 3.64103C29.0808 3.52369 29.3704 3.33303 29.5391 3.06903C29.7151 2.79769 29.8031 2.45303 29.8031 2.03503C29.8031 1.74903 29.7628 1.48869 29.6821 1.25403C29.6088 1.01936 29.4804 0.83236 29.2971 0.693027C29.1138 0.553693 28.8608 0.484027 28.5381 0.484027C28.0541 0.484027 27.6874 0.63436 27.4381 0.935027C27.1961 1.22836 27.0751 1.60603 27.0751 2.06803C27.0751 2.22936 26.9871 2.31003 26.8111 2.31003C26.6424 2.31003 26.4994 2.26603 26.3821 2.17803C26.2721 2.09003 26.2171 1.95436 26.2171 1.77103C26.2171 1.69036 26.2464 1.57669 26.3051 1.43003C26.3711 1.28336 26.4298 1.17703 26.4811 1.11103C26.7598 0.751694 27.1118 0.50236 27.5371 0.363027C27.9698 0.223694 28.4024 0.154027 28.8351 0.154027C29.1724 0.154027 29.4988 0.220027 29.8141 0.352027C30.1294 0.484027 30.3898 0.67836 30.5951 0.935027C30.8004 1.18436 30.9031 1.49603 30.9031 1.87003C30.9031 2.14136 30.8261 2.40169 30.6721 2.65103C30.5254 2.90036 30.3531 3.10936 30.1551 3.27803C30.0011 3.41736 29.8288 3.52736 29.6381 3.60803C29.4474 3.68869 29.2568 3.75469 29.0661 3.80603C29.2054 3.81336 29.3741 3.82803 29.5721 3.85003C29.7774 3.87203 29.9424 3.90869 30.0671 3.96003C30.4118 4.07736 30.6978 4.27536 30.9251 4.55403C31.1598 4.82536 31.2771 5.15169 31.2771 5.53303ZM36.8084 0.319027C36.8084 0.37036 36.801 0.410694 36.7864 0.440027C36.779 0.46936 36.746 0.484027 36.6874 0.484027C36.5774 0.484027 36.4674 0.484027 36.3574 0.484027C36.2547 0.476693 36.1484 0.473027 36.0384 0.473027C35.9357 0.473027 35.8294 0.50236 35.7194 0.561027C35.6167 0.61236 35.558 0.70036 35.5434 0.825027C35.536 0.87636 35.5324 0.93136 35.5324 0.990027C35.5397 1.04136 35.5434 1.09636 35.5434 1.15503C35.5434 2.13036 35.5397 3.10569 35.5324 4.08103C35.5324 5.05636 35.5324 6.03536 35.5324 7.01803C35.5324 7.58269 35.4517 8.09236 35.2904 8.54703C35.1364 9.00903 34.876 9.37203 34.5094 9.63603C34.1427 9.90736 33.644 10.043 33.0134 10.043C32.8814 10.043 32.72 10.0394 32.5294 10.032C32.3387 10.0247 32.1517 9.99903 31.9684 9.95503C31.785 9.91103 31.631 9.83403 31.5064 9.72403C31.3817 9.62136 31.3194 9.47469 31.3194 9.28403C31.3194 9.10069 31.389 8.95403 31.5284 8.84403C31.6677 8.74136 31.818 8.69003 31.9794 8.69003C32.038 8.69003 32.115 8.70469 32.2104 8.73403C32.313 8.76336 32.4047 8.80369 32.4854 8.85503C32.566 8.90636 32.6064 8.96869 32.6064 9.04203C32.577 9.07869 32.5477 9.11903 32.5184 9.16303C32.489 9.20703 32.4744 9.25836 32.4744 9.31703C32.4744 9.47103 32.5367 9.57736 32.6614 9.63603C32.786 9.69469 32.9107 9.72403 33.0354 9.72403C33.2114 9.72403 33.3874 9.68736 33.5634 9.61403C33.7394 9.54803 33.8934 9.44903 34.0254 9.31703C34.1647 9.19236 34.2527 9.03836 34.2894 8.85503C34.326 8.62769 34.348 8.40036 34.3554 8.17303C34.3627 7.94569 34.3664 7.71836 34.3664 7.49103V0.825027C34.3664 0.707694 34.3187 0.62336 34.2234 0.572027C34.128 0.520694 34.018 0.49136 33.8934 0.484027C33.7687 0.46936 33.666 0.462027 33.5854 0.462027C33.512 0.462027 33.4387 0.465694 33.3654 0.473027C33.2994 0.48036 33.2334 0.484027 33.1674 0.484027C33.0647 0.484027 33.0134 0.432693 33.0134 0.330027C33.0134 0.220027 33.061 0.165027 33.1564 0.165027C33.2297 0.165027 33.303 0.168694 33.3764 0.176027C33.457 0.18336 33.534 0.187027 33.6074 0.187027C34.0254 0.209027 34.447 0.220027 34.8724 0.220027C35.173 0.220027 35.4774 0.212694 35.7854 0.198027C36.0934 0.176027 36.3977 0.165027 36.6984 0.165027C36.757 0.165027 36.79 0.18336 36.7974 0.220027C36.8047 0.24936 36.8084 0.28236 36.8084 0.319027ZM42.177 4.96103C41.9423 4.30103 41.7076 3.64103 41.473 2.98103C41.2383 2.31369 41.0036 1.65003 40.769 0.990027C40.5416 1.65003 40.3106 2.31003 40.076 2.97003C39.8413 3.63003 39.6103 4.29369 39.383 4.96103H42.177ZM45.279 8.06303C45.279 8.10703 45.2716 8.14736 45.257 8.18403C45.2496 8.21336 45.224 8.22803 45.18 8.22803C45.1286 8.22803 45.0003 8.22436 44.795 8.21703C44.597 8.20969 44.4246 8.20603 44.278 8.20603C44.0506 8.20603 43.8233 8.20603 43.596 8.20603C43.376 8.20603 43.1523 8.21336 42.925 8.22803C42.8076 8.23536 42.6866 8.23903 42.562 8.23903C42.4446 8.24636 42.3273 8.25003 42.21 8.25003C42.1733 8.25003 42.1476 8.23903 42.133 8.21703C42.1256 8.18769 42.122 8.15836 42.122 8.12903L42.133 8.04103C42.133 8.01903 42.1403 7.99703 42.155 7.97503C42.1696 7.94569 42.1916 7.93103 42.221 7.93103H42.76C42.826 7.93103 42.8993 7.91636 42.98 7.88703C43.068 7.85769 43.112 7.80269 43.112 7.72203C43.112 7.70003 43.0863 7.61569 43.035 7.46903C42.9836 7.31503 42.9213 7.13169 42.848 6.91903C42.7746 6.69903 42.6976 6.47903 42.617 6.25903C42.5363 6.03903 42.4666 5.84469 42.408 5.67603C42.3493 5.50003 42.309 5.38636 42.287 5.33503H39.284C39.262 5.40103 39.218 5.52203 39.152 5.69803C39.086 5.86669 39.0126 6.06103 38.932 6.28103C38.8586 6.50103 38.7816 6.71736 38.701 6.93003C38.6276 7.14269 38.5653 7.32603 38.514 7.48003C38.47 7.62669 38.448 7.71836 38.448 7.75503C38.448 7.85769 38.503 7.92369 38.613 7.95303C38.723 7.98236 38.8146 7.99703 38.888 7.99703C38.9613 7.99703 39.0273 7.99703 39.086 7.99703C39.1446 7.99703 39.1923 7.99336 39.229 7.98603C39.2436 7.98603 39.2693 7.98603 39.306 7.98603C39.35 7.97869 39.3756 7.97503 39.383 7.97503C39.427 7.97503 39.4526 8.00069 39.46 8.05203C39.4746 8.10336 39.4783 8.14369 39.471 8.17303C39.4636 8.20236 39.4453 8.22069 39.416 8.22803C39.394 8.22803 39.3683 8.22803 39.339 8.22803C39.1263 8.22803 38.91 8.22436 38.69 8.21703C38.47 8.20969 38.2536 8.20603 38.041 8.20603C37.8796 8.20603 37.722 8.20969 37.568 8.21703C37.414 8.22436 37.2563 8.22803 37.095 8.22803C37.029 8.22803 36.996 8.19136 36.996 8.11803C36.996 8.01536 37.0473 7.96403 37.15 7.96403C37.1866 7.96403 37.2306 7.96769 37.282 7.97503C37.3333 7.97503 37.3883 7.97503 37.447 7.97503C37.5276 7.97503 37.6083 7.95303 37.689 7.90903C37.777 7.85769 37.8503 7.76969 37.909 7.64503C37.9456 7.57903 38.019 7.40303 38.129 7.11703C38.239 6.83103 38.3746 6.47536 38.536 6.05003C38.6973 5.61736 38.866 5.15536 39.042 4.66403C39.2253 4.16536 39.405 3.67036 39.581 3.17903C39.757 2.68769 39.9146 2.23303 40.054 1.81503C40.2006 1.39703 40.318 1.05236 40.406 0.781027C40.494 0.50236 40.538 0.33736 40.538 0.286027C40.538 0.27136 40.527 0.253027 40.505 0.231027C40.483 0.201694 40.472 0.18336 40.472 0.176027C40.472 0.146693 40.483 0.12836 40.505 0.121027C40.5783 0.10636 40.6553 0.0953605 40.736 0.0880272C40.8166 0.0806936 40.8936 0.0733601 40.967 0.0660269C41.0623 0.0513604 41.1576 0.0403603 41.253 0.0330266C41.3483 0.0183602 41.4436 0.0073603 41.539 2.70605e-05L44.388 7.70003C44.4173 7.77336 44.4723 7.83203 44.553 7.87603C44.641 7.91269 44.7216 7.93103 44.795 7.93103C44.861 7.93103 44.927 7.93103 44.993 7.93103C45.0663 7.92369 45.1396 7.92003 45.213 7.92003C45.2423 7.92003 45.2606 7.93836 45.268 7.97503C45.2753 8.01169 45.279 8.04103 45.279 8.06303ZM51.3225 0.528027C51.1099 0.748027 50.9082 1.01569 50.7175 1.33103C50.5342 1.64636 50.3655 1.97269 50.2115 2.31003C50.0575 2.64003 49.9255 2.95169 49.8155 3.24503C49.5589 3.91969 49.3609 4.61269 49.2215 5.32403C49.0822 6.03536 48.9832 6.75036 48.9245 7.46903C48.9025 7.74769 48.8549 7.97136 48.7815 8.14003C48.7082 8.30136 48.5102 8.38203 48.1875 8.38203C47.9895 8.38203 47.8575 8.31236 47.7915 8.17303C47.7329 8.02636 47.7035 7.87236 47.7035 7.71103C47.7035 7.40303 47.7512 7.05469 47.8465 6.66603C47.9419 6.27003 48.0592 5.86303 48.1985 5.44503C48.3452 5.02703 48.4955 4.62736 48.6495 4.24603C48.8035 3.85736 48.9429 3.52003 49.0675 3.23403C49.2655 2.79403 49.4965 2.35769 49.7605 1.92503C50.0319 1.49236 50.3142 1.08536 50.6075 0.704027C49.8595 0.71136 49.1042 0.73336 48.3415 0.770027C48.1509 0.77736 47.9529 0.78836 47.7475 0.803027C47.5422 0.81036 47.3442 0.836027 47.1535 0.880027C46.8822 0.938694 46.6769 1.07803 46.5375 1.29803C46.4055 1.51803 46.2992 1.75269 46.2185 2.00203C46.2039 2.00936 46.1819 2.01303 46.1525 2.01303C46.0939 2.01303 46.0425 2.00203 45.9985 1.98003C46.0352 1.71603 46.0645 1.45203 46.0865 1.18803C46.1159 0.916694 46.1452 0.649027 46.1745 0.385027C46.1892 0.341027 46.1965 0.311694 46.1965 0.297027C46.2039 0.275027 46.2295 0.256694 46.2735 0.242027C46.3322 0.22736 46.3945 0.220027 46.4605 0.220027C46.9152 0.220027 47.3699 0.223693 47.8245 0.231027C48.2865 0.23836 48.7485 0.242027 49.2105 0.242027C49.5625 0.242027 49.9145 0.23836 50.2665 0.231027C50.6185 0.223693 50.9705 0.212694 51.3225 0.198027V0.528027ZM55.6438 2.48603C55.6438 2.30269 55.6401 2.11936 55.6328 1.93603C55.6328 1.75269 55.6328 1.56936 55.6328 1.38603L52.8058 5.46703H55.6328C55.6328 4.96836 55.6328 4.46969 55.6328 3.97103C55.6401 3.47236 55.6438 2.97736 55.6438 2.48603ZM58.1518 5.10403C58.1518 5.11869 58.1408 5.16269 58.1188 5.23603C58.1041 5.30203 58.0931 5.34969 58.0858 5.37903C58.0638 5.45969 58.0381 5.54769 58.0088 5.64303C57.9868 5.73836 57.9685 5.82636 57.9538 5.90703C57.9465 5.95836 57.9245 5.98769 57.8878 5.99503C57.8511 5.99503 57.8108 5.99503 57.7668 5.99503H56.6888C56.6888 6.20036 56.6888 6.40569 56.6888 6.61103C56.6961 6.81636 56.6998 7.02536 56.6998 7.23803V7.63403C56.6998 7.74403 56.7401 7.81736 56.8208 7.85403C56.9088 7.89069 57.0078 7.91269 57.1178 7.92003C57.2278 7.92003 57.3158 7.92003 57.3818 7.92003C57.4331 7.92003 57.4845 7.91636 57.5358 7.90903C57.5945 7.90169 57.6495 7.89803 57.7008 7.89803C57.7521 7.89803 57.7815 7.92003 57.7888 7.96403C57.7961 8.00069 57.7998 8.03736 57.7998 8.07403C57.7998 8.10336 57.7925 8.14003 57.7778 8.18403C57.7705 8.22069 57.7485 8.23903 57.7118 8.23903C57.6825 8.23903 57.6495 8.23903 57.6128 8.23903C57.5835 8.23903 57.5505 8.23536 57.5138 8.22803C57.2938 8.21336 57.0701 8.20236 56.8428 8.19503C56.6228 8.18769 56.4065 8.18403 56.1938 8.18403C56.0031 8.18403 55.8088 8.18769 55.6108 8.19503C55.4201 8.20236 55.2295 8.20969 55.0388 8.21703C54.9728 8.22436 54.9068 8.22803 54.8408 8.22803C54.7748 8.23536 54.7125 8.23903 54.6538 8.23903C54.5951 8.23903 54.5585 8.22436 54.5438 8.19503C54.5291 8.15836 54.5218 8.11436 54.5218 8.06303C54.5218 8.02636 54.5255 7.99336 54.5328 7.96403C54.5475 7.92736 54.5805 7.90903 54.6318 7.90903C54.6685 7.90903 54.7051 7.91269 54.7418 7.92003C54.7858 7.92003 54.8261 7.92003 54.8628 7.92003C54.9435 7.92003 55.0425 7.92003 55.1598 7.92003C55.2845 7.92003 55.3908 7.90169 55.4788 7.86503C55.5741 7.82103 55.6218 7.74403 55.6218 7.63403V5.99503H52.3438C52.2925 5.99503 52.2448 5.98403 52.2008 5.96203C52.1641 5.93269 52.1458 5.89236 52.1458 5.84103C52.1458 5.78236 52.1605 5.73103 52.1898 5.68703C52.1971 5.67236 52.2045 5.65769 52.2118 5.64303C52.2191 5.62836 52.2265 5.61736 52.2338 5.61003C52.8425 4.73003 53.4548 3.84636 54.0708 2.95903C54.6941 2.07169 55.2991 1.18069 55.8858 0.286027C55.9078 0.242027 55.9335 0.20536 55.9628 0.176027C55.9848 0.13936 56.0178 0.121027 56.0618 0.121027H56.6448C56.6595 0.121027 56.6815 0.124693 56.7108 0.132027C56.7401 0.132027 56.7511 0.143027 56.7438 0.165027L56.6998 0.286027V5.46703H57.3708C57.4661 5.46703 57.5615 5.45236 57.6568 5.42303C57.7595 5.38636 57.8401 5.33136 57.8988 5.25803C57.9135 5.24336 57.9281 5.21769 57.9428 5.18103C57.9648 5.13703 57.9795 5.10769 57.9868 5.09303C58.0088 5.05636 58.0345 5.03803 58.0638 5.03803C58.1225 5.03803 58.1518 5.06003 58.1518 5.10403Z" fill="black"/>
</svg>
