<svg width="33" height="14" viewBox="0 0 33 14" fill="none" xmlns="http://www.w3.org/2000/svg">
<path d="M8.65805 3.25797C8.65805 2.29797 8.35805 1.60197 7.75805 1.16997C7.17005 0.725969 6.43205 0.503969 5.54405 0.503969C5.30405 0.503969 5.05805 0.509969 4.80605 0.521969C4.55405 0.521969 4.30205 0.521969 4.05005 0.521969C3.93005 0.521969 3.81005 0.557969 3.69005 0.629969C3.57005 0.701969 3.51005 0.803969 3.51005 0.935969V6.04797C3.77405 6.23997 4.09805 6.35397 4.48205 6.38997C4.86605 6.42597 5.20805 6.44397 5.50805 6.44397C6.54005 6.44397 7.32005 6.16797 7.84805 5.61597C8.38805 5.06397 8.65805 4.27797 8.65805 3.25797ZM10.638 3.20397C10.638 3.98397 10.488 4.61997 10.188 5.11197C9.90005 5.60397 9.51005 5.98797 9.01805 6.26397C8.52605 6.53997 7.96805 6.73197 7.34405 6.83997C6.73205 6.93597 6.10205 6.98397 5.45405 6.98397C5.13005 6.98397 4.80605 6.96597 4.48205 6.92997C4.15805 6.89397 3.84005 6.85197 3.52805 6.80397V12.186C3.52805 12.366 3.60605 12.486 3.76205 12.546C3.91805 12.606 4.09205 12.636 4.28405 12.636C4.47605 12.636 4.63205 12.636 4.75205 12.636C4.82405 12.636 4.89605 12.636 4.96805 12.636C5.05205 12.624 5.13005 12.618 5.20205 12.618C5.31005 12.618 5.36405 12.666 5.36405 12.762C5.36405 12.918 5.35205 13.026 5.32805 13.086C5.30405 13.134 5.20805 13.158 5.04005 13.158C4.63205 13.158 4.23005 13.146 3.83405 13.122C3.43805 13.098 3.04205 13.086 2.64605 13.086C2.23805 13.086 1.82405 13.104 1.40405 13.14C0.996049 13.164 0.588049 13.176 0.180049 13.176C0.0600488 13.176 4.88348e-05 13.098 4.88348e-05 12.942C4.88348e-05 12.87 0.0120488 12.804 0.0360488 12.744C0.0600488 12.684 0.120049 12.654 0.216049 12.654C0.360049 12.654 0.504049 12.66 0.648049 12.672C0.792049 12.672 0.936049 12.672 1.08005 12.672C1.22405 12.672 1.35005 12.636 1.45805 12.564C1.57805 12.492 1.64405 12.378 1.65605 12.222C1.68005 12.006 1.68605 11.79 1.67405 11.574C1.67405 11.346 1.67405 11.124 1.67405 10.908C1.67405 10.476 1.67405 10.044 1.67405 9.61197C1.67405 9.16797 1.67405 8.72997 1.67405 8.29797V5.14797C1.67405 4.43997 1.66805 3.73797 1.65605 3.04197C1.65605 2.33397 1.65605 1.63197 1.65605 0.935969C1.65605 0.719969 1.54805 0.593969 1.33205 0.557969C1.12805 0.509969 0.948049 0.485969 0.792049 0.485969C0.684049 0.485969 0.576049 0.491969 0.468049 0.503969C0.360049 0.503969 0.258049 0.503969 0.162049 0.503969C0.0780488 0.503969 0.0300488 0.467969 0.0180488 0.395969C0.0180488 0.311969 0.0180488 0.245969 0.0180488 0.197969C0.0180488 0.149969 0.0300488 0.107969 0.0540488 0.0719692C0.0780488 0.0239691 0.114049 -3.09944e-05 0.162049 -3.09944e-05C0.558049 -3.09944e-05 0.954049 0.0119692 1.35005 0.0359696C1.74605 0.0599693 2.14805 0.0719692 2.55605 0.0719692C3.18005 0.0719692 3.80405 0.0599693 4.42805 0.0359696C5.05205 0.0119692 5.67605 -3.09944e-05 6.30005 -3.09944e-05C6.80405 -3.09944e-05 7.30805 0.053969 7.81205 0.161969C8.32805 0.269969 8.79605 0.449969 9.21605 0.70197C9.64805 0.953969 9.99005 1.28397 10.242 1.69197C10.506 2.09997 10.638 2.60397 10.638 3.20397ZM17.1365 12.87C17.1365 12.918 17.1305 12.984 17.1185 13.068C17.1065 13.14 17.0645 13.176 16.9925 13.176C16.8485 13.176 16.7045 13.17 16.5605 13.158C16.4285 13.146 16.2905 13.14 16.1465 13.14C15.5585 13.104 14.9585 13.086 14.3465 13.086C14.0825 13.086 13.8185 13.092 13.5545 13.104C13.2905 13.116 13.0265 13.128 12.7625 13.14C12.6425 13.152 12.5165 13.164 12.3845 13.176C12.2645 13.188 12.1385 13.194 12.0065 13.194C11.9105 13.194 11.8625 13.134 11.8625 13.014C11.8625 12.93 11.8685 12.852 11.8805 12.78C11.8925 12.708 11.9525 12.672 12.0605 12.672C12.1805 12.672 12.2945 12.678 12.4025 12.69C12.5105 12.69 12.6245 12.69 12.7445 12.69C12.8885 12.69 13.0565 12.654 13.2485 12.582C13.4525 12.51 13.5545 12.39 13.5545 12.222V1.04397C13.5545 0.839969 13.4765 0.707969 13.3205 0.647969C13.1645 0.575969 12.9785 0.53997 12.7625 0.53997C12.5585 0.53997 12.3665 0.545969 12.1865 0.557969C12.0185 0.557969 11.9225 0.527969 11.8985 0.467969C11.8865 0.443969 11.8805 0.389969 11.8805 0.305969C11.8805 0.257969 11.8865 0.203969 11.8985 0.143969C11.9105 0.0719695 11.9465 0.0359696 12.0065 0.0359696C12.4025 0.0359696 12.7985 0.0479695 13.1945 0.0719692C13.6025 0.0959688 14.0045 0.107969 14.4005 0.107969H15.2105C15.4025 0.107969 15.5945 0.107969 15.7865 0.107969C15.9905 0.107969 16.1885 0.101969 16.3805 0.0899689C16.4765 0.0779691 16.5665 0.0719692 16.6505 0.0719692C16.7465 0.0599693 16.8365 0.0539694 16.9205 0.0539694C17.0525 0.0539694 17.1185 0.119969 17.1185 0.251969C17.1185 0.323969 17.1125 0.389969 17.1005 0.44997C17.0885 0.50997 17.0345 0.53997 16.9385 0.53997C16.7945 0.53997 16.6505 0.53997 16.5065 0.53997C16.3745 0.527969 16.2365 0.521969 16.0925 0.521969C15.9485 0.521969 15.7925 0.569969 15.6245 0.665969C15.4685 0.749969 15.3905 0.87597 15.3905 1.04397V12.222C15.3905 12.378 15.4625 12.492 15.6065 12.564C15.7505 12.636 15.8945 12.672 16.0385 12.672C16.1945 12.672 16.3445 12.672 16.4885 12.672C16.6445 12.66 16.8005 12.654 16.9565 12.654C17.0765 12.654 17.1365 12.726 17.1365 12.87ZM32.042 12.942C32.042 13.038 32.006 13.11 31.934 13.158C31.874 13.206 31.796 13.23 31.7 13.23C31.52 13.23 31.334 13.224 31.142 13.212C30.962 13.212 30.782 13.206 30.602 13.194C30.266 13.182 29.924 13.182 29.576 13.194C29.24 13.194 28.898 13.194 28.55 13.194C28.358 13.194 28.214 13.098 28.118 12.906C27.638 11.934 27.122 11.028 26.57 10.188C26.03 9.34797 25.472 8.47197 24.896 7.55997C24.824 7.67997 24.674 7.90797 24.446 8.24397C24.23 8.57997 23.978 8.96397 23.69 9.39597C23.402 9.82797 23.12 10.254 22.844 10.674C22.58 11.094 22.358 11.454 22.178 11.754C22.01 12.042 21.926 12.21 21.926 12.258C21.926 12.438 22.004 12.558 22.16 12.618C22.328 12.678 22.514 12.714 22.718 12.726C22.934 12.726 23.12 12.732 23.276 12.744C23.444 12.744 23.528 12.792 23.528 12.888C23.528 13.08 23.438 13.176 23.258 13.176C23.162 13.176 23.066 13.182 22.97 13.194C22.874 13.194 22.778 13.194 22.682 13.194C22.442 13.194 22.202 13.188 21.962 13.176C21.734 13.152 21.5 13.14 21.26 13.14C20.84 13.14 20.414 13.152 19.982 13.176C19.562 13.2 19.142 13.212 18.722 13.212C18.566 13.212 18.488 13.128 18.488 12.96C18.488 12.804 18.548 12.72 18.668 12.708C18.728 12.696 18.788 12.696 18.848 12.708C18.92 12.708 18.986 12.708 19.046 12.708C19.346 12.708 19.61 12.684 19.838 12.636C20.066 12.588 20.294 12.468 20.522 12.276C20.726 12.096 20.924 11.904 21.116 11.7C21.32 11.496 21.5 11.286 21.656 11.07C22.16 10.434 22.658 9.79197 23.15 9.14397C23.654 8.48397 24.128 7.81797 24.572 7.14597C23.912 6.14997 23.264 5.15397 22.628 4.15797C22.004 3.16197 21.356 2.17797 20.684 1.20597C20.564 1.03797 20.45 0.92997 20.342 0.881969C20.246 0.82197 20.096 0.79197 19.892 0.79197C19.772 0.79197 19.64 0.797969 19.496 0.809969C19.364 0.821969 19.232 0.827969 19.1 0.827969C19.04 0.827969 18.974 0.815969 18.902 0.79197C18.83 0.755969 18.794 0.695969 18.794 0.611969C18.794 0.527969 18.8 0.455969 18.812 0.395969C18.824 0.323969 18.872 0.275969 18.956 0.251969C19.208 0.191969 19.532 0.155969 19.928 0.143969C20.336 0.131969 20.678 0.119969 20.954 0.107969C21.122 0.0959688 21.284 0.083969 21.44 0.0719692C21.608 0.0599693 21.77 0.0539694 21.926 0.0539694C22.07 0.0539694 22.19 0.119969 22.286 0.251969C22.346 0.299969 22.388 0.353969 22.412 0.413969C22.448 0.473969 22.49 0.533969 22.538 0.593969C23.054 1.44597 23.57 2.30397 24.086 3.16797C24.602 4.01997 25.106 4.88397 25.598 5.75997C25.706 5.59197 25.874 5.33997 26.102 5.00397C26.33 4.65597 26.576 4.27197 26.84 3.85197C27.116 3.41997 27.38 2.99397 27.632 2.57397C27.896 2.15397 28.106 1.78197 28.262 1.45797C28.43 1.12197 28.514 0.887969 28.514 0.755969C28.514 0.635969 28.448 0.569969 28.316 0.557969C28.196 0.533969 28.094 0.521969 28.01 0.521969C27.878 0.521969 27.74 0.527969 27.596 0.53997C27.464 0.551969 27.326 0.557969 27.182 0.557969C27.086 0.557969 27.026 0.539969 27.002 0.503969C26.978 0.455969 26.966 0.389969 26.966 0.305969C26.966 0.161969 27.044 0.0899689 27.2 0.0899689C27.356 0.0899689 27.512 0.0959688 27.668 0.107969C27.824 0.119969 27.98 0.12597 28.136 0.12597C28.472 0.12597 28.808 0.12597 29.144 0.12597C29.492 0.113969 29.834 0.101969 30.17 0.0899689C30.338 0.0779691 30.5 0.0659692 30.656 0.0539694C30.824 0.0419695 30.992 0.0359696 31.16 0.0359696C31.328 0.0359696 31.412 0.11997 31.412 0.28797C31.412 0.45597 31.316 0.551969 31.124 0.575969C30.944 0.599969 30.728 0.617969 30.476 0.629969C30.236 0.629969 30.032 0.683969 29.864 0.79197C29.768 0.851969 29.66 0.941969 29.54 1.06197C29.432 1.18197 29.342 1.28997 29.27 1.38597C28.73 2.18997 28.178 2.98797 27.614 3.77997C27.05 4.55997 26.474 5.33997 25.886 6.11997C26.306 6.74397 26.726 7.36797 27.146 7.99197C27.578 8.60397 28.004 9.21597 28.424 9.82797C28.712 10.248 29.006 10.668 29.306 11.088C29.606 11.508 29.918 11.916 30.242 12.312C30.374 12.468 30.536 12.57 30.728 12.618C30.932 12.654 31.13 12.672 31.322 12.672C31.406 12.672 31.484 12.666 31.556 12.654C31.64 12.642 31.724 12.636 31.808 12.636C31.904 12.636 31.964 12.672 31.988 12.744C32.024 12.804 32.042 12.87 32.042 12.942Z" fill="#3CA67B"/>
</svg>
