<svg width="51" height="11" viewBox="0 0 51 11" fill="none" xmlns="http://www.w3.org/2000/svg">
<path d="M8.10692 0.451012C8.10692 0.561011 8.08859 0.619678 8.05192 0.627011C8.02259 0.634345 7.96025 0.638011 7.86492 0.638011C7.83559 0.638011 7.80625 0.638011 7.77692 0.638011C7.75492 0.630678 7.72925 0.627011 7.69992 0.627011C7.58259 0.627011 7.47625 0.649011 7.38092 0.693011C7.28559 0.737011 7.21592 0.814012 7.17192 0.924011C7.12059 1.05601 7.07292 1.19168 7.02892 1.33101C6.98492 1.46301 6.94092 1.59868 6.89692 1.73801C6.80159 2.01668 6.70259 2.29901 6.59992 2.58501C6.50459 2.87101 6.40559 3.15334 6.30292 3.43201C6.00959 4.27534 5.70525 5.11868 5.38992 5.96201C5.08192 6.79801 4.77759 7.63768 4.47692 8.48101H4.03692C3.88292 8.48101 3.77659 8.41135 3.71792 8.27201C3.67392 8.16935 3.62992 8.06301 3.58592 7.95301C3.54925 7.84301 3.51259 7.73301 3.47592 7.62301C3.39525 7.39568 3.31092 7.17201 3.22292 6.95201C3.14225 6.72468 3.05792 6.49734 2.96992 6.27001C2.67659 5.49268 2.38325 4.71901 2.08992 3.94901C1.79659 3.17901 1.51059 2.40534 1.23192 1.62801C1.18792 1.51068 1.14025 1.39334 1.08892 1.27601C1.03759 1.15134 0.975253 1.04134 0.90192 0.946011C0.81392 0.821345 0.71492 0.744345 0.60492 0.715011C0.502253 0.685678 0.403253 0.674678 0.30792 0.682011C0.21992 0.682011 0.146587 0.678345 0.0879199 0.671011C0.0292533 0.656345 -8.0077e-05 0.612345 -8.0077e-05 0.539011C-8.0077e-05 0.487678 0.00725326 0.451011 0.0219199 0.429011C0.0365866 0.399678 0.0695866 0.385011 0.12092 0.385011C0.27492 0.385011 0.42892 0.388678 0.58292 0.396012C0.744253 0.403345 0.905587 0.407012 1.06692 0.407012C1.40425 0.407012 1.73792 0.403345 2.06792 0.396012C2.40525 0.381345 2.73892 0.374011 3.06892 0.374011C3.15692 0.374011 3.20092 0.418011 3.20092 0.506012C3.20092 0.608678 3.15692 0.660012 3.06892 0.660012C2.98092 0.660012 2.89292 0.656345 2.80492 0.649012C2.72425 0.634345 2.63625 0.627011 2.54092 0.627011C2.46025 0.627011 2.36859 0.638011 2.26592 0.660012C2.17059 0.682011 2.12292 0.748011 2.12292 0.858012C2.12292 0.858012 2.13392 0.891012 2.15592 0.957012C2.17792 1.01568 2.19992 1.07801 2.22192 1.14401C2.24392 1.21001 2.25492 1.25034 2.25492 1.26501C2.59959 2.29901 2.95892 3.32934 3.33292 4.35601C3.71425 5.38268 4.09192 6.40934 4.46592 7.43601C4.81059 6.41668 5.16259 5.40101 5.52192 4.38901C5.88125 3.36968 6.22592 2.35034 6.55592 1.33101L6.68792 0.924011C6.68792 0.748011 6.62192 0.652678 6.48992 0.638011C6.36525 0.616011 6.24059 0.605012 6.11592 0.605012C6.05725 0.605012 5.99492 0.612345 5.92892 0.627011C5.87025 0.634345 5.80792 0.638011 5.74192 0.638011C5.71259 0.638011 5.69059 0.627011 5.67592 0.605012C5.66125 0.575678 5.65392 0.546345 5.65392 0.517011C5.65392 0.451011 5.67225 0.410678 5.70892 0.396012C5.72359 0.396012 5.73459 0.396012 5.74192 0.396012C5.74925 0.388678 5.75659 0.385011 5.76392 0.385011C5.77859 0.385011 5.79325 0.388678 5.80792 0.396012C5.82259 0.396012 5.83725 0.396012 5.85192 0.396012C6.02059 0.403345 6.19292 0.407012 6.36892 0.407012C6.54492 0.407012 6.71725 0.407012 6.88592 0.407012C7.07659 0.407012 7.26359 0.399678 7.44692 0.385011C7.63759 0.370345 7.82459 0.363011 8.00792 0.363011C8.07392 0.363011 8.10692 0.392345 8.10692 0.451012ZM12.6489 4.57601C12.6416 4.27534 12.6159 3.98934 12.5719 3.71801C12.5279 3.43934 12.4216 3.21201 12.2529 3.03601C12.0842 2.85268 11.8092 2.76101 11.4279 2.76101C11.0832 2.76101 10.8009 2.85634 10.5809 3.04701C10.3682 3.23034 10.2032 3.46501 10.0859 3.75101C9.96856 4.02968 9.88056 4.31568 9.82189 4.60901C10.0052 4.61634 10.1849 4.62368 10.3609 4.63101C10.5369 4.63101 10.7129 4.63101 10.8889 4.63101C11.1822 4.63101 11.4756 4.62734 11.7689 4.62001C12.0622 4.60534 12.3556 4.59068 12.6489 4.57601ZM13.9139 7.09501C13.9139 7.13168 13.9066 7.15368 13.8919 7.16101C13.8699 7.23434 13.8149 7.32234 13.7269 7.42501C13.6462 7.52768 13.5546 7.62668 13.4519 7.72201C13.3492 7.81001 13.2649 7.87601 13.1989 7.92001C12.9569 8.08868 12.6819 8.22435 12.3739 8.32701C12.0732 8.42968 11.7726 8.48101 11.4719 8.48101C11.2226 8.48101 10.9439 8.44068 10.6359 8.36001C10.3352 8.27935 10.0786 8.16935 9.86589 8.03001C9.45522 7.75868 9.15456 7.40301 8.96389 6.96301C8.77322 6.52301 8.67789 6.06468 8.67789 5.58801C8.67789 5.04535 8.78422 4.54301 8.99689 4.08101C9.20956 3.61901 9.55056 3.24501 10.0199 2.95901C10.2326 2.83434 10.4709 2.73168 10.7349 2.65101C10.9989 2.56301 11.2519 2.51901 11.4939 2.51901C11.9266 2.51901 12.3079 2.60701 12.6379 2.78301C12.9679 2.95901 13.2246 3.20834 13.4079 3.53101C13.5986 3.84634 13.6939 4.22401 13.6939 4.66401C13.6939 4.78868 13.6646 4.86934 13.6059 4.90601C13.5546 4.94268 13.4739 4.96101 13.3639 4.96101C13.2172 4.96101 13.0706 4.95734 12.9239 4.95001C12.7772 4.94268 12.6306 4.93534 12.4839 4.92801C12.2786 4.91334 12.0732 4.90601 11.8679 4.90601C11.6699 4.90601 11.4682 4.90601 11.2629 4.90601C11.0136 4.90601 10.7642 4.90601 10.5149 4.90601C10.2656 4.90601 10.0162 4.91334 9.76689 4.92801C9.75956 5.04535 9.75222 5.15901 9.74489 5.26901C9.73756 5.37901 9.73389 5.49268 9.73389 5.61001C9.73389 5.88134 9.76689 6.16368 9.83289 6.45701C9.89889 6.74301 10.0052 7.01068 10.1519 7.26001C10.2986 7.50201 10.4856 7.70001 10.7129 7.85401C10.9402 8.00068 11.2152 8.07401 11.5379 8.07401C11.8679 8.07401 12.1832 8.02268 12.4839 7.92001C12.7846 7.81735 13.0596 7.65234 13.3089 7.42501C13.3749 7.35901 13.4336 7.28934 13.4849 7.21601C13.5436 7.13534 13.6059 7.06568 13.6719 7.00701C13.7086 6.97034 13.7489 6.95201 13.7929 6.95201C13.8296 6.95201 13.8589 6.96668 13.8809 6.99601C13.9029 7.02534 13.9139 7.05834 13.9139 7.09501ZM18.94 3.54201C18.94 3.61534 18.9107 3.68501 18.852 3.75101C18.8007 3.80968 18.7347 3.83901 18.654 3.83901C18.544 3.83901 18.4634 3.80234 18.412 3.72901C18.368 3.65568 18.3277 3.57134 18.291 3.47601C18.2617 3.38068 18.214 3.29634 18.148 3.22301C18.082 3.14968 17.972 3.11301 17.818 3.11301C17.7887 3.11301 17.7594 3.11301 17.73 3.11301C17.708 3.11301 17.6824 3.11668 17.653 3.12401C17.5284 3.14601 17.3927 3.22301 17.246 3.35501C17.0994 3.48701 16.9564 3.64468 16.817 3.82801C16.685 4.00401 16.575 4.18001 16.487 4.35601C16.399 4.53201 16.3514 4.67868 16.344 4.79601C16.3367 4.91334 16.333 5.03068 16.333 5.14801C16.333 5.25801 16.333 5.36801 16.333 5.47801C16.333 5.87401 16.333 6.27001 16.333 6.66601C16.3404 7.06201 16.344 7.45434 16.344 7.84301C16.344 7.95301 16.388 8.03368 16.476 8.08501C16.5714 8.12901 16.6667 8.15101 16.762 8.15101C16.8354 8.15101 16.9087 8.14735 16.982 8.14001C17.0554 8.13268 17.1287 8.12901 17.202 8.12901C17.2387 8.12901 17.2644 8.14735 17.279 8.18401C17.2937 8.21335 17.301 8.24268 17.301 8.27201C17.301 8.38935 17.2424 8.44801 17.125 8.44801C16.905 8.44801 16.685 8.44435 16.465 8.43701C16.245 8.42235 16.025 8.41501 15.805 8.41501C15.5777 8.41501 15.3467 8.42235 15.112 8.43701C14.8847 8.45168 14.6537 8.45901 14.419 8.45901C14.3897 8.45901 14.3677 8.43701 14.353 8.39301C14.3457 8.34901 14.342 8.31235 14.342 8.28301C14.342 8.20968 14.3714 8.16935 14.43 8.16201C14.5107 8.14735 14.595 8.14368 14.683 8.15101C14.771 8.15835 14.8517 8.16201 14.925 8.16201C15.035 8.16201 15.123 8.14001 15.189 8.09601C15.2624 8.04468 15.3027 7.96035 15.31 7.84301C15.3247 7.60835 15.332 7.37001 15.332 7.12801C15.3394 6.88601 15.343 6.64401 15.343 6.40201V5.33501C15.3357 5.01968 15.332 4.70801 15.332 4.40001C15.3394 4.08468 15.3284 3.77301 15.299 3.46501C15.2917 3.31834 15.2514 3.21568 15.178 3.15701C15.1047 3.09101 14.9947 3.05801 14.848 3.05801C14.7894 3.05801 14.727 3.06534 14.661 3.08001C14.6024 3.08734 14.54 3.09101 14.474 3.09101C14.4154 3.09101 14.386 3.04701 14.386 2.95901C14.386 2.90768 14.4117 2.87101 14.463 2.84901C14.5364 2.82701 14.6134 2.81234 14.694 2.80501C14.7747 2.79034 14.8517 2.77934 14.925 2.77201C15.123 2.73534 15.321 2.69868 15.519 2.66201C15.717 2.62534 15.915 2.58134 16.113 2.53001C16.179 2.55201 16.2267 2.59234 16.256 2.65101C16.2707 2.68034 16.2817 2.76101 16.289 2.89301C16.2964 3.02501 16.3 3.17901 16.3 3.35501C16.3 3.52368 16.3 3.68501 16.3 3.83901C16.3 3.98568 16.3 4.08834 16.3 4.14701C16.4614 3.89034 16.6447 3.63368 16.85 3.37701C17.0554 3.12034 17.29 2.90768 17.554 2.73901C17.818 2.57034 18.115 2.48601 18.445 2.48601C18.621 2.48601 18.7347 2.54101 18.786 2.65101C18.8374 2.76101 18.8704 2.88934 18.885 3.03601C18.8997 3.11668 18.9107 3.20101 18.918 3.28901C18.9327 3.37701 18.94 3.46134 18.94 3.54201ZM26.9297 5.29101C26.9297 5.04168 26.9151 4.78134 26.8857 4.51001C26.8564 4.23134 26.7941 3.97101 26.6987 3.72901C26.6034 3.48701 26.4604 3.29268 26.2697 3.14601C26.0791 2.99201 25.8187 2.91501 25.4887 2.91501C25.2907 2.91501 25.0781 2.96634 24.8507 3.06901C24.6307 3.16434 24.4364 3.29634 24.2677 3.46501C24.1064 3.63368 24.0147 3.82801 23.9927 4.04801C23.9781 4.27534 23.9707 4.50634 23.9707 4.74101C23.9707 4.97568 23.9707 5.21034 23.9707 5.44501C23.9707 5.65034 23.9707 5.85934 23.9707 6.07201C23.9781 6.27734 23.9854 6.48634 23.9927 6.69901C24.0147 7.07301 24.1357 7.39201 24.3557 7.65601C24.5757 7.91268 24.8874 8.04101 25.2907 8.04101C25.6721 8.04101 25.9727 7.95668 26.1927 7.78801C26.4127 7.61201 26.5741 7.38468 26.6767 7.10601C26.7867 6.82734 26.8564 6.53034 26.8857 6.21501C26.9151 5.89234 26.9297 5.58434 26.9297 5.29101ZM28.0627 5.30201C28.0627 5.87401 27.9601 6.39101 27.7547 6.85301C27.5494 7.31501 27.2414 7.68168 26.8307 7.95301C26.4274 8.21701 25.9214 8.34901 25.3127 8.34901C25.0781 8.34901 24.8361 8.29035 24.5867 8.17301C24.3447 8.04835 24.1394 7.90535 23.9707 7.74401V10.087C23.9707 10.1897 24.0111 10.2483 24.0917 10.263C24.1797 10.2777 24.2604 10.285 24.3337 10.285C24.3997 10.285 24.4657 10.2813 24.5317 10.274C24.5977 10.2667 24.6637 10.263 24.7297 10.263C24.8251 10.263 24.8727 10.3107 24.8727 10.406C24.8727 10.516 24.8177 10.571 24.7077 10.571C24.4804 10.571 24.2531 10.5637 24.0257 10.549C23.7984 10.5343 23.5711 10.527 23.3437 10.527C23.1531 10.527 22.9624 10.5343 22.7717 10.549C22.5884 10.5637 22.4014 10.571 22.2107 10.571C22.1594 10.571 22.1264 10.5527 22.1117 10.516C22.1044 10.4793 22.1007 10.4463 22.1007 10.417C22.1007 10.3143 22.1521 10.263 22.2547 10.263C22.3134 10.263 22.3721 10.263 22.4307 10.263C22.4894 10.2703 22.5481 10.274 22.6067 10.274C22.6581 10.274 22.7314 10.2667 22.8267 10.252C22.9294 10.2373 22.9807 10.1933 22.9807 10.12C22.9807 9.35735 22.9807 8.59101 22.9807 7.82101C22.9881 7.05101 22.9917 6.28468 22.9917 5.52201C22.9917 5.17734 22.9881 4.83634 22.9807 4.49901C22.9807 4.16168 22.9771 3.82434 22.9697 3.48701C22.9624 3.32568 22.9331 3.21568 22.8817 3.15701C22.8304 3.09101 22.7204 3.05801 22.5517 3.05801C22.4784 3.05801 22.4051 3.06901 22.3317 3.09101C22.2584 3.10568 22.1851 3.11301 22.1117 3.11301C22.0311 3.11301 21.9907 3.07634 21.9907 3.00301C21.9907 2.93701 22.0237 2.89301 22.0897 2.87101C22.1044 2.86368 22.1704 2.84901 22.2877 2.82701C22.4051 2.80501 22.5444 2.77934 22.7057 2.75001C22.8744 2.71334 23.0394 2.68034 23.2007 2.65101C23.3621 2.62168 23.4977 2.59601 23.6077 2.57401C23.7177 2.55201 23.7764 2.54101 23.7837 2.54101C23.8424 2.54101 23.8827 2.57768 23.9047 2.65101C23.9194 2.69501 23.9267 2.77568 23.9267 2.89301C23.9341 3.00301 23.9377 3.11668 23.9377 3.23401C23.9377 3.34401 23.9377 3.42834 23.9377 3.48701C24.1431 3.21568 24.4034 2.99201 24.7187 2.81601C25.0414 2.63268 25.3751 2.54101 25.7197 2.54101C26.2257 2.54101 26.6511 2.67668 26.9957 2.94801C27.3477 3.21201 27.6117 3.55668 27.7877 3.98201C27.9711 4.40001 28.0627 4.84001 28.0627 5.30201ZM32.9731 4.57601C32.9658 4.27534 32.9401 3.98934 32.8961 3.71801C32.8521 3.43934 32.7458 3.21201 32.5771 3.03601C32.4084 2.85268 32.1334 2.76101 31.7521 2.76101C31.4074 2.76101 31.1251 2.85634 30.9051 3.04701C30.6924 3.23034 30.5274 3.46501 30.4101 3.75101C30.2928 4.02968 30.2048 4.31568 30.1461 4.60901C30.3294 4.61634 30.5091 4.62368 30.6851 4.63101C30.8611 4.63101 31.0371 4.63101 31.2131 4.63101C31.5064 4.63101 31.7998 4.62734 32.0931 4.62001C32.3864 4.60534 32.6798 4.59068 32.9731 4.57601ZM34.2381 7.09501C34.2381 7.13168 34.2308 7.15368 34.2161 7.16101C34.1941 7.23434 34.1391 7.32234 34.0511 7.42501C33.9704 7.52768 33.8788 7.62668 33.7761 7.72201C33.6734 7.81001 33.5891 7.87601 33.5231 7.92001C33.2811 8.08868 33.0061 8.22435 32.6981 8.32701C32.3974 8.42968 32.0968 8.48101 31.7961 8.48101C31.5468 8.48101 31.2681 8.44068 30.9601 8.36001C30.6594 8.27935 30.4028 8.16935 30.1901 8.03001C29.7794 7.75868 29.4788 7.40301 29.2881 6.96301C29.0974 6.52301 29.0021 6.06468 29.0021 5.58801C29.0021 5.04535 29.1084 4.54301 29.3211 4.08101C29.5338 3.61901 29.8748 3.24501 30.3441 2.95901C30.5568 2.83434 30.7951 2.73168 31.0591 2.65101C31.3231 2.56301 31.5761 2.51901 31.8181 2.51901C32.2508 2.51901 32.6321 2.60701 32.9621 2.78301C33.2921 2.95901 33.5488 3.20834 33.7321 3.53101C33.9228 3.84634 34.0181 4.22401 34.0181 4.66401C34.0181 4.78868 33.9888 4.86934 33.9301 4.90601C33.8788 4.94268 33.7981 4.96101 33.6881 4.96101C33.5414 4.96101 33.3948 4.95734 33.2481 4.95001C33.1014 4.94268 32.9548 4.93534 32.8081 4.92801C32.6028 4.91334 32.3974 4.90601 32.1921 4.90601C31.9941 4.90601 31.7924 4.90601 31.5871 4.90601C31.3378 4.90601 31.0884 4.90601 30.8391 4.90601C30.5898 4.90601 30.3404 4.91334 30.0911 4.92801C30.0838 5.04535 30.0764 5.15901 30.0691 5.26901C30.0618 5.37901 30.0581 5.49268 30.0581 5.61001C30.0581 5.88134 30.0911 6.16368 30.1571 6.45701C30.2231 6.74301 30.3294 7.01068 30.4761 7.26001C30.6228 7.50201 30.8098 7.70001 31.0371 7.85401C31.2644 8.00068 31.5394 8.07401 31.8621 8.07401C32.1921 8.07401 32.5074 8.02268 32.8081 7.92001C33.1088 7.81735 33.3838 7.65234 33.6331 7.42501C33.6991 7.35901 33.7578 7.28934 33.8091 7.21601C33.8678 7.13534 33.9301 7.06568 33.9961 7.00701C34.0328 6.97034 34.0731 6.95201 34.1171 6.95201C34.1538 6.95201 34.1831 6.96668 34.2051 6.99601C34.2271 7.02534 34.2381 7.05834 34.2381 7.09501ZM39.2642 3.54201C39.2642 3.61534 39.2349 3.68501 39.1762 3.75101C39.1249 3.80968 39.0589 3.83901 38.9782 3.83901C38.8682 3.83901 38.7876 3.80234 38.7362 3.72901C38.6922 3.65568 38.6519 3.57134 38.6152 3.47601C38.5859 3.38068 38.5382 3.29634 38.4722 3.22301C38.4062 3.14968 38.2962 3.11301 38.1422 3.11301C38.1129 3.11301 38.0836 3.11301 38.0542 3.11301C38.0322 3.11301 38.0066 3.11668 37.9772 3.12401C37.8526 3.14601 37.7169 3.22301 37.5702 3.35501C37.4236 3.48701 37.2806 3.64468 37.1412 3.82801C37.0092 4.00401 36.8992 4.18001 36.8112 4.35601C36.7232 4.53201 36.6756 4.67868 36.6682 4.79601C36.6609 4.91334 36.6572 5.03068 36.6572 5.14801C36.6572 5.25801 36.6572 5.36801 36.6572 5.47801C36.6572 5.87401 36.6572 6.27001 36.6572 6.66601C36.6646 7.06201 36.6682 7.45434 36.6682 7.84301C36.6682 7.95301 36.7122 8.03368 36.8002 8.08501C36.8956 8.12901 36.9909 8.15101 37.0862 8.15101C37.1596 8.15101 37.2329 8.14735 37.3062 8.14001C37.3796 8.13268 37.4529 8.12901 37.5262 8.12901C37.5629 8.12901 37.5886 8.14735 37.6032 8.18401C37.6179 8.21335 37.6252 8.24268 37.6252 8.27201C37.6252 8.38935 37.5666 8.44801 37.4492 8.44801C37.2292 8.44801 37.0092 8.44435 36.7892 8.43701C36.5692 8.42235 36.3492 8.41501 36.1292 8.41501C35.9019 8.41501 35.6709 8.42235 35.4362 8.43701C35.2089 8.45168 34.9779 8.45901 34.7432 8.45901C34.7139 8.45901 34.6919 8.43701 34.6772 8.39301C34.6699 8.34901 34.6662 8.31235 34.6662 8.28301C34.6662 8.20968 34.6956 8.16935 34.7542 8.16201C34.8349 8.14735 34.9192 8.14368 35.0072 8.15101C35.0952 8.15835 35.1759 8.16201 35.2492 8.16201C35.3592 8.16201 35.4472 8.14001 35.5132 8.09601C35.5866 8.04468 35.6269 7.96035 35.6342 7.84301C35.6489 7.60835 35.6562 7.37001 35.6562 7.12801C35.6636 6.88601 35.6672 6.64401 35.6672 6.40201V5.33501C35.6599 5.01968 35.6562 4.70801 35.6562 4.40001C35.6636 4.08468 35.6526 3.77301 35.6232 3.46501C35.6159 3.31834 35.5756 3.21568 35.5022 3.15701C35.4289 3.09101 35.3189 3.05801 35.1722 3.05801C35.1136 3.05801 35.0512 3.06534 34.9852 3.08001C34.9266 3.08734 34.8642 3.09101 34.7982 3.09101C34.7396 3.09101 34.7102 3.04701 34.7102 2.95901C34.7102 2.90768 34.7359 2.87101 34.7872 2.84901C34.8606 2.82701 34.9376 2.81234 35.0182 2.80501C35.0989 2.79034 35.1759 2.77934 35.2492 2.77201C35.4472 2.73534 35.6452 2.69868 35.8432 2.66201C36.0412 2.62534 36.2392 2.58134 36.4372 2.53001C36.5032 2.55201 36.5509 2.59234 36.5802 2.65101C36.5949 2.68034 36.6059 2.76101 36.6132 2.89301C36.6206 3.02501 36.6242 3.17901 36.6242 3.35501C36.6242 3.52368 36.6242 3.68501 36.6242 3.83901C36.6242 3.98568 36.6242 4.08834 36.6242 4.14701C36.7856 3.89034 36.9689 3.63368 37.1742 3.37701C37.3796 3.12034 37.6142 2.90768 37.8782 2.73901C38.1422 2.57034 38.4392 2.48601 38.7692 2.48601C38.9452 2.48601 39.0589 2.54101 39.1102 2.65101C39.1616 2.76101 39.1946 2.88934 39.2092 3.03601C39.2239 3.11668 39.2349 3.20101 39.2422 3.28901C39.2569 3.37701 39.2642 3.46134 39.2642 3.54201ZM43.8659 1.47401C43.8659 1.53268 43.8403 1.58768 43.7889 1.63901C43.7376 1.69034 43.6826 1.71601 43.6239 1.71601C43.5213 1.71601 43.4516 1.67201 43.4149 1.58401C43.3783 1.48134 43.3379 1.37868 43.2939 1.27601C43.2573 1.17334 43.2206 1.07068 43.1839 0.968011C43.1253 0.821345 43.0409 0.704011 42.9309 0.616011C42.8283 0.520678 42.6926 0.473011 42.5239 0.473011C42.2453 0.473011 42.0363 0.572011 41.8969 0.770011C41.7649 0.960678 41.6989 1.18434 41.6989 1.44101C41.6989 1.69034 41.6989 1.93968 41.6989 2.18901C41.6989 2.43834 41.7026 2.69134 41.7099 2.94801C41.9446 2.94801 42.1793 2.94801 42.4139 2.94801C42.6486 2.94068 42.8833 2.93701 43.1179 2.93701C43.1693 2.93701 43.2059 2.95901 43.2279 3.00301C43.2573 3.03968 43.2719 3.08001 43.2719 3.12401C43.2719 3.17534 43.2609 3.21934 43.2389 3.25601C43.2169 3.29268 43.1766 3.31101 43.1179 3.31101C42.9713 3.31101 42.8246 3.31101 42.6779 3.31101C42.5313 3.30368 42.3846 3.30001 42.2379 3.30001H41.7429V7.55701C41.7429 7.71835 41.7796 7.86501 41.8529 7.99701C41.9263 8.12168 42.0546 8.18401 42.2379 8.18401C42.3186 8.18401 42.3956 8.18035 42.4689 8.17301C42.5496 8.15835 42.6266 8.15101 42.6999 8.15101C42.7439 8.15101 42.7733 8.17301 42.7879 8.21701C42.8099 8.25368 42.8209 8.29035 42.8209 8.32701C42.8209 8.40768 42.7806 8.44801 42.6999 8.44801C42.4506 8.44801 42.1976 8.44435 41.9409 8.43701C41.6916 8.42235 41.4423 8.41501 41.1929 8.41501C41.0536 8.41501 40.9179 8.41501 40.7859 8.41501C40.6539 8.41501 40.5219 8.41868 40.3899 8.42601C40.2946 8.43335 40.2029 8.44068 40.1149 8.44801C40.0269 8.45535 39.9353 8.45901 39.8399 8.45901C39.7299 8.45901 39.6749 8.41501 39.6749 8.32701C39.6749 8.24635 39.7006 8.20235 39.7519 8.19501C39.8033 8.18035 39.8546 8.17301 39.9059 8.17301C39.9573 8.17301 40.0049 8.17668 40.0489 8.18401C40.1003 8.18401 40.1516 8.18401 40.2029 8.18401C40.4156 8.18401 40.5513 8.12535 40.6099 8.00801C40.6759 7.89068 40.7089 7.74035 40.7089 7.55701V3.28901H40.0819C40.0306 3.28901 39.9719 3.29634 39.9059 3.31101C39.8473 3.31834 39.7959 3.33668 39.7519 3.36601C39.7446 3.37334 39.7336 3.38434 39.7189 3.39901C39.7116 3.41368 39.7006 3.42101 39.6859 3.42101C39.6273 3.42101 39.5979 3.39901 39.5979 3.35501C39.5979 3.34034 39.6053 3.28534 39.6199 3.19001C39.6419 3.08734 39.6566 3.03234 39.6639 3.02501C39.6786 2.98834 39.6969 2.97001 39.7189 2.97001C39.7409 2.96268 39.7666 2.95901 39.7959 2.95901C39.8473 2.95901 39.8949 2.96268 39.9389 2.97001C39.9829 2.97001 40.0306 2.97001 40.0819 2.97001H40.6869C40.6869 2.81601 40.6869 2.66201 40.6869 2.50801C40.6869 2.35401 40.6869 2.20001 40.6869 2.04601C40.6869 1.37134 40.8629 0.902011 41.2149 0.638011C41.5743 0.366678 42.0693 0.231011 42.6999 0.231011C42.8906 0.231011 43.0739 0.271345 43.2499 0.352012C43.4259 0.425345 43.6093 0.462011 43.7999 0.462011C43.8073 0.630678 43.8183 0.799345 43.8329 0.968011C43.8549 1.13668 43.8659 1.30534 43.8659 1.47401ZM47.1401 8.27201C47.1401 8.30868 47.1291 8.34535 47.1071 8.38201C47.0851 8.41135 47.0557 8.42601 47.0191 8.42601C46.8137 8.42601 46.6084 8.42235 46.4031 8.41501C46.2051 8.40035 45.9997 8.39301 45.7871 8.39301H45.4901C45.2701 8.39301 45.0501 8.40035 44.8301 8.41501C44.6174 8.42235 44.4047 8.42601 44.1921 8.42601C44.1627 8.42601 44.1407 8.40768 44.1261 8.37101C44.1187 8.33435 44.1151 8.30501 44.1151 8.28301C44.1151 8.24635 44.1187 8.22068 44.1261 8.20601C44.1334 8.18401 44.1554 8.16935 44.1921 8.16201C44.2287 8.14735 44.2691 8.14368 44.3131 8.15101C44.3644 8.15101 44.4121 8.15101 44.4561 8.15101C44.5074 8.15101 44.5551 8.15468 44.5991 8.16201C44.6431 8.16201 44.6907 8.16201 44.7421 8.16201C44.8447 8.16201 44.9364 8.14001 45.0171 8.09601C45.1051 8.04468 45.1491 7.96035 45.1491 7.84301V3.44301C45.1491 3.31834 45.1271 3.22301 45.0831 3.15701C45.0391 3.08368 44.9474 3.04701 44.8081 3.04701C44.7054 3.04701 44.5991 3.05434 44.4891 3.06901C44.3864 3.07634 44.2837 3.08734 44.1811 3.10201C44.1224 3.10201 44.0931 3.06901 44.0931 3.00301C44.0931 2.92968 44.1224 2.88201 44.1811 2.86001C44.2691 2.83068 44.3607 2.81234 44.4561 2.80501C44.5587 2.79034 44.6541 2.77568 44.7421 2.76101C44.9474 2.72434 45.1527 2.68401 45.3581 2.64001C45.5634 2.59601 45.7651 2.54834 45.9631 2.49701C45.9851 2.48968 46.0144 2.48601 46.0511 2.48601C46.1317 2.48601 46.1721 2.53001 46.1721 2.61801C46.1721 3.48334 46.1684 4.35234 46.1611 5.22501C46.1611 6.09768 46.1611 6.97034 46.1611 7.84301C46.1611 7.96035 46.2124 8.04468 46.3151 8.09601C46.4251 8.14001 46.5277 8.16201 46.6231 8.16201C46.6964 8.16201 46.7697 8.15835 46.8431 8.15101C46.9237 8.14368 47.0007 8.14001 47.0741 8.14001C47.1034 8.14001 47.1217 8.15835 47.1291 8.19501C47.1364 8.23168 47.1401 8.25735 47.1401 8.27201ZM46.2491 0.660012C46.2491 0.843345 46.1831 1.00101 46.0511 1.13301C45.9191 1.25768 45.7614 1.32001 45.5781 1.32001C45.3947 1.32001 45.2371 1.25768 45.1051 1.13301C44.9731 1.00101 44.9071 0.843345 44.9071 0.660012C44.9071 0.476678 44.9731 0.322678 45.1051 0.198012C45.2371 0.0660115 45.3947 1.15037e-05 45.5781 1.15037e-05C45.7614 1.15037e-05 45.9191 0.0660115 46.0511 0.198012C46.1831 0.322678 46.2491 0.476678 46.2491 0.660012ZM50.8993 8.29401C50.8993 8.33068 50.8883 8.36735 50.8663 8.40401C50.8517 8.43335 50.8223 8.44801 50.7783 8.44801C50.551 8.44801 50.32 8.44435 50.0853 8.43701C49.8507 8.42235 49.616 8.41501 49.3813 8.41501H48.9963C48.8423 8.41501 48.6883 8.42235 48.5343 8.43701C48.3803 8.44435 48.2263 8.44801 48.0723 8.44801C48.043 8.44801 48.021 8.43701 48.0063 8.41501C47.999 8.38568 47.9953 8.36001 47.9953 8.33801C47.9953 8.31601 47.9953 8.29401 47.9953 8.27201C47.9953 8.25001 47.999 8.22801 48.0063 8.20601C48.021 8.17668 48.0613 8.16201 48.1273 8.16201C48.2007 8.15468 48.274 8.15468 48.3473 8.16201C48.428 8.16201 48.4793 8.16201 48.5013 8.16201C48.604 8.16201 48.6957 8.14001 48.7763 8.09601C48.857 8.04468 48.8973 7.96035 48.8973 7.84301C48.8973 7.27834 48.901 6.71734 48.9083 6.16001C48.9157 5.59534 48.9193 5.03434 48.9193 4.47701C48.9193 3.90501 48.9157 3.33301 48.9083 2.76101C48.9083 2.18168 48.9083 1.60601 48.9083 1.03401C48.9083 0.982678 48.9047 0.927678 48.8973 0.869011C48.89 0.803011 48.868 0.751678 48.8313 0.715011C48.802 0.678345 48.7727 0.660012 48.7433 0.660012C48.714 0.652678 48.6773 0.649012 48.6333 0.649012C48.5013 0.649012 48.3693 0.671012 48.2373 0.715011C48.1127 0.759011 47.988 0.781011 47.8633 0.781011C47.7827 0.781011 47.7423 0.733345 47.7423 0.638011C47.7423 0.579345 47.7863 0.539012 47.8743 0.517011C47.9697 0.495011 48.043 0.480345 48.0943 0.473011C48.351 0.414345 48.6297 0.348345 48.9303 0.275011C49.231 0.201678 49.5023 0.117345 49.7443 0.0220112C49.759 0.0220112 49.7737 0.0183446 49.7883 0.0110114C49.803 0.00367812 49.814 1.15037e-05 49.8213 1.15037e-05C49.8653 1.15037e-05 49.891 0.0146782 49.8983 0.0440116C49.913 0.0733445 49.9203 0.106345 49.9203 0.143012C49.9203 0.348345 49.9167 0.553678 49.9093 0.759012C49.9093 0.957012 49.9093 1.15868 49.9093 1.36401V4.44401C49.9093 5.00868 49.913 5.57701 49.9203 6.14901C49.9277 6.71368 49.9313 7.27834 49.9313 7.84301C49.9313 7.96035 49.979 8.04468 50.0743 8.09601C50.177 8.14001 50.276 8.16201 50.3713 8.16201C50.452 8.16201 50.529 8.15835 50.6023 8.15101C50.6757 8.14368 50.749 8.14001 50.8223 8.14001C50.859 8.14001 50.881 8.16201 50.8883 8.20601C50.8957 8.24268 50.8993 8.27201 50.8993 8.29401Z" fill="black"/>
</svg>
