<svg width="63" height="11" viewBox="0 0 63 11" fill="none" xmlns="http://www.w3.org/2000/svg">
<path d="M8.10692 0.506004C8.10692 0.616004 8.08859 0.674671 8.05192 0.682004C8.02259 0.689337 7.96025 0.693004 7.86492 0.693004C7.83559 0.693004 7.80625 0.693004 7.77692 0.693004C7.75492 0.685671 7.72925 0.682004 7.69992 0.682004C7.58259 0.682004 7.47625 0.704004 7.38092 0.748004C7.28559 0.792004 7.21592 0.869004 7.17192 0.979004C7.12059 1.111 7.07292 1.24667 7.02892 1.386C6.98492 1.518 6.94092 1.65367 6.89692 1.793C6.80159 2.07167 6.70259 2.354 6.59992 2.64C6.50459 2.926 6.40559 3.20834 6.30292 3.487C6.00959 4.33034 5.70525 5.17367 5.38992 6.017C5.08192 6.853 4.77759 7.69267 4.47692 8.536H4.03692C3.88292 8.536 3.77659 8.46634 3.71792 8.327C3.67392 8.22434 3.62992 8.118 3.58592 8.008C3.54925 7.898 3.51259 7.788 3.47592 7.678C3.39525 7.45067 3.31092 7.227 3.22292 7.007C3.14225 6.77967 3.05792 6.55234 2.96992 6.325C2.67659 5.54767 2.38325 4.774 2.08992 4.004C1.79659 3.234 1.51059 2.46034 1.23192 1.683C1.18792 1.56567 1.14025 1.44834 1.08892 1.331C1.03759 1.20634 0.975253 1.09634 0.90192 1.001C0.81392 0.876337 0.71492 0.799338 0.60492 0.770004C0.502253 0.740671 0.403253 0.729671 0.30792 0.737004C0.21992 0.737004 0.146587 0.733337 0.0879199 0.726004C0.0292533 0.711338 -8.0077e-05 0.667337 -8.0077e-05 0.594004C-8.0077e-05 0.542671 0.00725326 0.506004 0.0219199 0.484004C0.0365866 0.454671 0.0695866 0.440004 0.12092 0.440004C0.27492 0.440004 0.42892 0.443671 0.58292 0.451004C0.744253 0.458338 0.905587 0.462004 1.06692 0.462004C1.40425 0.462004 1.73792 0.458338 2.06792 0.451004C2.40525 0.436337 2.73892 0.429004 3.06892 0.429004C3.15692 0.429004 3.20092 0.473004 3.20092 0.561004C3.20092 0.663671 3.15692 0.715004 3.06892 0.715004C2.98092 0.715004 2.89292 0.711338 2.80492 0.704004C2.72425 0.689337 2.63625 0.682004 2.54092 0.682004C2.46025 0.682004 2.36859 0.693004 2.26592 0.715004C2.17059 0.737004 2.12292 0.803004 2.12292 0.913004C2.12292 0.913004 2.13392 0.946004 2.15592 1.012C2.17792 1.07067 2.19992 1.133 2.22192 1.199C2.24392 1.265 2.25492 1.30534 2.25492 1.32C2.59959 2.354 2.95892 3.38434 3.33292 4.411C3.71425 5.43767 4.09192 6.46434 4.46592 7.491C4.81059 6.47167 5.16259 5.456 5.52192 4.444C5.88125 3.42467 6.22592 2.40534 6.55592 1.386L6.68792 0.979004C6.68792 0.803004 6.62192 0.707671 6.48992 0.693004C6.36525 0.671004 6.24059 0.660004 6.11592 0.660004C6.05725 0.660004 5.99492 0.667337 5.92892 0.682004C5.87025 0.689337 5.80792 0.693004 5.74192 0.693004C5.71259 0.693004 5.69059 0.682004 5.67592 0.660004C5.66125 0.630671 5.65392 0.601337 5.65392 0.572004C5.65392 0.506004 5.67225 0.465671 5.70892 0.451004C5.72359 0.451004 5.73459 0.451004 5.74192 0.451004C5.74925 0.443671 5.75659 0.440004 5.76392 0.440004C5.77859 0.440004 5.79325 0.443671 5.80792 0.451004C5.82259 0.451004 5.83725 0.451004 5.85192 0.451004C6.02059 0.458338 6.19292 0.462004 6.36892 0.462004C6.54492 0.462004 6.71725 0.462004 6.88592 0.462004C7.07659 0.462004 7.26359 0.454671 7.44692 0.440004C7.63759 0.425337 7.82459 0.418004 8.00792 0.418004C8.07392 0.418004 8.10692 0.447337 8.10692 0.506004ZM12.6489 4.631C12.6416 4.33034 12.6159 4.04434 12.5719 3.773C12.5279 3.49434 12.4216 3.267 12.2529 3.091C12.0842 2.90767 11.8092 2.816 11.4279 2.816C11.0832 2.816 10.8009 2.91134 10.5809 3.102C10.3682 3.28534 10.2032 3.52 10.0859 3.806C9.96856 4.08467 9.88056 4.37067 9.82189 4.664C10.0052 4.67134 10.1849 4.67867 10.3609 4.686C10.5369 4.686 10.7129 4.686 10.8889 4.686C11.1822 4.686 11.4756 4.68234 11.7689 4.675C12.0622 4.66034 12.3556 4.64567 12.6489 4.631ZM13.9139 7.15C13.9139 7.18667 13.9066 7.20867 13.8919 7.216C13.8699 7.28934 13.8149 7.37734 13.7269 7.48C13.6462 7.58267 13.5546 7.68167 13.4519 7.777C13.3492 7.865 13.2649 7.931 13.1989 7.975C12.9569 8.14367 12.6819 8.27934 12.3739 8.382C12.0732 8.48467 11.7726 8.536 11.4719 8.536C11.2226 8.536 10.9439 8.49567 10.6359 8.415C10.3352 8.33434 10.0786 8.22434 9.86589 8.085C9.45522 7.81367 9.15456 7.458 8.96389 7.018C8.77322 6.578 8.67789 6.11967 8.67789 5.643C8.67789 5.10034 8.78422 4.598 8.99689 4.136C9.20956 3.674 9.55056 3.3 10.0199 3.014C10.2326 2.88934 10.4709 2.78667 10.7349 2.706C10.9989 2.618 11.2519 2.574 11.4939 2.574C11.9266 2.574 12.3079 2.662 12.6379 2.838C12.9679 3.014 13.2246 3.26334 13.4079 3.586C13.5986 3.90134 13.6939 4.279 13.6939 4.719C13.6939 4.84367 13.6646 4.92434 13.6059 4.961C13.5546 4.99767 13.4739 5.016 13.3639 5.016C13.2172 5.016 13.0706 5.01234 12.9239 5.005C12.7772 4.99767 12.6306 4.99034 12.4839 4.983C12.2786 4.96834 12.0732 4.961 11.8679 4.961C11.6699 4.961 11.4682 4.961 11.2629 4.961C11.0136 4.961 10.7642 4.961 10.5149 4.961C10.2656 4.961 10.0162 4.96834 9.76689 4.983C9.75956 5.10034 9.75222 5.214 9.74489 5.324C9.73756 5.434 9.73389 5.54767 9.73389 5.665C9.73389 5.93634 9.76689 6.21867 9.83289 6.512C9.89889 6.798 10.0052 7.06567 10.1519 7.315C10.2986 7.557 10.4856 7.755 10.7129 7.909C10.9402 8.05567 11.2152 8.129 11.5379 8.129C11.8679 8.129 12.1832 8.07767 12.4839 7.975C12.7846 7.87234 13.0596 7.70734 13.3089 7.48C13.3749 7.414 13.4336 7.34434 13.4849 7.271C13.5436 7.19034 13.6059 7.12067 13.6719 7.062C13.7086 7.02534 13.7489 7.007 13.7929 7.007C13.8296 7.007 13.8589 7.02167 13.8809 7.051C13.9029 7.08034 13.9139 7.11334 13.9139 7.15ZM18.94 3.597C18.94 3.67034 18.9107 3.74 18.852 3.806C18.8007 3.86467 18.7347 3.894 18.654 3.894C18.544 3.894 18.4634 3.85734 18.412 3.784C18.368 3.71067 18.3277 3.62634 18.291 3.531C18.2617 3.43567 18.214 3.35134 18.148 3.278C18.082 3.20467 17.972 3.168 17.818 3.168C17.7887 3.168 17.7594 3.168 17.73 3.168C17.708 3.168 17.6824 3.17167 17.653 3.179C17.5284 3.201 17.3927 3.278 17.246 3.41C17.0994 3.542 16.9564 3.69967 16.817 3.883C16.685 4.059 16.575 4.235 16.487 4.411C16.399 4.587 16.3514 4.73367 16.344 4.851C16.3367 4.96834 16.333 5.08567 16.333 5.203C16.333 5.313 16.333 5.423 16.333 5.533C16.333 5.929 16.333 6.325 16.333 6.721C16.3404 7.117 16.344 7.50934 16.344 7.898C16.344 8.008 16.388 8.08867 16.476 8.14C16.5714 8.184 16.6667 8.206 16.762 8.206C16.8354 8.206 16.9087 8.20234 16.982 8.195C17.0554 8.18767 17.1287 8.184 17.202 8.184C17.2387 8.184 17.2644 8.20234 17.279 8.239C17.2937 8.26834 17.301 8.29767 17.301 8.327C17.301 8.44434 17.2424 8.503 17.125 8.503C16.905 8.503 16.685 8.49934 16.465 8.492C16.245 8.47734 16.025 8.47 15.805 8.47C15.5777 8.47 15.3467 8.47734 15.112 8.492C14.8847 8.50667 14.6537 8.514 14.419 8.514C14.3897 8.514 14.3677 8.492 14.353 8.448C14.3457 8.404 14.342 8.36734 14.342 8.338C14.342 8.26467 14.3714 8.22434 14.43 8.217C14.5107 8.20234 14.595 8.19867 14.683 8.206C14.771 8.21334 14.8517 8.217 14.925 8.217C15.035 8.217 15.123 8.195 15.189 8.151C15.2624 8.09967 15.3027 8.01534 15.31 7.898C15.3247 7.66334 15.332 7.425 15.332 7.183C15.3394 6.941 15.343 6.699 15.343 6.457V5.39C15.3357 5.07467 15.332 4.763 15.332 4.455C15.3394 4.13967 15.3284 3.828 15.299 3.52C15.2917 3.37334 15.2514 3.27067 15.178 3.212C15.1047 3.146 14.9947 3.113 14.848 3.113C14.7894 3.113 14.727 3.12034 14.661 3.135C14.6024 3.14234 14.54 3.146 14.474 3.146C14.4154 3.146 14.386 3.102 14.386 3.014C14.386 2.96267 14.4117 2.926 14.463 2.904C14.5364 2.882 14.6134 2.86734 14.694 2.86C14.7747 2.84534 14.8517 2.83434 14.925 2.827C15.123 2.79034 15.321 2.75367 15.519 2.717C15.717 2.68034 15.915 2.63634 16.113 2.585C16.179 2.607 16.2267 2.64734 16.256 2.706C16.2707 2.73534 16.2817 2.816 16.289 2.948C16.2964 3.08 16.3 3.234 16.3 3.41C16.3 3.57867 16.3 3.74 16.3 3.894C16.3 4.04067 16.3 4.14334 16.3 4.202C16.4614 3.94534 16.6447 3.68867 16.85 3.432C17.0554 3.17534 17.29 2.96267 17.554 2.794C17.818 2.62534 18.115 2.541 18.445 2.541C18.621 2.541 18.7347 2.596 18.786 2.706C18.8374 2.816 18.8704 2.94434 18.885 3.091C18.8997 3.17167 18.9107 3.256 18.918 3.344C18.9327 3.432 18.94 3.51634 18.94 3.597ZM26.9297 5.346C26.9297 5.09667 26.9151 4.83634 26.8857 4.565C26.8564 4.28634 26.7941 4.026 26.6987 3.784C26.6034 3.542 26.4604 3.34767 26.2697 3.201C26.0791 3.047 25.8187 2.97 25.4887 2.97C25.2907 2.97 25.0781 3.02134 24.8507 3.124C24.6307 3.21934 24.4364 3.35134 24.2677 3.52C24.1064 3.68867 24.0147 3.883 23.9927 4.103C23.9781 4.33034 23.9707 4.56134 23.9707 4.796C23.9707 5.03067 23.9707 5.26534 23.9707 5.5C23.9707 5.70534 23.9707 5.91434 23.9707 6.127C23.9781 6.33234 23.9854 6.54134 23.9927 6.754C24.0147 7.128 24.1357 7.447 24.3557 7.711C24.5757 7.96767 24.8874 8.096 25.2907 8.096C25.6721 8.096 25.9727 8.01167 26.1927 7.843C26.4127 7.667 26.5741 7.43967 26.6767 7.161C26.7867 6.88234 26.8564 6.58534 26.8857 6.27C26.9151 5.94734 26.9297 5.63934 26.9297 5.346ZM28.0627 5.357C28.0627 5.929 27.9601 6.446 27.7547 6.908C27.5494 7.37 27.2414 7.73667 26.8307 8.008C26.4274 8.272 25.9214 8.404 25.3127 8.404C25.0781 8.404 24.8361 8.34534 24.5867 8.228C24.3447 8.10334 24.1394 7.96034 23.9707 7.799V10.142C23.9707 10.2447 24.0111 10.3033 24.0917 10.318C24.1797 10.3327 24.2604 10.34 24.3337 10.34C24.3997 10.34 24.4657 10.3363 24.5317 10.329C24.5977 10.3217 24.6637 10.318 24.7297 10.318C24.8251 10.318 24.8727 10.3657 24.8727 10.461C24.8727 10.571 24.8177 10.626 24.7077 10.626C24.4804 10.626 24.2531 10.6187 24.0257 10.604C23.7984 10.5893 23.5711 10.582 23.3437 10.582C23.1531 10.582 22.9624 10.5893 22.7717 10.604C22.5884 10.6187 22.4014 10.626 22.2107 10.626C22.1594 10.626 22.1264 10.6077 22.1117 10.571C22.1044 10.5343 22.1007 10.5013 22.1007 10.472C22.1007 10.3693 22.1521 10.318 22.2547 10.318C22.3134 10.318 22.3721 10.318 22.4307 10.318C22.4894 10.3253 22.5481 10.329 22.6067 10.329C22.6581 10.329 22.7314 10.3217 22.8267 10.307C22.9294 10.2923 22.9807 10.2483 22.9807 10.175C22.9807 9.41234 22.9807 8.646 22.9807 7.876C22.9881 7.106 22.9917 6.33967 22.9917 5.577C22.9917 5.23234 22.9881 4.89134 22.9807 4.554C22.9807 4.21667 22.9771 3.87934 22.9697 3.542C22.9624 3.38067 22.9331 3.27067 22.8817 3.212C22.8304 3.146 22.7204 3.113 22.5517 3.113C22.4784 3.113 22.4051 3.124 22.3317 3.146C22.2584 3.16067 22.1851 3.168 22.1117 3.168C22.0311 3.168 21.9907 3.13134 21.9907 3.058C21.9907 2.992 22.0237 2.948 22.0897 2.926C22.1044 2.91867 22.1704 2.904 22.2877 2.882C22.4051 2.86 22.5444 2.83434 22.7057 2.805C22.8744 2.76834 23.0394 2.73534 23.2007 2.706C23.3621 2.67667 23.4977 2.651 23.6077 2.629C23.7177 2.607 23.7764 2.596 23.7837 2.596C23.8424 2.596 23.8827 2.63267 23.9047 2.706C23.9194 2.75 23.9267 2.83067 23.9267 2.948C23.9341 3.058 23.9377 3.17167 23.9377 3.289C23.9377 3.399 23.9377 3.48334 23.9377 3.542C24.1431 3.27067 24.4034 3.047 24.7187 2.871C25.0414 2.68767 25.3751 2.596 25.7197 2.596C26.2257 2.596 26.6511 2.73167 26.9957 3.003C27.3477 3.267 27.6117 3.61167 27.7877 4.037C27.9711 4.455 28.0627 4.895 28.0627 5.357ZM32.9731 4.631C32.9658 4.33034 32.9401 4.04434 32.8961 3.773C32.8521 3.49434 32.7458 3.267 32.5771 3.091C32.4084 2.90767 32.1334 2.816 31.7521 2.816C31.4074 2.816 31.1251 2.91134 30.9051 3.102C30.6924 3.28534 30.5274 3.52 30.4101 3.806C30.2928 4.08467 30.2048 4.37067 30.1461 4.664C30.3294 4.67134 30.5091 4.67867 30.6851 4.686C30.8611 4.686 31.0371 4.686 31.2131 4.686C31.5064 4.686 31.7998 4.68234 32.0931 4.675C32.3864 4.66034 32.6798 4.64567 32.9731 4.631ZM34.2381 7.15C34.2381 7.18667 34.2308 7.20867 34.2161 7.216C34.1941 7.28934 34.1391 7.37734 34.0511 7.48C33.9704 7.58267 33.8788 7.68167 33.7761 7.777C33.6734 7.865 33.5891 7.931 33.5231 7.975C33.2811 8.14367 33.0061 8.27934 32.6981 8.382C32.3974 8.48467 32.0968 8.536 31.7961 8.536C31.5468 8.536 31.2681 8.49567 30.9601 8.415C30.6594 8.33434 30.4028 8.22434 30.1901 8.085C29.7794 7.81367 29.4788 7.458 29.2881 7.018C29.0974 6.578 29.0021 6.11967 29.0021 5.643C29.0021 5.10034 29.1084 4.598 29.3211 4.136C29.5338 3.674 29.8748 3.3 30.3441 3.014C30.5568 2.88934 30.7951 2.78667 31.0591 2.706C31.3231 2.618 31.5761 2.574 31.8181 2.574C32.2508 2.574 32.6321 2.662 32.9621 2.838C33.2921 3.014 33.5488 3.26334 33.7321 3.586C33.9228 3.90134 34.0181 4.279 34.0181 4.719C34.0181 4.84367 33.9888 4.92434 33.9301 4.961C33.8788 4.99767 33.7981 5.016 33.6881 5.016C33.5414 5.016 33.3948 5.01234 33.2481 5.005C33.1014 4.99767 32.9548 4.99034 32.8081 4.983C32.6028 4.96834 32.3974 4.961 32.1921 4.961C31.9941 4.961 31.7924 4.961 31.5871 4.961C31.3378 4.961 31.0884 4.961 30.8391 4.961C30.5898 4.961 30.3404 4.96834 30.0911 4.983C30.0838 5.10034 30.0764 5.214 30.0691 5.324C30.0618 5.434 30.0581 5.54767 30.0581 5.665C30.0581 5.93634 30.0911 6.21867 30.1571 6.512C30.2231 6.798 30.3294 7.06567 30.4761 7.315C30.6228 7.557 30.8098 7.755 31.0371 7.909C31.2644 8.05567 31.5394 8.129 31.8621 8.129C32.1921 8.129 32.5074 8.07767 32.8081 7.975C33.1088 7.87234 33.3838 7.70734 33.6331 7.48C33.6991 7.414 33.7578 7.34434 33.8091 7.271C33.8678 7.19034 33.9301 7.12067 33.9961 7.062C34.0328 7.02534 34.0731 7.007 34.1171 7.007C34.1538 7.007 34.1831 7.02167 34.2051 7.051C34.2271 7.08034 34.2381 7.11334 34.2381 7.15ZM39.0332 4.455C39.0332 4.20567 38.9819 3.971 38.8792 3.751C38.7766 3.531 38.6299 3.35134 38.4392 3.212C38.2486 3.07267 38.0176 3.003 37.7462 3.003C37.3942 3.003 37.1046 3.08734 36.8772 3.256C36.6572 3.42467 36.4812 3.64467 36.3492 3.916C36.2246 4.18 36.1366 4.466 36.0852 4.774C36.0412 5.082 36.0192 5.37534 36.0192 5.654C36.0192 5.90334 36.0412 6.171 36.0852 6.457C36.1292 6.743 36.2062 7.01067 36.3162 7.26C36.4336 7.50934 36.5949 7.71467 36.8002 7.876C37.0056 8.03 37.2659 8.107 37.5812 8.107C37.8452 8.107 38.0872 8.02634 38.3072 7.865C38.5272 7.69634 38.7032 7.48734 38.8352 7.238C38.9672 6.98867 39.0332 6.743 39.0332 6.501V4.455ZM41.0792 8.052C41.0792 8.08867 41.0609 8.12534 41.0242 8.162C40.9876 8.19867 40.9546 8.228 40.9252 8.25C40.8299 8.32334 40.6906 8.38567 40.5072 8.437C40.3312 8.48834 40.1809 8.514 40.0562 8.514C39.8656 8.514 39.7079 8.459 39.5832 8.349C39.4586 8.239 39.3559 8.10334 39.2752 7.942C39.2019 7.78067 39.1359 7.623 39.0772 7.469C38.9159 7.72567 38.6959 7.95667 38.4172 8.162C38.1386 8.36 37.8416 8.459 37.5262 8.459C37.3136 8.459 37.0936 8.44434 36.8662 8.415C36.6462 8.37834 36.4409 8.30134 36.2502 8.184C35.8322 7.92 35.5132 7.56434 35.2932 7.117C35.0806 6.66234 34.9742 6.19667 34.9742 5.72C34.9742 5.148 35.0769 4.63467 35.2822 4.18C35.4876 3.718 35.7919 3.355 36.1952 3.091C36.6059 2.81967 37.1119 2.684 37.7132 2.684C37.8452 2.684 37.9919 2.70967 38.1532 2.761C38.3146 2.81234 38.4722 2.87834 38.6262 2.959C38.7876 3.03234 38.9159 3.10934 39.0112 3.19V1.056C39.0112 0.821337 38.9489 0.689338 38.8242 0.660004C38.7069 0.623338 38.5492 0.605004 38.3512 0.605004C38.2852 0.605004 38.2192 0.608671 38.1532 0.616004C38.0872 0.616004 38.0212 0.616004 37.9552 0.616004C37.9259 0.616004 37.8966 0.605004 37.8672 0.583004C37.8452 0.561004 37.8342 0.535337 37.8342 0.506004C37.8342 0.454671 37.8526 0.421671 37.8892 0.407004C37.9039 0.392337 37.9186 0.385004 37.9332 0.385004C37.9552 0.385004 37.9772 0.381337 37.9992 0.374004C38.1532 0.344671 38.3072 0.322671 38.4612 0.308004C38.6226 0.286004 38.7839 0.260337 38.9452 0.231004C39.1066 0.20167 39.2642 0.172337 39.4182 0.143004C39.5722 0.106337 39.7262 0.0660038 39.8802 0.0220039C39.8876 0.0220039 39.8986 0.0183373 39.9132 0.0110041C39.9352 0.00367085 39.9499 4.23193e-06 39.9572 4.23193e-06C39.9939 4.23193e-06 40.0159 0.0146709 40.0232 0.0440043C40.0306 0.0733373 40.0342 0.10267 40.0342 0.132004C40.0342 1.04134 40.0306 1.947 40.0232 2.849C40.0159 3.751 40.0122 4.65667 40.0122 5.566V7.205C40.0122 7.32967 40.0269 7.458 40.0562 7.59C40.0856 7.722 40.1406 7.832 40.2212 7.92C40.3092 8.008 40.4302 8.052 40.5842 8.052C40.6576 8.052 40.7272 8.03734 40.7932 8.008C40.8592 7.97867 40.9289 7.964 41.0022 7.964C41.0536 7.964 41.0792 7.99334 41.0792 8.052ZM44.6371 8.327C44.6371 8.36367 44.6261 8.40034 44.6041 8.437C44.5821 8.46634 44.5528 8.481 44.5161 8.481C44.3108 8.481 44.1055 8.47734 43.9001 8.47C43.7021 8.45534 43.4968 8.448 43.2841 8.448H42.9871C42.7671 8.448 42.5471 8.45534 42.3271 8.47C42.1145 8.47734 41.9018 8.481 41.6891 8.481C41.6598 8.481 41.6378 8.46267 41.6231 8.426C41.6158 8.38934 41.6121 8.36 41.6121 8.338C41.6121 8.30134 41.6158 8.27567 41.6231 8.261C41.6305 8.239 41.6525 8.22434 41.6891 8.217C41.7258 8.20234 41.7661 8.19867 41.8101 8.206C41.8615 8.206 41.9091 8.206 41.9531 8.206C42.0045 8.206 42.0521 8.20967 42.0961 8.217C42.1401 8.217 42.1878 8.217 42.2391 8.217C42.3418 8.217 42.4335 8.195 42.5141 8.151C42.6021 8.09967 42.6461 8.01534 42.6461 7.898V3.498C42.6461 3.37334 42.6241 3.278 42.5801 3.212C42.5361 3.13867 42.4445 3.102 42.3051 3.102C42.2025 3.102 42.0961 3.10934 41.9861 3.124C41.8835 3.13134 41.7808 3.14234 41.6781 3.157C41.6195 3.157 41.5901 3.124 41.5901 3.058C41.5901 2.98467 41.6195 2.937 41.6781 2.915C41.7661 2.88567 41.8578 2.86734 41.9531 2.86C42.0558 2.84534 42.1511 2.83067 42.2391 2.816C42.4445 2.77934 42.6498 2.739 42.8551 2.695C43.0605 2.651 43.2621 2.60334 43.4601 2.552C43.4821 2.54467 43.5115 2.541 43.5481 2.541C43.6288 2.541 43.6691 2.585 43.6691 2.673C43.6691 3.53834 43.6655 4.40734 43.6581 5.28C43.6581 6.15267 43.6581 7.02534 43.6581 7.898C43.6581 8.01534 43.7095 8.09967 43.8121 8.151C43.9221 8.195 44.0248 8.217 44.1201 8.217C44.1935 8.217 44.2668 8.21334 44.3401 8.206C44.4208 8.19867 44.4978 8.195 44.5711 8.195C44.6005 8.195 44.6188 8.21334 44.6261 8.25C44.6335 8.28667 44.6371 8.31234 44.6371 8.327ZM43.7461 0.715004C43.7461 0.898337 43.6801 1.056 43.5481 1.188C43.4161 1.31267 43.2585 1.375 43.0751 1.375C42.8918 1.375 42.7341 1.31267 42.6021 1.188C42.4701 1.056 42.4041 0.898337 42.4041 0.715004C42.4041 0.531671 42.4701 0.377671 42.6021 0.253004C42.7341 0.121004 42.8918 0.0550042 43.0751 0.0550042C43.2585 0.0550042 43.4161 0.121004 43.5481 0.253004C43.6801 0.377671 43.7461 0.531671 43.7461 0.715004ZM49.4854 4.455C49.4854 4.20567 49.4341 3.971 49.3314 3.751C49.2287 3.531 49.0821 3.35134 48.8914 3.212C48.7007 3.07267 48.4697 3.003 48.1984 3.003C47.8464 3.003 47.5567 3.08734 47.3294 3.256C47.1094 3.42467 46.9334 3.64467 46.8014 3.916C46.6767 4.18 46.5887 4.466 46.5374 4.774C46.4934 5.082 46.4714 5.37534 46.4714 5.654C46.4714 5.90334 46.4934 6.171 46.5374 6.457C46.5814 6.743 46.6584 7.01067 46.7684 7.26C46.8857 7.50934 47.0471 7.71467 47.2524 7.876C47.4577 8.03 47.7181 8.107 48.0334 8.107C48.2974 8.107 48.5394 8.02634 48.7594 7.865C48.9794 7.69634 49.1554 7.48734 49.2874 7.238C49.4194 6.98867 49.4854 6.743 49.4854 6.501V4.455ZM51.5314 8.052C51.5314 8.08867 51.5131 8.12534 51.4764 8.162C51.4397 8.19867 51.4067 8.228 51.3774 8.25C51.2821 8.32334 51.1427 8.38567 50.9594 8.437C50.7834 8.48834 50.6331 8.514 50.5084 8.514C50.3177 8.514 50.1601 8.459 50.0354 8.349C49.9107 8.239 49.8081 8.10334 49.7274 7.942C49.6541 7.78067 49.5881 7.623 49.5294 7.469C49.3681 7.72567 49.1481 7.95667 48.8694 8.162C48.5907 8.36 48.2937 8.459 47.9784 8.459C47.7657 8.459 47.5457 8.44434 47.3184 8.415C47.0984 8.37834 46.8931 8.30134 46.7024 8.184C46.2844 7.92 45.9654 7.56434 45.7454 7.117C45.5327 6.66234 45.4264 6.19667 45.4264 5.72C45.4264 5.148 45.5291 4.63467 45.7344 4.18C45.9397 3.718 46.2441 3.355 46.6474 3.091C47.0581 2.81967 47.5641 2.684 48.1654 2.684C48.2974 2.684 48.4441 2.70967 48.6054 2.761C48.7667 2.81234 48.9244 2.87834 49.0784 2.959C49.2397 3.03234 49.3681 3.10934 49.4634 3.19V1.056C49.4634 0.821337 49.4011 0.689338 49.2764 0.660004C49.1591 0.623338 49.0014 0.605004 48.8034 0.605004C48.7374 0.605004 48.6714 0.608671 48.6054 0.616004C48.5394 0.616004 48.4734 0.616004 48.4074 0.616004C48.3781 0.616004 48.3487 0.605004 48.3194 0.583004C48.2974 0.561004 48.2864 0.535337 48.2864 0.506004C48.2864 0.454671 48.3047 0.421671 48.3414 0.407004C48.3561 0.392337 48.3707 0.385004 48.3854 0.385004C48.4074 0.385004 48.4294 0.381337 48.4514 0.374004C48.6054 0.344671 48.7594 0.322671 48.9134 0.308004C49.0747 0.286004 49.2361 0.260337 49.3974 0.231004C49.5587 0.20167 49.7164 0.172337 49.8704 0.143004C50.0244 0.106337 50.1784 0.0660038 50.3324 0.0220039C50.3397 0.0220039 50.3507 0.0183373 50.3654 0.0110041C50.3874 0.00367085 50.4021 4.23193e-06 50.4094 4.23193e-06C50.4461 4.23193e-06 50.4681 0.0146709 50.4754 0.0440043C50.4827 0.0733373 50.4864 0.10267 50.4864 0.132004C50.4864 1.04134 50.4827 1.947 50.4754 2.849C50.4681 3.751 50.4644 4.65667 50.4644 5.566V7.205C50.4644 7.32967 50.4791 7.458 50.5084 7.59C50.5377 7.722 50.5927 7.832 50.6734 7.92C50.7614 8.008 50.8824 8.052 51.0364 8.052C51.1097 8.052 51.1794 8.03734 51.2454 8.008C51.3114 7.97867 51.3811 7.964 51.4544 7.964C51.5057 7.964 51.5314 7.99334 51.5314 8.052ZM56.7833 5.588C56.7833 5.27267 56.7576 4.95734 56.7063 4.642C56.6623 4.31934 56.5743 4.02234 56.4423 3.751C56.3176 3.47967 56.1343 3.26334 55.8923 3.102C55.6503 2.93334 55.335 2.849 54.9463 2.849C54.5796 2.849 54.279 2.937 54.0443 3.113C53.817 3.289 53.6373 3.51634 53.5053 3.795C53.3806 4.07367 53.2926 4.37434 53.2413 4.697C53.1973 5.01967 53.1753 5.324 53.1753 5.61C53.1753 5.92534 53.1973 6.24067 53.2413 6.556C53.2926 6.87134 53.3843 7.15734 53.5163 7.414C53.6483 7.66334 53.8353 7.865 54.0773 8.019C54.3266 8.173 54.6456 8.25 55.0343 8.25C55.4156 8.25 55.72 8.16934 55.9473 8.008C56.182 7.84667 56.358 7.634 56.4753 7.37C56.6 7.106 56.6806 6.82 56.7173 6.512C56.7613 6.19667 56.7833 5.88867 56.7833 5.588ZM57.9163 5.621C57.9163 6.171 57.7843 6.666 57.5203 7.106C57.2636 7.546 56.9116 7.89434 56.4643 8.151C56.0243 8.40767 55.5293 8.536 54.9793 8.536C54.444 8.536 53.96 8.40767 53.5273 8.151C53.0946 7.887 52.75 7.53867 52.4933 7.106C52.2366 6.666 52.1083 6.17834 52.1083 5.643C52.1083 5.093 52.233 4.587 52.4823 4.125C52.7316 3.65567 53.0726 3.278 53.5053 2.992C53.9453 2.706 54.4513 2.563 55.0233 2.563C55.6393 2.563 56.1636 2.695 56.5963 2.959C57.029 3.21567 57.3553 3.575 57.5753 4.037C57.8026 4.49167 57.9163 5.01967 57.9163 5.621ZM62.9776 6.919C62.9776 7.249 62.9043 7.52034 62.7576 7.733C62.6109 7.93834 62.4203 8.096 62.1856 8.206C61.9509 8.316 61.6943 8.393 61.4156 8.437C61.1369 8.481 60.8656 8.503 60.6016 8.503C60.3596 8.503 60.1176 8.47734 59.8756 8.426C59.6409 8.37467 59.4026 8.338 59.1606 8.316C59.1093 8.118 59.0579 7.92 59.0066 7.722C58.9626 7.524 58.9113 7.32967 58.8526 7.139C58.8453 7.117 58.8269 7.06567 58.7976 6.985C58.7756 6.90434 58.7646 6.86034 58.7646 6.853C58.7646 6.79434 58.7829 6.754 58.8196 6.732C58.8563 6.70267 58.9003 6.688 58.9516 6.688C59.0029 6.688 59.0396 6.70634 59.0616 6.743C59.1056 6.79434 59.1423 6.864 59.1716 6.952C59.2083 7.04 59.2413 7.117 59.2706 7.183C59.3293 7.30034 59.3806 7.392 59.4246 7.458C59.4686 7.51667 59.5383 7.59367 59.6336 7.689C59.9196 7.98967 60.2753 8.14 60.7006 8.14C60.9353 8.14 61.1479 8.11434 61.3386 8.063C61.5366 8.01167 61.6943 7.91634 61.8116 7.777C61.9289 7.63034 61.9876 7.42134 61.9876 7.15C61.9876 6.91534 61.9143 6.721 61.7676 6.567C61.6209 6.40567 61.4303 6.26267 61.1956 6.138C60.9683 6.01334 60.7263 5.89234 60.4696 5.775C60.2129 5.65767 59.9673 5.52934 59.7326 5.39C59.5053 5.24334 59.3183 5.06734 59.1716 4.862C59.0249 4.65667 58.9516 4.40734 58.9516 4.114C58.9516 3.75467 59.0433 3.46134 59.2266 3.234C59.4173 3.00667 59.6593 2.838 59.9526 2.728C60.2459 2.61067 60.5503 2.552 60.8656 2.552C61.0709 2.552 61.2543 2.57767 61.4156 2.629C61.5843 2.68034 61.7603 2.739 61.9436 2.805C62.0023 2.827 62.0609 2.84167 62.1196 2.849C62.1783 2.85634 62.2369 2.86 62.2956 2.86C62.3323 2.86 62.3653 2.86 62.3946 2.86C62.4239 2.86 62.4533 2.85634 62.4826 2.849C62.5046 2.981 62.5229 3.11667 62.5376 3.256C62.5596 3.388 62.5779 3.52367 62.5926 3.663C62.5999 3.71434 62.6073 3.77667 62.6146 3.85C62.6293 3.916 62.6366 3.97834 62.6366 4.037C62.6366 4.08834 62.6256 4.14334 62.6036 4.202C62.5816 4.25334 62.5376 4.279 62.4716 4.279C62.4203 4.279 62.3763 4.27534 62.3396 4.268C62.3103 4.25334 62.2846 4.22034 62.2626 4.169C62.2259 4.09567 62.1929 4.01867 62.1636 3.938C62.1416 3.85 62.1159 3.76934 62.0866 3.696C61.9913 3.43934 61.8263 3.234 61.5916 3.08C61.3569 2.91867 61.1039 2.838 60.8326 2.838C60.4879 2.838 60.2276 2.94067 60.0516 3.146C59.8756 3.344 59.7876 3.61167 59.7876 3.949C59.7876 4.06634 59.8169 4.18 59.8756 4.29C59.9416 4.4 60.0149 4.49534 60.0956 4.576C60.2496 4.72267 60.4293 4.83634 60.6346 4.917C60.8473 4.99767 61.0489 5.07834 61.2396 5.159C61.4889 5.269 61.7456 5.401 62.0096 5.555C62.2809 5.709 62.5083 5.896 62.6916 6.116C62.8823 6.336 62.9776 6.60367 62.9776 6.919Z" fill="#1C2434"/>
</svg>
