<svg width="81" height="12" viewBox="0 0 81 12" fill="none" xmlns="http://www.w3.org/2000/svg">
<path d="M3.70449 11.8183C2.97722 11.8183 2.33517 11.6346 1.77835 11.2672C1.22154 10.8959 0.785929 10.3732 0.471535 9.69897C0.157142 9.02094 -5.54323e-05 8.21981 -5.54323e-05 7.29557C-5.54323e-05 6.3789 0.157142 5.58344 0.471535 4.9092C0.785929 4.23496 1.22343 3.71413 1.78404 3.3467C2.34464 2.97928 2.99237 2.79557 3.72722 2.79557C4.2954 2.79557 4.74426 2.89026 5.07381 3.07966C5.40714 3.26526 5.66093 3.47738 5.83517 3.71602C6.0132 3.95087 6.15146 4.14405 6.24994 4.29557H6.36358V0.000110626H7.70449V11.6365H6.40904V10.2956H6.24994C6.15146 10.4547 6.01131 10.6554 5.82949 10.8978C5.64767 11.1365 5.3882 11.3505 5.05108 11.5399C4.71396 11.7255 4.2651 11.8183 3.70449 11.8183ZM3.88631 10.6137C4.42419 10.6137 4.87873 10.4736 5.24994 10.1933C5.62116 9.9092 5.90335 9.51716 6.09654 9.01716C6.28972 8.51337 6.38631 7.93193 6.38631 7.27284C6.38631 6.62132 6.29161 6.05125 6.10222 5.56261C5.91282 5.07019 5.63252 4.68761 5.26131 4.41488C4.8901 4.13837 4.43176 4.00011 3.88631 4.00011C3.31813 4.00011 2.84464 4.14594 2.46585 4.43761C2.09085 4.72549 1.80866 5.11754 1.61926 5.61375C1.43366 6.10617 1.34085 6.6592 1.34085 7.27284C1.34085 7.89405 1.43555 8.45844 1.62494 8.96602C1.81813 9.46981 2.10222 9.87132 2.47722 10.1706C2.85601 10.466 3.3257 10.6137 3.88631 10.6137ZM14.0056 11.8183C13.1647 11.8183 12.4393 11.6327 11.8295 11.2615C11.2234 10.8865 10.7556 10.3637 10.4261 9.69329C10.1003 9.01905 9.93744 8.23496 9.93744 7.34102C9.93744 6.44708 10.1003 5.6592 10.4261 4.97738C10.7556 4.29178 11.214 3.75769 11.8011 3.37511C12.392 2.98875 13.0814 2.79557 13.8693 2.79557C14.3238 2.79557 14.7727 2.87132 15.2159 3.02284C15.659 3.17435 16.0624 3.42057 16.4261 3.76147C16.7897 4.0986 17.0795 4.54557 17.2954 5.10238C17.5113 5.6592 17.6193 6.34481 17.6193 7.1592V7.72738H10.892V6.56829H16.2556C16.2556 6.07587 16.1571 5.63647 15.9602 5.25011C15.767 4.86375 15.4905 4.55882 15.1306 4.33534C14.7746 4.11185 14.3541 4.00011 13.8693 4.00011C13.3352 4.00011 12.8731 4.13269 12.4829 4.39784C12.0965 4.6592 11.7992 5.00011 11.5909 5.42057C11.3825 5.84102 11.2784 6.29178 11.2784 6.77284V7.54557C11.2784 8.20466 11.392 8.76337 11.6193 9.2217C11.8503 9.67625 12.1704 10.0228 12.5795 10.2615C12.9886 10.4963 13.464 10.6137 14.0056 10.6137C14.3579 10.6137 14.6761 10.5645 14.9602 10.466C15.2481 10.3637 15.4962 10.2122 15.7045 10.0115C15.9128 9.80693 16.0738 9.55314 16.1874 9.25011L17.4829 9.61375C17.3465 10.0531 17.1174 10.4395 16.7954 10.7728C16.4734 11.1024 16.0757 11.36 15.6022 11.5456C15.1287 11.7274 14.5965 11.8183 14.0056 11.8183ZM26.7272 11.841C26.1742 11.841 25.6723 11.7369 25.2215 11.5285C24.7708 11.3164 24.4128 11.0115 24.1477 10.6137C23.8825 10.2122 23.7499 9.72738 23.7499 9.1592C23.7499 8.6592 23.8484 8.2539 24.0454 7.94329C24.2424 7.6289 24.5056 7.38269 24.8352 7.20466C25.1647 7.02663 25.5284 6.89405 25.9261 6.80693C26.3276 6.71602 26.731 6.64405 27.1363 6.59102C27.6666 6.52284 28.0965 6.4717 28.4261 6.43761C28.7594 6.39973 29.0018 6.33723 29.1534 6.25011C29.3087 6.16299 29.3863 6.01147 29.3863 5.79557V5.75011C29.3863 5.1895 29.2329 4.7539 28.9261 4.44329C28.6231 4.13269 28.1628 3.97738 27.5454 3.97738C26.9052 3.97738 26.4034 4.11754 26.0397 4.39784C25.6761 4.67814 25.4204 4.97738 25.2727 5.29557L23.9999 4.84102C24.2272 4.31072 24.5302 3.89784 24.909 3.60238C25.2916 3.30314 25.7083 3.09481 26.159 2.97738C26.6136 2.85617 27.0606 2.79557 27.4999 2.79557C27.7802 2.79557 28.1022 2.82966 28.4659 2.89784C28.8333 2.96223 29.1874 3.0967 29.5284 3.30125C29.8731 3.50579 30.159 3.8145 30.3863 4.22738C30.6136 4.64026 30.7272 5.19329 30.7272 5.88647V11.6365H29.3863V10.4547H29.3181C29.2272 10.6441 29.0757 10.8467 28.8636 11.0626C28.6515 11.2785 28.3693 11.4622 28.017 11.6137C27.6647 11.7653 27.2348 11.841 26.7272 11.841ZM26.9318 10.6365C27.4621 10.6365 27.909 10.5323 28.2727 10.324C28.6401 10.1156 28.9166 9.8467 29.1022 9.51716C29.2916 9.18761 29.3863 8.84102 29.3863 8.47738V7.25011C29.3295 7.31829 29.2045 7.38079 29.0113 7.43761C28.8219 7.49064 28.6022 7.53799 28.3522 7.57966C28.106 7.61754 27.8655 7.65163 27.6306 7.68193C27.3996 7.70844 27.2121 7.73117 27.0681 7.75011C26.7196 7.79557 26.3939 7.86943 26.0909 7.9717C25.7916 8.07019 25.5492 8.21981 25.3636 8.42057C25.1818 8.61754 25.0909 8.88647 25.0909 9.22738C25.0909 9.69329 25.2632 10.0456 25.6079 10.2842C25.9564 10.5191 26.3977 10.6365 26.9318 10.6365ZM34.5156 0.000110626V11.6365H33.1747V0.000110626H34.5156ZM40.517 11.8183C39.6988 11.8183 38.9943 11.6251 38.4034 11.2387C37.8124 10.8524 37.3579 10.3202 37.0397 9.64216C36.7215 8.96413 36.5624 8.1895 36.5624 7.31829C36.5624 6.43193 36.7253 5.64973 37.0511 4.9717C37.3806 4.28988 37.839 3.75769 38.4261 3.37511C39.017 2.98875 39.7064 2.79557 40.4943 2.79557C41.1079 2.79557 41.6609 2.9092 42.1534 3.13647C42.6458 3.36375 43.0492 3.68193 43.3636 4.09102C43.678 4.50011 43.8731 4.97738 43.9488 5.52284H42.6079C42.5056 5.12511 42.2784 4.77284 41.9261 4.46602C41.5776 4.15541 41.1079 4.00011 40.517 4.00011C39.9943 4.00011 39.5359 4.13647 39.142 4.4092C38.7518 4.67814 38.4469 5.05882 38.2272 5.55125C38.0113 6.03988 37.9034 6.61375 37.9034 7.27284C37.9034 7.94708 38.0094 8.5342 38.2215 9.0342C38.4374 9.5342 38.7405 9.92246 39.1306 10.199C39.5246 10.4755 39.9867 10.6137 40.517 10.6137C40.8655 10.6137 41.1818 10.5531 41.4659 10.4319C41.7499 10.3107 41.9905 10.1365 42.1874 9.9092C42.3844 9.68193 42.5246 9.4092 42.6079 9.09102H43.9488C43.8731 9.60617 43.6856 10.0702 43.3863 10.4831C43.0909 10.8922 42.6988 11.2179 42.2102 11.4603C41.7253 11.699 41.1609 11.8183 40.517 11.8183ZM48.4772 11.841C47.9242 11.841 47.4223 11.7369 46.9715 11.5285C46.5208 11.3164 46.1628 11.0115 45.8977 10.6137C45.6325 10.2122 45.4999 9.72738 45.4999 9.1592C45.4999 8.6592 45.5984 8.2539 45.7954 7.94329C45.9924 7.6289 46.2556 7.38269 46.5852 7.20466C46.9147 7.02663 47.2784 6.89405 47.6761 6.80693C48.0776 6.71602 48.481 6.64405 48.8863 6.59102C49.4166 6.52284 49.8465 6.4717 50.1761 6.43761C50.5094 6.39973 50.7518 6.33723 50.9034 6.25011C51.0587 6.16299 51.1363 6.01147 51.1363 5.79557V5.75011C51.1363 5.1895 50.9829 4.7539 50.6761 4.44329C50.3731 4.13269 49.9128 3.97738 49.2954 3.97738C48.6552 3.97738 48.1534 4.11754 47.7897 4.39784C47.4261 4.67814 47.1704 4.97738 47.0227 5.29557L45.7499 4.84102C45.9772 4.31072 46.2802 3.89784 46.659 3.60238C47.0416 3.30314 47.4583 3.09481 47.909 2.97738C48.3636 2.85617 48.8106 2.79557 49.2499 2.79557C49.5302 2.79557 49.8522 2.82966 50.2159 2.89784C50.5833 2.96223 50.9374 3.0967 51.2784 3.30125C51.6231 3.50579 51.909 3.8145 52.1363 4.22738C52.3636 4.64026 52.4772 5.19329 52.4772 5.88647V11.6365H51.1363V10.4547H51.0681C50.9772 10.6441 50.8257 10.8467 50.6136 11.0626C50.4015 11.2785 50.1193 11.4622 49.767 11.6137C49.4147 11.7653 48.9848 11.841 48.4772 11.841ZM48.6818 10.6365C49.2121 10.6365 49.659 10.5323 50.0227 10.324C50.3901 10.1156 50.6666 9.8467 50.8522 9.51716C51.0416 9.18761 51.1363 8.84102 51.1363 8.47738V7.25011C51.0795 7.31829 50.9545 7.38079 50.7613 7.43761C50.5719 7.49064 50.3522 7.53799 50.1022 7.57966C49.856 7.61754 49.6155 7.65163 49.3806 7.68193C49.1496 7.70844 48.9621 7.73117 48.8181 7.75011C48.4696 7.79557 48.1439 7.86943 47.8409 7.9717C47.5416 8.07019 47.2992 8.21981 47.1136 8.42057C46.9318 8.61754 46.8409 8.88647 46.8409 9.22738C46.8409 9.69329 47.0132 10.0456 47.3579 10.2842C47.7064 10.5191 48.1477 10.6365 48.6818 10.6365ZM56.2656 6.38647V11.6365H54.9247V2.9092H56.2201V4.27284H56.3338C56.5383 3.82966 56.8489 3.4736 57.2656 3.20466C57.6822 2.93193 58.2201 2.79557 58.8792 2.79557C59.4701 2.79557 59.9872 2.91678 60.4303 3.1592C60.8735 3.39784 61.2182 3.76147 61.4644 4.25011C61.7106 4.73496 61.8338 5.3486 61.8338 6.09102V11.6365H60.4928V6.18193C60.4928 5.49632 60.3148 4.96223 59.9588 4.57966C59.6027 4.19329 59.1141 4.00011 58.4928 4.00011C58.0648 4.00011 57.6822 4.09291 57.3451 4.27852C57.0118 4.46413 56.7485 4.73496 56.5553 5.09102C56.3622 5.44708 56.2656 5.8789 56.2656 6.38647ZM67.8295 11.8183C67.0113 11.8183 66.3068 11.6251 65.7159 11.2387C65.1249 10.8524 64.6704 10.3202 64.3522 9.64216C64.034 8.96413 63.8749 8.1895 63.8749 7.31829C63.8749 6.43193 64.0378 5.64973 64.3636 4.9717C64.6931 4.28988 65.1515 3.75769 65.7386 3.37511C66.3295 2.98875 67.0189 2.79557 67.8068 2.79557C68.4204 2.79557 68.9734 2.9092 69.4659 3.13647C69.9583 3.36375 70.3617 3.68193 70.6761 4.09102C70.9905 4.50011 71.1856 4.97738 71.2613 5.52284H69.9204C69.8181 5.12511 69.5909 4.77284 69.2386 4.46602C68.8901 4.15541 68.4204 4.00011 67.8295 4.00011C67.3068 4.00011 66.8484 4.13647 66.4545 4.4092C66.0643 4.67814 65.7594 5.05882 65.5397 5.55125C65.3238 6.03988 65.2159 6.61375 65.2159 7.27284C65.2159 7.94708 65.3219 8.5342 65.534 9.0342C65.7499 9.5342 66.053 9.92246 66.4431 10.199C66.8371 10.4755 67.2992 10.6137 67.8295 10.6137C68.178 10.6137 68.4943 10.5531 68.7784 10.4319C69.0624 10.3107 69.303 10.1365 69.4999 9.9092C69.6969 9.68193 69.8371 9.4092 69.9204 9.09102H71.2613C71.1856 9.60617 70.9981 10.0702 70.6988 10.4831C70.4034 10.8922 70.0113 11.2179 69.5227 11.4603C69.0378 11.699 68.4734 11.8183 67.8295 11.8183ZM76.8806 11.8183C76.0397 11.8183 75.3143 11.6327 74.7045 11.2615C74.0984 10.8865 73.6306 10.3637 73.3011 9.69329C72.9753 9.01905 72.8124 8.23496 72.8124 7.34102C72.8124 6.44708 72.9753 5.6592 73.3011 4.97738C73.6306 4.29178 74.089 3.75769 74.6761 3.37511C75.267 2.98875 75.9564 2.79557 76.7443 2.79557C77.1988 2.79557 77.6477 2.87132 78.0909 3.02284C78.534 3.17435 78.9374 3.42057 79.3011 3.76147C79.6647 4.0986 79.9545 4.54557 80.1704 5.10238C80.3863 5.6592 80.4943 6.34481 80.4943 7.1592V7.72738H73.767V6.56829H79.1306C79.1306 6.07587 79.0321 5.63647 78.8352 5.25011C78.642 4.86375 78.3655 4.55882 78.0056 4.33534C77.6496 4.11185 77.2291 4.00011 76.7443 4.00011C76.2102 4.00011 75.7481 4.13269 75.3579 4.39784C74.9715 4.6592 74.6742 5.00011 74.4659 5.42057C74.2575 5.84102 74.1534 6.29178 74.1534 6.77284V7.54557C74.1534 8.20466 74.267 8.76337 74.4943 9.2217C74.7253 9.67625 75.0454 10.0228 75.4545 10.2615C75.8636 10.4963 76.339 10.6137 76.8806 10.6137C77.2329 10.6137 77.5511 10.5645 77.8352 10.466C78.1231 10.3637 78.3712 10.2122 78.5795 10.0115C78.7878 9.80693 78.9488 9.55314 79.0624 9.25011L80.3579 9.61375C80.2215 10.0531 79.9924 10.4395 79.6704 10.7728C79.3484 11.1024 78.9507 11.36 78.4772 11.5456C78.0037 11.7274 77.4715 11.8183 76.8806 11.8183Z" fill="black"/>
</svg>
