<svg width="119" height="7" viewBox="0 0 119 7" fill="none" xmlns="http://www.w3.org/2000/svg">
<path d="M2.56807 6.54546L2.65898 4.04546L0.545344 5.38637L-0.000110924 4.43182L2.22716 3.27273L-0.000110924 2.11364L0.545344 1.15909L2.65898 2.5L2.56807 3.8147e-06H3.65898L3.56807 2.5L5.68171 1.15909L6.22716 2.11364L3.99989 3.27273L6.22716 4.43182L5.68171 5.38637L3.56807 4.04546L3.65898 6.54546H2.56807ZM10.5681 6.54546L10.659 4.04546L8.54534 5.38637L7.99989 4.43182L10.2272 3.27273L7.99989 2.11364L8.54534 1.15909L10.659 2.5L10.5681 3.8147e-06H11.659L11.5681 2.5L13.6817 1.15909L14.2272 2.11364L11.9999 3.27273L14.2272 4.43182L13.6817 5.38637L11.5681 4.04546L11.659 6.54546H10.5681ZM18.5681 6.54546L18.659 4.04546L16.5453 5.38637L15.9999 4.43182L18.2272 3.27273L15.9999 2.11364L16.5453 1.15909L18.659 2.5L18.5681 3.8147e-06H19.659L19.5681 2.5L21.6817 1.15909L22.2272 2.11364L19.9999 3.27273L22.2272 4.43182L21.6817 5.38637L19.5681 4.04546L19.659 6.54546H18.5681ZM26.5681 6.54546L26.659 4.04546L24.5453 5.38637L23.9999 4.43182L26.2272 3.27273L23.9999 2.11364L24.5453 1.15909L26.659 2.5L26.5681 3.8147e-06H27.659L27.5681 2.5L29.6817 1.15909L30.2272 2.11364L27.9999 3.27273L30.2272 4.43182L29.6817 5.38637L27.5681 4.04546L27.659 6.54546H26.5681ZM34.5681 6.54546L34.659 4.04546L32.5453 5.38637L31.9999 4.43182L34.2272 3.27273L31.9999 2.11364L32.5453 1.15909L34.659 2.5L34.5681 3.8147e-06H35.659L35.5681 2.5L37.6817 1.15909L38.2272 2.11364L35.9999 3.27273L38.2272 4.43182L37.6817 5.38637L35.5681 4.04546L35.659 6.54546H34.5681ZM42.5681 6.54546L42.659 4.04546L40.5453 5.38637L39.9999 4.43182L42.2272 3.27273L39.9999 2.11364L40.5453 1.15909L42.659 2.5L42.5681 3.8147e-06H43.659L43.5681 2.5L45.6817 1.15909L46.2272 2.11364L43.9999 3.27273L46.2272 4.43182L45.6817 5.38637L43.5681 4.04546L43.659 6.54546H42.5681ZM50.5681 6.54546L50.659 4.04546L48.5453 5.38637L47.9999 4.43182L50.2272 3.27273L47.9999 2.11364L48.5453 1.15909L50.659 2.5L50.5681 3.8147e-06H51.659L51.5681 2.5L53.6817 1.15909L54.2272 2.11364L51.9999 3.27273L54.2272 4.43182L53.6817 5.38637L51.5681 4.04546L51.659 6.54546H50.5681ZM58.5681 6.54546L58.659 4.04546L56.5453 5.38637L55.9999 4.43182L58.2272 3.27273L55.9999 2.11364L56.5453 1.15909L58.659 2.5L58.5681 3.8147e-06H59.659L59.5681 2.5L61.6817 1.15909L62.2272 2.11364L59.9999 3.27273L62.2272 4.43182L61.6817 5.38637L59.5681 4.04546L59.659 6.54546H58.5681ZM66.5681 6.54546L66.659 4.04546L64.5453 5.38637L63.9999 4.43182L66.2272 3.27273L63.9999 2.11364L64.5453 1.15909L66.659 2.5L66.5681 3.8147e-06H67.659L67.5681 2.5L69.6817 1.15909L70.2272 2.11364L67.9999 3.27273L70.2272 4.43182L69.6817 5.38637L67.5681 4.04546L67.659 6.54546H66.5681ZM74.5681 6.54546L74.659 4.04546L72.5453 5.38637L71.9999 4.43182L74.2272 3.27273L71.9999 2.11364L72.5453 1.15909L74.659 2.5L74.5681 3.8147e-06H75.659L75.5681 2.5L77.6817 1.15909L78.2272 2.11364L75.9999 3.27273L78.2272 4.43182L77.6817 5.38637L75.5681 4.04546L75.659 6.54546H74.5681ZM82.5681 6.54546L82.659 4.04546L80.5453 5.38637L79.9999 4.43182L82.2272 3.27273L79.9999 2.11364L80.5453 1.15909L82.659 2.5L82.5681 3.8147e-06H83.659L83.5681 2.5L85.6817 1.15909L86.2272 2.11364L83.9999 3.27273L86.2272 4.43182L85.6817 5.38637L83.5681 4.04546L83.659 6.54546H82.5681ZM90.5681 6.54546L90.659 4.04546L88.5453 5.38637L87.9999 4.43182L90.2272 3.27273L87.9999 2.11364L88.5453 1.15909L90.659 2.5L90.5681 3.8147e-06H91.659L91.5681 2.5L93.6817 1.15909L94.2272 2.11364L91.9999 3.27273L94.2272 4.43182L93.6817 5.38637L91.5681 4.04546L91.659 6.54546H90.5681ZM98.5681 6.54546L98.659 4.04546L96.5453 5.38637L95.9999 4.43182L98.2272 3.27273L95.9999 2.11364L96.5453 1.15909L98.659 2.5L98.5681 3.8147e-06H99.659L99.5681 2.5L101.682 1.15909L102.227 2.11364L99.9999 3.27273L102.227 4.43182L101.682 5.38637L99.5681 4.04546L99.659 6.54546H98.5681ZM106.568 6.54546L106.659 4.04546L104.545 5.38637L104 4.43182L106.227 3.27273L104 2.11364L104.545 1.15909L106.659 2.5L106.568 3.8147e-06H107.659L107.568 2.5L109.682 1.15909L110.227 2.11364L108 3.27273L110.227 4.43182L109.682 5.38637L107.568 4.04546L107.659 6.54546H106.568ZM114.568 6.54546L114.659 4.04546L112.545 5.38637L112 4.43182L114.227 3.27273L112 2.11364L112.545 1.15909L114.659 2.5L114.568 3.8147e-06H115.659L115.568 2.5L117.682 1.15909L118.227 2.11364L116 3.27273L118.227 4.43182L117.682 5.38637L115.568 4.04546L115.659 6.54546H114.568Z" fill="#919191"/>
</svg>
