<svg width="49" height="13" viewBox="0 0 49 13" fill="none" xmlns="http://www.w3.org/2000/svg">
<path d="M7.2927 3.25994C7.22026 2.6482 6.92646 2.1733 6.41131 1.83523C5.89616 1.49716 5.26429 1.32813 4.51571 1.32813C3.96837 1.32813 3.48944 1.41667 3.07892 1.59375C2.67244 1.77083 2.35449 2.01432 2.12509 2.32422C1.89971 2.63411 1.78702 2.98627 1.78702 3.38068C1.78702 3.7107 1.8655 3.99444 2.02246 4.23189C2.18345 4.46532 2.3887 4.66051 2.63823 4.81747C2.88775 4.97041 3.14935 5.09718 3.42303 5.1978C3.6967 5.29439 3.94824 5.37287 4.17765 5.43324L5.43333 5.77131C5.7553 5.85582 6.11349 5.97254 6.5079 6.12145C6.90634 6.27036 7.28667 6.4736 7.64888 6.73118C8.01512 6.98473 8.31697 7.31072 8.55442 7.70916C8.79187 8.1076 8.9106 8.59659 8.9106 9.17614C8.9106 9.84422 8.73553 10.4479 8.38539 10.9872C8.03927 11.5265 7.53217 11.9551 6.86408 12.2731C6.20002 12.591 5.39308 12.75 4.44327 12.75C3.55785 12.75 2.79116 12.6071 2.1432 12.3214C1.49926 12.0356 0.992158 11.6372 0.621893 11.1261C0.255652 10.6149 0.0483843 10.0213 8.88072e-05 9.34517H1.54554C1.58579 9.81203 1.74275 10.1984 2.01642 10.5043C2.29412 10.8061 2.64427 11.0315 3.06685 11.1804C3.49346 11.3253 3.95227 11.3977 4.44327 11.3977C5.01477 11.3977 5.52791 11.3052 5.98269 11.12C6.43747 10.9309 6.79767 10.6693 7.0633 10.3352C7.32892 9.99716 7.46174 9.60275 7.46174 9.15199C7.46174 8.74148 7.34704 8.40743 7.11763 8.14986C6.88823 7.89228 6.58638 7.683 6.21209 7.52202C5.8378 7.36103 5.43333 7.22017 4.99867 7.09943L3.47736 6.66477C2.51145 6.38707 1.74677 5.99065 1.18333 5.4755C0.61988 4.96035 0.338157 4.28622 0.338157 3.45313C0.338157 2.76089 0.525302 2.1572 0.899592 1.64205C1.27791 1.12287 1.78501 0.720407 2.4209 0.434659C3.06081 0.144886 3.77518 5.96046e-08 4.56401 5.96046e-08C5.36088 5.96046e-08 6.06922 0.142874 6.68901 0.428622C7.3088 0.710345 7.79981 1.09671 8.16202 1.58771C8.52826 2.07872 8.72144 2.63613 8.74157 3.25994H7.2927ZM15.0668 12.7259C14.1733 12.7259 13.4026 12.5286 12.7546 12.1342C12.1107 11.7358 11.6136 11.1804 11.2635 10.468C10.9174 9.75166 10.7443 8.91856 10.7443 7.96875C10.7443 7.01894 10.9174 6.18182 11.2635 5.45739C11.6136 4.72893 12.1006 4.16146 12.7244 3.75497C13.3523 3.34446 14.0848 3.13921 14.9219 3.13921C15.4048 3.13921 15.8817 3.2197 16.3526 3.38068C16.8235 3.54167 17.2521 3.80327 17.6385 4.16548C18.0249 4.52367 18.3327 4.99858 18.5621 5.5902C18.7915 6.18182 18.9062 6.91027 18.9062 7.77557V8.37926H11.7585V7.14773H17.4574C17.4574 6.62453 17.3527 6.15767 17.1435 5.74716C16.9382 5.33665 16.6444 5.01267 16.2621 4.77521C15.8838 4.53776 15.437 4.41903 14.9219 4.41903C14.3544 4.41903 13.8634 4.5599 13.4489 4.84162C13.0384 5.11932 12.7224 5.48153 12.5011 5.92827C12.2797 6.375 12.169 6.85393 12.169 7.36506V8.18608C12.169 8.88636 12.2898 9.48 12.5312 9.96697C12.7768 10.4499 13.1168 10.8182 13.5515 11.0717C13.9862 11.3213 14.4912 11.446 15.0668 11.446C15.4411 11.446 15.7791 11.3937 16.081 11.2891C16.3868 11.1804 16.6505 11.0194 16.8718 10.8061C17.0932 10.5888 17.2642 10.3191 17.3849 9.99716L18.7614 10.3835C18.6165 10.8504 18.373 11.2609 18.0309 11.6151C17.6888 11.9652 17.2662 12.2389 16.7631 12.4361C16.2601 12.6293 15.6946 12.7259 15.0668 12.7259ZM22.4982 6.95455V12.5327H21.0735V3.25994H22.4499V4.70881H22.5707C22.788 4.23793 23.118 3.85961 23.5607 3.57386C24.0034 3.28409 24.5749 3.13921 25.2752 3.13921C25.9031 3.13921 26.4524 3.26799 26.9233 3.52557C27.3942 3.77912 27.7604 4.16548 28.022 4.68466C28.2836 5.19981 28.4144 5.8518 28.4144 6.64063V12.5327H26.9897V6.73722C26.9897 6.00876 26.8005 5.44129 26.4222 5.0348C26.0439 4.62429 25.5247 4.41903 24.8647 4.41903C24.4099 4.41903 24.0034 4.51764 23.6452 4.71484C23.2911 4.91205 23.0114 5.19981 22.8061 5.57813C22.6009 5.95644 22.4982 6.41525 22.4982 6.95455ZM32.4426 6.95455V12.5327H31.0178V0.169034H32.4426V4.70881H32.5633C32.7806 4.22988 33.1066 3.84955 33.5413 3.56783C33.98 3.28208 34.5635 3.13921 35.292 3.13921C35.9239 3.13921 36.4772 3.26598 36.9521 3.51953C37.4271 3.76906 37.7953 4.15341 38.0569 4.67259C38.3225 5.18774 38.4553 5.84375 38.4553 6.64063V12.5327H37.0306V6.73722C37.0306 6.00071 36.8395 5.43123 36.4571 5.02876C36.0788 4.62228 35.5536 4.41903 34.8815 4.41903C34.4146 4.41903 33.9961 4.51764 33.6258 4.71484C33.2596 4.91205 32.9698 5.19981 32.7565 5.57813C32.5472 5.95644 32.4426 6.41525 32.4426 6.95455ZM43.7905 12.75C43.2029 12.75 42.6696 12.6393 42.1907 12.418C41.7118 12.1926 41.3314 11.8686 41.0497 11.446C40.768 11.0194 40.6271 10.5043 40.6271 9.90057C40.6271 9.36932 40.7318 8.93868 40.9411 8.60867C41.1503 8.27462 41.43 8.01302 41.7802 7.82386C42.1303 7.63471 42.5167 7.49384 42.9393 7.40128C43.3659 7.30469 43.7945 7.22822 44.2251 7.17188C44.7886 7.09943 45.2454 7.0451 45.5955 7.00888C45.9497 6.96863 46.2073 6.90223 46.3683 6.80966C46.5333 6.71709 46.6158 6.55611 46.6158 6.3267V6.27841C46.6158 5.68277 46.4528 5.21993 46.1268 4.88992C45.8048 4.5599 45.3158 4.39489 44.6598 4.39489C43.9796 4.39489 43.4464 4.5438 43.06 4.84162C42.6737 5.13944 42.402 5.45739 42.245 5.79545L40.8928 5.3125C41.1342 4.74905 41.4562 4.31037 41.8587 3.99645C42.2652 3.6785 42.7079 3.45715 43.1868 3.33239C43.6697 3.2036 44.1446 3.13921 44.6115 3.13921C44.9093 3.13921 45.2514 3.17543 45.6378 3.24787C46.0282 3.31629 46.4045 3.45916 46.7667 3.67649C47.1329 3.89382 47.4368 4.22183 47.6783 4.66051C47.9197 5.0992 48.0405 5.68679 48.0405 6.4233V12.5327H46.6158V11.277H46.5433C46.4467 11.4782 46.2857 11.6935 46.0604 11.9229C45.835 12.1523 45.5352 12.3475 45.1609 12.5085C44.7866 12.6695 44.3298 12.75 43.7905 12.75ZM44.0078 11.4702C44.5713 11.4702 45.0462 11.3595 45.4325 11.1381C45.8229 10.9168 46.1167 10.631 46.3139 10.2809C46.5152 9.93075 46.6158 9.5625 46.6158 9.17614V7.87216C46.5554 7.9446 46.4226 8.01101 46.2173 8.07138C46.0161 8.12772 45.7827 8.17803 45.517 8.2223C45.2554 8.26255 44.9999 8.29877 44.7504 8.33097C44.5049 8.35914 44.3056 8.38329 44.1527 8.40341C43.7824 8.4517 43.4363 8.53019 43.1143 8.63885C42.7964 8.74349 42.5388 8.90246 42.3416 9.11577C42.1484 9.32505 42.0518 9.6108 42.0518 9.97301C42.0518 10.468 42.235 10.8423 42.6012 11.0959C42.9715 11.3454 43.4403 11.4702 44.0078 11.4702Z" fill="white"/>
</svg>
