<svg width="32" height="12" viewBox="0 0 32 12" fill="none" xmlns="http://www.w3.org/2000/svg">
<path d="M10.3199 8.76801C10.3199 8.83201 10.3146 8.89601 10.3039 8.96001C10.2932 9.02401 10.2719 9.08268 10.2399 9.13601C10.1012 9.46668 9.88258 9.79201 9.58391 10.112C9.29591 10.4213 8.99724 10.6773 8.68791 10.88C8.20791 11.2 7.69591 11.424 7.15191 11.552C6.61858 11.68 6.06924 11.744 5.50391 11.744C4.36258 11.744 3.37591 11.504 2.54391 11.024C1.72257 10.5333 1.09324 9.85601 0.655908 8.99201C0.218575 8.12801 -9.17315e-05 7.13601 -9.17315e-05 6.01601C-9.17315e-05 5.18401 0.122575 4.40534 0.367908 3.68001C0.613242 2.95468 0.970575 2.32001 1.43991 1.77601C1.90924 1.22134 2.48524 0.789342 3.16791 0.480009C3.85057 0.160009 4.62924 9.53674e-06 5.50391 9.53674e-06C5.93058 9.53674e-06 6.33591 0.0693426 6.71991 0.208009C7.11458 0.336009 7.50924 0.469343 7.90391 0.608009C8.12791 0.682676 8.35724 0.741342 8.59191 0.784009C8.83724 0.826676 9.07724 0.858676 9.31191 0.88001C9.32258 1.11468 9.33858 1.34934 9.35991 1.58401C9.38124 1.80801 9.40791 2.03734 9.43991 2.27201C9.47191 2.48534 9.50924 2.70401 9.55191 2.92801C9.60524 3.14134 9.63191 3.36001 9.63191 3.58401C9.63191 3.75468 9.59458 3.89334 9.51991 4.00001C9.45591 4.10668 9.32791 4.16001 9.13591 4.16001C9.02924 4.16001 8.94924 4.10134 8.89591 3.98401C8.85324 3.87734 8.81591 3.76534 8.78391 3.64801C8.76258 3.52001 8.73591 3.40268 8.70391 3.29601C8.61858 2.94401 8.47458 2.57601 8.27191 2.19201C8.06924 1.79734 7.82391 1.48268 7.53591 1.24801C7.40791 1.13068 7.21591 1.01334 6.95991 0.896009C6.71458 0.778676 6.45858 0.682676 6.19191 0.608009C5.93591 0.533342 5.71724 0.496009 5.53591 0.496009C5.21591 0.496009 4.89058 0.554676 4.55991 0.672009C4.22924 0.789343 3.93591 0.944009 3.67991 1.13601C3.19991 1.50934 2.81591 1.96268 2.52791 2.49601C2.23991 3.01868 2.03191 3.57868 1.90391 4.17601C1.78657 4.77334 1.72791 5.36534 1.72791 5.95201C1.72791 6.59201 1.80258 7.22134 1.95191 7.84001C2.10124 8.44801 2.33591 8.99734 2.65591 9.48801C2.97591 9.97868 3.39191 10.3733 3.90391 10.672C4.41591 10.96 5.03991 11.104 5.77591 11.104C6.08524 11.104 6.43191 11.0613 6.81591 10.976C7.19991 10.88 7.53058 10.7733 7.80791 10.656C8.13858 10.5173 8.44258 10.3413 8.71991 10.128C8.99724 9.90401 9.24791 9.65334 9.47191 9.37601C9.49324 9.35468 9.53591 9.29068 9.59991 9.18401C9.67458 9.07734 9.74924 8.97068 9.82391 8.86401C9.89858 8.75734 9.94658 8.69334 9.96791 8.67201C10.0212 8.60801 10.0799 8.57601 10.1439 8.57601C10.2612 8.57601 10.3199 8.64001 10.3199 8.76801ZM20.9217 9.02401C20.9217 9.21601 20.9057 9.41334 20.8737 9.61601C20.8417 9.80801 20.815 10 20.7937 10.192C20.7617 10.4053 20.7403 10.624 20.7297 10.848C20.719 11.0613 20.687 11.2747 20.6337 11.488C20.623 11.552 20.591 11.616 20.5377 11.68C20.495 11.7333 20.4363 11.76 20.3617 11.76C19.2203 11.76 18.079 11.7547 16.9377 11.744C15.7963 11.7227 14.655 11.712 13.5137 11.712C13.1723 11.712 12.8257 11.728 12.4737 11.76C12.1323 11.7813 11.791 11.792 11.4497 11.792C11.3963 11.792 11.343 11.776 11.2897 11.744C11.247 11.7013 11.2257 11.6533 11.2257 11.6C11.2257 11.536 11.2417 11.4773 11.2737 11.424C11.3057 11.36 11.359 11.328 11.4337 11.328C11.6577 11.328 11.871 11.3173 12.0737 11.296C12.2763 11.264 12.4417 11.1893 12.5697 11.072C12.7083 10.944 12.7777 10.7413 12.7777 10.464V1.28001C12.7777 1.03468 12.703 0.874676 12.5537 0.800009C12.4043 0.714676 12.223 0.672009 12.0097 0.672009C11.903 0.672009 11.8017 0.677343 11.7057 0.688009C11.6097 0.688009 11.5137 0.688009 11.4177 0.688009C11.3323 0.688009 11.2577 0.666676 11.1937 0.624009C11.1297 0.581342 11.0977 0.512009 11.0977 0.416009C11.0977 0.330676 11.1137 0.256009 11.1457 0.192009C11.1777 0.128009 11.247 0.0960093 11.3537 0.0960093C11.535 0.0960093 11.711 0.101343 11.8817 0.112009C12.063 0.122676 12.239 0.128009 12.4097 0.128009C13.487 0.128009 14.5643 0.122676 15.6417 0.112009C16.719 0.090676 17.791 0.0800095 18.8577 0.0800095C19.3483 0.0800095 19.8337 0.0640093 20.3137 0.0320091C20.3563 0.341342 20.4097 0.650676 20.4737 0.96001C20.5377 1.26934 20.591 1.57868 20.6337 1.88801C20.655 1.95201 20.671 2.01601 20.6817 2.08001C20.6923 2.13334 20.6977 2.19201 20.6977 2.25601C20.6977 2.36268 20.6603 2.43734 20.5857 2.48001C20.5217 2.52268 20.4417 2.54401 20.3457 2.54401C20.2603 2.54401 20.1963 2.52801 20.1537 2.49601C20.1217 2.45334 20.0897 2.38934 20.0577 2.30401C19.855 1.66401 19.583 1.22134 19.2417 0.976009C18.911 0.730676 18.4043 0.608009 17.7217 0.608009H14.3937V5.42401C14.8097 5.42401 15.2257 5.42401 15.6417 5.42401C16.0577 5.41334 16.479 5.39734 16.9057 5.37601C17.343 5.35468 17.7483 5.31734 18.1217 5.26401C18.5057 5.20001 18.911 5.13068 19.3377 5.05601H19.3537C19.4177 5.05601 19.4497 5.08268 19.4497 5.13601C19.4497 5.21068 19.4177 5.34401 19.3537 5.53601C19.2897 5.72801 19.2417 5.85601 19.2097 5.92001C19.1563 6.04801 19.071 6.11201 18.9537 6.11201C18.687 6.11201 18.4097 6.09601 18.1217 6.06401C17.8443 6.02134 17.567 6.00001 17.2897 6.00001C17.0977 5.98934 16.9057 5.98934 16.7137 6.00001C16.5217 6.00001 16.3243 6.00001 16.1217 6.00001C16.047 6.00001 15.967 6.00001 15.8817 6.00001C15.807 5.98934 15.727 5.98401 15.6417 5.98401C15.4817 5.98401 15.3057 6.00001 15.1137 6.03201C14.9217 6.05334 14.751 6.11734 14.6017 6.22401C14.463 6.32001 14.3937 6.48001 14.3937 6.70401V10.544C14.3937 10.9067 14.4843 11.12 14.6657 11.184C14.847 11.2373 15.087 11.264 15.3857 11.264H16.6657C16.9643 11.264 17.295 11.248 17.6577 11.216C18.031 11.184 18.3937 11.1147 18.7457 11.008C19.0977 10.9013 19.3857 10.7467 19.6097 10.544C19.855 10.32 20.0257 10.0747 20.1217 9.80801C20.2283 9.53068 20.351 9.25334 20.4897 8.97601C20.543 8.88001 20.6283 8.83201 20.7457 8.83201C20.863 8.83201 20.9217 8.89601 20.9217 9.02401ZM29.5269 2.92801C29.5269 2.07468 29.2602 1.45601 28.7269 1.07201C28.2042 0.677342 27.5482 0.480009 26.7589 0.480009C26.5456 0.480009 26.3269 0.485342 26.1029 0.496009C25.8789 0.496009 25.6549 0.496009 25.4309 0.496009C25.3242 0.496009 25.2176 0.528009 25.1109 0.59201C25.0042 0.656009 24.9509 0.746676 24.9509 0.864009V5.40801C25.1856 5.57868 25.4736 5.68001 25.8149 5.71201C26.1562 5.74401 26.4602 5.76001 26.7269 5.76001C27.6442 5.76001 28.3376 5.51468 28.8069 5.02401C29.2869 4.53334 29.5269 3.83468 29.5269 2.92801ZM31.2869 2.88001C31.2869 3.57334 31.1536 4.13868 30.8869 4.57601C30.6309 5.01334 30.2842 5.35468 29.8469 5.60001C29.4096 5.84534 28.9136 6.01601 28.3589 6.11201C27.8149 6.19734 27.2549 6.24001 26.6789 6.24001C26.3909 6.24001 26.1029 6.22401 25.8149 6.19201C25.5269 6.16001 25.2442 6.12268 24.9669 6.08001V10.864C24.9669 11.024 25.0362 11.1307 25.1749 11.184C25.3136 11.2373 25.4682 11.264 25.6389 11.264C25.8096 11.264 25.9482 11.264 26.0549 11.264C26.1189 11.264 26.1829 11.264 26.2469 11.264C26.3216 11.2533 26.3909 11.248 26.4549 11.248C26.5509 11.248 26.5989 11.2907 26.5989 11.376C26.5989 11.5147 26.5882 11.6107 26.5669 11.664C26.5456 11.7067 26.4602 11.728 26.3109 11.728C25.9482 11.728 25.5909 11.7173 25.2389 11.696C24.8869 11.6747 24.5349 11.664 24.1829 11.664C23.8202 11.664 23.4522 11.68 23.0789 11.712C22.7162 11.7333 22.3536 11.744 21.9909 11.744C21.8842 11.744 21.8309 11.6747 21.8309 11.536C21.8309 11.472 21.8416 11.4133 21.8629 11.36C21.8842 11.3067 21.9376 11.28 22.0229 11.28C22.1509 11.28 22.2789 11.2853 22.4069 11.296C22.5349 11.296 22.6629 11.296 22.7909 11.296C22.9189 11.296 23.0309 11.264 23.1269 11.2C23.2336 11.136 23.2922 11.0347 23.3029 10.896C23.3242 10.704 23.3296 10.512 23.3189 10.32C23.3189 10.1173 23.3189 9.92001 23.3189 9.72801C23.3189 9.34401 23.3189 8.96001 23.3189 8.57601C23.3189 8.18134 23.3189 7.79201 23.3189 7.40801V4.60801C23.3189 3.97868 23.3136 3.35468 23.3029 2.73601C23.3029 2.10668 23.3029 1.48268 23.3029 0.864009C23.3029 0.672009 23.2069 0.560009 23.0149 0.528009C22.8336 0.485343 22.6736 0.464009 22.5349 0.464009C22.4389 0.464009 22.3429 0.469343 22.2469 0.480009C22.1509 0.480009 22.0602 0.480009 21.9749 0.480009C21.9002 0.480009 21.8576 0.448009 21.8469 0.384009C21.8469 0.309342 21.8469 0.250676 21.8469 0.208009C21.8469 0.165343 21.8576 0.128009 21.8789 0.0960093C21.9002 0.0533425 21.9322 0.0320091 21.9749 0.0320091C22.3269 0.0320091 22.6789 0.042676 23.0309 0.0640097C23.3829 0.0853427 23.7402 0.0960093 24.1029 0.0960093C24.6576 0.0960093 25.2122 0.0853427 25.7669 0.0640097C26.3216 0.042676 26.8762 0.0320091 27.4309 0.0320091C27.8789 0.0320091 28.3269 0.0800091 28.7749 0.176009C29.2336 0.272009 29.6496 0.432009 30.0229 0.65601C30.4069 0.880009 30.7109 1.17334 30.9349 1.53601C31.1696 1.89868 31.2869 2.34668 31.2869 2.88001Z" fill="white"/>
</svg>
