<svg width="113" height="14" viewBox="0 0 113 14" fill="none" xmlns="http://www.w3.org/2000/svg">
<path d="M8.88999 5.47404C8.88999 5.08204 8.84799 4.67137 8.76399 4.24204C8.68933 3.80337 8.56799 3.38337 8.39999 2.98204C8.23199 2.5807 8.00799 2.24004 7.72799 1.96004C7.46666 1.6987 7.15866 1.47937 6.80399 1.30204C6.45866 1.11537 6.09933 1.00337 5.72599 0.966037C5.61399 0.94737 5.49733 0.938036 5.37599 0.938036C5.26399 0.938036 5.15199 0.938036 5.03999 0.938036C4.67599 0.938036 4.31199 0.942703 3.94799 0.952036C3.59333 0.96137 3.23399 0.970704 2.86999 0.980037V9.59004C2.86999 9.87004 2.96333 10.052 3.14999 10.136C3.33666 10.22 3.54666 10.262 3.77999 10.262C4.15333 10.262 4.53599 10.248 4.92799 10.22C5.32933 10.192 5.71666 10.1267 6.08999 10.024C6.47266 9.91204 6.82266 9.73937 7.13999 9.50604C7.78399 9.03004 8.23666 8.4327 8.49799 7.71404C8.75933 6.98604 8.88999 6.23937 8.88999 5.47404ZM10.444 5.26404C10.444 6.18804 10.248 7.06537 9.85599 7.89604C9.47333 8.7267 8.88066 9.38937 8.07799 9.88404C7.75133 10.08 7.37333 10.2434 6.94399 10.374C6.52399 10.4954 6.09466 10.584 5.65599 10.64C5.21733 10.696 4.80666 10.724 4.42399 10.724C4.08799 10.724 3.74733 10.7147 3.40199 10.696C3.06599 10.6774 2.72533 10.668 2.37999 10.668C2.10933 10.668 1.83399 10.6727 1.55399 10.682C1.27399 10.682 0.998661 10.6914 0.727994 10.71C0.681328 10.7194 0.634661 10.724 0.587994 10.724C0.541327 10.724 0.494661 10.724 0.447994 10.724C0.391994 10.724 0.359328 10.7007 0.349994 10.654C0.340661 10.6074 0.335994 10.5654 0.335994 10.528C0.335994 10.4627 0.382661 10.416 0.475994 10.388C0.578661 10.36 0.685994 10.3367 0.797994 10.318C0.919328 10.2994 1.00333 10.276 1.04999 10.248C1.20866 10.164 1.31133 10.0427 1.35799 9.88404C1.41399 9.71604 1.44199 9.54804 1.44199 9.38004C1.44199 8.8667 1.44199 8.35804 1.44199 7.85404C1.45133 7.3407 1.45599 6.82737 1.45599 6.31404V5.02604C1.45599 4.5127 1.45599 4.00404 1.45599 3.50004C1.45599 2.99604 1.45599 2.48737 1.45599 1.97404C1.45599 1.61937 1.41399 1.36737 1.32999 1.21804C1.24599 1.0687 1.01266 0.994037 0.629994 0.994037C0.564661 0.994037 0.499328 0.998703 0.433994 1.00804C0.377994 1.00804 0.317327 1.00804 0.251994 1.00804C0.186661 1.00804 0.125994 0.98937 0.0699942 0.952036C0.0233275 0.90537 -5.84498e-06 0.84937 -5.84498e-06 0.784037C-5.84498e-06 0.634703 0.0746608 0.560036 0.223994 0.560036C0.438661 0.560036 0.653328 0.56937 0.867994 0.588037C1.08266 0.59737 1.29266 0.602037 1.49799 0.602037C2.18866 0.602037 2.87933 0.58337 3.56999 0.546036C4.26999 0.49937 4.96533 0.476037 5.65599 0.476037C6.65466 0.476037 7.50866 0.66737 8.21799 1.05004C8.93666 1.4327 9.48733 1.98337 9.86999 2.70204C10.2527 3.41137 10.444 4.26537 10.444 5.26404ZM15.53 10.528C15.53 10.5747 15.516 10.6214 15.488 10.668C15.46 10.7054 15.4227 10.724 15.376 10.724C15.1147 10.724 14.8534 10.7194 14.592 10.71C14.34 10.6914 14.0787 10.682 13.808 10.682H13.43C13.15 10.682 12.87 10.6914 12.59 10.71C12.3194 10.7194 12.0487 10.724 11.778 10.724C11.7407 10.724 11.7127 10.7007 11.694 10.654C11.6847 10.6074 11.68 10.57 11.68 10.542C11.68 10.4954 11.6847 10.4627 11.694 10.444C11.7034 10.416 11.7314 10.3974 11.778 10.388C11.8247 10.3694 11.876 10.3647 11.932 10.374C11.9974 10.374 12.058 10.374 12.114 10.374C12.1794 10.374 12.24 10.3787 12.296 10.388C12.352 10.388 12.4127 10.388 12.478 10.388C12.6087 10.388 12.7254 10.36 12.828 10.304C12.94 10.2387 12.996 10.1314 12.996 9.98204V4.38204C12.996 4.22337 12.968 4.10204 12.912 4.01804C12.856 3.9247 12.7394 3.87804 12.562 3.87804C12.4314 3.87804 12.296 3.88737 12.156 3.90604C12.0254 3.91537 11.8947 3.92937 11.764 3.94804C11.6894 3.94804 11.652 3.90604 11.652 3.82204C11.652 3.7287 11.6894 3.66804 11.764 3.64004C11.876 3.6027 11.9927 3.57937 12.114 3.57004C12.2447 3.55137 12.366 3.5327 12.478 3.51404C12.7394 3.46737 13.0007 3.41604 13.262 3.36004C13.5234 3.30404 13.78 3.24337 14.032 3.17804C14.06 3.1687 14.0974 3.16404 14.144 3.16404C14.2467 3.16404 14.298 3.22004 14.298 3.33204C14.298 4.43337 14.2934 5.53937 14.284 6.65004C14.284 7.7607 14.284 8.87137 14.284 9.98204C14.284 10.1314 14.3494 10.2387 14.48 10.304C14.62 10.36 14.7507 10.388 14.872 10.388C14.9654 10.388 15.0587 10.3834 15.152 10.374C15.2547 10.3647 15.3527 10.36 15.446 10.36C15.4834 10.36 15.5067 10.3834 15.516 10.43C15.5254 10.4767 15.53 10.5094 15.53 10.528ZM14.396 0.840037C14.396 1.07337 14.312 1.27404 14.144 1.44204C13.976 1.6007 13.7754 1.68004 13.542 1.68004C13.3087 1.68004 13.108 1.6007 12.94 1.44204C12.772 1.27404 12.688 1.07337 12.688 0.840037C12.688 0.606703 12.772 0.410703 12.94 0.252037C13.108 0.0840369 13.3087 3.68357e-05 13.542 3.68357e-05C13.7754 3.68357e-05 13.976 0.0840369 14.144 0.252037C14.312 0.410703 14.396 0.606703 14.396 0.840037ZM21.6865 11.186C21.6865 10.8127 21.5792 10.5467 21.3645 10.388C21.1592 10.22 20.9072 10.1127 20.6085 10.066C20.3099 10.01 20.0205 9.96804 19.7405 9.94004L18.1725 9.78604C17.9672 10.01 17.8132 10.234 17.7105 10.458C17.6172 10.6727 17.5705 10.934 17.5705 11.242C17.5705 11.69 17.6779 12.012 17.8925 12.208C18.1165 12.4134 18.3965 12.544 18.7325 12.6C19.0685 12.656 19.4092 12.684 19.7545 12.684C20.0905 12.684 20.4032 12.6374 20.6925 12.544C20.9912 12.4507 21.2292 12.292 21.4065 12.068C21.5932 11.8534 21.6865 11.5594 21.6865 11.186ZM21.0005 5.58604C21.0005 5.2967 20.9679 4.9887 20.9025 4.66204C20.8372 4.33537 20.7065 4.05537 20.5105 3.82204C20.3239 3.5887 20.0485 3.47204 19.6845 3.47204C19.2739 3.47204 18.9565 3.57937 18.7325 3.79404C18.5085 3.99937 18.3545 4.26537 18.2705 4.59204C18.1959 4.90937 18.1585 5.2407 18.1585 5.58604C18.1585 5.95004 18.1912 6.29537 18.2565 6.62204C18.3312 6.93937 18.4759 7.2007 18.6905 7.40604C18.9145 7.61137 19.2459 7.71404 19.6845 7.71404C19.9552 7.71404 20.1745 7.64404 20.3425 7.50404C20.5199 7.36404 20.6552 7.1867 20.7485 6.97204C20.8419 6.74804 20.9072 6.5147 20.9445 6.27204C20.9819 6.02937 21.0005 5.8007 21.0005 5.58604ZM23.4925 3.29004C23.4925 3.48604 23.4505 3.62137 23.3665 3.69604C23.2919 3.76137 23.1892 3.7987 23.0585 3.80804C22.9372 3.80804 22.8065 3.80804 22.6665 3.80804C22.4612 3.80804 22.2512 3.80804 22.0365 3.80804C21.8312 3.7987 21.6212 3.78937 21.4065 3.78004C21.7052 4.01337 21.9245 4.29337 22.0645 4.62004C22.2139 4.9467 22.2885 5.2967 22.2885 5.67004C22.2885 6.12737 22.1579 6.53337 21.8965 6.88804C21.6445 7.23337 21.3179 7.50404 20.9165 7.70004C20.5152 7.89604 20.0999 7.99404 19.6705 7.99404C19.5212 7.99404 19.3765 7.98937 19.2365 7.98004C19.0965 7.96137 18.9519 7.94737 18.8025 7.93804C18.6812 8.05004 18.5412 8.17137 18.3825 8.30204C18.2332 8.4327 18.1585 8.59137 18.1585 8.77804C18.1585 8.92737 18.2285 9.03937 18.3685 9.11404C18.5179 9.17937 18.6812 9.22604 18.8585 9.25404C19.0359 9.28204 19.1759 9.3007 19.2785 9.31004L21.0565 9.43604C21.3739 9.46404 21.6819 9.53404 21.9805 9.64604C22.2885 9.7487 22.5452 9.91204 22.7505 10.136C22.9559 10.3507 23.0585 10.6447 23.0585 11.018C23.0585 11.41 22.9419 11.7367 22.7085 11.998C22.4845 12.2594 22.1905 12.4694 21.8265 12.628C21.4719 12.7867 21.1032 12.8987 20.7205 12.964C20.3379 13.0294 19.9925 13.062 19.6845 13.062C19.4419 13.062 19.1385 13.048 18.7745 13.02C18.4105 13.0014 18.0512 12.9454 17.6965 12.852C17.3419 12.7587 17.0432 12.6094 16.8005 12.404C16.5672 12.208 16.4505 11.9374 16.4505 11.592C16.4505 11.34 16.5112 11.102 16.6325 10.878C16.7539 10.6634 16.9032 10.4627 17.0805 10.276C17.2672 10.0894 17.4492 9.92604 17.6265 9.78604C17.5239 9.73937 17.3839 9.66937 17.2065 9.57604C17.0385 9.47337 16.9545 9.3567 16.9545 9.22604C16.9545 9.06737 17.0385 8.89004 17.2065 8.69404C17.3839 8.49804 17.5752 8.31137 17.7805 8.13404C17.9859 7.94737 18.1445 7.8027 18.2565 7.70004C17.7805 7.47604 17.4259 7.19137 17.1925 6.84604C16.9685 6.49137 16.8565 6.0527 16.8565 5.53004C16.8565 5.0447 16.9919 4.62937 17.2625 4.28404C17.5425 3.92937 17.8925 3.6587 18.3125 3.47204C18.7419 3.27604 19.1759 3.17804 19.6145 3.17804C19.7732 3.17804 19.9319 3.19204 20.0905 3.22004C20.2492 3.2387 20.4032 3.27137 20.5525 3.31804C20.6272 3.3367 20.7065 3.3647 20.7905 3.40204C20.8839 3.43004 20.9679 3.4487 21.0425 3.45804C21.1079 3.46737 21.1685 3.47204 21.2245 3.47204C21.2899 3.47204 21.3552 3.47204 21.4205 3.47204C21.7565 3.47204 22.0785 3.4487 22.3865 3.40204C22.6945 3.34604 22.9699 3.18737 23.2125 2.92604C23.2685 2.87004 23.3152 2.84204 23.3525 2.84204C23.4272 2.84204 23.4692 2.90737 23.4785 3.03804C23.4879 3.15937 23.4925 3.24337 23.4925 3.29004ZM28.0672 10.528C28.0672 10.5747 28.0532 10.6214 28.0252 10.668C27.9972 10.7054 27.9598 10.724 27.9132 10.724C27.6518 10.724 27.3905 10.7194 27.1292 10.71C26.8772 10.6914 26.6158 10.682 26.3452 10.682H25.9672C25.6872 10.682 25.4072 10.6914 25.1272 10.71C24.8565 10.7194 24.5858 10.724 24.3152 10.724C24.2778 10.724 24.2498 10.7007 24.2312 10.654C24.2218 10.6074 24.2172 10.57 24.2172 10.542C24.2172 10.4954 24.2218 10.4627 24.2312 10.444C24.2405 10.416 24.2685 10.3974 24.3152 10.388C24.3618 10.3694 24.4132 10.3647 24.4692 10.374C24.5345 10.374 24.5952 10.374 24.6512 10.374C24.7165 10.374 24.7772 10.3787 24.8332 10.388C24.8892 10.388 24.9498 10.388 25.0152 10.388C25.1458 10.388 25.2625 10.36 25.3652 10.304C25.4772 10.2387 25.5332 10.1314 25.5332 9.98204V4.38204C25.5332 4.22337 25.5052 4.10204 25.4492 4.01804C25.3932 3.9247 25.2765 3.87804 25.0992 3.87804C24.9685 3.87804 24.8332 3.88737 24.6932 3.90604C24.5625 3.91537 24.4318 3.92937 24.3012 3.94804C24.2265 3.94804 24.1892 3.90604 24.1892 3.82204C24.1892 3.7287 24.2265 3.66804 24.3012 3.64004C24.4132 3.6027 24.5298 3.57937 24.6512 3.57004C24.7818 3.55137 24.9032 3.5327 25.0152 3.51404C25.2765 3.46737 25.5378 3.41604 25.7992 3.36004C26.0605 3.30404 26.3172 3.24337 26.5692 3.17804C26.5972 3.1687 26.6345 3.16404 26.6812 3.16404C26.7838 3.16404 26.8352 3.22004 26.8352 3.33204C26.8352 4.43337 26.8305 5.53937 26.8212 6.65004C26.8212 7.7607 26.8212 8.87137 26.8212 9.98204C26.8212 10.1314 26.8865 10.2387 27.0172 10.304C27.1572 10.36 27.2878 10.388 27.4092 10.388C27.5025 10.388 27.5958 10.3834 27.6892 10.374C27.7918 10.3647 27.8898 10.36 27.9832 10.36C28.0205 10.36 28.0438 10.3834 28.0532 10.43C28.0625 10.4767 28.0672 10.5094 28.0672 10.528ZM26.9332 0.840037C26.9332 1.07337 26.8492 1.27404 26.6812 1.44204C26.5132 1.6007 26.3125 1.68004 26.0792 1.68004C25.8458 1.68004 25.6452 1.6007 25.4772 1.44204C25.3092 1.27404 25.2252 1.07337 25.2252 0.840037C25.2252 0.606703 25.3092 0.410703 25.4772 0.252037C25.6452 0.0840369 25.8458 3.68357e-05 26.0792 3.68357e-05C26.3125 3.68357e-05 26.5132 0.0840369 26.6812 0.252037C26.8492 0.410703 26.9332 0.606703 26.9332 0.840037ZM33.5377 10.094C33.5377 10.178 33.4723 10.262 33.3417 10.346C33.2203 10.43 33.071 10.5047 32.8937 10.57C32.7163 10.6354 32.5437 10.6867 32.3757 10.724C32.217 10.7614 32.1003 10.78 32.0257 10.78C31.5403 10.78 31.1623 10.7194 30.8917 10.598C30.6303 10.4767 30.4437 10.276 30.3317 9.99604C30.229 9.71604 30.1777 9.33804 30.1777 8.86204C30.1777 8.08737 30.1777 7.3127 30.1777 6.53804C30.187 5.75404 30.1963 4.9747 30.2057 4.20004H29.1977C29.1323 4.20004 29.0763 4.2187 29.0297 4.25604C28.9923 4.28404 28.9503 4.29804 28.9037 4.29804C28.857 4.29804 28.8337 4.26537 28.8337 4.20004C28.8337 4.1627 28.857 4.08804 28.9037 3.97604C28.9597 3.86404 28.997 3.78937 29.0157 3.75204C29.0437 3.76137 29.0857 3.76604 29.1417 3.76604H30.2337L30.2477 1.98804C30.4623 1.84804 30.6583 1.69404 30.8357 1.52604C31.013 1.3487 31.1903 1.17137 31.3677 0.994037C31.3863 0.97537 31.405 0.96137 31.4237 0.952036C31.4423 0.93337 31.461 0.924037 31.4797 0.924037C31.5637 0.924037 31.6057 0.956703 31.6057 1.02204L31.5217 3.75204C31.8203 3.75204 32.1143 3.74737 32.4037 3.73804C32.7023 3.7287 32.9963 3.72404 33.2857 3.72404C33.407 3.72404 33.4677 3.79404 33.4677 3.93404C33.4677 4.11137 33.3883 4.20004 33.2297 4.20004H31.5217C31.5217 4.90937 31.517 5.62337 31.5077 6.34204C31.5077 7.05137 31.5077 7.76537 31.5077 8.48404V9.56204C31.5077 9.79537 31.6057 9.9587 31.8017 10.052C31.9977 10.136 32.189 10.178 32.3757 10.178C32.637 10.178 32.8937 10.136 33.1457 10.052C33.1737 10.0334 33.2157 10.0147 33.2717 9.99604C33.3277 9.97737 33.3697 9.96804 33.3977 9.96804C33.491 9.96804 33.5377 10.01 33.5377 10.094ZM39.3626 5.82404C39.3533 5.44137 39.3206 5.07737 39.2646 4.73204C39.2086 4.37737 39.0733 4.08804 38.8586 3.86404C38.644 3.6307 38.294 3.51404 37.8086 3.51404C37.37 3.51404 37.0106 3.63537 36.7306 3.87804C36.46 4.11137 36.25 4.41004 36.1006 4.77404C35.9513 5.1287 35.8393 5.4927 35.7646 5.86604C35.998 5.87537 36.2266 5.8847 36.4506 5.89404C36.6746 5.89404 36.8986 5.89404 37.1226 5.89404C37.496 5.89404 37.8693 5.88937 38.2426 5.88004C38.616 5.86137 38.9893 5.8427 39.3626 5.82404ZM40.9726 9.03004C40.9726 9.0767 40.9633 9.1047 40.9446 9.11404C40.9166 9.20737 40.8466 9.31937 40.7346 9.45004C40.632 9.5807 40.5153 9.7067 40.3846 9.82804C40.254 9.94004 40.1466 10.024 40.0626 10.08C39.7546 10.2947 39.4046 10.4674 39.0126 10.598C38.63 10.7287 38.2473 10.794 37.8646 10.794C37.5473 10.794 37.1926 10.7427 36.8006 10.64C36.418 10.5374 36.0913 10.3974 35.8206 10.22C35.298 9.8747 34.9153 9.42204 34.6726 8.86204C34.43 8.30204 34.3086 7.7187 34.3086 7.11204C34.3086 6.42137 34.444 5.78204 34.7146 5.19404C34.9853 4.60604 35.4193 4.13004 36.0166 3.76604C36.2873 3.60737 36.5906 3.4767 36.9266 3.37404C37.2626 3.26204 37.5846 3.20604 37.8926 3.20604C38.4433 3.20604 38.9286 3.31804 39.3486 3.54204C39.7686 3.76604 40.0953 4.08337 40.3286 4.49404C40.5713 4.89537 40.6926 5.37604 40.6926 5.93604C40.6926 6.0947 40.6553 6.19737 40.5806 6.24404C40.5153 6.2907 40.4126 6.31404 40.2726 6.31404C40.086 6.31404 39.8993 6.30937 39.7126 6.30004C39.526 6.2907 39.3393 6.28137 39.1526 6.27204C38.8913 6.25337 38.63 6.24404 38.3686 6.24404C38.1166 6.24404 37.86 6.24404 37.5986 6.24404C37.2813 6.24404 36.964 6.24404 36.6466 6.24404C36.3293 6.24404 36.012 6.25337 35.6946 6.27204C35.6853 6.42137 35.676 6.56604 35.6666 6.70604C35.6573 6.84604 35.6526 6.9907 35.6526 7.14004C35.6526 7.48537 35.6946 7.8447 35.7786 8.21804C35.8626 8.58204 35.998 8.9227 36.1846 9.24004C36.3713 9.54804 36.6093 9.80004 36.8986 9.99604C37.188 10.1827 37.538 10.276 37.9486 10.276C38.3686 10.276 38.77 10.2107 39.1526 10.08C39.5353 9.94937 39.8853 9.73937 40.2026 9.45004C40.2866 9.36604 40.3613 9.27737 40.4266 9.18404C40.5013 9.08137 40.5806 8.9927 40.6646 8.91804C40.7113 8.87137 40.7626 8.84804 40.8186 8.84804C40.8653 8.84804 40.9026 8.8667 40.9306 8.90404C40.9586 8.94137 40.9726 8.98337 40.9726 9.03004ZM50.5755 8.73604C50.5755 9.15604 50.4822 9.50137 50.2955 9.77204C50.1089 10.0334 49.8662 10.234 49.5675 10.374C49.2689 10.514 48.9422 10.612 48.5875 10.668C48.2329 10.724 47.8875 10.752 47.5515 10.752C47.2435 10.752 46.9355 10.7194 46.6275 10.654C46.3289 10.5887 46.0255 10.542 45.7175 10.514C45.6522 10.262 45.5869 10.01 45.5215 9.75804C45.4655 9.50604 45.4002 9.2587 45.3255 9.01604C45.3162 8.98804 45.2929 8.9227 45.2555 8.82004C45.2275 8.71737 45.2135 8.66137 45.2135 8.65204C45.2135 8.57737 45.2369 8.52604 45.2835 8.49804C45.3302 8.4607 45.3862 8.44204 45.4515 8.44204C45.5169 8.44204 45.5635 8.46537 45.5915 8.51204C45.6475 8.57737 45.6942 8.66604 45.7315 8.77804C45.7782 8.89004 45.8202 8.98804 45.8575 9.07204C45.9322 9.22137 45.9975 9.33804 46.0535 9.42204C46.1095 9.4967 46.1982 9.5947 46.3195 9.71604C46.6835 10.0987 47.1362 10.29 47.6775 10.29C47.9762 10.29 48.2469 10.2574 48.4895 10.192C48.7415 10.1267 48.9422 10.0054 49.0915 9.82804C49.2409 9.64137 49.3155 9.37537 49.3155 9.03004C49.3155 8.73137 49.2222 8.48404 49.0355 8.28804C48.8489 8.0827 48.6062 7.9007 48.3075 7.74204C48.0182 7.58337 47.7102 7.42937 47.3835 7.28004C47.0569 7.1307 46.7442 6.96737 46.4455 6.79004C46.1562 6.60337 45.9182 6.37937 45.7315 6.11804C45.5449 5.8567 45.4515 5.53937 45.4515 5.16604C45.4515 4.7087 45.5682 4.33537 45.8015 4.04604C46.0442 3.7567 46.3522 3.54204 46.7255 3.40204C47.0989 3.2527 47.4862 3.17804 47.8875 3.17804C48.1489 3.17804 48.3822 3.2107 48.5875 3.27604C48.8022 3.34137 49.0262 3.41604 49.2595 3.50004C49.3342 3.52804 49.4089 3.5467 49.4835 3.55604C49.5582 3.56537 49.6329 3.57004 49.7075 3.57004C49.7542 3.57004 49.7962 3.57004 49.8335 3.57004C49.8709 3.57004 49.9082 3.56537 49.9455 3.55604C49.9735 3.72404 49.9969 3.8967 50.0155 4.07404C50.0435 4.24204 50.0669 4.4147 50.0855 4.59204C50.0949 4.65737 50.1042 4.7367 50.1135 4.83004C50.1322 4.91404 50.1415 4.99337 50.1415 5.06804C50.1415 5.13337 50.1275 5.20337 50.0995 5.27804C50.0715 5.34337 50.0155 5.37604 49.9315 5.37604C49.8662 5.37604 49.8102 5.37137 49.7635 5.36204C49.7262 5.34337 49.6935 5.30137 49.6655 5.23604C49.6189 5.1427 49.5769 5.0447 49.5395 4.94204C49.5115 4.83004 49.4789 4.72737 49.4415 4.63404C49.3202 4.30737 49.1102 4.04604 48.8115 3.85004C48.5129 3.6447 48.1909 3.54204 47.8455 3.54204C47.4069 3.54204 47.0755 3.6727 46.8515 3.93404C46.6275 4.18604 46.5155 4.5267 46.5155 4.95604C46.5155 5.10537 46.5529 5.25004 46.6275 5.39004C46.7115 5.53004 46.8049 5.65137 46.9075 5.75404C47.1035 5.9407 47.3322 6.08537 47.5935 6.18804C47.8642 6.2907 48.1209 6.39337 48.3635 6.49604C48.6809 6.63604 49.0075 6.80404 49.3435 7.00004C49.6889 7.19604 49.9782 7.43404 50.2115 7.71404C50.4542 7.99404 50.5755 8.3347 50.5755 8.73604ZM56.7396 5.82404C56.7303 5.44137 56.6976 5.07737 56.6416 4.73204C56.5856 4.37737 56.4503 4.08804 56.2356 3.86404C56.0209 3.6307 55.6709 3.51404 55.1856 3.51404C54.7469 3.51404 54.3876 3.63537 54.1076 3.87804C53.8369 4.11137 53.6269 4.41004 53.4776 4.77404C53.3283 5.1287 53.2163 5.4927 53.1416 5.86604C53.3749 5.87537 53.6036 5.8847 53.8276 5.89404C54.0516 5.89404 54.2756 5.89404 54.4996 5.89404C54.8729 5.89404 55.2463 5.88937 55.6196 5.88004C55.9929 5.86137 56.3663 5.8427 56.7396 5.82404ZM58.3496 9.03004C58.3496 9.0767 58.3403 9.1047 58.3216 9.11404C58.2936 9.20737 58.2236 9.31937 58.1116 9.45004C58.0089 9.5807 57.8923 9.7067 57.7616 9.82804C57.6309 9.94004 57.5236 10.024 57.4396 10.08C57.1316 10.2947 56.7816 10.4674 56.3896 10.598C56.0069 10.7287 55.6243 10.794 55.2416 10.794C54.9243 10.794 54.5696 10.7427 54.1776 10.64C53.7949 10.5374 53.4683 10.3974 53.1976 10.22C52.6749 9.8747 52.2923 9.42204 52.0496 8.86204C51.8069 8.30204 51.6856 7.7187 51.6856 7.11204C51.6856 6.42137 51.8209 5.78204 52.0916 5.19404C52.3623 4.60604 52.7963 4.13004 53.3936 3.76604C53.6643 3.60737 53.9676 3.4767 54.3036 3.37404C54.6396 3.26204 54.9616 3.20604 55.2696 3.20604C55.8203 3.20604 56.3056 3.31804 56.7256 3.54204C57.1456 3.76604 57.4723 4.08337 57.7056 4.49404C57.9483 4.89537 58.0696 5.37604 58.0696 5.93604C58.0696 6.0947 58.0323 6.19737 57.9576 6.24404C57.8923 6.2907 57.7896 6.31404 57.6496 6.31404C57.4629 6.31404 57.2763 6.30937 57.0896 6.30004C56.9029 6.2907 56.7163 6.28137 56.5296 6.27204C56.2683 6.25337 56.0069 6.24404 55.7456 6.24404C55.4936 6.24404 55.2369 6.24404 54.9756 6.24404C54.6583 6.24404 54.3409 6.24404 54.0236 6.24404C53.7063 6.24404 53.3889 6.25337 53.0716 6.27204C53.0623 6.42137 53.0529 6.56604 53.0436 6.70604C53.0343 6.84604 53.0296 6.9907 53.0296 7.14004C53.0296 7.48537 53.0716 7.8447 53.1556 8.21804C53.2396 8.58204 53.3749 8.9227 53.5616 9.24004C53.7483 9.54804 53.9863 9.80004 54.2756 9.99604C54.5649 10.1827 54.9149 10.276 55.3256 10.276C55.7456 10.276 56.1469 10.2107 56.5296 10.08C56.9123 9.94937 57.2623 9.73937 57.5796 9.45004C57.6636 9.36604 57.7383 9.27737 57.8036 9.18404C57.8783 9.08137 57.9576 8.9927 58.0416 8.91804C58.0883 8.87137 58.1396 8.84804 58.1956 8.84804C58.2423 8.84804 58.2796 8.8667 58.3076 8.90404C58.3356 8.94137 58.3496 8.98337 58.3496 9.03004ZM67.3085 10.36C67.3085 10.472 67.2245 10.556 67.0565 10.612C66.8978 10.668 66.7205 10.7054 66.5245 10.724C66.3285 10.7427 66.1885 10.752 66.1045 10.752C65.7872 10.752 65.5352 10.626 65.3485 10.374C65.1618 10.122 65.0218 9.8607 64.9285 9.59004C64.6112 9.99137 64.2145 10.29 63.7385 10.486C63.2625 10.682 62.7678 10.78 62.2545 10.78C61.4145 10.78 60.8312 10.5654 60.5045 10.136C60.1872 9.69737 60.0285 9.08137 60.0285 8.28804C60.0285 7.58804 60.0285 6.88804 60.0285 6.18804C60.0378 5.4787 60.0472 4.77404 60.0565 4.07404C60.0565 3.79404 59.9212 3.65404 59.6505 3.65404C59.5758 3.65404 59.5012 3.6587 59.4265 3.66804C59.3518 3.67737 59.2772 3.68204 59.2025 3.68204C59.1745 3.68204 59.1512 3.66804 59.1325 3.64004C59.1232 3.6027 59.1185 3.5747 59.1185 3.55604C59.1185 3.45337 59.1652 3.39737 59.2585 3.38804C59.5852 3.3507 59.9118 3.32737 60.2385 3.31804C60.5745 3.29937 60.9058 3.27137 61.2325 3.23404C61.3072 3.3087 61.3445 3.40204 61.3445 3.51404C61.3445 3.74737 61.3398 3.98537 61.3305 4.22804C61.3212 4.4707 61.3165 4.71337 61.3165 4.95604C61.3072 5.52537 61.2978 6.09937 61.2885 6.67804C61.2885 7.24737 61.2885 7.82137 61.2885 8.40004C61.2885 8.57737 61.2932 8.7687 61.3025 8.97404C61.3118 9.17004 61.3492 9.35204 61.4145 9.52004C61.5172 9.78137 61.7085 9.96804 61.9885 10.08C62.2778 10.1827 62.5532 10.234 62.8145 10.234C63.1038 10.234 63.3932 10.1827 63.6825 10.08C63.9812 9.96804 64.2332 9.80937 64.4385 9.60404C64.6532 9.38937 64.7745 9.12337 64.8025 8.80604C64.8212 8.64737 64.8305 8.4887 64.8305 8.33004C64.8398 8.16204 64.8445 7.9987 64.8445 7.84004L64.8305 4.03204C64.8305 3.9107 64.7885 3.82204 64.7045 3.76604C64.6298 3.71004 64.5412 3.68204 64.4385 3.68204C64.3452 3.68204 64.2518 3.6867 64.1585 3.69604C64.0745 3.70537 63.9858 3.71004 63.8925 3.71004C63.8085 3.71004 63.7665 3.66337 63.7665 3.57004C63.7665 3.4767 63.8085 3.42537 63.8925 3.41604C64.0045 3.39737 64.1212 3.38804 64.2425 3.38804C64.3638 3.3787 64.4852 3.36937 64.6065 3.36004L65.5725 3.26204C65.6378 3.2527 65.7032 3.24337 65.7685 3.23404C65.8432 3.2247 65.9132 3.22004 65.9785 3.22004C66.0252 3.22004 66.0578 3.24804 66.0765 3.30404C66.0952 3.3507 66.1045 3.38804 66.1045 3.41604C66.0765 5.44137 66.0625 7.46204 66.0625 9.47804C66.0625 9.71137 66.1138 9.9027 66.2165 10.052C66.3285 10.2014 66.5105 10.276 66.7625 10.276C66.8372 10.276 66.9025 10.2667 66.9585 10.248C67.0238 10.2294 67.0892 10.22 67.1545 10.22C67.2572 10.22 67.3085 10.2667 67.3085 10.36ZM80.8035 8.12004C80.8035 8.17604 80.7988 8.23204 80.7895 8.28804C80.7802 8.34404 80.7615 8.39537 80.7335 8.44204C80.6122 8.73137 80.4208 9.01604 80.1595 9.29604C79.9075 9.5667 79.6462 9.7907 79.3755 9.96804C78.9555 10.248 78.5075 10.444 78.0315 10.556C77.5648 10.668 77.0842 10.724 76.5895 10.724C75.5908 10.724 74.7275 10.514 73.9995 10.094C73.2808 9.6647 72.7302 9.07204 72.3475 8.31604C71.9648 7.56004 71.7735 6.69204 71.7735 5.71204C71.7735 4.98404 71.8808 4.3027 72.0955 3.66804C72.3102 3.03337 72.6228 2.47804 73.0335 2.00204C73.4442 1.5167 73.9482 1.1387 74.5455 0.868037C75.1428 0.588037 75.8242 0.448037 76.5895 0.448037C76.9628 0.448037 77.3175 0.508703 77.6535 0.630036C77.9988 0.742036 78.3442 0.858703 78.6895 0.980037C78.8855 1.04537 79.0862 1.0967 79.2915 1.13404C79.5062 1.17137 79.7162 1.19937 79.9215 1.21804C79.9308 1.42337 79.9448 1.6287 79.9635 1.83404C79.9822 2.03004 80.0055 2.2307 80.0335 2.43604C80.0615 2.6227 80.0942 2.81404 80.1315 3.01004C80.1782 3.1967 80.2015 3.38804 80.2015 3.58404C80.2015 3.73337 80.1688 3.8547 80.1035 3.94804C80.0475 4.04137 79.9355 4.08804 79.7675 4.08804C79.6742 4.08804 79.6042 4.0367 79.5575 3.93404C79.5202 3.8407 79.4875 3.7427 79.4595 3.64004C79.4408 3.52804 79.4175 3.42537 79.3895 3.33204C79.3148 3.02404 79.1888 2.70204 79.0115 2.36604C78.8342 2.0207 78.6195 1.74537 78.3675 1.54004C78.2555 1.43737 78.0875 1.3347 77.8635 1.23204C77.6488 1.12937 77.4248 1.04537 77.1915 0.980037C76.9675 0.914703 76.7762 0.882036 76.6175 0.882036C76.3375 0.882036 76.0528 0.93337 75.7635 1.03604C75.4742 1.1387 75.2175 1.27404 74.9935 1.44204C74.5735 1.7687 74.2375 2.16537 73.9855 2.63204C73.7335 3.08937 73.5515 3.57937 73.4395 4.10204C73.3368 4.6247 73.2855 5.1427 73.2855 5.65604C73.2855 6.21604 73.3508 6.7667 73.4815 7.30804C73.6122 7.84004 73.8175 8.3207 74.0975 8.75004C74.3775 9.17937 74.7415 9.5247 75.1895 9.78604C75.6375 10.038 76.1835 10.164 76.8275 10.164C77.0982 10.164 77.4015 10.1267 77.7375 10.052C78.0735 9.96804 78.3628 9.8747 78.6055 9.77204C78.8948 9.6507 79.1608 9.4967 79.4035 9.31004C79.6462 9.11404 79.8655 8.8947 80.0615 8.65204C80.0802 8.63337 80.1175 8.57737 80.1735 8.48404C80.2388 8.3907 80.3042 8.29737 80.3695 8.20404C80.4348 8.1107 80.4768 8.0547 80.4955 8.03604C80.5422 7.98004 80.5935 7.95204 80.6495 7.95204C80.7522 7.95204 80.8035 8.00804 80.8035 8.12004ZM90.08 8.34404C90.08 8.51204 90.066 8.6847 90.038 8.86204C90.01 9.03004 89.9867 9.19804 89.968 9.36604C89.94 9.5527 89.9214 9.74404 89.912 9.94004C89.9027 10.1267 89.8747 10.3134 89.828 10.5C89.8187 10.556 89.7907 10.612 89.744 10.668C89.7067 10.7147 89.6554 10.738 89.59 10.738C88.5914 10.738 87.5927 10.7334 86.594 10.724C85.5954 10.7054 84.5967 10.696 83.598 10.696C83.2994 10.696 82.996 10.71 82.688 10.738C82.3894 10.7567 82.0907 10.766 81.792 10.766C81.7454 10.766 81.6987 10.752 81.652 10.724C81.6147 10.6867 81.596 10.6447 81.596 10.598C81.596 10.542 81.61 10.4907 81.638 10.444C81.666 10.388 81.7127 10.36 81.778 10.36C81.974 10.36 82.1607 10.3507 82.338 10.332C82.5154 10.304 82.66 10.2387 82.772 10.136C82.8934 10.024 82.954 9.8467 82.954 9.60404V1.56804C82.954 1.35337 82.8887 1.21337 82.758 1.14804C82.6274 1.07337 82.4687 1.03604 82.282 1.03604C82.1887 1.03604 82.1 1.0407 82.016 1.05004C81.932 1.05004 81.848 1.05004 81.764 1.05004C81.6894 1.05004 81.624 1.03137 81.568 0.994037C81.512 0.956703 81.484 0.896036 81.484 0.812036C81.484 0.73737 81.498 0.672037 81.526 0.616036C81.554 0.560037 81.6147 0.532037 81.708 0.532037C81.8667 0.532037 82.0207 0.536703 82.17 0.546036C82.3287 0.55537 82.4827 0.560036 82.632 0.560036C83.5747 0.560036 84.5174 0.55537 85.46 0.546036C86.4027 0.52737 87.3407 0.518037 88.274 0.518037C88.7034 0.518037 89.128 0.504037 89.548 0.476037C89.5854 0.746703 89.632 1.01737 89.688 1.28804C89.744 1.5587 89.7907 1.82937 89.828 2.10004C89.8467 2.15604 89.8607 2.21204 89.87 2.26804C89.8794 2.3147 89.884 2.36604 89.884 2.42204C89.884 2.51537 89.8514 2.5807 89.786 2.61804C89.73 2.65537 89.66 2.67404 89.576 2.67404C89.5014 2.67404 89.4454 2.66004 89.408 2.63204C89.38 2.5947 89.352 2.5387 89.324 2.46404C89.1467 1.90404 88.9087 1.5167 88.61 1.30204C88.3207 1.08737 87.8774 0.980037 87.28 0.980037H84.368V5.19404C84.732 5.19404 85.096 5.19404 85.46 5.19404C85.824 5.1847 86.1927 5.1707 86.566 5.15204C86.9487 5.13337 87.3034 5.1007 87.63 5.05404C87.966 4.99804 88.3207 4.93737 88.694 4.87204H88.708C88.764 4.87204 88.792 4.89537 88.792 4.94204C88.792 5.00737 88.764 5.12404 88.708 5.29204C88.652 5.46004 88.61 5.57204 88.582 5.62804C88.5354 5.74004 88.4607 5.79604 88.358 5.79604C88.1247 5.79604 87.882 5.78204 87.63 5.75404C87.3874 5.7167 87.1447 5.69804 86.902 5.69804C86.734 5.6887 86.566 5.6887 86.398 5.69804C86.23 5.69804 86.0574 5.69804 85.88 5.69804C85.8147 5.69804 85.7447 5.69804 85.67 5.69804C85.6047 5.6887 85.5347 5.68404 85.46 5.68404C85.32 5.68404 85.166 5.69804 84.998 5.72604C84.83 5.7447 84.6807 5.8007 84.55 5.89404C84.4287 5.97804 84.368 6.11804 84.368 6.31404V9.67404C84.368 9.99137 84.4474 10.178 84.606 10.234C84.7647 10.2807 84.9747 10.304 85.236 10.304H86.356C86.6174 10.304 86.9067 10.29 87.224 10.262C87.5507 10.234 87.868 10.1734 88.176 10.08C88.484 9.9867 88.736 9.85137 88.932 9.67404C89.1467 9.47804 89.296 9.26337 89.38 9.03004C89.4734 8.78737 89.5807 8.5447 89.702 8.30204C89.7487 8.21804 89.8234 8.17604 89.926 8.17604C90.0287 8.17604 90.08 8.23204 90.08 8.34404ZM97.6096 3.01004C97.6096 2.26337 97.3763 1.72204 96.9096 1.38604C96.4523 1.0407 95.8783 0.868037 95.1876 0.868037C95.001 0.868037 94.8096 0.872703 94.6136 0.882036C94.4176 0.882036 94.2216 0.882036 94.0256 0.882036C93.9323 0.882036 93.839 0.910037 93.7456 0.966037C93.6523 1.02204 93.6056 1.10137 93.6056 1.20404V5.18004C93.811 5.32937 94.063 5.41804 94.3616 5.44604C94.6603 5.47404 94.9263 5.48804 95.1596 5.48804C95.9623 5.48804 96.569 5.27337 96.9796 4.84404C97.3996 4.4147 97.6096 3.80337 97.6096 3.01004ZM99.1496 2.96804C99.1496 3.5747 99.033 4.06937 98.7996 4.45204C98.5756 4.8347 98.2723 5.13337 97.8896 5.34804C97.507 5.5627 97.073 5.71204 96.5876 5.79604C96.1116 5.8707 95.6216 5.90804 95.1176 5.90804C94.8656 5.90804 94.6136 5.89404 94.3616 5.86604C94.1096 5.83804 93.8623 5.80537 93.6196 5.76804V9.95404C93.6196 10.094 93.6803 10.1874 93.8016 10.234C93.923 10.2807 94.0583 10.304 94.2076 10.304C94.357 10.304 94.4783 10.304 94.5716 10.304C94.6276 10.304 94.6836 10.304 94.7396 10.304C94.805 10.2947 94.8656 10.29 94.9216 10.29C95.0056 10.29 95.0476 10.3274 95.0476 10.402C95.0476 10.5234 95.0383 10.6074 95.0196 10.654C95.001 10.6914 94.9263 10.71 94.7956 10.71C94.4783 10.71 94.1656 10.7007 93.8576 10.682C93.5496 10.6634 93.2416 10.654 92.9336 10.654C92.6163 10.654 92.2943 10.668 91.9676 10.696C91.6503 10.7147 91.333 10.724 91.0156 10.724C90.9223 10.724 90.8756 10.6634 90.8756 10.542C90.8756 10.486 90.885 10.4347 90.9036 10.388C90.9223 10.3414 90.969 10.318 91.0436 10.318C91.1556 10.318 91.2676 10.3227 91.3796 10.332C91.4916 10.332 91.6036 10.332 91.7156 10.332C91.8276 10.332 91.9256 10.304 92.0096 10.248C92.103 10.192 92.1543 10.1034 92.1636 9.98204C92.1823 9.81404 92.187 9.64604 92.1776 9.47804C92.1776 9.3007 92.1776 9.12804 92.1776 8.96004C92.1776 8.62404 92.1776 8.28804 92.1776 7.95204C92.1776 7.6067 92.1776 7.26604 92.1776 6.93004V4.48004C92.1776 3.92937 92.173 3.38337 92.1636 2.84204C92.1636 2.29137 92.1636 1.74537 92.1636 1.20404C92.1636 1.03604 92.0796 0.938036 91.9116 0.910037C91.753 0.872703 91.613 0.854037 91.4916 0.854037C91.4076 0.854037 91.3236 0.858703 91.2396 0.868037C91.1556 0.868037 91.0763 0.868037 91.0016 0.868037C90.9363 0.868037 90.899 0.840037 90.8896 0.784037C90.8896 0.718703 90.8896 0.66737 90.8896 0.630036C90.8896 0.592703 90.899 0.560037 90.9176 0.532037C90.9363 0.494703 90.9643 0.476037 91.0016 0.476037C91.3096 0.476037 91.6176 0.48537 91.9256 0.504037C92.2336 0.522703 92.5463 0.532037 92.8636 0.532037C93.349 0.532037 93.8343 0.522703 94.3196 0.504037C94.805 0.48537 95.2903 0.476037 95.7756 0.476037C96.1676 0.476037 96.5596 0.518037 96.9516 0.602037C97.353 0.686037 97.717 0.826037 98.0436 1.02204C98.3796 1.21804 98.6456 1.4747 98.8416 1.79204C99.047 2.10937 99.1496 2.50137 99.1496 2.96804ZM102.692 9.71604C102.692 9.97737 102.594 10.1967 102.398 10.374C102.202 10.5514 101.973 10.64 101.712 10.64C101.451 10.64 101.222 10.5514 101.026 10.374C100.83 10.1967 100.732 9.97737 100.732 9.71604C100.732 9.44537 100.83 9.22137 101.026 9.04404C101.222 8.8667 101.451 8.77804 101.712 8.77804C101.973 8.77804 102.202 8.8667 102.398 9.04404C102.594 9.22137 102.692 9.44537 102.692 9.71604ZM107.586 9.71604C107.586 9.97737 107.488 10.1967 107.292 10.374C107.096 10.5514 106.868 10.64 106.606 10.64C106.345 10.64 106.116 10.5514 105.92 10.374C105.724 10.1967 105.626 9.97737 105.626 9.71604C105.626 9.44537 105.724 9.22137 105.92 9.04404C106.116 8.8667 106.345 8.77804 106.606 8.77804C106.868 8.77804 107.096 8.8667 107.292 9.04404C107.488 9.22137 107.586 9.44537 107.586 9.71604ZM112.481 9.71604C112.481 9.97737 112.383 10.1967 112.187 10.374C111.991 10.5514 111.762 10.64 111.501 10.64C111.24 10.64 111.011 10.5514 110.815 10.374C110.619 10.1967 110.521 9.97737 110.521 9.71604C110.521 9.44537 110.619 9.22137 110.815 9.04404C111.011 8.8667 111.24 8.77804 111.501 8.77804C111.762 8.77804 111.991 8.8667 112.187 9.04404C112.383 9.22137 112.481 9.44537 112.481 9.71604Z" fill="#767676"/>
</svg>
