<svg width="30" height="9" viewBox="0 0 30 9" fill="none" xmlns="http://www.w3.org/2000/svg">
<path d="M5.96046e-08 8V-2.38419e-07H2.70313C3.33073 -2.38419e-07 3.84375 0.113281 4.24219 0.339843C4.64323 0.563802 4.9401 0.867188 5.13281 1.25C5.32552 1.63281 5.42188 2.0599 5.42188 2.53125C5.42188 3.0026 5.32552 3.43099 5.13281 3.81641C4.94271 4.20182 4.64844 4.50911 4.25 4.73828C3.85156 4.96484 3.34115 5.07812 2.71875 5.07812H0.78125V4.21875H2.6875C3.11719 4.21875 3.46224 4.14453 3.72266 3.99609C3.98307 3.84766 4.17188 3.64714 4.28906 3.39453C4.40885 3.13932 4.46875 2.85156 4.46875 2.53125C4.46875 2.21094 4.40885 1.92448 4.28906 1.67187C4.17188 1.41927 3.98177 1.22135 3.71875 1.07812C3.45573 0.932291 3.10677 0.859375 2.67187 0.859375H0.96875V8H5.96046e-08ZM9.30859 8.125C8.73047 8.125 8.23177 7.9974 7.8125 7.74219C7.39583 7.48438 7.07422 7.125 6.84766 6.66406C6.6237 6.20052 6.51172 5.66146 6.51172 5.04688C6.51172 4.43229 6.6237 3.89062 6.84766 3.42187C7.07422 2.95052 7.38932 2.58333 7.79297 2.32031C8.19922 2.05469 8.67318 1.92188 9.21484 1.92188C9.52734 1.92188 9.83594 1.97396 10.1406 2.07812C10.4453 2.18229 10.7227 2.35156 10.9727 2.58594C11.2227 2.81771 11.4219 3.125 11.5703 3.50781C11.7188 3.89062 11.793 4.36198 11.793 4.92187V5.3125H7.16797V4.51562H10.8555C10.8555 4.17708 10.7878 3.875 10.6523 3.60937C10.5195 3.34375 10.3294 3.13411 10.082 2.98047C9.83724 2.82682 9.54818 2.75 9.21484 2.75C8.84766 2.75 8.52995 2.84115 8.26172 3.02344C7.99609 3.20312 7.79167 3.4375 7.64844 3.72656C7.50521 4.01562 7.43359 4.32552 7.43359 4.65625V5.1875C7.43359 5.64063 7.51172 6.02474 7.66797 6.33984C7.82682 6.65234 8.04688 6.89062 8.32813 7.05469C8.60938 7.21615 8.9362 7.29688 9.30859 7.29688C9.55078 7.29688 9.76953 7.26302 9.96484 7.19531C10.1628 7.125 10.3333 7.02083 10.4766 6.88281C10.6198 6.74219 10.7305 6.56771 10.8086 6.35937L11.6992 6.60938C11.6055 6.91146 11.4479 7.17708 11.2266 7.40625C11.0052 7.63281 10.7318 7.8099 10.4062 7.9375C10.0807 8.0625 9.71484 8.125 9.30859 8.125ZM17.4453 3.34375L16.6172 3.57812C16.5651 3.4401 16.4883 3.30599 16.3867 3.17578C16.2878 3.04297 16.1523 2.93359 15.9805 2.84766C15.8086 2.76172 15.5885 2.71875 15.3203 2.71875C14.9531 2.71875 14.6471 2.80339 14.4023 2.97266C14.1602 3.13932 14.0391 3.35156 14.0391 3.60937C14.0391 3.83854 14.1224 4.01953 14.2891 4.15234C14.4557 4.28516 14.7161 4.39583 15.0703 4.48437L15.9609 4.70313C16.4974 4.83333 16.8971 5.03255 17.1602 5.30078C17.4232 5.56641 17.5547 5.90885 17.5547 6.32812C17.5547 6.67187 17.4557 6.97917 17.2578 7.25C17.0625 7.52083 16.7891 7.73438 16.4375 7.89063C16.0859 8.04688 15.6771 8.125 15.2109 8.125C14.599 8.125 14.0924 7.99219 13.6914 7.72656C13.2904 7.46094 13.0365 7.07292 12.9297 6.5625L13.8047 6.34375C13.888 6.66667 14.0456 6.90885 14.2773 7.07031C14.5117 7.23177 14.8177 7.3125 15.1953 7.3125C15.625 7.3125 15.9661 7.22135 16.2188 7.03906C16.474 6.85417 16.6016 6.63281 16.6016 6.375C16.6016 6.16667 16.5286 5.99219 16.3828 5.85156C16.237 5.70833 16.013 5.60156 15.7109 5.53125L14.7109 5.29687C14.1615 5.16667 13.7578 4.96484 13.5 4.69141C13.2448 4.41536 13.1172 4.07031 13.1172 3.65625C13.1172 3.31771 13.2122 3.01823 13.4023 2.75781C13.5951 2.4974 13.8568 2.29297 14.1875 2.14453C14.5208 1.99609 14.8984 1.92188 15.3203 1.92188C15.9141 1.92188 16.3802 2.05208 16.7188 2.3125C17.0599 2.57292 17.3021 2.91667 17.4453 3.34375ZM21.3799 8.125C20.8174 8.125 20.333 7.99219 19.9268 7.72656C19.5205 7.46094 19.208 7.09505 18.9893 6.62891C18.7705 6.16276 18.6611 5.63021 18.6611 5.03125C18.6611 4.42187 18.7731 3.88411 18.9971 3.41797C19.2236 2.94922 19.5387 2.58333 19.9424 2.32031C20.3486 2.05469 20.8226 1.92188 21.3643 1.92188C21.7861 1.92188 22.1663 2 22.5049 2.15625C22.8434 2.3125 23.1208 2.53125 23.3369 2.8125C23.5531 3.09375 23.6872 3.42187 23.7393 3.79687H22.8174C22.7471 3.52344 22.5908 3.28125 22.3486 3.07031C22.109 2.85677 21.7861 2.75 21.3799 2.75C21.0205 2.75 20.7054 2.84375 20.4346 3.03125C20.1663 3.21615 19.9567 3.47786 19.8057 3.81641C19.6572 4.15234 19.583 4.54687 19.583 5C19.583 5.46354 19.6559 5.86719 19.8018 6.21094C19.9502 6.55469 20.1585 6.82161 20.4268 7.01172C20.6976 7.20182 21.0153 7.29688 21.3799 7.29688C21.6195 7.29688 21.8369 7.25521 22.0322 7.17187C22.2275 7.08854 22.3929 6.96875 22.5283 6.8125C22.6637 6.65625 22.7601 6.46875 22.8174 6.25H23.7393C23.6872 6.60417 23.5583 6.92318 23.3525 7.20703C23.1494 7.48828 22.8799 7.71224 22.5439 7.87891C22.2106 8.04297 21.8226 8.125 21.3799 8.125ZM26.8525 8.14063C26.4723 8.14063 26.1273 8.06901 25.8174 7.92578C25.5075 7.77995 25.2614 7.57031 25.0791 7.29688C24.8968 7.02083 24.8057 6.6875 24.8057 6.29687C24.8057 5.95312 24.8734 5.67448 25.0088 5.46094C25.1442 5.24479 25.3252 5.07552 25.5518 4.95312C25.7783 4.83073 26.0283 4.73958 26.3018 4.67969C26.5778 4.61719 26.8551 4.56771 27.1338 4.53125C27.4984 4.48437 27.7939 4.44922 28.0205 4.42578C28.2497 4.39974 28.4163 4.35677 28.5205 4.29687C28.6273 4.23698 28.6807 4.13281 28.6807 3.98437V3.95312C28.6807 3.56771 28.5752 3.26823 28.3643 3.05469C28.1559 2.84115 27.8395 2.73437 27.415 2.73437C26.9749 2.73437 26.6299 2.83073 26.3799 3.02344C26.1299 3.21615 25.9541 3.42187 25.8525 3.64062L24.9775 3.32812C25.1338 2.96354 25.3421 2.67969 25.6025 2.47656C25.8656 2.27083 26.152 2.1276 26.4619 2.04687C26.7744 1.96354 27.0817 1.92188 27.3838 1.92188C27.5765 1.92188 27.7979 1.94531 28.0479 1.99219C28.3005 2.03646 28.5439 2.12891 28.7783 2.26953C29.0153 2.41016 29.2119 2.6224 29.3682 2.90625C29.5244 3.1901 29.6025 3.57031 29.6025 4.04688V8H28.6807V7.1875H28.6338C28.5713 7.31771 28.4671 7.45703 28.3213 7.60547C28.1755 7.75391 27.9814 7.88021 27.7393 7.98437C27.4971 8.08854 27.2015 8.14063 26.8525 8.14063ZM26.9932 7.3125C27.3577 7.3125 27.665 7.24089 27.915 7.09766C28.1676 6.95443 28.3577 6.76953 28.4854 6.54297C28.6156 6.31641 28.6807 6.07812 28.6807 5.82812V4.98437C28.6416 5.03125 28.5557 5.07422 28.4229 5.11328C28.2926 5.14974 28.1416 5.18229 27.9697 5.21094C27.8005 5.23698 27.6351 5.26042 27.4736 5.28125C27.3148 5.29948 27.1859 5.3151 27.0869 5.32812C26.8473 5.35937 26.6234 5.41016 26.415 5.48047C26.2093 5.54818 26.0426 5.65104 25.915 5.78906C25.79 5.92448 25.7275 6.10937 25.7275 6.34375C25.7275 6.66406 25.846 6.90625 26.083 7.07031C26.3226 7.23177 26.626 7.3125 26.9932 7.3125Z" fill="#8A7268"/>
</svg>
