<svg width="61" height="9" viewBox="0 0 61 9" fill="none" xmlns="http://www.w3.org/2000/svg">
<path d="M4.22397 4.22405C4.22397 4.01139 4.21663 3.75105 4.20197 3.44305C4.19463 3.12772 4.16897 2.79772 4.12497 2.45305C4.08097 2.10839 4.00397 1.78572 3.89397 1.48505C3.78397 1.18439 3.63363 0.942388 3.44297 0.759054C3.2523 0.568388 3.00297 0.473055 2.69496 0.473055C2.4163 0.473055 2.18163 0.572054 1.99096 0.770054C1.8003 0.960721 1.6463 1.21372 1.52896 1.52905C1.41163 1.83705 1.31996 2.16705 1.25396 2.51905C1.1953 2.86372 1.15496 3.19739 1.13296 3.52005C1.11096 3.83539 1.09996 4.09205 1.09996 4.29005C1.09996 4.48805 1.1073 4.73739 1.12196 5.03805C1.14396 5.33139 1.18063 5.64305 1.23196 5.97305C1.2833 6.29572 1.36396 6.60005 1.47396 6.88605C1.5913 7.17205 1.74163 7.40672 1.92496 7.59005C2.1083 7.76605 2.3393 7.85405 2.61796 7.85405C2.9113 7.85405 3.1533 7.76605 3.34397 7.59005C3.53463 7.40672 3.68863 7.17205 3.80597 6.88605C3.9233 6.59272 4.0113 6.28105 4.06997 5.95105C4.13597 5.61372 4.1763 5.29472 4.19096 4.99405C4.21297 4.68605 4.22397 4.42939 4.22397 4.22405ZM5.36797 4.08105C5.36797 4.41839 5.33497 4.77405 5.26897 5.14805C5.2103 5.52205 5.11496 5.88872 4.98296 6.24805C4.85097 6.60739 4.67497 6.93372 4.45497 7.22705C4.2423 7.52039 3.98197 7.75505 3.67397 7.93105C3.36597 8.09972 3.00663 8.18405 2.59596 8.18405C2.10463 8.18405 1.6903 8.06305 1.35296 7.82105C1.02296 7.57172 0.758965 7.25272 0.560965 6.86405C0.362965 6.47539 0.219965 6.06105 0.131965 5.62105C0.0439649 5.17372 -3.51258e-05 4.75205 -3.51258e-05 4.35605C-3.51258e-05 4.01872 0.0292982 3.65939 0.0879649 3.27805C0.146632 2.88939 0.241965 2.51172 0.373965 2.14505C0.505965 1.77839 0.678298 1.44472 0.890965 1.14405C1.11096 0.843388 1.37496 0.605054 1.68296 0.429054C1.9983 0.245721 2.36496 0.154054 2.78297 0.154054C3.17896 0.154054 3.51996 0.238387 3.80597 0.407054C4.0993 0.575721 4.34496 0.799388 4.54297 1.07805C4.7483 1.35672 4.90963 1.66839 5.02697 2.01305C5.1443 2.35772 5.22863 2.70972 5.27997 3.06905C5.33863 3.42105 5.36797 3.75839 5.36797 4.08105ZM9.66725 2.46405C9.66725 2.28072 9.66358 2.09739 9.65625 1.91405C9.65625 1.73072 9.65625 1.54739 9.65625 1.36405L6.82925 5.44505H9.65625C9.65625 4.94639 9.65625 4.44772 9.65625 3.94905C9.66358 3.45039 9.66725 2.95539 9.66725 2.46405ZM12.1752 5.08205C12.1752 5.09672 12.1642 5.14072 12.1422 5.21405C12.1276 5.28005 12.1166 5.32772 12.1092 5.35705C12.0872 5.43772 12.0616 5.52572 12.0322 5.62105C12.0102 5.71639 11.9919 5.80439 11.9772 5.88505C11.9699 5.93639 11.9479 5.96572 11.9112 5.97305C11.8746 5.97305 11.8342 5.97305 11.7902 5.97305H10.7122C10.7122 6.17839 10.7122 6.38372 10.7122 6.58905C10.7196 6.79439 10.7232 7.00339 10.7232 7.21605V7.61205C10.7232 7.72205 10.7636 7.79539 10.8442 7.83205C10.9322 7.86872 11.0312 7.89072 11.1412 7.89805C11.2512 7.89805 11.3392 7.89805 11.4052 7.89805C11.4566 7.89805 11.5079 7.89439 11.5592 7.88705C11.6179 7.87972 11.6729 7.87605 11.7242 7.87605C11.7756 7.87605 11.8049 7.89805 11.8122 7.94205C11.8196 7.97872 11.8232 8.01539 11.8232 8.05205C11.8232 8.08139 11.8159 8.11805 11.8012 8.16205C11.7939 8.19872 11.7719 8.21705 11.7352 8.21705C11.7059 8.21705 11.6729 8.21705 11.6362 8.21705C11.6069 8.21705 11.5739 8.21339 11.5372 8.20605C11.3172 8.19139 11.0936 8.18039 10.8662 8.17305C10.6462 8.16572 10.4299 8.16205 10.2172 8.16205C10.0266 8.16205 9.83225 8.16572 9.63425 8.17305C9.44358 8.18039 9.25291 8.18772 9.06225 8.19505C8.99625 8.20239 8.93025 8.20605 8.86425 8.20605C8.79825 8.21339 8.73591 8.21705 8.67725 8.21705C8.61858 8.21705 8.58191 8.20239 8.56725 8.17305C8.55258 8.13639 8.54525 8.09239 8.54525 8.04105C8.54525 8.00439 8.54891 7.97139 8.55625 7.94205C8.57091 7.90539 8.60391 7.88705 8.65525 7.88705C8.69191 7.88705 8.72858 7.89072 8.76525 7.89805C8.80925 7.89805 8.84958 7.89805 8.88625 7.89805C8.96691 7.89805 9.06591 7.89805 9.18325 7.89805C9.30791 7.89805 9.41425 7.87972 9.50225 7.84305C9.59758 7.79905 9.64525 7.72205 9.64525 7.61205V5.97305H6.36725C6.31591 5.97305 6.26825 5.96205 6.22425 5.94005C6.18758 5.91072 6.16925 5.87039 6.16925 5.81905C6.16925 5.76039 6.18391 5.70905 6.21325 5.66505C6.22058 5.65039 6.22791 5.63572 6.23525 5.62105C6.24258 5.60639 6.24991 5.59539 6.25725 5.58805C6.86591 4.70805 7.47825 3.82439 8.09425 2.93705C8.71758 2.04972 9.32258 1.15872 9.90925 0.264054C9.93125 0.220054 9.95691 0.183387 9.98625 0.154054C10.0082 0.117387 10.0412 0.0990542 10.0852 0.0990542H10.6682C10.6829 0.0990542 10.7049 0.102721 10.7342 0.110054C10.7636 0.110054 10.7746 0.121054 10.7672 0.143054L10.7232 0.264054V5.44505H11.3942C11.4896 5.44505 11.5849 5.43039 11.6802 5.40105C11.7829 5.36439 11.8636 5.30939 11.9222 5.23605C11.9369 5.22139 11.9516 5.19572 11.9662 5.15905C11.9882 5.11505 12.0029 5.08572 12.0102 5.07105C12.0322 5.03439 12.0579 5.01605 12.0872 5.01605C12.1459 5.01605 12.1752 5.03805 12.1752 5.08205ZM17.3325 6.05005C17.3325 5.72005 17.2629 5.44505 17.1235 5.22505C16.9915 4.99772 16.8155 4.80705 16.5955 4.65305C16.3755 4.49905 16.1335 4.37072 15.8695 4.26805C15.6055 4.15805 15.3452 4.05539 15.0885 3.96005C14.6925 4.18739 14.3772 4.47705 14.1425 4.82905C13.9079 5.17372 13.7905 5.58072 13.7905 6.05005C13.7905 6.65872 13.9372 7.11705 14.2305 7.42505C14.5239 7.73305 14.9749 7.88705 15.5835 7.88705C15.9355 7.88705 16.2399 7.80639 16.4965 7.64505C16.7605 7.48372 16.9659 7.26372 17.1125 6.98505C17.2592 6.70639 17.3325 6.39472 17.3325 6.05005ZM17.1235 1.82605C17.1235 1.32739 16.9842 0.960721 16.7055 0.726055C16.4342 0.484054 16.0602 0.363054 15.5835 0.363054C15.1362 0.363054 14.7879 0.487721 14.5385 0.737054C14.2892 0.979054 14.1645 1.32005 14.1645 1.76005C14.1645 2.10472 14.2489 2.38705 14.4175 2.60705C14.5862 2.82705 14.8025 3.00672 15.0665 3.14605C15.3379 3.28539 15.6129 3.40639 15.8915 3.50905C16.2362 3.35505 16.5259 3.13505 16.7605 2.84905C17.0025 2.55572 17.1235 2.21472 17.1235 1.82605ZM18.4215 5.67605C18.4215 6.24072 18.2822 6.71372 18.0035 7.09505C17.7322 7.46905 17.3729 7.75139 16.9255 7.94205C16.4782 8.12539 15.9905 8.21705 15.4625 8.21705C15.0299 8.21705 14.6155 8.14372 14.2195 7.99705C13.8309 7.84305 13.5119 7.60839 13.2625 7.29305C13.0205 6.97772 12.8995 6.57805 12.8995 6.09405C12.8995 5.69072 12.9912 5.35339 13.1745 5.08205C13.3652 4.80339 13.6035 4.56505 13.8895 4.36705C14.1829 4.16172 14.4835 3.97839 14.7915 3.81705C14.5642 3.72172 14.3332 3.59705 14.0985 3.44305C13.8639 3.28905 13.6659 3.10205 13.5045 2.88205C13.3432 2.66205 13.2625 2.41272 13.2625 2.13405C13.2625 1.65005 13.3872 1.25772 13.6365 0.957054C13.8859 0.649054 14.2049 0.425388 14.5935 0.286054C14.9822 0.146721 15.3892 0.0770544 15.8145 0.0770544C16.1445 0.0770544 16.4745 0.135721 16.8045 0.253054C17.1345 0.370388 17.4095 0.550054 17.6295 0.792054C17.8495 1.03405 17.9595 1.34205 17.9595 1.71605C17.9595 2.05339 17.8899 2.34305 17.7505 2.58505C17.6185 2.82705 17.4352 3.03239 17.2005 3.20105C16.9659 3.36972 16.7055 3.51639 16.4195 3.64105C16.7202 3.72905 17.0245 3.86839 17.3325 4.05905C17.6405 4.24239 17.8972 4.46972 18.1025 4.74105C18.3152 5.01239 18.4215 5.32405 18.4215 5.67605ZM24.8108 0.506054C24.5981 0.726054 24.3965 0.993721 24.2058 1.30905C24.0225 1.62439 23.8538 1.95072 23.6998 2.28805C23.5458 2.61805 23.4138 2.92972 23.3038 3.22305C23.0471 3.89772 22.8491 4.59072 22.7098 5.30205C22.5705 6.01339 22.4715 6.72839 22.4128 7.44705C22.3908 7.72572 22.3431 7.94939 22.2698 8.11805C22.1965 8.27939 21.9985 8.36005 21.6758 8.36005C21.4778 8.36005 21.3458 8.29039 21.2798 8.15105C21.2211 8.00439 21.1918 7.85039 21.1918 7.68905C21.1918 7.38105 21.2395 7.03272 21.3348 6.64405C21.4301 6.24805 21.5475 5.84105 21.6868 5.42305C21.8335 5.00505 21.9838 4.60539 22.1378 4.22405C22.2918 3.83539 22.4311 3.49805 22.5558 3.21205C22.7538 2.77205 22.9848 2.33572 23.2488 1.90305C23.5201 1.47039 23.8025 1.06339 24.0958 0.682055C23.3478 0.689388 22.5925 0.711388 21.8298 0.748054C21.6391 0.755388 21.4411 0.766388 21.2358 0.781055C21.0305 0.788388 20.8325 0.814054 20.6418 0.858054C20.3705 0.916721 20.1651 1.05605 20.0258 1.27605C19.8938 1.49605 19.7875 1.73072 19.7068 1.98005C19.6921 1.98739 19.6701 1.99105 19.6408 1.99105C19.5821 1.99105 19.5308 1.98005 19.4868 1.95805C19.5235 1.69405 19.5528 1.43005 19.5748 1.16605C19.6041 0.894721 19.6335 0.627054 19.6628 0.363054C19.6775 0.319054 19.6848 0.289721 19.6848 0.275055C19.6921 0.253054 19.7178 0.234721 19.7618 0.220055C19.8205 0.205388 19.8828 0.198054 19.9488 0.198054C20.4035 0.198054 20.8581 0.201721 21.3128 0.209054C21.7748 0.216388 22.2368 0.220055 22.6988 0.220055C23.0508 0.220055 23.4028 0.216388 23.7548 0.209054C24.1068 0.201721 24.4588 0.190721 24.8108 0.176054V0.506054ZM31.3211 5.35705C31.3211 5.70172 31.2514 6.06839 31.1121 6.45705C30.9728 6.84572 30.7711 7.15739 30.5071 7.39205C30.2138 7.64872 29.8618 7.84672 29.4511 7.98605C29.0404 8.12539 28.6408 8.19505 28.2521 8.19505C28.0688 8.19505 27.8488 8.17305 27.5921 8.12905C27.3354 8.07772 27.0824 8.00439 26.8331 7.90905C26.5838 7.80639 26.3748 7.67439 26.2061 7.51305C26.0374 7.34439 25.9531 7.14272 25.9531 6.90805C25.9531 6.74672 26.0081 6.62205 26.1181 6.53405C26.2281 6.43872 26.3601 6.39105 26.5141 6.39105C26.6461 6.39105 26.7634 6.42405 26.8661 6.49005C26.9688 6.55605 27.0238 6.66239 27.0311 6.80905C27.0604 7.14639 27.1558 7.40672 27.3171 7.59005C27.4858 7.77339 27.7498 7.86505 28.1091 7.86505C28.6151 7.86505 29.0258 7.74772 29.3411 7.51305C29.6564 7.27105 29.8911 6.90805 30.0451 6.42405C30.0964 6.25539 30.1258 6.08305 30.1331 5.90705C30.1478 5.72372 30.1551 5.54405 30.1551 5.36805C30.1551 5.12605 30.1258 4.86572 30.0671 4.58705C30.0158 4.30105 29.9168 4.05905 29.7701 3.86105C29.6454 3.69239 29.4841 3.57872 29.2861 3.52005C29.0954 3.46139 28.8974 3.43205 28.6921 3.43205C28.5308 3.43205 28.3548 3.46139 28.1641 3.52005C27.9734 3.57139 27.8158 3.64839 27.6911 3.75105C27.5664 3.85372 27.4528 3.98572 27.3501 4.14705C27.2474 4.30105 27.1888 4.46239 27.1741 4.63105C27.1668 4.67505 27.1594 4.73005 27.1521 4.79605C27.1448 4.86205 27.1081 4.89505 27.0421 4.89505C27.0054 4.89505 26.9284 4.88039 26.8111 4.85105C26.7011 4.81439 26.5948 4.77405 26.4921 4.73005C26.3968 4.67872 26.3491 4.63472 26.3491 4.59805C26.3491 4.57605 26.3528 4.55405 26.3601 4.53205C26.3674 4.51005 26.3748 4.48805 26.3821 4.46605C26.4334 4.29739 26.4738 4.08839 26.5031 3.83905C26.5398 3.58239 26.5654 3.31472 26.5801 3.03605C26.5948 2.75005 26.6058 2.47505 26.6131 2.21105C26.6204 1.94705 26.6241 1.72339 26.6241 1.54005C26.6241 1.10739 26.6021 0.671054 26.5581 0.231054C26.7854 0.260388 27.0091 0.282388 27.2291 0.297054C27.4564 0.311721 27.6838 0.319055 27.9111 0.319055H29.4841C29.6748 0.319055 29.8948 0.308055 30.1441 0.286054C30.4008 0.264054 30.6134 0.205387 30.7821 0.110054C30.8188 0.0880543 30.8591 0.0660544 30.9031 0.0440542C30.9544 0.0147208 30.9984 5.4121e-05 31.0351 5.4121e-05C31.0571 5.4121e-05 31.0901 0.00372074 31.1341 0.011054C31.1781 0.011054 31.2001 0.0293875 31.2001 0.0660546C31.2001 0.102721 31.1744 0.179721 31.1231 0.297054C31.0718 0.407054 31.0168 0.520721 30.9581 0.638054C30.8994 0.755388 30.8591 0.832387 30.8371 0.869054C30.8078 0.920388 30.7711 0.953388 30.7271 0.968054C30.6831 0.982721 30.6318 0.990054 30.5731 0.990054C30.4778 0.990054 30.3788 0.990054 30.2761 0.990054C30.1808 0.982721 30.0818 0.975388 29.9791 0.968054C29.8544 0.953388 29.7261 0.949721 29.5941 0.957054C29.4621 0.957054 29.3338 0.957054 29.2091 0.957054C29.0038 0.957054 28.7984 0.957054 28.5931 0.957054C28.3878 0.949721 28.1788 0.946054 27.9661 0.946054C27.8414 0.946054 27.7131 0.946054 27.5811 0.946054C27.4564 0.946054 27.3318 0.949721 27.2071 0.957054C27.1998 1.41905 27.1814 1.88472 27.1521 2.35405C27.1301 2.81605 27.1081 3.27805 27.0861 3.74005C27.4234 3.50539 27.7351 3.33305 28.0211 3.22305C28.3144 3.10572 28.6664 3.04705 29.0771 3.04705C29.3558 3.04705 29.6234 3.08739 29.8801 3.16805C30.1441 3.24872 30.3788 3.38439 30.5841 3.57505C30.8188 3.79505 30.9984 4.06639 31.1231 4.38905C31.2551 4.71172 31.3211 5.03439 31.3211 5.35705ZM38.4914 1.71605C38.4914 1.78205 38.4657 1.83705 38.4144 1.88105C38.3704 1.91772 38.319 1.93605 38.2604 1.93605C38.187 1.93605 38.1394 1.92139 38.1174 1.89205C38.0954 1.85539 38.0734 1.80772 38.0514 1.74905C37.9267 1.35305 37.736 1.05972 37.4794 0.869054C37.2227 0.678388 36.8817 0.583054 36.4564 0.583054H34.4544V3.89405C34.7917 3.88672 35.129 3.88305 35.4664 3.88305C35.8037 3.87572 36.141 3.85739 36.4784 3.82805C36.6984 3.81339 36.9147 3.78772 37.1274 3.75105C37.34 3.71439 37.5527 3.67772 37.7654 3.64105H37.7874C37.802 3.64105 37.8167 3.64839 37.8314 3.66305C37.8534 3.67039 37.8644 3.68139 37.8644 3.69605C37.8644 3.74739 37.8387 3.83905 37.7874 3.97105C37.736 4.09572 37.6994 4.18372 37.6774 4.23505C37.6407 4.32305 37.5857 4.36705 37.5124 4.36705C37.461 4.36705 37.406 4.36705 37.3474 4.36705C37.296 4.35972 37.241 4.35239 37.1824 4.34505C36.9257 4.31572 36.6654 4.30105 36.4014 4.30105C36.1447 4.29372 35.888 4.29005 35.6314 4.29005C35.536 4.29005 35.4224 4.29005 35.2904 4.29005C35.1584 4.29005 35.0264 4.30105 34.8944 4.32305C34.7697 4.34505 34.6634 4.39272 34.5754 4.46605C34.4947 4.53205 34.4544 4.63472 34.4544 4.77405V7.26005C34.4544 7.34072 34.4727 7.41772 34.5094 7.49105C34.5534 7.55705 34.6047 7.61939 34.6634 7.67805C34.7734 7.77339 34.909 7.83205 35.0704 7.85405C35.239 7.86872 35.393 7.87605 35.5324 7.87605C35.635 7.87605 35.6864 7.93105 35.6864 8.04105C35.6864 8.15839 35.6204 8.21705 35.4884 8.21705C35.371 8.21705 35.25 8.21339 35.1254 8.20605C35.0007 8.19139 34.876 8.18405 34.7514 8.18405C34.6047 8.18405 34.4544 8.18405 34.3004 8.18405C34.1537 8.17672 34.007 8.17305 33.8604 8.17305C33.611 8.17305 33.3617 8.18405 33.1124 8.20605C32.8704 8.22072 32.621 8.22805 32.3644 8.22805C32.335 8.22805 32.302 8.21705 32.2654 8.19505C32.236 8.16572 32.2214 8.13272 32.2214 8.09605C32.2214 8.04472 32.225 8.00439 32.2324 7.97505C32.247 7.93839 32.2837 7.91639 32.3424 7.90905C32.401 7.89439 32.4634 7.88705 32.5294 7.88705C32.5954 7.87972 32.6577 7.87239 32.7164 7.86505C32.9877 7.80639 33.1564 7.70005 33.2224 7.54605C33.2957 7.38472 33.3324 7.17939 33.3324 6.93005V1.04505C33.3324 0.876388 33.2737 0.766388 33.1564 0.715054C33.039 0.663721 32.8997 0.638054 32.7384 0.638054C32.5844 0.638054 32.4524 0.638054 32.3424 0.638054C32.203 0.638054 32.1334 0.575721 32.1334 0.451054C32.1334 0.392387 32.1407 0.341054 32.1554 0.297054C32.1774 0.253054 32.2214 0.231054 32.2874 0.231054C32.4194 0.231054 32.5514 0.234721 32.6834 0.242054C32.8227 0.249388 32.9584 0.253054 33.0904 0.253054H35.0264C35.393 0.253054 35.7597 0.249388 36.1264 0.242054C36.5004 0.227388 36.8707 0.220055 37.2374 0.220055C37.5747 0.220055 37.912 0.209054 38.2494 0.187054C38.286 0.407054 38.3337 0.663721 38.3924 0.957054C38.4584 1.25039 38.4914 1.50339 38.4914 1.71605ZM47.5812 0.275055C47.5812 0.326388 47.5702 0.366721 47.5482 0.396054C47.5336 0.418054 47.4969 0.429054 47.4382 0.429054C47.3649 0.429054 47.2916 0.429054 47.2182 0.429054C47.1449 0.421721 47.0716 0.418055 46.9982 0.418055C46.9176 0.418055 46.8259 0.440055 46.7232 0.484054C46.6206 0.528054 46.5692 0.601388 46.5692 0.704054V7.64505C46.5692 7.74772 46.6206 7.82105 46.7232 7.86505C46.8259 7.90905 46.9176 7.93105 46.9982 7.93105C47.0789 7.93105 47.1559 7.92739 47.2292 7.92005C47.3099 7.91272 47.3869 7.90905 47.4602 7.90905C47.5262 7.90905 47.5592 7.94572 47.5592 8.01905C47.5592 8.04105 47.5592 8.06305 47.5592 8.08505C47.5592 8.09972 47.5592 8.11805 47.5592 8.14005C47.5592 8.19139 47.5336 8.21705 47.4822 8.21705C47.2256 8.21705 46.9652 8.20972 46.7012 8.19505C46.4446 8.18039 46.1842 8.17305 45.9202 8.17305C45.7736 8.17305 45.6232 8.17672 45.4692 8.18405C45.3226 8.19139 45.1759 8.19872 45.0292 8.20605C44.9339 8.21339 44.8386 8.22072 44.7432 8.22805C44.6552 8.23539 44.5636 8.23905 44.4682 8.23905C44.4242 8.23905 44.4022 8.20239 44.4022 8.12905C44.4022 8.09972 44.4059 8.05939 44.4132 8.00805C44.4206 7.94939 44.4426 7.92005 44.4792 7.92005C44.5599 7.92005 44.6442 7.92372 44.7322 7.93105C44.8202 7.93105 44.9046 7.93105 44.9852 7.93105C45.0659 7.93105 45.1612 7.90905 45.2712 7.86505C45.3812 7.82105 45.4362 7.74772 45.4362 7.64505V4.15805H41.0032V7.64505C41.0032 7.74772 41.0546 7.82105 41.1572 7.86505C41.2599 7.90905 41.3516 7.93105 41.4322 7.93105C41.5129 7.93105 41.5899 7.92739 41.6632 7.92005C41.7439 7.91272 41.8246 7.90905 41.9052 7.90905C41.9566 7.90905 41.9859 7.92739 41.9932 7.96405C42.0006 7.97139 42.0042 7.99339 42.0042 8.03005C42.0042 8.05939 42.0042 8.08139 42.0042 8.09605C42.0042 8.11805 41.9969 8.15105 41.9822 8.19505C41.9529 8.20972 41.9309 8.21705 41.9162 8.21705C41.6596 8.21705 41.4029 8.20972 41.1462 8.19505C40.8969 8.18039 40.6439 8.17305 40.3872 8.17305C40.2332 8.17305 40.0792 8.17672 39.9252 8.18405C39.7786 8.19139 39.6319 8.19872 39.4852 8.20605C39.3899 8.21339 39.2982 8.22072 39.2102 8.22805C39.1222 8.23539 39.0306 8.23905 38.9352 8.23905C38.8839 8.23905 38.8656 8.22072 38.8802 8.18405C38.8656 8.14005 38.8582 8.11439 38.8582 8.10705C38.8582 8.07772 38.8619 8.04105 38.8692 7.99705C38.8766 7.94572 38.9022 7.92005 38.9462 7.92005C39.0269 7.92005 39.1076 7.92372 39.1882 7.93105C39.2762 7.93105 39.3606 7.93105 39.4412 7.93105C39.5292 7.93105 39.6246 7.90905 39.7272 7.86505C39.8372 7.82105 39.8922 7.74772 39.8922 7.64505C39.8922 7.01439 39.8922 6.38372 39.8922 5.75305C39.8996 5.12239 39.9032 4.49539 39.9032 3.87205C39.9032 3.35139 39.8996 2.82705 39.8922 2.29905C39.8922 1.77105 39.8922 1.24672 39.8922 0.726055C39.8922 0.623388 39.8372 0.550054 39.7272 0.506054C39.6246 0.462054 39.5292 0.440054 39.4412 0.440054C39.3606 0.440054 39.2762 0.443721 39.1882 0.451054C39.1076 0.451054 39.0269 0.451054 38.9462 0.451054C38.8949 0.451054 38.8656 0.421721 38.8582 0.363054C38.8509 0.304388 38.8472 0.260388 38.8472 0.231054C38.8472 0.165054 38.8766 0.132054 38.9352 0.132054C39.0306 0.132054 39.1222 0.135721 39.2102 0.143054C39.2982 0.150387 39.3899 0.157721 39.4852 0.165055C39.6319 0.172388 39.7786 0.179721 39.9252 0.187054C40.0792 0.194388 40.2332 0.198054 40.3872 0.198054C40.6439 0.198054 40.9006 0.190721 41.1572 0.176054C41.4212 0.161388 41.6816 0.154054 41.9382 0.154054C41.9896 0.154054 42.0152 0.176054 42.0152 0.220055C42.0152 0.264054 42.0152 0.304388 42.0152 0.341054C42.0152 0.421721 41.9786 0.462054 41.9052 0.462054C41.8246 0.462054 41.7439 0.458387 41.6632 0.451054C41.5899 0.443721 41.5129 0.440054 41.4322 0.440054C41.3516 0.440054 41.2599 0.462054 41.1572 0.506054C41.0546 0.550054 41.0032 0.623388 41.0032 0.726055V3.79505H45.4362V0.814054C45.4362 0.667388 45.3959 0.568388 45.3152 0.517054C45.2346 0.465721 45.1246 0.440054 44.9852 0.440054C44.9046 0.440054 44.8202 0.443721 44.7322 0.451054C44.6442 0.451054 44.5599 0.451054 44.4792 0.451054C44.4352 0.451054 44.4096 0.429054 44.4022 0.385054C44.4022 0.333721 44.4022 0.293387 44.4022 0.264054C44.4022 0.176054 44.4316 0.132054 44.4902 0.132054C44.6662 0.132054 44.8459 0.139388 45.0292 0.154054C45.2199 0.168721 45.4069 0.176054 45.5902 0.176054H45.9202C46.1842 0.176054 46.4446 0.168721 46.7012 0.154054C46.9652 0.139388 47.2256 0.132054 47.4822 0.132054C47.5189 0.132054 47.5446 0.146721 47.5592 0.176054C47.5739 0.205388 47.5812 0.238388 47.5812 0.275055ZM53.6853 5.51105C53.6853 5.98039 53.5973 6.38739 53.4213 6.73205C53.2453 7.06939 53.0033 7.34805 52.6953 7.56805C52.3946 7.78805 52.05 7.95305 51.6613 8.06305C51.28 8.16572 50.8803 8.21705 50.4623 8.21705C50.2276 8.21705 49.982 8.19505 49.7253 8.15105C49.476 8.10705 49.2413 8.02639 49.0213 7.90905C48.8086 7.79172 48.64 7.62305 48.5153 7.40305C48.4126 7.23439 48.3613 7.04739 48.3613 6.84205C48.3613 6.67339 48.409 6.54872 48.5043 6.46805C48.607 6.38005 48.739 6.33605 48.9003 6.33605C49.1203 6.33605 49.2413 6.43505 49.2633 6.63305C49.2926 6.83839 49.3476 7.04005 49.4283 7.23805C49.5163 7.42872 49.6373 7.58639 49.7913 7.71105C49.9526 7.83572 50.1506 7.89805 50.3853 7.89805C51.148 7.89805 51.6906 7.71105 52.0133 7.33705C52.3433 6.95572 52.5083 6.39472 52.5083 5.65405C52.5083 5.16272 52.3763 4.75939 52.1123 4.44405C51.8556 4.12139 51.4743 3.96005 50.9683 3.96005C50.873 3.96005 50.7703 3.96739 50.6603 3.98205C50.5503 3.98939 50.4476 4.00405 50.3523 4.02605C50.301 4.03339 50.246 4.05172 50.1873 4.08105C50.1286 4.10305 50.07 4.11405 50.0113 4.11405C49.96 4.11405 49.927 4.09205 49.9123 4.04805C49.905 4.00405 49.9013 3.96372 49.9013 3.92705C49.9013 3.87572 49.9086 3.82072 49.9233 3.76205C49.938 3.70339 49.9783 3.67405 50.0443 3.67405C50.0663 3.67405 50.0883 3.67772 50.1103 3.68505C50.1396 3.68505 50.169 3.68505 50.1983 3.68505C50.345 3.68505 50.4916 3.68505 50.6383 3.68505C50.7923 3.67772 50.939 3.65572 51.0783 3.61905C51.489 3.50172 51.7786 3.31105 51.9473 3.04705C52.1233 2.77572 52.2113 2.43105 52.2113 2.01305C52.2113 1.72705 52.171 1.46672 52.0903 1.23205C52.017 0.997388 51.8886 0.810388 51.7053 0.671054C51.522 0.531721 51.269 0.462054 50.9463 0.462054C50.4623 0.462054 50.0956 0.612387 49.8463 0.913054C49.6043 1.20639 49.4833 1.58405 49.4833 2.04605C49.4833 2.20739 49.3953 2.28805 49.2193 2.28805C49.0506 2.28805 48.9076 2.24405 48.7903 2.15605C48.6803 2.06805 48.6253 1.93239 48.6253 1.74905C48.6253 1.66839 48.6546 1.55472 48.7133 1.40805C48.7793 1.26139 48.838 1.15505 48.8893 1.08905C49.168 0.729721 49.52 0.480388 49.9453 0.341054C50.378 0.201721 50.8106 0.132054 51.2433 0.132054C51.5806 0.132054 51.907 0.198054 52.2223 0.330054C52.5376 0.462055 52.798 0.656388 53.0033 0.913054C53.2086 1.16239 53.3113 1.47405 53.3113 1.84805C53.3113 2.11939 53.2343 2.37972 53.0803 2.62905C52.9336 2.87839 52.7613 3.08739 52.5633 3.25605C52.4093 3.39539 52.237 3.50539 52.0463 3.58605C51.8556 3.66672 51.665 3.73272 51.4743 3.78405C51.6136 3.79139 51.7823 3.80605 51.9803 3.82805C52.1856 3.85005 52.3506 3.88672 52.4753 3.93805C52.82 4.05539 53.106 4.25339 53.3333 4.53205C53.568 4.80339 53.6853 5.12972 53.6853 5.51105ZM60.1956 0.506054C59.9829 0.726054 59.7812 0.993721 59.5906 1.30905C59.4072 1.62439 59.2386 1.95072 59.0846 2.28805C58.9306 2.61805 58.7986 2.92972 58.6886 3.22305C58.4319 3.89772 58.2339 4.59072 58.0946 5.30205C57.9552 6.01339 57.8562 6.72839 57.7976 7.44705C57.7756 7.72572 57.7279 7.94939 57.6546 8.11805C57.5812 8.27939 57.3832 8.36005 57.0606 8.36005C56.8626 8.36005 56.7306 8.29039 56.6646 8.15105C56.6059 8.00439 56.5766 7.85039 56.5766 7.68905C56.5766 7.38105 56.6242 7.03272 56.7196 6.64405C56.8149 6.24805 56.9322 5.84105 57.0716 5.42305C57.2182 5.00505 57.3686 4.60539 57.5226 4.22405C57.6766 3.83539 57.8159 3.49805 57.9406 3.21205C58.1386 2.77205 58.3696 2.33572 58.6336 1.90305C58.9049 1.47039 59.1872 1.06339 59.4806 0.682055C58.7326 0.689388 57.9772 0.711388 57.2146 0.748054C57.0239 0.755388 56.8259 0.766388 56.6206 0.781055C56.4152 0.788388 56.2172 0.814054 56.0266 0.858054C55.7552 0.916721 55.5499 1.05605 55.4106 1.27605C55.2786 1.49605 55.1722 1.73072 55.0916 1.98005C55.0769 1.98739 55.0549 1.99105 55.0256 1.99105C54.9669 1.99105 54.9156 1.98005 54.8716 1.95805C54.9082 1.69405 54.9376 1.43005 54.9596 1.16605C54.9889 0.894721 55.0182 0.627054 55.0476 0.363054C55.0622 0.319054 55.0696 0.289721 55.0696 0.275055C55.0769 0.253054 55.1026 0.234721 55.1466 0.220055C55.2052 0.205388 55.2676 0.198054 55.3336 0.198054C55.7882 0.198054 56.2429 0.201721 56.6976 0.209054C57.1596 0.216388 57.6216 0.220055 58.0836 0.220055C58.4356 0.220055 58.7876 0.216388 59.1396 0.209054C59.4916 0.201721 59.8436 0.190721 60.1956 0.176054V0.506054Z" fill="black"/>
</svg>
