<svg width="32" height="12" viewBox="0 0 32 12" fill="none" xmlns="http://www.w3.org/2000/svg">
<path d="M10.932 8.63998C10.932 8.74398 10.884 8.79598 10.788 8.79598C10.492 8.79598 10.2 8.78798 9.912 8.77198C9.624 8.75598 9.336 8.74798 9.048 8.74798C8.912 8.74798 8.776 8.75198 8.64 8.75998C8.504 8.75998 8.368 8.76398 8.232 8.77198C8.096 8.77998 7.96 8.79198 7.824 8.80798C7.696 8.81598 7.564 8.81998 7.428 8.81998C7.356 8.81998 7.308 8.79998 7.284 8.75998C7.268 8.71198 7.26 8.65998 7.26 8.60398C7.26 8.57198 7.268 8.53998 7.284 8.50798C7.3 8.46798 7.328 8.44798 7.368 8.44798C7.392 8.43998 7.428 8.43598 7.476 8.43598C7.532 8.43598 7.588 8.43998 7.644 8.44798C7.708 8.44798 7.768 8.44798 7.824 8.44798C7.936 8.44798 8.06 8.43598 8.196 8.41198C8.34 8.38798 8.42 8.29998 8.436 8.14798C8.444 8.12398 8.444 8.09998 8.436 8.07598C8.436 8.05198 8.436 8.02798 8.436 8.00398V0.647983H8.364C8.06 1.47198 7.744 2.29198 7.416 3.10798C7.088 3.91598 6.76 4.72398 6.432 5.53198C6.304 5.85998 6.172 6.18798 6.036 6.51598C5.9 6.84398 5.764 7.17198 5.628 7.49998C5.572 7.64398 5.516 7.79198 5.46 7.94398C5.412 8.09598 5.352 8.23998 5.28 8.37598C5.224 8.46398 5.136 8.50798 5.016 8.50798C4.904 8.50798 4.82 8.46398 4.764 8.37598C4.7 8.25598 4.64 8.12798 4.584 7.99198C4.536 7.85598 4.484 7.72398 4.428 7.59598C4.308 7.31598 4.192 7.03998 4.08 6.76798C3.968 6.49598 3.856 6.22398 3.744 5.95198C3.376 5.07198 3.008 4.19598 2.64 3.32398C2.28 2.44398 1.92 1.56798 1.56 0.695983C1.56 1.93598 1.56 3.17998 1.56 4.42798C1.568 5.66798 1.572 6.90798 1.572 8.14798C1.572 8.30798 1.64 8.39998 1.776 8.42398C1.92 8.44798 2.052 8.45998 2.172 8.45998C2.252 8.45998 2.332 8.45598 2.412 8.44798C2.492 8.43998 2.572 8.43598 2.652 8.43598C2.692 8.43598 2.712 8.45998 2.712 8.50798C2.712 8.54798 2.708 8.60398 2.7 8.67598C2.692 8.74798 2.66 8.78398 2.604 8.78398C2.388 8.78398 2.168 8.77998 1.944 8.77198C1.728 8.75598 1.512 8.74798 1.296 8.74798C1.088 8.74798 0.875999 8.75598 0.659999 8.77198C0.451999 8.77998 0.243999 8.78398 0.035999 8.78398C0.027999 8.76798 0.019999 8.75598 0.011999 8.74798C0.011999 8.73198 0.00799903 8.71998 -9.53674e-07 8.71198V8.60398C-9.53674e-07 8.52398 0.015999 8.47998 0.047999 8.47198C0.079999 8.46398 0.123999 8.45998 0.179999 8.45998C0.243999 8.45998 0.303999 8.46398 0.359999 8.47198C0.415999 8.47198 0.471999 8.47198 0.527999 8.47198C0.647999 8.47198 0.775999 8.45598 0.911999 8.42398C1.048 8.39198 1.12 8.29998 1.128 8.14798C1.144 8.01998 1.148 7.89198 1.14 7.76398C1.14 7.62798 1.14 7.49598 1.14 7.36798C1.14 7.11198 1.136 6.85598 1.128 6.59998C1.128 6.33598 1.128 6.07598 1.128 5.81998C1.128 4.96398 1.132 4.11198 1.14 3.26398C1.156 2.41598 1.164 1.56798 1.164 0.719983C1.164 0.567983 1.092 0.467983 0.947999 0.419983C0.803999 0.371983 0.671999 0.347983 0.551999 0.347983C0.479999 0.347983 0.407999 0.351983 0.335999 0.359983C0.263999 0.367983 0.191999 0.371983 0.119999 0.371983C0.071999 0.371983 0.039999 0.347983 0.023999 0.299983C0.00799904 0.251983 -9.53674e-07 0.211983 -9.53674e-07 0.179983C-9.53674e-07 0.0679829 0.043999 0.0119829 0.131999 0.0119829C0.339999 0.0119829 0.551999 0.0199831 0.767999 0.0359833C0.983999 0.0439832 1.196 0.0479832 1.404 0.0479832C1.812 0.0479832 2.22 0.0359831 2.628 0.0119829L5.472 6.85198C5.912 5.70798 6.372 4.57598 6.852 3.45598C7.332 2.32798 7.776 1.18798 8.184 0.0359833C8.384 0.0439832 8.58 0.0519831 8.772 0.059983C8.972 0.059983 9.172 0.059983 9.372 0.059983C9.612 0.059983 9.848 0.0519831 10.08 0.0359833C10.32 0.0119832 10.56 -1.69277e-05 10.8 -1.69277e-05C10.848 -1.69277e-05 10.876 0.023983 10.884 0.0719829C10.892 0.119983 10.896 0.159983 10.896 0.191983C10.896 0.223983 10.892 0.263983 10.884 0.311983C10.876 0.359983 10.848 0.383983 10.8 0.383983C10.696 0.383983 10.596 0.379983 10.5 0.371983C10.404 0.363983 10.308 0.359983 10.212 0.359983C10.116 0.359983 9.996 0.383983 9.852 0.431983C9.716 0.471983 9.648 0.551983 9.648 0.671983V8.05198C9.648 8.23598 9.7 8.35198 9.804 8.39998C9.916 8.43998 10.056 8.45998 10.224 8.45998C10.32 8.45998 10.416 8.45598 10.512 8.44798C10.608 8.43998 10.708 8.43598 10.812 8.43598C10.876 8.43598 10.912 8.45998 10.92 8.50798C10.928 8.55598 10.932 8.59998 10.932 8.63998ZM15.4352 7.40398C15.4032 7.04398 15.3832 6.68398 15.3752 6.32398C15.3752 5.95598 15.3712 5.58798 15.3632 5.21998H15.1952C14.9472 5.21998 14.6712 5.25998 14.3672 5.33998C14.0712 5.41198 13.7872 5.52398 13.5152 5.67598C13.2432 5.82798 13.0192 6.01998 12.8432 6.25198C12.6752 6.47598 12.5912 6.73598 12.5912 7.03198C12.5912 7.41598 12.6992 7.70798 12.9152 7.90798C13.1312 8.09998 13.4232 8.19598 13.7912 8.19598C13.9672 8.19598 14.1592 8.15598 14.3672 8.07598C14.5752 7.98798 14.7752 7.88398 14.9672 7.76398C15.1592 7.64398 15.3152 7.52398 15.4352 7.40398ZM17.5352 8.17198C17.5352 8.20398 17.5312 8.22798 17.5232 8.24398C17.4432 8.41998 17.3072 8.55598 17.1152 8.65198C16.9312 8.73998 16.7472 8.78398 16.5632 8.78398C16.2272 8.78398 15.9832 8.68798 15.8312 8.49598C15.6872 8.29598 15.5712 8.05198 15.4832 7.76398C15.1792 8.04398 14.8432 8.27998 14.4752 8.47198C14.1072 8.65598 13.7112 8.74798 13.2872 8.74798C12.9912 8.74798 12.7112 8.69198 12.4472 8.57998C12.1912 8.45998 11.9832 8.28798 11.8232 8.06398C11.6632 7.83998 11.5832 7.56798 11.5832 7.24798C11.5832 6.91198 11.6672 6.62398 11.8352 6.38398C12.0112 6.13598 12.2312 5.92798 12.4952 5.75998C12.7672 5.58398 13.0552 5.44398 13.3592 5.33998C13.6712 5.22798 13.9632 5.14398 14.2352 5.08798C14.4192 5.04798 14.6072 5.01198 14.7992 4.97998C14.9912 4.94798 15.1792 4.91598 15.3632 4.88398C15.3632 4.65998 15.3512 4.39998 15.3272 4.10398C15.3112 3.80798 15.2512 3.56398 15.1472 3.37198C15.0432 3.18798 14.9032 3.02398 14.7272 2.87998C14.5512 2.73598 14.3552 2.66398 14.1392 2.66398C13.7712 2.66398 13.4832 2.75998 13.2752 2.95198C13.0672 3.14398 12.9192 3.41598 12.8312 3.76798C12.8232 3.80798 12.8152 3.85198 12.8072 3.89998C12.8072 3.93998 12.8032 3.97998 12.7952 4.01998C12.7872 4.06798 12.7552 4.11198 12.6992 4.15198C12.6512 4.18398 12.5992 4.19998 12.5432 4.19998C12.3912 4.19998 12.2512 4.16398 12.1232 4.09198C12.0032 4.01998 11.9432 3.89998 11.9432 3.73198C11.9432 3.63598 11.9592 3.55198 11.9912 3.47998C12.0952 3.23198 12.2632 3.02798 12.4952 2.86798C12.7272 2.69998 12.9832 2.57198 13.2632 2.48398C13.5512 2.39598 13.8192 2.35198 14.0672 2.35198C14.4992 2.35198 14.8912 2.43198 15.2432 2.59198C15.5952 2.75198 15.8752 2.98798 16.0832 3.29998C16.2992 3.60398 16.4072 3.98798 16.4072 4.45198C16.4072 4.97198 16.4032 5.49598 16.3952 6.02398C16.3952 6.55198 16.4112 7.07998 16.4432 7.60798C16.4512 7.78398 16.4872 7.93998 16.5512 8.07598C16.6152 8.20398 16.7472 8.26798 16.9472 8.26798C17.0512 8.26798 17.1592 8.24398 17.2712 8.19598C17.3912 8.13998 17.4672 8.11198 17.4992 8.11198C17.5232 8.11198 17.5352 8.13198 17.5352 8.17198ZM23.2225 5.37598C23.2225 5.10398 23.2065 4.81998 23.1745 4.52398C23.1425 4.21998 23.0745 3.93598 22.9705 3.67198C22.8665 3.40798 22.7105 3.19598 22.5025 3.03598C22.2945 2.86798 22.0105 2.78398 21.6505 2.78398C21.4345 2.78398 21.2025 2.83998 20.9545 2.95198C20.7145 3.05598 20.5025 3.19998 20.3185 3.38398C20.1425 3.56798 20.0425 3.77998 20.0185 4.01998C20.0025 4.26798 19.9945 4.51998 19.9945 4.77598C19.9945 5.03198 19.9945 5.28798 19.9945 5.54398C19.9945 5.76798 19.9945 5.99598 19.9945 6.22798C20.0025 6.45198 20.0105 6.67998 20.0185 6.91198C20.0425 7.31998 20.1745 7.66798 20.4145 7.95598C20.6545 8.23598 20.9945 8.37598 21.4345 8.37598C21.8505 8.37598 22.1785 8.28398 22.4185 8.09998C22.6585 7.90798 22.8345 7.65998 22.9465 7.35598C23.0665 7.05198 23.1425 6.72798 23.1745 6.38398C23.2065 6.03198 23.2225 5.69598 23.2225 5.37598ZM24.4585 5.38798C24.4585 6.01198 24.3465 6.57598 24.1225 7.07998C23.8985 7.58398 23.5625 7.98398 23.1145 8.27998C22.6745 8.56798 22.1225 8.71198 21.4585 8.71198C21.2025 8.71198 20.9385 8.64798 20.6665 8.51998C20.4025 8.38398 20.1785 8.22798 19.9945 8.05198V10.608C19.9945 10.72 20.0385 10.784 20.1265 10.8C20.2225 10.816 20.3105 10.824 20.3905 10.824C20.4625 10.824 20.5345 10.82 20.6065 10.812C20.6785 10.804 20.7505 10.8 20.8225 10.8C20.9265 10.8 20.9785 10.852 20.9785 10.956C20.9785 11.076 20.9185 11.136 20.7985 11.136C20.5505 11.136 20.3025 11.128 20.0545 11.112C19.8065 11.096 19.5585 11.088 19.3105 11.088C19.1025 11.088 18.8945 11.096 18.6865 11.112C18.4865 11.128 18.2825 11.136 18.0745 11.136C18.0185 11.136 17.9825 11.116 17.9665 11.076C17.9585 11.036 17.9545 11 17.9545 10.968C17.9545 10.856 18.0105 10.8 18.1225 10.8C18.1865 10.8 18.2505 10.8 18.3145 10.8C18.3785 10.808 18.4425 10.812 18.5065 10.812C18.5625 10.812 18.6425 10.804 18.7465 10.788C18.8585 10.772 18.9145 10.724 18.9145 10.644C18.9145 9.81198 18.9145 8.97598 18.9145 8.13598C18.9225 7.29598 18.9265 6.45998 18.9265 5.62798C18.9265 5.25198 18.9225 4.87998 18.9145 4.51198C18.9145 4.14398 18.9105 3.77598 18.9025 3.40798C18.8945 3.23198 18.8625 3.11198 18.8065 3.04798C18.7505 2.97598 18.6305 2.93998 18.4465 2.93998C18.3665 2.93998 18.2865 2.95198 18.2065 2.97598C18.1265 2.99198 18.0465 2.99998 17.9665 2.99998C17.8785 2.99998 17.8345 2.95998 17.8345 2.87998C17.8345 2.80798 17.8705 2.75998 17.9425 2.73598C17.9585 2.72798 18.0305 2.71198 18.1585 2.68798C18.2865 2.66398 18.4385 2.63598 18.6145 2.60398C18.7985 2.56398 18.9785 2.52798 19.1545 2.49598C19.3305 2.46398 19.4785 2.43598 19.5985 2.41198C19.7185 2.38798 19.7825 2.37598 19.7905 2.37598C19.8545 2.37598 19.8985 2.41598 19.9225 2.49598C19.9385 2.54398 19.9465 2.63198 19.9465 2.75998C19.9545 2.87998 19.9585 3.00398 19.9585 3.13198C19.9585 3.25198 19.9585 3.34398 19.9585 3.40798C20.1825 3.11198 20.4665 2.86798 20.8105 2.67598C21.1625 2.47598 21.5265 2.37598 21.9025 2.37598C22.4545 2.37598 22.9185 2.52398 23.2945 2.81998C23.6785 3.10798 23.9665 3.48398 24.1585 3.94798C24.3585 4.40398 24.4585 4.88398 24.4585 5.38798ZM29.2633 7.40398C29.2313 7.04398 29.2113 6.68398 29.2033 6.32398C29.2033 5.95598 29.1993 5.58798 29.1913 5.21998H29.0233C28.7753 5.21998 28.4993 5.25998 28.1953 5.33998C27.8993 5.41198 27.6153 5.52398 27.3433 5.67598C27.0713 5.82798 26.8473 6.01998 26.6713 6.25198C26.5033 6.47598 26.4193 6.73598 26.4193 7.03198C26.4193 7.41598 26.5273 7.70798 26.7433 7.90798C26.9593 8.09998 27.2513 8.19598 27.6193 8.19598C27.7953 8.19598 27.9873 8.15598 28.1953 8.07598C28.4033 7.98798 28.6033 7.88398 28.7953 7.76398C28.9873 7.64398 29.1433 7.52398 29.2633 7.40398ZM31.3633 8.17198C31.3633 8.20398 31.3593 8.22798 31.3513 8.24398C31.2713 8.41998 31.1353 8.55598 30.9433 8.65198C30.7593 8.73998 30.5753 8.78398 30.3913 8.78398C30.0553 8.78398 29.8113 8.68798 29.6593 8.49598C29.5153 8.29598 29.3993 8.05198 29.3113 7.76398C29.0073 8.04398 28.6713 8.27998 28.3033 8.47198C27.9353 8.65598 27.5393 8.74798 27.1153 8.74798C26.8193 8.74798 26.5393 8.69198 26.2753 8.57998C26.0193 8.45998 25.8113 8.28798 25.6513 8.06398C25.4913 7.83998 25.4113 7.56798 25.4113 7.24798C25.4113 6.91198 25.4953 6.62398 25.6633 6.38398C25.8393 6.13598 26.0593 5.92798 26.3233 5.75998C26.5953 5.58398 26.8833 5.44398 27.1873 5.33998C27.4993 5.22798 27.7913 5.14398 28.0633 5.08798C28.2473 5.04798 28.4353 5.01198 28.6273 4.97998C28.8193 4.94798 29.0073 4.91598 29.1913 4.88398C29.1913 4.65998 29.1793 4.39998 29.1553 4.10398C29.1393 3.80798 29.0793 3.56398 28.9753 3.37198C28.8713 3.18798 28.7313 3.02398 28.5553 2.87998C28.3793 2.73598 28.1833 2.66398 27.9673 2.66398C27.5993 2.66398 27.3113 2.75998 27.1033 2.95198C26.8953 3.14398 26.7473 3.41598 26.6593 3.76798C26.6513 3.80798 26.6433 3.85198 26.6353 3.89998C26.6353 3.93998 26.6313 3.97998 26.6233 4.01998C26.6153 4.06798 26.5833 4.11198 26.5273 4.15198C26.4793 4.18398 26.4273 4.19998 26.3713 4.19998C26.2193 4.19998 26.0793 4.16398 25.9513 4.09198C25.8313 4.01998 25.7713 3.89998 25.7713 3.73198C25.7713 3.63598 25.7873 3.55198 25.8193 3.47998C25.9233 3.23198 26.0913 3.02798 26.3233 2.86798C26.5553 2.69998 26.8113 2.57198 27.0913 2.48398C27.3793 2.39598 27.6473 2.35198 27.8953 2.35198C28.3273 2.35198 28.7193 2.43198 29.0713 2.59198C29.4233 2.75198 29.7033 2.98798 29.9113 3.29998C30.1273 3.60398 30.2353 3.98798 30.2353 4.45198C30.2353 4.97198 30.2313 5.49598 30.2233 6.02398C30.2233 6.55198 30.2393 7.07998 30.2713 7.60798C30.2793 7.78398 30.3153 7.93998 30.3793 8.07598C30.4433 8.20398 30.5753 8.26798 30.7753 8.26798C30.8793 8.26798 30.9873 8.24398 31.0993 8.19598C31.2193 8.13998 31.2953 8.11198 31.3273 8.11198C31.3513 8.11198 31.3633 8.13198 31.3633 8.17198Z" fill="#8A7268"/>
</svg>
