<svg width="81" height="18" viewBox="0 0 81 18" fill="none" xmlns="http://www.w3.org/2000/svg">
<mask id="path-1-outside-1_22_672" maskUnits="userSpaceOnUse" x="-0.186035" y="-0.430115" width="81" height="18" fill="black">
<rect fill="white" x="-0.186035" y="-0.430115" width="81" height="18"/>
<path d="M4.38108 13.7489C3.63108 13.7489 2.95566 13.5997 2.3548 13.3014C1.75395 13.0031 1.27242 12.594 0.910201 12.0741C0.547985 11.5543 0.349831 10.9619 0.31574 10.2972H1.84983C1.90949 10.8895 2.17796 11.3795 2.65523 11.7673C3.13676 12.1509 3.71205 12.3426 4.38108 12.3426C4.91801 12.3426 5.39529 12.2169 5.8129 11.9655C6.23477 11.7141 6.56503 11.3689 6.80367 10.93C7.04656 10.4868 7.16801 9.98608 7.16801 9.42784C7.16801 8.85682 7.0423 8.34758 6.79088 7.90014C6.54372 7.44844 6.20281 7.09261 5.76816 6.83267C5.3335 6.57273 4.83705 6.44062 4.27881 6.43636C3.87824 6.4321 3.46702 6.49389 3.04514 6.62173C2.62327 6.74531 2.27597 6.90511 2.00324 7.10114L0.520286 6.92216L1.3129 0.478976H8.11404V1.88523H2.64245L2.18222 5.74602H2.25892C2.52739 5.53295 2.86404 5.35611 3.26887 5.21548C3.67369 5.07486 4.09557 5.00454 4.53449 5.00454C5.33563 5.00454 6.04941 5.19631 6.67583 5.57983C7.30651 5.95909 7.80083 6.47898 8.15878 7.13949C8.521 7.8 8.7021 8.55426 8.7021 9.40227C8.7021 10.2375 8.5146 10.9832 8.1396 11.6395C7.76887 12.2915 7.2575 12.8071 6.60551 13.1864C5.95352 13.5614 5.21205 13.7489 4.38108 13.7489ZM10.9345 10.8852V9.58125L16.6874 0.478976H17.6334V2.49886H16.9942L12.6476 9.3767V9.47898H20.3948V10.8852H10.9345ZM17.0965 13.5699V10.4889V9.88167V0.478976H18.605V13.5699H17.0965ZM24.4505 11.7801L24.3482 12.4705C24.2758 12.9562 24.165 13.4761 24.0158 14.0301C23.871 14.5841 23.7197 15.1061 23.562 15.5962C23.4043 16.0862 23.2744 16.4761 23.1721 16.7659H22.0215C22.0769 16.4932 22.1494 16.1331 22.2389 15.6857C22.3283 15.2382 22.4178 14.7375 22.5073 14.1835C22.6011 13.6338 22.6778 13.0713 22.7374 12.496L22.8141 11.7801H24.4505ZM31.0471 13.7489C30.2971 13.7489 29.6217 13.5997 29.0208 13.3014C28.42 13.0031 27.9384 12.594 27.5762 12.0741C27.214 11.5543 27.0158 10.9619 26.9818 10.2972H28.5158C28.5755 10.8895 28.844 11.3795 29.3212 11.7673C29.8028 12.1509 30.3781 12.3426 31.0471 12.3426C31.584 12.3426 32.0613 12.2169 32.4789 11.9655C32.9008 11.7141 33.231 11.3689 33.4697 10.93C33.7126 10.4868 33.834 9.98608 33.834 9.42784C33.834 8.85682 33.7083 8.34758 33.4569 7.90014C33.2097 7.44844 32.8688 7.09261 32.4342 6.83267C31.9995 6.57273 31.5031 6.44062 30.9448 6.43636C30.5443 6.4321 30.133 6.49389 29.7112 6.62173C29.2893 6.74531 28.942 6.90511 28.6693 7.10114L27.1863 6.92216L27.9789 0.478976H34.7801V1.88523H29.3085L28.8482 5.74602H28.9249C29.1934 5.53295 29.5301 5.35611 29.9349 5.21548C30.3397 5.07486 30.7616 5.00454 31.2005 5.00454C32.0016 5.00454 32.7154 5.19631 33.3418 5.57983C33.9725 5.95909 34.4668 6.47898 34.8248 7.13949C35.187 7.8 35.3681 8.55426 35.3681 9.40227C35.3681 10.2375 35.1806 10.9832 34.8056 11.6395C34.4349 12.2915 33.9235 12.8071 33.2715 13.1864C32.6195 13.5614 31.8781 13.7489 31.0471 13.7489ZM42.1772 13.7489C41.2142 13.7489 40.3939 13.4868 39.7163 12.9626C39.0388 12.4342 38.521 11.6693 38.163 10.6679C37.8051 9.66221 37.6261 8.44773 37.6261 7.02443C37.6261 5.60966 37.8051 4.40156 38.163 3.40014C38.5253 2.39446 39.0451 1.62741 39.7227 1.099C40.4045 0.566334 41.2227 0.299998 42.1772 0.299998C43.1318 0.299998 43.9478 0.566334 44.6254 1.099C45.3072 1.62741 45.8271 2.39446 46.1851 3.40014C46.5473 4.40156 46.7284 5.60966 46.7284 7.02443C46.7284 8.44773 46.5494 9.66221 46.1915 10.6679C45.8335 11.6693 45.3157 12.4342 44.6382 12.9626C43.9606 13.4868 43.1403 13.7489 42.1772 13.7489ZM42.1772 12.3426C43.1318 12.3426 43.8733 11.8824 44.4017 10.9619C44.9301 10.0415 45.1943 8.72898 45.1943 7.02443C45.1943 5.89091 45.0728 4.92571 44.8299 4.12883C44.5913 3.33196 44.2461 2.72471 43.7944 2.3071C43.347 1.88949 42.8079 1.68068 42.1772 1.68068C41.2312 1.68068 40.4919 2.1473 39.9592 3.08054C39.4265 4.00952 39.1602 5.32415 39.1602 7.02443C39.1602 8.15795 39.2795 9.12102 39.5182 9.91364C39.7568 10.7062 40.0998 11.3092 40.5473 11.7226C40.999 12.1359 41.5423 12.3426 42.1772 12.3426ZM63.0409 0.478976H64.6261V9.14659C64.6261 10.0415 64.4152 10.8405 63.9933 11.5436C63.5757 12.2425 62.9855 12.7943 62.2227 13.1991C61.4599 13.5997 60.565 13.8 59.538 13.8C58.5111 13.8 57.6162 13.5997 56.8534 13.1991C56.0906 12.7943 55.4983 12.2425 55.0764 11.5436C54.6588 10.8405 54.45 10.0415 54.45 9.14659V0.478976H56.0352V9.01875C56.0352 9.65795 56.1758 10.2268 56.4571 10.7254C56.7383 11.2197 57.1389 11.6097 57.6588 11.8952C58.1829 12.1764 58.8093 12.317 59.538 12.317C60.2667 12.317 60.8932 12.1764 61.4173 11.8952C61.9415 11.6097 62.342 11.2197 62.619 10.7254C62.9003 10.2268 63.0409 9.65795 63.0409 9.01875V0.478976ZM69.0957 7.66364V13.5699H67.5872V3.7517H69.0446V5.28579H69.1725C69.4026 4.78721 69.752 4.38665 70.2207 4.08409C70.6895 3.77727 71.2946 3.62386 72.0361 3.62386C72.7009 3.62386 73.2825 3.76023 73.7811 4.03295C74.2797 4.30142 74.6675 4.71051 74.9445 5.26023C75.2215 5.80568 75.36 6.49602 75.36 7.33125V13.5699H73.8514V7.43352C73.8514 6.66221 73.6511 6.06136 73.2506 5.63096C72.85 5.19631 72.3003 4.97898 71.6014 4.97898C71.1199 4.97898 70.6895 5.08338 70.3102 5.29219C69.9352 5.50099 69.6391 5.80568 69.4217 6.20625C69.2044 6.60682 69.0957 7.09261 69.0957 7.66364ZM79.216 13.6722C78.9006 13.6722 78.63 13.5592 78.4042 13.3334C78.1783 13.1075 78.0654 12.8369 78.0654 12.5216C78.0654 12.2062 78.1783 11.9357 78.4042 11.7098C78.63 11.4839 78.9006 11.371 79.216 11.371C79.5313 11.371 79.8019 11.4839 80.0277 11.7098C80.2536 11.9357 80.3665 12.2062 80.3665 12.5216C80.3665 12.7304 80.3133 12.9222 80.2067 13.0969C80.1044 13.2716 79.966 13.4122 79.7912 13.5187C79.6208 13.621 79.429 13.6722 79.216 13.6722Z"/>
</mask>
<path d="M4.38108 13.7489C3.63108 13.7489 2.95566 13.5997 2.3548 13.3014C1.75395 13.0031 1.27242 12.594 0.910201 12.0741C0.547985 11.5543 0.349831 10.9619 0.31574 10.2972H1.84983C1.90949 10.8895 2.17796 11.3795 2.65523 11.7673C3.13676 12.1509 3.71205 12.3426 4.38108 12.3426C4.91801 12.3426 5.39529 12.2169 5.8129 11.9655C6.23477 11.7141 6.56503 11.3689 6.80367 10.93C7.04656 10.4868 7.16801 9.98608 7.16801 9.42784C7.16801 8.85682 7.0423 8.34758 6.79088 7.90014C6.54372 7.44844 6.20281 7.09261 5.76816 6.83267C5.3335 6.57273 4.83705 6.44062 4.27881 6.43636C3.87824 6.4321 3.46702 6.49389 3.04514 6.62173C2.62327 6.74531 2.27597 6.90511 2.00324 7.10114L0.520286 6.92216L1.3129 0.478976H8.11404V1.88523H2.64245L2.18222 5.74602H2.25892C2.52739 5.53295 2.86404 5.35611 3.26887 5.21548C3.67369 5.07486 4.09557 5.00454 4.53449 5.00454C5.33563 5.00454 6.04941 5.19631 6.67583 5.57983C7.30651 5.95909 7.80083 6.47898 8.15878 7.13949C8.521 7.8 8.7021 8.55426 8.7021 9.40227C8.7021 10.2375 8.5146 10.9832 8.1396 11.6395C7.76887 12.2915 7.2575 12.8071 6.60551 13.1864C5.95352 13.5614 5.21205 13.7489 4.38108 13.7489ZM10.9345 10.8852V9.58125L16.6874 0.478976H17.6334V2.49886H16.9942L12.6476 9.3767V9.47898H20.3948V10.8852H10.9345ZM17.0965 13.5699V10.4889V9.88167V0.478976H18.605V13.5699H17.0965ZM24.4505 11.7801L24.3482 12.4705C24.2758 12.9562 24.165 13.4761 24.0158 14.0301C23.871 14.5841 23.7197 15.1061 23.562 15.5962C23.4043 16.0862 23.2744 16.4761 23.1721 16.7659H22.0215C22.0769 16.4932 22.1494 16.1331 22.2389 15.6857C22.3283 15.2382 22.4178 14.7375 22.5073 14.1835C22.6011 13.6338 22.6778 13.0713 22.7374 12.496L22.8141 11.7801H24.4505ZM31.0471 13.7489C30.2971 13.7489 29.6217 13.5997 29.0208 13.3014C28.42 13.0031 27.9384 12.594 27.5762 12.0741C27.214 11.5543 27.0158 10.9619 26.9818 10.2972H28.5158C28.5755 10.8895 28.844 11.3795 29.3212 11.7673C29.8028 12.1509 30.3781 12.3426 31.0471 12.3426C31.584 12.3426 32.0613 12.2169 32.4789 11.9655C32.9008 11.7141 33.231 11.3689 33.4697 10.93C33.7126 10.4868 33.834 9.98608 33.834 9.42784C33.834 8.85682 33.7083 8.34758 33.4569 7.90014C33.2097 7.44844 32.8688 7.09261 32.4342 6.83267C31.9995 6.57273 31.5031 6.44062 30.9448 6.43636C30.5443 6.4321 30.133 6.49389 29.7112 6.62173C29.2893 6.74531 28.942 6.90511 28.6693 7.10114L27.1863 6.92216L27.9789 0.478976H34.7801V1.88523H29.3085L28.8482 5.74602H28.9249C29.1934 5.53295 29.5301 5.35611 29.9349 5.21548C30.3397 5.07486 30.7616 5.00454 31.2005 5.00454C32.0016 5.00454 32.7154 5.19631 33.3418 5.57983C33.9725 5.95909 34.4668 6.47898 34.8248 7.13949C35.187 7.8 35.3681 8.55426 35.3681 9.40227C35.3681 10.2375 35.1806 10.9832 34.8056 11.6395C34.4349 12.2915 33.9235 12.8071 33.2715 13.1864C32.6195 13.5614 31.8781 13.7489 31.0471 13.7489ZM42.1772 13.7489C41.2142 13.7489 40.3939 13.4868 39.7163 12.9626C39.0388 12.4342 38.521 11.6693 38.163 10.6679C37.8051 9.66221 37.6261 8.44773 37.6261 7.02443C37.6261 5.60966 37.8051 4.40156 38.163 3.40014C38.5253 2.39446 39.0451 1.62741 39.7227 1.099C40.4045 0.566334 41.2227 0.299998 42.1772 0.299998C43.1318 0.299998 43.9478 0.566334 44.6254 1.099C45.3072 1.62741 45.8271 2.39446 46.1851 3.40014C46.5473 4.40156 46.7284 5.60966 46.7284 7.02443C46.7284 8.44773 46.5494 9.66221 46.1915 10.6679C45.8335 11.6693 45.3157 12.4342 44.6382 12.9626C43.9606 13.4868 43.1403 13.7489 42.1772 13.7489ZM42.1772 12.3426C43.1318 12.3426 43.8733 11.8824 44.4017 10.9619C44.9301 10.0415 45.1943 8.72898 45.1943 7.02443C45.1943 5.89091 45.0728 4.92571 44.8299 4.12883C44.5913 3.33196 44.2461 2.72471 43.7944 2.3071C43.347 1.88949 42.8079 1.68068 42.1772 1.68068C41.2312 1.68068 40.4919 2.1473 39.9592 3.08054C39.4265 4.00952 39.1602 5.32415 39.1602 7.02443C39.1602 8.15795 39.2795 9.12102 39.5182 9.91364C39.7568 10.7062 40.0998 11.3092 40.5473 11.7226C40.999 12.1359 41.5423 12.3426 42.1772 12.3426ZM63.0409 0.478976H64.6261V9.14659C64.6261 10.0415 64.4152 10.8405 63.9933 11.5436C63.5757 12.2425 62.9855 12.7943 62.2227 13.1991C61.4599 13.5997 60.565 13.8 59.538 13.8C58.5111 13.8 57.6162 13.5997 56.8534 13.1991C56.0906 12.7943 55.4983 12.2425 55.0764 11.5436C54.6588 10.8405 54.45 10.0415 54.45 9.14659V0.478976H56.0352V9.01875C56.0352 9.65795 56.1758 10.2268 56.4571 10.7254C56.7383 11.2197 57.1389 11.6097 57.6588 11.8952C58.1829 12.1764 58.8093 12.317 59.538 12.317C60.2667 12.317 60.8932 12.1764 61.4173 11.8952C61.9415 11.6097 62.342 11.2197 62.619 10.7254C62.9003 10.2268 63.0409 9.65795 63.0409 9.01875V0.478976ZM69.0957 7.66364V13.5699H67.5872V3.7517H69.0446V5.28579H69.1725C69.4026 4.78721 69.752 4.38665 70.2207 4.08409C70.6895 3.77727 71.2946 3.62386 72.0361 3.62386C72.7009 3.62386 73.2825 3.76023 73.7811 4.03295C74.2797 4.30142 74.6675 4.71051 74.9445 5.26023C75.2215 5.80568 75.36 6.49602 75.36 7.33125V13.5699H73.8514V7.43352C73.8514 6.66221 73.6511 6.06136 73.2506 5.63096C72.85 5.19631 72.3003 4.97898 71.6014 4.97898C71.1199 4.97898 70.6895 5.08338 70.3102 5.29219C69.9352 5.50099 69.6391 5.80568 69.4217 6.20625C69.2044 6.60682 69.0957 7.09261 69.0957 7.66364ZM79.216 13.6722C78.9006 13.6722 78.63 13.5592 78.4042 13.3334C78.1783 13.1075 78.0654 12.8369 78.0654 12.5216C78.0654 12.2062 78.1783 11.9357 78.4042 11.7098C78.63 11.4839 78.9006 11.371 79.216 11.371C79.5313 11.371 79.8019 11.4839 80.0277 11.7098C80.2536 11.9357 80.3665 12.2062 80.3665 12.5216C80.3665 12.7304 80.3133 12.9222 80.2067 13.0969C80.1044 13.2716 79.966 13.4122 79.7912 13.5187C79.6208 13.621 79.429 13.6722 79.216 13.6722Z" fill="#1C2434"/>
<path d="M2.3548 13.3014L2.2214 13.5701V13.5701L2.3548 13.3014ZM0.910201 12.0741L1.15635 11.9026V11.9026L0.910201 12.0741ZM0.315741 10.2972V9.99716H-3.8147e-05L0.0161343 10.3125L0.315741 10.2972ZM1.84983 10.2972L2.14832 10.2671L2.12113 9.99716H1.84983V10.2972ZM2.65523 11.7673L2.46604 12.0002L2.46833 12.002L2.65523 11.7673ZM5.8129 11.9655L5.65932 11.7078L5.65816 11.7085L5.8129 11.9655ZM6.80367 10.93L6.54059 10.7858L6.5401 10.7867L6.80367 10.93ZM6.79088 7.90014L6.52769 8.04415L6.52934 8.0471L6.79088 7.90014ZM4.27881 6.43636L4.27562 6.73635L4.27652 6.73635L4.27881 6.43636ZM3.04514 6.62173L3.12948 6.90965L3.13215 6.90884L3.04514 6.62173ZM2.00324 7.10114L1.96729 7.39897L2.08338 7.41298L2.17833 7.34474L2.00324 7.10114ZM0.520286 6.92216L0.22253 6.88553L0.185818 7.18397L0.48434 7.22L0.520286 6.92216ZM1.3129 0.478975V0.178976H1.04754L1.01514 0.442348L1.3129 0.478975ZM8.11404 0.478975H8.41404V0.178976H8.11404V0.478975ZM8.11404 1.88523V2.18523H8.41404V1.88523H8.11404ZM2.64244 1.88523V1.58523H2.37608L2.34455 1.84972L2.64244 1.88523ZM2.18222 5.74602L1.88433 5.71051L1.84433 6.04602H2.18222V5.74602ZM2.25892 5.74602V6.04602H2.3635L2.44542 5.98101L2.25892 5.74602ZM6.67583 5.57983L6.51917 5.83569L6.52122 5.83692L6.67583 5.57983ZM8.15878 7.13949L7.89502 7.28243L7.89574 7.28374L8.15878 7.13949ZM8.1396 11.6395L7.87913 11.4906L7.87882 11.4912L8.1396 11.6395ZM6.60551 13.1864L6.75509 13.4464L6.75636 13.4457L6.60551 13.1864ZM4.38108 13.7489V13.4489C3.67185 13.4489 3.04292 13.3081 2.4882 13.0327L2.3548 13.3014L2.2214 13.5701C2.86839 13.8913 3.59031 14.0489 4.38108 14.0489V13.7489ZM2.3548 13.3014L2.4882 13.0327C1.92977 12.7555 1.48805 12.3787 1.15635 11.9026L0.910201 12.0741L0.664053 12.2456C1.05679 12.8093 1.57814 13.2508 2.2214 13.5701L2.3548 13.3014ZM0.910201 12.0741L1.15635 11.9026C0.827854 11.4312 0.646717 10.8935 0.615347 10.2818L0.315741 10.2972L0.0161343 10.3125C0.0529461 11.0303 0.268115 11.6774 0.664053 12.2456L0.910201 12.0741ZM0.315741 10.2972V10.5972H1.84983V10.2972V9.99716H0.315741V10.2972ZM1.84983 10.2972L1.55134 10.3272C1.61929 11.0019 1.92909 11.5639 2.46605 12.0002L2.65523 11.7673L2.84441 11.5345C2.42682 11.1952 2.19969 10.7771 2.14832 10.2671L1.84983 10.2972ZM2.65523 11.7673L2.46833 12.002C3.00769 12.4316 3.65044 12.6426 4.38108 12.6426V12.3426V12.0426C3.77366 12.0426 3.26583 11.8701 2.84213 11.5327L2.65523 11.7673ZM4.38108 12.3426V12.6426C4.96684 12.6426 5.49865 12.5048 5.96763 12.2225L5.8129 11.9655L5.65816 11.7085C5.29192 11.929 4.86919 12.0426 4.38108 12.0426V12.3426ZM5.8129 11.9655L5.96648 12.2232C6.43546 11.9437 6.80334 11.5586 7.06723 11.0733L6.80367 10.93L6.5401 10.7867C6.32673 11.1791 6.03409 11.4844 5.65932 11.7078L5.8129 11.9655ZM6.80367 10.93L7.06675 11.0742C7.33633 10.5823 7.46801 10.0311 7.46801 9.42784H7.16801H6.86801C6.86801 9.94106 6.7568 10.3913 6.54059 10.7858L6.80367 10.93ZM7.16801 9.42784H7.46801C7.46801 8.81126 7.33181 8.25039 7.05242 7.75318L6.79088 7.90014L6.52934 8.0471C6.7528 8.44477 6.86801 8.90237 6.86801 9.42784H7.16801ZM6.79088 7.90014L7.05406 7.75614C6.7817 7.25838 6.40344 6.86304 5.92213 6.5752L5.76816 6.83267L5.61418 7.09014C6.00219 7.32218 6.30574 7.63849 6.5277 8.04414L6.79088 7.90014ZM5.76816 6.83267L5.92213 6.5752C5.43701 6.28507 4.88717 6.141 4.2811 6.13637L4.27881 6.43636L4.27652 6.73635C4.78693 6.74025 5.22999 6.86038 5.61418 7.09014L5.76816 6.83267ZM4.27881 6.43636L4.282 6.13638C3.84799 6.13176 3.40634 6.19881 2.95814 6.33462L3.04514 6.62173L3.13215 6.90884C3.5277 6.78897 3.90849 6.73244 4.27562 6.73635L4.27881 6.43636ZM3.04514 6.62173L2.96081 6.33383C2.51588 6.46416 2.13543 6.63667 1.82815 6.85753L2.00324 7.10114L2.17833 7.34474C2.41651 7.17355 2.73065 7.02646 3.12948 6.90963L3.04514 6.62173ZM2.00324 7.10114L2.03919 6.8033L0.556232 6.62432L0.520286 6.92216L0.48434 7.22L1.96729 7.39897L2.00324 7.10114ZM0.520286 6.92216L0.818042 6.95879L1.61065 0.515604L1.3129 0.478975L1.01514 0.442348L0.22253 6.88553L0.520286 6.92216ZM1.3129 0.478975V0.778975H8.11404V0.478975V0.178976H1.3129V0.478975ZM8.11404 0.478975H7.81404V1.88523H8.11404H8.41404V0.478975H8.11404ZM8.11404 1.88523V1.58523H2.64244V1.88523V2.18523H8.11404V1.88523ZM2.64244 1.88523L2.34455 1.84972L1.88433 5.71051L2.18222 5.74602L2.48011 5.78153L2.94034 1.92074L2.64244 1.88523ZM2.18222 5.74602V6.04602H2.25892V5.74602V5.44602H2.18222V5.74602ZM2.25892 5.74602L2.44542 5.98101C2.68179 5.79341 2.9867 5.63108 3.36731 5.49887L3.26887 5.21548L3.17043 4.93209C2.74138 5.08113 2.37298 5.2725 2.07242 5.51103L2.25892 5.74602ZM3.26887 5.21548L3.36731 5.49887C3.73971 5.36951 4.12826 5.30454 4.53449 5.30454V5.00454V4.70454C4.06288 4.70454 3.60768 4.7802 3.17043 4.93209L3.26887 5.21548ZM4.53449 5.00454V5.30454C5.28553 5.30454 5.94415 5.48362 6.51918 5.83568L6.67583 5.57983L6.83247 5.32397C6.15466 4.90899 5.38572 4.70454 4.53449 4.70454V5.00454ZM6.67583 5.57983L6.52122 5.83692C7.10498 6.18797 7.56204 6.668 7.89502 7.28243L8.15878 7.13949L8.42254 6.99655C8.03961 6.28995 7.50803 5.73021 6.83043 5.32273L6.67583 5.57983ZM8.15878 7.13949L7.89574 7.28374C8.23079 7.89471 8.4021 8.59824 8.4021 9.40227H8.7021H9.0021C9.0021 8.51028 8.8112 7.70529 8.42183 6.99524L8.15878 7.13949ZM8.7021 9.40227H8.4021C8.4021 10.1909 8.22557 10.8844 7.87913 11.4906L8.1396 11.6395L8.40008 11.7883C8.80363 11.0821 9.0021 10.2841 9.0021 9.40227H8.7021ZM8.1396 11.6395L7.87882 11.4912C7.53443 12.0968 7.06112 12.5743 6.45467 12.927L6.60551 13.1864L6.75636 13.4457C7.45388 13.0399 8.0033 12.4861 8.40039 11.7878L8.1396 11.6395ZM6.60551 13.1864L6.45594 12.9263C5.85411 13.2725 5.1652 13.4489 4.38108 13.4489V13.7489V14.0489C5.2589 14.0489 6.05294 13.8503 6.75509 13.4464L6.60551 13.1864ZM10.9345 10.8852H10.6345V11.1852H10.9345V10.8852ZM10.9345 9.58125L10.6809 9.42097L10.6345 9.49439V9.58125H10.9345ZM16.6874 0.478975V0.178976H16.5221L16.4338 0.318698L16.6874 0.478975ZM17.6334 0.478975H17.9334V0.178976H17.6334V0.478975ZM17.6334 2.49886V2.79886H17.9334V2.49886H17.6334ZM16.9942 2.49886V2.19886H16.8289L16.7406 2.33859L16.9942 2.49886ZM12.6476 9.3767L12.394 9.21643L12.3476 9.28985V9.3767H12.6476ZM12.6476 9.47898H12.3476V9.77898H12.6476V9.47898ZM20.3948 9.47898H20.6948V9.17898H20.3948V9.47898ZM20.3948 10.8852V11.1852H20.6948V10.8852H20.3948ZM17.0965 13.5699H16.7965V13.8699H17.0965V13.5699ZM17.0965 0.478975V0.178976H16.7965V0.478975H17.0965ZM18.605 0.478975H18.905V0.178976H18.605V0.478975ZM18.605 13.5699V13.8699H18.905V13.5699H18.605ZM10.9345 10.8852H11.2345V9.58125H10.9345H10.6345V10.8852H10.9345ZM10.9345 9.58125L11.1881 9.74153L16.941 0.639254L16.6874 0.478975L16.4338 0.318698L10.6809 9.42097L10.9345 9.58125ZM16.6874 0.478975V0.778975H17.6334V0.478975V0.178976H16.6874V0.478975ZM17.6334 0.478975H17.3334V2.49886H17.6334H17.9334V0.478975H17.6334ZM17.6334 2.49886V2.19886H16.9942V2.49886V2.79886H17.6334V2.49886ZM16.9942 2.49886L16.7406 2.33859L12.394 9.21643L12.6476 9.3767L12.9012 9.53697L17.2478 2.65913L16.9942 2.49886ZM12.6476 9.3767H12.3476V9.47898H12.6476H12.9476V9.3767H12.6476ZM12.6476 9.47898V9.77898H20.3948V9.47898V9.17898H12.6476V9.47898ZM20.3948 9.47898H20.0948V10.8852H20.3948H20.6948V9.47898H20.3948ZM20.3948 10.8852V10.5852H10.9345V10.8852V11.1852H20.3948V10.8852ZM17.0965 13.5699H17.3965V10.4889H17.0965H16.7965V13.5699H17.0965ZM17.0965 10.4889H17.3965V9.88167H17.0965H16.7965V10.4889H17.0965ZM17.0965 9.88167H17.3965V0.478975H17.0965H16.7965V9.88167H17.0965ZM17.0965 0.478975V0.778975H18.605V0.478975V0.178976H17.0965V0.478975ZM18.605 0.478975H18.305V13.5699H18.605H18.905V0.478975H18.605ZM18.605 13.5699V13.2699H17.0965V13.5699V13.8699H18.605V13.5699ZM24.4505 11.7801L24.7473 11.8241L24.7982 11.4801H24.4505V11.7801ZM24.3482 12.4705L24.645 12.5147L24.645 12.5144L24.3482 12.4705ZM24.0158 14.0301L23.7262 13.9521L23.7256 13.9542L24.0158 14.0301ZM23.1721 16.7659V17.0659H23.3844L23.455 16.8658L23.1721 16.7659ZM22.0215 16.7659L21.7275 16.7062L21.6545 17.0659H22.0215V16.7659ZM22.2389 15.6857L21.9447 15.6268V15.6268L22.2389 15.6857ZM22.5073 14.1835L22.2116 14.1331L22.2112 14.1357L22.5073 14.1835ZM22.7374 12.496L22.4391 12.4641L22.439 12.4651L22.7374 12.496ZM22.8141 11.7801V11.4801H22.5446L22.5159 11.7482L22.8141 11.7801ZM24.4505 11.7801L24.1537 11.7361L24.0515 12.4265L24.3482 12.4705L24.645 12.5144L24.7473 11.8241L24.4505 11.7801ZM24.3482 12.4705L24.0515 12.4262C23.981 12.8989 23.8728 13.4075 23.7262 13.9521L24.0158 14.0301L24.3055 14.1081C24.4572 13.5448 24.5706 13.0136 24.645 12.5147L24.3482 12.4705ZM24.0158 14.0301L23.7256 13.9542C23.582 14.5034 23.4322 15.0201 23.2764 15.5043L23.562 15.5962L23.8476 15.688C24.0071 15.1922 24.1599 14.6648 24.3061 14.106L24.0158 14.0301ZM23.562 15.5962L23.2764 15.5043C23.1191 15.9932 22.9901 16.3801 22.8892 16.6661L23.1721 16.7659L23.455 16.8658C23.5586 16.5722 23.6896 16.1793 23.8476 15.688L23.562 15.5962ZM23.1721 16.7659V16.4659H22.0215V16.7659V17.0659H23.1721V16.7659ZM22.0215 16.7659L22.3155 16.8256C22.371 16.5525 22.4435 16.1921 22.533 15.7445L22.2389 15.6857L21.9447 15.6268C21.8552 16.0741 21.7828 16.4339 21.7275 16.7062L22.0215 16.7659ZM22.2389 15.6857L22.533 15.7445C22.6234 15.2927 22.7135 14.7882 22.8035 14.2314L22.5073 14.1835L22.2112 14.1357C22.1221 14.6868 22.0333 15.1837 21.9447 15.6268L22.2389 15.6857ZM22.5073 14.1835L22.8031 14.234C22.8979 13.6775 22.9755 13.1085 23.0358 12.527L22.7374 12.496L22.439 12.4651C22.38 13.0341 22.3042 13.5901 22.2116 14.1331L22.5073 14.1835ZM22.7374 12.496L23.0357 12.528L23.1124 11.8121L22.8141 11.7801L22.5159 11.7482L22.4391 12.4641L22.7374 12.496ZM22.8141 11.7801V12.0801H24.4505V11.7801V11.4801H22.8141V11.7801ZM29.0208 13.3014L28.8874 13.5701V13.5701L29.0208 13.3014ZM27.5762 12.0741L27.8224 11.9026V11.9026L27.5762 12.0741ZM26.9818 10.2972V9.99716H26.666L26.6821 10.3125L26.9818 10.2972ZM28.5158 10.2972L28.8143 10.2671L28.7871 9.99716H28.5158V10.2972ZM29.3212 11.7673L29.1321 12.0002L29.1343 12.002L29.3212 11.7673ZM32.4789 11.9655L32.3253 11.7078L32.3242 11.7085L32.4789 11.9655ZM33.4697 10.93L33.2066 10.7858L33.2061 10.7867L33.4697 10.93ZM33.4569 7.90014L33.1937 8.04415L33.1954 8.0471L33.4569 7.90014ZM30.9448 6.43636L30.9416 6.73635L30.9425 6.73635L30.9448 6.43636ZM29.7112 6.62173L29.7955 6.90965L29.7982 6.90884L29.7112 6.62173ZM28.6693 7.10114L28.6333 7.39897L28.7494 7.41298L28.8443 7.34474L28.6693 7.10114ZM27.1863 6.92216L26.8885 6.88553L26.8518 7.18397L27.1504 7.22L27.1863 6.92216ZM27.9789 0.478975V0.178976H27.7136L27.6812 0.442348L27.9789 0.478975ZM34.7801 0.478975H35.0801V0.178976H34.7801V0.478975ZM34.7801 1.88523V2.18523H35.0801V1.88523H34.7801ZM29.3085 1.88523V1.58523H29.0421L29.0106 1.84972L29.3085 1.88523ZM28.8482 5.74602L28.5503 5.71051L28.5103 6.04602H28.8482V5.74602ZM28.9249 5.74602V6.04602H29.0295L29.1114 5.98101L28.9249 5.74602ZM33.3418 5.57983L33.1852 5.83569L33.1872 5.83692L33.3418 5.57983ZM34.8248 7.13949L34.561 7.28243L34.5618 7.28374L34.8248 7.13949ZM34.8056 11.6395L34.5451 11.4906L34.5448 11.4912L34.8056 11.6395ZM33.2715 13.1864L33.4211 13.4464L33.4224 13.4457L33.2715 13.1864ZM31.0471 13.7489V13.4489C30.3379 13.4489 29.7089 13.3081 29.1542 13.0327L29.0208 13.3014L28.8874 13.5701C29.5344 13.8913 30.2563 14.0489 31.0471 14.0489V13.7489ZM29.0208 13.3014L29.1542 13.0327C28.5958 12.7555 28.1541 12.3787 27.8224 11.9026L27.5762 12.0741L27.3301 12.2456C27.7228 12.8093 28.2442 13.2508 28.8874 13.5701L29.0208 13.3014ZM27.5762 12.0741L27.8224 11.9026C27.4939 11.4312 27.3127 10.8935 27.2814 10.2818L26.9818 10.2972L26.6821 10.3125C26.719 11.0303 26.9341 11.6774 27.3301 12.2456L27.5762 12.0741ZM26.9818 10.2972V10.5972H28.5158V10.2972V9.99716H26.9818V10.2972ZM28.5158 10.2972L28.2174 10.3272C28.2853 11.0019 28.5951 11.5639 29.1321 12.0002L29.3212 11.7673L29.5104 11.5345C29.0928 11.1952 28.8657 10.7771 28.8143 10.2671L28.5158 10.2972ZM29.3212 11.7673L29.1343 12.002C29.6737 12.4316 30.3165 12.6426 31.0471 12.6426V12.3426V12.0426C30.4397 12.0426 29.9319 11.8701 29.5081 11.5327L29.3212 11.7673ZM31.0471 12.3426V12.6426C31.6329 12.6426 32.1647 12.5048 32.6336 12.2225L32.4789 11.9655L32.3242 11.7085C31.9579 11.929 31.5352 12.0426 31.0471 12.0426V12.3426ZM32.4789 11.9655L32.6325 12.2232C33.1015 11.9437 33.4694 11.5586 33.7332 11.0733L33.4697 10.93L33.2061 10.7867C32.9927 11.1791 32.7001 11.4844 32.3253 11.7078L32.4789 11.9655ZM33.4697 10.93L33.7328 11.0742C34.0023 10.5823 34.134 10.0311 34.134 9.42784H33.834H33.534C33.534 9.94106 33.4228 10.3913 33.2066 10.7858L33.4697 10.93ZM33.834 9.42784H34.134C34.134 8.81126 33.9978 8.25039 33.7184 7.75318L33.4569 7.90014L33.1954 8.0471C33.4188 8.44477 33.534 8.90237 33.534 9.42784H33.834ZM33.4569 7.90014L33.7201 7.75614C33.4477 7.25838 33.0695 6.86304 32.5882 6.5752L32.4342 6.83267L32.2802 7.09014C32.6682 7.32218 32.9718 7.63849 33.1937 8.04414L33.4569 7.90014ZM32.4342 6.83267L32.5882 6.5752C32.103 6.28507 31.5532 6.141 30.9471 6.13637L30.9448 6.43636L30.9425 6.73635C31.4529 6.74025 31.896 6.86038 32.2802 7.09014L32.4342 6.83267ZM30.9448 6.43636L30.948 6.13638C30.514 6.13176 30.0724 6.19881 29.6242 6.33462L29.7112 6.62173L29.7982 6.90884C30.1937 6.78897 30.5745 6.73244 30.9416 6.73635L30.9448 6.43636ZM29.7112 6.62173L29.6268 6.33383C29.1819 6.46416 28.8014 6.63667 28.4942 6.85753L28.6693 7.10114L28.8443 7.34474C29.0825 7.17355 29.3967 7.02646 29.7955 6.90963L29.7112 6.62173ZM28.6693 7.10114L28.7052 6.8033L27.2222 6.62432L27.1863 6.92216L27.1504 7.22L28.6333 7.39897L28.6693 7.10114ZM27.1863 6.92216L27.4841 6.95879L28.2767 0.515604L27.9789 0.478975L27.6812 0.442348L26.8885 6.88553L27.1863 6.92216ZM27.9789 0.478975V0.778975H34.7801V0.478975V0.178976H27.9789V0.478975ZM34.7801 0.478975H34.4801V1.88523H34.7801H35.0801V0.478975H34.7801ZM34.7801 1.88523V1.58523H29.3085V1.88523V2.18523H34.7801V1.88523ZM29.3085 1.88523L29.0106 1.84972L28.5503 5.71051L28.8482 5.74602L29.1461 5.78153L29.6064 1.92074L29.3085 1.88523ZM28.8482 5.74602V6.04602H28.9249V5.74602V5.44602H28.8482V5.74602ZM28.9249 5.74602L29.1114 5.98101C29.3478 5.79341 29.6527 5.63108 30.0333 5.49887L29.9349 5.21548L29.8364 4.93209C29.4074 5.08113 29.039 5.2725 28.7384 5.51103L28.9249 5.74602ZM29.9349 5.21548L30.0333 5.49887C30.4057 5.36951 30.7943 5.30454 31.2005 5.30454V5.00454V4.70454C30.7289 4.70454 30.2737 4.7802 29.8364 4.93209L29.9349 5.21548ZM31.2005 5.00454V5.30454C31.9515 5.30454 32.6102 5.48362 33.1852 5.83568L33.3418 5.57983L33.4985 5.32397C32.8207 4.90899 32.0517 4.70454 31.2005 4.70454V5.00454ZM33.3418 5.57983L33.1872 5.83692C33.771 6.18797 34.2281 6.668 34.561 7.28243L34.8248 7.13949L35.0886 6.99655C34.7056 6.28995 34.174 5.73021 33.4964 5.32273L33.3418 5.57983ZM34.8248 7.13949L34.5618 7.28374C34.8968 7.89471 35.0681 8.59824 35.0681 9.40227H35.3681H35.6681C35.6681 8.51028 35.4772 7.70529 35.0878 6.99524L34.8248 7.13949ZM35.3681 9.40227H35.0681C35.0681 10.1909 34.8916 10.8844 34.5451 11.4906L34.8056 11.6395L35.0661 11.7883C35.4696 11.0821 35.6681 10.2841 35.6681 9.40227H35.3681ZM34.8056 11.6395L34.5448 11.4912C34.2004 12.0968 33.7271 12.5743 33.1207 12.927L33.2715 13.1864L33.4224 13.4457C34.1199 13.0399 34.6693 12.4861 35.0664 11.7878L34.8056 11.6395ZM33.2715 13.1864L33.122 12.9263C32.5201 13.2725 31.8312 13.4489 31.0471 13.4489V13.7489V14.0489C31.9249 14.0489 32.719 13.8503 33.4211 13.4464L33.2715 13.1864ZM39.7163 12.9626L39.5318 13.1992L39.5327 13.1999L39.7163 12.9626ZM38.163 10.6679L37.8804 10.7685L37.8805 10.7689L38.163 10.6679ZM38.163 3.40014L37.8808 3.29848L37.8805 3.29916L38.163 3.40014ZM39.7227 1.099L39.9072 1.33557L39.9074 1.33541L39.7227 1.099ZM44.6254 1.099L44.44 1.33485L44.4416 1.33613L44.6254 1.099ZM46.1851 3.40014L45.9024 3.50074L45.9029 3.50218L46.1851 3.40014ZM46.1915 10.6679L46.4739 10.7689L46.4741 10.7685L46.1915 10.6679ZM44.6382 12.9626L44.8217 13.1999L44.8227 13.1992L44.6382 12.9626ZM44.4017 10.9619L44.1415 10.8126V10.8126L44.4017 10.9619ZM44.8299 4.12883L44.5426 4.2149L44.543 4.2163L44.8299 4.12883ZM43.7944 2.3071L43.5897 2.52642L43.5908 2.52738L43.7944 2.3071ZM39.9592 3.08054L40.2195 3.22977L40.2198 3.22925L39.9592 3.08054ZM39.5182 9.91364L39.2309 10.0001V10.0001L39.5182 9.91364ZM40.5473 11.7226L40.3437 11.9429L40.3447 11.9439L40.5473 11.7226ZM42.1772 13.7489V13.4489C41.2719 13.4489 40.5184 13.2038 39.8999 12.7254L39.7163 12.9626L39.5327 13.1999C40.2693 13.7697 41.1564 14.0489 42.1772 14.0489V13.7489ZM39.7163 12.9626L39.9008 12.7261C39.2777 12.2401 38.7889 11.5275 38.4455 10.5669L38.163 10.6679L37.8805 10.7689C38.2531 11.8111 38.7998 12.6283 39.5318 13.1992L39.7163 12.9626ZM38.163 10.6679L38.4457 10.5673C38.1023 9.60267 37.9261 8.42417 37.9261 7.02443H37.6261H37.3261C37.3261 8.47128 37.5078 9.72176 37.8804 10.7685L38.163 10.6679ZM37.6261 7.02443H37.9261C37.9261 5.63339 38.1023 4.46141 38.4455 3.50112L38.163 3.40014L37.8805 3.29916C37.5079 4.34172 37.3261 5.58592 37.3261 7.02443H37.6261ZM38.163 3.40014L38.4453 3.5018C38.793 2.53644 39.2841 1.82153 39.9072 1.33557L39.7227 1.099L39.5382 0.862439C38.8062 1.43329 38.2575 2.25248 37.8808 3.29848L38.163 3.40014ZM39.7227 1.099L39.9074 1.33541C40.531 0.848242 41.2823 0.599998 42.1772 0.599998V0.299998V-1.90735e-06C41.1631 -1.90735e-06 40.2781 0.284425 39.538 0.862597L39.7227 1.099ZM42.1772 0.299998V0.599998C43.0722 0.599998 43.821 0.848239 44.44 1.33485L44.6254 1.099L44.8108 0.86316C44.0747 0.284428 43.1914 -1.90735e-06 42.1772 -1.90735e-06V0.299998ZM44.6254 1.099L44.4416 1.33613C45.0684 1.8219 45.5591 2.53624 45.9024 3.50074L46.1851 3.40014L46.4677 3.29954C46.0951 2.25268 45.546 1.43292 44.8092 0.861879L44.6254 1.099ZM46.1851 3.40014L45.9029 3.50218C46.2502 4.46211 46.4284 5.6337 46.4284 7.02443H46.7284H47.0284C47.0284 5.58561 46.8444 4.34102 46.4672 3.2981L46.1851 3.40014ZM46.7284 7.02443H46.4284C46.4284 8.42417 46.2522 9.60267 45.9088 10.5673L46.1915 10.6679L46.4741 10.7685C46.8466 9.72176 47.0284 8.47128 47.0284 7.02443H46.7284ZM46.1915 10.6679L45.909 10.5669C45.5656 11.5275 45.0768 12.2401 44.4537 12.7261L44.6382 12.9626L44.8227 13.1992C45.5547 12.6283 46.1014 11.8111 46.4739 10.7689L46.1915 10.6679ZM44.6382 12.9626L44.4546 12.7254C43.8361 13.2038 43.0826 13.4489 42.1772 13.4489V13.7489V14.0489C43.1981 14.0489 44.0852 13.7697 44.8217 13.1999L44.6382 12.9626ZM42.1772 12.3426V12.6426C43.253 12.6426 44.0872 12.1123 44.6619 11.1113L44.4017 10.9619L44.1415 10.8126C43.6593 11.6525 43.0106 12.0426 42.1772 12.0426V12.3426ZM44.4017 10.9619L44.6619 11.1113C45.2276 10.1257 45.4943 8.75279 45.4943 7.02443H45.1943H44.8943C44.8943 8.70516 44.6325 9.95721 44.1415 10.8126L44.4017 10.9619ZM45.1943 7.02443H45.4943C45.4943 5.87118 45.3709 4.87472 45.1169 4.04136L44.8299 4.12883L44.543 4.2163C44.7748 4.97669 44.8943 5.91064 44.8943 7.02443H45.1943ZM44.8299 4.12883L45.1173 4.04277C44.8685 3.21193 44.5007 2.55152 43.9981 2.08682L43.7944 2.3071L43.5908 2.52738C43.9915 2.8979 44.3141 3.45199 44.5426 4.2149L44.8299 4.12883ZM43.7944 2.3071L43.9991 2.08778C43.4943 1.6166 42.8814 1.38068 42.1772 1.38068V1.68068V1.98068C42.7345 1.98068 43.1997 2.16237 43.5897 2.52642L43.7944 2.3071ZM42.1772 1.68068V1.38068C41.107 1.38068 40.276 1.92034 39.6987 2.93182L39.9592 3.08054L40.2198 3.22925C40.7078 2.37426 41.3555 1.98068 42.1772 1.98068V1.68068ZM39.9592 3.08054L39.699 2.93131C39.1292 3.92493 38.8602 5.29962 38.8602 7.02443H39.1602H39.4602C39.4602 5.34867 39.7239 4.0941 40.2195 3.22977L39.9592 3.08054ZM39.1602 7.02443H38.8602C38.8602 8.17725 38.9813 9.17126 39.2309 10.0001L39.5182 9.91364L39.8054 9.82715C39.5777 9.07078 39.4602 8.13866 39.4602 7.02443H39.1602ZM39.5182 9.91364L39.2309 10.0001C39.4796 10.8263 39.8452 11.4825 40.3437 11.9429L40.5473 11.7226L40.7508 11.5022C40.3544 11.136 40.0339 10.5862 39.8054 9.82715L39.5182 9.91364ZM40.5473 11.7226L40.3447 11.9439C40.854 12.4099 41.4704 12.6426 42.1772 12.6426V12.3426V12.0426C41.6142 12.0426 41.144 11.862 40.7498 11.5013L40.5473 11.7226ZM63.0409 0.478975V0.178976H62.7409V0.478975H63.0409ZM64.6261 0.478975H64.9261V0.178976H64.6261V0.478975ZM63.9933 11.5436L63.7361 11.3893L63.7358 11.3897L63.9933 11.5436ZM62.2227 13.1991L62.3622 13.4648L62.3633 13.4641L62.2227 13.1991ZM56.8534 13.1991L56.7127 13.4641L56.7139 13.4648L56.8534 13.1991ZM55.0764 11.5436L54.8185 11.6968L54.8196 11.6986L55.0764 11.5436ZM54.45 0.478975V0.178976H54.15V0.478975H54.45ZM56.0352 0.478975H56.3352V0.178976H56.0352V0.478975ZM56.4571 10.7254L56.1958 10.8728L56.1963 10.8738L56.4571 10.7254ZM57.6588 11.8952L57.5144 12.1581L57.5169 12.1595L57.6588 11.8952ZM61.4173 11.8952L61.5592 12.1595L61.5608 12.1586L61.4173 11.8952ZM62.619 10.7254L62.3577 10.578L62.3573 10.5788L62.619 10.7254ZM63.0409 0.478975V0.778975H64.6261V0.478975V0.178976H63.0409V0.478975ZM64.6261 0.478975H64.3261V9.14659H64.6261H64.9261V0.478975H64.6261ZM64.6261 9.14659H64.3261C64.3261 9.99223 64.1274 10.737 63.7361 11.3893L63.9933 11.5436L64.2505 11.698C64.7029 10.944 64.9261 10.0907 64.9261 9.14659H64.6261ZM63.9933 11.5436L63.7358 11.3897C63.348 12.0387 62.7995 12.5534 62.0821 12.9342L62.2227 13.1991L62.3633 13.4641C63.1714 13.0353 63.8034 12.4463 64.2508 11.6975L63.9933 11.5436ZM62.2227 13.1991L62.0832 12.9335C61.371 13.3076 60.5257 13.5 59.538 13.5V13.8V14.1C60.6043 14.1 61.5488 13.8919 62.3622 13.4648L62.2227 13.1991ZM59.538 13.8V13.5C58.5504 13.5 57.7051 13.3076 56.9929 12.9335L56.8534 13.1991L56.7139 13.4648C57.5272 13.8919 58.4717 14.1 59.538 14.1V13.8ZM56.8534 13.1991L56.994 12.9342C56.2763 12.5532 55.7254 12.0382 55.3332 11.3886L55.0764 11.5436L54.8196 11.6986C55.2711 12.4467 55.9049 13.0354 56.7127 13.4641L56.8534 13.1991ZM55.0764 11.5436L55.3343 11.3904C54.9468 10.738 54.75 9.9928 54.75 9.14659H54.45H54.15C54.15 10.0902 54.3708 10.943 54.8185 11.6968L55.0764 11.5436ZM54.45 9.14659H54.75V0.478975H54.45H54.15V9.14659H54.45ZM54.45 0.478975V0.778975H56.0352V0.478975V0.178976H54.45V0.478975ZM56.0352 0.478975H55.7352V9.01875H56.0352H56.3352V0.478975H56.0352ZM56.0352 9.01875H55.7352C55.7352 9.70345 55.8863 10.3242 56.1958 10.8728L56.4571 10.7254L56.7184 10.578C56.4654 10.1295 56.3352 9.61246 56.3352 9.01875H56.0352ZM56.4571 10.7254L56.1963 10.8738C56.5062 11.4184 56.948 11.8471 57.5144 12.1581L57.6588 11.8952L57.8032 11.6322C57.3298 11.3722 56.9704 11.021 56.7178 10.5771L56.4571 10.7254ZM57.6588 11.8952L57.5169 12.1595C58.0935 12.4689 58.7709 12.617 59.538 12.617V12.317V12.017C58.8478 12.017 58.2724 11.884 57.8006 11.6308L57.6588 11.8952ZM59.538 12.317V12.617C60.3052 12.617 60.9826 12.4689 61.5592 12.1595L61.4173 11.8952L61.2755 11.6308C60.8037 11.884 60.2282 12.017 59.538 12.017V12.317ZM61.4173 11.8952L61.5608 12.1586C62.1318 11.8476 62.5746 11.4184 62.8807 10.8721L62.619 10.7254L62.3573 10.5788C62.1094 11.0211 61.7511 11.3717 61.2738 11.6317L61.4173 11.8952ZM62.619 10.7254L62.8803 10.8728C63.1898 10.3242 63.3409 9.70345 63.3409 9.01875H63.0409H62.7409C62.7409 9.61246 62.6107 10.1295 62.3577 10.578L62.619 10.7254ZM63.0409 9.01875H63.3409V0.478975H63.0409H62.7409V9.01875H63.0409ZM69.0957 13.5699V13.8699H69.3957V13.5699H69.0957ZM67.5872 13.5699H67.2872V13.8699H67.5872V13.5699ZM67.5872 3.7517V3.4517H67.2872V3.7517H67.5872ZM69.0446 3.7517H69.3446V3.4517H69.0446V3.7517ZM69.0446 5.28579H68.7446V5.58579H69.0446V5.28579ZM69.1725 5.28579V5.58579H69.3644L69.4448 5.41151L69.1725 5.28579ZM70.2207 4.08409L70.3834 4.33615L70.385 4.3351L70.2207 4.08409ZM73.7811 4.03295L73.6371 4.29616L73.6389 4.29709L73.7811 4.03295ZM74.9445 5.26023L74.6766 5.39522L74.677 5.39606L74.9445 5.26023ZM75.36 13.5699V13.8699H75.66V13.5699H75.36ZM73.8514 13.5699H73.5514V13.8699H73.8514V13.5699ZM73.2506 5.63096L73.03 5.83427L73.031 5.83535L73.2506 5.63096ZM70.3102 5.29219L70.1655 5.02938L70.1643 5.03008L70.3102 5.29219ZM69.4217 6.20625L69.1581 6.06318V6.06318L69.4217 6.20625ZM69.0957 7.66364H68.7957V13.5699H69.0957H69.3957V7.66364H69.0957ZM69.0957 13.5699V13.2699H67.5872V13.5699V13.8699H69.0957V13.5699ZM67.5872 13.5699H67.8872V3.7517H67.5872H67.2872V13.5699H67.5872ZM67.5872 3.7517V4.0517H69.0446V3.7517V3.4517H67.5872V3.7517ZM69.0446 3.7517H68.7446V5.28579H69.0446H69.3446V3.7517H69.0446ZM69.0446 5.28579V5.58579H69.1725V5.28579V4.98579H69.0446V5.28579ZM69.1725 5.28579L69.4448 5.41151C69.6507 4.96546 69.9617 4.60837 70.3834 4.33615L70.2207 4.08409L70.0581 3.83204C69.5423 4.16493 69.1544 4.60896 68.9001 5.16008L69.1725 5.28579ZM70.2207 4.08409L70.385 4.3351C70.7915 4.06907 71.3345 3.92386 72.0361 3.92386V3.62386V3.32386C71.2548 3.32386 70.5875 3.48547 70.0564 3.83308L70.2207 4.08409ZM72.0361 3.62386V3.92386C72.6591 3.92386 73.1897 4.05138 73.6371 4.29615L73.7811 4.03295L73.9251 3.76976C73.3754 3.46908 72.7426 3.32386 72.0361 3.32386V3.62386ZM73.7811 4.03295L73.6389 4.29709C74.0786 4.53385 74.4247 4.8954 74.6766 5.39522L74.9445 5.26023L75.2124 5.12523C74.9103 4.52563 74.4808 4.06899 73.9233 3.76881L73.7811 4.03295ZM74.9445 5.26023L74.677 5.39606C74.9262 5.88692 75.06 6.52686 75.06 7.33125H75.36H75.66C75.66 6.46518 75.5167 5.72444 75.212 5.12439L74.9445 5.26023ZM75.36 7.33125H75.06V13.5699H75.36H75.66V7.33125H75.36ZM75.36 13.5699V13.2699H73.8514V13.5699V13.8699H75.36V13.5699ZM73.8514 13.5699H74.1514V7.43352H73.8514H73.5514V13.5699H73.8514ZM73.8514 7.43352H74.1514C74.1514 6.61068 73.9369 5.92804 73.4702 5.42658L73.2506 5.63096L73.031 5.83535C73.3654 6.19468 73.5514 6.71375 73.5514 7.43352H73.8514ZM73.2506 5.63096L73.4712 5.42766C73.0034 4.9201 72.3675 4.67898 71.6014 4.67898V4.97898V5.27898C72.2331 5.27898 72.6966 5.47251 73.03 5.83427L73.2506 5.63096ZM71.6014 4.97898V4.67898C71.0751 4.67898 70.5939 4.79353 70.1656 5.02938L70.3102 5.29219L70.4549 5.55499C70.7851 5.37323 71.1647 5.27898 71.6014 5.27898V4.97898ZM70.3102 5.29219L70.1643 5.03008C69.7364 5.26833 69.4008 5.6158 69.1581 6.06318L69.4217 6.20625L69.6854 6.34931C69.8774 5.99556 70.1341 5.73366 70.4562 5.55429L70.3102 5.29219ZM69.4217 6.20625L69.1581 6.06318C68.9116 6.51743 68.7957 7.05506 68.7957 7.66364H69.0957H69.3957C69.3957 7.13016 69.4972 6.69621 69.6854 6.34931L69.4217 6.20625ZM78.4042 13.3334L78.6163 13.1212V13.1212L78.4042 13.3334ZM80.0277 11.7098L80.2399 11.4977V11.4977L80.0277 11.7098ZM80.2067 13.0969L79.9505 12.9407L79.9478 12.9453L80.2067 13.0969ZM79.7912 13.5187L79.9456 13.776L79.9474 13.7749L79.7912 13.5187ZM79.216 13.6722V13.3722C78.9813 13.3722 78.7867 13.2917 78.6163 13.1212L78.4042 13.3334L78.192 13.5455C78.4733 13.8268 78.8199 13.9722 79.216 13.9722V13.6722ZM78.4042 13.3334L78.6163 13.1212C78.4459 12.9508 78.3654 12.7562 78.3654 12.5216H78.0654H77.7654C77.7654 12.9176 77.9107 13.2642 78.192 13.5455L78.4042 13.3334ZM78.0654 12.5216H78.3654C78.3654 12.287 78.4459 12.0923 78.6163 11.9219L78.4042 11.7098L78.192 11.4977C77.9107 11.779 77.7654 12.1255 77.7654 12.5216H78.0654ZM78.4042 11.7098L78.6163 11.9219C78.7867 11.7515 78.9813 11.671 79.216 11.671V11.371V11.071C78.8199 11.071 78.4733 11.2164 78.192 11.4977L78.4042 11.7098ZM79.216 11.371V11.671C79.4506 11.671 79.6452 11.7515 79.8156 11.9219L80.0277 11.7098L80.2399 11.4977C79.9586 11.2164 79.612 11.071 79.216 11.071V11.371ZM80.0277 11.7098L79.8156 11.9219C79.986 12.0923 80.0665 12.287 80.0665 12.5216H80.3665H80.6665C80.6665 12.1255 80.5212 11.779 80.2399 11.4977L80.0277 11.7098ZM80.3665 12.5216H80.0665C80.0665 12.6765 80.0278 12.814 79.9506 12.9407L80.2067 13.0969L80.4629 13.2531C80.5987 13.0303 80.6665 12.7843 80.6665 12.5216H80.3665ZM80.2067 13.0969L79.9478 12.9453C79.8709 13.0767 79.7679 13.1816 79.6351 13.2626L79.7912 13.5187L79.9474 13.7749C80.164 13.6428 80.338 13.4664 80.4656 13.2484L80.2067 13.0969ZM79.7912 13.5187L79.6369 13.2615C79.5164 13.3338 79.3787 13.3722 79.216 13.3722V13.6722V13.9722C79.4793 13.9722 79.7251 13.9083 79.9456 13.776L79.7912 13.5187Z" fill="#1C2434" mask="url(#path-1-outside-1_22_672)"/>
</svg>
