<svg width="98" height="14" viewBox="0 0 98 14" fill="none" xmlns="http://www.w3.org/2000/svg">
<path d="M11.052 10.7279C11.052 10.9439 11.034 11.1659 10.998 11.3939C10.962 11.6099 10.932 11.8259 10.908 12.0419C10.872 12.2819 10.848 12.5279 10.836 12.7799C10.824 13.0199 10.788 13.2599 10.728 13.4999C10.716 13.5719 10.68 13.6439 10.62 13.7159C10.572 13.7759 10.506 13.8059 10.422 13.8059C9.138 13.8059 7.854 13.7999 6.57 13.7879C5.286 13.7639 4.002 13.7519 2.718 13.7519C2.334 13.7519 1.944 13.7699 1.548 13.8059C1.164 13.8299 0.780002 13.8419 0.396002 13.8419C0.336002 13.8419 0.276002 13.8239 0.216002 13.7879C0.168002 13.7399 0.144002 13.6859 0.144002 13.6259C0.144002 13.5539 0.162002 13.4879 0.198002 13.4279C0.234002 13.3559 0.294002 13.3199 0.378002 13.3199C0.630002 13.3199 0.870002 13.3079 1.098 13.2839C1.326 13.2479 1.512 13.1639 1.656 13.0319C1.812 12.8879 1.89 12.6599 1.89 12.3479V2.01591C1.89 1.73991 1.806 1.55991 1.638 1.47591C1.47 1.37991 1.266 1.33191 1.026 1.33191C0.906002 1.33191 0.792002 1.33791 0.684002 1.34991C0.576002 1.34991 0.468002 1.34991 0.360002 1.34991C0.264002 1.34991 0.180002 1.32591 0.108002 1.27791C0.0360022 1.22991 2.21282e-06 1.15191 2.21282e-06 1.04391C2.21282e-06 0.947908 0.0180022 0.863908 0.0540022 0.791907C0.0900022 0.719908 0.168002 0.683908 0.288002 0.683908C0.492002 0.683908 0.690002 0.689908 0.882002 0.701907C1.086 0.713907 1.284 0.719907 1.476 0.719907C2.688 0.719907 3.9 0.713907 5.112 0.701907C6.324 0.677908 7.53 0.665908 8.73 0.665908C9.282 0.665908 9.828 0.647908 10.368 0.611907C10.416 0.959907 10.476 1.30791 10.548 1.65591C10.62 2.00391 10.68 2.35191 10.728 2.69991C10.752 2.77191 10.77 2.84391 10.782 2.91591C10.794 2.97591 10.8 3.04191 10.8 3.11391C10.8 3.23391 10.758 3.31791 10.674 3.36591C10.602 3.41391 10.512 3.43791 10.404 3.43791C10.308 3.43791 10.236 3.41991 10.188 3.38391C10.152 3.33591 10.116 3.26391 10.08 3.16791C9.852 2.44791 9.546 1.94991 9.162 1.67391C8.79 1.39791 8.22 1.25991 7.452 1.25991H3.708V6.67791C4.176 6.67791 4.644 6.67791 5.112 6.67791C5.58 6.66591 6.054 6.64791 6.534 6.62391C7.026 6.59991 7.482 6.55791 7.902 6.49791C8.334 6.42591 8.79 6.34791 9.27 6.26391H9.288C9.36 6.26391 9.396 6.29391 9.396 6.35391C9.396 6.43791 9.36 6.58791 9.288 6.80391C9.216 7.01991 9.162 7.16391 9.126 7.23591C9.066 7.37991 8.97 7.45191 8.838 7.45191C8.538 7.45191 8.226 7.43391 7.902 7.39791C7.59 7.34991 7.278 7.32591 6.966 7.32591C6.75 7.31391 6.534 7.31391 6.318 7.32591C6.102 7.32591 5.88 7.32591 5.652 7.32591C5.568 7.32591 5.478 7.32591 5.382 7.32591C5.298 7.31391 5.208 7.30791 5.112 7.30791C4.932 7.30791 4.734 7.32591 4.518 7.36191C4.302 7.38591 4.11 7.45791 3.942 7.57791C3.786 7.68591 3.708 7.86591 3.708 8.11791V12.4379C3.708 12.8459 3.81 13.0859 4.014 13.1579C4.218 13.2179 4.488 13.2479 4.824 13.2479H6.264C6.6 13.2479 6.972 13.2299 7.38 13.1939C7.8 13.1579 8.208 13.0799 8.604 12.9599C9 12.8399 9.324 12.6659 9.576 12.4379C9.852 12.1859 10.044 11.9099 10.152 11.6099C10.272 11.2979 10.41 10.9859 10.566 10.6739C10.626 10.5659 10.722 10.5119 10.854 10.5119C10.986 10.5119 11.052 10.5839 11.052 10.7279ZM22.7309 13.5359C22.7309 13.6919 22.6409 13.7699 22.4609 13.7699C22.1969 13.7699 21.9269 13.7639 21.6509 13.7519C21.3749 13.7279 21.0989 13.7159 20.8229 13.7159C20.4149 13.7159 19.9949 13.7279 19.5629 13.7519C19.1429 13.7639 18.7229 13.7699 18.3029 13.7699C18.2549 13.7699 18.2249 13.7339 18.2129 13.6619C18.2009 13.5779 18.1949 13.5119 18.1949 13.4639C18.1949 13.3679 18.2549 13.3199 18.3749 13.3199C18.4949 13.3199 18.5909 13.3199 18.6629 13.3199C18.7229 13.3199 18.7829 13.3259 18.8429 13.3379C18.9149 13.3379 18.9809 13.3379 19.0409 13.3379C19.3889 13.3379 19.5809 13.1639 19.6169 12.8159C19.6529 12.1079 19.6649 11.3939 19.6529 10.6739C19.6529 9.95391 19.6529 9.23991 19.6529 8.53191C19.6529 8.39991 19.6529 8.26791 19.6529 8.13591C19.6529 7.99191 19.6529 7.85391 19.6529 7.72191C19.6409 7.44591 19.6229 7.10991 19.5989 6.71391C19.5749 6.30591 19.5209 5.97591 19.4369 5.72391C19.2449 5.09991 18.8249 4.78791 18.1769 4.78791C17.5889 4.78791 17.0489 4.93791 16.5569 5.23791C16.0649 5.53791 15.6389 5.91591 15.2789 6.37191C15.2669 7.24791 15.2609 8.11791 15.2609 8.98191C15.2609 9.84591 15.2609 10.7099 15.2609 11.5739V12.8159C15.2609 12.9959 15.3389 13.1279 15.4949 13.2119C15.6509 13.2959 15.8069 13.3379 15.9629 13.3379C16.0589 13.3379 16.1489 13.3319 16.2329 13.3199C16.3289 13.2959 16.4189 13.2839 16.5029 13.2839C16.5509 13.2839 16.5809 13.3139 16.5929 13.3739C16.6049 13.4339 16.6109 13.4819 16.6109 13.5179C16.6109 13.5659 16.5929 13.6199 16.5569 13.6799C16.5329 13.7399 16.4849 13.7699 16.4129 13.7699C16.1489 13.7699 15.8849 13.7639 15.6209 13.7519C15.3689 13.7279 15.1109 13.7159 14.8469 13.7159C14.4389 13.7159 14.0309 13.7279 13.6229 13.7519C13.2149 13.7639 12.8009 13.7699 12.3809 13.7699C12.3209 13.7699 12.2849 13.7339 12.2729 13.6619C12.2729 13.5779 12.2729 13.5119 12.2729 13.4639C12.2729 13.3679 12.3269 13.3199 12.4349 13.3199C12.5429 13.3199 12.6269 13.3199 12.6869 13.3199C12.7469 13.3199 12.8069 13.3259 12.8669 13.3379C12.9269 13.3379 12.9869 13.3379 13.0469 13.3379C13.3949 13.3379 13.5869 13.1639 13.6229 12.8159C13.6349 12.6479 13.6409 12.4799 13.6409 12.3119C13.6409 12.1439 13.6409 11.9759 13.6409 11.8079C13.6409 10.7759 13.6409 9.74391 13.6409 8.71191C13.6409 7.66791 13.6349 6.62991 13.6229 5.59791C13.6229 5.42991 13.5869 5.26191 13.5149 5.09391C13.4429 4.92591 13.3049 4.84191 13.1009 4.84191C12.9449 4.84191 12.7949 4.86591 12.6509 4.91391C12.5069 4.96191 12.3569 4.98591 12.2009 4.98591C12.1169 4.98591 12.0749 4.92591 12.0749 4.80591C12.0749 4.78191 12.0749 4.75791 12.0749 4.73391C12.0869 4.69791 12.0989 4.67391 12.1109 4.66191C12.1229 4.64991 12.1409 4.64391 12.1649 4.64391C12.1889 4.63191 12.2069 4.61991 12.2189 4.60791C12.4349 4.54791 12.6569 4.50591 12.8849 4.48191C13.1249 4.45791 13.3529 4.42191 13.5689 4.37391C13.7729 4.33791 13.9709 4.28991 14.1629 4.22991C14.3549 4.15791 14.5469 4.12191 14.7389 4.12191C14.8229 4.12191 14.8889 4.16391 14.9369 4.24791C14.9969 4.35591 15.0449 4.51191 15.0809 4.71591C15.1169 4.90791 15.1409 5.10591 15.1529 5.30991C15.1769 5.51391 15.1889 5.68191 15.1889 5.81391C15.4529 5.54991 15.7649 5.29191 16.1249 5.03991C16.4969 4.77591 16.8809 4.55991 17.2769 4.39191C17.6849 4.21191 18.0809 4.12191 18.4649 4.12191C19.5689 4.12191 20.3129 4.36791 20.6969 4.85991C21.0929 5.33991 21.2909 6.10191 21.2909 7.14591C21.2909 8.08191 21.2849 9.01791 21.2729 9.95391C21.2729 10.8899 21.2729 11.8259 21.2729 12.7619C21.2729 12.9899 21.3389 13.1459 21.4709 13.2299C21.6149 13.3019 21.7829 13.3379 21.9749 13.3379C22.0709 13.3379 22.1669 13.3319 22.2629 13.3199C22.3589 13.2959 22.4489 13.2839 22.5329 13.2839C22.6049 13.2839 22.6529 13.3139 22.6769 13.3739C22.7129 13.4219 22.7309 13.4759 22.7309 13.5359ZM33.51 4.30191C33.51 4.44591 33.426 4.51791 33.258 4.51791C33.222 4.51791 33.186 4.51791 33.15 4.51791C33.114 4.50591 33.078 4.49991 33.042 4.49991C32.898 4.49991 32.772 4.52391 32.664 4.57191C32.556 4.60791 32.472 4.69191 32.412 4.82391C32.34 4.97991 32.274 5.14191 32.214 5.30991C32.166 5.46591 32.112 5.62791 32.052 5.79591C31.932 6.13191 31.812 6.46791 31.692 6.80391C31.572 7.12791 31.452 7.45791 31.332 7.79391C30.984 8.80191 30.624 9.80991 30.252 10.8179C29.892 11.8259 29.52 12.8339 29.136 13.8419L27.498 13.8779C27.234 13.0739 26.958 12.2759 26.67 11.4839C26.382 10.6799 26.094 9.87591 25.806 9.07191C25.602 8.48391 25.398 7.89591 25.194 7.30791C25.002 6.71991 24.786 6.13791 24.546 5.56191C24.402 5.21391 24.234 5.00391 24.042 4.93191C23.85 4.84791 23.58 4.80591 23.232 4.80591C23.112 4.80591 23.052 4.74591 23.052 4.62591C23.052 4.50591 23.1 4.43991 23.196 4.42791C23.196 4.42791 23.31 4.41591 23.538 4.39191C23.778 4.35591 24.054 4.31391 24.366 4.26591C24.69 4.21791 24.972 4.18191 25.212 4.15791C25.464 4.12191 25.596 4.10391 25.608 4.10391C25.692 4.10391 25.752 4.12191 25.788 4.15791C25.824 4.19391 25.86 4.24791 25.896 4.31991C25.956 4.43991 25.998 4.57191 26.022 4.71591C26.058 4.84791 26.1 4.97991 26.148 5.11191C26.256 5.44791 26.358 5.78991 26.454 6.13791C26.562 6.48591 26.676 6.83391 26.796 7.18191C27.12 8.16591 27.444 9.14391 27.768 10.1159C28.104 11.0879 28.434 12.0599 28.758 13.0319C28.83 12.8399 28.944 12.5219 29.1 12.0779C29.256 11.6339 29.436 11.1239 29.64 10.5479C29.844 9.97191 30.048 9.37791 30.252 8.76591C30.468 8.14191 30.666 7.55391 30.846 7.00191C31.026 6.43791 31.17 5.95791 31.278 5.56191C31.386 5.15391 31.44 4.88391 31.44 4.75191C31.44 4.61991 31.386 4.54791 31.278 4.53591C31.182 4.51191 31.086 4.49991 30.99 4.49991C30.87 4.49991 30.75 4.50591 30.63 4.51791C30.522 4.51791 30.402 4.51791 30.27 4.51791C30.162 4.51791 30.108 4.45791 30.108 4.33791C30.108 4.27791 30.132 4.23591 30.18 4.21191C30.228 4.17591 30.276 4.15191 30.324 4.13991C30.384 4.13991 30.444 4.13991 30.504 4.13991C30.564 4.13991 30.618 4.13991 30.666 4.13991H32.034C32.25 4.13991 32.466 4.13391 32.682 4.12191C32.898 4.10991 33.114 4.10391 33.33 4.10391C33.45 4.10391 33.51 4.16991 33.51 4.30191ZM39.0399 13.5359C39.0399 13.5959 39.0219 13.6559 38.9859 13.7159C38.9499 13.7639 38.9019 13.7879 38.8419 13.7879C38.5059 13.7879 38.1699 13.7819 37.8339 13.7699C37.5099 13.7459 37.1739 13.7339 36.8259 13.7339H36.3399C35.9799 13.7339 35.6199 13.7459 35.2599 13.7699C34.9119 13.7819 34.5639 13.7879 34.2159 13.7879C34.1679 13.7879 34.1319 13.7579 34.1079 13.6979C34.0959 13.6379 34.0899 13.5899 34.0899 13.5539C34.0899 13.4939 34.0959 13.4519 34.1079 13.4279C34.1199 13.3919 34.1559 13.3679 34.2159 13.3559C34.2759 13.3319 34.3419 13.3259 34.4139 13.3379C34.4979 13.3379 34.5759 13.3379 34.6479 13.3379C34.7319 13.3379 34.8099 13.3439 34.8819 13.3559C34.9539 13.3559 35.0319 13.3559 35.1159 13.3559C35.2839 13.3559 35.4339 13.3199 35.5659 13.2479C35.7099 13.1639 35.7819 13.0259 35.7819 12.8339V5.63391C35.7819 5.42991 35.7459 5.27391 35.6739 5.16591C35.6019 5.04591 35.4519 4.98591 35.2239 4.98591C35.0559 4.98591 34.8819 4.99791 34.7019 5.02191C34.5339 5.03391 34.3659 5.05191 34.1979 5.07591C34.1019 5.07591 34.0539 5.02191 34.0539 4.91391C34.0539 4.79391 34.1019 4.71591 34.1979 4.67991C34.3419 4.63191 34.4919 4.60191 34.6479 4.58991C34.8159 4.56591 34.9719 4.54191 35.1159 4.51791C35.4519 4.45791 35.7879 4.39191 36.1239 4.31991C36.4599 4.24791 36.7899 4.16991 37.1139 4.08591C37.1499 4.07391 37.1979 4.06791 37.2579 4.06791C37.3899 4.06791 37.4559 4.13991 37.4559 4.28391C37.4559 5.69991 37.4499 7.12191 37.4379 8.54991C37.4379 9.97791 37.4379 11.4059 37.4379 12.8339C37.4379 13.0259 37.5219 13.1639 37.6899 13.2479C37.8699 13.3199 38.0379 13.3559 38.1939 13.3559C38.3139 13.3559 38.4339 13.3499 38.5539 13.3379C38.6859 13.3259 38.8119 13.3199 38.9319 13.3199C38.9799 13.3199 39.0099 13.3499 39.0219 13.4099C39.0339 13.4699 39.0399 13.5119 39.0399 13.5359ZM37.5819 1.07991C37.5819 1.37991 37.4739 1.63791 37.2579 1.85391C37.0419 2.05791 36.7839 2.15991 36.4839 2.15991C36.1839 2.15991 35.9259 2.05791 35.7099 1.85391C35.4939 1.63791 35.3859 1.37991 35.3859 1.07991C35.3859 0.779907 35.4939 0.527907 35.7099 0.323908C35.9259 0.107908 36.1839 -9.21488e-05 36.4839 -9.21488e-05C36.7839 -9.21488e-05 37.0419 0.107908 37.2579 0.323908C37.4739 0.527907 37.5819 0.779907 37.5819 1.07991ZM46.0374 11.6999C45.9894 11.1599 45.9594 10.6199 45.9474 10.0799C45.9474 9.52791 45.9414 8.97591 45.9294 8.42391H45.6774C45.3054 8.42391 44.8914 8.48391 44.4354 8.60391C43.9914 8.71191 43.5654 8.87991 43.1574 9.10791C42.7494 9.33591 42.4134 9.62391 42.1494 9.97191C41.8974 10.3079 41.7714 10.6979 41.7714 11.1419C41.7714 11.7179 41.9334 12.1559 42.2574 12.4559C42.5814 12.7439 43.0194 12.8879 43.5714 12.8879C43.8354 12.8879 44.1234 12.8279 44.4354 12.7079C44.7474 12.5759 45.0474 12.4199 45.3354 12.2399C45.6234 12.0599 45.8574 11.8799 46.0374 11.6999ZM49.1874 12.8519C49.1874 12.8999 49.1814 12.9359 49.1694 12.9599C49.0494 13.2239 48.8454 13.4279 48.5574 13.5719C48.2814 13.7039 48.0054 13.7699 47.7294 13.7699C47.2254 13.7699 46.8594 13.6259 46.6314 13.3379C46.4154 13.0379 46.2414 12.6719 46.1094 12.2399C45.6534 12.6599 45.1494 13.0139 44.5974 13.3019C44.0454 13.5779 43.4514 13.7159 42.8154 13.7159C42.3714 13.7159 41.9514 13.6319 41.5554 13.4639C41.1714 13.2839 40.8594 13.0259 40.6194 12.6899C40.3794 12.3539 40.2594 11.9459 40.2594 11.4659C40.2594 10.9619 40.3854 10.5299 40.6374 10.1699C40.9014 9.79791 41.2314 9.48591 41.6274 9.23391C42.0354 8.96991 42.4674 8.75991 42.9234 8.60391C43.3914 8.43591 43.8294 8.30991 44.2374 8.22591C44.5134 8.16591 44.7954 8.11191 45.0834 8.06391C45.3714 8.01591 45.6534 7.96791 45.9294 7.91991C45.9294 7.58391 45.9114 7.19391 45.8754 6.74991C45.8514 6.30591 45.7614 5.93991 45.6054 5.65191C45.4494 5.37591 45.2394 5.12991 44.9754 4.91391C44.7114 4.69791 44.4174 4.58991 44.0934 4.58991C43.5414 4.58991 43.1094 4.73391 42.7974 5.02191C42.4854 5.30991 42.2634 5.71791 42.1314 6.24591C42.1194 6.30591 42.1074 6.37191 42.0954 6.44391C42.0954 6.50391 42.0894 6.56391 42.0774 6.62391C42.0654 6.69591 42.0174 6.76191 41.9334 6.82191C41.8614 6.86991 41.7834 6.89391 41.6994 6.89391C41.4714 6.89391 41.2614 6.83991 41.0694 6.73191C40.8894 6.62391 40.7994 6.44391 40.7994 6.19191C40.7994 6.04791 40.8234 5.92191 40.8714 5.81391C41.0274 5.44191 41.2794 5.13591 41.6274 4.89591C41.9754 4.64391 42.3594 4.45191 42.7794 4.31991C43.2114 4.18791 43.6134 4.12191 43.9854 4.12191C44.6334 4.12191 45.2214 4.24191 45.7494 4.48191C46.2774 4.72191 46.6974 5.07591 47.0094 5.54391C47.3334 5.99991 47.4954 6.57591 47.4954 7.27191C47.4954 8.05191 47.4894 8.83791 47.4774 9.62991C47.4774 10.4219 47.5014 11.2139 47.5494 12.0059C47.5614 12.2699 47.6154 12.5039 47.7114 12.7079C47.8074 12.8999 48.0054 12.9959 48.3054 12.9959C48.4614 12.9959 48.6234 12.9599 48.7914 12.8879C48.9714 12.8039 49.0854 12.7619 49.1334 12.7619C49.1694 12.7619 49.1874 12.7919 49.1874 12.8519ZM57.1424 5.79591C57.1424 5.91591 57.0944 6.02991 56.9984 6.13791C56.9144 6.23391 56.8064 6.28191 56.6744 6.28191C56.4944 6.28191 56.3624 6.22191 56.2784 6.10191C56.2064 5.98191 56.1404 5.84391 56.0804 5.68791C56.0324 5.53191 55.9544 5.39391 55.8464 5.27391C55.7384 5.15391 55.5584 5.09391 55.3064 5.09391C55.2584 5.09391 55.2104 5.09391 55.1624 5.09391C55.1264 5.09391 55.0844 5.09991 55.0364 5.11191C54.8324 5.14791 54.6104 5.27391 54.3704 5.48991C54.1304 5.70591 53.8964 5.96391 53.6684 6.26391C53.4524 6.55191 53.2724 6.83991 53.1284 7.12791C52.9844 7.41591 52.9064 7.65591 52.8944 7.84791C52.8824 8.03991 52.8764 8.23191 52.8764 8.42391C52.8764 8.60391 52.8764 8.78391 52.8764 8.96391C52.8764 9.61191 52.8764 10.2599 52.8764 10.9079C52.8884 11.5559 52.8944 12.1979 52.8944 12.8339C52.8944 13.0139 52.9664 13.1459 53.1104 13.2299C53.2664 13.3019 53.4224 13.3379 53.5784 13.3379C53.6984 13.3379 53.8184 13.3319 53.9384 13.3199C54.0584 13.3079 54.1784 13.3019 54.2984 13.3019C54.3584 13.3019 54.4004 13.3319 54.4244 13.3919C54.4484 13.4399 54.4604 13.4879 54.4604 13.5359C54.4604 13.7279 54.3644 13.8239 54.1724 13.8239C53.8124 13.8239 53.4524 13.8179 53.0924 13.8059C52.7324 13.7819 52.3724 13.7699 52.0124 13.7699C51.6404 13.7699 51.2624 13.7819 50.8784 13.8059C50.5064 13.8299 50.1284 13.8419 49.7444 13.8419C49.6964 13.8419 49.6604 13.8059 49.6364 13.7339C49.6244 13.6619 49.6184 13.6019 49.6184 13.5539C49.6184 13.4339 49.6664 13.3679 49.7624 13.3559C49.8944 13.3319 50.0324 13.3259 50.1764 13.3379C50.3204 13.3499 50.4524 13.3559 50.5724 13.3559C50.7524 13.3559 50.8964 13.3199 51.0044 13.2479C51.1244 13.1639 51.1904 13.0259 51.2024 12.8339C51.2264 12.4499 51.2384 12.0599 51.2384 11.6639C51.2504 11.2679 51.2564 10.8719 51.2564 10.4759V8.72991C51.2444 8.21391 51.2384 7.70391 51.2384 7.19991C51.2504 6.68391 51.2324 6.17391 51.1844 5.66991C51.1724 5.42991 51.1064 5.26191 50.9864 5.16591C50.8664 5.05791 50.6864 5.00391 50.4464 5.00391C50.3504 5.00391 50.2484 5.01591 50.1404 5.03991C50.0444 5.05191 49.9424 5.05791 49.8344 5.05791C49.7384 5.05791 49.6904 4.98591 49.6904 4.84191C49.6904 4.75791 49.7324 4.69791 49.8164 4.66191C49.9364 4.62591 50.0624 4.60191 50.1944 4.58991C50.3264 4.56591 50.4524 4.54791 50.5724 4.53591C50.8964 4.47591 51.2204 4.41591 51.5444 4.35591C51.8684 4.29591 52.1924 4.22391 52.5164 4.13991C52.6244 4.17591 52.7024 4.24191 52.7504 4.33791C52.7744 4.38591 52.7924 4.51791 52.8044 4.73391C52.8164 4.94991 52.8224 5.20191 52.8224 5.48991C52.8224 5.76591 52.8224 6.02991 52.8224 6.28191C52.8224 6.52191 52.8224 6.68991 52.8224 6.78591C53.0864 6.36591 53.3864 5.94591 53.7224 5.52591C54.0584 5.10591 54.4424 4.75791 54.8744 4.48191C55.3064 4.20591 55.7924 4.06791 56.3324 4.06791C56.6204 4.06791 56.8064 4.15791 56.8904 4.33791C56.9744 4.51791 57.0284 4.72791 57.0524 4.96791C57.0764 5.09991 57.0944 5.23791 57.1064 5.38191C57.1304 5.52591 57.1424 5.66391 57.1424 5.79591ZM69.1725 2.41191C69.1725 2.50791 69.1305 2.59791 69.0465 2.68191C68.9625 2.76591 68.8725 2.80791 68.7765 2.80791C68.6085 2.80791 68.4945 2.73591 68.4345 2.59191C68.3745 2.42391 68.3085 2.25591 68.2365 2.08791C68.1765 1.91991 68.1165 1.75191 68.0565 1.58391C67.9605 1.34391 67.8225 1.15191 67.6425 1.00791C67.4745 0.851908 67.2525 0.773908 66.9765 0.773908C66.5205 0.773908 66.1785 0.935908 65.9505 1.25991C65.7345 1.57191 65.6265 1.93791 65.6265 2.35791C65.6265 2.76591 65.6265 3.17391 65.6265 3.58191C65.6265 3.98991 65.6325 4.40391 65.6445 4.82391C66.0285 4.82391 66.4125 4.82391 66.7965 4.82391C67.1805 4.81191 67.5645 4.80591 67.9485 4.80591C68.0325 4.80591 68.0925 4.84191 68.1285 4.91391C68.1765 4.97391 68.2005 5.03991 68.2005 5.11191C68.2005 5.19591 68.1825 5.26791 68.1465 5.32791C68.1105 5.38791 68.0445 5.41791 67.9485 5.41791C67.7085 5.41791 67.4685 5.41791 67.2285 5.41791C66.9885 5.40591 66.7485 5.39991 66.5085 5.39991H65.6985V12.3659C65.6985 12.6299 65.7585 12.8699 65.8785 13.0859C65.9985 13.2899 66.2085 13.3919 66.5085 13.3919C66.6405 13.3919 66.7665 13.3859 66.8865 13.3739C67.0185 13.3499 67.1445 13.3379 67.2645 13.3379C67.3365 13.3379 67.3845 13.3739 67.4085 13.4459C67.4445 13.5059 67.4625 13.5659 67.4625 13.6259C67.4625 13.7579 67.3965 13.8239 67.2645 13.8239C66.8565 13.8239 66.4425 13.8179 66.0225 13.8059C65.6145 13.7819 65.2065 13.7699 64.7985 13.7699C64.5705 13.7699 64.3485 13.7699 64.1325 13.7699C63.9165 13.7699 63.7005 13.7759 63.4845 13.7879C63.3285 13.7999 63.1785 13.8119 63.0345 13.8239C62.8905 13.8359 62.7405 13.8419 62.5845 13.8419C62.4045 13.8419 62.3145 13.7699 62.3145 13.6259C62.3145 13.4939 62.3565 13.4219 62.4405 13.4099C62.5245 13.3859 62.6085 13.3739 62.6925 13.3739C62.7765 13.3739 62.8545 13.3799 62.9265 13.3919C63.0105 13.3919 63.0945 13.3919 63.1785 13.3919C63.5265 13.3919 63.7485 13.2959 63.8445 13.1039C63.9525 12.9119 64.0065 12.6659 64.0065 12.3659V5.38191H62.9805C62.8965 5.38191 62.8005 5.39391 62.6925 5.41791C62.5965 5.42991 62.5125 5.45991 62.4405 5.50791C62.4285 5.51991 62.4105 5.53791 62.3865 5.56191C62.3745 5.58591 62.3565 5.59791 62.3325 5.59791C62.2365 5.59791 62.1885 5.56191 62.1885 5.48991C62.1885 5.46591 62.2005 5.37591 62.2245 5.21991C62.2605 5.05191 62.2845 4.96191 62.2965 4.94991C62.3205 4.88991 62.3505 4.85991 62.3865 4.85991C62.4225 4.84791 62.4645 4.84191 62.5125 4.84191C62.5965 4.84191 62.6745 4.84791 62.7465 4.85991C62.8185 4.85991 62.8965 4.85991 62.9805 4.85991H63.9705C63.9705 4.60791 63.9705 4.35591 63.9705 4.10391C63.9705 3.85191 63.9705 3.59991 63.9705 3.34791C63.9705 2.24391 64.2585 1.47591 64.8345 1.04391C65.4225 0.599907 66.2325 0.377907 67.2645 0.377907C67.5765 0.377907 67.8765 0.443907 68.1645 0.575908C68.4525 0.695908 68.7525 0.755908 69.0645 0.755908C69.0765 1.03191 69.0945 1.30791 69.1185 1.58391C69.1545 1.85991 69.1725 2.13591 69.1725 2.41191ZM77.3021 9.05391C77.3021 8.53791 77.2601 8.02191 77.1761 7.50591C77.1041 6.97791 76.9601 6.49191 76.7441 6.04791C76.5401 5.60391 76.2401 5.24991 75.8441 4.98591C75.4481 4.70991 74.9321 4.57191 74.2961 4.57191C73.6961 4.57191 73.2041 4.71591 72.8201 5.00391C72.4481 5.29191 72.1541 5.66391 71.9381 6.11991C71.7341 6.57591 71.5901 7.06791 71.5061 7.59591C71.4341 8.12391 71.3981 8.62191 71.3981 9.08991C71.3981 9.60591 71.4341 10.1219 71.5061 10.6379C71.5901 11.1539 71.7401 11.6219 71.9561 12.0419C72.1721 12.4499 72.4781 12.7799 72.8741 13.0319C73.2821 13.2839 73.8041 13.4099 74.4401 13.4099C75.0641 13.4099 75.5621 13.2779 75.9341 13.0139C76.3181 12.7499 76.6061 12.4019 76.7981 11.9699C77.0021 11.5379 77.1341 11.0699 77.1941 10.5659C77.2661 10.0499 77.3021 9.54591 77.3021 9.05391ZM79.1561 9.10791C79.1561 10.0079 78.9401 10.8179 78.5081 11.5379C78.0881 12.2579 77.5121 12.8279 76.7801 13.2479C76.0601 13.6679 75.2501 13.8779 74.3501 13.8779C73.4741 13.8779 72.6821 13.6679 71.9741 13.2479C71.2661 12.8159 70.7021 12.2459 70.2821 11.5379C69.8621 10.8179 69.6521 10.0199 69.6521 9.14391C69.6521 8.24391 69.8561 7.41591 70.2641 6.65991C70.6721 5.89191 71.2301 5.27391 71.9381 4.80591C72.6581 4.33791 73.4861 4.10391 74.4221 4.10391C75.4301 4.10391 76.2881 4.31991 76.9961 4.75191C77.7041 5.17191 78.2381 5.75991 78.5981 6.51591C78.9701 7.25991 79.1561 8.12391 79.1561 9.10791ZM86.5382 12.9779C86.5382 13.0859 86.4542 13.1939 86.2862 13.3019C86.1302 13.4099 85.9382 13.5059 85.7102 13.5899C85.4822 13.6739 85.2602 13.7399 85.0442 13.7879C84.8402 13.8359 84.6902 13.8599 84.5942 13.8599C83.9702 13.8599 83.4842 13.7819 83.1362 13.6259C82.8002 13.4699 82.5602 13.2119 82.4162 12.8519C82.2842 12.4919 82.2182 12.0059 82.2182 11.3939C82.2182 10.3979 82.2182 9.40191 82.2182 8.40591C82.2302 7.39791 82.2422 6.39591 82.2542 5.39991H80.9582C80.8742 5.39991 80.8022 5.42391 80.7422 5.47191C80.6942 5.50791 80.6402 5.52591 80.5802 5.52591C80.5202 5.52591 80.4902 5.48391 80.4902 5.39991C80.4902 5.35191 80.5202 5.25591 80.5802 5.11191C80.6522 4.96791 80.7002 4.87191 80.7242 4.82391C80.7602 4.83591 80.8142 4.84191 80.8862 4.84191H82.2902L82.3082 2.55591C82.5842 2.37591 82.8362 2.17791 83.0642 1.96191C83.2922 1.73391 83.5202 1.50591 83.7482 1.27791C83.7722 1.25391 83.7962 1.23591 83.8202 1.22391C83.8442 1.19991 83.8682 1.18791 83.8922 1.18791C84.0002 1.18791 84.0542 1.22991 84.0542 1.31391L83.9462 4.82391C84.3302 4.82391 84.7082 4.81791 85.0802 4.80591C85.4642 4.79391 85.8422 4.78791 86.2142 4.78791C86.3702 4.78791 86.4482 4.87791 86.4482 5.05791C86.4482 5.28591 86.3462 5.39991 86.1422 5.39991H83.9462C83.9462 6.31191 83.9402 7.22991 83.9282 8.15391C83.9282 9.06591 83.9282 9.98391 83.9282 10.9079V12.2939C83.9282 12.5939 84.0542 12.8039 84.3062 12.9239C84.5582 13.0319 84.8042 13.0859 85.0442 13.0859C85.3802 13.0859 85.7102 13.0319 86.0342 12.9239C86.0702 12.8999 86.1242 12.8759 86.1962 12.8519C86.2682 12.8279 86.3222 12.8159 86.3582 12.8159C86.4782 12.8159 86.5382 12.8699 86.5382 12.9779ZM95.1615 9.05391C95.1615 8.53791 95.1195 8.02191 95.0355 7.50591C94.9635 6.97791 94.8195 6.49191 94.6035 6.04791C94.3995 5.60391 94.0995 5.24991 93.7035 4.98591C93.3075 4.70991 92.7915 4.57191 92.1555 4.57191C91.5555 4.57191 91.0635 4.71591 90.6795 5.00391C90.3075 5.29191 90.0135 5.66391 89.7975 6.11991C89.5935 6.57591 89.4495 7.06791 89.3655 7.59591C89.2935 8.12391 89.2575 8.62191 89.2575 9.08991C89.2575 9.60591 89.2935 10.1219 89.3655 10.6379C89.4495 11.1539 89.5995 11.6219 89.8155 12.0419C90.0315 12.4499 90.3375 12.7799 90.7335 13.0319C91.1415 13.2839 91.6635 13.4099 92.2995 13.4099C92.9235 13.4099 93.4215 13.2779 93.7935 13.0139C94.1775 12.7499 94.4655 12.4019 94.6575 11.9699C94.8615 11.5379 94.9935 11.0699 95.0535 10.5659C95.1255 10.0499 95.1615 9.54591 95.1615 9.05391ZM97.0155 9.10791C97.0155 10.0079 96.7995 10.8179 96.3675 11.5379C95.9475 12.2579 95.3715 12.8279 94.6395 13.2479C93.9195 13.6679 93.1095 13.8779 92.2095 13.8779C91.3335 13.8779 90.5415 13.6679 89.8335 13.2479C89.1255 12.8159 88.5615 12.2459 88.1415 11.5379C87.7215 10.8179 87.5115 10.0199 87.5115 9.14391C87.5115 8.24391 87.7155 7.41591 88.1235 6.65991C88.5315 5.89191 89.0895 5.27391 89.7975 4.80591C90.5175 4.33791 91.3455 4.10391 92.2815 4.10391C93.2895 4.10391 94.1475 4.31991 94.8555 4.75191C95.5635 5.17191 96.0975 5.75991 96.4575 6.51591C96.8295 7.25991 97.0155 8.12391 97.0155 9.10791Z" fill="#042A7D"/>
</svg>
