<svg width="60" height="10" viewBox="0 0 60 10" fill="none" xmlns="http://www.w3.org/2000/svg">
<path d="M4.22397 4.60894C4.22397 4.39628 4.21663 4.13594 4.20197 3.82794C4.19463 3.51261 4.16897 3.18261 4.12497 2.83794C4.08097 2.49328 4.00397 2.17061 3.89397 1.86994C3.78397 1.56928 3.63363 1.32728 3.44297 1.14394C3.2523 0.953275 3.00297 0.857942 2.69496 0.857942C2.4163 0.857942 2.18163 0.956942 1.99096 1.15494C1.8003 1.34561 1.6463 1.59861 1.52896 1.91394C1.41163 2.22194 1.31996 2.55194 1.25396 2.90394C1.1953 3.24861 1.15496 3.58228 1.13296 3.90494C1.11096 4.22028 1.09996 4.47694 1.09996 4.67494C1.09996 4.87294 1.1073 5.12228 1.12196 5.42294C1.14396 5.71628 1.18063 6.02794 1.23196 6.35794C1.2833 6.68061 1.36396 6.98494 1.47396 7.27094C1.5913 7.55694 1.74163 7.79161 1.92496 7.97494C2.1083 8.15094 2.3393 8.23894 2.61796 8.23894C2.9113 8.23894 3.1533 8.15094 3.34397 7.97494C3.53463 7.79161 3.68863 7.55694 3.80597 7.27094C3.9233 6.97761 4.0113 6.66594 4.06997 6.33594C4.13597 5.99861 4.1763 5.67961 4.19096 5.37894C4.21297 5.07094 4.22397 4.81428 4.22397 4.60894ZM5.36797 4.46594C5.36797 4.80328 5.33497 5.15894 5.26897 5.53294C5.2103 5.90694 5.11496 6.27361 4.98296 6.63294C4.85097 6.99228 4.67497 7.31861 4.45497 7.61194C4.2423 7.90528 3.98197 8.13994 3.67397 8.31594C3.36597 8.48461 3.00663 8.56894 2.59596 8.56894C2.10463 8.56894 1.6903 8.44794 1.35296 8.20594C1.02296 7.95661 0.758965 7.63761 0.560965 7.24894C0.362965 6.86028 0.219965 6.44594 0.131965 6.00594C0.0439649 5.55861 -3.51258e-05 5.13694 -3.51258e-05 4.74094C-3.51258e-05 4.40361 0.0292982 4.04428 0.0879649 3.66294C0.146632 3.27428 0.241965 2.89661 0.373965 2.52994C0.505965 2.16328 0.678298 1.82961 0.890965 1.52894C1.11096 1.22828 1.37496 0.989942 1.68296 0.813942C1.9983 0.630609 2.36496 0.538942 2.78297 0.538942C3.17896 0.538942 3.51996 0.623275 3.80597 0.791942C4.0993 0.960609 4.34496 1.18428 4.54297 1.46294C4.7483 1.74161 4.90963 2.05328 5.02697 2.39794C5.1443 2.74261 5.22863 3.09461 5.27997 3.45394C5.33863 3.80594 5.36797 4.14328 5.36797 4.46594ZM9.66725 2.84894C9.66725 2.66561 9.66358 2.48228 9.65625 2.29894C9.65625 2.11561 9.65625 1.93228 9.65625 1.74894L6.82925 5.82994H9.65625C9.65625 5.33128 9.65625 4.83261 9.65625 4.33394C9.66358 3.83528 9.66725 3.34028 9.66725 2.84894ZM12.1752 5.46694C12.1752 5.48161 12.1642 5.52561 12.1422 5.59894C12.1276 5.66494 12.1166 5.71261 12.1092 5.74194C12.0872 5.82261 12.0616 5.91061 12.0322 6.00594C12.0102 6.10128 11.9919 6.18928 11.9772 6.26994C11.9699 6.32128 11.9479 6.35061 11.9112 6.35794C11.8746 6.35794 11.8342 6.35794 11.7902 6.35794H10.7122C10.7122 6.56328 10.7122 6.76861 10.7122 6.97394C10.7196 7.17928 10.7232 7.38828 10.7232 7.60094V7.99694C10.7232 8.10694 10.7636 8.18028 10.8442 8.21694C10.9322 8.25361 11.0312 8.27561 11.1412 8.28294C11.2512 8.28294 11.3392 8.28294 11.4052 8.28294C11.4566 8.28294 11.5079 8.27928 11.5592 8.27194C11.6179 8.26461 11.6729 8.26094 11.7242 8.26094C11.7756 8.26094 11.8049 8.28294 11.8122 8.32694C11.8196 8.36361 11.8232 8.40028 11.8232 8.43694C11.8232 8.46628 11.8159 8.50294 11.8012 8.54694C11.7939 8.58361 11.7719 8.60194 11.7352 8.60194C11.7059 8.60194 11.6729 8.60194 11.6362 8.60194C11.6069 8.60194 11.5739 8.59828 11.5372 8.59094C11.3172 8.57628 11.0936 8.56528 10.8662 8.55794C10.6462 8.55061 10.4299 8.54694 10.2172 8.54694C10.0266 8.54694 9.83225 8.55061 9.63425 8.55794C9.44358 8.56528 9.25291 8.57261 9.06225 8.57994C8.99625 8.58728 8.93025 8.59094 8.86425 8.59094C8.79825 8.59828 8.73591 8.60194 8.67725 8.60194C8.61858 8.60194 8.58191 8.58728 8.56725 8.55794C8.55258 8.52128 8.54525 8.47728 8.54525 8.42594C8.54525 8.38928 8.54891 8.35628 8.55625 8.32694C8.57091 8.29028 8.60391 8.27194 8.65525 8.27194C8.69191 8.27194 8.72858 8.27561 8.76525 8.28294C8.80925 8.28294 8.84958 8.28294 8.88625 8.28294C8.96691 8.28294 9.06591 8.28294 9.18325 8.28294C9.30791 8.28294 9.41425 8.26461 9.50225 8.22794C9.59758 8.18394 9.64525 8.10694 9.64525 7.99694V6.35794H6.36725C6.31591 6.35794 6.26825 6.34694 6.22425 6.32494C6.18758 6.29561 6.16925 6.25528 6.16925 6.20394C6.16925 6.14528 6.18391 6.09394 6.21325 6.04994C6.22058 6.03528 6.22791 6.02061 6.23525 6.00594C6.24258 5.99128 6.24991 5.98028 6.25725 5.97294C6.86591 5.09294 7.47825 4.20928 8.09425 3.32194C8.71758 2.43461 9.32258 1.54361 9.90925 0.648942C9.93125 0.604942 9.95691 0.568275 9.98625 0.538942C10.0082 0.502275 10.0412 0.483942 10.0852 0.483942H10.6682C10.6829 0.483942 10.7049 0.487608 10.7342 0.494942C10.7636 0.494942 10.7746 0.505942 10.7672 0.527942L10.7232 0.648942V5.82994H11.3942C11.4896 5.82994 11.5849 5.81528 11.6802 5.78594C11.7829 5.74928 11.8636 5.69428 11.9222 5.62094C11.9369 5.60628 11.9516 5.58061 11.9662 5.54394C11.9882 5.49994 12.0029 5.47061 12.0102 5.45594C12.0322 5.41928 12.0579 5.40094 12.0872 5.40094C12.1459 5.40094 12.1752 5.42294 12.1752 5.46694ZM18.3005 5.89594C18.3005 6.36528 18.2125 6.77228 18.0365 7.11694C17.8605 7.45428 17.6185 7.73294 17.3105 7.95294C17.0099 8.17294 16.6652 8.33794 16.2765 8.44794C15.8952 8.55061 15.4955 8.60194 15.0775 8.60194C14.8429 8.60194 14.5972 8.57994 14.3405 8.53594C14.0912 8.49194 13.8565 8.41128 13.6365 8.29394C13.4239 8.17661 13.2552 8.00794 13.1305 7.78794C13.0279 7.61928 12.9765 7.43228 12.9765 7.22694C12.9765 7.05828 13.0242 6.93361 13.1195 6.85294C13.2222 6.76494 13.3542 6.72094 13.5155 6.72094C13.7355 6.72094 13.8565 6.81994 13.8785 7.01794C13.9079 7.22328 13.9629 7.42494 14.0435 7.62294C14.1315 7.81361 14.2525 7.97128 14.4065 8.09594C14.5679 8.22061 14.7659 8.28294 15.0005 8.28294C15.7632 8.28294 16.3059 8.09594 16.6285 7.72194C16.9585 7.34061 17.1235 6.77961 17.1235 6.03894C17.1235 5.54761 16.9915 5.14428 16.7275 4.82894C16.4709 4.50628 16.0895 4.34494 15.5835 4.34494C15.4882 4.34494 15.3855 4.35228 15.2755 4.36694C15.1655 4.37428 15.0629 4.38894 14.9675 4.41094C14.9162 4.41828 14.8612 4.43661 14.8025 4.46594C14.7439 4.48794 14.6852 4.49894 14.6265 4.49894C14.5752 4.49894 14.5422 4.47694 14.5275 4.43294C14.5202 4.38894 14.5165 4.34861 14.5165 4.31194C14.5165 4.26061 14.5239 4.20561 14.5385 4.14694C14.5532 4.08828 14.5935 4.05894 14.6595 4.05894C14.6815 4.05894 14.7035 4.06261 14.7255 4.06994C14.7549 4.06994 14.7842 4.06994 14.8135 4.06994C14.9602 4.06994 15.1069 4.06994 15.2535 4.06994C15.4075 4.06261 15.5542 4.04061 15.6935 4.00394C16.1042 3.88661 16.3939 3.69594 16.5625 3.43194C16.7385 3.16061 16.8265 2.81594 16.8265 2.39794C16.8265 2.11194 16.7862 1.85161 16.7055 1.61694C16.6322 1.38228 16.5039 1.19528 16.3205 1.05594C16.1372 0.916608 15.8842 0.846942 15.5615 0.846942C15.0775 0.846942 14.7109 0.997275 14.4615 1.29794C14.2195 1.59128 14.0985 1.96894 14.0985 2.43094C14.0985 2.59228 14.0105 2.67294 13.8345 2.67294C13.6659 2.67294 13.5229 2.62894 13.4055 2.54094C13.2955 2.45294 13.2405 2.31728 13.2405 2.13394C13.2405 2.05328 13.2699 1.93961 13.3285 1.79294C13.3945 1.64628 13.4532 1.53994 13.5045 1.47394C13.7832 1.11461 14.1352 0.865275 14.5605 0.725942C14.9932 0.586609 15.4259 0.516942 15.8585 0.516942C16.1959 0.516942 16.5222 0.582942 16.8375 0.714942C17.1529 0.846942 17.4132 1.04128 17.6185 1.29794C17.8239 1.54728 17.9265 1.85894 17.9265 2.23294C17.9265 2.50428 17.8495 2.76461 17.6955 3.01394C17.5489 3.26328 17.3765 3.47228 17.1785 3.64094C17.0245 3.78028 16.8522 3.89028 16.6615 3.97094C16.4709 4.05161 16.2802 4.11761 16.0895 4.16894C16.2289 4.17628 16.3975 4.19094 16.5955 4.21294C16.8009 4.23494 16.9659 4.27161 17.0905 4.32294C17.4352 4.44028 17.7212 4.63828 17.9485 4.91694C18.1832 5.18828 18.3005 5.51461 18.3005 5.89594ZM24.2388 8.42594C24.2388 8.54328 24.1838 8.60194 24.0738 8.60194C24.0225 8.60194 23.9675 8.59828 23.9088 8.59094C23.8501 8.58361 23.7915 8.57994 23.7328 8.57994C23.6668 8.57994 23.5971 8.57994 23.5238 8.57994C23.4578 8.57261 23.3881 8.56894 23.3148 8.56894C23.1535 8.56161 22.9885 8.56161 22.8198 8.56894C22.6585 8.56894 22.4971 8.56894 22.3358 8.56894C22.1158 8.56894 21.8995 8.56894 21.6868 8.56894C21.4741 8.56894 21.2578 8.57261 21.0378 8.57994C20.9865 8.58728 20.9205 8.59094 20.8398 8.59094C20.7665 8.59094 20.7078 8.59094 20.6638 8.59094C20.5758 8.59094 20.5318 8.53594 20.5318 8.42594C20.5318 8.38928 20.5355 8.35628 20.5428 8.32694C20.5575 8.29028 20.5868 8.27194 20.6308 8.27194C20.6748 8.27194 20.7151 8.27561 20.7518 8.28294C20.7958 8.28294 20.8398 8.28294 20.8838 8.28294C20.9571 8.28294 21.0635 8.28294 21.2028 8.28294C21.3495 8.27561 21.4851 8.25361 21.6098 8.21694C21.7345 8.17294 21.7968 8.09961 21.7968 7.99694C21.7968 7.40294 21.8005 6.80894 21.8078 6.21494C21.8151 5.61361 21.8188 5.01594 21.8188 4.42194C21.8188 3.91594 21.8188 3.40994 21.8188 2.90394C21.8188 2.39794 21.8188 1.88828 21.8188 1.37494C21.8188 1.27961 21.7711 1.23194 21.6758 1.23194C21.6318 1.23194 21.5401 1.25761 21.4008 1.30894C21.2688 1.36028 21.1185 1.41894 20.9498 1.48494C20.7811 1.55094 20.6271 1.60961 20.4878 1.66094C20.3558 1.71228 20.2715 1.73794 20.2348 1.73794C20.1688 1.73794 20.1211 1.70861 20.0918 1.64994C20.0698 1.59128 20.0588 1.53628 20.0588 1.48494C20.0588 1.44094 20.0808 1.40428 20.1248 1.37494C20.1688 1.33828 20.2091 1.31628 20.2458 1.30894C20.4511 1.25761 20.6455 1.19894 20.8288 1.13294C21.0121 1.05961 21.2028 0.989942 21.4008 0.923942C21.5548 0.872609 21.7161 0.817609 21.8848 0.758942C22.0535 0.692942 22.2111 0.630609 22.3578 0.571942C22.3871 0.557276 22.4385 0.538942 22.5118 0.516942C22.5851 0.494942 22.6585 0.472942 22.7318 0.450942C22.8125 0.428942 22.8601 0.417942 22.8748 0.417942C22.9188 0.417942 22.9518 0.425275 22.9738 0.439942C22.9958 0.447275 23.0068 0.483942 23.0068 0.549942C23.0068 0.711275 23.0031 0.872609 22.9958 1.03394C22.9958 1.18794 22.9921 1.34561 22.9848 1.50694C22.9775 1.95428 22.9701 2.42728 22.9628 2.92594C22.9628 3.42461 22.9591 3.91594 22.9518 4.39994C22.9518 4.93528 22.9518 5.46694 22.9518 5.99494C22.9518 6.52294 22.9518 7.05461 22.9518 7.58994C22.9518 7.65594 22.9518 7.72561 22.9518 7.79894C22.9591 7.86494 22.9628 7.93094 22.9628 7.99694C22.9701 8.09961 23.0288 8.17294 23.1388 8.21694C23.2561 8.25361 23.3808 8.27194 23.5128 8.27194C23.6521 8.27194 23.7511 8.27194 23.8098 8.27194C23.8685 8.27194 23.9235 8.26828 23.9748 8.26094C24.0261 8.25361 24.0775 8.24994 24.1288 8.24994C24.1728 8.24994 24.2021 8.27194 24.2168 8.31594C24.2315 8.35261 24.2388 8.38928 24.2388 8.42594ZM30.2101 3.32194C30.2101 3.24128 30.2101 3.16061 30.2101 3.07994C30.2101 2.99194 30.2064 2.90761 30.1991 2.82694C30.1844 2.52628 30.1184 2.22561 30.0011 1.92494C29.8838 1.61694 29.7114 1.36028 29.4841 1.15494C29.2568 0.942275 28.9708 0.835942 28.6261 0.835942C28.2374 0.835942 27.9294 0.942275 27.7021 1.15494C27.4748 1.36761 27.3098 1.63528 27.2071 1.95794C27.1118 2.28061 27.0641 2.60694 27.0641 2.93694C27.0641 3.18628 27.0788 3.44294 27.1081 3.70694C27.1374 3.96361 27.1998 4.20561 27.2951 4.43294C27.3904 4.65294 27.5334 4.83261 27.7241 4.97194C27.9148 5.10394 28.1678 5.16994 28.4831 5.16994C28.6444 5.16994 28.8278 5.14061 29.0331 5.08194C29.2458 5.02328 29.4438 4.93894 29.6271 4.82894C29.8104 4.71894 29.9461 4.59061 30.0341 4.44394C30.1368 4.27528 30.1918 4.09561 30.1991 3.90494C30.2064 3.70694 30.2101 3.51261 30.2101 3.32194ZM31.2771 3.83894C31.2771 4.08828 31.2441 4.35594 31.1781 4.64194C31.1194 4.92061 31.0461 5.17728 30.9581 5.41194C30.5841 6.41661 30.0304 7.21961 29.2971 7.82094C28.5638 8.42228 27.6838 8.86228 26.6571 9.14094C26.6498 9.14094 26.6424 9.14094 26.6351 9.14094C26.6351 9.14094 26.6314 9.14094 26.6241 9.14094C26.5581 9.14094 26.5251 9.11161 26.5251 9.05294C26.5251 9.01628 26.5398 8.99061 26.5691 8.97594C26.5984 8.96128 26.6278 8.95028 26.6571 8.94294C26.9944 8.79628 27.3281 8.63861 27.6581 8.46994C27.9881 8.30128 28.2814 8.08494 28.5381 7.82094C28.7728 7.58628 28.9964 7.31128 29.2091 6.99594C29.4291 6.68061 29.6161 6.35061 29.7701 6.00594C29.9241 5.65394 30.0158 5.31294 30.0451 4.98294C29.7884 5.15161 29.5134 5.29094 29.2201 5.40094C28.9268 5.51094 28.6224 5.56594 28.3071 5.56594C27.8304 5.56594 27.4161 5.47061 27.0641 5.27994C26.7121 5.08194 26.4371 4.80694 26.2391 4.45494C26.0484 4.09561 25.9531 3.67761 25.9531 3.20094C25.9531 2.62161 26.0741 2.13394 26.3161 1.73794C26.5581 1.34194 26.8918 1.04128 27.3171 0.835942C27.7498 0.630609 28.2411 0.527942 28.7911 0.527942C29.1871 0.527942 29.5501 0.626942 29.8801 0.824942C30.2101 1.02294 30.4888 1.28328 30.7161 1.60594C30.9434 1.92128 31.0974 2.26228 31.1781 2.62894C31.2221 2.82694 31.2478 3.02861 31.2551 3.23394C31.2698 3.43194 31.2771 3.63361 31.2771 3.83894ZM39.3824 2.59594C39.3824 2.69861 39.3384 2.74994 39.2504 2.74994C39.221 2.74994 39.1954 2.74994 39.1734 2.74994C39.1514 2.74261 39.133 2.72428 39.1184 2.69494C39.111 2.68028 39.1 2.64728 39.0854 2.59594C39.078 2.53728 39.0744 2.49694 39.0744 2.47494C39.0377 2.25494 38.9827 2.01294 38.9094 1.74894C38.8434 1.47761 38.737 1.25761 38.5904 1.08894C38.517 1.00094 38.3924 0.942276 38.2164 0.912942C38.0404 0.883609 37.8607 0.868942 37.6774 0.868942C37.494 0.868942 37.351 0.868942 37.2484 0.868942C37.1384 0.868942 37.0027 0.868942 36.8414 0.868942C36.6874 0.868942 36.548 0.898276 36.4234 0.956942C36.306 1.01561 36.2474 1.13294 36.2474 1.30894C36.2474 2.41628 36.251 3.52728 36.2584 4.64194C36.273 5.74928 36.2804 6.86028 36.2804 7.97494C36.2804 8.07028 36.3207 8.14361 36.4014 8.19494C36.482 8.23894 36.5737 8.26828 36.6764 8.28294C36.779 8.29761 36.8634 8.30494 36.9294 8.30494C36.988 8.30494 37.0394 8.30494 37.0834 8.30494C37.1347 8.29761 37.186 8.29394 37.2374 8.29394C37.3107 8.29394 37.3474 8.32694 37.3474 8.39294C37.3474 8.42228 37.3474 8.46628 37.3474 8.52494C37.3474 8.57628 37.3217 8.60194 37.2704 8.60194C37.0064 8.60194 36.7424 8.59828 36.4784 8.59094C36.2217 8.57628 35.9614 8.56894 35.6974 8.56894C35.3454 8.56894 34.986 8.57994 34.6194 8.60194C34.5387 8.60194 34.4544 8.60561 34.3664 8.61294C34.2784 8.62028 34.194 8.62394 34.1134 8.62394C34.0474 8.62394 34.0144 8.58361 34.0144 8.50294C34.0144 8.41494 34.0254 8.35994 34.0474 8.33794C34.0694 8.31594 34.1207 8.30494 34.2014 8.30494C34.216 8.30494 34.2307 8.30861 34.2454 8.31594C34.2674 8.31594 34.282 8.31594 34.2894 8.31594C34.37 8.31594 34.4727 8.30861 34.5974 8.29394C34.722 8.27928 34.832 8.24994 34.9274 8.20594C35.03 8.15461 35.0814 8.07761 35.0814 7.97494C35.0887 7.41028 35.0924 6.84561 35.0924 6.28094C35.0997 5.71628 35.1034 5.15161 35.1034 4.58694C35.1034 4.02961 35.0997 3.47594 35.0924 2.92594C35.085 2.36861 35.0814 1.81128 35.0814 1.25394C35.0814 1.16594 35.0447 1.08528 34.9714 1.01194C34.9054 0.938609 34.832 0.898275 34.7514 0.890942C34.6854 0.876275 34.6157 0.868942 34.5424 0.868942C34.4764 0.868942 34.4067 0.868942 34.3334 0.868942H33.3544C33.0904 0.868942 32.8924 0.934942 32.7604 1.06694C32.6357 1.19161 32.5477 1.35661 32.4964 1.56194C32.445 1.75994 32.3974 1.96528 32.3534 2.17794C32.3534 2.19261 32.3424 2.24394 32.3204 2.33194C32.3057 2.41261 32.2874 2.49328 32.2654 2.57394C32.2507 2.64728 32.2397 2.68761 32.2324 2.69494C32.203 2.73161 32.159 2.74994 32.1004 2.74994C32.0197 2.74994 31.9794 2.70961 31.9794 2.62894C31.9794 2.59961 31.9794 2.56294 31.9794 2.51894C31.9867 2.46761 31.994 2.40894 32.0014 2.34294C32.016 2.17428 32.027 1.97261 32.0344 1.73794C32.049 1.49594 32.06 1.27228 32.0674 1.06694C32.0747 0.993609 32.0784 0.920275 32.0784 0.846942C32.0784 0.773609 32.082 0.707608 32.0894 0.648942C32.0894 0.546275 32.1517 0.502275 32.2764 0.516942C32.8117 0.568275 33.3507 0.593942 33.8934 0.593942C34.4434 0.586609 34.986 0.582942 35.5214 0.582942H36.4564C36.757 0.582942 37.0577 0.582942 37.3584 0.582942C37.6664 0.575609 37.9744 0.568275 38.2824 0.560942C38.4144 0.553609 38.55 0.549942 38.6894 0.549942C38.836 0.542609 38.979 0.538942 39.1184 0.538942C39.2137 0.538942 39.2687 0.575608 39.2834 0.648942C39.2907 0.670942 39.298 0.751609 39.3054 0.890942C39.3127 1.02294 39.32 1.17694 39.3274 1.35294C39.3347 1.52161 39.3384 1.68294 39.3384 1.83694C39.3457 1.98361 39.3494 2.08628 39.3494 2.14494C39.3567 2.21828 39.364 2.29161 39.3714 2.36494C39.3787 2.43828 39.3824 2.51528 39.3824 2.59594ZM44.8761 2.48594C44.8761 1.84061 44.7074 1.40061 44.3701 1.16594C44.0401 0.923942 43.5744 0.802942 42.9731 0.802942H42.6101C42.5368 0.802942 42.4451 0.810276 42.3351 0.824942C42.2324 0.832275 42.1371 0.857942 42.0491 0.901942C41.9684 0.938609 41.9281 1.00828 41.9281 1.11094V4.16894C42.0088 4.19828 42.1004 4.21661 42.2031 4.22394C42.3058 4.23128 42.4011 4.23494 42.4891 4.23494C42.7824 4.23494 43.0684 4.20928 43.3471 4.15794C43.6331 4.10661 43.8898 4.01861 44.1171 3.89394C44.3518 3.76928 44.5351 3.59328 44.6671 3.36594C44.8064 3.13861 44.8761 2.84528 44.8761 2.48594ZM47.2851 8.41494C47.2851 8.46628 47.2338 8.50661 47.1311 8.53594C47.0284 8.56528 46.9074 8.58361 46.7681 8.59094C46.6288 8.60561 46.4968 8.61294 46.3721 8.61294C46.2548 8.61294 46.1741 8.61294 46.1301 8.61294C45.8368 8.61294 45.6021 8.58361 45.4261 8.52494C45.2501 8.45894 45.0778 8.29394 44.9091 8.02994C44.5498 7.45061 44.2014 6.86394 43.8641 6.26994C43.5341 5.67594 43.2041 5.07828 42.8741 4.47694L41.9281 4.50994V7.99694C41.9281 8.10694 41.9721 8.18028 42.0601 8.21694C42.1481 8.25361 42.2361 8.27194 42.3241 8.27194C42.4268 8.27194 42.5258 8.26828 42.6211 8.26094C42.7164 8.25361 42.8118 8.24994 42.9071 8.24994C42.9584 8.24994 42.9878 8.27194 42.9951 8.31594C43.0098 8.35994 43.0171 8.40028 43.0171 8.43694C43.0171 8.49561 42.9988 8.53594 42.9621 8.55794C42.9328 8.57261 42.8924 8.57994 42.8411 8.57994C42.5184 8.57994 42.1921 8.57628 41.8621 8.56894C41.5321 8.55428 41.2058 8.54694 40.8831 8.54694C40.7071 8.54694 40.5311 8.55428 40.3551 8.56894C40.1864 8.57628 40.0141 8.57994 39.8381 8.57994C39.7941 8.57994 39.7648 8.56161 39.7501 8.52494C39.7428 8.48094 39.7391 8.44428 39.7391 8.41494C39.7391 8.31961 39.7794 8.27194 39.8601 8.27194C39.9261 8.27194 39.9884 8.27561 40.0471 8.28294C40.1131 8.28294 40.1754 8.28294 40.2341 8.28294C40.3441 8.28294 40.4614 8.27194 40.5861 8.24994C40.7181 8.22061 40.7914 8.13628 40.8061 7.99694C40.8208 7.81361 40.8244 7.60094 40.8171 7.35894C40.8171 7.10961 40.8171 6.89328 40.8171 6.70994C40.8171 6.46794 40.8171 6.22594 40.8171 5.98394C40.8171 5.73461 40.8171 5.48894 40.8171 5.24694C40.8171 4.74094 40.8171 4.23494 40.8171 3.72894C40.8244 3.22294 40.8281 2.71694 40.8281 2.21094C40.8281 2.02761 40.8281 1.84428 40.8281 1.66094C40.8281 1.47028 40.8208 1.28694 40.8061 1.11094C40.7914 0.964275 40.7144 0.883609 40.5751 0.868942C40.4431 0.846942 40.3221 0.835942 40.2121 0.835942C40.1681 0.835942 40.1241 0.839609 40.0801 0.846942C40.0361 0.846942 39.9921 0.846942 39.9481 0.846942C39.8381 0.846942 39.7831 0.784609 39.7831 0.659942C39.7831 0.579275 39.8198 0.538942 39.8931 0.538942C40.1424 0.538942 40.3881 0.546275 40.6301 0.560942C40.8794 0.575609 41.1288 0.582942 41.3781 0.582942C41.7228 0.582942 42.0638 0.568275 42.4011 0.538942C42.7384 0.509608 43.0758 0.494942 43.4131 0.494942C43.6918 0.494942 43.9851 0.524275 44.2931 0.582942C44.6084 0.641609 44.9018 0.736942 45.1731 0.868942C45.4444 1.00094 45.6644 1.18428 45.8331 1.41894C46.0091 1.64628 46.0971 1.93594 46.0971 2.28794C46.0971 2.72794 45.9724 3.10928 45.7231 3.43194C45.4811 3.74728 45.1658 3.99294 44.7771 4.16894C44.6378 4.23494 44.4948 4.28628 44.3481 4.32294C44.2014 4.35228 44.0548 4.38161 43.9081 4.41094C44.2454 4.98294 44.5974 5.54761 44.9641 6.10494C45.3381 6.66228 45.7158 7.21228 46.0971 7.75494C46.2071 7.90894 46.3208 8.03361 46.4381 8.12894C46.5628 8.21694 46.7168 8.27928 46.9001 8.31594C46.9441 8.32328 47.0174 8.32694 47.1201 8.32694C47.2301 8.32694 47.2851 8.35628 47.2851 8.41494ZM52.0594 6.20394C52.0594 5.95461 52.0448 5.70161 52.0154 5.44494C51.9861 5.18094 51.9238 4.93894 51.8284 4.71894C51.7331 4.49161 51.5901 4.31194 51.3994 4.17994C51.2161 4.04061 50.9631 3.97094 50.6404 3.97094C50.4791 3.97094 50.2921 4.00028 50.0794 4.05894C49.8741 4.11761 49.6798 4.20194 49.4964 4.31194C49.3131 4.42194 49.1774 4.55028 49.0894 4.69694C48.9941 4.86561 48.9391 5.04894 48.9244 5.24694C48.9171 5.43761 48.9134 5.62828 48.9134 5.81894C48.9134 5.89961 48.9134 5.98394 48.9134 6.07194C48.9134 6.15261 48.9171 6.23328 48.9244 6.31394C48.9391 6.60728 49.0051 6.90794 49.1224 7.21594C49.2398 7.52394 49.4121 7.78061 49.6394 7.98594C49.8668 8.19128 50.1528 8.29394 50.4974 8.29394C50.8861 8.29394 51.1941 8.18761 51.4214 7.97494C51.6488 7.76228 51.8101 7.49828 51.9054 7.18294C52.0081 6.86028 52.0594 6.53394 52.0594 6.20394ZM53.1924 5.93994C53.1924 6.51194 53.0678 6.99594 52.8184 7.39194C52.5691 7.78794 52.2281 8.08861 51.7954 8.29394C51.3701 8.49928 50.8788 8.60194 50.3214 8.60194C49.9328 8.60194 49.5734 8.50661 49.2434 8.31594C48.9134 8.11794 48.6348 7.86128 48.4074 7.54594C48.1874 7.22328 48.0334 6.87861 47.9454 6.51194C47.9014 6.31394 47.8721 6.11594 47.8574 5.91794C47.8501 5.71261 47.8464 5.50728 47.8464 5.30194C47.8464 5.04528 47.8758 4.77761 47.9344 4.49894C48.0004 4.22028 48.0774 3.96361 48.1654 3.72894C48.5394 2.71694 49.0931 1.91394 49.8264 1.31994C50.5598 0.718609 51.4398 0.278609 52.4664 -5.78165e-05C52.4738 -5.78165e-05 52.4774 -5.78165e-05 52.4774 -5.78165e-05C52.4848 -5.78165e-05 52.4921 -5.78165e-05 52.4994 -5.78165e-05C52.5581 -5.78165e-05 52.5874 0.0256087 52.5874 0.0769418C52.5874 0.120942 52.5728 0.146609 52.5434 0.153942C52.5214 0.175942 52.4958 0.194275 52.4664 0.208942C52.4371 0.216275 52.4078 0.227275 52.3784 0.241942C52.2171 0.307942 52.0558 0.377609 51.8944 0.450942C51.7331 0.524276 51.5791 0.601275 51.4324 0.681942C51.2784 0.769942 51.1281 0.868942 50.9814 0.978942C50.8421 1.08161 50.7101 1.19528 50.5854 1.31994C50.3581 1.55461 50.1344 1.82961 49.9144 2.14494C49.6944 2.45294 49.5074 2.78294 49.3534 3.13494C49.2068 3.47961 49.1151 3.82061 49.0784 4.15794C49.3351 3.98928 49.6101 3.84994 49.9034 3.73994C50.1968 3.62994 50.5011 3.57494 50.8164 3.57494C51.5351 3.57494 52.1108 3.79128 52.5434 4.22394C52.9761 4.64928 53.1924 5.22128 53.1924 5.93994ZM59.6257 5.89594C59.6257 6.36528 59.5377 6.77228 59.3617 7.11694C59.1857 7.45428 58.9437 7.73294 58.6357 7.95294C58.3351 8.17294 57.9904 8.33794 57.6017 8.44794C57.2204 8.55061 56.8207 8.60194 56.4027 8.60194C56.1681 8.60194 55.9224 8.57994 55.6657 8.53594C55.4164 8.49194 55.1817 8.41128 54.9617 8.29394C54.7491 8.17661 54.5804 8.00794 54.4557 7.78794C54.3531 7.61928 54.3017 7.43228 54.3017 7.22694C54.3017 7.05828 54.3494 6.93361 54.4447 6.85294C54.5474 6.76494 54.6794 6.72094 54.8407 6.72094C55.0607 6.72094 55.1817 6.81994 55.2037 7.01794C55.2331 7.22328 55.2881 7.42494 55.3687 7.62294C55.4567 7.81361 55.5777 7.97128 55.7317 8.09594C55.8931 8.22061 56.0911 8.28294 56.3257 8.28294C57.0884 8.28294 57.6311 8.09594 57.9537 7.72194C58.2837 7.34061 58.4487 6.77961 58.4487 6.03894C58.4487 5.54761 58.3167 5.14428 58.0527 4.82894C57.7961 4.50628 57.4147 4.34494 56.9087 4.34494C56.8134 4.34494 56.7107 4.35228 56.6007 4.36694C56.4907 4.37428 56.3881 4.38894 56.2927 4.41094C56.2414 4.41828 56.1864 4.43661 56.1277 4.46594C56.0691 4.48794 56.0104 4.49894 55.9517 4.49894C55.9004 4.49894 55.8674 4.47694 55.8527 4.43294C55.8454 4.38894 55.8417 4.34861 55.8417 4.31194C55.8417 4.26061 55.8491 4.20561 55.8637 4.14694C55.8784 4.08828 55.9187 4.05894 55.9847 4.05894C56.0067 4.05894 56.0287 4.06261 56.0507 4.06994C56.0801 4.06994 56.1094 4.06994 56.1387 4.06994C56.2854 4.06994 56.4321 4.06994 56.5787 4.06994C56.7327 4.06261 56.8794 4.04061 57.0187 4.00394C57.4294 3.88661 57.7191 3.69594 57.8877 3.43194C58.0637 3.16061 58.1517 2.81594 58.1517 2.39794C58.1517 2.11194 58.1114 1.85161 58.0307 1.61694C57.9574 1.38228 57.8291 1.19528 57.6457 1.05594C57.4624 0.916608 57.2094 0.846942 56.8867 0.846942C56.4027 0.846942 56.0361 0.997275 55.7867 1.29794C55.5447 1.59128 55.4237 1.96894 55.4237 2.43094C55.4237 2.59228 55.3357 2.67294 55.1597 2.67294C54.9911 2.67294 54.8481 2.62894 54.7307 2.54094C54.6207 2.45294 54.5657 2.31728 54.5657 2.13394C54.5657 2.05328 54.5951 1.93961 54.6537 1.79294C54.7197 1.64628 54.7784 1.53994 54.8297 1.47394C55.1084 1.11461 55.4604 0.865275 55.8857 0.725942C56.3184 0.586609 56.7511 0.516942 57.1837 0.516942C57.5211 0.516942 57.8474 0.582942 58.1627 0.714942C58.4781 0.846942 58.7384 1.04128 58.9437 1.29794C59.1491 1.54728 59.2517 1.85894 59.2517 2.23294C59.2517 2.50428 59.1747 2.76461 59.0207 3.01394C58.8741 3.26328 58.7017 3.47228 58.5037 3.64094C58.3497 3.78028 58.1774 3.89028 57.9867 3.97094C57.7961 4.05161 57.6054 4.11761 57.4147 4.16894C57.5541 4.17628 57.7227 4.19094 57.9207 4.21294C58.1261 4.23494 58.2911 4.27161 58.4157 4.32294C58.7604 4.44028 59.0464 4.63828 59.2737 4.91694C59.5084 5.18828 59.6257 5.51461 59.6257 5.89594Z" fill="black"/>
</svg>
