<svg width="143" height="14" viewBox="0 0 143 14" fill="none" xmlns="http://www.w3.org/2000/svg">
<path d="M10.4319 4.82954H8.9347C8.84616 4.39891 8.69121 4.02059 8.46986 3.6946C8.25253 3.36861 7.98691 3.09493 7.67299 2.87358C7.36309 2.6482 7.01898 2.47917 6.64067 2.36648C6.26236 2.25379 5.86794 2.19744 5.45743 2.19744C4.70885 2.19744 4.0307 2.3866 3.42298 2.76491C2.81929 3.14323 2.33835 3.70064 1.98016 4.43714C1.62599 5.17365 1.44891 6.07718 1.44891 7.14773C1.44891 8.21827 1.62599 9.1218 1.98016 9.85831C2.33835 10.5948 2.81929 11.1522 3.42298 11.5305C4.0307 11.9089 4.70885 12.098 5.45743 12.098C5.86794 12.098 6.26236 12.0417 6.64067 11.929C7.01898 11.8163 7.36309 11.6493 7.67299 11.4279C7.98691 11.2025 8.25253 10.9268 8.46986 10.6009C8.69121 10.2708 8.84616 9.89252 8.9347 9.46591H10.4319C10.3192 10.0978 10.1139 10.6632 9.8161 11.1623C9.51827 11.6613 9.14801 12.0859 8.7053 12.4361C8.26259 12.7822 7.76555 13.0458 7.21418 13.2269C6.66683 13.408 6.08125 13.4986 5.45743 13.4986C4.40298 13.4986 3.46524 13.241 2.64422 12.7259C1.8232 12.2107 1.17725 11.4782 0.706365 10.5284C0.235485 9.5786 4.44353e-05 8.4517 4.44353e-05 7.14773C4.44353e-05 5.84375 0.235485 4.71685 0.706365 3.76704C1.17725 2.81723 1.8232 2.08475 2.64422 1.5696C3.46524 1.05445 4.40298 0.796873 5.45743 0.796873C6.08125 0.796873 6.66683 0.887427 7.21418 1.06854C7.76555 1.24964 8.26259 1.51527 8.7053 1.86541C9.14801 2.21153 9.51827 2.63411 9.8161 3.13317C10.1139 3.62819 10.3192 4.19365 10.4319 4.82954ZM15.3867 13.5469C14.7991 13.5469 14.2658 13.4362 13.7869 13.2148C13.308 12.9895 12.9276 12.6655 12.6459 12.2429C12.3642 11.8163 12.2233 11.3011 12.2233 10.6974C12.2233 10.1662 12.328 9.73556 12.5372 9.40554C12.7465 9.07149 13.0262 8.80989 13.3764 8.62074C13.7265 8.43158 14.1129 8.29072 14.5355 8.19815C14.9621 8.10156 15.3907 8.02509 15.8213 7.96875C16.3848 7.89631 16.8416 7.84197 17.1917 7.80575C17.5459 7.7655 17.8035 7.6991 17.9644 7.60653C18.1295 7.51397 18.212 7.35298 18.212 7.12358V7.07528C18.212 6.47964 18.049 6.01681 17.723 5.68679C17.401 5.35677 16.912 5.19176 16.256 5.19176C15.5758 5.19176 15.0426 5.34067 14.6562 5.63849C14.2698 5.93631 13.9982 6.25426 13.8412 6.59233L12.4889 6.10937C12.7304 5.54593 13.0524 5.10724 13.4549 4.79332C13.8613 4.47538 14.3041 4.25402 14.783 4.12926C15.2659 4.00047 15.7408 3.93608 16.2077 3.93608C16.5055 3.93608 16.8476 3.9723 17.234 4.04474C17.6244 4.11316 18.0007 4.25603 18.3629 4.47336C18.7291 4.69069 19.033 5.0187 19.2745 5.45738C19.5159 5.89607 19.6367 6.48366 19.6367 7.22017V13.3295H18.212V12.0739H18.1395C18.0429 12.2751 17.8819 12.4904 17.6566 12.7198C17.4312 12.9492 17.1313 13.1444 16.7571 13.3054C16.3828 13.4664 15.926 13.5469 15.3867 13.5469ZM15.604 12.267C16.1675 12.267 16.6424 12.1564 17.0287 11.935C17.4191 11.7137 17.7129 11.4279 17.9101 11.0778C18.1113 10.7276 18.212 10.3594 18.212 9.97301V8.66903C18.1516 8.74148 18.0188 8.80788 17.8135 8.86825C17.6123 8.9246 17.3789 8.9749 17.1132 9.01917C16.8516 9.05942 16.5961 9.09564 16.3465 9.12784C16.101 9.15601 15.9018 9.18016 15.7489 9.20028C15.3786 9.24858 15.0325 9.32706 14.7105 9.43572C14.3926 9.54036 14.135 9.69934 13.9378 9.91264C13.7446 10.1219 13.648 10.4077 13.648 10.7699C13.648 11.2649 13.8312 11.6392 14.1974 11.8928C14.5677 12.1423 15.0365 12.267 15.604 12.267ZM25.7385 13.5227C24.9658 13.5227 24.2836 13.3275 23.692 12.9371C23.1004 12.5427 22.6375 11.9873 22.3035 11.271C21.9694 10.5505 21.8024 9.69934 21.8024 8.71733C21.8024 7.74337 21.9694 6.8982 22.3035 6.18182C22.6375 5.46543 23.1024 4.91205 23.698 4.52166C24.2937 4.13127 24.9819 3.93608 25.7627 3.93608C26.3663 3.93608 26.8433 4.03669 27.1934 4.23792C27.5476 4.43513 27.8172 4.66051 28.0024 4.91406C28.1915 5.16359 28.3384 5.36884 28.443 5.52983H28.5638V0.965907H29.9885V13.3295H28.6121V11.9048H28.443C28.3384 12.0739 28.1895 12.2872 27.9963 12.5447C27.8031 12.7983 27.5274 13.0257 27.1693 13.2269C26.8111 13.4241 26.3341 13.5227 25.7385 13.5227ZM25.9317 12.2429C26.5032 12.2429 26.9861 12.094 27.3805 11.7962C27.775 11.4943 28.0748 11.0778 28.2801 10.5465C28.4853 10.0112 28.5879 9.39346 28.5879 8.69318C28.5879 8.00095 28.4873 7.39524 28.2861 6.87606C28.0849 6.35286 27.787 5.94638 27.3926 5.6566C26.9982 5.36281 26.5112 5.21591 25.9317 5.21591C25.328 5.21591 24.8249 5.37086 24.4225 5.68075C24.024 5.98662 23.7242 6.40317 23.5229 6.9304C23.3257 7.4536 23.2271 8.04119 23.2271 8.69318C23.2271 9.35322 23.3278 9.95289 23.529 10.4922C23.7342 11.0275 24.0361 11.4541 24.4345 11.772C24.837 12.0859 25.336 12.2429 25.9317 12.2429ZM35.5244 13.5469C34.9368 13.5469 34.4035 13.4362 33.9246 13.2148C33.4457 12.9895 33.0653 12.6655 32.7836 12.2429C32.5019 11.8163 32.361 11.3011 32.361 10.6974C32.361 10.1662 32.4657 9.73556 32.6749 9.40554C32.8842 9.07149 33.1639 8.80989 33.5141 8.62074C33.8642 8.43158 34.2506 8.29072 34.6732 8.19815C35.0998 8.10156 35.5284 8.02509 35.959 7.96875C36.5225 7.89631 36.9793 7.84197 37.3294 7.80575C37.6836 7.7655 37.9412 7.6991 38.1021 7.60653C38.2671 7.51397 38.3497 7.35298 38.3497 7.12358V7.07528C38.3497 6.47964 38.1867 6.01681 37.8607 5.68679C37.5387 5.35677 37.0497 5.19176 36.3937 5.19176C35.7135 5.19176 35.1803 5.34067 34.7939 5.63849C34.4075 5.93631 34.1359 6.25426 33.9789 6.59233L32.6266 6.10937C32.8681 5.54593 33.1901 5.10724 33.5926 4.79332C33.999 4.47538 34.4417 4.25402 34.9207 4.12926C35.4036 4.00047 35.8785 3.93608 36.3454 3.93608C36.6432 3.93608 36.9853 3.9723 37.3717 4.04474C37.7621 4.11316 38.1384 4.25603 38.5006 4.47336C38.8668 4.69069 39.1707 5.0187 39.4122 5.45738C39.6536 5.89607 39.7744 6.48366 39.7744 7.22017V13.3295H38.3497V12.0739H38.2772C38.1806 12.2751 38.0196 12.4904 37.7943 12.7198C37.5689 12.9492 37.269 13.1444 36.8948 13.3054C36.5205 13.4664 36.0637 13.5469 35.5244 13.5469ZM35.7417 12.267C36.3051 12.267 36.7801 12.1564 37.1664 11.935C37.5568 11.7137 37.8506 11.4279 38.0478 11.0778C38.249 10.7276 38.3497 10.3594 38.3497 9.97301V8.66903C38.2893 8.74148 38.1565 8.80788 37.9512 8.86825C37.75 8.9246 37.5166 8.9749 37.2509 9.01917C36.9893 9.05942 36.7338 9.09564 36.4842 9.12784C36.2387 9.15601 36.0395 9.18016 35.8866 9.20028C35.5163 9.24858 35.1702 9.32706 34.8482 9.43572C34.5303 9.54036 34.2727 9.69934 34.0755 9.91264C33.8823 10.1219 33.7857 10.4077 33.7857 10.7699C33.7857 11.2649 33.9689 11.6392 34.3351 11.8928C34.7054 12.1423 35.1742 12.267 35.7417 12.267ZM48.943 6.13352L47.6631 6.49574C47.5826 6.28243 47.4639 6.07516 47.307 5.87393C47.154 5.66868 46.9447 5.49964 46.6791 5.36683C46.4135 5.23402 46.0734 5.16761 45.6589 5.16761C45.0914 5.16761 44.6185 5.29841 44.2402 5.56001C43.8659 5.81759 43.6788 6.14559 43.6788 6.54403C43.6788 6.8982 43.8075 7.17791 44.0651 7.38317C44.3227 7.58842 44.7252 7.75947 45.2725 7.89631L46.6489 8.23437C47.478 8.4356 48.0958 8.74349 48.5023 9.15802C48.9088 9.56854 49.112 10.0978 49.112 10.7457C49.112 11.277 48.9591 11.7519 48.6532 12.1705C48.3513 12.589 47.9288 12.919 47.3854 13.1605C46.8421 13.402 46.2102 13.5227 45.4898 13.5227C44.544 13.5227 43.7613 13.3175 43.1415 12.907C42.5217 12.4964 42.1293 11.8968 41.9643 11.108L43.3165 10.7699C43.4453 11.2689 43.6888 11.6432 44.047 11.8928C44.4092 12.1423 44.8821 12.267 45.4657 12.267C46.1298 12.267 46.657 12.1262 47.0474 11.8445C47.4418 11.5587 47.639 11.2166 47.639 10.8182C47.639 10.4962 47.5263 10.2266 47.3009 10.0092C47.0755 9.78788 46.7294 9.62287 46.2626 9.5142L44.7171 9.15199C43.8679 8.95076 43.2441 8.63885 42.8457 8.21626C42.4512 7.78965 42.254 7.25639 42.254 6.61648C42.254 6.09327 42.4009 5.63044 42.6947 5.22798C42.9926 4.82552 43.397 4.50959 43.9082 4.28018C44.4233 4.05078 45.0069 3.93608 45.6589 3.93608C46.5765 3.93608 47.2969 4.13731 47.8201 4.53977C48.3473 4.94223 48.7216 5.47348 48.943 6.13352ZM55.2893 4.05682V5.2642H50.4839V4.05682H55.2893ZM51.8845 1.83523H53.3092V10.6733C53.3092 11.0758 53.3675 11.3776 53.4842 11.5788C53.605 11.776 53.7579 11.9089 53.943 11.9773C54.1322 12.0417 54.3314 12.0739 54.5407 12.0739C54.6977 12.0739 54.8265 12.0658 54.9271 12.0497C55.0277 12.0296 55.1082 12.0135 55.1685 12.0014L55.4583 13.2812C55.3617 13.3175 55.2269 13.3537 55.0538 13.3899C54.8808 13.4302 54.6614 13.4503 54.3958 13.4503C53.9934 13.4503 53.5989 13.3638 53.2126 13.1907C52.8302 13.0176 52.5123 12.754 52.2587 12.3999C52.0092 12.0457 51.8845 11.599 51.8845 11.0597V1.83523ZM57.4324 13.3295V4.05682H58.8088V5.45738H58.9054C59.0744 4.99858 59.3803 4.6263 59.823 4.34055C60.2657 4.0548 60.7648 3.91193 61.3202 3.91193C61.4248 3.91193 61.5556 3.91394 61.7126 3.91797C61.8695 3.92199 61.9883 3.92803 62.0688 3.93608V5.38494C62.0205 5.37287 61.9098 5.35476 61.7367 5.33061C61.5677 5.30244 61.3886 5.28835 61.1994 5.28835C60.7487 5.28835 60.3462 5.38293 59.9921 5.57209C59.6419 5.75722 59.3642 6.01479 59.159 6.34481C58.9577 6.67081 58.8571 7.04309 58.8571 7.46165V13.3295H57.4324ZM66.4863 13.5469C65.8987 13.5469 65.3654 13.4362 64.8865 13.2148C64.4076 12.9895 64.0272 12.6655 63.7455 12.2429C63.4638 11.8163 63.3229 11.3011 63.3229 10.6974C63.3229 10.1662 63.4276 9.73556 63.6369 9.40554C63.8461 9.07149 64.1258 8.80989 64.476 8.62074C64.8261 8.43158 65.2125 8.29072 65.6351 8.19815C66.0617 8.10156 66.4903 8.02509 66.9209 7.96875C67.4844 7.89631 67.9412 7.84197 68.2913 7.80575C68.6455 7.7655 68.9031 7.6991 69.0641 7.60653C69.2291 7.51397 69.3116 7.35298 69.3116 7.12358V7.07528C69.3116 6.47964 69.1486 6.01681 68.8226 5.68679C68.5006 5.35677 68.0116 5.19176 67.3556 5.19176C66.6754 5.19176 66.1422 5.34067 65.7558 5.63849C65.3695 5.93631 65.0978 6.25426 64.9408 6.59233L63.5886 6.10937C63.83 5.54593 64.152 5.10724 64.5545 4.79332C64.961 4.47538 65.4037 4.25402 65.8826 4.12926C66.3655 4.00047 66.8405 3.93608 67.3073 3.93608C67.6051 3.93608 67.9472 3.9723 68.3336 4.04474C68.724 4.11316 69.1003 4.25603 69.4625 4.47336C69.8287 4.69069 70.1326 5.0187 70.3741 5.45738C70.6155 5.89607 70.7363 6.48366 70.7363 7.22017V13.3295H69.3116V12.0739H69.2391C69.1425 12.2751 68.9815 12.4904 68.7562 12.7198C68.5308 12.9492 68.231 13.1444 67.8567 13.3054C67.4824 13.4664 67.0256 13.5469 66.4863 13.5469ZM66.7036 12.267C67.2671 12.267 67.742 12.1564 68.1283 11.935C68.5187 11.7137 68.8125 11.4279 69.0097 11.0778C69.211 10.7276 69.3116 10.3594 69.3116 9.97301V8.66903C69.2512 8.74148 69.1184 8.80788 68.9131 8.86825C68.7119 8.9246 68.4785 8.9749 68.2128 9.01917C67.9512 9.05942 67.6957 9.09564 67.4462 9.12784C67.2007 9.15601 67.0014 9.18016 66.8485 9.20028C66.4782 9.24858 66.1321 9.32706 65.8101 9.43572C65.4922 9.54036 65.2346 9.69934 65.0374 9.91264C64.8442 10.1219 64.7476 10.4077 64.7476 10.7699C64.7476 11.2649 64.9308 11.6392 65.297 11.8928C65.6673 12.1423 66.1361 12.267 66.7036 12.267ZM73.3367 13.3295V4.05682H74.7131V5.45738H74.8097C74.9787 4.99858 75.2846 4.6263 75.7273 4.34055C76.17 4.0548 76.6691 3.91193 77.2245 3.91193C77.3291 3.91193 77.4599 3.91394 77.6169 3.91797C77.7738 3.92199 77.8926 3.92803 77.9731 3.93608V5.38494C77.9248 5.37287 77.8141 5.35476 77.641 5.33061C77.472 5.30244 77.2929 5.28835 77.1037 5.28835C76.653 5.28835 76.2505 5.38293 75.8964 5.57209C75.5462 5.75722 75.2685 6.01479 75.0633 6.34481C74.862 6.67081 74.7614 7.04309 74.7614 7.46165V13.3295H73.3367ZM85.8679 7.75142V13.3295H84.4431V4.05682H85.8196V5.50568H85.9403C86.1576 5.0348 86.4876 4.65649 86.9304 4.37074C87.3731 4.08096 87.9446 3.93608 88.6448 3.93608C89.2727 3.93608 89.822 4.06487 90.2929 4.32244C90.7638 4.57599 91.13 4.96236 91.3916 5.48153C91.6532 5.99668 91.784 6.64867 91.784 7.4375V13.3295H90.3593V7.53409C90.3593 6.80563 90.1702 6.23816 89.7919 5.83167C89.4135 5.42116 88.8944 5.21591 88.2343 5.21591C87.7795 5.21591 87.3731 5.31451 87.0149 5.51172C86.6607 5.70892 86.381 5.99668 86.1757 6.375C85.9705 6.75331 85.8679 7.21212 85.8679 7.75142ZM100.231 9.53835V4.05682H101.656V13.3295H100.231V11.7599H100.135C99.9173 12.2308 99.5792 12.6313 99.1204 12.9613C98.6616 13.2873 98.0821 13.4503 97.3818 13.4503C96.8022 13.4503 96.2871 13.3235 95.8363 13.07C95.3856 12.8124 95.0314 12.426 94.7738 11.9109C94.5163 11.3917 94.3875 10.7377 94.3875 9.94886V4.05682H95.8122V9.85227C95.8122 10.5284 96.0013 11.0677 96.3797 11.4702C96.762 11.8726 97.249 12.0739 97.8406 12.0739C98.1948 12.0739 98.555 11.9833 98.9212 11.8022C99.2915 11.6211 99.6014 11.3434 99.8509 10.9691C100.104 10.5948 100.231 10.1179 100.231 9.53835ZM97.3818 2.80113L98.8548 -1.84774e-06H100.521L98.6375 2.80113H97.3818ZM104.265 13.3295V4.05682H105.642V5.50568H105.763C105.956 5.01065 106.268 4.6263 106.698 4.35263C107.129 4.07493 107.646 3.93608 108.25 3.93608C108.862 3.93608 109.371 4.07493 109.777 4.35263C110.188 4.6263 110.508 5.01065 110.737 5.50568H110.834C111.071 5.02675 111.427 4.64642 111.902 4.3647C112.377 4.07895 112.947 3.93608 113.611 3.93608C114.44 3.93608 115.118 4.19567 115.645 4.71484C116.172 5.22999 116.436 6.03291 116.436 7.12358V13.3295H115.011V7.12358C115.011 6.43939 114.824 5.9504 114.45 5.6566C114.075 5.36281 113.635 5.21591 113.128 5.21591C112.476 5.21591 111.971 5.41311 111.612 5.80753C111.254 6.19791 111.075 6.69294 111.075 7.29261V13.3295H109.626V6.97869C109.626 6.45147 109.455 6.02687 109.113 5.7049C108.771 5.3789 108.33 5.21591 107.791 5.21591C107.421 5.21591 107.075 5.31451 106.753 5.51172C106.435 5.70892 106.177 5.9826 105.98 6.33274C105.787 6.67886 105.69 7.07931 105.69 7.53409V13.3295H104.265ZM122.929 13.5227C122.035 13.5227 121.264 13.3255 120.616 12.9311C119.972 12.5327 119.475 11.9773 119.125 11.2649C118.779 10.5485 118.606 9.71543 118.606 8.76562C118.606 7.81581 118.779 6.97869 119.125 6.25426C119.475 5.5258 119.962 4.95833 120.586 4.55184C121.214 4.14133 121.947 3.93608 122.784 3.93608C123.267 3.93608 123.744 4.01657 124.214 4.17755C124.685 4.33854 125.114 4.60014 125.5 4.96236C125.887 5.32055 126.195 5.79545 126.424 6.38707C126.653 6.97869 126.768 7.70715 126.768 8.57244V9.17613H119.62V7.9446H125.319C125.319 7.4214 125.215 6.95454 125.005 6.54403C124.8 6.13352 124.506 5.80954 124.124 5.57209C123.746 5.33463 123.299 5.21591 122.784 5.21591C122.216 5.21591 121.725 5.35677 121.311 5.63849C120.9 5.91619 120.584 6.27841 120.363 6.72514C120.142 7.17187 120.031 7.6508 120.031 8.16193V8.98295C120.031 9.68324 120.152 10.2769 120.393 10.7638C120.639 11.2468 120.979 11.6151 121.413 11.8686C121.848 12.1181 122.353 12.2429 122.929 12.2429C123.303 12.2429 123.641 12.1906 123.943 12.0859C124.249 11.9773 124.512 11.8163 124.734 11.603C124.955 11.3857 125.126 11.116 125.247 10.794L126.623 11.1804C126.478 11.6473 126.235 12.0578 125.893 12.4119C125.551 12.7621 125.128 13.0357 124.625 13.233C124.122 13.4261 123.556 13.5227 122.929 13.5227ZM128.935 13.3295V4.05682H130.312V5.45738H130.408C130.577 4.99858 130.883 4.6263 131.326 4.34055C131.769 4.0548 132.268 3.91193 132.823 3.91193C132.928 3.91193 133.059 3.91394 133.216 3.91797C133.372 3.92199 133.491 3.92803 133.572 3.93608V5.38494C133.523 5.37287 133.413 5.35476 133.24 5.33061C133.071 5.30244 132.892 5.28835 132.702 5.28835C132.252 5.28835 131.849 5.38293 131.495 5.57209C131.145 5.75722 130.867 6.01479 130.662 6.34481C130.461 6.67081 130.36 7.04309 130.36 7.46165V13.3295H128.935ZM138.745 13.5227C137.908 13.5227 137.174 13.3235 136.542 12.9251C135.914 12.5266 135.423 11.9692 135.069 11.2528C134.719 10.5365 134.544 9.69934 134.544 8.74148C134.544 7.77557 134.719 6.93241 135.069 6.212C135.423 5.49159 135.914 4.93217 136.542 4.53373C137.174 4.1353 137.908 3.93608 138.745 3.93608C139.582 3.93608 140.315 4.1353 140.943 4.53373C141.575 4.93217 142.066 5.49159 142.416 6.212C142.77 6.93241 142.947 7.77557 142.947 8.74148C142.947 9.69934 142.77 10.5365 142.416 11.2528C142.066 11.9692 141.575 12.5266 140.943 12.9251C140.315 13.3235 139.582 13.5227 138.745 13.5227ZM138.745 12.2429C139.381 12.2429 139.904 12.0799 140.315 11.7539C140.725 11.4279 141.029 10.9993 141.227 10.468C141.424 9.93679 141.522 9.36127 141.522 8.74148C141.522 8.12168 141.424 7.54415 141.227 7.00888C141.029 6.4736 140.725 6.04095 140.315 5.71094C139.904 5.38092 139.381 5.21591 138.745 5.21591C138.109 5.21591 137.586 5.38092 137.176 5.71094C136.765 6.04095 136.461 6.4736 136.264 7.00888C136.067 7.54415 135.968 8.12168 135.968 8.74148C135.968 9.36127 136.067 9.93679 136.264 10.468C136.461 10.9993 136.765 11.4279 137.176 11.7539C137.586 12.0799 138.109 12.2429 138.745 12.2429Z" fill="white"/>
</svg>
