<svg width="148" height="16" viewBox="0 0 148 16" fill="none" xmlns="http://www.w3.org/2000/svg">
<path d="M3.59082 12.5455H-8.86917e-05V0.909092H3.74991C4.8787 0.909092 5.84461 1.14205 6.64764 1.60796C7.45067 2.07008 8.0662 2.73485 8.49423 3.60227C8.92226 4.46591 9.13628 5.5 9.13628 6.70455C9.13628 7.91667 8.92037 8.96023 8.48855 9.83523C8.05673 10.7064 7.42794 11.3769 6.60218 11.8466C5.77643 12.3125 4.77264 12.5455 3.59082 12.5455ZM1.409 11.2955H3.49991C4.46203 11.2955 5.25938 11.1098 5.89196 10.7386C6.52453 10.3674 6.99612 9.83902 7.30673 9.15341C7.61734 8.4678 7.77264 7.65152 7.77264 6.70455C7.77264 5.76515 7.61923 4.95644 7.31241 4.27841C7.00559 3.59659 6.54726 3.07386 5.93741 2.71023C5.32756 2.3428 4.56809 2.15909 3.659 2.15909H1.409V11.2955ZM11.3181 12.5455V3.81818H12.659V12.5455H11.3181ZM11.9999 2.36364C11.7385 2.36364 11.5132 2.27462 11.3238 2.09659C11.1382 1.91856 11.0454 1.70455 11.0454 1.45455C11.0454 1.20455 11.1382 0.990532 11.3238 0.812501C11.5132 0.634471 11.7385 0.545456 11.9999 0.545456C12.2613 0.545456 12.4848 0.634471 12.6704 0.812501C12.8598 0.990532 12.9545 1.20455 12.9545 1.45455C12.9545 1.70455 12.8598 1.91856 12.6704 2.09659C12.4848 2.27462 12.2613 2.36364 11.9999 2.36364ZM18.6377 16C17.99 16 17.4331 15.9167 16.9672 15.75C16.5013 15.5871 16.1131 15.3712 15.8025 15.1023C15.4956 14.8371 15.2513 14.553 15.0695 14.25L16.1377 13.5C16.2589 13.6591 16.4123 13.8409 16.5979 14.0455C16.7835 14.2538 17.0373 14.4337 17.3593 14.5852C17.685 14.7405 18.1112 14.8182 18.6377 14.8182C19.3422 14.8182 19.9237 14.6477 20.382 14.3068C20.8403 13.9659 21.0695 13.4318 21.0695 12.7045V10.9318H20.9559C20.8574 11.0909 20.7172 11.2879 20.5354 11.5227C20.3574 11.7538 20.0998 11.9602 19.7627 12.142C19.4294 12.3201 18.9786 12.4091 18.4104 12.4091C17.7059 12.4091 17.0733 12.2424 16.5127 11.9091C15.9559 11.5758 15.5146 11.0909 15.1888 10.4545C14.8669 9.81818 14.7059 9.04546 14.7059 8.13636C14.7059 7.24243 14.8631 6.46402 15.1775 5.80114C15.4919 5.13447 15.9294 4.61932 16.49 4.25568C17.0506 3.88826 17.6983 3.70455 18.4331 3.70455C19.0013 3.70455 19.4521 3.79924 19.7854 3.98864C20.1225 4.17424 20.3801 4.38636 20.5582 4.625C20.74 4.85985 20.8801 5.05303 20.9786 5.20455H21.115V3.81818H22.4104V12.7955C22.4104 13.5455 22.24 14.1553 21.8991 14.625C21.5619 15.0985 21.1074 15.4451 20.5354 15.6648C19.9672 15.8883 19.3347 16 18.6377 16ZM18.5922 11.2045C19.1301 11.2045 19.5847 11.0814 19.9559 10.8352C20.3271 10.589 20.6093 10.2348 20.8025 9.77273C20.9956 9.31061 21.0922 8.75758 21.0922 8.11364C21.0922 7.48485 20.9975 6.92993 20.8082 6.44886C20.6188 5.9678 20.3385 5.59091 19.9672 5.31818C19.596 5.04546 19.1377 4.90909 18.5922 4.90909C18.0241 4.90909 17.5506 5.05303 17.1718 5.34091C16.7968 5.62879 16.5146 6.01515 16.3252 6.5C16.1396 6.98485 16.0468 7.52273 16.0468 8.11364C16.0468 8.7197 16.1415 9.25568 16.3309 9.72159C16.5241 10.1837 16.8082 10.5473 17.1832 10.8125C17.5619 11.0739 18.0316 11.2045 18.5922 11.2045ZM24.865 12.5455V3.81818H26.2059V12.5455H24.865ZM25.5468 2.36364C25.2854 2.36364 25.06 2.27462 24.8706 2.09659C24.685 1.91856 24.5922 1.70455 24.5922 1.45455C24.5922 1.20455 24.685 0.990532 24.8706 0.812501C25.06 0.634471 25.2854 0.545456 25.5468 0.545456C25.8081 0.545456 26.0316 0.634471 26.2172 0.812501C26.4066 0.990532 26.5013 1.20455 26.5013 1.45455C26.5013 1.70455 26.4066 1.91856 26.2172 2.09659C26.0316 2.27462 25.8081 2.36364 25.5468 2.36364ZM32.4573 3.81818V4.95455H27.9346V3.81818H32.4573ZM29.2528 1.72727H30.5937V10.0455C30.5937 10.4242 30.6486 10.7083 30.7584 10.8977C30.8721 11.0833 31.016 11.2083 31.1903 11.2727C31.3683 11.3333 31.5558 11.3636 31.7528 11.3636C31.9005 11.3636 32.0217 11.3561 32.1164 11.3409C32.2111 11.322 32.2868 11.3068 32.3437 11.2955L32.6164 12.5C32.5255 12.5341 32.3986 12.5682 32.2357 12.6023C32.0728 12.6402 31.8664 12.6591 31.6164 12.6591C31.2376 12.6591 30.8664 12.5777 30.5028 12.4148C30.1429 12.2519 29.8437 12.0038 29.605 11.6705C29.3702 11.3371 29.2528 10.9167 29.2528 10.4091V1.72727ZM38.0397 12.7273C37.1988 12.7273 36.4734 12.5417 35.8635 12.1705C35.2575 11.7955 34.7897 11.2727 34.4601 10.6023C34.1344 9.92803 33.9715 9.14394 33.9715 8.25C33.9715 7.35606 34.1344 6.56818 34.4601 5.88636C34.7897 5.20076 35.248 4.66667 35.8351 4.28409C36.426 3.89773 37.1154 3.70455 37.9033 3.70455C38.3579 3.70455 38.8067 3.7803 39.2499 3.93182C39.6931 4.08333 40.0965 4.32955 40.4601 4.67046C40.8238 5.00758 41.1135 5.45455 41.3295 6.01136C41.5454 6.56818 41.6533 7.25379 41.6533 8.06818V8.63636H34.926V7.47727H40.2897C40.2897 6.98485 40.1912 6.54546 39.9942 6.15909C39.801 5.77273 39.5245 5.4678 39.1647 5.24432C38.8086 5.02083 38.3882 4.90909 37.9033 4.90909C37.3692 4.90909 36.9071 5.04167 36.517 5.30682C36.1306 5.56818 35.8332 5.90909 35.6249 6.32955C35.4166 6.75 35.3124 7.20076 35.3124 7.68182V8.45455C35.3124 9.11364 35.426 9.67235 35.6533 10.1307C35.8844 10.5852 36.2045 10.9318 36.6135 11.1705C37.0226 11.4053 37.498 11.5227 38.0397 11.5227C38.392 11.5227 38.7101 11.4735 38.9942 11.375C39.2821 11.2727 39.5302 11.1212 39.7385 10.9205C39.9469 10.7159 40.1079 10.4621 40.2215 10.1591L41.517 10.5227C41.3806 10.9621 41.1514 11.3485 40.8295 11.6818C40.5075 12.0114 40.1098 12.2689 39.6363 12.4545C39.1628 12.6364 38.6306 12.7273 38.0397 12.7273ZM54.3749 5.77273L53.1704 6.11364C53.0946 5.91288 52.9829 5.7178 52.8351 5.52841C52.6912 5.33523 52.4942 5.17614 52.2442 5.05114C51.9942 4.92614 51.6742 4.86364 51.284 4.86364C50.7499 4.86364 50.3048 4.98674 49.9488 5.23296C49.5965 5.47538 49.4204 5.78409 49.4204 6.15909C49.4204 6.49243 49.5416 6.75568 49.784 6.94886C50.0264 7.14205 50.4052 7.30303 50.9204 7.43182L52.2158 7.75C52.9961 7.9394 53.5776 8.22917 53.9601 8.61932C54.3427 9.00568 54.534 9.50379 54.534 10.1136C54.534 10.6136 54.3901 11.0606 54.1022 11.4545C53.8181 11.8485 53.4204 12.1591 52.909 12.3864C52.3976 12.6136 51.8029 12.7273 51.1249 12.7273C50.2348 12.7273 49.498 12.5341 48.9147 12.1477C48.3314 11.7614 47.962 11.197 47.8067 10.4545L49.0795 10.1364C49.2007 10.6061 49.4298 10.9583 49.767 11.1932C50.1079 11.428 50.5529 11.5455 51.1022 11.5455C51.7272 11.5455 52.2234 11.4129 52.5908 11.1477C52.962 10.8788 53.1476 10.5568 53.1476 10.1818C53.1476 9.87879 53.0416 9.625 52.8295 9.42046C52.6173 9.21212 52.2916 9.05682 51.8522 8.95455L50.3976 8.61364C49.5984 8.42424 49.0113 8.13068 48.6363 7.73296C48.2651 7.33144 48.0795 6.82955 48.0795 6.22727C48.0795 5.73485 48.2177 5.29924 48.4942 4.92046C48.7745 4.54167 49.1552 4.24432 49.6363 4.02841C50.1211 3.8125 50.6704 3.70455 51.284 3.70455C52.1476 3.70455 52.8257 3.89394 53.3181 4.27273C53.8143 4.65152 54.1666 5.15152 54.3749 5.77273ZM60.2116 12.7273C59.3706 12.7273 58.6453 12.5417 58.0354 12.1705C57.4294 11.7955 56.9616 11.2727 56.632 10.6023C56.3063 9.92803 56.1434 9.14394 56.1434 8.25C56.1434 7.35606 56.3063 6.56818 56.632 5.88636C56.9616 5.20076 57.4199 4.66667 58.007 4.28409C58.5979 3.89773 59.2873 3.70455 60.0752 3.70455C60.5297 3.70455 60.9786 3.7803 61.4218 3.93182C61.865 4.08333 62.2684 4.32955 62.632 4.67046C62.9957 5.00758 63.2854 5.45455 63.5013 6.01136C63.7172 6.56818 63.8252 7.25379 63.8252 8.06818V8.63636H57.0979V7.47727H62.4616C62.4616 6.98485 62.3631 6.54546 62.1661 6.15909C61.9729 5.77273 61.6964 5.4678 61.3366 5.24432C60.9805 5.02083 60.56 4.90909 60.0752 4.90909C59.5411 4.90909 59.079 5.04167 58.6888 5.30682C58.3025 5.56818 58.0051 5.90909 57.7968 6.32955C57.5885 6.75 57.4843 7.20076 57.4843 7.68182V8.45455C57.4843 9.11364 57.5979 9.67235 57.8252 10.1307C58.0563 10.5852 58.3763 10.9318 58.7854 11.1705C59.1945 11.4053 59.6699 11.5227 60.2116 11.5227C60.5638 11.5227 60.882 11.4735 61.1661 11.375C61.454 11.2727 61.7021 11.1212 61.9104 10.9205C62.1188 10.7159 62.2797 10.4621 62.3934 10.1591L63.6888 10.5227C63.5525 10.9621 63.3233 11.3485 63.0013 11.6818C62.6794 12.0114 62.2816 12.2689 61.8081 12.4545C61.3347 12.6364 60.8025 12.7273 60.2116 12.7273ZM71.365 8.97727V3.81818H72.7059V12.5455H71.365V11.0682H71.2741C71.0695 11.5114 70.7513 11.8883 70.3195 12.1989C69.8877 12.5057 69.3422 12.6591 68.6831 12.6591C68.1377 12.6591 67.6528 12.5398 67.2286 12.3011C66.8044 12.0587 66.471 11.6951 66.2286 11.2102C65.9862 10.7216 65.865 10.1061 65.865 9.36364V3.81818H67.2059V9.27273C67.2059 9.90909 67.3839 10.4167 67.74 10.7955C68.0998 11.1742 68.5581 11.3636 69.115 11.3636C69.4483 11.3636 69.7873 11.2784 70.132 11.108C70.4805 10.9375 70.7722 10.6761 71.007 10.3239C71.2457 9.97159 71.365 9.52273 71.365 8.97727ZM81.0028 7.29546V12.5455H79.6618V3.81818H80.9573V5.18182H81.0709C81.2755 4.73864 81.5861 4.38258 82.0028 4.11364C82.4194 3.84091 82.9573 3.70455 83.6164 3.70455C84.2073 3.70455 84.7243 3.82576 85.1675 4.06818C85.6107 4.30682 85.9554 4.67046 86.2016 5.15909C86.4478 5.64394 86.5709 6.25758 86.5709 7V12.5455H85.23V7.09091C85.23 6.4053 85.052 5.87121 84.6959 5.48864C84.3399 5.10227 83.8512 4.90909 83.23 4.90909C82.802 4.90909 82.4194 5.00189 82.0823 5.1875C81.749 5.37311 81.4857 5.64394 81.2925 6C81.0993 6.35606 81.0028 6.78788 81.0028 7.29546ZM94.5212 8.97727V3.81818H95.8621V12.5455H94.5212V11.0682H94.4303C94.2258 11.5114 93.9076 11.8883 93.4758 12.1989C93.0439 12.5057 92.4985 12.6591 91.8394 12.6591C91.2939 12.6591 90.8091 12.5398 90.3849 12.3011C89.9606 12.0587 89.6273 11.6951 89.3849 11.2102C89.1424 10.7216 89.0212 10.1061 89.0212 9.36364V3.81818H90.3621V9.27273C90.3621 9.90909 90.5402 10.4167 90.8962 10.7955C91.2561 11.1742 91.7144 11.3636 92.2712 11.3636C92.6046 11.3636 92.9436 11.2784 93.2883 11.108C93.6367 10.9375 93.9284 10.6761 94.1633 10.3239C94.4019 9.97159 94.5212 9.52273 94.5212 8.97727ZM91.8394 2.63636L93.2258 9.53674e-07H94.7939L93.0212 2.63636H91.8394ZM98.3181 12.5455V3.81818H99.6135V5.18182H99.7272C99.909 4.71591 100.203 4.35417 100.608 4.09659C101.013 3.83523 101.5 3.70455 102.068 3.70455C102.644 3.70455 103.123 3.83523 103.506 4.09659C103.892 4.35417 104.193 4.71591 104.409 5.18182H104.5C104.723 4.73106 105.059 4.37311 105.506 4.10796C105.953 3.83902 106.489 3.70455 107.114 3.70455C107.894 3.70455 108.532 3.94886 109.028 4.4375C109.525 4.92235 109.773 5.67803 109.773 6.70455V12.5455H108.432V6.70455C108.432 6.06061 108.256 5.60038 107.903 5.32386C107.551 5.04735 107.136 4.90909 106.659 4.90909C106.045 4.90909 105.57 5.0947 105.233 5.46591C104.896 5.83333 104.727 6.29924 104.727 6.86364V12.5455H103.364V6.56818C103.364 6.07197 103.203 5.67235 102.881 5.36932C102.559 5.0625 102.144 4.90909 101.636 4.90909C101.288 4.90909 100.962 5.00189 100.659 5.1875C100.36 5.37311 100.117 5.63068 99.9317 5.96023C99.7499 6.28599 99.659 6.66288 99.659 7.09091V12.5455H98.3181ZM115.883 12.7273C115.043 12.7273 114.317 12.5417 113.707 12.1705C113.101 11.7955 112.633 11.2727 112.304 10.6023C111.978 9.92803 111.815 9.14394 111.815 8.25C111.815 7.35606 111.978 6.56818 112.304 5.88636C112.633 5.20076 113.092 4.66667 113.679 4.28409C114.27 3.89773 114.959 3.70455 115.747 3.70455C116.202 3.70455 116.65 3.7803 117.094 3.93182C117.537 4.08333 117.94 4.32955 118.304 4.67046C118.668 5.00758 118.957 5.45455 119.173 6.01136C119.389 6.56818 119.497 7.25379 119.497 8.06818V8.63636H112.77V7.47727H118.133C118.133 6.98485 118.035 6.54546 117.838 6.15909C117.645 5.77273 117.368 5.4678 117.008 5.24432C116.652 5.02083 116.232 4.90909 115.747 4.90909C115.213 4.90909 114.751 5.04167 114.361 5.30682C113.974 5.56818 113.677 5.90909 113.469 6.32955C113.26 6.75 113.156 7.20076 113.156 7.68182V8.45455C113.156 9.11364 113.27 9.67235 113.497 10.1307C113.728 10.5852 114.048 10.9318 114.457 11.1705C114.866 11.4053 115.342 11.5227 115.883 11.5227C116.236 11.5227 116.554 11.4735 116.838 11.375C117.126 11.2727 117.374 11.1212 117.582 10.9205C117.791 10.7159 117.952 10.4621 118.065 10.1591L119.361 10.5227C119.224 10.9621 118.995 11.3485 118.673 11.6818C118.351 12.0114 117.954 12.2689 117.48 12.4545C117.007 12.6364 116.474 12.7273 115.883 12.7273ZM121.537 12.5455V3.81818H122.832V5.13636H122.923C123.082 4.70455 123.37 4.35417 123.787 4.08523C124.204 3.81629 124.673 3.68182 125.196 3.68182C125.294 3.68182 125.418 3.68371 125.565 3.6875C125.713 3.69129 125.825 3.69697 125.9 3.70455V5.06818C125.855 5.05682 125.751 5.03977 125.588 5.01705C125.429 4.99053 125.26 4.97727 125.082 4.97727C124.658 4.97727 124.279 5.06629 123.946 5.24432C123.616 5.41856 123.355 5.66099 123.162 5.97159C122.972 6.27841 122.878 6.62879 122.878 7.02273V12.5455H121.537ZM130.77 12.7273C129.982 12.7273 129.291 12.5398 128.696 12.1648C128.105 11.7898 127.643 11.2652 127.31 10.5909C126.98 9.91667 126.815 9.12879 126.815 8.22727C126.815 7.31818 126.98 6.52462 127.31 5.84659C127.643 5.16856 128.105 4.64205 128.696 4.26705C129.291 3.89205 129.982 3.70455 130.77 3.70455C131.558 3.70455 132.247 3.89205 132.838 4.26705C133.433 4.64205 133.895 5.16856 134.224 5.84659C134.558 6.52462 134.724 7.31818 134.724 8.22727C134.724 9.12879 134.558 9.91667 134.224 10.5909C133.895 11.2652 133.433 11.7898 132.838 12.1648C132.247 12.5398 131.558 12.7273 130.77 12.7273ZM130.77 11.5227C131.368 11.5227 131.861 11.3693 132.247 11.0625C132.633 10.7557 132.919 10.3523 133.105 9.85227C133.291 9.35227 133.383 8.81061 133.383 8.22727C133.383 7.64394 133.291 7.10038 133.105 6.59659C132.919 6.0928 132.633 5.68561 132.247 5.375C131.861 5.06439 131.368 4.90909 130.77 4.90909C130.171 4.90909 129.679 5.06439 129.293 5.375C128.906 5.68561 128.62 6.0928 128.435 6.59659C128.249 7.10038 128.156 7.64394 128.156 8.22727C128.156 8.81061 128.249 9.35227 128.435 9.85227C128.62 10.3523 128.906 10.7557 129.293 11.0625C129.679 11.3693 130.171 11.5227 130.77 11.5227ZM137.748 12.6364C137.468 12.6364 137.228 12.536 137.027 12.3352C136.826 12.1345 136.726 11.8939 136.726 11.6136C136.726 11.3333 136.826 11.0928 137.027 10.892C137.228 10.6913 137.468 10.5909 137.748 10.5909C138.029 10.5909 138.269 10.6913 138.47 10.892C138.671 11.0928 138.771 11.3333 138.771 11.6136C138.771 11.7992 138.724 11.9697 138.629 12.125C138.538 12.2803 138.415 12.4053 138.26 12.5C138.108 12.5909 137.938 12.6364 137.748 12.6364ZM142.155 12.6364C141.874 12.6364 141.634 12.536 141.433 12.3352C141.232 12.1345 141.132 11.8939 141.132 11.6136C141.132 11.3333 141.232 11.0928 141.433 10.892C141.634 10.6913 141.874 10.5909 142.155 10.5909C142.435 10.5909 142.676 10.6913 142.876 10.892C143.077 11.0928 143.177 11.3333 143.177 11.6136C143.177 11.7992 143.13 11.9697 143.035 12.125C142.945 12.2803 142.821 12.4053 142.666 12.5C142.515 12.5909 142.344 12.6364 142.155 12.6364ZM146.561 12.6364C146.281 12.6364 146.04 12.536 145.839 12.3352C145.639 12.1345 145.538 11.8939 145.538 11.6136C145.538 11.3333 145.639 11.0928 145.839 10.892C146.04 10.6913 146.281 10.5909 146.561 10.5909C146.841 10.5909 147.082 10.6913 147.283 10.892C147.483 11.0928 147.584 11.3333 147.584 11.6136C147.584 11.7992 147.536 11.9697 147.442 12.125C147.351 12.2803 147.228 12.4053 147.072 12.5C146.921 12.5909 146.75 12.6364 146.561 12.6364Z" fill="#919191"/>
</svg>
