<svg width="61" height="9" viewBox="0 0 61 9" fill="none" xmlns="http://www.w3.org/2000/svg">
<path d="M4.22397 4.24603C4.22397 4.03336 4.21663 3.77303 4.20197 3.46503C4.19463 3.14969 4.16897 2.81969 4.12497 2.47503C4.08097 2.13036 4.00397 1.80769 3.89397 1.50703C3.78397 1.20636 3.63363 0.96436 3.44297 0.781027C3.2523 0.59036 3.00297 0.495027 2.69496 0.495027C2.4163 0.495027 2.18163 0.594027 1.99096 0.792027C1.8003 0.982694 1.6463 1.23569 1.52896 1.55103C1.41163 1.85903 1.31996 2.18903 1.25396 2.54103C1.1953 2.88569 1.15496 3.21936 1.13296 3.54203C1.11096 3.85736 1.09996 4.11403 1.09996 4.31203C1.09996 4.51003 1.1073 4.75936 1.12196 5.06003C1.14396 5.35336 1.18063 5.66503 1.23196 5.99503C1.2833 6.31769 1.36396 6.62203 1.47396 6.90803C1.5913 7.19403 1.74163 7.42869 1.92496 7.61203C2.1083 7.78803 2.3393 7.87603 2.61796 7.87603C2.9113 7.87603 3.1533 7.78803 3.34397 7.61203C3.53463 7.42869 3.68863 7.19403 3.80597 6.90803C3.9233 6.61469 4.0113 6.30303 4.06997 5.97303C4.13597 5.63569 4.1763 5.31669 4.19096 5.01603C4.21297 4.70803 4.22397 4.45136 4.22397 4.24603ZM5.36797 4.10303C5.36797 4.44036 5.33497 4.79603 5.26897 5.17003C5.2103 5.54403 5.11496 5.91069 4.98296 6.27003C4.85097 6.62936 4.67497 6.95569 4.45497 7.24903C4.2423 7.54236 3.98197 7.77703 3.67397 7.95303C3.36597 8.12169 3.00663 8.20603 2.59596 8.20603C2.10463 8.20603 1.6903 8.08503 1.35296 7.84303C1.02296 7.59369 0.758965 7.27469 0.560965 6.88603C0.362965 6.49736 0.219965 6.08303 0.131965 5.64303C0.0439649 5.19569 -3.51258e-05 4.77403 -3.51258e-05 4.37803C-3.51258e-05 4.04069 0.0292982 3.68136 0.0879649 3.30003C0.146632 2.91136 0.241965 2.53369 0.373965 2.16703C0.505965 1.80036 0.678298 1.46669 0.890965 1.16603C1.11096 0.86536 1.37496 0.627027 1.68296 0.451027C1.9983 0.267694 2.36496 0.176027 2.78297 0.176027C3.17896 0.176027 3.51996 0.26036 3.80597 0.429027C4.0993 0.597693 4.34496 0.82136 4.54297 1.10003C4.7483 1.37869 4.90963 1.69036 5.02697 2.03503C5.1443 2.37969 5.22863 2.73169 5.27997 3.09103C5.33863 3.44303 5.36797 3.78036 5.36797 4.10303ZM11.8122 5.53303C11.8122 6.00236 11.7242 6.40936 11.5482 6.75403C11.3722 7.09136 11.1302 7.37003 10.8222 7.59003C10.5216 7.81003 10.1769 7.97503 9.78825 8.08503C9.40691 8.18769 9.00725 8.23903 8.58925 8.23903C8.35458 8.23903 8.10891 8.21703 7.85225 8.17303C7.60291 8.12903 7.36825 8.04836 7.14825 7.93103C6.93558 7.81369 6.76691 7.64503 6.64225 7.42503C6.53958 7.25636 6.48825 7.06936 6.48825 6.86403C6.48825 6.69536 6.53591 6.57069 6.63125 6.49003C6.73391 6.40203 6.86591 6.35803 7.02725 6.35803C7.24725 6.35803 7.36825 6.45703 7.39025 6.65503C7.41958 6.86036 7.47458 7.06203 7.55525 7.26003C7.64325 7.45069 7.76425 7.60836 7.91825 7.73303C8.07958 7.85769 8.27758 7.92003 8.51225 7.92003C9.27491 7.92003 9.81758 7.73303 10.1402 7.35903C10.4702 6.97769 10.6352 6.41669 10.6352 5.67603C10.6352 5.18469 10.5032 4.78136 10.2392 4.46603C9.98258 4.14336 9.60125 3.98203 9.09525 3.98203C8.99991 3.98203 8.89725 3.98936 8.78725 4.00403C8.67725 4.01136 8.57458 4.02603 8.47925 4.04803C8.42791 4.05536 8.37291 4.07369 8.31425 4.10303C8.25558 4.12503 8.19691 4.13603 8.13825 4.13603C8.08691 4.13603 8.05391 4.11403 8.03925 4.07003C8.03191 4.02603 8.02825 3.98569 8.02825 3.94903C8.02825 3.89769 8.03558 3.84269 8.05025 3.78403C8.06491 3.72536 8.10525 3.69603 8.17125 3.69603C8.19325 3.69603 8.21525 3.69969 8.23725 3.70703C8.26658 3.70703 8.29591 3.70703 8.32525 3.70703C8.47191 3.70703 8.61858 3.70703 8.76525 3.70703C8.91925 3.69969 9.06591 3.67769 9.20525 3.64103C9.61591 3.52369 9.90558 3.33303 10.0742 3.06903C10.2502 2.79769 10.3382 2.45303 10.3382 2.03503C10.3382 1.74903 10.2979 1.48869 10.2172 1.25403C10.1439 1.01936 10.0156 0.83236 9.83225 0.693027C9.64891 0.553693 9.39591 0.484027 9.07325 0.484027C8.58925 0.484027 8.22258 0.63436 7.97325 0.935027C7.73125 1.22836 7.61025 1.60603 7.61025 2.06803C7.61025 2.22936 7.52225 2.31003 7.34625 2.31003C7.17758 2.31003 7.03458 2.26603 6.91725 2.17803C6.80725 2.09003 6.75225 1.95436 6.75225 1.77103C6.75225 1.69036 6.78158 1.57669 6.84025 1.43003C6.90625 1.28336 6.96491 1.17703 7.01625 1.11103C7.29491 0.751694 7.64691 0.50236 8.07225 0.363027C8.50491 0.223694 8.93758 0.154027 9.37025 0.154027C9.70758 0.154027 10.0339 0.220027 10.3492 0.352027C10.6646 0.484027 10.9249 0.67836 11.1302 0.935027C11.3356 1.18436 11.4382 1.49603 11.4382 1.87003C11.4382 2.14136 11.3612 2.40169 11.2072 2.65103C11.0606 2.90036 10.8882 3.10936 10.6902 3.27803C10.5362 3.41736 10.3639 3.52736 10.1732 3.60803C9.98258 3.68869 9.79191 3.75469 9.60125 3.80603C9.74058 3.81336 9.90925 3.82803 10.1072 3.85003C10.3126 3.87203 10.4776 3.90869 10.6022 3.96003C10.9469 4.07736 11.2329 4.27536 11.4602 4.55403C11.6949 4.82536 11.8122 5.15169 11.8122 5.53303ZM18.3225 0.528027C18.1099 0.748027 17.9082 1.01569 17.7175 1.33103C17.5342 1.64636 17.3655 1.97269 17.2115 2.31003C17.0575 2.64003 16.9255 2.95169 16.8155 3.24503C16.5589 3.91969 16.3609 4.61269 16.2215 5.32403C16.0822 6.03536 15.9832 6.75036 15.9245 7.46903C15.9025 7.74769 15.8549 7.97136 15.7815 8.14003C15.7082 8.30136 15.5102 8.38203 15.1875 8.38203C14.9895 8.38203 14.8575 8.31236 14.7915 8.17303C14.7329 8.02636 14.7035 7.87236 14.7035 7.71103C14.7035 7.40303 14.7512 7.05469 14.8465 6.66603C14.9419 6.27003 15.0592 5.86303 15.1985 5.44503C15.3452 5.02703 15.4955 4.62736 15.6495 4.24603C15.8035 3.85736 15.9429 3.52003 16.0675 3.23403C16.2655 2.79403 16.4965 2.35769 16.7605 1.92503C17.0319 1.49236 17.3142 1.08536 17.6075 0.704027C16.8595 0.71136 16.1042 0.73336 15.3415 0.770027C15.1509 0.77736 14.9529 0.78836 14.7475 0.803027C14.5422 0.81036 14.3442 0.836027 14.1535 0.880027C13.8822 0.938694 13.6769 1.07803 13.5375 1.29803C13.4055 1.51803 13.2992 1.75269 13.2185 2.00203C13.2039 2.00936 13.1819 2.01303 13.1525 2.01303C13.0939 2.01303 13.0425 2.00203 12.9985 1.98003C13.0352 1.71603 13.0645 1.45203 13.0865 1.18803C13.1159 0.916694 13.1452 0.649027 13.1745 0.385027C13.1892 0.341027 13.1965 0.311694 13.1965 0.297027C13.2039 0.275027 13.2295 0.256694 13.2735 0.242027C13.3322 0.22736 13.3945 0.220027 13.4605 0.220027C13.9152 0.220027 14.3699 0.223693 14.8245 0.231027C15.2865 0.23836 15.7485 0.242027 16.2105 0.242027C16.5625 0.242027 16.9145 0.23836 17.2665 0.231027C17.6185 0.223693 17.9705 0.212694 18.3225 0.198027V0.528027ZM23.8208 6.07203C23.8208 5.74203 23.7511 5.46703 23.6118 5.24703C23.4798 5.01969 23.3038 4.82903 23.0838 4.67503C22.8638 4.52103 22.6218 4.39269 22.3578 4.29003C22.0938 4.18003 21.8335 4.07736 21.5768 3.98203C21.1808 4.20936 20.8655 4.49903 20.6308 4.85103C20.3961 5.19569 20.2788 5.60269 20.2788 6.07203C20.2788 6.68069 20.4255 7.13903 20.7188 7.44703C21.0121 7.75503 21.4631 7.90903 22.0718 7.90903C22.4238 7.90903 22.7281 7.82836 22.9848 7.66703C23.2488 7.50569 23.4541 7.28569 23.6008 7.00703C23.7475 6.72836 23.8208 6.41669 23.8208 6.07203ZM23.6118 1.84803C23.6118 1.34936 23.4725 0.982694 23.1938 0.748027C22.9225 0.506027 22.5485 0.385027 22.0718 0.385027C21.6245 0.385027 21.2761 0.509694 21.0268 0.759027C20.7775 1.00103 20.6528 1.34203 20.6528 1.78203C20.6528 2.12669 20.7371 2.40903 20.9058 2.62903C21.0745 2.84903 21.2908 3.02869 21.5548 3.16803C21.8261 3.30736 22.1011 3.42836 22.3798 3.53103C22.7245 3.37703 23.0141 3.15703 23.2488 2.87103C23.4908 2.57769 23.6118 2.23669 23.6118 1.84803ZM24.9098 5.69803C24.9098 6.26269 24.7705 6.73569 24.4918 7.11703C24.2205 7.49103 23.8611 7.77336 23.4138 7.96403C22.9665 8.14736 22.4788 8.23903 21.9508 8.23903C21.5181 8.23903 21.1038 8.16569 20.7078 8.01903C20.3191 7.86503 20.0001 7.63036 19.7508 7.31503C19.5088 6.99969 19.3878 6.60003 19.3878 6.11603C19.3878 5.71269 19.4795 5.37536 19.6628 5.10403C19.8535 4.82536 20.0918 4.58703 20.3778 4.38903C20.6711 4.18369 20.9718 4.00036 21.2798 3.83903C21.0525 3.74369 20.8215 3.61903 20.5868 3.46503C20.3521 3.31103 20.1541 3.12403 19.9928 2.90403C19.8315 2.68403 19.7508 2.43469 19.7508 2.15603C19.7508 1.67203 19.8755 1.27969 20.1248 0.979027C20.3741 0.671027 20.6931 0.44736 21.0818 0.308027C21.4705 0.168694 21.8775 0.0990271 22.3028 0.0990271C22.6328 0.0990271 22.9628 0.157694 23.2928 0.275027C23.6228 0.39236 23.8978 0.572027 24.1178 0.814027C24.3378 1.05603 24.4478 1.36403 24.4478 1.73803C24.4478 2.07536 24.3781 2.36503 24.2388 2.60703C24.1068 2.84903 23.9235 3.05436 23.6888 3.22303C23.4541 3.39169 23.1938 3.53836 22.9078 3.66303C23.2085 3.75103 23.5128 3.89036 23.8208 4.08103C24.1288 4.26436 24.3855 4.49169 24.5908 4.76303C24.8035 5.03436 24.9098 5.34603 24.9098 5.69803ZM29.1321 2.48603C29.1321 2.30269 29.1284 2.11936 29.1211 1.93603C29.1211 1.75269 29.1211 1.56936 29.1211 1.38603L26.2941 5.46703H29.1211C29.1211 4.96836 29.1211 4.46969 29.1211 3.97103C29.1284 3.47236 29.1321 2.97736 29.1321 2.48603ZM31.6401 5.10403C31.6401 5.11869 31.6291 5.16269 31.6071 5.23603C31.5924 5.30203 31.5814 5.34969 31.5741 5.37903C31.5521 5.45969 31.5264 5.54769 31.4971 5.64303C31.4751 5.73836 31.4568 5.82636 31.4421 5.90703C31.4348 5.95836 31.4128 5.98769 31.3761 5.99503C31.3394 5.99503 31.2991 5.99503 31.2551 5.99503H30.1771C30.1771 6.20036 30.1771 6.40569 30.1771 6.61103C30.1844 6.81636 30.1881 7.02536 30.1881 7.23803V7.63403C30.1881 7.74403 30.2284 7.81736 30.3091 7.85403C30.3971 7.89069 30.4961 7.91269 30.6061 7.92003C30.7161 7.92003 30.8041 7.92003 30.8701 7.92003C30.9214 7.92003 30.9728 7.91636 31.0241 7.90903C31.0828 7.90169 31.1378 7.89803 31.1891 7.89803C31.2404 7.89803 31.2698 7.92003 31.2771 7.96403C31.2844 8.00069 31.2881 8.03736 31.2881 8.07403C31.2881 8.10336 31.2808 8.14003 31.2661 8.18403C31.2588 8.22069 31.2368 8.23903 31.2001 8.23903C31.1708 8.23903 31.1378 8.23903 31.1011 8.23903C31.0718 8.23903 31.0388 8.23536 31.0021 8.22803C30.7821 8.21336 30.5584 8.20236 30.3311 8.19503C30.1111 8.18769 29.8948 8.18403 29.6821 8.18403C29.4914 8.18403 29.2971 8.18769 29.0991 8.19503C28.9084 8.20236 28.7178 8.20969 28.5271 8.21703C28.4611 8.22436 28.3951 8.22803 28.3291 8.22803C28.2631 8.23536 28.2008 8.23903 28.1421 8.23903C28.0834 8.23903 28.0468 8.22436 28.0321 8.19503C28.0174 8.15836 28.0101 8.11436 28.0101 8.06303C28.0101 8.02636 28.0138 7.99336 28.0211 7.96403C28.0358 7.92736 28.0688 7.90903 28.1201 7.90903C28.1568 7.90903 28.1934 7.91269 28.2301 7.92003C28.2741 7.92003 28.3144 7.92003 28.3511 7.92003C28.4318 7.92003 28.5308 7.92003 28.6481 7.92003C28.7728 7.92003 28.8791 7.90169 28.9671 7.86503C29.0624 7.82103 29.1101 7.74403 29.1101 7.63403V5.99503H25.8321C25.7808 5.99503 25.7331 5.98403 25.6891 5.96203C25.6524 5.93269 25.6341 5.89236 25.6341 5.84103C25.6341 5.78236 25.6488 5.73103 25.6781 5.68703C25.6854 5.67236 25.6928 5.65769 25.7001 5.64303C25.7074 5.62836 25.7148 5.61736 25.7221 5.61003C26.3308 4.73003 26.9431 3.84636 27.5591 2.95903C28.1824 2.07169 28.7874 1.18069 29.3741 0.286027C29.3961 0.242027 29.4218 0.20536 29.4511 0.176027C29.4731 0.13936 29.5061 0.121027 29.5501 0.121027H30.1331C30.1478 0.121027 30.1698 0.124693 30.1991 0.132027C30.2284 0.132027 30.2394 0.143027 30.2321 0.165027L30.1881 0.286027V5.46703H30.8591C30.9544 5.46703 31.0498 5.45236 31.1451 5.42303C31.2478 5.38636 31.3284 5.33136 31.3871 5.25803C31.4018 5.24336 31.4164 5.21769 31.4311 5.18103C31.4531 5.13703 31.4678 5.10769 31.4751 5.09303C31.4971 5.05636 31.5228 5.03803 31.5521 5.03803C31.6108 5.03803 31.6401 5.06003 31.6401 5.10403ZM37.1604 4.96103C36.9257 4.30103 36.691 3.64103 36.4564 2.98103C36.2217 2.31369 35.987 1.65003 35.7524 0.990027C35.525 1.65003 35.294 2.31003 35.0594 2.97003C34.8247 3.63003 34.5937 4.29369 34.3664 4.96103H37.1604ZM40.2624 8.06303C40.2624 8.10703 40.255 8.14736 40.2404 8.18403C40.233 8.21336 40.2074 8.22803 40.1634 8.22803C40.112 8.22803 39.9837 8.22436 39.7784 8.21703C39.5804 8.20969 39.408 8.20603 39.2614 8.20603C39.034 8.20603 38.8067 8.20603 38.5794 8.20603C38.3594 8.20603 38.1357 8.21336 37.9084 8.22803C37.791 8.23536 37.67 8.23903 37.5454 8.23903C37.428 8.24636 37.3107 8.25003 37.1934 8.25003C37.1567 8.25003 37.131 8.23903 37.1164 8.21703C37.109 8.18769 37.1054 8.15836 37.1054 8.12903L37.1164 8.04103C37.1164 8.01903 37.1237 7.99703 37.1384 7.97503C37.153 7.94569 37.175 7.93103 37.2044 7.93103H37.7434C37.8094 7.93103 37.8827 7.91636 37.9634 7.88703C38.0514 7.85769 38.0954 7.80269 38.0954 7.72203C38.0954 7.70003 38.0697 7.61569 38.0184 7.46903C37.967 7.31503 37.9047 7.13169 37.8314 6.91903C37.758 6.69903 37.681 6.47903 37.6004 6.25903C37.5197 6.03903 37.45 5.84469 37.3914 5.67603C37.3327 5.50003 37.2924 5.38636 37.2704 5.33503H34.2674C34.2454 5.40103 34.2014 5.52203 34.1354 5.69803C34.0694 5.86669 33.996 6.06103 33.9154 6.28103C33.842 6.50103 33.765 6.71736 33.6844 6.93003C33.611 7.14269 33.5487 7.32603 33.4974 7.48003C33.4534 7.62669 33.4314 7.71836 33.4314 7.75503C33.4314 7.85769 33.4864 7.92369 33.5964 7.95303C33.7064 7.98236 33.798 7.99703 33.8714 7.99703C33.9447 7.99703 34.0107 7.99703 34.0694 7.99703C34.128 7.99703 34.1757 7.99336 34.2124 7.98603C34.227 7.98603 34.2527 7.98603 34.2894 7.98603C34.3334 7.97869 34.359 7.97503 34.3664 7.97503C34.4104 7.97503 34.436 8.00069 34.4434 8.05203C34.458 8.10336 34.4617 8.14369 34.4544 8.17303C34.447 8.20236 34.4287 8.22069 34.3994 8.22803C34.3774 8.22803 34.3517 8.22803 34.3224 8.22803C34.1097 8.22803 33.8934 8.22436 33.6734 8.21703C33.4534 8.20969 33.237 8.20603 33.0244 8.20603C32.863 8.20603 32.7054 8.20969 32.5514 8.21703C32.3974 8.22436 32.2397 8.22803 32.0784 8.22803C32.0124 8.22803 31.9794 8.19136 31.9794 8.11803C31.9794 8.01536 32.0307 7.96403 32.1334 7.96403C32.17 7.96403 32.214 7.96769 32.2654 7.97503C32.3167 7.97503 32.3717 7.97503 32.4304 7.97503C32.511 7.97503 32.5917 7.95303 32.6724 7.90903C32.7604 7.85769 32.8337 7.76969 32.8924 7.64503C32.929 7.57903 33.0024 7.40303 33.1124 7.11703C33.2224 6.83103 33.358 6.47536 33.5194 6.05003C33.6807 5.61736 33.8494 5.15536 34.0254 4.66403C34.2087 4.16536 34.3884 3.67036 34.5644 3.17903C34.7404 2.68769 34.898 2.23303 35.0374 1.81503C35.184 1.39703 35.3014 1.05236 35.3894 0.781027C35.4774 0.50236 35.5214 0.33736 35.5214 0.286027C35.5214 0.27136 35.5104 0.253027 35.4884 0.231027C35.4664 0.201694 35.4554 0.18336 35.4554 0.176027C35.4554 0.146693 35.4664 0.12836 35.4884 0.121027C35.5617 0.10636 35.6387 0.0953605 35.7194 0.0880272C35.8 0.0806936 35.877 0.0733601 35.9504 0.0660269C36.0457 0.0513604 36.141 0.0403603 36.2364 0.0330266C36.3317 0.0183602 36.427 0.0073603 36.5224 2.70605e-05L39.3714 7.70003C39.4007 7.77336 39.4557 7.83203 39.5364 7.87603C39.6244 7.91269 39.705 7.93103 39.7784 7.93103C39.8444 7.93103 39.9104 7.93103 39.9764 7.93103C40.0497 7.92369 40.123 7.92003 40.1964 7.92003C40.2257 7.92003 40.244 7.93836 40.2514 7.97503C40.2587 8.01169 40.2624 8.04103 40.2624 8.06303ZM48.1429 6.17103C48.1429 6.21503 48.1393 6.25903 48.1319 6.30303C48.1246 6.34703 48.1099 6.38736 48.0879 6.42403C47.9926 6.65136 47.8423 6.87503 47.6369 7.09503C47.4389 7.30769 47.2336 7.48369 47.0209 7.62303C46.6909 7.84303 46.3389 7.99703 45.9649 8.08503C45.5983 8.17303 45.2206 8.21703 44.8319 8.21703C44.0473 8.21703 43.3689 8.05203 42.7969 7.72203C42.2323 7.38469 41.7996 6.91903 41.4989 6.32503C41.1983 5.73103 41.0479 5.04903 41.0479 4.27903C41.0479 3.70703 41.1323 3.17169 41.3009 2.67303C41.4696 2.17436 41.7153 1.73803 42.0379 1.36403C42.3606 0.982694 42.7566 0.685693 43.2259 0.473027C43.6953 0.253027 44.2306 0.143027 44.8319 0.143027C45.1253 0.143027 45.4039 0.190694 45.6679 0.286027C45.9393 0.374027 46.2106 0.465694 46.4819 0.561027C46.6359 0.61236 46.7936 0.652693 46.9549 0.682027C47.1236 0.71136 47.2886 0.73336 47.4499 0.748027C47.4573 0.90936 47.4683 1.07069 47.4829 1.23203C47.4976 1.38603 47.5159 1.54369 47.5379 1.70503C47.5599 1.85169 47.5856 2.00203 47.6149 2.15603C47.6516 2.30269 47.6699 2.45303 47.6699 2.60703C47.6699 2.72436 47.6443 2.81969 47.5929 2.89303C47.5489 2.96636 47.4609 3.00303 47.3289 3.00303C47.2556 3.00303 47.2006 2.96269 47.1639 2.88203C47.1346 2.80869 47.1089 2.73169 47.0869 2.65103C47.0723 2.56303 47.0539 2.48236 47.0319 2.40903C46.9733 2.16703 46.8743 1.91403 46.7349 1.65003C46.5956 1.37869 46.4269 1.16236 46.2289 1.00103C46.1409 0.92036 46.0089 0.839694 45.8329 0.759027C45.6643 0.67836 45.4883 0.61236 45.3049 0.561027C45.1289 0.509694 44.9786 0.484027 44.8539 0.484027C44.6339 0.484027 44.4103 0.52436 44.1829 0.605027C43.9556 0.685694 43.7539 0.792027 43.5779 0.924027C43.2479 1.18069 42.9839 1.49236 42.7859 1.85903C42.5879 2.21836 42.4449 2.60336 42.3569 3.01403C42.2763 3.42469 42.2359 3.83169 42.2359 4.23503C42.2359 4.67503 42.2873 5.10769 42.3899 5.53303C42.4926 5.95103 42.6539 6.32869 42.8739 6.66603C43.0939 7.00336 43.3799 7.27469 43.7319 7.48003C44.0839 7.67803 44.5129 7.77703 45.0189 7.77703C45.2316 7.77703 45.4699 7.74769 45.7339 7.68903C45.9979 7.62303 46.2253 7.54969 46.4159 7.46903C46.6433 7.37369 46.8523 7.25269 47.0429 7.10603C47.2336 6.95203 47.4059 6.77969 47.5599 6.58903C47.5746 6.57436 47.6039 6.53036 47.6479 6.45703C47.6993 6.38369 47.7506 6.31036 47.8019 6.23703C47.8533 6.16369 47.8863 6.11969 47.9009 6.10503C47.9376 6.06103 47.9779 6.03903 48.0219 6.03903C48.1026 6.03903 48.1429 6.08303 48.1429 6.17103ZM53.2866 6.07203C53.2866 5.74203 53.217 5.46703 53.0776 5.24703C52.9456 5.01969 52.7696 4.82903 52.5496 4.67503C52.3296 4.52103 52.0876 4.39269 51.8236 4.29003C51.5596 4.18003 51.2993 4.07736 51.0426 3.98203C50.6466 4.20936 50.3313 4.49903 50.0966 4.85103C49.862 5.19569 49.7446 5.60269 49.7446 6.07203C49.7446 6.68069 49.8913 7.13903 50.1846 7.44703C50.478 7.75503 50.929 7.90903 51.5376 7.90903C51.8896 7.90903 52.194 7.82836 52.4506 7.66703C52.7146 7.50569 52.92 7.28569 53.0666 7.00703C53.2133 6.72836 53.2866 6.41669 53.2866 6.07203ZM53.0776 1.84803C53.0776 1.34936 52.9383 0.982694 52.6596 0.748027C52.3883 0.506027 52.0143 0.385027 51.5376 0.385027C51.0903 0.385027 50.742 0.509694 50.4926 0.759027C50.2433 1.00103 50.1186 1.34203 50.1186 1.78203C50.1186 2.12669 50.203 2.40903 50.3716 2.62903C50.5403 2.84903 50.7566 3.02869 51.0206 3.16803C51.292 3.30736 51.567 3.42836 51.8456 3.53103C52.1903 3.37703 52.48 3.15703 52.7146 2.87103C52.9566 2.57769 53.0776 2.23669 53.0776 1.84803ZM54.3756 5.69803C54.3756 6.26269 54.2363 6.73569 53.9576 7.11703C53.6863 7.49103 53.327 7.77336 52.8796 7.96403C52.4323 8.14736 51.9446 8.23903 51.4166 8.23903C50.984 8.23903 50.5696 8.16569 50.1736 8.01903C49.785 7.86503 49.466 7.63036 49.2166 7.31503C48.9746 6.99969 48.8536 6.60003 48.8536 6.11603C48.8536 5.71269 48.9453 5.37536 49.1286 5.10403C49.3193 4.82536 49.5576 4.58703 49.8436 4.38903C50.137 4.18369 50.4376 4.00036 50.7456 3.83903C50.5183 3.74369 50.2873 3.61903 50.0526 3.46503C49.818 3.31103 49.62 3.12403 49.4586 2.90403C49.2973 2.68403 49.2166 2.43469 49.2166 2.15603C49.2166 1.67203 49.3413 1.27969 49.5906 0.979027C49.84 0.671027 50.159 0.44736 50.5476 0.308027C50.9363 0.168694 51.3433 0.0990271 51.7686 0.0990271C52.0986 0.0990271 52.4286 0.157694 52.7586 0.275027C53.0886 0.39236 53.3636 0.572027 53.5836 0.814027C53.8036 1.05603 53.9136 1.36403 53.9136 1.73803C53.9136 2.07536 53.844 2.36503 53.7046 2.60703C53.5726 2.84903 53.3893 3.05436 53.1546 3.22303C52.92 3.39169 52.6596 3.53836 52.3736 3.66303C52.6743 3.75103 52.9786 3.89036 53.2866 4.08103C53.5946 4.26436 53.8513 4.49169 54.0566 4.76303C54.2693 5.03436 54.3756 5.34603 54.3756 5.69803ZM59.6429 4.24603C59.6429 4.03336 59.6356 3.77303 59.6209 3.46503C59.6136 3.14969 59.5879 2.81969 59.5439 2.47503C59.4999 2.13036 59.4229 1.80769 59.3129 1.50703C59.2029 1.20636 59.0526 0.96436 58.8619 0.781027C58.6712 0.59036 58.4219 0.495027 58.1139 0.495027C57.8352 0.495027 57.6006 0.594027 57.4099 0.792027C57.2192 0.982694 57.0652 1.23569 56.9479 1.55103C56.8306 1.85903 56.7389 2.18903 56.6729 2.54103C56.6142 2.88569 56.5739 3.21936 56.5519 3.54203C56.5299 3.85736 56.5189 4.11403 56.5189 4.31203C56.5189 4.51003 56.5262 4.75936 56.5409 5.06003C56.5629 5.35336 56.5996 5.66503 56.6509 5.99503C56.7022 6.31769 56.7829 6.62203 56.8929 6.90803C57.0102 7.19403 57.1606 7.42869 57.3439 7.61203C57.5272 7.78803 57.7582 7.87603 58.0369 7.87603C58.3302 7.87603 58.5722 7.78803 58.7629 7.61203C58.9536 7.42869 59.1076 7.19403 59.2249 6.90803C59.3422 6.61469 59.4302 6.30303 59.4889 5.97303C59.5549 5.63569 59.5952 5.31669 59.6099 5.01603C59.6319 4.70803 59.6429 4.45136 59.6429 4.24603ZM60.7869 4.10303C60.7869 4.44036 60.7539 4.79603 60.6879 5.17003C60.6292 5.54403 60.5339 5.91069 60.4019 6.27003C60.2699 6.62936 60.0939 6.95569 59.8739 7.24903C59.6612 7.54236 59.4009 7.77703 59.0929 7.95303C58.7849 8.12169 58.4256 8.20603 58.0149 8.20603C57.5236 8.20603 57.1092 8.08503 56.7719 7.84303C56.4419 7.59369 56.1779 7.27469 55.9799 6.88603C55.7819 6.49736 55.6389 6.08303 55.5509 5.64303C55.4629 5.19569 55.4189 4.77403 55.4189 4.37803C55.4189 4.04069 55.4482 3.68136 55.5069 3.30003C55.5656 2.91136 55.6609 2.53369 55.7929 2.16703C55.9249 1.80036 56.0972 1.46669 56.3099 1.16603C56.5299 0.86536 56.7939 0.627027 57.1019 0.451027C57.4172 0.267694 57.7839 0.176027 58.2019 0.176027C58.5979 0.176027 58.9389 0.26036 59.2249 0.429027C59.5182 0.597693 59.7639 0.82136 59.9619 1.10003C60.1672 1.37869 60.3286 1.69036 60.4459 2.03503C60.5632 2.37969 60.6476 2.73169 60.6989 3.09103C60.7576 3.44303 60.7869 3.78036 60.7869 4.10303Z" fill="black"/>
</svg>
