<svg width="47" height="12" viewBox="0 0 47 12" fill="none" xmlns="http://www.w3.org/2000/svg">
<path d="M1.38492 10.9092H-2.21692e-05L4.00566 8.84533e-05H5.3693L9.37498 10.9092H7.99003L4.73009 1.72594H4.64486L1.38492 10.9092ZM1.89628 6.64782H7.47867V7.81969H1.89628V6.64782ZM12.1608 8.84533e-05V10.9092H10.9037V8.84533e-05H12.1608ZM18.0216 2.72736V3.7927H13.7815V2.72736H18.0216ZM15.0173 0.767134H16.2744V8.56543C16.2744 8.92054 16.3259 9.18688 16.4289 9.36444C16.5354 9.53844 16.6703 9.65563 16.8337 9.716C17.0006 9.77282 17.1764 9.80123 17.361 9.80123C17.4995 9.80123 17.6132 9.79412 17.7019 9.77992C17.7907 9.76216 17.8618 9.74796 17.915 9.7373L18.1707 10.8666C18.0855 10.8985 17.9665 10.9305 17.8138 10.9624C17.6611 10.998 17.4676 11.0157 17.2332 11.0157C16.8781 11.0157 16.5301 10.9394 16.1892 10.7867C15.8518 10.634 15.5713 10.4014 15.3475 10.0889C15.1274 9.77637 15.0173 9.38219 15.0173 8.90634V0.767134ZM23.255 11.0796C22.4667 11.0796 21.7866 10.9056 21.2149 10.5576C20.6467 10.2061 20.2082 9.716 19.8992 9.08745C19.5938 8.45534 19.4411 7.72026 19.4411 6.88219C19.4411 6.04412 19.5938 5.30549 19.8992 4.66628C20.2082 4.02353 20.6379 3.52282 21.1883 3.16415C21.7423 2.80194 22.3886 2.62083 23.1272 2.62083C23.5533 2.62083 23.9741 2.69185 24.3896 2.8339C24.8051 2.97594 25.1833 3.20676 25.5242 3.52637C25.8651 3.84242 26.1368 4.26145 26.3392 4.78347C26.5416 5.30549 26.6428 5.94824 26.6428 6.71174V7.24441H20.336V6.15776H25.3644C25.3644 5.69611 25.2721 5.28418 25.0874 4.92196C24.9063 4.55975 24.6471 4.27388 24.3097 4.06436C23.9759 3.85485 23.5817 3.75009 23.1272 3.75009C22.6265 3.75009 22.1932 3.87438 21.8275 4.12296C21.4653 4.36799 21.1865 4.68759 20.9912 5.08176C20.7959 5.47594 20.6982 5.89853 20.6982 6.34952V7.07395C20.6982 7.69185 20.8048 8.21564 21.0178 8.64533C21.2344 9.07147 21.5345 9.3964 21.918 9.62012C22.3016 9.84029 22.7472 9.95037 23.255 9.95037C23.5853 9.95037 23.8836 9.90421 24.1499 9.81188C24.4198 9.716 24.6524 9.57395 24.8477 9.38574C25.043 9.19398 25.194 8.95605 25.3005 8.67196L26.515 9.01287C26.3871 9.4248 26.1723 9.78702 25.8705 10.0995C25.5686 10.4085 25.1957 10.6499 24.7518 10.824C24.308 10.9944 23.809 11.0796 23.255 11.0796ZM28.5551 10.9092V2.72736H29.7696V3.96316H29.8548C30.004 3.55833 30.2739 3.22985 30.6645 2.97772C31.0551 2.72559 31.4955 2.59952 31.9855 2.59952C32.0778 2.59952 32.1932 2.6013 32.3317 2.60485C32.4702 2.6084 32.575 2.61373 32.646 2.62083V3.89924C32.6034 3.88858 32.5057 3.8726 32.353 3.8513C32.2039 3.82644 32.0459 3.81401 31.879 3.81401C31.4812 3.81401 31.1261 3.89746 30.8136 4.06436C30.5047 4.22772 30.2597 4.45499 30.0785 4.74618C29.901 5.03382 29.8122 5.3623 29.8122 5.73162V10.9092H28.5551ZM36.5438 11.1009C36.0254 11.1009 35.5548 11.0033 35.1323 10.808C34.7097 10.6091 34.3741 10.3232 34.1255 9.95037C33.8769 9.57395 33.7526 9.11941 33.7526 8.58674C33.7526 8.11799 33.845 7.73801 34.0296 7.44682C34.2143 7.15208 34.4611 6.92125 34.77 6.75435C35.079 6.58745 35.4199 6.46316 35.7928 6.38148C36.1692 6.29625 36.5474 6.22878 36.9274 6.17907C37.4245 6.11515 37.8276 6.06721 38.1365 6.03524C38.449 5.99973 38.6763 5.94114 38.8183 5.85946C38.9639 5.77779 39.0367 5.63574 39.0367 5.43333V5.39071C39.0367 4.86515 38.8929 4.45676 38.6053 4.16557C38.3212 3.87438 37.8897 3.72878 37.3109 3.72878C36.7107 3.72878 36.2402 3.86017 35.8993 4.12296C35.5584 4.38574 35.3187 4.66628 35.1802 4.96458L33.987 4.53844C34.2001 4.04128 34.4842 3.65421 34.8393 3.37722C35.198 3.09668 35.5886 2.90137 36.0112 2.79128C36.4373 2.67765 36.8563 2.62083 37.2683 2.62083C37.5311 2.62083 37.8329 2.65279 38.1738 2.71671C38.5183 2.77708 38.8503 2.90314 39.1699 3.0949C39.4931 3.28667 39.7612 3.57608 39.9742 3.96316C40.1873 4.35023 40.2938 4.8687 40.2938 5.51855V10.9092H39.0367V9.80123H38.9728C38.8876 9.97878 38.7455 10.1688 38.5467 10.3712C38.3478 10.5736 38.0833 10.7458 37.753 10.8879C37.4227 11.0299 37.0197 11.1009 36.5438 11.1009ZM36.7356 9.97168C37.2328 9.97168 37.6518 9.87402 37.9927 9.67871C38.3372 9.4834 38.5964 9.23127 38.7704 8.92232C38.948 8.61337 39.0367 8.28844 39.0367 7.94753V6.79696C38.9835 6.86088 38.8663 6.91948 38.6852 6.97274C38.5076 7.02246 38.3016 7.06685 38.0673 7.10591C37.8364 7.14142 37.611 7.17338 37.3908 7.20179C37.1742 7.22665 36.9984 7.24796 36.8634 7.26571C36.5367 7.30833 36.2313 7.37757 35.9472 7.47346C35.6667 7.56578 35.4394 7.70605 35.2654 7.89426C35.095 8.07892 35.0097 8.33105 35.0097 8.65066C35.0097 9.08745 35.1713 9.4177 35.4945 9.64142C35.8212 9.86159 36.2349 9.97168 36.7356 9.97168ZM42.5883 10.9092V2.72736H43.8028V3.96316H43.888C44.0372 3.55833 44.3071 3.22985 44.6977 2.97772C45.0883 2.72559 45.5287 2.59952 46.0187 2.59952C46.111 2.59952 46.2265 2.6013 46.3649 2.60485C46.5034 2.6084 46.6082 2.61373 46.6792 2.62083V3.89924C46.6366 3.88858 46.539 3.8726 46.3863 3.8513C46.2371 3.82644 46.0791 3.81401 45.9122 3.81401C45.5144 3.81401 45.1593 3.89746 44.8468 4.06436C44.5379 4.22772 44.2929 4.45499 44.1117 4.74618C43.9342 5.03382 43.8454 5.3623 43.8454 5.73162V10.9092H42.5883Z" fill="#042A7D"/>
</svg>
