<svg width="54" height="9" viewBox="0 0 54 9" fill="none" xmlns="http://www.w3.org/2000/svg">
<path d="M8.18404 0.615943C8.18404 0.637943 8.17671 0.670943 8.16204 0.714943C8.14738 0.75161 8.12171 0.769943 8.08504 0.769943C8.02638 0.769943 7.96771 0.769943 7.90904 0.769943C7.85038 0.76261 7.79171 0.758943 7.73304 0.758943C7.53504 0.758943 7.39571 0.780943 7.31504 0.824943C7.24171 0.86161 7.19771 0.92761 7.18304 1.02294C7.17571 1.11828 7.17204 1.25028 7.17204 1.41894V8.35994C7.17204 8.42594 7.14638 8.45894 7.09504 8.45894L6.60004 8.46994C6.57071 8.30861 6.51571 8.14728 6.43504 7.98594C6.36171 7.82461 6.27371 7.67794 6.17104 7.54594C5.37904 6.50461 4.58704 5.47061 3.79504 4.44394C3.00304 3.40994 2.22204 2.36861 1.45204 1.31994V7.88694C1.45204 7.98961 1.48871 8.06294 1.56204 8.10694C1.64271 8.14361 1.73071 8.16561 1.82604 8.17294C1.92871 8.17294 2.01671 8.17294 2.09004 8.17294C2.14871 8.17294 2.20371 8.17294 2.25504 8.17294C2.31371 8.16561 2.37238 8.16194 2.43104 8.16194C2.49704 8.16194 2.53004 8.20228 2.53004 8.28294C2.53004 8.34161 2.52271 8.39294 2.50804 8.43694C2.50071 8.48094 2.45671 8.50294 2.37604 8.50294C2.31004 8.50294 2.24038 8.49928 2.16704 8.49194C2.10104 8.47728 2.03504 8.46628 1.96904 8.45894C1.85904 8.44428 1.74538 8.44061 1.62804 8.44794C1.51071 8.44794 1.39704 8.44794 1.28704 8.44794C1.08171 8.44794 0.880043 8.45894 0.682043 8.48094C0.491376 8.49561 0.293376 8.50294 0.088043 8.50294C0.0367097 8.50294 0.011043 8.46994 0.011043 8.40394C0.011043 8.29394 0.022043 8.22794 0.044043 8.20594C0.066043 8.18394 0.128376 8.17294 0.231043 8.17294C0.28971 8.17294 0.34471 8.17661 0.396043 8.18394C0.45471 8.18394 0.50971 8.18394 0.561043 8.18394C0.678376 8.18394 0.781043 8.16928 0.869043 8.13994C0.964376 8.11061 1.01571 8.02628 1.02304 7.88694C1.03771 7.53494 1.04138 7.17928 1.03404 6.81994C1.02671 6.46061 1.02304 6.10494 1.02304 5.75294C1.02304 4.98294 1.02671 4.21294 1.03404 3.44294C1.04871 2.67294 1.05604 1.89928 1.05604 1.12194C1.05604 0.989943 1.01938 0.898276 0.946043 0.846943C0.880043 0.788276 0.79571 0.755276 0.693043 0.747943C0.590376 0.74061 0.48771 0.736943 0.385043 0.736943C0.348376 0.736943 0.308043 0.74061 0.264043 0.747943C0.220043 0.747943 0.17971 0.747943 0.143043 0.747943C0.0477097 0.747943 4.29861e-05 0.711276 4.29861e-05 0.637943C4.29861e-05 0.58661 0.00370965 0.54261 0.011043 0.505943C0.0257096 0.461943 0.066043 0.439943 0.132043 0.439943C0.32271 0.439943 0.513376 0.447276 0.704043 0.461943C0.89471 0.469276 1.08538 0.472943 1.27604 0.472943C1.40804 0.472943 1.54004 0.472943 1.67204 0.472943C1.81138 0.46561 1.94704 0.461943 2.07904 0.461943C2.35038 0.82861 2.62904 1.18794 2.91504 1.53994C3.20104 1.89194 3.48704 2.24394 3.77304 2.59594C4.27171 3.20461 4.77038 3.81328 5.26904 4.42194C5.76771 5.02328 6.26638 5.62828 6.76504 6.23694V1.04494C6.76504 0.942276 6.71004 0.868943 6.60004 0.824943C6.49004 0.780943 6.39471 0.758943 6.31404 0.758943C6.21871 0.758943 6.12704 0.76261 6.03904 0.769943C5.95104 0.777276 5.85938 0.780943 5.76404 0.780943C5.71271 0.780943 5.68704 0.744276 5.68704 0.670943C5.68704 0.648943 5.68704 0.626943 5.68704 0.604943C5.68704 0.57561 5.69071 0.55361 5.69804 0.538943C5.69804 0.472943 5.73838 0.439943 5.81904 0.439943C5.92171 0.439943 6.02804 0.447276 6.13804 0.461943C6.24804 0.469276 6.35438 0.472943 6.45704 0.472943C6.73571 0.472943 7.01071 0.469276 7.28204 0.461943C7.55338 0.45461 7.82471 0.439943 8.09604 0.417943C8.14004 0.447276 8.16571 0.47661 8.17304 0.505943C8.18038 0.527943 8.18404 0.56461 8.18404 0.615943ZM11.0361 1.18794C11.0361 0.975276 10.9591 0.79561 10.8051 0.648943C10.6584 0.494943 10.4787 0.417943 10.2661 0.417943C10.0534 0.417943 9.87005 0.494943 9.71605 0.648943C9.56938 0.79561 9.49605 0.975276 9.49605 1.18794C9.49605 1.40061 9.56938 1.58394 9.71605 1.73794C9.87005 1.88461 10.0534 1.95794 10.2661 1.95794C10.4787 1.95794 10.6584 1.88461 10.8051 1.73794C10.9591 1.58394 11.0361 1.40061 11.0361 1.18794ZM11.4321 1.17694C11.4321 1.49228 11.3184 1.76361 11.0911 1.99094C10.8711 2.21828 10.5997 2.33194 10.2771 2.33194C9.96172 2.33194 9.69038 2.21828 9.46305 1.99094C9.23572 1.76361 9.12205 1.49228 9.12205 1.17694C9.12205 0.854276 9.23572 0.582943 9.46305 0.362943C9.69038 0.13561 9.96172 0.0219429 10.2771 0.0219429C10.5997 0.0219429 10.8711 0.13561 11.0911 0.362943C11.3184 0.582943 11.4321 0.854276 11.4321 1.17694ZM19.5018 4.45494C19.5018 4.20561 19.4504 3.97094 19.3478 3.75094C19.2451 3.53094 19.0984 3.35128 18.9078 3.21194C18.7171 3.07261 18.4861 3.00294 18.2148 3.00294C17.8628 3.00294 17.5731 3.08728 17.3458 3.25594C17.1258 3.42461 16.9498 3.64461 16.8178 3.91594C16.6931 4.17994 16.6051 4.46594 16.5538 4.77394C16.5098 5.08194 16.4878 5.37528 16.4878 5.65394C16.4878 5.90328 16.5098 6.17094 16.5538 6.45694C16.5978 6.74294 16.6748 7.01061 16.7848 7.25994C16.9021 7.50928 17.0634 7.71461 17.2688 7.87594C17.4741 8.02994 17.7344 8.10694 18.0498 8.10694C18.3138 8.10694 18.5558 8.02628 18.7758 7.86494C18.9958 7.69628 19.1718 7.48728 19.3038 7.23794C19.4358 6.98861 19.5018 6.74294 19.5018 6.50094V4.45494ZM21.5478 8.05194C21.5478 8.08861 21.5294 8.12528 21.4928 8.16194C21.4561 8.19861 21.4231 8.22794 21.3938 8.24994C21.2984 8.32328 21.1591 8.38561 20.9758 8.43694C20.7998 8.48828 20.6494 8.51394 20.5248 8.51394C20.3341 8.51394 20.1764 8.45894 20.0518 8.34894C19.9271 8.23894 19.8244 8.10328 19.7438 7.94194C19.6704 7.78061 19.6044 7.62294 19.5458 7.46894C19.3844 7.72561 19.1644 7.95661 18.8858 8.16194C18.6071 8.35994 18.3101 8.45894 17.9948 8.45894C17.7821 8.45894 17.5621 8.44428 17.3348 8.41494C17.1148 8.37828 16.9094 8.30128 16.7188 8.18394C16.3008 7.91994 15.9818 7.56428 15.7618 7.11694C15.5491 6.66228 15.4428 6.19661 15.4428 5.71994C15.4428 5.14794 15.5454 4.63461 15.7508 4.17994C15.9561 3.71794 16.2604 3.35494 16.6638 3.09094C17.0744 2.81961 17.5804 2.68394 18.1818 2.68394C18.3138 2.68394 18.4604 2.70961 18.6218 2.76094C18.7831 2.81228 18.9408 2.87828 19.0948 2.95894C19.2561 3.03228 19.3844 3.10928 19.4798 3.18994V1.05594C19.4798 0.821276 19.4174 0.689277 19.2928 0.659943C19.1754 0.623277 19.0178 0.604943 18.8198 0.604943C18.7538 0.604943 18.6878 0.60861 18.6218 0.615943C18.5558 0.615943 18.4898 0.615943 18.4238 0.615943C18.3944 0.615943 18.3651 0.604943 18.3358 0.582943C18.3138 0.560943 18.3028 0.535276 18.3028 0.505943C18.3028 0.45461 18.3211 0.42161 18.3578 0.406943C18.3724 0.392276 18.3871 0.384943 18.4018 0.384943C18.4238 0.384943 18.4458 0.381276 18.4678 0.373943C18.6218 0.34461 18.7758 0.32261 18.9298 0.307943C19.0911 0.285943 19.2524 0.260276 19.4138 0.230943C19.5751 0.201609 19.7328 0.172276 19.8868 0.142943C20.0408 0.106276 20.1948 0.0659428 20.3488 0.0219429C20.3561 0.0219429 20.3671 0.0182763 20.3818 0.0109431C20.4038 0.00360982 20.4184 -5.68032e-05 20.4258 -5.68032e-05C20.4624 -5.68032e-05 20.4844 0.0146099 20.4918 0.0439433C20.4991 0.0732762 20.5028 0.102609 20.5028 0.131943C20.5028 1.04128 20.4991 1.94694 20.4918 2.84894C20.4844 3.75094 20.4808 4.65661 20.4808 5.56594V7.20494C20.4808 7.32961 20.4954 7.45794 20.5248 7.58994C20.5541 7.72194 20.6091 7.83194 20.6898 7.91994C20.7778 8.00794 20.8988 8.05194 21.0528 8.05194C21.1261 8.05194 21.1958 8.03728 21.2618 8.00794C21.3278 7.97861 21.3974 7.96394 21.4708 7.96394C21.5221 7.96394 21.5478 7.99328 21.5478 8.05194ZM25.6007 7.20494C25.5713 6.87494 25.553 6.54494 25.5457 6.21494C25.5457 5.87761 25.542 5.54028 25.5347 5.20294H25.3807C25.1533 5.20294 24.9003 5.23961 24.6217 5.31294C24.3503 5.37894 24.09 5.48161 23.8407 5.62094C23.5913 5.76028 23.386 5.93628 23.2247 6.14894C23.0707 6.35428 22.9937 6.59261 22.9937 6.86394C22.9937 7.21594 23.0927 7.48361 23.2907 7.66694C23.4887 7.84294 23.7563 7.93094 24.0937 7.93094C24.255 7.93094 24.431 7.89428 24.6217 7.82094C24.8123 7.74028 24.9957 7.64494 25.1717 7.53494C25.3477 7.42494 25.4907 7.31494 25.6007 7.20494ZM27.5257 7.90894C27.5257 7.93828 27.522 7.96028 27.5147 7.97494C27.4413 8.13628 27.3167 8.26094 27.1407 8.34894C26.972 8.42961 26.8033 8.46994 26.6347 8.46994C26.3267 8.46994 26.103 8.38194 25.9637 8.20594C25.8317 8.02261 25.7253 7.79894 25.6447 7.53494C25.366 7.79161 25.058 8.00794 24.7207 8.18394C24.3833 8.35261 24.0203 8.43694 23.6317 8.43694C23.3603 8.43694 23.1037 8.38561 22.8617 8.28294C22.627 8.17294 22.4363 8.01528 22.2897 7.80994C22.143 7.60461 22.0697 7.35528 22.0697 7.06194C22.0697 6.75394 22.1467 6.48994 22.3007 6.26994C22.462 6.04261 22.6637 5.85194 22.9057 5.69794C23.155 5.53661 23.419 5.40828 23.6977 5.31294C23.9837 5.21028 24.2513 5.13328 24.5007 5.08194C24.6693 5.04528 24.8417 5.01228 25.0177 4.98294C25.1937 4.95361 25.366 4.92428 25.5347 4.89494C25.5347 4.68961 25.5237 4.45128 25.5017 4.17994C25.487 3.90861 25.432 3.68494 25.3367 3.50894C25.2413 3.34028 25.113 3.18994 24.9517 3.05794C24.7903 2.92594 24.6107 2.85994 24.4127 2.85994C24.0753 2.85994 23.8113 2.94794 23.6207 3.12394C23.43 3.29994 23.2943 3.54928 23.2137 3.87194C23.2063 3.90861 23.199 3.94894 23.1917 3.99294C23.1917 4.02961 23.188 4.06628 23.1807 4.10294C23.1733 4.14694 23.144 4.18728 23.0927 4.22394C23.0487 4.25328 23.001 4.26794 22.9497 4.26794C22.8103 4.26794 22.682 4.23494 22.5647 4.16894C22.4547 4.10294 22.3997 3.99294 22.3997 3.83894C22.3997 3.75094 22.4143 3.67394 22.4437 3.60794C22.539 3.38061 22.693 3.19361 22.9057 3.04694C23.1183 2.89294 23.353 2.77561 23.6097 2.69494C23.8737 2.61428 24.1193 2.57394 24.3467 2.57394C24.7427 2.57394 25.102 2.64728 25.4247 2.79394C25.7473 2.94061 26.004 3.15694 26.1947 3.44294C26.3927 3.72161 26.4917 4.07361 26.4917 4.49894C26.4917 4.97561 26.488 5.45594 26.4807 5.93994C26.4807 6.42394 26.4953 6.90794 26.5247 7.39194C26.532 7.55328 26.565 7.69628 26.6237 7.82094C26.6823 7.93828 26.8033 7.99694 26.9867 7.99694C27.082 7.99694 27.181 7.97494 27.2837 7.93094C27.3937 7.87961 27.4633 7.85394 27.4927 7.85394C27.5147 7.85394 27.5257 7.87228 27.5257 7.90894ZM36.1271 7.12794C36.1271 7.17928 36.0867 7.25261 36.0061 7.34794C35.9254 7.43594 35.8667 7.49828 35.8301 7.53494C35.7641 7.60094 35.6981 7.66694 35.6321 7.73294C35.5661 7.79894 35.4927 7.86128 35.4121 7.91994C35.1847 8.08128 34.9134 8.22061 34.5981 8.33794C34.2827 8.44794 33.9857 8.50294 33.7071 8.50294C33.1497 8.50294 32.6584 8.38194 32.2331 8.13994C31.8151 7.89061 31.4851 7.55328 31.2431 7.12794C31.0084 6.69528 30.8911 6.20394 30.8911 5.65394C30.8911 5.11128 31.0011 4.60161 31.2211 4.12494C31.4411 3.64828 31.7894 3.26328 32.2661 2.96994C32.4714 2.84528 32.6987 2.74628 32.9481 2.67294C33.2047 2.59961 33.4504 2.56294 33.6851 2.56294C33.8684 2.56294 34.0444 2.58494 34.2131 2.62894C34.3891 2.67294 34.5577 2.73161 34.7191 2.80494C34.8144 2.84894 34.9061 2.89294 34.9941 2.93694C35.0821 2.98094 35.1774 3.00294 35.2801 3.00294C35.3681 3.00294 35.4377 2.97728 35.4891 2.92594C35.5477 2.86728 35.5917 2.83794 35.6211 2.83794C35.6431 2.83794 35.6541 2.85261 35.6541 2.88194C35.6687 2.96994 35.6724 3.05794 35.6651 3.14594C35.6651 3.23394 35.6687 3.31828 35.6761 3.39894C35.6834 3.56028 35.6907 3.72161 35.6981 3.88294C35.7054 4.04428 35.7127 4.20561 35.7201 4.36694V4.39994C35.7274 4.48061 35.7201 4.54294 35.6981 4.58694C35.6761 4.63094 35.6174 4.65294 35.5221 4.65294C35.4707 4.65294 35.4341 4.62361 35.4121 4.56494C35.3974 4.50628 35.3827 4.45494 35.3681 4.41094C35.3167 4.19828 35.2397 3.97094 35.1371 3.72894C35.0344 3.48694 34.8951 3.29261 34.7191 3.14594C34.6091 3.04328 34.4697 2.95894 34.3011 2.89294C34.1397 2.82694 33.9857 2.79394 33.8391 2.79394C33.4871 2.79394 33.1864 2.88561 32.9371 3.06894C32.6951 3.24494 32.5007 3.47594 32.3541 3.76194C32.2074 4.04061 32.0974 4.34128 32.0241 4.66394C31.9581 4.98661 31.9251 5.29094 31.9251 5.57694C31.9251 5.86294 31.9581 6.15628 32.0241 6.45694C32.0901 6.75028 32.1927 7.02528 32.3321 7.28194C32.4787 7.53861 32.6694 7.74394 32.9041 7.89794C33.1461 8.05194 33.4357 8.12894 33.7731 8.12894C34.2424 8.12894 34.6347 8.04461 34.9501 7.87594C35.2654 7.69994 35.5697 7.43228 35.8631 7.07294C35.8924 7.02161 35.9327 6.99594 35.9841 6.99594C36.0794 6.99594 36.1271 7.03994 36.1271 7.12794ZM40.2745 7.20494C40.2451 6.87494 40.2268 6.54494 40.2195 6.21494C40.2195 5.87761 40.2158 5.54028 40.2085 5.20294H40.0545C39.8271 5.20294 39.5741 5.23961 39.2955 5.31294C39.0241 5.37894 38.7638 5.48161 38.5145 5.62094C38.2651 5.76028 38.0598 5.93628 37.8985 6.14894C37.7445 6.35428 37.6675 6.59261 37.6675 6.86394C37.6675 7.21594 37.7665 7.48361 37.9645 7.66694C38.1625 7.84294 38.4301 7.93094 38.7675 7.93094C38.9288 7.93094 39.1048 7.89428 39.2955 7.82094C39.4861 7.74028 39.6695 7.64494 39.8455 7.53494C40.0215 7.42494 40.1645 7.31494 40.2745 7.20494ZM42.1995 7.90894C42.1995 7.93828 42.1958 7.96028 42.1885 7.97494C42.1151 8.13628 41.9905 8.26094 41.8145 8.34894C41.6458 8.42961 41.4771 8.46994 41.3085 8.46994C41.0005 8.46994 40.7768 8.38194 40.6375 8.20594C40.5055 8.02261 40.3991 7.79894 40.3185 7.53494C40.0398 7.79161 39.7318 8.00794 39.3945 8.18394C39.0571 8.35261 38.6941 8.43694 38.3055 8.43694C38.0341 8.43694 37.7775 8.38561 37.5355 8.28294C37.3008 8.17294 37.1101 8.01528 36.9635 7.80994C36.8168 7.60461 36.7435 7.35528 36.7435 7.06194C36.7435 6.75394 36.8205 6.48994 36.9745 6.26994C37.1358 6.04261 37.3375 5.85194 37.5795 5.69794C37.8288 5.53661 38.0928 5.40828 38.3715 5.31294C38.6575 5.21028 38.9251 5.13328 39.1745 5.08194C39.3431 5.04528 39.5155 5.01228 39.6915 4.98294C39.8675 4.95361 40.0398 4.92428 40.2085 4.89494C40.2085 4.68961 40.1975 4.45128 40.1755 4.17994C40.1608 3.90861 40.1058 3.68494 40.0105 3.50894C39.9151 3.34028 39.7868 3.18994 39.6255 3.05794C39.4641 2.92594 39.2845 2.85994 39.0865 2.85994C38.7491 2.85994 38.4851 2.94794 38.2945 3.12394C38.1038 3.29994 37.9681 3.54928 37.8875 3.87194C37.8801 3.90861 37.8728 3.94894 37.8655 3.99294C37.8655 4.02961 37.8618 4.06628 37.8545 4.10294C37.8471 4.14694 37.8178 4.18728 37.7665 4.22394C37.7225 4.25328 37.6748 4.26794 37.6235 4.26794C37.4841 4.26794 37.3558 4.23494 37.2385 4.16894C37.1285 4.10294 37.0735 3.99294 37.0735 3.83894C37.0735 3.75094 37.0881 3.67394 37.1175 3.60794C37.2128 3.38061 37.3668 3.19361 37.5795 3.04694C37.7921 2.89294 38.0268 2.77561 38.2835 2.69494C38.5475 2.61428 38.7931 2.57394 39.0205 2.57394C39.4165 2.57394 39.7758 2.64728 40.0985 2.79394C40.4211 2.94061 40.6778 3.15694 40.8685 3.44294C41.0665 3.72161 41.1655 4.07361 41.1655 4.49894C41.1655 4.97561 41.1618 5.45594 41.1545 5.93994C41.1545 6.42394 41.1691 6.90794 41.1985 7.39194C41.2058 7.55328 41.2388 7.69628 41.2975 7.82094C41.3561 7.93828 41.4771 7.99694 41.6605 7.99694C41.7558 7.99694 41.8548 7.97494 41.9575 7.93094C42.0675 7.87961 42.1371 7.85394 42.1665 7.85394C42.1885 7.85394 42.1995 7.87228 42.1995 7.90894ZM46.8299 6.91894C46.8299 7.24894 46.7565 7.52028 46.6099 7.73294C46.4632 7.93828 46.2725 8.09594 46.0379 8.20594C45.8032 8.31594 45.5465 8.39294 45.2679 8.43694C44.9892 8.48094 44.7179 8.50294 44.4539 8.50294C44.2119 8.50294 43.9699 8.47728 43.7279 8.42594C43.4932 8.37461 43.2549 8.33794 43.0129 8.31594C42.9615 8.11794 42.9102 7.91994 42.8589 7.72194C42.8149 7.52394 42.7635 7.32961 42.7049 7.13894C42.6975 7.11694 42.6792 7.06561 42.6499 6.98494C42.6279 6.90428 42.6169 6.86028 42.6169 6.85294C42.6169 6.79428 42.6352 6.75394 42.6719 6.73194C42.7085 6.70261 42.7525 6.68794 42.8039 6.68794C42.8552 6.68794 42.8919 6.70628 42.9139 6.74294C42.9579 6.79428 42.9945 6.86394 43.0239 6.95194C43.0605 7.03994 43.0935 7.11694 43.1229 7.18294C43.1815 7.30028 43.2329 7.39194 43.2769 7.45794C43.3209 7.51661 43.3905 7.59361 43.4859 7.68894C43.7719 7.98961 44.1275 8.13994 44.5529 8.13994C44.7875 8.13994 45.0002 8.11428 45.1909 8.06294C45.3889 8.01161 45.5465 7.91628 45.6639 7.77694C45.7812 7.63028 45.8399 7.42128 45.8399 7.14994C45.8399 6.91528 45.7665 6.72094 45.6199 6.56694C45.4732 6.40561 45.2825 6.26261 45.0479 6.13794C44.8205 6.01328 44.5785 5.89228 44.3219 5.77494C44.0652 5.65761 43.8195 5.52928 43.5849 5.38994C43.3575 5.24328 43.1705 5.06728 43.0239 4.86194C42.8772 4.65661 42.8039 4.40728 42.8039 4.11394C42.8039 3.75461 42.8955 3.46128 43.0789 3.23394C43.2695 3.00661 43.5115 2.83794 43.8049 2.72794C44.0982 2.61061 44.4025 2.55194 44.7179 2.55194C44.9232 2.55194 45.1065 2.57761 45.2679 2.62894C45.4365 2.68028 45.6125 2.73894 45.7959 2.80494C45.8545 2.82694 45.9132 2.84161 45.9719 2.84894C46.0305 2.85628 46.0892 2.85994 46.1479 2.85994C46.1845 2.85994 46.2175 2.85994 46.2469 2.85994C46.2762 2.85994 46.3055 2.85628 46.3349 2.84894C46.3569 2.98094 46.3752 3.11661 46.3899 3.25594C46.4119 3.38794 46.4302 3.52361 46.4449 3.66294C46.4522 3.71428 46.4595 3.77661 46.4669 3.84994C46.4815 3.91594 46.4889 3.97828 46.4889 4.03694C46.4889 4.08828 46.4779 4.14328 46.4559 4.20194C46.4339 4.25328 46.3899 4.27894 46.3239 4.27894C46.2725 4.27894 46.2285 4.27528 46.1919 4.26794C46.1625 4.25328 46.1369 4.22028 46.1149 4.16894C46.0782 4.09561 46.0452 4.01861 46.0159 3.93794C45.9939 3.84994 45.9682 3.76928 45.9389 3.69594C45.8435 3.43928 45.6785 3.23394 45.4439 3.07994C45.2092 2.91861 44.9562 2.83794 44.6849 2.83794C44.3402 2.83794 44.0799 2.94061 43.9039 3.14594C43.7279 3.34394 43.6399 3.61161 43.6399 3.94894C43.6399 4.06628 43.6692 4.17994 43.7279 4.28994C43.7939 4.39994 43.8672 4.49528 43.9479 4.57594C44.1019 4.72261 44.2815 4.83628 44.4869 4.91694C44.6995 4.99761 44.9012 5.07828 45.0919 5.15894C45.3412 5.26894 45.5979 5.40094 45.8619 5.55494C46.1332 5.70894 46.3605 5.89594 46.5439 6.11594C46.7345 6.33594 46.8299 6.60361 46.8299 6.91894ZM51.1671 7.20494C51.1377 6.87494 51.1194 6.54494 51.1121 6.21494C51.1121 5.87761 51.1084 5.54028 51.1011 5.20294H50.9471C50.7197 5.20294 50.4667 5.23961 50.1881 5.31294C49.9167 5.37894 49.6564 5.48161 49.4071 5.62094C49.1577 5.76028 48.9524 5.93628 48.7911 6.14894C48.6371 6.35428 48.5601 6.59261 48.5601 6.86394C48.5601 7.21594 48.6591 7.48361 48.8571 7.66694C49.0551 7.84294 49.3227 7.93094 49.6601 7.93094C49.8214 7.93094 49.9974 7.89428 50.1881 7.82094C50.3787 7.74028 50.5621 7.64494 50.7381 7.53494C50.9141 7.42494 51.0571 7.31494 51.1671 7.20494ZM53.0921 7.90894C53.0921 7.93828 53.0884 7.96028 53.0811 7.97494C53.0077 8.13628 52.8831 8.26094 52.7071 8.34894C52.5384 8.42961 52.3697 8.46994 52.2011 8.46994C51.8931 8.46994 51.6694 8.38194 51.5301 8.20594C51.3981 8.02261 51.2917 7.79894 51.2111 7.53494C50.9324 7.79161 50.6244 8.00794 50.2871 8.18394C49.9497 8.35261 49.5867 8.43694 49.1981 8.43694C48.9267 8.43694 48.6701 8.38561 48.4281 8.28294C48.1934 8.17294 48.0027 8.01528 47.8561 7.80994C47.7094 7.60461 47.6361 7.35528 47.6361 7.06194C47.6361 6.75394 47.7131 6.48994 47.8671 6.26994C48.0284 6.04261 48.2301 5.85194 48.4721 5.69794C48.7214 5.53661 48.9854 5.40828 49.2641 5.31294C49.5501 5.21028 49.8177 5.13328 50.0671 5.08194C50.2357 5.04528 50.4081 5.01228 50.5841 4.98294C50.7601 4.95361 50.9324 4.92428 51.1011 4.89494C51.1011 4.68961 51.0901 4.45128 51.0681 4.17994C51.0534 3.90861 50.9984 3.68494 50.9031 3.50894C50.8077 3.34028 50.6794 3.18994 50.5181 3.05794C50.3567 2.92594 50.1771 2.85994 49.9791 2.85994C49.6417 2.85994 49.3777 2.94794 49.1871 3.12394C48.9964 3.29994 48.8607 3.54928 48.7801 3.87194C48.7727 3.90861 48.7654 3.94894 48.7581 3.99294C48.7581 4.02961 48.7544 4.06628 48.7471 4.10294C48.7397 4.14694 48.7104 4.18728 48.6591 4.22394C48.6151 4.25328 48.5674 4.26794 48.5161 4.26794C48.3767 4.26794 48.2484 4.23494 48.1311 4.16894C48.0211 4.10294 47.9661 3.99294 47.9661 3.83894C47.9661 3.75094 47.9807 3.67394 48.0101 3.60794C48.1054 3.38061 48.2594 3.19361 48.4721 3.04694C48.6847 2.89294 48.9194 2.77561 49.1761 2.69494C49.4401 2.61428 49.6857 2.57394 49.9131 2.57394C50.3091 2.57394 50.6684 2.64728 50.9911 2.79394C51.3137 2.94061 51.5704 3.15694 51.7611 3.44294C51.9591 3.72161 52.0581 4.07361 52.0581 4.49894C52.0581 4.97561 52.0544 5.45594 52.0471 5.93994C52.0471 6.42394 52.0617 6.90794 52.0911 7.39194C52.0984 7.55328 52.1314 7.69628 52.1901 7.82094C52.2487 7.93828 52.3697 7.99694 52.5531 7.99694C52.6484 7.99694 52.7474 7.97494 52.8501 7.93094C52.9601 7.87961 53.0297 7.85394 53.0591 7.85394C53.0811 7.85394 53.0921 7.87228 53.0921 7.90894Z" fill="#767676"/>
</svg>
