<svg width="17" height="13" viewBox="0 0 17 13" fill="none" xmlns="http://www.w3.org/2000/svg">
<path d="M11.9039 0.864068C11.9039 0.896068 11.8933 0.944068 11.8719 1.00807C11.8506 1.0614 11.8133 1.08807 11.7599 1.08807C11.6746 1.08807 11.5893 1.08807 11.5039 1.08807C11.4186 1.0774 11.3333 1.07207 11.2479 1.07207C10.9599 1.07207 10.7573 1.10407 10.6399 1.16807C10.5333 1.2214 10.4693 1.3174 10.4479 1.45607C10.4373 1.59473 10.4319 1.78673 10.4319 2.03207V12.1281C10.4319 12.2241 10.3946 12.2721 10.3199 12.2721L9.59994 12.2881C9.55727 12.0534 9.47727 11.8187 9.35994 11.5841C9.25327 11.3494 9.12527 11.1361 8.97594 10.9441C7.82394 9.4294 6.67194 7.9254 5.51994 6.43207C4.36794 4.92807 3.23194 3.4134 2.11194 1.88807V11.4401C2.11194 11.5894 2.16527 11.6961 2.27194 11.7601C2.38927 11.8134 2.51727 11.8454 2.65594 11.8561C2.80527 11.8561 2.93327 11.8561 3.03994 11.8561C3.12527 11.8561 3.20527 11.8561 3.27994 11.8561C3.36527 11.8454 3.45061 11.8401 3.53594 11.8401C3.63194 11.8401 3.67994 11.8987 3.67994 12.0161C3.67994 12.1014 3.66927 12.1761 3.64794 12.2401C3.63727 12.3041 3.57327 12.3361 3.45594 12.3361C3.35994 12.3361 3.25861 12.3307 3.15194 12.3201C3.05594 12.2987 2.95994 12.2827 2.86394 12.2721C2.70394 12.2507 2.53861 12.2454 2.36794 12.2561C2.19727 12.2561 2.03194 12.2561 1.87194 12.2561C1.57327 12.2561 1.27994 12.2721 0.99194 12.3041C0.714607 12.3254 0.426607 12.3361 0.12794 12.3361C0.0532738 12.3361 0.0159405 12.2881 0.0159405 12.1921C0.0159405 12.0321 0.0319405 11.9361 0.0639404 11.9041C0.0959404 11.8721 0.186607 11.8561 0.33594 11.8561C0.421274 11.8561 0.501274 11.8614 0.57594 11.8721C0.661274 11.8721 0.741274 11.8721 0.81594 11.8721C0.986607 11.8721 1.13594 11.8507 1.26394 11.8081C1.40261 11.7654 1.47727 11.6427 1.48794 11.4401C1.50927 10.9281 1.51461 10.4107 1.50394 9.88807C1.49327 9.3654 1.48794 8.84807 1.48794 8.33607C1.48794 7.21607 1.49327 6.09607 1.50394 4.97607C1.52527 3.85607 1.53594 2.73073 1.53594 1.60007C1.53594 1.40807 1.48261 1.27473 1.37594 1.20007C1.27994 1.11473 1.15727 1.06673 1.00794 1.05607C0.858607 1.0454 0.709274 1.04007 0.55994 1.04007C0.506607 1.04007 0.44794 1.0454 0.38394 1.05607C0.31994 1.05607 0.261274 1.05607 0.20794 1.05607C0.0692738 1.05607 -5.9545e-05 1.00273 -5.9545e-05 0.896068C-5.9545e-05 0.821401 0.00527379 0.757401 0.0159405 0.704068C0.0372738 0.640068 0.0959404 0.608068 0.19194 0.608068C0.469274 0.608068 0.746607 0.618734 1.02394 0.640068C1.30127 0.650735 1.57861 0.656068 1.85594 0.656068C2.04794 0.656068 2.23994 0.656068 2.43194 0.656068C2.63461 0.645401 2.83194 0.640068 3.02394 0.640068C3.41861 1.1734 3.82394 1.69607 4.23994 2.20807C4.65594 2.72007 5.07194 3.23207 5.48794 3.74407C6.21327 4.6294 6.93861 5.51473 7.66394 6.40007C8.38927 7.27473 9.11461 8.15473 9.83994 9.04007V1.48807C9.83994 1.33873 9.75994 1.23207 9.59994 1.16807C9.43994 1.10407 9.30127 1.07207 9.18394 1.07207C9.04527 1.07207 8.91194 1.0774 8.78394 1.08807C8.65594 1.09873 8.52261 1.10407 8.38394 1.10407C8.30927 1.10407 8.27194 1.05073 8.27194 0.944068C8.27194 0.912068 8.27194 0.880068 8.27194 0.848068C8.27194 0.805401 8.27727 0.773401 8.28794 0.752068C8.28794 0.656068 8.34661 0.608068 8.46394 0.608068C8.61327 0.608068 8.76794 0.618734 8.92794 0.640068C9.08794 0.650735 9.24261 0.656068 9.39194 0.656068C9.79727 0.656068 10.1973 0.650735 10.5919 0.640068C10.9866 0.629402 11.3813 0.608068 11.7759 0.576068C11.8399 0.618735 11.8773 0.661401 11.8879 0.704068C11.8986 0.736068 11.9039 0.789401 11.9039 0.864068ZM16.0523 1.69607C16.0523 1.38673 15.9403 1.1254 15.7163 0.912067C15.503 0.688068 15.2416 0.576068 14.9323 0.576068C14.623 0.576068 14.3563 0.688068 14.1323 0.912067C13.919 1.1254 13.8123 1.38673 13.8123 1.69607C13.8123 2.0054 13.919 2.27207 14.1323 2.49607C14.3563 2.7094 14.623 2.81607 14.9323 2.81607C15.2416 2.81607 15.503 2.7094 15.7163 2.49607C15.9403 2.27207 16.0523 2.0054 16.0523 1.69607ZM16.6283 1.68007C16.6283 2.13873 16.463 2.5334 16.1323 2.86407C15.8123 3.19473 15.4176 3.36007 14.9483 3.36007C14.4896 3.36007 14.095 3.19473 13.7643 2.86407C13.4336 2.5334 13.2683 2.13873 13.2683 1.68007C13.2683 1.21073 13.4336 0.816068 13.7643 0.496068C14.095 0.165401 14.4896 6.77109e-05 14.9483 6.77109e-05C15.4176 6.77109e-05 15.8123 0.165401 16.1323 0.496068C16.463 0.816068 16.6283 1.21073 16.6283 1.68007Z" fill="white"/>
</svg>
