<svg width="57" height="10" viewBox="0 0 57 10" fill="none" xmlns="http://www.w3.org/2000/svg">
<path d="M8.43603 5.5081C8.43603 5.5561 8.42403 5.6001 8.40003 5.6401C8.37603 5.6801 8.33603 5.7001 8.28003 5.7001H7.53603V8.2681C6.97603 8.4601 6.42003 8.6721 5.86803 8.9041C5.60403 9.0161 5.32403 9.0881 5.02803 9.1201C4.74003 9.1521 4.45603 9.1681 4.17603 9.1681C3.93603 9.1681 3.66803 9.1401 3.37203 9.0841C3.07603 9.0281 2.78803 8.9481 2.50803 8.8441C2.23603 8.7401 1.99603 8.6201 1.78803 8.4841C1.18003 8.0761 0.728029 7.5481 0.432029 6.9001C0.144029 6.2521 2.93255e-05 5.5641 2.93255e-05 4.8361C2.93255e-05 4.2201 0.0960293 3.6401 0.288029 3.0961C0.488029 2.5521 0.772029 2.0721 1.14003 1.6561C1.50803 1.2401 1.94803 0.916101 2.46003 0.684101C2.98003 0.444101 3.56003 0.324101 4.20003 0.324101C4.67203 0.324101 5.12403 0.388101 5.55603 0.516101C5.62803 0.540101 5.74403 0.576101 5.90403 0.624101C6.06403 0.672101 6.22403 0.720101 6.38403 0.768101C6.54403 0.808101 6.65203 0.828101 6.70803 0.828101C6.87603 0.828101 6.99203 0.808101 7.05603 0.768101C7.12003 0.720101 7.16803 0.668101 7.20003 0.612101C7.24003 0.556101 7.29603 0.512101 7.36803 0.480101H7.46403C7.52803 0.480101 7.56403 0.516101 7.57203 0.588101C7.58803 0.668101 7.59203 0.752101 7.58403 0.840101C7.58403 0.928101 7.58403 1.0161 7.58403 1.1041C7.58403 1.3521 7.58803 1.6001 7.59603 1.8481C7.61203 2.0961 7.62003 2.3481 7.62003 2.6041C7.62003 2.7001 7.61603 2.8121 7.60803 2.9401C7.60803 3.0681 7.53603 3.1321 7.39203 3.1321C7.34403 3.1321 7.30003 3.1281 7.26003 3.1201C7.22803 3.1041 7.19603 3.0761 7.16403 3.0361C7.15603 3.0201 7.13603 2.9761 7.10403 2.9041C7.07203 2.8241 7.04003 2.7441 7.00803 2.6641C6.97603 2.5761 6.95203 2.5161 6.93603 2.4841C6.72003 1.9961 6.40403 1.5881 5.98803 1.2601C5.77203 1.0841 5.49603 0.944101 5.16003 0.840101C4.83203 0.736101 4.52803 0.684101 4.24803 0.684101C3.71203 0.684101 3.25603 0.816101 2.88003 1.0801C2.50403 1.3361 2.20003 1.6721 1.96803 2.0881C1.73603 2.5041 1.56803 2.9521 1.46403 3.4321C1.36003 3.9121 1.30803 4.3761 1.30803 4.8241C1.30803 5.2961 1.36403 5.7601 1.47603 6.2161C1.58803 6.6721 1.76003 7.0841 1.99203 7.4521C2.23203 7.8201 2.54403 8.1161 2.92803 8.3401C3.31203 8.5561 3.77203 8.6641 4.30803 8.6641C4.46803 8.6641 4.66003 8.6481 4.88403 8.6161C5.10803 8.5841 5.33203 8.5281 5.55603 8.4481C5.78003 8.3681 5.96403 8.2601 6.10803 8.1241C6.26003 7.9881 6.33603 7.8161 6.33603 7.6081V6.0241C6.33603 5.8961 6.27203 5.8161 6.14403 5.7841C6.02403 5.7441 5.92003 5.7241 5.83203 5.7241C5.71203 5.7241 5.59203 5.7321 5.47203 5.7481C5.35203 5.7561 5.23203 5.7601 5.11203 5.7601C5.04803 5.7601 5.00403 5.7401 4.98003 5.7001C4.96403 5.6601 4.95603 5.6121 4.95603 5.5561C4.95603 5.5081 4.96403 5.4641 4.98003 5.4241C4.99603 5.3761 5.03603 5.3521 5.10003 5.3521C5.22803 5.3521 5.35203 5.3561 5.47203 5.3641C5.59203 5.3641 5.71603 5.3641 5.84403 5.3641H6.69603C6.83203 5.3641 6.96803 5.3641 7.10403 5.3641C7.24003 5.3641 7.37603 5.3601 7.51203 5.3521C7.64803 5.3521 7.78003 5.3481 7.90803 5.3401C8.03603 5.3241 8.16403 5.3161 8.29203 5.3161C8.34003 5.3161 8.37603 5.3401 8.40003 5.3881C8.42403 5.4281 8.43603 5.4681 8.43603 5.5081ZM13.551 4.9921C13.543 4.6641 13.515 4.3521 13.467 4.0561C13.419 3.7521 13.303 3.5041 13.119 3.3121C12.935 3.1121 12.635 3.0121 12.219 3.0121C11.843 3.0121 11.535 3.1161 11.295 3.3241C11.063 3.5241 10.883 3.7801 10.755 4.0921C10.627 4.3961 10.531 4.7081 10.467 5.0281C10.667 5.0361 10.863 5.0441 11.055 5.0521C11.247 5.0521 11.439 5.0521 11.631 5.0521C11.951 5.0521 12.271 5.0481 12.591 5.0401C12.911 5.0241 13.231 5.0081 13.551 4.9921ZM14.931 7.7401C14.931 7.7801 14.923 7.8041 14.907 7.8121C14.883 7.8921 14.823 7.9881 14.727 8.1001C14.639 8.2121 14.539 8.3201 14.427 8.4241C14.315 8.5201 14.223 8.5921 14.151 8.6401C13.887 8.8241 13.587 8.9721 13.251 9.0841C12.923 9.1961 12.595 9.2521 12.267 9.2521C11.995 9.2521 11.691 9.2081 11.355 9.1201C11.027 9.0321 10.747 8.9121 10.515 8.7601C10.067 8.4641 9.73903 8.0761 9.53103 7.5961C9.32303 7.1161 9.21903 6.6161 9.21903 6.0961C9.21903 5.5041 9.33503 4.9561 9.56703 4.4521C9.79903 3.9481 10.171 3.5401 10.683 3.2281C10.915 3.0921 11.175 2.9801 11.463 2.8921C11.751 2.7961 12.027 2.7481 12.291 2.7481C12.763 2.7481 13.179 2.8441 13.539 3.0361C13.899 3.2281 14.179 3.5001 14.379 3.8521C14.587 4.1961 14.691 4.6081 14.691 5.0881C14.691 5.2241 14.659 5.3121 14.595 5.3521C14.539 5.3921 14.451 5.4121 14.331 5.4121C14.171 5.4121 14.011 5.4081 13.851 5.4001C13.691 5.3921 13.531 5.3841 13.371 5.3761C13.147 5.3601 12.923 5.3521 12.699 5.3521C12.483 5.3521 12.263 5.3521 12.039 5.3521C11.767 5.3521 11.495 5.3521 11.223 5.3521C10.951 5.3521 10.679 5.3601 10.407 5.3761C10.399 5.5041 10.391 5.6281 10.383 5.7481C10.375 5.8681 10.371 5.9921 10.371 6.1201C10.371 6.4161 10.407 6.7241 10.479 7.0441C10.551 7.3561 10.667 7.6481 10.827 7.9201C10.987 8.1841 11.191 8.4001 11.439 8.5681C11.687 8.7281 11.987 8.8081 12.339 8.8081C12.699 8.8081 13.043 8.7521 13.371 8.6401C13.699 8.5281 13.999 8.3481 14.271 8.1001C14.343 8.0281 14.407 7.9521 14.463 7.8721C14.527 7.7841 14.595 7.7081 14.667 7.6441C14.707 7.6041 14.751 7.5841 14.799 7.5841C14.839 7.5841 14.871 7.6001 14.895 7.6321C14.919 7.6641 14.931 7.7001 14.931 7.7401ZM20.4141 3.8641C20.4141 3.9441 20.3821 4.0201 20.3181 4.0921C20.2621 4.1561 20.1901 4.1881 20.1021 4.1881C19.9821 4.1881 19.8941 4.1481 19.8381 4.0681C19.7901 3.9881 19.7461 3.8961 19.7061 3.7921C19.6741 3.6881 19.6221 3.5961 19.5501 3.5161C19.4781 3.4361 19.3581 3.3961 19.1901 3.3961C19.1581 3.3961 19.1261 3.3961 19.0941 3.3961C19.0701 3.3961 19.0421 3.4001 19.0101 3.4081C18.8741 3.4321 18.7261 3.5161 18.5661 3.6601C18.4061 3.8041 18.2501 3.9761 18.0981 4.1761C17.9541 4.3681 17.8341 4.5601 17.7381 4.7521C17.6421 4.9441 17.5901 5.1041 17.5821 5.2321C17.5741 5.3601 17.5701 5.4881 17.5701 5.6161C17.5701 5.7361 17.5701 5.8561 17.5701 5.9761C17.5701 6.4081 17.5701 6.8401 17.5701 7.2721C17.5781 7.7041 17.5821 8.1321 17.5821 8.5561C17.5821 8.6761 17.6301 8.7641 17.7261 8.8201C17.8301 8.8681 17.9341 8.8921 18.0381 8.8921C18.1181 8.8921 18.1981 8.8881 18.2781 8.8801C18.3581 8.8721 18.4381 8.8681 18.5181 8.8681C18.5581 8.8681 18.5861 8.8881 18.6021 8.9281C18.6181 8.9601 18.6261 8.9921 18.6261 9.0241C18.6261 9.1521 18.5621 9.2161 18.4341 9.2161C18.1941 9.2161 17.9541 9.2121 17.7141 9.2041C17.4741 9.1881 17.2341 9.1801 16.9941 9.1801C16.7461 9.1801 16.4941 9.1881 16.2381 9.2041C15.9901 9.2201 15.7381 9.2281 15.4821 9.2281C15.4501 9.2281 15.4261 9.2041 15.4101 9.1561C15.4021 9.1081 15.3981 9.0681 15.3981 9.0361C15.3981 8.9561 15.4301 8.9121 15.4941 8.9041C15.5821 8.8881 15.6741 8.8841 15.7701 8.8921C15.8661 8.9001 15.9541 8.9041 16.0341 8.9041C16.1541 8.9041 16.2501 8.8801 16.3221 8.8321C16.4021 8.7761 16.4461 8.6841 16.4541 8.5561C16.4701 8.3001 16.4781 8.0401 16.4781 7.7761C16.4861 7.5121 16.4901 7.2481 16.4901 6.9841V5.8201C16.4821 5.4761 16.4781 5.1361 16.4781 4.8001C16.4861 4.4561 16.4741 4.1161 16.4421 3.7801C16.4341 3.6201 16.3901 3.5081 16.3101 3.4441C16.2301 3.3721 16.1101 3.3361 15.9501 3.3361C15.8861 3.3361 15.8181 3.3441 15.7461 3.3601C15.6821 3.3681 15.6141 3.3721 15.5421 3.3721C15.4781 3.3721 15.4461 3.3241 15.4461 3.2281C15.4461 3.1721 15.4741 3.1321 15.5301 3.1081C15.6101 3.0841 15.6941 3.0681 15.7821 3.0601C15.8701 3.0441 15.9541 3.0321 16.0341 3.0241C16.2501 2.9841 16.4661 2.9441 16.6821 2.9041C16.8981 2.8641 17.1141 2.8161 17.3301 2.7601C17.4021 2.7841 17.4541 2.8281 17.4861 2.8921C17.5021 2.9241 17.5141 3.0121 17.5221 3.1561C17.5301 3.3001 17.5341 3.4681 17.5341 3.6601C17.5341 3.8441 17.5341 4.0201 17.5341 4.1881C17.5341 4.3481 17.5341 4.4601 17.5341 4.5241C17.7101 4.2441 17.9101 3.9641 18.1341 3.6841C18.3581 3.4041 18.6141 3.1721 18.9021 2.9881C19.1901 2.8041 19.5141 2.7121 19.8741 2.7121C20.0661 2.7121 20.1901 2.7721 20.2461 2.8921C20.3021 3.0121 20.3381 3.1521 20.3541 3.3121C20.3701 3.4001 20.3821 3.4921 20.3901 3.5881C20.4061 3.6841 20.4141 3.7761 20.4141 3.8641ZM25.4221 4.9921C25.4141 4.6641 25.3861 4.3521 25.3381 4.0561C25.2901 3.7521 25.1741 3.5041 24.9901 3.3121C24.8061 3.1121 24.5061 3.0121 24.0901 3.0121C23.7141 3.0121 23.4061 3.1161 23.1661 3.3241C22.9341 3.5241 22.7541 3.7801 22.6261 4.0921C22.4981 4.3961 22.4021 4.7081 22.3381 5.0281C22.5381 5.0361 22.7341 5.0441 22.9261 5.0521C23.1181 5.0521 23.3101 5.0521 23.5021 5.0521C23.8221 5.0521 24.1421 5.0481 24.4621 5.0401C24.7821 5.0241 25.1021 5.0081 25.4221 4.9921ZM26.8021 7.7401C26.8021 7.7801 26.7941 7.8041 26.7781 7.8121C26.7541 7.8921 26.6941 7.9881 26.5981 8.1001C26.5101 8.2121 26.4101 8.3201 26.2981 8.4241C26.1861 8.5201 26.0941 8.5921 26.0221 8.6401C25.7581 8.8241 25.4581 8.9721 25.1221 9.0841C24.7941 9.1961 24.4661 9.2521 24.1381 9.2521C23.8661 9.2521 23.5621 9.2081 23.2261 9.1201C22.8981 9.0321 22.6181 8.9121 22.3861 8.7601C21.9381 8.4641 21.6101 8.0761 21.4021 7.5961C21.1941 7.1161 21.0901 6.6161 21.0901 6.0961C21.0901 5.5041 21.2061 4.9561 21.4381 4.4521C21.6701 3.9481 22.0421 3.5401 22.5541 3.2281C22.7861 3.0921 23.0461 2.9801 23.3341 2.8921C23.6221 2.7961 23.8981 2.7481 24.1621 2.7481C24.6341 2.7481 25.0501 2.8441 25.4101 3.0361C25.7701 3.2281 26.0501 3.5001 26.2501 3.8521C26.4581 4.1961 26.5621 4.6081 26.5621 5.0881C26.5621 5.2241 26.5301 5.3121 26.4661 5.3521C26.4101 5.3921 26.3221 5.4121 26.2021 5.4121C26.0421 5.4121 25.8821 5.4081 25.7221 5.4001C25.5621 5.3921 25.4021 5.3841 25.2421 5.3761C25.0181 5.3601 24.7941 5.3521 24.5701 5.3521C24.3541 5.3521 24.1341 5.3521 23.9101 5.3521C23.6381 5.3521 23.3661 5.3521 23.0941 5.3521C22.8221 5.3521 22.5501 5.3601 22.2781 5.3761C22.2701 5.5041 22.2621 5.6281 22.2541 5.7481C22.2461 5.8681 22.2421 5.9921 22.2421 6.1201C22.2421 6.4161 22.2781 6.7241 22.3501 7.0441C22.4221 7.3561 22.5381 7.6481 22.6981 7.9201C22.8581 8.1841 23.0621 8.4001 23.3101 8.5681C23.5581 8.7281 23.8581 8.8081 24.2101 8.8081C24.5701 8.8081 24.9141 8.7521 25.2421 8.6401C25.5701 8.5281 25.8701 8.3481 26.1421 8.1001C26.2141 8.0281 26.2781 7.9521 26.3341 7.8721C26.3981 7.7841 26.4661 7.7081 26.5381 7.6441C26.5781 7.6041 26.6221 7.5841 26.6701 7.5841C26.7101 7.5841 26.7421 7.6001 26.7661 7.6321C26.7901 7.6641 26.8021 7.7001 26.8021 7.7401ZM34.4692 9.0241C34.4692 9.1281 34.4092 9.1801 34.2892 9.1801C34.1132 9.1801 33.9332 9.1761 33.7492 9.1681C33.5652 9.1521 33.3812 9.1441 33.1972 9.1441C32.9252 9.1441 32.6452 9.1521 32.3572 9.1681C32.0772 9.1761 31.7972 9.1801 31.5172 9.1801C31.4852 9.1801 31.4652 9.1561 31.4572 9.1081C31.4492 9.0521 31.4452 9.0081 31.4452 8.9761C31.4452 8.9121 31.4852 8.8801 31.5652 8.8801C31.6452 8.8801 31.7092 8.8801 31.7572 8.8801C31.7972 8.8801 31.8372 8.8841 31.8772 8.8921C31.9252 8.8921 31.9692 8.8921 32.0092 8.8921C32.2412 8.8921 32.3692 8.7761 32.3932 8.5441C32.4172 8.0721 32.4252 7.5961 32.4172 7.1161C32.4172 6.6361 32.4172 6.1601 32.4172 5.6881C32.4172 5.6001 32.4172 5.5121 32.4172 5.4241C32.4172 5.3281 32.4172 5.2361 32.4172 5.1481C32.4092 4.9641 32.3972 4.7401 32.3812 4.4761C32.3652 4.2041 32.3292 3.9841 32.2732 3.8161C32.1452 3.4001 31.8652 3.1921 31.4332 3.1921C31.0412 3.1921 30.6812 3.2921 30.3532 3.4921C30.0252 3.6921 29.7412 3.9441 29.5012 4.2481C29.4932 4.8321 29.4892 5.4121 29.4892 5.9881C29.4892 6.5641 29.4892 7.1401 29.4892 7.7161V8.5441C29.4892 8.6641 29.5412 8.7521 29.6452 8.8081C29.7492 8.8641 29.8532 8.8921 29.9572 8.8921C30.0212 8.8921 30.0812 8.8881 30.1372 8.8801C30.2012 8.8641 30.2612 8.8561 30.3172 8.8561C30.3492 8.8561 30.3692 8.8761 30.3772 8.9161C30.3852 8.9561 30.3892 8.9881 30.3892 9.0121C30.3892 9.0441 30.3772 9.0801 30.3532 9.1201C30.3372 9.1601 30.3052 9.1801 30.2572 9.1801C30.0812 9.1801 29.9052 9.1761 29.7292 9.1681C29.5612 9.1521 29.3892 9.1441 29.2132 9.1441C28.9412 9.1441 28.6692 9.1521 28.3972 9.1681C28.1252 9.1761 27.8492 9.1801 27.5692 9.1801C27.5292 9.1801 27.5052 9.1561 27.4972 9.1081C27.4972 9.0521 27.4972 9.0081 27.4972 8.9761C27.4972 8.9121 27.5332 8.8801 27.6052 8.8801C27.6772 8.8801 27.7332 8.8801 27.7732 8.8801C27.8132 8.8801 27.8532 8.8841 27.8932 8.8921C27.9332 8.8921 27.9732 8.8921 28.0132 8.8921C28.2452 8.8921 28.3732 8.7761 28.3972 8.5441C28.4052 8.4321 28.4092 8.3201 28.4092 8.2081C28.4092 8.0961 28.4092 7.9841 28.4092 7.8721C28.4092 7.1841 28.4092 6.4961 28.4092 5.8081C28.4092 5.1121 28.4052 4.4201 28.3972 3.7321C28.3972 3.6201 28.3732 3.5081 28.3252 3.3961C28.2772 3.2841 28.1852 3.2281 28.0492 3.2281C27.9452 3.2281 27.8452 3.2441 27.7492 3.2761C27.6532 3.3081 27.5532 3.3241 27.4492 3.3241C27.3932 3.3241 27.3652 3.2841 27.3652 3.2041C27.3652 3.1881 27.3652 3.1721 27.3652 3.1561C27.3732 3.1321 27.3812 3.1161 27.3892 3.1081C27.3972 3.1001 27.4092 3.0961 27.4252 3.0961C27.4412 3.0881 27.4532 3.0801 27.4612 3.0721C27.6052 3.0321 27.7532 3.0041 27.9052 2.9881C28.0652 2.9721 28.2172 2.9481 28.3612 2.9161C28.4972 2.8921 28.6292 2.8601 28.7572 2.8201C28.8852 2.7721 29.0132 2.7481 29.1412 2.7481C29.1972 2.7481 29.2412 2.7761 29.2732 2.8321C29.3132 2.9041 29.3452 3.0081 29.3692 3.1441C29.3932 3.2721 29.4092 3.4041 29.4172 3.5401C29.4332 3.6761 29.4412 3.7881 29.4412 3.8761C29.6172 3.7001 29.8252 3.5281 30.0652 3.3601C30.3132 3.1841 30.5692 3.0401 30.8332 2.9281C31.1052 2.8081 31.3692 2.7481 31.6252 2.7481C32.3612 2.7481 32.8572 2.9121 33.1132 3.2401C33.3772 3.5601 33.5092 4.0681 33.5092 4.7641C33.5092 5.3881 33.5052 6.0121 33.4972 6.6361C33.4972 7.2601 33.4972 7.8841 33.4972 8.5081C33.4972 8.6601 33.5412 8.7641 33.6292 8.8201C33.7252 8.8681 33.8372 8.8921 33.9652 8.8921C34.0292 8.8921 34.0932 8.8881 34.1572 8.8801C34.2212 8.8641 34.2812 8.8561 34.3372 8.8561C34.3852 8.8561 34.4172 8.8761 34.4332 8.9161C34.4572 8.9481 34.4692 8.9841 34.4692 9.0241ZM40.9472 7.7161C40.9472 7.7721 40.9032 7.8521 40.8152 7.9561C40.7272 8.0521 40.6632 8.1201 40.6232 8.1601C40.5512 8.2321 40.4792 8.3041 40.4072 8.3761C40.3352 8.4481 40.2552 8.5161 40.1672 8.5801C39.9192 8.7561 39.6232 8.9081 39.2792 9.0361C38.9352 9.1561 38.6112 9.2161 38.3072 9.2161C37.6992 9.2161 37.1632 9.0841 36.6992 8.8201C36.2432 8.5481 35.8832 8.1801 35.6192 7.7161C35.3632 7.2441 35.2352 6.7081 35.2352 6.1081C35.2352 5.5161 35.3552 4.9601 35.5952 4.4401C35.8352 3.9201 36.2152 3.5001 36.7352 3.1801C36.9592 3.0441 37.2072 2.9361 37.4792 2.8561C37.7592 2.7761 38.0272 2.7361 38.2832 2.7361C38.4832 2.7361 38.6752 2.7601 38.8592 2.8081C39.0512 2.8561 39.2352 2.9201 39.4112 3.0001C39.5152 3.0481 39.6152 3.0961 39.7112 3.1441C39.8072 3.1921 39.9112 3.2161 40.0232 3.2161C40.1192 3.2161 40.1952 3.1881 40.2512 3.1321C40.3152 3.0681 40.3632 3.0361 40.3952 3.0361C40.4192 3.0361 40.4312 3.0521 40.4312 3.0841C40.4472 3.1801 40.4512 3.2761 40.4432 3.3721C40.4432 3.4681 40.4472 3.5601 40.4552 3.6481C40.4632 3.8241 40.4712 4.0001 40.4792 4.1761C40.4872 4.3521 40.4952 4.5281 40.5032 4.7041V4.7401C40.5112 4.8281 40.5032 4.8961 40.4792 4.9441C40.4552 4.9921 40.3912 5.0161 40.2872 5.0161C40.2312 5.0161 40.1912 4.9841 40.1672 4.9201C40.1512 4.8561 40.1352 4.8001 40.1192 4.7521C40.0632 4.5201 39.9792 4.2721 39.8672 4.0081C39.7552 3.7441 39.6032 3.5321 39.4112 3.3721C39.2912 3.2601 39.1392 3.1681 38.9552 3.0961C38.7792 3.0241 38.6112 2.9881 38.4512 2.9881C38.0672 2.9881 37.7392 3.0881 37.4672 3.2881C37.2032 3.4801 36.9912 3.7321 36.8312 4.0441C36.6712 4.3481 36.5512 4.6761 36.4712 5.0281C36.3992 5.3801 36.3632 5.7121 36.3632 6.0241C36.3632 6.3361 36.3992 6.6561 36.4712 6.9841C36.5432 7.3041 36.6552 7.6041 36.8072 7.8841C36.9672 8.1641 37.1752 8.3881 37.4312 8.5561C37.6952 8.7241 38.0112 8.8081 38.3792 8.8081C38.8912 8.8081 39.3192 8.7161 39.6632 8.5321C40.0072 8.3401 40.3392 8.0481 40.6592 7.6561C40.6912 7.6001 40.7352 7.5721 40.7912 7.5721C40.8952 7.5721 40.9472 7.6201 40.9472 7.7161ZM44.9317 9.0241C44.9317 9.0641 44.9197 9.1041 44.8957 9.1441C44.8717 9.1761 44.8397 9.1921 44.7997 9.1921C44.5757 9.1921 44.3517 9.1881 44.1277 9.1801C43.9117 9.1641 43.6877 9.1561 43.4557 9.1561H43.1317C42.8917 9.1561 42.6517 9.1641 42.4117 9.1801C42.1797 9.1881 41.9477 9.1921 41.7157 9.1921C41.6837 9.1921 41.6597 9.1721 41.6437 9.1321C41.6357 9.0921 41.6317 9.0601 41.6317 9.0361C41.6317 8.9961 41.6357 8.9681 41.6437 8.9521C41.6517 8.9281 41.6757 8.9121 41.7157 8.9041C41.7557 8.8881 41.7997 8.8841 41.8477 8.8921C41.9037 8.8921 41.9557 8.8921 42.0037 8.8921C42.0597 8.8921 42.1117 8.8961 42.1597 8.9041C42.2077 8.9041 42.2597 8.9041 42.3157 8.9041C42.4277 8.9041 42.5277 8.8801 42.6157 8.8321C42.7117 8.7761 42.7597 8.6841 42.7597 8.5561V3.7561C42.7597 3.6201 42.7357 3.5161 42.6877 3.4441C42.6397 3.3641 42.5397 3.3241 42.3877 3.3241C42.2757 3.3241 42.1597 3.3321 42.0397 3.3481C41.9277 3.3561 41.8157 3.3681 41.7037 3.3841C41.6397 3.3841 41.6077 3.3481 41.6077 3.2761C41.6077 3.1961 41.6397 3.1441 41.7037 3.1201C41.7997 3.0881 41.8997 3.0681 42.0037 3.0601C42.1157 3.0441 42.2197 3.0281 42.3157 3.0121C42.5397 2.9721 42.7637 2.9281 42.9877 2.8801C43.2117 2.8321 43.4317 2.7801 43.6477 2.7241C43.6717 2.7161 43.7037 2.7121 43.7437 2.7121C43.8317 2.7121 43.8757 2.7601 43.8757 2.8561C43.8757 3.8001 43.8717 4.7481 43.8637 5.7001C43.8637 6.6521 43.8637 7.6041 43.8637 8.5561C43.8637 8.6841 43.9197 8.7761 44.0317 8.8321C44.1517 8.8801 44.2637 8.9041 44.3677 8.9041C44.4477 8.9041 44.5277 8.9001 44.6077 8.8921C44.6957 8.8841 44.7797 8.8801 44.8597 8.8801C44.8917 8.8801 44.9117 8.9001 44.9197 8.9401C44.9277 8.9801 44.9317 9.0081 44.9317 9.0241ZM43.9597 0.720101C43.9597 0.920101 43.8877 1.0921 43.7437 1.2361C43.5997 1.3721 43.4277 1.4401 43.2277 1.4401C43.0277 1.4401 42.8557 1.3721 42.7117 1.2361C42.5677 1.0921 42.4957 0.920101 42.4957 0.720101C42.4957 0.520101 42.5677 0.352101 42.7117 0.216101C42.8557 0.0721014 43.0277 0.000101328 43.2277 0.000101328C43.4277 0.000101328 43.5997 0.0721014 43.7437 0.216101C43.8877 0.352101 43.9597 0.520101 43.9597 0.720101ZM49.5967 7.8001C49.5647 7.4401 49.5447 7.0801 49.5367 6.7201C49.5367 6.3521 49.5327 5.9841 49.5247 5.6161H49.3567C49.1087 5.6161 48.8327 5.6561 48.5287 5.7361C48.2327 5.8081 47.9487 5.9201 47.6767 6.0721C47.4047 6.2241 47.1807 6.4161 47.0047 6.6481C46.8367 6.8721 46.7527 7.1321 46.7527 7.4281C46.7527 7.8121 46.8607 8.1041 47.0767 8.3041C47.2927 8.4961 47.5847 8.5921 47.9527 8.5921C48.1287 8.5921 48.3207 8.5521 48.5287 8.4721C48.7367 8.3841 48.9367 8.2801 49.1287 8.1601C49.3207 8.0401 49.4767 7.9201 49.5967 7.8001ZM51.6967 8.5681C51.6967 8.6001 51.6927 8.6241 51.6847 8.6401C51.6047 8.8161 51.4687 8.9521 51.2767 9.0481C51.0927 9.1361 50.9087 9.1801 50.7247 9.1801C50.3887 9.1801 50.1447 9.0841 49.9927 8.8921C49.8487 8.6921 49.7327 8.4481 49.6447 8.1601C49.3407 8.4401 49.0047 8.6761 48.6367 8.8681C48.2687 9.0521 47.8727 9.1441 47.4487 9.1441C47.1527 9.1441 46.8727 9.0881 46.6087 8.9761C46.3527 8.8561 46.1447 8.6841 45.9847 8.4601C45.8247 8.2361 45.7447 7.9641 45.7447 7.6441C45.7447 7.3081 45.8287 7.0201 45.9967 6.7801C46.1727 6.5321 46.3927 6.3241 46.6567 6.1561C46.9287 5.9801 47.2167 5.8401 47.5207 5.7361C47.8327 5.6241 48.1247 5.5401 48.3967 5.4841C48.5807 5.4441 48.7687 5.4081 48.9607 5.3761C49.1527 5.3441 49.3407 5.3121 49.5247 5.2801C49.5247 5.0561 49.5127 4.7961 49.4887 4.5001C49.4727 4.2041 49.4127 3.9601 49.3087 3.7681C49.2047 3.5841 49.0647 3.4201 48.8887 3.2761C48.7127 3.1321 48.5167 3.0601 48.3007 3.0601C47.9327 3.0601 47.6447 3.1561 47.4367 3.3481C47.2287 3.5401 47.0807 3.8121 46.9927 4.1641C46.9847 4.2041 46.9767 4.2481 46.9687 4.2961C46.9687 4.3361 46.9647 4.3761 46.9567 4.4161C46.9487 4.4641 46.9167 4.5081 46.8607 4.5481C46.8127 4.5801 46.7607 4.5961 46.7047 4.5961C46.5527 4.5961 46.4127 4.5601 46.2847 4.4881C46.1647 4.4161 46.1047 4.2961 46.1047 4.1281C46.1047 4.0321 46.1207 3.9481 46.1527 3.8761C46.2567 3.6281 46.4247 3.4241 46.6567 3.2641C46.8887 3.0961 47.1447 2.9681 47.4247 2.8801C47.7127 2.7921 47.9807 2.7481 48.2287 2.7481C48.6607 2.7481 49.0527 2.8281 49.4047 2.9881C49.7567 3.1481 50.0367 3.3841 50.2447 3.6961C50.4607 4.0001 50.5687 4.3841 50.5687 4.8481C50.5687 5.3681 50.5647 5.8921 50.5567 6.4201C50.5567 6.9481 50.5727 7.4761 50.6047 8.0041C50.6127 8.1801 50.6487 8.3361 50.7127 8.4721C50.7767 8.6001 50.9087 8.6641 51.1087 8.6641C51.2127 8.6641 51.3207 8.6401 51.4327 8.5921C51.5527 8.5361 51.6287 8.5081 51.6607 8.5081C51.6847 8.5081 51.6967 8.5281 51.6967 8.5681ZM57 3.8641C57 3.9441 56.968 4.0201 56.904 4.0921C56.848 4.1561 56.776 4.1881 56.688 4.1881C56.568 4.1881 56.48 4.1481 56.424 4.0681C56.376 3.9881 56.332 3.8961 56.292 3.7921C56.26 3.6881 56.208 3.5961 56.136 3.5161C56.064 3.4361 55.944 3.3961 55.776 3.3961C55.744 3.3961 55.712 3.3961 55.68 3.3961C55.656 3.3961 55.628 3.4001 55.596 3.4081C55.46 3.4321 55.312 3.5161 55.152 3.6601C54.992 3.8041 54.836 3.9761 54.684 4.1761C54.54 4.3681 54.42 4.5601 54.324 4.7521C54.228 4.9441 54.176 5.1041 54.168 5.2321C54.16 5.3601 54.156 5.4881 54.156 5.6161C54.156 5.7361 54.156 5.8561 54.156 5.9761C54.156 6.4081 54.156 6.8401 54.156 7.2721C54.164 7.7041 54.168 8.1321 54.168 8.5561C54.168 8.6761 54.216 8.7641 54.312 8.8201C54.416 8.8681 54.52 8.8921 54.624 8.8921C54.704 8.8921 54.784 8.8881 54.864 8.8801C54.944 8.8721 55.024 8.8681 55.104 8.8681C55.144 8.8681 55.172 8.8881 55.188 8.9281C55.204 8.9601 55.212 8.9921 55.212 9.0241C55.212 9.1521 55.148 9.2161 55.02 9.2161C54.78 9.2161 54.54 9.2121 54.3 9.2041C54.06 9.1881 53.82 9.1801 53.58 9.1801C53.332 9.1801 53.08 9.1881 52.824 9.2041C52.576 9.2201 52.324 9.2281 52.068 9.2281C52.036 9.2281 52.012 9.2041 51.996 9.1561C51.988 9.1081 51.984 9.0681 51.984 9.0361C51.984 8.9561 52.016 8.9121 52.08 8.9041C52.168 8.8881 52.26 8.8841 52.356 8.8921C52.452 8.9001 52.54 8.9041 52.62 8.9041C52.74 8.9041 52.836 8.8801 52.908 8.8321C52.988 8.7761 53.032 8.6841 53.04 8.5561C53.056 8.3001 53.064 8.0401 53.064 7.7761C53.072 7.5121 53.076 7.2481 53.076 6.9841V5.8201C53.068 5.4761 53.064 5.1361 53.064 4.8001C53.072 4.4561 53.06 4.1161 53.028 3.7801C53.02 3.6201 52.976 3.5081 52.896 3.4441C52.816 3.3721 52.696 3.3361 52.536 3.3361C52.472 3.3361 52.404 3.3441 52.332 3.3601C52.268 3.3681 52.2 3.3721 52.128 3.3721C52.064 3.3721 52.032 3.3241 52.032 3.2281C52.032 3.1721 52.06 3.1321 52.116 3.1081C52.196 3.0841 52.28 3.0681 52.368 3.0601C52.456 3.0441 52.54 3.0321 52.62 3.0241C52.836 2.9841 53.052 2.9441 53.268 2.9041C53.484 2.8641 53.7 2.8161 53.916 2.7601C53.988 2.7841 54.04 2.8281 54.072 2.8921C54.088 2.9241 54.1 3.0121 54.108 3.1561C54.116 3.3001 54.12 3.4681 54.12 3.6601C54.12 3.8441 54.12 4.0201 54.12 4.1881C54.12 4.3481 54.12 4.4601 54.12 4.5241C54.296 4.2441 54.496 3.9641 54.72 3.6841C54.944 3.4041 55.2 3.1721 55.488 2.9881C55.776 2.8041 56.1 2.7121 56.46 2.7121C56.652 2.7121 56.776 2.7721 56.832 2.8921C56.888 3.0121 56.924 3.1521 56.94 3.3121C56.956 3.4001 56.968 3.4921 56.976 3.5881C56.992 3.6841 57 3.7761 57 3.8641Z" fill="#8A7268"/>
</svg>
