<svg width="58" height="14" viewBox="0 0 58 14" fill="none" xmlns="http://www.w3.org/2000/svg">
<path d="M-8.9407e-06 11.4545V1.27273H3.44033C4.23579 1.27273 4.88872 1.40862 5.39914 1.6804C5.90956 1.94886 6.2874 2.31842 6.53266 2.78906C6.77793 3.25971 6.90056 3.79498 6.90056 4.39488C6.90056 4.99479 6.77793 5.52675 6.53266 5.99077C6.2874 6.45478 5.91121 6.81936 5.40411 7.08452C4.89701 7.34635 4.24904 7.47727 3.46022 7.47727H0.676127V6.36363H3.42045C3.96401 6.36363 4.40151 6.28409 4.73295 6.125C5.0677 5.96591 5.30965 5.74053 5.4588 5.44886C5.61126 5.15388 5.68749 4.80256 5.68749 4.39488C5.68749 3.98721 5.61126 3.63092 5.4588 3.32599C5.30634 3.02107 5.06273 2.78575 4.72797 2.62003C4.39322 2.45099 3.95075 2.36648 3.40056 2.36648H1.23295V11.4545H-8.9407e-06ZM4.7926 6.88068L7.29829 11.4545H5.86647L3.40056 6.88068H4.7926ZM11.7789 12.7273V-2.14577e-06H12.5943V12.7273H11.7789ZM14.5233 3.81818C14.4636 3.31439 14.2216 2.92329 13.7974 2.64488C13.3732 2.36648 12.8528 2.22727 12.2363 2.22727C11.7856 2.22727 11.3911 2.30019 11.0531 2.44602C10.7183 2.59185 10.4565 2.79238 10.2676 3.04758C10.082 3.30279 9.98916 3.5928 9.98916 3.91761C9.98916 4.18939 10.0538 4.42306 10.1831 4.61861C10.3156 4.81084 10.4847 4.97159 10.6902 5.10085C10.8956 5.2268 11.1111 5.3312 11.3365 5.41406C11.5618 5.49361 11.769 5.55824 11.9579 5.60795L12.992 5.88636C13.2572 5.95596 13.5521 6.05208 13.8769 6.17471C14.2051 6.29735 14.5183 6.46472 14.8166 6.67685C15.1182 6.88565 15.3668 7.15412 15.5623 7.48224C15.7579 7.81037 15.8556 8.21307 15.8556 8.69034C15.8556 9.24053 15.7115 9.73769 15.4231 10.1818C15.1381 10.6259 14.7205 10.9789 14.1703 11.2408C13.6234 11.5026 12.9589 11.6335 12.1767 11.6335C11.4475 11.6335 10.8161 11.5159 10.2825 11.2805C9.75218 11.0452 9.33457 10.7171 9.02964 10.2962C8.72803 9.87524 8.55734 9.38636 8.51757 8.82954H9.7903C9.82344 9.21401 9.9527 9.5322 10.1781 9.78409C10.4068 10.0327 10.6951 10.2183 11.0431 10.3409C11.3945 10.4602 11.7723 10.5199 12.1767 10.5199C12.6473 10.5199 13.0699 10.4437 13.4444 10.2912C13.8189 10.1354 14.1156 9.91998 14.3343 9.64488C14.5531 9.36648 14.6625 9.04167 14.6625 8.67045C14.6625 8.33238 14.568 8.05729 14.3791 7.84517C14.1902 7.63305 13.9416 7.4607 13.6333 7.32812C13.3251 7.19555 12.992 7.07954 12.634 6.98011L11.3812 6.62216C10.5858 6.39346 9.95602 6.067 9.492 5.64275C9.02799 5.21851 8.79598 4.66335 8.79598 3.97727C8.79598 3.4072 8.9501 2.91004 9.25834 2.48579C9.56989 2.05824 9.9875 1.7268 10.5112 1.49148C11.0382 1.25284 11.6265 1.13352 12.2761 1.13352C12.9323 1.13352 13.5157 1.25118 14.0261 1.4865C14.5365 1.71851 14.9409 2.03669 15.2392 2.44105C15.5408 2.84541 15.6999 3.30445 15.7164 3.81818H14.5233ZM24.8231 11.5937C24.2398 11.5937 23.7145 11.4777 23.2472 11.2457C22.7798 11.0137 22.4053 10.6955 22.1236 10.2912C21.8418 9.88684 21.6877 9.42613 21.6612 8.90909H22.8544C22.9008 9.36979 23.1096 9.75095 23.4808 10.0526C23.8553 10.3509 24.3028 10.5 24.8231 10.5C25.2408 10.5 25.612 10.4022 25.9368 10.2067C26.2649 10.0111 26.5218 9.74266 26.7074 9.40128C26.8963 9.05658 26.9908 8.66714 26.9908 8.23295C26.9908 7.78882 26.893 7.39275 26.6974 7.04474C26.5052 6.69342 26.24 6.41667 25.902 6.21449C25.5639 6.01231 25.1778 5.90956 24.7436 5.90625C24.432 5.90293 24.1122 5.95099 23.7841 6.05042C23.456 6.14654 23.1858 6.27083 22.9737 6.42329L21.8203 6.28409L22.4368 1.27273H27.7266V2.36648H23.4709L23.1129 5.36932H23.1726C23.3814 5.2036 23.6432 5.06605 23.9581 4.95667C24.273 4.8473 24.6011 4.79261 24.9425 4.79261C25.5656 4.79261 26.1207 4.94176 26.6079 5.24006C27.0985 5.53504 27.4829 5.93939 27.7614 6.45312C28.0431 6.96685 28.1839 7.5535 28.1839 8.21307C28.1839 8.86269 28.0381 9.44271 27.7464 9.95312C27.4581 10.4602 27.0604 10.8613 26.5533 11.1562C26.0462 11.4479 25.4695 11.5937 24.8231 11.5937ZM33.4004 1.13352C33.818 1.13684 34.2356 1.21638 34.6532 1.37216C35.0708 1.52793 35.452 1.78646 35.7967 2.14773C36.1414 2.50568 36.4181 2.99455 36.6269 3.61434C36.8358 4.23414 36.9402 5.01136 36.9402 5.94602C36.9402 6.85085 36.854 7.65459 36.6816 8.35724C36.5126 9.05658 36.2673 9.64654 35.9458 10.1271C35.6277 10.6077 35.2399 10.9723 34.7825 11.2209C34.3284 11.4695 33.8147 11.5937 33.2413 11.5937C32.6712 11.5937 32.1625 11.4811 31.715 11.2557C31.2709 11.027 30.9063 10.7105 30.6213 10.3061C30.3395 9.89844 30.1589 9.42613 30.0794 8.8892H31.2924C31.4018 9.35653 31.6189 9.74266 31.9437 10.0476C32.2718 10.3492 32.7044 10.5 33.2413 10.5C34.0268 10.5 34.6466 10.157 35.1007 9.47088C35.5581 8.7848 35.7867 7.81534 35.7867 6.5625H35.7072C35.5216 6.84091 35.3012 7.0812 35.046 7.28338C34.7908 7.48556 34.5074 7.64133 34.1958 7.75071C33.8843 7.86008 33.5528 7.91477 33.2015 7.91477C32.6182 7.91477 32.0829 7.7706 31.5957 7.48224C31.1118 7.19058 30.724 6.79119 30.4323 6.28409C30.144 5.77367 29.9998 5.19034 29.9998 4.53409C29.9998 3.91098 30.139 3.34091 30.4174 2.82386C30.6992 2.3035 31.0936 1.8892 31.6007 1.58096C32.1111 1.27273 32.711 1.12358 33.4004 1.13352ZM33.4004 2.22727C32.9828 2.22727 32.6066 2.33167 32.2718 2.54048C31.9404 2.74597 31.6769 3.02438 31.4813 3.37571C31.2891 3.72372 31.193 4.10985 31.193 4.53409C31.193 4.95833 31.2858 5.34446 31.4714 5.69247C31.6603 6.03717 31.9172 6.31226 32.242 6.51775C32.5701 6.71993 32.943 6.82102 33.3606 6.82102C33.6755 6.82102 33.9688 6.75971 34.2406 6.63707C34.5124 6.51113 34.7493 6.34043 34.9515 6.125C35.157 5.90625 35.3178 5.65933 35.4338 5.38423C35.5498 5.10582 35.6078 4.81581 35.6078 4.5142C35.6078 4.11648 35.5117 3.74361 35.3194 3.39559C35.1305 3.04758 34.8687 2.76586 34.5339 2.55042C34.2025 2.33499 33.8246 2.22727 33.4004 2.22727ZM40.3097 10.0625L40.2301 10.5994C40.1738 10.9773 40.0876 11.3816 39.9716 11.8125C39.8589 12.2434 39.7412 12.6494 39.6186 13.0305C39.496 13.4117 39.3949 13.715 39.3153 13.9403H38.4204C38.4635 13.7282 38.5199 13.4482 38.5895 13.1001C38.6591 12.7521 38.7287 12.3627 38.7983 11.9318C38.8712 11.5043 38.9309 11.0668 38.9773 10.6193L39.0369 10.0625H40.3097ZM45.6094 1.13352C46.027 1.13684 46.4446 1.21638 46.8622 1.37216C47.2798 1.52793 47.661 1.78646 48.0057 2.14773C48.3504 2.50568 48.6271 2.99455 48.8359 3.61434C49.0447 4.23414 49.1491 5.01136 49.1491 5.94602C49.1491 6.85085 49.063 7.65459 48.8906 8.35724C48.7216 9.05658 48.4763 9.64654 48.1548 10.1271C47.8366 10.6077 47.4489 10.9723 46.9915 11.2209C46.5374 11.4695 46.0237 11.5937 45.4503 11.5937C44.8802 11.5937 44.3714 11.4811 43.924 11.2557C43.4799 11.027 43.1153 10.7105 42.8302 10.3061C42.5485 9.89844 42.3679 9.42613 42.2883 8.8892H43.5014C43.6108 9.35653 43.8279 9.74266 44.1527 10.0476C44.4808 10.3492 44.9133 10.5 45.4503 10.5C46.2358 10.5 46.8556 10.157 47.3097 9.47088C47.767 8.7848 47.9957 7.81534 47.9957 6.5625H47.9162C47.7306 6.84091 47.5102 7.0812 47.255 7.28338C46.9998 7.48556 46.7164 7.64133 46.4048 7.75071C46.0933 7.86008 45.7618 7.91477 45.4105 7.91477C44.8272 7.91477 44.2919 7.7706 43.8047 7.48224C43.3208 7.19058 42.933 6.79119 42.6413 6.28409C42.353 5.77367 42.2088 5.19034 42.2088 4.53409C42.2088 3.91098 42.348 3.34091 42.6264 2.82386C42.9081 2.3035 43.3025 1.8892 43.8097 1.58096C44.3201 1.27273 44.92 1.12358 45.6094 1.13352ZM45.6094 2.22727C45.1918 2.22727 44.8156 2.33167 44.4808 2.54048C44.1494 2.74597 43.8859 3.02438 43.6903 3.37571C43.4981 3.72372 43.402 4.10985 43.402 4.53409C43.402 4.95833 43.4948 5.34446 43.6804 5.69247C43.8693 6.03717 44.1262 6.31226 44.451 6.51775C44.7791 6.71993 45.152 6.82102 45.5696 6.82102C45.8845 6.82102 46.1778 6.75971 46.4496 6.63707C46.7213 6.51113 46.9583 6.34043 47.1605 6.125C47.366 5.90625 47.5267 5.65933 47.6427 5.38423C47.7588 5.10582 47.8168 4.81581 47.8168 4.5142C47.8168 4.11648 47.7206 3.74361 47.5284 3.39559C47.3395 3.04758 47.0776 2.76586 46.7429 2.55042C46.4114 2.33499 46.0336 2.22727 45.6094 2.22727ZM54.3457 1.13352C54.7633 1.13684 55.1809 1.21638 55.5985 1.37216C56.0161 1.52793 56.3973 1.78646 56.742 2.14773C57.0867 2.50568 57.3635 2.99455 57.5723 3.61434C57.7811 4.23414 57.8855 5.01136 57.8855 5.94602C57.8855 6.85085 57.7993 7.65459 57.6269 8.35724C57.4579 9.05658 57.2126 9.64654 56.8911 10.1271C56.573 10.6077 56.1852 10.9723 55.7278 11.2209C55.2737 11.4695 54.76 11.5937 54.1866 11.5937C53.6165 11.5937 53.1078 11.4811 52.6603 11.2557C52.2162 11.027 51.8516 10.7105 51.5666 10.3061C51.2849 9.89844 51.1042 9.42613 51.0247 8.8892H52.2377C52.3471 9.35653 52.5642 9.74266 52.889 10.0476C53.2171 10.3492 53.6497 10.5 54.1866 10.5C54.9721 10.5 55.5919 10.157 56.046 9.47088C56.5034 8.7848 56.7321 7.81534 56.7321 6.5625H56.6525C56.4669 6.84091 56.2465 7.0812 55.9913 7.28338C55.7361 7.48556 55.4527 7.64133 55.1411 7.75071C54.8296 7.86008 54.4982 7.91477 54.1468 7.91477C53.5635 7.91477 53.0282 7.7706 52.541 7.48224C52.0571 7.19058 51.6693 6.79119 51.3777 6.28409C51.0893 5.77367 50.9451 5.19034 50.9451 4.53409C50.9451 3.91098 51.0843 3.34091 51.3627 2.82386C51.6445 2.3035 52.0389 1.8892 52.546 1.58096C53.0564 1.27273 53.6563 1.12358 54.3457 1.13352ZM54.3457 2.22727C53.9281 2.22727 53.5519 2.33167 53.2171 2.54048C52.8857 2.74597 52.6222 3.02438 52.4267 3.37571C52.2344 3.72372 52.1383 4.10985 52.1383 4.53409C52.1383 4.95833 52.2311 5.34446 52.4167 5.69247C52.6056 6.03717 52.8625 6.31226 53.1873 6.51775C53.5154 6.71993 53.8883 6.82102 54.3059 6.82102C54.6208 6.82102 54.9141 6.75971 55.1859 6.63707C55.4577 6.51113 55.6947 6.34043 55.8968 6.125C56.1023 5.90625 56.2631 5.65933 56.3791 5.38423C56.4951 5.10582 56.5531 4.81581 56.5531 4.5142C56.5531 4.11648 56.457 3.74361 56.2647 3.39559C56.0758 3.04758 55.814 2.76586 55.4792 2.55042C55.1478 2.33499 54.7699 2.22727 54.3457 2.22727Z" fill="#1C2434"/>
</svg>
