<svg width="91" height="17" viewBox="0 0 91 17" fill="none" xmlns="http://www.w3.org/2000/svg">
<path d="M-1.7941e-05 12.6776V0.313922H4.17754C5.14345 0.313922 5.9363 0.478932 6.55609 0.80895C7.17588 1.13494 7.63469 1.58369 7.93251 2.15519C8.23033 2.72668 8.37924 3.37666 8.37924 4.10512C8.37924 4.83357 8.23033 5.47952 7.93251 6.04297C7.63469 6.60642 7.17789 7.04913 6.56213 7.3711C5.94636 7.68904 5.15955 7.84801 4.20169 7.84801H0.821005V6.49574H4.15339C4.81343 6.49574 5.34468 6.39915 5.74714 6.20597C6.15363 6.01279 6.44743 5.73911 6.62853 5.38495C6.81367 5.02675 6.90623 4.60014 6.90623 4.10512C6.90623 3.61009 6.81367 3.17744 6.62853 2.80718C6.4434 2.43691 6.14759 2.15116 5.7411 1.94993C5.33462 1.74468 4.79733 1.64205 4.12924 1.64205H1.49714V12.6776H-1.7941e-05ZM5.81958 7.12358L8.8622 12.6776H7.12356L4.12924 7.12358H5.81958ZM13.4095 12.8949C12.8219 12.8949 12.2887 12.7842 11.8097 12.5629C11.3308 12.3375 10.9505 12.0135 10.6687 11.5909C10.387 11.1643 10.2462 10.6491 10.2462 10.0455C10.2462 9.51421 10.3508 9.08357 10.5601 8.75355C10.7694 8.41951 11.0491 8.15791 11.3992 7.96875C11.7494 7.77959 12.1357 7.63873 12.5583 7.54617C12.9849 7.44958 13.4135 7.37311 13.8442 7.31676C14.4076 7.24432 14.8644 7.18999 15.2146 7.15377C15.5687 7.11352 15.8263 7.04711 15.9873 6.95455C16.1523 6.86198 16.2348 6.701 16.2348 6.47159V6.4233C16.2348 5.82765 16.0718 5.36482 15.7458 5.0348C15.4238 4.70478 14.9348 4.53977 14.2788 4.53977C13.5987 4.53977 13.0654 4.68869 12.679 4.98651C12.2927 5.28433 12.021 5.60227 11.8641 5.94034L10.5118 5.45739C10.7533 4.89394 11.0752 4.45526 11.4777 4.14134C11.8842 3.82339 12.3269 3.60204 12.8058 3.47727C13.2888 3.34849 13.7637 3.28409 14.2305 3.28409C14.5284 3.28409 14.8705 3.32031 15.2568 3.39276C15.6472 3.46118 16.0235 3.60405 16.3857 3.82138C16.752 4.03871 17.0558 4.36672 17.2973 4.8054C17.5388 5.24408 17.6595 5.83168 17.6595 6.56818V12.6776H16.2348V11.4219H16.1624C16.0658 11.6231 15.9048 11.8384 15.6794 12.0678C15.454 12.2972 15.1542 12.4924 14.7799 12.6534C14.4056 12.8144 13.9488 12.8949 13.4095 12.8949ZM13.6268 11.6151C14.1903 11.6151 14.6652 11.5044 15.0516 11.283C15.442 11.0617 15.7357 10.7759 15.933 10.4258C16.1342 10.0756 16.2348 9.70739 16.2348 9.32102V8.01705C16.1744 8.08949 16.0416 8.1559 15.8364 8.21627C15.6351 8.27261 15.4017 8.32292 15.1361 8.36719C14.8745 8.40744 14.6189 8.44366 14.3694 8.47585C14.1239 8.50403 13.9247 8.52817 13.7717 8.5483C13.4015 8.59659 13.0554 8.67507 12.7334 8.78374C12.4154 8.88838 12.1579 9.04735 11.9607 9.26066C11.7675 9.46994 11.6709 9.75568 11.6709 10.1179C11.6709 10.6129 11.854 10.9872 12.2202 11.2408C12.5905 11.4903 13.0594 11.6151 13.6268 11.6151ZM24.027 12.8707C23.1577 12.8707 22.4091 12.6655 21.7812 12.255C21.1534 11.8445 20.6704 11.279 20.3324 10.5586C19.9943 9.83819 19.8253 9.01515 19.8253 8.08949C19.8253 7.14773 19.9983 6.31664 20.3444 5.59624C20.6946 4.87181 21.1816 4.30635 21.8054 3.89986C22.4332 3.48935 23.1657 3.28409 24.0028 3.28409C24.6548 3.28409 25.2424 3.40483 25.7656 3.64631C26.2888 3.88779 26.7174 4.22585 27.0515 4.66051C27.3855 5.09517 27.5928 5.60227 27.6733 6.18182H26.2486C26.1399 5.75923 25.8984 5.38494 25.5241 5.05895C25.1539 4.72893 24.6548 4.56392 24.027 4.56392C23.4716 4.56392 22.9846 4.70881 22.566 4.99858C22.1515 5.28433 21.8275 5.6888 21.5941 6.212C21.3647 6.73118 21.25 7.34091 21.25 8.0412C21.25 8.75758 21.3627 9.38139 21.5881 9.91264C21.8175 10.4439 22.1394 10.8564 22.554 11.1502C22.9725 11.444 23.4635 11.5909 24.027 11.5909C24.3972 11.5909 24.7333 11.5265 25.0351 11.3977C25.337 11.2689 25.5925 11.0838 25.8018 10.8423C26.0111 10.6009 26.16 10.3111 26.2486 9.97301H27.6733C27.5928 10.5204 27.3936 11.0134 27.0756 11.4521C26.7617 11.8867 26.3452 12.2328 25.826 12.4904C25.3108 12.744 24.7112 12.8707 24.027 12.8707ZM23.3508 12.6293H24.5341L24.4375 13.1122C24.7514 13.1605 25.0392 13.2913 25.3008 13.5046C25.5624 13.7219 25.6932 14.0661 25.6932 14.5369C25.6932 15.0561 25.4778 15.4787 25.0472 15.8047C24.6206 16.1347 23.9907 16.2997 23.1577 16.2997L23.1094 15.358C23.4836 15.358 23.7935 15.2976 24.039 15.1768C24.2886 15.0601 24.4133 14.8629 24.4133 14.5852C24.4133 14.3075 24.3107 14.1184 24.1055 14.0178C23.9002 13.9171 23.5682 13.8487 23.1094 13.8125L23.3508 12.6293ZM32.4847 12.8949C31.8971 12.8949 31.3639 12.7842 30.8849 12.5629C30.406 12.3375 30.0257 12.0135 29.7439 11.5909C29.4622 11.1643 29.3214 10.6491 29.3214 10.0455C29.3214 9.51421 29.426 9.08357 29.6353 8.75355C29.8446 8.41951 30.1243 8.15791 30.4744 7.96875C30.8246 7.77959 31.2109 7.63873 31.6335 7.54617C32.0601 7.44958 32.4887 7.37311 32.9194 7.31676C33.4828 7.24432 33.9396 7.18999 34.2898 7.15377C34.6439 7.11352 34.9015 7.04711 35.0625 6.95455C35.2275 6.86198 35.31 6.701 35.31 6.47159V6.4233C35.31 5.82765 35.147 5.36482 34.821 5.0348C34.499 4.70478 34.01 4.53977 33.354 4.53977C32.6739 4.53977 32.1406 4.68869 31.7542 4.98651C31.3679 5.28433 31.0962 5.60227 30.9393 5.94034L29.587 5.45739C29.8285 4.89394 30.1504 4.45526 30.5529 4.14134C30.9594 3.82339 31.4021 3.60204 31.881 3.47727C32.364 3.34849 32.8389 3.28409 33.3057 3.28409C33.6036 3.28409 33.9456 3.32031 34.332 3.39276C34.7224 3.46118 35.0987 3.60405 35.4609 3.82138C35.8272 4.03871 36.131 4.36672 36.3725 4.8054C36.614 5.24408 36.7347 5.83168 36.7347 6.56818V12.6776H35.31V11.4219H35.2376C35.141 11.6231 34.98 11.8384 34.7546 12.0678C34.5292 12.2972 34.2294 12.4924 33.8551 12.6534C33.4808 12.8144 33.024 12.8949 32.4847 12.8949ZM32.702 11.6151C33.2655 11.6151 33.7404 11.5044 34.1268 11.283C34.5171 11.0617 34.8109 10.7759 35.0081 10.4258C35.2094 10.0756 35.31 9.70739 35.31 9.32102V8.01705C35.2496 8.08949 35.1168 8.1559 34.9116 8.21627C34.7103 8.27261 34.4769 8.32292 34.2113 8.36719C33.9497 8.40744 33.6941 8.44366 33.4446 8.47585C33.1991 8.50403 32.9999 8.52817 32.8469 8.5483C32.4767 8.59659 32.1305 8.67507 31.8086 8.78374C31.4906 8.88838 31.2331 9.04735 31.0358 9.26066C30.8427 9.46994 30.7461 9.75568 30.7461 10.1179C30.7461 10.6129 30.9292 10.9872 31.2954 11.2408C31.6657 11.4903 32.1346 11.6151 32.702 11.6151ZM31.543 2.29404L30.4322 2.24574C30.4322 1.62997 30.6072 1.1269 30.9574 0.736507C31.3115 0.342094 31.7482 0.144888 32.2674 0.144888C32.4968 0.144888 32.7 0.185134 32.8771 0.265626C33.0542 0.342094 33.2232 0.430636 33.3842 0.531251C33.5452 0.631867 33.7102 0.722421 33.8792 0.802913C34.0523 0.879381 34.2475 0.917616 34.4648 0.917616C34.6942 0.917616 34.8874 0.829074 35.0444 0.651991C35.2054 0.470882 35.2858 0.253553 35.2858 1.2517e-06L36.3725 0.0965931C36.3725 0.724434 36.1954 1.22349 35.8412 1.59375C35.4911 1.96402 35.0564 2.14915 34.5373 2.14915C34.2596 2.14915 34.0302 2.11092 33.8491 2.03445C33.668 1.95396 33.507 1.8634 33.3661 1.76279C33.2252 1.66217 33.0763 1.57363 32.9194 1.49716C32.7624 1.41667 32.5692 1.37642 32.3398 1.37642C32.1104 1.37642 31.9193 1.46698 31.7663 1.64808C31.6174 1.82517 31.543 2.04048 31.543 2.29404ZM43.1022 12.8707C42.265 12.8707 41.5306 12.6715 40.8987 12.2731C40.2708 11.8746 39.7798 11.3172 39.4257 10.6009C39.0755 9.88447 38.9005 9.04735 38.9005 8.08949C38.9005 7.12358 39.0755 6.28042 39.4257 5.56002C39.7798 4.83961 40.2708 4.28019 40.8987 3.88175C41.5306 3.48331 42.265 3.28409 43.1022 3.28409C43.9393 3.28409 44.6718 3.48331 45.2996 3.88175C45.9315 4.28019 46.4225 4.83961 46.7726 5.56002C47.1268 6.28042 47.3039 7.12358 47.3039 8.08949C47.3039 9.04735 47.1268 9.88447 46.7726 10.6009C46.4225 11.3172 45.9315 11.8746 45.2996 12.2731C44.6718 12.6715 43.9393 12.8707 43.1022 12.8707ZM43.1022 11.5909C43.7381 11.5909 44.2613 11.4279 44.6718 11.1019C45.0823 10.7759 45.3861 10.3473 45.5833 9.81605C45.7806 9.2848 45.8792 8.70928 45.8792 8.08949C45.8792 7.4697 45.7806 6.89217 45.5833 6.35689C45.3861 5.82162 45.0823 5.38897 44.6718 5.05895C44.2613 4.72893 43.7381 4.56392 43.1022 4.56392C42.4663 4.56392 41.9431 4.72893 41.5326 5.05895C41.1221 5.38897 40.8182 5.82162 40.621 6.35689C40.4238 6.89217 40.3252 7.4697 40.3252 8.08949C40.3252 8.70928 40.4238 9.2848 40.621 9.81605C40.8182 10.3473 41.1221 10.7759 41.5326 11.1019C41.9431 11.4279 42.4663 11.5909 43.1022 11.5909ZM58.5824 0.313922V12.6776H57.0852V1.88352H57.0128L53.9943 3.88779V2.36648L57.0852 0.313922H58.5824ZM66.0018 12.8466C65.2934 12.8466 64.6555 12.7057 64.0881 12.424C63.5206 12.1423 63.0658 11.7559 62.7237 11.2649C62.3816 10.7739 62.1945 10.2145 62.1623 9.58665H63.6111C63.6675 10.1461 63.921 10.6089 64.3718 10.9751C64.8266 11.3374 65.3699 11.5185 66.0018 11.5185C66.5089 11.5185 66.9596 11.3997 67.354 11.1623C67.7525 10.9248 68.0644 10.5988 68.2898 10.1843C68.5192 9.76575 68.6339 9.29285 68.6339 8.76563C68.6339 8.22633 68.5151 7.74539 68.2777 7.3228C68.0443 6.89619 67.7223 6.56013 67.3118 6.31463C66.9013 6.06913 66.4324 5.94437 65.9052 5.94034C65.5269 5.93632 65.1385 5.99468 64.74 6.11541C64.3416 6.23213 64.0136 6.38305 63.756 6.56818L62.3555 6.39915L63.104 0.313922H69.5273V1.64205H64.3597L63.9251 5.28835H63.9975C64.251 5.08712 64.569 4.9201 64.9513 4.78729C65.3337 4.65448 65.7321 4.58807 66.1466 4.58807C66.9033 4.58807 67.5774 4.76918 68.169 5.13139C68.7647 5.48959 69.2315 5.98059 69.5696 6.60441C69.9117 7.22822 70.0827 7.94058 70.0827 8.74148C70.0827 9.5303 69.9056 10.2346 69.5515 10.8544C69.2013 11.4702 68.7184 11.9572 68.1026 12.3153C67.4868 12.6695 66.7866 12.8466 66.0018 12.8466ZM72.6982 12.6776V0.313922H74.1954V6.44745H74.3403L79.8942 0.313922H81.8502L76.6585 5.89205L81.8502 12.6776H80.0391L75.7408 6.9304L74.1954 8.66904V12.6776H72.6982ZM86.6571 16.348C85.9689 16.348 85.3773 16.2595 84.8823 16.0824C84.3872 15.9093 83.9747 15.6799 83.6447 15.3942C83.3187 15.1125 83.0591 14.8106 82.8659 14.4886L84.0009 13.6918C84.1297 13.8608 84.2927 14.054 84.4899 14.2713C84.6871 14.4927 84.9567 14.6838 85.2988 14.8448C85.6449 15.0098 86.0977 15.0923 86.6571 15.0923C87.4057 15.0923 88.0235 14.9112 88.5105 14.549C88.9974 14.1868 89.2409 13.6193 89.2409 12.8466V10.9631H89.1202C89.0155 11.1321 88.8666 11.3414 88.6735 11.5909C88.4843 11.8364 88.2106 12.0558 87.8524 12.2489C87.4983 12.4381 87.0193 12.5327 86.4156 12.5327C85.6671 12.5327 84.995 12.3556 84.3993 12.0014C83.8077 11.6473 83.3388 11.1321 82.9927 10.456C82.6506 9.77983 82.4796 8.95881 82.4796 7.9929C82.4796 7.04309 82.6466 6.21603 82.9806 5.51172C83.3147 4.80339 83.7795 4.25604 84.3752 3.86968C84.9708 3.47929 85.659 3.28409 86.4398 3.28409C87.0435 3.28409 87.5224 3.38471 87.8766 3.58594C88.2348 3.78315 88.5084 4.00852 88.6976 4.26208C88.8908 4.5116 89.0397 4.71686 89.1443 4.87784H89.2892V3.40483H90.6656V12.9432C90.6656 13.7401 90.4845 14.388 90.1223 14.8871C89.7641 15.3902 89.2812 15.7584 88.6735 15.9918C88.0698 16.2293 87.3977 16.348 86.6571 16.348ZM86.6088 11.2528C87.1803 11.2528 87.6633 11.122 88.0577 10.8604C88.4521 10.5988 88.7519 10.2225 88.9572 9.73154C89.1624 9.24053 89.2651 8.65294 89.2651 7.96875C89.2651 7.30066 89.1645 6.71106 88.9632 6.19993C88.762 5.6888 88.4642 5.28835 88.0698 4.99858C87.6753 4.70881 87.1884 4.56392 86.6088 4.56392C86.0051 4.56392 85.5021 4.71686 85.0996 5.02273C84.7012 5.3286 84.4013 5.73911 84.2001 6.25426C84.0029 6.76941 83.9043 7.34091 83.9043 7.96875C83.9043 8.61269 84.0049 9.18218 84.2061 9.6772C84.4114 10.1682 84.7132 10.5546 85.1117 10.8363C85.5141 11.114 86.0132 11.2528 86.6088 11.2528Z" fill="#1C2434"/>
</svg>
