<svg width="61" height="15" viewBox="0 0 61 15" fill="none" xmlns="http://www.w3.org/2000/svg">
<path d="M7.00489 3.79512C7.00489 2.91512 6.77489 2.31512 6.31489 1.99512C5.86489 1.66512 5.22989 1.50012 4.40989 1.50012H3.91489C3.81489 1.50012 3.68989 1.51012 3.53989 1.53012C3.39989 1.54012 3.26989 1.57512 3.14989 1.63512C3.03989 1.68512 2.98489 1.78012 2.98489 1.92012V6.09012C3.09489 6.13012 3.21989 6.15512 3.35989 6.16512C3.49989 6.17512 3.62989 6.18012 3.74989 6.18012C4.14989 6.18012 4.53989 6.14512 4.91989 6.07512C5.30989 6.00512 5.65989 5.88512 5.96989 5.71512C6.28989 5.54512 6.53989 5.30512 6.71989 4.99512C6.90989 4.68512 7.00489 4.28512 7.00489 3.79512ZM10.2899 11.8801C10.2899 11.9501 10.2199 12.0051 10.0799 12.0451C9.93989 12.0851 9.77489 12.1101 9.58489 12.1201C9.39489 12.1401 9.21489 12.1501 9.04489 12.1501C8.88489 12.1501 8.77489 12.1501 8.71489 12.1501C8.31489 12.1501 7.99489 12.1101 7.75489 12.0301C7.51489 11.9401 7.27989 11.7151 7.04989 11.3551C6.55989 10.5651 6.08489 9.76512 5.62489 8.95512C5.17489 8.14512 4.72489 7.33012 4.27489 6.51012L2.98489 6.55512V11.3101C2.98489 11.4601 3.04489 11.5601 3.16489 11.6101C3.28489 11.6601 3.40489 11.6851 3.52489 11.6851C3.66489 11.6851 3.79989 11.6801 3.92989 11.6701C4.05989 11.6601 4.18989 11.6551 4.31989 11.6551C4.38989 11.6551 4.42989 11.6851 4.43989 11.7451C4.45989 11.8051 4.46989 11.8601 4.46989 11.9101C4.46989 11.9901 4.44489 12.0451 4.39489 12.0751C4.35489 12.0951 4.29989 12.1051 4.22989 12.1051C3.78989 12.1051 3.34489 12.1001 2.89489 12.0901C2.44489 12.0701 1.99989 12.0601 1.55989 12.0601C1.31989 12.0601 1.07989 12.0701 0.839893 12.0901C0.609893 12.1001 0.374893 12.1051 0.134893 12.1051C0.0748926 12.1051 0.0348926 12.0801 0.0148926 12.0301C0.00489258 11.9701 -0.000107419 11.9201 -0.000107419 11.8801C-0.000107419 11.7501 0.0548926 11.6851 0.164893 11.6851C0.254893 11.6851 0.339893 11.6901 0.419893 11.7001C0.509893 11.7001 0.594893 11.7001 0.674893 11.7001C0.824893 11.7001 0.984893 11.6851 1.15489 11.6551C1.33489 11.6151 1.43489 11.5001 1.45489 11.3101C1.47489 11.0601 1.47989 10.7701 1.46989 10.4401C1.46989 10.1001 1.46989 9.80512 1.46989 9.55512C1.46989 9.22512 1.46989 8.89512 1.46989 8.56512C1.46989 8.22512 1.46989 7.89012 1.46989 7.56012C1.46989 6.87012 1.46989 6.18012 1.46989 5.49012C1.47989 4.80012 1.48489 4.11012 1.48489 3.42012C1.48489 3.17012 1.48489 2.92012 1.48489 2.67012C1.48489 2.41012 1.47489 2.16012 1.45489 1.92012C1.43489 1.72012 1.32989 1.61012 1.13989 1.59012C0.959893 1.56012 0.794893 1.54512 0.644893 1.54512C0.584893 1.54512 0.524893 1.55012 0.464893 1.56012C0.404893 1.56012 0.344893 1.56012 0.284893 1.56012C0.134893 1.56012 0.0598926 1.47512 0.0598926 1.30512C0.0598926 1.19512 0.109893 1.14012 0.209893 1.14012C0.549893 1.14012 0.884893 1.15012 1.21489 1.17012C1.55489 1.19012 1.89489 1.20012 2.23489 1.20012C2.70489 1.20012 3.16989 1.18012 3.62989 1.14012C4.08989 1.10012 4.54989 1.08012 5.00989 1.08012C5.38989 1.08012 5.78989 1.12012 6.20989 1.20012C6.63989 1.28012 7.03989 1.41012 7.40989 1.59012C7.77989 1.77012 8.07989 2.02012 8.30989 2.34012C8.54989 2.65012 8.66989 3.04512 8.66989 3.52512C8.66989 4.12512 8.49989 4.64512 8.15989 5.08512C7.82989 5.51512 7.39989 5.85012 6.86989 6.09012C6.67989 6.18012 6.48489 6.25012 6.28489 6.30012C6.08489 6.34012 5.88489 6.38012 5.68489 6.42012C6.14489 7.20012 6.62489 7.97012 7.12489 8.73012C7.63489 9.49012 8.14989 10.2401 8.66989 10.9801C8.81989 11.1901 8.97489 11.3601 9.13489 11.4901C9.30489 11.6101 9.51489 11.6951 9.76489 11.7451C9.82489 11.7551 9.92489 11.7601 10.0649 11.7601C10.2149 11.7601 10.2899 11.8001 10.2899 11.8801ZM17.6254 9.46512C17.6254 9.04512 17.5304 8.69512 17.3404 8.41512C17.1504 8.13512 16.9054 7.89512 16.6054 7.69512C16.3154 7.48512 16.0104 7.29012 15.6904 7.11012V11.7001C16.2804 11.5001 16.7504 11.2451 17.1004 10.9351C17.4504 10.6251 17.6254 10.1351 17.6254 9.46512ZM15.1504 1.32012C14.5804 1.44012 14.1254 1.64012 13.7854 1.92012C13.4554 2.20012 13.2904 2.65512 13.2904 3.28512C13.2904 3.64512 13.3854 3.96012 13.5754 4.23012C13.7754 4.50012 14.0154 4.73512 14.2954 4.93512C14.5854 5.13512 14.8704 5.32012 15.1504 5.49012V1.32012ZM19.1404 9.24012C19.1404 9.74012 19.0404 10.1651 18.8404 10.5151C18.6504 10.8551 18.3854 11.1401 18.0454 11.3701C17.7154 11.5901 17.3454 11.7601 16.9354 11.8801C16.5254 12.0001 16.1104 12.0851 15.6904 12.1351V13.2601H15.1504V12.1651C14.8504 12.1551 14.5604 12.1351 14.2804 12.1051C14.0004 12.0651 13.7204 11.9951 13.4404 11.8951C13.2304 11.8151 13.0254 11.7251 12.8254 11.6251C12.6354 11.5151 12.4254 11.4401 12.1954 11.4001C12.1454 11.0501 12.0754 10.6701 11.9854 10.2601C11.8954 9.84012 11.8504 9.46012 11.8504 9.12012C11.8504 8.97012 11.9404 8.89512 12.1204 8.89512C12.2504 8.89512 12.3354 8.93012 12.3754 9.00012C12.4254 9.06012 12.4604 9.14512 12.4804 9.25512C12.5004 9.38512 12.5204 9.51012 12.5404 9.63012C12.5704 9.75012 12.6054 9.87512 12.6454 10.0051C12.8354 10.6151 13.1454 11.0401 13.5754 11.2801C14.0154 11.5101 14.5404 11.6501 15.1504 11.7001V6.84012C14.7704 6.65012 14.3854 6.46512 13.9954 6.28512C13.6854 6.13512 13.3704 5.94012 13.0504 5.70012C12.7404 5.46012 12.4804 5.18012 12.2704 4.86012C12.0704 4.54012 11.9704 4.19012 11.9704 3.81012C11.9704 3.20012 12.1204 2.70012 12.4204 2.31012C12.7304 1.91012 13.1254 1.60512 13.6054 1.39512C14.0954 1.18512 14.6104 1.06012 15.1504 1.02012V0.000116765H15.6904V1.03512C15.9704 1.04512 16.2304 1.08512 16.4704 1.15512C16.7204 1.22512 16.9704 1.32012 17.2204 1.44012C17.3704 1.51012 17.5454 1.56012 17.7454 1.59012C17.9454 1.62012 18.1254 1.64512 18.2854 1.66512C18.2954 1.81512 18.3104 2.00512 18.3304 2.23512C18.3504 2.45512 18.3754 2.68012 18.4054 2.91012C18.4354 3.13012 18.4654 3.31012 18.4954 3.45012C18.5254 3.52012 18.5404 3.60012 18.5404 3.69012C18.5404 3.84012 18.5004 3.94012 18.4204 3.99012C18.3404 4.03012 18.2354 4.05012 18.1054 4.05012C18.0254 4.05012 17.9654 4.04012 17.9254 4.02012C17.8954 4.00012 17.8704 3.95512 17.8504 3.88512C17.8204 3.74512 17.7954 3.60512 17.7754 3.46512C17.7554 3.32512 17.7254 3.19012 17.6854 3.06012C17.5554 2.60012 17.3004 2.22012 16.9204 1.92012C16.5504 1.62012 16.1404 1.42012 15.6904 1.32012V5.73012C16.0904 5.91012 16.4904 6.10012 16.8904 6.30012C17.3004 6.49012 17.6754 6.71512 18.0154 6.97512C18.3554 7.23512 18.6254 7.55012 18.8254 7.92012C19.0354 8.28012 19.1404 8.72012 19.1404 9.24012ZM27.3033 8.86512C27.3033 8.52512 27.2833 8.18012 27.2433 7.83012C27.2033 7.47012 27.1183 7.14012 26.9883 6.84012C26.8583 6.53012 26.6633 6.28512 26.4033 6.10512C26.1533 5.91512 25.8083 5.82012 25.3683 5.82012C25.1483 5.82012 24.8933 5.86012 24.6033 5.94012C24.3233 6.02012 24.0583 6.13512 23.8083 6.28512C23.5583 6.43512 23.3733 6.61012 23.2533 6.81012C23.1233 7.04012 23.0483 7.29012 23.0283 7.56012C23.0183 7.82012 23.0133 8.08012 23.0133 8.34012C23.0133 8.45012 23.0133 8.56512 23.0133 8.68512C23.0133 8.79512 23.0183 8.90512 23.0283 9.01512C23.0483 9.41512 23.1383 9.82512 23.2983 10.2451C23.4583 10.6651 23.6933 11.0151 24.0033 11.2951C24.3133 11.5751 24.7033 11.7151 25.1733 11.7151C25.7033 11.7151 26.1233 11.5701 26.4333 11.2801C26.7433 10.9901 26.9633 10.6301 27.0933 10.2001C27.2333 9.76012 27.3033 9.31512 27.3033 8.86512ZM28.8483 8.50512C28.8483 9.28512 28.6783 9.94512 28.3383 10.4851C27.9983 11.0251 27.5333 11.4351 26.9433 11.7151C26.3633 11.9951 25.6933 12.1351 24.9333 12.1351C24.4033 12.1351 23.9133 12.0051 23.4633 11.7451C23.0133 11.4751 22.6333 11.1251 22.3233 10.6951C22.0233 10.2551 21.8133 9.78512 21.6933 9.28512C21.6333 9.01512 21.5933 8.74512 21.5733 8.47512C21.5633 8.19512 21.5583 7.91512 21.5583 7.63512C21.5583 7.28512 21.5983 6.92012 21.6783 6.54012C21.7683 6.16012 21.8733 5.81012 21.9933 5.49012C22.5033 4.11012 23.2583 3.01512 24.2583 2.20512C25.2583 1.38512 26.4583 0.785117 27.8583 0.405117C27.8683 0.405117 27.8733 0.405117 27.8733 0.405117C27.8833 0.405117 27.8933 0.405117 27.9033 0.405117C27.9833 0.405117 28.0233 0.440117 28.0233 0.510116C28.0233 0.570117 28.0033 0.605117 27.9633 0.615117C27.9333 0.645117 27.8983 0.670116 27.8583 0.690117C27.8183 0.700117 27.7783 0.715117 27.7383 0.735116C27.5183 0.825116 27.2983 0.920117 27.0783 1.02012C26.8583 1.12012 26.6483 1.22512 26.4483 1.33512C26.2383 1.45512 26.0333 1.59012 25.8333 1.74012C25.6433 1.88012 25.4633 2.03512 25.2933 2.20512C24.9833 2.52512 24.6783 2.90012 24.3783 3.33012C24.0783 3.75012 23.8233 4.20012 23.6133 4.68012C23.4133 5.15012 23.2883 5.61512 23.2383 6.07512C23.5883 5.84512 23.9633 5.65512 24.3633 5.50512C24.7633 5.35512 25.1783 5.28012 25.6083 5.28012C26.5883 5.28012 27.3733 5.57512 27.9633 6.16512C28.5533 6.74512 28.8483 7.52512 28.8483 8.50512ZM36.3009 9.18012C36.3009 8.73012 36.2059 8.35512 36.0159 8.05512C35.8359 7.74512 35.5959 7.48512 35.2959 7.27512C34.9959 7.06512 34.6659 6.89012 34.3059 6.75012C33.9459 6.60012 33.5909 6.46012 33.2409 6.33012C32.7009 6.64012 32.2709 7.03512 31.9509 7.51512C31.6309 7.98512 31.4709 8.54012 31.4709 9.18012C31.4709 10.0101 31.6709 10.6351 32.0709 11.0551C32.4709 11.4751 33.0859 11.6851 33.9159 11.6851C34.3959 11.6851 34.8109 11.5751 35.1609 11.3551C35.5209 11.1351 35.8009 10.8351 36.0009 10.4551C36.2009 10.0751 36.3009 9.65012 36.3009 9.18012ZM36.0159 3.42012C36.0159 2.74012 35.8259 2.24012 35.4459 1.92012C35.0759 1.59012 34.5659 1.42512 33.9159 1.42512C33.3059 1.42512 32.8309 1.59512 32.4909 1.93512C32.1509 2.26512 31.9809 2.73012 31.9809 3.33012C31.9809 3.80012 32.0959 4.18512 32.3259 4.48512C32.5559 4.78512 32.8509 5.03012 33.2109 5.22012C33.5809 5.41012 33.9559 5.57512 34.3359 5.71512C34.8059 5.50512 35.2009 5.20512 35.5209 4.81512C35.8509 4.41512 36.0159 3.95012 36.0159 3.42012ZM37.7859 8.67012C37.7859 9.44012 37.5959 10.0851 37.2159 10.6051C36.8459 11.1151 36.3559 11.5001 35.7459 11.7601C35.1359 12.0101 34.4709 12.1351 33.7509 12.1351C33.1609 12.1351 32.5959 12.0351 32.0559 11.8351C31.5259 11.6251 31.0909 11.3051 30.7509 10.8751C30.4209 10.4451 30.2559 9.90012 30.2559 9.24012C30.2559 8.69012 30.3809 8.23012 30.6309 7.86012C30.8909 7.48012 31.2159 7.15512 31.6059 6.88512C32.0059 6.60512 32.4159 6.35512 32.8359 6.13512C32.5259 6.00512 32.2109 5.83512 31.8909 5.62512C31.5709 5.41512 31.3009 5.16012 31.0809 4.86012C30.8609 4.56012 30.7509 4.22012 30.7509 3.84012C30.7509 3.18012 30.9209 2.64512 31.2609 2.23512C31.6009 1.81512 32.0359 1.51012 32.5659 1.32012C33.0959 1.13012 33.6509 1.03512 34.2309 1.03512C34.6809 1.03512 35.1309 1.11512 35.5809 1.27512C36.0309 1.43512 36.4059 1.68012 36.7059 2.01012C37.0059 2.34012 37.1559 2.76012 37.1559 3.27012C37.1559 3.73012 37.0609 4.12512 36.8709 4.45512C36.6909 4.78512 36.4409 5.06512 36.1209 5.29512C35.8009 5.52512 35.4459 5.72512 35.0559 5.89512C35.4659 6.01512 35.8809 6.20512 36.3009 6.46512C36.7209 6.71512 37.0709 7.02512 37.3509 7.39512C37.6409 7.76512 37.7859 8.19012 37.7859 8.67012ZM42.1486 11.3551C42.1486 11.6351 42.0886 11.9501 41.9686 12.3001C41.8486 12.6601 41.6936 13.0001 41.5036 13.3201C41.3236 13.6401 41.1286 13.9001 40.9186 14.1001L40.6486 14.0101C40.8186 13.7301 40.9636 13.3751 41.0836 12.9451C41.2036 12.5151 41.2636 12.1351 41.2636 11.8051V11.7451C41.0836 11.8951 40.8836 11.9701 40.6636 11.9701C40.4936 11.9701 40.3386 11.8801 40.1986 11.7001C40.0586 11.5101 39.9886 11.3351 39.9886 11.1751C39.9886 10.8451 40.0836 10.5651 40.2736 10.3351C40.4636 10.1051 40.7286 9.99012 41.0686 9.99012C41.4786 9.99012 41.7586 10.1301 41.9086 10.4101C42.0686 10.6801 42.1486 10.9951 42.1486 11.3551ZM50.2127 6.69012C50.2127 6.40012 50.2027 6.04512 50.1827 5.62512C50.1727 5.19512 50.1377 4.74512 50.0777 4.27512C50.0177 3.80512 49.9127 3.36512 49.7627 2.95512C49.6127 2.54512 49.4077 2.21512 49.1477 1.96512C48.8877 1.70512 48.5477 1.57512 48.1277 1.57512C47.7477 1.57512 47.4277 1.71012 47.1677 1.98012C46.9077 2.24012 46.6977 2.58512 46.5377 3.01512C46.3777 3.43512 46.2527 3.88512 46.1627 4.36512C46.0827 4.83512 46.0277 5.29012 45.9977 5.73012C45.9677 6.16012 45.9527 6.51012 45.9527 6.78012C45.9527 7.05012 45.9627 7.39012 45.9827 7.80012C46.0127 8.20012 46.0627 8.62512 46.1327 9.07512C46.2027 9.51512 46.3127 9.93012 46.4627 10.3201C46.6227 10.7101 46.8277 11.0301 47.0777 11.2801C47.3277 11.5201 47.6427 11.6401 48.0227 11.6401C48.4227 11.6401 48.7527 11.5201 49.0127 11.2801C49.2727 11.0301 49.4827 10.7101 49.6427 10.3201C49.8027 9.92012 49.9227 9.49512 50.0027 9.04512C50.0927 8.58512 50.1477 8.15012 50.1677 7.74012C50.1977 7.32012 50.2127 6.97012 50.2127 6.69012ZM51.7727 6.49512C51.7727 6.95512 51.7277 7.44012 51.6377 7.95012C51.5577 8.46012 51.4277 8.96012 51.2477 9.45012C51.0677 9.94012 50.8277 10.3851 50.5277 10.7851C50.2377 11.1851 49.8827 11.5051 49.4627 11.7451C49.0427 11.9751 48.5527 12.0901 47.9927 12.0901C47.3227 12.0901 46.7577 11.9251 46.2977 11.5951C45.8477 11.2551 45.4877 10.8201 45.2177 10.2901C44.9477 9.76012 44.7527 9.19512 44.6327 8.59512C44.5127 7.98512 44.4527 7.41012 44.4527 6.87012C44.4527 6.41012 44.4927 5.92012 44.5727 5.40012C44.6527 4.87012 44.7827 4.35512 44.9627 3.85512C45.1427 3.35512 45.3777 2.90012 45.6677 2.49012C45.9677 2.08012 46.3277 1.75512 46.7477 1.51512C47.1777 1.26512 47.6777 1.14012 48.2477 1.14012C48.7877 1.14012 49.2527 1.25512 49.6427 1.48512C50.0427 1.71512 50.3777 2.02012 50.6477 2.40012C50.9277 2.78012 51.1477 3.20512 51.3077 3.67512C51.4677 4.14512 51.5827 4.62512 51.6527 5.11512C51.7327 5.59512 51.7727 6.05512 51.7727 6.49512ZM59.0604 6.69012C59.0604 6.40012 59.0504 6.04512 59.0304 5.62512C59.0204 5.19512 58.9854 4.74512 58.9254 4.27512C58.8654 3.80512 58.7604 3.36512 58.6104 2.95512C58.4604 2.54512 58.2554 2.21512 57.9954 1.96512C57.7354 1.70512 57.3954 1.57512 56.9754 1.57512C56.5954 1.57512 56.2754 1.71012 56.0154 1.98012C55.7554 2.24012 55.5454 2.58512 55.3854 3.01512C55.2254 3.43512 55.1004 3.88512 55.0104 4.36512C54.9304 4.83512 54.8754 5.29012 54.8454 5.73012C54.8154 6.16012 54.8004 6.51012 54.8004 6.78012C54.8004 7.05012 54.8104 7.39012 54.8304 7.80012C54.8604 8.20012 54.9104 8.62512 54.9804 9.07512C55.0504 9.51512 55.1604 9.93012 55.3104 10.3201C55.4704 10.7101 55.6754 11.0301 55.9254 11.2801C56.1754 11.5201 56.4904 11.6401 56.8704 11.6401C57.2704 11.6401 57.6004 11.5201 57.8604 11.2801C58.1204 11.0301 58.3304 10.7101 58.4904 10.3201C58.6504 9.92012 58.7704 9.49512 58.8504 9.04512C58.9404 8.58512 58.9954 8.15012 59.0154 7.74012C59.0454 7.32012 59.0604 6.97012 59.0604 6.69012ZM60.6204 6.49512C60.6204 6.95512 60.5754 7.44012 60.4854 7.95012C60.4054 8.46012 60.2754 8.96012 60.0954 9.45012C59.9154 9.94012 59.6754 10.3851 59.3754 10.7851C59.0854 11.1851 58.7304 11.5051 58.3104 11.7451C57.8904 11.9751 57.4004 12.0901 56.8404 12.0901C56.1704 12.0901 55.6054 11.9251 55.1454 11.5951C54.6954 11.2551 54.3354 10.8201 54.0654 10.2901C53.7954 9.76012 53.6004 9.19512 53.4804 8.59512C53.3604 7.98512 53.3004 7.41012 53.3004 6.87012C53.3004 6.41012 53.3404 5.92012 53.4204 5.40012C53.5004 4.87012 53.6304 4.35512 53.8104 3.85512C53.9904 3.35512 54.2254 2.90012 54.5154 2.49012C54.8154 2.08012 55.1754 1.75512 55.5954 1.51512C56.0254 1.26512 56.5254 1.14012 57.0954 1.14012C57.6354 1.14012 58.1004 1.25512 58.4904 1.48512C58.8904 1.71512 59.2254 2.02012 59.4954 2.40012C59.7754 2.78012 59.9954 3.20512 60.1554 3.67512C60.3154 4.14512 60.4304 4.62512 60.5004 5.11512C60.5804 5.59512 60.6204 6.05512 60.6204 6.49512Z" fill="#3CA67B"/>
</svg>
