<svg width="102" height="11" viewBox="0 0 102 11" fill="none" xmlns="http://www.w3.org/2000/svg">
<path d="M5.96046e-08 8V-2.38419e-07H2.70313C3.33073 -2.38419e-07 3.84375 0.113281 4.24219 0.339843C4.64323 0.563802 4.9401 0.867188 5.13281 1.25C5.32552 1.63281 5.42188 2.0599 5.42188 2.53125C5.42188 3.0026 5.32552 3.43099 5.13281 3.81641C4.94271 4.20182 4.64844 4.50911 4.25 4.73828C3.85156 4.96484 3.34115 5.07812 2.71875 5.07812H0.78125V4.21875H2.6875C3.11719 4.21875 3.46224 4.14453 3.72266 3.99609C3.98307 3.84766 4.17188 3.64714 4.28906 3.39453C4.40885 3.13932 4.46875 2.85156 4.46875 2.53125C4.46875 2.21094 4.40885 1.92448 4.28906 1.67187C4.17188 1.41927 3.98177 1.22135 3.71875 1.07812C3.45573 0.932291 3.10677 0.859375 2.67187 0.859375H0.96875V8H5.96046e-08ZM6.85742 8V2H7.74805V2.90625H7.81055C7.91992 2.60938 8.11784 2.36849 8.4043 2.18359C8.69076 1.9987 9.01367 1.90625 9.37305 1.90625C9.44076 1.90625 9.52539 1.90755 9.62695 1.91016C9.72852 1.91276 9.80534 1.91667 9.85742 1.92188V2.85937C9.82617 2.85156 9.75456 2.83984 9.64258 2.82422C9.5332 2.80599 9.41732 2.79687 9.29492 2.79687C9.00326 2.79687 8.74284 2.85807 8.51367 2.98047C8.28711 3.10026 8.10742 3.26693 7.97461 3.48047C7.8444 3.69141 7.7793 3.93229 7.7793 4.20312V8H6.85742ZM13.2051 8.125C12.6634 8.125 12.1882 7.99609 11.7793 7.73828C11.373 7.48047 11.0553 7.11979 10.8262 6.65625C10.5996 6.19271 10.4863 5.65104 10.4863 5.03125C10.4863 4.40625 10.5996 3.86068 10.8262 3.39453C11.0553 2.92839 11.373 2.56641 11.7793 2.30859C12.1882 2.05078 12.6634 1.92188 13.2051 1.92188C13.7467 1.92188 14.2207 2.05078 14.627 2.30859C15.0358 2.56641 15.3535 2.92839 15.5801 3.39453C15.8092 3.86068 15.9238 4.40625 15.9238 5.03125C15.9238 5.65104 15.8092 6.19271 15.5801 6.65625C15.3535 7.11979 15.0358 7.48047 14.627 7.73828C14.2207 7.99609 13.7467 8.125 13.2051 8.125ZM13.2051 7.29688C13.6165 7.29688 13.9551 7.19141 14.2207 6.98047C14.4863 6.76953 14.6829 6.49219 14.8105 6.14844C14.9382 5.80469 15.002 5.43229 15.002 5.03125C15.002 4.63021 14.9382 4.25651 14.8105 3.91016C14.6829 3.5638 14.4863 3.28385 14.2207 3.07031C13.9551 2.85677 13.6165 2.75 13.2051 2.75C12.7936 2.75 12.4551 2.85677 12.1895 3.07031C11.9238 3.28385 11.7272 3.5638 11.5996 3.91016C11.472 4.25651 11.4082 4.63021 11.4082 5.03125C11.4082 5.43229 11.472 5.80469 11.5996 6.14844C11.7272 6.49219 11.9238 6.76953 12.1895 6.98047C12.4551 7.19141 12.7936 7.29688 13.2051 7.29688ZM19.7686 8.125C19.2061 8.125 18.7217 7.99219 18.3154 7.72656C17.9092 7.46094 17.5967 7.09505 17.3779 6.62891C17.1592 6.16276 17.0498 5.63021 17.0498 5.03125C17.0498 4.42187 17.1618 3.88411 17.3857 3.41797C17.6123 2.94922 17.9274 2.58333 18.3311 2.32031C18.7373 2.05469 19.2113 1.92188 19.7529 1.92188C20.1748 1.92188 20.555 2 20.8936 2.15625C21.2321 2.3125 21.5094 2.53125 21.7256 2.8125C21.9417 3.09375 22.0758 3.42187 22.1279 3.79687H21.2061C21.1357 3.52344 20.9795 3.28125 20.7373 3.07031C20.4977 2.85677 20.1748 2.75 19.7686 2.75C19.4092 2.75 19.0941 2.84375 18.8232 3.03125C18.555 3.21615 18.3454 3.47786 18.1943 3.81641C18.0459 4.15234 17.9717 4.54687 17.9717 5C17.9717 5.46354 18.0446 5.86719 18.1904 6.21094C18.3389 6.55469 18.5472 6.82161 18.8154 7.01172C19.0863 7.20182 19.404 7.29688 19.7686 7.29688C20.0081 7.29688 20.2256 7.25521 20.4209 7.17187C20.6162 7.08854 20.7816 6.96875 20.917 6.8125C21.0524 6.65625 21.1488 6.46875 21.2061 6.25H22.1279C22.0758 6.60417 21.9469 6.92318 21.7412 7.20703C21.5381 7.48828 21.2686 7.71224 20.9326 7.87891C20.5993 8.04297 20.2113 8.125 19.7686 8.125ZM27.2568 5.54687V2H28.1787V8H27.2568V6.98437H27.1943C27.0537 7.28906 26.835 7.54818 26.5381 7.76172C26.2412 7.97266 25.8662 8.07813 25.4131 8.07813C25.0381 8.07813 24.7048 7.99609 24.4131 7.83203C24.1214 7.66536 23.8923 7.41536 23.7256 7.08203C23.5589 6.74609 23.4756 6.32292 23.4756 5.8125V2H24.3975V5.75C24.3975 6.1875 24.5199 6.53646 24.7646 6.79688C25.012 7.05729 25.3271 7.1875 25.71 7.1875C25.9391 7.1875 26.1722 7.12891 26.4092 7.01172C26.6488 6.89453 26.8493 6.71484 27.0107 6.47266C27.1748 6.23047 27.2568 5.92187 27.2568 5.54687ZM29.8672 8V2H30.7578V2.90625H30.8203C30.9297 2.60938 31.1276 2.36849 31.4141 2.18359C31.7005 1.9987 32.0234 1.90625 32.3828 1.90625C32.4505 1.90625 32.5352 1.90755 32.6367 1.91016C32.7383 1.91276 32.8151 1.91667 32.8672 1.92188V2.85937C32.8359 2.85156 32.7643 2.83984 32.6523 2.82422C32.543 2.80599 32.4271 2.79687 32.3047 2.79687C32.013 2.79687 31.7526 2.85807 31.5234 2.98047C31.2969 3.10026 31.1172 3.26693 30.9844 3.48047C30.8542 3.69141 30.7891 3.93229 30.7891 4.20312V8H29.8672ZM35.7256 8.14063C35.3454 8.14063 35.0003 8.06901 34.6904 7.92578C34.3805 7.77995 34.1344 7.57031 33.9521 7.29688C33.7699 7.02083 33.6787 6.6875 33.6787 6.29687C33.6787 5.95312 33.7464 5.67448 33.8818 5.46094C34.0173 5.24479 34.1982 5.07552 34.4248 4.95312C34.6514 4.83073 34.9014 4.73958 35.1748 4.67969C35.4508 4.61719 35.7282 4.56771 36.0068 4.53125C36.3714 4.48437 36.667 4.44922 36.8936 4.42578C37.1227 4.39974 37.2894 4.35677 37.3936 4.29687C37.5003 4.23698 37.5537 4.13281 37.5537 3.98437V3.95312C37.5537 3.56771 37.4482 3.26823 37.2373 3.05469C37.029 2.84115 36.7126 2.73437 36.2881 2.73437C35.848 2.73437 35.5029 2.83073 35.2529 3.02344C35.0029 3.21615 34.8271 3.42187 34.7256 3.64062L33.8506 3.32812C34.0068 2.96354 34.2152 2.67969 34.4756 2.47656C34.7386 2.27083 35.0251 2.1276 35.335 2.04687C35.6475 1.96354 35.9548 1.92188 36.2568 1.92188C36.4495 1.92188 36.6709 1.94531 36.9209 1.99219C37.1735 2.03646 37.417 2.12891 37.6514 2.26953C37.8883 2.41016 38.085 2.6224 38.2412 2.90625C38.3975 3.1901 38.4756 3.57031 38.4756 4.04688V8H37.5537V7.1875H37.5068C37.4443 7.31771 37.3402 7.45703 37.1943 7.60547C37.0485 7.75391 36.8545 7.88021 36.6123 7.98437C36.3701 8.08854 36.0745 8.14063 35.7256 8.14063ZM35.8662 7.3125C36.2308 7.3125 36.5381 7.24089 36.7881 7.09766C37.0407 6.95443 37.2308 6.76953 37.3584 6.54297C37.4886 6.31641 37.5537 6.07812 37.5537 5.82812V4.98437C37.5146 5.03125 37.4287 5.07422 37.2959 5.11328C37.1657 5.14974 37.0146 5.18229 36.8428 5.21094C36.6735 5.23698 36.5081 5.26042 36.3467 5.28125C36.1878 5.29948 36.0589 5.3151 35.96 5.32812C35.7204 5.35937 35.4964 5.41016 35.2881 5.48047C35.0824 5.54818 34.9157 5.65104 34.7881 5.78906C34.6631 5.92448 34.6006 6.10937 34.6006 6.34375C34.6006 6.66406 34.7191 6.90625 34.9561 7.07031C35.1956 7.23177 35.499 7.3125 35.8662 7.3125ZM40.1582 8V2H41.0488V2.90625H41.1113C41.2207 2.60938 41.4186 2.36849 41.7051 2.18359C41.9915 1.9987 42.3145 1.90625 42.6738 1.90625C42.7415 1.90625 42.8262 1.90755 42.9277 1.91016C43.0293 1.91276 43.1061 1.91667 43.1582 1.92188V2.85937C43.127 2.85156 43.0553 2.83984 42.9434 2.82422C42.834 2.80599 42.7181 2.79687 42.5957 2.79687C42.304 2.79687 42.0436 2.85807 41.8145 2.98047C41.5879 3.10026 41.4082 3.26693 41.2754 3.48047C41.1452 3.69141 41.0801 3.93229 41.0801 4.20312V8H40.1582ZM47.3447 10.25V2H48.2354V2.95312H48.3447C48.4124 2.84896 48.5062 2.71615 48.626 2.55469C48.7484 2.39062 48.9229 2.24479 49.1494 2.11719C49.3786 1.98698 49.6885 1.92188 50.0791 1.92188C50.5843 1.92188 51.0296 2.04818 51.415 2.30078C51.8005 2.55339 52.1012 2.91146 52.3174 3.375C52.5335 3.83854 52.6416 4.38542 52.6416 5.01563C52.6416 5.65104 52.5335 6.20182 52.3174 6.66797C52.1012 7.13151 51.8018 7.49089 51.4189 7.74609C51.0361 7.9987 50.5947 8.125 50.0947 8.125C49.7093 8.125 49.4007 8.0612 49.1689 7.93359C48.9372 7.80339 48.7588 7.65625 48.6338 7.49219C48.5088 7.32552 48.4124 7.1875 48.3447 7.07812H48.2666V10.25H47.3447ZM48.251 5C48.251 5.45312 48.3174 5.85286 48.4502 6.19922C48.583 6.54297 48.777 6.8125 49.0322 7.00781C49.2874 7.20052 49.5999 7.29688 49.9697 7.29688C50.3551 7.29688 50.6768 7.19531 50.9346 6.99219C51.195 6.78646 51.3903 6.51042 51.5205 6.16406C51.6533 5.8151 51.7197 5.42708 51.7197 5C51.7197 4.57812 51.6546 4.19792 51.5244 3.85937C51.3968 3.51823 51.2028 3.2487 50.9424 3.05078C50.6846 2.85026 50.3604 2.75 49.9697 2.75C49.5947 2.75 49.2796 2.84505 49.0244 3.03516C48.7692 3.22266 48.5765 3.48568 48.4463 3.82422C48.3161 4.16016 48.251 4.55208 48.251 5ZM54.0479 8V2H54.9385V2.90625H55.001C55.1104 2.60938 55.3083 2.36849 55.5947 2.18359C55.8812 1.9987 56.2041 1.90625 56.5635 1.90625C56.6312 1.90625 56.7158 1.90755 56.8174 1.91016C56.9189 1.91276 56.9958 1.91667 57.0479 1.92188V2.85937C57.0166 2.85156 56.945 2.83984 56.833 2.82422C56.7236 2.80599 56.6077 2.79687 56.4854 2.79687C56.1937 2.79687 55.9333 2.85807 55.7041 2.98047C55.4775 3.10026 55.2979 3.26693 55.165 3.48047C55.0348 3.69141 54.9697 3.93229 54.9697 4.20312V8H54.0479ZM60.3955 8.125C59.8538 8.125 59.3786 7.99609 58.9697 7.73828C58.5635 7.48047 58.2458 7.11979 58.0166 6.65625C57.79 6.19271 57.6768 5.65104 57.6768 5.03125C57.6768 4.40625 57.79 3.86068 58.0166 3.39453C58.2458 2.92839 58.5635 2.56641 58.9697 2.30859C59.3786 2.05078 59.8538 1.92188 60.3955 1.92188C60.9372 1.92188 61.4111 2.05078 61.8174 2.30859C62.2262 2.56641 62.5439 2.92839 62.7705 3.39453C62.9997 3.86068 63.1143 4.40625 63.1143 5.03125C63.1143 5.65104 62.9997 6.19271 62.7705 6.65625C62.5439 7.11979 62.2262 7.48047 61.8174 7.73828C61.4111 7.99609 60.9372 8.125 60.3955 8.125ZM60.3955 7.29688C60.807 7.29688 61.1455 7.19141 61.4111 6.98047C61.6768 6.76953 61.8734 6.49219 62.001 6.14844C62.1286 5.80469 62.1924 5.43229 62.1924 5.03125C62.1924 4.63021 62.1286 4.25651 62.001 3.91016C61.8734 3.5638 61.6768 3.28385 61.4111 3.07031C61.1455 2.85677 60.807 2.75 60.3955 2.75C59.984 2.75 59.6455 2.85677 59.3799 3.07031C59.1143 3.28385 58.9176 3.5638 58.79 3.91016C58.6624 4.25651 58.5986 4.63021 58.5986 5.03125C58.5986 5.43229 58.6624 5.80469 58.79 6.14844C58.9176 6.49219 59.1143 6.76953 59.3799 6.98047C59.6455 7.19141 59.984 7.29688 60.3955 7.29688ZM66.7871 8.125C66.2871 8.125 65.8457 7.9987 65.4629 7.74609C65.0801 7.49089 64.7806 7.13151 64.5645 6.66797C64.3483 6.20182 64.2402 5.65104 64.2402 5.01563C64.2402 4.38542 64.3483 3.83854 64.5645 3.375C64.7806 2.91146 65.0814 2.55339 65.4668 2.30078C65.8522 2.04818 66.2975 1.92188 66.8027 1.92188C67.1934 1.92188 67.502 1.98698 67.7285 2.11719C67.9577 2.24479 68.1322 2.39062 68.252 2.55469C68.3743 2.71615 68.4694 2.84896 68.5371 2.95312H68.6152V-2.38419e-07H69.5371V8H68.6465V7.07812H68.5371C68.4694 7.1875 68.373 7.32552 68.248 7.49219C68.123 7.65625 67.9447 7.80339 67.7129 7.93359C67.4811 8.0612 67.1725 8.125 66.7871 8.125ZM66.9121 7.29688C67.2819 7.29688 67.5944 7.20052 67.8496 7.00781C68.1048 6.8125 68.2988 6.54297 68.4316 6.19922C68.5645 5.85286 68.6309 5.45312 68.6309 5C68.6309 4.55208 68.5658 4.16016 68.4355 3.82422C68.3053 3.48568 68.1126 3.22266 67.8574 3.03516C67.6022 2.84505 67.2871 2.75 66.9121 2.75C66.5215 2.75 66.196 2.85026 65.9355 3.05078C65.6777 3.2487 65.4837 3.51823 65.3535 3.85937C65.2259 4.19792 65.1621 4.57812 65.1621 5C65.1621 5.42708 65.2272 5.8151 65.3574 6.16406C65.4902 6.51042 65.6855 6.78646 65.9434 6.99219C66.2038 7.19531 66.5267 7.29688 66.9121 7.29688ZM75.1348 5.54687V2H76.0566V8H75.1348V6.98437H75.0723C74.9316 7.28906 74.7129 7.54818 74.416 7.76172C74.1191 7.97266 73.7441 8.07813 73.291 8.07813C72.916 8.07813 72.5827 7.99609 72.291 7.83203C71.9993 7.66536 71.7702 7.41536 71.6035 7.08203C71.4368 6.74609 71.3535 6.32292 71.3535 5.8125V2H72.2754V5.75C72.2754 6.1875 72.3978 6.53646 72.6426 6.79688C72.89 7.05729 73.2051 7.1875 73.5879 7.1875C73.8171 7.1875 74.0501 7.12891 74.2871 7.01172C74.5267 6.89453 74.7272 6.71484 74.8887 6.47266C75.0527 6.23047 75.1348 5.92187 75.1348 5.54687ZM80.3545 2V2.78125H77.2451V2H80.3545ZM78.1514 0.5625H79.0732V6.28125C79.0732 6.54167 79.111 6.73698 79.1865 6.86719C79.2646 6.99479 79.3636 7.08073 79.4834 7.125C79.6058 7.16667 79.7347 7.1875 79.8701 7.1875C79.9717 7.1875 80.055 7.18229 80.1201 7.17187C80.1852 7.15885 80.2373 7.14844 80.2764 7.14062L80.4639 7.96875C80.4014 7.99219 80.3141 8.01563 80.2021 8.03906C80.0902 8.0651 79.9482 8.07813 79.7764 8.07813C79.516 8.07813 79.2607 8.02214 79.0107 7.91016C78.7633 7.79818 78.5576 7.6276 78.3936 7.39844C78.2321 7.16927 78.1514 6.88021 78.1514 6.53125V0.5625ZM84.1143 8.125C83.5726 8.125 83.0973 7.99609 82.6885 7.73828C82.2822 7.48047 81.9645 7.11979 81.7354 6.65625C81.5088 6.19271 81.3955 5.65104 81.3955 5.03125C81.3955 4.40625 81.5088 3.86068 81.7354 3.39453C81.9645 2.92839 82.2822 2.56641 82.6885 2.30859C83.0973 2.05078 83.5726 1.92188 84.1143 1.92188C84.6559 1.92188 85.1299 2.05078 85.5361 2.30859C85.945 2.56641 86.2627 2.92839 86.4893 3.39453C86.7184 3.86068 86.833 4.40625 86.833 5.03125C86.833 5.65104 86.7184 6.19271 86.4893 6.65625C86.2627 7.11979 85.945 7.48047 85.5361 7.73828C85.1299 7.99609 84.6559 8.125 84.1143 8.125ZM84.1143 7.29688C84.5257 7.29688 84.8643 7.19141 85.1299 6.98047C85.3955 6.76953 85.5921 6.49219 85.7197 6.14844C85.8473 5.80469 85.9111 5.43229 85.9111 5.03125C85.9111 4.63021 85.8473 4.25651 85.7197 3.91016C85.5921 3.5638 85.3955 3.28385 85.1299 3.07031C84.8643 2.85677 84.5257 2.75 84.1143 2.75C83.7028 2.75 83.3643 2.85677 83.0986 3.07031C82.833 3.28385 82.6364 3.5638 82.5088 3.91016C82.3812 4.25651 82.3174 4.63021 82.3174 5.03125C82.3174 5.43229 82.3812 5.80469 82.5088 6.14844C82.6364 6.49219 82.833 6.76953 83.0986 6.98047C83.3643 7.19141 83.7028 7.29688 84.1143 7.29688ZM92.4902 3.34375L91.6621 3.57812C91.61 3.4401 91.5332 3.30599 91.4316 3.17578C91.3327 3.04297 91.1973 2.93359 91.0254 2.84766C90.8535 2.76172 90.6335 2.71875 90.3652 2.71875C89.998 2.71875 89.6921 2.80339 89.4473 2.97266C89.2051 3.13932 89.084 3.35156 89.084 3.60937C89.084 3.83854 89.1673 4.01953 89.334 4.15234C89.5007 4.28516 89.7611 4.39583 90.1152 4.48437L91.0059 4.70313C91.5423 4.83333 91.9421 5.03255 92.2051 5.30078C92.4681 5.56641 92.5996 5.90885 92.5996 6.32812C92.5996 6.67187 92.5007 6.97917 92.3027 7.25C92.1074 7.52083 91.834 7.73438 91.4824 7.89063C91.1309 8.04688 90.722 8.125 90.2559 8.125C89.6439 8.125 89.1374 7.99219 88.7363 7.72656C88.3353 7.46094 88.0814 7.07292 87.9746 6.5625L88.8496 6.34375C88.9329 6.66667 89.0905 6.90885 89.3223 7.07031C89.5566 7.23177 89.8626 7.3125 90.2402 7.3125C90.6699 7.3125 91.0111 7.22135 91.2637 7.03906C91.5189 6.85417 91.6465 6.63281 91.6465 6.375C91.6465 6.16667 91.5736 5.99219 91.4277 5.85156C91.2819 5.70833 91.0579 5.60156 90.7559 5.53125L89.7559 5.29687C89.2064 5.16667 88.8027 4.96484 88.5449 4.69141C88.2897 4.41536 88.1621 4.07031 88.1621 3.65625C88.1621 3.31771 88.2572 3.01823 88.4473 2.75781C88.64 2.4974 88.9017 2.29297 89.2324 2.14453C89.5658 1.99609 89.9434 1.92188 90.3652 1.92188C90.959 1.92188 91.4251 2.05208 91.7637 2.3125C92.1048 2.57292 92.347 2.91667 92.4902 3.34375ZM94.6592 8.0625C94.4665 8.0625 94.3011 7.99349 94.1631 7.85547C94.0251 7.71745 93.9561 7.55208 93.9561 7.35937C93.9561 7.16667 94.0251 7.0013 94.1631 6.86328C94.3011 6.72526 94.4665 6.65625 94.6592 6.65625C94.8519 6.65625 95.0173 6.72526 95.1553 6.86328C95.2933 7.0013 95.3623 7.16667 95.3623 7.35937C95.3623 7.48698 95.3298 7.60417 95.2646 7.71094C95.2021 7.81771 95.1175 7.90365 95.0107 7.96875C94.9066 8.03125 94.7894 8.0625 94.6592 8.0625ZM97.6885 8.0625C97.4958 8.0625 97.3304 7.99349 97.1924 7.85547C97.0544 7.71745 96.9854 7.55208 96.9854 7.35937C96.9854 7.16667 97.0544 7.0013 97.1924 6.86328C97.3304 6.72526 97.4958 6.65625 97.6885 6.65625C97.8812 6.65625 98.0465 6.72526 98.1846 6.86328C98.3226 7.0013 98.3916 7.16667 98.3916 7.35937C98.3916 7.48698 98.359 7.60417 98.2939 7.71094C98.2314 7.81771 98.1468 7.90365 98.04 7.96875C97.9359 8.03125 97.8187 8.0625 97.6885 8.0625ZM100.718 8.0625C100.525 8.0625 100.36 7.99349 100.222 7.85547C100.084 7.71745 100.015 7.55208 100.015 7.35937C100.015 7.16667 100.084 7.0013 100.222 6.86328C100.36 6.72526 100.525 6.65625 100.718 6.65625C100.91 6.65625 101.076 6.72526 101.214 6.86328C101.352 7.0013 101.421 7.16667 101.421 7.35937C101.421 7.48698 101.388 7.60417 101.323 7.71094C101.261 7.81771 101.176 7.90365 101.069 7.96875C100.965 8.03125 100.848 8.0625 100.718 8.0625Z" fill="#919191"/>
</svg>
