<svg xmlns="http://www.w3.org/2000/svg" viewBox="0 0 500 180" width="100%" height="100%">
  <defs>
    <style>
      @import url('https://fonts.googleapis.com/css2?family=Press+Start+2P&amp;display=swap');
      .svg-container {
        font-family: 'Press Start 2P', 'Courier New', monospace;
      }
      .floating-title {
        font-size: 42px;
        fill: #F97D01;
        font-weight: bold;
        text-transform: uppercase;
        animation: floatAnim 2.5s ease-in-out infinite;
        transform-origin: 152px 135px;
        text-anchor: start;
      }
      .title-shadow1 {
        font-size: 42px;
        font-weight: bold;
        text-transform: uppercase;
        fill: #1C2434;
        animation: floatAnim 2.5s ease-in-out infinite;
        transform-origin: 155px 138px;
        text-anchor: start;
      }
      .title-shadow2 {
        font-size: 42px;
        font-weight: bold;
        text-transform: uppercase;
        fill: rgba(0, 0, 0, 0.15);
        animation: floatAnim 2.5s ease-in-out infinite;
        transform-origin: 158px 141px;
        text-anchor: start;
      }
      .tail-wag {
        animation: tailWag;
        animation-duration: 0.3s;
        animation-timing-function: ease-in-out;
        animation-iteration-count: infinite;
        animation-direction: alternate;
        transform-origin: 15px 16px;
      }
      @keyframes floatAnim {
        0%, 100% { transform: translateY(0px) rotate(-1deg); }
        50% { transform: translateY(-10px) rotate(1deg); }
      }
      @keyframes tailWag {
        0% { transform: rotate(-12deg); }
        100% { transform: rotate(18deg); }
      }
    </style>
  </defs>
  <g class="svg-container">
    <g transform="translate(61, 10) scale(4.5)" style="image-rendering: pixelated;">
      <g class="tail-wag">
        <rect x="15" y="16" width="2" height="1" fill="#E96310" />
        <rect x="16" y="15" width="2" height="1" fill="#E96310" />
        <rect x="17" y="14" width="2" height="1" fill="#E96310" />
        <rect x="18" y="13" width="2" height="2" fill="#E96310" />
        <rect x="19" y="12" width="1" height="1" fill="#FFF0F0" />
      </g>
      <rect x="9" y="13" width="6" height="1" fill="#FF3B30" />
      <rect x="11" y="14" width="2" height="1" fill="#FFD700" />
      <rect x="6" y="7" width="2" height="5" fill="#6A3E26" />
      <rect x="5" y="8" width="1" height="3" fill="#6A3E26" />
      <rect x="16" y="7" width="2" height="5" fill="#6A3E26" />
      <rect x="18" y="8" width="1" height="3" fill="#6A3E26" />
      <rect x="8" y="6" width="8" height="7" fill="#E96310" />
      <rect x="9" y="5" width="6" height="1" fill="#E96310" />
      <rect x="10" y="10" width="4" height="3" fill="#FFF0F0" />
      <rect x="11" y="9" width="2" height="1" fill="#FFF0F0" />
      <rect x="11" y="10" width="2" height="1" fill="#1C2434" />
      <rect x="9" y="8" width="1" height="1" fill="#1C2434" />
      <rect x="14" y="8" width="1" height="1" fill="#1C2434" />
      <rect x="8" y="14" width="8" height="5" fill="#E96310" />
      <rect x="9" y="19" width="6" height="1" fill="#E96310" />
      <rect x="9" y="15" width="2" height="5" fill="#6A3E26" />
      <rect x="13" y="15" width="2" height="5" fill="#6A3E26" />
      <rect x="8" y="20" width="3" height="1" fill="#FFF0F0" />
      <rect x="13" y="20" width="3" height="1" fill="#FFF0F0" />
      <rect x="6" y="16" width="2" height="3" fill="#E96310" />
      <rect x="7" y="19" width="2" height="1" fill="#FFF0F0" />
      <rect x="16" y="16" width="2" height="3" fill="#E96310" />
      <rect x="15" y="19" width="2" height="1" fill="#FFF0F0" />
    </g>
    <text x="11" y="141" class="title-shadow2">Updates</text>
    <text x="8" y="138" class="title-shadow1">Updates</text>
    <text x="5" y="135" class="floating-title">Updates</text>
  </g>
</svg>
