<svg width="17" height="13" viewBox="0 0 17 13" fill="none" xmlns="http://www.w3.org/2000/svg">
<path d="M11.9041 0.863946C11.9041 0.895946 11.8934 0.943946 11.8721 1.00795C11.8507 1.06128 11.8134 1.08795 11.7601 1.08795C11.6747 1.08795 11.5894 1.08795 11.5041 1.08795C11.4187 1.07728 11.3334 1.07195 11.2481 1.07195C10.9601 1.07195 10.7574 1.10395 10.6401 1.16795C10.5334 1.22128 10.4694 1.31728 10.4481 1.45595C10.4374 1.59461 10.4321 1.78661 10.4321 2.03195V12.1279C10.4321 12.2239 10.3947 12.2719 10.3201 12.2719L9.60006 12.2879C9.5574 12.0533 9.4774 11.8186 9.36006 11.5839C9.2534 11.3493 9.1254 11.1359 8.97606 10.9439C7.82406 9.42928 6.67206 7.92528 5.52006 6.43195C4.36806 4.92795 3.23206 3.41328 2.11206 1.88795V11.4399C2.11206 11.5893 2.1654 11.6959 2.27206 11.7599C2.3894 11.8133 2.5174 11.8453 2.65606 11.8559C2.8054 11.8559 2.9334 11.8559 3.04006 11.8559C3.1254 11.8559 3.2054 11.8559 3.28006 11.8559C3.3654 11.8453 3.45073 11.8399 3.53606 11.8399C3.63206 11.8399 3.68006 11.8986 3.68006 12.0159C3.68006 12.1013 3.6694 12.1759 3.64806 12.2399C3.6374 12.3039 3.5734 12.3359 3.45606 12.3359C3.36006 12.3359 3.25873 12.3306 3.15206 12.3199C3.05606 12.2986 2.96006 12.2826 2.86406 12.2719C2.70406 12.2506 2.53873 12.2453 2.36806 12.2559C2.1974 12.2559 2.03206 12.2559 1.87206 12.2559C1.5734 12.2559 1.28006 12.2719 0.992063 12.3039C0.714729 12.3253 0.426729 12.3359 0.128063 12.3359C0.0533959 12.3359 0.0160625 12.2879 0.0160625 12.1919C0.0160625 12.0319 0.0320625 11.9359 0.0640625 11.9039C0.0960625 11.8719 0.186729 11.8559 0.336063 11.8559C0.421396 11.8559 0.501396 11.8613 0.576063 11.8719C0.661396 11.8719 0.741396 11.8719 0.816063 11.8719C0.986729 11.8719 1.13606 11.8506 1.26406 11.8079C1.40273 11.7653 1.4774 11.6426 1.48806 11.4399C1.5094 10.9279 1.51473 10.4106 1.50406 9.88795C1.4934 9.36528 1.48806 8.84795 1.48806 8.33595C1.48806 7.21595 1.4934 6.09595 1.50406 4.97595C1.5254 3.85595 1.53606 2.73061 1.53606 1.59995C1.53606 1.40795 1.48273 1.27461 1.37606 1.19995C1.28006 1.11461 1.1574 1.06661 1.00806 1.05595C0.858729 1.04528 0.709396 1.03995 0.560063 1.03995C0.506729 1.03995 0.448063 1.04528 0.384063 1.05595C0.320063 1.05595 0.261396 1.05595 0.208063 1.05595C0.0693959 1.05595 6.25253e-05 1.00261 6.25253e-05 0.895946C6.25253e-05 0.821279 0.00539586 0.757279 0.0160625 0.703946C0.0373958 0.639946 0.0960625 0.607945 0.192062 0.607945C0.469396 0.607945 0.746729 0.618612 1.02406 0.639946C1.3014 0.650613 1.57873 0.655946 1.85606 0.655946C2.04806 0.655946 2.24006 0.655946 2.43206 0.655946C2.63473 0.645279 2.83206 0.639946 3.02406 0.639946C3.41873 1.17328 3.82406 1.69595 4.24006 2.20795C4.65606 2.71995 5.07206 3.23195 5.48806 3.74395C6.2134 4.62928 6.93873 5.51461 7.66406 6.39995C8.3894 7.27461 9.11473 8.15461 9.84006 9.03995V1.48795C9.84006 1.33861 9.76006 1.23195 9.60006 1.16795C9.44006 1.10395 9.3014 1.07195 9.18406 1.07195C9.0454 1.07195 8.91206 1.07728 8.78406 1.08795C8.65606 1.09861 8.52273 1.10395 8.38406 1.10395C8.3094 1.10395 8.27206 1.05061 8.27206 0.943946C8.27206 0.911946 8.27206 0.879946 8.27206 0.847946C8.27206 0.805279 8.2774 0.773279 8.28806 0.751945C8.28806 0.655945 8.34673 0.607945 8.46406 0.607945C8.6134 0.607945 8.76806 0.618612 8.92806 0.639946C9.08806 0.650613 9.24273 0.655946 9.39206 0.655946C9.7974 0.655946 10.1974 0.650613 10.5921 0.639946C10.9867 0.629279 11.3814 0.607946 11.7761 0.575946C11.8401 0.618613 11.8774 0.661279 11.8881 0.703946C11.8987 0.735946 11.9041 0.789279 11.9041 0.863946ZM16.0524 1.69595C16.0524 1.38661 15.9404 1.12528 15.7164 0.911945C15.5031 0.687946 15.2418 0.575946 14.9324 0.575946C14.6231 0.575946 14.3564 0.687946 14.1324 0.911945C13.9191 1.12528 13.8124 1.38661 13.8124 1.69595C13.8124 2.00528 13.9191 2.27195 14.1324 2.49595C14.3564 2.70928 14.6231 2.81595 14.9324 2.81595C15.2418 2.81595 15.5031 2.70928 15.7164 2.49595C15.9404 2.27195 16.0524 2.00528 16.0524 1.69595ZM16.6284 1.67995C16.6284 2.13861 16.4631 2.53328 16.1324 2.86395C15.8124 3.19461 15.4178 3.35995 14.9484 3.35995C14.4898 3.35995 14.0951 3.19461 13.7644 2.86395C13.4338 2.53328 13.2684 2.13861 13.2684 1.67995C13.2684 1.21061 13.4338 0.815946 13.7644 0.495946C14.0951 0.165279 14.4898 -5.43594e-05 14.9484 -5.43594e-05C15.4178 -5.43594e-05 15.8124 0.165279 16.1324 0.495946C16.4631 0.815946 16.6284 1.21061 16.6284 1.67995Z" fill="white"/>
</svg>
