<svg width="17" height="13" viewBox="0 0 17 13" fill="none" xmlns="http://www.w3.org/2000/svg">
<path d="M6.08007 12.2561C6.08007 12.4268 6.00007 12.5121 5.84007 12.5121C5.7654 12.5121 5.6854 12.5068 5.60007 12.4961C5.51474 12.4854 5.4294 12.4801 5.34407 12.4801C5.24807 12.4801 5.14674 12.4801 5.04007 12.4801C4.94407 12.4694 4.84274 12.4641 4.73607 12.4641C4.5014 12.4534 4.2614 12.4534 4.01607 12.4641C3.7814 12.4641 3.54674 12.4641 3.31207 12.4641C2.99207 12.4641 2.6774 12.4641 2.36807 12.4641C2.05874 12.4641 1.74407 12.4694 1.42407 12.4801C1.3494 12.4908 1.2534 12.4961 1.13607 12.4961C1.0294 12.4961 0.944069 12.4961 0.880069 12.4961C0.752068 12.4961 0.688068 12.4161 0.688068 12.2561C0.688068 12.2028 0.693402 12.1548 0.704068 12.1121C0.725402 12.0588 0.768068 12.0321 0.832068 12.0321C0.896068 12.0321 0.954735 12.0374 1.00807 12.0481C1.07207 12.0481 1.13607 12.0481 1.20007 12.0481C1.30674 12.0481 1.4614 12.0481 1.66407 12.0481C1.8774 12.0374 2.07474 12.0054 2.25607 11.9521C2.4374 11.8881 2.52807 11.7814 2.52807 11.6321C2.52807 10.7681 2.5334 9.90409 2.54407 9.04009C2.55474 8.16543 2.56007 7.29609 2.56007 6.43209C2.56007 5.69609 2.56007 4.96009 2.56007 4.22409C2.56007 3.48809 2.56007 2.74676 2.56007 2.00009C2.56007 1.86143 2.49074 1.79209 2.35207 1.79209C2.28807 1.79209 2.15474 1.82943 1.95207 1.90409C1.76007 1.97876 1.5414 2.06409 1.29607 2.16009C1.05074 2.25609 0.826735 2.34143 0.624068 2.41609C0.432068 2.49076 0.309402 2.52809 0.256068 2.52809C0.160068 2.52809 0.0907351 2.48543 0.0480684 2.40009C0.0160684 2.31476 6.84261e-05 2.23476 6.84261e-05 2.16009C6.84261e-05 2.09609 0.0320685 2.04276 0.0960685 2.00009C0.160068 1.94676 0.218735 1.91476 0.272069 1.90409C0.570735 1.82943 0.853402 1.74409 1.12007 1.64809C1.38674 1.54143 1.66407 1.44009 1.95207 1.34409C2.17607 1.26943 2.41074 1.18943 2.65607 1.10409C2.9014 1.00809 3.13074 0.917427 3.34407 0.832093C3.38674 0.81076 3.4614 0.784094 3.56807 0.752093C3.67474 0.720093 3.7814 0.688093 3.88807 0.656094C4.0054 0.624093 4.07474 0.608093 4.09607 0.608093C4.16007 0.608093 4.20807 0.61876 4.24007 0.640093C4.27207 0.65076 4.28807 0.704094 4.28807 0.800094C4.28807 1.03476 4.28274 1.26943 4.27207 1.50409C4.27207 1.72809 4.26674 1.95743 4.25607 2.19209C4.2454 2.84276 4.23474 3.53076 4.22407 4.25609C4.22407 4.98143 4.21874 5.69609 4.20807 6.40009C4.20807 7.17876 4.20807 7.95209 4.20807 8.72009C4.20807 9.48809 4.20807 10.2614 4.20807 11.0401C4.20807 11.1361 4.20807 11.2374 4.20807 11.3441C4.21874 11.4401 4.22407 11.5361 4.22407 11.6321C4.23474 11.7814 4.32007 11.8881 4.48007 11.9521C4.65074 12.0054 4.83207 12.0321 5.02407 12.0321C5.22674 12.0321 5.37074 12.0321 5.45607 12.0321C5.5414 12.0321 5.6214 12.0268 5.69607 12.0161C5.77074 12.0054 5.8454 12.0001 5.92007 12.0001C5.98407 12.0001 6.02674 12.0321 6.04807 12.0961C6.0694 12.1494 6.08007 12.2028 6.08007 12.2561ZM14.7496 9.02409C14.7496 8.66143 14.7282 8.29343 14.6856 7.92009C14.6429 7.53609 14.5522 7.18409 14.4136 6.86409C14.2749 6.53343 14.0669 6.27209 13.7896 6.08009C13.5229 5.87743 13.1549 5.77609 12.6856 5.77609C12.4509 5.77609 12.1789 5.81876 11.8696 5.90409C11.5709 5.98943 11.2882 6.11209 11.0216 6.27209C10.7549 6.43209 10.5576 6.61876 10.4296 6.83209C10.2909 7.07743 10.2109 7.34409 10.1896 7.63209C10.1789 7.90943 10.1736 8.18676 10.1736 8.46409C10.1736 8.58143 10.1736 8.70409 10.1736 8.83209C10.1736 8.94943 10.1789 9.06676 10.1896 9.18409C10.2109 9.61076 10.3069 10.0481 10.4776 10.4961C10.6482 10.9441 10.8989 11.3174 11.2296 11.6161C11.5602 11.9148 11.9762 12.0641 12.4776 12.0641C13.0429 12.0641 13.4909 11.9094 13.8216 11.6001C14.1522 11.2908 14.3869 10.9068 14.5256 10.4481C14.6749 9.97876 14.7496 9.50409 14.7496 9.02409ZM16.3976 8.64009C16.3976 9.47209 16.2162 10.1761 15.8536 10.7521C15.4909 11.3281 14.9949 11.7654 14.3656 12.0641C13.7469 12.3628 13.0322 12.5121 12.2216 12.5121C11.6562 12.5121 11.1336 12.3734 10.6536 12.0961C10.1736 11.8081 9.76824 11.4348 9.43757 10.9761C9.11757 10.5068 8.89357 10.0054 8.76557 9.47209C8.70157 9.18409 8.6589 8.89609 8.63757 8.60809C8.6269 8.30943 8.62157 8.01076 8.62157 7.71209C8.62157 7.33876 8.66424 6.94943 8.74957 6.54409C8.84557 6.13876 8.95757 5.76543 9.08557 5.42409C9.62957 3.95209 10.4349 2.78409 11.5016 1.92009C12.5682 1.04543 13.8482 0.405427 15.3416 9.34601e-05C15.3522 9.34601e-05 15.3576 9.34601e-05 15.3576 9.34601e-05C15.3682 9.34601e-05 15.3789 9.34601e-05 15.3896 9.34601e-05C15.4749 9.34601e-05 15.5176 0.0374266 15.5176 0.112093C15.5176 0.176093 15.4962 0.213427 15.4536 0.224093C15.4216 0.256093 15.3842 0.28276 15.3416 0.304093C15.2989 0.31476 15.2562 0.33076 15.2136 0.352093C14.9789 0.448093 14.7442 0.549426 14.5096 0.656094C14.2749 0.76276 14.0509 0.87476 13.8376 0.992093C13.6136 1.12009 13.3949 1.26409 13.1816 1.42409C12.9789 1.57343 12.7869 1.73876 12.6056 1.92009C12.2749 2.26143 11.9496 2.66143 11.6296 3.12009C11.3096 3.56809 11.0376 4.04809 10.8136 4.56009C10.6002 5.06143 10.4669 5.55743 10.4136 6.04809C10.7869 5.80276 11.1869 5.60009 11.6136 5.44009C12.0402 5.28009 12.4829 5.20009 12.9416 5.20009C13.9869 5.20009 14.8242 5.51476 15.4536 6.14409C16.0829 6.76276 16.3976 7.59476 16.3976 8.64009Z" fill="#1C2434"/>
</svg>
