<svg width="52" height="10" viewBox="0 0 52 10" fill="none" xmlns="http://www.w3.org/2000/svg">
<path d="M7.73999 7.00801C7.73999 7.05601 7.73599 7.10401 7.72799 7.15201C7.71999 7.20001 7.70399 7.24401 7.67999 7.28401C7.57599 7.53201 7.41199 7.77601 7.18799 8.01601C6.97199 8.24801 6.74799 8.44001 6.51599 8.59201C6.15599 8.83201 5.77199 9.00001 5.36399 9.09601C4.96399 9.19201 4.55199 9.24001 4.12799 9.24001C3.27199 9.24001 2.53199 9.06001 1.90799 8.70001C1.29199 8.33201 0.819992 7.82401 0.491992 7.17601C0.163992 6.52801 -7.7635e-06 5.78401 -7.7635e-06 4.94401C-7.7635e-06 4.32001 0.0919922 3.73601 0.275992 3.19201C0.459992 2.64801 0.727992 2.17201 1.07999 1.76401C1.43199 1.34801 1.86399 1.02401 2.37599 0.792014C2.88799 0.552014 3.47199 0.432014 4.12799 0.432014C4.44799 0.432014 4.75199 0.484014 5.03999 0.588013C5.33599 0.684014 5.63199 0.784014 5.92799 0.888014C6.09599 0.944014 6.26799 0.988014 6.44399 1.02001C6.62799 1.05201 6.80799 1.07601 6.98399 1.09201C6.99199 1.26801 7.00399 1.44401 7.01999 1.62001C7.03599 1.78801 7.05599 1.96001 7.07999 2.13601C7.10399 2.29601 7.13199 2.46001 7.16399 2.62801C7.20399 2.78801 7.22399 2.95201 7.22399 3.12001C7.22399 3.24801 7.19599 3.35201 7.13999 3.43201C7.09199 3.51201 6.99599 3.55201 6.85199 3.55201C6.77199 3.55201 6.71199 3.50801 6.67199 3.42001C6.63999 3.34001 6.61199 3.25601 6.58799 3.16801C6.57199 3.07201 6.55199 2.98401 6.52799 2.90401C6.46399 2.64001 6.35599 2.36401 6.20399 2.07601C6.05199 1.78001 5.86799 1.54401 5.65199 1.36801C5.55599 1.28001 5.41199 1.19201 5.21999 1.10401C5.03599 1.01601 4.84399 0.944014 4.64399 0.888014C4.45199 0.832014 4.28799 0.804013 4.15199 0.804013C3.91199 0.804013 3.66799 0.848014 3.41999 0.936014C3.17199 1.02401 2.95199 1.14001 2.75999 1.28401C2.39999 1.56401 2.11199 1.90401 1.89599 2.30401C1.67999 2.69601 1.52399 3.11601 1.42799 3.56401C1.33999 4.01201 1.29599 4.45601 1.29599 4.89601C1.29599 5.37601 1.35199 5.84801 1.46399 6.31201C1.57599 6.76801 1.75199 7.18001 1.99199 7.54801C2.23199 7.91601 2.54399 8.21201 2.92799 8.43601C3.31199 8.65201 3.77999 8.76001 4.33199 8.76001C4.56399 8.76001 4.82399 8.72801 5.11199 8.66401C5.39999 8.59201 5.64799 8.51201 5.85599 8.42401C6.10399 8.32001 6.33199 8.18801 6.53999 8.02801C6.74799 7.86001 6.93599 7.67201 7.10399 7.46401C7.11999 7.44801 7.15199 7.40001 7.19999 7.32001C7.25599 7.24001 7.31199 7.16001 7.36799 7.08001C7.42399 7.00001 7.45999 6.95201 7.47599 6.93601C7.51599 6.88801 7.55999 6.86401 7.60799 6.86401C7.69599 6.86401 7.73999 6.91201 7.73999 7.00801ZM12.3313 7.84801C12.2993 7.48801 12.2793 7.12801 12.2713 6.76801C12.2713 6.40001 12.2673 6.03201 12.2593 5.66401H12.0913C11.8433 5.66401 11.5673 5.70401 11.2633 5.78401C10.9673 5.85601 10.6833 5.96801 10.4113 6.12001C10.1393 6.27201 9.9153 6.46401 9.7393 6.69601C9.5713 6.92001 9.4873 7.18001 9.4873 7.47601C9.4873 7.86001 9.5953 8.15201 9.8113 8.35201C10.0273 8.54401 10.3193 8.64001 10.6873 8.64001C10.8633 8.64001 11.0553 8.60001 11.2633 8.52001C11.4713 8.43201 11.6713 8.32801 11.8633 8.20801C12.0553 8.08801 12.2113 7.96801 12.3313 7.84801ZM14.4313 8.61601C14.4313 8.64801 14.4273 8.67201 14.4193 8.68801C14.3393 8.86401 14.2033 9.00001 14.0113 9.09601C13.8273 9.18401 13.6433 9.22801 13.4593 9.22801C13.1233 9.22801 12.8793 9.13201 12.7273 8.94001C12.5833 8.74001 12.4673 8.49601 12.3793 8.20801C12.0753 8.48801 11.7393 8.72401 11.3713 8.91601C11.0033 9.10001 10.6073 9.19201 10.1833 9.19201C9.8873 9.19201 9.6073 9.13601 9.3433 9.02401C9.0873 8.90401 8.8793 8.73201 8.7193 8.50801C8.5593 8.28401 8.4793 8.01201 8.4793 7.69201C8.4793 7.35601 8.5633 7.06801 8.7313 6.82801C8.9073 6.58001 9.1273 6.37201 9.3913 6.20401C9.6633 6.02801 9.9513 5.88801 10.2553 5.78401C10.5673 5.67201 10.8593 5.58801 11.1313 5.53201C11.3153 5.49201 11.5033 5.45601 11.6953 5.42401C11.8873 5.39201 12.0753 5.36001 12.2593 5.32801C12.2593 5.10401 12.2473 4.84401 12.2233 4.54801C12.2073 4.25201 12.1473 4.00801 12.0433 3.81601C11.9393 3.63201 11.7993 3.46801 11.6233 3.32401C11.4473 3.18001 11.2513 3.10801 11.0353 3.10801C10.6673 3.10801 10.3793 3.20401 10.1713 3.39601C9.9633 3.58801 9.8153 3.86001 9.7273 4.21201C9.7193 4.25201 9.7113 4.29601 9.7033 4.34401C9.7033 4.38401 9.6993 4.42401 9.6913 4.46401C9.6833 4.51201 9.6513 4.55601 9.5953 4.59601C9.5473 4.62801 9.4953 4.64401 9.4393 4.64401C9.2873 4.64401 9.1473 4.60801 9.0193 4.53601C8.8993 4.46401 8.8393 4.34401 8.8393 4.17601C8.8393 4.08001 8.8553 3.99601 8.8873 3.92401C8.9913 3.67601 9.1593 3.47201 9.3913 3.31201C9.6233 3.14401 9.8793 3.01601 10.1593 2.92801C10.4473 2.84001 10.7153 2.79601 10.9633 2.79601C11.3953 2.79601 11.7873 2.87601 12.1393 3.03601C12.4913 3.19601 12.7713 3.43201 12.9793 3.74401C13.1953 4.04801 13.3033 4.43201 13.3033 4.89601C13.3033 5.41601 13.2993 5.94001 13.2913 6.46801C13.2913 6.99601 13.3073 7.52401 13.3393 8.05201C13.3473 8.22801 13.3833 8.38401 13.4473 8.52001C13.5113 8.64801 13.6433 8.71201 13.8433 8.71201C13.9473 8.71201 14.0553 8.68801 14.1673 8.64001C14.2873 8.58401 14.3633 8.55601 14.3953 8.55601C14.4193 8.55601 14.4313 8.57601 14.4313 8.61601ZM19.7346 3.91201C19.7346 3.99201 19.7026 4.06801 19.6386 4.14001C19.5826 4.20401 19.5106 4.23601 19.4226 4.23601C19.3026 4.23601 19.2146 4.19601 19.1586 4.11601C19.1106 4.03601 19.0666 3.94401 19.0266 3.84001C18.9946 3.73601 18.9426 3.64401 18.8706 3.56401C18.7986 3.48401 18.6786 3.44401 18.5106 3.44401C18.4786 3.44401 18.4466 3.44401 18.4146 3.44401C18.3906 3.44401 18.3626 3.44801 18.3306 3.45601C18.1946 3.48001 18.0466 3.56401 17.8866 3.70801C17.7266 3.85201 17.5706 4.02401 17.4186 4.22401C17.2746 4.41601 17.1546 4.60801 17.0586 4.80001C16.9626 4.99201 16.9106 5.15201 16.9026 5.28001C16.8946 5.40801 16.8906 5.53601 16.8906 5.66401C16.8906 5.78401 16.8906 5.90401 16.8906 6.02401C16.8906 6.45601 16.8906 6.88801 16.8906 7.32001C16.8986 7.75201 16.9026 8.18001 16.9026 8.60401C16.9026 8.72401 16.9506 8.81201 17.0466 8.86801C17.1506 8.91601 17.2546 8.94001 17.3586 8.94001C17.4386 8.94001 17.5186 8.93601 17.5986 8.92801C17.6786 8.92001 17.7586 8.91601 17.8386 8.91601C17.8786 8.91601 17.9066 8.93601 17.9226 8.97601C17.9386 9.00801 17.9466 9.04001 17.9466 9.07201C17.9466 9.20001 17.8826 9.26401 17.7546 9.26401C17.5146 9.26401 17.2746 9.26001 17.0346 9.25201C16.7946 9.23601 16.5546 9.22801 16.3146 9.22801C16.0666 9.22801 15.8146 9.23601 15.5586 9.25201C15.3106 9.26801 15.0586 9.27601 14.8026 9.27601C14.7706 9.27601 14.7466 9.25201 14.7306 9.20401C14.7226 9.15601 14.7186 9.11601 14.7186 9.08401C14.7186 9.00401 14.7506 8.96001 14.8146 8.95201C14.9026 8.93601 14.9946 8.93201 15.0906 8.94001C15.1866 8.94801 15.2746 8.95201 15.3546 8.95201C15.4746 8.95201 15.5706 8.92801 15.6426 8.88001C15.7226 8.82401 15.7666 8.73201 15.7746 8.60401C15.7906 8.34801 15.7986 8.08801 15.7986 7.82401C15.8066 7.56001 15.8106 7.29601 15.8106 7.03201V5.86801C15.8026 5.52401 15.7986 5.18401 15.7986 4.84801C15.8066 4.50401 15.7946 4.16401 15.7626 3.82801C15.7546 3.66801 15.7106 3.55601 15.6306 3.49201C15.5506 3.42001 15.4306 3.38401 15.2706 3.38401C15.2066 3.38401 15.1386 3.39201 15.0666 3.40801C15.0026 3.41601 14.9346 3.42001 14.8626 3.42001C14.7986 3.42001 14.7666 3.37201 14.7666 3.27601C14.7666 3.22001 14.7946 3.18001 14.8506 3.15601C14.9306 3.13201 15.0146 3.11601 15.1026 3.10801C15.1906 3.09201 15.2746 3.08001 15.3546 3.07201C15.5706 3.03201 15.7866 2.99201 16.0026 2.95201C16.2186 2.91201 16.4346 2.86401 16.6506 2.80801C16.7226 2.83201 16.7746 2.87601 16.8066 2.94001C16.8226 2.97201 16.8346 3.06001 16.8426 3.20401C16.8506 3.34801 16.8546 3.51601 16.8546 3.70801C16.8546 3.89201 16.8546 4.06801 16.8546 4.23601C16.8546 4.39601 16.8546 4.50801 16.8546 4.57201C17.0306 4.29201 17.2306 4.01201 17.4546 3.73201C17.6786 3.45201 17.9346 3.22001 18.2226 3.03601C18.5106 2.85201 18.8346 2.76001 19.1946 2.76001C19.3866 2.76001 19.5106 2.82001 19.5666 2.94001C19.6226 3.06001 19.6586 3.20001 19.6746 3.36001C19.6906 3.44801 19.7026 3.54001 19.7106 3.63601C19.7266 3.73201 19.7346 3.82401 19.7346 3.91201ZM25.0667 3.91201C25.0667 3.99201 25.0347 4.06801 24.9707 4.14001C24.9147 4.20401 24.8427 4.23601 24.7547 4.23601C24.6347 4.23601 24.5467 4.19601 24.4907 4.11601C24.4427 4.03601 24.3987 3.94401 24.3587 3.84001C24.3267 3.73601 24.2747 3.64401 24.2027 3.56401C24.1307 3.48401 24.0107 3.44401 23.8427 3.44401C23.8107 3.44401 23.7787 3.44401 23.7467 3.44401C23.7227 3.44401 23.6947 3.44801 23.6627 3.45601C23.5267 3.48001 23.3787 3.56401 23.2187 3.70801C23.0587 3.85201 22.9027 4.02401 22.7507 4.22401C22.6067 4.41601 22.4867 4.60801 22.3907 4.80001C22.2947 4.99201 22.2427 5.15201 22.2347 5.28001C22.2267 5.40801 22.2227 5.53601 22.2227 5.66401C22.2227 5.78401 22.2227 5.90401 22.2227 6.02401C22.2227 6.45601 22.2227 6.88801 22.2227 7.32001C22.2307 7.75201 22.2347 8.18001 22.2347 8.60401C22.2347 8.72401 22.2827 8.81201 22.3787 8.86801C22.4827 8.91601 22.5867 8.94001 22.6907 8.94001C22.7707 8.94001 22.8507 8.93601 22.9307 8.92801C23.0107 8.92001 23.0907 8.91601 23.1707 8.91601C23.2107 8.91601 23.2387 8.93601 23.2547 8.97601C23.2707 9.00801 23.2787 9.04001 23.2787 9.07201C23.2787 9.20001 23.2147 9.26401 23.0867 9.26401C22.8467 9.26401 22.6067 9.26001 22.3667 9.25201C22.1267 9.23601 21.8867 9.22801 21.6467 9.22801C21.3987 9.22801 21.1467 9.23601 20.8907 9.25201C20.6427 9.26801 20.3907 9.27601 20.1347 9.27601C20.1027 9.27601 20.0787 9.25201 20.0627 9.20401C20.0547 9.15601 20.0507 9.11601 20.0507 9.08401C20.0507 9.00401 20.0827 8.96001 20.1467 8.95201C20.2347 8.93601 20.3267 8.93201 20.4227 8.94001C20.5187 8.94801 20.6067 8.95201 20.6867 8.95201C20.8067 8.95201 20.9027 8.92801 20.9747 8.88001C21.0547 8.82401 21.0987 8.73201 21.1067 8.60401C21.1227 8.34801 21.1307 8.08801 21.1307 7.82401C21.1387 7.56001 21.1427 7.29601 21.1427 7.03201V5.86801C21.1347 5.52401 21.1307 5.18401 21.1307 4.84801C21.1387 4.50401 21.1267 4.16401 21.0947 3.82801C21.0867 3.66801 21.0427 3.55601 20.9627 3.49201C20.8827 3.42001 20.7627 3.38401 20.6027 3.38401C20.5387 3.38401 20.4707 3.39201 20.3987 3.40801C20.3347 3.41601 20.2667 3.42001 20.1947 3.42001C20.1307 3.42001 20.0987 3.37201 20.0987 3.27601C20.0987 3.22001 20.1267 3.18001 20.1827 3.15601C20.2627 3.13201 20.3467 3.11601 20.4347 3.10801C20.5227 3.09201 20.6067 3.08001 20.6867 3.07201C20.9027 3.03201 21.1187 2.99201 21.3347 2.95201C21.5507 2.91201 21.7667 2.86401 21.9827 2.80801C22.0547 2.83201 22.1067 2.87601 22.1387 2.94001C22.1547 2.97201 22.1667 3.06001 22.1747 3.20401C22.1827 3.34801 22.1867 3.51601 22.1867 3.70801C22.1867 3.89201 22.1867 4.06801 22.1867 4.23601C22.1867 4.39601 22.1867 4.50801 22.1867 4.57201C22.3627 4.29201 22.5627 4.01201 22.7867 3.73201C23.0107 3.45201 23.2667 3.22001 23.5547 3.03601C23.8427 2.85201 24.1667 2.76001 24.5267 2.76001C24.7187 2.76001 24.8427 2.82001 24.8987 2.94001C24.9547 3.06001 24.9907 3.20001 25.0067 3.36001C25.0227 3.44801 25.0347 3.54001 25.0427 3.63601C25.0587 3.73201 25.0667 3.82401 25.0667 3.91201ZM28.9827 9.07201C28.9827 9.11201 28.9707 9.15201 28.9467 9.19201C28.9227 9.22401 28.8907 9.24001 28.8507 9.24001C28.6267 9.24001 28.4027 9.23601 28.1787 9.22801C27.9627 9.21201 27.7387 9.20401 27.5067 9.20401H27.1827C26.9427 9.20401 26.7027 9.21201 26.4627 9.22801C26.2307 9.23601 25.9987 9.24001 25.7667 9.24001C25.7347 9.24001 25.7107 9.22001 25.6947 9.18001C25.6867 9.14001 25.6827 9.10801 25.6827 9.08401C25.6827 9.04401 25.6867 9.01601 25.6947 9.00001C25.7027 8.97601 25.7267 8.96001 25.7667 8.95201C25.8067 8.93601 25.8507 8.93201 25.8987 8.94001C25.9547 8.94001 26.0067 8.94001 26.0547 8.94001C26.1107 8.94001 26.1627 8.94401 26.2107 8.95201C26.2587 8.95201 26.3107 8.95201 26.3667 8.95201C26.4787 8.95201 26.5787 8.92801 26.6667 8.88001C26.7627 8.82401 26.8107 8.73201 26.8107 8.60401V3.80401C26.8107 3.66801 26.7867 3.56401 26.7387 3.49201C26.6907 3.41201 26.5907 3.37201 26.4387 3.37201C26.3267 3.37201 26.2107 3.38001 26.0907 3.39601C25.9787 3.40401 25.8667 3.41601 25.7547 3.43201C25.6907 3.43201 25.6587 3.39601 25.6587 3.32401C25.6587 3.24401 25.6907 3.19201 25.7547 3.16801C25.8507 3.13601 25.9507 3.11601 26.0547 3.10801C26.1667 3.09201 26.2707 3.07601 26.3667 3.06001C26.5907 3.02001 26.8147 2.97601 27.0387 2.92801C27.2627 2.88001 27.4827 2.82801 27.6987 2.77201C27.7227 2.76401 27.7547 2.76001 27.7947 2.76001C27.8827 2.76001 27.9267 2.80801 27.9267 2.90401C27.9267 3.84801 27.9227 4.79601 27.9147 5.74801C27.9147 6.70001 27.9147 7.65201 27.9147 8.60401C27.9147 8.73201 27.9707 8.82401 28.0827 8.88001C28.2027 8.92801 28.3147 8.95201 28.4187 8.95201C28.4987 8.95201 28.5787 8.94801 28.6587 8.94001C28.7467 8.93201 28.8307 8.92801 28.9107 8.92801C28.9427 8.92801 28.9627 8.94801 28.9707 8.98801C28.9787 9.02801 28.9827 9.05601 28.9827 9.07201ZM28.0107 0.768014C28.0107 0.968014 27.9387 1.14001 27.7947 1.28401C27.6507 1.42001 27.4787 1.48801 27.2787 1.48801C27.0787 1.48801 26.9067 1.42001 26.7627 1.28401C26.6187 1.14001 26.5467 0.968014 26.5467 0.768014C26.5467 0.568014 26.6187 0.400014 26.7627 0.264014C26.9067 0.120014 27.0787 0.0480139 27.2787 0.0480139C27.4787 0.0480139 27.6507 0.120014 27.7947 0.264014C27.9387 0.400014 28.0107 0.568014 28.0107 0.768014ZM36.7077 9.07201C36.7077 9.17601 36.6477 9.22801 36.5277 9.22801C36.3517 9.22801 36.1717 9.22401 35.9877 9.21601C35.8037 9.20001 35.6197 9.19201 35.4357 9.19201C35.1637 9.19201 34.8837 9.20001 34.5957 9.21601C34.3157 9.22401 34.0357 9.22801 33.7557 9.22801C33.7237 9.22801 33.7037 9.20401 33.6957 9.15601C33.6877 9.10001 33.6837 9.05601 33.6837 9.02401C33.6837 8.96001 33.7237 8.92801 33.8037 8.92801C33.8837 8.92801 33.9477 8.92801 33.9957 8.92801C34.0357 8.92801 34.0757 8.93201 34.1157 8.94001C34.1637 8.94001 34.2077 8.94001 34.2477 8.94001C34.4797 8.94001 34.6077 8.82401 34.6317 8.59201C34.6557 8.12001 34.6637 7.64401 34.6557 7.16401C34.6557 6.68401 34.6557 6.20801 34.6557 5.73601C34.6557 5.64801 34.6557 5.56001 34.6557 5.47201C34.6557 5.37601 34.6557 5.28401 34.6557 5.19601C34.6477 5.01201 34.6357 4.78801 34.6197 4.52401C34.6037 4.25201 34.5677 4.03201 34.5117 3.86401C34.3837 3.44801 34.1037 3.24001 33.6717 3.24001C33.2797 3.24001 32.9197 3.34001 32.5917 3.54001C32.2637 3.74001 31.9797 3.99201 31.7397 4.29601C31.7317 4.88001 31.7277 5.46001 31.7277 6.03601C31.7277 6.61201 31.7277 7.18801 31.7277 7.76401V8.59201C31.7277 8.71201 31.7797 8.80001 31.8837 8.85601C31.9877 8.91201 32.0917 8.94001 32.1957 8.94001C32.2597 8.94001 32.3197 8.93601 32.3757 8.92801C32.4397 8.91201 32.4997 8.90401 32.5557 8.90401C32.5877 8.90401 32.6077 8.92401 32.6157 8.96401C32.6237 9.00401 32.6277 9.03601 32.6277 9.06001C32.6277 9.09201 32.6157 9.12801 32.5917 9.16801C32.5757 9.20801 32.5437 9.22801 32.4957 9.22801C32.3197 9.22801 32.1437 9.22401 31.9677 9.21601C31.7997 9.20001 31.6277 9.19201 31.4517 9.19201C31.1797 9.19201 30.9077 9.20001 30.6357 9.21601C30.3637 9.22401 30.0877 9.22801 29.8077 9.22801C29.7677 9.22801 29.7437 9.20401 29.7357 9.15601C29.7357 9.10001 29.7357 9.05601 29.7357 9.02401C29.7357 8.96001 29.7717 8.92801 29.8437 8.92801C29.9157 8.92801 29.9717 8.92801 30.0117 8.92801C30.0517 8.92801 30.0917 8.93201 30.1317 8.94001C30.1717 8.94001 30.2117 8.94001 30.2517 8.94001C30.4837 8.94001 30.6117 8.82401 30.6357 8.59201C30.6437 8.48001 30.6477 8.36801 30.6477 8.25601C30.6477 8.14401 30.6477 8.03201 30.6477 7.92001C30.6477 7.23201 30.6477 6.54401 30.6477 5.85601C30.6477 5.16001 30.6437 4.46801 30.6357 3.78001C30.6357 3.66801 30.6117 3.55601 30.5637 3.44401C30.5157 3.33201 30.4237 3.27601 30.2877 3.27601C30.1837 3.27601 30.0837 3.29201 29.9877 3.32401C29.8917 3.35601 29.7917 3.37201 29.6877 3.37201C29.6317 3.37201 29.6037 3.33201 29.6037 3.25201C29.6037 3.23601 29.6037 3.22001 29.6037 3.20401C29.6117 3.18001 29.6197 3.16401 29.6277 3.15601C29.6357 3.14801 29.6477 3.14401 29.6637 3.14401C29.6797 3.13601 29.6917 3.12801 29.6997 3.12001C29.8437 3.08001 29.9917 3.05201 30.1437 3.03601C30.3037 3.02001 30.4557 2.99601 30.5997 2.96401C30.7357 2.94001 30.8677 2.90801 30.9957 2.86801C31.1237 2.82001 31.2517 2.79601 31.3797 2.79601C31.4357 2.79601 31.4797 2.82401 31.5117 2.88001C31.5517 2.95201 31.5837 3.05601 31.6077 3.19201C31.6317 3.32001 31.6477 3.45201 31.6557 3.58801C31.6717 3.72401 31.6797 3.83601 31.6797 3.92401C31.8557 3.74801 32.0637 3.57601 32.3037 3.40801C32.5517 3.23201 32.8077 3.08801 33.0717 2.97601C33.3437 2.85601 33.6077 2.79601 33.8637 2.79601C34.5997 2.79601 35.0957 2.96001 35.3517 3.28801C35.6157 3.60801 35.7477 4.11601 35.7477 4.81201C35.7477 5.43601 35.7437 6.06001 35.7357 6.68401C35.7357 7.30801 35.7357 7.93201 35.7357 8.55601C35.7357 8.70801 35.7797 8.81201 35.8677 8.86801C35.9637 8.91601 36.0757 8.94001 36.2037 8.94001C36.2677 8.94001 36.3317 8.93601 36.3957 8.92801C36.4597 8.91201 36.5197 8.90401 36.5757 8.90401C36.6237 8.90401 36.6557 8.92401 36.6717 8.96401C36.6957 8.99601 36.7077 9.03201 36.7077 9.07201ZM44.3977 9.12001C44.3977 9.16001 44.3777 9.19201 44.3377 9.21601C44.2977 9.23201 44.2577 9.24001 44.2177 9.24001C44.0177 9.24001 43.8137 9.23601 43.6057 9.22801C43.4057 9.21201 43.2017 9.20401 42.9937 9.20401C42.7617 9.20401 42.5257 9.21201 42.2857 9.22801C42.0537 9.24401 41.8217 9.25201 41.5897 9.25201C41.5497 9.25201 41.5217 9.22801 41.5057 9.18001C41.4977 9.12401 41.4937 9.08001 41.4937 9.04801C41.4937 8.99201 41.5217 8.96401 41.5777 8.96401C41.6657 8.96401 41.7497 8.96801 41.8297 8.97601C41.9177 8.97601 42.0017 8.97601 42.0817 8.97601C42.1857 8.97601 42.2657 8.94401 42.3217 8.88001C42.3857 8.80801 42.4217 8.72401 42.4297 8.62801C42.4457 8.42801 42.4497 8.22801 42.4417 8.02801C42.4417 7.82801 42.4417 7.63201 42.4417 7.44001C42.4417 7.20001 42.4417 6.96401 42.4417 6.73201C42.4417 6.49201 42.4417 6.25201 42.4417 6.01201C42.4417 5.77201 42.4417 5.53201 42.4417 5.29201C42.4417 5.05201 42.4337 4.81201 42.4177 4.57201C42.4097 4.46801 42.3977 4.36801 42.3817 4.27201C42.3737 4.16801 42.3537 4.06801 42.3217 3.97201C42.2417 3.75601 42.1097 3.59201 41.9257 3.48001C41.7497 3.36001 41.5457 3.30001 41.3137 3.30001C41.0417 3.30001 40.7737 3.37201 40.5097 3.51601C40.2457 3.65201 40.0257 3.82401 39.8497 4.03201C39.6577 4.25601 39.5177 4.45201 39.4297 4.62001C39.3417 4.78801 39.2857 4.96401 39.2617 5.14801C39.2457 5.33201 39.2377 5.57201 39.2377 5.86801V7.98001C39.2377 8.06801 39.2337 8.19201 39.2257 8.35201C39.2257 8.51201 39.2457 8.65601 39.2857 8.78401C39.3337 8.91201 39.4257 8.97601 39.5617 8.97601C39.6417 8.97601 39.7177 8.97201 39.7897 8.96401C39.8617 8.95601 39.9377 8.95201 40.0177 8.95201C40.0897 8.95201 40.1257 8.99201 40.1257 9.07201C40.1257 9.11201 40.1177 9.15201 40.1017 9.19201C40.0937 9.22401 40.0657 9.24001 40.0177 9.24001C39.7457 9.24001 39.4657 9.23601 39.1777 9.22801C38.8977 9.21201 38.6177 9.20401 38.3377 9.20401C38.0817 9.20401 37.8217 9.21601 37.5577 9.24001C37.5257 9.24001 37.4977 9.24401 37.4737 9.25201C37.4497 9.25201 37.4217 9.25201 37.3897 9.25201C37.3497 9.25201 37.3177 9.23201 37.2937 9.19201C37.2777 9.14401 37.2697 9.10401 37.2697 9.07201C37.2697 8.98401 37.3137 8.94001 37.4017 8.94001C37.4497 8.94001 37.4977 8.94401 37.5457 8.95201C37.5937 8.95201 37.6457 8.95201 37.7017 8.95201C37.8137 8.95201 37.9297 8.93601 38.0497 8.90401C38.1777 8.86401 38.2457 8.77201 38.2537 8.62801C38.2697 8.36401 38.2737 8.10001 38.2657 7.83601C38.2657 7.57201 38.2657 7.31201 38.2657 7.05601C38.2657 6.56001 38.2657 6.06801 38.2657 5.58001C38.2737 5.09201 38.2777 4.60401 38.2777 4.11601C38.2777 3.60401 38.2737 3.09601 38.2657 2.59201C38.2577 2.08001 38.2497 1.56801 38.2417 1.05601C38.2417 0.968014 38.2257 0.872014 38.1937 0.768014C38.1617 0.656014 38.0897 0.600014 37.9777 0.600014C37.8657 0.600014 37.7497 0.608014 37.6297 0.624014C37.5097 0.640014 37.3897 0.648014 37.2697 0.648014C37.1977 0.648014 37.1617 0.616014 37.1617 0.552014C37.1617 0.480014 37.1977 0.432014 37.2697 0.408014C37.4297 0.368014 37.5857 0.336014 37.7377 0.312013C37.8977 0.288014 38.0537 0.260014 38.2057 0.228014C38.3417 0.196014 38.5017 0.152014 38.6857 0.096014C38.8777 0.0320139 39.0377 1.38283e-05 39.1657 1.38283e-05C39.2137 1.38283e-05 39.2417 0.0160139 39.2497 0.0480139C39.2577 0.0720136 39.2617 0.104013 39.2617 0.144013C39.2617 0.800014 39.2617 1.45601 39.2617 2.11201C39.2617 2.76801 39.2537 3.42401 39.2377 4.08001C39.4137 3.89601 39.6257 3.71201 39.8737 3.52801C40.1297 3.34401 40.4017 3.19201 40.6897 3.07201C40.9777 2.94401 41.2497 2.88001 41.5057 2.88001C42.0257 2.88001 42.4337 2.95601 42.7297 3.10801C43.0257 3.26001 43.2337 3.49601 43.3537 3.81601C43.4737 4.12801 43.5337 4.53601 43.5337 5.04001C43.5337 5.64001 43.5297 6.24001 43.5217 6.84001C43.5217 7.43201 43.5217 8.02801 43.5217 8.62801C43.5217 8.75601 43.5537 8.84801 43.6177 8.90401C43.6897 8.95201 43.7897 8.97601 43.9177 8.97601C43.9737 8.97601 44.0257 8.97201 44.0737 8.96401C44.1297 8.95601 44.1857 8.95201 44.2417 8.95201C44.2817 8.95201 44.3177 8.97201 44.3497 9.01201C44.3817 9.04401 44.3977 9.08001 44.3977 9.12001ZM50.1666 6.08401C50.1666 5.74001 50.1386 5.39601 50.0826 5.05201C50.0346 4.70001 49.9386 4.37601 49.7946 4.08001C49.6586 3.78401 49.4586 3.54801 49.1946 3.37201C48.9306 3.18801 48.5866 3.09601 48.1626 3.09601C47.7626 3.09601 47.4346 3.19201 47.1786 3.38401C46.9306 3.57601 46.7346 3.82401 46.5906 4.12801C46.4546 4.43201 46.3586 4.76001 46.3026 5.11201C46.2546 5.46401 46.2306 5.79601 46.2306 6.10801C46.2306 6.45201 46.2546 6.79601 46.3026 7.14001C46.3586 7.48401 46.4586 7.79601 46.6026 8.07601C46.7466 8.34801 46.9506 8.56801 47.2146 8.73601C47.4866 8.90401 47.8346 8.98801 48.2586 8.98801C48.6746 8.98801 49.0066 8.90001 49.2546 8.72401C49.5106 8.54801 49.7026 8.31601 49.8306 8.02801C49.9666 7.74001 50.0546 7.42801 50.0946 7.09201C50.1426 6.74801 50.1666 6.41201 50.1666 6.08401ZM51.4026 6.12001C51.4026 6.72001 51.2586 7.26001 50.9706 7.74001C50.6906 8.22001 50.3066 8.60001 49.8186 8.88001C49.3386 9.16001 48.7986 9.30001 48.1986 9.30001C47.6146 9.30001 47.0866 9.16001 46.6146 8.88001C46.1426 8.59201 45.7666 8.21201 45.4866 7.74001C45.2066 7.26001 45.0666 6.72801 45.0666 6.14401C45.0666 5.54401 45.2026 4.99201 45.4746 4.48801C45.7466 3.97601 46.1186 3.56401 46.5906 3.25201C47.0706 2.94001 47.6226 2.78401 48.2466 2.78401C48.9186 2.78401 49.4906 2.92801 49.9626 3.21601C50.4346 3.49601 50.7906 3.88801 51.0306 4.39201C51.2786 4.88801 51.4026 5.46401 51.4026 6.12001Z" fill="#8A7268"/>
</svg>
