<svg width="58" height="9" viewBox="0 0 58 9" fill="none" xmlns="http://www.w3.org/2000/svg">
<path d="M1.01563 8H1.86265e-08L2.9375 -2.38419e-07H3.9375L6.875 8H5.85937L3.46875 1.26562H3.40625L1.01563 8ZM1.39063 4.875H5.48438V5.73437H1.39063V4.875ZM10.2617 8.125C9.76172 8.125 9.32031 7.9987 8.9375 7.74609C8.55469 7.49089 8.25521 7.13151 8.03906 6.66797C7.82292 6.20182 7.71484 5.65104 7.71484 5.01563C7.71484 4.38542 7.82292 3.83854 8.03906 3.375C8.25521 2.91146 8.55599 2.55339 8.94141 2.30078C9.32682 2.04818 9.77214 1.92188 10.2773 1.92188C10.668 1.92188 10.9766 1.98698 11.2031 2.11719C11.4323 2.24479 11.6068 2.39062 11.7266 2.55469C11.849 2.71615 11.944 2.84896 12.0117 2.95312H12.0898V-2.38419e-07H13.0117V8H12.1211V7.07812H12.0117C11.944 7.1875 11.8477 7.32552 11.7227 7.49219C11.5977 7.65625 11.4193 7.80339 11.1875 7.93359C10.9557 8.0612 10.6471 8.125 10.2617 8.125ZM10.3867 7.29688C10.7565 7.29688 11.069 7.20052 11.3242 7.00781C11.5794 6.8125 11.7734 6.54297 11.9063 6.19922C12.0391 5.85286 12.1055 5.45312 12.1055 5C12.1055 4.55208 12.0404 4.16016 11.9102 3.82422C11.7799 3.48568 11.5872 3.22266 11.332 3.03516C11.0768 2.84505 10.7617 2.75 10.3867 2.75C9.99609 2.75 9.67057 2.85026 9.41016 3.05078C9.15234 3.2487 8.95833 3.51823 8.82812 3.85937C8.70052 4.19792 8.63672 4.57812 8.63672 5C8.63672 5.42708 8.70182 5.8151 8.83203 6.16406C8.96484 6.51042 9.16016 6.78646 9.41797 6.99219C9.67839 7.19531 10.0013 7.29688 10.3867 7.29688ZM18.6094 5.54687V2H19.5313V8H18.6094V6.98437H18.5469C18.4063 7.28906 18.1875 7.54818 17.8906 7.76172C17.5938 7.97266 17.2188 8.07813 16.7656 8.07813C16.3906 8.07813 16.0573 7.99609 15.7656 7.83203C15.474 7.66536 15.2448 7.41536 15.0781 7.08203C14.9115 6.74609 14.8281 6.32292 14.8281 5.8125V2H15.75V5.75C15.75 6.1875 15.8724 6.53646 16.1172 6.79688C16.3646 7.05729 16.6797 7.1875 17.0625 7.1875C17.2917 7.1875 17.5247 7.12891 17.7617 7.01172C18.0013 6.89453 18.2018 6.71484 18.3633 6.47266C18.5273 6.23047 18.6094 5.92187 18.6094 5.54687ZM21.3447 8V-2.38419e-07H22.2666V2.95312H22.3447C22.4124 2.84896 22.5062 2.71615 22.626 2.55469C22.7484 2.39062 22.9229 2.24479 23.1494 2.11719C23.3786 1.98698 23.6885 1.92188 24.0791 1.92188C24.5843 1.92188 25.0296 2.04818 25.415 2.30078C25.8005 2.55339 26.1012 2.91146 26.3174 3.375C26.5335 3.83854 26.6416 4.38542 26.6416 5.01563C26.6416 5.65104 26.5335 6.20182 26.3174 6.66797C26.1012 7.13151 25.8018 7.49089 25.4189 7.74609C25.0361 7.9987 24.5947 8.125 24.0947 8.125C23.7093 8.125 23.4007 8.0612 23.1689 7.93359C22.9372 7.80339 22.7588 7.65625 22.6338 7.49219C22.5088 7.32552 22.4124 7.1875 22.3447 7.07812H22.2354V8H21.3447ZM22.251 5C22.251 5.45312 22.3174 5.85286 22.4502 6.19922C22.583 6.54297 22.777 6.8125 23.0322 7.00781C23.2874 7.20052 23.5999 7.29688 23.9697 7.29688C24.3551 7.29688 24.6768 7.19531 24.9346 6.99219C25.195 6.78646 25.3903 6.51042 25.5205 6.16406C25.6533 5.8151 25.7197 5.42708 25.7197 5C25.7197 4.57812 25.6546 4.19792 25.5244 3.85937C25.3968 3.51823 25.2028 3.2487 24.9424 3.05078C24.6846 2.85026 24.3604 2.75 23.9697 2.75C23.5947 2.75 23.2796 2.84505 23.0244 3.03516C22.7692 3.22266 22.5765 3.48568 22.4463 3.82422C22.3161 4.16016 22.251 4.55208 22.251 5ZM30.4893 8.125C29.9476 8.125 29.4723 7.99609 29.0635 7.73828C28.6572 7.48047 28.3395 7.11979 28.1104 6.65625C27.8838 6.19271 27.7705 5.65104 27.7705 5.03125C27.7705 4.40625 27.8838 3.86068 28.1104 3.39453C28.3395 2.92839 28.6572 2.56641 29.0635 2.30859C29.4723 2.05078 29.9476 1.92188 30.4893 1.92188C31.0309 1.92188 31.5049 2.05078 31.9111 2.30859C32.32 2.56641 32.6377 2.92839 32.8643 3.39453C33.0934 3.86068 33.208 4.40625 33.208 5.03125C33.208 5.65104 33.0934 6.19271 32.8643 6.65625C32.6377 7.11979 32.32 7.48047 31.9111 7.73828C31.5049 7.99609 31.0309 8.125 30.4893 8.125ZM30.4893 7.29688C30.9007 7.29688 31.2393 7.19141 31.5049 6.98047C31.7705 6.76953 31.9671 6.49219 32.0947 6.14844C32.2223 5.80469 32.2861 5.43229 32.2861 5.03125C32.2861 4.63021 32.2223 4.25651 32.0947 3.91016C31.9671 3.5638 31.7705 3.28385 31.5049 3.07031C31.2393 2.85677 30.9007 2.75 30.4893 2.75C30.0778 2.75 29.7393 2.85677 29.4736 3.07031C29.208 3.28385 29.0114 3.5638 28.8838 3.91016C28.7562 4.25651 28.6924 4.63021 28.6924 5.03125C28.6924 5.43229 28.7562 5.80469 28.8838 6.14844C29.0114 6.49219 29.208 6.76953 29.4736 6.98047C29.7393 7.19141 30.0778 7.29688 30.4893 7.29688ZM50.7559 8.0625C50.5632 8.0625 50.3978 7.99349 50.2598 7.85547C50.1217 7.71745 50.0527 7.55208 50.0527 7.35937C50.0527 7.16667 50.1217 7.0013 50.2598 6.86328C50.3978 6.72526 50.5632 6.65625 50.7559 6.65625C50.9486 6.65625 51.1139 6.72526 51.252 6.86328C51.39 7.0013 51.459 7.16667 51.459 7.35937C51.459 7.48698 51.4264 7.60417 51.3613 7.71094C51.2988 7.81771 51.2142 7.90365 51.1074 7.96875C51.0033 8.03125 50.8861 8.0625 50.7559 8.0625ZM53.7852 8.0625C53.5924 8.0625 53.4271 7.99349 53.2891 7.85547C53.151 7.71745 53.082 7.55208 53.082 7.35937C53.082 7.16667 53.151 7.0013 53.2891 6.86328C53.4271 6.72526 53.5924 6.65625 53.7852 6.65625C53.9779 6.65625 54.1432 6.72526 54.2813 6.86328C54.4193 7.0013 54.4883 7.16667 54.4883 7.35937C54.4883 7.48698 54.4557 7.60417 54.3906 7.71094C54.3281 7.81771 54.2435 7.90365 54.1367 7.96875C54.0326 8.03125 53.9154 8.0625 53.7852 8.0625ZM56.8145 8.0625C56.6217 8.0625 56.4564 7.99349 56.3184 7.85547C56.1803 7.71745 56.1113 7.55208 56.1113 7.35937C56.1113 7.16667 56.1803 7.0013 56.3184 6.86328C56.4564 6.72526 56.6217 6.65625 56.8145 6.65625C57.0072 6.65625 57.1725 6.72526 57.3105 6.86328C57.4486 7.0013 57.5176 7.16667 57.5176 7.35937C57.5176 7.48698 57.485 7.60417 57.4199 7.71094C57.3574 7.81771 57.2728 7.90365 57.166 7.96875C57.0618 8.03125 56.9447 8.0625 56.8145 8.0625Z" fill="#8A7268"/>
</svg>
