<svg width="42" height="12" viewBox="0 0 42 12" fill="none" xmlns="http://www.w3.org/2000/svg">
<path d="M7.18788 4.45192C7.18788 3.98792 7.13588 3.51592 7.03188 3.03592C6.93588 2.55592 6.77588 2.11192 6.55188 1.70392C6.32788 1.29592 6.02788 0.96792 5.65188 0.71992C5.27588 0.46392 4.81188 0.33592 4.25988 0.33592C3.72388 0.33592 3.26788 0.46792 2.89188 0.73192C2.51588 0.995919 2.21188 1.33992 1.97988 1.76392C1.74788 2.17992 1.57588 2.63192 1.46388 3.11992C1.35988 3.59992 1.30788 4.06392 1.30788 4.51192C1.30788 4.98392 1.35588 5.45992 1.45188 5.93992C1.54788 6.41192 1.70788 6.84792 1.93188 7.24792C2.15588 7.63992 2.45588 7.95592 2.83188 8.19592C3.21588 8.43592 3.69188 8.55592 4.25988 8.55592C4.82788 8.55592 5.29988 8.43192 5.67588 8.18392C6.05188 7.93592 6.34788 7.61192 6.56388 7.21192C6.78788 6.80392 6.94788 6.35992 7.04388 5.87992C7.13988 5.39992 7.18788 4.92392 7.18788 4.45192ZM8.49588 4.41592C8.49588 5.30392 8.33188 6.08792 8.00388 6.76792C7.68388 7.43992 7.20788 7.96392 6.57588 8.33992C5.95188 8.71592 5.17988 8.90392 4.25988 8.90392C3.36388 8.90392 2.59588 8.72392 1.95588 8.36392C1.32388 7.99592 0.839881 7.48392 0.503881 6.82792C0.167881 6.16392 -0.00011912 5.39192 -0.00011912 4.51192C-0.00011912 3.89592 0.0998809 3.31592 0.299881 2.77192C0.499881 2.22792 0.787881 1.74792 1.16388 1.33192C1.53988 0.91592 1.98788 0.59192 2.50788 0.359919C3.03588 0.11992 3.61988 -8.03471e-05 4.25988 -8.03471e-05C5.15588 -8.03471e-05 5.91588 0.18792 6.53988 0.56392C7.17188 0.93192 7.65588 1.44792 7.99188 2.11192C8.32788 2.76792 8.49588 3.53592 8.49588 4.41592ZM14.7756 5.43592C14.7756 5.16392 14.7596 4.87992 14.7276 4.58392C14.6956 4.27992 14.6276 3.99592 14.5236 3.73192C14.4196 3.46792 14.2636 3.25592 14.0556 3.09592C13.8476 2.92792 13.5636 2.84392 13.2036 2.84392C12.9876 2.84392 12.7556 2.89992 12.5076 3.01192C12.2676 3.11592 12.0556 3.25992 11.8716 3.44392C11.6956 3.62792 11.5956 3.83992 11.5716 4.07992C11.5556 4.32792 11.5476 4.57992 11.5476 4.83592C11.5476 5.09192 11.5476 5.34792 11.5476 5.60392C11.5476 5.82792 11.5476 6.05592 11.5476 6.28792C11.5556 6.51192 11.5636 6.73992 11.5716 6.97192C11.5956 7.37992 11.7276 7.72792 11.9676 8.01592C12.2076 8.29592 12.5476 8.43592 12.9876 8.43592C13.4036 8.43592 13.7316 8.34392 13.9716 8.15992C14.2116 7.96792 14.3876 7.71992 14.4996 7.41592C14.6196 7.11192 14.6956 6.78792 14.7276 6.44392C14.7596 6.09192 14.7756 5.75592 14.7756 5.43592ZM16.0116 5.44792C16.0116 6.07192 15.8996 6.63592 15.6756 7.13992C15.4516 7.64392 15.1156 8.04392 14.6676 8.33992C14.2276 8.62792 13.6756 8.77192 13.0116 8.77192C12.7556 8.77192 12.4916 8.70792 12.2196 8.57992C11.9556 8.44392 11.7316 8.28792 11.5476 8.11192V10.6679C11.5476 10.7799 11.5916 10.8439 11.6796 10.8599C11.7756 10.8759 11.8636 10.8839 11.9436 10.8839C12.0156 10.8839 12.0876 10.8799 12.1596 10.8719C12.2316 10.8639 12.3036 10.8599 12.3756 10.8599C12.4796 10.8599 12.5316 10.9119 12.5316 11.0159C12.5316 11.1359 12.4716 11.1959 12.3516 11.1959C12.1036 11.1959 11.8556 11.1879 11.6076 11.1719C11.3596 11.1559 11.1116 11.1479 10.8636 11.1479C10.6556 11.1479 10.4476 11.1559 10.2396 11.1719C10.0396 11.1879 9.83563 11.1959 9.62763 11.1959C9.57163 11.1959 9.53563 11.1759 9.51963 11.1359C9.51163 11.0959 9.50763 11.0599 9.50763 11.0279C9.50763 10.9159 9.56363 10.8599 9.67563 10.8599C9.73963 10.8599 9.80363 10.8599 9.86763 10.8599C9.93163 10.8679 9.99563 10.8719 10.0596 10.8719C10.1156 10.8719 10.1956 10.8639 10.2996 10.8479C10.4116 10.8319 10.4676 10.7839 10.4676 10.7039C10.4676 9.87192 10.4676 9.03592 10.4676 8.19592C10.4756 7.35592 10.4796 6.51992 10.4796 5.68792C10.4796 5.31192 10.4756 4.93992 10.4676 4.57192C10.4676 4.20392 10.4636 3.83592 10.4556 3.46792C10.4476 3.29192 10.4156 3.17192 10.3596 3.10792C10.3036 3.03592 10.1836 2.99992 9.99963 2.99992C9.91963 2.99992 9.83963 3.01192 9.75963 3.03592C9.67963 3.05192 9.59963 3.05992 9.51963 3.05992C9.43163 3.05992 9.38763 3.01992 9.38763 2.93992C9.38763 2.86792 9.42363 2.81992 9.49563 2.79592C9.51163 2.78792 9.58363 2.77192 9.71163 2.74792C9.83963 2.72392 9.99163 2.69592 10.1676 2.66392C10.3516 2.62392 10.5316 2.58792 10.7076 2.55592C10.8836 2.52392 11.0316 2.49592 11.1516 2.47192C11.2716 2.44792 11.3356 2.43592 11.3436 2.43592C11.4076 2.43592 11.4516 2.47592 11.4756 2.55592C11.4916 2.60392 11.4996 2.69192 11.4996 2.81992C11.5076 2.93992 11.5116 3.06392 11.5116 3.19192C11.5116 3.31192 11.5116 3.40392 11.5116 3.46792C11.7356 3.17192 12.0196 2.92792 12.3636 2.73592C12.7156 2.53592 13.0796 2.43592 13.4556 2.43592C14.0076 2.43592 14.4716 2.58392 14.8476 2.87992C15.2316 3.16792 15.5196 3.54392 15.7116 4.00792C15.9116 4.46392 16.0116 4.94392 16.0116 5.44792ZM22.7244 7.40392C22.7244 7.43592 22.7164 7.46392 22.7004 7.48792C22.5244 7.75192 22.2924 7.98792 22.0044 8.19592C21.7164 8.40392 21.4044 8.57192 21.0684 8.69992C20.7404 8.81992 20.4204 8.87992 20.1084 8.87992C20.0524 8.87992 20.0004 8.87592 19.9524 8.86792C19.9044 8.86792 19.8564 8.86792 19.8084 8.86792C19.7284 8.99592 19.6444 9.11592 19.5564 9.22792C19.4764 9.33992 19.3964 9.45592 19.3164 9.57592C19.4444 9.55992 19.5684 9.54792 19.6884 9.53992C19.8164 9.53192 19.9444 9.52792 20.0724 9.52792C20.2244 9.52792 20.3884 9.53992 20.5644 9.56392C20.7484 9.59592 20.9044 9.65592 21.0324 9.74392C21.1684 9.83992 21.2364 9.98392 21.2364 10.1759C21.2364 10.3839 21.1764 10.5479 21.0564 10.6679C20.9444 10.7879 20.8004 10.8759 20.6244 10.9319C20.4484 10.9959 20.2644 11.0359 20.0724 11.0519C19.8804 11.0679 19.7084 11.0759 19.5564 11.0759C19.4044 11.0759 19.2364 11.0479 19.0524 10.9919C18.8764 10.9439 18.7164 10.8839 18.5724 10.8119C18.5244 10.7879 18.4404 10.7399 18.3204 10.6679C18.2084 10.5959 18.1524 10.5319 18.1524 10.4759C18.1524 10.4119 18.1804 10.3799 18.2364 10.3799C18.2604 10.3799 18.3164 10.3959 18.4044 10.4279C18.4924 10.4679 18.5524 10.4959 18.5844 10.5119C18.7364 10.5599 18.8924 10.5919 19.0524 10.6079C19.2204 10.6319 19.3804 10.6439 19.5324 10.6439C19.6204 10.6439 19.7444 10.6279 19.9044 10.5959C20.0644 10.5719 20.2084 10.5279 20.3364 10.4639C20.4724 10.3999 20.5404 10.3079 20.5404 10.1879C20.5404 10.0839 20.4924 10.0039 20.3964 9.94792C20.3084 9.89192 20.2084 9.84792 20.0964 9.81592C19.9844 9.79192 19.8884 9.77992 19.8084 9.77992C19.6404 9.77992 19.4764 9.79992 19.3164 9.83992C19.1644 9.87992 19.0084 9.92792 18.8484 9.98392C18.9364 9.77592 19.0284 9.57592 19.1244 9.38392C19.2284 9.19192 19.3244 8.99592 19.4124 8.79592C18.9164 8.69192 18.4924 8.49592 18.1404 8.20792C17.7884 7.91992 17.5204 7.56392 17.3364 7.13992C17.1524 6.71592 17.0604 6.25592 17.0604 5.75992C17.0604 5.16792 17.1804 4.61192 17.4204 4.09192C17.6604 3.57192 18.0364 3.15192 18.5484 2.83192C18.7724 2.69592 19.0204 2.58792 19.2924 2.50792C19.5644 2.42792 19.8284 2.38792 20.0844 2.38792C20.3884 2.38792 20.6884 2.45192 20.9844 2.57992C21.1204 2.63592 21.2644 2.69992 21.4164 2.77192C21.5684 2.83592 21.7164 2.86792 21.8604 2.86792C21.9244 2.86792 21.9844 2.85992 22.0404 2.84392C22.0964 2.82792 22.1524 2.81592 22.2084 2.80792C22.2244 3.05592 22.2404 3.30792 22.2564 3.56392C22.2724 3.81992 22.2844 4.07592 22.2924 4.33192V4.36792C22.2924 4.46392 22.2804 4.53192 22.2564 4.57192C22.2404 4.60392 22.1764 4.61992 22.0644 4.61992C22.0084 4.61992 21.9724 4.59192 21.9564 4.53592C21.9404 4.47992 21.9244 4.42792 21.9084 4.37992C21.8524 4.14792 21.7644 3.90792 21.6444 3.65992C21.5324 3.40392 21.3844 3.19592 21.2004 3.03592C21.0804 2.92392 20.9324 2.83192 20.7564 2.75992C20.5804 2.68792 20.4124 2.65192 20.2524 2.65192C19.8684 2.65192 19.5444 2.75192 19.2804 2.95192C19.0164 3.14392 18.8004 3.39592 18.6324 3.70792C18.4724 4.01192 18.3564 4.33992 18.2844 4.69192C18.2124 5.04392 18.1764 5.37592 18.1764 5.68792C18.1764 5.99992 18.2124 6.31592 18.2844 6.63592C18.3564 6.95592 18.4684 7.25592 18.6204 7.53592C18.7804 7.80792 18.9884 8.02792 19.2444 8.19592C19.5004 8.36392 19.8124 8.44792 20.1804 8.44792C20.6604 8.44792 21.0644 8.36792 21.3924 8.20792C21.7284 8.03992 22.0524 7.77992 22.3644 7.42792C22.3884 7.41192 22.4044 7.38792 22.4124 7.35592C22.4284 7.32392 22.4524 7.29992 22.4844 7.28392C22.5004 7.26792 22.5324 7.25992 22.5804 7.25992C22.6764 7.25992 22.7244 7.30792 22.7244 7.40392ZM28.6049 5.69992C28.6049 5.35592 28.5769 5.01192 28.5209 4.66792C28.4729 4.31592 28.3769 3.99192 28.2329 3.69592C28.0969 3.39992 27.8969 3.16392 27.6329 2.98792C27.3689 2.80392 27.0249 2.71192 26.6009 2.71192C26.2009 2.71192 25.8729 2.80792 25.6169 2.99992C25.3689 3.19192 25.1729 3.43992 25.0289 3.74392C24.8929 4.04792 24.7969 4.37592 24.7409 4.72792C24.6929 5.07992 24.6689 5.41192 24.6689 5.72392C24.6689 6.06792 24.6929 6.41192 24.7409 6.75592C24.7969 7.09992 24.8969 7.41192 25.0409 7.69192C25.1849 7.96392 25.3889 8.18392 25.6529 8.35192C25.9249 8.51992 26.2729 8.60392 26.6969 8.60392C27.1129 8.60392 27.4449 8.51592 27.6929 8.33992C27.9489 8.16392 28.1409 7.93192 28.2689 7.64392C28.4049 7.35592 28.4929 7.04392 28.5329 6.70792C28.5809 6.36392 28.6049 6.02792 28.6049 5.69992ZM29.8409 5.73592C29.8409 6.33592 29.6969 6.87592 29.4089 7.35592C29.1289 7.83592 28.7449 8.21592 28.2569 8.49592C27.7769 8.77592 27.2369 8.91592 26.6369 8.91592C26.0529 8.91592 25.5249 8.77592 25.0529 8.49592C24.5809 8.20792 24.2049 7.82792 23.9249 7.35592C23.6449 6.87592 23.5049 6.34392 23.5049 5.75992C23.5049 5.15992 23.6409 4.60792 23.9129 4.10392C24.1849 3.59192 24.5569 3.17992 25.0289 2.86792C25.5089 2.55592 26.0609 2.39992 26.6849 2.39992C27.3569 2.39992 27.9289 2.54392 28.4009 2.83192C28.8729 3.11192 29.2289 3.50392 29.4689 4.00792C29.7169 4.50392 29.8409 5.07992 29.8409 5.73592ZM28.5329 0.44392C28.3889 0.61992 28.2249 0.79992 28.0409 0.98392C27.8569 1.15992 27.6409 1.24792 27.3929 1.24792C27.2009 1.24792 27.0209 1.20392 26.8529 1.11592C26.6849 1.02792 26.5209 0.93992 26.3609 0.851919C26.2009 0.76392 26.0369 0.71992 25.8689 0.71992C25.7009 0.71992 25.5489 0.77992 25.4129 0.89992C25.2849 1.01192 25.1689 1.12392 25.0649 1.23592L24.8129 1.07992C24.9169 0.935919 25.0249 0.787919 25.1369 0.635919C25.2569 0.483919 25.3929 0.355919 25.5449 0.251919C25.6969 0.14792 25.8729 0.0959198 26.0729 0.0959198C26.2569 0.0959198 26.4289 0.13992 26.5889 0.22792C26.7489 0.30792 26.9129 0.391919 27.0809 0.479919C27.2489 0.567919 27.4289 0.61192 27.6209 0.61192C27.7729 0.61192 27.8969 0.57192 27.9929 0.49192C28.0969 0.403919 28.2009 0.307919 28.3049 0.203919L28.5329 0.44392ZM35.2903 4.65592C35.2823 4.32792 35.2543 4.01592 35.2063 3.71992C35.1583 3.41592 35.0423 3.16792 34.8583 2.97592C34.6743 2.77592 34.3743 2.67592 33.9583 2.67592C33.5823 2.67592 33.2743 2.77992 33.0343 2.98792C32.8023 3.18792 32.6223 3.44392 32.4943 3.75592C32.3663 4.05992 32.2703 4.37192 32.2063 4.69192C32.4063 4.69992 32.6023 4.70792 32.7943 4.71592C32.9863 4.71592 33.1783 4.71592 33.3703 4.71592C33.6903 4.71592 34.0103 4.71192 34.3303 4.70392C34.6503 4.68792 34.9703 4.67192 35.2903 4.65592ZM36.6703 7.40392C36.6703 7.44392 36.6623 7.46792 36.6463 7.47592C36.6223 7.55592 36.5623 7.65192 36.4663 7.76392C36.3783 7.87592 36.2783 7.98392 36.1663 8.08792C36.0543 8.18392 35.9623 8.25592 35.8903 8.30392C35.6263 8.48792 35.3263 8.63592 34.9903 8.74792C34.6623 8.85992 34.3343 8.91592 34.0063 8.91592C33.7343 8.91592 33.4303 8.87192 33.0943 8.78392C32.7663 8.69592 32.4863 8.57592 32.2543 8.42392C31.8063 8.12792 31.4783 7.73992 31.2703 7.25992C31.0623 6.77992 30.9583 6.27992 30.9583 5.75992C30.9583 5.16792 31.0743 4.61992 31.3063 4.11592C31.5383 3.61192 31.9103 3.20392 32.4223 2.89192C32.6543 2.75592 32.9143 2.64392 33.2023 2.55592C33.4903 2.45992 33.7663 2.41192 34.0303 2.41192C34.5023 2.41192 34.9183 2.50792 35.2783 2.69992C35.6383 2.89192 35.9183 3.16392 36.1183 3.51592C36.3263 3.85992 36.4303 4.27192 36.4303 4.75192C36.4303 4.88792 36.3983 4.97592 36.3343 5.01592C36.2783 5.05592 36.1903 5.07592 36.0703 5.07592C35.9103 5.07592 35.7503 5.07192 35.5903 5.06392C35.4303 5.05592 35.2703 5.04792 35.1103 5.03992C34.8863 5.02392 34.6623 5.01592 34.4383 5.01592C34.2223 5.01592 34.0023 5.01592 33.7783 5.01592C33.5063 5.01592 33.2343 5.01592 32.9623 5.01592C32.6903 5.01592 32.4183 5.02392 32.1463 5.03992C32.1383 5.16792 32.1303 5.29192 32.1223 5.41192C32.1143 5.53192 32.1103 5.65592 32.1103 5.78392C32.1103 6.07992 32.1463 6.38792 32.2183 6.70792C32.2903 7.01992 32.4063 7.31192 32.5663 7.58392C32.7263 7.84792 32.9303 8.06392 33.1783 8.23192C33.4263 8.39192 33.7263 8.47192 34.0783 8.47192C34.4383 8.47192 34.7823 8.41592 35.1103 8.30392C35.4383 8.19192 35.7383 8.01192 36.0103 7.76392C36.0823 7.69192 36.1463 7.61592 36.2023 7.53592C36.2663 7.44792 36.3343 7.37192 36.4063 7.30792C36.4463 7.26792 36.4903 7.24792 36.5383 7.24792C36.5783 7.24792 36.6103 7.26392 36.6343 7.29592C36.6583 7.32792 36.6703 7.36392 36.6703 7.40392ZM41.9014 7.15192C41.9014 7.51192 41.8213 7.80792 41.6613 8.03992C41.5013 8.26392 41.2933 8.43592 41.0373 8.55592C40.7813 8.67592 40.5013 8.75992 40.1973 8.80792C39.8933 8.85592 39.5973 8.87992 39.3093 8.87992C39.0453 8.87992 38.7813 8.85192 38.5173 8.79592C38.2613 8.73992 38.0013 8.69992 37.7373 8.67592C37.6813 8.45992 37.6253 8.24392 37.5693 8.02792C37.5213 7.81192 37.4653 7.59992 37.4013 7.39192C37.3933 7.36792 37.3733 7.31192 37.3413 7.22392C37.3173 7.13592 37.3053 7.08792 37.3053 7.07992C37.3053 7.01592 37.3253 6.97192 37.3653 6.94792C37.4053 6.91592 37.4533 6.89992 37.5093 6.89992C37.5653 6.89992 37.6053 6.91992 37.6293 6.95992C37.6773 7.01592 37.7173 7.09192 37.7493 7.18792C37.7893 7.28392 37.8253 7.36792 37.8573 7.43992C37.9213 7.56792 37.9773 7.66792 38.0253 7.73992C38.0733 7.80392 38.1493 7.88792 38.2533 7.99192C38.5653 8.31992 38.9533 8.48392 39.4173 8.48392C39.6733 8.48392 39.9053 8.45592 40.1133 8.39992C40.3293 8.34392 40.5013 8.23992 40.6293 8.08792C40.7573 7.92792 40.8213 7.69992 40.8213 7.40392C40.8213 7.14792 40.7413 6.93592 40.5813 6.76792C40.4213 6.59192 40.2133 6.43592 39.9573 6.29992C39.7093 6.16392 39.4453 6.03192 39.1653 5.90392C38.8853 5.77592 38.6173 5.63592 38.3613 5.48392C38.1133 5.32392 37.9093 5.13192 37.7493 4.90792C37.5893 4.68392 37.5093 4.41192 37.5093 4.09192C37.5093 3.69992 37.6093 3.37992 37.8093 3.13192C38.0173 2.88392 38.2813 2.69992 38.6013 2.57992C38.9213 2.45192 39.2533 2.38792 39.5973 2.38792C39.8213 2.38792 40.0213 2.41592 40.1973 2.47192C40.3813 2.52792 40.5733 2.59192 40.7733 2.66392C40.8373 2.68792 40.9013 2.70392 40.9653 2.71192C41.0293 2.71992 41.0933 2.72392 41.1573 2.72392C41.1973 2.72392 41.2333 2.72392 41.2653 2.72392C41.2973 2.72392 41.3293 2.71992 41.3613 2.71192C41.3853 2.85592 41.4053 3.00392 41.4213 3.15592C41.4453 3.29992 41.4653 3.44792 41.4813 3.59992C41.4893 3.65592 41.4973 3.72392 41.5053 3.80392C41.5213 3.87592 41.5293 3.94392 41.5293 4.00792C41.5293 4.06392 41.5173 4.12392 41.4933 4.18792C41.4693 4.24392 41.4213 4.27192 41.3493 4.27192C41.2933 4.27192 41.2453 4.26792 41.2053 4.25992C41.1733 4.24392 41.1453 4.20792 41.1213 4.15192C41.0813 4.07192 41.0453 3.98792 41.0133 3.89992C40.9893 3.80392 40.9613 3.71592 40.9293 3.63592C40.8253 3.35592 40.6453 3.13192 40.3893 2.96392C40.1333 2.78792 39.8573 2.69992 39.5613 2.69992C39.1853 2.69992 38.9013 2.81192 38.7093 3.03592C38.5173 3.25192 38.4213 3.54392 38.4213 3.91192C38.4213 4.03992 38.4533 4.16392 38.5173 4.28392C38.5893 4.40392 38.6693 4.50792 38.7573 4.59592C38.9253 4.75592 39.1213 4.87992 39.3453 4.96792C39.5773 5.05592 39.7973 5.14392 40.0053 5.23192C40.2773 5.35192 40.5573 5.49592 40.8453 5.66392C41.1413 5.83192 41.3893 6.03592 41.5893 6.27592C41.7973 6.51592 41.9014 6.80792 41.9014 7.15192Z" fill="#8A7268"/>
</svg>
