<svg width="99" height="14" viewBox="0 0 99 14" fill="none" xmlns="http://www.w3.org/2000/svg">
<path d="M12.114 3.61798C12.114 3.78598 12.042 3.86998 11.898 3.86998C11.85 3.86998 11.808 3.86998 11.772 3.86998C11.736 3.85798 11.706 3.82798 11.682 3.77998C11.67 3.75598 11.652 3.70198 11.628 3.61798C11.616 3.52198 11.61 3.45598 11.61 3.41998C11.55 3.05998 11.46 2.66398 11.34 2.23198C11.232 1.78798 11.058 1.42798 10.818 1.15198C10.698 1.00798 10.494 0.911978 10.206 0.863978C9.91801 0.815978 9.62401 0.791978 9.32401 0.791978C9.02401 0.791978 8.79001 0.791978 8.62201 0.791978C8.44201 0.791978 8.22001 0.791978 7.95601 0.791978C7.70401 0.791978 7.47601 0.839978 7.27201 0.935978C7.08001 1.03198 6.98401 1.22398 6.98401 1.51198C6.98401 3.32398 6.99001 5.14198 7.00201 6.96598C7.02601 8.77798 7.03801 10.596 7.03801 12.42C7.03801 12.576 7.10401 12.696 7.23601 12.78C7.36801 12.852 7.51801 12.9 7.68601 12.924C7.85401 12.948 7.99201 12.96 8.10001 12.96C8.19601 12.96 8.28001 12.96 8.35201 12.96C8.43601 12.948 8.52001 12.942 8.60401 12.942C8.72401 12.942 8.78401 12.996 8.78401 13.104C8.78401 13.152 8.78401 13.224 8.78401 13.32C8.78401 13.404 8.74201 13.446 8.65801 13.446C8.22601 13.446 7.79401 13.44 7.36201 13.428C6.94201 13.404 6.51601 13.392 6.08401 13.392C5.50801 13.392 4.92001 13.41 4.32001 13.446C4.18801 13.446 4.05001 13.452 3.90601 13.464C3.76201 13.476 3.62401 13.482 3.49201 13.482C3.38401 13.482 3.33001 13.416 3.33001 13.284C3.33001 13.14 3.34801 13.05 3.38401 13.014C3.42001 12.978 3.50401 12.96 3.63601 12.96C3.66001 12.96 3.68401 12.966 3.70801 12.978C3.74401 12.978 3.76801 12.978 3.78001 12.978C3.91201 12.978 4.08001 12.966 4.28401 12.942C4.48801 12.918 4.66801 12.87 4.82401 12.798C4.99201 12.714 5.07601 12.588 5.07601 12.42C5.08801 11.496 5.09401 10.572 5.09401 9.64798C5.10601 8.72398 5.11201 7.79998 5.11201 6.87598C5.11201 5.96398 5.10601 5.05798 5.09401 4.15798C5.08201 3.24598 5.07601 2.33398 5.07601 1.42198C5.07601 1.27798 5.01601 1.14598 4.89601 1.02598C4.78801 0.905978 4.66801 0.839978 4.53601 0.827978C4.42801 0.803978 4.31401 0.791978 4.19401 0.791978C4.08601 0.791978 3.97201 0.791978 3.85201 0.791978H2.25001C1.81801 0.791978 1.49401 0.899978 1.27801 1.11598C1.07401 1.31998 0.930013 1.58998 0.846013 1.92598C0.762013 2.24998 0.684013 2.58598 0.612013 2.93398C0.612013 2.95798 0.594013 3.04198 0.558013 3.18598C0.534013 3.31798 0.504013 3.44998 0.468013 3.58198C0.444013 3.70198 0.426013 3.76798 0.414013 3.77998C0.366013 3.83998 0.294013 3.86998 0.198013 3.86998C0.0660127 3.86998 1.27051e-05 3.80398 1.27051e-05 3.67198C1.27051e-05 3.62398 1.27051e-05 3.56398 1.27051e-05 3.49198C0.0120127 3.40798 0.0240127 3.31198 0.0360127 3.20398C0.0600127 2.92798 0.0780127 2.59798 0.0900127 2.21398C0.114013 1.81798 0.132013 1.45198 0.144013 1.11598C0.156013 0.995978 0.162013 0.875978 0.162013 0.755978C0.162013 0.635978 0.168013 0.527978 0.180013 0.431977C0.180013 0.263977 0.282013 0.191978 0.486013 0.215978C1.36201 0.299978 2.24401 0.341977 3.13201 0.341977C4.03201 0.329978 4.92001 0.323978 5.79601 0.323978H7.32601C7.81801 0.323978 8.31001 0.323978 8.80201 0.323978C9.30601 0.311978 9.81001 0.299978 10.314 0.287978C10.53 0.275978 10.752 0.269978 10.98 0.269978C11.22 0.257978 11.454 0.251978 11.682 0.251978C11.838 0.251978 11.928 0.311978 11.952 0.431977C11.964 0.467978 11.976 0.599978 11.988 0.827978C12 1.04398 12.012 1.29598 12.024 1.58398C12.036 1.85998 12.042 2.12398 12.042 2.37598C12.054 2.61598 12.06 2.78398 12.06 2.87998C12.072 2.99998 12.084 3.11998 12.096 3.23998C12.108 3.35998 12.114 3.48598 12.114 3.61798ZM20.0957 5.41798C20.0957 5.53798 20.0477 5.65198 19.9517 5.75998C19.8677 5.85598 19.7597 5.90398 19.6277 5.90398C19.4477 5.90398 19.3157 5.84398 19.2317 5.72398C19.1597 5.60398 19.0937 5.46598 19.0337 5.30998C18.9857 5.15398 18.9077 5.01598 18.7997 4.89598C18.6917 4.77598 18.5117 4.71598 18.2597 4.71598C18.2117 4.71598 18.1637 4.71598 18.1157 4.71598C18.0797 4.71598 18.0377 4.72198 17.9897 4.73398C17.7857 4.76998 17.5637 4.89598 17.3237 5.11198C17.0837 5.32798 16.8497 5.58598 16.6217 5.88598C16.4057 6.17398 16.2257 6.46198 16.0817 6.74998C15.9377 7.03798 15.8597 7.27798 15.8477 7.46998C15.8357 7.66198 15.8297 7.85398 15.8297 8.04598C15.8297 8.22598 15.8297 8.40598 15.8297 8.58598C15.8297 9.23398 15.8297 9.88198 15.8297 10.53C15.8417 11.178 15.8477 11.82 15.8477 12.456C15.8477 12.636 15.9197 12.768 16.0637 12.852C16.2197 12.924 16.3757 12.96 16.5317 12.96C16.6517 12.96 16.7717 12.954 16.8917 12.942C17.0117 12.93 17.1317 12.924 17.2517 12.924C17.3117 12.924 17.3537 12.954 17.3777 13.014C17.4017 13.062 17.4137 13.11 17.4137 13.158C17.4137 13.35 17.3177 13.446 17.1257 13.446C16.7657 13.446 16.4057 13.44 16.0457 13.428C15.6857 13.404 15.3257 13.392 14.9657 13.392C14.5937 13.392 14.2157 13.404 13.8317 13.428C13.4597 13.452 13.0817 13.464 12.6977 13.464C12.6497 13.464 12.6137 13.428 12.5897 13.356C12.5777 13.284 12.5717 13.224 12.5717 13.176C12.5717 13.056 12.6197 12.99 12.7157 12.978C12.8477 12.954 12.9857 12.948 13.1297 12.96C13.2737 12.972 13.4057 12.978 13.5257 12.978C13.7057 12.978 13.8497 12.942 13.9577 12.87C14.0777 12.786 14.1437 12.648 14.1557 12.456C14.1797 12.072 14.1917 11.682 14.1917 11.286C14.2037 10.89 14.2097 10.494 14.2097 10.098V8.35198C14.1977 7.83598 14.1917 7.32598 14.1917 6.82198C14.2037 6.30598 14.1857 5.79598 14.1377 5.29198C14.1257 5.05198 14.0597 4.88398 13.9397 4.78798C13.8197 4.67998 13.6397 4.62598 13.3997 4.62598C13.3037 4.62598 13.2017 4.63798 13.0937 4.66198C12.9977 4.67398 12.8957 4.67998 12.7877 4.67998C12.6917 4.67998 12.6437 4.60798 12.6437 4.46398C12.6437 4.37998 12.6857 4.31998 12.7697 4.28398C12.8897 4.24798 13.0157 4.22398 13.1477 4.21198C13.2797 4.18798 13.4057 4.16998 13.5257 4.15798C13.8497 4.09798 14.1737 4.03798 14.4977 3.97798C14.8217 3.91798 15.1457 3.84598 15.4697 3.76198C15.5777 3.79798 15.6557 3.86398 15.7037 3.95998C15.7277 4.00798 15.7457 4.13998 15.7577 4.35598C15.7697 4.57198 15.7757 4.82398 15.7757 5.11198C15.7757 5.38798 15.7757 5.65198 15.7757 5.90398C15.7757 6.14398 15.7757 6.31198 15.7757 6.40798C16.0397 5.98798 16.3397 5.56798 16.6757 5.14798C17.0117 4.72798 17.3957 4.37998 17.8277 4.10398C18.2597 3.82798 18.7457 3.68998 19.2857 3.68998C19.5737 3.68998 19.7597 3.77998 19.8437 3.95998C19.9277 4.13998 19.9817 4.34998 20.0057 4.58998C20.0297 4.72198 20.0477 4.85998 20.0597 5.00398C20.0837 5.14798 20.0957 5.28598 20.0957 5.41798ZM28.7418 8.67598C28.7418 8.15998 28.6998 7.64398 28.6158 7.12798C28.5438 6.59998 28.3998 6.11398 28.1838 5.66998C27.9798 5.22598 27.6798 4.87198 27.2838 4.60798C26.8878 4.33198 26.3718 4.19398 25.7358 4.19398C25.1358 4.19398 24.6438 4.33798 24.2598 4.62598C23.8878 4.91398 23.5938 5.28598 23.3778 5.74198C23.1738 6.19798 23.0298 6.68998 22.9458 7.21798C22.8738 7.74598 22.8378 8.24398 22.8378 8.71198C22.8378 9.22798 22.8738 9.74398 22.9458 10.26C23.0298 10.776 23.1798 11.244 23.3958 11.664C23.6118 12.072 23.9178 12.402 24.3138 12.654C24.7218 12.906 25.2438 13.032 25.8798 13.032C26.5038 13.032 27.0018 12.9 27.3738 12.636C27.7578 12.372 28.0458 12.024 28.2378 11.592C28.4418 11.16 28.5738 10.692 28.6338 10.188C28.7058 9.67198 28.7418 9.16798 28.7418 8.67598ZM30.5958 8.72998C30.5958 9.62998 30.3798 10.44 29.9478 11.16C29.5278 11.88 28.9518 12.45 28.2198 12.87C27.4998 13.29 26.6898 13.5 25.7898 13.5C24.9138 13.5 24.1218 13.29 23.4138 12.87C22.7058 12.438 22.1418 11.868 21.7218 11.16C21.3018 10.44 21.0918 9.64198 21.0918 8.76598C21.0918 7.86598 21.2958 7.03798 21.7038 6.28198C22.1118 5.51398 22.6698 4.89598 23.3778 4.42798C24.0978 3.95998 24.9258 3.72598 25.8618 3.72598C26.8698 3.72598 27.7278 3.94198 28.4358 4.37398C29.1438 4.79398 29.6778 5.38198 30.0378 6.13798C30.4098 6.88198 30.5958 7.74598 30.5958 8.72998ZM40.8759 11.196C40.8759 11.28 40.8099 11.4 40.6779 11.556C40.5459 11.7 40.4499 11.802 40.3899 11.862C40.2819 11.97 40.1739 12.078 40.0659 12.186C39.9579 12.294 39.8379 12.396 39.7059 12.492C39.3339 12.756 38.8899 12.984 38.3739 13.176C37.8579 13.356 37.3719 13.446 36.9159 13.446C36.0039 13.446 35.1999 13.248 34.5039 12.852C33.8199 12.444 33.2799 11.892 32.8839 11.196C32.4999 10.488 32.3079 9.68398 32.3079 8.78398C32.3079 7.89598 32.4879 7.06198 32.8479 6.28198C33.2079 5.50198 33.7779 4.87198 34.5579 4.39198C34.8939 4.18798 35.2659 4.02598 35.6739 3.90598C36.0939 3.78598 36.4959 3.72598 36.8799 3.72598C37.1799 3.72598 37.4679 3.76198 37.7439 3.83398C38.0319 3.90598 38.3079 4.00198 38.5719 4.12198C38.7279 4.19398 38.8779 4.26598 39.0219 4.33798C39.1659 4.40998 39.3219 4.44598 39.4899 4.44598C39.6339 4.44598 39.7479 4.40398 39.8319 4.31998C39.9279 4.22398 39.9999 4.17598 40.0479 4.17598C40.0839 4.17598 40.1019 4.19998 40.1019 4.24798C40.1259 4.39198 40.1319 4.53598 40.1199 4.67998C40.1199 4.82398 40.1259 4.96198 40.1379 5.09398C40.1499 5.35798 40.1619 5.62198 40.1739 5.88598C40.1859 6.14998 40.1979 6.41398 40.2099 6.67798V6.73198C40.2219 6.86398 40.2099 6.96598 40.1739 7.03798C40.1379 7.10998 40.0419 7.14598 39.8859 7.14598C39.8019 7.14598 39.7419 7.09798 39.7059 7.00198C39.6819 6.90598 39.6579 6.82198 39.6339 6.74998C39.5499 6.40198 39.4239 6.02998 39.2559 5.63398C39.0879 5.23798 38.8599 4.91998 38.5719 4.67998C38.3919 4.51198 38.1639 4.37398 37.8879 4.26598C37.6239 4.15798 37.3719 4.10398 37.1319 4.10398C36.5559 4.10398 36.0639 4.25398 35.6559 4.55398C35.2599 4.84198 34.9419 5.21998 34.7019 5.68798C34.4619 6.14398 34.2819 6.63598 34.1619 7.16398C34.0539 7.69198 33.9999 8.18998 33.9999 8.65798C33.9999 9.12598 34.0539 9.60598 34.1619 10.098C34.2699 10.578 34.4379 11.028 34.6659 11.448C34.9059 11.868 35.2179 12.204 35.6019 12.456C35.9979 12.708 36.4719 12.834 37.0239 12.834C37.7919 12.834 38.4339 12.696 38.9499 12.42C39.4659 12.132 39.9639 11.694 40.4439 11.106C40.4919 11.022 40.5579 10.98 40.6419 10.98C40.7979 10.98 40.8759 11.052 40.8759 11.196ZM47.6626 11.322C47.6146 10.782 47.5846 10.242 47.5726 9.70198C47.5726 9.14998 47.5666 8.59798 47.5546 8.04598H47.3026C46.9306 8.04598 46.5166 8.10598 46.0606 8.22598C45.6166 8.33398 45.1906 8.50198 44.7826 8.72998C44.3746 8.95798 44.0386 9.24598 43.7746 9.59398C43.5226 9.92998 43.3966 10.32 43.3966 10.764C43.3966 11.34 43.5586 11.778 43.8826 12.078C44.2066 12.366 44.6446 12.51 45.1966 12.51C45.4606 12.51 45.7486 12.45 46.0606 12.33C46.3726 12.198 46.6726 12.042 46.9606 11.862C47.2486 11.682 47.4826 11.502 47.6626 11.322ZM50.8126 12.474C50.8126 12.522 50.8066 12.558 50.7946 12.582C50.6746 12.846 50.4706 13.05 50.1826 13.194C49.9066 13.326 49.6306 13.392 49.3546 13.392C48.8506 13.392 48.4846 13.248 48.2566 12.96C48.0406 12.66 47.8666 12.294 47.7346 11.862C47.2786 12.282 46.7746 12.636 46.2226 12.924C45.6706 13.2 45.0766 13.338 44.4406 13.338C43.9966 13.338 43.5766 13.254 43.1806 13.086C42.7966 12.906 42.4846 12.648 42.2446 12.312C42.0046 11.976 41.8846 11.568 41.8846 11.088C41.8846 10.584 42.0106 10.152 42.2626 9.79198C42.5266 9.41998 42.8566 9.10798 43.2526 8.85598C43.6606 8.59198 44.0926 8.38198 44.5486 8.22598C45.0166 8.05798 45.4546 7.93198 45.8626 7.84798C46.1386 7.78798 46.4206 7.73398 46.7086 7.68598C46.9966 7.63798 47.2786 7.58998 47.5546 7.54198C47.5546 7.20598 47.5366 6.81598 47.5006 6.37198C47.4766 5.92798 47.3866 5.56198 47.2306 5.27398C47.0746 4.99798 46.8646 4.75198 46.6006 4.53598C46.3366 4.31998 46.0426 4.21198 45.7186 4.21198C45.1666 4.21198 44.7346 4.35598 44.4226 4.64398C44.1106 4.93198 43.8886 5.33998 43.7566 5.86798C43.7446 5.92798 43.7326 5.99398 43.7206 6.06598C43.7206 6.12598 43.7146 6.18598 43.7026 6.24598C43.6906 6.31798 43.6426 6.38398 43.5586 6.44398C43.4866 6.49198 43.4086 6.51598 43.3246 6.51598C43.0966 6.51598 42.8866 6.46198 42.6946 6.35398C42.5146 6.24598 42.4246 6.06598 42.4246 5.81398C42.4246 5.66998 42.4486 5.54398 42.4966 5.43598C42.6526 5.06398 42.9046 4.75798 43.2526 4.51798C43.6006 4.26598 43.9846 4.07398 44.4046 3.94198C44.8366 3.80998 45.2386 3.74398 45.6106 3.74398C46.2586 3.74398 46.8466 3.86398 47.3746 4.10398C47.9026 4.34398 48.3226 4.69798 48.6346 5.16598C48.9586 5.62198 49.1206 6.19798 49.1206 6.89398C49.1206 7.67398 49.1146 8.45998 49.1026 9.25198C49.1026 10.044 49.1266 10.836 49.1746 11.628C49.1866 11.892 49.2406 12.126 49.3366 12.33C49.4326 12.522 49.6306 12.618 49.9306 12.618C50.0866 12.618 50.2486 12.582 50.4166 12.51C50.5966 12.426 50.7106 12.384 50.7586 12.384C50.7946 12.384 50.8126 12.414 50.8126 12.474ZM58.7676 5.41798C58.7676 5.53798 58.7196 5.65198 58.6236 5.75998C58.5396 5.85598 58.4316 5.90398 58.2996 5.90398C58.1196 5.90398 57.9876 5.84398 57.9036 5.72398C57.8316 5.60398 57.7656 5.46598 57.7056 5.30998C57.6576 5.15398 57.5796 5.01598 57.4716 4.89598C57.3636 4.77598 57.1836 4.71598 56.9316 4.71598C56.8836 4.71598 56.8356 4.71598 56.7876 4.71598C56.7516 4.71598 56.7096 4.72198 56.6616 4.73398C56.4576 4.76998 56.2356 4.89598 55.9956 5.11198C55.7556 5.32798 55.5216 5.58598 55.2936 5.88598C55.0776 6.17398 54.8976 6.46198 54.7536 6.74998C54.6096 7.03798 54.5316 7.27798 54.5196 7.46998C54.5076 7.66198 54.5016 7.85398 54.5016 8.04598C54.5016 8.22598 54.5016 8.40598 54.5016 8.58598C54.5016 9.23398 54.5016 9.88198 54.5016 10.53C54.5136 11.178 54.5196 11.82 54.5196 12.456C54.5196 12.636 54.5916 12.768 54.7356 12.852C54.8916 12.924 55.0476 12.96 55.2036 12.96C55.3236 12.96 55.4436 12.954 55.5636 12.942C55.6836 12.93 55.8036 12.924 55.9236 12.924C55.9836 12.924 56.0256 12.954 56.0496 13.014C56.0736 13.062 56.0856 13.11 56.0856 13.158C56.0856 13.35 55.9896 13.446 55.7976 13.446C55.4376 13.446 55.0776 13.44 54.7176 13.428C54.3576 13.404 53.9976 13.392 53.6376 13.392C53.2656 13.392 52.8876 13.404 52.5036 13.428C52.1316 13.452 51.7536 13.464 51.3696 13.464C51.3216 13.464 51.2856 13.428 51.2616 13.356C51.2496 13.284 51.2436 13.224 51.2436 13.176C51.2436 13.056 51.2916 12.99 51.3876 12.978C51.5196 12.954 51.6576 12.948 51.8016 12.96C51.9456 12.972 52.0776 12.978 52.1976 12.978C52.3776 12.978 52.5216 12.942 52.6296 12.87C52.7496 12.786 52.8156 12.648 52.8276 12.456C52.8516 12.072 52.8636 11.682 52.8636 11.286C52.8756 10.89 52.8816 10.494 52.8816 10.098V8.35198C52.8696 7.83598 52.8636 7.32598 52.8636 6.82198C52.8756 6.30598 52.8576 5.79598 52.8096 5.29198C52.7976 5.05198 52.7316 4.88398 52.6116 4.78798C52.4916 4.67998 52.3116 4.62598 52.0716 4.62598C51.9756 4.62598 51.8736 4.63798 51.7656 4.66198C51.6696 4.67398 51.5676 4.67998 51.4596 4.67998C51.3636 4.67998 51.3156 4.60798 51.3156 4.46398C51.3156 4.37998 51.3576 4.31998 51.4416 4.28398C51.5616 4.24798 51.6876 4.22398 51.8196 4.21198C51.9516 4.18798 52.0776 4.16998 52.1976 4.15798C52.5216 4.09798 52.8456 4.03798 53.1696 3.97798C53.4936 3.91798 53.8176 3.84598 54.1416 3.76198C54.2496 3.79798 54.3276 3.86398 54.3756 3.95998C54.3996 4.00798 54.4176 4.13998 54.4296 4.35598C54.4416 4.57198 54.4476 4.82398 54.4476 5.11198C54.4476 5.38798 54.4476 5.65198 54.4476 5.90398C54.4476 6.14398 54.4476 6.31198 54.4476 6.40798C54.7116 5.98798 55.0116 5.56798 55.3476 5.14798C55.6836 4.72798 56.0676 4.37998 56.4996 4.10398C56.9316 3.82798 57.4176 3.68998 57.9576 3.68998C58.2456 3.68998 58.4316 3.77998 58.5156 3.95998C58.5996 4.13998 58.6536 4.34998 58.6776 4.58998C58.7016 4.72198 58.7196 4.85998 58.7316 5.00398C58.7556 5.14798 58.7676 5.28598 58.7676 5.41798ZM70.7977 2.03398C70.7977 2.12998 70.7557 2.21998 70.6717 2.30398C70.5877 2.38798 70.4977 2.42998 70.4017 2.42998C70.2337 2.42998 70.1197 2.35798 70.0597 2.21398C69.9997 2.04598 69.9337 1.87798 69.8617 1.70998C69.8017 1.54198 69.7417 1.37398 69.6817 1.20598C69.5857 0.965978 69.4477 0.773978 69.2677 0.629978C69.0997 0.473978 68.8777 0.395978 68.6017 0.395978C68.1457 0.395978 67.8037 0.557978 67.5757 0.881978C67.3597 1.19398 67.2517 1.55998 67.2517 1.97998C67.2517 2.38798 67.2517 2.79598 67.2517 3.20398C67.2517 3.61198 67.2577 4.02598 67.2697 4.44598C67.6537 4.44598 68.0377 4.44598 68.4217 4.44598C68.8057 4.43398 69.1897 4.42798 69.5737 4.42798C69.6577 4.42798 69.7177 4.46398 69.7537 4.53598C69.8017 4.59598 69.8257 4.66198 69.8257 4.73398C69.8257 4.81798 69.8077 4.88998 69.7717 4.94998C69.7357 5.00998 69.6697 5.03998 69.5737 5.03998C69.3337 5.03998 69.0937 5.03998 68.8537 5.03998C68.6137 5.02798 68.3737 5.02198 68.1337 5.02198H67.3237V11.988C67.3237 12.252 67.3837 12.492 67.5037 12.708C67.6237 12.912 67.8337 13.014 68.1337 13.014C68.2657 13.014 68.3917 13.008 68.5117 12.996C68.6437 12.972 68.7697 12.96 68.8897 12.96C68.9617 12.96 69.0097 12.996 69.0337 13.068C69.0697 13.128 69.0877 13.188 69.0877 13.248C69.0877 13.38 69.0217 13.446 68.8897 13.446C68.4817 13.446 68.0677 13.44 67.6477 13.428C67.2397 13.404 66.8317 13.392 66.4237 13.392C66.1957 13.392 65.9737 13.392 65.7577 13.392C65.5417 13.392 65.3257 13.398 65.1097 13.41C64.9537 13.422 64.8037 13.434 64.6597 13.446C64.5157 13.458 64.3657 13.464 64.2097 13.464C64.0297 13.464 63.9397 13.392 63.9397 13.248C63.9397 13.116 63.9817 13.044 64.0657 13.032C64.1497 13.008 64.2337 12.996 64.3177 12.996C64.4017 12.996 64.4797 13.002 64.5517 13.014C64.6357 13.014 64.7197 13.014 64.8037 13.014C65.1517 13.014 65.3737 12.918 65.4697 12.726C65.5777 12.534 65.6317 12.288 65.6317 11.988V5.00398H64.6057C64.5217 5.00398 64.4257 5.01598 64.3177 5.03998C64.2217 5.05198 64.1377 5.08198 64.0657 5.12998C64.0537 5.14198 64.0357 5.15998 64.0117 5.18398C63.9997 5.20798 63.9817 5.21998 63.9577 5.21998C63.8617 5.21998 63.8137 5.18398 63.8137 5.11198C63.8137 5.08798 63.8257 4.99798 63.8497 4.84198C63.8857 4.67398 63.9097 4.58398 63.9217 4.57198C63.9457 4.51198 63.9757 4.48198 64.0117 4.48198C64.0477 4.46998 64.0897 4.46398 64.1377 4.46398C64.2217 4.46398 64.2997 4.46998 64.3717 4.48198C64.4437 4.48198 64.5217 4.48198 64.6057 4.48198H65.5957C65.5957 4.22998 65.5957 3.97798 65.5957 3.72598C65.5957 3.47398 65.5957 3.22198 65.5957 2.96998C65.5957 1.86598 65.8837 1.09798 66.4597 0.665978C67.0477 0.221978 67.8577 -2.24113e-05 68.8897 -2.24113e-05C69.2017 -2.24113e-05 69.5017 0.0659778 69.7897 0.197978C70.0777 0.317978 70.3777 0.377978 70.6897 0.377978C70.7017 0.653978 70.7197 0.929978 70.7437 1.20598C70.7797 1.48198 70.7977 1.75798 70.7977 2.03398ZM78.9273 8.67598C78.9273 8.15998 78.8853 7.64398 78.8013 7.12798C78.7293 6.59998 78.5853 6.11398 78.3693 5.66998C78.1653 5.22598 77.8653 4.87198 77.4693 4.60798C77.0733 4.33198 76.5573 4.19398 75.9213 4.19398C75.3213 4.19398 74.8293 4.33798 74.4453 4.62598C74.0733 4.91398 73.7793 5.28598 73.5633 5.74198C73.3593 6.19798 73.2153 6.68998 73.1313 7.21798C73.0593 7.74598 73.0233 8.24398 73.0233 8.71198C73.0233 9.22798 73.0593 9.74398 73.1313 10.26C73.2153 10.776 73.3653 11.244 73.5813 11.664C73.7973 12.072 74.1033 12.402 74.4993 12.654C74.9073 12.906 75.4293 13.032 76.0653 13.032C76.6893 13.032 77.1873 12.9 77.5593 12.636C77.9433 12.372 78.2313 12.024 78.4233 11.592C78.6273 11.16 78.7593 10.692 78.8193 10.188C78.8913 9.67198 78.9273 9.16798 78.9273 8.67598ZM80.7813 8.72998C80.7813 9.62998 80.5653 10.44 80.1333 11.16C79.7133 11.88 79.1373 12.45 78.4053 12.87C77.6853 13.29 76.8753 13.5 75.9753 13.5C75.0993 13.5 74.3073 13.29 73.5993 12.87C72.8913 12.438 72.3273 11.868 71.9073 11.16C71.4873 10.44 71.2773 9.64198 71.2773 8.76598C71.2773 7.86598 71.4813 7.03798 71.8893 6.28198C72.2973 5.51398 72.8553 4.89598 73.5633 4.42798C74.2833 3.95998 75.1113 3.72598 76.0473 3.72598C77.0553 3.72598 77.9133 3.94198 78.6213 4.37398C79.3293 4.79398 79.8633 5.38198 80.2233 6.13798C80.5953 6.88198 80.7813 7.74598 80.7813 8.72998ZM88.1635 12.6C88.1635 12.708 88.0795 12.816 87.9115 12.924C87.7555 13.032 87.5635 13.128 87.3355 13.212C87.1075 13.296 86.8855 13.362 86.6695 13.41C86.4655 13.458 86.3155 13.482 86.2195 13.482C85.5955 13.482 85.1095 13.404 84.7615 13.248C84.4255 13.092 84.1855 12.834 84.0415 12.474C83.9095 12.114 83.8435 11.628 83.8435 11.016C83.8435 10.02 83.8435 9.02398 83.8435 8.02798C83.8555 7.01998 83.8675 6.01798 83.8795 5.02198H82.5835C82.4995 5.02198 82.4275 5.04598 82.3675 5.09398C82.3195 5.12998 82.2655 5.14798 82.2055 5.14798C82.1455 5.14798 82.1155 5.10598 82.1155 5.02198C82.1155 4.97398 82.1455 4.87798 82.2055 4.73398C82.2775 4.58998 82.3255 4.49398 82.3495 4.44598C82.3855 4.45798 82.4395 4.46398 82.5115 4.46398H83.9155L83.9335 2.17798C84.2095 1.99798 84.4615 1.79998 84.6895 1.58398C84.9175 1.35598 85.1455 1.12798 85.3735 0.899978C85.3975 0.875978 85.4215 0.857978 85.4455 0.845977C85.4695 0.821978 85.4935 0.809978 85.5175 0.809978C85.6255 0.809978 85.6795 0.851978 85.6795 0.935978L85.5715 4.44598C85.9555 4.44598 86.3335 4.43998 86.7055 4.42798C87.0895 4.41598 87.4675 4.40998 87.8395 4.40998C87.9955 4.40998 88.0735 4.49998 88.0735 4.67998C88.0735 4.90798 87.9715 5.02198 87.7675 5.02198H85.5715C85.5715 5.93398 85.5655 6.85198 85.5535 7.77598C85.5535 8.68798 85.5535 9.60598 85.5535 10.53V11.916C85.5535 12.216 85.6795 12.426 85.9315 12.546C86.1835 12.654 86.4295 12.708 86.6695 12.708C87.0055 12.708 87.3355 12.654 87.6595 12.546C87.6955 12.522 87.7495 12.498 87.8215 12.474C87.8935 12.45 87.9475 12.438 87.9835 12.438C88.1035 12.438 88.1635 12.492 88.1635 12.6ZM96.7867 8.67598C96.7867 8.15998 96.7447 7.64398 96.6607 7.12798C96.5887 6.59998 96.4447 6.11398 96.2287 5.66998C96.0247 5.22598 95.7247 4.87198 95.3287 4.60798C94.9327 4.33198 94.4167 4.19398 93.7807 4.19398C93.1807 4.19398 92.6887 4.33798 92.3047 4.62598C91.9327 4.91398 91.6387 5.28598 91.4227 5.74198C91.2187 6.19798 91.0747 6.68998 90.9907 7.21798C90.9187 7.74598 90.8827 8.24398 90.8827 8.71198C90.8827 9.22798 90.9187 9.74398 90.9907 10.26C91.0747 10.776 91.2247 11.244 91.4407 11.664C91.6567 12.072 91.9627 12.402 92.3587 12.654C92.7667 12.906 93.2887 13.032 93.9247 13.032C94.5487 13.032 95.0467 12.9 95.4187 12.636C95.8027 12.372 96.0907 12.024 96.2827 11.592C96.4867 11.16 96.6187 10.692 96.6787 10.188C96.7507 9.67198 96.7867 9.16798 96.7867 8.67598ZM98.6407 8.72998C98.6407 9.62998 98.4247 10.44 97.9927 11.16C97.5727 11.88 96.9967 12.45 96.2647 12.87C95.5447 13.29 94.7347 13.5 93.8347 13.5C92.9587 13.5 92.1667 13.29 91.4587 12.87C90.7507 12.438 90.1867 11.868 89.7667 11.16C89.3467 10.44 89.1367 9.64198 89.1367 8.76598C89.1367 7.86598 89.3407 7.03798 89.7487 6.28198C90.1567 5.51398 90.7147 4.89598 91.4227 4.42798C92.1427 3.95998 92.9707 3.72598 93.9067 3.72598C94.9147 3.72598 95.7727 3.94198 96.4807 4.37398C97.1887 4.79398 97.7227 5.38198 98.0827 6.13798C98.4547 6.88198 98.6407 7.74598 98.6407 8.72998Z" fill="#042A7D"/>
</svg>
