<svg width="8" height="13" viewBox="0 0 8 13" fill="none" xmlns="http://www.w3.org/2000/svg">
<path d="M-8.28803e-05 12.5327V11.446L4.08088 6.97869C4.55981 6.45549 4.95423 6.00071 5.26412 5.61434C5.57402 5.22396 5.80342 4.85772 5.95233 4.51562C6.10527 4.16951 6.18174 3.80729 6.18174 3.42898C6.18174 2.99432 6.0771 2.61801 5.86782 2.30007C5.66256 1.98212 5.38084 1.73662 5.02264 1.56356C4.66445 1.3905 4.26199 1.30398 3.81526 1.30398C3.34035 1.30398 2.92582 1.40258 2.57165 1.59979C2.22151 1.79297 1.94985 2.06463 1.75666 2.41477C1.56751 2.76491 1.47293 3.17542 1.47293 3.6463H0.0482125C0.0482125 2.92187 0.215234 2.28598 0.549278 1.73863C0.883322 1.19129 1.3381 0.764676 1.91362 0.458805C2.49317 0.152934 3.14315 -1.84774e-06 3.86355 -1.84774e-06C4.58799 -1.84774e-06 5.22991 0.152934 5.78934 0.458805C6.34876 0.764676 6.78744 1.1772 7.10539 1.69638C7.42333 2.21555 7.5823 2.79309 7.5823 3.42898C7.5823 3.88376 7.4998 4.32848 7.33479 4.76314C7.1738 5.19377 6.89208 5.67471 6.48962 6.20596C6.09118 6.73319 5.5378 7.37713 4.82946 8.13778L2.05247 11.108V11.2045H7.79963V12.5327H-8.28803e-05Z" fill="white"/>
</svg>
