<svg width="240" height="35" viewBox="0 0 240 35" fill="none" xmlns="http://www.w3.org/2000/svg">
<path d="M3.59082 12H-8.86917e-05V0.363636H3.74991C4.8787 0.363636 5.84461 0.596591 6.64764 1.0625C7.45067 1.52462 8.0662 2.18939 8.49423 3.05682C8.92226 3.92045 9.13628 4.95455 9.13628 6.15909C9.13628 7.37121 8.92037 8.41477 8.48855 9.28977C8.05673 10.161 7.42794 10.8314 6.60218 11.3011C5.77643 11.767 4.77264 12 3.59082 12ZM1.409 10.75H3.49991C4.46203 10.75 5.25938 10.5644 5.89196 10.1932C6.52453 9.82197 6.99612 9.29356 7.30673 8.60795C7.61734 7.92235 7.77264 7.10606 7.77264 6.15909C7.77264 5.2197 7.61923 4.41098 7.31241 3.73295C7.00559 3.05114 6.54726 2.52841 5.93741 2.16477C5.32756 1.79735 4.56809 1.61364 3.659 1.61364H1.409V10.75ZM14.9772 12.1818C14.1363 12.1818 13.4109 11.9962 12.801 11.625C12.195 11.25 11.7272 10.7273 11.3976 10.0568C11.0719 9.38258 10.909 8.59848 10.909 7.70455C10.909 6.81061 11.0719 6.02273 11.3976 5.34091C11.7272 4.6553 12.1855 4.12121 12.7726 3.73864C13.3635 3.35227 14.0529 3.15909 14.8408 3.15909C15.2954 3.15909 15.7442 3.23485 16.1874 3.38636C16.6306 3.53788 17.034 3.78409 17.3976 4.125C17.7613 4.46212 18.051 4.90909 18.267 5.46591C18.4829 6.02273 18.5908 6.70833 18.5908 7.52273V8.09091H11.8635V6.93182H17.2272C17.2272 6.43939 17.1287 6 16.9317 5.61364C16.7385 5.22727 16.462 4.92235 16.1022 4.69886C15.7461 4.47538 15.3257 4.36364 14.8408 4.36364C14.3067 4.36364 13.8446 4.49621 13.4545 4.76136C13.0681 5.02273 12.7707 5.36364 12.5624 5.78409C12.3541 6.20455 12.2499 6.6553 12.2499 7.13636V7.90909C12.2499 8.56818 12.3635 9.12689 12.5908 9.58523C12.8219 10.0398 13.142 10.3864 13.551 10.625C13.9601 10.8598 14.4355 10.9773 14.9772 10.9773C15.3295 10.9773 15.6476 10.928 15.9317 10.8295C16.2196 10.7273 16.4677 10.5758 16.676 10.375C16.8844 10.1705 17.0454 9.91667 17.159 9.61364L18.4545 9.97727C18.3181 10.4167 18.0889 10.803 17.767 11.1364C17.445 11.4659 17.0473 11.7235 16.5738 11.9091C16.1003 12.0909 15.5681 12.1818 14.9772 12.1818ZM26.8124 5.22727L25.6079 5.56818C25.5321 5.36742 25.4204 5.17235 25.2726 4.98295C25.1287 4.78977 24.9317 4.63068 24.6817 4.50568C24.4317 4.38068 24.1117 4.31818 23.7215 4.31818C23.1874 4.31818 22.7423 4.44129 22.3863 4.6875C22.034 4.92992 21.8579 5.23864 21.8579 5.61364C21.8579 5.94697 21.9791 6.21023 22.2215 6.40341C22.4639 6.59659 22.8427 6.75758 23.3579 6.88636L24.6533 7.20455C25.4336 7.39394 26.0151 7.68371 26.3976 8.07386C26.7802 8.46023 26.9715 8.95833 26.9715 9.56818C26.9715 10.0682 26.8276 10.5152 26.5397 10.9091C26.2556 11.303 25.8579 11.6136 25.3465 11.8409C24.8351 12.0682 24.2404 12.1818 23.5624 12.1818C22.6723 12.1818 21.9355 11.9886 21.3522 11.6023C20.7689 11.2159 20.3995 10.6515 20.2442 9.90909L21.517 9.59091C21.6382 10.0606 21.8673 10.4129 22.2045 10.6477C22.5454 10.8826 22.9904 11 23.5397 11C24.1647 11 24.6609 10.8674 25.0283 10.6023C25.3995 10.3333 25.5851 10.0114 25.5851 9.63636C25.5851 9.33333 25.4791 9.07955 25.267 8.875C25.0548 8.66667 24.7291 8.51136 24.2897 8.40909L22.8351 8.06818C22.0359 7.87879 21.4488 7.58523 21.0738 7.1875C20.7026 6.78598 20.517 6.28409 20.517 5.68182C20.517 5.18939 20.6552 4.75379 20.9317 4.375C21.212 3.99621 21.5927 3.69886 22.0738 3.48295C22.5586 3.26705 23.1079 3.15909 23.7215 3.15909C24.5851 3.15909 25.2632 3.34848 25.7556 3.72727C26.2518 4.10606 26.6041 4.60606 26.8124 5.22727ZM32.5354 12.1818C31.7172 12.1818 31.0127 11.9886 30.4218 11.6023C29.8309 11.2159 29.3763 10.6837 29.0581 10.0057C28.74 9.32765 28.5809 8.55303 28.5809 7.68182C28.5809 6.79545 28.7438 6.01326 29.0695 5.33523C29.3991 4.65341 29.8574 4.12121 30.4445 3.73864C31.0354 3.35227 31.7248 3.15909 32.5127 3.15909C33.1263 3.15909 33.6794 3.27273 34.1718 3.5C34.6642 3.72727 35.0676 4.04545 35.382 4.45455C35.6964 4.86364 35.8915 5.34091 35.9672 5.88636H34.6263C34.5241 5.48864 34.2968 5.13636 33.9445 4.82955C33.596 4.51894 33.1263 4.36364 32.5354 4.36364C32.0127 4.36364 31.5544 4.5 31.1604 4.77273C30.7703 5.04167 30.4653 5.42235 30.2456 5.91477C30.0297 6.40341 29.9218 6.97727 29.9218 7.63636C29.9218 8.31061 30.0278 8.89773 30.24 9.39773C30.4559 9.89773 30.7589 10.286 31.1491 10.5625C31.543 10.839 32.0051 10.9773 32.5354 10.9773C32.8839 10.9773 33.2002 10.9167 33.4843 10.7955C33.7684 10.6742 34.0089 10.5 34.2059 10.2727C34.4028 10.0455 34.543 9.77273 34.6263 9.45455H35.9672C35.8915 9.9697 35.704 10.4337 35.4047 10.8466C35.1093 11.2557 34.7172 11.5814 34.2286 11.8239C33.7438 12.0625 33.1794 12.1818 32.5354 12.1818ZM37.9275 12V3.27273H39.2229V4.59091H39.3138C39.4729 4.15909 39.7608 3.80871 40.1775 3.53977C40.5941 3.27083 41.0638 3.13636 41.5866 3.13636C41.685 3.13636 41.8081 3.13826 41.9559 3.14205C42.1036 3.14583 42.2153 3.15152 42.2911 3.15909V4.52273C42.2457 4.51136 42.1415 4.49432 41.9786 4.47159C41.8195 4.44508 41.651 4.43182 41.4729 4.43182C41.0487 4.43182 40.6699 4.52083 40.3366 4.69886C40.007 4.87311 39.7456 5.11553 39.5525 5.42614C39.3631 5.73295 39.2684 6.08333 39.2684 6.47727V12H37.9275ZM43.8806 12V3.27273H45.2215V12H43.8806ZM44.5624 1.81818C44.301 1.81818 44.0757 1.72917 43.8863 1.55114C43.7007 1.37311 43.6079 1.15909 43.6079 0.909091C43.6079 0.659091 43.7007 0.445076 43.8863 0.267045C44.0757 0.089015 44.301 0 44.5624 0C44.8238 0 45.0473 0.089015 45.2329 0.267045C45.4223 0.445076 45.517 0.659091 45.517 0.909091C45.517 1.15909 45.4223 1.37311 45.2329 1.55114C45.0473 1.72917 44.8238 1.81818 44.5624 1.81818ZM51.2229 12.1818C50.4047 12.1818 49.7002 11.9886 49.1093 11.6023C48.5184 11.2159 48.0638 10.6837 47.7456 10.0057C47.4275 9.32765 47.2684 8.55303 47.2684 7.68182C47.2684 6.79545 47.4313 6.01326 47.757 5.33523C48.0866 4.65341 48.5449 4.12121 49.132 3.73864C49.7229 3.35227 50.4123 3.15909 51.2002 3.15909C51.8138 3.15909 52.3669 3.27273 52.8593 3.5C53.3517 3.72727 53.7551 4.04545 54.0695 4.45455C54.3839 4.86364 54.579 5.34091 54.6547 5.88636H53.3138C53.2116 5.48864 52.9843 5.13636 52.632 4.82955C52.2835 4.51894 51.8138 4.36364 51.2229 4.36364C50.7002 4.36364 50.2419 4.5 49.8479 4.77273C49.4578 5.04167 49.1528 5.42235 48.9331 5.91477C48.7172 6.40341 48.6093 6.97727 48.6093 7.63636C48.6093 8.31061 48.7153 8.89773 48.9275 9.39773C49.1434 9.89773 49.4464 10.286 49.8366 10.5625C50.2305 10.839 50.6926 10.9773 51.2229 10.9773C51.5714 10.9773 51.8877 10.9167 52.1718 10.7955C52.4559 10.6742 52.6964 10.5 52.8934 10.2727C53.0903 10.0455 53.2305 9.77273 53.3138 9.45455H54.6547C54.579 9.9697 54.3915 10.4337 54.0922 10.8466C53.7968 11.2557 53.4047 11.5814 52.9161 11.8239C52.4313 12.0625 51.8669 12.1818 51.2229 12.1818ZM50.5866 11.9545H51.7002L51.6093 12.4091C51.9047 12.4545 52.1756 12.5777 52.4218 12.7784C52.668 12.983 52.7911 13.3068 52.7911 13.75C52.7911 14.2386 52.5885 14.6364 52.1831 14.9432C51.7816 15.2538 51.1888 15.4091 50.4047 15.4091L50.3593 14.5227C50.7116 14.5227 51.0032 14.4659 51.2343 14.3523C51.4691 14.2424 51.5866 14.0568 51.5866 13.7955C51.5866 13.5341 51.49 13.3561 51.2968 13.2614C51.1036 13.1667 50.7911 13.1023 50.3593 13.0682L50.5866 11.9545ZM59.1832 12.2045C58.6301 12.2045 58.1282 12.1004 57.6775 11.892C57.2267 11.6799 56.8688 11.375 56.6036 10.9773C56.3385 10.5758 56.2059 10.0909 56.2059 9.52273C56.2059 9.02273 56.3044 8.61742 56.5013 8.30682C56.6983 7.99242 56.9616 7.74621 57.2911 7.56818C57.6206 7.39015 57.9843 7.25758 58.382 7.17045C58.7835 7.07955 59.1869 7.00758 59.5922 6.95455C60.1225 6.88636 60.5525 6.83523 60.882 6.80114C61.2153 6.76326 61.4578 6.70076 61.6093 6.61364C61.7646 6.52652 61.8422 6.375 61.8422 6.15909V6.11364C61.8422 5.55303 61.6888 5.11742 61.382 4.80682C61.079 4.49621 60.6188 4.34091 60.0013 4.34091C59.3612 4.34091 58.8593 4.48106 58.4957 4.76136C58.132 5.04167 57.8763 5.34091 57.7286 5.65909L56.4559 5.20455C56.6831 4.67424 56.9862 4.26136 57.365 3.96591C57.7475 3.66667 58.1642 3.45833 58.615 3.34091C59.0695 3.2197 59.5165 3.15909 59.9559 3.15909C60.2362 3.15909 60.5581 3.19318 60.9218 3.26136C61.2892 3.32576 61.6434 3.46023 61.9843 3.66477C62.329 3.86932 62.615 4.17803 62.8422 4.59091C63.0695 5.00379 63.1832 5.55682 63.1832 6.25V12H61.8422V10.8182H61.7741C61.6831 11.0076 61.5316 11.2102 61.3195 11.4261C61.1074 11.642 60.8252 11.8258 60.4729 11.9773C60.1207 12.1288 59.6907 12.2045 59.1832 12.2045ZM59.3877 11C59.918 11 60.365 10.8958 60.7286 10.6875C61.096 10.4792 61.3725 10.2102 61.5581 9.88068C61.7475 9.55114 61.8422 9.20455 61.8422 8.84091V7.61364C61.7854 7.68182 61.6604 7.74432 61.4672 7.80114C61.2778 7.85417 61.0581 7.90151 60.8081 7.94318C60.5619 7.98106 60.3214 8.01515 60.0866 8.04545C59.8555 8.07197 59.668 8.0947 59.5241 8.11364C59.1756 8.15909 58.8498 8.23295 58.5468 8.33523C58.2475 8.43371 58.0051 8.58333 57.8195 8.78409C57.6377 8.98106 57.5468 9.25 57.5468 9.59091C57.5468 10.0568 57.7191 10.4091 58.0638 10.6477C58.4123 10.8826 58.8536 11 59.3877 11ZM58.2968 2.22727L57.2513 2.18182C57.2513 1.60227 57.4161 1.12879 57.7456 0.761363C58.079 0.390151 58.49 0.204545 58.9786 0.204545C59.1945 0.204545 59.3858 0.242424 59.5525 0.318181C59.7191 0.390151 59.8782 0.473484 60.0297 0.568181C60.1813 0.662878 60.3366 0.748106 60.4956 0.823863C60.6585 0.895833 60.8422 0.931818 61.0468 0.931818C61.2627 0.931818 61.4445 0.848485 61.5922 0.681818C61.7438 0.511363 61.8195 0.306818 61.8195 0.068181L62.8422 0.159091C62.8422 0.75 62.6756 1.2197 62.3422 1.56818C62.0127 1.91667 61.6036 2.09091 61.115 2.09091C60.8536 2.09091 60.6377 2.05492 60.4672 1.98295C60.2968 1.9072 60.1453 1.82197 60.0127 1.72727C59.8801 1.63258 59.74 1.54924 59.5922 1.47727C59.4445 1.40151 59.2627 1.36364 59.0468 1.36364C58.8309 1.36364 58.651 1.44886 58.507 1.61932C58.3669 1.78598 58.2968 1.98864 58.2968 2.22727ZM69.176 12.1818C68.3882 12.1818 67.6969 11.9943 67.1022 11.6193C66.5113 11.2443 66.0492 10.7197 65.7158 10.0455C65.3863 9.37121 65.2215 8.58333 65.2215 7.68182C65.2215 6.77273 65.3863 5.97917 65.7158 5.30114C66.0492 4.62311 66.5113 4.09659 67.1022 3.72159C67.6969 3.34659 68.3882 3.15909 69.176 3.15909C69.9639 3.15909 70.6533 3.34659 71.2442 3.72159C71.8389 4.09659 72.301 4.62311 72.6306 5.30114C72.9639 5.97917 73.1306 6.77273 73.1306 7.68182C73.1306 8.58333 72.9639 9.37121 72.6306 10.0455C72.301 10.7197 71.8389 11.2443 71.2442 11.6193C70.6533 11.9943 69.9639 12.1818 69.176 12.1818ZM69.176 10.9773C69.7745 10.9773 70.267 10.8239 70.6533 10.517C71.0397 10.2102 71.3257 9.80682 71.5113 9.30682C71.6969 8.80682 71.7897 8.26515 71.7897 7.68182C71.7897 7.09848 71.6969 6.55492 71.5113 6.05114C71.3257 5.54735 71.0397 5.14015 70.6533 4.82955C70.267 4.51894 69.7745 4.36364 69.176 4.36364C68.5776 4.36364 68.0851 4.51894 67.6988 4.82955C67.3124 5.14015 67.0264 5.54735 66.8408 6.05114C66.6552 6.55492 66.5624 7.09848 66.5624 7.68182C66.5624 8.26515 66.6552 8.80682 66.8408 9.30682C67.0264 9.80682 67.3124 10.2102 67.6988 10.517C68.0851 10.8239 68.5776 10.9773 69.176 10.9773ZM82.9729 12.1818C82.2456 12.1818 81.6036 11.9981 81.0468 11.6307C80.49 11.2595 80.0544 10.7367 79.74 10.0625C79.4256 9.38447 79.2684 8.58333 79.2684 7.65909C79.2684 6.74242 79.4256 5.94697 79.74 5.27273C80.0544 4.59848 80.4919 4.07765 81.0525 3.71023C81.6131 3.3428 82.2608 3.15909 82.9956 3.15909C83.5638 3.15909 84.0127 3.25379 84.3422 3.44318C84.6756 3.62879 84.9294 3.84091 85.1036 4.07955C85.2816 4.31439 85.4199 4.50758 85.5184 4.65909H85.632V0.363636H86.9729V12H85.6775V10.6591H85.5184C85.4199 10.8182 85.2797 11.0189 85.0979 11.2614C84.9161 11.5 84.6566 11.714 84.3195 11.9034C83.9824 12.089 83.5335 12.1818 82.9729 12.1818ZM83.1547 10.9773C83.6926 10.9773 84.1472 10.8371 84.5184 10.5568C84.8896 10.2727 85.1718 9.88068 85.365 9.38068C85.5581 8.87689 85.6547 8.29545 85.6547 7.63636C85.6547 6.98485 85.56 6.41477 85.3707 5.92614C85.1813 5.43371 84.901 5.05114 84.5297 4.77841C84.1585 4.50189 83.7002 4.36364 83.1547 4.36364C82.5866 4.36364 82.1131 4.50947 81.7343 4.80114C81.3593 5.08902 81.0771 5.48106 80.8877 5.97727C80.7021 6.4697 80.6093 7.02273 80.6093 7.63636C80.6093 8.25758 80.704 8.82197 80.8934 9.32955C81.0866 9.83333 81.3707 10.2348 81.7457 10.5341C82.1244 10.8295 82.5941 10.9773 83.1547 10.9773ZM93.1604 12.1818C92.3725 12.1818 91.6813 11.9943 91.0866 11.6193C90.4956 11.2443 90.0335 10.7197 89.7002 10.0455C89.3706 9.37121 89.2059 8.58333 89.2059 7.68182C89.2059 6.77273 89.3706 5.97917 89.7002 5.30114C90.0335 4.62311 90.4956 4.09659 91.0866 3.72159C91.6813 3.34659 92.3725 3.15909 93.1604 3.15909C93.9483 3.15909 94.6377 3.34659 95.2286 3.72159C95.8233 4.09659 96.2854 4.62311 96.615 5.30114C96.9483 5.97917 97.115 6.77273 97.115 7.68182C97.115 8.58333 96.9483 9.37121 96.615 10.0455C96.2854 10.7197 95.8233 11.2443 95.2286 11.6193C94.6377 11.9943 93.9483 12.1818 93.1604 12.1818ZM93.1604 10.9773C93.7589 10.9773 94.2513 10.8239 94.6377 10.517C95.0241 10.2102 95.31 9.80682 95.4957 9.30682C95.6813 8.80682 95.7741 8.26515 95.7741 7.68182C95.7741 7.09848 95.6813 6.55492 95.4957 6.05114C95.31 5.54735 95.0241 5.14015 94.6377 4.82955C94.2513 4.51894 93.7589 4.36364 93.1604 4.36364C92.5619 4.36364 92.0695 4.51894 91.6832 4.82955C91.2968 5.14015 91.0108 5.54735 90.8252 6.05114C90.6396 6.55492 90.5468 7.09848 90.5468 7.68182C90.5468 8.26515 90.6396 8.80682 90.8252 9.30682C91.0108 9.80682 91.2968 10.2102 91.6832 10.517C92.0695 10.8239 92.5619 10.9773 93.1604 10.9773ZM103.662 15.2727V3.27273H104.957V4.65909H105.116C105.215 4.50758 105.351 4.31439 105.525 4.07955C105.704 3.84091 105.957 3.62879 106.287 3.44318C106.62 3.25379 107.071 3.15909 107.639 3.15909C108.374 3.15909 109.022 3.3428 109.582 3.71023C110.143 4.07765 110.58 4.59848 110.895 5.27273C111.209 5.94697 111.366 6.74242 111.366 7.65909C111.366 8.58333 111.209 9.38447 110.895 10.0625C110.58 10.7367 110.145 11.2595 109.588 11.6307C109.031 11.9981 108.389 12.1818 107.662 12.1818C107.101 12.1818 106.652 12.089 106.315 11.9034C105.978 11.714 105.719 11.5 105.537 11.2614C105.355 11.0189 105.215 10.8182 105.116 10.6591H105.003V15.2727H103.662ZM104.98 7.63636C104.98 8.29545 105.077 8.87689 105.27 9.38068C105.463 9.88068 105.745 10.2727 106.116 10.5568C106.488 10.8371 106.942 10.9773 107.48 10.9773C108.041 10.9773 108.508 10.8295 108.883 10.5341C109.262 10.2348 109.546 9.83333 109.736 9.32955C109.929 8.82197 110.025 8.25758 110.025 7.63636C110.025 7.02273 109.931 6.4697 109.741 5.97727C109.556 5.48106 109.274 5.08902 108.895 4.80114C108.52 4.50947 108.048 4.36364 107.48 4.36364C106.935 4.36364 106.476 4.50189 106.105 4.77841C105.734 5.05114 105.454 5.43371 105.264 5.92614C105.075 6.41477 104.98 6.98485 104.98 7.63636ZM113.412 12V3.27273H114.707V4.59091H114.798C114.957 4.15909 115.245 3.80871 115.662 3.53977C116.079 3.27083 116.548 3.13636 117.071 3.13636C117.169 3.13636 117.293 3.13826 117.44 3.14205C117.588 3.14583 117.7 3.15152 117.775 3.15909V4.52273C117.73 4.51136 117.626 4.49432 117.463 4.47159C117.304 4.44508 117.135 4.43182 116.957 4.43182C116.533 4.43182 116.154 4.52083 115.821 4.69886C115.491 4.87311 115.23 5.11553 115.037 5.42614C114.847 5.73295 114.753 6.08333 114.753 6.47727V12H113.412ZM122.645 12.1818C121.857 12.1818 121.166 11.9943 120.571 11.6193C119.98 11.2443 119.518 10.7197 119.185 10.0455C118.855 9.37121 118.69 8.58333 118.69 7.68182C118.69 6.77273 118.855 5.97917 119.185 5.30114C119.518 4.62311 119.98 4.09659 120.571 3.72159C121.166 3.34659 121.857 3.15909 122.645 3.15909C123.433 3.15909 124.122 3.34659 124.713 3.72159C125.308 4.09659 125.77 4.62311 126.099 5.30114C126.433 5.97917 126.599 6.77273 126.599 7.68182C126.599 8.58333 126.433 9.37121 126.099 10.0455C125.77 10.7197 125.308 11.2443 124.713 11.6193C124.122 11.9943 123.433 12.1818 122.645 12.1818ZM122.645 10.9773C123.243 10.9773 123.736 10.8239 124.122 10.517C124.508 10.2102 124.794 9.80682 124.98 9.30682C125.166 8.80682 125.258 8.26515 125.258 7.68182C125.258 7.09848 125.166 6.55492 124.98 6.05114C124.794 5.54735 124.508 5.14015 124.122 4.82955C123.736 4.51894 123.243 4.36364 122.645 4.36364C122.046 4.36364 121.554 4.51894 121.168 4.82955C120.781 5.14015 120.495 5.54735 120.31 6.05114C120.124 6.55492 120.031 7.09848 120.031 7.68182C120.031 8.26515 120.124 8.80682 120.31 9.30682C120.495 9.80682 120.781 10.2102 121.168 10.517C121.554 10.8239 122.046 10.9773 122.645 10.9773ZM131.942 12.1818C131.214 12.1818 130.572 11.9981 130.016 11.6307C129.459 11.2595 129.023 10.7367 128.709 10.0625C128.394 9.38447 128.237 8.58333 128.237 7.65909C128.237 6.74242 128.394 5.94697 128.709 5.27273C129.023 4.59848 129.461 4.07765 130.021 3.71023C130.582 3.3428 131.23 3.15909 131.964 3.15909C132.533 3.15909 132.981 3.25379 133.311 3.44318C133.644 3.62879 133.898 3.84091 134.072 4.07955C134.25 4.31439 134.389 4.50758 134.487 4.65909H134.601V0.363636H135.942V12H134.646V10.6591H134.487C134.389 10.8182 134.248 11.0189 134.067 11.2614C133.885 11.5 133.625 11.714 133.288 11.9034C132.951 12.089 132.502 12.1818 131.942 12.1818ZM132.123 10.9773C132.661 10.9773 133.116 10.8371 133.487 10.5568C133.858 10.2727 134.141 9.88068 134.334 9.38068C134.527 8.87689 134.623 8.29545 134.623 7.63636C134.623 6.98485 134.529 6.41477 134.339 5.92614C134.15 5.43371 133.87 5.05114 133.498 4.77841C133.127 4.50189 132.669 4.36364 132.123 4.36364C131.555 4.36364 131.082 4.50947 130.703 4.80114C130.328 5.08902 130.046 5.48106 129.856 5.97727C129.671 6.4697 129.578 7.02273 129.578 7.63636C129.578 8.25758 129.673 8.82197 129.862 9.32955C130.055 9.83333 130.339 10.2348 130.714 10.5341C131.093 10.8295 131.563 10.9773 132.123 10.9773ZM144.084 8.43182V3.27273H145.425V12H144.084V10.5227H143.993C143.788 10.9659 143.47 11.3428 143.038 11.6534C142.606 11.9602 142.061 12.1136 141.402 12.1136C140.856 12.1136 140.372 11.9943 139.947 11.7557C139.523 11.5133 139.19 11.1496 138.947 10.6648C138.705 10.1761 138.584 9.56061 138.584 8.81818V3.27273H139.925V8.72727C139.925 9.36364 140.103 9.87121 140.459 10.25C140.819 10.6288 141.277 10.8182 141.834 10.8182C142.167 10.8182 142.506 10.733 142.851 10.5625C143.199 10.392 143.491 10.1307 143.726 9.77841C143.964 9.42614 144.084 8.97727 144.084 8.43182ZM151.676 3.27273V4.40909H147.153V3.27273H151.676ZM148.472 1.18182H149.812V9.5C149.812 9.87879 149.867 10.1629 149.977 10.3523C150.091 10.5379 150.235 10.6629 150.409 10.7273C150.587 10.7879 150.775 10.8182 150.972 10.8182C151.119 10.8182 151.24 10.8106 151.335 10.7955C151.43 10.7765 151.506 10.7614 151.562 10.75L151.835 11.9545C151.744 11.9886 151.617 12.0227 151.454 12.0568C151.292 12.0947 151.085 12.1136 150.835 12.1136C150.456 12.1136 150.085 12.0322 149.722 11.8693C149.362 11.7064 149.062 11.4583 148.824 11.125C148.589 10.7917 148.472 10.3712 148.472 9.86364V1.18182ZM157.145 12.1818C156.357 12.1818 155.666 11.9943 155.071 11.6193C154.48 11.2443 154.018 10.7197 153.685 10.0455C153.355 9.37121 153.19 8.58333 153.19 7.68182C153.19 6.77273 153.355 5.97917 153.685 5.30114C154.018 4.62311 154.48 4.09659 155.071 3.72159C155.666 3.34659 156.357 3.15909 157.145 3.15909C157.933 3.15909 158.622 3.34659 159.213 3.72159C159.808 4.09659 160.27 4.62311 160.599 5.30114C160.933 5.97917 161.099 6.77273 161.099 7.68182C161.099 8.58333 160.933 9.37121 160.599 10.0455C160.27 10.7197 159.808 11.2443 159.213 11.6193C158.622 11.9943 157.933 12.1818 157.145 12.1818ZM157.145 10.9773C157.743 10.9773 158.236 10.8239 158.622 10.517C159.008 10.2102 159.294 9.80682 159.48 9.30682C159.666 8.80682 159.758 8.26515 159.758 7.68182C159.758 7.09848 159.666 6.55492 159.48 6.05114C159.294 5.54735 159.008 5.14015 158.622 4.82955C158.236 4.51894 157.743 4.36364 157.145 4.36364C156.546 4.36364 156.054 4.51894 155.668 4.82955C155.281 5.14015 154.995 5.54735 154.81 6.05114C154.624 6.55492 154.531 7.09848 154.531 7.68182C154.531 8.26515 154.624 8.80682 154.81 9.30682C154.995 9.80682 155.281 10.2102 155.668 10.517C156.054 10.8239 156.546 10.9773 157.145 10.9773ZM164.123 12.0909C163.843 12.0909 163.603 11.9905 163.402 11.7898C163.201 11.589 163.101 11.3485 163.101 11.0682C163.101 10.7879 163.201 10.5473 163.402 10.3466C163.603 10.1458 163.843 10.0455 164.123 10.0455C164.404 10.0455 164.644 10.1458 164.845 10.3466C165.046 10.5473 165.146 10.7879 165.146 11.0682C165.146 11.2538 165.099 11.4242 165.004 11.5795C164.913 11.7348 164.79 11.8598 164.635 11.9545C164.483 12.0455 164.313 12.0909 164.123 12.0909ZM164.123 5.61364C163.843 5.61364 163.603 5.51326 163.402 5.3125C163.201 5.11174 163.101 4.87121 163.101 4.59091C163.101 4.31061 163.201 4.07008 163.402 3.86932C163.603 3.66856 163.843 3.56818 164.123 3.56818C164.404 3.56818 164.644 3.66856 164.845 3.86932C165.046 4.07008 165.146 4.31061 165.146 4.59091C165.146 4.77652 165.099 4.94697 165.004 5.10227C164.913 5.25758 164.79 5.38258 164.635 5.47727C164.483 5.56818 164.313 5.61364 164.123 5.61364ZM172.234 12V0.363636H176.166C177.075 0.363636 177.821 0.518939 178.405 0.829545C178.988 1.13636 179.42 1.55871 179.7 2.09659C179.98 2.63447 180.121 3.24621 180.121 3.93182C180.121 4.61742 179.98 5.22538 179.7 5.75568C179.42 6.28598 178.99 6.70265 178.41 7.00568C177.831 7.30492 177.09 7.45455 176.189 7.45455H173.007V6.18182H176.143C176.765 6.18182 177.265 6.09091 177.643 5.90909C178.026 5.72727 178.302 5.4697 178.473 5.13636C178.647 4.79924 178.734 4.39773 178.734 3.93182C178.734 3.46591 178.647 3.05871 178.473 2.71023C178.299 2.36174 178.02 2.0928 177.638 1.90341C177.255 1.71023 176.749 1.61364 176.121 1.61364H173.643V12H172.234ZM177.712 6.77273L180.575 12H178.939L176.121 6.77273H177.712ZM184.855 12.2045C184.302 12.2045 183.8 12.1004 183.349 11.892C182.899 11.6799 182.541 11.375 182.275 10.9773C182.01 10.5758 181.878 10.0909 181.878 9.52273C181.878 9.02273 181.976 8.61742 182.173 8.30682C182.37 7.99242 182.633 7.74621 182.963 7.56818C183.293 7.39015 183.656 7.25758 184.054 7.17045C184.455 7.07955 184.859 7.00758 185.264 6.95455C185.794 6.88636 186.224 6.83523 186.554 6.80114C186.887 6.76326 187.13 6.70076 187.281 6.61364C187.436 6.52652 187.514 6.375 187.514 6.15909V6.11364C187.514 5.55303 187.361 5.11742 187.054 4.80682C186.751 4.49621 186.291 4.34091 185.673 4.34091C185.033 4.34091 184.531 4.48106 184.168 4.76136C183.804 5.04167 183.548 5.34091 183.4 5.65909L182.128 5.20455C182.355 4.67424 182.658 4.26136 183.037 3.96591C183.419 3.66667 183.836 3.45833 184.287 3.34091C184.741 3.2197 185.188 3.15909 185.628 3.15909C185.908 3.15909 186.23 3.19318 186.594 3.26136C186.961 3.32576 187.315 3.46023 187.656 3.66477C188.001 3.86932 188.287 4.17803 188.514 4.59091C188.741 5.00379 188.855 5.55682 188.855 6.25V12H187.514V10.8182H187.446C187.355 11.0076 187.204 11.2102 186.991 11.4261C186.779 11.642 186.497 11.8258 186.145 11.9773C185.793 12.1288 185.363 12.2045 184.855 12.2045ZM185.06 11C185.59 11 186.037 10.8958 186.4 10.6875C186.768 10.4792 187.044 10.2102 187.23 9.88068C187.419 9.55114 187.514 9.20455 187.514 8.84091V7.61364C187.457 7.68182 187.332 7.74432 187.139 7.80114C186.95 7.85417 186.73 7.90151 186.48 7.94318C186.234 7.98106 185.993 8.01515 185.758 8.04545C185.527 8.07197 185.34 8.0947 185.196 8.11364C184.847 8.15909 184.522 8.23295 184.219 8.33523C183.919 8.43371 183.677 8.58333 183.491 8.78409C183.31 8.98106 183.219 9.25 183.219 9.59091C183.219 10.0568 183.391 10.4091 183.736 10.6477C184.084 10.8826 184.525 11 185.06 11ZM194.848 12.1818C194.03 12.1818 193.325 11.9886 192.734 11.6023C192.143 11.2159 191.689 10.6837 191.371 10.0057C191.052 9.32765 190.893 8.55303 190.893 7.68182C190.893 6.79545 191.056 6.01326 191.382 5.33523C191.712 4.65341 192.17 4.12121 192.757 3.73864C193.348 3.35227 194.037 3.15909 194.825 3.15909C195.439 3.15909 195.992 3.27273 196.484 3.5C196.977 3.72727 197.38 4.04545 197.695 4.45455C198.009 4.86364 198.204 5.34091 198.28 5.88636H196.939C196.837 5.48864 196.609 5.13636 196.257 4.82955C195.909 4.51894 195.439 4.36364 194.848 4.36364C194.325 4.36364 193.867 4.5 193.473 4.77273C193.083 5.04167 192.778 5.42235 192.558 5.91477C192.342 6.40341 192.234 6.97727 192.234 7.63636C192.234 8.31061 192.34 8.89773 192.552 9.39773C192.768 9.89773 193.071 10.286 193.462 10.5625C193.855 10.839 194.318 10.9773 194.848 10.9773C195.196 10.9773 195.513 10.9167 195.797 10.7955C196.081 10.6742 196.321 10.5 196.518 10.2727C196.715 10.0455 196.855 9.77273 196.939 9.45455H198.28C198.204 9.9697 198.016 10.4337 197.717 10.8466C197.422 11.2557 197.03 11.5814 196.541 11.8239C196.056 12.0625 195.492 12.1818 194.848 12.1818ZM194.212 11.9545H195.325L195.234 12.4091C195.53 12.4545 195.801 12.5777 196.047 12.7784C196.293 12.983 196.416 13.3068 196.416 13.75C196.416 14.2386 196.213 14.6364 195.808 14.9432C195.407 15.2538 194.814 15.4091 194.03 15.4091L193.984 14.5227C194.337 14.5227 194.628 14.4659 194.859 14.3523C195.094 14.2424 195.212 14.0568 195.212 13.7955C195.212 13.5341 195.115 13.3561 194.922 13.2614C194.729 13.1667 194.416 13.1023 193.984 13.0682L194.212 11.9545ZM202.808 12.2045C202.255 12.2045 201.753 12.1004 201.302 11.892C200.852 11.6799 200.494 11.375 200.229 10.9773C199.963 10.5758 199.831 10.0909 199.831 9.52273C199.831 9.02273 199.929 8.61742 200.126 8.30682C200.323 7.99242 200.587 7.74621 200.916 7.56818C201.246 7.39015 201.609 7.25758 202.007 7.17045C202.409 7.07955 202.812 7.00758 203.217 6.95455C203.748 6.88636 204.177 6.83523 204.507 6.80114C204.84 6.76326 205.083 6.70076 205.234 6.61364C205.39 6.52652 205.467 6.375 205.467 6.15909V6.11364C205.467 5.55303 205.314 5.11742 205.007 4.80682C204.704 4.49621 204.244 4.34091 203.626 4.34091C202.986 4.34091 202.484 4.48106 202.121 4.76136C201.757 5.04167 201.501 5.34091 201.354 5.65909L200.081 5.20455C200.308 4.67424 200.611 4.26136 200.99 3.96591C201.373 3.66667 201.789 3.45833 202.24 3.34091C202.695 3.2197 203.141 3.15909 203.581 3.15909C203.861 3.15909 204.183 3.19318 204.547 3.26136C204.914 3.32576 205.268 3.46023 205.609 3.66477C205.954 3.86932 206.24 4.17803 206.467 4.59091C206.695 5.00379 206.808 5.55682 206.808 6.25V12H205.467V10.8182H205.399C205.308 11.0076 205.157 11.2102 204.945 11.4261C204.732 11.642 204.45 11.8258 204.098 11.9773C203.746 12.1288 203.316 12.2045 202.808 12.2045ZM203.013 11C203.543 11 203.99 10.8958 204.354 10.6875C204.721 10.4792 204.998 10.2102 205.183 9.88068C205.373 9.55114 205.467 9.20455 205.467 8.84091V7.61364C205.41 7.68182 205.285 7.74432 205.092 7.80114C204.903 7.85417 204.683 7.90151 204.433 7.94318C204.187 7.98106 203.946 8.01515 203.712 8.04545C203.48 8.07197 203.293 8.0947 203.149 8.11364C202.801 8.15909 202.475 8.23295 202.172 8.33523C201.873 8.43371 201.63 8.58333 201.445 8.78409C201.263 8.98106 201.172 9.25 201.172 9.59091C201.172 10.0568 201.344 10.4091 201.689 10.6477C202.037 10.8826 202.479 11 203.013 11ZM201.922 2.22727L200.876 2.18182C200.876 1.60227 201.041 1.12879 201.371 0.761363C201.704 0.390151 202.115 0.204545 202.604 0.204545C202.82 0.204545 203.011 0.242424 203.177 0.318181C203.344 0.390151 203.503 0.473484 203.655 0.568181C203.806 0.662878 203.962 0.748106 204.121 0.823863C204.284 0.895833 204.467 0.931818 204.672 0.931818C204.888 0.931818 205.07 0.848485 205.217 0.681818C205.369 0.511363 205.445 0.306818 205.445 0.068181L206.467 0.159091C206.467 0.75 206.301 1.2197 205.967 1.56818C205.638 1.91667 205.229 2.09091 204.74 2.09091C204.479 2.09091 204.263 2.05492 204.092 1.98295C203.922 1.9072 203.77 1.82197 203.638 1.72727C203.505 1.63258 203.365 1.54924 203.217 1.47727C203.07 1.40151 202.888 1.36364 202.672 1.36364C202.456 1.36364 202.276 1.44886 202.132 1.61932C201.992 1.78598 201.922 1.98864 201.922 2.22727ZM212.801 12.1818C212.013 12.1818 211.322 11.9943 210.727 11.6193C210.136 11.2443 209.674 10.7197 209.341 10.0455C209.011 9.37121 208.847 8.58333 208.847 7.68182C208.847 6.77273 209.011 5.97917 209.341 5.30114C209.674 4.62311 210.136 4.09659 210.727 3.72159C211.322 3.34659 212.013 3.15909 212.801 3.15909C213.589 3.15909 214.278 3.34659 214.869 3.72159C215.464 4.09659 215.926 4.62311 216.256 5.30114C216.589 5.97917 216.756 6.77273 216.756 7.68182C216.756 8.58333 216.589 9.37121 216.256 10.0455C215.926 10.7197 215.464 11.2443 214.869 11.6193C214.278 11.9943 213.589 12.1818 212.801 12.1818ZM212.801 10.9773C213.4 10.9773 213.892 10.8239 214.278 10.517C214.665 10.2102 214.951 9.80682 215.136 9.30682C215.322 8.80682 215.415 8.26515 215.415 7.68182C215.415 7.09848 215.322 6.55492 215.136 6.05114C214.951 5.54735 214.665 5.14015 214.278 4.82955C213.892 4.51894 213.4 4.36364 212.801 4.36364C212.203 4.36364 211.71 4.51894 211.324 4.82955C210.937 5.14015 210.651 5.54735 210.466 6.05114C210.28 6.55492 210.187 7.09848 210.187 7.68182C210.187 8.26515 210.28 8.80682 210.466 9.30682C210.651 9.80682 210.937 10.2102 211.324 10.517C211.71 10.8239 212.203 10.9773 212.801 10.9773ZM226.598 12.1818C225.871 12.1818 225.229 11.9981 224.672 11.6307C224.115 11.2595 223.679 10.7367 223.365 10.0625C223.051 9.38447 222.893 8.58333 222.893 7.65909C222.893 6.74242 223.051 5.94697 223.365 5.27273C223.679 4.59848 224.117 4.07765 224.677 3.71023C225.238 3.3428 225.886 3.15909 226.621 3.15909C227.189 3.15909 227.638 3.25379 227.967 3.44318C228.301 3.62879 228.554 3.84091 228.729 4.07955C228.907 4.31439 229.045 4.50758 229.143 4.65909H229.257V0.363636H230.598V12H229.302V10.6591H229.143C229.045 10.8182 228.905 11.0189 228.723 11.2614C228.541 11.5 228.282 11.714 227.945 11.9034C227.607 12.089 227.159 12.1818 226.598 12.1818ZM226.78 10.9773C227.318 10.9773 227.772 10.8371 228.143 10.5568C228.515 10.2727 228.797 9.88068 228.99 9.38068C229.183 8.87689 229.28 8.29545 229.28 7.63636C229.28 6.98485 229.185 6.41477 228.996 5.92614C228.806 5.43371 228.526 5.05114 228.155 4.77841C227.784 4.50189 227.325 4.36364 226.78 4.36364C226.212 4.36364 225.738 4.50947 225.359 4.80114C224.984 5.08902 224.702 5.48106 224.513 5.97727C224.327 6.4697 224.234 7.02273 224.234 7.63636C224.234 8.25758 224.329 8.82197 224.518 9.32955C224.712 9.83333 224.996 10.2348 225.371 10.5341C225.749 10.8295 226.219 10.9773 226.78 10.9773ZM235.808 12.2045C235.255 12.2045 234.753 12.1004 234.302 11.892C233.852 11.6799 233.494 11.375 233.229 10.9773C232.963 10.5758 232.831 10.0909 232.831 9.52273C232.831 9.02273 232.929 8.61742 233.126 8.30682C233.323 7.99242 233.587 7.74621 233.916 7.56818C234.246 7.39015 234.609 7.25758 235.007 7.17045C235.409 7.07955 235.812 7.00758 236.217 6.95455C236.748 6.88636 237.177 6.83523 237.507 6.80114C237.84 6.76326 238.083 6.70076 238.234 6.61364C238.39 6.52652 238.467 6.375 238.467 6.15909V6.11364C238.467 5.55303 238.314 5.11742 238.007 4.80682C237.704 4.49621 237.244 4.34091 236.626 4.34091C235.986 4.34091 235.484 4.48106 235.121 4.76136C234.757 5.04167 234.501 5.34091 234.354 5.65909L233.081 5.20455C233.308 4.67424 233.611 4.26136 233.99 3.96591C234.373 3.66667 234.789 3.45833 235.24 3.34091C235.695 3.2197 236.141 3.15909 236.581 3.15909C236.861 3.15909 237.183 3.19318 237.547 3.26136C237.914 3.32576 238.268 3.46023 238.609 3.66477C238.954 3.86932 239.24 4.17803 239.467 4.59091C239.695 5.00379 239.808 5.55682 239.808 6.25V12H238.467V10.8182H238.399C238.308 11.0076 238.157 11.2102 237.945 11.4261C237.732 11.642 237.45 11.8258 237.098 11.9773C236.746 12.1288 236.316 12.2045 235.808 12.2045ZM236.013 11C236.543 11 236.99 10.8958 237.354 10.6875C237.721 10.4792 237.998 10.2102 238.183 9.88068C238.373 9.55114 238.467 9.20455 238.467 8.84091V7.61364C238.41 7.68182 238.285 7.74432 238.092 7.80114C237.903 7.85417 237.683 7.90151 237.433 7.94318C237.187 7.98106 236.946 8.01515 236.712 8.04545C236.48 8.07197 236.293 8.0947 236.149 8.11364C235.801 8.15909 235.475 8.23295 235.172 8.33523C234.873 8.43371 234.63 8.58333 234.445 8.78409C234.263 8.98106 234.172 9.25 234.172 9.59091C234.172 10.0568 234.344 10.4091 234.689 10.6477C235.037 10.8826 235.479 11 236.013 11ZM38.7322 31V22.2727H40.0276V23.6364H40.1412C40.3231 23.1705 40.6166 22.8087 41.0219 22.5511C41.4272 22.2898 41.914 22.1591 42.4822 22.1591C43.0579 22.1591 43.5371 22.2898 43.9197 22.5511C44.306 22.8087 44.6072 23.1705 44.8231 23.6364H44.914C45.1375 23.1856 45.4727 22.8277 45.9197 22.5625C46.3666 22.2936 46.9026 22.1591 47.5276 22.1591C48.3079 22.1591 48.9462 22.4034 49.4424 22.892C49.9386 23.3769 50.1867 24.1326 50.1867 25.1591V31H48.8458V25.1591C48.8458 24.5152 48.6697 24.0549 48.3174 23.7784C47.9651 23.5019 47.5503 23.3636 47.0731 23.3636C46.4594 23.3636 45.9841 23.5492 45.6469 23.9205C45.3098 24.2879 45.1412 24.7538 45.1412 25.3182V31H43.7776V25.0227C43.7776 24.5265 43.6166 24.1269 43.2947 23.8239C42.9727 23.517 42.5579 23.3636 42.0503 23.3636C41.7019 23.3636 41.3761 23.4564 41.0731 23.642C40.7738 23.8277 40.5314 24.0852 40.3458 24.4148C40.164 24.7405 40.0731 25.1174 40.0731 25.5455V31H38.7322ZM55.2066 31.2045C54.6536 31.2045 54.1517 31.1004 53.7009 30.892C53.2501 30.6799 52.8922 30.375 52.627 29.9773C52.3619 29.5758 52.2293 29.0909 52.2293 28.5227C52.2293 28.0227 52.3278 27.6174 52.5248 27.3068C52.7217 26.9924 52.985 26.7462 53.3145 26.5682C53.6441 26.3902 54.0077 26.2576 54.4055 26.1705C54.807 26.0795 55.2104 26.0076 55.6157 25.9545C56.146 25.8864 56.5759 25.8352 56.9055 25.8011C57.2388 25.7633 57.4812 25.7008 57.6327 25.6136C57.788 25.5265 57.8657 25.375 57.8657 25.1591V25.1136C57.8657 24.553 57.7123 24.1174 57.4055 23.8068C57.1024 23.4962 56.6422 23.3409 56.0248 23.3409C55.3846 23.3409 54.8827 23.4811 54.5191 23.7614C54.1555 24.0417 53.8998 24.3409 53.752 24.6591L52.4793 24.2045C52.7066 23.6742 53.0096 23.2614 53.3884 22.9659C53.771 22.6667 54.1876 22.4583 54.6384 22.3409C55.093 22.2197 55.5399 22.1591 55.9793 22.1591C56.2596 22.1591 56.5816 22.1932 56.9452 22.2614C57.3126 22.3258 57.6668 22.4602 58.0077 22.6648C58.3524 22.8693 58.6384 23.178 58.8657 23.5909C59.093 24.0038 59.2066 24.5568 59.2066 25.25V31H57.8657V29.8182H57.7975C57.7066 30.0076 57.5551 30.2102 57.343 30.4261C57.1308 30.642 56.8486 30.8258 56.4964 30.9773C56.1441 31.1288 55.7142 31.2045 55.2066 31.2045ZM55.4111 30C55.9414 30 56.3884 29.8958 56.752 29.6875C57.1195 29.4792 57.396 29.2102 57.5816 28.8807C57.771 28.5511 57.8657 28.2045 57.8657 27.8409V26.6136C57.8089 26.6818 57.6839 26.7443 57.4907 26.8011C57.3013 26.8542 57.0816 26.9015 56.8316 26.9432C56.5854 26.9811 56.3448 27.0152 56.11 27.0455C55.8789 27.072 55.6914 27.0947 55.5475 27.1136C55.199 27.1591 54.8733 27.233 54.5702 27.3352C54.271 27.4337 54.0286 27.5833 53.843 27.7841C53.6611 27.9811 53.5702 28.25 53.5702 28.5909C53.5702 29.0568 53.7426 29.4091 54.0873 29.6477C54.4358 29.8826 54.877 30 55.4111 30ZM61.654 31V22.2727H62.9495V23.5909H63.0404C63.1995 23.1591 63.4874 22.8087 63.904 22.5398C64.3207 22.2708 64.7904 22.1364 65.3131 22.1364C65.4116 22.1364 65.5347 22.1383 65.6824 22.142C65.8302 22.1458 65.9419 22.1515 66.0177 22.1591V23.5227C65.9722 23.5114 65.868 23.4943 65.7052 23.4716C65.5461 23.4451 65.3775 23.4318 65.1995 23.4318C64.7752 23.4318 64.3965 23.5208 64.0631 23.6989C63.7336 23.8731 63.4722 24.1155 63.279 24.4261C63.0896 24.733 62.9949 25.0833 62.9949 25.4773V31H61.654ZM70.887 31.1818C70.0688 31.1818 69.3643 30.9886 68.7733 30.6023C68.1824 30.2159 67.7279 29.6837 67.4097 29.0057C67.0915 28.3277 66.9324 27.553 66.9324 26.6818C66.9324 25.7955 67.0953 25.0133 67.4211 24.3352C67.7506 23.6534 68.209 23.1212 68.7961 22.7386C69.387 22.3523 70.0764 22.1591 70.8643 22.1591C71.4779 22.1591 72.0309 22.2727 72.5233 22.5C73.0158 22.7273 73.4192 23.0455 73.7336 23.4545C74.048 23.8636 74.243 24.3409 74.3188 24.8864H72.9779C72.8756 24.4886 72.6483 24.1364 72.2961 23.8295C71.9476 23.5189 71.4779 23.3636 70.887 23.3636C70.3643 23.3636 69.9059 23.5 69.512 23.7727C69.1218 24.0417 68.8169 24.4223 68.5972 24.9148C68.3813 25.4034 68.2733 25.9773 68.2733 26.6364C68.2733 27.3106 68.3794 27.8977 68.5915 28.3977C68.8074 28.8977 69.1105 29.286 69.5006 29.5625C69.8946 29.839 70.3567 29.9773 70.887 29.9773C71.2355 29.9773 71.5518 29.9167 71.8358 29.7955C72.1199 29.6742 72.3605 29.5 72.5574 29.2727C72.7544 29.0455 72.8946 28.7727 72.9779 28.4545H74.3188C74.243 28.9697 74.0555 29.4337 73.7563 29.8466C73.4608 30.2557 73.0688 30.5814 72.5802 30.8239C72.0953 31.0625 71.5309 31.1818 70.887 31.1818ZM78.8472 31.2045C78.2942 31.2045 77.7923 31.1004 77.3415 30.892C76.8908 30.6799 76.5328 30.375 76.2677 29.9773C76.0025 29.5758 75.8699 29.0909 75.8699 28.5227C75.8699 28.0227 75.9684 27.6174 76.1654 27.3068C76.3624 26.9924 76.6256 26.7462 76.9552 26.5682C77.2847 26.3902 77.6483 26.2576 78.0461 26.1705C78.4476 26.0795 78.851 26.0076 79.2563 25.9545C79.7866 25.8864 80.2165 25.8352 80.5461 25.8011C80.8794 25.7633 81.1218 25.7008 81.2733 25.6136C81.4287 25.5265 81.5063 25.375 81.5063 25.1591V25.1136C81.5063 24.553 81.3529 24.1174 81.0461 23.8068C80.743 23.4962 80.2828 23.3409 79.6654 23.3409C79.0252 23.3409 78.5233 23.4811 78.1597 23.7614C77.7961 24.0417 77.5404 24.3409 77.3927 24.6591L76.1199 24.2045C76.3472 23.6742 76.6502 23.2614 77.029 22.9659C77.4116 22.6667 77.8283 22.4583 78.279 22.3409C78.7336 22.2197 79.1805 22.1591 79.6199 22.1591C79.9002 22.1591 80.2222 22.1932 80.5858 22.2614C80.9533 22.3258 81.3074 22.4602 81.6483 22.6648C81.993 22.8693 82.279 23.178 82.5063 23.5909C82.7336 24.0038 82.8472 24.5568 82.8472 25.25V31H81.5063V29.8182H81.4381C81.3472 30.0076 81.1957 30.2102 80.9836 30.4261C80.7715 30.642 80.4893 30.8258 80.137 30.9773C79.7847 31.1288 79.3548 31.2045 78.8472 31.2045ZM79.0518 30C79.5821 30 80.029 29.8958 80.3927 29.6875C80.7601 29.4792 81.0366 29.2102 81.2222 28.8807C81.4116 28.5511 81.5063 28.2045 81.5063 27.8409V26.6136C81.4495 26.6818 81.3245 26.7443 81.1313 26.8011C80.9419 26.8542 80.7222 26.9015 80.4722 26.9432C80.226 26.9811 79.9855 27.0152 79.7506 27.0455C79.5196 27.072 79.3321 27.0947 79.1881 27.1136C78.8396 27.1591 78.5139 27.233 78.2108 27.3352C77.9116 27.4337 77.6692 27.5833 77.4836 27.7841C77.3018 27.9811 77.2108 28.25 77.2108 28.5909C77.2108 29.0568 77.3832 29.4091 77.7279 29.6477C78.0764 29.8826 78.5177 30 79.0518 30ZM97.931 23C97.806 22.6174 97.6412 22.2746 97.4367 21.9716C97.2359 21.6648 96.9954 21.4034 96.7151 21.1875C96.4386 20.9716 96.1242 20.8068 95.7719 20.6932C95.4197 20.5795 95.0333 20.5227 94.6128 20.5227C93.9234 20.5227 93.2965 20.7008 92.7322 21.0568C92.1678 21.4129 91.7189 21.9375 91.3856 22.6307C91.0522 23.3239 90.8856 24.1742 90.8856 25.1818C90.8856 26.1894 91.0541 27.0398 91.3912 27.733C91.7284 28.4261 92.1848 28.9508 92.7606 29.3068C93.3363 29.6629 93.984 29.8409 94.7037 29.8409C95.3704 29.8409 95.9575 29.6989 96.4651 29.4148C96.9765 29.1269 97.3742 28.7216 97.6583 28.1989C97.9462 27.6723 98.0901 27.053 98.0901 26.3409L98.5219 26.4318H95.0219V25.1818H99.4537V26.4318C99.4537 27.3902 99.2492 28.2235 98.8401 28.9318C98.4348 29.6402 97.8742 30.1894 97.1583 30.5795C96.4462 30.9659 95.628 31.1591 94.7037 31.1591C93.6734 31.1591 92.7681 30.9167 91.9878 30.4318C91.2113 29.947 90.6053 29.2576 90.1697 28.3636C89.7378 27.4697 89.5219 26.4091 89.5219 25.1818C89.5219 24.2614 89.645 23.4337 89.8912 22.6989C90.1412 21.9602 90.4935 21.3314 90.9481 20.8125C91.4026 20.2936 91.9405 19.8958 92.5617 19.6193C93.1829 19.3428 93.8666 19.2045 94.6128 19.2045C95.2265 19.2045 95.7984 19.2973 96.3287 19.483C96.8628 19.6648 97.3382 19.9242 97.7549 20.2614C98.1753 20.5947 98.5257 20.9943 98.806 21.4602C99.0863 21.9223 99.2795 22.4356 99.3856 23H97.931ZM101.685 31V22.2727H102.981V23.5909H103.072C103.231 23.1591 103.519 22.8087 103.935 22.5398C104.352 22.2708 104.822 22.1364 105.344 22.1364C105.443 22.1364 105.566 22.1383 105.714 22.142C105.861 22.1458 105.973 22.1515 106.049 22.1591V23.5227C106.003 23.5114 105.899 23.4943 105.736 23.4716C105.577 23.4451 105.409 23.4318 105.231 23.4318C104.806 23.4318 104.428 23.5208 104.094 23.6989C103.765 23.8731 103.503 24.1155 103.31 24.4261C103.121 24.733 103.026 25.0833 103.026 25.4773V31H101.685ZM110.207 31.2045C109.654 31.2045 109.152 31.1004 108.701 30.892C108.25 30.6799 107.892 30.375 107.627 29.9773C107.362 29.5758 107.229 29.0909 107.229 28.5227C107.229 28.0227 107.328 27.6174 107.525 27.3068C107.722 26.9924 107.985 26.7462 108.315 26.5682C108.644 26.3902 109.008 26.2576 109.405 26.1705C109.807 26.0795 110.21 26.0076 110.616 25.9545C111.146 25.8864 111.576 25.8352 111.905 25.8011C112.239 25.7633 112.481 25.7008 112.633 25.6136C112.788 25.5265 112.866 25.375 112.866 25.1591V25.1136C112.866 24.553 112.712 24.1174 112.405 23.8068C112.102 23.4962 111.642 23.3409 111.025 23.3409C110.385 23.3409 109.883 23.4811 109.519 23.7614C109.155 24.0417 108.9 24.3409 108.752 24.6591L107.479 24.2045C107.707 23.6742 108.01 23.2614 108.388 22.9659C108.771 22.6667 109.188 22.4583 109.638 22.3409C110.093 22.2197 110.54 22.1591 110.979 22.1591C111.26 22.1591 111.582 22.1932 111.945 22.2614C112.313 22.3258 112.667 22.4602 113.008 22.6648C113.352 22.8693 113.638 23.178 113.866 23.5909C114.093 24.0038 114.207 24.5568 114.207 25.25V31H112.866V29.8182H112.797C112.707 30.0076 112.555 30.2102 112.343 30.4261C112.131 30.642 111.849 30.8258 111.496 30.9773C111.144 31.1288 110.714 31.2045 110.207 31.2045ZM110.411 30C110.941 30 111.388 29.8958 111.752 29.6875C112.119 29.4792 112.396 29.2102 112.582 28.8807C112.771 28.5511 112.866 28.2045 112.866 27.8409V26.6136C112.809 26.6818 112.684 26.7443 112.491 26.8011C112.301 26.8542 112.082 26.9015 111.832 26.9432C111.585 26.9811 111.345 27.0152 111.11 27.0455C110.879 27.072 110.691 27.0947 110.547 27.1136C110.199 27.1591 109.873 27.233 109.57 27.3352C109.271 27.4337 109.029 27.5833 108.843 27.7841C108.661 27.9811 108.57 28.25 108.57 28.5909C108.57 29.0568 108.743 29.4091 109.087 29.6477C109.436 29.8826 109.877 30 110.411 30ZM117.995 25.75V31H116.654V22.2727H117.949V23.6364H118.063C118.268 23.1932 118.578 22.8371 118.995 22.5682C119.412 22.2955 119.949 22.1591 120.609 22.1591C121.199 22.1591 121.717 22.2803 122.16 22.5227C122.603 22.7614 122.948 23.125 123.194 23.6136C123.44 24.0985 123.563 24.7121 123.563 25.4545V31H122.222V25.5455C122.222 24.8598 122.044 24.3258 121.688 23.9432C121.332 23.5568 120.843 23.3636 120.222 23.3636C119.794 23.3636 119.412 23.4564 119.074 23.642C118.741 23.8277 118.478 24.0985 118.285 24.4545C118.092 24.8106 117.995 25.2424 117.995 25.75ZM130.695 31V19.3636H134.627C135.54 19.3636 136.286 19.5284 136.866 19.858C137.449 20.1837 137.881 20.625 138.161 21.1818C138.441 21.7386 138.582 22.3598 138.582 23.0455C138.582 23.7311 138.441 24.3542 138.161 24.9148C137.885 25.4754 137.457 25.9223 136.877 26.2557C136.297 26.5852 135.555 26.75 134.65 26.75H131.832V25.5H134.604C135.229 25.5 135.731 25.392 136.11 25.1761C136.489 24.9602 136.763 24.6686 136.934 24.3011C137.108 23.9299 137.195 23.5114 137.195 23.0455C137.195 22.5795 137.108 22.1629 136.934 21.7955C136.763 21.428 136.487 21.1402 136.104 20.9318C135.722 20.7197 135.214 20.6136 134.582 20.6136H132.104V31H130.695ZM142.011 19.3636V31H140.67V19.3636H142.011ZM149.967 27.4318V22.2727H151.307V31H149.967V29.5227H149.876C149.671 29.9659 149.353 30.3428 148.921 30.6534C148.489 30.9602 147.944 31.1136 147.285 31.1136C146.739 31.1136 146.254 30.9943 145.83 30.7557C145.406 30.5133 145.073 30.1496 144.83 29.6648C144.588 29.1761 144.467 28.5606 144.467 27.8182V22.2727H145.807V27.7273C145.807 28.3636 145.985 28.8712 146.342 29.25C146.701 29.6288 147.16 29.8182 147.717 29.8182C148.05 29.8182 148.389 29.733 148.734 29.5625C149.082 29.392 149.374 29.1307 149.609 28.7784C149.847 28.4261 149.967 27.9773 149.967 27.4318ZM159.945 24.2273L158.741 24.5682C158.665 24.3674 158.553 24.1723 158.405 23.983C158.262 23.7898 158.065 23.6307 157.815 23.5057C157.565 23.3807 157.244 23.3182 156.854 23.3182C156.32 23.3182 155.875 23.4413 155.519 23.6875C155.167 23.9299 154.991 24.2386 154.991 24.6136C154.991 24.947 155.112 25.2102 155.354 25.4034C155.597 25.5966 155.976 25.7576 156.491 25.8864L157.786 26.2045C158.566 26.3939 159.148 26.6837 159.53 27.0739C159.913 27.4602 160.104 27.9583 160.104 28.5682C160.104 29.0682 159.96 29.5152 159.672 29.9091C159.388 30.303 158.991 30.6136 158.479 30.8409C157.968 31.0682 157.373 31.1818 156.695 31.1818C155.805 31.1818 155.068 30.9886 154.485 30.6023C153.902 30.2159 153.532 29.6515 153.377 28.9091L154.65 28.5909C154.771 29.0606 155 29.4129 155.337 29.6477C155.678 29.8826 156.123 30 156.672 30C157.297 30 157.794 29.8674 158.161 29.6023C158.532 29.3333 158.718 29.0114 158.718 28.6364C158.718 28.3333 158.612 28.0795 158.4 27.875C158.188 27.6667 157.862 27.5114 157.422 27.4091L155.968 27.0682C155.169 26.8788 154.582 26.5852 154.207 26.1875C153.835 25.786 153.65 25.2841 153.65 24.6818C153.65 24.1894 153.788 23.7538 154.065 23.375C154.345 22.9962 154.726 22.6989 155.207 22.483C155.691 22.267 156.241 22.1591 156.854 22.1591C157.718 22.1591 158.396 22.3485 158.888 22.7273C159.385 23.1061 159.737 23.6061 159.945 24.2273ZM170.691 19.3636V31H169.282V20.8409H169.214L166.373 22.7273V21.2955L169.282 19.3636H170.691ZM177.674 31.1591C177.007 31.1591 176.407 31.0265 175.873 30.7614C175.339 30.4962 174.911 30.1326 174.589 29.6705C174.267 29.2083 174.091 28.6818 174.06 28.0909H175.424C175.477 28.6174 175.716 29.053 176.14 29.3977C176.568 29.7386 177.079 29.9091 177.674 29.9091C178.151 29.9091 178.575 29.7973 178.947 29.5739C179.322 29.3504 179.615 29.0436 179.827 28.6534C180.043 28.2595 180.151 27.8144 180.151 27.3182C180.151 26.8106 180.039 26.358 179.816 25.9602C179.596 25.5587 179.293 25.2424 178.907 25.0114C178.521 24.7803 178.079 24.6629 177.583 24.6591C177.227 24.6553 176.861 24.7102 176.486 24.8239C176.111 24.9337 175.803 25.0758 175.56 25.25L174.242 25.0909L174.947 19.3636H180.992V20.6136H176.128L175.719 24.0455H175.788C176.026 23.8561 176.325 23.6989 176.685 23.5739C177.045 23.4489 177.42 23.3864 177.81 23.3864C178.522 23.3864 179.157 23.5568 179.714 23.8977C180.274 24.2348 180.714 24.697 181.032 25.2841C181.354 25.8712 181.515 26.5417 181.515 27.2955C181.515 28.0379 181.348 28.7008 181.015 29.2841C180.685 29.8636 180.231 30.322 179.651 30.6591C179.072 30.9924 178.413 31.1591 177.674 31.1591ZM183.976 31V19.3636H185.386V25.1364H185.522L190.749 19.3636H192.59L187.704 24.6136L192.59 31H190.886L186.84 25.5909L185.386 27.2273V31H183.976ZM197.114 34.4545C196.467 34.4545 195.91 34.3712 195.444 34.2045C194.978 34.0417 194.59 33.8258 194.279 33.5568C193.972 33.2917 193.728 33.0076 193.546 32.7045L194.614 31.9545C194.735 32.1136 194.889 32.2955 195.074 32.5C195.26 32.7083 195.514 32.8883 195.836 33.0398C196.162 33.1951 196.588 33.2727 197.114 33.2727C197.819 33.2727 198.4 33.1023 198.859 32.7614C199.317 32.4205 199.546 31.8864 199.546 31.1591V29.3864H199.432C199.334 29.5455 199.194 29.7424 199.012 29.9773C198.834 30.2083 198.576 30.4148 198.239 30.5966C197.906 30.7746 197.455 30.8636 196.887 30.8636C196.182 30.8636 195.55 30.697 194.989 30.3636C194.432 30.0303 193.991 29.5455 193.665 28.9091C193.343 28.2727 193.182 27.5 193.182 26.5909C193.182 25.697 193.34 24.9186 193.654 24.2557C193.968 23.589 194.406 23.0739 194.967 22.7102C195.527 22.3428 196.175 22.1591 196.91 22.1591C197.478 22.1591 197.929 22.2538 198.262 22.4432C198.599 22.6288 198.857 22.8409 199.035 23.0795C199.217 23.3144 199.357 23.5076 199.455 23.6591H199.592V22.2727H200.887V31.25C200.887 32 200.717 32.6098 200.376 33.0795C200.039 33.553 199.584 33.8996 199.012 34.1193C198.444 34.3428 197.811 34.4545 197.114 34.4545ZM197.069 29.6591C197.607 29.6591 198.061 29.536 198.432 29.2898C198.804 29.0436 199.086 28.6894 199.279 28.2273C199.472 27.7652 199.569 27.2121 199.569 26.5682C199.569 25.9394 199.474 25.3845 199.285 24.9034C199.095 24.4223 198.815 24.0455 198.444 23.7727C198.073 23.5 197.614 23.3636 197.069 23.3636C196.501 23.3636 196.027 23.5076 195.648 23.7955C195.273 24.0833 194.991 24.4697 194.802 24.9545C194.616 25.4394 194.523 25.9773 194.523 26.5682C194.523 27.1742 194.618 27.7102 194.807 28.1761C195.001 28.6383 195.285 29.0019 195.66 29.267C196.039 29.5284 196.508 29.6591 197.069 29.6591Z" fill="#1C2434"/>
</svg>
