<svg width="127" height="21" viewBox="0 0 127 21" fill="none" xmlns="http://www.w3.org/2000/svg">
<path d="M-9.59635e-06 17.1818V1.9091H5.1605C6.35368 1.9091 7.33309 2.11293 8.09871 2.5206C8.86434 2.9233 9.4311 3.47763 9.799 4.1836C10.1669 4.88957 10.3508 5.69248 10.3508 6.59233C10.3508 7.49219 10.1669 8.29013 9.799 8.98616C9.4311 9.68218 8.86682 10.2291 8.10617 10.6268C7.34552 11.0195 6.37357 11.2159 5.19033 11.2159H1.01419V9.54546H5.13067C5.94601 9.54546 6.60226 9.42614 7.09942 9.18751C7.60155 8.94887 7.96448 8.6108 8.1882 8.1733C8.41689 7.73083 8.53124 7.20384 8.53124 6.59233C8.53124 5.98083 8.41689 5.44638 8.1882 4.989C7.95951 4.53161 7.5941 4.17863 7.09196 3.93005C6.58983 3.6765 5.92613 3.54972 5.10084 3.54972H1.84942V17.1818H-9.59635e-06ZM7.18891 10.321L10.9474 17.1818H8.79971L5.10084 10.321H7.18891ZM17.6684 19.0909V4.41074e-06H18.8914V19.0909H17.6684ZM21.7849 5.72728C21.6954 4.9716 21.3325 4.38495 20.6961 3.96733C20.0597 3.54972 19.2792 3.34091 18.3545 3.34091C17.6783 3.34091 17.0867 3.45029 16.5796 3.66904C16.0775 3.88779 15.6847 4.18857 15.4014 4.57138C15.1229 4.9542 14.9837 5.38921 14.9837 5.87643C14.9837 6.2841 15.0807 6.63459 15.2746 6.92792C15.4734 7.21627 15.727 7.45739 16.0352 7.65128C16.3435 7.8402 16.6666 7.99681 17.0047 8.1211C17.3428 8.24042 17.6535 8.33736 17.9369 8.41194L19.488 8.82955C19.8857 8.93395 20.3282 9.07813 20.8154 9.26208C21.3076 9.44603 21.7774 9.69709 22.2249 10.0153C22.6773 10.3285 23.0502 10.7312 23.3435 11.2234C23.6368 11.7156 23.7835 12.3196 23.7835 13.0355C23.7835 13.8608 23.5672 14.6065 23.1347 15.2727C22.7071 15.9389 22.0807 16.4684 21.2554 16.8612C20.4351 17.2539 19.4383 17.4503 18.265 17.4503C17.1712 17.4503 16.2242 17.2738 15.4237 16.9208C14.6283 16.5678 14.0019 16.0756 13.5445 15.4443C13.0921 14.8129 12.836 14.0796 12.7764 13.2443H14.6854C14.7352 13.821 14.9291 14.2983 15.2671 14.6761C15.6102 15.049 16.0427 15.3274 16.5647 15.5114C17.0917 15.6903 17.6585 15.7798 18.265 15.7798C18.971 15.7798 19.6048 15.6655 20.1666 15.4368C20.7284 15.2031 21.1734 14.88 21.5015 14.4673C21.8296 14.0497 21.9937 13.5625 21.9937 13.0057C21.9937 12.4986 21.852 12.0859 21.5686 11.7678C21.2852 11.4496 20.9124 11.1911 20.45 10.9922C19.9877 10.7933 19.488 10.6193 18.9511 10.4702L17.0718 9.93324C15.8786 9.5902 14.934 9.1005 14.238 8.46414C13.542 7.82778 13.194 6.99503 13.194 5.96591C13.194 5.1108 13.4252 4.36506 13.8875 3.7287C14.3548 3.08736 14.9813 2.5902 15.7668 2.23722C16.5573 1.87927 17.4397 1.70029 18.4141 1.70029C19.3985 1.70029 20.2735 1.87678 21.0391 2.22976C21.8048 2.57777 22.4113 3.05505 22.8587 3.66158C23.3112 4.26812 23.5498 4.95668 23.5747 5.72728H21.7849ZM37.2347 17.3906C36.3597 17.3906 35.5717 17.2166 34.8707 16.8686C34.1697 16.5206 33.6079 16.0433 33.1854 15.4368C32.7628 14.8303 32.5316 14.1392 32.4918 13.3636H34.2816C34.3512 14.0547 34.6644 14.6264 35.2212 15.0788C35.783 15.5263 36.4542 15.75 37.2347 15.75C37.8611 15.75 38.418 15.6033 38.9052 15.31C39.3974 15.0167 39.7827 14.614 40.0611 14.1019C40.3445 13.5849 40.4861 13.0007 40.4861 12.3494C40.4861 11.6832 40.3395 11.0891 40.0462 10.5671C39.7578 10.0401 39.3601 9.62501 38.853 9.32174C38.3459 9.01847 37.7667 8.86435 37.1154 8.85938C36.6481 8.85441 36.1683 8.9265 35.6761 9.07564C35.1839 9.21982 34.7788 9.40626 34.4606 9.63495L32.7305 9.42614L33.6552 1.9091H41.5898V3.54972H35.2063L34.6694 8.05398H34.7589C35.0721 7.8054 35.4648 7.59908 35.9371 7.43502C36.4094 7.27096 36.9016 7.18893 37.4137 7.18893C38.3484 7.18893 39.1811 7.41265 39.9119 7.86009C40.6477 8.30256 41.2244 8.9091 41.642 9.67969C42.0646 10.4503 42.2759 11.3303 42.2759 12.3196C42.2759 13.294 42.0572 14.1641 41.6197 14.9297C41.1871 15.6903 40.5905 16.2919 39.8299 16.7344C39.0692 17.1719 38.2042 17.3906 37.2347 17.3906ZM50.1006 1.70029C50.727 1.70526 51.3534 1.82458 51.9798 2.05824C52.6063 2.29191 53.178 2.67969 53.695 3.2216C54.2121 3.75853 54.6272 4.49184 54.9404 5.42152C55.2536 6.35121 55.4102 7.51705 55.4102 8.91904C55.4102 10.2763 55.281 11.4819 55.0225 12.5359C54.7689 13.5849 54.401 14.4698 53.9188 15.1907C53.4415 15.9116 52.8598 16.4585 52.1737 16.8313C51.4926 17.2042 50.722 17.3906 49.8619 17.3906C49.0068 17.3906 48.2437 17.2216 47.5725 16.8835C46.9063 16.5405 46.3595 16.0657 45.9319 15.4592C45.5093 14.8477 45.2384 14.1392 45.119 13.3338H46.9386C47.1027 14.0348 47.4283 14.614 47.9156 15.0714C48.4077 15.5238 49.0565 15.75 49.8619 15.75C51.0402 15.75 51.9699 15.2354 52.651 14.2063C53.3371 13.1772 53.6801 11.723 53.6801 9.84376H53.5608C53.2824 10.2614 52.9518 10.6218 52.569 10.9251C52.1862 11.2283 51.7611 11.462 51.2938 11.6261C50.8264 11.7901 50.3293 11.8722 49.8023 11.8722C48.9273 11.8722 48.1244 11.6559 47.3935 11.2234C46.6677 10.7859 46.086 10.1868 45.6485 9.42614C45.216 8.66052 44.9997 7.78552 44.9997 6.80114C44.9997 5.86648 45.2085 5.01137 45.6261 4.2358C46.0487 3.45526 46.6403 2.83381 47.401 2.37145C48.1666 1.9091 49.0665 1.68537 50.1006 1.70029ZM50.1006 3.34091C49.4742 3.34091 48.9099 3.49752 48.4077 3.81073C47.9106 4.11897 47.5153 4.53658 47.222 5.06357C46.9337 5.58559 46.7895 6.16478 46.7895 6.80114C46.7895 7.43751 46.9287 8.0167 47.2071 8.53871C47.4905 9.05576 47.8758 9.4684 48.363 9.77664C48.8552 10.0799 49.4145 10.2315 50.0409 10.2315C50.5132 10.2315 50.9532 10.1396 51.3609 9.95562C51.7685 9.7667 52.124 9.51066 52.4273 9.18751C52.7355 8.85938 52.9766 8.489 53.1506 8.07635C53.3247 7.65874 53.4117 7.22373 53.4117 6.77131C53.4117 6.17472 53.2675 5.61542 52.9791 5.0934C52.6957 4.57138 52.303 4.1488 51.8009 3.82564C51.3037 3.50249 50.7369 3.34091 50.1006 3.34091ZM60.4645 15.0938L60.3452 15.8992C60.2606 16.4659 60.1314 17.0724 59.9574 17.7188C59.7883 18.3651 59.6119 18.9741 59.4279 19.5458C59.244 20.1175 59.0923 20.5724 58.973 20.9105H57.6307C57.6953 20.5923 57.7798 20.1722 57.8842 19.6502C57.9886 19.1282 58.093 18.544 58.1974 17.8977C58.3068 17.2564 58.3963 16.6001 58.4659 15.929L58.5554 15.0938H60.4645ZM68.4141 1.70029C69.0405 1.70526 69.6669 1.82458 70.2933 2.05824C70.9197 2.29191 71.4915 2.67969 72.0085 3.2216C72.5256 3.75853 72.9407 4.49184 73.2539 5.42152C73.5671 6.35121 73.7237 7.51705 73.7237 8.91904C73.7237 10.2763 73.5945 11.4819 73.3359 12.5359C73.0824 13.5849 72.7145 14.4698 72.2322 15.1907C71.755 15.9116 71.1733 16.4585 70.4872 16.8313C69.8061 17.2042 69.0355 17.3906 68.1754 17.3906C67.3203 17.3906 66.5572 17.2216 65.886 16.8835C65.2198 16.5405 64.6729 16.0657 64.2454 15.4592C63.8228 14.8477 63.5518 14.1392 63.4325 13.3338H65.2521C65.4162 14.0348 65.7418 14.614 66.229 15.0714C66.7212 15.5238 67.37 15.75 68.1754 15.75C69.3537 15.75 70.2834 15.2354 70.9645 14.2063C71.6506 13.1772 71.9936 11.723 71.9936 9.84376H71.8743C71.5959 10.2614 71.2653 10.6218 70.8824 10.9251C70.4996 11.2283 70.0746 11.462 69.6072 11.6261C69.1399 11.7901 68.6427 11.8722 68.1158 11.8722C67.2408 11.8722 66.4378 11.6559 65.707 11.2234C64.9812 10.7859 64.3995 10.1868 63.962 9.42614C63.5295 8.66052 63.3132 7.78552 63.3132 6.80114C63.3132 5.86648 63.522 5.01137 63.9396 4.2358C64.3622 3.45526 64.9538 2.83381 65.7145 2.37145C66.4801 1.9091 67.38 1.68537 68.4141 1.70029ZM68.4141 3.34091C67.7876 3.34091 67.2234 3.49752 66.7212 3.81073C66.2241 4.11897 65.8288 4.53658 65.5355 5.06357C65.2471 5.58559 65.103 6.16478 65.103 6.80114C65.103 7.43751 65.2422 8.0167 65.5206 8.53871C65.804 9.05576 66.1893 9.4684 66.6765 9.77664C67.1687 10.0799 67.728 10.2315 68.3544 10.2315C68.8267 10.2315 69.2667 10.1396 69.6744 9.95562C70.082 9.7667 70.4375 9.51066 70.7408 9.18751C71.049 8.85938 71.2901 8.489 71.4641 8.07635C71.6381 7.65874 71.7251 7.22373 71.7251 6.77131C71.7251 6.17472 71.581 5.61542 71.2926 5.0934C71.0092 4.57138 70.6165 4.1488 70.1143 3.82564C69.6172 3.50249 69.0504 3.34091 68.4141 3.34091ZM81.5185 1.70029C82.145 1.70526 82.7714 1.82458 83.3978 2.05824C84.0242 2.29191 84.596 2.67969 85.113 3.2216C85.6301 3.75853 86.0452 4.49184 86.3584 5.42152C86.6716 6.35121 86.8282 7.51705 86.8282 8.91904C86.8282 10.2763 86.6989 11.4819 86.4404 12.5359C86.1869 13.5849 85.819 14.4698 85.3367 15.1907C84.8595 15.9116 84.2778 16.4585 83.5917 16.8313C82.9106 17.2042 82.14 17.3906 81.2799 17.3906C80.4248 17.3906 79.6617 17.2216 78.9905 16.8835C78.3243 16.5405 77.7774 16.0657 77.3499 15.4592C76.9273 14.8477 76.6563 14.1392 76.537 13.3338H78.3566C78.5207 14.0348 78.8463 14.614 79.3335 15.0714C79.8257 15.5238 80.4745 15.75 81.2799 15.75C82.4582 15.75 83.3879 15.2354 84.069 14.2063C84.7551 13.1772 85.0981 11.723 85.0981 9.84376H84.9788C84.7004 10.2614 84.3698 10.6218 83.9869 10.9251C83.6041 11.2283 83.1791 11.462 82.7117 11.6261C82.2444 11.7901 81.7472 11.8722 81.2202 11.8722C80.3452 11.8722 79.5423 11.6559 78.8115 11.2234C78.0857 10.7859 77.504 10.1868 77.0665 9.42614C76.634 8.66052 76.4177 7.78552 76.4177 6.80114C76.4177 5.86648 76.6265 5.01137 77.0441 4.2358C77.4667 3.45526 78.0583 2.83381 78.819 2.37145C79.5846 1.9091 80.4845 1.68537 81.5185 1.70029ZM81.5185 3.34091C80.8921 3.34091 80.3278 3.49752 79.8257 3.81073C79.3286 4.11897 78.9333 4.53658 78.64 5.06357C78.3516 5.58559 78.2075 6.16478 78.2075 6.80114C78.2075 7.43751 78.3467 8.0167 78.6251 8.53871C78.9085 9.05576 79.2938 9.4684 79.781 9.77664C80.2732 10.0799 80.8325 10.2315 81.4589 10.2315C81.9312 10.2315 82.3712 10.1396 82.7788 9.95562C83.1865 9.7667 83.542 9.51066 83.8452 9.18751C84.1535 8.85938 84.3946 8.489 84.5686 8.07635C84.7426 7.65874 84.8296 7.22373 84.8296 6.77131C84.8296 6.17472 84.6854 5.61542 84.3971 5.0934C84.1137 4.57138 83.721 4.1488 83.2188 3.82564C82.7217 3.50249 82.1549 3.34091 81.5185 3.34091ZM105.958 1.9091H107.808V12.0213C107.808 13.0653 107.562 13.9975 107.069 14.8178C106.582 15.6332 105.894 16.277 105.004 16.7493C104.114 17.2166 103.07 17.4503 101.872 17.4503C100.673 17.4503 99.6294 17.2166 98.7395 16.7493C97.8496 16.277 97.1585 15.6332 96.6664 14.8178C96.1791 13.9975 95.9355 13.0653 95.9355 12.0213V1.9091H97.785V11.8722C97.785 12.6179 97.949 13.2816 98.2772 13.8633C98.6053 14.44 99.0726 14.8949 99.6791 15.228C100.291 15.5561 101.021 15.7202 101.872 15.7202C102.722 15.7202 103.453 15.5561 104.064 15.228C104.676 14.8949 105.143 14.44 105.466 13.8633C105.794 13.2816 105.958 12.6179 105.958 11.8722V1.9091ZM113.022 10.2912V17.1818H111.262V5.72728H112.963V7.51705H113.112C113.38 6.93537 113.788 6.46805 114.335 6.11506C114.882 5.75711 115.588 5.57813 116.453 5.57813C117.228 5.57813 117.907 5.73722 118.489 6.0554C119.07 6.36861 119.523 6.84589 119.846 7.48722C120.169 8.12358 120.331 8.92898 120.331 9.90341V17.1818H118.571V10.0227C118.571 9.12287 118.337 8.42188 117.87 7.91975C117.402 7.41265 116.761 7.1591 115.946 7.1591C115.384 7.1591 114.882 7.2809 114.439 7.52451C114.002 7.76812 113.656 8.12358 113.403 8.59091C113.149 9.05824 113.022 9.62501 113.022 10.2912ZM124.829 17.3011C124.461 17.3011 124.146 17.1694 123.882 16.9059C123.619 16.6424 123.487 16.3267 123.487 15.9588C123.487 15.5909 123.619 15.2752 123.882 15.0117C124.146 14.7482 124.461 14.6165 124.829 14.6165C125.197 14.6165 125.513 14.7482 125.776 15.0117C126.04 15.2752 126.172 15.5909 126.172 15.9588C126.172 16.2024 126.109 16.4261 125.985 16.63C125.866 16.8338 125.704 16.9979 125.5 17.1222C125.301 17.2415 125.078 17.3011 124.829 17.3011Z" fill="#1C2434"/>
</svg>
