<svg width="120" height="196" viewBox="0 0 120 196" fill="none" xmlns="http://www.w3.org/2000/svg">
<path d="M3.68122 15.6605V0.387787H8.84173C10.0349 0.387787 11.0143 0.591622 11.7799 0.999293C12.5456 1.40199 13.1123 1.95632 13.4802 2.66229C13.8481 3.36826 14.0321 4.17117 14.0321 5.07103C14.0321 5.97088 13.8481 6.76882 13.4802 7.46485C13.1123 8.16087 12.5481 8.70774 11.7874 9.10547C11.0267 9.49823 10.0548 9.69461 8.87156 9.69461H4.69542V8.02415H8.8119C9.62724 8.02415 10.2835 7.90483 10.7807 7.6662C11.2828 7.42756 11.6457 7.08949 11.8694 6.65199C12.0981 6.20952 12.2125 5.68253 12.2125 5.07103C12.2125 4.45952 12.0981 3.92507 11.8694 3.46769C11.6407 3.0103 11.2753 2.65732 10.7732 2.40874C10.2711 2.15519 9.60736 2.02841 8.78207 2.02841H5.53065V15.6605H3.68122ZM10.8701 8.79972L14.6287 15.6605H12.4809L8.78207 8.79972H10.8701ZM20.2459 15.929C19.5201 15.929 18.8614 15.7923 18.2697 15.5188C17.6781 15.2404 17.2083 14.8402 16.8603 14.3182C16.5123 13.7912 16.3383 13.1548 16.3383 12.4091C16.3383 11.7528 16.4675 11.2209 16.7261 10.8132C16.9846 10.4006 17.3301 10.0774 17.7626 9.84375C18.1952 9.61009 18.6724 9.43608 19.1944 9.32174C19.7214 9.20242 20.2509 9.10796 20.7829 9.03836C21.4789 8.94887 22.0432 8.88175 22.4757 8.83701C22.9132 8.78729 23.2314 8.70526 23.4302 8.59091C23.6341 8.47657 23.736 8.2777 23.736 7.99432V7.93466C23.736 7.19887 23.5346 6.62713 23.1319 6.21946C22.7342 5.81179 22.1302 5.60796 21.3198 5.60796C20.4796 5.60796 19.8209 5.79191 19.3436 6.1598C18.8663 6.5277 18.5307 6.92046 18.3368 7.33807L16.6664 6.74148C16.9647 6.04546 17.3624 5.50355 17.8596 5.11577C18.3617 4.72301 18.9086 4.44958 19.5002 4.29546C20.0968 4.13637 20.6834 4.05682 21.2601 4.05682C21.628 4.05682 22.0506 4.10157 22.5279 4.19105C23.0101 4.27557 23.475 4.45206 23.9224 4.72053C24.3748 4.98899 24.7502 5.39418 25.0485 5.93608C25.3468 6.47799 25.4959 7.20384 25.4959 8.11364V15.6605H23.736V14.1094H23.6465C23.5272 14.358 23.3283 14.6239 23.0499 14.9073C22.7715 15.1907 22.4011 15.4318 21.9388 15.6307C21.4764 15.8295 20.9121 15.929 20.2459 15.929ZM20.5144 14.348C21.2104 14.348 21.7971 14.2113 22.2743 13.9379C22.7566 13.6644 23.1195 13.3114 23.3631 12.8789C23.6117 12.4464 23.736 11.9915 23.736 11.5142V9.90341C23.6614 9.9929 23.4974 10.0749 23.2438 10.1495C22.9952 10.2191 22.7069 10.2813 22.3788 10.3359C22.0556 10.3857 21.7399 10.4304 21.4317 10.4702C21.1284 10.505 20.8823 10.5348 20.6934 10.5597C20.236 10.6193 19.8084 10.7163 19.4107 10.8505C19.018 10.9798 18.6998 11.1761 18.4562 11.4396C18.2175 11.6982 18.0982 12.0511 18.0982 12.4986C18.0982 13.1101 18.3244 13.5724 18.7768 13.8857C19.2342 14.1939 19.8134 14.348 20.5144 14.348ZM33.3616 15.8992C32.2878 15.8992 31.363 15.6456 30.5875 15.1385C29.8119 14.6314 29.2153 13.9329 28.7977 13.043C28.3801 12.1531 28.1713 11.1364 28.1713 9.9929C28.1713 8.82955 28.3851 7.80292 28.8126 6.913C29.2451 6.01811 29.8467 5.31961 30.6173 4.81747C31.3929 4.31037 32.2977 4.05682 33.3318 4.05682C34.1372 4.05682 34.863 4.20597 35.5093 4.50426C36.1557 4.80256 36.6851 5.22017 37.0978 5.75711C37.5104 6.29404 37.7664 6.92046 37.8659 7.63637H36.1059C35.9717 7.11435 35.6734 6.65199 35.211 6.24929C34.7537 5.84162 34.1372 5.63779 33.3616 5.63779C32.6755 5.63779 32.074 5.81676 31.5569 6.17472C31.0449 6.5277 30.6446 7.02735 30.3563 7.67365C30.0729 8.31499 29.9312 9.06819 29.9312 9.93324C29.9312 10.8182 30.0704 11.5888 30.3488 12.245C30.6322 12.9013 31.0299 13.4109 31.542 13.7738C32.0591 14.1367 32.6656 14.3182 33.3616 14.3182C33.819 14.3182 34.2341 14.2386 34.607 14.0795C34.9799 13.9205 35.2956 13.6918 35.5541 13.3935C35.8126 13.0952 35.9966 12.7372 36.1059 12.3196H37.8659C37.7664 12.9957 37.5204 13.6048 37.1276 14.1467C36.7398 14.6836 36.2253 15.1112 35.5839 15.4293C34.9476 15.7425 34.2068 15.8992 33.3616 15.8992ZM32.5264 15.6009H33.988L33.8687 16.1974C34.2565 16.2571 34.612 16.4187 34.9351 16.6822C35.2583 16.9506 35.4199 17.3757 35.4199 17.9574C35.4199 18.5987 35.1539 19.1207 34.6219 19.5234C34.0949 19.9311 33.3169 20.1349 32.2878 20.1349L32.2281 18.9716C32.6905 18.9716 33.0733 18.897 33.3765 18.7479C33.6848 18.6037 33.8389 18.3601 33.8389 18.017C33.8389 17.674 33.7121 17.4403 33.4586 17.3161C33.205 17.1918 32.7949 17.1072 32.2281 17.0625L32.5264 15.6009ZM43.8094 15.929C43.0836 15.929 42.4248 15.7923 41.8332 15.5188C41.2416 15.2404 40.7718 14.8402 40.4238 14.3182C40.0758 13.7912 39.9017 13.1548 39.9017 12.4091C39.9017 11.7528 40.031 11.2209 40.2895 10.8132C40.5481 10.4006 40.8936 10.0774 41.3261 9.84375C41.7586 9.61009 42.2359 9.43608 42.7579 9.32174C43.2849 9.20242 43.8144 9.10796 44.3463 9.03836C45.0424 8.94887 45.6066 8.88175 46.0392 8.83701C46.4767 8.78729 46.7949 8.70526 46.9937 8.59091C47.1976 8.47657 47.2995 8.2777 47.2995 7.99432V7.93466C47.2995 7.19887 47.0981 6.62713 46.6954 6.21946C46.2977 5.81179 45.6936 5.60796 44.8833 5.60796C44.0431 5.60796 43.3843 5.79191 42.9071 6.1598C42.4298 6.5277 42.0942 6.92046 41.9003 7.33807L40.2299 6.74148C40.5282 6.04546 40.9259 5.50355 41.4231 5.11577C41.9252 4.72301 42.4721 4.44958 43.0637 4.29546C43.6603 4.13637 44.2469 4.05682 44.8236 4.05682C45.1915 4.05682 45.6141 4.10157 46.0914 4.19105C46.5736 4.27557 47.0385 4.45206 47.4859 4.72053C47.9383 4.98899 48.3137 5.39418 48.612 5.93608C48.9103 6.47799 49.0594 7.20384 49.0594 8.11364V15.6605H47.2995V14.1094H47.21C47.0907 14.358 46.8918 14.6239 46.6134 14.9073C46.335 15.1907 45.9646 15.4318 45.5022 15.6307C45.0399 15.8295 44.4756 15.929 43.8094 15.929ZM44.0779 14.348C44.7739 14.348 45.3606 14.2113 45.8378 13.9379C46.3201 13.6644 46.683 13.3114 46.9266 12.8789C47.1752 12.4464 47.2995 11.9915 47.2995 11.5142V9.90341C47.2249 9.9929 47.0608 10.0749 46.8073 10.1495C46.5587 10.2191 46.2704 10.2813 45.9422 10.3359C45.6191 10.3857 45.3034 10.4304 44.9951 10.4702C44.6919 10.505 44.4458 10.5348 44.2569 10.5597C43.7995 10.6193 43.3719 10.7163 42.9742 10.8505C42.5814 10.9798 42.2633 11.1761 42.0196 11.4396C41.781 11.6982 41.6617 12.0511 41.6617 12.4986C41.6617 13.1101 41.8879 13.5724 42.3403 13.8857C42.7977 14.1939 43.3769 14.348 44.0779 14.348ZM42.6461 2.83381L41.2739 2.77415C41.2739 2.0135 41.4902 1.39205 41.9227 0.909804C42.3602 0.422588 42.8996 0.17898 43.5409 0.17898C43.8243 0.17898 44.0754 0.228696 44.2941 0.328127C44.5129 0.422588 44.7217 0.531963 44.9206 0.656252C45.1194 0.780543 45.3233 0.892404 45.5321 0.991835C45.7458 1.0863 45.987 1.13353 46.2554 1.13353C46.5388 1.13353 46.7775 1.02415 46.9713 0.805401C47.1702 0.581679 47.2696 0.313213 47.2696 2.44379e-06L48.612 0.119322C48.612 0.894889 48.3932 1.51137 47.9557 1.96875C47.5232 2.42614 46.9863 2.65483 46.3449 2.65483C46.0019 2.65483 45.7185 2.6076 45.4948 2.51314C45.2711 2.41371 45.0722 2.30185 44.8982 2.17756C44.7242 2.05327 44.5402 1.94389 44.3463 1.84943C44.1525 1.75 43.9138 1.70029 43.6304 1.70029C43.3471 1.70029 43.1109 1.81215 42.922 2.03587C42.738 2.25462 42.6461 2.5206 42.6461 2.83381ZM56.9251 15.8992C55.891 15.8992 54.9837 15.6531 54.2031 15.1609C53.4276 14.6687 52.821 13.9801 52.3835 13.0952C51.951 12.2102 51.7348 11.1761 51.7348 9.9929C51.7348 8.79972 51.951 7.75817 52.3835 6.86826C52.821 5.97834 53.4276 5.28729 54.2031 4.7951C54.9837 4.30292 55.891 4.05682 56.9251 4.05682C57.9592 4.05682 58.864 4.30292 59.6396 4.7951C60.4201 5.28729 61.0267 5.97834 61.4592 6.86826C61.8967 7.75817 62.1154 8.79972 62.1154 9.9929C62.1154 11.1761 61.8967 12.2102 61.4592 13.0952C61.0267 13.9801 60.4201 14.6687 59.6396 15.1609C58.864 15.6531 57.9592 15.8992 56.9251 15.8992ZM56.9251 14.3182C57.7106 14.3182 58.3569 14.1168 58.864 13.7141C59.3711 13.3114 59.7465 12.782 59.9901 12.1257C60.2337 11.4695 60.3555 10.7585 60.3555 9.9929C60.3555 9.22728 60.2337 8.51385 59.9901 7.85263C59.7465 7.19141 59.3711 6.65696 58.864 6.24929C58.3569 5.84162 57.7106 5.63779 56.9251 5.63779C56.1396 5.63779 55.4933 5.84162 54.9862 6.24929C54.4791 6.65696 54.1037 7.19141 53.8601 7.85263C53.6165 8.51385 53.4947 9.22728 53.4947 9.9929C53.4947 10.7585 53.6165 11.4695 53.8601 12.1257C54.1037 12.782 54.4791 13.3114 54.9862 13.7141C55.4933 14.1168 56.1396 14.3182 56.9251 14.3182ZM76.0477 0.387787V15.6605H74.1983V2.32671H74.1088L70.3801 4.80256V2.9233L74.1983 0.387787H76.0477ZM85.2128 15.8693C84.3378 15.8693 83.5498 15.6953 82.8488 15.3473C82.1478 14.9993 81.586 14.522 81.1635 13.9155C80.7409 13.309 80.5097 12.6179 80.4699 11.8423H82.2597C82.3293 12.5334 82.6425 13.1051 83.1993 13.5575C83.7611 14.005 84.4323 14.2287 85.2128 14.2287C85.8392 14.2287 86.3961 14.082 86.8833 13.7887C87.3755 13.4954 87.7608 13.0927 88.0392 12.5806C88.3226 12.0636 88.4642 11.4794 88.4642 10.8281C88.4642 10.1619 88.3176 9.56783 88.0243 9.04581C87.7359 8.51882 87.3382 8.1037 86.8311 7.80043C86.324 7.49716 85.7448 7.34304 85.0935 7.33807C84.6262 7.3331 84.1464 7.40519 83.6542 7.55434C83.162 7.69851 82.7569 7.88495 82.4387 8.11364L80.7086 7.90483L81.6333 0.387787H89.5679V2.02841H83.1844L82.6475 6.53267H82.737C83.0502 6.28409 83.4429 6.07777 83.9152 5.91371C84.3875 5.74965 84.8797 5.66762 85.3918 5.66762C86.3265 5.66762 87.1592 5.89134 87.89 6.33878C88.6258 6.78125 89.2025 7.38779 89.6201 8.15838C90.0427 8.92898 90.254 9.80895 90.254 10.7983C90.254 11.7727 90.0353 12.6428 89.5978 13.4084C89.1652 14.169 88.5686 14.7706 87.808 15.2131C87.0473 15.6506 86.1823 15.8693 85.2128 15.8693ZM93.4849 15.6605V0.387787H95.3344V7.96449H95.5133L102.374 0.387787H104.79L98.377 7.27841L104.79 15.6605H102.553L97.2435 8.56108L95.3344 10.7088V15.6605H93.4849ZM110.728 20.1946C109.878 20.1946 109.147 20.0852 108.536 19.8665C107.924 19.6527 107.415 19.3693 107.007 19.0163C106.604 18.6683 106.284 18.2955 106.045 17.8977L107.447 16.9134C107.606 17.1222 107.807 17.3608 108.051 17.6293C108.295 17.9027 108.628 18.1389 109.05 18.3377C109.478 18.5416 110.037 18.6435 110.728 18.6435C111.653 18.6435 112.416 18.4197 113.018 17.9723C113.619 17.5249 113.92 16.8239 113.92 15.8693V13.5426H113.771C113.642 13.7514 113.458 14.0099 113.219 14.3182C112.985 14.6215 112.647 14.8924 112.205 15.131C111.767 15.3647 111.176 15.4815 110.43 15.4815C109.505 15.4815 108.675 15.2628 107.939 14.8253C107.208 14.3878 106.629 13.7514 106.202 12.9162C105.779 12.081 105.568 11.0668 105.568 9.87358C105.568 8.70029 105.774 7.67863 106.187 6.8086C106.599 5.9336 107.174 5.25746 107.909 4.78019C108.645 4.29794 109.495 4.05682 110.46 4.05682C111.206 4.05682 111.797 4.18111 112.235 4.42969C112.677 4.6733 113.015 4.95171 113.249 5.26492C113.488 5.57316 113.671 5.82671 113.801 6.02557H113.98V4.20597H115.68V15.9886C115.68 16.973 115.456 17.7734 115.009 18.3899C114.566 19.0114 113.97 19.4663 113.219 19.7546C112.473 20.0479 111.643 20.1946 110.728 20.1946ZM110.669 13.9006C111.375 13.9006 111.971 13.739 112.458 13.4158C112.946 13.0927 113.316 12.6278 113.57 12.0213C113.823 11.4148 113.95 10.6889 113.95 9.84375C113.95 9.01847 113.826 8.29013 113.577 7.65874C113.328 7.02735 112.961 6.53267 112.473 6.17472C111.986 5.81676 111.385 5.63779 110.669 5.63779C109.923 5.63779 109.301 5.82671 108.804 6.20455C108.312 6.58239 107.942 7.08949 107.693 7.72586C107.45 8.36222 107.328 9.06819 107.328 9.84375C107.328 10.6392 107.452 11.3427 107.701 11.9542C107.954 12.5607 108.327 13.038 108.819 13.386C109.316 13.7291 109.933 13.9006 110.669 13.9006ZM24.3857 30.1605C24.2217 29.6584 24.0054 29.2085 23.7369 28.8107C23.4734 28.408 23.1577 28.065 22.7898 27.7816C22.4269 27.4982 22.0143 27.282 21.5519 27.1328C21.0896 26.9837 20.5825 26.9091 20.0306 26.9091C19.1258 26.9091 18.303 27.1428 17.5622 27.6101C16.8214 28.0774 16.2323 28.766 15.7948 29.6758C15.3573 30.5856 15.1386 31.7017 15.1386 33.0242C15.1386 34.3466 15.3598 35.4627 15.8023 36.3725C16.2447 37.2823 16.8438 37.9709 17.5995 38.4382C18.3552 38.9055 19.2053 39.1392 20.1499 39.1392C21.0249 39.1392 21.7955 38.9528 22.4617 38.5799C23.1329 38.2021 23.6549 37.6701 24.0278 36.984C24.4056 36.293 24.5945 35.4801 24.5945 34.5455L25.1613 34.6648H20.5675V33.0242H26.3843V34.6648C26.3843 35.9226 26.1158 37.0163 25.5789 37.946C25.0469 38.8757 24.3111 39.5966 23.3715 40.1087C22.4369 40.6158 21.363 40.8693 20.1499 40.8693C18.7977 40.8693 17.6094 40.5511 16.5853 39.9148C15.5661 39.2784 14.7707 38.3736 14.1989 37.2003C13.6322 36.027 13.3488 34.6349 13.3488 33.0242C13.3488 31.8161 13.5104 30.7298 13.8335 29.7653C14.1616 28.7958 14.624 27.9705 15.2206 27.2894C15.8172 26.6083 16.5231 26.0863 17.3385 25.7234C18.1538 25.3604 19.0512 25.179 20.0306 25.179C20.836 25.179 21.5867 25.3008 22.2827 25.5444C22.9837 25.783 23.6077 26.1236 24.1545 26.5661C24.7064 27.0036 25.1663 27.5281 25.5342 28.1396C25.9021 28.7461 26.1556 29.4197 26.2948 30.1605H24.3857ZM29.3132 40.6605V29.206H31.0135V30.9361H31.1328C31.3416 30.3693 31.7194 29.9094 32.2663 29.5565C32.8132 29.2035 33.4297 29.027 34.1157 29.027C34.245 29.027 34.4066 29.0295 34.6005 29.0344C34.7944 29.0394 34.941 29.0469 35.0405 29.0568V30.8466C34.9808 30.8317 34.8441 30.8093 34.6303 30.7795C34.4215 30.7447 34.2003 30.7273 33.9666 30.7273C33.4098 30.7273 32.9126 30.8441 32.4751 31.0778C32.0426 31.3065 31.6996 31.6246 31.446 32.0323C31.1974 32.435 31.0731 32.8949 31.0731 33.4119V40.6605H29.3132ZM40.4974 40.929C39.7716 40.929 39.1128 40.7923 38.5212 40.5188C37.9296 40.2404 37.4598 39.8402 37.1117 39.3182C36.7637 38.7912 36.5897 38.1548 36.5897 37.4091C36.5897 36.7528 36.719 36.2209 36.9775 35.8132C37.236 35.4006 37.5816 35.0774 38.0141 34.8438C38.4466 34.6101 38.9239 34.4361 39.4459 34.3217C39.9729 34.2024 40.5024 34.108 41.0343 34.0384C41.7304 33.9489 42.2946 33.8818 42.7272 33.837C43.1647 33.7873 43.4828 33.7053 43.6817 33.5909C43.8855 33.4766 43.9875 33.2777 43.9875 32.9943V32.9347C43.9875 32.1989 43.7861 31.6271 43.3834 31.2195C42.9857 30.8118 42.3816 30.608 41.5713 30.608C40.7311 30.608 40.0723 30.7919 39.5951 31.1598C39.1178 31.5277 38.7822 31.9205 38.5883 32.3381L36.9179 31.7415C37.2162 31.0455 37.6139 30.5036 38.111 30.1158C38.6132 29.723 39.16 29.4496 39.7517 29.2955C40.3483 29.1364 40.9349 29.0568 41.5116 29.0568C41.8795 29.0568 42.3021 29.1016 42.7794 29.1911C43.2616 29.2756 43.7265 29.4521 44.1739 29.7205C44.6263 29.989 45.0017 30.3942 45.3 30.9361C45.5983 31.478 45.7474 32.2038 45.7474 33.1136V40.6605H43.9875V39.1094H43.898C43.7787 39.358 43.5798 39.6239 43.3014 39.9073C43.023 40.1907 42.6526 40.4318 42.1902 40.6307C41.7279 40.8295 41.1636 40.929 40.4974 40.929ZM40.7659 39.348C41.4619 39.348 42.0485 39.2113 42.5258 38.9379C43.0081 38.6644 43.371 38.3114 43.6146 37.8789C43.8632 37.4464 43.9875 36.9915 43.9875 36.5142V34.9034C43.9129 34.9929 43.7488 35.0749 43.4953 35.1495C43.2467 35.2191 42.9583 35.2813 42.6302 35.3359C42.3071 35.3857 41.9914 35.4304 41.6831 35.4702C41.3799 35.505 41.1338 35.5348 40.9448 35.5597C40.4875 35.6193 40.0599 35.7163 39.6622 35.8505C39.2694 35.9798 38.9512 36.1761 38.7076 36.4396C38.469 36.6982 38.3497 37.0511 38.3497 37.4986C38.3497 38.1101 38.5759 38.5724 39.0283 38.8857C39.4857 39.1939 40.0649 39.348 40.7659 39.348ZM50.7196 33.7699V40.6605H48.9597V29.206H50.66V30.9957H50.8091C51.0776 30.4141 51.4852 29.9467 52.0321 29.5938C52.579 29.2358 53.285 29.0568 54.15 29.0568C54.9256 29.0568 55.6042 29.2159 56.1859 29.5341C56.7676 29.8473 57.22 30.3246 57.5431 30.9659C57.8663 31.6023 58.0279 32.4077 58.0279 33.3821V40.6605H56.2679V33.5014C56.2679 32.6016 56.0342 31.9006 55.5669 31.3984C55.0996 30.8913 54.4583 30.6378 53.6429 30.6378C53.0811 30.6378 52.579 30.7596 52.1365 31.0032C51.699 31.2468 51.3535 31.6023 51.0999 32.0696C50.8464 32.5369 50.7196 33.1037 50.7196 33.7699ZM67.3887 40.6605V25.3878H72.5493C73.7474 25.3878 74.7268 25.6041 75.4875 26.0366C76.2531 26.4641 76.8198 27.0433 77.1877 27.7742C77.5556 28.505 77.7396 29.3203 77.7396 30.2202C77.7396 31.12 77.5556 31.9379 77.1877 32.6737C76.8248 33.4094 76.263 33.9961 75.5024 34.4336C74.7417 34.8661 73.7673 35.0824 72.5791 35.0824H68.8802V33.4418H72.5194C73.3397 33.4418 73.9985 33.3001 74.4956 33.0167C74.9928 32.7333 75.3532 32.3505 75.5769 31.8683C75.8056 31.381 75.92 30.8317 75.92 30.2202C75.92 29.6087 75.8056 29.0618 75.5769 28.5795C75.3532 28.0973 74.9903 27.7195 74.4882 27.446C73.986 27.1676 73.3198 27.0284 72.4896 27.0284H69.2382V40.6605H67.3887ZM82.2401 25.3878V40.6605H80.4802V25.3878H82.2401ZM92.6823 35.9773V29.206H94.4423V40.6605H92.6823V38.7216H92.563C92.2945 39.3033 91.8769 39.7979 91.3102 40.2056C90.7434 40.6083 90.0275 40.8097 89.1624 40.8097C88.4465 40.8097 87.8102 40.6531 87.2534 40.3398C86.6965 40.0217 86.259 39.5444 85.9409 38.908C85.6227 38.2667 85.4636 37.4588 85.4636 36.4844V29.206H87.2235V36.3651C87.2235 37.2003 87.4572 37.8665 87.9245 38.3636C88.3968 38.8608 88.9984 39.1094 89.7292 39.1094C90.1667 39.1094 90.6117 38.9975 91.0641 38.7738C91.5215 38.5501 91.9043 38.207 92.2125 37.7447C92.5257 37.2823 92.6823 36.6932 92.6823 35.9773ZM105.779 31.7713L104.198 32.2188C104.099 31.9553 103.952 31.6992 103.758 31.4506C103.569 31.1971 103.311 30.9883 102.983 30.8242C102.655 30.6602 102.235 30.5781 101.723 30.5781C101.022 30.5781 100.437 30.7397 99.9701 31.0629C99.5077 31.381 99.2765 31.7862 99.2765 32.2784C99.2765 32.7159 99.4356 33.0614 99.7538 33.315C100.072 33.5685 100.569 33.7798 101.245 33.9489L102.946 34.3665C103.97 34.6151 104.733 34.9954 105.235 35.5075C105.737 36.0146 105.988 36.6683 105.988 37.4688C105.988 38.125 105.799 38.7117 105.421 39.2287C105.049 39.7457 104.527 40.1534 103.855 40.4517C103.184 40.75 102.404 40.8992 101.514 40.8992C100.345 40.8992 99.3784 40.6456 98.6128 40.1385C97.8472 39.6314 97.3625 38.8906 97.1586 37.9162L98.8291 37.4986C98.9882 38.1151 99.289 38.5774 99.7314 38.8857C100.179 39.1939 100.763 39.348 101.484 39.348C102.304 39.348 102.956 39.174 103.438 38.826C103.925 38.473 104.169 38.0504 104.169 37.5582C104.169 37.1605 104.029 36.8274 103.751 36.559C103.473 36.2855 103.045 36.0817 102.468 35.9474L100.559 35.5C99.5102 35.2514 98.7396 34.8661 98.2474 34.3441C97.7602 33.8171 97.5166 33.1584 97.5166 32.3679C97.5166 31.7216 97.698 31.1499 98.061 30.6527C98.4289 30.1555 98.9285 29.7653 99.5599 29.4819C100.196 29.1985 100.917 29.0568 101.723 29.0568C102.856 29.0568 103.746 29.3054 104.392 29.8026C105.044 30.2997 105.506 30.956 105.779 31.7713ZM29.8091 65.6605H27.8702L33.4781 50.3878H35.3872L40.9952 65.6605H39.0563L34.4923 52.804H34.373L29.8091 65.6605ZM30.525 59.6946H38.3404V61.3352H30.525V59.6946ZM47.4607 65.8992C46.5062 65.8992 45.6635 65.658 44.9327 65.1758C44.2019 64.6886 43.6301 64.0025 43.2175 63.1175C42.8048 62.2276 42.5985 61.1761 42.5985 59.9631C42.5985 58.7599 42.8048 57.7159 43.2175 56.831C43.6301 55.946 44.2043 55.2624 44.9401 54.7802C45.6759 54.2979 46.5261 54.0568 47.4906 54.0568C48.2363 54.0568 48.8254 54.1811 49.258 54.4297C49.6955 54.6733 50.0286 54.9517 50.2573 55.2649C50.4909 55.5732 50.6724 55.8267 50.8016 56.0256H50.9508V50.3878H52.7107V65.6605H51.0105V63.9006H50.8016C50.6724 64.1094 50.4884 64.3729 50.2498 64.6911C50.0112 65.0043 49.6706 65.2852 49.2281 65.5337C48.7857 65.7773 48.1965 65.8992 47.4607 65.8992ZM47.6994 64.3182C48.4053 64.3182 49.0019 64.1342 49.4891 63.7663C49.9764 63.3935 50.3467 62.8789 50.6003 62.2227C50.8538 61.5614 50.9806 60.7983 50.9806 59.9332C50.9806 59.0781 50.8563 58.3299 50.6078 57.6886C50.3592 57.0423 49.9913 56.5401 49.5041 56.1822C49.0168 55.8193 48.4153 55.6378 47.6994 55.6378C46.9536 55.6378 46.3322 55.8292 45.835 56.212C45.3428 56.5898 44.9725 57.1044 44.7239 57.7557C44.4803 58.402 44.3585 59.1278 44.3585 59.9332C44.3585 60.7486 44.4828 61.4893 44.7313 62.1555C44.9849 62.8168 45.3578 63.3438 45.8499 63.7365C46.3471 64.1243 46.9636 64.3182 47.6994 64.3182ZM63.3972 60.9773V54.206H65.1571V65.6605H63.3972V63.7216H63.2779C63.0094 64.3033 62.5918 64.7979 62.025 65.2056C61.4583 65.6083 60.7423 65.8097 59.8773 65.8097C59.1614 65.8097 58.525 65.6531 57.9682 65.3398C57.4114 65.0217 56.9739 64.5444 56.6557 63.908C56.3375 63.2667 56.1784 62.4588 56.1784 61.4844V54.206H57.9384V61.3651C57.9384 62.2003 58.172 62.8665 58.6394 63.3636C59.1117 63.8608 59.7132 64.1094 60.444 64.1094C60.8815 64.1094 61.3265 63.9975 61.7789 63.7738C62.2363 63.5501 62.6191 63.207 62.9274 62.7447C63.2406 62.2823 63.3972 61.6932 63.3972 60.9773ZM70.1405 50.3878V65.6605H68.3806V50.3878H70.1405ZM78.3455 54.206V55.6974H72.4094V54.206H78.3455ZM74.1395 51.4617H75.8995V62.3793C75.8995 62.8764 75.9716 63.2493 76.1157 63.4979C76.2649 63.7415 76.4538 63.9055 76.6825 63.9901C76.9162 64.0696 77.1623 64.1094 77.4208 64.1094C77.6147 64.1094 77.7738 64.0994 77.8981 64.0795C78.0224 64.0547 78.1218 64.0348 78.1964 64.0199L78.5543 65.6009C78.435 65.6456 78.2684 65.6903 78.0547 65.7351C77.8409 65.7848 77.5699 65.8097 77.2418 65.8097C76.7447 65.8097 76.2574 65.7028 75.7802 65.489C75.3079 65.2752 74.9151 64.9496 74.6019 64.5121C74.2937 64.0746 74.1395 63.5227 74.1395 62.8565V51.4617ZM85.5232 65.8992C84.4891 65.8992 83.5818 65.6531 82.8013 65.1609C82.0257 64.6687 81.4192 63.9801 80.9817 63.0952C80.5492 62.2102 80.3329 61.1761 80.3329 59.9929C80.3329 58.7997 80.5492 57.7582 80.9817 56.8683C81.4192 55.9783 82.0257 55.2873 82.8013 54.7951C83.5818 54.3029 84.4891 54.0568 85.5232 54.0568C86.5573 54.0568 87.4622 54.3029 88.2377 54.7951C89.0183 55.2873 89.6248 55.9783 90.0573 56.8683C90.4948 57.7582 90.7136 58.7997 90.7136 59.9929C90.7136 61.1761 90.4948 62.2102 90.0573 63.0952C89.6248 63.9801 89.0183 64.6687 88.2377 65.1609C87.4622 65.6531 86.5573 65.8992 85.5232 65.8992ZM85.5232 64.3182C86.3087 64.3182 86.9551 64.1168 87.4622 63.7141C87.9693 63.3114 88.3446 62.782 88.5882 62.1257C88.8318 61.4695 88.9536 60.7585 88.9536 59.9929C88.9536 59.2273 88.8318 58.5139 88.5882 57.8526C88.3446 57.1914 87.9693 56.657 87.4622 56.2493C86.9551 55.8416 86.3087 55.6378 85.5232 55.6378C84.7377 55.6378 84.0914 55.8416 83.5843 56.2493C83.0772 56.657 82.7019 57.1914 82.4583 57.8526C82.2146 58.5139 82.0928 59.2273 82.0928 59.9929C82.0928 60.7585 82.2146 61.4695 82.4583 62.1257C82.7019 62.782 83.0772 63.3114 83.5843 63.7141C84.0914 64.1168 84.7377 64.3182 85.5232 64.3182ZM28.2347 80.1605H26.3852C26.2759 79.6286 26.0845 79.1612 25.811 78.7585C25.5425 78.3558 25.2144 78.0178 24.8266 77.7443C24.4438 77.4659 24.0188 77.2571 23.5514 77.1179C23.0841 76.9787 22.5969 76.9091 22.0898 76.9091C21.1651 76.9091 20.3273 77.1428 19.5766 77.6101C18.8309 78.0774 18.2368 78.766 17.7943 79.6758C17.3568 80.5856 17.1381 81.7017 17.1381 83.0242C17.1381 84.3466 17.3568 85.4627 17.7943 86.3725C18.2368 87.2823 18.8309 87.9709 19.5766 88.4382C20.3273 88.9055 21.1651 89.1392 22.0898 89.1392C22.5969 89.1392 23.0841 89.0696 23.5514 88.9304C24.0188 88.7912 24.4438 88.5849 24.8266 88.3114C25.2144 88.033 25.5425 87.6925 25.811 87.2898C26.0845 86.8821 26.2759 86.4148 26.3852 85.8878H28.2347C28.0955 86.6683 27.8419 87.3668 27.474 87.9833C27.1061 88.5998 26.6487 89.1243 26.1019 89.5568C25.555 89.9844 24.941 90.31 24.2599 90.5337C23.5837 90.7575 22.8604 90.8693 22.0898 90.8693C20.7872 90.8693 19.6288 90.5511 18.6146 89.9148C17.6004 89.2784 16.8025 88.3736 16.2208 87.2003C15.6391 86.027 15.3483 84.6349 15.3483 83.0242C15.3483 81.4134 15.6391 80.0213 16.2208 78.848C16.8025 77.6747 17.6004 76.7699 18.6146 76.1335C19.6288 75.4972 20.7872 75.179 22.0898 75.179C22.8604 75.179 23.5837 75.2908 24.2599 75.5146C24.941 75.7383 25.555 76.0664 26.1019 76.4989C26.6487 76.9265 27.1061 77.4485 27.474 78.065C27.8419 78.6765 28.0955 79.375 28.2347 80.1605ZM34.3553 90.929C33.6295 90.929 32.9707 90.7923 32.3791 90.5188C31.7875 90.2404 31.3177 89.8402 30.9697 89.3182C30.6216 88.7912 30.4476 88.1548 30.4476 87.4091C30.4476 86.7528 30.5769 86.2209 30.8354 85.8132C31.0939 85.4006 31.4395 85.0774 31.872 84.8438C32.3045 84.6101 32.7818 84.4361 33.3038 84.3217C33.8308 84.2024 34.3603 84.108 34.8922 84.0384C35.5883 83.9489 36.1525 83.8818 36.5851 83.837C37.0226 83.7873 37.3408 83.7053 37.5396 83.5909C37.7435 83.4766 37.8454 83.2777 37.8454 82.9943V82.9347C37.8454 82.1989 37.644 81.6271 37.2413 81.2195C36.8436 80.8118 36.2395 80.608 35.4292 80.608C34.589 80.608 33.9302 80.7919 33.453 81.1598C32.9757 81.5277 32.6401 81.9205 32.4462 82.3381L30.7758 81.7415C31.0741 81.0455 31.4718 80.5036 31.9689 80.1158C32.4711 79.723 33.018 79.4496 33.6096 79.2955C34.2062 79.1364 34.7928 79.0568 35.3695 79.0568C35.7374 79.0568 36.16 79.1016 36.6373 79.1911C37.1195 79.2756 37.5844 79.4521 38.0318 79.7205C38.4842 79.989 38.8596 80.3942 39.1579 80.9361C39.4562 81.478 39.6053 82.2038 39.6053 83.1136V90.6605H37.8454V89.1094H37.7559C37.6366 89.358 37.4377 89.6239 37.1593 89.9073C36.8809 90.1907 36.5105 90.4318 36.0481 90.6307C35.5858 90.8295 35.0215 90.929 34.3553 90.929ZM34.6238 89.348C35.3198 89.348 35.9064 89.2113 36.3837 88.9379C36.866 88.6644 37.2289 88.3114 37.4725 87.8789C37.7211 87.4464 37.8454 86.9915 37.8454 86.5142V84.9034C37.7708 84.9929 37.6067 85.0749 37.3532 85.1495C37.1046 85.2191 36.8163 85.2813 36.4881 85.3359C36.165 85.3857 35.8493 85.4304 35.541 85.4702C35.2378 85.505 34.9917 85.5348 34.8028 85.5597C34.3454 85.6193 33.9178 85.7163 33.5201 85.8505C33.1273 85.9798 32.8091 86.1761 32.5655 86.4396C32.3269 86.6982 32.2076 87.0511 32.2076 87.4986C32.2076 88.1101 32.4338 88.5724 32.8862 88.8857C33.3436 89.1939 33.9228 89.348 34.6238 89.348ZM50.9312 81.7713L49.3503 82.2188C49.2508 81.9553 49.1042 81.6992 48.9103 81.4506C48.7213 81.1971 48.4628 80.9883 48.1347 80.8242C47.8066 80.6602 47.3865 80.5781 46.8744 80.5781C46.1734 80.5781 45.5892 80.7397 45.1219 81.0629C44.6596 81.381 44.4284 81.7862 44.4284 82.2784C44.4284 82.7159 44.5875 83.0614 44.9057 83.315C45.2238 83.5685 45.721 83.7798 46.3971 83.9489L48.0974 84.3665C49.1216 84.6151 49.8847 84.9954 50.3868 85.5075C50.889 86.0146 51.14 86.6683 51.14 87.4688C51.14 88.125 50.9511 88.7117 50.5733 89.2287C50.2004 89.7457 49.6784 90.1534 49.0072 90.4517C48.336 90.75 47.5555 90.8992 46.6656 90.8992C45.4973 90.8992 44.5303 90.6456 43.7647 90.1385C42.999 89.6314 42.5143 88.8906 42.3105 87.9162L43.9809 87.4986C44.14 88.1151 44.4408 88.5774 44.8833 88.8857C45.3307 89.1939 45.9149 89.348 46.6358 89.348C47.4561 89.348 48.1074 89.174 48.5896 88.826C49.0768 88.473 49.3204 88.0504 49.3204 87.5582C49.3204 87.1605 49.1812 86.8274 48.9028 86.559C48.6244 86.2855 48.1968 86.0817 47.6201 85.9474L45.711 85.5C44.662 85.2514 43.8914 84.8661 43.3993 84.3441C42.912 83.8171 42.6684 83.1584 42.6684 82.3679C42.6684 81.7216 42.8499 81.1499 43.2128 80.6527C43.5807 80.1555 44.0804 79.7653 44.7118 79.4819C45.3481 79.1985 46.069 79.0568 46.8744 79.0568C48.0079 79.0568 48.8978 79.3054 49.5441 79.8026C50.1954 80.2997 50.6578 80.956 50.9312 81.7713ZM58.7708 79.206V80.6974H52.8347V79.206H58.7708ZM54.5648 76.4617H56.3248V87.3793C56.3248 87.8764 56.3969 88.2493 56.541 88.4979C56.6902 88.7415 56.8791 88.9055 57.1078 88.9901C57.3415 89.0696 57.5876 89.1094 57.8461 89.1094C58.04 89.1094 58.1991 89.0994 58.3234 89.0795C58.4476 89.0547 58.5471 89.0348 58.6216 89.0199L58.9796 90.6009C58.8603 90.6456 58.6937 90.6903 58.48 90.7351C58.2662 90.7848 57.9952 90.8097 57.6671 90.8097C57.1699 90.8097 56.6827 90.7028 56.2055 90.489C55.7332 90.2752 55.3404 89.9496 55.0272 89.5121C54.7189 89.0746 54.5648 88.5227 54.5648 87.8565V76.4617ZM61.4182 90.6605V79.206H63.1185V80.9361H63.2378C63.4466 80.3693 63.8244 79.9094 64.3713 79.5565C64.9182 79.2035 65.5346 79.027 66.2207 79.027C66.35 79.027 66.5116 79.0295 66.7055 79.0344C66.8993 79.0394 67.046 79.0469 67.1454 79.0568V80.8466C67.0858 80.8317 66.9491 80.8093 66.7353 80.7795C66.5265 80.7447 66.3052 80.7273 66.0716 80.7273C65.5148 80.7273 65.0176 80.8441 64.5801 81.0778C64.1476 81.3065 63.8045 81.6246 63.551 82.0323C63.3024 82.435 63.1781 82.8949 63.1781 83.4119V90.6605H61.4182ZM72.6024 90.929C71.8765 90.929 71.2178 90.7923 70.6262 90.5188C70.0346 90.2404 69.5647 89.8402 69.2167 89.3182C68.8687 88.7912 68.6947 88.1548 68.6947 87.4091C68.6947 86.7528 68.824 86.2209 69.0825 85.8132C69.341 85.4006 69.6865 85.0774 70.1191 84.8438C70.5516 84.6101 71.0289 84.4361 71.5509 84.3217C72.0779 84.2024 72.6074 84.108 73.1393 84.0384C73.8353 83.9489 74.3996 83.8818 74.8321 83.837C75.2696 83.7873 75.5878 83.7053 75.7867 83.5909C75.9905 83.4766 76.0924 83.2777 76.0924 82.9943V82.9347C76.0924 82.1989 75.8911 81.6271 75.4884 81.2195C75.0907 80.8118 74.4866 80.608 73.6762 80.608C72.836 80.608 72.1773 80.7919 71.7 81.1598C71.2228 81.5277 70.8872 81.9205 70.6933 82.3381L69.0228 81.7415C69.3211 81.0455 69.7189 80.5036 70.216 80.1158C70.7182 79.723 71.265 79.4496 71.8566 79.2955C72.4532 79.1364 73.0399 79.0568 73.6166 79.0568C73.9845 79.0568 74.4071 79.1016 74.8843 79.1911C75.3666 79.2756 75.8314 79.4521 76.2789 79.7205C76.7313 79.989 77.1066 80.3942 77.4049 80.9361C77.7032 81.478 77.8524 82.2038 77.8524 83.1136V90.6605H76.0924V89.1094H76.003C75.8836 89.358 75.6848 89.6239 75.4064 89.9073C75.128 90.1907 74.7576 90.4318 74.2952 90.6307C73.8329 90.8295 73.2686 90.929 72.6024 90.929ZM72.8708 89.348C73.5669 89.348 74.1535 89.2113 74.6308 88.9379C75.113 88.6644 75.476 88.3114 75.7196 87.8789C75.9682 87.4464 76.0924 86.9915 76.0924 86.5142V84.9034C76.0179 84.9929 75.8538 85.0749 75.6003 85.1495C75.3517 85.2191 75.0633 85.2813 74.7352 85.3359C74.412 85.3857 74.0963 85.4304 73.7881 85.4702C73.4848 85.505 73.2387 85.5348 73.0498 85.5597C72.5924 85.6193 72.1649 85.7163 71.7672 85.8505C71.3744 85.9798 71.0562 86.1761 70.8126 86.4396C70.574 86.6982 70.4547 87.0511 70.4547 87.4986C70.4547 88.1101 70.6809 88.5724 71.1333 88.8857C71.5907 89.1939 72.1699 89.348 72.8708 89.348ZM85.3899 90.8992C84.4354 90.8992 83.5927 90.658 82.8619 90.1758C82.1311 89.6886 81.5593 89.0025 81.1467 88.1175C80.734 87.2276 80.5277 86.1761 80.5277 84.9631C80.5277 83.7599 80.734 82.7159 81.1467 81.831C81.5593 80.946 82.1335 80.2624 82.8693 79.7802C83.6051 79.2979 84.4553 79.0568 85.4198 79.0568C86.1655 79.0568 86.7546 79.1811 87.1872 79.4297C87.6247 79.6733 87.9578 79.9517 88.1865 80.2649C88.4201 80.5732 88.6016 80.8267 88.7308 81.0256H88.88V75.3878H90.6399V90.6605H88.9397V88.9006H88.7308C88.6016 89.1094 88.4176 89.3729 88.179 89.6911C87.9404 90.0043 87.5998 90.2852 87.1573 90.5337C86.7149 90.7773 86.1257 90.8992 85.3899 90.8992ZM85.6286 89.3182C86.3345 89.3182 86.9311 89.1342 87.4183 88.7663C87.9056 88.3935 88.2759 87.8789 88.5295 87.2227C88.783 86.5614 88.9098 85.7983 88.9098 84.9332C88.9098 84.0781 88.7855 83.3299 88.537 82.6886C88.2884 82.0423 87.9205 81.5401 87.4333 81.1822C86.946 80.8193 86.3445 80.6378 85.6286 80.6378C84.8828 80.6378 84.2614 80.8292 83.7642 81.212C83.272 81.5898 82.9017 82.1044 82.6531 82.7557C82.4095 83.402 82.2877 84.1278 82.2877 84.9332C82.2877 85.7486 82.412 86.4893 82.6605 87.1555C82.9141 87.8168 83.287 88.3438 83.7791 88.7365C84.2763 89.1243 84.8928 89.3182 85.6286 89.3182ZM98.761 90.8992C97.7269 90.8992 96.8196 90.6531 96.0391 90.1609C95.2635 89.6687 94.657 88.9801 94.2195 88.0952C93.787 87.2102 93.5707 86.1761 93.5707 84.9929C93.5707 83.7997 93.787 82.7582 94.2195 81.8683C94.657 80.9783 95.2635 80.2873 96.0391 79.7951C96.8196 79.3029 97.7269 79.0568 98.761 79.0568C99.7951 79.0568 100.7 79.3029 101.476 79.7951C102.256 80.2873 102.863 80.9783 103.295 81.8683C103.733 82.7582 103.951 83.7997 103.951 84.9929C103.951 86.1761 103.733 87.2102 103.295 88.0952C102.863 88.9801 102.256 89.6687 101.476 90.1609C100.7 90.6531 99.7951 90.8992 98.761 90.8992ZM98.761 89.3182C99.5465 89.3182 100.193 89.1168 100.7 88.7141C101.207 88.3114 101.582 87.782 101.826 87.1257C102.07 86.4695 102.191 85.7585 102.191 84.9929C102.191 84.2273 102.07 83.5139 101.826 82.8526C101.582 82.1914 101.207 81.657 100.7 81.2493C100.193 80.8416 99.5465 80.6378 98.761 80.6378C97.9755 80.6378 97.3292 80.8416 96.8221 81.2493C96.315 81.657 95.9397 82.1914 95.696 82.8526C95.4524 83.5139 95.3306 84.2273 95.3306 84.9929C95.3306 85.7585 95.4524 86.4695 95.696 87.1257C95.9397 87.782 96.315 88.3114 96.8221 88.7141C97.3292 89.1168 97.9755 89.3182 98.761 89.3182ZM1.8495 125.388V140.661H6.66976e-05V125.388H1.8495ZM7.07899 133.77V140.661H5.31905V129.206H7.01933V130.996H7.16848C7.43695 130.414 7.84462 129.947 8.39149 129.594C8.93837 129.236 9.64433 129.057 10.5094 129.057C11.285 129.057 11.9636 129.216 12.5453 129.534C13.1269 129.847 13.5793 130.325 13.9025 130.966C14.2257 131.602 14.3872 132.408 14.3872 133.382V140.661H12.6273V133.501C12.6273 132.602 12.3936 131.901 11.9263 131.398C11.459 130.891 10.8176 130.638 10.0023 130.638C9.4405 130.638 8.93837 130.76 8.49589 131.003C8.05839 131.247 7.71287 131.602 7.45932 132.07C7.20577 132.537 7.07899 133.104 7.07899 133.77ZM22.7041 129.206V130.697H16.5294V129.206H22.7041ZM18.3788 140.661V127.625C18.3788 126.969 18.5329 126.422 18.8412 125.984C19.1494 125.547 19.5496 125.219 20.0418 125C20.534 124.781 21.0535 124.672 21.6004 124.672C22.0329 124.672 22.3859 124.707 22.6593 124.776C22.9328 124.846 23.1366 124.911 23.2708 124.97L22.7637 126.491C22.6743 126.462 22.55 126.424 22.3909 126.38C22.2368 126.335 22.0329 126.313 21.7794 126.313C21.1977 126.313 20.7776 126.459 20.5191 126.752C20.2655 127.046 20.1387 127.476 20.1387 128.043V140.661H18.3788ZM29.3523 140.899C28.3182 140.899 27.4109 140.653 26.6304 140.161C25.8548 139.669 25.2483 138.98 24.8108 138.095C24.3783 137.21 24.162 136.176 24.162 134.993C24.162 133.8 24.3783 132.758 24.8108 131.868C25.2483 130.978 25.8548 130.287 26.6304 129.795C27.4109 129.303 28.3182 129.057 29.3523 129.057C30.3864 129.057 31.2913 129.303 32.0668 129.795C32.8474 130.287 33.4539 130.978 33.8864 131.868C34.3239 132.758 34.5427 133.8 34.5427 134.993C34.5427 136.176 34.3239 137.21 33.8864 138.095C33.4539 138.98 32.8474 139.669 32.0668 140.161C31.2913 140.653 30.3864 140.899 29.3523 140.899ZM29.3523 139.318C30.1379 139.318 30.7842 139.117 31.2913 138.714C31.7984 138.311 32.1737 137.782 32.4173 137.126C32.6609 136.469 32.7827 135.759 32.7827 134.993C32.7827 134.227 32.6609 133.514 32.4173 132.853C32.1737 132.191 31.7984 131.657 31.2913 131.249C30.7842 130.842 30.1379 130.638 29.3523 130.638C28.5668 130.638 27.9205 130.842 27.4134 131.249C26.9063 131.657 26.531 132.191 26.2874 132.853C26.0437 133.514 25.9219 134.227 25.9219 134.993C25.9219 135.759 26.0437 136.469 26.2874 137.126C26.531 137.782 26.9063 138.311 27.4134 138.714C27.9205 139.117 28.5668 139.318 29.3523 139.318ZM37.2292 140.661V129.206H38.9295V130.936H39.0488C39.2576 130.369 39.6355 129.909 40.1823 129.556C40.7292 129.203 41.3457 129.027 42.0318 129.027C42.161 129.027 42.3226 129.029 42.5165 129.034C42.7104 129.039 42.857 129.047 42.9565 129.057V130.847C42.8968 130.832 42.7601 130.809 42.5463 130.779C42.3375 130.745 42.1163 130.727 41.8826 130.727C41.3258 130.727 40.8286 130.844 40.3911 131.078C39.9586 131.306 39.6156 131.625 39.362 132.032C39.1134 132.435 38.9891 132.895 38.9891 133.412V140.661H37.2292ZM45.0427 140.661V129.206H46.743V130.996H46.8921C47.1307 130.384 47.516 129.909 48.048 129.571C48.58 129.228 49.2188 129.057 49.9646 129.057C50.7202 129.057 51.3491 129.228 51.8513 129.571C52.3584 129.909 52.7536 130.384 53.037 130.996H53.1563C53.4496 130.404 53.8896 129.934 54.4763 129.586C55.0629 129.233 55.7664 129.057 56.5867 129.057C57.6109 129.057 58.4486 129.377 59.0999 130.019C59.7511 130.655 60.0768 131.647 60.0768 132.994V140.661H58.3168V132.994C58.3168 132.149 58.0856 131.545 57.6233 131.182C57.1609 130.819 56.6165 130.638 55.9901 130.638C55.1847 130.638 54.5608 130.881 54.1183 131.369C53.6758 131.851 53.4546 132.462 53.4546 133.203V140.661H51.6648V132.815C51.6648 132.164 51.4535 131.64 51.031 131.242C50.6084 130.839 50.064 130.638 49.3978 130.638C48.9404 130.638 48.5129 130.76 48.1151 131.003C47.7224 131.247 47.4042 131.585 47.1606 132.017C46.9219 132.445 46.8026 132.94 46.8026 133.501V140.661H45.0427ZM66.6654 140.929C65.9395 140.929 65.2808 140.792 64.6892 140.519C64.0975 140.24 63.6277 139.84 63.2797 139.318C62.9317 138.791 62.7577 138.155 62.7577 137.409C62.7577 136.753 62.887 136.221 63.1455 135.813C63.404 135.401 63.7495 135.077 64.1821 134.844C64.6146 134.61 65.0919 134.436 65.6139 134.322C66.1409 134.202 66.6703 134.108 67.2023 134.038C67.8983 133.949 68.4626 133.882 68.8951 133.837C69.3326 133.787 69.6508 133.705 69.8497 133.591C70.0535 133.477 70.1554 133.278 70.1554 132.994V132.935C70.1554 132.199 69.9541 131.627 69.5514 131.219C69.1537 130.812 68.5496 130.608 67.7392 130.608C66.899 130.608 66.2403 130.792 65.763 131.16C65.2858 131.528 64.9502 131.92 64.7563 132.338L63.0858 131.741C63.3841 131.045 63.7818 130.504 64.279 130.116C64.7811 129.723 65.328 129.45 65.9196 129.295C66.5162 129.136 67.1029 129.057 67.6796 129.057C68.0475 129.057 68.4701 129.102 68.9473 129.191C69.4296 129.276 69.8944 129.452 70.3419 129.721C70.7943 129.989 71.1696 130.394 71.4679 130.936C71.7662 131.478 71.9154 132.204 71.9154 133.114V140.661H70.1554V139.109H70.0659C69.9466 139.358 69.7478 139.624 69.4693 139.907C69.1909 140.191 68.8206 140.432 68.3582 140.631C67.8958 140.83 67.3316 140.929 66.6654 140.929ZM66.9338 139.348C67.6299 139.348 68.2165 139.211 68.6938 138.938C69.176 138.664 69.539 138.311 69.7826 137.879C70.0311 137.446 70.1554 136.991 70.1554 136.514V134.903C70.0809 134.993 69.9168 135.075 69.6632 135.15C69.4147 135.219 69.1263 135.281 68.7982 135.336C68.475 135.386 68.1593 135.43 67.8511 135.47C67.5478 135.505 67.3017 135.535 67.1128 135.56C66.6554 135.619 66.2279 135.716 65.8301 135.851C65.4374 135.98 65.1192 136.176 64.8756 136.44C64.637 136.698 64.5176 137.051 64.5176 137.499C64.5176 138.11 64.7439 138.572 65.1963 138.886C65.6537 139.194 66.2328 139.348 66.9338 139.348ZM79.7811 140.899C78.7072 140.899 77.7825 140.646 77.0069 140.138C76.2313 139.631 75.6347 138.933 75.2171 138.043C74.7995 137.153 74.5907 136.136 74.5907 134.993C74.5907 133.83 74.8045 132.803 75.232 131.913C75.6646 131.018 76.2661 130.32 77.0367 129.817C77.8123 129.31 78.7171 129.057 79.7512 129.057C80.5566 129.057 81.2825 129.206 81.9288 129.504C82.5751 129.803 83.1046 130.22 83.5172 130.757C83.9298 131.294 84.1859 131.92 84.2853 132.636H82.5254C82.3911 132.114 82.0928 131.652 81.6305 131.249C81.1731 130.842 80.5566 130.638 79.7811 130.638C79.095 130.638 78.4934 130.817 77.9764 131.175C77.4643 131.528 77.0641 132.027 76.7757 132.674C76.4923 133.315 76.3507 134.068 76.3507 134.933C76.3507 135.818 76.4899 136.589 76.7683 137.245C77.0516 137.901 77.4494 138.411 77.9614 138.774C78.4785 139.137 79.085 139.318 79.7811 139.318C80.2384 139.318 80.6536 139.239 81.0264 139.08C81.3993 138.92 81.715 138.692 81.9735 138.393C82.232 138.095 82.416 137.737 82.5254 137.32H84.2853C84.1859 137.996 83.9398 138.605 83.547 139.147C83.1592 139.684 82.6447 140.111 82.0034 140.429C81.367 140.743 80.6262 140.899 79.7811 140.899ZM78.9458 140.601H80.4075L80.2882 141.197C80.6759 141.257 81.0314 141.419 81.3546 141.682C81.6777 141.951 81.8393 142.376 81.8393 142.957C81.8393 143.599 81.5733 144.121 81.0413 144.523C80.5144 144.931 79.7363 145.135 78.7072 145.135L78.6475 143.972C79.1099 143.972 79.4927 143.897 79.796 143.748C80.1042 143.604 80.2583 143.36 80.2583 143.017C80.2583 142.674 80.1315 142.44 79.878 142.316C79.6244 142.192 79.2143 142.107 78.6475 142.063L78.9458 140.601ZM91.5115 140.899C90.4774 140.899 89.5701 140.653 88.7896 140.161C88.014 139.669 87.4075 138.98 86.97 138.095C86.5374 137.21 86.3212 136.176 86.3212 134.993C86.3212 133.8 86.5374 132.758 86.97 131.868C87.4075 130.978 88.014 130.287 88.7896 129.795C89.5701 129.303 90.4774 129.057 91.5115 129.057C92.5456 129.057 93.4504 129.303 94.226 129.795C95.0065 130.287 95.6131 130.978 96.0456 131.868C96.4831 132.758 96.7019 133.8 96.7019 134.993C96.7019 136.176 96.4831 137.21 96.0456 138.095C95.6131 138.98 95.0065 139.669 94.226 140.161C93.4504 140.653 92.5456 140.899 91.5115 140.899ZM91.5115 139.318C92.297 139.318 92.9433 139.117 93.4504 138.714C93.9575 138.311 94.3329 137.782 94.5765 137.126C94.8201 136.469 94.9419 135.759 94.9419 134.993C94.9419 134.227 94.8201 133.514 94.5765 132.853C94.3329 132.191 93.9575 131.657 93.4504 131.249C92.9433 130.842 92.297 130.638 91.5115 130.638C90.726 130.638 90.0797 130.842 89.5726 131.249C89.0655 131.657 88.6901 132.191 88.4465 132.853C88.2029 133.514 88.0811 134.227 88.0811 134.993C88.0811 135.759 88.2029 136.469 88.4465 137.126C88.6901 137.782 89.0655 138.311 89.5726 138.714C90.0797 139.117 90.726 139.318 91.5115 139.318ZM89.2146 127.834L87.8425 127.774C87.8425 127.013 88.0587 126.392 88.4913 125.91C88.9288 125.423 89.4682 125.179 90.1095 125.179C90.3929 125.179 90.644 125.229 90.8627 125.328C91.0815 125.423 91.2903 125.532 91.4891 125.656C91.688 125.781 91.8918 125.892 92.1007 125.992C92.3144 126.086 92.5556 126.134 92.824 126.134C93.1074 126.134 93.346 126.024 93.5399 125.805C93.7388 125.582 93.8382 125.313 93.8382 125L95.1806 125.119C95.1806 125.895 94.9618 126.511 94.5243 126.969C94.0918 127.426 93.5548 127.655 92.9135 127.655C92.5705 127.655 92.2871 127.608 92.0634 127.513C91.8396 127.414 91.6408 127.302 91.4668 127.178C91.2928 127.053 91.1088 126.944 90.9149 126.849C90.721 126.75 90.4824 126.7 90.199 126.7C89.9156 126.7 89.6795 126.812 89.4906 127.036C89.3066 127.255 89.2146 127.521 89.2146 127.834ZM104.191 140.899C103.087 140.899 102.135 140.656 101.335 140.168C100.539 139.676 99.9253 138.99 99.4928 138.11C99.0652 137.225 98.8515 136.196 98.8515 135.023C98.8515 133.849 99.0652 132.815 99.4928 131.92C99.9253 131.021 100.527 130.32 101.297 129.817C102.073 129.31 102.978 129.057 104.012 129.057C104.609 129.057 105.198 129.156 105.779 129.355C106.361 129.554 106.891 129.877 107.368 130.325C107.845 130.767 108.225 131.354 108.509 132.085C108.792 132.815 108.934 133.715 108.934 134.784V135.53H100.104V134.009H107.144C107.144 133.362 107.015 132.786 106.756 132.278C106.503 131.771 106.14 131.371 105.668 131.078C105.2 130.784 104.648 130.638 104.012 130.638C103.311 130.638 102.704 130.812 102.192 131.16C101.685 131.503 101.295 131.95 101.022 132.502C100.748 133.054 100.611 133.646 100.611 134.277V135.291C100.611 136.156 100.761 136.89 101.059 137.491C101.362 138.088 101.782 138.543 102.319 138.856C102.856 139.164 103.48 139.318 104.191 139.318C104.653 139.318 105.071 139.254 105.444 139.124C105.822 138.99 106.147 138.791 106.421 138.528C106.694 138.259 106.905 137.926 107.055 137.528L108.755 138.006C108.576 138.582 108.275 139.089 107.853 139.527C107.43 139.96 106.908 140.298 106.286 140.541C105.665 140.78 104.967 140.899 104.191 140.899ZM119.725 131.771L118.144 132.219C118.044 131.955 117.898 131.699 117.704 131.451C117.515 131.197 117.256 130.988 116.928 130.824C116.6 130.66 116.18 130.578 115.668 130.578C114.967 130.578 114.383 130.74 113.915 131.063C113.453 131.381 113.222 131.786 113.222 132.278C113.222 132.716 113.381 133.061 113.699 133.315C114.017 133.569 114.514 133.78 115.191 133.949L116.891 134.366C117.915 134.615 118.678 134.995 119.18 135.507C119.682 136.015 119.933 136.668 119.933 137.469C119.933 138.125 119.745 138.712 119.367 139.229C118.994 139.746 118.472 140.153 117.801 140.452C117.13 140.75 116.349 140.899 115.459 140.899C114.291 140.899 113.324 140.646 112.558 140.138C111.793 139.631 111.308 138.891 111.104 137.916L112.774 137.499C112.933 138.115 113.234 138.577 113.677 138.886C114.124 139.194 114.708 139.348 115.429 139.348C116.25 139.348 116.901 139.174 117.383 138.826C117.87 138.473 118.114 138.05 118.114 137.558C118.114 137.161 117.975 136.827 117.696 136.559C117.418 136.286 116.99 136.082 116.414 135.947L114.505 135.5C113.455 135.251 112.685 134.866 112.193 134.344C111.705 133.817 111.462 133.158 111.462 132.368C111.462 131.722 111.643 131.15 112.006 130.653C112.374 130.156 112.874 129.765 113.505 129.482C114.142 129.199 114.862 129.057 115.668 129.057C116.801 129.057 117.691 129.305 118.338 129.803C118.989 130.3 119.451 130.956 119.725 131.771ZM50.8734 158.77V165.661H49.1135V154.206H50.8138V155.996H50.9629C51.2314 155.414 51.639 154.947 52.1859 154.594C52.7328 154.236 53.4388 154.057 54.3038 154.057C55.0794 154.057 55.758 154.216 56.3397 154.534C56.9214 154.847 57.3738 155.325 57.6969 155.966C58.0201 156.602 58.1817 157.408 58.1817 158.382V165.661H56.4217V158.501C56.4217 157.602 56.1881 156.901 55.7207 156.398C55.2534 155.891 54.6121 155.638 53.7967 155.638C53.2349 155.638 52.7328 155.76 52.2903 156.003C51.8528 156.247 51.5073 156.602 51.2538 157.07C51.0002 157.537 50.8734 158.104 50.8734 158.77ZM64.7684 165.929C64.0425 165.929 63.3838 165.792 62.7922 165.519C62.2006 165.24 61.7308 164.84 61.3827 164.318C61.0347 163.791 60.8607 163.155 60.8607 162.409C60.8607 161.753 60.99 161.221 61.2485 160.813C61.507 160.401 61.8526 160.077 62.2851 159.844C62.7176 159.61 63.1949 159.436 63.7169 159.322C64.2439 159.202 64.7734 159.108 65.3053 159.038C66.0014 158.949 66.5656 158.882 66.9982 158.837C67.4357 158.787 67.7538 158.705 67.9527 158.591C68.1565 158.477 68.2585 158.278 68.2585 157.994V157.935C68.2585 157.199 68.0571 156.627 67.6544 156.219C67.2567 155.812 66.6526 155.608 65.8423 155.608C65.0021 155.608 64.3433 155.792 63.8661 156.16C63.3888 156.528 63.0532 156.92 62.8593 157.338L61.1889 156.741C61.4871 156.045 61.8849 155.504 62.382 155.116C62.8842 154.723 63.431 154.45 64.0227 154.295C64.6193 154.136 65.2059 154.057 65.7826 154.057C66.1505 154.057 66.5731 154.102 67.0504 154.191C67.5326 154.276 67.9974 154.452 68.4449 154.721C68.8973 154.989 69.2727 155.394 69.571 155.936C69.8693 156.478 70.0184 157.204 70.0184 158.114V165.661H68.2585V164.109H68.169C68.0496 164.358 67.8508 164.624 67.5724 164.907C67.294 165.191 66.9236 165.432 66.4612 165.631C65.9989 165.83 65.4346 165.929 64.7684 165.929ZM65.0369 164.348C65.7329 164.348 66.3195 164.211 66.7968 163.938C67.2791 163.664 67.642 163.311 67.8856 162.879C68.1342 162.446 68.2585 161.991 68.2585 161.514V159.903C68.1839 159.993 68.0198 160.075 67.7663 160.15C67.5177 160.219 67.2293 160.281 66.9012 160.336C66.5781 160.386 66.2624 160.43 65.9541 160.47C65.6509 160.505 65.4048 160.535 65.2158 160.56C64.7585 160.619 64.3309 160.716 63.9332 160.851C63.5404 160.98 63.2222 161.176 62.9786 161.44C62.74 161.698 62.6207 162.051 62.6207 162.499C62.6207 163.11 62.8469 163.572 63.2993 163.886C63.7567 164.194 64.3359 164.348 65.0369 164.348ZM3.52741 190.661V175.388H12.7447V177.028H5.37684V182.189H12.2675V183.83H5.37684V189.02H12.8641V190.661H3.52741ZM15.8396 190.661V179.206H17.5398V180.996H17.689C17.9276 180.384 18.3129 179.909 18.8449 179.571C19.3768 179.228 20.0157 179.057 20.7614 179.057C21.5171 179.057 22.146 179.228 22.6481 179.571C23.1553 179.909 23.5505 180.384 23.8339 180.996H23.9532C24.2465 180.404 24.6865 179.934 25.2731 179.586C25.8598 179.233 26.5633 179.057 27.3836 179.057C28.4077 179.057 29.2455 179.377 29.8967 180.019C30.548 180.655 30.8736 181.647 30.8736 182.994V190.661H29.1137V182.994C29.1137 182.149 28.8825 181.545 28.4202 181.182C27.9578 180.819 27.4134 180.638 26.787 180.638C25.9816 180.638 25.3577 180.881 24.9152 181.369C24.4727 181.851 24.2515 182.462 24.2515 183.203V190.661H22.4617V182.815C22.4617 182.164 22.2504 181.64 21.8278 181.242C21.4053 180.839 20.8609 180.638 20.1947 180.638C19.7373 180.638 19.3097 180.76 18.912 181.003C18.5192 181.247 18.2011 181.585 17.9575 182.017C17.7188 182.445 17.5995 182.94 17.5995 183.501V190.661H15.8396ZM34.3301 190.661V175.388H36.0901V181.026H36.2392C36.3685 180.827 36.5475 180.573 36.7762 180.265C37.0098 179.952 37.3429 179.673 37.7755 179.43C38.213 179.181 38.8046 179.057 39.5503 179.057C40.5148 179.057 41.3649 179.298 42.1007 179.78C42.8365 180.262 43.4108 180.946 43.8234 181.831C44.236 182.716 44.4424 183.76 44.4424 184.963C44.4424 186.176 44.236 187.228 43.8234 188.118C43.4108 189.002 42.839 189.689 42.1082 190.176C41.3774 190.658 40.5347 190.899 39.5801 190.899C38.8443 190.899 38.2552 190.777 37.8127 190.534C37.3703 190.285 37.0297 190.004 36.7911 189.691C36.5524 189.373 36.3685 189.109 36.2392 188.901H36.0304V190.661H34.3301ZM36.0603 184.933C36.0603 185.798 36.187 186.561 36.4406 187.223C36.6941 187.879 37.0645 188.393 37.5517 188.766C38.039 189.134 38.6355 189.318 39.3415 189.318C40.0773 189.318 40.6913 189.124 41.1835 188.737C41.6806 188.344 42.0535 187.817 42.3021 187.156C42.5556 186.489 42.6824 185.749 42.6824 184.933C42.6824 184.128 42.5581 183.402 42.3095 182.756C42.0659 182.104 41.6956 181.59 41.1984 181.212C40.7062 180.829 40.0872 180.638 39.3415 180.638C38.6256 180.638 38.024 180.819 37.5368 181.182C37.0496 181.54 36.6817 182.042 36.4331 182.689C36.1845 183.33 36.0603 184.078 36.0603 184.933ZM50.5052 190.929C49.7794 190.929 49.1206 190.792 48.529 190.519C47.9374 190.24 47.4676 189.84 47.1196 189.318C46.7716 188.791 46.5975 188.155 46.5975 187.409C46.5975 186.753 46.7268 186.221 46.9853 185.813C47.2439 185.401 47.5894 185.077 48.0219 184.844C48.4544 184.61 48.9317 184.436 49.4537 184.322C49.9807 184.202 50.5102 184.108 51.0421 184.038C51.7382 183.949 52.3024 183.882 52.735 183.837C53.1725 183.787 53.4907 183.705 53.6895 183.591C53.8934 183.477 53.9953 183.278 53.9953 182.994V182.935C53.9953 182.199 53.7939 181.627 53.3912 181.219C52.9935 180.812 52.3894 180.608 51.5791 180.608C50.7389 180.608 50.0801 180.792 49.6029 181.16C49.1256 181.528 48.79 181.92 48.5961 182.338L46.9257 181.741C47.224 181.045 47.6217 180.504 48.1189 180.116C48.621 179.723 49.1679 179.45 49.7595 179.295C50.3561 179.136 50.9427 179.057 51.5194 179.057C51.8873 179.057 52.3099 179.102 52.7872 179.191C53.2694 179.276 53.7343 179.452 54.1817 179.721C54.6341 179.989 55.0095 180.394 55.3078 180.936C55.6061 181.478 55.7552 182.204 55.7552 183.114V190.661H53.9953V189.109H53.9058C53.7865 189.358 53.5876 189.624 53.3092 189.907C53.0308 190.191 52.6604 190.432 52.198 190.631C51.7357 190.83 51.1714 190.929 50.5052 190.929ZM50.7737 189.348C51.4697 189.348 52.0564 189.211 52.5336 188.938C53.0159 188.664 53.3788 188.311 53.6224 187.879C53.871 187.446 53.9953 186.991 53.9953 186.514V184.903C53.9207 184.993 53.7566 185.075 53.5031 185.15C53.2545 185.219 52.9662 185.281 52.638 185.336C52.3149 185.386 51.9992 185.43 51.6909 185.47C51.3877 185.505 51.1416 185.535 50.9527 185.56C50.4953 185.619 50.0677 185.716 49.67 185.851C49.2772 185.98 48.9591 186.176 48.7154 186.44C48.4768 186.698 48.3575 187.051 48.3575 187.499C48.3575 188.11 48.5837 188.572 49.0361 188.886C49.4935 189.194 50.0727 189.348 50.7737 189.348ZM60.7274 175.388V190.661H58.9675V175.388H60.7274ZM67.3216 190.929C66.5958 190.929 65.937 190.792 65.3454 190.519C64.7538 190.24 64.284 189.84 63.936 189.318C63.588 188.791 63.414 188.155 63.414 187.409C63.414 186.753 63.5432 186.221 63.8017 185.813C64.0603 185.401 64.4058 185.077 64.8383 184.844C65.2708 184.61 65.7481 184.436 66.2701 184.322C66.7971 184.202 67.3266 184.108 67.8586 184.038C68.5546 183.949 69.1189 183.882 69.5514 183.837C69.9889 183.787 70.3071 183.705 70.5059 183.591C70.7098 183.477 70.8117 183.278 70.8117 182.994V182.935C70.8117 182.199 70.6103 181.627 70.2076 181.219C69.8099 180.812 69.2059 180.608 68.3955 180.608C67.5553 180.608 66.8966 180.792 66.4193 181.16C65.942 181.528 65.6064 181.92 65.4125 182.338L63.7421 181.741C64.0404 181.045 64.4381 180.504 64.9353 180.116C65.4374 179.723 65.9843 179.45 66.5759 179.295C67.1725 179.136 67.7591 179.057 68.3358 179.057C68.7037 179.057 69.1263 179.102 69.6036 179.191C70.0858 179.276 70.5507 179.452 70.9981 179.721C71.4505 179.989 71.8259 180.394 72.1242 180.936C72.4225 181.478 72.5716 182.204 72.5716 183.114V190.661H70.8117V189.109H70.7222C70.6029 189.358 70.404 189.624 70.1256 189.907C69.8472 190.191 69.4768 190.432 69.0144 190.631C68.5521 190.83 67.9878 190.929 67.3216 190.929ZM67.5901 189.348C68.2861 189.348 68.8728 189.211 69.35 188.938C69.8323 188.664 70.1952 188.311 70.4388 187.879C70.6874 187.446 70.8117 186.991 70.8117 186.514V184.903C70.7371 184.993 70.573 185.075 70.3195 185.15C70.0709 185.219 69.7826 185.281 69.4544 185.336C69.1313 185.386 68.8156 185.43 68.5073 185.47C68.2041 185.505 67.958 185.535 67.7691 185.56C67.3117 185.619 66.8841 185.716 66.4864 185.851C66.0936 185.98 65.7755 186.176 65.5318 186.44C65.2932 186.698 65.1739 187.051 65.1739 187.499C65.1739 188.11 65.4001 188.572 65.8525 188.886C66.3099 189.194 66.8891 189.348 67.5901 189.348ZM80.4075 195.195C79.5573 195.195 78.8265 195.085 78.215 194.866C77.6035 194.653 77.0939 194.369 76.6862 194.016C76.2835 193.668 75.9629 193.295 75.7242 192.898L77.1262 191.913C77.2853 192.122 77.4867 192.361 77.7303 192.629C77.9739 192.903 78.307 193.139 78.7296 193.338C79.1571 193.542 79.7164 193.643 80.4075 193.643C81.3322 193.643 82.0953 193.42 82.6969 192.972C83.2985 192.525 83.5992 191.824 83.5992 190.869V188.543H83.4501C83.3208 188.751 83.1369 189.01 82.8982 189.318C82.6646 189.621 82.3265 189.892 81.884 190.131C81.4465 190.365 80.8549 190.482 80.1092 190.482C79.1845 190.482 78.3542 190.263 77.6184 189.825C76.8876 189.388 76.3084 188.751 75.8808 187.916C75.4583 187.081 75.247 186.067 75.247 184.874C75.247 183.7 75.4533 182.679 75.8659 181.809C76.2786 180.934 76.8528 180.257 77.5886 179.78C78.3244 179.298 79.1745 179.057 80.139 179.057C80.8847 179.057 81.4764 179.181 81.9139 179.43C82.3563 179.673 82.6944 179.952 82.9281 180.265C83.1667 180.573 83.3507 180.827 83.4799 181.026H83.6589V179.206H85.3592V190.989C85.3592 191.973 85.1355 192.773 84.688 193.39C84.2455 194.011 83.6489 194.466 82.8982 194.755C82.1525 195.048 81.3222 195.195 80.4075 195.195ZM80.3478 188.901C81.0538 188.901 81.6504 188.739 82.1376 188.416C82.6248 188.093 82.9952 187.628 83.2487 187.021C83.5023 186.415 83.6291 185.689 83.6291 184.844C83.6291 184.018 83.5048 183.29 83.2562 182.659C83.0076 182.027 82.6397 181.533 82.1525 181.175C81.6653 180.817 81.0637 180.638 80.3478 180.638C79.6021 180.638 78.9806 180.827 78.4835 181.205C77.9913 181.582 77.6209 182.089 77.3723 182.726C77.1287 183.362 77.0069 184.068 77.0069 184.844C77.0069 185.639 77.1312 186.343 77.3798 186.954C77.6333 187.561 78.0062 188.038 78.4984 188.386C78.9955 188.729 79.612 188.901 80.3478 188.901ZM93.3833 190.899C92.2796 190.899 91.3276 190.656 90.5271 190.168C89.7317 189.676 89.1177 188.99 88.6852 188.11C88.2576 187.225 88.0438 186.196 88.0438 185.023C88.0438 183.849 88.2576 182.815 88.6852 181.92C89.1177 181.021 89.7193 180.32 90.4899 179.817C91.2654 179.31 92.1703 179.057 93.2043 179.057C93.8009 179.057 94.3901 179.156 94.9717 179.355C95.5534 179.554 96.0829 179.877 96.5602 180.325C97.0374 180.767 97.4178 181.354 97.7012 182.085C97.9845 182.815 98.1262 183.715 98.1262 184.784V185.53H89.2967V184.009H96.3364C96.3364 183.362 96.2072 182.786 95.9487 182.278C95.6951 181.771 95.3322 181.371 94.8599 181.078C94.3926 180.784 93.8407 180.638 93.2043 180.638C92.5034 180.638 91.8968 180.812 91.3847 181.16C90.8776 181.503 90.4874 181.95 90.2139 182.502C89.9405 183.054 89.8038 183.646 89.8038 184.277V185.291C89.8038 186.156 89.9529 186.89 90.2512 187.491C90.5545 188.088 90.9746 188.543 91.5115 188.856C92.0485 189.164 92.6724 189.318 93.3833 189.318C93.8457 189.318 94.2633 189.254 94.6362 189.124C95.014 188.99 95.3396 188.791 95.6131 188.528C95.8865 188.259 96.0978 187.926 96.247 187.528L97.9472 188.006C97.7683 188.582 97.4675 189.089 97.0449 189.527C96.6223 189.96 96.1003 190.298 95.4788 190.541C94.8574 190.78 94.1589 190.899 93.3833 190.899ZM100.803 190.661V179.206H102.504V180.996H102.653C102.891 180.384 103.277 179.909 103.809 179.571C104.341 179.228 104.98 179.057 105.725 179.057C106.481 179.057 107.11 179.228 107.612 179.571C108.119 179.909 108.514 180.384 108.798 180.996H108.917C109.21 180.404 109.65 179.934 110.237 179.586C110.824 179.233 111.527 179.057 112.347 179.057C113.372 179.057 114.209 179.377 114.861 180.019C115.512 180.655 115.838 181.647 115.838 182.994V190.661H114.078V182.994C114.078 182.149 113.846 181.545 113.384 181.182C112.922 180.819 112.377 180.638 111.751 180.638C110.945 180.638 110.322 180.881 109.879 181.369C109.437 181.851 109.215 182.462 109.215 183.203V190.661H107.426V182.815C107.426 182.164 107.214 181.64 106.792 181.242C106.369 180.839 105.825 180.638 105.159 180.638C104.701 180.638 104.274 180.76 103.876 181.003C103.483 181.247 103.165 181.585 102.921 182.017C102.683 182.445 102.563 182.94 102.563 183.501V190.661H100.803Z" fill="#1C2434"/>
</svg>
