<svg width="63" height="28" viewBox="0 0 63 28" fill="none" xmlns="http://www.w3.org/2000/svg">
<rect width="62.8571" height="28" rx="14" fill="#E3E4EB"/>
<path d="M37.8236 14.6234C37.8236 15.6972 37.6297 16.6253 37.2419 17.4075C36.8542 18.1897 36.3222 18.7929 35.6461 19.2171C34.9699 19.6414 34.1977 19.8535 33.3293 19.8535C32.4609 19.8535 31.6887 19.6414 31.0125 19.2171C30.3364 18.7929 29.8044 18.1897 29.4167 17.4075C29.0289 16.6253 28.835 15.6972 28.835 14.6234C28.835 13.5495 29.0289 12.6215 29.4167 11.8393C29.8044 11.0571 30.3364 10.4539 31.0125 10.0296C31.6887 9.60539 32.4609 9.39327 33.3293 9.39327C34.1977 9.39327 34.9699 9.60539 35.6461 10.0296C36.3222 10.4539 36.8542 11.0571 37.2419 11.8393C37.6297 12.6215 37.8236 13.5495 37.8236 14.6234ZM36.6304 14.6234C36.6304 13.7418 36.4829 12.9977 36.188 12.3911C35.8963 11.7846 35.5002 11.3256 34.9998 11.014C34.5026 10.7025 33.9458 10.5467 33.3293 10.5467C32.7128 10.5467 32.1543 10.7025 31.6539 11.014C31.1567 11.3256 30.7606 11.7846 30.4657 12.3911C30.174 12.9977 30.0282 13.7418 30.0282 14.6234C30.0282 15.505 30.174 16.2491 30.4657 16.8556C30.7606 17.4622 31.1567 17.9212 31.6539 18.2328C32.1543 18.5443 32.7128 18.7001 33.3293 18.7001C33.9458 18.7001 34.5026 18.5443 34.9998 18.2328C35.5002 17.9212 35.8963 17.4622 36.188 16.8556C36.4829 16.2491 36.6304 15.505 36.6304 14.6234ZM39.8968 19.7143V9.53248H46.0019V10.6262H41.1297V14.0666H45.5445V15.1603H41.1297V19.7143H39.8968ZM48.1136 19.7143V9.53248H54.2187V10.6262H49.3465V14.0666H53.7613V15.1603H49.3465V19.7143H48.1136Z" fill="#1C2434"/>
</svg>
