<svg width="86" height="14" viewBox="0 0 86 14" fill="none" xmlns="http://www.w3.org/2000/svg">
<mask id="path-1-outside-1_27_61" maskUnits="userSpaceOnUse" x="-0.197266" y="-0.950012" width="86" height="15" fill="black">
<rect fill="white" x="-0.197266" y="-0.950012" width="86" height="15"/>
<path d="M0.299894 13.05V0.686351H4.47745C5.44738 0.686351 6.24023 0.861422 6.856 1.21156C7.47579 1.55768 7.9346 2.02655 8.23242 2.61817C8.53024 3.20979 8.67916 3.86983 8.67916 4.59828C8.67916 5.32674 8.53024 5.98879 8.23242 6.58443C7.93863 7.18008 7.48384 7.65498 6.86808 8.00915C6.25231 8.35929 5.46348 8.53436 4.5016 8.53436H1.50728V7.20624H4.4533C5.11737 7.20624 5.65063 7.09154 6.05309 6.86213C6.45555 6.63273 6.74734 6.32283 6.92844 5.93244C7.11358 5.53803 7.20614 5.09331 7.20614 4.59828C7.20614 4.10325 7.11358 3.66055 6.92844 3.27016C6.74734 2.87977 6.45354 2.5739 6.04705 2.35254C5.64057 2.12717 5.10127 2.01448 4.42915 2.01448H1.79705V13.05H0.299894ZM14.6859 13.2432C13.7924 13.2432 13.0217 13.046 12.3738 12.6516C11.7298 12.2531 11.2328 11.6977 10.8826 10.9854C10.5365 10.269 10.3635 9.43588 10.3635 8.48607C10.3635 7.53626 10.5365 6.69914 10.8826 5.9747C11.2328 5.24625 11.7198 4.67878 12.3436 4.27229C12.9714 3.86178 13.7039 3.65652 14.541 3.65652C15.024 3.65652 15.5009 3.73701 15.9718 3.898C16.4426 4.05898 16.8713 4.32058 17.2576 4.6828C17.644 5.04099 17.9519 5.5159 18.1813 6.10752C18.4107 6.69914 18.5254 7.42759 18.5254 8.29289V8.89658H11.3777V7.66504H17.0765C17.0765 7.14184 16.9719 6.67499 16.7626 6.26448C16.5574 5.85396 16.2636 5.52998 15.8812 5.29253C15.5029 5.05508 15.0562 4.93635 14.541 4.93635C13.9735 4.93635 13.4825 5.07721 13.068 5.35894C12.6575 5.63664 12.3416 5.99885 12.1202 6.44558C11.8989 6.89232 11.7882 7.37125 11.7882 7.88237V8.7034C11.7882 9.40368 11.9089 9.99731 12.1504 10.4843C12.3959 10.9672 12.736 11.3355 13.1706 11.5891C13.6053 11.8386 14.1104 11.9633 14.6859 11.9633C15.0602 11.9633 15.3983 11.911 15.7001 11.8064C16.006 11.6977 16.2696 11.5367 16.4909 11.3234C16.7123 11.1061 16.8833 10.8364 17.0041 10.5145L18.3805 10.9008C18.2356 11.3677 17.9921 11.7782 17.65 12.1324C17.3079 12.4825 16.8854 12.7562 16.3823 12.9534C15.8792 13.1466 15.3137 13.2432 14.6859 13.2432ZM20.6926 13.05V3.77726H22.0691V5.17783H22.1657C22.3347 4.71902 22.6406 4.34674 23.0833 4.061C23.526 3.77525 24.025 3.63237 24.5804 3.63237C24.6851 3.63237 24.8159 3.63439 24.9728 3.63841C25.1298 3.64244 25.2485 3.64847 25.329 3.65652V5.10539C25.2807 5.09331 25.17 5.0752 24.997 5.05105C24.8279 5.02288 24.6489 5.00879 24.4597 5.00879C24.0089 5.00879 23.6065 5.10337 23.2523 5.29253C22.9022 5.47766 22.6245 5.73524 22.4192 6.06526C22.218 6.39125 22.1174 6.76353 22.1174 7.18209V13.05H20.6926ZM27.0178 13.05V3.77726H28.3943V5.22612H28.515C28.7082 4.7311 29.0201 4.34674 29.4507 4.07307C29.8814 3.79537 30.3985 3.65652 31.0022 3.65652C31.614 3.65652 32.1231 3.79537 32.5296 4.07307C32.9401 4.34674 33.26 4.7311 33.4894 5.22612H33.586C33.8235 4.74719 34.1797 4.36687 34.6546 4.08514C35.1295 3.7994 35.699 3.65652 36.363 3.65652C37.1921 3.65652 37.8702 3.91611 38.3975 4.43529C38.9247 4.95044 39.1883 5.75335 39.1883 6.84402V13.05H37.7636V6.84402C37.7636 6.15984 37.5764 5.67084 37.2021 5.37705C36.8279 5.08325 36.3872 4.93635 35.8801 4.93635C35.2281 4.93635 34.723 5.13356 34.3648 5.52797C34.0066 5.91836 33.8275 6.41339 33.8275 7.01306V13.05H32.3786V6.69914C32.3786 6.17191 32.2076 5.74731 31.8655 5.42534C31.5234 5.09935 31.0827 4.93635 30.5434 4.93635C30.1731 4.93635 29.827 5.03495 29.5051 5.23216C29.1871 5.42937 28.9295 5.70304 28.7323 6.05318C28.5392 6.3993 28.4426 6.79975 28.4426 7.25453V13.05H27.0178ZM41.7932 13.05V3.77726H43.218V13.05H41.7932ZM42.5177 2.23181C42.24 2.23181 42.0005 2.13723 41.7993 1.94807C41.6021 1.75891 41.5035 1.53152 41.5035 1.2659C41.5035 1.00027 41.6021 0.772881 41.7993 0.583723C42.0005 0.394566 42.24 0.299988 42.5177 0.299988C42.7954 0.299988 43.0328 0.394566 43.23 0.583723C43.4313 0.772881 43.5319 1.00027 43.5319 1.2659C43.5319 1.53152 43.4313 1.75891 43.23 1.94807C43.0328 2.13723 42.7954 2.23181 42.5177 2.23181ZM52.3956 5.85396L51.1158 6.21618C51.0353 6.00288 50.9165 5.79561 50.7596 5.59438C50.6067 5.38912 50.3974 5.22009 50.1317 5.08727C49.8661 4.95446 49.526 4.88806 49.1115 4.88806C48.544 4.88806 48.0711 5.01886 47.6928 5.28046C47.3185 5.53803 47.1314 5.86604 47.1314 6.26448C47.1314 6.61864 47.2602 6.89835 47.5178 7.10361C47.7753 7.30887 48.1778 7.47991 48.7251 7.61675L50.1016 7.95482C50.9306 8.15605 51.5484 8.46393 51.9549 8.87847C52.3614 9.28898 52.5646 9.81822 52.5646 10.4662C52.5646 10.9974 52.4117 11.4723 52.1058 11.8909C51.804 12.3095 51.3814 12.6395 50.8381 12.881C50.2947 13.1224 49.6629 13.2432 48.9425 13.2432C47.9967 13.2432 47.2139 13.0379 46.5941 12.6274C45.9743 12.2169 45.5819 11.6172 45.4169 10.8284L46.7692 10.4903C46.898 10.9894 47.1415 11.3637 47.4996 11.6132C47.8619 11.8627 48.3348 11.9875 48.9183 11.9875C49.5824 11.9875 50.1096 11.8466 50.5 11.5649C50.8944 11.2792 51.0916 10.9371 51.0916 10.5386C51.0916 10.2167 50.9789 9.947 50.7536 9.72968C50.5282 9.50832 50.1821 9.34331 49.7152 9.23465L48.1697 8.87243C47.3205 8.6712 46.6967 8.35929 46.2983 7.93671C45.9039 7.5101 45.7067 6.97683 45.7067 6.33692C45.7067 5.81372 45.8536 5.35089 46.1474 4.94843C46.4452 4.54596 46.8497 4.23003 47.3608 4.00063C47.8759 3.77122 48.4595 3.65652 49.1115 3.65652C50.0291 3.65652 50.7495 3.85775 51.2727 4.26021C51.8 4.66268 52.1742 5.19393 52.3956 5.85396ZM61.2774 5.85396L59.9976 6.21618C59.9171 6.00288 59.7984 5.79561 59.6414 5.59438C59.4885 5.38912 59.2792 5.22009 59.0136 5.08727C58.748 4.95446 58.4079 4.88806 57.9933 4.88806C57.4259 4.88806 56.953 5.01886 56.5747 5.28046C56.2004 5.53803 56.0132 5.86604 56.0132 6.26448C56.0132 6.61864 56.142 6.89835 56.3996 7.10361C56.6572 7.30887 57.0596 7.47991 57.607 7.61675L58.9834 7.95482C59.8125 8.15605 60.4302 8.46393 60.8367 8.87847C61.2432 9.28898 61.4465 9.81822 61.4465 10.4662C61.4465 10.9974 61.2935 11.4723 60.9877 11.8909C60.6858 12.3095 60.2632 12.6395 59.7199 12.881C59.1766 13.1224 58.5447 13.2432 57.8243 13.2432C56.8785 13.2432 56.0957 13.0379 55.4759 12.6274C54.8561 12.2169 54.4637 11.6172 54.2987 10.8284L55.651 10.4903C55.7798 10.9894 56.0233 11.3637 56.3815 11.6132C56.7437 11.8627 57.2166 11.9875 57.8002 11.9875C58.4642 11.9875 58.9914 11.8466 59.3818 11.5649C59.7762 11.2792 59.9735 10.9371 59.9735 10.5386C59.9735 10.2167 59.8608 9.947 59.6354 9.72968C59.41 9.50832 59.0639 9.34331 58.597 9.23465L57.0516 8.87243C56.2024 8.6712 55.5786 8.35929 55.1801 7.93671C54.7857 7.5101 54.5885 6.97683 54.5885 6.33692C54.5885 5.81372 54.7354 5.35089 55.0292 4.94843C55.327 4.54596 55.7315 4.23003 56.2426 4.00063C56.7578 3.77122 57.3414 3.65652 57.9933 3.65652C58.911 3.65652 59.6314 3.85775 60.1546 4.26021C60.6818 4.66268 61.0561 5.19393 61.2774 5.85396ZM66.3198 13.2673C65.7322 13.2673 65.1989 13.1566 64.72 12.9353C64.2411 12.7099 63.8607 12.3859 63.579 11.9633C63.2973 11.5367 63.1564 11.0216 63.1564 10.4179C63.1564 9.88664 63.2611 9.456 63.4703 9.12598C63.6796 8.79194 63.9593 8.53034 64.3095 8.34118C64.6596 8.15202 65.046 8.01116 65.4686 7.9186C65.8952 7.822 66.3238 7.74554 66.7544 7.68919C67.3179 7.61675 67.7747 7.56242 68.1248 7.52619C68.479 7.48595 68.7366 7.41954 68.8975 7.32698C69.0626 7.23441 69.1451 7.07343 69.1451 6.84402V6.79573C69.1451 6.20008 68.9821 5.73725 68.6561 5.40723C68.3341 5.07721 67.8451 4.9122 67.1891 4.9122C66.5089 4.9122 65.9757 5.06111 65.5893 5.35894C65.2029 5.65676 64.9313 5.9747 64.7743 6.31277L63.4221 5.82982C63.6635 5.26637 63.9855 4.82769 64.388 4.51377C64.7944 4.19582 65.2372 3.97447 65.7161 3.8497C66.199 3.72092 66.6739 3.65652 67.1408 3.65652C67.4386 3.65652 67.7807 3.69274 68.1671 3.76519C68.5575 3.8336 68.9338 3.97648 69.296 4.19381C69.6622 4.41114 69.9661 4.73915 70.2076 5.17783C70.449 5.61651 70.5698 6.20411 70.5698 6.94061V13.05H69.1451V11.7943H69.0726C68.976 11.9955 68.815 12.2109 68.5897 12.4403C68.3643 12.6697 68.0645 12.8649 67.6902 13.0258C67.3159 13.1868 66.8591 13.2673 66.3198 13.2673ZM66.5371 11.9875C67.1006 11.9875 67.5755 11.8768 67.9618 11.6555C68.3522 11.4341 68.646 11.1484 68.8432 10.7982C69.0444 10.4481 69.1451 10.0798 69.1451 9.69345V8.38948C69.0847 8.46192 68.9519 8.52833 68.7466 8.58869C68.5454 8.64504 68.312 8.69535 68.0463 8.73962C67.7847 8.77986 67.5292 8.81609 67.2797 8.84828C67.0342 8.87646 66.8349 8.9006 66.682 8.92073C66.3117 8.96902 65.9656 9.0475 65.6436 9.15617C65.3257 9.26081 65.0681 9.41978 64.8709 9.63308C64.6777 9.84236 64.5811 10.1281 64.5811 10.4903C64.5811 10.9854 64.7643 11.3596 65.1305 11.6132C65.5008 11.8627 65.9696 11.9875 66.5371 11.9875ZM65.378 2.66646L64.2672 2.61817C64.2672 2.0024 64.4423 1.49932 64.7924 1.10894C65.1466 0.714523 65.5833 0.517317 66.1025 0.517317C66.3319 0.517317 66.5351 0.557563 66.7122 0.638055C66.8893 0.714523 67.0583 0.803065 67.2193 0.90368C67.3803 1.0043 67.5453 1.09485 67.7143 1.17534C67.8874 1.25181 68.0826 1.29004 68.2999 1.29004C68.5293 1.29004 68.7225 1.2015 68.8794 1.02442C69.0404 0.843311 69.1209 0.625982 69.1209 0.37243L70.2076 0.469022C70.2076 1.09686 70.0305 1.59592 69.6763 1.96618C69.3262 2.33645 68.8915 2.52158 68.3723 2.52158C68.0946 2.52158 67.8652 2.48334 67.6841 2.40688C67.503 2.32638 67.342 2.23583 67.2012 2.13521C67.0603 2.0346 66.9114 1.94606 66.7544 1.86959C66.5975 1.7891 66.4043 1.74885 66.1749 1.74885C65.9455 1.74885 65.7543 1.83941 65.6014 2.02051C65.4525 2.1976 65.378 2.41291 65.378 2.66646ZM76.9372 13.2432C76.1001 13.2432 75.3656 13.044 74.7338 12.6455C74.1059 12.2471 73.6149 11.6897 73.2607 10.9733C72.9106 10.2569 72.7355 9.41978 72.7355 8.46192C72.7355 7.49601 72.9106 6.65285 73.2607 5.93244C73.6149 5.21204 74.1059 4.65262 74.7338 4.25418C75.3656 3.85574 76.1001 3.65652 76.9372 3.65652C77.7744 3.65652 78.5068 3.85574 79.1347 4.25418C79.7665 4.65262 80.2575 5.21204 80.6077 5.93244C80.9619 6.65285 81.1389 7.49601 81.1389 8.46192C81.1389 9.41978 80.9619 10.2569 80.6077 10.9733C80.2575 11.6897 79.7665 12.2471 79.1347 12.6455C78.5068 13.044 77.7744 13.2432 76.9372 13.2432ZM76.9372 11.9633C77.5731 11.9633 78.0963 11.8003 78.5068 11.4743C78.9173 11.1484 79.2212 10.7197 79.4184 10.1885C79.6156 9.65723 79.7142 9.08171 79.7142 8.46192C79.7142 7.84213 79.6156 7.26459 79.4184 6.72932C79.2212 6.19405 78.9173 5.7614 78.5068 5.43138C78.0963 5.10136 77.5731 4.93635 76.9372 4.93635C76.3013 4.93635 75.7781 5.10136 75.3676 5.43138C74.9571 5.7614 74.6533 6.19405 74.4561 6.72932C74.2588 7.26459 74.1602 7.84213 74.1602 8.46192C74.1602 9.08171 74.2588 9.65723 74.4561 10.1885C74.6533 10.7197 74.9571 11.1484 75.3676 11.4743C75.7781 11.8003 76.3013 11.9633 76.9372 11.9633ZM84.3521 13.1466C84.0543 13.1466 83.7987 13.0399 83.5854 12.8266C83.3721 12.6133 83.2654 12.3578 83.2654 12.0599C83.2654 11.7621 83.3721 11.5065 83.5854 11.2932C83.7987 11.0799 84.0543 10.9733 84.3521 10.9733C84.6499 10.9733 84.9055 11.0799 85.1188 11.2932C85.3321 11.5065 85.4387 11.7621 85.4387 12.0599C85.4387 12.2571 85.3884 12.4382 85.2878 12.6033C85.1912 12.7683 85.0604 12.9011 84.8954 13.0017C84.7344 13.0983 84.5533 13.1466 84.3521 13.1466ZM84.3521 6.26448C84.0543 6.26448 83.7987 6.15782 83.5854 5.94452C83.3721 5.73121 83.2654 5.47565 83.2654 5.17783C83.2654 4.88001 83.3721 4.62444 83.5854 4.41114C83.7987 4.19783 84.0543 4.09118 84.3521 4.09118C84.6499 4.09118 84.9055 4.19783 85.1188 4.41114C85.3321 4.62444 85.4387 4.88001 85.4387 5.17783C85.4387 5.37503 85.3884 5.55614 85.2878 5.72115C85.1912 5.88616 85.0604 6.01897 84.8954 6.11959C84.7344 6.21618 84.5533 6.26448 84.3521 6.26448Z"/>
</mask>
<path d="M0.299894 13.05V0.686351H4.47745C5.44738 0.686351 6.24023 0.861422 6.856 1.21156C7.47579 1.55768 7.9346 2.02655 8.23242 2.61817C8.53024 3.20979 8.67916 3.86983 8.67916 4.59828C8.67916 5.32674 8.53024 5.98879 8.23242 6.58443C7.93863 7.18008 7.48384 7.65498 6.86808 8.00915C6.25231 8.35929 5.46348 8.53436 4.5016 8.53436H1.50728V7.20624H4.4533C5.11737 7.20624 5.65063 7.09154 6.05309 6.86213C6.45555 6.63273 6.74734 6.32283 6.92844 5.93244C7.11358 5.53803 7.20614 5.09331 7.20614 4.59828C7.20614 4.10325 7.11358 3.66055 6.92844 3.27016C6.74734 2.87977 6.45354 2.5739 6.04705 2.35254C5.64057 2.12717 5.10127 2.01448 4.42915 2.01448H1.79705V13.05H0.299894ZM14.6859 13.2432C13.7924 13.2432 13.0217 13.046 12.3738 12.6516C11.7298 12.2531 11.2328 11.6977 10.8826 10.9854C10.5365 10.269 10.3635 9.43588 10.3635 8.48607C10.3635 7.53626 10.5365 6.69914 10.8826 5.9747C11.2328 5.24625 11.7198 4.67878 12.3436 4.27229C12.9714 3.86178 13.7039 3.65652 14.541 3.65652C15.024 3.65652 15.5009 3.73701 15.9718 3.898C16.4426 4.05898 16.8713 4.32058 17.2576 4.6828C17.644 5.04099 17.9519 5.5159 18.1813 6.10752C18.4107 6.69914 18.5254 7.42759 18.5254 8.29289V8.89658H11.3777V7.66504H17.0765C17.0765 7.14184 16.9719 6.67499 16.7626 6.26448C16.5574 5.85396 16.2636 5.52998 15.8812 5.29253C15.5029 5.05508 15.0562 4.93635 14.541 4.93635C13.9735 4.93635 13.4825 5.07721 13.068 5.35894C12.6575 5.63664 12.3416 5.99885 12.1202 6.44558C11.8989 6.89232 11.7882 7.37125 11.7882 7.88237V8.7034C11.7882 9.40368 11.9089 9.99731 12.1504 10.4843C12.3959 10.9672 12.736 11.3355 13.1706 11.5891C13.6053 11.8386 14.1104 11.9633 14.6859 11.9633C15.0602 11.9633 15.3983 11.911 15.7001 11.8064C16.006 11.6977 16.2696 11.5367 16.4909 11.3234C16.7123 11.1061 16.8833 10.8364 17.0041 10.5145L18.3805 10.9008C18.2356 11.3677 17.9921 11.7782 17.65 12.1324C17.3079 12.4825 16.8854 12.7562 16.3823 12.9534C15.8792 13.1466 15.3137 13.2432 14.6859 13.2432ZM20.6926 13.05V3.77726H22.0691V5.17783H22.1657C22.3347 4.71902 22.6406 4.34674 23.0833 4.061C23.526 3.77525 24.025 3.63237 24.5804 3.63237C24.6851 3.63237 24.8159 3.63439 24.9728 3.63841C25.1298 3.64244 25.2485 3.64847 25.329 3.65652V5.10539C25.2807 5.09331 25.17 5.0752 24.997 5.05105C24.8279 5.02288 24.6489 5.00879 24.4597 5.00879C24.0089 5.00879 23.6065 5.10337 23.2523 5.29253C22.9022 5.47766 22.6245 5.73524 22.4192 6.06526C22.218 6.39125 22.1174 6.76353 22.1174 7.18209V13.05H20.6926ZM27.0178 13.05V3.77726H28.3943V5.22612H28.515C28.7082 4.7311 29.0201 4.34674 29.4507 4.07307C29.8814 3.79537 30.3985 3.65652 31.0022 3.65652C31.614 3.65652 32.1231 3.79537 32.5296 4.07307C32.9401 4.34674 33.26 4.7311 33.4894 5.22612H33.586C33.8235 4.74719 34.1797 4.36687 34.6546 4.08514C35.1295 3.7994 35.699 3.65652 36.363 3.65652C37.1921 3.65652 37.8702 3.91611 38.3975 4.43529C38.9247 4.95044 39.1883 5.75335 39.1883 6.84402V13.05H37.7636V6.84402C37.7636 6.15984 37.5764 5.67084 37.2021 5.37705C36.8279 5.08325 36.3872 4.93635 35.8801 4.93635C35.2281 4.93635 34.723 5.13356 34.3648 5.52797C34.0066 5.91836 33.8275 6.41339 33.8275 7.01306V13.05H32.3786V6.69914C32.3786 6.17191 32.2076 5.74731 31.8655 5.42534C31.5234 5.09935 31.0827 4.93635 30.5434 4.93635C30.1731 4.93635 29.827 5.03495 29.5051 5.23216C29.1871 5.42937 28.9295 5.70304 28.7323 6.05318C28.5392 6.3993 28.4426 6.79975 28.4426 7.25453V13.05H27.0178ZM41.7932 13.05V3.77726H43.218V13.05H41.7932ZM42.5177 2.23181C42.24 2.23181 42.0005 2.13723 41.7993 1.94807C41.6021 1.75891 41.5035 1.53152 41.5035 1.2659C41.5035 1.00027 41.6021 0.772881 41.7993 0.583723C42.0005 0.394566 42.24 0.299988 42.5177 0.299988C42.7954 0.299988 43.0328 0.394566 43.23 0.583723C43.4313 0.772881 43.5319 1.00027 43.5319 1.2659C43.5319 1.53152 43.4313 1.75891 43.23 1.94807C43.0328 2.13723 42.7954 2.23181 42.5177 2.23181ZM52.3956 5.85396L51.1158 6.21618C51.0353 6.00288 50.9165 5.79561 50.7596 5.59438C50.6067 5.38912 50.3974 5.22009 50.1317 5.08727C49.8661 4.95446 49.526 4.88806 49.1115 4.88806C48.544 4.88806 48.0711 5.01886 47.6928 5.28046C47.3185 5.53803 47.1314 5.86604 47.1314 6.26448C47.1314 6.61864 47.2602 6.89835 47.5178 7.10361C47.7753 7.30887 48.1778 7.47991 48.7251 7.61675L50.1016 7.95482C50.9306 8.15605 51.5484 8.46393 51.9549 8.87847C52.3614 9.28898 52.5646 9.81822 52.5646 10.4662C52.5646 10.9974 52.4117 11.4723 52.1058 11.8909C51.804 12.3095 51.3814 12.6395 50.8381 12.881C50.2947 13.1224 49.6629 13.2432 48.9425 13.2432C47.9967 13.2432 47.2139 13.0379 46.5941 12.6274C45.9743 12.2169 45.5819 11.6172 45.4169 10.8284L46.7692 10.4903C46.898 10.9894 47.1415 11.3637 47.4996 11.6132C47.8619 11.8627 48.3348 11.9875 48.9183 11.9875C49.5824 11.9875 50.1096 11.8466 50.5 11.5649C50.8944 11.2792 51.0916 10.9371 51.0916 10.5386C51.0916 10.2167 50.9789 9.947 50.7536 9.72968C50.5282 9.50832 50.1821 9.34331 49.7152 9.23465L48.1697 8.87243C47.3205 8.6712 46.6967 8.35929 46.2983 7.93671C45.9039 7.5101 45.7067 6.97683 45.7067 6.33692C45.7067 5.81372 45.8536 5.35089 46.1474 4.94843C46.4452 4.54596 46.8497 4.23003 47.3608 4.00063C47.8759 3.77122 48.4595 3.65652 49.1115 3.65652C50.0291 3.65652 50.7495 3.85775 51.2727 4.26021C51.8 4.66268 52.1742 5.19393 52.3956 5.85396ZM61.2774 5.85396L59.9976 6.21618C59.9171 6.00288 59.7984 5.79561 59.6414 5.59438C59.4885 5.38912 59.2792 5.22009 59.0136 5.08727C58.748 4.95446 58.4079 4.88806 57.9933 4.88806C57.4259 4.88806 56.953 5.01886 56.5747 5.28046C56.2004 5.53803 56.0132 5.86604 56.0132 6.26448C56.0132 6.61864 56.142 6.89835 56.3996 7.10361C56.6572 7.30887 57.0596 7.47991 57.607 7.61675L58.9834 7.95482C59.8125 8.15605 60.4302 8.46393 60.8367 8.87847C61.2432 9.28898 61.4465 9.81822 61.4465 10.4662C61.4465 10.9974 61.2935 11.4723 60.9877 11.8909C60.6858 12.3095 60.2632 12.6395 59.7199 12.881C59.1766 13.1224 58.5447 13.2432 57.8243 13.2432C56.8785 13.2432 56.0957 13.0379 55.4759 12.6274C54.8561 12.2169 54.4637 11.6172 54.2987 10.8284L55.651 10.4903C55.7798 10.9894 56.0233 11.3637 56.3815 11.6132C56.7437 11.8627 57.2166 11.9875 57.8002 11.9875C58.4642 11.9875 58.9914 11.8466 59.3818 11.5649C59.7762 11.2792 59.9735 10.9371 59.9735 10.5386C59.9735 10.2167 59.8608 9.947 59.6354 9.72968C59.41 9.50832 59.0639 9.34331 58.597 9.23465L57.0516 8.87243C56.2024 8.6712 55.5786 8.35929 55.1801 7.93671C54.7857 7.5101 54.5885 6.97683 54.5885 6.33692C54.5885 5.81372 54.7354 5.35089 55.0292 4.94843C55.327 4.54596 55.7315 4.23003 56.2426 4.00063C56.7578 3.77122 57.3414 3.65652 57.9933 3.65652C58.911 3.65652 59.6314 3.85775 60.1546 4.26021C60.6818 4.66268 61.0561 5.19393 61.2774 5.85396ZM66.3198 13.2673C65.7322 13.2673 65.1989 13.1566 64.72 12.9353C64.2411 12.7099 63.8607 12.3859 63.579 11.9633C63.2973 11.5367 63.1564 11.0216 63.1564 10.4179C63.1564 9.88664 63.2611 9.456 63.4703 9.12598C63.6796 8.79194 63.9593 8.53034 64.3095 8.34118C64.6596 8.15202 65.046 8.01116 65.4686 7.9186C65.8952 7.822 66.3238 7.74554 66.7544 7.68919C67.3179 7.61675 67.7747 7.56242 68.1248 7.52619C68.479 7.48595 68.7366 7.41954 68.8975 7.32698C69.0626 7.23441 69.1451 7.07343 69.1451 6.84402V6.79573C69.1451 6.20008 68.9821 5.73725 68.6561 5.40723C68.3341 5.07721 67.8451 4.9122 67.1891 4.9122C66.5089 4.9122 65.9757 5.06111 65.5893 5.35894C65.2029 5.65676 64.9313 5.9747 64.7743 6.31277L63.4221 5.82982C63.6635 5.26637 63.9855 4.82769 64.388 4.51377C64.7944 4.19582 65.2372 3.97447 65.7161 3.8497C66.199 3.72092 66.6739 3.65652 67.1408 3.65652C67.4386 3.65652 67.7807 3.69274 68.1671 3.76519C68.5575 3.8336 68.9338 3.97648 69.296 4.19381C69.6622 4.41114 69.9661 4.73915 70.2076 5.17783C70.449 5.61651 70.5698 6.20411 70.5698 6.94061V13.05H69.1451V11.7943H69.0726C68.976 11.9955 68.815 12.2109 68.5897 12.4403C68.3643 12.6697 68.0645 12.8649 67.6902 13.0258C67.3159 13.1868 66.8591 13.2673 66.3198 13.2673ZM66.5371 11.9875C67.1006 11.9875 67.5755 11.8768 67.9618 11.6555C68.3522 11.4341 68.646 11.1484 68.8432 10.7982C69.0444 10.4481 69.1451 10.0798 69.1451 9.69345V8.38948C69.0847 8.46192 68.9519 8.52833 68.7466 8.58869C68.5454 8.64504 68.312 8.69535 68.0463 8.73962C67.7847 8.77986 67.5292 8.81609 67.2797 8.84828C67.0342 8.87646 66.8349 8.9006 66.682 8.92073C66.3117 8.96902 65.9656 9.0475 65.6436 9.15617C65.3257 9.26081 65.0681 9.41978 64.8709 9.63308C64.6777 9.84236 64.5811 10.1281 64.5811 10.4903C64.5811 10.9854 64.7643 11.3596 65.1305 11.6132C65.5008 11.8627 65.9696 11.9875 66.5371 11.9875ZM65.378 2.66646L64.2672 2.61817C64.2672 2.0024 64.4423 1.49932 64.7924 1.10894C65.1466 0.714523 65.5833 0.517317 66.1025 0.517317C66.3319 0.517317 66.5351 0.557563 66.7122 0.638055C66.8893 0.714523 67.0583 0.803065 67.2193 0.90368C67.3803 1.0043 67.5453 1.09485 67.7143 1.17534C67.8874 1.25181 68.0826 1.29004 68.2999 1.29004C68.5293 1.29004 68.7225 1.2015 68.8794 1.02442C69.0404 0.843311 69.1209 0.625982 69.1209 0.37243L70.2076 0.469022C70.2076 1.09686 70.0305 1.59592 69.6763 1.96618C69.3262 2.33645 68.8915 2.52158 68.3723 2.52158C68.0946 2.52158 67.8652 2.48334 67.6841 2.40688C67.503 2.32638 67.342 2.23583 67.2012 2.13521C67.0603 2.0346 66.9114 1.94606 66.7544 1.86959C66.5975 1.7891 66.4043 1.74885 66.1749 1.74885C65.9455 1.74885 65.7543 1.83941 65.6014 2.02051C65.4525 2.1976 65.378 2.41291 65.378 2.66646ZM76.9372 13.2432C76.1001 13.2432 75.3656 13.044 74.7338 12.6455C74.1059 12.2471 73.6149 11.6897 73.2607 10.9733C72.9106 10.2569 72.7355 9.41978 72.7355 8.46192C72.7355 7.49601 72.9106 6.65285 73.2607 5.93244C73.6149 5.21204 74.1059 4.65262 74.7338 4.25418C75.3656 3.85574 76.1001 3.65652 76.9372 3.65652C77.7744 3.65652 78.5068 3.85574 79.1347 4.25418C79.7665 4.65262 80.2575 5.21204 80.6077 5.93244C80.9619 6.65285 81.1389 7.49601 81.1389 8.46192C81.1389 9.41978 80.9619 10.2569 80.6077 10.9733C80.2575 11.6897 79.7665 12.2471 79.1347 12.6455C78.5068 13.044 77.7744 13.2432 76.9372 13.2432ZM76.9372 11.9633C77.5731 11.9633 78.0963 11.8003 78.5068 11.4743C78.9173 11.1484 79.2212 10.7197 79.4184 10.1885C79.6156 9.65723 79.7142 9.08171 79.7142 8.46192C79.7142 7.84213 79.6156 7.26459 79.4184 6.72932C79.2212 6.19405 78.9173 5.7614 78.5068 5.43138C78.0963 5.10136 77.5731 4.93635 76.9372 4.93635C76.3013 4.93635 75.7781 5.10136 75.3676 5.43138C74.9571 5.7614 74.6533 6.19405 74.4561 6.72932C74.2588 7.26459 74.1602 7.84213 74.1602 8.46192C74.1602 9.08171 74.2588 9.65723 74.4561 10.1885C74.6533 10.7197 74.9571 11.1484 75.3676 11.4743C75.7781 11.8003 76.3013 11.9633 76.9372 11.9633ZM84.3521 13.1466C84.0543 13.1466 83.7987 13.0399 83.5854 12.8266C83.3721 12.6133 83.2654 12.3578 83.2654 12.0599C83.2654 11.7621 83.3721 11.5065 83.5854 11.2932C83.7987 11.0799 84.0543 10.9733 84.3521 10.9733C84.6499 10.9733 84.9055 11.0799 85.1188 11.2932C85.3321 11.5065 85.4387 11.7621 85.4387 12.0599C85.4387 12.2571 85.3884 12.4382 85.2878 12.6033C85.1912 12.7683 85.0604 12.9011 84.8954 13.0017C84.7344 13.0983 84.5533 13.1466 84.3521 13.1466ZM84.3521 6.26448C84.0543 6.26448 83.7987 6.15782 83.5854 5.94452C83.3721 5.73121 83.2654 5.47565 83.2654 5.17783C83.2654 4.88001 83.3721 4.62444 83.5854 4.41114C83.7987 4.19783 84.0543 4.09118 84.3521 4.09118C84.6499 4.09118 84.9055 4.19783 85.1188 4.41114C85.3321 4.62444 85.4387 4.88001 85.4387 5.17783C85.4387 5.37503 85.3884 5.55614 85.2878 5.72115C85.1912 5.88616 85.0604 6.01897 84.8954 6.11959C84.7344 6.21618 84.5533 6.26448 84.3521 6.26448Z" fill="#E3E4EB"/>
<path d="M0.299894 13.05H-0.000106454V13.35H0.299894V13.05ZM0.299894 0.686351V0.386351H-0.000106454V0.686351H0.299894ZM6.856 1.21156L6.70771 1.47236L6.70973 1.47349L6.856 1.21156ZM8.23242 2.61817L7.96446 2.75306V2.75306L8.23242 2.61817ZM8.23242 6.58443L7.96409 6.45027L7.96337 6.45173L8.23242 6.58443ZM6.86808 8.00915L7.01637 8.26994L7.01765 8.2692L6.86808 8.00915ZM1.50728 8.53436H1.20728V8.83436H1.50728V8.53436ZM1.50728 7.20624V6.90624H1.20728V7.20624H1.50728ZM6.05309 6.86213L5.90453 6.6015H5.90453L6.05309 6.86213ZM6.92844 5.93244L6.65687 5.80497L6.6563 5.80619L6.92844 5.93244ZM6.92844 3.27016L6.65629 3.39641L6.65738 3.3987L6.92844 3.27016ZM6.04705 2.35254L5.90158 2.61492L5.90358 2.61601L6.04705 2.35254ZM1.79705 2.01448V1.71448H1.49705V2.01448H1.79705ZM1.79705 13.05V13.35H2.09705V13.05H1.79705ZM0.299894 13.05H0.599894V0.686351H0.299894H-0.000106454V13.05H0.299894ZM0.299894 0.686351V0.986351H4.47745V0.686351V0.386351H0.299894V0.686351ZM4.47745 0.686351V0.986351C5.41376 0.986351 6.1508 1.15567 6.70771 1.47235L6.856 1.21156L7.00429 0.950777C6.32967 0.567169 5.48101 0.386351 4.47745 0.386351V0.686351ZM6.856 1.21156L6.70973 1.47349C7.28112 1.79258 7.69556 2.2189 7.96446 2.75306L8.23242 2.61817L8.50038 2.48328C8.17364 1.8342 7.67046 1.32278 7.00227 0.949638L6.856 1.21156ZM8.23242 2.61817L7.96446 2.75306C8.23918 3.29879 8.37916 3.91192 8.37916 4.59828H8.67916H8.97916C8.97916 3.82773 8.82131 3.12079 8.50038 2.48328L8.23242 2.61817ZM8.67916 4.59828H8.37916C8.37916 5.28461 8.23919 5.90009 7.96409 6.45027L8.23242 6.58443L8.50075 6.7186C8.8213 6.07749 8.97916 5.36887 8.97916 4.59828H8.67916ZM8.23242 6.58443L7.96337 6.45173C7.69775 6.99024 7.28646 7.42242 6.7185 7.7491L6.86808 8.00915L7.01765 8.2692C7.68122 7.88754 8.1795 7.36991 8.50147 6.71714L8.23242 6.58443ZM6.86808 8.00915L6.71979 7.74836C6.16255 8.06522 5.42934 8.23436 4.5016 8.23436V8.53436V8.83436C5.49762 8.83436 6.34207 8.65336 7.01637 8.26994L6.86808 8.00915ZM4.5016 8.53436V8.23436H1.50728V8.53436V8.83436H4.5016V8.53436ZM1.50728 8.53436H1.80728V7.20624H1.50728H1.20728V8.53436H1.50728ZM1.50728 7.20624V7.50624H4.4533V7.20624V6.90624H1.50728V7.20624ZM4.4533 7.20624V7.50624C5.14822 7.50624 5.73848 7.38677 6.20165 7.12277L6.05309 6.86213L5.90453 6.6015C5.56277 6.7963 5.08651 6.90624 4.4533 6.90624V7.20624ZM6.05309 6.86213L6.20165 7.12277C6.6539 6.86498 6.99121 6.51003 7.20059 6.0587L6.92844 5.93244L6.6563 5.80619C6.50347 6.13564 6.25721 6.40047 5.90453 6.6015L6.05309 6.86213ZM6.92844 5.93244L7.20002 6.05992C7.40627 5.62051 7.50614 5.13136 7.50614 4.59828H7.20614H6.90614C6.90614 5.05526 6.82089 5.45555 6.65687 5.80497L6.92844 5.93244ZM7.20614 4.59828H7.50614C7.50614 4.06527 7.40629 3.57765 7.19951 3.14161L6.92844 3.27016L6.65738 3.3987C6.82087 3.74345 6.90614 4.14124 6.90614 4.59828H7.20614ZM6.92844 3.27016L7.20059 3.14391C6.99032 2.69066 6.64898 2.33873 6.19053 2.08908L6.04705 2.35254L5.90358 2.61601C6.2581 2.80907 6.50436 3.06888 6.6563 3.39641L6.92844 3.27016ZM6.04705 2.35254L6.19252 2.09017C5.72605 1.83154 5.13092 1.71448 4.42915 1.71448V2.01448V2.31448C5.07161 2.31448 5.55508 2.4228 5.90158 2.61491L6.04705 2.35254ZM4.42915 2.01448V1.71448H1.79705V2.01448V2.31448H4.42915V2.01448ZM1.79705 2.01448H1.49705V13.05H1.79705H2.09705V2.01448H1.79705ZM1.79705 13.05V12.75H0.299894V13.05V13.35H1.79705V13.05ZM12.3738 12.6516L12.2159 12.9067L12.2178 12.9078L12.3738 12.6516ZM10.8826 10.9854L10.6125 11.1159L10.6134 11.1177L10.8826 10.9854ZM10.8826 5.9747L10.6122 5.84474L10.6119 5.84537L10.8826 5.9747ZM12.3436 4.27229L12.5074 4.52364L12.5077 4.52338L12.3436 4.27229ZM15.9718 3.898L16.0688 3.61413V3.61413L15.9718 3.898ZM17.2576 4.6828L17.0525 4.90166L17.0537 4.9028L17.2576 4.6828ZM18.1813 6.10752L18.461 5.99906V5.99906L18.1813 6.10752ZM18.5254 8.89658V9.19658H18.8254V8.89658H18.5254ZM11.3777 8.89658H11.0777V9.19658H11.3777V8.89658ZM11.3777 7.66504V7.36504H11.0777V7.66504H11.3777ZM17.0765 7.66504V7.96504H17.3765V7.66504H17.0765ZM16.7626 6.26448L16.4943 6.39864L16.4953 6.40073L16.7626 6.26448ZM15.8812 5.29253L15.7217 5.54663L15.7229 5.54738L15.8812 5.29253ZM13.068 5.35894L13.2361 5.60742L13.2366 5.60706L13.068 5.35894ZM12.1202 6.44558L11.8514 6.31239V6.31239L12.1202 6.44558ZM12.1504 10.4843L11.8816 10.6176L11.883 10.6202L12.1504 10.4843ZM13.1706 11.5891L13.0195 11.8482L13.0213 11.8492L13.1706 11.5891ZM15.7001 11.8064L15.7984 12.0898L15.8005 12.0891L15.7001 11.8064ZM16.4909 11.3234L16.6991 11.5395L16.7011 11.5375L16.4909 11.3234ZM17.0041 10.5145L17.0852 10.2256L16.8199 10.1512L16.7232 10.4091L17.0041 10.5145ZM18.3805 10.9008L18.667 10.9898L18.7584 10.6953L18.4616 10.612L18.3805 10.9008ZM17.65 12.1324L17.8646 12.342L17.8658 12.3408L17.65 12.1324ZM16.3823 12.9534L16.4898 13.2335L16.4918 13.2327L16.3823 12.9534ZM14.6859 13.2432V12.9432C13.8376 12.9432 13.1229 12.7564 12.5297 12.3953L12.3738 12.6516L12.2178 12.9078C12.9205 13.3356 13.7473 13.5432 14.6859 13.5432V13.2432ZM12.3738 12.6516L12.5316 12.3964C11.938 12.0291 11.4784 11.5174 11.1519 10.853L10.8826 10.9854L10.6134 11.1177C10.9871 11.8781 11.5217 12.4771 12.2159 12.9067L12.3738 12.6516ZM10.8826 10.9854L11.1528 10.8548C10.8298 10.1863 10.6635 9.39934 10.6635 8.48607H10.3635H10.0635C10.0635 9.47241 10.2433 10.3516 10.6125 11.1159L10.8826 10.9854ZM10.3635 8.48607H10.6635C10.6635 7.5729 10.8297 6.78135 11.1533 6.10403L10.8826 5.9747L10.6119 5.84537C10.2433 6.61692 10.0635 7.49962 10.0635 8.48607H10.3635ZM10.8826 5.9747L11.153 6.10467C11.4815 5.42128 11.9334 4.89762 12.5074 4.52364L12.3436 4.27229L12.1798 4.02094C11.5061 4.45993 10.9841 5.07121 10.6122 5.84474L10.8826 5.9747ZM12.3436 4.27229L12.5077 4.52338C13.0812 4.14841 13.7552 3.95652 14.541 3.95652V3.65652V3.35652C13.6526 3.35652 12.8616 3.57515 12.1794 4.0212L12.3436 4.27229ZM14.541 3.65652V3.95652C14.99 3.95652 15.4341 4.03123 15.8747 4.18187L15.9718 3.898L16.0688 3.61413C15.5677 3.44279 15.058 3.35652 14.541 3.35652V3.65652ZM15.9718 3.898L15.8747 4.18187C16.3028 4.32822 16.6951 4.56663 17.0525 4.90166L17.2576 4.6828L17.4628 4.46394C17.0475 4.07454 16.5825 3.78975 16.0688 3.61413L15.9718 3.898ZM17.2576 4.6828L17.0537 4.9028C17.4005 5.22435 17.6853 5.65824 17.9016 6.21597L18.1813 6.10752L18.461 5.99906C18.2185 5.37355 17.8875 4.85763 17.4616 4.4628L17.2576 4.6828ZM18.1813 6.10752L17.9016 6.21597C18.1137 6.76293 18.2254 7.45208 18.2254 8.29288H18.5254H18.8254C18.8254 7.4031 18.7077 6.63534 18.461 5.99906L18.1813 6.10752ZM18.5254 8.29288H18.2254V8.89658H18.5254H18.8254V8.29288H18.5254ZM18.5254 8.89658V8.59658H11.3777V8.89658V9.19658H18.5254V8.89658ZM11.3777 8.89658H11.6777V7.66504H11.3777H11.0777V8.89658H11.3777ZM11.3777 7.66504V7.96504H17.0765V7.66504V7.36504H11.3777V7.66504ZM17.0765 7.66504H17.3765C17.3765 7.10094 17.2634 6.58634 17.0299 6.12822L16.7626 6.26448L16.4953 6.40073C16.6803 6.76364 16.7765 7.18274 16.7765 7.66504H17.0765ZM16.7626 6.26448L17.0309 6.13031C16.8014 5.6712 16.4699 5.30501 16.0395 5.03768L15.8812 5.29253L15.7229 5.54738C16.0572 5.75495 16.3133 6.03673 16.4943 6.39864L16.7626 6.26448ZM15.8812 5.29253L16.0407 5.03843C15.6076 4.76661 15.1038 4.63635 14.541 4.63635V4.93635V5.23635C15.0086 5.23635 15.3982 5.34354 15.7217 5.54663L15.8812 5.29253ZM14.541 4.93635V4.63635C13.9216 4.63635 13.37 4.79094 12.8994 5.11081L13.068 5.35894L13.2366 5.60706C13.595 5.36349 14.0255 5.23635 14.541 5.23635V4.93635ZM13.068 5.35894L12.8999 5.11045C12.4462 5.41741 12.0956 5.81945 11.8514 6.31239L12.1202 6.44558L12.389 6.57878C12.5875 6.17825 12.8688 5.85587 13.2361 5.60742L13.068 5.35894ZM12.1202 6.44558L11.8514 6.31239C11.609 6.80159 11.4882 7.32624 11.4882 7.88237H11.7882H12.0882C12.0882 7.41625 12.1887 6.98304 12.389 6.57878L12.1202 6.44558ZM11.7882 7.88237H11.4882V8.7034H11.7882H12.0882V7.88237H11.7882ZM11.7882 8.7034H11.4882C11.4882 9.43703 11.6146 10.079 11.8816 10.6176L12.1504 10.4843L12.4192 10.351C12.2033 9.91564 12.0882 9.37033 12.0882 8.7034H11.7882ZM12.1504 10.4843L11.883 10.6202C12.1525 11.1505 12.5312 11.5634 13.0195 11.8482L13.1706 11.5891L13.3218 11.3299C12.9408 11.1076 12.6393 10.784 12.4178 10.3483L12.1504 10.4843ZM13.1706 11.5891L13.0213 11.8492C13.5078 12.1285 14.0659 12.2633 14.6859 12.2633V11.9633V11.6633C14.1549 11.6633 13.7028 11.5486 13.32 11.3289L13.1706 11.5891ZM14.6859 11.9633V12.2633C15.088 12.2633 15.46 12.2071 15.7984 12.0898L15.7001 11.8064L15.6018 11.5229C15.3365 11.6149 15.0324 11.6633 14.6859 11.6633V11.9633ZM15.7001 11.8064L15.8005 12.0891C16.1444 11.9669 16.4453 11.784 16.6991 11.5394L16.4909 11.3234L16.2828 11.1074C16.0939 11.2894 15.8676 11.4285 15.5997 11.5237L15.7001 11.8064ZM16.4909 11.3234L16.7011 11.5375C16.9569 11.2863 17.1506 10.9783 17.285 10.6198L17.0041 10.5145L16.7232 10.4091C16.6161 10.6946 16.4677 10.9259 16.2808 11.1094L16.4909 11.3234ZM17.0041 10.5145L16.923 10.8033L18.2994 11.1897L18.3805 10.9008L18.4616 10.612L17.0852 10.2256L17.0041 10.5145ZM18.3805 10.9008L18.094 10.8119C17.9631 11.2336 17.744 11.6033 17.4343 11.924L17.65 12.1324L17.8658 12.3408C18.2403 11.9531 18.5081 11.5018 18.667 10.9898L18.3805 10.9008ZM17.65 12.1324L17.4355 11.9227C17.126 12.2394 16.7404 12.4908 16.2728 12.6741L16.3823 12.9534L16.4918 13.2327C17.0303 13.0216 17.4899 12.7256 17.8646 12.342L17.65 12.1324ZM16.3823 12.9534L16.2747 12.6733C15.8111 12.8514 15.2829 12.9432 14.6859 12.9432V13.2432V13.5432C15.3445 13.5432 15.9473 13.4418 16.4898 13.2335L16.3823 12.9534ZM20.6926 13.05H20.3926V13.35H20.6926V13.05ZM20.6926 3.77726V3.47726H20.3926V3.77726H20.6926ZM22.0691 3.77726H22.3691V3.47726H22.0691V3.77726ZM22.0691 5.17783H21.7691V5.47783H22.0691V5.17783ZM22.1657 5.17783V5.47783H22.3748L22.4472 5.28154L22.1657 5.17783ZM23.0833 4.061L22.9206 3.80894V3.80894L23.0833 4.061ZM25.329 3.65652H25.629V3.38503L25.3589 3.35801L25.329 3.65652ZM25.329 5.10538L25.2563 5.39643L25.629 5.48962V5.10538H25.329ZM24.997 5.05105L24.9476 5.34707L24.9555 5.34817L24.997 5.05105ZM23.2523 5.29253L23.3925 5.55774L23.3936 5.55715L23.2523 5.29253ZM22.4192 6.06526L22.1645 5.90682L22.1639 5.90768L22.4192 6.06526ZM22.1174 13.05V13.35H22.4174V13.05H22.1174ZM20.6926 13.05H20.9926V3.77726H20.6926H20.3926V13.05H20.6926ZM20.6926 3.77726V4.07726H22.0691V3.77726V3.47726H20.6926V3.77726ZM22.0691 3.77726H21.7691V5.17783H22.0691H22.3691V3.77726H22.0691ZM22.0691 5.17783V5.47783H22.1657V5.17783V4.87783H22.0691V5.17783ZM22.1657 5.17783L22.4472 5.28154C22.5919 4.8886 22.8534 4.56644 23.246 4.31305L23.0833 4.061L22.9206 3.80894C22.4277 4.12705 22.0775 4.54945 21.8842 5.07412L22.1657 5.17783ZM23.0833 4.061L23.246 4.31305C23.6375 4.06033 24.0795 3.93237 24.5804 3.93237V3.63237V3.33237C23.9706 3.33237 23.4145 3.49016 22.9206 3.80894L23.0833 4.061ZM24.5804 3.63237V3.93237C24.6816 3.93237 24.8096 3.93432 24.9651 3.93831L24.9728 3.63841L24.9805 3.33851C24.8221 3.33445 24.6886 3.33237 24.5804 3.33237V3.63237ZM24.9728 3.63841L24.9651 3.93831C25.1202 3.94229 25.23 3.94812 25.2992 3.95503L25.329 3.65652L25.3589 3.35801C25.267 3.34883 25.1394 3.34258 24.9805 3.33851L24.9728 3.63841ZM25.329 3.65652H25.029V5.10538H25.329H25.629V3.65652H25.329ZM25.329 5.10538L25.4018 4.81434C25.3349 4.79761 25.207 4.77745 25.0384 4.75393L24.997 5.05105L24.9555 5.34817C25.1331 5.37295 25.2266 5.38901 25.2563 5.39643L25.329 5.10538ZM24.997 5.05105L25.0463 4.75513C24.8594 4.72398 24.6637 4.70879 24.4597 4.70879V5.00879V5.30879C24.634 5.30879 24.7965 5.32178 24.9477 5.34697L24.997 5.05105ZM24.4597 5.00879V4.70879C23.9658 4.70879 23.5137 4.8128 23.111 5.02791L23.2523 5.29253L23.3936 5.55715C23.6992 5.39395 24.0521 5.30879 24.4597 5.30879V5.00879ZM23.2523 5.29253L23.1121 5.02732C22.7159 5.23678 22.3983 5.5308 22.1645 5.90682L22.4192 6.06526L22.674 6.2237C22.8506 5.93968 23.0884 5.71855 23.3925 5.55774L23.2523 5.29253ZM22.4192 6.06526L22.1639 5.90768C21.9308 6.28538 21.8174 6.71321 21.8174 7.18209H22.1174H22.4174C22.4174 6.81385 22.5052 6.49713 22.6745 6.22284L22.4192 6.06526ZM22.1174 7.18209H21.8174V13.05H22.1174H22.4174V7.18209H22.1174ZM22.1174 13.05V12.75H20.6926V13.05V13.35H22.1174V13.05ZM27.0178 13.05H26.7178V13.35H27.0178V13.05ZM27.0178 3.77726V3.47726H26.7178V3.77726H27.0178ZM28.3943 3.77726H28.6943V3.47726H28.3943V3.77726ZM28.3943 5.22612H28.0943V5.52612H28.3943V5.22612ZM28.515 5.22612V5.52612H28.72L28.7945 5.33519L28.515 5.22612ZM29.4507 4.07307L29.6116 4.32627L29.6133 4.32519L29.4507 4.07307ZM32.5296 4.07307L32.3603 4.3208L32.3632 4.32269L32.5296 4.07307ZM33.4894 5.22612L33.2172 5.35226L33.2978 5.52612H33.4894V5.22612ZM33.586 5.22612V5.52612H33.7721L33.8548 5.35938L33.586 5.22612ZM34.6546 4.08514L34.8076 4.34317L34.8092 4.3422L34.6546 4.08514ZM38.3975 4.43529L38.187 4.64904L38.1878 4.64986L38.3975 4.43529ZM39.1883 13.05V13.35H39.4883V13.05H39.1883ZM37.7636 13.05H37.4636V13.35H37.7636V13.05ZM37.2021 5.37705L37.0169 5.61303V5.61303L37.2021 5.37705ZM34.3648 5.52797L34.5858 5.73079L34.5869 5.72966L34.3648 5.52797ZM33.8275 13.05V13.35H34.1275V13.05H33.8275ZM32.3786 13.05H32.0786V13.35H32.3786V13.05ZM31.8655 5.42534L31.6585 5.64253L31.6599 5.6438L31.8655 5.42534ZM29.5051 5.23216L29.3484 4.97633L29.3469 4.97722L29.5051 5.23216ZM28.7323 6.05318L28.4709 5.90596L28.4704 5.90697L28.7323 6.05318ZM28.4426 13.05V13.35H28.7426V13.05H28.4426ZM27.0178 13.05H27.3178V3.77726H27.0178H26.7178V13.05H27.0178ZM27.0178 3.77726V4.07726H28.3943V3.77726V3.47726H27.0178V3.77726ZM28.3943 3.77726H28.0943V5.22612H28.3943H28.6943V3.77726H28.3943ZM28.3943 5.22612V5.52612H28.515V5.22612V4.92612H28.3943V5.22612ZM28.515 5.22612L28.7945 5.33519C28.9655 4.89695 29.2372 4.56424 29.6116 4.32627L29.4507 4.07307L29.2898 3.81987C28.803 4.12925 28.4509 4.56524 28.2355 5.11706L28.515 5.22612ZM29.4507 4.07307L29.6133 4.32519C29.9874 4.08397 30.4457 3.95652 31.0022 3.95652V3.65652V3.35652C30.3513 3.35652 29.7753 3.50677 29.2881 3.82095L29.4507 4.07307ZM31.0022 3.65652V3.95652C31.5683 3.95652 32.0146 4.08461 32.3603 4.32078L32.5296 4.07307L32.6988 3.82536C32.2315 3.50613 31.6596 3.35652 31.0022 3.35652V3.65652ZM32.5296 4.07307L32.3632 4.32269C32.7229 4.56254 33.0085 4.90188 33.2172 5.35226L33.4894 5.22612L33.7616 5.09999C33.5115 4.56032 33.1572 4.13095 32.696 3.82345L32.5296 4.07307ZM33.4894 5.22612V5.52612H33.586V5.22612V4.92612H33.4894V5.22612ZM33.586 5.22612L33.8548 5.35938C34.0657 4.93411 34.3808 4.59637 34.8076 4.34316L34.6546 4.08514L34.5015 3.82713C33.9785 4.13737 33.5813 4.56027 33.3172 5.09286L33.586 5.22612ZM34.6546 4.08514L34.8092 4.3422C35.2289 4.08966 35.7426 3.95652 36.363 3.95652V3.65652V3.35652C35.6553 3.35652 35.03 3.50913 34.4999 3.82809L34.6546 4.08514ZM36.363 3.65652V3.95652C37.1237 3.95652 37.7228 4.19199 38.187 4.64904L38.3975 4.43529L38.608 4.22153C38.0176 3.64023 37.2605 3.35652 36.363 3.35652V3.65652ZM38.3975 4.43529L38.1878 4.64986C38.6345 5.08632 38.8883 5.79549 38.8883 6.84402H39.1883H39.4883C39.4883 5.71121 39.2149 4.81455 38.6071 4.22071L38.3975 4.43529ZM39.1883 6.84402H38.8883V13.05H39.1883H39.4883V6.84402H39.1883ZM39.1883 13.05V12.75H37.7636V13.05V13.35H39.1883V13.05ZM37.7636 13.05H38.0636V6.84402H37.7636H37.4636V13.05H37.7636ZM37.7636 6.84402H38.0636C38.0636 6.10991 37.8618 5.51349 37.3874 5.14106L37.2021 5.37705L37.0169 5.61303C37.291 5.8282 37.4636 6.20977 37.4636 6.84402H37.7636ZM37.2021 5.37705L37.3874 5.14106C36.9567 4.80296 36.4496 4.63635 35.8801 4.63635V4.93635V5.23635C36.3247 5.23635 36.6991 5.36353 37.0169 5.61303L37.2021 5.37705ZM35.8801 4.93635V4.63635C35.1639 4.63635 34.5702 4.85557 34.1427 5.32628L34.3648 5.52797L34.5869 5.72966C34.8758 5.41154 35.2922 5.23635 35.8801 5.23635V4.93635ZM34.3648 5.52797L34.1437 5.32515C33.728 5.77826 33.5275 6.34893 33.5275 7.01306H33.8275H34.1275C34.1275 6.47784 34.2852 6.05846 34.5858 5.73079L34.3648 5.52797ZM33.8275 7.01306H33.5275V13.05H33.8275H34.1275V7.01306H33.8275ZM33.8275 13.05V12.75H32.3786V13.05V13.35H33.8275V13.05ZM32.3786 13.05H32.6786V6.69913H32.3786H32.0786V13.05H32.3786ZM32.3786 6.69913H32.6786C32.6786 6.10035 32.4811 5.59276 32.0711 5.20688L31.8655 5.42534L31.6599 5.6438C31.9341 5.90186 32.0786 6.24347 32.0786 6.69913H32.3786ZM31.8655 5.42534L32.0725 5.20816C31.6666 4.82142 31.148 4.63635 30.5434 4.63635V4.93635V5.23635C31.0174 5.23635 31.3802 5.37728 31.6585 5.64252L31.8655 5.42534ZM30.5434 4.93635V4.63635C30.1167 4.63635 29.7165 4.75084 29.3484 4.97633L29.5051 5.23216L29.6618 5.48799C29.9375 5.31907 30.2296 5.23635 30.5434 5.23635V4.93635ZM29.5051 5.23216L29.3469 4.97722C28.9829 5.20302 28.6911 5.51515 28.4709 5.90596L28.7323 6.05318L28.9937 6.20041C29.168 5.89093 29.3913 5.65571 29.6632 5.4871L29.5051 5.23216ZM28.7323 6.05318L28.4704 5.90697C28.2488 6.30401 28.1426 6.7562 28.1426 7.25453H28.4426H28.7426C28.7426 6.8433 28.8295 6.4946 28.9943 6.19939L28.7323 6.05318ZM28.4426 7.25453H28.1426V13.05H28.4426H28.7426V7.25453H28.4426ZM28.4426 13.05V12.75H27.0178V13.05V13.35H28.4426V13.05ZM41.7932 13.05H41.4932V13.35H41.7932V13.05ZM41.7932 3.77726V3.47726H41.4932V3.77726H41.7932ZM43.218 3.77726H43.518V3.47726H43.218V3.77726ZM43.218 13.05V13.35H43.518V13.05H43.218ZM41.7993 1.94807L41.5916 2.16459L41.5938 2.16666L41.7993 1.94807ZM41.7993 0.583723L41.5938 0.365124L41.5916 0.367219L41.7993 0.583723ZM43.23 0.583723L43.0223 0.800239L43.0246 0.802311L43.23 0.583723ZM43.23 1.94807L43.0245 1.72947L43.0224 1.73157L43.23 1.94807ZM41.7932 13.05H42.0932V3.77726H41.7932H41.4932V13.05H41.7932ZM41.7932 3.77726V4.07726H43.218V3.77726V3.47726H41.7932V3.77726ZM43.218 3.77726H42.9179V13.05H43.218H43.518V3.77726H43.218ZM43.218 13.05V12.75H41.7932V13.05V13.35H43.218V13.05ZM42.5177 2.23181V1.93181C42.3159 1.93181 42.15 1.86602 42.0047 1.72948L41.7993 1.94807L41.5938 2.16666C41.851 2.40843 42.1641 2.53181 42.5177 2.53181V2.23181ZM41.7993 1.94807L42.0069 1.73157C41.8668 1.59715 41.8035 1.44718 41.8035 1.2659H41.5035H41.2035C41.2035 1.61586 41.3373 1.92067 41.5916 2.16457L41.7993 1.94807ZM41.5035 1.2659H41.8035C41.8035 1.08461 41.8668 0.934639 42.0069 0.800227L41.7993 0.583723L41.5916 0.367219C41.3373 0.611122 41.2035 0.915931 41.2035 1.2659H41.5035ZM41.7993 0.583723L42.0047 0.802312C42.15 0.665771 42.3159 0.599988 42.5177 0.599988V0.299988V-1.23978e-05C42.1641 -1.23978e-05 41.851 0.123361 41.5938 0.365134L41.7993 0.583723ZM42.5177 0.299988V0.599988C42.7194 0.599988 42.882 0.665613 43.0224 0.800228L43.23 0.583723L43.4377 0.367219C43.1836 0.123519 42.8714 -1.23978e-05 42.5177 -1.23978e-05V0.299988ZM43.23 0.583723L43.0246 0.802311C43.1682 0.937307 43.2319 1.08669 43.2319 1.2659H43.5319H43.8319C43.8319 0.913853 43.6943 0.608454 43.4355 0.365135L43.23 0.583723ZM43.5319 1.2659H43.2319C43.2319 1.4451 43.1682 1.59449 43.0246 1.72948L43.23 1.94807L43.4355 2.16666C43.6943 1.92334 43.8319 1.61794 43.8319 1.2659H43.5319ZM43.23 1.94807L43.0224 1.73157C42.882 1.86618 42.7194 1.93181 42.5177 1.93181V2.23181V2.53181C42.8714 2.53181 43.1836 2.40827 43.4377 2.16457L43.23 1.94807ZM52.3956 5.85396L52.4773 6.14263L52.7801 6.05693L52.68 5.75858L52.3956 5.85396ZM51.1158 6.21618L50.8351 6.3221L50.9324 6.57987L51.1975 6.50484L51.1158 6.21618ZM50.7596 5.59438L50.519 5.77366L50.523 5.77889L50.7596 5.59438ZM50.1317 5.08727L50.2659 4.81895V4.81895L50.1317 5.08727ZM47.6928 5.28046L47.8629 5.52759L47.8635 5.52721L47.6928 5.28046ZM47.5178 7.10361L47.3308 7.33823V7.33823L47.5178 7.10361ZM48.7251 7.61675L48.6524 7.90779L48.6536 7.90809L48.7251 7.61675ZM50.1016 7.95482L50.03 8.24616L50.0308 8.24635L50.1016 7.95482ZM51.9549 8.87847L51.7407 9.08851L51.7417 9.08955L51.9549 8.87847ZM52.1058 11.8909L51.8636 11.7139L51.8625 11.7154L52.1058 11.8909ZM46.5941 12.6274L46.7598 12.3773V12.3773L46.5941 12.6274ZM45.4169 10.8284L45.3441 10.5374L45.0642 10.6073L45.1233 10.8898L45.4169 10.8284ZM46.7692 10.4903L47.0597 10.4154L46.9853 10.1271L46.6964 10.1993L46.7692 10.4903ZM47.4996 11.6132L47.3282 11.8594L47.3295 11.8603L47.4996 11.6132ZM50.5 11.5649L50.6756 11.8082L50.676 11.8078L50.5 11.5649ZM50.7536 9.72968L50.5433 9.94372L50.5453 9.94563L50.7536 9.72968ZM49.7152 9.23465L49.6467 9.52673L49.6472 9.52684L49.7152 9.23465ZM48.1697 8.87243L48.1006 9.16435L48.1013 9.16452L48.1697 8.87243ZM46.2983 7.93671L46.078 8.14037L46.08 8.14251L46.2983 7.93671ZM46.1474 4.94843L45.9062 4.76997L45.9051 4.77154L46.1474 4.94843ZM47.3608 4.00063L47.2388 3.72657L47.238 3.72693L47.3608 4.00063ZM51.2727 4.26021L51.0898 4.498L51.0907 4.49868L51.2727 4.26021ZM52.3956 5.85396L52.3139 5.5653L51.0341 5.92752L51.1158 6.21618L51.1975 6.50484L52.4773 6.14263L52.3956 5.85396ZM51.1158 6.21618L51.3964 6.11026C51.3041 5.86554 51.1695 5.63212 50.9961 5.40987L50.7596 5.59438L50.523 5.77889C50.6636 5.9591 50.7664 6.14021 50.8351 6.3221L51.1158 6.21618ZM50.7596 5.59438L51.0002 5.41513C50.815 5.16668 50.5668 4.96937 50.2659 4.81895L50.1317 5.08727L49.9976 5.3556C50.228 5.47081 50.3983 5.61156 50.519 5.77362L50.7596 5.59438ZM50.1317 5.08727L50.2659 4.81895C49.9455 4.65873 49.5553 4.58806 49.1115 4.58806V4.88806V5.18806C49.4968 5.18806 49.7868 5.25019 49.9976 5.3556L50.1317 5.08727ZM49.1115 4.88806V4.58806C48.4975 4.58806 47.9613 4.73006 47.5222 5.0337L47.6928 5.28046L47.8635 5.52721C48.181 5.30765 48.5906 5.18806 49.1115 5.18806V4.88806ZM47.6928 5.28046L47.5228 5.03332C47.0804 5.33776 46.8314 5.75224 46.8314 6.26448H47.1314H47.4314C47.4314 5.97984 47.5567 5.73831 47.8629 5.52759L47.6928 5.28046ZM47.1314 6.26448H46.8314C46.8314 6.70207 46.9958 7.0713 47.3308 7.33823L47.5178 7.10361L47.7047 6.86899C47.5245 6.72541 47.4314 6.53521 47.4314 6.26448H47.1314ZM47.5178 7.10361L47.3308 7.33823C47.6378 7.58288 48.089 7.76694 48.6524 7.90779L48.7251 7.61675L48.7979 7.32571C48.2666 7.19288 47.9129 7.03485 47.7047 6.86899L47.5178 7.10361ZM48.7251 7.61675L48.6536 7.90809L50.03 8.24616L50.1016 7.95482L50.1731 7.66348L48.7967 7.32541L48.7251 7.61675ZM50.1016 7.95482L50.0308 8.24635C50.8294 8.44019 51.3878 8.7286 51.7407 9.08851L51.9549 8.87847L52.1691 8.66843C51.709 8.19926 51.0319 7.87191 50.1723 7.66328L50.1016 7.95482ZM51.9549 8.87847L51.7417 9.08955C52.0856 9.43685 52.2646 9.88678 52.2646 10.4662H52.5646H52.8646C52.8646 9.74965 52.6372 9.1411 52.1681 8.66738L51.9549 8.87847ZM52.5646 10.4662H52.2646C52.2646 10.9355 52.1309 11.3481 51.8636 11.7139L52.1058 11.8909L52.348 12.0679C52.6924 11.5966 52.8646 11.0594 52.8646 10.4662H52.5646ZM52.1058 11.8909L51.8625 11.7154C51.5962 12.0847 51.2185 12.3836 50.7162 12.6068L50.8381 12.881L50.9599 13.1551C51.5443 12.8954 52.0118 12.5342 52.3492 12.0664L52.1058 11.8909ZM50.8381 12.881L50.7162 12.6068C50.2185 12.828 49.6296 12.9432 48.9425 12.9432V13.2432V13.5432C49.6962 13.5432 50.371 13.4168 50.9599 13.1551L50.8381 12.881ZM48.9425 13.2432V12.9432C48.0396 12.9432 47.3186 12.7474 46.7598 12.3773L46.5941 12.6274L46.4284 12.8775C47.1092 13.3284 47.9537 13.5432 48.9425 13.5432V13.2432ZM46.5941 12.6274L46.7598 12.3773C46.2117 12.0143 45.8609 11.4857 45.7105 10.767L45.4169 10.8284L45.1233 10.8898C45.3029 11.7488 45.737 12.4195 46.4284 12.8775L46.5941 12.6274ZM45.4169 10.8284L45.4897 11.1194L46.8419 10.7814L46.7692 10.4903L46.6964 10.1993L45.3441 10.5374L45.4169 10.8284ZM46.7692 10.4903L46.4787 10.5653C46.622 11.1206 46.9008 11.5617 47.3282 11.8594L47.4996 11.6132L47.6711 11.367C47.3821 11.1657 47.1739 10.8582 47.0597 10.4154L46.7692 10.4903ZM47.4996 11.6132L47.3295 11.8603C47.7557 12.1539 48.2935 12.2875 48.9183 12.2875V11.9875V11.6875C48.376 11.6875 47.968 11.5715 47.6698 11.3661L47.4996 11.6132ZM48.9183 11.9875V12.2875C49.6221 12.2875 50.2179 12.1384 50.6756 11.8082L50.5 11.5649L50.3244 11.3216C50.0013 11.5548 49.5427 11.6875 48.9183 11.6875V11.9875ZM50.5 11.5649L50.676 11.8078C51.1288 11.4798 51.3916 11.055 51.3916 10.5386H51.0916H50.7916C50.7916 10.8191 50.66 11.0785 50.324 11.322L50.5 11.5649ZM51.0916 10.5386H51.3916C51.3916 10.1378 51.2477 9.78937 50.9618 9.51372L50.7536 9.72968L50.5453 9.94563C50.7102 10.1046 50.7916 10.2955 50.7916 10.5386H51.0916ZM50.7536 9.72968L50.9638 9.51564C50.6837 9.24061 50.278 9.05763 49.7832 8.94246L49.7152 9.23465L49.6472 9.52684C50.0861 9.62899 50.3726 9.77603 50.5433 9.94371L50.7536 9.72968ZM49.7152 9.23465L49.7837 8.94256L48.2382 8.58035L48.1697 8.87243L48.1013 9.16452L49.6467 9.52673L49.7152 9.23465ZM48.1697 8.87243L48.2389 8.58051C47.4199 8.38644 46.8593 8.09442 46.5166 7.7309L46.2983 7.93671L46.08 8.14251C46.5342 8.62417 47.2212 8.95596 48.1006 9.16435L48.1697 8.87243ZM46.2983 7.93671L46.5186 7.73305C46.1808 7.36769 46.0067 6.90964 46.0067 6.33692H45.7067H45.4067C45.4067 7.04402 45.627 7.6525 46.078 8.14036L46.2983 7.93671ZM45.7067 6.33692H46.0067C46.0067 5.87392 46.1353 5.47374 46.3897 5.12531L46.1474 4.94843L45.9051 4.77154C45.5718 5.22803 45.4067 5.75352 45.4067 6.33692H45.7067ZM46.1474 4.94843L46.3885 5.12688C46.6522 4.77053 47.0138 4.48521 47.4836 4.27432L47.3608 4.00063L47.238 3.72693C46.6856 3.97485 46.2382 4.32139 45.9062 4.76997L46.1474 4.94843ZM47.3608 4.00063L47.4828 4.27468C47.954 4.06485 48.495 3.95652 49.1115 3.95652V3.65652V3.35652C48.424 3.35652 47.7979 3.47759 47.2388 3.72657L47.3608 4.00063ZM49.1115 3.65652V3.95652C49.9883 3.95652 50.6361 4.149 51.0898 4.498L51.2727 4.26021L51.4556 4.02243C50.8629 3.56651 50.07 3.35652 49.1115 3.35652V3.65652ZM51.2727 4.26021L51.0907 4.49868C51.5678 4.86289 51.9079 5.34319 52.1112 5.94935L52.3956 5.85396L52.68 5.75858C52.4406 5.04466 52.0321 4.46246 51.4548 4.02175L51.2727 4.26021ZM61.2774 5.85396L61.3591 6.14263L61.6619 6.05693L61.5619 5.75858L61.2774 5.85396ZM59.9976 6.21618L59.7169 6.3221L59.8142 6.57987L60.0793 6.50484L59.9976 6.21618ZM59.6414 5.59438L59.4008 5.77366L59.4049 5.77889L59.6414 5.59438ZM59.0136 5.08727L59.1477 4.81895V4.81895L59.0136 5.08727ZM56.5747 5.28046L56.7447 5.52759L56.7453 5.52721L56.5747 5.28046ZM56.3996 7.10361L56.2126 7.33823V7.33823L56.3996 7.10361ZM57.607 7.61675L57.5342 7.90779L57.5354 7.90809L57.607 7.61675ZM58.9834 7.95482L58.9118 8.24616L58.9126 8.24635L58.9834 7.95482ZM60.8367 8.87847L60.6225 9.08851L60.6236 9.08955L60.8367 8.87847ZM60.9877 11.8909L60.7454 11.7139L60.7443 11.7154L60.9877 11.8909ZM55.4759 12.6274L55.6416 12.3773V12.3773L55.4759 12.6274ZM54.2987 10.8284L54.226 10.5374L53.946 10.6073L54.0051 10.8898L54.2987 10.8284ZM55.651 10.4903L55.9415 10.4154L55.8671 10.1271L55.5783 10.1993L55.651 10.4903ZM56.3815 11.6132L56.21 11.8594L56.2113 11.8603L56.3815 11.6132ZM59.3818 11.5649L59.5574 11.8082L59.5578 11.8078L59.3818 11.5649ZM59.6354 9.72968L59.4252 9.94372L59.4271 9.94563L59.6354 9.72968ZM58.597 9.23465L58.5286 9.52673L58.529 9.52684L58.597 9.23465ZM57.0516 8.87243L56.9824 9.16435L56.9831 9.16452L57.0516 8.87243ZM55.1801 7.93671L54.9598 8.14037L54.9619 8.14251L55.1801 7.93671ZM55.0292 4.94843L54.7881 4.76997L54.7869 4.77154L55.0292 4.94843ZM56.2426 4.00063L56.1206 3.72657L56.1198 3.72693L56.2426 4.00063ZM60.1546 4.26021L59.9716 4.498L59.9725 4.49868L60.1546 4.26021ZM61.2774 5.85396L61.1957 5.5653L59.9159 5.92752L59.9976 6.21618L60.0793 6.50484L61.3591 6.14263L61.2774 5.85396ZM59.9976 6.21618L60.2783 6.11026C60.1859 5.86554 60.0513 5.63212 59.878 5.40987L59.6414 5.59438L59.4049 5.77889C59.5454 5.9591 59.6483 6.14021 59.7169 6.3221L59.9976 6.21618ZM59.6414 5.59438L59.882 5.41513C59.6969 5.16668 59.4486 4.96937 59.1477 4.81895L59.0136 5.08727L58.8794 5.3556C59.1098 5.47081 59.2801 5.61156 59.4009 5.77362L59.6414 5.59438ZM59.0136 5.08727L59.1477 4.81895C58.8273 4.65873 58.4371 4.58806 57.9933 4.58806V4.88806V5.18806C58.3786 5.18806 58.6686 5.25019 58.8794 5.3556L59.0136 5.08727ZM57.9933 4.88806V4.58806C57.3793 4.58806 56.8432 4.73006 56.404 5.0337L56.5747 5.28046L56.7453 5.52721C57.0628 5.30765 57.4724 5.18806 57.9933 5.18806V4.88806ZM56.5747 5.28046L56.4046 5.03332C55.9622 5.33776 55.7132 5.75224 55.7132 6.26448H56.0132H56.3132C56.3132 5.97984 56.4385 5.73831 56.7447 5.52759L56.5747 5.28046ZM56.0132 6.26448H55.7132C55.7132 6.70207 55.8777 7.0713 56.2126 7.33823L56.3996 7.10361L56.5866 6.86899C56.4064 6.72541 56.3132 6.53521 56.3132 6.26448H56.0132ZM56.3996 7.10361L56.2126 7.33823C56.5196 7.58288 56.9708 7.76694 57.5342 7.90779L57.607 7.61675L57.6797 7.32571C57.1484 7.19288 56.7947 7.03485 56.5866 6.86899L56.3996 7.10361ZM57.607 7.61675L57.5354 7.90809L58.9118 8.24616L58.9834 7.95482L59.055 7.66348L57.6785 7.32541L57.607 7.61675ZM58.9834 7.95482L58.9126 8.24635C59.7113 8.44019 60.2696 8.7286 60.6225 9.08851L60.8367 8.87847L61.0509 8.66843C60.5909 8.19926 59.9137 7.87191 59.0542 7.66328L58.9834 7.95482ZM60.8367 8.87847L60.6236 9.08955C60.9675 9.43685 61.1465 9.88678 61.1465 10.4662H61.4465H61.7465C61.7465 9.74965 61.519 9.1411 61.0499 8.66738L60.8367 8.87847ZM61.4465 10.4662H61.1465C61.1465 10.9355 61.0128 11.3481 60.7454 11.7139L60.9877 11.8909L61.2299 12.0679C61.5743 11.5966 61.7465 11.0594 61.7465 10.4662H61.4465ZM60.9877 11.8909L60.7443 11.7154C60.478 12.0847 60.1004 12.3836 59.5981 12.6068L59.7199 12.881L59.8417 13.1551C60.4261 12.8954 60.8936 12.5342 61.231 12.0664L60.9877 11.8909ZM59.7199 12.881L59.5981 12.6068C59.1003 12.828 58.5114 12.9432 57.8243 12.9432V13.2432V13.5432C58.578 13.5432 59.2528 13.4168 59.8417 13.1551L59.7199 12.881ZM57.8243 13.2432V12.9432C56.9215 12.9432 56.2005 12.7474 55.6416 12.3773L55.4759 12.6274L55.3103 12.8775C55.991 13.3284 56.8356 13.5432 57.8243 13.5432V13.2432ZM55.4759 12.6274L55.6416 12.3773C55.0935 12.0143 54.7427 11.4857 54.5924 10.767L54.2987 10.8284L54.0051 10.8898C54.1848 11.7488 54.6188 12.4195 55.3103 12.8775L55.4759 12.6274ZM54.2987 10.8284L54.3715 11.1194L55.7238 10.7814L55.651 10.4903L55.5783 10.1993L54.226 10.5374L54.2987 10.8284ZM55.651 10.4903L55.3605 10.5653C55.5038 11.1206 55.7827 11.5617 56.21 11.8594L56.3815 11.6132L56.553 11.367C56.2639 11.1657 56.0558 10.8582 55.9415 10.4154L55.651 10.4903ZM56.3815 11.6132L56.2113 11.8603C56.6376 12.1539 57.1754 12.2875 57.8002 12.2875V11.9875V11.6875C57.2578 11.6875 56.8498 11.5715 56.5517 11.3661L56.3815 11.6132ZM57.8002 11.9875V12.2875C58.5039 12.2875 59.0998 12.1384 59.5574 11.8082L59.3818 11.5649L59.2063 11.3216C58.8831 11.5548 58.4245 11.6875 57.8002 11.6875V11.9875ZM59.3818 11.5649L59.5578 11.8078C60.0107 11.4798 60.2735 11.055 60.2735 10.5386H59.9735H59.6735C59.6735 10.8191 59.5418 11.0785 59.2058 11.322L59.3818 11.5649ZM59.9735 10.5386H60.2735C60.2735 10.1378 60.1295 9.78937 59.8436 9.51372L59.6354 9.72968L59.4271 9.94563C59.592 10.1046 59.6735 10.2955 59.6735 10.5386H59.9735ZM59.6354 9.72968L59.8456 9.51564C59.5656 9.24061 59.1599 9.05763 58.665 8.94246L58.597 9.23465L58.529 9.52684C58.9679 9.62899 59.2544 9.77603 59.4252 9.94371L59.6354 9.72968ZM58.597 9.23465L58.6655 8.94256L57.12 8.58035L57.0516 8.87243L56.9831 9.16452L58.5286 9.52673L58.597 9.23465ZM57.0516 8.87243L57.1208 8.58051C56.3018 8.38644 55.7411 8.09442 55.3984 7.7309L55.1801 7.93671L54.9619 8.14251C55.416 8.62417 56.103 8.95596 56.9824 9.16435L57.0516 8.87243ZM55.1801 7.93671L55.4004 7.73305C55.0626 7.36769 54.8885 6.90964 54.8885 6.33692H54.5885H54.2885C54.2885 7.04402 54.5088 7.6525 54.9599 8.14036L55.1801 7.93671ZM54.5885 6.33692H54.8885C54.8885 5.87392 55.0172 5.47374 55.2715 5.12531L55.0292 4.94843L54.7869 4.77154C54.4537 5.22803 54.2885 5.75352 54.2885 6.33692H54.5885ZM55.0292 4.94843L55.2704 5.12688C55.5341 4.77053 55.8956 4.48521 56.3655 4.27432L56.2426 4.00063L56.1198 3.72693C55.5674 3.97485 55.12 4.32139 54.7881 4.76997L55.0292 4.94843ZM56.2426 4.00063L56.3647 4.27468C56.8359 4.06485 57.3769 3.95652 57.9933 3.95652V3.65652V3.35652C57.3058 3.35652 56.6797 3.47759 56.1206 3.72657L56.2426 4.00063ZM57.9933 3.65652V3.95652C58.8701 3.95652 59.5179 4.149 59.9716 4.498L60.1546 4.26021L60.3375 4.02243C59.7448 3.56651 58.9518 3.35652 57.9933 3.35652V3.65652ZM60.1546 4.26021L59.9725 4.49868C60.4497 4.86289 60.7897 5.34319 60.993 5.94935L61.2774 5.85396L61.5619 5.75858C61.3224 5.04466 60.9139 4.46246 60.3366 4.02175L60.1546 4.26021ZM64.72 12.9353L64.5923 13.2067L64.5941 13.2076L64.72 12.9353ZM63.579 11.9633L63.3287 12.1287L63.3294 12.1297L63.579 11.9633ZM63.4703 9.12598L63.7237 9.28665L63.7246 9.28526L63.4703 9.12598ZM65.4686 7.9186L65.5328 8.21165L65.5348 8.21119L65.4686 7.9186ZM66.7544 7.68919L66.7162 7.39164L66.7155 7.39173L66.7544 7.68919ZM68.1248 7.52619L68.1557 7.82462L68.1587 7.82428L68.1248 7.52619ZM68.8976 7.32698L68.7508 7.06532L68.748 7.0669L68.8976 7.32698ZM68.6561 5.40723L68.4413 5.61673L68.4426 5.61806L68.6561 5.40723ZM65.5893 5.35894L65.7725 5.59654V5.59654L65.5893 5.35894ZM64.7743 6.31277L64.6734 6.59529L64.9312 6.68735L65.0464 6.43911L64.7743 6.31277ZM63.4221 5.82982L63.1463 5.71164L63.0206 6.00499L63.3212 6.11234L63.4221 5.82982ZM64.388 4.51377L64.5725 4.75032L64.5728 4.75007L64.388 4.51377ZM65.7161 3.8497L65.7917 4.14002L65.7934 4.13957L65.7161 3.8497ZM68.1671 3.76519L68.1118 4.06007L68.1153 4.06068L68.1671 3.76519ZM69.296 4.19381L69.1416 4.45106L69.1429 4.4518L69.296 4.19381ZM70.2076 5.17783L69.9447 5.3225V5.3225L70.2076 5.17783ZM70.5698 13.05V13.35H70.8698V13.05H70.5698ZM69.1451 13.05H68.8451V13.35H69.1451V13.05ZM69.1451 11.7943H69.4451V11.4943H69.1451V11.7943ZM69.0726 11.7943V11.4943H68.8839L68.8022 11.6645L69.0726 11.7943ZM68.5897 12.4403L68.8037 12.6505V12.6505L68.5897 12.4403ZM67.6902 13.0258L67.5716 12.7502V12.7502L67.6902 13.0258ZM67.9618 11.6555L67.8139 11.3945L67.8127 11.3952L67.9618 11.6555ZM68.8432 10.7982L68.5831 10.6487L68.5818 10.651L68.8432 10.7982ZM69.1451 8.38948H69.4451V7.56086L68.9146 8.19742L69.1451 8.38948ZM68.7466 8.58869L68.8275 8.87761L68.8313 8.8765L68.7466 8.58869ZM68.0463 8.73962L68.092 9.03615L68.0957 9.03554L68.0463 8.73962ZM67.2797 8.84828L67.3139 9.14636L67.318 9.14582L67.2797 8.84828ZM66.682 8.92073L66.7208 9.21821L66.7211 9.21816L66.682 8.92073ZM65.6436 9.15617L65.7374 9.44114L65.7396 9.44041L65.6436 9.15617ZM64.8709 9.63308L64.6506 9.42943L64.6505 9.4296L64.8709 9.63308ZM65.1305 11.6132L64.9597 11.8599L64.9628 11.862L65.1305 11.6132ZM65.378 2.66646L65.365 2.96618L65.678 2.97979V2.66646H65.378ZM64.2672 2.61817H63.9672V2.90541L64.2542 2.91789L64.2672 2.61817ZM64.7924 1.10894L64.5692 0.908498L64.5691 0.908628L64.7924 1.10894ZM66.7122 0.638055L66.588 0.911215L66.5932 0.913474L66.7122 0.638055ZM67.2193 0.90368L67.3783 0.649281V0.649281L67.2193 0.90368ZM67.7143 1.17534L67.5853 1.44631L67.5931 1.44975L67.7143 1.17534ZM68.8794 1.02442L68.6552 0.82511L68.6549 0.825427L68.8794 1.02442ZM69.1209 0.37243L69.1475 0.0736084L68.8209 0.0445805V0.37243H69.1209ZM70.2076 0.469022H70.5076V0.194506L70.2341 0.1702L70.2076 0.469022ZM69.6763 1.96618L69.4595 1.75881L69.4583 1.76005L69.6763 1.96618ZM67.6841 2.40688L67.5623 2.68107L67.5674 2.68325L67.6841 2.40688ZM67.2012 2.13521L67.3755 1.89109V1.89109L67.2012 2.13521ZM66.7544 1.86959L66.6175 2.13659L66.623 2.13929L66.7544 1.86959ZM65.6014 2.02051L65.3722 1.82696L65.3718 1.82743L65.6014 2.02051ZM66.3198 13.2673V12.9673C65.7707 12.9673 65.2811 12.8641 64.8459 12.663L64.72 12.9353L64.5941 13.2076C65.1168 13.4492 65.6937 13.5673 66.3198 13.5673V13.2673ZM64.72 12.9353L64.8477 12.6638C64.4161 12.4607 64.0787 12.1721 63.8286 11.7969L63.579 11.9633L63.3294 12.1297C63.6427 12.5998 64.0661 12.9591 64.5923 13.2067L64.72 12.9353ZM63.579 11.9633L63.8294 11.798C63.5855 11.4288 63.4564 10.9736 63.4564 10.4179H63.1564H62.8564C62.8564 11.0695 63.0091 11.6447 63.3287 12.1287L63.579 11.9633ZM63.1564 10.4179H63.4564C63.4564 9.92372 63.554 9.55426 63.7237 9.28664L63.4703 9.12598L63.217 8.96532C62.9681 9.35775 62.8564 9.84955 62.8564 10.4179H63.1564ZM63.4703 9.12598L63.7246 9.28526C63.906 8.99561 64.1471 8.76988 64.4521 8.60513L64.3095 8.34118L64.1669 8.07723C63.7716 8.2908 63.4532 8.58827 63.2161 8.96671L63.4703 9.12598ZM64.3095 8.34118L64.4521 8.60513C64.7755 8.43039 65.1352 8.29874 65.5328 8.21165L65.4686 7.9186L65.4044 7.62554C64.9568 7.72359 64.5437 7.87366 64.1669 8.07723L64.3095 8.34118ZM65.4686 7.9186L65.5348 8.21119C65.9525 8.11663 66.372 8.04179 66.7934 7.98666L66.7544 7.68919L66.7155 7.39173C66.2756 7.44928 65.8379 7.52738 65.4023 7.626L65.4686 7.9186ZM66.7544 7.68919L66.7927 7.98674C67.355 7.91445 67.809 7.86046 68.1557 7.8246L68.1248 7.52619L68.094 7.22779C67.7403 7.26437 67.2808 7.31905 66.7162 7.39164L66.7544 7.68919ZM68.1248 7.52619L68.1587 7.82428C68.523 7.78288 68.8311 7.71123 69.0471 7.58705L68.8976 7.32698L68.748 7.0669C68.642 7.12785 68.435 7.18902 68.091 7.22811L68.1248 7.52619ZM68.8976 7.32698L69.0443 7.58862C69.3256 7.43084 69.4451 7.15465 69.4451 6.84402H69.1451H68.8451C68.8451 6.9922 68.7995 7.03798 68.7508 7.06533L68.8976 7.32698ZM69.1451 6.84402H69.4451V6.79573H69.1451H68.8451V6.84402H69.1451ZM69.1451 6.79573H69.4451C69.4451 6.14458 69.2655 5.59729 68.8695 5.19641L68.6561 5.40723L68.4426 5.61806C68.6986 5.87721 68.8451 6.25559 68.8451 6.79573H69.1451ZM68.6561 5.40723L68.8708 5.19773C68.4721 4.78904 67.8913 4.6122 67.1891 4.6122V4.9122V5.2122C67.7989 5.2122 68.1961 5.36539 68.4413 5.61673L68.6561 5.40723ZM67.1891 4.9122V4.6122C66.4683 4.6122 65.8622 4.76979 65.4062 5.12133L65.5893 5.35894L65.7725 5.59654C66.0891 5.35244 66.5496 5.2122 67.1891 5.2122V4.9122ZM65.5893 5.35894L65.4062 5.12133C64.993 5.4398 64.6848 5.79329 64.5022 6.18644L64.7743 6.31277L65.0464 6.43911C65.1778 6.15612 65.4129 5.87371 65.7725 5.59654L65.5893 5.35894ZM64.7743 6.31277L64.8752 6.03025L63.523 5.54729L63.4221 5.82982L63.3212 6.11234L64.6734 6.59529L64.7743 6.31277ZM63.4221 5.82982L63.6978 5.94799C63.9233 5.42175 64.2172 5.02741 64.5725 4.75032L64.388 4.51377L64.2035 4.27722C63.7538 4.62796 63.4037 5.11099 63.1463 5.71164L63.4221 5.82982ZM64.388 4.51377L64.5728 4.75007C64.9484 4.4563 65.3542 4.25399 65.7917 4.14001L65.7161 3.8497L65.6405 3.55939C65.1201 3.69494 64.6405 3.93534 64.2031 4.27746L64.388 4.51377ZM65.7161 3.8497L65.7934 4.13957C66.2529 4.01704 66.7018 3.95652 67.1408 3.95652V3.65652V3.35652C66.6461 3.35652 66.1452 3.42479 65.6388 3.55983L65.7161 3.8497ZM67.1408 3.65652V3.95652C67.4153 3.95652 67.7383 3.99001 68.1118 4.06005L68.1671 3.76519L68.2224 3.47032C67.8232 3.39548 67.462 3.35652 67.1408 3.35652V3.65652ZM68.1671 3.76519L68.1153 4.06068C68.4671 4.12234 68.8089 4.2514 69.1416 4.45106L69.296 4.19381L69.4503 3.93656C69.0587 3.70156 68.6478 3.54487 68.2189 3.46969L68.1671 3.76519ZM69.296 4.19381L69.1429 4.4518C69.4556 4.63735 69.7245 4.92238 69.9447 5.3225L70.2076 5.17783L70.4704 5.03316C70.2077 4.55591 69.8689 4.18493 69.4491 3.93581L69.296 4.19381ZM70.2076 5.17783L69.9447 5.3225C70.153 5.70085 70.2698 6.23257 70.2698 6.94061H70.5698H70.8698C70.8698 6.17565 70.7451 5.53218 70.4704 5.03316L70.2076 5.17783ZM70.5698 6.94061H70.2698V13.05H70.5698H70.8698V6.94061H70.5698ZM70.5698 13.05V12.75H69.1451V13.05V13.35H70.5698V13.05ZM69.1451 13.05H69.4451V11.7943H69.1451H68.8451V13.05H69.1451ZM69.1451 11.7943V11.4943H69.0726V11.7943V12.0943H69.1451V11.7943ZM69.0726 11.7943L68.8022 11.6645C68.7246 11.826 68.5872 12.0147 68.3757 12.23L68.5897 12.4403L68.8037 12.6505C69.0429 12.407 69.2274 12.1651 69.3431 11.9241L69.0726 11.7943ZM68.5897 12.4403L68.3757 12.23C68.1838 12.4253 67.9193 12.6007 67.5716 12.7502L67.6902 13.0258L67.8087 13.3014C68.2096 13.129 68.5448 12.914 68.8037 12.6505L68.5897 12.4403ZM67.6902 13.0258L67.5716 12.7502C67.2448 12.8908 66.8308 12.9673 66.3198 12.9673V13.2673V13.5673C66.8873 13.5673 67.387 13.4828 67.8087 13.3014L67.6902 13.0258ZM66.5371 11.9875V12.2875C67.1392 12.2875 67.6687 12.1692 68.111 11.9158L67.9618 11.6555L67.8127 11.3952C67.4823 11.5845 67.0619 11.6875 66.5371 11.6875V11.9875ZM67.9618 11.6555L68.1098 11.9164C68.5419 11.6714 68.8776 11.3485 69.1046 10.9454L68.8432 10.7982L68.5818 10.651C68.4144 10.9482 68.1625 11.1968 67.8139 11.3945L67.9618 11.6555ZM68.8432 10.7982L69.1033 10.9477C69.3295 10.5542 69.4451 10.1347 69.4451 9.69345H69.1451H68.8451C68.8451 10.0249 68.7594 10.3419 68.5831 10.6487L68.8432 10.7982ZM69.1451 9.69345H69.4451V8.38948H69.1451H68.8451V9.69345H69.1451ZM69.1451 8.38948L68.9146 8.19742C68.9217 8.18884 68.9144 8.20112 68.866 8.22528C68.8208 8.24791 68.7543 8.27373 68.662 8.30089L68.7466 8.58869L68.8313 8.8765C68.9442 8.84329 69.0468 8.80572 69.1343 8.76194C69.2188 8.7197 69.308 8.66256 69.3755 8.58153L69.1451 8.38948ZM68.7466 8.58869L68.6657 8.29981C68.4774 8.35255 68.2549 8.40073 67.997 8.4437L68.0463 8.73962L68.0957 9.03554C68.3691 8.98997 68.6134 8.93753 68.8275 8.87758L68.7466 8.58869ZM68.0463 8.73962L68.0007 8.44311C67.7414 8.483 67.4883 8.51888 67.2413 8.55075L67.2797 8.84828L67.318 9.14582C67.5701 9.11329 67.8281 9.07673 68.092 9.03613L68.0463 8.73962ZM67.2797 8.84828L67.2455 8.55024C66.9992 8.5785 66.7981 8.60286 66.6429 8.62329L66.682 8.92073L66.7211 9.21816C66.8717 9.19834 67.0691 9.17441 67.3139 9.14633L67.2797 8.84828ZM66.682 8.92073L66.6432 8.62325C66.2554 8.67383 65.89 8.75641 65.5477 8.87192L65.6436 9.15617L65.7396 9.44041C66.0413 9.3386 66.3681 9.26421 66.7208 9.21821L66.682 8.92073ZM65.6436 9.15617L65.5499 8.8712C65.191 8.98932 64.8874 9.17336 64.6506 9.42943L64.8709 9.63308L65.0912 9.83674C65.2489 9.6662 65.4604 9.5323 65.7374 9.44113L65.6436 9.15617ZM64.8709 9.63308L64.6505 9.4296C64.3933 9.70816 64.2811 10.074 64.2811 10.4903H64.5811H64.8811C64.8811 10.1823 64.9621 9.97657 65.0914 9.83657L64.8709 9.63308ZM64.5811 10.4903H64.2811C64.2811 11.071 64.5026 11.5434 64.9597 11.8599L65.1305 11.6132L65.3013 11.3665C65.0259 11.1759 64.8811 10.8997 64.8811 10.4903H64.5811ZM65.1305 11.6132L64.9628 11.862C65.3945 12.1529 65.926 12.2875 66.5371 12.2875V11.9875V11.6875C66.0132 11.6875 65.607 11.5726 65.2982 11.3644L65.1305 11.6132ZM65.378 2.66646L65.3911 2.36675L64.2803 2.31845L64.2672 2.61817L64.2542 2.91789L65.365 2.96618L65.378 2.66646ZM64.2672 2.61817H64.5672C64.5672 2.06268 64.7234 1.63521 65.0158 1.30924L64.7924 1.10894L64.5691 0.908628C64.1612 1.36344 63.9672 1.94212 63.9672 2.61817H64.2672ZM64.7924 1.10894L65.0156 1.30937C65.3143 0.976808 65.6705 0.817317 66.1024 0.817317V0.517317V0.217317C65.4961 0.217317 64.9789 0.452239 64.5692 0.908499L64.7924 1.10894ZM66.1024 0.517317V0.817317C66.2966 0.817317 66.4563 0.851289 66.588 0.911165L66.7122 0.638055L66.8363 0.364945C66.6139 0.263838 66.3671 0.217317 66.1024 0.217317V0.517317ZM66.7122 0.638055L66.5932 0.913474C66.7567 0.98405 66.9123 1.0656 67.0603 1.15808L67.2193 0.90368L67.3783 0.649281C67.2043 0.540533 67.0218 0.444996 66.8311 0.362637L66.7122 0.638055ZM67.2193 0.90368L67.0603 1.15808C67.2308 1.26466 67.4058 1.36073 67.5853 1.4462L67.7143 1.17534L67.8433 0.904484C67.6847 0.82897 67.5297 0.743928 67.3783 0.649281L67.2193 0.90368ZM67.7143 1.17534L67.5931 1.44975C67.8096 1.54542 68.047 1.59004 68.2999 1.59004V1.29004V0.990045C68.1181 0.990045 67.9651 0.958199 67.8356 0.900936L67.7143 1.17534ZM68.2999 1.29004V1.59004C68.6182 1.59004 68.8921 1.46242 69.1039 1.22341L68.8794 1.02442L68.6549 0.825427C68.5529 0.940581 68.4404 0.990045 68.2999 0.990045V1.29004ZM68.8794 1.02442L69.1037 1.22373C69.3159 0.984981 69.4209 0.695727 69.4209 0.37243H69.1209H68.8209C68.8209 0.556236 68.765 0.701642 68.6552 0.82511L68.8794 1.02442ZM69.1209 0.37243L69.0944 0.671252L70.181 0.767844L70.2076 0.469022L70.2341 0.1702L69.1475 0.0736084L69.1209 0.37243ZM70.2076 0.469022H69.9076C69.9076 1.03799 69.7488 1.45638 69.4595 1.75881L69.6763 1.96618L69.8931 2.17355C70.3122 1.73545 70.5076 1.15574 70.5076 0.469022H70.2076ZM69.6763 1.96618L69.4583 1.76005C69.1661 2.06914 68.8108 2.22158 68.3723 2.22158V2.52158V2.82158C68.9722 2.82158 69.4863 2.60376 69.8943 2.17231L69.6763 1.96618ZM68.3723 2.52158V2.22158C68.1194 2.22158 67.9331 2.18635 67.8008 2.1305L67.6841 2.40688L67.5674 2.68325C67.7974 2.78033 68.0699 2.82158 68.3723 2.82158V2.52158ZM67.6841 2.40688L67.806 2.13273C67.6407 2.0593 67.4978 1.97841 67.3755 1.89109L67.2012 2.13521L67.0268 2.37933C67.1863 2.49325 67.3653 2.59347 67.5623 2.68102L67.6841 2.40688ZM67.2012 2.13521L67.3755 1.89109C67.221 1.78069 67.0577 1.68361 66.8858 1.59989L66.7544 1.86959L66.623 2.13929C66.7651 2.2085 66.8996 2.28851 67.0268 2.37933L67.2012 2.13521ZM66.7544 1.86959L66.8913 1.60264C66.6812 1.49489 66.4381 1.44885 66.1749 1.44885V1.74885V2.04885C66.3705 2.04885 66.5137 2.0833 66.6175 2.13653L66.7544 1.86959ZM66.1749 1.74885V1.44885C65.8538 1.44885 65.5799 1.58093 65.3722 1.82696L65.6014 2.02051L65.8306 2.21407C65.9287 2.09788 66.0372 2.04885 66.1749 2.04885V1.74885ZM65.6014 2.02051L65.3718 1.82743C65.1729 2.06389 65.078 2.34953 65.078 2.66646H65.378H65.678C65.678 2.47629 65.732 2.3313 65.831 2.21359L65.6014 2.02051ZM74.7338 12.6455L74.573 12.8988L74.5737 12.8993L74.7338 12.6455ZM73.2607 10.9733L72.9912 11.105L72.9918 11.1062L73.2607 10.9733ZM73.2607 5.93244L72.9915 5.80009L72.9909 5.8013L73.2607 5.93244ZM74.7338 4.25418L74.5737 4.00042L74.573 4.00088L74.7338 4.25418ZM79.1347 4.25418L78.9739 4.50748L78.9747 4.50794L79.1347 4.25418ZM80.6077 5.93244L80.3379 6.06359L80.3385 6.0648L80.6077 5.93244ZM80.6077 10.9733L80.3388 10.8403L80.3382 10.8415L80.6077 10.9733ZM79.1347 12.6455L78.9747 12.3918L78.9739 12.3922L79.1347 12.6455ZM78.5068 11.4743L78.3203 11.2394V11.2394L78.5068 11.4743ZM79.4184 10.1885L79.6997 10.2929V10.2929L79.4184 10.1885ZM79.4184 6.72932L79.6999 6.62561V6.62561L79.4184 6.72932ZM78.5068 5.43138L78.6948 5.19757V5.19757L78.5068 5.43138ZM75.3676 5.43138L75.1797 5.19757V5.19757L75.3676 5.43138ZM74.4561 6.72932L74.1746 6.62561V6.62561L74.4561 6.72932ZM74.4561 10.1885L74.1748 10.2929V10.2929L74.4561 10.1885ZM75.3676 11.4743L75.5542 11.2394V11.2394L75.3676 11.4743ZM76.9372 13.2432V12.9432C76.1497 12.9432 75.4721 12.7564 74.8938 12.3918L74.7338 12.6455L74.5737 12.8993C75.2591 13.3315 76.0505 13.5432 76.9372 13.5432V13.2432ZM74.7338 12.6455L74.8945 12.3922C74.3165 12.0254 73.8614 11.5113 73.5297 10.8403L73.2607 10.9733L72.9918 11.1062C73.3684 11.8681 73.8953 12.4687 74.573 12.8988L74.7338 12.6455ZM73.2607 10.9733L73.5303 10.8415C73.2038 10.1736 73.0355 9.3832 73.0355 8.46192H72.7355H72.4355C72.4355 9.45636 72.6174 10.3402 72.9912 11.105L73.2607 10.9733ZM72.7355 8.46192H73.0355C73.0355 7.53222 73.204 6.73557 73.5306 6.06359L73.2607 5.93244L72.9909 5.8013C72.6172 6.57013 72.4355 7.4598 72.4355 8.46192H72.7355ZM73.2607 5.93244L73.53 6.0648C73.8618 5.38983 74.317 4.87399 74.8945 4.50748L74.7338 4.25418L74.573 4.00088C73.8949 4.43124 73.368 5.03425 72.9915 5.80009L73.2607 5.93244ZM74.7338 4.25418L74.8938 4.50794C75.4721 4.14326 76.1497 3.95652 76.9372 3.95652V3.65652V3.35652C76.0505 3.35652 75.2591 3.56822 74.5737 4.00042L74.7338 4.25418ZM76.9372 3.65652V3.95652C77.7248 3.95652 78.4 4.14327 78.9739 4.50748L79.1347 4.25418L79.2954 4.00088C78.6137 3.56822 77.8239 3.35652 76.9372 3.35652V3.65652ZM79.1347 4.25418L78.9747 4.50794C79.5558 4.87437 80.0103 5.3897 80.3379 6.06359L80.6077 5.93244L80.8775 5.8013C80.5048 5.03437 79.9773 4.43086 79.2947 4.00042L79.1347 4.25418ZM80.6077 5.93244L80.3385 6.0648C80.6687 6.73649 80.8389 7.53269 80.8389 8.46192H81.1389H81.4389C81.4389 7.45933 81.255 6.56922 80.8769 5.80009L80.6077 5.93244ZM81.1389 8.46192H80.8389C80.8389 9.38272 80.6688 10.1727 80.3388 10.8403L80.6077 10.9733L80.8766 11.1062C81.2549 10.3411 81.4389 9.45684 81.4389 8.46192H81.1389ZM80.6077 10.9733L80.3382 10.8415C80.0108 11.5114 79.5562 12.0251 78.9747 12.3918L79.1347 12.6455L79.2947 12.8993C79.9769 12.4691 80.5043 11.8679 80.8772 11.105L80.6077 10.9733ZM79.1347 12.6455L78.9739 12.3922C78.4 12.7564 77.7248 12.9432 76.9372 12.9432V13.2432V13.5432C77.8239 13.5432 78.6137 13.3315 79.2954 12.8988L79.1347 12.6455ZM76.9372 11.9633V12.2633C77.626 12.2633 78.2192 12.0858 78.6934 11.7093L78.5068 11.4743L78.3203 11.2394C77.9734 11.5149 77.5203 11.6633 76.9372 11.6633V11.9633ZM78.5068 11.4743L78.6934 11.7093C79.1503 11.3465 79.485 10.8712 79.6997 10.2929L79.4184 10.1885L79.1372 10.0841C78.9574 10.5683 78.6844 10.9502 78.3203 11.2394L78.5068 11.4743ZM79.4184 10.1885L79.6997 10.2929C79.9104 9.72523 80.0142 9.11401 80.0142 8.46192H79.7142H79.4142C79.4142 9.04941 79.3209 9.58924 79.1372 10.0841L79.4184 10.1885ZM79.7142 8.46192H80.0142C80.0142 7.8098 79.9104 7.19685 79.6999 6.62561L79.4184 6.72932L79.1369 6.83303C79.3209 7.33234 79.4142 7.87445 79.4142 8.46192H79.7142ZM79.4184 6.72932L79.6999 6.62561C79.4855 6.04368 79.1512 5.56449 78.6948 5.19757L78.5068 5.43138L78.3189 5.66519C78.6835 5.95831 78.9569 6.34442 79.1369 6.83303L79.4184 6.72932ZM78.5068 5.43138L78.6948 5.19757C78.2206 4.81634 77.6268 4.63635 76.9372 4.63635V4.93635V5.23635C77.5194 5.23635 77.9721 5.38638 78.3189 5.66519L78.5068 5.43138ZM76.9372 4.93635V4.63635C76.2477 4.63635 75.6539 4.81634 75.1797 5.19757L75.3676 5.43138L75.5556 5.66519C75.9024 5.38638 76.355 5.23635 76.9372 5.23635V4.93635ZM75.3676 5.43138L75.1797 5.19757C74.7233 5.56449 74.3889 6.04368 74.1746 6.62561L74.4561 6.72932L74.7376 6.83303C74.9176 6.34442 75.191 5.95831 75.5556 5.66519L75.3676 5.43138ZM74.4561 6.72932L74.1746 6.62561C73.9641 7.19685 73.8602 7.8098 73.8602 8.46192H74.1602H74.4602C74.4602 7.87445 74.5536 7.33234 74.7376 6.83303L74.4561 6.72932ZM74.1602 8.46192H73.8602C73.8602 9.11401 73.9641 9.72523 74.1748 10.2929L74.4561 10.1885L74.7373 10.0841C74.5536 9.58924 74.4602 9.04941 74.4602 8.46192H74.1602ZM74.4561 10.1885L74.1748 10.2929C74.3895 10.8712 74.7242 11.3465 75.1811 11.7093L75.3676 11.4743L75.5542 11.2394C75.19 10.9502 74.9171 10.5683 74.7373 10.0841L74.4561 10.1885ZM75.3676 11.4743L75.1811 11.7093C75.6552 12.0858 76.2485 12.2633 76.9372 12.2633V11.9633V11.6633C76.3542 11.6633 75.9011 11.5149 75.5542 11.2394L75.3676 11.4743ZM83.5854 12.8266L83.7975 12.6145V12.6145L83.5854 12.8266ZM85.1188 11.2932L85.3309 11.0811V11.0811L85.1188 11.2932ZM85.2878 12.6033L85.0316 12.447L85.0289 12.4517L85.2878 12.6033ZM84.8954 13.0017L85.0498 13.2589L85.0516 13.2578L84.8954 13.0017ZM83.5854 5.94452L83.3733 6.15665V6.15665L83.5854 5.94452ZM83.5854 4.41114L83.3733 4.19901V4.19901L83.5854 4.41114ZM85.1188 4.41114L85.3309 4.19901V4.19901L85.1188 4.41114ZM85.2878 5.72115L85.0316 5.56495L85.0289 5.5696L85.2878 5.72115ZM84.8954 6.11959L85.0498 6.37684L85.0516 6.37573L84.8954 6.11959ZM84.3521 13.1466V12.8466C84.135 12.8466 83.9554 12.7723 83.7975 12.6145L83.5854 12.8266L83.3733 13.0388C83.642 13.3075 83.9736 13.4466 84.3521 13.4466V13.1466ZM83.5854 12.8266L83.7975 12.6145C83.6397 12.4566 83.5654 12.277 83.5654 12.0599H83.2654H82.9654C82.9654 12.4385 83.1045 12.77 83.3733 13.0388L83.5854 12.8266ZM83.2654 12.0599H83.5654C83.5654 11.8428 83.6397 11.6632 83.7975 11.5054L83.5854 11.2932L83.3733 11.0811C83.1045 11.3499 82.9654 11.6814 82.9654 12.0599H83.2654ZM83.5854 11.2932L83.7975 11.5054C83.9554 11.3475 84.135 11.2733 84.3521 11.2733V10.9733V10.6733C83.9736 10.6733 83.642 10.8124 83.3733 11.0811L83.5854 11.2932ZM84.3521 10.9733V11.2733C84.5692 11.2733 84.7488 11.3475 84.9067 11.5054L85.1188 11.2932L85.3309 11.0811C85.0622 10.8124 84.7306 10.6733 84.3521 10.6733V10.9733ZM85.1188 11.2932L84.9067 11.5054C85.0645 11.6632 85.1387 11.8428 85.1387 12.0599H85.4387H85.7387C85.7387 11.6814 85.5997 11.3499 85.3309 11.0811L85.1188 11.2932ZM85.4387 12.0599H85.1387C85.1387 12.2032 85.103 12.3301 85.0317 12.4471L85.2878 12.6033L85.544 12.7594C85.6739 12.5464 85.7387 12.3111 85.7387 12.0599H85.4387ZM85.2878 12.6033L85.0289 12.4517C84.9577 12.5734 84.8624 12.6705 84.7392 12.7456L84.8954 13.0017L85.0516 13.2578C85.2585 13.1317 85.4248 12.9631 85.5467 12.7548L85.2878 12.6033ZM84.8954 13.0017L84.7411 12.7444C84.6301 12.811 84.503 12.8466 84.3521 12.8466V13.1466V13.4466C84.6036 13.4466 84.8388 13.3855 85.0498 13.2589L84.8954 13.0017ZM84.3521 6.26448V5.96448C84.135 5.96448 83.9554 5.89025 83.7975 5.73239L83.5854 5.94452L83.3733 6.15665C83.642 6.4254 83.9736 6.56448 84.3521 6.56448V6.26448ZM83.5854 5.94452L83.7975 5.73239C83.6397 5.57453 83.5654 5.39494 83.5654 5.17783H83.2654H82.9654C82.9654 5.55636 83.1045 5.8879 83.3733 6.15665L83.5854 5.94452ZM83.2654 5.17783H83.5654C83.5654 4.96072 83.6397 4.78113 83.7975 4.62327L83.5854 4.41114L83.3733 4.19901C83.1045 4.46776 82.9654 4.7993 82.9654 5.17783H83.2654ZM83.5854 4.41114L83.7975 4.62327C83.9554 4.46541 84.135 4.39118 84.3521 4.39118V4.09118V3.79118C83.9736 3.79118 83.642 3.93025 83.3733 4.19901L83.5854 4.41114ZM84.3521 4.09118V4.39118C84.5692 4.39118 84.7488 4.46541 84.9067 4.62327L85.1188 4.41114L85.3309 4.19901C85.0622 3.93025 84.7306 3.79118 84.3521 3.79118V4.09118ZM85.1188 4.41114L84.9067 4.62327C85.0645 4.78113 85.1387 4.96072 85.1387 5.17783H85.4387H85.7387C85.7387 4.7993 85.5997 4.46776 85.3309 4.19901L85.1188 4.41114ZM85.4387 5.17783H85.1387C85.1387 5.32112 85.103 5.44801 85.0317 5.56497L85.2878 5.72115L85.544 5.87733C85.6739 5.66428 85.7387 5.42895 85.7387 5.17783H85.4387ZM85.2878 5.72115L85.0289 5.5696C84.9577 5.69131 84.8624 5.78837 84.7392 5.86345L84.8954 6.11959L85.0516 6.37573C85.2585 6.24957 85.4248 6.08102 85.5467 5.87271L85.2878 5.72115ZM84.8954 6.11959L84.7411 5.86234C84.6301 5.92894 84.503 5.96448 84.3521 5.96448V6.26448V6.56448C84.6036 6.56448 84.8388 6.50342 85.0498 6.37684L84.8954 6.11959Z" fill="#E3E4EB" mask="url(#path-1-outside-1_27_61)"/>
</svg>
