<svg width="50" height="12" viewBox="0 0 50 12" fill="none" xmlns="http://www.w3.org/2000/svg">
<path d="M1.47718 11.6364H-8.87513e-05L4.27264 0H5.72718L9.99991 11.6364H8.52264L5.04537 1.84091H4.95446L1.47718 11.6364ZM2.02264 7.09091H7.97718V8.34091H2.02264V7.09091ZM12.9715 0V11.6364H11.6306V0H12.9715ZM19.2229 2.90909V4.04545H14.7002V2.90909H19.2229ZM16.0184 0.818182H17.3593V9.13636C17.3593 9.51515 17.4142 9.79924 17.5241 9.98864C17.6377 10.1742 17.7816 10.2992 17.9559 10.3636C18.1339 10.4242 18.3214 10.4545 18.5184 10.4545C18.6661 10.4545 18.7873 10.447 18.882 10.4318C18.9767 10.4129 19.0525 10.3977 19.1093 10.3864L19.382 11.5909C19.2911 11.625 19.1642 11.6591 19.0013 11.6932C18.8385 11.7311 18.632 11.75 18.382 11.75C18.0032 11.75 17.632 11.6686 17.2684 11.5057C16.9085 11.3428 16.6093 11.0947 16.3706 10.7614C16.1358 10.428 16.0184 10.0076 16.0184 9.5V0.818182ZM24.8053 11.8182C23.9644 11.8182 23.239 11.6326 22.6292 11.2614C22.0231 10.8864 21.5553 10.3636 21.2258 9.69318C20.9 9.01894 20.7371 8.23485 20.7371 7.34091C20.7371 6.44697 20.9 5.65909 21.2258 4.97727C21.5553 4.29167 22.0136 3.75758 22.6008 3.375C23.1917 2.98864 23.8811 2.79545 24.6689 2.79545C25.1235 2.79545 25.5724 2.87121 26.0155 3.02273C26.4587 3.17424 26.8621 3.42045 27.2258 3.76136C27.5894 4.09848 27.8792 4.54545 28.0951 5.10227C28.311 5.65909 28.4189 6.3447 28.4189 7.15909V7.72727H21.6917V6.56818H27.0553C27.0553 6.07576 26.9568 5.63636 26.7599 5.25C26.5667 4.86364 26.2902 4.55871 25.9303 4.33523C25.5742 4.11174 25.1538 4 24.6689 4C24.1349 4 23.6727 4.13258 23.2826 4.39773C22.8962 4.65909 22.5989 5 22.3905 5.42045C22.1822 5.84091 22.078 6.29167 22.078 6.77273V7.54545C22.078 8.20455 22.1917 8.76326 22.4189 9.22159C22.65 9.67614 22.9701 10.0227 23.3792 10.2614C23.7883 10.4962 24.2636 10.6136 24.8053 10.6136C25.1576 10.6136 25.4758 10.5644 25.7599 10.4659C26.0477 10.3636 26.2958 10.2121 26.5042 10.0114C26.7125 9.80682 26.8735 9.55303 26.9871 9.25L28.2826 9.61364C28.1462 10.053 27.9171 10.4394 27.5951 10.7727C27.2731 11.1023 26.8754 11.3598 26.4019 11.5455C25.9284 11.7273 25.3962 11.8182 24.8053 11.8182ZM30.4587 11.6364V2.90909H31.7542V4.22727H31.8451C32.0042 3.79545 32.2921 3.44508 32.7087 3.17614C33.1254 2.9072 33.5951 2.77273 34.1178 2.77273C34.2163 2.77273 34.3394 2.77462 34.4871 2.77841C34.6349 2.7822 34.7466 2.78788 34.8224 2.79545V4.15909C34.7769 4.14773 34.6727 4.13068 34.5099 4.10795C34.3508 4.08144 34.1822 4.06818 34.0042 4.06818C33.5799 4.06818 33.2011 4.1572 32.8678 4.33523C32.5383 4.50947 32.2769 4.75189 32.0837 5.0625C31.8943 5.36932 31.7996 5.7197 31.7996 6.11364V11.6364H30.4587ZM38.98 11.8409C38.427 11.8409 37.9251 11.7367 37.4743 11.5284C37.0236 11.3163 36.6656 11.0114 36.4005 10.6136C36.1353 10.2121 36.0028 9.72727 36.0028 9.15909C36.0028 8.65909 36.1012 8.25379 36.2982 7.94318C36.4952 7.62879 36.7584 7.38258 37.088 7.20455C37.4175 7.02652 37.7812 6.89394 38.1789 6.80682C38.5804 6.71591 38.9838 6.64394 39.3891 6.59091C39.9194 6.52273 40.3493 6.47159 40.6789 6.4375C41.0122 6.39962 41.2546 6.33712 41.4062 6.25C41.5615 6.16288 41.6391 6.01136 41.6391 5.79545V5.75C41.6391 5.18939 41.4857 4.75379 41.1789 4.44318C40.8759 4.13258 40.4156 3.97727 39.7982 3.97727C39.1581 3.97727 38.6562 4.11742 38.2925 4.39773C37.9289 4.67803 37.6732 4.97727 37.5255 5.29545L36.2528 4.84091C36.48 4.31061 36.7831 3.89773 37.1618 3.60227C37.5444 3.30303 37.9611 3.0947 38.4118 2.97727C38.8664 2.85606 39.3134 2.79545 39.7528 2.79545C40.0331 2.79545 40.355 2.82955 40.7187 2.89773C41.0861 2.96212 41.4403 3.09659 41.7812 3.30114C42.1259 3.50568 42.4118 3.81439 42.6391 4.22727C42.8664 4.64015 42.98 5.19318 42.98 5.88636V11.6364H41.6391V10.4545H41.5709C41.48 10.6439 41.3285 10.8466 41.1164 11.0625C40.9043 11.2784 40.6221 11.4621 40.2698 11.6136C39.9175 11.7652 39.4876 11.8409 38.98 11.8409ZM39.1846 10.6364C39.7149 10.6364 40.1618 10.5322 40.5255 10.3239C40.8929 10.1155 41.1694 9.84659 41.355 9.51705C41.5444 9.1875 41.6391 8.84091 41.6391 8.47727V7.25C41.5823 7.31818 41.4573 7.38068 41.2641 7.4375C41.0747 7.49053 40.855 7.53788 40.605 7.57955C40.3588 7.61742 40.1183 7.65152 39.8834 7.68182C39.6524 7.70833 39.4649 7.73106 39.3209 7.75C38.9724 7.79545 38.6467 7.86932 38.3437 7.97159C38.0444 8.07008 37.802 8.2197 37.6164 8.42045C37.4346 8.61742 37.3437 8.88636 37.3437 9.22727C37.3437 9.69318 37.516 10.0455 37.8607 10.2841C38.2092 10.5189 38.6505 10.6364 39.1846 10.6364ZM45.4275 11.6364V2.90909H46.7229V4.22727H46.8138C46.9729 3.79545 47.2608 3.44508 47.6775 3.17614C48.0941 2.9072 48.5638 2.77273 49.0866 2.77273C49.185 2.77273 49.3081 2.77462 49.4559 2.77841C49.6036 2.7822 49.7153 2.78788 49.7911 2.79545V4.15909C49.7457 4.14773 49.6415 4.13068 49.4786 4.10795C49.3195 4.08144 49.151 4.06818 48.9729 4.06818C48.5487 4.06818 48.1699 4.1572 47.8366 4.33523C47.507 4.50947 47.2456 4.75189 47.0525 5.0625C46.8631 5.36932 46.7684 5.7197 46.7684 6.11364V11.6364H45.4275Z" fill="#042A7D"/>
</svg>
