<svg width="107" height="14" viewBox="0 0 107 14" fill="none" xmlns="http://www.w3.org/2000/svg">
<mask id="path-1-outside-1_27_18" maskUnits="userSpaceOnUse" x="-0.520996" y="-0.336365" width="107" height="14" fill="black">
<rect fill="white" x="-0.520996" y="-0.336365" width="107" height="14"/>
<path d="M0.300027 1.62812V0.299999H9.57275V1.62812H5.68497V12.6636H4.18781V1.62812H0.300027ZM14.2333 12.8568C13.3398 12.8568 12.5691 12.6596 11.9211 12.2652C11.2772 11.8668 10.7801 11.3114 10.43 10.599C10.0839 9.88262 9.91082 9.04953 9.91082 8.09971C9.91082 7.1499 10.0839 6.31278 10.43 5.58835C10.7801 4.85989 11.2671 4.29242 11.8909 3.88594C12.5188 3.47542 13.2513 3.27017 14.0884 3.27017C14.5713 3.27017 15.0483 3.35066 15.5191 3.51165C15.99 3.67263 16.4186 3.93423 16.805 4.29645C17.1914 4.65464 17.4992 5.12954 17.7286 5.72116C17.9581 6.31278 18.0728 7.04124 18.0728 7.90653V8.51023H10.925V7.27869H16.6239C16.6239 6.75549 16.5193 6.28863 16.31 5.87812C16.1047 5.46761 15.8109 5.14363 15.4286 4.90618C15.0503 4.66872 14.6035 4.55 14.0884 4.55C13.5209 4.55 13.0299 4.69086 12.6154 4.97258C12.2049 5.25028 11.8889 5.6125 11.6676 6.05923C11.4462 6.50596 11.3355 6.98489 11.3355 7.49602V8.31704C11.3355 9.01733 11.4563 9.61096 11.6978 10.0979C11.9433 10.5809 12.2833 10.9491 12.718 11.2027C13.1527 11.4522 13.6577 11.577 14.2333 11.577C14.6076 11.577 14.9456 11.5247 15.2475 11.42C15.5533 11.3114 15.817 11.1504 16.0383 10.9371C16.2597 10.7197 16.4307 10.4501 16.5514 10.1281L17.9279 10.5145C17.783 10.9813 17.5395 11.3919 17.1974 11.746C16.8553 12.0962 16.4327 12.3698 15.9296 12.567C15.4266 12.7602 14.8611 12.8568 14.2333 12.8568ZM20.24 12.6636V3.39091H21.6164V4.83977H21.7372C21.9304 4.34474 22.2423 3.96039 22.6729 3.68672C23.1035 3.40902 23.6207 3.27017 24.2244 3.27017C24.8361 3.27017 25.3452 3.40902 25.7517 3.68672C26.1622 3.96039 26.4822 4.34474 26.7116 4.83977H26.8082C27.0456 4.36084 27.4018 3.98051 27.8767 3.69879C28.3516 3.41304 28.9211 3.27017 29.5852 3.27017C30.4143 3.27017 31.0924 3.52976 31.6196 4.04893C32.1469 4.56408 32.4105 5.367 32.4105 6.45767V12.6636H30.9858V6.45767C30.9858 5.77348 30.7986 5.28449 30.4243 4.99069C30.05 4.6969 29.6093 4.55 29.1022 4.55C28.4502 4.55 27.9452 4.74721 27.587 5.14162C27.2288 5.53201 27.0497 6.02703 27.0497 6.6267V12.6636H25.6008V6.31278C25.6008 5.78556 25.4298 5.36096 25.0877 5.03899C24.7456 4.713 24.3049 4.55 23.7656 4.55C23.3953 4.55 23.0492 4.6486 22.7272 4.84581C22.4093 5.04301 22.1517 5.31669 21.9545 5.66683C21.7613 6.01295 21.6647 6.4134 21.6647 6.86818V12.6636H20.24ZM37.7441 12.881C37.1565 12.881 36.6232 12.7703 36.1443 12.5489C35.6654 12.3236 35.2851 11.9996 35.0033 11.577C34.7216 11.1504 34.5807 10.6352 34.5807 10.0315C34.5807 9.50028 34.6854 9.06965 34.8947 8.73963C35.1039 8.40559 35.3837 8.14399 35.7338 7.95483C36.0839 7.76567 36.4703 7.62481 36.8929 7.53224C37.3195 7.43565 37.7481 7.35918 38.1788 7.30284C38.7422 7.2304 39.199 7.17606 39.5491 7.13984C39.9033 7.0996 40.1609 7.03319 40.3219 6.94062C40.4869 6.84806 40.5694 6.68707 40.5694 6.45767V6.40937C40.5694 5.81373 40.4064 5.3509 40.0804 5.02088C39.7584 4.69086 39.2694 4.52585 38.6134 4.52585C37.9333 4.52585 37.4 4.67476 37.0136 4.97258C36.6273 5.27041 36.3556 5.58835 36.1986 5.92642L34.8464 5.44346C35.0878 4.88002 35.4098 4.44133 35.8123 4.12741C36.2188 3.80947 36.6615 3.58811 37.1404 3.46335C37.6234 3.33456 38.0983 3.27017 38.5651 3.27017C38.8629 3.27017 39.205 3.30639 39.5914 3.37883C39.9818 3.44725 40.3581 3.59013 40.7203 3.80746C41.0865 4.02479 41.3904 4.35279 41.6319 4.79148C41.8734 5.23016 41.9941 5.81775 41.9941 6.55426V12.6636H40.5694V11.408H40.4969C40.4003 11.6092 40.2394 11.8245 40.014 12.0539C39.7886 12.2833 39.4888 12.4785 39.1145 12.6395C38.7402 12.8005 38.2834 12.881 37.7441 12.881ZM37.9614 11.6011C38.5249 11.6011 38.9998 11.4905 39.3861 11.2691C39.7765 11.0477 40.0703 10.762 40.2675 10.4119C40.4688 10.0617 40.5694 9.69346 40.5694 9.3071V8.00312C40.509 8.07557 40.3762 8.14197 40.1709 8.20234C39.9697 8.25869 39.7363 8.30899 39.4707 8.35327C39.2091 8.39351 38.9535 8.42973 38.704 8.46193C38.4585 8.4901 38.2592 8.51425 38.1063 8.53437C37.736 8.58267 37.3899 8.66115 37.068 8.76981C36.75 8.87445 36.4924 9.03343 36.2952 9.24673C36.1021 9.45601 36.0055 9.74176 36.0055 10.104C36.0055 10.599 36.1886 10.9733 36.5548 11.2268C36.9251 11.4764 37.394 11.6011 37.9614 11.6011ZM53.2635 12.8568C52.3701 12.8568 51.5994 12.6596 50.9514 12.2652C50.3075 11.8668 49.8104 11.3114 49.4603 10.599C49.1142 9.88262 48.9411 9.04953 48.9411 8.09971C48.9411 7.1499 49.1142 6.31278 49.4603 5.58835C49.8104 4.85989 50.2974 4.29242 50.9212 3.88594C51.5491 3.47542 52.2815 3.27017 53.1187 3.27017C53.6016 3.27017 54.0785 3.35066 54.5494 3.51165C55.0203 3.67263 55.4489 3.93423 55.8353 4.29645C56.2216 4.65464 56.5295 5.12954 56.7589 5.72116C56.9883 6.31278 57.103 7.04124 57.103 7.90653V8.51023H49.9553V7.27869H55.6542C55.6542 6.75549 55.5495 6.28863 55.3402 5.87812C55.135 5.46761 54.8412 5.14363 54.4589 4.90618C54.0805 4.66872 53.6338 4.55 53.1187 4.55C52.5512 4.55 52.0602 4.69086 51.6456 4.97258C51.2351 5.25028 50.9192 5.6125 50.6978 6.05923C50.4765 6.50596 50.3658 6.98489 50.3658 7.49602V8.31704C50.3658 9.01733 50.4866 9.61096 50.728 10.0979C50.9735 10.5809 51.3136 10.9491 51.7483 11.2027C52.1829 11.4522 52.688 11.577 53.2635 11.577C53.6378 11.577 53.9759 11.5247 54.2777 11.42C54.5836 11.3114 54.8472 11.1504 55.0686 10.9371C55.2899 10.7197 55.461 10.4501 55.5817 10.1281L56.9581 10.5145C56.8133 10.9813 56.5698 11.3919 56.2277 11.746C55.8856 12.0962 55.463 12.3698 54.9599 12.567C54.4568 12.7602 53.8914 12.8568 53.2635 12.8568ZM65.8385 5.46761L64.5586 5.82983C64.4781 5.61652 64.3594 5.40926 64.2025 5.20802C64.0495 5.00277 63.8402 4.83373 63.5746 4.70092C63.309 4.56811 62.9689 4.5017 62.5544 4.5017C61.9869 4.5017 61.514 4.6325 61.1357 4.8941C60.7614 5.15168 60.5743 5.47969 60.5743 5.87812C60.5743 6.23229 60.7031 6.512 60.9606 6.71726C61.2182 6.92251 61.6207 7.09356 62.168 7.2304L63.5444 7.56846C64.3735 7.7697 64.9913 8.07758 65.3978 8.49212C65.8043 8.90263 66.0075 9.43186 66.0075 10.0798C66.0075 10.6111 65.8546 11.086 65.5487 11.5045C65.2468 11.9231 64.8243 12.2531 64.2809 12.4946C63.7376 12.7361 63.1058 12.8568 62.3853 12.8568C61.4396 12.8568 60.6568 12.6516 60.037 12.2411C59.4172 11.8305 59.0248 11.2309 58.8598 10.442L60.212 10.104C60.3408 10.603 60.5843 10.9773 60.9425 11.2268C61.3047 11.4764 61.7776 11.6011 62.3612 11.6011C63.0253 11.6011 63.5525 11.4603 63.9429 11.1785C64.3373 10.8928 64.5345 10.5507 64.5345 10.1523C64.5345 9.8303 64.4218 9.56065 64.1964 9.34332C63.971 9.12197 63.6249 8.95696 63.1581 8.84829L61.6126 8.48608C60.7634 8.28485 60.1396 7.97294 59.7412 7.55035C59.3468 7.12374 59.1495 6.59048 59.1495 5.95057C59.1495 5.42737 59.2964 4.96453 59.5902 4.56207C59.8881 4.15961 60.2925 3.84368 60.8037 3.61427C61.3188 3.38487 61.9024 3.27017 62.5544 3.27017C63.472 3.27017 64.1924 3.4714 64.7156 3.87386C65.2428 4.27632 65.6171 4.80757 65.8385 5.46761ZM71.9192 12.8568C71.0498 12.8568 70.3013 12.6516 69.6734 12.2411C69.0456 11.8305 68.5626 11.2651 68.2246 10.5447C67.8865 9.82426 67.7175 9.00123 67.7175 8.07557C67.7175 7.13381 67.8905 6.30272 68.2366 5.58231C68.5868 4.85788 69.0738 4.29242 69.6976 3.88594C70.3254 3.47542 71.0579 3.27017 71.895 3.27017C72.547 3.27017 73.1346 3.39091 73.6578 3.63239C74.181 3.87386 74.6096 4.21193 74.9437 4.64659C75.2777 5.08125 75.485 5.58835 75.5655 6.1679H74.1408C74.0321 5.74531 73.7906 5.37102 73.4163 5.04503C73.0461 4.71501 72.547 4.55 71.9192 4.55C71.3638 4.55 70.8768 4.69488 70.4582 4.98466C70.0437 5.27041 69.7197 5.67488 69.4863 6.19808C69.2569 6.71726 69.1422 7.32699 69.1422 8.02727C69.1422 8.74365 69.2549 9.36747 69.4802 9.89872C69.7097 10.43 70.0316 10.8425 70.4462 11.1363C70.8647 11.4301 71.3557 11.577 71.9192 11.577C72.2894 11.577 72.6255 11.5126 72.9273 11.3838C73.2292 11.255 73.4847 11.0699 73.694 10.8284C73.9033 10.5869 74.0522 10.2972 74.1408 9.95909H75.5655C75.485 10.5064 75.2858 10.9995 74.9678 11.4381C74.6539 11.8728 74.2373 12.2189 73.7182 12.4765C73.203 12.73 72.6034 12.8568 71.9192 12.8568ZM83.492 8.87244V3.39091H84.9167V12.6636H83.492V11.094H83.3954C83.178 11.5649 82.84 11.9654 82.3812 12.2954C81.9224 12.6214 81.3428 12.7844 80.6425 12.7844C80.063 12.7844 79.5478 12.6576 79.0971 12.404C78.6463 12.1465 78.2922 11.7601 78.0346 11.245C77.777 10.7258 77.6482 10.0718 77.6482 9.28295V3.39091H79.0729V9.18636C79.0729 9.8625 79.2621 10.4018 79.6404 10.8043C80.0227 11.2067 80.5097 11.408 81.1013 11.408C81.4555 11.408 81.8157 11.3174 82.182 11.1363C82.5522 10.9552 82.8621 10.6775 83.1116 10.3032C83.3652 9.92891 83.492 9.45199 83.492 8.87244ZM87.5261 12.6636V3.39091H88.9026V4.79148H88.9992C89.1682 4.33267 89.4741 3.96039 89.9168 3.67464C90.3595 3.38889 90.8585 3.24602 91.4139 3.24602C91.5186 3.24602 91.6494 3.24803 91.8063 3.25206C91.9633 3.25608 92.082 3.26212 92.1625 3.27017V4.71903C92.1142 4.70696 92.0035 4.68885 91.8305 4.6647C91.6614 4.63653 91.4823 4.62244 91.2932 4.62244C90.8424 4.62244 90.44 4.71702 90.0858 4.90618C89.7357 5.09131 89.458 5.34889 89.2527 5.6789C89.0515 6.0049 88.9509 6.37718 88.9509 6.79574V12.6636H87.5261ZM97.3362 12.8568C96.499 12.8568 95.7645 12.6576 95.1327 12.2592C94.5048 11.8607 94.0138 11.3033 93.6597 10.5869C93.3095 9.87055 93.1345 9.03343 93.1345 8.07557C93.1345 7.10966 93.3095 6.2665 93.6597 5.54609C94.0138 4.82569 94.5048 4.26626 95.1327 3.86783C95.7645 3.46939 96.499 3.27017 97.3362 3.27017C98.1733 3.27017 98.9058 3.46939 99.5336 3.86783C100.165 4.26626 100.656 4.82569 101.007 5.54609C101.361 6.2665 101.538 7.10966 101.538 8.07557C101.538 9.03343 101.361 9.87055 101.007 10.5869C100.656 11.3033 100.165 11.8607 99.5336 12.2592C98.9058 12.6576 98.1733 12.8568 97.3362 12.8568ZM97.3362 11.577C97.972 11.577 98.4953 11.414 98.9058 11.088C99.3163 10.762 99.6201 10.3334 99.8173 9.80213C100.015 9.27088 100.113 8.69536 100.113 8.07557C100.113 7.45578 100.015 6.87824 99.8173 6.34297C99.6201 5.80769 99.3163 5.37505 98.9058 5.04503C98.4953 4.71501 97.972 4.55 97.3362 4.55C96.7003 4.55 96.1771 4.71501 95.7666 5.04503C95.356 5.37505 95.0522 5.80769 94.855 6.34297C94.6578 6.87824 94.5592 7.45578 94.5592 8.07557C94.5592 8.69536 94.6578 9.27088 94.855 9.80213C95.0522 10.3334 95.356 10.762 95.7666 11.088C96.1771 11.414 96.7003 11.577 97.3362 11.577ZM104.751 12.7602C104.453 12.7602 104.198 12.6536 103.984 12.4403C103.771 12.227 103.664 11.9714 103.664 11.6736C103.664 11.3758 103.771 11.1202 103.984 10.9069C104.198 10.6936 104.453 10.5869 104.751 10.5869C105.049 10.5869 105.304 10.6936 105.518 10.9069C105.731 11.1202 105.838 11.3758 105.838 11.6736C105.838 11.8708 105.787 12.0519 105.687 12.2169C105.59 12.3819 105.459 12.5147 105.294 12.6153C105.133 12.7119 104.952 12.7602 104.751 12.7602ZM104.751 5.87812C104.453 5.87812 104.198 5.77147 103.984 5.55817C103.771 5.34486 103.664 5.0893 103.664 4.79148C103.664 4.49365 103.771 4.23809 103.984 4.02479C104.198 3.81148 104.453 3.70483 104.751 3.70483C105.049 3.70483 105.304 3.81148 105.518 4.02479C105.731 4.23809 105.838 4.49365 105.838 4.79148C105.838 4.98868 105.787 5.16979 105.687 5.3348C105.59 5.49981 105.459 5.63262 105.294 5.73324C105.133 5.82983 104.952 5.87812 104.751 5.87812Z"/>
</mask>
<path d="M0.300027 1.62812V0.299999H9.57275V1.62812H5.68497V12.6636H4.18781V1.62812H0.300027ZM14.2333 12.8568C13.3398 12.8568 12.5691 12.6596 11.9211 12.2652C11.2772 11.8668 10.7801 11.3114 10.43 10.599C10.0839 9.88262 9.91082 9.04953 9.91082 8.09971C9.91082 7.1499 10.0839 6.31278 10.43 5.58835C10.7801 4.85989 11.2671 4.29242 11.8909 3.88594C12.5188 3.47542 13.2513 3.27017 14.0884 3.27017C14.5713 3.27017 15.0483 3.35066 15.5191 3.51165C15.99 3.67263 16.4186 3.93423 16.805 4.29645C17.1914 4.65464 17.4992 5.12954 17.7286 5.72116C17.9581 6.31278 18.0728 7.04124 18.0728 7.90653V8.51023H10.925V7.27869H16.6239C16.6239 6.75549 16.5193 6.28863 16.31 5.87812C16.1047 5.46761 15.8109 5.14363 15.4286 4.90618C15.0503 4.66872 14.6035 4.55 14.0884 4.55C13.5209 4.55 13.0299 4.69086 12.6154 4.97258C12.2049 5.25028 11.8889 5.6125 11.6676 6.05923C11.4462 6.50596 11.3355 6.98489 11.3355 7.49602V8.31704C11.3355 9.01733 11.4563 9.61096 11.6978 10.0979C11.9433 10.5809 12.2833 10.9491 12.718 11.2027C13.1527 11.4522 13.6577 11.577 14.2333 11.577C14.6076 11.577 14.9456 11.5247 15.2475 11.42C15.5533 11.3114 15.817 11.1504 16.0383 10.9371C16.2597 10.7197 16.4307 10.4501 16.5514 10.1281L17.9279 10.5145C17.783 10.9813 17.5395 11.3919 17.1974 11.746C16.8553 12.0962 16.4327 12.3698 15.9296 12.567C15.4266 12.7602 14.8611 12.8568 14.2333 12.8568ZM20.24 12.6636V3.39091H21.6164V4.83977H21.7372C21.9304 4.34474 22.2423 3.96039 22.6729 3.68672C23.1035 3.40902 23.6207 3.27017 24.2244 3.27017C24.8361 3.27017 25.3452 3.40902 25.7517 3.68672C26.1622 3.96039 26.4822 4.34474 26.7116 4.83977H26.8082C27.0456 4.36084 27.4018 3.98051 27.8767 3.69879C28.3516 3.41304 28.9211 3.27017 29.5852 3.27017C30.4143 3.27017 31.0924 3.52976 31.6196 4.04893C32.1469 4.56408 32.4105 5.367 32.4105 6.45767V12.6636H30.9858V6.45767C30.9858 5.77348 30.7986 5.28449 30.4243 4.99069C30.05 4.6969 29.6093 4.55 29.1022 4.55C28.4502 4.55 27.9452 4.74721 27.587 5.14162C27.2288 5.53201 27.0497 6.02703 27.0497 6.6267V12.6636H25.6008V6.31278C25.6008 5.78556 25.4298 5.36096 25.0877 5.03899C24.7456 4.713 24.3049 4.55 23.7656 4.55C23.3953 4.55 23.0492 4.6486 22.7272 4.84581C22.4093 5.04301 22.1517 5.31669 21.9545 5.66683C21.7613 6.01295 21.6647 6.4134 21.6647 6.86818V12.6636H20.24ZM37.7441 12.881C37.1565 12.881 36.6232 12.7703 36.1443 12.5489C35.6654 12.3236 35.2851 11.9996 35.0033 11.577C34.7216 11.1504 34.5807 10.6352 34.5807 10.0315C34.5807 9.50028 34.6854 9.06965 34.8947 8.73963C35.1039 8.40559 35.3837 8.14399 35.7338 7.95483C36.0839 7.76567 36.4703 7.62481 36.8929 7.53224C37.3195 7.43565 37.7481 7.35918 38.1788 7.30284C38.7422 7.2304 39.199 7.17606 39.5491 7.13984C39.9033 7.0996 40.1609 7.03319 40.3219 6.94062C40.4869 6.84806 40.5694 6.68707 40.5694 6.45767V6.40937C40.5694 5.81373 40.4064 5.3509 40.0804 5.02088C39.7584 4.69086 39.2694 4.52585 38.6134 4.52585C37.9333 4.52585 37.4 4.67476 37.0136 4.97258C36.6273 5.27041 36.3556 5.58835 36.1986 5.92642L34.8464 5.44346C35.0878 4.88002 35.4098 4.44133 35.8123 4.12741C36.2188 3.80947 36.6615 3.58811 37.1404 3.46335C37.6234 3.33456 38.0983 3.27017 38.5651 3.27017C38.8629 3.27017 39.205 3.30639 39.5914 3.37883C39.9818 3.44725 40.3581 3.59013 40.7203 3.80746C41.0865 4.02479 41.3904 4.35279 41.6319 4.79148C41.8734 5.23016 41.9941 5.81775 41.9941 6.55426V12.6636H40.5694V11.408H40.4969C40.4003 11.6092 40.2394 11.8245 40.014 12.0539C39.7886 12.2833 39.4888 12.4785 39.1145 12.6395C38.7402 12.8005 38.2834 12.881 37.7441 12.881ZM37.9614 11.6011C38.5249 11.6011 38.9998 11.4905 39.3861 11.2691C39.7765 11.0477 40.0703 10.762 40.2675 10.4119C40.4688 10.0617 40.5694 9.69346 40.5694 9.3071V8.00312C40.509 8.07557 40.3762 8.14197 40.1709 8.20234C39.9697 8.25869 39.7363 8.30899 39.4707 8.35327C39.2091 8.39351 38.9535 8.42973 38.704 8.46193C38.4585 8.4901 38.2592 8.51425 38.1063 8.53437C37.736 8.58267 37.3899 8.66115 37.068 8.76981C36.75 8.87445 36.4924 9.03343 36.2952 9.24673C36.1021 9.45601 36.0055 9.74176 36.0055 10.104C36.0055 10.599 36.1886 10.9733 36.5548 11.2268C36.9251 11.4764 37.394 11.6011 37.9614 11.6011ZM53.2635 12.8568C52.3701 12.8568 51.5994 12.6596 50.9514 12.2652C50.3075 11.8668 49.8104 11.3114 49.4603 10.599C49.1142 9.88262 48.9411 9.04953 48.9411 8.09971C48.9411 7.1499 49.1142 6.31278 49.4603 5.58835C49.8104 4.85989 50.2974 4.29242 50.9212 3.88594C51.5491 3.47542 52.2815 3.27017 53.1187 3.27017C53.6016 3.27017 54.0785 3.35066 54.5494 3.51165C55.0203 3.67263 55.4489 3.93423 55.8353 4.29645C56.2216 4.65464 56.5295 5.12954 56.7589 5.72116C56.9883 6.31278 57.103 7.04124 57.103 7.90653V8.51023H49.9553V7.27869H55.6542C55.6542 6.75549 55.5495 6.28863 55.3402 5.87812C55.135 5.46761 54.8412 5.14363 54.4589 4.90618C54.0805 4.66872 53.6338 4.55 53.1187 4.55C52.5512 4.55 52.0602 4.69086 51.6456 4.97258C51.2351 5.25028 50.9192 5.6125 50.6978 6.05923C50.4765 6.50596 50.3658 6.98489 50.3658 7.49602V8.31704C50.3658 9.01733 50.4866 9.61096 50.728 10.0979C50.9735 10.5809 51.3136 10.9491 51.7483 11.2027C52.1829 11.4522 52.688 11.577 53.2635 11.577C53.6378 11.577 53.9759 11.5247 54.2777 11.42C54.5836 11.3114 54.8472 11.1504 55.0686 10.9371C55.2899 10.7197 55.461 10.4501 55.5817 10.1281L56.9581 10.5145C56.8133 10.9813 56.5698 11.3919 56.2277 11.746C55.8856 12.0962 55.463 12.3698 54.9599 12.567C54.4568 12.7602 53.8914 12.8568 53.2635 12.8568ZM65.8385 5.46761L64.5586 5.82983C64.4781 5.61652 64.3594 5.40926 64.2025 5.20802C64.0495 5.00277 63.8402 4.83373 63.5746 4.70092C63.309 4.56811 62.9689 4.5017 62.5544 4.5017C61.9869 4.5017 61.514 4.6325 61.1357 4.8941C60.7614 5.15168 60.5743 5.47969 60.5743 5.87812C60.5743 6.23229 60.7031 6.512 60.9606 6.71726C61.2182 6.92251 61.6207 7.09356 62.168 7.2304L63.5444 7.56846C64.3735 7.7697 64.9913 8.07758 65.3978 8.49212C65.8043 8.90263 66.0075 9.43186 66.0075 10.0798C66.0075 10.6111 65.8546 11.086 65.5487 11.5045C65.2468 11.9231 64.8243 12.2531 64.2809 12.4946C63.7376 12.7361 63.1058 12.8568 62.3853 12.8568C61.4396 12.8568 60.6568 12.6516 60.037 12.2411C59.4172 11.8305 59.0248 11.2309 58.8598 10.442L60.212 10.104C60.3408 10.603 60.5843 10.9773 60.9425 11.2268C61.3047 11.4764 61.7776 11.6011 62.3612 11.6011C63.0253 11.6011 63.5525 11.4603 63.9429 11.1785C64.3373 10.8928 64.5345 10.5507 64.5345 10.1523C64.5345 9.8303 64.4218 9.56065 64.1964 9.34332C63.971 9.12197 63.6249 8.95696 63.1581 8.84829L61.6126 8.48608C60.7634 8.28485 60.1396 7.97294 59.7412 7.55035C59.3468 7.12374 59.1495 6.59048 59.1495 5.95057C59.1495 5.42737 59.2964 4.96453 59.5902 4.56207C59.8881 4.15961 60.2925 3.84368 60.8037 3.61427C61.3188 3.38487 61.9024 3.27017 62.5544 3.27017C63.472 3.27017 64.1924 3.4714 64.7156 3.87386C65.2428 4.27632 65.6171 4.80757 65.8385 5.46761ZM71.9192 12.8568C71.0498 12.8568 70.3013 12.6516 69.6734 12.2411C69.0456 11.8305 68.5626 11.2651 68.2246 10.5447C67.8865 9.82426 67.7175 9.00123 67.7175 8.07557C67.7175 7.13381 67.8905 6.30272 68.2366 5.58231C68.5868 4.85788 69.0738 4.29242 69.6976 3.88594C70.3254 3.47542 71.0579 3.27017 71.895 3.27017C72.547 3.27017 73.1346 3.39091 73.6578 3.63239C74.181 3.87386 74.6096 4.21193 74.9437 4.64659C75.2777 5.08125 75.485 5.58835 75.5655 6.1679H74.1408C74.0321 5.74531 73.7906 5.37102 73.4163 5.04503C73.0461 4.71501 72.547 4.55 71.9192 4.55C71.3638 4.55 70.8768 4.69488 70.4582 4.98466C70.0437 5.27041 69.7197 5.67488 69.4863 6.19808C69.2569 6.71726 69.1422 7.32699 69.1422 8.02727C69.1422 8.74365 69.2549 9.36747 69.4802 9.89872C69.7097 10.43 70.0316 10.8425 70.4462 11.1363C70.8647 11.4301 71.3557 11.577 71.9192 11.577C72.2894 11.577 72.6255 11.5126 72.9273 11.3838C73.2292 11.255 73.4847 11.0699 73.694 10.8284C73.9033 10.5869 74.0522 10.2972 74.1408 9.95909H75.5655C75.485 10.5064 75.2858 10.9995 74.9678 11.4381C74.6539 11.8728 74.2373 12.2189 73.7182 12.4765C73.203 12.73 72.6034 12.8568 71.9192 12.8568ZM83.492 8.87244V3.39091H84.9167V12.6636H83.492V11.094H83.3954C83.178 11.5649 82.84 11.9654 82.3812 12.2954C81.9224 12.6214 81.3428 12.7844 80.6425 12.7844C80.063 12.7844 79.5478 12.6576 79.0971 12.404C78.6463 12.1465 78.2922 11.7601 78.0346 11.245C77.777 10.7258 77.6482 10.0718 77.6482 9.28295V3.39091H79.0729V9.18636C79.0729 9.8625 79.2621 10.4018 79.6404 10.8043C80.0227 11.2067 80.5097 11.408 81.1013 11.408C81.4555 11.408 81.8157 11.3174 82.182 11.1363C82.5522 10.9552 82.8621 10.6775 83.1116 10.3032C83.3652 9.92891 83.492 9.45199 83.492 8.87244ZM87.5261 12.6636V3.39091H88.9026V4.79148H88.9992C89.1682 4.33267 89.4741 3.96039 89.9168 3.67464C90.3595 3.38889 90.8585 3.24602 91.4139 3.24602C91.5186 3.24602 91.6494 3.24803 91.8063 3.25206C91.9633 3.25608 92.082 3.26212 92.1625 3.27017V4.71903C92.1142 4.70696 92.0035 4.68885 91.8305 4.6647C91.6614 4.63653 91.4823 4.62244 91.2932 4.62244C90.8424 4.62244 90.44 4.71702 90.0858 4.90618C89.7357 5.09131 89.458 5.34889 89.2527 5.6789C89.0515 6.0049 88.9509 6.37718 88.9509 6.79574V12.6636H87.5261ZM97.3362 12.8568C96.499 12.8568 95.7645 12.6576 95.1327 12.2592C94.5048 11.8607 94.0138 11.3033 93.6597 10.5869C93.3095 9.87055 93.1345 9.03343 93.1345 8.07557C93.1345 7.10966 93.3095 6.2665 93.6597 5.54609C94.0138 4.82569 94.5048 4.26626 95.1327 3.86783C95.7645 3.46939 96.499 3.27017 97.3362 3.27017C98.1733 3.27017 98.9058 3.46939 99.5336 3.86783C100.165 4.26626 100.656 4.82569 101.007 5.54609C101.361 6.2665 101.538 7.10966 101.538 8.07557C101.538 9.03343 101.361 9.87055 101.007 10.5869C100.656 11.3033 100.165 11.8607 99.5336 12.2592C98.9058 12.6576 98.1733 12.8568 97.3362 12.8568ZM97.3362 11.577C97.972 11.577 98.4953 11.414 98.9058 11.088C99.3163 10.762 99.6201 10.3334 99.8173 9.80213C100.015 9.27088 100.113 8.69536 100.113 8.07557C100.113 7.45578 100.015 6.87824 99.8173 6.34297C99.6201 5.80769 99.3163 5.37505 98.9058 5.04503C98.4953 4.71501 97.972 4.55 97.3362 4.55C96.7003 4.55 96.1771 4.71501 95.7666 5.04503C95.356 5.37505 95.0522 5.80769 94.855 6.34297C94.6578 6.87824 94.5592 7.45578 94.5592 8.07557C94.5592 8.69536 94.6578 9.27088 94.855 9.80213C95.0522 10.3334 95.356 10.762 95.7666 11.088C96.1771 11.414 96.7003 11.577 97.3362 11.577ZM104.751 12.7602C104.453 12.7602 104.198 12.6536 103.984 12.4403C103.771 12.227 103.664 11.9714 103.664 11.6736C103.664 11.3758 103.771 11.1202 103.984 10.9069C104.198 10.6936 104.453 10.5869 104.751 10.5869C105.049 10.5869 105.304 10.6936 105.518 10.9069C105.731 11.1202 105.838 11.3758 105.838 11.6736C105.838 11.8708 105.787 12.0519 105.687 12.2169C105.59 12.3819 105.459 12.5147 105.294 12.6153C105.133 12.7119 104.952 12.7602 104.751 12.7602ZM104.751 5.87812C104.453 5.87812 104.198 5.77147 103.984 5.55817C103.771 5.34486 103.664 5.0893 103.664 4.79148C103.664 4.49365 103.771 4.23809 103.984 4.02479C104.198 3.81148 104.453 3.70483 104.751 3.70483C105.049 3.70483 105.304 3.81148 105.518 4.02479C105.731 4.23809 105.838 4.49365 105.838 4.79148C105.838 4.98868 105.787 5.16979 105.687 5.3348C105.59 5.49981 105.459 5.63262 105.294 5.73324C105.133 5.82983 104.952 5.87812 104.751 5.87812Z" fill="#E3E4EB"/>
<path d="M0.300027 1.62812H2.66433e-05V1.92812H0.300027V1.62812ZM0.300027 0.299998V-1.90735e-06H2.66433e-05V0.299998H0.300027ZM9.57275 0.299998H9.87275V-1.90735e-06H9.57275V0.299998ZM9.57275 1.62812V1.92812H9.87275V1.62812H9.57275ZM5.68497 1.62812V1.32812H5.38497V1.62812H5.68497ZM5.68497 12.6636V12.9636H5.98497V12.6636H5.68497ZM4.18781 12.6636H3.88781V12.9636H4.18781V12.6636ZM4.18781 1.62812H4.48781V1.32812H4.18781V1.62812ZM0.300027 1.62812H0.600027V0.299998H0.300027H2.66433e-05V1.62812H0.300027ZM0.300027 0.299998V0.599998H9.57275V0.299998V-1.90735e-06H0.300027V0.299998ZM9.57275 0.299998H9.27275V1.62812H9.57275H9.87275V0.299998H9.57275ZM9.57275 1.62812V1.32812H5.68497V1.62812V1.92812H9.57275V1.62812ZM5.68497 1.62812H5.38497V12.6636H5.68497H5.98497V1.62812H5.68497ZM5.68497 12.6636V12.3636H4.18781V12.6636V12.9636H5.68497V12.6636ZM4.18781 12.6636H4.48781V1.62812H4.18781H3.88781V12.6636H4.18781ZM4.18781 1.62812V1.32812H0.300027V1.62812V1.92812H4.18781V1.62812ZM11.9211 12.2652L11.7633 12.5203L11.7651 12.5215L11.9211 12.2652ZM10.43 10.599L10.1599 10.7295L10.1608 10.7313L10.43 10.599ZM10.43 5.58835L10.1596 5.45839L10.1593 5.45902L10.43 5.58835ZM11.8909 3.88594L12.0547 4.13728L12.0551 4.13703L11.8909 3.88594ZM15.5191 3.51165L15.6162 3.22778V3.22778L15.5191 3.51165ZM16.805 4.29645L16.5998 4.51531L16.601 4.51645L16.805 4.29645ZM17.7286 5.72116L18.0084 5.61271V5.61271L17.7286 5.72116ZM18.0728 8.51023V8.81023H18.3728V8.51023H18.0728ZM10.925 8.51023H10.625V8.81023H10.925V8.51023ZM10.925 7.27869V6.97869H10.625V7.27869H10.925ZM16.6239 7.27869V7.57869H16.9239V7.27869H16.6239ZM16.31 5.87812L16.0416 6.01229L16.0427 6.01438L16.31 5.87812ZM15.4286 4.90618L15.2691 5.16028L15.2703 5.16103L15.4286 4.90618ZM12.6154 4.97258L12.7835 5.22107L12.784 5.22071L12.6154 4.97258ZM11.6676 6.05923L11.3988 5.92604V5.92604L11.6676 6.05923ZM11.6978 10.0979L11.429 10.2312L11.4303 10.2339L11.6978 10.0979ZM12.718 11.2027L12.5668 11.4618L12.5686 11.4629L12.718 11.2027ZM15.2475 11.42L15.3457 11.7035L15.3479 11.7027L15.2475 11.42ZM16.0383 10.9371L16.2465 11.1531L16.2485 11.1511L16.0383 10.9371ZM16.5514 10.1281L16.6325 9.83929L16.3673 9.76483L16.2705 10.0228L16.5514 10.1281ZM17.9279 10.5145L18.2144 10.6034L18.3058 10.309L18.0089 10.2257L17.9279 10.5145ZM17.1974 11.746L17.412 11.9557L17.4132 11.9544L17.1974 11.746ZM15.9296 12.567L16.0372 12.8471L16.0391 12.8464L15.9296 12.567ZM14.2333 12.8568V12.5568C13.3849 12.5568 12.6703 12.37 12.0771 12.0089L11.9211 12.2652L11.7651 12.5215C12.4679 12.9492 13.2947 13.1568 14.2333 13.1568V12.8568ZM11.9211 12.2652L12.079 12.0101C11.4853 11.6428 11.0258 11.131 10.6992 10.4667L10.43 10.599L10.1608 10.7313C10.5345 11.4917 11.069 12.0908 11.7633 12.5203L11.9211 12.2652ZM10.43 10.599L10.7001 10.4685C10.3771 9.79995 10.2108 9.01299 10.2108 8.09971H9.91082H9.61082C9.61082 9.08606 9.79064 9.96529 10.1599 10.7295L10.43 10.599ZM9.91082 8.09971H10.2108C10.2108 7.18654 10.3771 6.39499 10.7007 5.71768L10.43 5.58835L10.1593 5.45902C9.79068 6.23057 9.61082 7.11327 9.61082 8.09971H9.91082ZM10.43 5.58835L10.7004 5.71832C11.0289 5.03493 11.4808 4.51127 12.0547 4.13728L11.8909 3.88594L11.7272 3.63459C11.0535 4.07357 10.5314 4.68486 10.1596 5.45839L10.43 5.58835ZM11.8909 3.88594L12.0551 4.13703C12.6286 3.76206 13.3026 3.57017 14.0884 3.57017V3.27017V2.97017C13.1999 2.97017 12.409 3.1888 11.7268 3.63484L11.8909 3.88594ZM14.0884 3.27017V3.57017C14.5373 3.57017 14.9815 3.64488 15.4221 3.79552L15.5191 3.51165L15.6162 3.22778C15.115 3.05644 14.6054 2.97017 14.0884 2.97017V3.27017ZM15.5191 3.51165L15.4221 3.79552C15.8502 3.94187 16.2425 4.18028 16.5998 4.51531L16.805 4.29645L17.0102 4.07759C16.5948 3.68818 16.1299 3.40339 15.6162 3.22778L15.5191 3.51165ZM16.805 4.29645L16.601 4.51645C16.9479 4.838 17.2327 5.27189 17.4489 5.82962L17.7286 5.72116L18.0084 5.61271C17.7658 4.9872 17.4348 4.47128 17.009 4.07645L16.805 4.29645ZM17.7286 5.72116L17.4489 5.82962C17.661 6.37658 17.7728 7.06573 17.7728 7.90653H18.0728H18.3728C18.3728 7.01675 18.2551 6.24899 18.0084 5.61271L17.7286 5.72116ZM18.0728 7.90653H17.7728V8.51023H18.0728H18.3728V7.90653H18.0728ZM18.0728 8.51023V8.21023H10.925V8.51023V8.81023H18.0728V8.51023ZM10.925 8.51023H11.225V7.27869H10.925H10.625V8.51023H10.925ZM10.925 7.27869V7.57869H16.6239V7.27869V6.97869H10.925V7.27869ZM16.6239 7.27869H16.9239C16.9239 6.71459 16.8108 6.19998 16.5772 5.74187L16.31 5.87812L16.0427 6.01438C16.2277 6.37729 16.3239 6.79639 16.3239 7.27869H16.6239ZM16.31 5.87812L16.5783 5.74396C16.3487 5.28485 16.0173 4.91866 15.5869 4.65133L15.4286 4.90618L15.2703 5.16103C15.6045 5.3686 15.8607 5.65038 16.0416 6.01229L16.31 5.87812ZM15.4286 4.90618L15.5881 4.65208C15.155 4.38026 14.6511 4.25 14.0884 4.25V4.55V4.85C14.5559 4.85 14.9455 4.95719 15.2691 5.16027L15.4286 4.90618ZM14.0884 4.55V4.25C13.469 4.25 12.9174 4.40459 12.4467 4.72446L12.6154 4.97258L12.784 5.22071C13.1424 4.97713 13.5728 4.85 14.0884 4.85V4.55ZM12.6154 4.97258L12.4473 4.7241C11.9935 5.03105 11.643 5.4331 11.3988 5.92604L11.6676 6.05923L11.9364 6.19243C12.1348 5.7919 12.4162 5.46951 12.7835 5.22107L12.6154 4.97258ZM11.6676 6.05923L11.3988 5.92604C11.1564 6.41524 11.0355 6.93989 11.0355 7.49602H11.3355H11.6355C11.6355 7.0299 11.7361 6.59669 11.9364 6.19243L11.6676 6.05923ZM11.3355 7.49602H11.0355V8.31704H11.3355H11.6355V7.49602H11.3355ZM11.3355 8.31704H11.0355C11.0355 9.05068 11.1619 9.69263 11.429 10.2312L11.6978 10.0979L11.9665 9.96466C11.7506 9.52929 11.6355 8.98398 11.6355 8.31704H11.3355ZM11.6978 10.0979L11.4303 10.2339C11.6999 10.7641 12.0786 11.177 12.5668 11.4618L12.718 11.2027L12.8692 10.9436C12.4881 10.7213 12.1867 10.3977 11.9652 9.962L11.6978 10.0979ZM12.718 11.2027L12.5686 11.4629C13.0551 11.7422 13.6132 11.877 14.2333 11.877V11.577V11.277C13.7023 11.277 13.2502 11.1623 12.8674 10.9425L12.718 11.2027ZM14.2333 11.577V11.877C14.6354 11.877 15.0074 11.8208 15.3457 11.7035L15.2475 11.42L15.1492 11.1366C14.8839 11.2286 14.5797 11.277 14.2333 11.277V11.577ZM15.2475 11.42L15.3479 11.7027C15.6917 11.5806 15.9927 11.3977 16.2465 11.1531L16.0383 10.9371L15.8301 10.721C15.6413 10.9031 15.415 11.0422 15.147 11.1373L15.2475 11.42ZM16.0383 10.9371L16.2485 11.1511C16.5043 10.9 16.6979 10.5919 16.8323 10.2335L16.5514 10.1281L16.2705 10.0228C16.1635 10.3083 16.015 10.5395 15.8281 10.723L16.0383 10.9371ZM16.5514 10.1281L16.4704 10.417L17.8468 10.8033L17.9279 10.5145L18.0089 10.2257L16.6325 9.83929L16.5514 10.1281ZM17.9279 10.5145L17.6413 10.4256C17.5105 10.8473 17.2914 11.2169 16.9816 11.5376L17.1974 11.746L17.4132 11.9544C17.7876 11.5668 18.0555 11.1154 18.2144 10.6034L17.9279 10.5145ZM17.1974 11.746L16.9828 11.5364C16.6734 11.8531 16.2878 12.1044 15.8202 12.2877L15.9296 12.567L16.0391 12.8464C16.5776 12.6353 17.0372 12.3392 17.412 11.9557L17.1974 11.746ZM15.9296 12.567L15.8221 12.287C15.3585 12.465 14.8303 12.5568 14.2333 12.5568V12.8568V13.1568C14.8919 13.1568 15.4946 13.0555 16.0372 12.8471L15.9296 12.567ZM20.24 12.6636H19.94V12.9636H20.24V12.6636ZM20.24 3.39091V3.09091H19.94V3.39091H20.24ZM21.6164 3.39091H21.9164V3.09091H21.6164V3.39091ZM21.6164 4.83977H21.3164V5.13977H21.6164V4.83977ZM21.7372 4.83977V5.13977H21.9421L22.0166 4.94883L21.7372 4.83977ZM22.6729 3.68672L22.8338 3.93992L22.8355 3.93884L22.6729 3.68672ZM25.7517 3.68672L25.5825 3.93445L25.5853 3.93633L25.7517 3.68672ZM26.7116 4.83977L26.4394 4.96591L26.52 5.13977H26.7116V4.83977ZM26.8082 4.83977V5.13977H26.9943L27.077 4.97303L26.8082 4.83977ZM27.8767 3.69879L28.0298 3.95681L28.0314 3.95585L27.8767 3.69879ZM31.6196 4.04893L31.4091 4.26269L31.41 4.26351L31.6196 4.04893ZM32.4105 12.6636V12.9636H32.7105V12.6636H32.4105ZM30.9858 12.6636H30.6858V12.9636H30.9858V12.6636ZM30.4243 4.99069L30.2391 5.22668V5.22668L30.4243 4.99069ZM27.587 5.14162L27.808 5.34444L27.809 5.34331L27.587 5.14162ZM27.0497 12.6636V12.9636H27.3497V12.6636H27.0497ZM25.6008 12.6636H25.3008V12.9636H25.6008V12.6636ZM25.0877 5.03899L24.8807 5.25618L24.8821 5.25745L25.0877 5.03899ZM22.7272 4.84581L22.5705 4.58998L22.5691 4.59087L22.7272 4.84581ZM21.9545 5.66683L21.6931 5.51961L21.6925 5.52062L21.9545 5.66683ZM21.6647 12.6636V12.9636H21.9647V12.6636H21.6647ZM20.24 12.6636H20.54V3.39091H20.24H19.94V12.6636H20.24ZM20.24 3.39091V3.69091H21.6164V3.39091V3.09091H20.24V3.39091ZM21.6164 3.39091H21.3164V4.83977H21.6164H21.9164V3.39091H21.6164ZM21.6164 4.83977V5.13977H21.7372V4.83977V4.53977H21.6164V4.83977ZM21.7372 4.83977L22.0166 4.94883C22.1877 4.5106 22.4593 4.17789 22.8338 3.93991L22.6729 3.68672L22.512 3.43352C22.0252 3.7429 21.673 4.17888 21.4577 4.73071L21.7372 4.83977ZM22.6729 3.68672L22.8355 3.93884C23.2096 3.69761 23.6679 3.57017 24.2244 3.57017V3.27017V2.97017C23.5735 2.97017 22.9975 3.12042 22.5103 3.43459L22.6729 3.68672ZM24.2244 3.27017V3.57017C24.7905 3.57017 25.2368 3.69826 25.5825 3.93443L25.7517 3.68672L25.921 3.439C25.4537 3.11978 24.8818 2.97017 24.2244 2.97017V3.27017ZM25.7517 3.68672L25.5853 3.93633C25.9451 4.17619 26.2307 4.51552 26.4394 4.96591L26.7116 4.83977L26.9838 4.71363C26.7337 4.17396 26.3794 3.74459 25.9181 3.4371L25.7517 3.68672ZM26.7116 4.83977V5.13977H26.8082V4.83977V4.53977H26.7116V4.83977ZM26.8082 4.83977L27.077 4.97303C27.2878 4.54776 27.603 4.21001 28.0298 3.95681L27.8767 3.69879L27.7237 3.44077C27.2007 3.75101 26.8035 4.17392 26.5394 4.70651L26.8082 4.83977ZM27.8767 3.69879L28.0314 3.95585C28.4511 3.70331 28.9648 3.57017 29.5852 3.57017V3.27017V2.97017C28.8775 2.97017 28.2522 3.12278 27.7221 3.44174L27.8767 3.69879ZM29.5852 3.27017V3.57017C30.3458 3.57017 30.945 3.80564 31.4091 4.26269L31.6196 4.04893L31.8301 3.83518C31.2398 3.25388 30.4827 2.97017 29.5852 2.97017V3.27017ZM31.6196 4.04893L31.41 4.26351C31.8567 4.69997 32.1105 5.40914 32.1105 6.45767H32.4105H32.7105C32.7105 5.32486 32.437 4.4282 31.8293 3.83436L31.6196 4.04893ZM32.4105 6.45767H32.1105V12.6636H32.4105H32.7105V6.45767H32.4105ZM32.4105 12.6636V12.3636H30.9858V12.6636V12.9636H32.4105V12.6636ZM30.9858 12.6636H31.2858V6.45767H30.9858H30.6858V12.6636H30.9858ZM30.9858 6.45767H31.2858C31.2858 5.72355 31.084 5.12714 30.6096 4.75471L30.4243 4.99069L30.2391 5.22668C30.5132 5.44185 30.6858 5.82341 30.6858 6.45767H30.9858ZM30.4243 4.99069L30.6096 4.75471C30.1788 4.41661 29.6718 4.25 29.1022 4.25V4.55V4.85C29.5469 4.85 29.9212 4.97718 30.2391 5.22668L30.4243 4.99069ZM29.1022 4.55V4.25C28.3861 4.25 27.7924 4.46922 27.3649 4.93993L27.587 5.14162L27.809 5.34331C28.0979 5.02519 28.5144 4.85 29.1022 4.85V4.55ZM27.587 5.14162L27.3659 4.9388C26.9502 5.3919 26.7497 5.96258 26.7497 6.6267H27.0497H27.3497C27.3497 6.09149 27.5074 5.67211 27.808 5.34444L27.587 5.14162ZM27.0497 6.6267H26.7497V12.6636H27.0497H27.3497V6.6267H27.0497ZM27.0497 12.6636V12.3636H25.6008V12.6636V12.9636H27.0497V12.6636ZM25.6008 12.6636H25.9008V6.31278H25.6008H25.3008V12.6636H25.6008ZM25.6008 6.31278H25.9008C25.9008 5.71399 25.7033 5.20641 25.2933 4.82053L25.0877 5.03899L24.8821 5.25745C25.1562 5.51551 25.3008 5.85712 25.3008 6.31278H25.6008ZM25.0877 5.03899L25.2946 4.82181C24.8888 4.43507 24.3702 4.25 23.7656 4.25V4.55V4.85C24.2396 4.85 24.6024 4.99092 24.8807 5.25617L25.0877 5.03899ZM23.7656 4.55V4.25C23.3389 4.25 22.9387 4.36449 22.5705 4.58998L22.7272 4.84581L22.8839 5.10163C23.1597 4.93271 23.4518 4.85 23.7656 4.85V4.55ZM22.7272 4.84581L22.5691 4.59087C22.205 4.81667 21.9132 5.1288 21.6931 5.51961L21.9545 5.66683L22.2159 5.81405C22.3902 5.50458 22.6135 5.26936 22.8854 5.10075L22.7272 4.84581ZM21.9545 5.66683L21.6925 5.52062C21.4709 5.91765 21.3647 6.36985 21.3647 6.86818H21.6647H21.9647C21.9647 6.45695 22.0517 6.10824 22.2165 5.81304L21.9545 5.66683ZM21.6647 6.86818H21.3647V12.6636H21.6647H21.9647V6.86818H21.6647ZM21.6647 12.6636V12.3636H20.24V12.6636V12.9636H21.6647V12.6636ZM36.1443 12.5489L36.0166 12.8204L36.0184 12.8213L36.1443 12.5489ZM35.0033 11.577L34.753 11.7423L34.7537 11.7434L35.0033 11.577ZM34.8947 8.73963L35.148 8.90029L35.1489 8.8989L34.8947 8.73963ZM36.8929 7.53224L36.9571 7.8253L36.9591 7.82484L36.8929 7.53224ZM38.1788 7.30284L38.1405 7.00529L38.1398 7.00537L38.1788 7.30284ZM39.5491 7.13984L39.58 7.43826L39.583 7.43792L39.5491 7.13984ZM40.3219 6.94062L40.1751 6.67897L40.1723 6.68055L40.3219 6.94062ZM40.0804 5.02088L39.8657 5.23038L39.867 5.23171L40.0804 5.02088ZM37.0136 4.97258L37.1968 5.21019V5.21019L37.0136 4.97258ZM36.1986 5.92642L36.0977 6.20894L36.3555 6.30099L36.4707 6.05275L36.1986 5.92642ZM34.8464 5.44346L34.5706 5.32529L34.4449 5.61864L34.7455 5.72599L34.8464 5.44346ZM35.8123 4.12741L35.9968 4.36396L35.9971 4.36371L35.8123 4.12741ZM37.1404 3.46335L37.216 3.75367L37.2177 3.75322L37.1404 3.46335ZM39.5914 3.37883L39.5361 3.67372L39.5396 3.67433L39.5914 3.37883ZM40.7203 3.80746L40.566 4.06471L40.5672 4.06545L40.7203 3.80746ZM41.6319 4.79148L41.3691 4.93614V4.93614L41.6319 4.79148ZM41.9941 12.6636V12.9636H42.2941V12.6636H41.9941ZM40.5694 12.6636H40.2694V12.9636H40.5694V12.6636ZM40.5694 11.408H40.8694V11.108H40.5694V11.408ZM40.4969 11.408V11.108H40.3082L40.2265 11.2781L40.4969 11.408ZM40.014 12.0539L40.228 12.2642V12.2642L40.014 12.0539ZM39.1145 12.6395L38.9959 12.3639V12.3639L39.1145 12.6395ZM39.3861 11.2691L39.2382 11.0081L39.237 11.0088L39.3861 11.2691ZM40.2675 10.4119L40.0074 10.2624L40.0061 10.2646L40.2675 10.4119ZM40.5694 8.00312H40.8694V7.17451L40.3389 7.81107L40.5694 8.00312ZM40.1709 8.20234L40.2518 8.49126L40.2556 8.49015L40.1709 8.20234ZM39.4707 8.35327L39.5163 8.6498L39.52 8.64918L39.4707 8.35327ZM38.704 8.46193L38.7382 8.76L38.7424 8.75946L38.704 8.46193ZM38.1063 8.53437L38.1451 8.83185L38.1454 8.83181L38.1063 8.53437ZM37.068 8.76981L37.1617 9.05479L37.1639 9.05406L37.068 8.76981ZM36.2952 9.24673L36.075 9.04308L36.0748 9.04325L36.2952 9.24673ZM36.5548 11.2268L36.384 11.4735L36.3872 11.4756L36.5548 11.2268ZM37.7441 12.881V12.581C37.195 12.581 36.7054 12.4778 36.2702 12.2766L36.1443 12.5489L36.0184 12.8213C36.5411 13.0628 37.118 13.181 37.7441 13.181V12.881ZM36.1443 12.5489L36.272 12.2775C35.8404 12.0743 35.5031 11.7857 35.2529 11.4106L35.0033 11.577L34.7537 11.7434C35.0671 12.2134 35.4904 12.5728 36.0166 12.8204L36.1443 12.5489ZM35.0033 11.577L35.2537 11.4117C35.0098 11.0424 34.8807 10.5873 34.8807 10.0315H34.5807H34.2807C34.2807 10.6832 34.4334 11.2583 34.753 11.7423L35.0033 11.577ZM34.5807 10.0315H34.8807C34.8807 9.53737 34.9783 9.1679 35.148 8.90029L34.8947 8.73963L34.6413 8.57897C34.3925 8.97139 34.2807 9.4632 34.2807 10.0315H34.5807ZM34.8947 8.73963L35.1489 8.8989C35.3304 8.60925 35.5714 8.38353 35.8764 8.21877L35.7338 7.95483L35.5912 7.69088C35.1959 7.90444 34.8775 8.20192 34.6404 8.58035L34.8947 8.73963ZM35.7338 7.95483L35.8764 8.21877C36.1998 8.04403 36.5595 7.91238 36.9571 7.82529L36.8929 7.53224L36.8287 7.23919C36.3811 7.33723 35.968 7.48731 35.5912 7.69088L35.7338 7.95483ZM36.8929 7.53224L36.9591 7.82484C37.3768 7.73028 37.7963 7.65544 38.2177 7.6003L38.1788 7.30284L38.1398 7.00537C37.7 7.06293 37.2622 7.14103 36.8266 7.23965L36.8929 7.53224ZM38.1788 7.30284L38.217 7.60039C38.7793 7.5281 39.2334 7.47411 39.58 7.43825L39.5491 7.13984L39.5183 6.84143C39.1646 6.87802 38.7051 6.9327 38.1405 7.00529L38.1788 7.30284ZM39.5491 7.13984L39.583 7.43792C39.9473 7.39652 40.2554 7.32488 40.4714 7.2007L40.3219 6.94062L40.1723 6.68055C40.0663 6.7415 39.8593 6.80267 39.5153 6.84176L39.5491 7.13984ZM40.3219 6.94062L40.4686 7.20227C40.7499 7.04449 40.8694 6.7683 40.8694 6.45767H40.5694H40.2694C40.2694 6.60585 40.2239 6.65163 40.1751 6.67898L40.3219 6.94062ZM40.5694 6.45767H40.8694V6.40937H40.5694H40.2694V6.45767H40.5694ZM40.5694 6.40937H40.8694C40.8694 5.75823 40.6898 5.21094 40.2938 4.81005L40.0804 5.02088L39.867 5.23171C40.123 5.49086 40.2694 5.86923 40.2694 6.40937H40.5694ZM40.0804 5.02088L40.2951 4.81138C39.8964 4.40269 39.3157 4.22585 38.6134 4.22585V4.52585V4.82585C39.2232 4.82585 39.6204 4.97903 39.8657 5.23038L40.0804 5.02088ZM38.6134 4.52585V4.22585C37.8926 4.22585 37.2865 4.38344 36.8305 4.73498L37.0136 4.97258L37.1968 5.21019C37.5135 4.96608 37.9739 4.82585 38.6134 4.82585V4.52585ZM37.0136 4.97258L36.8305 4.73498C36.4173 5.05345 36.1091 5.40694 35.9265 5.80009L36.1986 5.92642L36.4707 6.05275C36.6021 5.76976 36.8372 5.48736 37.1968 5.21019L37.0136 4.97258ZM36.1986 5.92642L36.2995 5.6439L34.9473 5.16094L34.8464 5.44346L34.7455 5.72599L36.0977 6.20894L36.1986 5.92642ZM34.8464 5.44346L35.1221 5.56164C35.3476 5.03539 35.6415 4.64106 35.9968 4.36396L35.8123 4.12741L35.6278 3.89086C35.1781 4.24161 34.828 4.72464 34.5706 5.32529L34.8464 5.44346ZM35.8123 4.12741L35.9971 4.36371C36.3727 4.06995 36.7785 3.86764 37.216 3.75366L37.1404 3.46335L37.0648 3.17304C36.5444 3.30859 36.0648 3.54899 35.6274 3.89111L35.8123 4.12741ZM37.1404 3.46335L37.2177 3.75322C37.6772 3.63069 38.1261 3.57017 38.5651 3.57017V3.27017V2.97017C38.0704 2.97017 37.5695 3.03844 37.0631 3.17348L37.1404 3.46335ZM38.5651 3.27017V3.57017C38.8396 3.57017 39.1626 3.60366 39.5361 3.6737L39.5914 3.37883L39.6467 3.08397C39.2475 3.00912 38.8863 2.97017 38.5651 2.97017V3.27017ZM39.5914 3.37883L39.5396 3.67433C39.8914 3.73599 40.2332 3.86505 40.566 4.0647L40.7203 3.80746L40.8747 3.55021C40.483 3.3152 40.0721 3.15852 39.6432 3.08334L39.5914 3.37883ZM40.7203 3.80746L40.5672 4.06545C40.8799 4.251 41.1488 4.53603 41.3691 4.93614L41.6319 4.79148L41.8947 4.64681C41.632 4.16956 41.2932 3.79857 40.8734 3.54946L40.7203 3.80746ZM41.6319 4.79148L41.3691 4.93614C41.5773 5.3145 41.6941 5.84621 41.6941 6.55426H41.9941H42.2941C42.2941 5.7893 42.1694 5.14582 41.8947 4.64681L41.6319 4.79148ZM41.9941 6.55426H41.6941V12.6636H41.9941H42.2941V6.55426H41.9941ZM41.9941 12.6636V12.3636H40.5694V12.6636V12.9636H41.9941V12.6636ZM40.5694 12.6636H40.8694V11.408H40.5694H40.2694V12.6636H40.5694ZM40.5694 11.408V11.108H40.4969V11.408V11.708H40.5694V11.408ZM40.4969 11.408L40.2265 11.2781C40.1489 11.4397 40.0115 11.6283 39.8 11.8437L40.014 12.0539L40.228 12.2642C40.4672 12.0207 40.6517 11.7787 40.7674 11.5378L40.4969 11.408ZM40.014 12.0539L39.8 11.8437C39.6081 12.039 39.3437 12.2143 38.9959 12.3639L39.1145 12.6395L39.233 12.9151C39.6339 12.7427 39.9691 12.5277 40.228 12.2642L40.014 12.0539ZM39.1145 12.6395L38.9959 12.3639C38.6691 12.5045 38.2552 12.581 37.7441 12.581V12.881V13.181C38.3116 13.181 38.8113 13.0965 39.233 12.9151L39.1145 12.6395ZM37.9614 11.6011V11.9011C38.5635 11.9011 39.093 11.7828 39.5353 11.5294L39.3861 11.2691L39.237 11.0088C38.9066 11.1981 38.4862 11.3011 37.9614 11.3011V11.6011ZM39.3861 11.2691L39.5341 11.5301C39.9663 11.285 40.3019 10.9621 40.5289 10.5591L40.2675 10.4119L40.0061 10.2646C39.8387 10.5619 39.5868 10.8105 39.2382 11.0081L39.3861 11.2691ZM40.2675 10.4119L40.5276 10.5613C40.7538 10.1679 40.8694 9.74834 40.8694 9.3071H40.5694H40.2694C40.2694 9.63859 40.1838 9.95557 40.0074 10.2624L40.2675 10.4119ZM40.5694 9.3071H40.8694V8.00312H40.5694H40.2694V9.3071H40.5694ZM40.5694 8.00312L40.3389 7.81107C40.3461 7.80249 40.3387 7.81476 40.2903 7.83893C40.2451 7.86156 40.1786 7.88738 40.0863 7.91453L40.1709 8.20234L40.2556 8.49015C40.3685 8.45694 40.4711 8.41937 40.5587 8.37559C40.6431 8.33335 40.7323 8.2762 40.7998 8.19518L40.5694 8.00312ZM40.1709 8.20234L40.0901 7.91345C39.9017 7.9662 39.6792 8.01437 39.4213 8.05735L39.4707 8.35327L39.52 8.64918C39.7934 8.60362 40.0378 8.55117 40.2518 8.49123L40.1709 8.20234ZM39.4707 8.35327L39.425 8.05675C39.1657 8.09665 38.9126 8.13253 38.6656 8.1644L38.704 8.46193L38.7424 8.75946C38.9944 8.72694 39.2524 8.69037 39.5163 8.64978L39.4707 8.35327ZM38.704 8.46193L38.6698 8.16389C38.4235 8.19215 38.2224 8.21651 38.0672 8.23694L38.1063 8.53437L38.1454 8.83181C38.2961 8.81199 38.4935 8.78806 38.7382 8.75997L38.704 8.46193ZM38.1063 8.53437L38.0675 8.23689C37.6797 8.28748 37.3143 8.37006 36.972 8.48557L37.068 8.76981L37.1639 9.05406C37.4656 8.95224 37.7924 8.87786 38.1451 8.83185L38.1063 8.53437ZM37.068 8.76981L36.9742 8.48485C36.6153 8.60297 36.3117 8.78701 36.075 9.04308L36.2952 9.24673L36.5155 9.45039C36.6732 9.27984 36.8847 9.14594 37.1617 9.05478L37.068 8.76981ZM36.2952 9.24673L36.0748 9.04325C35.8177 9.32181 35.7055 9.68761 35.7055 10.104H36.0055H36.3055C36.3055 9.79591 36.3864 9.59022 36.5157 9.45022L36.2952 9.24673ZM36.0055 10.104H35.7055C35.7055 10.6846 35.9269 11.157 36.3841 11.4735L36.5548 11.2268L36.7256 10.9802C36.4503 10.7896 36.3055 10.5134 36.3055 10.104H36.0055ZM36.5548 11.2268L36.3872 11.4756C36.8188 11.7665 37.3504 11.9011 37.9614 11.9011V11.6011V11.3011C37.4375 11.3011 37.0313 11.1862 36.7225 10.9781L36.5548 11.2268ZM50.9514 12.2652L50.7935 12.5203L50.7954 12.5215L50.9514 12.2652ZM49.4603 10.599L49.1901 10.7295L49.191 10.7313L49.4603 10.599ZM49.4603 5.58835L49.1899 5.45839L49.1896 5.45902L49.4603 5.58835ZM50.9212 3.88594L51.085 4.13728L51.0854 4.13703L50.9212 3.88594ZM54.5494 3.51165L54.6465 3.22778V3.22778L54.5494 3.51165ZM55.8353 4.29645L55.6301 4.51531L55.6313 4.51645L55.8353 4.29645ZM56.7589 5.72116L57.0386 5.61271V5.61271L56.7589 5.72116ZM57.103 8.51023V8.81023H57.403V8.51023H57.103ZM49.9553 8.51023H49.6553V8.81023H49.9553V8.51023ZM49.9553 7.27869V6.97869H49.6553V7.27869H49.9553ZM55.6542 7.27869V7.57869H55.9542V7.27869H55.6542ZM55.3402 5.87812L55.0719 6.01229L55.073 6.01438L55.3402 5.87812ZM54.4589 4.90618L54.2994 5.16028L54.3006 5.16103L54.4589 4.90618ZM51.6456 4.97258L51.8137 5.22107L51.8143 5.22071L51.6456 4.97258ZM50.6978 6.05923L50.429 5.92604V5.92604L50.6978 6.05923ZM50.728 10.0979L50.4592 10.2312L50.4606 10.2339L50.728 10.0979ZM51.7483 11.2027L51.5971 11.4618L51.5989 11.4629L51.7483 11.2027ZM54.2777 11.42L54.376 11.7035L54.3782 11.7027L54.2777 11.42ZM55.0686 10.9371L55.2768 11.1531L55.2788 11.1511L55.0686 10.9371ZM55.5817 10.1281L55.6628 9.83929L55.3976 9.76483L55.3008 10.0228L55.5817 10.1281ZM56.9581 10.5145L57.2447 10.6034L57.336 10.309L57.0392 10.2257L56.9581 10.5145ZM56.2277 11.746L56.4423 11.9557L56.4435 11.9544L56.2277 11.746ZM54.9599 12.567L55.0675 12.8471L55.0694 12.8464L54.9599 12.567ZM53.2635 12.8568V12.5568C52.4152 12.5568 51.7006 12.37 51.1074 12.0089L50.9514 12.2652L50.7954 12.5215C51.4982 12.9492 52.325 13.1568 53.2635 13.1568V12.8568ZM50.9514 12.2652L51.1092 12.0101C50.5156 11.6428 50.056 11.131 49.7295 10.4667L49.4603 10.599L49.191 10.7313C49.5648 11.4917 50.0993 12.0908 50.7935 12.5203L50.9514 12.2652ZM49.4603 10.599L49.7304 10.4685C49.4074 9.79995 49.2411 9.01299 49.2411 8.09971H48.9411H48.6411C48.6411 9.08606 48.8209 9.96529 49.1901 10.7295L49.4603 10.599ZM48.9411 8.09971H49.2411C49.2411 7.18654 49.4074 6.39499 49.731 5.71768L49.4603 5.58835L49.1896 5.45902C48.8209 6.23057 48.6411 7.11327 48.6411 8.09971H48.9411ZM49.4603 5.58835L49.7307 5.71832C50.0591 5.03493 50.511 4.51127 51.085 4.13728L50.9212 3.88594L50.7574 3.63459C50.0837 4.07357 49.5617 4.68486 49.1899 5.45839L49.4603 5.58835ZM50.9212 3.88594L51.0854 4.13703C51.6589 3.76206 52.3328 3.57017 53.1187 3.57017V3.27017V2.97017C52.2302 2.97017 51.4392 3.1888 50.757 3.63484L50.9212 3.88594ZM53.1187 3.27017V3.57017C53.5676 3.57017 54.0118 3.64488 54.4524 3.79552L54.5494 3.51165L54.6465 3.22778C54.1453 3.05644 53.6356 2.97017 53.1187 2.97017V3.27017ZM54.5494 3.51165L54.4524 3.79552C54.8804 3.94187 55.2727 4.18028 55.6301 4.51531L55.8353 4.29645L56.0405 4.07759C55.6251 3.68818 55.1601 3.40339 54.6465 3.22778L54.5494 3.51165ZM55.8353 4.29645L55.6313 4.51645C55.9782 4.838 56.263 5.27189 56.4792 5.82962L56.7589 5.72116L57.0386 5.61271C56.7961 4.9872 56.4651 4.47128 56.0392 4.07645L55.8353 4.29645ZM56.7589 5.72116L56.4792 5.82962C56.6913 6.37658 56.803 7.06573 56.803 7.90653H57.103H57.403C57.403 7.01675 57.2854 6.24899 57.0386 5.61271L56.7589 5.72116ZM57.103 7.90653H56.803V8.51023H57.103H57.403V7.90653H57.103ZM57.103 8.51023V8.21023H49.9553V8.51023V8.81023H57.103V8.51023ZM49.9553 8.51023H50.2553V7.27869H49.9553H49.6553V8.51023H49.9553ZM49.9553 7.27869V7.57869H55.6542V7.27869V6.97869H49.9553V7.27869ZM55.6542 7.27869H55.9542C55.9542 6.71459 55.8411 6.19998 55.6075 5.74187L55.3402 5.87812L55.073 6.01438C55.258 6.37729 55.3542 6.79639 55.3542 7.27869H55.6542ZM55.3402 5.87812L55.6086 5.74396C55.379 5.28485 55.0476 4.91866 54.6171 4.65133L54.4589 4.90618L54.3006 5.16103C54.6348 5.3686 54.891 5.65038 55.0719 6.01229L55.3402 5.87812ZM54.4589 4.90618L54.6183 4.65208C54.1853 4.38026 53.6814 4.25 53.1187 4.25V4.55V4.85C53.5862 4.85 53.9758 4.95719 54.2994 5.16027L54.4589 4.90618ZM53.1187 4.55V4.25C52.4993 4.25 51.9477 4.40459 51.477 4.72446L51.6456 4.97258L51.8143 5.22071C52.1727 4.97713 52.6031 4.85 53.1187 4.85V4.55ZM51.6456 4.97258L51.4775 4.7241C51.0238 5.03105 50.6733 5.4331 50.429 5.92604L50.6978 6.05923L50.9667 6.19243C51.1651 5.7919 51.4465 5.46951 51.8137 5.22107L51.6456 4.97258ZM50.6978 6.05923L50.429 5.92604C50.1866 6.41524 50.0658 6.93989 50.0658 7.49602H50.3658H50.6658C50.6658 7.0299 50.7663 6.59669 50.9667 6.19243L50.6978 6.05923ZM50.3658 7.49602H50.0658V8.31704H50.3658H50.6658V7.49602H50.3658ZM50.3658 8.31704H50.0658C50.0658 9.05068 50.1922 9.69263 50.4593 10.2312L50.728 10.0979L50.9968 9.96466C50.7809 9.52929 50.6658 8.98398 50.6658 8.31704H50.3658ZM50.728 10.0979L50.4606 10.2339C50.7301 10.7641 51.1088 11.177 51.5971 11.4618L51.7483 11.2027L51.8994 10.9436C51.5184 10.7213 51.2169 10.3977 50.9955 9.962L50.728 10.0979ZM51.7483 11.2027L51.5989 11.4629C52.0854 11.7422 52.6435 11.877 53.2635 11.877V11.577V11.277C52.7325 11.277 52.2805 11.1623 51.8976 10.9425L51.7483 11.2027ZM53.2635 11.577V11.877C53.6657 11.877 54.0377 11.8208 54.376 11.7035L54.2777 11.42L54.1795 11.1366C53.9141 11.2286 53.61 11.277 53.2635 11.277V11.577ZM54.2777 11.42L54.3782 11.7027C54.722 11.5806 55.0229 11.3977 55.2767 11.1531L55.0686 10.9371L54.8604 10.721C54.6715 10.9031 54.4452 11.0422 54.1773 11.1373L54.2777 11.42ZM55.0686 10.9371L55.2788 11.1511C55.5346 10.9 55.7282 10.5919 55.8626 10.2335L55.5817 10.1281L55.3008 10.0228C55.1938 10.3083 55.0453 10.5395 54.8584 10.723L55.0686 10.9371ZM55.5817 10.1281L55.5006 10.417L56.8771 10.8033L56.9581 10.5145L57.0392 10.2257L55.6628 9.83929L55.5817 10.1281ZM56.9581 10.5145L56.6716 10.4256C56.5407 10.8473 56.3216 11.2169 56.0119 11.5376L56.2277 11.746L56.4435 11.9544C56.8179 11.5668 57.0858 11.1154 57.2447 10.6034L56.9581 10.5145ZM56.2277 11.746L56.0131 11.5364C55.7037 11.8531 55.3181 12.1044 54.8504 12.2877L54.9599 12.567L55.0694 12.8464C55.6079 12.6353 56.0675 12.3392 56.4423 11.9557L56.2277 11.746ZM54.9599 12.567L54.8524 12.287C54.3888 12.465 53.8606 12.5568 53.2635 12.5568V12.8568V13.1568C53.9222 13.1568 54.5249 13.0555 55.0675 12.8471L54.9599 12.567ZM65.8385 5.46761L65.9202 5.75627L66.223 5.67058L66.1229 5.37222L65.8385 5.46761ZM64.5586 5.82983L64.278 5.93575L64.3752 6.19352L64.6403 6.11849L64.5586 5.82983ZM64.2025 5.20802L63.9618 5.38731L63.9659 5.39253L64.2025 5.20802ZM63.5746 4.70092L63.7088 4.43259V4.43259L63.5746 4.70092ZM61.1357 4.8941L61.3058 5.14124L61.3063 5.14086L61.1357 4.8941ZM60.9606 6.71726L60.7737 6.95188V6.95188L60.9606 6.71726ZM62.168 7.2304L62.0953 7.52144L62.0965 7.52174L62.168 7.2304ZM63.5444 7.56846L63.4729 7.85981L63.4737 7.86L63.5444 7.56846ZM65.3978 8.49212L65.1836 8.70216L65.1846 8.7032L65.3978 8.49212ZM65.5487 11.5045L65.3065 11.3275L65.3054 11.3291L65.5487 11.5045ZM60.037 12.2411L60.2026 11.9909V11.9909L60.037 12.2411ZM58.8598 10.442L58.787 10.151L58.507 10.221L58.5661 10.5035L58.8598 10.442ZM60.212 10.104L60.5025 10.029L60.4281 9.74072L60.1393 9.81293L60.212 10.104ZM60.9425 11.2268L60.771 11.473L60.7723 11.4739L60.9425 11.2268ZM63.9429 11.1785L64.1184 11.4218L64.1189 11.4215L63.9429 11.1785ZM64.1964 9.34332L63.9862 9.55737L63.9882 9.55928L64.1964 9.34332ZM63.1581 8.84829L63.0896 9.14038L63.0901 9.14048L63.1581 8.84829ZM61.6126 8.48608L61.5434 8.778L61.5442 8.77816L61.6126 8.48608ZM59.7412 7.55035L59.5209 7.75402L59.5229 7.75616L59.7412 7.55035ZM59.5902 4.56207L59.3491 4.38362L59.3479 4.38519L59.5902 4.56207ZM60.8037 3.61427L60.6816 3.34022L60.6808 3.34058L60.8037 3.61427ZM64.7156 3.87386L64.5327 4.11165L64.5336 4.11232L64.7156 3.87386ZM65.8385 5.46761L65.7568 5.17895L64.4769 5.54117L64.5586 5.82983L64.6403 6.11849L65.9202 5.75627L65.8385 5.46761ZM64.5586 5.82983L64.8393 5.72391C64.747 5.47919 64.6124 5.24576 64.439 5.02351L64.2025 5.20802L63.9659 5.39253C64.1065 5.57275 64.2093 5.75386 64.278 5.93575L64.5586 5.82983ZM64.2025 5.20802L64.443 5.02878C64.2579 4.78032 64.0096 4.58302 63.7088 4.43259L63.5746 4.70092L63.4405 4.96925C63.6709 5.08445 63.8411 5.22521 63.9619 5.38727L64.2025 5.20802ZM63.5746 4.70092L63.7088 4.43259C63.3884 4.27238 62.9981 4.2017 62.5544 4.2017V4.5017V4.8017C62.9397 4.8017 63.2296 4.86384 63.4405 4.96925L63.5746 4.70092ZM62.5544 4.5017V4.2017C61.9403 4.2017 61.4042 4.34371 60.9651 4.64735L61.1357 4.8941L61.3063 5.14086C61.6238 4.9213 62.0335 4.8017 62.5544 4.8017V4.5017ZM61.1357 4.8941L60.9656 4.64697C60.5232 4.95141 60.2743 5.36589 60.2743 5.87812H60.5743H60.8743C60.8743 5.59349 60.9996 5.35195 61.3058 5.14124L61.1357 4.8941ZM60.5743 5.87812H60.2743C60.2743 6.31572 60.4387 6.68495 60.7737 6.95188L60.9606 6.71726L61.1476 6.48264C60.9674 6.33906 60.8743 6.14886 60.8743 5.87812H60.5743ZM60.9606 6.71726L60.7737 6.95188C61.0807 7.19653 61.5318 7.38059 62.0953 7.52144L62.168 7.2304L62.2408 6.93935C61.7095 6.80653 61.3557 6.6485 61.1476 6.48264L60.9606 6.71726ZM62.168 7.2304L62.0965 7.52174L63.4729 7.85981L63.5444 7.56846L63.616 7.27712L62.2396 6.93906L62.168 7.2304ZM63.5444 7.56846L63.4737 7.86C64.2723 8.05384 64.8307 8.34225 65.1836 8.70216L65.3978 8.49212L65.612 8.28207C65.1519 7.81291 64.4747 7.48555 63.6152 7.27693L63.5444 7.56846ZM65.3978 8.49212L65.1846 8.7032C65.5285 9.0505 65.7075 9.50043 65.7075 10.0798H66.0075H66.3075C66.3075 9.3633 66.08 8.75475 65.6109 8.28103L65.3978 8.49212ZM66.0075 10.0798H65.7075C65.7075 10.5491 65.5738 10.9617 65.3065 11.3275L65.5487 11.5045L65.7909 11.6815C66.1353 11.2103 66.3075 10.673 66.3075 10.0798H66.0075ZM65.5487 11.5045L65.3054 11.3291C65.039 11.6984 64.6614 11.9972 64.1591 12.2205L64.2809 12.4946L64.4028 12.7687C64.9871 12.509 65.4547 12.1478 65.792 11.68L65.5487 11.5045ZM64.2809 12.4946L64.1591 12.2205C63.6614 12.4417 63.0725 12.5568 62.3853 12.5568V12.8568V13.1568C63.139 13.1568 63.8139 13.0305 64.4028 12.7687L64.2809 12.4946ZM62.3853 12.8568V12.5568C61.4825 12.5568 60.7615 12.3611 60.2026 11.9909L60.037 12.2411L59.8713 12.4912C60.552 12.942 61.3966 13.1568 62.3853 13.1568V12.8568ZM60.037 12.2411L60.2026 11.9909C59.6545 11.6279 59.3038 11.0993 59.1534 10.3806L58.8598 10.442L58.5661 10.5035C58.7458 11.3624 59.1798 12.0332 59.8713 12.4912L60.037 12.2411ZM58.8598 10.442L58.9325 10.7331L60.2848 10.395L60.212 10.104L60.1393 9.81293L58.787 10.151L58.8598 10.442ZM60.212 10.104L59.9216 10.1789C60.0649 10.7342 60.3437 11.1753 60.771 11.473L60.9425 11.2268L61.114 10.9807C60.825 10.7793 60.6168 10.4718 60.5025 10.029L60.212 10.104ZM60.9425 11.2268L60.7723 11.4739C61.1986 11.7676 61.7364 11.9011 62.3612 11.9011V11.6011V11.3011C61.8188 11.3011 61.4109 11.1852 61.1127 10.9798L60.9425 11.2268ZM62.3612 11.6011V11.9011C63.0649 11.9011 63.6608 11.7521 64.1184 11.4218L63.9429 11.1785L63.7673 10.9353C63.4442 11.1685 62.9856 11.3011 62.3612 11.3011V11.6011ZM63.9429 11.1785L64.1189 11.4215C64.5717 11.0934 64.8345 10.6686 64.8345 10.1523H64.5345H64.2345C64.2345 10.4328 64.1029 10.6922 63.7669 10.9356L63.9429 11.1785ZM64.5345 10.1523H64.8345C64.8345 9.75144 64.6905 9.40302 64.4047 9.12737L64.1964 9.34332L63.9882 9.55928C64.1531 9.71828 64.2345 9.90916 64.2345 10.1523H64.5345ZM64.1964 9.34332L64.4066 9.12929C64.1266 8.85426 63.7209 8.67128 63.2261 8.5561L63.1581 8.84829L63.0901 9.14048C63.529 9.24264 63.8155 9.38968 63.9862 9.55736L64.1964 9.34332ZM63.1581 8.84829L63.2265 8.55621L61.6811 8.19399L61.6126 8.48608L61.5442 8.77816L63.0896 9.14038L63.1581 8.84829ZM61.6126 8.48608L61.6818 8.19416C60.8628 8.00009 60.3022 7.70806 59.9594 7.34455L59.7412 7.55035L59.5229 7.75616C59.977 8.23781 60.664 8.56961 61.5434 8.77799L61.6126 8.48608ZM59.7412 7.55035L59.9614 7.3467C59.6237 6.98134 59.4495 6.52329 59.4495 5.95057H59.1495H58.8495C58.8495 6.65767 59.0698 7.26615 59.5209 7.75401L59.7412 7.55035ZM59.1495 5.95057H59.4495C59.4495 5.48756 59.5782 5.08739 59.8326 4.73896L59.5902 4.56207L59.3479 4.38519C59.0147 4.84168 58.8495 5.36717 58.8495 5.95057H59.1495ZM59.5902 4.56207L59.8314 4.74053C60.0951 4.38418 60.4566 4.09886 60.9265 3.88797L60.8037 3.61427L60.6808 3.34058C60.1284 3.5885 59.681 3.93504 59.3491 4.38362L59.5902 4.56207ZM60.8037 3.61427L60.9257 3.88833C61.3969 3.6785 61.9379 3.57017 62.5544 3.57017V3.27017V2.97017C61.8669 2.97017 61.2407 3.09124 60.6816 3.34022L60.8037 3.61427ZM62.5544 3.27017V3.57017C63.4312 3.57017 64.079 3.76264 64.5327 4.11165L64.7156 3.87386L64.8985 3.63607C64.3058 3.18016 63.5128 2.97017 62.5544 2.97017V3.27017ZM64.7156 3.87386L64.5336 4.11232C65.0107 4.47654 65.3508 4.95684 65.554 5.563L65.8385 5.46761L66.1229 5.37222C65.8835 4.65831 65.475 4.07611 64.8976 3.6354L64.7156 3.87386ZM69.6734 12.2411L69.5093 12.4921V12.4921L69.6734 12.2411ZM68.2366 5.58231L67.9665 5.45176L67.9662 5.4524L68.2366 5.58231ZM69.6976 3.88594L69.8614 4.13728L69.8617 4.13703L69.6976 3.88594ZM74.9437 4.64659L75.1815 4.46378V4.46378L74.9437 4.64659ZM75.5655 6.1679V6.4679H75.91L75.8626 6.12663L75.5655 6.1679ZM74.1408 6.1679L73.8502 6.24261L73.9081 6.4679H74.1408V6.1679ZM73.4163 5.04503L73.2167 5.269L73.2193 5.27125L73.4163 5.04503ZM70.4582 4.98466L70.6285 5.23166L70.629 5.23132L70.4582 4.98466ZM69.4863 6.19808L69.2123 6.07585L69.2119 6.07683L69.4863 6.19808ZM69.4802 9.89872L69.2041 10.0159L69.2048 10.0177L69.4802 9.89872ZM70.4462 11.1363L70.2727 11.3811L70.2738 11.3818L70.4462 11.1363ZM72.9273 11.3838L72.8096 11.1079V11.1079L72.9273 11.3838ZM73.694 10.8284L73.9207 11.0249V11.0249L73.694 10.8284ZM74.1408 9.95909V9.65909H73.9092L73.8505 9.88308L74.1408 9.95909ZM75.5655 9.95909L75.8623 10.0027L75.9128 9.65909H75.5655V9.95909ZM74.9678 11.4381L74.7249 11.2621L74.7246 11.2625L74.9678 11.4381ZM73.7182 12.4765L73.8507 12.7457L73.8515 12.7452L73.7182 12.4765ZM71.9192 12.8568V12.5568C71.0987 12.5568 70.4093 12.3637 69.8376 11.99L69.6734 12.2411L69.5093 12.4921C70.1933 12.9394 71.001 13.1568 71.9192 13.1568V12.8568ZM69.6734 12.2411L69.8376 11.99C69.2592 11.6118 68.8121 11.0905 68.4961 10.4172L68.2246 10.5447L67.953 10.6721C68.3132 11.4397 68.832 12.0493 69.5093 12.4921L69.6734 12.2411ZM68.2246 10.5447L68.4961 10.4172C68.1796 9.7427 68.0175 8.96433 68.0175 8.07557H67.7175H67.4175C67.4175 9.03813 67.5934 9.90583 67.953 10.6721L68.2246 10.5447ZM67.7175 8.07557H68.0175C68.0175 7.17082 68.1836 6.38549 68.507 5.71223L68.2366 5.58231L67.9662 5.4524C67.5975 6.21996 67.4175 7.09679 67.4175 8.07557H67.7175ZM68.2366 5.58231L68.5067 5.71286C68.8351 5.03352 69.287 4.51154 69.8614 4.13728L69.6976 3.88594L69.5338 3.63459C68.8605 4.07331 68.3385 4.68225 67.9665 5.45176L68.2366 5.58231ZM69.6976 3.88594L69.8617 4.13703C70.4352 3.76206 71.1092 3.57017 71.895 3.57017V3.27017V2.97017C71.0066 2.97017 70.2156 3.1888 69.5334 3.63484L69.6976 3.88594ZM71.895 3.27017V3.57017C72.5093 3.57017 73.0532 3.68374 73.5321 3.90477L73.6578 3.63239L73.7835 3.36C73.216 3.09808 72.5847 2.97017 71.895 2.97017V3.27017ZM73.6578 3.63239L73.5321 3.90477C74.0135 4.12698 74.4029 4.43521 74.7058 4.8294L74.9437 4.64659L75.1815 4.46378C74.8164 3.98865 74.3485 3.62075 73.7835 3.36L73.6578 3.63239ZM74.9437 4.64659L74.7058 4.8294C75.006 5.22003 75.1945 5.67755 75.2683 6.20917L75.5655 6.1679L75.8626 6.12663C75.7755 5.49915 75.5494 4.94246 75.1815 4.46378L74.9437 4.64659ZM75.5655 6.1679V5.8679H74.1408V6.1679V6.4679H75.5655V6.1679ZM74.1408 6.1679L74.4313 6.09318C74.3055 5.60395 74.0269 5.179 73.6134 4.8188L73.4163 5.04503L73.2193 5.27125C73.5543 5.56305 73.7587 5.88668 73.8502 6.24261L74.1408 6.1679ZM73.4163 5.04503L73.6159 4.82107C73.1773 4.4301 72.6004 4.25 71.9192 4.25V4.55V4.85C72.4936 4.85 72.9148 4.99991 73.2167 5.26898L73.4163 5.04503ZM71.9192 4.55V4.25C71.3086 4.25 70.7608 4.41032 70.2875 4.738L70.4582 4.98466L70.629 5.23132C70.9928 4.97945 71.419 4.85 71.9192 4.85V4.55ZM70.4582 4.98466L70.288 4.73766C69.8221 5.05881 69.465 5.50942 69.2123 6.07585L69.4863 6.19808L69.7603 6.32031C69.9744 5.84034 70.2653 5.482 70.6285 5.23166L70.4582 4.98466ZM69.4863 6.19808L69.2119 6.07683C68.9621 6.64203 68.8422 7.29473 68.8422 8.02727H69.1422H69.4422C69.4422 7.35924 69.5516 6.79249 69.7607 6.31933L69.4863 6.19808ZM69.1422 8.02727H68.8422C68.8422 8.77449 68.9597 9.43979 69.2041 10.0159L69.4802 9.89872L69.7564 9.78156C69.5501 9.29515 69.4422 8.71281 69.4422 8.02727H69.1422ZM69.4802 9.89872L69.2048 10.0177C69.4529 10.5922 69.8073 11.0512 70.2727 11.3811L70.4462 11.1363L70.6196 10.8915C70.2559 10.6338 69.9664 10.2677 69.7557 9.77979L69.4802 9.89872ZM70.4462 11.1363L70.2738 11.3818C70.748 11.7147 71.3006 11.877 71.9192 11.877V11.577V11.277C71.4108 11.277 70.9815 11.1455 70.6185 10.8907L70.4462 11.1363ZM71.9192 11.577V11.877C72.3247 11.877 72.7015 11.8063 73.0451 11.6597L72.9273 11.3838L72.8096 11.1079C72.5495 11.2189 72.2542 11.277 71.9192 11.277V11.577ZM72.9273 11.3838L73.0451 11.6597C73.3876 11.5136 73.6808 11.3017 73.9207 11.0249L73.694 10.8284L73.4673 10.6319C73.2887 10.838 73.0707 10.9965 72.8096 11.1079L72.9273 11.3838ZM73.694 10.8284L73.9207 11.0249C74.1629 10.7455 74.3319 10.4134 74.431 10.0351L74.1408 9.95909L73.8505 9.88308C73.7726 10.1809 73.6437 10.4284 73.4673 10.6319L73.694 10.8284ZM74.1408 9.95909V10.2591H75.5655V9.95909V9.65909H74.1408V9.95909ZM75.5655 9.95909L75.2687 9.91544C75.1951 10.416 75.0139 10.8634 74.7249 11.2621L74.9678 11.4381L75.2107 11.6142C75.5577 11.1355 75.7749 10.5969 75.8623 10.0027L75.5655 9.95909ZM74.9678 11.4381L74.7246 11.2625C74.4415 11.6545 74.064 11.97 73.5848 12.2077L73.7182 12.4765L73.8515 12.7452C74.4107 12.4678 74.8663 12.0911 75.211 11.6138L74.9678 11.4381ZM73.7182 12.4765L73.5857 12.2073C73.1189 12.4371 72.5661 12.5568 71.9192 12.5568V12.8568V13.1568C72.6406 13.1568 73.2871 13.023 73.8507 12.7457L73.7182 12.4765ZM83.492 3.39091V3.09091H83.192V3.39091H83.492ZM84.9167 3.39091H85.2167V3.09091H84.9167V3.39091ZM84.9167 12.6636V12.9636H85.2167V12.6636H84.9167ZM83.492 12.6636H83.192V12.9636H83.492V12.6636ZM83.492 11.094H83.792V10.794H83.492V11.094ZM83.3954 11.094V10.794H83.2034L83.123 10.9683L83.3954 11.094ZM82.3812 12.2954L82.5549 12.5399L82.5564 12.5389L82.3812 12.2954ZM79.0971 12.404L78.9482 12.6645L78.95 12.6655L79.0971 12.404ZM78.0346 11.245L77.7658 11.3783L77.7663 11.3791L78.0346 11.245ZM77.6482 3.39091V3.09091H77.3482V3.39091H77.6482ZM79.0729 3.39091H79.3729V3.09091H79.0729V3.39091ZM79.6404 10.8043L79.4218 11.0097L79.4229 11.0109L79.6404 10.8043ZM82.182 11.1363L82.0501 10.8668L82.049 10.8674L82.182 11.1363ZM83.1116 10.3032L82.8633 10.1349L82.862 10.1368L83.1116 10.3032ZM83.492 8.87244H83.792V3.39091H83.492H83.192V8.87244H83.492ZM83.492 3.39091V3.69091H84.9167V3.39091V3.09091H83.492V3.39091ZM84.9167 3.39091H84.6167V12.6636H84.9167H85.2167V3.39091H84.9167ZM84.9167 12.6636V12.3636H83.492V12.6636V12.9636H84.9167V12.6636ZM83.492 12.6636H83.792V11.094H83.492H83.192V12.6636H83.492ZM83.492 11.094V10.794H83.3954V11.094V11.394H83.492V11.094ZM83.3954 11.094L83.123 10.9683C82.9293 11.388 82.6266 11.7493 82.206 12.0518L82.3812 12.2954L82.5564 12.5389C83.0533 12.1815 83.4268 11.7418 83.6678 11.2198L83.3954 11.094ZM82.3812 12.2954L82.2074 12.0508C81.8106 12.3328 81.2959 12.4844 80.6425 12.4844V12.7844V13.0844C81.3897 13.0844 82.0341 12.91 82.5549 12.5399L82.3812 12.2954ZM80.6425 12.7844V12.4844C80.1082 12.4844 79.6448 12.3679 79.2442 12.1426L79.0971 12.404L78.95 12.6655C79.4509 12.9473 80.0178 13.0844 80.6425 13.0844V12.7844ZM79.0971 12.404L79.2459 12.1436C78.8521 11.9186 78.537 11.579 78.3029 11.1108L78.0346 11.245L77.7663 11.3791C78.0473 11.9412 78.4405 12.3744 78.9482 12.6645L79.0971 12.404ZM78.0346 11.245L78.3033 11.1116C78.0723 10.6461 77.9482 10.0414 77.9482 9.28295H77.6482H77.3482C77.3482 10.1022 77.4817 10.8055 77.7658 11.3783L78.0346 11.245ZM77.6482 9.28295H77.9482V3.39091H77.6482H77.3482V9.28295H77.6482ZM77.6482 3.39091V3.69091H79.0729V3.39091V3.09091H77.6482V3.39091ZM79.0729 3.39091H78.7729V9.18636H79.0729H79.3729V3.39091H79.0729ZM79.0729 9.18636H78.7729C78.7729 9.92083 78.98 10.5398 79.4218 11.0097L79.6404 10.8043L79.859 10.5988C79.5441 10.2638 79.3729 9.80417 79.3729 9.18636H79.0729ZM79.6404 10.8043L79.4229 11.0109C79.8659 11.4772 80.4335 11.708 81.1013 11.708V11.408V11.108C80.5859 11.108 80.1796 10.9362 79.8579 10.5976L79.6404 10.8043ZM81.1013 11.408V11.708C81.5082 11.708 81.9137 11.6036 82.3149 11.4052L82.182 11.1363L82.049 10.8674C81.7177 11.0312 81.4028 11.108 81.1013 11.108V11.408ZM82.182 11.1363L82.3138 11.4058C82.736 11.1992 83.085 10.8839 83.3613 10.4696L83.1116 10.3032L82.862 10.1368C82.6392 10.4711 82.3684 10.7111 82.0501 10.8668L82.182 11.1363ZM83.1116 10.3032L83.36 10.4714C83.6555 10.0352 83.792 9.49514 83.792 8.87244H83.492H83.192C83.192 9.40883 83.0748 9.82263 82.8633 10.1349L83.1116 10.3032ZM87.5261 12.6636H87.2261V12.9636H87.5261V12.6636ZM87.5261 3.39091V3.09091H87.2261V3.39091H87.5261ZM88.9026 3.39091H89.2026V3.09091H88.9026V3.39091ZM88.9026 4.79148H88.6026V5.09148H88.9026V4.79148ZM88.9992 4.79148V5.09148H89.2083L89.2807 4.89519L88.9992 4.79148ZM89.9168 3.67464L89.7541 3.42259V3.42259L89.9168 3.67464ZM92.1625 3.27017H92.4625V2.99867L92.1924 2.97166L92.1625 3.27017ZM92.1625 4.71903L92.0898 5.01008L92.4625 5.10327V4.71903H92.1625ZM91.8305 4.6647L91.7811 4.96072L91.789 4.96182L91.8305 4.6647ZM90.0858 4.90618L90.226 5.17139L90.2271 5.1708L90.0858 4.90618ZM89.2527 5.6789L88.998 5.52046L88.9974 5.52132L89.2527 5.6789ZM88.9509 12.6636V12.9636H89.2509V12.6636H88.9509ZM87.5261 12.6636H87.8261V3.39091H87.5261H87.2261V12.6636H87.5261ZM87.5261 3.39091V3.69091H88.9026V3.39091V3.09091H87.5261V3.39091ZM88.9026 3.39091H88.6026V4.79148H88.9026H89.2026V3.39091H88.9026ZM88.9026 4.79148V5.09148H88.9992V4.79148V4.49148H88.9026V4.79148ZM88.9992 4.79148L89.2807 4.89519C89.4254 4.50224 89.6869 4.18009 90.0795 3.9267L89.9168 3.67464L89.7541 3.42259C89.2612 3.74069 88.9109 4.16309 88.7177 4.68777L88.9992 4.79148ZM89.9168 3.67464L90.0795 3.9267C90.471 3.67398 90.913 3.54602 91.4139 3.54602V3.24602V2.94602C90.8041 2.94602 90.248 3.10381 89.7541 3.42259L89.9168 3.67464ZM91.4139 3.24602V3.54602C91.5151 3.54602 91.6431 3.54797 91.7986 3.55196L91.8063 3.25206L91.814 2.95216C91.6556 2.9481 91.5221 2.94602 91.4139 2.94602V3.24602ZM91.8063 3.25206L91.7986 3.55196C91.9537 3.55594 92.0635 3.56176 92.1327 3.56868L92.1625 3.27017L92.1924 2.97166C92.1005 2.96248 91.9729 2.95623 91.814 2.95216L91.8063 3.25206ZM92.1625 3.27017H91.8625V4.71903H92.1625H92.4625V3.27017H92.1625ZM92.1625 4.71903L92.2353 4.42799C92.1684 4.41126 92.0405 4.3911 91.8719 4.36758L91.8305 4.6647L91.789 4.96182C91.9666 4.98659 92.0601 5.00266 92.0898 5.01008L92.1625 4.71903ZM91.8305 4.6647L91.8798 4.36878C91.6929 4.33763 91.4972 4.32244 91.2932 4.32244V4.62244V4.92244C91.4675 4.92244 91.63 4.93543 91.7812 4.96062L91.8305 4.6647ZM91.2932 4.62244V4.32244C90.7993 4.32244 90.3472 4.42644 89.9445 4.64155L90.0858 4.90618L90.2271 5.1708C90.5327 5.0076 90.8856 4.92244 91.2932 4.92244V4.62244ZM90.0858 4.90618L89.9456 4.64097C89.5494 4.85043 89.2318 5.14445 88.998 5.52046L89.2527 5.6789L89.5075 5.83735C89.6841 5.55332 89.9219 5.33219 90.226 5.17139L90.0858 4.90618ZM89.2527 5.6789L88.9974 5.52132C88.7643 5.89902 88.6509 6.32685 88.6509 6.79574H88.9509H89.2509C89.2509 6.4275 89.3387 6.11077 89.508 5.83648L89.2527 5.6789ZM88.9509 6.79574H88.6509V12.6636H88.9509H89.2509V6.79574H88.9509ZM88.9509 12.6636V12.3636H87.5261V12.6636V12.9636H88.9509V12.6636ZM95.1327 12.2592L94.9719 12.5125L94.9727 12.5129L95.1327 12.2592ZM93.6597 10.5869L93.3901 10.7187L93.3907 10.7199L93.6597 10.5869ZM93.6597 5.54609L93.3904 5.41373L93.3898 5.41495L93.6597 5.54609ZM95.1327 3.86783L94.9727 3.61406L94.9719 3.61453L95.1327 3.86783ZM99.5336 3.86783L99.3729 4.12113L99.3736 4.12159L99.5336 3.86783ZM101.007 5.54609L100.737 5.67723L100.737 5.67845L101.007 5.54609ZM101.007 10.5869L100.738 10.454L100.737 10.4552L101.007 10.5869ZM99.5336 12.2592L99.3736 12.0054L99.3729 12.0059L99.5336 12.2592ZM98.9058 11.088L98.7192 10.8531V10.8531L98.9058 11.088ZM99.8173 9.80213L100.099 9.90653V9.90653L99.8173 9.80213ZM99.8173 6.34297L100.099 6.23926V6.23926L99.8173 6.34297ZM98.9058 5.04503L99.0937 4.81121V4.81121L98.9058 5.04503ZM95.7666 5.04503L95.5786 4.81121V4.81121L95.7666 5.04503ZM94.855 6.34297L94.5735 6.23926V6.23926L94.855 6.34297ZM94.855 9.80213L94.5737 9.90653V9.90653L94.855 9.80213ZM95.7666 11.088L95.9531 10.8531V10.8531L95.7666 11.088ZM97.3362 12.8568V12.5568C96.5486 12.5568 95.871 12.3701 95.2927 12.0054L95.1327 12.2592L94.9727 12.5129C95.6581 12.9451 96.4494 13.1568 97.3362 13.1568V12.8568ZM95.1327 12.2592L95.2934 12.0059C94.7155 11.6391 94.2603 11.1249 93.9286 10.454L93.6597 10.5869L93.3907 10.7199C93.7674 11.4817 94.2942 12.0824 94.9719 12.5125L95.1327 12.2592ZM93.6597 10.5869L93.9292 10.4552C93.6027 9.78728 93.4345 8.99685 93.4345 8.07557H93.1345H92.8345C92.8345 9.07001 93.0163 9.95382 93.3901 10.7187L93.6597 10.5869ZM93.1345 8.07557H93.4345C93.4345 7.14587 93.6029 6.34922 93.9295 5.67723L93.6597 5.54609L93.3898 5.41495C93.0162 6.18378 92.8345 7.07345 92.8345 8.07557H93.1345ZM93.6597 5.54609L93.9289 5.67845C94.2607 5.00348 94.7159 4.48764 95.2934 4.12112L95.1327 3.86783L94.9719 3.61453C94.2938 4.04488 93.7669 4.64789 93.3904 5.41374L93.6597 5.54609ZM95.1327 3.86783L95.2927 4.12159C95.871 3.7569 96.5486 3.57017 97.3362 3.57017V3.27017V2.97017C96.4494 2.97017 95.6581 3.18187 94.9727 3.61406L95.1327 3.86783ZM97.3362 3.27017V3.57017C98.1237 3.57017 98.799 3.75691 99.3729 4.12112L99.5336 3.86783L99.6944 3.61453C99.0126 3.18186 98.2228 2.97017 97.3362 2.97017V3.27017ZM99.5336 3.86783L99.3736 4.12159C99.9547 4.48802 100.409 5.00335 100.737 5.67723L101.007 5.54609L101.276 5.41495C100.904 4.64802 100.376 4.04451 99.6936 3.61406L99.5336 3.86783ZM101.007 5.54609L100.737 5.67845C101.068 6.35013 101.238 7.14634 101.238 8.07557H101.538H101.838C101.838 7.07298 101.654 6.18287 101.276 5.41374L101.007 5.54609ZM101.538 8.07557H101.238C101.238 8.99637 101.068 9.78636 100.738 10.454L101.007 10.5869L101.276 10.7199C101.654 9.95474 101.838 9.07048 101.838 8.07557H101.538ZM101.007 10.5869L100.737 10.4552C100.41 11.125 99.9551 11.6387 99.3736 12.0054L99.5336 12.2592L99.6936 12.5129C100.376 12.0827 100.903 11.4816 101.276 10.7187L101.007 10.5869ZM99.5336 12.2592L99.3729 12.0059C98.799 12.3701 98.1237 12.5568 97.3362 12.5568V12.8568V13.1568C98.2228 13.1568 99.0126 12.9451 99.6944 12.5125L99.5336 12.2592ZM97.3362 11.577V11.877C98.0249 11.877 98.6182 11.6995 99.0923 11.3229L98.9058 11.088L98.7192 10.8531C98.3723 11.1285 97.9192 11.277 97.3362 11.277V11.577ZM98.9058 11.088L99.0923 11.3229C99.5492 10.9601 99.8839 10.4848 100.099 9.90653L99.8173 9.80213L99.5361 9.69773C99.3563 10.182 99.0834 10.5639 98.7192 10.8531L98.9058 11.088ZM99.8173 9.80213L100.099 9.90653C100.309 9.33888 100.413 8.72766 100.413 8.07557H100.113H99.8131C99.8131 8.66306 99.7198 9.20288 99.5361 9.69773L99.8173 9.80213ZM100.113 8.07557H100.413C100.413 7.42345 100.309 6.8105 100.099 6.23926L99.8173 6.34297L99.5358 6.44668C99.7198 6.94598 99.8131 7.4881 99.8131 8.07557H100.113ZM99.8173 6.34297L100.099 6.23926C99.8844 5.65732 99.5501 5.17813 99.0937 4.81121L98.9058 5.04503L98.7178 5.27884C99.0824 5.57196 99.3558 5.95806 99.5358 6.44668L99.8173 6.34297ZM98.9058 5.04503L99.0937 4.81121C98.6195 4.42999 98.0257 4.25 97.3362 4.25V4.55V4.85C97.9184 4.85 98.371 5.00002 98.7178 5.27884L98.9058 5.04503ZM97.3362 4.55V4.25C96.6466 4.25 96.0528 4.42999 95.5786 4.81121L95.7666 5.04503L95.9545 5.27884C96.3013 5.00002 96.754 4.85 97.3362 4.85V4.55ZM95.7666 5.04503L95.5786 4.81121C95.1222 5.17813 94.7879 5.65732 94.5735 6.23926L94.855 6.34297L95.1365 6.44668C95.3165 5.95806 95.5899 5.57196 95.9545 5.27884L95.7666 5.04503ZM94.855 6.34297L94.5735 6.23926C94.363 6.8105 94.2592 7.42345 94.2592 8.07557H94.5592H94.8592C94.8592 7.4881 94.9525 6.94598 95.1365 6.44668L94.855 6.34297ZM94.5592 8.07557H94.2592C94.2592 8.72766 94.363 9.33888 94.5737 9.90653L94.855 9.80213L95.1362 9.69773C94.9525 9.20288 94.8592 8.66306 94.8592 8.07557H94.5592ZM94.855 9.80213L94.5737 9.90653C94.7884 10.4848 95.1231 10.9601 95.58 11.3229L95.7666 11.088L95.9531 10.8531C95.589 10.5639 95.316 10.182 95.1362 9.69773L94.855 9.80213ZM95.7666 11.088L95.58 11.3229C96.0542 11.6995 96.6474 11.877 97.3362 11.877V11.577V11.277C96.7531 11.277 96.3 11.1285 95.9531 10.8531L95.7666 11.088ZM103.984 12.4403L104.196 12.2281V12.2281L103.984 12.4403ZM105.518 10.9069L105.73 10.6948V10.6948L105.518 10.9069ZM105.687 12.2169L105.431 12.0607L105.428 12.0653L105.687 12.2169ZM105.294 12.6153L105.449 12.8726L105.451 12.8715L105.294 12.6153ZM103.984 5.55817L103.772 5.7703V5.7703L103.984 5.55817ZM103.984 4.02479L103.772 3.81265V3.81265L103.984 4.02479ZM105.518 4.02479L105.73 3.81265V3.81265L105.518 4.02479ZM105.687 5.3348L105.431 5.17859L105.428 5.18325L105.687 5.3348ZM105.294 5.73324L105.449 5.99049L105.451 5.98938L105.294 5.73324ZM104.751 12.7602V12.4602C104.534 12.4602 104.354 12.386 104.196 12.2281L103.984 12.4403L103.772 12.6524C104.041 12.9212 104.372 13.0602 104.751 13.0602V12.7602ZM103.984 12.4403L104.196 12.2281C104.039 12.0703 103.964 11.8907 103.964 11.6736H103.664H103.364C103.364 12.0521 103.503 12.3836 103.772 12.6524L103.984 12.4403ZM103.664 11.6736H103.964C103.964 11.4565 104.039 11.2769 104.196 11.119L103.984 10.9069L103.772 10.6948C103.503 10.9635 103.364 11.295 103.364 11.6736H103.664ZM103.984 10.9069L104.196 11.119C104.354 10.9612 104.534 10.8869 104.751 10.8869V10.5869V10.2869C104.372 10.2869 104.041 10.426 103.772 10.6948L103.984 10.9069ZM104.751 10.5869V10.8869C104.968 10.8869 105.148 10.9612 105.306 11.119L105.518 10.9069L105.73 10.6948C105.461 10.426 105.13 10.2869 104.751 10.2869V10.5869ZM105.518 10.9069L105.306 11.119C105.463 11.2769 105.538 11.4565 105.538 11.6736H105.838H106.138C106.138 11.295 105.999 10.9635 105.73 10.6948L105.518 10.9069ZM105.838 11.6736H105.538C105.538 11.8169 105.502 11.9438 105.431 12.0607L105.687 12.2169L105.943 12.3731C106.073 12.16 106.138 11.9247 106.138 11.6736H105.838ZM105.687 12.2169L105.428 12.0653C105.357 12.1871 105.261 12.2841 105.138 12.3592L105.294 12.6153L105.451 12.8715C105.657 12.7453 105.824 12.5768 105.946 12.3685L105.687 12.2169ZM105.294 12.6153L105.14 12.3581C105.029 12.4247 104.902 12.4602 104.751 12.4602V12.7602V13.0602C105.003 13.0602 105.238 12.9992 105.449 12.8726L105.294 12.6153ZM104.751 5.87812V5.57812C104.534 5.57812 104.354 5.50389 104.196 5.34604L103.984 5.55817L103.772 5.7703C104.041 6.03905 104.372 6.17812 104.751 6.17812V5.87812ZM103.984 5.55817L104.196 5.34604C104.039 5.18818 103.964 5.00859 103.964 4.79148H103.664H103.364C103.364 5.17001 103.503 5.50155 103.772 5.7703L103.984 5.55817ZM103.664 4.79148H103.964C103.964 4.57436 104.039 4.39478 104.196 4.23692L103.984 4.02479L103.772 3.81265C103.503 4.08141 103.364 4.41294 103.364 4.79148H103.664ZM103.984 4.02479L104.196 4.23692C104.354 4.07906 104.534 4.00483 104.751 4.00483V3.70483V3.40483C104.372 3.40483 104.041 3.5439 103.772 3.81265L103.984 4.02479ZM104.751 3.70483V4.00483C104.968 4.00483 105.148 4.07906 105.306 4.23692L105.518 4.02479L105.73 3.81265C105.461 3.5439 105.13 3.40483 104.751 3.40483V3.70483ZM105.518 4.02479L105.306 4.23692C105.463 4.39478 105.538 4.57436 105.538 4.79148H105.838H106.138C106.138 4.41294 105.999 4.08141 105.73 3.81265L105.518 4.02479ZM105.838 4.79148H105.538C105.538 4.93476 105.502 5.06165 105.431 5.17862L105.687 5.3348L105.943 5.49098C106.073 5.27793 106.138 5.0426 106.138 4.79148H105.838ZM105.687 5.3348L105.428 5.18325C105.357 5.30496 105.261 5.40202 105.138 5.4771L105.294 5.73324L105.451 5.98938C105.657 5.86322 105.824 5.69466 105.946 5.48635L105.687 5.3348ZM105.294 5.73324L105.14 5.47599C105.029 5.54259 104.902 5.57812 104.751 5.57812V5.87812V6.17812C105.003 6.17812 105.238 6.11707 105.449 5.99049L105.294 5.73324Z" fill="#E3E4EB" mask="url(#path-1-outside-1_27_18)"/>
</svg>
