<svg width="33" height="14" viewBox="0 0 33 14" fill="none" xmlns="http://www.w3.org/2000/svg">
<path d="M8.65794 3.25809C8.65794 2.29809 8.35794 1.60209 7.75794 1.17009C7.16994 0.726091 6.43194 0.504091 5.54394 0.504091C5.30394 0.504091 5.05794 0.510091 4.80594 0.522091C4.55394 0.522091 4.30194 0.522091 4.04994 0.522091C3.92994 0.522091 3.80994 0.558091 3.68994 0.630092C3.56994 0.702091 3.50994 0.804091 3.50994 0.936091V6.04809C3.77394 6.24009 4.09794 6.35409 4.48194 6.39009C4.86594 6.42609 5.20794 6.44409 5.50794 6.44409C6.53994 6.44409 7.31994 6.16809 7.84794 5.61609C8.38794 5.06409 8.65794 4.27809 8.65794 3.25809ZM10.6379 3.20409C10.6379 3.98409 10.4879 4.62009 10.1879 5.11209C9.89994 5.60409 9.50994 5.98809 9.01794 6.26409C8.52594 6.54009 7.96794 6.73209 7.34394 6.84009C6.73194 6.93609 6.10194 6.98409 5.45394 6.98409C5.12994 6.98409 4.80594 6.96609 4.48194 6.93009C4.15794 6.89409 3.83994 6.85209 3.52794 6.80409V12.1861C3.52794 12.3661 3.60594 12.4861 3.76194 12.5461C3.91794 12.6061 4.09194 12.6361 4.28394 12.6361C4.47594 12.6361 4.63194 12.6361 4.75194 12.6361C4.82394 12.6361 4.89594 12.6361 4.96794 12.6361C5.05194 12.6241 5.12994 12.6181 5.20194 12.6181C5.30994 12.6181 5.36394 12.6661 5.36394 12.7621C5.36394 12.9181 5.35194 13.0261 5.32794 13.0861C5.30394 13.1341 5.20794 13.1581 5.03994 13.1581C4.63194 13.1581 4.22994 13.1461 3.83394 13.1221C3.43794 13.0981 3.04194 13.0861 2.64594 13.0861C2.23794 13.0861 1.82394 13.1041 1.40394 13.1401C0.995942 13.1641 0.587942 13.1761 0.179942 13.1761C0.059942 13.1761 -5.79767e-05 13.0981 -5.79767e-05 12.9421C-5.79767e-05 12.8701 0.011942 12.8041 0.035942 12.7441C0.059942 12.6841 0.119942 12.6541 0.215942 12.6541C0.359942 12.6541 0.503942 12.6601 0.647942 12.6721C0.791942 12.6721 0.935942 12.6721 1.07994 12.6721C1.22394 12.6721 1.34994 12.6361 1.45794 12.5641C1.57794 12.4921 1.64394 12.3781 1.65594 12.2221C1.67994 12.0061 1.68594 11.7901 1.67394 11.5741C1.67394 11.3461 1.67394 11.1241 1.67394 10.9081C1.67394 10.4761 1.67394 10.0441 1.67394 9.61209C1.67394 9.16809 1.67394 8.73009 1.67394 8.29809V5.14809C1.67394 4.44009 1.66794 3.73809 1.65594 3.04209C1.65594 2.33409 1.65594 1.63209 1.65594 0.936091C1.65594 0.720091 1.54794 0.594091 1.33194 0.558091C1.12794 0.510091 0.947942 0.486091 0.791942 0.486091C0.683942 0.486091 0.575942 0.492091 0.467942 0.504091C0.359942 0.504091 0.257942 0.504091 0.161942 0.504091C0.077942 0.504091 0.029942 0.468091 0.017942 0.396091C0.017942 0.312091 0.017942 0.246091 0.017942 0.198091C0.017942 0.150091 0.029942 0.108091 0.053942 0.0720912C0.077942 0.0240911 0.113942 9.10759e-05 0.161942 9.10759e-05C0.557942 9.10759e-05 0.953942 0.0120913 1.34994 0.0360917C1.74594 0.0600914 2.14794 0.0720912 2.55594 0.0720912C3.17994 0.0720912 3.80394 0.0600914 4.42794 0.0360917C5.05194 0.0120913 5.67594 9.10759e-05 6.29994 9.10759e-05C6.80394 9.10759e-05 7.30794 0.0540911 7.81194 0.162091C8.32794 0.270091 8.79594 0.450091 9.21594 0.702092C9.64794 0.954091 9.98994 1.28409 10.2419 1.69209C10.5059 2.10009 10.6379 2.60409 10.6379 3.20409ZM17.1364 12.8701C17.1364 12.9181 17.1304 12.9841 17.1184 13.0681C17.1064 13.1401 17.0644 13.1761 16.9924 13.1761C16.8484 13.1761 16.7044 13.1701 16.5604 13.1581C16.4284 13.1461 16.2904 13.1401 16.1464 13.1401C15.5584 13.1041 14.9584 13.0861 14.3464 13.0861C14.0824 13.0861 13.8184 13.0921 13.5544 13.1041C13.2904 13.1161 13.0264 13.1281 12.7624 13.1401C12.6424 13.1521 12.5164 13.1641 12.3844 13.1761C12.2644 13.1881 12.1384 13.1941 12.0064 13.1941C11.9104 13.1941 11.8624 13.1341 11.8624 13.0141C11.8624 12.9301 11.8684 12.8521 11.8804 12.7801C11.8924 12.7081 11.9524 12.6721 12.0604 12.6721C12.1804 12.6721 12.2944 12.6781 12.4024 12.6901C12.5104 12.6901 12.6244 12.6901 12.7444 12.6901C12.8884 12.6901 13.0564 12.6541 13.2484 12.5821C13.4524 12.5101 13.5544 12.3901 13.5544 12.2221V1.04409C13.5544 0.840091 13.4764 0.708091 13.3204 0.648091C13.1644 0.576092 12.9784 0.540092 12.7624 0.540092C12.5584 0.540092 12.3664 0.546092 12.1864 0.558091C12.0184 0.558091 11.9224 0.528091 11.8984 0.468091C11.8864 0.444091 11.8804 0.390091 11.8804 0.306091C11.8804 0.258091 11.8864 0.204091 11.8984 0.144091C11.9104 0.0720916 11.9464 0.0360917 12.0064 0.0360917C12.4024 0.0360917 12.7984 0.0480915 13.1944 0.0720912C13.6024 0.0960909 14.0044 0.108091 14.4004 0.108091H15.2104C15.4024 0.108091 15.5944 0.108091 15.7864 0.108091C15.9904 0.108091 16.1884 0.102091 16.3804 0.090091C16.4764 0.0780911 16.5664 0.0720912 16.6504 0.0720912C16.7464 0.0600914 16.8364 0.0540915 16.9204 0.0540915C17.0524 0.0540915 17.1184 0.120091 17.1184 0.252091C17.1184 0.324091 17.1124 0.390091 17.1004 0.450092C17.0884 0.510092 17.0344 0.540092 16.9384 0.540092C16.7944 0.540092 16.6504 0.540092 16.5064 0.540092C16.3744 0.528091 16.2364 0.522091 16.0924 0.522091C15.9484 0.522091 15.7924 0.570091 15.6244 0.666091C15.4684 0.750091 15.3904 0.876092 15.3904 1.04409V12.2221C15.3904 12.3781 15.4624 12.4921 15.6064 12.5641C15.7504 12.6361 15.8944 12.6721 16.0384 12.6721C16.1944 12.6721 16.3444 12.6721 16.4884 12.6721C16.6444 12.6601 16.8004 12.6541 16.9564 12.6541C17.0764 12.6541 17.1364 12.7261 17.1364 12.8701ZM32.0419 12.9421C32.0419 13.0381 32.0059 13.1101 31.9339 13.1581C31.8739 13.2061 31.7959 13.2301 31.6999 13.2301C31.5199 13.2301 31.3339 13.2241 31.1419 13.2121C30.9619 13.2121 30.7819 13.2061 30.6019 13.1941C30.2659 13.1821 29.9239 13.1821 29.5759 13.1941C29.2399 13.1941 28.8979 13.1941 28.5499 13.1941C28.3579 13.1941 28.2139 13.0981 28.1179 12.9061C27.6379 11.9341 27.1219 11.0281 26.5699 10.1881C26.0299 9.34809 25.4719 8.47209 24.8959 7.56009C24.8239 7.68009 24.6739 7.90809 24.4459 8.24409C24.2299 8.58009 23.9779 8.96409 23.6899 9.39609C23.4019 9.82809 23.1199 10.2541 22.8439 10.6741C22.5799 11.0941 22.3579 11.4541 22.1779 11.7541C22.0099 12.0421 21.9259 12.2101 21.9259 12.2581C21.9259 12.4381 22.0039 12.5581 22.1599 12.6181C22.3279 12.6781 22.5139 12.7141 22.7179 12.7261C22.9339 12.7261 23.1199 12.7321 23.2759 12.7441C23.4439 12.7441 23.5279 12.7921 23.5279 12.8881C23.5279 13.0801 23.4379 13.1761 23.2579 13.1761C23.1619 13.1761 23.0659 13.1821 22.9699 13.1941C22.8739 13.1941 22.7779 13.1941 22.6819 13.1941C22.4419 13.1941 22.2019 13.1881 21.9619 13.1761C21.7339 13.1521 21.4999 13.1401 21.2599 13.1401C20.8399 13.1401 20.4139 13.1521 19.9819 13.1761C19.5619 13.2001 19.1419 13.2121 18.7219 13.2121C18.5659 13.2121 18.4879 13.1281 18.4879 12.9601C18.4879 12.8041 18.5479 12.7201 18.6679 12.7081C18.7279 12.6961 18.7879 12.6961 18.8479 12.7081C18.9199 12.7081 18.9859 12.7081 19.0459 12.7081C19.3459 12.7081 19.6099 12.6841 19.8379 12.6361C20.0659 12.5881 20.2939 12.4681 20.5219 12.2761C20.7259 12.0961 20.9239 11.9041 21.1159 11.7001C21.3199 11.4961 21.4999 11.2861 21.6559 11.0701C22.1599 10.4341 22.6579 9.79209 23.1499 9.14409C23.6539 8.48409 24.1279 7.81809 24.5719 7.14609C23.9119 6.15009 23.2639 5.15409 22.6279 4.15809C22.0039 3.16209 21.3559 2.17809 20.6839 1.20609C20.5639 1.03809 20.4499 0.930092 20.3419 0.882092C20.2459 0.822092 20.0959 0.792092 19.8919 0.792092C19.7719 0.792092 19.6399 0.798092 19.4959 0.810091C19.3639 0.822091 19.2319 0.828091 19.0999 0.828091C19.0399 0.828091 18.9739 0.816091 18.9019 0.792092C18.8299 0.756091 18.7939 0.696091 18.7939 0.612091C18.7939 0.528091 18.7999 0.456091 18.8119 0.396091C18.8239 0.324092 18.8719 0.276091 18.9559 0.252091C19.2079 0.192091 19.5319 0.156091 19.9279 0.144091C20.3359 0.132092 20.6779 0.120091 20.9539 0.108091C21.1219 0.0960909 21.2839 0.0840911 21.4399 0.0720912C21.6079 0.0600914 21.7699 0.0540915 21.9259 0.0540915C22.0699 0.0540915 22.1899 0.120091 22.2859 0.252091C22.3459 0.300091 22.3879 0.354091 22.4119 0.414091C22.4479 0.474091 22.4899 0.534091 22.5379 0.594091C23.0539 1.44609 23.5699 2.30409 24.0859 3.16809C24.6019 4.02009 25.1059 4.88409 25.5979 5.76009C25.7059 5.59209 25.8739 5.34009 26.1019 5.00409C26.3299 4.65609 26.5759 4.27209 26.8399 3.85209C27.1159 3.42009 27.3799 2.99409 27.6319 2.57409C27.8959 2.15409 28.1059 1.78209 28.2619 1.45809C28.4299 1.12209 28.5139 0.888091 28.5139 0.756091C28.5139 0.636091 28.4479 0.570091 28.3159 0.558091C28.1959 0.534091 28.0939 0.522091 28.0099 0.522091C27.8779 0.522091 27.7399 0.528091 27.5959 0.540092C27.4639 0.552091 27.3259 0.558091 27.1819 0.558091C27.0859 0.558091 27.0259 0.540091 27.0019 0.504091C26.9779 0.456091 26.9659 0.390091 26.9659 0.306091C26.9659 0.162091 27.0439 0.090091 27.1999 0.090091C27.3559 0.090091 27.5119 0.0960909 27.6679 0.108091C27.8239 0.120091 27.9799 0.126092 28.1359 0.126092C28.4719 0.126092 28.8079 0.126092 29.1439 0.126092C29.4919 0.114091 29.8339 0.102091 30.1699 0.090091C30.3379 0.0780911 30.4999 0.0660913 30.6559 0.0540915C30.8239 0.0420916 30.9919 0.0360917 31.1599 0.0360917C31.3279 0.0360917 31.4119 0.120092 31.4119 0.288092C31.4119 0.456092 31.3159 0.552091 31.1239 0.576091C30.9439 0.600091 30.7279 0.618091 30.4759 0.630092C30.2359 0.630092 30.0319 0.684092 29.8639 0.792092C29.7679 0.852092 29.6599 0.942091 29.5399 1.06209C29.4319 1.18209 29.3419 1.29009 29.2699 1.38609C28.7299 2.19009 28.1779 2.98809 27.6139 3.78009C27.0499 4.56009 26.4739 5.34009 25.8859 6.12009C26.3059 6.74409 26.7259 7.36809 27.1459 7.99209C27.5779 8.60409 28.0039 9.21609 28.4239 9.82809C28.7119 10.2481 29.0059 10.6681 29.3059 11.0881C29.6059 11.5081 29.9179 11.9161 30.2419 12.3121C30.3739 12.4681 30.5359 12.5701 30.7279 12.6181C30.9319 12.6541 31.1299 12.6721 31.3219 12.6721C31.4059 12.6721 31.4839 12.6661 31.5559 12.6541C31.6399 12.6421 31.7239 12.6361 31.8079 12.6361C31.9039 12.6361 31.9639 12.6721 31.9879 12.7441C32.0239 12.8041 32.0419 12.8701 32.0419 12.9421Z" fill="#3CA67B"/>
</svg>
