<svg width="61" height="9" viewBox="0 0 61 9" fill="none" xmlns="http://www.w3.org/2000/svg">
<path d="M4.22397 4.60894C4.22397 4.39628 4.21663 4.13594 4.20197 3.82794C4.19463 3.51261 4.16897 3.18261 4.12497 2.83794C4.08097 2.49328 4.00397 2.17061 3.89397 1.86994C3.78397 1.56928 3.63363 1.32728 3.44297 1.14394C3.2523 0.953275 3.00297 0.857942 2.69496 0.857942C2.4163 0.857942 2.18163 0.956942 1.99096 1.15494C1.8003 1.34561 1.6463 1.59861 1.52896 1.91394C1.41163 2.22194 1.31996 2.55194 1.25396 2.90394C1.1953 3.24861 1.15496 3.58228 1.13296 3.90494C1.11096 4.22028 1.09996 4.47694 1.09996 4.67494C1.09996 4.87294 1.1073 5.12228 1.12196 5.42294C1.14396 5.71628 1.18063 6.02794 1.23196 6.35794C1.2833 6.68061 1.36396 6.98494 1.47396 7.27094C1.5913 7.55694 1.74163 7.79161 1.92496 7.97494C2.1083 8.15094 2.3393 8.23894 2.61796 8.23894C2.9113 8.23894 3.1533 8.15094 3.34397 7.97494C3.53463 7.79161 3.68863 7.55694 3.80597 7.27094C3.9233 6.97761 4.0113 6.66594 4.06997 6.33594C4.13597 5.99861 4.1763 5.67961 4.19096 5.37894C4.21297 5.07094 4.22397 4.81428 4.22397 4.60894ZM5.36797 4.46594C5.36797 4.80328 5.33497 5.15894 5.26897 5.53294C5.2103 5.90694 5.11496 6.27361 4.98296 6.63294C4.85097 6.99228 4.67497 7.31861 4.45497 7.61194C4.2423 7.90528 3.98197 8.13994 3.67397 8.31594C3.36597 8.48461 3.00663 8.56894 2.59596 8.56894C2.10463 8.56894 1.6903 8.44794 1.35296 8.20594C1.02296 7.95661 0.758965 7.63761 0.560965 7.24894C0.362965 6.86028 0.219965 6.44594 0.131965 6.00594C0.0439649 5.55861 -3.51258e-05 5.13694 -3.51258e-05 4.74094C-3.51258e-05 4.40361 0.0292982 4.04428 0.0879649 3.66294C0.146632 3.27428 0.241965 2.89661 0.373965 2.52994C0.505965 2.16328 0.678298 1.82961 0.890965 1.52894C1.11096 1.22828 1.37496 0.989942 1.68296 0.813942C1.9983 0.630609 2.36496 0.538942 2.78297 0.538942C3.17896 0.538942 3.51996 0.623275 3.80597 0.791942C4.0993 0.960609 4.34496 1.18428 4.54297 1.46294C4.7483 1.74161 4.90963 2.05328 5.02697 2.39794C5.1443 2.74261 5.22863 3.09461 5.27997 3.45394C5.33863 3.80594 5.36797 4.14328 5.36797 4.46594ZM11.8562 5.74194C11.8562 6.08661 11.7866 6.45328 11.6472 6.84194C11.5079 7.23061 11.3062 7.54228 11.0422 7.77694C10.7489 8.03361 10.3969 8.23161 9.98625 8.37094C9.57558 8.51028 9.17591 8.57994 8.78725 8.57994C8.60391 8.57994 8.38391 8.55794 8.12725 8.51394C7.87058 8.46261 7.61758 8.38928 7.36825 8.29394C7.11891 8.19128 6.90991 8.05928 6.74125 7.89794C6.57258 7.72928 6.48825 7.52761 6.48825 7.29294C6.48825 7.13161 6.54325 7.00694 6.65325 6.91894C6.76325 6.82361 6.89525 6.77594 7.04925 6.77594C7.18125 6.77594 7.29858 6.80894 7.40125 6.87494C7.50391 6.94094 7.55891 7.04728 7.56625 7.19394C7.59558 7.53128 7.69091 7.79161 7.85225 7.97494C8.02091 8.15828 8.28491 8.24994 8.64425 8.24994C9.15025 8.24994 9.56091 8.13261 9.87625 7.89794C10.1916 7.65594 10.4262 7.29294 10.5802 6.80894C10.6316 6.64028 10.6609 6.46794 10.6682 6.29194C10.6829 6.10861 10.6902 5.92894 10.6902 5.75294C10.6902 5.51094 10.6609 5.25061 10.6022 4.97194C10.5509 4.68594 10.4519 4.44394 10.3052 4.24594C10.1806 4.07728 10.0192 3.96361 9.82125 3.90494C9.63058 3.84628 9.43258 3.81694 9.22725 3.81694C9.06591 3.81694 8.88991 3.84628 8.69925 3.90494C8.50858 3.95628 8.35091 4.03328 8.22625 4.13594C8.10158 4.23861 7.98791 4.37061 7.88525 4.53194C7.78258 4.68594 7.72391 4.84728 7.70925 5.01594C7.70191 5.05994 7.69458 5.11494 7.68725 5.18094C7.67991 5.24694 7.64325 5.27994 7.57725 5.27994C7.54058 5.27994 7.46358 5.26528 7.34625 5.23594C7.23625 5.19928 7.12991 5.15894 7.02725 5.11494C6.93191 5.06361 6.88425 5.01961 6.88425 4.98294C6.88425 4.96094 6.88791 4.93894 6.89525 4.91694C6.90258 4.89494 6.90991 4.87294 6.91725 4.85094C6.96858 4.68228 7.00891 4.47328 7.03825 4.22394C7.07491 3.96728 7.10058 3.69961 7.11525 3.42094C7.12991 3.13494 7.14091 2.85994 7.14825 2.59594C7.15558 2.33194 7.15925 2.10828 7.15925 1.92494C7.15925 1.49228 7.13725 1.05594 7.09325 0.615942C7.32058 0.645276 7.54425 0.667275 7.76425 0.681942C7.99158 0.696609 8.21891 0.703942 8.44625 0.703942H10.0192C10.2099 0.703942 10.4299 0.692942 10.6792 0.670942C10.9359 0.648942 11.1486 0.590275 11.3172 0.494942C11.3539 0.472942 11.3942 0.450942 11.4382 0.428942C11.4896 0.399609 11.5336 0.384942 11.5702 0.384942C11.5922 0.384942 11.6252 0.388608 11.6692 0.395942C11.7132 0.395942 11.7352 0.414275 11.7352 0.450942C11.7352 0.487609 11.7096 0.564609 11.6582 0.681942C11.6069 0.791942 11.5519 0.905609 11.4932 1.02294C11.4346 1.14028 11.3942 1.21728 11.3722 1.25394C11.3429 1.30528 11.3062 1.33828 11.2622 1.35294C11.2182 1.36761 11.1669 1.37494 11.1082 1.37494C11.0129 1.37494 10.9139 1.37494 10.8112 1.37494C10.7159 1.36761 10.6169 1.36028 10.5142 1.35294C10.3896 1.33828 10.2612 1.33461 10.1292 1.34194C9.99725 1.34194 9.86891 1.34194 9.74425 1.34194C9.53891 1.34194 9.33358 1.34194 9.12825 1.34194C8.92291 1.33461 8.71391 1.33094 8.50125 1.33094C8.37658 1.33094 8.24825 1.33094 8.11625 1.33094C7.99158 1.33094 7.86691 1.33461 7.74225 1.34194C7.73491 1.80394 7.71658 2.26961 7.68725 2.73894C7.66525 3.20094 7.64325 3.66294 7.62125 4.12494C7.95858 3.89028 8.27025 3.71794 8.55625 3.60794C8.84958 3.49061 9.20158 3.43194 9.61225 3.43194C9.89091 3.43194 10.1586 3.47228 10.4152 3.55294C10.6792 3.63361 10.9139 3.76928 11.1192 3.95994C11.3539 4.17994 11.5336 4.45128 11.6582 4.77394C11.7902 5.09661 11.8562 5.41928 11.8562 5.74194ZM18.3005 5.89594C18.3005 6.36528 18.2125 6.77228 18.0365 7.11694C17.8605 7.45428 17.6185 7.73294 17.3105 7.95294C17.0099 8.17294 16.6652 8.33794 16.2765 8.44794C15.8952 8.55061 15.4955 8.60194 15.0775 8.60194C14.8429 8.60194 14.5972 8.57994 14.3405 8.53594C14.0912 8.49194 13.8565 8.41128 13.6365 8.29394C13.4239 8.17661 13.2552 8.00794 13.1305 7.78794C13.0279 7.61928 12.9765 7.43228 12.9765 7.22694C12.9765 7.05828 13.0242 6.93361 13.1195 6.85294C13.2222 6.76494 13.3542 6.72094 13.5155 6.72094C13.7355 6.72094 13.8565 6.81994 13.8785 7.01794C13.9079 7.22328 13.9629 7.42494 14.0435 7.62294C14.1315 7.81361 14.2525 7.97128 14.4065 8.09594C14.5679 8.22061 14.7659 8.28294 15.0005 8.28294C15.7632 8.28294 16.3059 8.09594 16.6285 7.72194C16.9585 7.34061 17.1235 6.77961 17.1235 6.03894C17.1235 5.54761 16.9915 5.14428 16.7275 4.82894C16.4709 4.50628 16.0895 4.34494 15.5835 4.34494C15.4882 4.34494 15.3855 4.35228 15.2755 4.36694C15.1655 4.37428 15.0629 4.38894 14.9675 4.41094C14.9162 4.41828 14.8612 4.43661 14.8025 4.46594C14.7439 4.48794 14.6852 4.49894 14.6265 4.49894C14.5752 4.49894 14.5422 4.47694 14.5275 4.43294C14.5202 4.38894 14.5165 4.34861 14.5165 4.31194C14.5165 4.26061 14.5239 4.20561 14.5385 4.14694C14.5532 4.08828 14.5935 4.05894 14.6595 4.05894C14.6815 4.05894 14.7035 4.06261 14.7255 4.06994C14.7549 4.06994 14.7842 4.06994 14.8135 4.06994C14.9602 4.06994 15.1069 4.06994 15.2535 4.06994C15.4075 4.06261 15.5542 4.04061 15.6935 4.00394C16.1042 3.88661 16.3939 3.69594 16.5625 3.43194C16.7385 3.16061 16.8265 2.81594 16.8265 2.39794C16.8265 2.11194 16.7862 1.85161 16.7055 1.61694C16.6322 1.38228 16.5039 1.19528 16.3205 1.05594C16.1372 0.916608 15.8842 0.846942 15.5615 0.846942C15.0775 0.846942 14.7109 0.997275 14.4615 1.29794C14.2195 1.59128 14.0985 1.96894 14.0985 2.43094C14.0985 2.59228 14.0105 2.67294 13.8345 2.67294C13.6659 2.67294 13.5229 2.62894 13.4055 2.54094C13.2955 2.45294 13.2405 2.31728 13.2405 2.13394C13.2405 2.05328 13.2699 1.93961 13.3285 1.79294C13.3945 1.64628 13.4532 1.53994 13.5045 1.47394C13.7832 1.11461 14.1352 0.865275 14.5605 0.725942C14.9932 0.586609 15.4259 0.516942 15.8585 0.516942C16.1959 0.516942 16.5222 0.582942 16.8375 0.714942C17.1529 0.846942 17.4132 1.04128 17.6185 1.29794C17.8239 1.54728 17.9265 1.85894 17.9265 2.23294C17.9265 2.50428 17.8495 2.76461 17.6955 3.01394C17.5489 3.26328 17.3765 3.47228 17.1785 3.64094C17.0245 3.78028 16.8522 3.89028 16.6615 3.97094C16.4709 4.05161 16.2802 4.11761 16.0895 4.16894C16.2289 4.17628 16.3975 4.19094 16.5955 4.21294C16.8009 4.23494 16.9659 4.27161 17.0905 4.32294C17.4352 4.44028 17.7212 4.63828 17.9485 4.91694C18.1832 5.18828 18.3005 5.51461 18.3005 5.89594ZM23.7108 6.20394C23.7108 5.95461 23.6961 5.70161 23.6668 5.44494C23.6375 5.18094 23.5751 4.93894 23.4798 4.71894C23.3845 4.49161 23.2415 4.31194 23.0508 4.17994C22.8675 4.04061 22.6145 3.97094 22.2918 3.97094C22.1305 3.97094 21.9435 4.00028 21.7308 4.05894C21.5255 4.11761 21.3311 4.20194 21.1478 4.31194C20.9645 4.42194 20.8288 4.55028 20.7408 4.69694C20.6455 4.86561 20.5905 5.04894 20.5758 5.24694C20.5685 5.43761 20.5648 5.62828 20.5648 5.81894C20.5648 5.89961 20.5648 5.98394 20.5648 6.07194C20.5648 6.15261 20.5685 6.23328 20.5758 6.31394C20.5905 6.60728 20.6565 6.90794 20.7738 7.21594C20.8911 7.52394 21.0635 7.78061 21.2908 7.98594C21.5181 8.19128 21.8041 8.29394 22.1488 8.29394C22.5375 8.29394 22.8455 8.18761 23.0728 7.97494C23.3001 7.76228 23.4615 7.49828 23.5568 7.18294C23.6595 6.86028 23.7108 6.53394 23.7108 6.20394ZM24.8438 5.93994C24.8438 6.51194 24.7191 6.99594 24.4698 7.39194C24.2205 7.78794 23.8795 8.08861 23.4468 8.29394C23.0215 8.49928 22.5301 8.60194 21.9728 8.60194C21.5841 8.60194 21.2248 8.50661 20.8948 8.31594C20.5648 8.11794 20.2861 7.86128 20.0588 7.54594C19.8388 7.22328 19.6848 6.87861 19.5968 6.51194C19.5528 6.31394 19.5235 6.11594 19.5088 5.91794C19.5015 5.71261 19.4978 5.50728 19.4978 5.30194C19.4978 5.04528 19.5271 4.77761 19.5858 4.49894C19.6518 4.22028 19.7288 3.96361 19.8168 3.72894C20.1908 2.71694 20.7445 1.91394 21.4778 1.31994C22.2111 0.718609 23.0911 0.278609 24.1178 -5.78165e-05C24.1251 -5.78165e-05 24.1288 -5.78165e-05 24.1288 -5.78165e-05C24.1361 -5.78165e-05 24.1435 -5.78165e-05 24.1508 -5.78165e-05C24.2095 -5.78165e-05 24.2388 0.0256087 24.2388 0.0769418C24.2388 0.120942 24.2241 0.146609 24.1948 0.153942C24.1728 0.175942 24.1471 0.194275 24.1178 0.208942C24.0885 0.216275 24.0591 0.227275 24.0298 0.241942C23.8685 0.307942 23.7071 0.377609 23.5458 0.450942C23.3845 0.524276 23.2305 0.601275 23.0838 0.681942C22.9298 0.769942 22.7795 0.868942 22.6328 0.978942C22.4935 1.08161 22.3615 1.19528 22.2368 1.31994C22.0095 1.55461 21.7858 1.82961 21.5658 2.14494C21.3458 2.45294 21.1588 2.78294 21.0048 3.13494C20.8581 3.47961 20.7665 3.82061 20.7298 4.15794C20.9865 3.98928 21.2615 3.84994 21.5548 3.73994C21.8481 3.62994 22.1525 3.57494 22.4678 3.57494C23.1865 3.57494 23.7621 3.79128 24.1948 4.22394C24.6275 4.64928 24.8438 5.22128 24.8438 5.93994ZM31.3321 6.89694C31.3321 6.91161 31.3174 6.95194 31.2881 7.01794C31.2661 7.07661 31.2514 7.11694 31.2441 7.13894C31.2148 7.21228 31.1854 7.28561 31.1561 7.35894C31.1341 7.43228 31.1121 7.50561 31.0901 7.57894C31.0534 7.71828 31.0204 7.85761 30.9911 7.99694C30.9618 8.13628 30.9288 8.27194 30.8921 8.40394C30.8554 8.50661 30.7931 8.55794 30.7051 8.55794C30.4998 8.55794 30.2578 8.55061 29.9791 8.53594C29.7004 8.52128 29.4621 8.51394 29.2641 8.51394C28.8754 8.51394 28.5124 8.51761 28.1751 8.52494C27.8451 8.52494 27.5114 8.52861 27.1741 8.53594C27.0054 8.53594 26.8331 8.54328 26.6571 8.55794C26.4884 8.56528 26.3198 8.56894 26.1511 8.56894C26.1144 8.56894 26.0741 8.55794 26.0301 8.53594C25.9861 8.51394 25.9641 8.47728 25.9641 8.42594C25.9641 8.15461 26.0264 7.89428 26.1511 7.64494C26.2684 7.41761 26.4371 7.16461 26.6571 6.88594C26.8844 6.60728 27.1338 6.32494 27.4051 6.03894C27.6764 5.75294 27.9404 5.48161 28.1971 5.22494C28.4611 4.96828 28.6884 4.74828 28.8791 4.56494C29.1431 4.30828 29.3704 4.00028 29.5611 3.64094C29.7518 3.27428 29.8471 2.90394 29.8471 2.52994C29.8471 2.25128 29.8104 1.99094 29.7371 1.74894C29.6711 1.49961 29.5501 1.29794 29.3741 1.14394C29.1981 0.989942 28.9488 0.912942 28.6261 0.912942C28.3474 0.912942 28.0981 0.960609 27.8781 1.05594C27.6654 1.14394 27.4784 1.31261 27.3171 1.56194C27.2144 1.72328 27.1484 1.91394 27.1191 2.13394C27.0971 2.34661 27.0788 2.54828 27.0641 2.73894C27.0568 2.98828 26.9174 3.11294 26.6461 3.11294C26.2574 3.11294 26.0631 2.92961 26.0631 2.56294C26.0631 2.21828 26.1511 1.92128 26.3271 1.67194C26.5104 1.42261 26.7414 1.21728 27.0201 1.05594C27.3061 0.894609 27.6104 0.773609 27.9331 0.692942C28.2558 0.612275 28.5601 0.571942 28.8461 0.571942C29.2054 0.571942 29.5501 0.648942 29.8801 0.802942C30.2174 0.956942 30.4924 1.17694 30.7051 1.46294C30.9178 1.74161 31.0241 2.07528 31.0241 2.46394C31.0241 2.94794 30.9324 3.36228 30.7491 3.70694C30.5658 4.05161 30.3238 4.35594 30.0231 4.61994C29.7298 4.88394 29.4108 5.12961 29.0661 5.35694C28.7214 5.57694 28.3841 5.80794 28.0541 6.04994C27.8268 6.21861 27.6068 6.41294 27.3941 6.63294C27.1888 6.84561 26.9944 7.06194 26.8111 7.28194C26.7818 7.32594 26.7341 7.39194 26.6681 7.47994C26.6094 7.56794 26.5801 7.64128 26.5801 7.69994C26.5801 7.75861 26.6094 7.78794 26.6681 7.78794C27.1081 7.78794 27.5481 7.78061 27.9881 7.76594C28.4281 7.74394 28.8718 7.72928 29.3191 7.72194C29.7298 7.71461 30.0708 7.65228 30.3421 7.53494C30.6208 7.41761 30.8848 7.19028 31.1341 6.85294C31.1561 6.82361 31.1818 6.80894 31.2111 6.80894C31.2331 6.80894 31.2588 6.81994 31.2881 6.84194C31.3174 6.85661 31.3321 6.87494 31.3321 6.89694ZM40.8674 0.659942C40.8674 0.711275 40.8564 0.751609 40.8344 0.780942C40.8197 0.802942 40.783 0.813942 40.7244 0.813942C40.651 0.813942 40.5777 0.813942 40.5044 0.813942C40.431 0.806609 40.3577 0.802942 40.2844 0.802942C40.2037 0.802942 40.112 0.824942 40.0094 0.868942C39.9067 0.912942 39.8554 0.986275 39.8554 1.08894V8.02994C39.8554 8.13261 39.9067 8.20594 40.0094 8.24994C40.112 8.29394 40.2037 8.31594 40.2844 8.31594C40.365 8.31594 40.442 8.31228 40.5154 8.30494C40.596 8.29761 40.673 8.29394 40.7464 8.29394C40.8124 8.29394 40.8454 8.33061 40.8454 8.40394C40.8454 8.42594 40.8454 8.44794 40.8454 8.46994C40.8454 8.48461 40.8454 8.50294 40.8454 8.52494C40.8454 8.57628 40.8197 8.60194 40.7684 8.60194C40.5117 8.60194 40.2514 8.59461 39.9874 8.57994C39.7307 8.56528 39.4704 8.55794 39.2064 8.55794C39.0597 8.55794 38.9094 8.56161 38.7554 8.56894C38.6087 8.57628 38.462 8.58361 38.3154 8.59094C38.22 8.59828 38.1247 8.60561 38.0294 8.61294C37.9414 8.62028 37.8497 8.62394 37.7544 8.62394C37.7104 8.62394 37.6884 8.58728 37.6884 8.51394C37.6884 8.48461 37.692 8.44428 37.6994 8.39294C37.7067 8.33428 37.7287 8.30494 37.7654 8.30494C37.846 8.30494 37.9304 8.30861 38.0184 8.31594C38.1064 8.31594 38.1907 8.31594 38.2714 8.31594C38.352 8.31594 38.4474 8.29394 38.5574 8.24994C38.6674 8.20594 38.7224 8.13261 38.7224 8.02994V4.54294H34.2894V8.02994C34.2894 8.13261 34.3407 8.20594 34.4434 8.24994C34.546 8.29394 34.6377 8.31594 34.7184 8.31594C34.799 8.31594 34.876 8.31228 34.9494 8.30494C35.03 8.29761 35.1107 8.29394 35.1914 8.29394C35.2427 8.29394 35.272 8.31228 35.2794 8.34894C35.2867 8.35628 35.2904 8.37828 35.2904 8.41494C35.2904 8.44428 35.2904 8.46628 35.2904 8.48094C35.2904 8.50294 35.283 8.53594 35.2684 8.57994C35.239 8.59461 35.217 8.60194 35.2024 8.60194C34.9457 8.60194 34.689 8.59461 34.4324 8.57994C34.183 8.56528 33.93 8.55794 33.6734 8.55794C33.5194 8.55794 33.3654 8.56161 33.2114 8.56894C33.0647 8.57628 32.918 8.58361 32.7714 8.59094C32.676 8.59828 32.5844 8.60561 32.4964 8.61294C32.4084 8.62028 32.3167 8.62394 32.2214 8.62394C32.17 8.62394 32.1517 8.60561 32.1664 8.56894C32.1517 8.52494 32.1444 8.49928 32.1444 8.49194C32.1444 8.46261 32.148 8.42594 32.1554 8.38194C32.1627 8.33061 32.1884 8.30494 32.2324 8.30494C32.313 8.30494 32.3937 8.30861 32.4744 8.31594C32.5624 8.31594 32.6467 8.31594 32.7274 8.31594C32.8154 8.31594 32.9107 8.29394 33.0134 8.24994C33.1234 8.20594 33.1784 8.13261 33.1784 8.02994C33.1784 7.39928 33.1784 6.76861 33.1784 6.13794C33.1857 5.50728 33.1894 4.88028 33.1894 4.25694C33.1894 3.73628 33.1857 3.21194 33.1784 2.68394C33.1784 2.15594 33.1784 1.63161 33.1784 1.11094C33.1784 1.00828 33.1234 0.934942 33.0134 0.890942C32.9107 0.846942 32.8154 0.824942 32.7274 0.824942C32.6467 0.824942 32.5624 0.828609 32.4744 0.835942C32.3937 0.835942 32.313 0.835942 32.2324 0.835942C32.181 0.835942 32.1517 0.806609 32.1444 0.747942C32.137 0.689275 32.1334 0.645276 32.1334 0.615942C32.1334 0.549942 32.1627 0.516942 32.2214 0.516942C32.3167 0.516942 32.4084 0.520609 32.4964 0.527942C32.5844 0.535275 32.676 0.542609 32.7714 0.549942C32.918 0.557276 33.0647 0.564609 33.2114 0.571942C33.3654 0.579275 33.5194 0.582942 33.6734 0.582942C33.93 0.582942 34.1867 0.575609 34.4434 0.560942C34.7074 0.546275 34.9677 0.538942 35.2244 0.538942C35.2757 0.538942 35.3014 0.560942 35.3014 0.604942C35.3014 0.648942 35.3014 0.689275 35.3014 0.725942C35.3014 0.806609 35.2647 0.846942 35.1914 0.846942C35.1107 0.846942 35.03 0.843275 34.9494 0.835942C34.876 0.828609 34.799 0.824942 34.7184 0.824942C34.6377 0.824942 34.546 0.846942 34.4434 0.890942C34.3407 0.934942 34.2894 1.00828 34.2894 1.11094V4.17994H38.7224V1.19894C38.7224 1.05228 38.682 0.953275 38.6014 0.901942C38.5207 0.850609 38.4107 0.824942 38.2714 0.824942C38.1907 0.824942 38.1064 0.828609 38.0184 0.835942C37.9304 0.835942 37.846 0.835942 37.7654 0.835942C37.7214 0.835942 37.6957 0.813942 37.6884 0.769942C37.6884 0.718609 37.6884 0.678275 37.6884 0.648942C37.6884 0.560942 37.7177 0.516942 37.7764 0.516942C37.9524 0.516942 38.132 0.524275 38.3154 0.538942C38.506 0.553609 38.693 0.560942 38.8764 0.560942H39.2064C39.4704 0.560942 39.7307 0.553609 39.9874 0.538942C40.2514 0.524275 40.5117 0.516942 40.7684 0.516942C40.805 0.516942 40.8307 0.531609 40.8454 0.560942C40.86 0.590276 40.8674 0.623276 40.8674 0.659942ZM47.2024 6.52294C47.2024 6.94094 47.1071 7.28928 46.9164 7.56794C46.7258 7.84661 46.4728 8.07028 46.1574 8.23894C45.8494 8.40028 45.5121 8.51761 45.1454 8.59094C44.7861 8.65694 44.4341 8.68994 44.0894 8.68994C43.6421 8.68994 43.2204 8.62028 42.8244 8.48094C42.6631 8.42228 42.5054 8.35994 42.3514 8.29394C42.1974 8.22061 42.0361 8.16194 41.8674 8.11794C41.8381 7.88328 41.7868 7.62661 41.7134 7.34794C41.6474 7.06928 41.6144 6.81628 41.6144 6.58894C41.6144 6.48628 41.6291 6.40928 41.6584 6.35794C41.6951 6.29928 41.7721 6.26994 41.8894 6.26994C41.9921 6.26994 42.0581 6.29561 42.0874 6.34694C42.1168 6.39094 42.1388 6.45328 42.1534 6.53394C42.1828 6.63661 42.2084 6.73928 42.2304 6.84194C42.2524 6.93728 42.2781 7.03628 42.3074 7.13894C42.4541 7.57894 42.6704 7.88694 42.9564 8.06294C43.2498 8.23894 43.6238 8.32694 44.0784 8.32694C44.4524 8.32694 44.7861 8.27561 45.0794 8.17294C45.3801 8.06294 45.6148 7.88694 45.7834 7.64494C45.9594 7.40294 46.0474 7.08028 46.0474 6.67694C46.0474 6.36161 45.9411 6.07928 45.7284 5.82994C45.5158 5.57328 45.2811 5.37161 45.0244 5.22494C44.9658 5.18828 44.9034 5.15528 44.8374 5.12594C44.7714 5.09661 44.7054 5.06728 44.6394 5.03794C44.4121 4.92061 44.1811 4.80328 43.9464 4.68594C43.7191 4.56861 43.4881 4.45494 43.2534 4.34494C43.0261 4.22761 42.7914 4.08094 42.5494 3.90494C42.3148 3.72161 42.1131 3.51261 41.9444 3.27794C41.7831 3.04328 41.7024 2.78661 41.7024 2.50794C41.7024 2.03861 41.8271 1.64994 42.0764 1.34194C42.3258 1.03394 42.6448 0.802942 43.0334 0.648942C43.4221 0.494942 43.8254 0.417942 44.2434 0.417942C44.5441 0.417942 44.8118 0.454609 45.0464 0.527942C45.2884 0.601275 45.5268 0.678275 45.7614 0.758942C45.9961 0.832276 46.2528 0.883609 46.5314 0.912942C46.5534 1.13294 46.5754 1.35294 46.5974 1.57294C46.6194 1.79294 46.6524 2.01294 46.6964 2.23294C46.7038 2.26228 46.7074 2.29161 46.7074 2.32094C46.7148 2.35028 46.7184 2.37961 46.7184 2.40894C46.7184 2.52628 46.6781 2.60328 46.5974 2.63994C46.5241 2.66928 46.4398 2.68394 46.3444 2.68394C46.2491 2.68394 46.1978 2.66561 46.1904 2.62894C46.1831 2.59228 46.1721 2.53728 46.1574 2.46394C46.0621 1.87728 45.8604 1.43728 45.5524 1.14394C45.2444 0.843275 44.7824 0.692942 44.1664 0.692942C43.7118 0.692942 43.3561 0.813942 43.0994 1.05594C42.8501 1.29794 42.7254 1.64994 42.7254 2.11194C42.7254 2.41994 42.8061 2.68028 42.9674 2.89294C43.1288 3.10561 43.3414 3.29261 43.6054 3.45394C43.8768 3.60794 44.1701 3.75461 44.4854 3.89394C44.8081 4.03328 45.1271 4.17628 45.4424 4.32294C45.7578 4.46961 46.0474 4.64194 46.3114 4.83994C46.5828 5.03061 46.7991 5.26161 46.9604 5.53294C47.1218 5.80428 47.2024 6.13428 47.2024 6.52294ZM52.5347 6.43494C52.5347 6.10494 52.465 5.82994 52.3257 5.60994C52.1937 5.38261 52.0177 5.19194 51.7977 5.03794C51.5777 4.88394 51.3357 4.75561 51.0717 4.65294C50.8077 4.54294 50.5473 4.44028 50.2907 4.34494C49.8947 4.57228 49.5793 4.86194 49.3447 5.21394C49.11 5.55861 48.9927 5.96561 48.9927 6.43494C48.9927 7.04361 49.1393 7.50194 49.4327 7.80994C49.726 8.11794 50.177 8.27194 50.7857 8.27194C51.1377 8.27194 51.442 8.19128 51.6987 8.02994C51.9627 7.86861 52.168 7.64861 52.3147 7.36994C52.4613 7.09128 52.5347 6.77961 52.5347 6.43494ZM52.3257 2.21094C52.3257 1.71228 52.1863 1.34561 51.9077 1.11094C51.6363 0.868942 51.2623 0.747942 50.7857 0.747942C50.3383 0.747942 49.99 0.872609 49.7407 1.12194C49.4913 1.36394 49.3667 1.70494 49.3667 2.14494C49.3667 2.48961 49.451 2.77194 49.6197 2.99194C49.7883 3.21194 50.0047 3.39161 50.2687 3.53094C50.54 3.67028 50.815 3.79128 51.0937 3.89394C51.4383 3.73994 51.728 3.51994 51.9627 3.23394C52.2047 2.94061 52.3257 2.59961 52.3257 2.21094ZM53.6237 6.06094C53.6237 6.62561 53.4843 7.09861 53.2057 7.47994C52.9343 7.85394 52.575 8.13628 52.1277 8.32694C51.6803 8.51028 51.1927 8.60194 50.6647 8.60194C50.232 8.60194 49.8177 8.52861 49.4217 8.38194C49.033 8.22794 48.714 7.99328 48.4647 7.67794C48.2227 7.36261 48.1017 6.96294 48.1017 6.47894C48.1017 6.07561 48.1933 5.73828 48.3767 5.46694C48.5673 5.18828 48.8057 4.94994 49.0917 4.75194C49.385 4.54661 49.6857 4.36328 49.9937 4.20194C49.7663 4.10661 49.5353 3.98194 49.3007 3.82794C49.066 3.67394 48.868 3.48694 48.7067 3.26694C48.5453 3.04694 48.4647 2.79761 48.4647 2.51894C48.4647 2.03494 48.5893 1.64261 48.8387 1.34194C49.088 1.03394 49.407 0.810275 49.7957 0.670942C50.1843 0.531609 50.5913 0.461942 51.0167 0.461942C51.3467 0.461942 51.6767 0.520609 52.0067 0.637942C52.3367 0.755275 52.6117 0.934942 52.8317 1.17694C53.0517 1.41894 53.1617 1.72694 53.1617 2.10094C53.1617 2.43828 53.092 2.72794 52.9527 2.96994C52.8207 3.21194 52.6373 3.41728 52.4027 3.58594C52.168 3.75461 51.9077 3.90128 51.6217 4.02594C51.9223 4.11394 52.2267 4.25328 52.5347 4.44394C52.8427 4.62728 53.0993 4.85461 53.3047 5.12594C53.5173 5.39728 53.6237 5.70894 53.6237 6.06094ZM60.035 5.74194C60.035 6.08661 59.9653 6.45328 59.826 6.84194C59.6866 7.23061 59.485 7.54228 59.221 7.77694C58.9276 8.03361 58.5756 8.23161 58.165 8.37094C57.7543 8.51028 57.3546 8.57994 56.966 8.57994C56.7826 8.57994 56.5626 8.55794 56.306 8.51394C56.0493 8.46261 55.7963 8.38928 55.547 8.29394C55.2976 8.19128 55.0886 8.05928 54.92 7.89794C54.7513 7.72928 54.667 7.52761 54.667 7.29294C54.667 7.13161 54.722 7.00694 54.832 6.91894C54.942 6.82361 55.074 6.77594 55.228 6.77594C55.36 6.77594 55.4773 6.80894 55.58 6.87494C55.6826 6.94094 55.7376 7.04728 55.745 7.19394C55.7743 7.53128 55.8696 7.79161 56.031 7.97494C56.1996 8.15828 56.4636 8.24994 56.823 8.24994C57.329 8.24994 57.7396 8.13261 58.055 7.89794C58.3703 7.65594 58.605 7.29294 58.759 6.80894C58.8103 6.64028 58.8396 6.46794 58.847 6.29194C58.8616 6.10861 58.869 5.92894 58.869 5.75294C58.869 5.51094 58.8396 5.25061 58.781 4.97194C58.7296 4.68594 58.6306 4.44394 58.484 4.24594C58.3593 4.07728 58.198 3.96361 58 3.90494C57.8093 3.84628 57.6113 3.81694 57.406 3.81694C57.2446 3.81694 57.0686 3.84628 56.878 3.90494C56.6873 3.95628 56.5296 4.03328 56.405 4.13594C56.2803 4.23861 56.1666 4.37061 56.064 4.53194C55.9613 4.68594 55.9026 4.84728 55.888 5.01594C55.8806 5.05994 55.8733 5.11494 55.866 5.18094C55.8586 5.24694 55.822 5.27994 55.756 5.27994C55.7193 5.27994 55.6423 5.26528 55.525 5.23594C55.415 5.19928 55.3086 5.15894 55.206 5.11494C55.1106 5.06361 55.063 5.01961 55.063 4.98294C55.063 4.96094 55.0666 4.93894 55.074 4.91694C55.0813 4.89494 55.0886 4.87294 55.096 4.85094C55.1473 4.68228 55.1876 4.47328 55.217 4.22394C55.2536 3.96728 55.2793 3.69961 55.294 3.42094C55.3086 3.13494 55.3196 2.85994 55.327 2.59594C55.3343 2.33194 55.338 2.10828 55.338 1.92494C55.338 1.49228 55.316 1.05594 55.272 0.615942C55.4993 0.645276 55.723 0.667275 55.943 0.681942C56.1703 0.696609 56.3976 0.703942 56.625 0.703942H58.198C58.3886 0.703942 58.6086 0.692942 58.858 0.670942C59.1146 0.648942 59.3273 0.590275 59.496 0.494942C59.5326 0.472942 59.573 0.450942 59.617 0.428942C59.6683 0.399609 59.7123 0.384942 59.749 0.384942C59.771 0.384942 59.804 0.388608 59.848 0.395942C59.892 0.395942 59.914 0.414275 59.914 0.450942C59.914 0.487609 59.8883 0.564609 59.837 0.681942C59.7856 0.791942 59.7306 0.905609 59.672 1.02294C59.6133 1.14028 59.573 1.21728 59.551 1.25394C59.5216 1.30528 59.485 1.33828 59.441 1.35294C59.397 1.36761 59.3456 1.37494 59.287 1.37494C59.1916 1.37494 59.0926 1.37494 58.99 1.37494C58.8946 1.36761 58.7956 1.36028 58.693 1.35294C58.5683 1.33828 58.44 1.33461 58.308 1.34194C58.176 1.34194 58.0476 1.34194 57.923 1.34194C57.7176 1.34194 57.5123 1.34194 57.307 1.34194C57.1016 1.33461 56.8926 1.33094 56.68 1.33094C56.5553 1.33094 56.427 1.33094 56.295 1.33094C56.1703 1.33094 56.0456 1.33461 55.921 1.34194C55.9136 1.80394 55.8953 2.26961 55.866 2.73894C55.844 3.20094 55.822 3.66294 55.8 4.12494C56.1373 3.89028 56.449 3.71794 56.735 3.60794C57.0283 3.49061 57.3803 3.43194 57.791 3.43194C58.0696 3.43194 58.3373 3.47228 58.594 3.55294C58.858 3.63361 59.0926 3.76928 59.298 3.95994C59.5326 4.17994 59.7123 4.45128 59.837 4.77394C59.969 5.09661 60.035 5.41928 60.035 5.74194Z" fill="black"/>
</svg>
