<svg width="122" height="14" viewBox="0 0 122 14" fill="none" xmlns="http://www.w3.org/2000/svg">
<mask id="path-1-outside-1_41_585" maskUnits="userSpaceOnUse" x="-0.197144" y="-0.756836" width="122" height="15" fill="black">
<rect fill="white" x="-0.197144" y="-0.756836" width="122" height="15"/>
<path d="M4.11536 13.2432H0.300016V0.879527H4.28439C5.48373 0.879527 6.51001 1.12704 7.36323 1.62207C8.21645 2.11307 8.87045 2.81939 9.32523 3.74103C9.78001 4.65865 10.0074 5.75737 10.0074 7.0372C10.0074 8.32508 9.778 9.43386 9.31919 10.3635C8.86039 11.2892 8.1923 12.0016 7.31493 12.5006C6.43756 12.9956 5.37104 13.2432 4.11536 13.2432ZM1.79717 11.915H4.01877C5.04102 11.915 5.8882 11.7178 6.56031 11.3234C7.23243 10.929 7.73349 10.3676 8.06351 9.63912C8.39353 8.91066 8.55854 8.04335 8.55854 7.0372C8.55854 6.03909 8.39554 5.17984 8.06955 4.45943C7.74355 3.735 7.25657 3.1796 6.60861 2.79323C5.96065 2.40285 5.15371 2.20765 4.1878 2.20765H1.79717V11.915ZM16.2134 13.4363C15.3199 13.4363 14.5492 13.2391 13.9012 12.8447C13.2573 12.4463 12.7602 11.8909 12.4101 11.1785C12.064 10.4622 11.8909 9.62905 11.8909 8.67924C11.8909 7.72943 12.064 6.89231 12.4101 6.16788C12.7602 5.43942 13.2472 4.87195 13.871 4.46546C14.4989 4.05495 15.2314 3.8497 16.0685 3.8497C16.5514 3.8497 17.0284 3.93019 17.4992 4.09117C17.9701 4.25216 18.3987 4.51376 18.7851 4.87598C19.1715 5.23417 19.4793 5.70907 19.7088 6.30069C19.9382 6.89231 20.0529 7.62077 20.0529 8.48606V9.08975H12.9051V7.85822H18.604C18.604 7.33502 18.4994 6.86816 18.2901 6.45765C18.0848 6.04714 17.791 5.72316 17.4087 5.48571C17.0304 5.24825 16.5836 5.12953 16.0685 5.12953C15.501 5.12953 15.01 5.27039 14.5955 5.55211C14.185 5.82981 13.869 6.19203 13.6477 6.63876C13.4263 7.08549 13.3156 7.56442 13.3156 8.07555V8.89657C13.3156 9.59686 13.4364 10.1905 13.6779 10.6775C13.9234 11.1604 14.2634 11.5287 14.6981 11.7822C15.1328 12.0318 15.6378 12.1565 16.2134 12.1565C16.5877 12.1565 16.9257 12.1042 17.2276 11.9996C17.5334 11.8909 17.7971 11.7299 18.0184 11.5166C18.2398 11.2993 18.4108 11.0296 18.5315 10.7077L19.908 11.094C19.7631 11.5609 19.5196 11.9714 19.1775 12.3256C18.8354 12.6757 18.4128 12.9494 17.9097 13.1466C17.4067 13.3398 16.8412 13.4363 16.2134 13.4363ZM28.7883 6.04714L27.5085 6.40936C27.428 6.19605 27.3092 5.98878 27.1523 5.78755C26.9994 5.5823 26.7901 5.41326 26.5244 5.28045C26.2588 5.14764 25.9187 5.08123 25.5042 5.08123C24.9367 5.08123 24.4638 5.21203 24.0855 5.47363C23.7112 5.73121 23.5241 6.05921 23.5241 6.45765C23.5241 6.81182 23.6529 7.09153 23.9105 7.29679C24.168 7.50204 24.5705 7.67309 25.1178 7.80993L26.4943 8.14799C27.3233 8.34922 27.9411 8.65711 28.3476 9.07164C28.7541 9.48216 28.9573 10.0114 28.9573 10.6594C28.9573 11.1906 28.8044 11.6655 28.4985 12.0841C28.1967 12.5026 27.7741 12.8327 27.2308 13.0741C26.6874 13.3156 26.0556 13.4363 25.3352 13.4363C24.3894 13.4363 23.6066 13.2311 22.9868 12.8206C22.367 12.4101 21.9746 11.8104 21.8096 11.0216L23.1619 10.6835C23.2907 11.1826 23.5342 11.5568 23.8923 11.8064C24.2546 12.0559 24.7275 12.1807 25.311 12.1807C25.9751 12.1807 26.5023 12.0398 26.8927 11.7581C27.2871 11.4723 27.4843 11.1302 27.4843 10.7318C27.4843 10.4098 27.3716 10.1402 27.1463 9.92285C26.9209 9.7015 26.5748 9.53649 26.1079 9.42782L24.5624 9.06561C23.7132 8.86438 23.0894 8.55247 22.691 8.12988C22.2966 7.70327 22.0994 7.17001 22.0994 6.5301C22.0994 6.00689 22.2463 5.54406 22.5401 5.1416C22.8379 4.73914 23.2424 4.42321 23.7535 4.1938C24.2686 3.9644 24.8522 3.8497 25.5042 3.8497C26.4218 3.8497 27.1422 4.05093 27.6654 4.45339C28.1927 4.85585 28.5669 5.3871 28.7883 6.04714ZM33.8306 13.4605C33.243 13.4605 32.7098 13.3498 32.2309 13.1285C31.7519 12.9031 31.3716 12.5791 31.0899 12.1565C30.8082 11.7299 30.6673 11.2148 30.6673 10.6111C30.6673 10.0798 30.7719 9.64918 30.9812 9.31916C31.1905 8.98511 31.4702 8.72351 31.8203 8.53436C32.1705 8.3452 32.5569 8.20434 32.9794 8.11177C33.406 8.01518 33.8347 7.93871 34.2653 7.88237C34.8288 7.80993 35.2855 7.75559 35.6357 7.71937C35.9899 7.67912 36.2474 7.61272 36.4084 7.52015C36.5734 7.42759 36.6559 7.2666 36.6559 7.0372V6.9889C36.6559 6.39326 36.4929 5.93043 36.1669 5.60041C35.845 5.27039 35.356 5.10538 34.7 5.10538C34.0198 5.10538 33.4865 5.25429 33.1002 5.55211C32.7138 5.84993 32.4421 6.16788 32.2852 6.50595L30.9329 6.02299C31.1744 5.45955 31.4964 5.02086 31.8988 4.70694C32.3053 4.389 32.748 4.16764 33.227 4.04288C33.7099 3.91409 34.1848 3.8497 34.6517 3.8497C34.9495 3.8497 35.2916 3.88592 35.6779 3.95836C36.0683 4.02678 36.4446 4.16965 36.8069 4.38698C37.1731 4.60431 37.477 4.93232 37.7184 5.371C37.9599 5.80969 38.0806 6.39728 38.0806 7.13379V13.2432H36.6559V11.9875H36.5835C36.4869 12.1887 36.3259 12.404 36.1005 12.6334C35.8752 12.8628 35.5753 13.058 35.201 13.219C34.8267 13.38 34.3699 13.4605 33.8306 13.4605ZM34.048 12.1807C34.6114 12.1807 35.0863 12.07 35.4727 11.8486C35.8631 11.6273 36.1569 11.3415 36.3541 10.9914C36.5553 10.6412 36.6559 10.273 36.6559 9.88663V8.58265C36.5956 8.6551 36.4627 8.7215 36.2575 8.78187C36.0563 8.83822 35.8228 8.88852 35.5572 8.93279C35.2956 8.97304 35.04 9.00926 34.7905 9.04146C34.545 9.06963 34.3458 9.09378 34.1929 9.1139C33.8226 9.1622 33.4765 9.24068 33.1545 9.34934C32.8366 9.45398 32.579 9.61296 32.3818 9.82626C32.1886 10.0355 32.092 10.3213 32.092 10.6835C32.092 11.1785 32.2751 11.5528 32.6414 11.8064C33.0116 12.0559 33.4805 12.1807 34.048 12.1807ZM44.7137 3.97044V5.17782H39.9083V3.97044H44.7137ZM41.3089 1.74885H42.7336V10.5869C42.7336 10.9894 42.792 11.2912 42.9087 11.4925C43.0294 11.6897 43.1824 11.8225 43.3675 11.8909C43.5566 11.9553 43.7559 11.9875 43.9651 11.9875C44.1221 11.9875 44.2509 11.9794 44.3515 11.9633C44.4521 11.9432 44.5326 11.9271 44.593 11.915L44.8828 13.1949C44.7862 13.2311 44.6513 13.2673 44.4783 13.3035C44.3052 13.3438 44.0859 13.3639 43.8203 13.3639C43.4178 13.3639 43.0234 13.2774 42.637 13.1043C42.2547 12.9313 41.9367 12.6676 41.6832 12.3135C41.4337 11.9593 41.3089 11.5126 41.3089 10.9733V1.74885ZM46.8568 13.2432V3.97044H48.2815V13.2432H46.8568ZM47.5813 2.42498C47.3036 2.42498 47.0641 2.3304 46.8629 2.14125C46.6657 1.95209 46.5671 1.7247 46.5671 1.45907C46.5671 1.19345 46.6657 0.966057 46.8629 0.776899C47.0641 0.587743 47.3036 0.493164 47.5813 0.493164C47.859 0.493164 48.0964 0.587743 48.2936 0.776899C48.4949 0.966057 48.5955 1.19345 48.5955 1.45907C48.5955 1.7247 48.4949 1.95209 48.2936 2.14125C48.0964 2.3304 47.859 2.42498 47.5813 2.42498ZM58.4734 3.97044L55.0444 13.2432H53.5956L50.1666 3.97044H51.712L54.2717 11.3596H54.3683L56.9279 3.97044H58.4734ZM62.8004 13.4605C62.2128 13.4605 61.6795 13.3498 61.2006 13.1285C60.7217 12.9031 60.3413 12.5791 60.0596 12.1565C59.7779 11.7299 59.637 11.2148 59.637 10.6111C59.637 10.0798 59.7417 9.64918 59.9509 9.31916C60.1602 8.98511 60.4399 8.72351 60.7901 8.53436C61.1402 8.3452 61.5266 8.20434 61.9492 8.11177C62.3758 8.01518 62.8044 7.93871 63.235 7.88237C63.7985 7.80993 64.2553 7.75559 64.6054 7.71937C64.9596 7.67912 65.2172 7.61272 65.3781 7.52015C65.5432 7.42759 65.6257 7.2666 65.6257 7.0372V6.9889C65.6257 6.39326 65.4627 5.93043 65.1367 5.60041C64.8147 5.27039 64.3257 5.10538 63.6697 5.10538C62.9895 5.10538 62.4563 5.25429 62.0699 5.55211C61.6835 5.84993 61.4119 6.16788 61.2549 6.50595L59.9026 6.02299C60.1441 5.45955 60.4661 5.02086 60.8686 4.70694C61.275 4.389 61.7177 4.16764 62.1967 4.04288C62.6796 3.91409 63.1545 3.8497 63.6214 3.8497C63.9192 3.8497 64.2613 3.88592 64.6477 3.95836C65.0381 4.02678 65.4144 4.16965 65.7766 4.38698C66.1428 4.60431 66.4467 4.93232 66.6882 5.371C66.9296 5.80969 67.0504 6.39728 67.0504 7.13379V13.2432H65.6257V11.9875H65.5532C65.4566 12.1887 65.2956 12.404 65.0703 12.6334C64.8449 12.8628 64.545 13.058 64.1708 13.219C63.7965 13.38 63.3397 13.4605 62.8004 13.4605ZM63.0177 12.1807C63.5811 12.1807 64.0561 12.07 64.4424 11.8486C64.8328 11.6273 65.1266 11.3415 65.3238 10.9914C65.525 10.6412 65.6257 10.273 65.6257 9.88663V8.58265C65.5653 8.6551 65.4325 8.7215 65.2272 8.78187C65.026 8.83822 64.7926 8.88852 64.5269 8.93279C64.2653 8.97304 64.0098 9.00926 63.7602 9.04146C63.5147 9.06963 63.3155 9.09378 63.1626 9.1139C62.7923 9.1622 62.4462 9.24068 62.1242 9.34934C61.8063 9.45398 61.5487 9.61296 61.3515 9.82626C61.1583 10.0355 61.0617 10.3213 61.0617 10.6835C61.0617 11.1785 61.2449 11.5528 61.6111 11.8064C61.9814 12.0559 62.4502 12.1807 63.0177 12.1807ZM69.6508 13.2432V3.97044H71.0272V5.371H71.1238C71.2928 4.9122 71.5987 4.53992 72.0414 4.25417C72.4841 3.96842 72.9832 3.82555 73.5386 3.82555C73.6432 3.82555 73.774 3.82756 73.931 3.83159C74.0879 3.83561 74.2067 3.84165 74.2871 3.8497V5.29856C74.2388 5.28649 74.1282 5.26838 73.9551 5.24423C73.7861 5.21606 73.607 5.20197 73.4178 5.20197C72.9671 5.20197 72.5646 5.29655 72.2104 5.48571C71.8603 5.67084 71.5826 5.92841 71.3773 6.25843C71.1761 6.58443 71.0755 6.95671 71.0755 7.37527V13.2432H69.6508ZM84.8865 3.97044V5.17782H79.8879V3.97044H84.8865ZM81.3851 13.2432V2.69061C81.3851 2.15936 81.5098 1.71665 81.7594 1.36248C82.0089 1.00831 82.3329 0.74269 82.7313 0.565606C83.1297 0.388523 83.5503 0.299981 83.993 0.299981C84.3432 0.299981 84.6289 0.328154 84.8503 0.384499C85.0716 0.440843 85.2366 0.493163 85.3453 0.541459L84.9348 1.77299C84.8623 1.74885 84.7617 1.71866 84.6329 1.68244C84.5082 1.64622 84.3432 1.62811 84.1379 1.62811C83.667 1.62811 83.3269 1.74683 83.1177 1.98429C82.9124 2.22174 82.8098 2.56987 82.8098 3.02867V13.2432H81.3851ZM86.8832 13.2432V3.97044H88.2596V5.371H88.3562C88.5252 4.9122 88.8311 4.53992 89.2738 4.25417C89.7165 3.96842 90.2156 3.82555 90.771 3.82555C90.8756 3.82555 91.0064 3.82756 91.1634 3.83159C91.3203 3.83561 91.4391 3.84165 91.5196 3.8497V5.29856C91.4713 5.28649 91.3606 5.26838 91.1875 5.24423C91.0185 5.21606 90.8394 5.20197 90.6502 5.20197C90.1995 5.20197 89.797 5.29655 89.4429 5.48571C89.0927 5.67084 88.815 5.92841 88.6098 6.25843C88.4085 6.58443 88.3079 6.95671 88.3079 7.37527V13.2432H86.8832ZM96.814 13.4363C95.9205 13.4363 95.1498 13.2391 94.5018 12.8447C93.8579 12.4463 93.3608 11.8909 93.0107 11.1785C92.6646 10.4622 92.4915 9.62905 92.4915 8.67924C92.4915 7.72943 92.6646 6.89231 93.0107 6.16788C93.3608 5.43942 93.8478 4.87195 94.4716 4.46546C95.0995 4.05495 95.8319 3.8497 96.6691 3.8497C97.152 3.8497 97.6289 3.93019 98.0998 4.09117C98.5707 4.25216 98.9993 4.51376 99.3857 4.87598C99.7721 5.23417 100.08 5.70907 100.309 6.30069C100.539 6.89231 100.653 7.62077 100.653 8.48606V9.08975H93.5057V7.85822H99.2046C99.2046 7.33502 99.0999 6.86816 98.8907 6.45765C98.6854 6.04714 98.3916 5.72316 98.0093 5.48571C97.631 5.24825 97.1842 5.12953 96.6691 5.12953C96.1016 5.12953 95.6106 5.27039 95.1961 5.55211C94.7855 5.82981 94.4696 6.19203 94.2483 6.63876C94.0269 7.08549 93.9162 7.56442 93.9162 8.07555V8.89657C93.9162 9.59686 94.037 10.1905 94.2784 10.6775C94.5239 11.1604 94.864 11.5287 95.2987 11.7822C95.7333 12.0318 96.2384 12.1565 96.814 12.1565C97.1882 12.1565 97.5263 12.1042 97.8282 11.9996C98.134 11.8909 98.3976 11.7299 98.619 11.5166C98.8404 11.2993 99.0114 11.0296 99.1321 10.7077L100.509 11.094C100.364 11.5609 100.12 11.9714 99.7781 12.3256C99.436 12.6757 99.0134 12.9494 98.5103 13.1466C98.0073 13.3398 97.4418 13.4363 96.814 13.4363ZM106.853 3.97044V5.17782H102.048V3.97044H106.853ZM103.449 1.74885H104.873V10.5869C104.873 10.9894 104.932 11.2912 105.048 11.4925C105.169 11.6897 105.322 11.8225 105.507 11.8909C105.696 11.9553 105.896 11.9875 106.105 11.9875C106.262 11.9875 106.391 11.9794 106.491 11.9633C106.592 11.9432 106.672 11.9271 106.733 11.915L107.022 13.1949C106.926 13.2311 106.791 13.2673 106.618 13.3035C106.445 13.3438 106.226 13.3639 105.96 13.3639C105.557 13.3639 105.163 13.2774 104.777 13.1043C104.394 12.9313 104.076 12.6676 103.823 12.3135C103.573 11.9593 103.449 11.5126 103.449 10.9733V1.74885ZM112.785 13.4363C111.891 13.4363 111.12 13.2391 110.473 12.8447C109.829 12.4463 109.332 11.8909 108.981 11.1785C108.635 10.4622 108.462 9.62905 108.462 8.67924C108.462 7.72943 108.635 6.89231 108.981 6.16788C109.332 5.43942 109.819 4.87195 110.442 4.46546C111.07 4.05495 111.803 3.8497 112.64 3.8497C113.123 3.8497 113.6 3.93019 114.071 4.09117C114.541 4.25216 114.97 4.51376 115.356 4.87598C115.743 5.23417 116.051 5.70907 116.28 6.30069C116.509 6.89231 116.624 7.62077 116.624 8.48606V9.08975H109.476V7.85822H115.175C115.175 7.33502 115.071 6.86816 114.861 6.45765C114.656 6.04714 114.362 5.72316 113.98 5.48571C113.602 5.24825 113.155 5.12953 112.64 5.12953C112.072 5.12953 111.581 5.27039 111.167 5.55211C110.756 5.82981 110.44 6.19203 110.219 6.63876C109.998 7.08549 109.887 7.56442 109.887 8.07555V8.89657C109.887 9.59686 110.008 10.1905 110.249 10.6775C110.495 11.1604 110.835 11.5287 111.269 11.7822C111.704 12.0318 112.209 12.1565 112.785 12.1565C113.159 12.1565 113.497 12.1042 113.799 11.9996C114.105 11.8909 114.368 11.7299 114.59 11.5166C114.811 11.2993 114.982 11.0296 115.103 10.7077L116.479 11.094C116.334 11.5609 116.091 11.9714 115.749 12.3256C115.407 12.6757 114.984 12.9494 114.481 13.1466C113.978 13.3398 113.412 13.4363 112.785 13.4363ZM119.83 13.3398C119.532 13.3398 119.276 13.2331 119.063 13.0198C118.85 12.8065 118.743 12.5509 118.743 12.2531C118.743 11.9553 118.85 11.6997 119.063 11.4864C119.276 11.2731 119.532 11.1665 119.83 11.1665C120.128 11.1665 120.383 11.2731 120.596 11.4864C120.81 11.6997 120.916 11.9553 120.916 12.2531C120.916 12.4503 120.866 12.6314 120.765 12.7964C120.669 12.9614 120.538 13.0943 120.373 13.1949C120.212 13.2915 120.031 13.3398 119.83 13.3398ZM119.83 6.45765C119.532 6.45765 119.276 6.351 119.063 6.1377C118.85 5.92439 118.743 5.66883 118.743 5.371C118.743 5.07318 118.85 4.81762 119.063 4.60431C119.276 4.39101 119.532 4.28436 119.83 4.28436C120.128 4.28436 120.383 4.39101 120.596 4.60431C120.81 4.81762 120.916 5.07318 120.916 5.371C120.916 5.56821 120.866 5.74932 120.765 5.91433C120.669 6.07934 120.538 6.21215 120.373 6.31277C120.212 6.40936 120.031 6.45765 119.83 6.45765Z"/>
</mask>
<path d="M4.11536 13.2432H0.300016V0.879527H4.28439C5.48373 0.879527 6.51001 1.12704 7.36323 1.62207C8.21645 2.11307 8.87045 2.81939 9.32523 3.74103C9.78001 4.65865 10.0074 5.75737 10.0074 7.0372C10.0074 8.32508 9.778 9.43386 9.31919 10.3635C8.86039 11.2892 8.1923 12.0016 7.31493 12.5006C6.43756 12.9956 5.37104 13.2432 4.11536 13.2432ZM1.79717 11.915H4.01877C5.04102 11.915 5.8882 11.7178 6.56031 11.3234C7.23243 10.929 7.73349 10.3676 8.06351 9.63912C8.39353 8.91066 8.55854 8.04335 8.55854 7.0372C8.55854 6.03909 8.39554 5.17984 8.06955 4.45943C7.74355 3.735 7.25657 3.1796 6.60861 2.79323C5.96065 2.40285 5.15371 2.20765 4.1878 2.20765H1.79717V11.915ZM16.2134 13.4363C15.3199 13.4363 14.5492 13.2391 13.9012 12.8447C13.2573 12.4463 12.7602 11.8909 12.4101 11.1785C12.064 10.4622 11.8909 9.62905 11.8909 8.67924C11.8909 7.72943 12.064 6.89231 12.4101 6.16788C12.7602 5.43942 13.2472 4.87195 13.871 4.46546C14.4989 4.05495 15.2314 3.8497 16.0685 3.8497C16.5514 3.8497 17.0284 3.93019 17.4992 4.09117C17.9701 4.25216 18.3987 4.51376 18.7851 4.87598C19.1715 5.23417 19.4793 5.70907 19.7088 6.30069C19.9382 6.89231 20.0529 7.62077 20.0529 8.48606V9.08975H12.9051V7.85822H18.604C18.604 7.33502 18.4994 6.86816 18.2901 6.45765C18.0848 6.04714 17.791 5.72316 17.4087 5.48571C17.0304 5.24825 16.5836 5.12953 16.0685 5.12953C15.501 5.12953 15.01 5.27039 14.5955 5.55211C14.185 5.82981 13.869 6.19203 13.6477 6.63876C13.4263 7.08549 13.3156 7.56442 13.3156 8.07555V8.89657C13.3156 9.59686 13.4364 10.1905 13.6779 10.6775C13.9234 11.1604 14.2634 11.5287 14.6981 11.7822C15.1328 12.0318 15.6378 12.1565 16.2134 12.1565C16.5877 12.1565 16.9257 12.1042 17.2276 11.9996C17.5334 11.8909 17.7971 11.7299 18.0184 11.5166C18.2398 11.2993 18.4108 11.0296 18.5315 10.7077L19.908 11.094C19.7631 11.5609 19.5196 11.9714 19.1775 12.3256C18.8354 12.6757 18.4128 12.9494 17.9097 13.1466C17.4067 13.3398 16.8412 13.4363 16.2134 13.4363ZM28.7883 6.04714L27.5085 6.40936C27.428 6.19605 27.3092 5.98878 27.1523 5.78755C26.9994 5.5823 26.7901 5.41326 26.5244 5.28045C26.2588 5.14764 25.9187 5.08123 25.5042 5.08123C24.9367 5.08123 24.4638 5.21203 24.0855 5.47363C23.7112 5.73121 23.5241 6.05921 23.5241 6.45765C23.5241 6.81182 23.6529 7.09153 23.9105 7.29679C24.168 7.50204 24.5705 7.67309 25.1178 7.80993L26.4943 8.14799C27.3233 8.34922 27.9411 8.65711 28.3476 9.07164C28.7541 9.48216 28.9573 10.0114 28.9573 10.6594C28.9573 11.1906 28.8044 11.6655 28.4985 12.0841C28.1967 12.5026 27.7741 12.8327 27.2308 13.0741C26.6874 13.3156 26.0556 13.4363 25.3352 13.4363C24.3894 13.4363 23.6066 13.2311 22.9868 12.8206C22.367 12.4101 21.9746 11.8104 21.8096 11.0216L23.1619 10.6835C23.2907 11.1826 23.5342 11.5568 23.8923 11.8064C24.2546 12.0559 24.7275 12.1807 25.311 12.1807C25.9751 12.1807 26.5023 12.0398 26.8927 11.7581C27.2871 11.4723 27.4843 11.1302 27.4843 10.7318C27.4843 10.4098 27.3716 10.1402 27.1463 9.92285C26.9209 9.7015 26.5748 9.53649 26.1079 9.42782L24.5624 9.06561C23.7132 8.86438 23.0894 8.55247 22.691 8.12988C22.2966 7.70327 22.0994 7.17001 22.0994 6.5301C22.0994 6.00689 22.2463 5.54406 22.5401 5.1416C22.8379 4.73914 23.2424 4.42321 23.7535 4.1938C24.2686 3.9644 24.8522 3.8497 25.5042 3.8497C26.4218 3.8497 27.1422 4.05093 27.6654 4.45339C28.1927 4.85585 28.5669 5.3871 28.7883 6.04714ZM33.8306 13.4605C33.243 13.4605 32.7098 13.3498 32.2309 13.1285C31.7519 12.9031 31.3716 12.5791 31.0899 12.1565C30.8082 11.7299 30.6673 11.2148 30.6673 10.6111C30.6673 10.0798 30.7719 9.64918 30.9812 9.31916C31.1905 8.98511 31.4702 8.72351 31.8203 8.53436C32.1705 8.3452 32.5569 8.20434 32.9794 8.11177C33.406 8.01518 33.8347 7.93871 34.2653 7.88237C34.8288 7.80993 35.2855 7.75559 35.6357 7.71937C35.9899 7.67912 36.2474 7.61272 36.4084 7.52015C36.5734 7.42759 36.6559 7.2666 36.6559 7.0372V6.9889C36.6559 6.39326 36.4929 5.93043 36.1669 5.60041C35.845 5.27039 35.356 5.10538 34.7 5.10538C34.0198 5.10538 33.4865 5.25429 33.1002 5.55211C32.7138 5.84993 32.4421 6.16788 32.2852 6.50595L30.9329 6.02299C31.1744 5.45955 31.4964 5.02086 31.8988 4.70694C32.3053 4.389 32.748 4.16764 33.227 4.04288C33.7099 3.91409 34.1848 3.8497 34.6517 3.8497C34.9495 3.8497 35.2916 3.88592 35.6779 3.95836C36.0683 4.02678 36.4446 4.16965 36.8069 4.38698C37.1731 4.60431 37.477 4.93232 37.7184 5.371C37.9599 5.80969 38.0806 6.39728 38.0806 7.13379V13.2432H36.6559V11.9875H36.5835C36.4869 12.1887 36.3259 12.404 36.1005 12.6334C35.8752 12.8628 35.5753 13.058 35.201 13.219C34.8267 13.38 34.3699 13.4605 33.8306 13.4605ZM34.048 12.1807C34.6114 12.1807 35.0863 12.07 35.4727 11.8486C35.8631 11.6273 36.1569 11.3415 36.3541 10.9914C36.5553 10.6412 36.6559 10.273 36.6559 9.88663V8.58265C36.5956 8.6551 36.4627 8.7215 36.2575 8.78187C36.0563 8.83822 35.8228 8.88852 35.5572 8.93279C35.2956 8.97304 35.04 9.00926 34.7905 9.04146C34.545 9.06963 34.3458 9.09378 34.1929 9.1139C33.8226 9.1622 33.4765 9.24068 33.1545 9.34934C32.8366 9.45398 32.579 9.61296 32.3818 9.82626C32.1886 10.0355 32.092 10.3213 32.092 10.6835C32.092 11.1785 32.2751 11.5528 32.6414 11.8064C33.0116 12.0559 33.4805 12.1807 34.048 12.1807ZM44.7137 3.97044V5.17782H39.9083V3.97044H44.7137ZM41.3089 1.74885H42.7336V10.5869C42.7336 10.9894 42.792 11.2912 42.9087 11.4925C43.0294 11.6897 43.1824 11.8225 43.3675 11.8909C43.5566 11.9553 43.7559 11.9875 43.9651 11.9875C44.1221 11.9875 44.2509 11.9794 44.3515 11.9633C44.4521 11.9432 44.5326 11.9271 44.593 11.915L44.8828 13.1949C44.7862 13.2311 44.6513 13.2673 44.4783 13.3035C44.3052 13.3438 44.0859 13.3639 43.8203 13.3639C43.4178 13.3639 43.0234 13.2774 42.637 13.1043C42.2547 12.9313 41.9367 12.6676 41.6832 12.3135C41.4337 11.9593 41.3089 11.5126 41.3089 10.9733V1.74885ZM46.8568 13.2432V3.97044H48.2815V13.2432H46.8568ZM47.5813 2.42498C47.3036 2.42498 47.0641 2.3304 46.8629 2.14125C46.6657 1.95209 46.5671 1.7247 46.5671 1.45907C46.5671 1.19345 46.6657 0.966057 46.8629 0.776899C47.0641 0.587743 47.3036 0.493164 47.5813 0.493164C47.859 0.493164 48.0964 0.587743 48.2936 0.776899C48.4949 0.966057 48.5955 1.19345 48.5955 1.45907C48.5955 1.7247 48.4949 1.95209 48.2936 2.14125C48.0964 2.3304 47.859 2.42498 47.5813 2.42498ZM58.4734 3.97044L55.0444 13.2432H53.5956L50.1666 3.97044H51.712L54.2717 11.3596H54.3683L56.9279 3.97044H58.4734ZM62.8004 13.4605C62.2128 13.4605 61.6795 13.3498 61.2006 13.1285C60.7217 12.9031 60.3413 12.5791 60.0596 12.1565C59.7779 11.7299 59.637 11.2148 59.637 10.6111C59.637 10.0798 59.7417 9.64918 59.9509 9.31916C60.1602 8.98511 60.4399 8.72351 60.7901 8.53436C61.1402 8.3452 61.5266 8.20434 61.9492 8.11177C62.3758 8.01518 62.8044 7.93871 63.235 7.88237C63.7985 7.80993 64.2553 7.75559 64.6054 7.71937C64.9596 7.67912 65.2172 7.61272 65.3781 7.52015C65.5432 7.42759 65.6257 7.2666 65.6257 7.0372V6.9889C65.6257 6.39326 65.4627 5.93043 65.1367 5.60041C64.8147 5.27039 64.3257 5.10538 63.6697 5.10538C62.9895 5.10538 62.4563 5.25429 62.0699 5.55211C61.6835 5.84993 61.4119 6.16788 61.2549 6.50595L59.9026 6.02299C60.1441 5.45955 60.4661 5.02086 60.8686 4.70694C61.275 4.389 61.7177 4.16764 62.1967 4.04288C62.6796 3.91409 63.1545 3.8497 63.6214 3.8497C63.9192 3.8497 64.2613 3.88592 64.6477 3.95836C65.0381 4.02678 65.4144 4.16965 65.7766 4.38698C66.1428 4.60431 66.4467 4.93232 66.6882 5.371C66.9296 5.80969 67.0504 6.39728 67.0504 7.13379V13.2432H65.6257V11.9875H65.5532C65.4566 12.1887 65.2956 12.404 65.0703 12.6334C64.8449 12.8628 64.545 13.058 64.1708 13.219C63.7965 13.38 63.3397 13.4605 62.8004 13.4605ZM63.0177 12.1807C63.5811 12.1807 64.0561 12.07 64.4424 11.8486C64.8328 11.6273 65.1266 11.3415 65.3238 10.9914C65.525 10.6412 65.6257 10.273 65.6257 9.88663V8.58265C65.5653 8.6551 65.4325 8.7215 65.2272 8.78187C65.026 8.83822 64.7926 8.88852 64.5269 8.93279C64.2653 8.97304 64.0098 9.00926 63.7602 9.04146C63.5147 9.06963 63.3155 9.09378 63.1626 9.1139C62.7923 9.1622 62.4462 9.24068 62.1242 9.34934C61.8063 9.45398 61.5487 9.61296 61.3515 9.82626C61.1583 10.0355 61.0617 10.3213 61.0617 10.6835C61.0617 11.1785 61.2449 11.5528 61.6111 11.8064C61.9814 12.0559 62.4502 12.1807 63.0177 12.1807ZM69.6508 13.2432V3.97044H71.0272V5.371H71.1238C71.2928 4.9122 71.5987 4.53992 72.0414 4.25417C72.4841 3.96842 72.9832 3.82555 73.5386 3.82555C73.6432 3.82555 73.774 3.82756 73.931 3.83159C74.0879 3.83561 74.2067 3.84165 74.2871 3.8497V5.29856C74.2388 5.28649 74.1282 5.26838 73.9551 5.24423C73.7861 5.21606 73.607 5.20197 73.4178 5.20197C72.9671 5.20197 72.5646 5.29655 72.2104 5.48571C71.8603 5.67084 71.5826 5.92841 71.3773 6.25843C71.1761 6.58443 71.0755 6.95671 71.0755 7.37527V13.2432H69.6508ZM84.8865 3.97044V5.17782H79.8879V3.97044H84.8865ZM81.3851 13.2432V2.69061C81.3851 2.15936 81.5098 1.71665 81.7594 1.36248C82.0089 1.00831 82.3329 0.74269 82.7313 0.565606C83.1297 0.388523 83.5503 0.299981 83.993 0.299981C84.3432 0.299981 84.6289 0.328154 84.8503 0.384499C85.0716 0.440843 85.2366 0.493163 85.3453 0.541459L84.9348 1.77299C84.8623 1.74885 84.7617 1.71866 84.6329 1.68244C84.5082 1.64622 84.3432 1.62811 84.1379 1.62811C83.667 1.62811 83.3269 1.74683 83.1177 1.98429C82.9124 2.22174 82.8098 2.56987 82.8098 3.02867V13.2432H81.3851ZM86.8832 13.2432V3.97044H88.2596V5.371H88.3562C88.5252 4.9122 88.8311 4.53992 89.2738 4.25417C89.7165 3.96842 90.2156 3.82555 90.771 3.82555C90.8756 3.82555 91.0064 3.82756 91.1634 3.83159C91.3203 3.83561 91.4391 3.84165 91.5196 3.8497V5.29856C91.4713 5.28649 91.3606 5.26838 91.1875 5.24423C91.0185 5.21606 90.8394 5.20197 90.6502 5.20197C90.1995 5.20197 89.797 5.29655 89.4429 5.48571C89.0927 5.67084 88.815 5.92841 88.6098 6.25843C88.4085 6.58443 88.3079 6.95671 88.3079 7.37527V13.2432H86.8832ZM96.814 13.4363C95.9205 13.4363 95.1498 13.2391 94.5018 12.8447C93.8579 12.4463 93.3608 11.8909 93.0107 11.1785C92.6646 10.4622 92.4915 9.62905 92.4915 8.67924C92.4915 7.72943 92.6646 6.89231 93.0107 6.16788C93.3608 5.43942 93.8478 4.87195 94.4716 4.46546C95.0995 4.05495 95.8319 3.8497 96.6691 3.8497C97.152 3.8497 97.6289 3.93019 98.0998 4.09117C98.5707 4.25216 98.9993 4.51376 99.3857 4.87598C99.7721 5.23417 100.08 5.70907 100.309 6.30069C100.539 6.89231 100.653 7.62077 100.653 8.48606V9.08975H93.5057V7.85822H99.2046C99.2046 7.33502 99.0999 6.86816 98.8907 6.45765C98.6854 6.04714 98.3916 5.72316 98.0093 5.48571C97.631 5.24825 97.1842 5.12953 96.6691 5.12953C96.1016 5.12953 95.6106 5.27039 95.1961 5.55211C94.7855 5.82981 94.4696 6.19203 94.2483 6.63876C94.0269 7.08549 93.9162 7.56442 93.9162 8.07555V8.89657C93.9162 9.59686 94.037 10.1905 94.2784 10.6775C94.5239 11.1604 94.864 11.5287 95.2987 11.7822C95.7333 12.0318 96.2384 12.1565 96.814 12.1565C97.1882 12.1565 97.5263 12.1042 97.8282 11.9996C98.134 11.8909 98.3976 11.7299 98.619 11.5166C98.8404 11.2993 99.0114 11.0296 99.1321 10.7077L100.509 11.094C100.364 11.5609 100.12 11.9714 99.7781 12.3256C99.436 12.6757 99.0134 12.9494 98.5103 13.1466C98.0073 13.3398 97.4418 13.4363 96.814 13.4363ZM106.853 3.97044V5.17782H102.048V3.97044H106.853ZM103.449 1.74885H104.873V10.5869C104.873 10.9894 104.932 11.2912 105.048 11.4925C105.169 11.6897 105.322 11.8225 105.507 11.8909C105.696 11.9553 105.896 11.9875 106.105 11.9875C106.262 11.9875 106.391 11.9794 106.491 11.9633C106.592 11.9432 106.672 11.9271 106.733 11.915L107.022 13.1949C106.926 13.2311 106.791 13.2673 106.618 13.3035C106.445 13.3438 106.226 13.3639 105.96 13.3639C105.557 13.3639 105.163 13.2774 104.777 13.1043C104.394 12.9313 104.076 12.6676 103.823 12.3135C103.573 11.9593 103.449 11.5126 103.449 10.9733V1.74885ZM112.785 13.4363C111.891 13.4363 111.12 13.2391 110.473 12.8447C109.829 12.4463 109.332 11.8909 108.981 11.1785C108.635 10.4622 108.462 9.62905 108.462 8.67924C108.462 7.72943 108.635 6.89231 108.981 6.16788C109.332 5.43942 109.819 4.87195 110.442 4.46546C111.07 4.05495 111.803 3.8497 112.64 3.8497C113.123 3.8497 113.6 3.93019 114.071 4.09117C114.541 4.25216 114.97 4.51376 115.356 4.87598C115.743 5.23417 116.051 5.70907 116.28 6.30069C116.509 6.89231 116.624 7.62077 116.624 8.48606V9.08975H109.476V7.85822H115.175C115.175 7.33502 115.071 6.86816 114.861 6.45765C114.656 6.04714 114.362 5.72316 113.98 5.48571C113.602 5.24825 113.155 5.12953 112.64 5.12953C112.072 5.12953 111.581 5.27039 111.167 5.55211C110.756 5.82981 110.44 6.19203 110.219 6.63876C109.998 7.08549 109.887 7.56442 109.887 8.07555V8.89657C109.887 9.59686 110.008 10.1905 110.249 10.6775C110.495 11.1604 110.835 11.5287 111.269 11.7822C111.704 12.0318 112.209 12.1565 112.785 12.1565C113.159 12.1565 113.497 12.1042 113.799 11.9996C114.105 11.8909 114.368 11.7299 114.59 11.5166C114.811 11.2993 114.982 11.0296 115.103 10.7077L116.479 11.094C116.334 11.5609 116.091 11.9714 115.749 12.3256C115.407 12.6757 114.984 12.9494 114.481 13.1466C113.978 13.3398 113.412 13.4363 112.785 13.4363ZM119.83 13.3398C119.532 13.3398 119.276 13.2331 119.063 13.0198C118.85 12.8065 118.743 12.5509 118.743 12.2531C118.743 11.9553 118.85 11.6997 119.063 11.4864C119.276 11.2731 119.532 11.1665 119.83 11.1665C120.128 11.1665 120.383 11.2731 120.596 11.4864C120.81 11.6997 120.916 11.9553 120.916 12.2531C120.916 12.4503 120.866 12.6314 120.765 12.7964C120.669 12.9614 120.538 13.0943 120.373 13.1949C120.212 13.2915 120.031 13.3398 119.83 13.3398ZM119.83 6.45765C119.532 6.45765 119.276 6.351 119.063 6.1377C118.85 5.92439 118.743 5.66883 118.743 5.371C118.743 5.07318 118.85 4.81762 119.063 4.60431C119.276 4.39101 119.532 4.28436 119.83 4.28436C120.128 4.28436 120.383 4.39101 120.596 4.60431C120.81 4.81762 120.916 5.07318 120.916 5.371C120.916 5.56821 120.866 5.74932 120.765 5.91433C120.669 6.07934 120.538 6.21215 120.373 6.31277C120.212 6.40936 120.031 6.45765 119.83 6.45765Z" fill="#E3E4EB"/>
<path d="M0.300016 13.2432H1.56164e-05V13.5432H0.300016V13.2432ZM0.300016 0.879527V0.579527H1.56164e-05V0.879527H0.300016ZM7.36323 1.62207L7.21267 1.88156L7.21359 1.88209L7.36323 1.62207ZM9.32523 3.74103L9.0562 3.87379L9.05643 3.87425L9.32523 3.74103ZM9.31919 10.3635L9.58799 10.4968L9.58822 10.4963L9.31919 10.3635ZM7.31493 12.5006L7.46235 12.7619L7.46326 12.7614L7.31493 12.5006ZM1.79717 11.915H1.49717V12.215H1.79717V11.915ZM6.56031 11.3234L6.40848 11.0647L6.56031 11.3234ZM8.06955 4.45943L7.79597 4.58254L7.79623 4.58311L8.06955 4.45943ZM6.60861 2.79323L6.45379 3.0502L6.45497 3.05091L6.60861 2.79323ZM1.79717 2.20765V1.90765H1.49717V2.20765H1.79717ZM4.11536 13.2432V12.9432H0.300016V13.2432V13.5432H4.11536V13.2432ZM0.300016 13.2432H0.600016V0.879527H0.300016H1.56164e-05V13.2432H0.300016ZM0.300016 0.879527V1.17953H4.28439V0.879527V0.579527H0.300016V0.879527ZM4.28439 0.879527V1.17953C5.44223 1.17953 6.41412 1.41825 7.21267 1.88156L7.36323 1.62207L7.51378 1.36258C6.60589 0.835836 5.52522 0.579527 4.28439 0.579527V0.879527ZM7.36323 1.62207L7.21359 1.88209C8.01294 2.34209 8.6265 3.00298 9.0562 3.87379L9.32523 3.74103L9.59426 3.60828C9.11439 2.63581 8.41996 1.88406 7.51286 1.36205L7.36323 1.62207ZM9.32523 3.74103L9.05643 3.87425C9.48621 4.74142 9.7074 5.79232 9.7074 7.0372H10.0074H10.3074C10.3074 5.72242 10.0738 4.57587 9.59403 3.60781L9.32523 3.74103ZM10.0074 7.0372H9.7074C9.7074 8.28994 9.48427 9.35117 9.05017 10.2308L9.31919 10.3635L9.58822 10.4963C10.0717 9.51655 10.3074 8.36021 10.3074 7.0372H10.0074ZM9.31919 10.3635L9.0504 10.2303C8.61748 11.1038 7.99072 11.7711 7.1666 12.2399L7.31493 12.5006L7.46326 12.7614C8.39388 12.232 9.10329 11.4747 9.58799 10.4968L9.31919 10.3635ZM7.31493 12.5006L7.16751 12.2393C6.34494 12.7035 5.33195 12.9432 4.11536 12.9432V13.2432V13.5432C5.41013 13.5432 6.53019 13.2878 7.46235 12.7619L7.31493 12.5006ZM1.79717 11.915V12.215H4.01877V11.915V11.615H1.79717V11.915ZM4.01877 11.915V12.215C5.0782 12.215 5.98179 12.0108 6.71215 11.5822L6.56031 11.3234L6.40848 11.0647C5.79462 11.4249 5.00384 11.615 4.01877 11.615V11.915ZM6.56031 11.3234L6.71215 11.5822C7.43918 11.1555 7.9819 10.5462 8.33677 9.76292L8.06351 9.63912L7.79025 9.51532C7.48508 10.1889 7.02567 10.7025 6.40848 11.0647L6.56031 11.3234ZM8.06351 9.63912L8.33677 9.76292C8.68834 8.98689 8.85854 8.07538 8.85854 7.0372H8.55854H8.25854C8.25854 8.01133 8.09871 8.83443 7.79025 9.51532L8.06351 9.63912ZM8.55854 7.0372H8.85854C8.85854 6.00726 8.69042 5.1038 8.34287 4.33575L8.06955 4.45943L7.79623 4.58311C8.10066 5.25587 8.25854 6.07092 8.25854 7.0372H8.55854ZM8.06955 4.45943L8.34312 4.33632C7.99331 3.55895 7.46593 2.95515 6.76225 2.53556L6.60861 2.79323L6.45497 3.05091C7.04721 3.40405 7.4938 3.91104 7.79597 4.58254L8.06955 4.45943ZM6.60861 2.79323L6.76343 2.53627C6.05745 2.11093 5.19339 1.90765 4.1878 1.90765V2.20765V2.50765C5.11403 2.50765 5.86384 2.69477 6.45379 3.0502L6.60861 2.79323ZM4.1878 2.20765V1.90765H1.79717V2.20765V2.50765H4.1878V2.20765ZM1.79717 2.20765H1.49717V11.915H1.79717H2.09717V2.20765H1.79717ZM13.9012 12.8447L13.7434 13.0998L13.7452 13.101L13.9012 12.8447ZM12.4101 11.1785L12.14 11.309L12.1409 11.3109L12.4101 11.1785ZM12.4101 6.16788L12.1397 6.03791L12.1394 6.03855L12.4101 6.16788ZM13.871 4.46546L14.0348 4.71681L14.0352 4.71656L13.871 4.46546ZM17.4992 4.09118L17.5963 3.80731V3.80731L17.4992 4.09118ZM18.7851 4.87598L18.5799 5.09484L18.5811 5.09598L18.7851 4.87598ZM19.7088 6.30069L19.9885 6.19223V6.19223L19.7088 6.30069ZM20.0529 9.08976V9.38976H20.3529V9.08976H20.0529ZM12.9051 9.08976H12.6051V9.38976H12.9051V9.08976ZM12.9051 7.85822V7.55822H12.6051V7.85822H12.9051ZM18.604 7.85822V8.15822H18.904V7.85822H18.604ZM18.2901 6.45765L18.0217 6.59182L18.0228 6.59391L18.2901 6.45765ZM17.4087 5.48571L17.2492 5.73981L17.2504 5.74056L17.4087 5.48571ZM14.5955 5.55211L14.7636 5.8006L14.7641 5.80024L14.5955 5.55211ZM13.6477 6.63876L13.3789 6.50557V6.50557L13.6477 6.63876ZM13.6779 10.6775L13.4091 10.8107L13.4104 10.8134L13.6779 10.6775ZM14.6981 11.7822L14.5469 12.0414L14.5487 12.0424L14.6981 11.7822ZM17.2276 11.9996L17.3258 12.283L17.328 12.2822L17.2276 11.9996ZM18.0184 11.5166L18.2266 11.7326L18.2286 11.7307L18.0184 11.5166ZM18.5315 10.7077L18.6126 10.4188L18.3474 10.3444L18.2507 10.6023L18.5315 10.7077ZM19.908 11.094L20.1945 11.1829L20.2859 10.8885L19.989 10.8052L19.908 11.094ZM19.1775 12.3256L19.3921 12.5352L19.3933 12.534L19.1775 12.3256ZM17.9097 13.1466L18.0173 13.4266L18.0192 13.4259L17.9097 13.1466ZM16.2134 13.4363V13.1363C15.365 13.1363 14.6504 12.9495 14.0572 12.5885L13.9012 12.8447L13.7452 13.101C14.448 13.5288 15.2748 13.7363 16.2134 13.7363V13.4363ZM13.9012 12.8447L14.0591 12.5896C13.4654 12.2223 13.0059 11.7105 12.6793 11.0462L12.4101 11.1785L12.1409 11.3109C12.5146 12.0712 13.0491 12.6703 13.7434 13.0998L13.9012 12.8447ZM12.4101 11.1785L12.6802 11.048C12.3572 10.3795 12.1909 9.59252 12.1909 8.67924H11.8909H11.5909C11.5909 9.66559 11.7707 10.5448 12.14 11.309L12.4101 11.1785ZM11.8909 8.67924H12.1909C12.1909 7.76607 12.3572 6.97452 12.6808 6.29721L12.4101 6.16788L12.1394 6.03855C11.7708 6.8101 11.5909 7.69279 11.5909 8.67924H11.8909ZM12.4101 6.16788L12.6805 6.29784C13.009 5.61446 13.4609 5.0908 14.0348 4.71681L13.871 4.46546L13.7073 4.21412C13.0336 4.6531 12.5115 5.26439 12.1397 6.03791L12.4101 6.16788ZM13.871 4.46546L14.0352 4.71656C14.6087 4.34158 15.2827 4.1497 16.0685 4.1497V3.8497V3.5497C15.18 3.5497 14.3891 3.76832 13.7069 4.21437L13.871 4.46546ZM16.0685 3.8497V4.1497C16.5174 4.1497 16.9616 4.22441 17.4022 4.37504L17.4992 4.09118L17.5963 3.80731C17.0951 3.63597 16.5855 3.5497 16.0685 3.5497V3.8497ZM17.4992 4.09118L17.4022 4.37504C17.8303 4.5214 18.2226 4.75981 18.5799 5.09484L18.7851 4.87598L18.9903 4.65712C18.5749 4.26771 18.11 3.98292 17.5963 3.80731L17.4992 4.09118ZM18.7851 4.87598L18.5811 5.09598C18.928 5.41753 19.2128 5.85142 19.429 6.40915L19.7088 6.30069L19.9885 6.19223C19.7459 5.56673 19.4149 5.05081 18.9891 4.65598L18.7851 4.87598ZM19.7088 6.30069L19.429 6.40915C19.6411 6.95611 19.7529 7.64526 19.7529 8.48606H20.0529H20.3529C20.3529 7.59628 20.2352 6.82852 19.9885 6.19223L19.7088 6.30069ZM20.0529 8.48606H19.7529V9.08976H20.0529H20.3529V8.48606H20.0529ZM20.0529 9.08976V8.78975H12.9051V9.08976V9.38976H20.0529V9.08976ZM12.9051 9.08976H13.2051V7.85822H12.9051H12.6051V9.08976H12.9051ZM12.9051 7.85822V8.15822H18.604V7.85822V7.55822H12.9051V7.85822ZM18.604 7.85822H18.904C18.904 7.29412 18.7909 6.77951 18.5573 6.3214L18.2901 6.45765L18.0228 6.59391C18.2078 6.95681 18.304 7.37592 18.304 7.85822H18.604ZM18.2901 6.45765L18.5584 6.32349C18.3288 5.86438 17.9974 5.49819 17.567 5.23086L17.4087 5.48571L17.2504 5.74056C17.5846 5.94813 17.8408 6.2299 18.0217 6.59182L18.2901 6.45765ZM17.4087 5.48571L17.5682 5.23161C17.1351 4.95979 16.6312 4.82953 16.0685 4.82953V5.12953V5.42953C16.536 5.42953 16.9256 5.53672 17.2492 5.7398L17.4087 5.48571ZM16.0685 5.12953V4.82953C15.4491 4.82953 14.8975 4.98412 14.4268 5.30399L14.5955 5.55211L14.7641 5.80024C15.1225 5.55666 15.5529 5.42953 16.0685 5.42953V5.12953ZM14.5955 5.55211L14.4274 5.30363C13.9736 5.61058 13.6231 6.01263 13.3789 6.50557L13.6477 6.63876L13.9165 6.77196C14.1149 6.37143 14.3963 6.04904 14.7636 5.8006L14.5955 5.55211ZM13.6477 6.63876L13.3789 6.50557C13.1365 6.99477 13.0156 7.51942 13.0156 8.07555H13.3156H13.6156C13.6156 7.60943 13.7162 7.17622 13.9165 6.77195L13.6477 6.63876ZM13.3156 8.07555H13.0156V8.89657H13.3156H13.6156V8.07555H13.3156ZM13.3156 8.89657H13.0156C13.0156 9.63021 13.142 10.2722 13.4091 10.8107L13.6779 10.6775L13.9466 10.5442C13.7307 10.1088 13.6156 9.56351 13.6156 8.89657H13.3156ZM13.6779 10.6775L13.4104 10.8134C13.68 11.3436 14.0587 11.7565 14.5469 12.0414L14.6981 11.7822L14.8493 11.5231C14.4682 11.3008 14.1668 10.9772 13.9453 10.5415L13.6779 10.6775ZM14.6981 11.7822L14.5487 12.0424C15.0352 12.3217 15.5933 12.4565 16.2134 12.4565V12.1565V11.8565C15.6824 11.8565 15.2303 11.7418 14.8475 11.5221L14.6981 11.7822ZM16.2134 12.1565V12.4565C16.6155 12.4565 16.9875 12.4003 17.3258 12.283L17.2276 11.9996L17.1293 11.7161C16.864 11.8081 16.5598 11.8565 16.2134 11.8565V12.1565ZM17.2276 11.9996L17.328 12.2822C17.6718 12.1601 17.9728 11.9772 18.2266 11.7326L18.0184 11.5166L17.8102 11.3006C17.6214 11.4826 17.3951 11.6217 17.1271 11.7169L17.2276 11.9996ZM18.0184 11.5166L18.2286 11.7307C18.4844 11.4795 18.678 11.1714 18.8124 10.813L18.5315 10.7077L18.2507 10.6023C18.1436 10.8878 17.9951 11.119 17.8082 11.3025L18.0184 11.5166ZM18.5315 10.7077L18.4505 10.9965L19.8269 11.3829L19.908 11.094L19.989 10.8052L18.6126 10.4188L18.5315 10.7077ZM19.908 11.094L19.6215 11.0051C19.4906 11.4268 19.2715 11.7965 18.9617 12.1171L19.1775 12.3256L19.3933 12.534C19.7677 12.1463 20.0356 11.695 20.1945 11.1829L19.908 11.094ZM19.1775 12.3256L18.9629 12.1159C18.6535 12.4326 18.2679 12.6839 17.8003 12.8673L17.9097 13.1466L18.0192 13.4259C18.5577 13.2148 19.0173 12.9188 19.3921 12.5352L19.1775 12.3256ZM17.9097 13.1466L17.8022 12.8665C17.3386 13.0445 16.8104 13.1363 16.2134 13.1363V13.4363V13.7363C16.872 13.7363 17.4747 13.635 18.0173 13.4266L17.9097 13.1466ZM28.7883 6.04714L28.87 6.3358L29.1728 6.25011L29.0727 5.95175L28.7883 6.04714ZM27.5085 6.40936L27.2278 6.51527L27.3251 6.77305L27.5902 6.69802L27.5085 6.40936ZM27.1523 5.78755L26.9117 5.96684L26.9157 5.97206L27.1523 5.78755ZM26.5244 5.28045L26.6586 5.01212V5.01212L26.5244 5.28045ZM24.0855 5.47363L24.2556 5.72077L24.2562 5.72038L24.0855 5.47363ZM23.9105 7.29679L23.7235 7.5314V7.5314L23.9105 7.29679ZM25.1178 7.80993L25.0451 8.10097L25.0463 8.10127L25.1178 7.80993ZM26.4943 8.14799L26.4227 8.43934L26.4235 8.43953L26.4943 8.14799ZM28.3476 9.07164L28.1334 9.28169L28.1344 9.28273L28.3476 9.07164ZM28.4985 12.0841L28.2563 11.9071L28.2552 11.9086L28.4985 12.0841ZM22.9868 12.8206L23.1525 12.5705V12.5705L22.9868 12.8206ZM21.8096 11.0216L21.7368 10.7305L21.4569 10.8005L21.516 11.083L21.8096 11.0216ZM23.1619 10.6835L23.4524 10.6085L23.378 10.3203L23.0891 10.3925L23.1619 10.6835ZM23.8923 11.8064L23.7209 12.0525L23.7222 12.0534L23.8923 11.8064ZM26.8927 11.7581L27.0683 12.0013L27.0687 12.001L26.8927 11.7581ZM27.1463 9.92285L26.936 10.1369L26.938 10.1388L27.1463 9.92285ZM26.1079 9.42782L26.0394 9.71991L26.0399 9.72001L26.1079 9.42782ZM24.5624 9.06561L24.4933 9.35752L24.494 9.35769L24.5624 9.06561ZM22.691 8.12988L22.4707 8.33355L22.4727 8.33569L22.691 8.12988ZM22.5401 5.1416L22.2989 4.96315L22.2978 4.96472L22.5401 5.1416ZM23.7535 4.1938L23.6315 3.91975L23.6307 3.9201L23.7535 4.1938ZM27.6654 4.45339L27.4825 4.69118L27.4834 4.69185L27.6654 4.45339ZM28.7883 6.04714L28.7066 5.75848L27.4268 6.1207L27.5085 6.40936L27.5902 6.69802L28.87 6.3358L28.7883 6.04714ZM27.5085 6.40936L27.7891 6.30344C27.6968 6.05872 27.5622 5.82529 27.3888 5.60304L27.1523 5.78755L26.9157 5.97206C27.0563 6.15228 27.1592 6.33339 27.2278 6.51527L27.5085 6.40936ZM27.1523 5.78755L27.3929 5.60831C27.2077 5.35985 26.9595 5.16254 26.6586 5.01212L26.5244 5.28045L26.3903 5.54878C26.6207 5.66398 26.791 5.80474 26.9117 5.9668L27.1523 5.78755ZM26.5244 5.28045L26.6586 5.01212C26.3382 4.85191 25.948 4.78123 25.5042 4.78123V5.08123V5.38123C25.8895 5.38123 26.1795 5.44337 26.3903 5.54878L26.5244 5.28045ZM25.5042 5.08123V4.78123C24.8902 4.78123 24.354 4.92323 23.9149 5.22688L24.0855 5.47363L24.2562 5.72038C24.5737 5.50083 24.9833 5.38123 25.5042 5.38123V5.08123ZM24.0855 5.47363L23.9155 5.2265C23.4731 5.53093 23.2241 5.94542 23.2241 6.45765H23.5241H23.8241C23.8241 6.17301 23.9494 5.93148 24.2556 5.72077L24.0855 5.47363ZM23.5241 6.45765H23.2241C23.2241 6.89525 23.3885 7.26448 23.7235 7.5314L23.9105 7.29679L24.0974 7.06217C23.9172 6.91858 23.8241 6.72839 23.8241 6.45765H23.5241ZM23.9105 7.29679L23.7235 7.5314C24.0305 7.77606 24.4817 7.96012 25.0451 8.10097L25.1178 7.80993L25.1906 7.51888C24.6593 7.38606 24.3056 7.22803 24.0974 7.06217L23.9105 7.29679ZM25.1178 7.80993L25.0463 8.10127L26.4227 8.43933L26.4943 8.14799L26.5658 7.85665L25.1894 7.51858L25.1178 7.80993ZM26.4943 8.14799L26.4235 8.43953C27.2221 8.63337 27.7805 8.92178 28.1334 9.28169L28.3476 9.07164L28.5618 8.8616C28.1017 8.39244 27.4246 8.06508 26.565 7.85646L26.4943 8.14799ZM28.3476 9.07164L28.1344 9.28273C28.4783 9.63003 28.6573 10.08 28.6573 10.6594H28.9573H29.2573C29.2573 9.94283 29.0299 9.33428 28.5608 8.86056L28.3476 9.07164ZM28.9573 10.6594H28.6573C28.6573 11.1287 28.5236 11.5412 28.2563 11.9071L28.4985 12.0841L28.7407 12.2611C29.0851 11.7898 29.2573 11.2526 29.2573 10.6594H28.9573ZM28.4985 12.0841L28.2552 11.9086C27.9889 12.2779 27.6112 12.5767 27.1089 12.8L27.2308 13.0741L27.3526 13.3483C27.937 13.0886 28.4045 12.7274 28.7419 12.2596L28.4985 12.0841ZM27.2308 13.0741L27.1089 12.8C26.6112 13.0212 26.0223 13.1363 25.3352 13.1363V13.4363V13.7363C26.0889 13.7363 26.7637 13.61 27.3526 13.3483L27.2308 13.0741ZM25.3352 13.4363V13.1363C24.4323 13.1363 23.7113 12.9406 23.1525 12.5705L22.9868 12.8206L22.8211 13.0707C23.5019 13.5216 24.3464 13.7363 25.3352 13.7363V13.4363ZM22.9868 12.8206L23.1525 12.5705C22.6044 12.2074 22.2536 11.6788 22.1032 10.9601L21.8096 11.0216L21.516 11.083C21.6956 11.942 22.1297 12.6127 22.8211 13.0707L22.9868 12.8206ZM21.8096 11.0216L21.8824 11.3126L23.2346 10.9745L23.1619 10.6835L23.0891 10.3925L21.7368 10.7305L21.8096 11.0216ZM23.1619 10.6835L22.8714 10.7585C23.0147 11.3138 23.2935 11.7548 23.7209 12.0525L23.8923 11.8064L24.0638 11.5602C23.7748 11.3589 23.5666 11.0513 23.4524 10.6085L23.1619 10.6835ZM23.8923 11.8064L23.7222 12.0534C24.1484 12.3471 24.6862 12.4807 25.311 12.4807V12.1807V11.8807C24.7687 11.8807 24.3607 11.7647 24.0625 11.5593L23.8923 11.8064ZM25.311 12.1807V12.4807C26.0148 12.4807 26.6106 12.3316 27.0683 12.0013L26.8927 11.7581L26.7171 11.5148C26.394 11.748 25.9354 11.8807 25.311 11.8807V12.1807ZM26.8927 11.7581L27.0687 12.001C27.5215 11.673 27.7843 11.2482 27.7843 10.7318H27.4843H27.1843C27.1843 11.0123 27.0527 11.2717 26.7167 11.5151L26.8927 11.7581ZM27.4843 10.7318H27.7843C27.7843 10.331 27.6404 9.98255 27.3545 9.7069L27.1463 9.92285L26.938 10.1388C27.1029 10.2978 27.1843 10.4887 27.1843 10.7318H27.4843ZM27.1463 9.92285L27.3565 9.70882C27.0764 9.43379 26.6707 9.25081 26.1759 9.13563L26.1079 9.42782L26.0399 9.72001C26.4788 9.82217 26.7653 9.96921 26.936 10.1369L27.1463 9.92285ZM26.1079 9.42782L26.1764 9.13574L24.6309 8.77352L24.5624 9.06561L24.494 9.35769L26.0394 9.71991L26.1079 9.42782ZM24.5624 9.06561L24.6316 8.77369C23.8126 8.57962 23.252 8.28759 22.9093 7.92408L22.691 8.12988L22.4727 8.33569C22.9269 8.81734 23.6139 9.14914 24.4933 9.35752L24.5624 9.06561ZM22.691 8.12988L22.9113 7.92623C22.5735 7.56087 22.3994 7.10282 22.3994 6.5301H22.0994H21.7994C21.7994 7.2372 22.0197 7.84568 22.4707 8.33354L22.691 8.12988ZM22.0994 6.5301H22.3994C22.3994 6.06709 22.528 5.66692 22.7824 5.31849L22.5401 5.1416L22.2978 4.96472C21.9645 5.42121 21.7994 5.9467 21.7994 6.5301H22.0994ZM22.5401 5.1416L22.7812 5.32006C23.0449 4.96371 23.4065 4.67839 23.8763 4.4675L23.7535 4.1938L23.6307 3.9201C23.0783 4.16803 22.6309 4.51457 22.2989 4.96315L22.5401 5.1416ZM23.7535 4.1938L23.8755 4.46786C24.3467 4.25803 24.8877 4.1497 25.5042 4.1497V3.8497V3.5497C24.8167 3.5497 24.1906 3.67077 23.6315 3.91975L23.7535 4.1938ZM25.5042 3.8497V4.1497C26.381 4.1497 27.0288 4.34217 27.4825 4.69118L27.6654 4.45339L27.8483 4.2156C27.2556 3.75969 26.4627 3.5497 25.5042 3.5497V3.8497ZM27.6654 4.45339L27.4834 4.69185C27.9605 5.05607 28.3006 5.53637 28.5039 6.14253L28.7883 6.04714L29.0727 5.95175C28.8333 5.23784 28.4248 4.65564 27.8475 4.21493L27.6654 4.45339ZM32.2309 13.1285L32.1031 13.3999L32.105 13.4008L32.2309 13.1285ZM31.0899 12.1565L30.8395 12.3218L30.8403 12.3229L31.0899 12.1565ZM30.9812 9.31916L31.2346 9.47982L31.2354 9.47843L30.9812 9.31916ZM32.9794 8.11177L33.0436 8.40483L33.0457 8.40437L32.9794 8.11177ZM34.2653 7.88237L34.227 7.58482L34.2264 7.5849L34.2653 7.88237ZM35.6357 7.71937L35.6666 8.01779L35.6696 8.01745L35.6357 7.71937ZM36.4084 7.52015L36.2616 7.25849L36.2589 7.26008L36.4084 7.52015ZM36.1669 5.60041L35.9522 5.80991L35.9535 5.81124L36.1669 5.60041ZM33.1002 5.55211L33.2833 5.78972V5.78972L33.1002 5.55211ZM32.2852 6.50595L32.1843 6.78847L32.442 6.88052L32.5573 6.63228L32.2852 6.50595ZM30.9329 6.02299L30.6572 5.90482L30.5315 6.19817L30.832 6.30552L30.9329 6.02299ZM31.8988 4.70694L32.0833 4.94349L32.0837 4.94324L31.8988 4.70694ZM33.227 4.04288L33.3026 4.3332L33.3042 4.33275L33.227 4.04288ZM35.6779 3.95836L35.6227 4.25324L35.6262 4.25386L35.6779 3.95836ZM36.8069 4.38698L36.6525 4.64424L36.6538 4.64498L36.8069 4.38698ZM37.7184 5.37101L37.4556 5.51567V5.51567L37.7184 5.37101ZM38.0806 13.2432V13.5432H38.3806V13.2432H38.0806ZM36.6559 13.2432H36.3559V13.5432H36.6559V13.2432ZM36.6559 11.9875H36.9559V11.6875H36.6559V11.9875ZM36.5835 11.9875V11.6875H36.3947L36.313 11.8577L36.5835 11.9875ZM36.1005 12.6334L36.3145 12.8437V12.8437L36.1005 12.6334ZM35.201 13.219L35.0825 12.9434V12.9434L35.201 13.219ZM35.4727 11.8486L35.3247 11.5877L35.3236 11.5883L35.4727 11.8486ZM36.3541 10.9914L36.094 10.8419L36.0927 10.8442L36.3541 10.9914ZM36.6559 8.58265H36.9559V7.75403L36.4255 8.3906L36.6559 8.58265ZM36.2575 8.78187L36.3384 9.07079L36.3421 9.06968L36.2575 8.78187ZM35.5572 8.93279L35.6028 9.22933L35.6065 9.22871L35.5572 8.93279ZM34.7905 9.04146L34.8247 9.33953L34.8289 9.33899L34.7905 9.04146ZM34.1929 9.1139L34.2317 9.41138L34.232 9.41134L34.1929 9.1139ZM33.1545 9.34934L33.2483 9.63431L33.2504 9.63359L33.1545 9.34934ZM32.3818 9.82626L32.1615 9.6226L32.1613 9.62278L32.3818 9.82626ZM32.6414 11.8064L32.4706 12.0531L32.4737 12.0552L32.6414 11.8064ZM33.8306 13.4605V13.1605C33.2815 13.1605 32.7919 13.0573 32.3567 12.8561L32.2309 13.1285L32.105 13.4008C32.6277 13.6423 33.2046 13.7605 33.8306 13.7605V13.4605ZM32.2309 13.1285L32.3586 12.857C31.9269 12.6539 31.5896 12.3653 31.3395 11.9901L31.0899 12.1565L30.8403 12.3229C31.1536 12.7929 31.5769 13.1523 32.1031 13.3999L32.2309 13.1285ZM31.0899 12.1565L31.3402 11.9912C31.0964 11.622 30.9673 11.1668 30.9673 10.6111H30.6673H30.3673C30.3673 11.2627 30.5199 11.8379 30.8395 12.3218L31.0899 12.1565ZM30.6673 10.6111H30.9673C30.9673 10.1169 31.0649 9.74743 31.2346 9.47982L30.9812 9.31916L30.7279 9.15849C30.479 9.55092 30.3673 10.0427 30.3673 10.6111H30.6673ZM30.9812 9.31916L31.2354 9.47843C31.4169 9.18878 31.658 8.96306 31.9629 8.7983L31.8203 8.53436L31.6778 8.27041C31.2824 8.48397 30.9641 8.78144 30.727 9.15988L30.9812 9.31916ZM31.8203 8.53436L31.9629 8.7983C32.2864 8.62356 32.646 8.49191 33.0436 8.40482L32.9794 8.11177L32.9152 7.81872C32.4677 7.91676 32.0546 8.06684 31.6778 8.27041L31.8203 8.53436ZM32.9794 8.11177L33.0457 8.40437C33.4633 8.3098 33.8828 8.23497 34.3042 8.17983L34.2653 7.88237L34.2264 7.5849C33.7865 7.64246 33.3488 7.72056 32.9132 7.81918L32.9794 8.11177ZM34.2653 7.88237L34.3036 8.17992C34.8658 8.10763 35.3199 8.05364 35.6666 8.01778L35.6357 7.71937L35.6048 7.42096C35.2512 7.45755 34.7917 7.51222 34.227 7.58482L34.2653 7.88237ZM35.6357 7.71937L35.6696 8.01745C36.0339 7.97605 36.342 7.90441 36.558 7.78022L36.4084 7.52015L36.2589 7.26008C36.1529 7.32103 35.9458 7.3822 35.6018 7.42129L35.6357 7.71937ZM36.4084 7.52015L36.5552 7.7818C36.8364 7.62402 36.9559 7.34783 36.9559 7.0372H36.6559H36.3559C36.3559 7.18538 36.3104 7.23115 36.2616 7.25851L36.4084 7.52015ZM36.6559 7.0372H36.9559V6.9889H36.6559H36.3559V7.0372H36.6559ZM36.6559 6.9889H36.9559C36.9559 6.33775 36.7764 5.79047 36.3804 5.38958L36.1669 5.60041L35.9535 5.81124C36.2095 6.07039 36.3559 6.44876 36.3559 6.9889H36.6559ZM36.1669 5.60041L36.3817 5.39091C35.9829 4.98222 35.4022 4.80538 34.7 4.80538V5.10538V5.40538C35.3097 5.40538 35.707 5.55856 35.9522 5.80991L36.1669 5.60041ZM34.7 5.10538V4.80538C33.9792 4.80538 33.3731 4.96297 32.917 5.31451L33.1002 5.55211L33.2833 5.78972C33.6 5.54561 34.0605 5.40538 34.7 5.40538V5.10538ZM33.1002 5.55211L32.917 5.31451C32.5039 5.63298 32.1956 5.98647 32.0131 6.37961L32.2852 6.50595L32.5573 6.63228C32.6887 6.34929 32.9238 6.06689 33.2833 5.78972L33.1002 5.55211ZM32.2852 6.50595L32.3861 6.22342L31.0338 5.74047L30.9329 6.02299L30.832 6.30552L32.1843 6.78847L32.2852 6.50595ZM30.9329 6.02299L31.2087 6.14117C31.4342 5.61492 31.7281 5.22059 32.0833 4.94349L31.8988 4.70694L31.7143 4.47039C31.2646 4.82113 30.9146 5.30417 30.6572 5.90482L30.9329 6.02299ZM31.8988 4.70694L32.0837 4.94324C32.4592 4.64948 32.8651 4.44717 33.3026 4.33319L33.227 4.04288L33.1513 3.75257C32.631 3.88812 32.1514 4.12852 31.714 4.47064L31.8988 4.70694ZM33.227 4.04288L33.3042 4.33275C33.7638 4.21021 34.2127 4.1497 34.6517 4.1497V3.8497V3.5497C34.1569 3.5497 33.6561 3.61797 33.1497 3.75301L33.227 4.04288ZM34.6517 3.8497V4.1497C34.9261 4.1497 35.2491 4.18319 35.6227 4.25322L35.6779 3.95836L35.7332 3.6635C35.334 3.58865 34.9728 3.5497 34.6517 3.5497V3.8497ZM35.6779 3.95836L35.6262 4.25386C35.978 4.31552 36.3197 4.44458 36.6525 4.64423L36.8069 4.38698L36.9612 4.12974C36.5695 3.89473 36.1587 3.73804 35.7297 3.66287L35.6779 3.95836ZM36.8069 4.38698L36.6538 4.64498C36.9664 4.83053 37.2354 5.11556 37.4556 5.51567L37.7184 5.37101L37.9812 5.22634C37.7185 4.74909 37.3797 4.3781 36.9599 4.12899L36.8069 4.38698ZM37.7184 5.37101L37.4556 5.51567C37.6639 5.89403 37.7806 6.42574 37.7806 7.13379H38.0806H38.3806C38.3806 6.36882 38.2559 5.72535 37.9812 5.22634L37.7184 5.37101ZM38.0806 7.13379H37.7806V13.2432H38.0806H38.3806V7.13379H38.0806ZM38.0806 13.2432V12.9432H36.6559V13.2432V13.5432H38.0806V13.2432ZM36.6559 13.2432H36.9559V11.9875H36.6559H36.3559V13.2432H36.6559ZM36.6559 11.9875V11.6875H36.5835V11.9875V12.2875H36.6559V11.9875ZM36.5835 11.9875L36.313 11.8577C36.2355 12.0192 36.0981 12.2079 35.8865 12.4232L36.1005 12.6334L36.3145 12.8437C36.5537 12.6002 36.7383 12.3582 36.8539 12.1173L36.5835 11.9875ZM36.1005 12.6334L35.8865 12.4232C35.6947 12.6185 35.4302 12.7939 35.0825 12.9434L35.201 13.219L35.3196 13.4946C35.7204 13.3222 36.0557 13.1072 36.3145 12.8437L36.1005 12.6334ZM35.201 13.219L35.0825 12.9434C34.7557 13.084 34.3417 13.1605 33.8306 13.1605V13.4605V13.7605C34.3982 13.7605 34.8978 13.676 35.3196 13.4946L35.201 13.219ZM34.048 12.1807V12.4807C34.6501 12.4807 35.1795 12.3623 35.6218 12.1089L35.4727 11.8486L35.3236 11.5883C34.9931 11.7776 34.5728 11.8807 34.048 11.8807V12.1807ZM35.4727 11.8486L35.6207 12.1096C36.0528 11.8646 36.3885 11.5417 36.6155 11.1386L36.3541 10.9914L36.0927 10.8442C35.9253 11.1414 35.6733 11.39 35.3247 11.5877L35.4727 11.8486ZM36.3541 10.9914L36.6142 11.1409C36.8403 10.7474 36.9559 10.3279 36.9559 9.88663H36.6559H36.3559C36.3559 10.2181 36.2703 10.5351 36.094 10.8419L36.3541 10.9914ZM36.6559 9.88663H36.9559V8.58265H36.6559H36.3559V9.88663H36.6559ZM36.6559 8.58265L36.4255 8.3906C36.4326 8.38202 36.4252 8.39429 36.3769 8.41846C36.3316 8.44109 36.2652 8.4669 36.1728 8.49406L36.2575 8.78187L36.3421 9.06968C36.4551 9.03647 36.5577 8.9989 36.6452 8.95512C36.7297 8.91288 36.8189 8.85573 36.8864 8.77471L36.6559 8.58265ZM36.2575 8.78187L36.1766 8.49298C35.9882 8.54573 35.7657 8.5939 35.5079 8.63688L35.5572 8.93279L35.6065 9.22871C35.8799 9.18314 36.1243 9.1307 36.3384 9.07076L36.2575 8.78187ZM35.5572 8.93279L35.5116 8.63628C35.2523 8.67618 34.9991 8.71206 34.7521 8.74393L34.7905 9.04146L34.8289 9.33899C35.081 9.30647 35.3389 9.2699 35.6028 9.22931L35.5572 8.93279ZM34.7905 9.04146L34.7563 8.74342C34.51 8.77168 34.309 8.79604 34.1537 8.81647L34.1929 9.1139L34.232 9.41134C34.3826 9.39152 34.58 9.36758 34.8247 9.3395L34.7905 9.04146ZM34.1929 9.1139L34.1541 8.81642C33.7663 8.86701 33.4008 8.94958 33.0586 9.0651L33.1545 9.34934L33.2504 9.63359C33.5521 9.53177 33.8789 9.45739 34.2317 9.41138L34.1929 9.1139ZM33.1545 9.34934L33.0607 9.06438C32.7018 9.1825 32.3982 9.36654 32.1615 9.6226L32.3818 9.82626L32.6021 10.0299C32.7597 9.85937 32.9713 9.72547 33.2483 9.63431L33.1545 9.34934ZM32.3818 9.82626L32.1613 9.62278C31.9042 9.90134 31.792 10.2671 31.792 10.6835H32.092H32.392C32.392 10.3754 32.473 10.1697 32.6022 10.0297L32.3818 9.82626ZM32.092 10.6835H31.792C31.792 11.2642 32.0134 11.7365 32.4706 12.053L32.6414 11.8064L32.8121 11.5597C32.5368 11.3691 32.392 11.0929 32.392 10.6835H32.092ZM32.6414 11.8064L32.4737 12.0552C32.9054 12.3461 33.4369 12.4807 34.048 12.4807V12.1807V11.8807C33.5241 11.8807 33.1179 11.7657 32.809 11.5576L32.6414 11.8064ZM44.7137 3.97044H45.0137V3.67044H44.7137V3.97044ZM44.7137 5.17782V5.47782H45.0137V5.17782H44.7137ZM39.9083 5.17782H39.6083V5.47782H39.9083V5.17782ZM39.9083 3.97044V3.67044H39.6083V3.97044H39.9083ZM41.3089 1.74885V1.44885H41.0089V1.74885H41.3089ZM42.7336 1.74885H43.0336V1.44885H42.7336V1.74885ZM42.9087 11.4925L42.6491 11.643L42.6528 11.6491L42.9087 11.4925ZM43.3675 11.8909L43.2635 12.1724L43.2708 12.1749L43.3675 11.8909ZM44.3515 11.9633L44.3989 12.2598L44.4103 12.2575L44.3515 11.9633ZM44.593 11.915L44.8856 11.8488L44.821 11.5635L44.5341 11.6209L44.593 11.915ZM44.8828 13.1949L44.9881 13.4758L45.2331 13.3839L45.1754 13.1286L44.8828 13.1949ZM44.4783 13.3035L44.4168 13.0098L44.4103 13.0113L44.4783 13.3035ZM42.637 13.1043L42.5133 13.3776L42.5144 13.3781L42.637 13.1043ZM41.6832 12.3135L41.4379 12.4863L41.4393 12.4881L41.6832 12.3135ZM44.7137 3.97044H44.4137V5.17782H44.7137H45.0137V3.97044H44.7137ZM44.7137 5.17782V4.87782H39.9083V5.17782V5.47782H44.7137V5.17782ZM39.9083 5.17782H40.2083V3.97044H39.9083H39.6083V5.17782H39.9083ZM39.9083 3.97044V4.27044H44.7137V3.97044V3.67044H39.9083V3.97044ZM41.3089 1.74885V2.04885H42.7336V1.74885V1.44885H41.3089V1.74885ZM42.7336 1.74885H42.4336V10.5869H42.7336H43.0336V1.74885H42.7336ZM42.7336 10.5869H42.4336C42.4336 11.0085 42.493 11.3737 42.6492 11.643L42.9087 11.4925L43.1682 11.3419C43.0909 11.2087 43.0336 10.9702 43.0336 10.5869H42.7336ZM42.9087 11.4925L42.6528 11.6491C42.8024 11.8935 43.0047 12.0767 43.2635 12.1723L43.3675 11.8909L43.4715 11.6095C43.36 11.5683 43.2564 11.4858 43.1645 11.3358L42.9087 11.4925ZM43.3675 11.8909L43.2708 12.1749C43.4925 12.2504 43.7245 12.2875 43.9651 12.2875V11.9875V11.6875C43.7872 11.6875 43.6207 11.6602 43.4642 11.6069L43.3675 11.8909ZM43.9651 11.9875V12.2875C44.1305 12.2875 44.2766 12.2791 44.3989 12.2596L44.3515 11.9633L44.3041 11.6671C44.2252 11.6797 44.1137 11.6875 43.9651 11.6875V11.9875ZM44.3515 11.9633L44.4103 12.2575C44.511 12.2374 44.5914 12.2213 44.6518 12.2092L44.593 11.915L44.5341 11.6209C44.4738 11.6329 44.3933 11.649 44.2927 11.6692L44.3515 11.9633ZM44.593 11.915L44.3004 11.9813L44.5902 13.2611L44.8828 13.1949L45.1754 13.1286L44.8856 11.8488L44.593 11.915ZM44.8828 13.1949L44.7774 12.914C44.7017 12.9424 44.5839 12.9749 44.4168 13.0099L44.4783 13.3035L44.5397 13.5972C44.7188 13.5597 44.8707 13.5198 44.9881 13.4758L44.8828 13.1949ZM44.4783 13.3035L44.4103 13.0113C44.2676 13.0445 44.0731 13.0639 43.8203 13.0639V13.3639V13.6639C44.0987 13.6639 44.3429 13.643 44.5462 13.5957L44.4783 13.3035ZM43.8203 13.3639V13.0639C43.4622 13.0639 43.1095 12.9872 42.7597 12.8305L42.637 13.1043L42.5144 13.3781C42.9373 13.5675 43.3733 13.6639 43.8203 13.6639V13.3639ZM42.637 13.1043L42.7607 12.831C42.4283 12.6805 42.1512 12.4518 41.9271 12.1388L41.6832 12.3135L41.4393 12.4881C41.7223 12.8835 42.0811 13.182 42.5133 13.3776L42.637 13.1043ZM41.6832 12.3135L41.9284 12.1407C41.7224 11.8483 41.6089 11.466 41.6089 10.9733H41.3089H41.0089C41.0089 11.5592 41.1449 12.0703 41.4379 12.4863L41.6832 12.3135ZM41.3089 10.9733H41.6089V1.74885H41.3089H41.0089V10.9733H41.3089ZM46.8568 13.2432H46.5568V13.5432H46.8568V13.2432ZM46.8568 3.97044V3.67044H46.5568V3.97044H46.8568ZM48.2816 3.97044H48.5816V3.67044H48.2816V3.97044ZM48.2816 13.2432V13.5432H48.5816V13.2432H48.2816ZM46.8629 2.14125L46.6552 2.35776L46.6574 2.35983L46.8629 2.14125ZM46.8629 0.776899L46.6574 0.5583L46.6552 0.560395L46.8629 0.776899ZM48.2936 0.776899L48.0859 0.993415L48.0882 0.995487L48.2936 0.776899ZM48.2936 2.14125L48.0881 1.92265L48.086 1.92474L48.2936 2.14125ZM46.8568 13.2432H47.1568V3.97044H46.8568H46.5568V13.2432H46.8568ZM46.8568 3.97044V4.27044H48.2816V3.97044V3.67044H46.8568V3.97044ZM48.2816 3.97044H47.9815V13.2432H48.2816H48.5816V3.97044H48.2816ZM48.2816 13.2432V12.9432H46.8568V13.2432V13.5432H48.2816V13.2432ZM47.5813 2.42498V2.12498C47.3795 2.12498 47.2136 2.0592 47.0683 1.92266L46.8629 2.14125L46.6574 2.35983C46.9146 2.60161 47.2277 2.72498 47.5813 2.72498V2.42498ZM46.8629 2.14125L47.0705 1.92474C46.9304 1.79033 46.8671 1.64036 46.8671 1.45907H46.5671H46.2671C46.2671 1.80904 46.4009 2.11385 46.6552 2.35775L46.8629 2.14125ZM46.5671 1.45907H46.8671C46.8671 1.27779 46.9304 1.12782 47.0705 0.993403L46.8629 0.776899L46.6552 0.560395C46.4009 0.804298 46.2671 1.10911 46.2671 1.45907H46.5671ZM46.8629 0.776899L47.0683 0.995488C47.2136 0.858948 47.3795 0.793164 47.5813 0.793164V0.493164V0.193164C47.2277 0.193164 46.9146 0.316537 46.6574 0.558311L46.8629 0.776899ZM47.5813 0.493164V0.793164C47.783 0.793164 47.9456 0.858789 48.086 0.993404L48.2936 0.776899L48.5013 0.560395C48.2472 0.316695 47.935 0.193164 47.5813 0.193164V0.493164ZM48.2936 0.776899L48.0882 0.995487C48.2318 1.13048 48.2955 1.27987 48.2955 1.45907H48.5955H48.8955C48.8955 1.10703 48.7579 0.80163 48.4991 0.558311L48.2936 0.776899ZM48.5955 1.45907H48.2955C48.2955 1.63828 48.2318 1.78766 48.0882 1.92266L48.2936 2.14125L48.4991 2.35983C48.7579 2.11652 48.8955 1.81112 48.8955 1.45907H48.5955ZM48.2936 2.14125L48.086 1.92474C47.9456 2.05936 47.783 2.12498 47.5813 2.12498V2.42498V2.72498C47.935 2.72498 48.2472 2.60145 48.5013 2.35775L48.2936 2.14125ZM58.4734 3.97044L58.7548 4.07449L58.9042 3.67044H58.4734V3.97044ZM55.0444 13.2432V13.5432H55.2533L55.3258 13.3472L55.0444 13.2432ZM53.5956 13.2432L53.3142 13.3472L53.3866 13.5432H53.5956V13.2432ZM50.1666 3.97044V3.67044H49.7358L49.8852 4.07449L50.1666 3.97044ZM51.712 3.97044L51.9955 3.87224L51.9256 3.67044H51.712V3.97044ZM54.2717 11.3596L53.9882 11.4578L54.0581 11.6596H54.2717V11.3596ZM54.3683 11.3596V11.6596H54.5819L54.6518 11.4578L54.3683 11.3596ZM56.9279 3.97044V3.67044H56.7144L56.6445 3.87224L56.9279 3.97044ZM58.4734 3.97044L58.192 3.86639L54.763 13.1391L55.0444 13.2432L55.3258 13.3472L58.7548 4.07449L58.4734 3.97044ZM55.0444 13.2432V12.9432H53.5956V13.2432V13.5432H55.0444V13.2432ZM53.5956 13.2432L53.8769 13.1391L50.448 3.86639L50.1666 3.97044L49.8852 4.07449L53.3142 13.3472L53.5956 13.2432ZM50.1666 3.97044V4.27044H51.712V3.97044V3.67044H50.1666V3.97044ZM51.712 3.97044L51.4286 4.06863L53.9882 11.4578L54.2717 11.3596L54.5552 11.2614L51.9955 3.87224L51.712 3.97044ZM54.2717 11.3596V11.6596H54.3683V11.3596V11.0596H54.2717V11.3596ZM54.3683 11.3596L54.6518 11.4578L57.2114 4.06863L56.9279 3.97044L56.6445 3.87224L54.0848 11.2614L54.3683 11.3596ZM56.9279 3.97044V4.27044H58.4734V3.97044V3.67044H56.9279V3.97044ZM61.2006 13.1285L61.0728 13.3999L61.0747 13.4008L61.2006 13.1285ZM60.0596 12.1565L59.8093 12.3218L59.81 12.3229L60.0596 12.1565ZM59.9509 9.31916L60.2043 9.47982L60.2052 9.47843L59.9509 9.31916ZM61.9492 8.11177L62.0134 8.40483L62.0154 8.40437L61.9492 8.11177ZM63.235 7.88237L63.1968 7.58482L63.1961 7.5849L63.235 7.88237ZM64.6054 7.71937L64.6363 8.01779L64.6393 8.01745L64.6054 7.71937ZM65.3781 7.52015L65.2314 7.25849L65.2286 7.26008L65.3781 7.52015ZM65.1367 5.60041L64.9219 5.80991L64.9232 5.81124L65.1367 5.60041ZM62.0699 5.55211L62.2531 5.78972V5.78972L62.0699 5.55211ZM61.2549 6.50595L61.154 6.78847L61.4118 6.88052L61.527 6.63228L61.2549 6.50595ZM59.9026 6.02299L59.6269 5.90482L59.5012 6.19817L59.8017 6.30552L59.9026 6.02299ZM60.8686 4.70694L61.0531 4.94349L61.0534 4.94324L60.8686 4.70694ZM62.1967 4.04288L62.2723 4.3332L62.274 4.33275L62.1967 4.04288ZM64.6477 3.95836L64.5924 4.25324L64.5959 4.25386L64.6477 3.95836ZM65.7766 4.38698L65.6222 4.64424L65.6235 4.64498L65.7766 4.38698ZM66.6882 5.37101L66.4253 5.51567V5.51567L66.6882 5.37101ZM67.0504 13.2432V13.5432H67.3504V13.2432H67.0504ZM65.6257 13.2432H65.3257V13.5432H65.6257V13.2432ZM65.6257 11.9875H65.9257V11.6875H65.6257V11.9875ZM65.5532 11.9875V11.6875H65.3644L65.2828 11.8577L65.5532 11.9875ZM65.0703 12.6334L65.2843 12.8437V12.8437L65.0703 12.6334ZM64.1708 13.219L64.0522 12.9434V12.9434L64.1708 13.219ZM64.4424 11.8486L64.2944 11.5877L64.2933 11.5883L64.4424 11.8486ZM65.3238 10.9914L65.0637 10.8419L65.0624 10.8442L65.3238 10.9914ZM65.6257 8.58265H65.9257V7.75403L65.3952 8.3906L65.6257 8.58265ZM65.2272 8.78187L65.3081 9.07079L65.3119 9.06968L65.2272 8.78187ZM64.5269 8.93279L64.5726 9.22933L64.5763 9.22871L64.5269 8.93279ZM63.7602 9.04146L63.7944 9.33953L63.7986 9.33899L63.7602 9.04146ZM63.1626 9.1139L63.2014 9.41138L63.2017 9.41134L63.1626 9.1139ZM62.1242 9.34934L62.218 9.63431L62.2202 9.63359L62.1242 9.34934ZM61.3515 9.82626L61.1312 9.6226L61.1311 9.62278L61.3515 9.82626ZM61.6111 11.8064L61.4403 12.0531L61.4434 12.0552L61.6111 11.8064ZM62.8004 13.4605V13.1605C62.2513 13.1605 61.7616 13.0573 61.3264 12.8561L61.2006 13.1285L61.0747 13.4008C61.5974 13.6423 62.1743 13.7605 62.8004 13.7605V13.4605ZM61.2006 13.1285L61.3283 12.857C60.8966 12.6539 60.5593 12.3653 60.3092 11.9901L60.0596 12.1565L59.81 12.3229C60.1233 12.7929 60.5467 13.1523 61.0728 13.3999L61.2006 13.1285ZM60.0596 12.1565L60.3099 11.9912C60.0661 11.622 59.937 11.1668 59.937 10.6111H59.637H59.337C59.337 11.2627 59.4897 11.8379 59.8093 12.3218L60.0596 12.1565ZM59.637 10.6111H59.937C59.937 10.1169 60.0346 9.74743 60.2043 9.47982L59.9509 9.31916L59.6976 9.15849C59.4487 9.55092 59.337 10.0427 59.337 10.6111H59.637ZM59.9509 9.31916L60.2052 9.47843C60.3866 9.18878 60.6277 8.96306 60.9327 8.7983L60.7901 8.53436L60.6475 8.27041C60.2522 8.48397 59.9338 8.78144 59.6967 9.15988L59.9509 9.31916ZM60.7901 8.53436L60.9327 8.7983C61.2561 8.62356 61.6158 8.49191 62.0134 8.40482L61.9492 8.11177L61.885 7.81872C61.4374 7.91676 61.0243 8.06684 60.6475 8.27041L60.7901 8.53436ZM61.9492 8.11177L62.0154 8.40437C62.4331 8.3098 62.8526 8.23497 63.2739 8.17983L63.235 7.88237L63.1961 7.5849C62.7562 7.64246 62.3185 7.72056 61.8829 7.81918L61.9492 8.11177ZM63.235 7.88237L63.2733 8.17992C63.8356 8.10763 64.2896 8.05364 64.6363 8.01778L64.6054 7.71937L64.5745 7.42096C64.2209 7.45755 63.7614 7.51222 63.1968 7.58482L63.235 7.88237ZM64.6054 7.71937L64.6393 8.01745C65.0036 7.97605 65.3117 7.90441 65.5277 7.78022L65.3781 7.52015L65.2286 7.26008C65.1226 7.32103 64.9156 7.3822 64.5715 7.42129L64.6054 7.71937ZM65.3781 7.52015L65.5249 7.7818C65.8062 7.62402 65.9257 7.34783 65.9257 7.0372H65.6257H65.3257C65.3257 7.18538 65.2801 7.23115 65.2314 7.25851L65.3781 7.52015ZM65.6257 7.0372H65.9257V6.9889H65.6257H65.3257V7.0372H65.6257ZM65.6257 6.9889H65.9257C65.9257 6.33775 65.7461 5.79047 65.3501 5.38958L65.1367 5.60041L64.9232 5.81124C65.1792 6.07039 65.3257 6.44876 65.3257 6.9889H65.6257ZM65.1367 5.60041L65.3514 5.39091C64.9527 4.98222 64.3719 4.80538 63.6697 4.80538V5.10538V5.40538C64.2795 5.40538 64.6767 5.55856 64.9219 5.80991L65.1367 5.60041ZM63.6697 5.10538V4.80538C62.9489 4.80538 62.3428 4.96297 61.8867 5.31451L62.0699 5.55211L62.2531 5.78972C62.5697 5.54561 63.0302 5.40538 63.6697 5.40538V5.10538ZM62.0699 5.55211L61.8867 5.31451C61.4736 5.63298 61.1653 5.98647 60.9828 6.37961L61.2549 6.50595L61.527 6.63228C61.6584 6.34929 61.8935 6.06689 62.2531 5.78972L62.0699 5.55211ZM61.2549 6.50595L61.3558 6.22342L60.0035 5.74047L59.9026 6.02299L59.8017 6.30552L61.154 6.78847L61.2549 6.50595ZM59.9026 6.02299L60.1784 6.14117C60.4039 5.61492 60.6978 5.22059 61.0531 4.94349L60.8686 4.70694L60.684 4.47039C60.2344 4.82113 59.8843 5.30417 59.6269 5.90482L59.9026 6.02299ZM60.8686 4.70694L61.0534 4.94324C61.429 4.64948 61.8348 4.44717 62.2723 4.33319L62.1967 4.04288L62.1211 3.75257C61.6007 3.88812 61.1211 4.12852 60.6837 4.47064L60.8686 4.70694ZM62.1967 4.04288L62.274 4.33275C62.7335 4.21021 63.1824 4.1497 63.6214 4.1497V3.8497V3.5497C63.1267 3.5497 62.6258 3.61797 62.1194 3.75301L62.1967 4.04288ZM63.6214 3.8497V4.1497C63.8959 4.1497 64.2188 4.18319 64.5924 4.25322L64.6477 3.95836L64.703 3.6635C64.3038 3.58865 63.9426 3.5497 63.6214 3.5497V3.8497ZM64.6477 3.95836L64.5959 4.25386C64.9477 4.31552 65.2895 4.44458 65.6222 4.64423L65.7766 4.38698L65.9309 4.12974C65.5393 3.89473 65.1284 3.73804 64.6995 3.66287L64.6477 3.95836ZM65.7766 4.38698L65.6235 4.64498C65.9362 4.83053 66.2051 5.11556 66.4253 5.51567L66.6882 5.37101L66.951 5.22634C66.6883 4.74909 66.3495 4.3781 65.9297 4.12899L65.7766 4.38698ZM66.6882 5.37101L66.4253 5.51567C66.6336 5.89403 66.7504 6.42574 66.7504 7.13379H67.0504H67.3504C67.3504 6.36882 67.2257 5.72535 66.951 5.22634L66.6882 5.37101ZM67.0504 7.13379H66.7504V13.2432H67.0504H67.3504V7.13379H67.0504ZM67.0504 13.2432V12.9432H65.6257V13.2432V13.5432H67.0504V13.2432ZM65.6257 13.2432H65.9257V11.9875H65.6257H65.3257V13.2432H65.6257ZM65.6257 11.9875V11.6875H65.5532V11.9875V12.2875H65.6257V11.9875ZM65.5532 11.9875L65.2828 11.8577C65.2052 12.0192 65.0678 12.2079 64.8563 12.4232L65.0703 12.6334L65.2843 12.8437C65.5235 12.6002 65.708 12.3582 65.8237 12.1173L65.5532 11.9875ZM65.0703 12.6334L64.8563 12.4232C64.6644 12.6185 64.3999 12.7939 64.0522 12.9434L64.1708 13.219L64.2893 13.4946C64.6902 13.3222 65.0254 13.1072 65.2843 12.8437L65.0703 12.6334ZM64.1708 13.219L64.0522 12.9434C63.7254 13.084 63.3114 13.1605 62.8004 13.1605V13.4605V13.7605C63.3679 13.7605 63.8675 13.676 64.2893 13.4946L64.1708 13.219ZM63.0177 12.1807V12.4807C63.6198 12.4807 64.1492 12.3623 64.5916 12.1089L64.4424 11.8486L64.2933 11.5883C63.9629 11.7776 63.5425 11.8807 63.0177 11.8807V12.1807ZM64.4424 11.8486L64.5904 12.1096C65.0225 11.8646 65.3582 11.5417 65.5852 11.1386L65.3238 10.9914L65.0624 10.8442C64.895 11.1414 64.6431 11.39 64.2944 11.5877L64.4424 11.8486ZM65.3238 10.9914L65.5839 11.1409C65.8101 10.7474 65.9257 10.3279 65.9257 9.88663H65.6257H65.3257C65.3257 10.2181 65.24 10.5351 65.0637 10.8419L65.3238 10.9914ZM65.6257 9.88663H65.9257V8.58265H65.6257H65.3257V9.88663H65.6257ZM65.6257 8.58265L65.3952 8.3906C65.4023 8.38202 65.3949 8.39429 65.3466 8.41846C65.3013 8.44109 65.2349 8.4669 65.1426 8.49406L65.2272 8.78187L65.3119 9.06968C65.4248 9.03647 65.5274 8.9989 65.6149 8.95512C65.6994 8.91288 65.7886 8.85573 65.8561 8.77471L65.6257 8.58265ZM65.2272 8.78187L65.1463 8.49298C64.9579 8.54573 64.7355 8.5939 64.4776 8.63688L64.5269 8.93279L64.5763 9.22871C64.8497 9.18314 65.094 9.1307 65.3081 9.07076L65.2272 8.78187ZM64.5269 8.93279L64.4813 8.63628C64.222 8.67618 63.9688 8.71206 63.7219 8.74393L63.7602 9.04146L63.7986 9.33899C64.0507 9.30647 64.3087 9.2699 64.5725 9.22931L64.5269 8.93279ZM63.7602 9.04146L63.726 8.74342C63.4797 8.77168 63.2787 8.79604 63.1235 8.81647L63.1626 9.1139L63.2017 9.41134C63.3523 9.39152 63.5497 9.36758 63.7944 9.3395L63.7602 9.04146ZM63.1626 9.1139L63.1238 8.81642C62.736 8.86701 62.3706 8.94958 62.0283 9.0651L62.1242 9.34934L62.2202 9.63359C62.5219 9.53177 62.8487 9.45739 63.2014 9.41138L63.1626 9.1139ZM62.1242 9.34934L62.0304 9.06438C61.6716 9.1825 61.368 9.36654 61.1312 9.6226L61.3515 9.82626L61.5718 10.0299C61.7295 9.85937 61.941 9.72547 62.218 9.63431L62.1242 9.34934ZM61.3515 9.82626L61.1311 9.62278C60.8739 9.90134 60.7617 10.2671 60.7617 10.6835H61.0617H61.3617C61.3617 10.3754 61.4427 10.1697 61.5719 10.0297L61.3515 9.82626ZM61.0617 10.6835H60.7617C60.7617 11.2642 60.9832 11.7365 61.4403 12.053L61.6111 11.8064L61.7819 11.5597C61.5065 11.3691 61.3617 11.0929 61.3617 10.6835H61.0617ZM61.6111 11.8064L61.4434 12.0552C61.8751 12.3461 62.4066 12.4807 63.0177 12.4807V12.1807V11.8807C62.4938 11.8807 62.0876 11.7657 61.7788 11.5576L61.6111 11.8064ZM69.6508 13.2432H69.3508V13.5432H69.6508V13.2432ZM69.6508 3.97044V3.67044H69.3508V3.97044H69.6508ZM71.0272 3.97044H71.3272V3.67044H71.0272V3.97044ZM71.0272 5.37101H70.7272V5.67101H71.0272V5.37101ZM71.1238 5.37101V5.67101H71.333L71.4053 5.47472L71.1238 5.37101ZM72.0414 4.25417L71.8787 4.00212V4.00212L72.0414 4.25417ZM74.2871 3.8497H74.5871V3.5782L74.317 3.55119L74.2871 3.8497ZM74.2871 5.29856L74.2144 5.5896L74.5871 5.68279V5.29856H74.2871ZM73.9551 5.24423L73.9058 5.54025L73.9137 5.54135L73.9551 5.24423ZM72.2104 5.48571L72.3507 5.75092L72.3518 5.75033L72.2104 5.48571ZM71.3773 6.25843L71.1226 6.09999L71.1221 6.10085L71.3773 6.25843ZM71.0755 13.2432V13.5432H71.3755V13.2432H71.0755ZM69.6508 13.2432H69.9508V3.97044H69.6508H69.3508V13.2432H69.6508ZM69.6508 3.97044V4.27044H71.0272V3.97044V3.67044H69.6508V3.97044ZM71.0272 3.97044H70.7272V5.37101H71.0272H71.3272V3.97044H71.0272ZM71.0272 5.37101V5.67101H71.1238V5.37101V5.071H71.0272V5.37101ZM71.1238 5.37101L71.4053 5.47472C71.5501 5.08177 71.8115 4.75962 72.2041 4.50623L72.0414 4.25417L71.8787 4.00212C71.3859 4.32022 71.0356 4.74262 70.8423 5.26729L71.1238 5.37101ZM72.0414 4.25417L72.2041 4.50623C72.5956 4.25351 73.0376 4.12555 73.5386 4.12555V3.82555V3.52555C72.9287 3.52555 72.3726 3.68334 71.8787 4.00212L72.0414 4.25417ZM73.5386 3.82555V4.12555C73.6397 4.12555 73.7677 4.1275 73.9233 4.13149L73.931 3.83159L73.9387 3.53169C73.7803 3.52762 73.6467 3.52555 73.5386 3.52555V3.82555ZM73.931 3.83159L73.9233 4.13149C74.0783 4.13546 74.1881 4.14129 74.2573 4.14821L74.2871 3.8497L74.317 3.55119C74.2252 3.542 74.0975 3.53576 73.9387 3.53169L73.931 3.83159ZM74.2871 3.8497H73.9871V5.29856H74.2871H74.5871V3.8497H74.2871ZM74.2871 5.29856L74.3599 5.00752C74.293 4.99079 74.1652 4.97063 73.9966 4.94711L73.9551 5.24423L73.9137 5.54135C74.0912 5.56612 74.1847 5.58219 74.2144 5.5896L74.2871 5.29856ZM73.9551 5.24423L74.0044 4.94831C73.8175 4.91716 73.6218 4.90197 73.4178 4.90197V5.20197V5.50197C73.5921 5.50197 73.7546 5.51495 73.9058 5.54015L73.9551 5.24423ZM73.4178 5.20197V4.90197C72.9239 4.90197 72.4719 5.00597 72.0691 5.22108L72.2104 5.48571L72.3518 5.75033C72.6573 5.58713 73.0102 5.50197 73.4178 5.50197V5.20197ZM72.2104 5.48571L72.0702 5.2205C71.6741 5.42996 71.3565 5.72398 71.1226 6.09999L71.3773 6.25843L71.6321 6.41687C71.8087 6.13285 72.0465 5.91172 72.3507 5.75092L72.2104 5.48571ZM71.3773 6.25843L71.1221 6.10085C70.8889 6.47855 70.7755 6.90638 70.7755 7.37527H71.0755H71.3755C71.3755 7.00703 71.4633 6.6903 71.6326 6.41601L71.3773 6.25843ZM71.0755 7.37527H70.7755V13.2432H71.0755H71.3755V7.37527H71.0755ZM71.0755 13.2432V12.9432H69.6508V13.2432V13.5432H71.0755V13.2432ZM84.8865 3.97044H85.1865V3.67044H84.8865V3.97044ZM84.8865 5.17782V5.47782H85.1865V5.17782H84.8865ZM79.8879 5.17782H79.5879V5.47782H79.8879V5.17782ZM79.8879 3.97044V3.67044H79.5879V3.97044H79.8879ZM81.3851 13.2432H81.0851V13.5432H81.3851V13.2432ZM81.7594 1.36248L81.5141 1.1897V1.1897L81.7594 1.36248ZM82.7313 0.565606L82.6095 0.291463V0.291463L82.7313 0.565606ZM84.8503 0.384499L84.7763 0.675228V0.675228L84.8503 0.384499ZM85.3453 0.541459L85.6299 0.636327L85.716 0.377935L85.4671 0.267316L85.3453 0.541459ZM84.9348 1.77299L84.8399 2.0576L85.1245 2.15247L85.2194 1.86786L84.9348 1.77299ZM84.6329 1.68244L84.5493 1.97055L84.5517 1.97124L84.6329 1.68244ZM83.1177 1.98429L82.8926 1.78592L82.8907 1.7881L83.1177 1.98429ZM82.8098 13.2432V13.5432H83.1098V13.2432H82.8098ZM84.8865 3.97044H84.5865V5.17782H84.8865H85.1865V3.97044H84.8865ZM84.8865 5.17782V4.87782H79.8879V5.17782V5.47782H84.8865V5.17782ZM79.8879 5.17782H80.1879V3.97044H79.8879H79.5879V5.17782H79.8879ZM79.8879 3.97044V4.27044H84.8865V3.97044V3.67044H79.8879V3.97044ZM81.3851 13.2432H81.6851V2.69061H81.3851H81.0851V13.2432H81.3851ZM81.3851 2.69061H81.6851C81.6851 2.20703 81.7981 1.82838 82.0046 1.53527L81.7594 1.36248L81.5141 1.1897C81.2216 1.60491 81.0851 2.11168 81.0851 2.69061H81.3851ZM81.7594 1.36248L82.0046 1.53527C82.2227 1.22571 82.5039 0.994966 82.8531 0.83975L82.7313 0.565606L82.6095 0.291463C82.1618 0.490414 81.7951 0.790915 81.5141 1.1897L81.7594 1.36248ZM82.7313 0.565606L82.8531 0.83975C83.2126 0.679982 83.5916 0.599981 83.993 0.599981V0.299981V-1.90735e-05C83.509 -1.90735e-05 83.0469 0.097064 82.6095 0.291463L82.7313 0.565606ZM83.993 0.299981V0.599981C84.3299 0.599981 84.5883 0.627384 84.7763 0.675228L84.8503 0.384499L84.9243 0.09377C84.6695 0.028924 84.3564 -1.90735e-05 83.993 -1.90735e-05V0.299981ZM84.8503 0.384499L84.7763 0.675228C84.9932 0.730461 85.1385 0.777839 85.2234 0.815602L85.3453 0.541459L85.4671 0.267316C85.3348 0.208488 85.15 0.151225 84.9243 0.09377L84.8503 0.384499ZM85.3453 0.541459L85.0607 0.44659L84.6502 1.67812L84.9348 1.77299L85.2194 1.86786L85.6299 0.636327L85.3453 0.541459ZM84.9348 1.77299L85.0296 1.48839C84.9506 1.46203 84.8447 1.43035 84.7142 1.39364L84.6329 1.68244L84.5517 1.97124C84.6788 2.00697 84.7741 2.03567 84.8399 2.0576L84.9348 1.77299ZM84.6329 1.68244L84.7166 1.39434C84.5536 1.34703 84.3571 1.32811 84.1379 1.32811V1.62811V1.92811C84.3292 1.92811 84.4627 1.94541 84.5493 1.97054L84.6329 1.68244ZM84.1379 1.62811V1.32811C83.6234 1.32811 83.1819 1.45766 82.8926 1.78593L83.1177 1.98429L83.3427 2.18265C83.472 2.03601 83.7107 1.92811 84.1379 1.92811V1.62811ZM83.1177 1.98429L82.8907 1.7881C82.6207 2.10044 82.5098 2.53034 82.5098 3.02868H82.8098H83.1098C83.1098 2.60939 83.2041 2.34303 83.3446 2.18047L83.1177 1.98429ZM82.8098 3.02868H82.5098V13.2432H82.8098H83.1098V3.02868H82.8098ZM82.8098 13.2432V12.9432H81.3851V13.2432V13.5432H82.8098V13.2432ZM86.8832 13.2432H86.5832V13.5432H86.8832V13.2432ZM86.8832 3.97044V3.67044H86.5832V3.97044H86.8832ZM88.2596 3.97044H88.5596V3.67044H88.2596V3.97044ZM88.2596 5.37101H87.9596V5.67101H88.2596V5.37101ZM88.3562 5.37101V5.67101H88.5654L88.6377 5.47472L88.3562 5.37101ZM89.2738 4.25417L89.1111 4.00212V4.00212L89.2738 4.25417ZM91.5196 3.8497H91.8196V3.5782L91.5494 3.55119L91.5196 3.8497ZM91.5196 5.29856L91.4468 5.5896L91.8196 5.68279V5.29856H91.5196ZM91.1875 5.24423L91.1382 5.54025L91.1461 5.54135L91.1875 5.24423ZM89.4429 5.48571L89.5831 5.75092L89.5842 5.75033L89.4429 5.48571ZM88.6098 6.25843L88.355 6.09999L88.3545 6.10085L88.6098 6.25843ZM88.3079 13.2432V13.5432H88.6079V13.2432H88.3079ZM86.8832 13.2432H87.1832V3.97044H86.8832H86.5832V13.2432H86.8832ZM86.8832 3.97044V4.27044H88.2596V3.97044V3.67044H86.8832V3.97044ZM88.2596 3.97044H87.9596V5.37101H88.2596H88.5596V3.97044H88.2596ZM88.2596 5.37101V5.67101H88.3562V5.37101V5.071H88.2596V5.37101ZM88.3562 5.37101L88.6377 5.47472C88.7825 5.08177 89.0439 4.75962 89.4365 4.50623L89.2738 4.25417L89.1111 4.00212C88.6183 4.32022 88.268 4.74262 88.0747 5.26729L88.3562 5.37101ZM89.2738 4.25417L89.4365 4.50623C89.8281 4.25351 90.27 4.12555 90.771 4.12555V3.82555V3.52555C90.1611 3.52555 89.605 3.68334 89.1111 4.00212L89.2738 4.25417ZM90.771 3.82555V4.12555C90.8721 4.12555 91.0002 4.1275 91.1557 4.13149L91.1634 3.83159L91.1711 3.53169C91.0127 3.52762 90.8791 3.52555 90.771 3.52555V3.82555ZM91.1634 3.83159L91.1557 4.13149C91.3108 4.13546 91.4206 4.14129 91.4897 4.14821L91.5196 3.8497L91.5494 3.55119C91.4576 3.542 91.3299 3.53576 91.1711 3.53169L91.1634 3.83159ZM91.5196 3.8497H91.2196V5.29856H91.5196H91.8196V3.8497H91.5196ZM91.5196 5.29856L91.5923 5.00752C91.5254 4.99079 91.3976 4.97063 91.229 4.94711L91.1875 5.24423L91.1461 5.54135C91.3236 5.56612 91.4171 5.58219 91.4468 5.5896L91.5196 5.29856ZM91.1875 5.24423L91.2369 4.94831C91.0499 4.91716 90.8542 4.90197 90.6502 4.90197V5.20197V5.50197C90.8246 5.50197 90.9871 5.51495 91.1382 5.54015L91.1875 5.24423ZM90.6502 5.20197V4.90197C90.1563 4.90197 89.7043 5.00597 89.3015 5.22108L89.4429 5.48571L89.5842 5.75033C89.8898 5.58713 90.2427 5.50197 90.6502 5.50197V5.20197ZM89.4429 5.48571L89.3026 5.2205C88.9065 5.42996 88.5889 5.72398 88.355 6.09999L88.6098 6.25843L88.8645 6.41687C89.0412 6.13285 89.279 5.91172 89.5831 5.75092L89.4429 5.48571ZM88.6098 6.25843L88.3545 6.10085C88.1213 6.47855 88.0079 6.90638 88.0079 7.37527H88.3079H88.6079C88.6079 7.00703 88.6957 6.6903 88.865 6.41601L88.6098 6.25843ZM88.3079 7.37527H88.0079V13.2432H88.3079H88.6079V7.37527H88.3079ZM88.3079 13.2432V12.9432H86.8832V13.2432V13.5432H88.3079V13.2432ZM94.5018 12.8447L94.344 13.0998L94.3458 13.101L94.5018 12.8447ZM93.0107 11.1785L92.7406 11.309L92.7415 11.3109L93.0107 11.1785ZM93.0107 6.16788L92.7403 6.03791L92.74 6.03855L93.0107 6.16788ZM94.4716 4.46546L94.6354 4.71681L94.6358 4.71656L94.4716 4.46546ZM98.0998 4.09118L98.1969 3.80731V3.80731L98.0998 4.09118ZM99.3857 4.87598L99.1805 5.09484L99.1817 5.09598L99.3857 4.87598ZM100.309 6.30069L100.589 6.19223V6.19223L100.309 6.30069ZM100.653 9.08976V9.38976H100.953V9.08976H100.653ZM93.5057 9.08976H93.2057V9.38976H93.5057V9.08976ZM93.5057 7.85822V7.55822H93.2057V7.85822H93.5057ZM99.2046 7.85822V8.15822H99.5046V7.85822H99.2046ZM98.8907 6.45765L98.6223 6.59182L98.6234 6.59391L98.8907 6.45765ZM98.0093 5.48571L97.8498 5.73981L97.851 5.74056L98.0093 5.48571ZM95.1961 5.55211L95.3642 5.8006L95.3647 5.80024L95.1961 5.55211ZM94.2483 6.63876L93.9794 6.50557V6.50557L94.2483 6.63876ZM94.2784 10.6775L94.0097 10.8107L94.011 10.8134L94.2784 10.6775ZM95.2987 11.7822L95.1475 12.0414L95.1493 12.0424L95.2987 11.7822ZM97.8282 11.9996L97.9264 12.283L97.9286 12.2822L97.8282 11.9996ZM98.619 11.5166L98.8272 11.7326L98.8292 11.7307L98.619 11.5166ZM99.1321 10.7077L99.2132 10.4188L98.948 10.3444L98.8512 10.6023L99.1321 10.7077ZM100.509 11.094L100.795 11.1829L100.886 10.8885L100.59 10.8052L100.509 11.094ZM99.7781 12.3256L99.9927 12.5352L99.9939 12.534L99.7781 12.3256ZM98.5103 13.1466L98.6179 13.4266L98.6198 13.4259L98.5103 13.1466ZM96.814 13.4363V13.1363C95.9656 13.1363 95.251 12.9495 94.6578 12.5885L94.5018 12.8447L94.3458 13.101C95.0486 13.5288 95.8754 13.7363 96.814 13.7363V13.4363ZM94.5018 12.8447L94.6597 12.5896C94.066 12.2223 93.6065 11.7105 93.2799 11.0462L93.0107 11.1785L92.7415 11.3109C93.1152 12.0712 93.6497 12.6703 94.344 13.0998L94.5018 12.8447ZM93.0107 11.1785L93.2808 11.048C92.9578 10.3795 92.7915 9.59252 92.7915 8.67924H92.4915H92.1915C92.1915 9.66559 92.3713 10.5448 92.7406 11.309L93.0107 11.1785ZM92.4915 8.67924H92.7915C92.7915 7.76607 92.9578 6.97452 93.2814 6.29721L93.0107 6.16788L92.74 6.03855C92.3714 6.8101 92.1915 7.69279 92.1915 8.67924H92.4915ZM93.0107 6.16788L93.2811 6.29784C93.6096 5.61446 94.0615 5.0908 94.6354 4.71681L94.4716 4.46546L94.3078 4.21412C93.6342 4.6531 93.1121 5.26439 92.7403 6.03791L93.0107 6.16788ZM94.4716 4.46546L94.6358 4.71656C95.2093 4.34158 95.8833 4.1497 96.6691 4.1497V3.8497V3.5497C95.7806 3.5497 94.9896 3.76832 94.3074 4.21437L94.4716 4.46546ZM96.6691 3.8497V4.1497C97.118 4.1497 97.5622 4.22441 98.0028 4.37504L98.0998 4.09118L98.1969 3.80731C97.6957 3.63597 97.186 3.5497 96.6691 3.5497V3.8497ZM98.0998 4.09118L98.0028 4.37504C98.4309 4.5214 98.8231 4.75981 99.1805 5.09484L99.3857 4.87598L99.5909 4.65712C99.1755 4.26771 98.7105 3.98292 98.1969 3.80731L98.0998 4.09118ZM99.3857 4.87598L99.1817 5.09598C99.5286 5.41753 99.8134 5.85142 100.03 6.40915L100.309 6.30069L100.589 6.19223C100.347 5.56673 100.016 5.05081 99.5896 4.65598L99.3857 4.87598ZM100.309 6.30069L100.03 6.40915C100.242 6.95611 100.353 7.64526 100.353 8.48606H100.653H100.953C100.953 7.59628 100.836 6.82852 100.589 6.19223L100.309 6.30069ZM100.653 8.48606H100.353V9.08976H100.653H100.953V8.48606H100.653ZM100.653 9.08976V8.78975H93.5057V9.08976V9.38976H100.653V9.08976ZM93.5057 9.08976H93.8057V7.85822H93.5057H93.2057V9.08976H93.5057ZM93.5057 7.85822V8.15822H99.2046V7.85822V7.55822H93.5057V7.85822ZM99.2046 7.85822H99.5046C99.5046 7.29412 99.3915 6.77951 99.1579 6.3214L98.8907 6.45765L98.6234 6.59391C98.8084 6.95681 98.9046 7.37592 98.9046 7.85822H99.2046ZM98.8907 6.45765L99.159 6.32349C98.9294 5.86438 98.598 5.49819 98.1675 5.23086L98.0093 5.48571L97.851 5.74056C98.1852 5.94813 98.4414 6.2299 98.6223 6.59182L98.8907 6.45765ZM98.0093 5.48571L98.1688 5.23161C97.7357 4.95979 97.2318 4.82953 96.6691 4.82953V5.12953V5.42953C97.1366 5.42953 97.5262 5.53672 97.8498 5.7398L98.0093 5.48571ZM96.6691 5.12953V4.82953C96.0497 4.82953 95.4981 4.98412 95.0274 5.30399L95.1961 5.55211L95.3647 5.80024C95.7231 5.55666 96.1535 5.42953 96.6691 5.42953V5.12953ZM95.1961 5.55211L95.028 5.30363C94.5742 5.61058 94.2237 6.01263 93.9794 6.50557L94.2483 6.63876L94.5171 6.77196C94.7155 6.37143 94.9969 6.04904 95.3642 5.8006L95.1961 5.55211ZM94.2483 6.63876L93.9794 6.50557C93.7371 6.99477 93.6162 7.51942 93.6162 8.07555H93.9162H94.2162C94.2162 7.60943 94.3168 7.17622 94.5171 6.77195L94.2483 6.63876ZM93.9162 8.07555H93.6162V8.89657H93.9162H94.2162V8.07555H93.9162ZM93.9162 8.89657H93.6162C93.6162 9.63021 93.7426 10.2722 94.0097 10.8107L94.2784 10.6775L94.5472 10.5442C94.3313 10.1088 94.2162 9.56351 94.2162 8.89657H93.9162ZM94.2784 10.6775L94.011 10.8134C94.2805 11.3436 94.6592 11.7565 95.1475 12.0414L95.2987 11.7822L95.4498 11.5231C95.0688 11.3008 94.7673 10.9772 94.5459 10.5415L94.2784 10.6775ZM95.2987 11.7822L95.1493 12.0424C95.6358 12.3217 96.1939 12.4565 96.814 12.4565V12.1565V11.8565C96.283 11.8565 95.8309 11.7418 95.448 11.5221L95.2987 11.7822ZM96.814 12.1565V12.4565C97.2161 12.4565 97.5881 12.4003 97.9264 12.283L97.8282 11.9996L97.7299 11.7161C97.4646 11.8081 97.1604 11.8565 96.814 11.8565V12.1565ZM97.8282 11.9996L97.9286 12.2822C98.2724 12.1601 98.5733 11.9772 98.8272 11.7326L98.619 11.5166L98.4108 11.3006C98.2219 11.4826 97.9957 11.6217 97.7277 11.7169L97.8282 11.9996ZM98.619 11.5166L98.8292 11.7307C99.085 11.4795 99.2786 11.1714 99.413 10.813L99.1321 10.7077L98.8512 10.6023C98.7442 10.8878 98.5957 11.119 98.4088 11.3025L98.619 11.5166ZM99.1321 10.7077L99.0511 10.9965L100.427 11.3829L100.509 11.094L100.59 10.8052L99.2132 10.4188L99.1321 10.7077ZM100.509 11.094L100.222 11.0051C100.091 11.4268 99.872 11.7965 99.5623 12.1171L99.7781 12.3256L99.9939 12.534C100.368 12.1463 100.636 11.695 100.795 11.1829L100.509 11.094ZM99.7781 12.3256L99.5635 12.1159C99.2541 12.4326 98.8685 12.6839 98.4008 12.8673L98.5103 13.1466L98.6198 13.4259C99.1583 13.2148 99.6179 12.9188 99.9927 12.5352L99.7781 12.3256ZM98.5103 13.1466L98.4028 12.8665C97.9392 13.0445 97.411 13.1363 96.814 13.1363V13.4363V13.7363C97.4726 13.7363 98.0753 13.635 98.6179 13.4266L98.5103 13.1466ZM106.853 3.97044H107.153V3.67044H106.853V3.97044ZM106.853 5.17782V5.47782H107.153V5.17782H106.853ZM102.048 5.17782H101.748V5.47782H102.048V5.17782ZM102.048 3.97044V3.67044H101.748V3.97044H102.048ZM103.449 1.74885V1.44885H103.149V1.74885H103.449ZM104.873 1.74885H105.173V1.44885H104.873V1.74885ZM105.048 11.4925L104.789 11.643L104.792 11.6491L105.048 11.4925ZM105.507 11.8909L105.403 12.1724L105.41 12.1749L105.507 11.8909ZM106.491 11.9633L106.539 12.2598L106.55 12.2575L106.491 11.9633ZM106.733 11.915L107.025 11.8488L106.961 11.5635L106.674 11.6209L106.733 11.915ZM107.022 13.1949L107.128 13.4758L107.373 13.3839L107.315 13.1286L107.022 13.1949ZM106.618 13.3035L106.556 13.0098L106.55 13.0113L106.618 13.3035ZM104.777 13.1043L104.653 13.3776L104.654 13.3781L104.777 13.1043ZM103.823 12.3135L103.578 12.4863L103.579 12.4881L103.823 12.3135ZM106.853 3.97044H106.553V5.17782H106.853H107.153V3.97044H106.853ZM106.853 5.17782V4.87782H102.048V5.17782V5.47782H106.853V5.17782ZM102.048 5.17782H102.348V3.97044H102.048H101.748V5.17782H102.048ZM102.048 3.97044V4.27044H106.853V3.97044V3.67044H102.048V3.97044ZM103.449 1.74885V2.04885H104.873V1.74885V1.44885H103.449V1.74885ZM104.873 1.74885H104.573V10.5869H104.873H105.173V1.74885H104.873ZM104.873 10.5869H104.573C104.573 11.0085 104.633 11.3737 104.789 11.643L105.048 11.4925L105.308 11.3419C105.231 11.2087 105.173 10.9702 105.173 10.5869H104.873ZM105.048 11.4925L104.792 11.6491C104.942 11.8935 105.144 12.0767 105.403 12.1723L105.507 11.8909L105.611 11.6095C105.5 11.5683 105.396 11.4858 105.304 11.3358L105.048 11.4925ZM105.507 11.8909L105.41 12.1749C105.632 12.2504 105.864 12.2875 106.105 12.2875V11.9875V11.6875C105.927 11.6875 105.76 11.6602 105.604 11.6069L105.507 11.8909ZM106.105 11.9875V12.2875C106.27 12.2875 106.416 12.2791 106.539 12.2596L106.491 11.9633L106.444 11.6671C106.365 11.6797 106.253 11.6875 106.105 11.6875V11.9875ZM106.491 11.9633L106.55 12.2575C106.651 12.2374 106.731 12.2213 106.791 12.2092L106.733 11.915L106.674 11.6209C106.613 11.6329 106.533 11.649 106.432 11.6692L106.491 11.9633ZM106.733 11.915L106.44 11.9813L106.73 13.2611L107.022 13.1949L107.315 13.1286L107.025 11.8488L106.733 11.915ZM107.022 13.1949L106.917 12.914C106.841 12.9424 106.724 12.9749 106.556 13.0099L106.618 13.3035L106.679 13.5972C106.858 13.5597 107.01 13.5198 107.128 13.4758L107.022 13.1949ZM106.618 13.3035L106.55 13.0113C106.407 13.0445 106.213 13.0639 105.96 13.0639V13.3639V13.6639C106.238 13.6639 106.483 13.643 106.686 13.5957L106.618 13.3035ZM105.96 13.3639V13.0639C105.602 13.0639 105.249 12.9872 104.899 12.8305L104.777 13.1043L104.654 13.3781C105.077 13.5675 105.513 13.6639 105.96 13.6639V13.3639ZM104.777 13.1043L104.9 12.831C104.568 12.6805 104.291 12.4518 104.067 12.1388L103.823 12.3135L103.579 12.4881C103.862 12.8835 104.221 13.182 104.653 13.3776L104.777 13.1043ZM103.823 12.3135L104.068 12.1407C103.862 11.8483 103.749 11.466 103.749 10.9733H103.449H103.149C103.149 11.5592 103.285 12.0703 103.578 12.4863L103.823 12.3135ZM103.449 10.9733H103.749V1.74885H103.449H103.149V10.9733H103.449ZM110.473 12.8447L110.315 13.0998L110.317 13.101L110.473 12.8447ZM108.981 11.1785L108.711 11.309L108.712 11.3109L108.981 11.1785ZM108.981 6.16788L108.711 6.03791L108.711 6.03855L108.981 6.16788ZM110.442 4.46546L110.606 4.71681L110.606 4.71656L110.442 4.46546ZM114.071 4.09118L114.168 3.80731V3.80731L114.071 4.09118ZM115.356 4.87598L115.151 5.09484L115.152 5.09598L115.356 4.87598ZM116.28 6.30069L116.56 6.19223V6.19223L116.28 6.30069ZM116.624 9.08976V9.38976H116.924V9.08976H116.624ZM109.476 9.08976H109.176V9.38976H109.476V9.08976ZM109.476 7.85822V7.55822H109.176V7.85822H109.476ZM115.175 7.85822V8.15822H115.475V7.85822H115.175ZM114.861 6.45765L114.593 6.59182L114.594 6.59391L114.861 6.45765ZM113.98 5.48571L113.82 5.73981L113.822 5.74056L113.98 5.48571ZM111.167 5.55211L111.335 5.8006L111.335 5.80024L111.167 5.55211ZM110.219 6.63876L109.95 6.50557V6.50557L110.219 6.63876ZM110.249 10.6775L109.98 10.8107L109.982 10.8134L110.249 10.6775ZM111.269 11.7822L111.118 12.0414L111.12 12.0424L111.269 11.7822ZM113.799 11.9996L113.897 12.283L113.899 12.2822L113.799 11.9996ZM114.59 11.5166L114.798 11.7326L114.8 11.7307L114.59 11.5166ZM115.103 10.7077L115.184 10.4188L114.919 10.3444L114.822 10.6023L115.103 10.7077ZM116.479 11.094L116.766 11.1829L116.857 10.8885L116.56 10.8052L116.479 11.094ZM115.749 12.3256L115.963 12.5352L115.965 12.534L115.749 12.3256ZM114.481 13.1466L114.589 13.4266L114.591 13.4259L114.481 13.1466ZM112.785 13.4363V13.1363C111.936 13.1363 111.222 12.9495 110.628 12.5885L110.473 12.8447L110.317 13.101C111.019 13.5288 111.846 13.7363 112.785 13.7363V13.4363ZM110.473 12.8447L110.63 12.5896C110.037 12.2223 109.577 11.7105 109.251 11.0462L108.981 11.1785L108.712 11.3109C109.086 12.0712 109.62 12.6703 110.315 13.0998L110.473 12.8447ZM108.981 11.1785L109.252 11.048C108.929 10.3795 108.762 9.59252 108.762 8.67924H108.462H108.162C108.162 9.66559 108.342 10.5448 108.711 11.309L108.981 11.1785ZM108.462 8.67924H108.762C108.762 7.76607 108.928 6.97452 109.252 6.29721L108.981 6.16788L108.711 6.03855C108.342 6.8101 108.162 7.69279 108.162 8.67924H108.462ZM108.981 6.16788L109.252 6.29784C109.58 5.61446 110.032 5.0908 110.606 4.71681L110.442 4.46546L110.279 4.21412C109.605 4.6531 109.083 5.26439 108.711 6.03791L108.981 6.16788ZM110.442 4.46546L110.606 4.71656C111.18 4.34158 111.854 4.1497 112.64 4.1497V3.8497V3.5497C111.751 3.5497 110.96 3.76832 110.278 4.21437L110.442 4.46546ZM112.64 3.8497V4.1497C113.089 4.1497 113.533 4.22441 113.973 4.37504L114.071 4.09118L114.168 3.80731C113.666 3.63597 113.157 3.5497 112.64 3.5497V3.8497ZM114.071 4.09118L113.973 4.37504C114.402 4.5214 114.794 4.75981 115.151 5.09484L115.356 4.87598L115.562 4.65712C115.146 4.26771 114.681 3.98292 114.168 3.80731L114.071 4.09118ZM115.356 4.87598L115.152 5.09598C115.499 5.41753 115.784 5.85142 116 6.40915L116.28 6.30069L116.56 6.19223C116.317 5.56673 115.986 5.05081 115.56 4.65598L115.356 4.87598ZM116.28 6.30069L116 6.40915C116.212 6.95611 116.324 7.64526 116.324 8.48606H116.624H116.924C116.924 7.59628 116.806 6.82852 116.56 6.19223L116.28 6.30069ZM116.624 8.48606H116.324V9.08976H116.624H116.924V8.48606H116.624ZM116.624 9.08976V8.78975H109.476V9.08976V9.38976H116.624V9.08976ZM109.476 9.08976H109.776V7.85822H109.476H109.176V9.08976H109.476ZM109.476 7.85822V8.15822H115.175V7.85822V7.55822H109.476V7.85822ZM115.175 7.85822H115.475C115.475 7.29412 115.362 6.77951 115.129 6.3214L114.861 6.45765L114.594 6.59391C114.779 6.95681 114.875 7.37592 114.875 7.85822H115.175ZM114.861 6.45765L115.13 6.32349C114.9 5.86438 114.569 5.49819 114.138 5.23086L113.98 5.48571L113.822 5.74056C114.156 5.94813 114.412 6.2299 114.593 6.59182L114.861 6.45765ZM113.98 5.48571L114.139 5.23161C113.706 4.95979 113.203 4.82953 112.64 4.82953V5.12953V5.42953C113.107 5.42953 113.497 5.53672 113.82 5.7398L113.98 5.48571ZM112.64 5.12953V4.82953C112.02 4.82953 111.469 4.98412 110.998 5.30399L111.167 5.55211L111.335 5.80024C111.694 5.55666 112.124 5.42953 112.64 5.42953V5.12953ZM111.167 5.55211L110.999 5.30363C110.545 5.61058 110.194 6.01263 109.95 6.50557L110.219 6.63876L110.488 6.77196C110.686 6.37143 110.968 6.04904 111.335 5.8006L111.167 5.55211ZM110.219 6.63876L109.95 6.50557C109.708 6.99477 109.587 7.51942 109.587 8.07555H109.887H110.187C110.187 7.60943 110.287 7.17622 110.488 6.77195L110.219 6.63876ZM109.887 8.07555H109.587V8.89657H109.887H110.187V8.07555H109.887ZM109.887 8.89657H109.587C109.587 9.63021 109.713 10.2722 109.98 10.8107L110.249 10.6775L110.518 10.5442C110.302 10.1088 110.187 9.56351 110.187 8.89657H109.887ZM110.249 10.6775L109.982 10.8134C110.251 11.3436 110.63 11.7565 111.118 12.0414L111.269 11.7822L111.421 11.5231C111.04 11.3008 110.738 10.9772 110.517 10.5415L110.249 10.6775ZM111.269 11.7822L111.12 12.0424C111.607 12.3217 112.165 12.4565 112.785 12.4565V12.1565V11.8565C112.254 11.8565 111.802 11.7418 111.419 11.5221L111.269 11.7822ZM112.785 12.1565V12.4565C113.187 12.4565 113.559 12.4003 113.897 12.283L113.799 11.9996L113.701 11.7161C113.435 11.8081 113.131 11.8565 112.785 11.8565V12.1565ZM113.799 11.9996L113.899 12.2822C114.243 12.1601 114.544 11.9772 114.798 11.7326L114.59 11.5166L114.382 11.3006C114.193 11.4826 113.966 11.6217 113.698 11.7169L113.799 11.9996ZM114.59 11.5166L114.8 11.7307C115.056 11.4795 115.249 11.1714 115.384 10.813L115.103 10.7077L114.822 10.6023C114.715 10.8878 114.566 11.119 114.38 11.3025L114.59 11.5166ZM115.103 10.7077L115.022 10.9965L116.398 11.3829L116.479 11.094L116.56 10.8052L115.184 10.4188L115.103 10.7077ZM116.479 11.094L116.193 11.0051C116.062 11.4268 115.843 11.7965 115.533 12.1171L115.749 12.3256L115.965 12.534C116.339 12.1463 116.607 11.695 116.766 11.1829L116.479 11.094ZM115.749 12.3256L115.534 12.1159C115.225 12.4326 114.839 12.6839 114.372 12.8673L114.481 13.1466L114.591 13.4259C115.129 13.2148 115.589 12.9188 115.963 12.5352L115.749 12.3256ZM114.481 13.1466L114.373 12.8665C113.91 13.0445 113.382 13.1363 112.785 13.1363V13.4363V13.7363C113.443 13.7363 114.046 13.635 114.589 13.4266L114.481 13.1466ZM119.063 13.0198L119.275 12.8077V12.8077L119.063 13.0198ZM120.596 11.4864L120.809 11.2743V11.2743L120.596 11.4864ZM120.765 12.7964L120.509 12.6402L120.507 12.6449L120.765 12.7964ZM120.373 13.1949L120.527 13.4521L120.529 13.451L120.373 13.1949ZM119.063 6.1377L118.851 6.34983V6.34983L119.063 6.1377ZM119.063 4.60431L118.851 4.39218V4.39218L119.063 4.60431ZM120.596 4.60431L120.809 4.39218V4.39218L120.596 4.60431ZM120.765 5.91433L120.509 5.75812L120.507 5.76278L120.765 5.91433ZM120.373 6.31277L120.527 6.57002L120.529 6.5689L120.373 6.31277ZM119.83 13.3398V13.0398C119.613 13.0398 119.433 12.9655 119.275 12.8077L119.063 13.0198L118.851 13.2319C119.12 13.5007 119.451 13.6398 119.83 13.6398V13.3398ZM119.063 13.0198L119.275 12.8077C119.117 12.6498 119.043 12.4702 119.043 12.2531H118.743H118.443C118.443 12.6316 118.582 12.9632 118.851 13.2319L119.063 13.0198ZM118.743 12.2531H119.043C119.043 12.036 119.117 11.8564 119.275 11.6985L119.063 11.4864L118.851 11.2743C118.582 11.543 118.443 11.8746 118.443 12.2531H118.743ZM119.063 11.4864L119.275 11.6985C119.433 11.5407 119.613 11.4665 119.83 11.4665V11.1665V10.8665C119.451 10.8665 119.12 11.0055 118.851 11.2743L119.063 11.4864ZM119.83 11.1665V11.4665C120.047 11.4665 120.226 11.5407 120.384 11.6985L120.596 11.4864L120.809 11.2743C120.54 11.0055 120.208 10.8665 119.83 10.8665V11.1665ZM120.596 11.4864L120.384 11.6985C120.542 11.8564 120.616 12.036 120.616 12.2531H120.916H121.216C121.216 11.8746 121.077 11.543 120.809 11.2743L120.596 11.4864ZM120.916 12.2531H120.616C120.616 12.3964 120.581 12.5233 120.509 12.6402L120.765 12.7964L121.022 12.9526C121.152 12.7396 121.216 12.5042 121.216 12.2531H120.916ZM120.765 12.7964L120.507 12.6449C120.435 12.7666 120.34 12.8637 120.217 12.9387L120.373 13.1949L120.529 13.451C120.736 13.3249 120.902 13.1563 121.024 12.948L120.765 12.7964ZM120.373 13.1949L120.219 12.9376C120.108 13.0042 119.981 13.0398 119.83 13.0398V13.3398V13.6398C120.081 13.6398 120.316 13.5787 120.527 13.4521L120.373 13.1949ZM119.83 6.45765V6.15765C119.613 6.15765 119.433 6.08342 119.275 5.92556L119.063 6.1377L118.851 6.34983C119.12 6.61858 119.451 6.75765 119.83 6.75765V6.45765ZM119.063 6.1377L119.275 5.92556C119.117 5.7677 119.043 5.58812 119.043 5.37101H118.743H118.443C118.443 5.74954 118.582 6.08108 118.851 6.34983L119.063 6.1377ZM118.743 5.37101H119.043C119.043 5.15389 119.117 4.97431 119.275 4.81645L119.063 4.60431L118.851 4.39218C118.582 4.66093 118.443 4.99247 118.443 5.37101H118.743ZM119.063 4.60431L119.275 4.81645C119.433 4.65859 119.613 4.58436 119.83 4.58436V4.28436V3.98436C119.451 3.98436 119.12 4.12343 118.851 4.39218L119.063 4.60431ZM119.83 4.28436V4.58436C120.047 4.58436 120.226 4.65859 120.384 4.81645L120.596 4.60431L120.809 4.39218C120.54 4.12343 120.208 3.98436 119.83 3.98436V4.28436ZM120.596 4.60431L120.384 4.81645C120.542 4.97431 120.616 5.15389 120.616 5.37101H120.916H121.216C121.216 4.99247 121.077 4.66093 120.809 4.39218L120.596 4.60431ZM120.916 5.37101H120.616C120.616 5.51429 120.581 5.64118 120.509 5.75815L120.765 5.91433L121.022 6.07051C121.152 5.85746 121.216 5.62213 121.216 5.37101H120.916ZM120.765 5.91433L120.507 5.76278C120.435 5.88448 120.34 5.98155 120.217 6.05663L120.373 6.31277L120.529 6.5689C120.736 6.44275 120.902 6.27419 121.024 6.06588L120.765 5.91433ZM120.373 6.31277L120.219 6.05552C120.108 6.12212 119.981 6.15765 119.83 6.15765V6.45765V6.75765C120.081 6.75765 120.316 6.6966 120.527 6.57001L120.373 6.31277Z" fill="#E3E4EB" mask="url(#path-1-outside-1_41_585)"/>
</svg>
