<svg width="21" height="9" viewBox="0 0 21 9" fill="none" xmlns="http://www.w3.org/2000/svg">
<path d="M5.58805 6.36901C5.58805 6.78701 5.49271 7.13534 5.30205 7.41401C5.11138 7.69268 4.85838 7.91635 4.54305 8.08501C4.23505 8.24635 3.89771 8.36368 3.53105 8.43701C3.17171 8.50301 2.81971 8.53601 2.47505 8.53601C2.02771 8.53601 1.60605 8.46635 1.21005 8.32701C1.04871 8.26835 0.891046 8.20601 0.737046 8.14001C0.583046 8.06668 0.421713 8.00801 0.253046 7.96401C0.223713 7.72935 0.172379 7.47268 0.0990459 7.19401C0.0330459 6.91534 4.5903e-05 6.66234 4.5903e-05 6.43501C4.5903e-05 6.33234 0.0147126 6.25534 0.0440459 6.20401C0.0807126 6.14534 0.157713 6.11601 0.275046 6.11601C0.377713 6.11601 0.443713 6.14168 0.473046 6.19301C0.502379 6.23701 0.524379 6.29934 0.539046 6.38001C0.568379 6.48268 0.594046 6.58534 0.616046 6.68801C0.638046 6.78334 0.663713 6.88234 0.693046 6.98501C0.839713 7.42501 1.05605 7.73301 1.34205 7.90901C1.63538 8.08501 2.00938 8.17301 2.46405 8.17301C2.83805 8.17301 3.17171 8.12168 3.46505 8.01901C3.76571 7.90901 4.00038 7.73301 4.16905 7.49101C4.34505 7.24901 4.43305 6.92634 4.43305 6.52301C4.43305 6.20768 4.32671 5.92534 4.11405 5.67601C3.90138 5.41934 3.66671 5.21768 3.41005 5.07101C3.35138 5.03434 3.28905 5.00134 3.22305 4.97201C3.15705 4.94268 3.09105 4.91334 3.02505 4.88401C2.79771 4.76668 2.56671 4.64934 2.33205 4.53201C2.10471 4.41468 1.87371 4.30101 1.63905 4.19101C1.41171 4.07368 1.17705 3.92701 0.935046 3.75101C0.700379 3.56768 0.498713 3.35868 0.330046 3.12401C0.168713 2.88934 0.0880459 2.63268 0.0880459 2.35401C0.0880459 1.88468 0.212713 1.49601 0.462046 1.18801C0.711379 0.880011 1.03038 0.649011 1.41905 0.495011C1.80771 0.341011 2.21105 0.264011 2.62905 0.264011C2.92971 0.264011 3.19738 0.300678 3.43205 0.374011C3.67405 0.447345 3.91238 0.524345 4.14705 0.605012C4.38171 0.678345 4.63838 0.729678 4.91705 0.759012C4.93905 0.979011 4.96105 1.19901 4.98305 1.41901C5.00505 1.63901 5.03805 1.85901 5.08205 2.07901C5.08938 2.10835 5.09305 2.13768 5.09305 2.16701C5.10038 2.19634 5.10405 2.22568 5.10405 2.25501C5.10405 2.37234 5.06371 2.44934 4.98305 2.48601C4.90971 2.51535 4.82538 2.53001 4.73005 2.53001C4.63471 2.53001 4.58338 2.51168 4.57605 2.47501C4.56871 2.43834 4.55771 2.38334 4.54305 2.31001C4.44771 1.72334 4.24605 1.28334 3.93805 0.990011C3.63005 0.689344 3.16805 0.539011 2.55205 0.539011C2.09738 0.539011 1.74171 0.660011 1.48505 0.902011C1.23571 1.14401 1.11105 1.49601 1.11105 1.95801C1.11105 2.26601 1.19171 2.52634 1.35305 2.73901C1.51438 2.95168 1.72705 3.13868 1.99105 3.30001C2.26238 3.45401 2.55571 3.60068 2.87105 3.74001C3.19371 3.87934 3.51271 4.02234 3.82805 4.16901C4.14338 4.31568 4.43305 4.48801 4.69705 4.68601C4.96838 4.87668 5.18471 5.10768 5.34605 5.37901C5.50738 5.65034 5.58805 5.98034 5.58805 6.36901ZM9.9853 7.15001C9.95596 6.82001 9.93763 6.49001 9.9303 6.16001C9.9303 5.82268 9.92663 5.48534 9.9193 5.14801H9.7653C9.53796 5.14801 9.28496 5.18468 9.0063 5.25801C8.73496 5.32401 8.47463 5.42668 8.2253 5.56601C7.97596 5.70534 7.77063 5.88134 7.6093 6.09401C7.4553 6.29934 7.3783 6.53768 7.3783 6.80901C7.3783 7.16101 7.4773 7.42868 7.6753 7.61201C7.8733 7.78801 8.14096 7.87601 8.4783 7.87601C8.63963 7.87601 8.81563 7.83935 9.0063 7.76601C9.19696 7.68535 9.3803 7.59001 9.5563 7.48001C9.7323 7.37001 9.8753 7.26001 9.9853 7.15001ZM11.9103 7.85401C11.9103 7.88335 11.9066 7.90535 11.8993 7.92001C11.826 8.08135 11.7013 8.20601 11.5253 8.29401C11.3566 8.37468 11.188 8.41501 11.0193 8.41501C10.7113 8.41501 10.4876 8.32701 10.3483 8.15101C10.2163 7.96768 10.11 7.74401 10.0293 7.48001C9.75063 7.73668 9.44263 7.95301 9.1053 8.12901C8.76796 8.29768 8.40496 8.38201 8.0163 8.38201C7.74496 8.38201 7.4883 8.33068 7.2463 8.22801C7.01163 8.11801 6.82096 7.96035 6.6743 7.75501C6.52763 7.54968 6.4543 7.30034 6.4543 7.00701C6.4543 6.69901 6.5313 6.43501 6.6853 6.21501C6.84663 5.98768 7.0483 5.79701 7.2903 5.64301C7.53963 5.48168 7.80363 5.35334 8.0823 5.25801C8.3683 5.15535 8.63596 5.07835 8.8853 5.02701C9.05396 4.99034 9.2263 4.95734 9.4023 4.92801C9.5783 4.89868 9.75063 4.86934 9.9193 4.84001C9.9193 4.63468 9.9083 4.39634 9.8863 4.12501C9.87163 3.85368 9.81663 3.63001 9.7213 3.45401C9.62596 3.28534 9.49763 3.13501 9.3363 3.00301C9.17496 2.87101 8.9953 2.80501 8.7973 2.80501C8.45996 2.80501 8.19596 2.89301 8.0053 3.06901C7.81463 3.24501 7.67896 3.49434 7.5983 3.81701C7.59096 3.85368 7.58363 3.89401 7.5763 3.93801C7.5763 3.97468 7.57263 4.01134 7.5653 4.04801C7.55796 4.09201 7.52863 4.13234 7.4773 4.16901C7.4333 4.19834 7.38563 4.21301 7.3343 4.21301C7.19496 4.21301 7.06663 4.18001 6.9493 4.11401C6.8393 4.04801 6.7843 3.93801 6.7843 3.78401C6.7843 3.69601 6.79896 3.61901 6.8283 3.55301C6.92363 3.32568 7.07763 3.13868 7.2903 2.99201C7.50296 2.83801 7.73763 2.72068 7.9943 2.64001C8.2583 2.55934 8.50396 2.51901 8.7313 2.51901C9.1273 2.51901 9.48663 2.59234 9.8093 2.73901C10.132 2.88568 10.3886 3.10201 10.5793 3.38801C10.7773 3.66668 10.8763 4.01868 10.8763 4.44401C10.8763 4.92068 10.8726 5.40101 10.8653 5.88501C10.8653 6.36901 10.88 6.85301 10.9093 7.33701C10.9166 7.49835 10.9496 7.64135 11.0083 7.76601C11.067 7.88335 11.188 7.94201 11.3713 7.94201C11.4666 7.94201 11.5656 7.92001 11.6683 7.87601C11.7783 7.82468 11.848 7.79901 11.8773 7.79901C11.8993 7.79901 11.9103 7.81735 11.9103 7.85401ZM15.4737 8.27201C15.4737 8.30868 15.4627 8.34535 15.4407 8.38201C15.4187 8.41135 15.3894 8.42601 15.3527 8.42601C15.1474 8.42601 14.942 8.42235 14.7367 8.41501C14.5387 8.40035 14.3334 8.39301 14.1207 8.39301H13.8237C13.6037 8.39301 13.3837 8.40035 13.1637 8.41501C12.951 8.42235 12.7384 8.42601 12.5257 8.42601C12.4964 8.42601 12.4744 8.40768 12.4597 8.37101C12.4524 8.33435 12.4487 8.30501 12.4487 8.28301C12.4487 8.24635 12.4524 8.22068 12.4597 8.20601C12.467 8.18401 12.489 8.16935 12.5257 8.16201C12.5624 8.14735 12.6027 8.14368 12.6467 8.15101C12.698 8.15101 12.7457 8.15101 12.7897 8.15101C12.841 8.15101 12.8887 8.15468 12.9327 8.16201C12.9767 8.16201 13.0244 8.16201 13.0757 8.16201C13.1784 8.16201 13.27 8.14001 13.3507 8.09601C13.4387 8.04468 13.4827 7.96035 13.4827 7.84301V3.44301C13.4827 3.31834 13.4607 3.22301 13.4167 3.15701C13.3727 3.08368 13.281 3.04701 13.1417 3.04701C13.039 3.04701 12.9327 3.05434 12.8227 3.06901C12.72 3.07634 12.6174 3.08734 12.5147 3.10201C12.456 3.10201 12.4267 3.06901 12.4267 3.00301C12.4267 2.92968 12.456 2.88201 12.5147 2.86001C12.6027 2.83068 12.6944 2.81234 12.7897 2.80501C12.8924 2.79034 12.9877 2.77568 13.0757 2.76101C13.281 2.72434 13.4864 2.68401 13.6917 2.64001C13.897 2.59601 14.0987 2.54834 14.2967 2.49701C14.3187 2.48968 14.348 2.48601 14.3847 2.48601C14.4654 2.48601 14.5057 2.53001 14.5057 2.61801C14.5057 3.48334 14.502 4.35234 14.4947 5.22501C14.4947 6.09768 14.4947 6.97034 14.4947 7.84301C14.4947 7.96035 14.546 8.04468 14.6487 8.09601C14.7587 8.14001 14.8614 8.16201 14.9567 8.16201C15.03 8.16201 15.1034 8.15835 15.1767 8.15101C15.2574 8.14368 15.3344 8.14001 15.4077 8.14001C15.437 8.14001 15.4554 8.15835 15.4627 8.19501C15.47 8.23168 15.4737 8.25735 15.4737 8.27201ZM14.5827 0.660012C14.5827 0.843345 14.5167 1.00101 14.3847 1.13301C14.2527 1.25768 14.095 1.32001 13.9117 1.32001C13.7284 1.32001 13.5707 1.25768 13.4387 1.13301C13.3067 1.00101 13.2407 0.843345 13.2407 0.660012C13.2407 0.476678 13.3067 0.322678 13.4387 0.198012C13.5707 0.0660115 13.7284 1.15037e-05 13.9117 1.15037e-05C14.095 1.15037e-05 14.2527 0.0660115 14.3847 0.198012C14.5167 0.322678 14.5827 0.476678 14.5827 0.660012ZM20.5529 3.54201C20.5529 3.61534 20.5236 3.68501 20.4649 3.75101C20.4136 3.80968 20.3476 3.83901 20.2669 3.83901C20.1569 3.83901 20.0763 3.80234 20.0249 3.72901C19.9809 3.65568 19.9406 3.57134 19.9039 3.47601C19.8746 3.38068 19.8269 3.29634 19.7609 3.22301C19.6949 3.14968 19.5849 3.11301 19.4309 3.11301C19.4016 3.11301 19.3723 3.11301 19.3429 3.11301C19.3209 3.11301 19.2953 3.11668 19.2659 3.12401C19.1413 3.14601 19.0056 3.22301 18.8589 3.35501C18.7123 3.48701 18.5693 3.64468 18.4299 3.82801C18.2979 4.00401 18.1879 4.18001 18.0999 4.35601C18.0119 4.53201 17.9643 4.67868 17.9569 4.79601C17.9496 4.91334 17.9459 5.03068 17.9459 5.14801C17.9459 5.25801 17.9459 5.36801 17.9459 5.47801C17.9459 5.87401 17.9459 6.27001 17.9459 6.66601C17.9533 7.06201 17.9569 7.45434 17.9569 7.84301C17.9569 7.95301 18.0009 8.03368 18.0889 8.08501C18.1843 8.12901 18.2796 8.15101 18.3749 8.15101C18.4483 8.15101 18.5216 8.14735 18.5949 8.14001C18.6683 8.13268 18.7416 8.12901 18.8149 8.12901C18.8516 8.12901 18.8773 8.14735 18.8919 8.18401C18.9066 8.21335 18.9139 8.24268 18.9139 8.27201C18.9139 8.38935 18.8553 8.44801 18.7379 8.44801C18.5179 8.44801 18.2979 8.44435 18.0779 8.43701C17.8579 8.42235 17.6379 8.41501 17.4179 8.41501C17.1906 8.41501 16.9596 8.42235 16.7249 8.43701C16.4976 8.45168 16.2666 8.45901 16.0319 8.45901C16.0026 8.45901 15.9806 8.43701 15.9659 8.39301C15.9586 8.34901 15.9549 8.31235 15.9549 8.28301C15.9549 8.20968 15.9843 8.16935 16.0429 8.16201C16.1236 8.14735 16.2079 8.14368 16.2959 8.15101C16.3839 8.15835 16.4646 8.16201 16.5379 8.16201C16.6479 8.16201 16.7359 8.14001 16.8019 8.09601C16.8753 8.04468 16.9156 7.96035 16.9229 7.84301C16.9376 7.60835 16.9449 7.37001 16.9449 7.12801C16.9523 6.88601 16.9559 6.64401 16.9559 6.40201V5.33501C16.9486 5.01968 16.9449 4.70801 16.9449 4.40001C16.9523 4.08468 16.9413 3.77301 16.9119 3.46501C16.9046 3.31834 16.8643 3.21568 16.7909 3.15701C16.7176 3.09101 16.6076 3.05801 16.4609 3.05801C16.4023 3.05801 16.3399 3.06534 16.2739 3.08001C16.2153 3.08734 16.1529 3.09101 16.0869 3.09101C16.0283 3.09101 15.9989 3.04701 15.9989 2.95901C15.9989 2.90768 16.0246 2.87101 16.0759 2.84901C16.1493 2.82701 16.2263 2.81234 16.3069 2.80501C16.3876 2.79034 16.4646 2.77934 16.5379 2.77201C16.7359 2.73534 16.9339 2.69868 17.1319 2.66201C17.3299 2.62534 17.5279 2.58134 17.7259 2.53001C17.7919 2.55201 17.8396 2.59234 17.8689 2.65101C17.8836 2.68034 17.8946 2.76101 17.9019 2.89301C17.9093 3.02501 17.9129 3.17901 17.9129 3.35501C17.9129 3.52368 17.9129 3.68501 17.9129 3.83901C17.9129 3.98568 17.9129 4.08834 17.9129 4.14701C18.0743 3.89034 18.2576 3.63368 18.4629 3.37701C18.6683 3.12034 18.9029 2.90768 19.1669 2.73901C19.4309 2.57034 19.7279 2.48601 20.0579 2.48601C20.2339 2.48601 20.3476 2.54101 20.3989 2.65101C20.4503 2.76101 20.4833 2.88934 20.4979 3.03601C20.5126 3.11668 20.5236 3.20101 20.5309 3.28901C20.5456 3.37701 20.5529 3.46134 20.5529 3.54201Z" fill="#D51F1F"/>
</svg>
