<svg width="63" height="11" viewBox="0 0 63 11" fill="none" xmlns="http://www.w3.org/2000/svg">
<path d="M8.10704 0.505943C8.10704 0.615943 8.08871 0.67461 8.05204 0.681943C8.02271 0.689276 7.96038 0.692943 7.86504 0.692943C7.83571 0.692943 7.80638 0.692943 7.77704 0.692943C7.75504 0.68561 7.72938 0.681943 7.70004 0.681943C7.58271 0.681943 7.47638 0.703943 7.38104 0.747943C7.28571 0.791943 7.21604 0.868943 7.17204 0.978943C7.12071 1.11094 7.07304 1.24661 7.02904 1.38594C6.98504 1.51794 6.94104 1.65361 6.89704 1.79294C6.80171 2.07161 6.70271 2.35394 6.60004 2.63994C6.50471 2.92594 6.40571 3.20828 6.30304 3.48694C6.00971 4.33028 5.70538 5.17361 5.39004 6.01694C5.08204 6.85294 4.77771 7.69261 4.47704 8.53594H4.03704C3.88304 8.53594 3.77671 8.46628 3.71804 8.32694C3.67404 8.22428 3.63004 8.11794 3.58604 8.00794C3.54938 7.89794 3.51271 7.78794 3.47604 7.67794C3.39538 7.45061 3.31104 7.22694 3.22304 7.00694C3.14238 6.77961 3.05804 6.55228 2.97004 6.32494C2.67671 5.54761 2.38338 4.77394 2.09004 4.00394C1.79671 3.23394 1.51071 2.46028 1.23204 1.68294C1.18804 1.56561 1.14038 1.44828 1.08904 1.33094C1.03771 1.20628 0.975375 1.09628 0.902042 1.00094C0.814042 0.876276 0.715042 0.799277 0.605042 0.769943C0.502375 0.74061 0.403375 0.72961 0.308042 0.736943C0.220042 0.736943 0.146709 0.733276 0.088042 0.725943C0.0293753 0.711277 4.19933e-05 0.667276 4.19933e-05 0.593943C4.19933e-05 0.54261 0.00737533 0.505943 0.022042 0.483943C0.0367087 0.454609 0.0697087 0.439943 0.121042 0.439943C0.275042 0.439943 0.429042 0.44361 0.583042 0.450943C0.744375 0.458277 0.905709 0.461943 1.06704 0.461943C1.40438 0.461943 1.73804 0.458277 2.06804 0.450943C2.40538 0.436276 2.73904 0.428943 3.06904 0.428943C3.15704 0.428943 3.20104 0.472943 3.20104 0.560943C3.20104 0.66361 3.15704 0.714943 3.06904 0.714943C2.98104 0.714943 2.89304 0.711277 2.80504 0.703943C2.72438 0.689276 2.63638 0.681943 2.54104 0.681943C2.46038 0.681943 2.36871 0.692943 2.26604 0.714943C2.17071 0.736943 2.12304 0.802943 2.12304 0.912943C2.12304 0.912943 2.13404 0.945943 2.15604 1.01194C2.17804 1.07061 2.20004 1.13294 2.22204 1.19894C2.24404 1.26494 2.25504 1.30528 2.25504 1.31994C2.59971 2.35394 2.95904 3.38428 3.33304 4.41094C3.71438 5.43761 4.09204 6.46428 4.46604 7.49094C4.81071 6.47161 5.16271 5.45594 5.52204 4.44394C5.88138 3.42461 6.22604 2.40528 6.55604 1.38594L6.68804 0.978943C6.68804 0.802943 6.62204 0.70761 6.49004 0.692943C6.36538 0.670943 6.24071 0.659943 6.11604 0.659943C6.05738 0.659943 5.99504 0.667276 5.92904 0.681943C5.87038 0.689276 5.80804 0.692943 5.74204 0.692943C5.71271 0.692943 5.69071 0.681943 5.67604 0.659943C5.66138 0.63061 5.65404 0.601276 5.65404 0.571943C5.65404 0.505943 5.67238 0.46561 5.70904 0.450943C5.72371 0.450943 5.73471 0.450943 5.74204 0.450943C5.74938 0.44361 5.75671 0.439943 5.76404 0.439943C5.77871 0.439943 5.79338 0.44361 5.80804 0.450943C5.82271 0.450943 5.83738 0.450943 5.85204 0.450943C6.02071 0.458277 6.19304 0.461943 6.36904 0.461943C6.54504 0.461943 6.71738 0.461943 6.88604 0.461943C7.07671 0.461943 7.26371 0.45461 7.44704 0.439943C7.63771 0.425276 7.82471 0.417943 8.00804 0.417943C8.07404 0.417943 8.10704 0.447276 8.10704 0.505943ZM12.649 4.63094C12.6417 4.33028 12.616 4.04428 12.572 3.77294C12.528 3.49428 12.4217 3.26694 12.253 3.09094C12.0843 2.90761 11.8093 2.81594 11.428 2.81594C11.0833 2.81594 10.801 2.91128 10.581 3.10194C10.3683 3.28528 10.2033 3.51994 10.086 3.80594C9.96868 4.08461 9.88068 4.37061 9.82201 4.66394C10.0053 4.67128 10.185 4.67861 10.361 4.68594C10.537 4.68594 10.713 4.68594 10.889 4.68594C11.1823 4.68594 11.4757 4.68228 11.769 4.67494C12.0623 4.66028 12.3557 4.64561 12.649 4.63094ZM13.914 7.14994C13.914 7.18661 13.9067 7.20861 13.892 7.21594C13.87 7.28928 13.815 7.37728 13.727 7.47994C13.6463 7.58261 13.5547 7.68161 13.452 7.77694C13.3493 7.86494 13.265 7.93094 13.199 7.97494C12.957 8.14361 12.682 8.27928 12.374 8.38194C12.0733 8.48461 11.7727 8.53594 11.472 8.53594C11.2227 8.53594 10.944 8.49561 10.636 8.41494C10.3353 8.33428 10.0787 8.22428 9.86601 8.08494C9.45534 7.81361 9.15468 7.45794 8.96401 7.01794C8.77334 6.57794 8.67801 6.11961 8.67801 5.64294C8.67801 5.10028 8.78434 4.59794 8.99701 4.13594C9.20968 3.67394 9.55068 3.29994 10.02 3.01394C10.2327 2.88928 10.471 2.78661 10.735 2.70594C10.999 2.61794 11.252 2.57394 11.494 2.57394C11.9267 2.57394 12.308 2.66194 12.638 2.83794C12.968 3.01394 13.2247 3.26328 13.408 3.58594C13.5987 3.90128 13.694 4.27894 13.694 4.71894C13.694 4.84361 13.6647 4.92428 13.606 4.96094C13.5547 4.99761 13.474 5.01594 13.364 5.01594C13.2173 5.01594 13.0707 5.01228 12.924 5.00494C12.7773 4.99761 12.6307 4.99028 12.484 4.98294C12.2787 4.96828 12.0733 4.96094 11.868 4.96094C11.67 4.96094 11.4683 4.96094 11.263 4.96094C11.0137 4.96094 10.7643 4.96094 10.515 4.96094C10.2657 4.96094 10.0163 4.96828 9.76701 4.98294C9.75968 5.10028 9.75234 5.21394 9.74501 5.32394C9.73768 5.43394 9.73401 5.54761 9.73401 5.66494C9.73401 5.93628 9.76701 6.21861 9.83301 6.51194C9.89901 6.79794 10.0053 7.06561 10.152 7.31494C10.2987 7.55694 10.4857 7.75494 10.713 7.90894C10.9403 8.05561 11.2153 8.12894 11.538 8.12894C11.868 8.12894 12.1833 8.07761 12.484 7.97494C12.7847 7.87228 13.0597 7.70728 13.309 7.47994C13.375 7.41394 13.4337 7.34428 13.485 7.27094C13.5437 7.19028 13.606 7.12061 13.672 7.06194C13.7087 7.02528 13.749 7.00694 13.793 7.00694C13.8297 7.00694 13.859 7.02161 13.881 7.05094C13.903 7.08028 13.914 7.11328 13.914 7.14994ZM18.9402 3.59694C18.9402 3.67028 18.9108 3.73994 18.8522 3.80594C18.8008 3.86461 18.7348 3.89394 18.6542 3.89394C18.5442 3.89394 18.4635 3.85728 18.4122 3.78394C18.3682 3.71061 18.3278 3.62628 18.2912 3.53094C18.2618 3.43561 18.2142 3.35128 18.1482 3.27794C18.0822 3.20461 17.9722 3.16794 17.8182 3.16794C17.7888 3.16794 17.7595 3.16794 17.7302 3.16794C17.7082 3.16794 17.6825 3.17161 17.6532 3.17894C17.5285 3.20094 17.3928 3.27794 17.2462 3.40994C17.0995 3.54194 16.9565 3.69961 16.8172 3.88294C16.6852 4.05894 16.5752 4.23494 16.4872 4.41094C16.3992 4.58694 16.3515 4.73361 16.3442 4.85094C16.3368 4.96828 16.3332 5.08561 16.3332 5.20294C16.3332 5.31294 16.3332 5.42294 16.3332 5.53294C16.3332 5.92894 16.3332 6.32494 16.3332 6.72094C16.3405 7.11694 16.3442 7.50928 16.3442 7.89794C16.3442 8.00794 16.3882 8.08861 16.4762 8.13994C16.5715 8.18394 16.6668 8.20594 16.7622 8.20594C16.8355 8.20594 16.9088 8.20228 16.9822 8.19494C17.0555 8.18761 17.1288 8.18394 17.2022 8.18394C17.2388 8.18394 17.2645 8.20228 17.2792 8.23894C17.2938 8.26828 17.3012 8.29761 17.3012 8.32694C17.3012 8.44428 17.2425 8.50294 17.1252 8.50294C16.9052 8.50294 16.6852 8.49928 16.4652 8.49194C16.2452 8.47728 16.0252 8.46994 15.8052 8.46994C15.5778 8.46994 15.3468 8.47728 15.1122 8.49194C14.8848 8.50661 14.6538 8.51394 14.4192 8.51394C14.3898 8.51394 14.3678 8.49194 14.3532 8.44794C14.3458 8.40394 14.3422 8.36728 14.3422 8.33794C14.3422 8.26461 14.3715 8.22428 14.4302 8.21694C14.5108 8.20228 14.5952 8.19861 14.6832 8.20594C14.7712 8.21328 14.8518 8.21694 14.9252 8.21694C15.0352 8.21694 15.1232 8.19494 15.1892 8.15094C15.2625 8.09961 15.3028 8.01528 15.3102 7.89794C15.3248 7.66328 15.3322 7.42494 15.3322 7.18294C15.3395 6.94094 15.3432 6.69894 15.3432 6.45694V5.38994C15.3358 5.07461 15.3322 4.76294 15.3322 4.45494C15.3395 4.13961 15.3285 3.82794 15.2992 3.51994C15.2918 3.37328 15.2515 3.27061 15.1782 3.21194C15.1048 3.14594 14.9948 3.11294 14.8482 3.11294C14.7895 3.11294 14.7272 3.12028 14.6612 3.13494C14.6025 3.14228 14.5402 3.14594 14.4742 3.14594C14.4155 3.14594 14.3862 3.10194 14.3862 3.01394C14.3862 2.96261 14.4118 2.92594 14.4632 2.90394C14.5365 2.88194 14.6135 2.86728 14.6942 2.85994C14.7748 2.84528 14.8518 2.83428 14.9252 2.82694C15.1232 2.79028 15.3212 2.75361 15.5192 2.71694C15.7172 2.68028 15.9152 2.63628 16.1132 2.58494C16.1792 2.60694 16.2268 2.64728 16.2562 2.70594C16.2708 2.73528 16.2818 2.81594 16.2892 2.94794C16.2965 3.07994 16.3002 3.23394 16.3002 3.40994C16.3002 3.57861 16.3002 3.73994 16.3002 3.89394C16.3002 4.04061 16.3002 4.14328 16.3002 4.20194C16.4615 3.94528 16.6448 3.68861 16.8502 3.43194C17.0555 3.17528 17.2902 2.96261 17.5542 2.79394C17.8182 2.62528 18.1152 2.54094 18.4452 2.54094C18.6212 2.54094 18.7348 2.59594 18.7862 2.70594C18.8375 2.81594 18.8705 2.94428 18.8852 3.09094C18.8998 3.17161 18.9108 3.25594 18.9182 3.34394C18.9328 3.43194 18.9402 3.51628 18.9402 3.59694ZM26.9298 5.34594C26.9298 5.09661 26.9152 4.83628 26.8858 4.56494C26.8565 4.28628 26.7942 4.02594 26.6988 3.78394C26.6035 3.54194 26.4605 3.34761 26.2698 3.20094C26.0792 3.04694 25.8188 2.96994 25.4888 2.96994C25.2908 2.96994 25.0782 3.02128 24.8508 3.12394C24.6308 3.21928 24.4365 3.35128 24.2678 3.51994C24.1065 3.68861 24.0148 3.88294 23.9928 4.10294C23.9782 4.33028 23.9708 4.56128 23.9708 4.79594C23.9708 5.03061 23.9708 5.26528 23.9708 5.49994C23.9708 5.70528 23.9708 5.91428 23.9708 6.12694C23.9782 6.33228 23.9855 6.54128 23.9928 6.75394C24.0148 7.12794 24.1358 7.44694 24.3558 7.71094C24.5758 7.96761 24.8875 8.09594 25.2908 8.09594C25.6722 8.09594 25.9728 8.01161 26.1928 7.84294C26.4128 7.66694 26.5742 7.43961 26.6768 7.16094C26.7868 6.88228 26.8565 6.58528 26.8858 6.26994C26.9152 5.94728 26.9298 5.63928 26.9298 5.34594ZM28.0628 5.35694C28.0628 5.92894 27.9602 6.44594 27.7548 6.90794C27.5495 7.36994 27.2415 7.73661 26.8308 8.00794C26.4275 8.27194 25.9215 8.40394 25.3128 8.40394C25.0782 8.40394 24.8362 8.34528 24.5868 8.22794C24.3448 8.10328 24.1395 7.96028 23.9708 7.79894V10.1419C23.9708 10.2446 24.0112 10.3033 24.0918 10.3179C24.1798 10.3326 24.2605 10.3399 24.3338 10.3399C24.3998 10.3399 24.4658 10.3363 24.5318 10.3289C24.5978 10.3216 24.6638 10.3179 24.7298 10.3179C24.8252 10.3179 24.8728 10.3656 24.8728 10.4609C24.8728 10.5709 24.8178 10.6259 24.7078 10.6259C24.4805 10.6259 24.2532 10.6186 24.0258 10.6039C23.7985 10.5893 23.5712 10.5819 23.3438 10.5819C23.1532 10.5819 22.9625 10.5893 22.7718 10.6039C22.5885 10.6186 22.4015 10.6259 22.2108 10.6259C22.1595 10.6259 22.1265 10.6076 22.1118 10.5709C22.1045 10.5343 22.1008 10.5013 22.1008 10.4719C22.1008 10.3693 22.1522 10.3179 22.2548 10.3179C22.3135 10.3179 22.3722 10.3179 22.4308 10.3179C22.4895 10.3253 22.5482 10.3289 22.6068 10.3289C22.6582 10.3289 22.7315 10.3216 22.8268 10.3069C22.9295 10.2923 22.9808 10.2483 22.9808 10.1749C22.9808 9.41228 22.9808 8.64594 22.9808 7.87594C22.9882 7.10594 22.9918 6.33961 22.9918 5.57694C22.9918 5.23228 22.9882 4.89128 22.9808 4.55394C22.9808 4.21661 22.9772 3.87928 22.9698 3.54194C22.9625 3.38061 22.9332 3.27061 22.8818 3.21194C22.8305 3.14594 22.7205 3.11294 22.5518 3.11294C22.4785 3.11294 22.4052 3.12394 22.3318 3.14594C22.2585 3.16061 22.1852 3.16794 22.1118 3.16794C22.0312 3.16794 21.9908 3.13128 21.9908 3.05794C21.9908 2.99194 22.0238 2.94794 22.0898 2.92594C22.1045 2.91861 22.1705 2.90394 22.2878 2.88194C22.4052 2.85994 22.5445 2.83428 22.7058 2.80494C22.8745 2.76828 23.0395 2.73528 23.2008 2.70594C23.3622 2.67661 23.4978 2.65094 23.6078 2.62894C23.7178 2.60694 23.7765 2.59594 23.7838 2.59594C23.8425 2.59594 23.8828 2.63261 23.9048 2.70594C23.9195 2.74994 23.9268 2.83061 23.9268 2.94794C23.9342 3.05794 23.9378 3.17161 23.9378 3.28894C23.9378 3.39894 23.9378 3.48328 23.9378 3.54194C24.1432 3.27061 24.4035 3.04694 24.7188 2.87094C25.0415 2.68761 25.3752 2.59594 25.7198 2.59594C26.2258 2.59594 26.6512 2.73161 26.9958 3.00294C27.3478 3.26694 27.6118 3.61161 27.7878 4.03694C27.9712 4.45494 28.0628 4.89494 28.0628 5.35694ZM32.9732 4.63094C32.9659 4.33028 32.9402 4.04428 32.8962 3.77294C32.8522 3.49428 32.7459 3.26694 32.5772 3.09094C32.4086 2.90761 32.1336 2.81594 31.7522 2.81594C31.4076 2.81594 31.1252 2.91128 30.9052 3.10194C30.6926 3.28528 30.5276 3.51994 30.4102 3.80594C30.2929 4.08461 30.2049 4.37061 30.1462 4.66394C30.3296 4.67128 30.5092 4.67861 30.6852 4.68594C30.8612 4.68594 31.0372 4.68594 31.2132 4.68594C31.5066 4.68594 31.7999 4.68228 32.0932 4.67494C32.3866 4.66028 32.6799 4.64561 32.9732 4.63094ZM34.2382 7.14994C34.2382 7.18661 34.2309 7.20861 34.2162 7.21594C34.1942 7.28928 34.1392 7.37728 34.0512 7.47994C33.9706 7.58261 33.8789 7.68161 33.7762 7.77694C33.6736 7.86494 33.5892 7.93094 33.5232 7.97494C33.2812 8.14361 33.0062 8.27928 32.6982 8.38194C32.3976 8.48461 32.0969 8.53594 31.7962 8.53594C31.5469 8.53594 31.2682 8.49561 30.9602 8.41494C30.6596 8.33428 30.4029 8.22428 30.1902 8.08494C29.7796 7.81361 29.4789 7.45794 29.2882 7.01794C29.0976 6.57794 29.0022 6.11961 29.0022 5.64294C29.0022 5.10028 29.1086 4.59794 29.3212 4.13594C29.5339 3.67394 29.8749 3.29994 30.3442 3.01394C30.5569 2.88928 30.7952 2.78661 31.0592 2.70594C31.3232 2.61794 31.5762 2.57394 31.8182 2.57394C32.2509 2.57394 32.6322 2.66194 32.9622 2.83794C33.2922 3.01394 33.5489 3.26328 33.7322 3.58594C33.9229 3.90128 34.0182 4.27894 34.0182 4.71894C34.0182 4.84361 33.9889 4.92428 33.9302 4.96094C33.8789 4.99761 33.7982 5.01594 33.6882 5.01594C33.5416 5.01594 33.3949 5.01228 33.2482 5.00494C33.1016 4.99761 32.9549 4.99028 32.8082 4.98294C32.6029 4.96828 32.3976 4.96094 32.1922 4.96094C31.9942 4.96094 31.7926 4.96094 31.5872 4.96094C31.3379 4.96094 31.0886 4.96094 30.8392 4.96094C30.5899 4.96094 30.3406 4.96828 30.0912 4.98294C30.0839 5.10028 30.0766 5.21394 30.0692 5.32394C30.0619 5.43394 30.0582 5.54761 30.0582 5.66494C30.0582 5.93628 30.0912 6.21861 30.1572 6.51194C30.2232 6.79794 30.3296 7.06561 30.4762 7.31494C30.6229 7.55694 30.8099 7.75494 31.0372 7.90894C31.2646 8.05561 31.5396 8.12894 31.8622 8.12894C32.1922 8.12894 32.5076 8.07761 32.8082 7.97494C33.1089 7.87228 33.3839 7.70728 33.6332 7.47994C33.6992 7.41394 33.7579 7.34428 33.8092 7.27094C33.8679 7.19028 33.9302 7.12061 33.9962 7.06194C34.0329 7.02528 34.0732 7.00694 34.1172 7.00694C34.1539 7.00694 34.1832 7.02161 34.2052 7.05094C34.2272 7.08028 34.2382 7.11328 34.2382 7.14994ZM39.0334 4.45494C39.0334 4.20561 38.982 3.97094 38.8794 3.75094C38.7767 3.53094 38.63 3.35128 38.4394 3.21194C38.2487 3.07261 38.0177 3.00294 37.7464 3.00294C37.3944 3.00294 37.1047 3.08728 36.8774 3.25594C36.6574 3.42461 36.4814 3.64461 36.3494 3.91594C36.2247 4.17994 36.1367 4.46594 36.0854 4.77394C36.0414 5.08194 36.0194 5.37528 36.0194 5.65394C36.0194 5.90328 36.0414 6.17094 36.0854 6.45694C36.1294 6.74294 36.2064 7.01061 36.3164 7.25994C36.4337 7.50928 36.595 7.71461 36.8004 7.87594C37.0057 8.02994 37.266 8.10694 37.5814 8.10694C37.8454 8.10694 38.0874 8.02628 38.3074 7.86494C38.5274 7.69628 38.7034 7.48728 38.8354 7.23794C38.9674 6.98861 39.0334 6.74294 39.0334 6.50094V4.45494ZM41.0794 8.05194C41.0794 8.08861 41.061 8.12528 41.0244 8.16194C40.9877 8.19861 40.9547 8.22794 40.9254 8.24994C40.83 8.32328 40.6907 8.38561 40.5074 8.43694C40.3314 8.48828 40.181 8.51394 40.0564 8.51394C39.8657 8.51394 39.708 8.45894 39.5834 8.34894C39.4587 8.23894 39.356 8.10328 39.2754 7.94194C39.202 7.78061 39.136 7.62294 39.0774 7.46894C38.916 7.72561 38.696 7.95661 38.4174 8.16194C38.1387 8.35994 37.8417 8.45894 37.5264 8.45894C37.3137 8.45894 37.0937 8.44428 36.8664 8.41494C36.6464 8.37828 36.441 8.30128 36.2504 8.18394C35.8324 7.91994 35.5134 7.56428 35.2934 7.11694C35.0807 6.66228 34.9744 6.19661 34.9744 5.71994C34.9744 5.14794 35.077 4.63461 35.2824 4.17994C35.4877 3.71794 35.792 3.35494 36.1954 3.09094C36.606 2.81961 37.112 2.68394 37.7134 2.68394C37.8454 2.68394 37.992 2.70961 38.1534 2.76094C38.3147 2.81228 38.4724 2.87828 38.6264 2.95894C38.7877 3.03228 38.916 3.10928 39.0114 3.18994V1.05594C39.0114 0.821276 38.949 0.689277 38.8244 0.659943C38.707 0.623277 38.5494 0.604943 38.3514 0.604943C38.2854 0.604943 38.2194 0.60861 38.1534 0.615943C38.0874 0.615943 38.0214 0.615943 37.9554 0.615943C37.926 0.615943 37.8967 0.604943 37.8674 0.582943C37.8454 0.560943 37.8344 0.535276 37.8344 0.505943C37.8344 0.45461 37.8527 0.42161 37.8894 0.406943C37.904 0.392276 37.9187 0.384943 37.9334 0.384943C37.9554 0.384943 37.9774 0.381276 37.9994 0.373943C38.1534 0.34461 38.3074 0.32261 38.4614 0.307943C38.6227 0.285943 38.784 0.260276 38.9454 0.230943C39.1067 0.201609 39.2644 0.172276 39.4184 0.142943C39.5724 0.106276 39.7264 0.0659428 39.8804 0.0219429C39.8877 0.0219429 39.8987 0.0182763 39.9134 0.0109431C39.9354 0.00360982 39.95 -5.68032e-05 39.9574 -5.68032e-05C39.994 -5.68032e-05 40.016 0.0146099 40.0234 0.0439433C40.0307 0.0732762 40.0344 0.102609 40.0344 0.131943C40.0344 1.04128 40.0307 1.94694 40.0234 2.84894C40.016 3.75094 40.0124 4.65661 40.0124 5.56594V7.20494C40.0124 7.32961 40.027 7.45794 40.0564 7.58994C40.0857 7.72194 40.1407 7.83194 40.2214 7.91994C40.3094 8.00794 40.4304 8.05194 40.5844 8.05194C40.6577 8.05194 40.7274 8.03728 40.7934 8.00794C40.8594 7.97861 40.929 7.96394 41.0024 7.96394C41.0537 7.96394 41.0794 7.99328 41.0794 8.05194ZM44.6373 8.32694C44.6373 8.36361 44.6263 8.40028 44.6043 8.43694C44.5823 8.46628 44.5529 8.48094 44.5163 8.48094C44.3109 8.48094 44.1056 8.47728 43.9003 8.46994C43.7023 8.45528 43.4969 8.44794 43.2843 8.44794H42.9873C42.7673 8.44794 42.5473 8.45528 42.3273 8.46994C42.1146 8.47728 41.9019 8.48094 41.6893 8.48094C41.6599 8.48094 41.6379 8.46261 41.6233 8.42594C41.6159 8.38928 41.6123 8.35994 41.6123 8.33794C41.6123 8.30128 41.6159 8.27561 41.6233 8.26094C41.6306 8.23894 41.6526 8.22428 41.6893 8.21694C41.7259 8.20228 41.7663 8.19861 41.8103 8.20594C41.8616 8.20594 41.9093 8.20594 41.9533 8.20594C42.0046 8.20594 42.0523 8.20961 42.0963 8.21694C42.1403 8.21694 42.1879 8.21694 42.2393 8.21694C42.3419 8.21694 42.4336 8.19494 42.5143 8.15094C42.6023 8.09961 42.6463 8.01528 42.6463 7.89794V3.49794C42.6463 3.37328 42.6243 3.27794 42.5803 3.21194C42.5363 3.13861 42.4446 3.10194 42.3053 3.10194C42.2026 3.10194 42.0963 3.10928 41.9863 3.12394C41.8836 3.13128 41.7809 3.14228 41.6783 3.15694C41.6196 3.15694 41.5903 3.12394 41.5903 3.05794C41.5903 2.98461 41.6196 2.93694 41.6783 2.91494C41.7663 2.88561 41.8579 2.86728 41.9533 2.85994C42.0559 2.84528 42.1513 2.83061 42.2393 2.81594C42.4446 2.77928 42.6499 2.73894 42.8553 2.69494C43.0606 2.65094 43.2623 2.60328 43.4603 2.55194C43.4823 2.54461 43.5116 2.54094 43.5483 2.54094C43.6289 2.54094 43.6693 2.58494 43.6693 2.67294C43.6693 3.53828 43.6656 4.40728 43.6583 5.27994C43.6583 6.15261 43.6583 7.02528 43.6583 7.89794C43.6583 8.01528 43.7096 8.09961 43.8123 8.15094C43.9223 8.19494 44.0249 8.21694 44.1203 8.21694C44.1936 8.21694 44.2669 8.21328 44.3403 8.20594C44.4209 8.19861 44.4979 8.19494 44.5713 8.19494C44.6006 8.19494 44.6189 8.21328 44.6263 8.24994C44.6336 8.28661 44.6373 8.31228 44.6373 8.32694ZM43.7463 0.714943C43.7463 0.898276 43.6803 1.05594 43.5483 1.18794C43.4163 1.31261 43.2586 1.37494 43.0753 1.37494C42.8919 1.37494 42.7343 1.31261 42.6023 1.18794C42.4703 1.05594 42.4043 0.898276 42.4043 0.714943C42.4043 0.53161 42.4703 0.37761 42.6023 0.252943C42.7343 0.120943 42.8919 0.0549431 43.0753 0.0549431C43.2586 0.0549431 43.4163 0.120943 43.5483 0.252943C43.6803 0.37761 43.7463 0.53161 43.7463 0.714943ZM49.4855 4.45494C49.4855 4.20561 49.4342 3.97094 49.3315 3.75094C49.2289 3.53094 49.0822 3.35128 48.8915 3.21194C48.7009 3.07261 48.4699 3.00294 48.1985 3.00294C47.8465 3.00294 47.5569 3.08728 47.3295 3.25594C47.1095 3.42461 46.9335 3.64461 46.8015 3.91594C46.6769 4.17994 46.5889 4.46594 46.5375 4.77394C46.4935 5.08194 46.4715 5.37528 46.4715 5.65394C46.4715 5.90328 46.4935 6.17094 46.5375 6.45694C46.5815 6.74294 46.6585 7.01061 46.7685 7.25994C46.8859 7.50928 47.0472 7.71461 47.2525 7.87594C47.4579 8.02994 47.7182 8.10694 48.0335 8.10694C48.2975 8.10694 48.5395 8.02628 48.7595 7.86494C48.9795 7.69628 49.1555 7.48728 49.2875 7.23794C49.4195 6.98861 49.4855 6.74294 49.4855 6.50094V4.45494ZM51.5315 8.05194C51.5315 8.08861 51.5132 8.12528 51.4765 8.16194C51.4399 8.19861 51.4069 8.22794 51.3775 8.24994C51.2822 8.32328 51.1429 8.38561 50.9595 8.43694C50.7835 8.48828 50.6332 8.51394 50.5085 8.51394C50.3179 8.51394 50.1602 8.45894 50.0355 8.34894C49.9109 8.23894 49.8082 8.10328 49.7275 7.94194C49.6542 7.78061 49.5882 7.62294 49.5295 7.46894C49.3682 7.72561 49.1482 7.95661 48.8695 8.16194C48.5909 8.35994 48.2939 8.45894 47.9785 8.45894C47.7659 8.45894 47.5459 8.44428 47.3185 8.41494C47.0985 8.37828 46.8932 8.30128 46.7025 8.18394C46.2845 7.91994 45.9655 7.56428 45.7455 7.11694C45.5329 6.66228 45.4265 6.19661 45.4265 5.71994C45.4265 5.14794 45.5292 4.63461 45.7345 4.17994C45.9399 3.71794 46.2442 3.35494 46.6475 3.09094C47.0582 2.81961 47.5642 2.68394 48.1655 2.68394C48.2975 2.68394 48.4442 2.70961 48.6055 2.76094C48.7669 2.81228 48.9245 2.87828 49.0785 2.95894C49.2399 3.03228 49.3682 3.10928 49.4635 3.18994V1.05594C49.4635 0.821276 49.4012 0.689277 49.2765 0.659943C49.1592 0.623277 49.0015 0.604943 48.8035 0.604943C48.7375 0.604943 48.6715 0.60861 48.6055 0.615943C48.5395 0.615943 48.4735 0.615943 48.4075 0.615943C48.3782 0.615943 48.3489 0.604943 48.3195 0.582943C48.2975 0.560943 48.2865 0.535276 48.2865 0.505943C48.2865 0.45461 48.3049 0.42161 48.3415 0.406943C48.3562 0.392276 48.3709 0.384943 48.3855 0.384943C48.4075 0.384943 48.4295 0.381276 48.4515 0.373943C48.6055 0.34461 48.7595 0.32261 48.9135 0.307943C49.0749 0.285943 49.2362 0.260276 49.3975 0.230943C49.5589 0.201609 49.7165 0.172276 49.8705 0.142943C50.0245 0.106276 50.1785 0.0659428 50.3325 0.0219429C50.3399 0.0219429 50.3509 0.0182763 50.3655 0.0109431C50.3875 0.00360982 50.4022 -5.68032e-05 50.4095 -5.68032e-05C50.4462 -5.68032e-05 50.4682 0.0146099 50.4755 0.0439433C50.4829 0.0732762 50.4865 0.102609 50.4865 0.131943C50.4865 1.04128 50.4829 1.94694 50.4755 2.84894C50.4682 3.75094 50.4645 4.65661 50.4645 5.56594V7.20494C50.4645 7.32961 50.4792 7.45794 50.5085 7.58994C50.5379 7.72194 50.5929 7.83194 50.6735 7.91994C50.7615 8.00794 50.8825 8.05194 51.0365 8.05194C51.1099 8.05194 51.1795 8.03728 51.2455 8.00794C51.3115 7.97861 51.3812 7.96394 51.4545 7.96394C51.5059 7.96394 51.5315 7.99328 51.5315 8.05194ZM56.7834 5.58794C56.7834 5.27261 56.7578 4.95728 56.7064 4.64194C56.6624 4.31928 56.5744 4.02228 56.4424 3.75094C56.3178 3.47961 56.1344 3.26328 55.8924 3.10194C55.6504 2.93328 55.3351 2.84894 54.9464 2.84894C54.5798 2.84894 54.2791 2.93694 54.0444 3.11294C53.8171 3.28894 53.6374 3.51628 53.5054 3.79494C53.3808 4.07361 53.2928 4.37428 53.2414 4.69694C53.1974 5.01961 53.1754 5.32394 53.1754 5.60994C53.1754 5.92528 53.1974 6.24061 53.2414 6.55594C53.2928 6.87128 53.3844 7.15728 53.5164 7.41394C53.6484 7.66328 53.8354 7.86494 54.0774 8.01894C54.3268 8.17294 54.6458 8.24994 55.0344 8.24994C55.4158 8.24994 55.7201 8.16928 55.9474 8.00794C56.1821 7.84661 56.3581 7.63394 56.4754 7.36994C56.6001 7.10594 56.6808 6.81994 56.7174 6.51194C56.7614 6.19661 56.7834 5.88861 56.7834 5.58794ZM57.9164 5.62094C57.9164 6.17094 57.7844 6.66594 57.5204 7.10594C57.2638 7.54594 56.9118 7.89428 56.4644 8.15094C56.0244 8.40761 55.5294 8.53594 54.9794 8.53594C54.4441 8.53594 53.9601 8.40761 53.5274 8.15094C53.0948 7.88694 52.7501 7.53861 52.4934 7.10594C52.2368 6.66594 52.1084 6.17828 52.1084 5.64294C52.1084 5.09294 52.2331 4.58694 52.4824 4.12494C52.7318 3.65561 53.0728 3.27794 53.5054 2.99194C53.9454 2.70594 54.4514 2.56294 55.0234 2.56294C55.6394 2.56294 56.1638 2.69494 56.5964 2.95894C57.0291 3.21561 57.3554 3.57494 57.5754 4.03694C57.8028 4.49161 57.9164 5.01961 57.9164 5.62094ZM62.9777 6.91894C62.9777 7.24894 62.9044 7.52028 62.7577 7.73294C62.611 7.93828 62.4204 8.09594 62.1857 8.20594C61.951 8.31594 61.6944 8.39294 61.4157 8.43694C61.137 8.48094 60.8657 8.50294 60.6017 8.50294C60.3597 8.50294 60.1177 8.47728 59.8757 8.42594C59.641 8.37461 59.4027 8.33794 59.1607 8.31594C59.1094 8.11794 59.058 7.91994 59.0067 7.72194C58.9627 7.52394 58.9114 7.32961 58.8527 7.13894C58.8454 7.11694 58.827 7.06561 58.7977 6.98494C58.7757 6.90428 58.7647 6.86028 58.7647 6.85294C58.7647 6.79428 58.783 6.75394 58.8197 6.73194C58.8564 6.70261 58.9004 6.68794 58.9517 6.68794C59.003 6.68794 59.0397 6.70628 59.0617 6.74294C59.1057 6.79428 59.1424 6.86394 59.1717 6.95194C59.2084 7.03994 59.2414 7.11694 59.2707 7.18294C59.3294 7.30028 59.3807 7.39194 59.4247 7.45794C59.4687 7.51661 59.5384 7.59361 59.6337 7.68894C59.9197 7.98961 60.2754 8.13994 60.7007 8.13994C60.9354 8.13994 61.148 8.11428 61.3387 8.06294C61.5367 8.01161 61.6944 7.91628 61.8117 7.77694C61.929 7.63028 61.9877 7.42128 61.9877 7.14994C61.9877 6.91528 61.9144 6.72094 61.7677 6.56694C61.621 6.40561 61.4304 6.26261 61.1957 6.13794C60.9684 6.01328 60.7264 5.89228 60.4697 5.77494C60.213 5.65761 59.9674 5.52928 59.7327 5.38994C59.5054 5.24328 59.3184 5.06728 59.1717 4.86194C59.025 4.65661 58.9517 4.40728 58.9517 4.11394C58.9517 3.75461 59.0434 3.46128 59.2267 3.23394C59.4174 3.00661 59.6594 2.83794 59.9527 2.72794C60.246 2.61061 60.5504 2.55194 60.8657 2.55194C61.071 2.55194 61.2544 2.57761 61.4157 2.62894C61.5844 2.68028 61.7604 2.73894 61.9437 2.80494C62.0024 2.82694 62.061 2.84161 62.1197 2.84894C62.1784 2.85628 62.237 2.85994 62.2957 2.85994C62.3324 2.85994 62.3654 2.85994 62.3947 2.85994C62.424 2.85994 62.4534 2.85628 62.4827 2.84894C62.5047 2.98094 62.523 3.11661 62.5377 3.25594C62.5597 3.38794 62.578 3.52361 62.5927 3.66294C62.6 3.71428 62.6074 3.77661 62.6147 3.84994C62.6294 3.91594 62.6367 3.97828 62.6367 4.03694C62.6367 4.08828 62.6257 4.14328 62.6037 4.20194C62.5817 4.25328 62.5377 4.27894 62.4717 4.27894C62.4204 4.27894 62.3764 4.27528 62.3397 4.26794C62.3104 4.25328 62.2847 4.22028 62.2627 4.16894C62.226 4.09561 62.193 4.01861 62.1637 3.93794C62.1417 3.84994 62.116 3.76928 62.0867 3.69594C61.9914 3.43928 61.8264 3.23394 61.5917 3.07994C61.357 2.91861 61.104 2.83794 60.8327 2.83794C60.488 2.83794 60.2277 2.94061 60.0517 3.14594C59.8757 3.34394 59.7877 3.61161 59.7877 3.94894C59.7877 4.06628 59.817 4.17994 59.8757 4.28994C59.9417 4.39994 60.015 4.49528 60.0957 4.57594C60.2497 4.72261 60.4294 4.83628 60.6347 4.91694C60.8474 4.99761 61.049 5.07828 61.2397 5.15894C61.489 5.26894 61.7457 5.40094 62.0097 5.55494C62.281 5.70894 62.5084 5.89594 62.6917 6.11594C62.8824 6.33594 62.9777 6.60361 62.9777 6.91894Z" fill="#1C2434"/>
</svg>
