<svg width="23" height="9" viewBox="0 0 23 9" fill="none" xmlns="http://www.w3.org/2000/svg">
<path d="M3.23438 2.375V3.15625H1.86265e-08V2.375H3.23438ZM0.96875 8.375V1.54688C0.96875 1.20312 1.04948 0.916666 1.21094 0.687499C1.3724 0.458333 1.58203 0.286458 1.83984 0.171874C2.09766 0.0572911 2.36979 -5.36442e-07 2.65625 -5.36442e-07C2.88281 -5.36442e-07 3.06771 0.0182287 3.21094 0.0546873C3.35417 0.0911455 3.46094 0.125 3.53125 0.15625L3.26563 0.953125C3.21875 0.9375 3.15365 0.917968 3.07031 0.894531C2.98958 0.871093 2.88281 0.859374 2.75 0.859374C2.44531 0.859374 2.22526 0.936198 2.08984 1.08984C1.95703 1.24349 1.89063 1.46875 1.89063 1.76562V8.375H0.96875ZM4.52637 8.375V2.375H5.44824V8.375H4.52637ZM4.99512 1.375C4.81543 1.375 4.66048 1.3138 4.53027 1.19141C4.40267 1.06901 4.33887 0.921875 4.33887 0.75C4.33887 0.578125 4.40267 0.43099 4.53027 0.308593C4.66048 0.186198 4.81543 0.125 4.99512 0.125C5.1748 0.125 5.32845 0.186198 5.45605 0.308593C5.58626 0.43099 5.65137 0.578125 5.65137 0.75C5.65137 0.921875 5.58626 1.06901 5.45605 1.19141C5.32845 1.3138 5.1748 1.375 4.99512 1.375ZM8.05859 0.375V8.375H7.13672V0.375H8.05859ZM12.3564 2.375V3.15625H9.24707V2.375H12.3564ZM10.1533 0.9375H11.0752V6.65625C11.0752 6.91667 11.113 7.11198 11.1885 7.24219C11.2666 7.36979 11.3656 7.45573 11.4854 7.5C11.6077 7.54167 11.7367 7.5625 11.8721 7.5625C11.9736 7.5625 12.057 7.55729 12.1221 7.54687C12.1872 7.53385 12.2393 7.52344 12.2783 7.51562L12.4658 8.34375C12.4033 8.36719 12.3161 8.39063 12.2041 8.41406C12.0921 8.4401 11.9502 8.45313 11.7783 8.45313C11.5179 8.45313 11.2627 8.39714 11.0127 8.28516C10.7653 8.17318 10.5596 8.0026 10.3955 7.77344C10.234 7.54427 10.1533 7.25521 10.1533 6.90625V0.9375ZM13.7432 8.375V2.375H14.6338V3.28125H14.6963C14.8057 2.98438 15.0036 2.74349 15.29 2.55859C15.5765 2.3737 15.8994 2.28125 16.2588 2.28125C16.3265 2.28125 16.4111 2.28255 16.5127 2.28516C16.6143 2.28776 16.6911 2.29167 16.7432 2.29688V3.23437C16.7119 3.22656 16.6403 3.21484 16.5283 3.19922C16.4189 3.18099 16.3031 3.17187 16.1807 3.17187C15.889 3.17187 15.6286 3.23307 15.3994 3.35547C15.1729 3.47526 14.9932 3.64193 14.8604 3.85547C14.7301 4.06641 14.665 4.30729 14.665 4.57812V8.375H13.7432ZM20.0908 8.5C19.5492 8.5 19.0739 8.37109 18.665 8.11328C18.2588 7.85547 17.9411 7.49479 17.7119 7.03125C17.4854 6.56771 17.3721 6.02604 17.3721 5.40625C17.3721 4.78125 17.4854 4.23568 17.7119 3.76953C17.9411 3.30339 18.2588 2.94141 18.665 2.68359C19.0739 2.42578 19.5492 2.29688 20.0908 2.29688C20.6325 2.29688 21.1064 2.42578 21.5127 2.68359C21.9215 2.94141 22.2393 3.30339 22.4658 3.76953C22.695 4.23568 22.8096 4.78125 22.8096 5.40625C22.8096 6.02604 22.695 6.56771 22.4658 7.03125C22.2393 7.49479 21.9215 7.85547 21.5127 8.11328C21.1064 8.37109 20.6325 8.5 20.0908 8.5ZM20.0908 7.67188C20.5023 7.67188 20.8408 7.56641 21.1064 7.35547C21.3721 7.14453 21.5687 6.86719 21.6963 6.52344C21.8239 6.17969 21.8877 5.80729 21.8877 5.40625C21.8877 5.00521 21.8239 4.63151 21.6963 4.28516C21.5687 3.9388 21.3721 3.65885 21.1064 3.44531C20.8408 3.23177 20.5023 3.125 20.0908 3.125C19.6794 3.125 19.3408 3.23177 19.0752 3.44531C18.8096 3.65885 18.613 3.9388 18.4854 4.28516C18.3577 4.63151 18.2939 5.00521 18.2939 5.40625C18.2939 5.80729 18.3577 6.17969 18.4854 6.52344C18.613 6.86719 18.8096 7.14453 19.0752 7.35547C19.3408 7.56641 19.6794 7.67188 20.0908 7.67188Z" fill="#8A7268"/>
</svg>
