<svg width="105" height="14" viewBox="0 0 105 14" fill="none" xmlns="http://www.w3.org/2000/svg">
<path d="M6.73403 3.58401C6.73403 2.83734 6.50069 2.29601 6.03402 1.96001C5.57669 1.61468 5.00269 1.44201 4.31202 1.44201C4.12536 1.44201 3.93402 1.44668 3.73802 1.45601C3.54202 1.45601 3.34602 1.45601 3.15002 1.45601C3.05669 1.45601 2.96336 1.48401 2.87002 1.54001C2.77669 1.59601 2.73002 1.67534 2.73002 1.77801V5.75401C2.93536 5.90334 3.18736 5.99201 3.48602 6.02001C3.78469 6.04801 4.05069 6.06201 4.28402 6.06201C5.08669 6.06201 5.69336 5.84734 6.10402 5.41801C6.52402 4.98868 6.73403 4.37734 6.73403 3.58401ZM8.27403 3.54201C8.27403 4.14868 8.15736 4.64334 7.92402 5.02601C7.70002 5.40868 7.39669 5.70734 7.01402 5.92201C6.63136 6.13668 6.19736 6.28601 5.71202 6.37001C5.23602 6.44468 4.74602 6.48201 4.24202 6.48201C3.99002 6.48201 3.73802 6.46801 3.48602 6.44001C3.23402 6.41201 2.98669 6.37934 2.74402 6.34201V10.528C2.74402 10.668 2.80469 10.7613 2.92602 10.808C3.04736 10.8547 3.18269 10.878 3.33202 10.878C3.48136 10.878 3.60269 10.878 3.69602 10.878C3.75202 10.878 3.80802 10.878 3.86402 10.878C3.92936 10.8687 3.99002 10.864 4.04602 10.864C4.13002 10.864 4.17202 10.9013 4.17202 10.976C4.17202 11.0973 4.16269 11.1813 4.14402 11.228C4.12536 11.2653 4.05069 11.284 3.92002 11.284C3.60269 11.284 3.29002 11.2747 2.98202 11.256C2.67402 11.2373 2.36602 11.228 2.05802 11.228C1.74069 11.228 1.41869 11.242 1.09202 11.27C0.774691 11.2887 0.457358 11.298 0.140024 11.298C0.0466911 11.298 2.44193e-05 11.2373 2.44193e-05 11.116C2.44193e-05 11.06 0.00935775 11.0087 0.0280244 10.962C0.0466911 10.9153 0.0933578 10.892 0.168024 10.892C0.280024 10.892 0.392024 10.8967 0.504024 10.906C0.616024 10.906 0.728024 10.906 0.840024 10.906C0.952024 10.906 1.05002 10.878 1.13402 10.822C1.22736 10.766 1.27869 10.6773 1.28802 10.556C1.30669 10.388 1.31136 10.22 1.30202 10.052C1.30202 9.87468 1.30202 9.70201 1.30202 9.53401C1.30202 9.19801 1.30202 8.86201 1.30202 8.52601C1.30202 8.18068 1.30202 7.84001 1.30202 7.50401V5.05401C1.30202 4.50334 1.29736 3.95734 1.28802 3.41601C1.28802 2.86534 1.28802 2.31934 1.28802 1.77801C1.28802 1.61001 1.20402 1.51201 1.03602 1.48401C0.877358 1.44668 0.737358 1.42801 0.616024 1.42801C0.532024 1.42801 0.448024 1.43268 0.364024 1.44201C0.280024 1.44201 0.200691 1.44201 0.126024 1.44201C0.0606911 1.44201 0.0233578 1.41401 0.0140244 1.35801C0.0140244 1.29268 0.0140244 1.24134 0.0140244 1.20401C0.0140244 1.16668 0.0233578 1.13401 0.0420244 1.10601C0.0606911 1.06868 0.0886911 1.05001 0.126024 1.05001C0.434024 1.05001 0.742024 1.05934 1.05002 1.07801C1.35802 1.09668 1.67069 1.10601 1.98802 1.10601C2.47336 1.10601 2.95869 1.09668 3.44402 1.07801C3.92936 1.05934 4.41469 1.05001 4.90002 1.05001C5.29202 1.05001 5.68402 1.09201 6.07602 1.17601C6.47736 1.26001 6.84136 1.40001 7.16802 1.59601C7.50402 1.79201 7.77002 2.04868 7.96602 2.36601C8.17136 2.68334 8.27403 3.07534 8.27403 3.54201ZM14.4764 5.08201C14.4764 5.17534 14.439 5.26401 14.3644 5.34801C14.299 5.42268 14.215 5.46001 14.1124 5.46001C13.9724 5.46001 13.8697 5.41334 13.8044 5.32001C13.7484 5.22668 13.697 5.11934 13.6504 4.99801C13.613 4.87668 13.5524 4.76934 13.4684 4.67601C13.3844 4.58268 13.2444 4.53601 13.0484 4.53601C13.011 4.53601 12.9737 4.53601 12.9364 4.53601C12.9084 4.53601 12.8757 4.54068 12.8384 4.55001C12.6797 4.57801 12.507 4.67601 12.3204 4.84401C12.1337 5.01201 11.9517 5.21268 11.7744 5.44601C11.6064 5.67001 11.4664 5.89401 11.3544 6.11801C11.2424 6.34201 11.1817 6.52868 11.1724 6.67801C11.163 6.82734 11.1584 6.97668 11.1584 7.12601C11.1584 7.26601 11.1584 7.40601 11.1584 7.54601C11.1584 8.05001 11.1584 8.55401 11.1584 9.05801C11.1677 9.56201 11.1724 10.0613 11.1724 10.556C11.1724 10.696 11.2284 10.7987 11.3404 10.864C11.4617 10.92 11.583 10.948 11.7044 10.948C11.7977 10.948 11.891 10.9433 11.9844 10.934C12.0777 10.9247 12.171 10.92 12.2644 10.92C12.311 10.92 12.3437 10.9433 12.3624 10.99C12.381 11.0273 12.3904 11.0647 12.3904 11.102C12.3904 11.2513 12.3157 11.326 12.1664 11.326C11.8864 11.326 11.6064 11.3213 11.3264 11.312C11.0464 11.2933 10.7664 11.284 10.4864 11.284C10.197 11.284 9.90302 11.2933 9.60435 11.312C9.31502 11.3307 9.02102 11.34 8.72235 11.34C8.68502 11.34 8.65702 11.312 8.63835 11.256C8.62902 11.2 8.62435 11.1533 8.62435 11.116C8.62435 11.0227 8.66169 10.9713 8.73635 10.962C8.83902 10.9433 8.94635 10.9387 9.05835 10.948C9.17035 10.9573 9.27302 10.962 9.36635 10.962C9.50635 10.962 9.61835 10.934 9.70235 10.878C9.79569 10.8127 9.84702 10.7053 9.85635 10.556C9.87502 10.2573 9.88435 9.95401 9.88435 9.64601C9.89369 9.33801 9.89835 9.03001 9.89835 8.72201V7.36401C9.88902 6.96268 9.88435 6.56601 9.88435 6.17401C9.89369 5.77268 9.87969 5.37601 9.84235 4.98401C9.83302 4.79734 9.78169 4.66668 9.68835 4.59201C9.59502 4.50801 9.45502 4.46601 9.26835 4.46601C9.19369 4.46601 9.11435 4.47534 9.03035 4.49401C8.95569 4.50334 8.87635 4.50801 8.79235 4.50801C8.71769 4.50801 8.68035 4.45201 8.68035 4.34001C8.68035 4.27468 8.71302 4.22801 8.77835 4.20001C8.87169 4.17201 8.96969 4.15334 9.07235 4.14401C9.17502 4.12534 9.27302 4.11134 9.36635 4.10201C9.61835 4.05534 9.87035 4.00868 10.1224 3.96201C10.3744 3.91534 10.6264 3.85934 10.8784 3.79401C10.9624 3.82201 11.023 3.87334 11.0604 3.94801C11.079 3.98534 11.093 4.08801 11.1024 4.25601C11.1117 4.42401 11.1164 4.62001 11.1164 4.84401C11.1164 5.05868 11.1164 5.26401 11.1164 5.46001C11.1164 5.64668 11.1164 5.77734 11.1164 5.85201C11.3217 5.52534 11.555 5.19868 11.8164 4.87201C12.0777 4.54534 12.3764 4.27468 12.7124 4.06001C13.0484 3.84534 13.4264 3.73801 13.8464 3.73801C14.0704 3.73801 14.215 3.80801 14.2804 3.94801C14.3457 4.08801 14.3877 4.25134 14.4064 4.43801C14.425 4.54068 14.439 4.64801 14.4484 4.76001C14.467 4.87201 14.4764 4.97934 14.4764 5.08201ZM20.3191 6.39801C20.3097 6.01534 20.2771 5.65134 20.2211 5.30601C20.1651 4.95134 20.0297 4.66201 19.8151 4.43801C19.6004 4.20468 19.2504 4.08801 18.7651 4.08801C18.3264 4.08801 17.9671 4.20934 17.6871 4.45201C17.4164 4.68534 17.2064 4.98401 17.0571 5.34801C16.9077 5.70268 16.7957 6.06668 16.7211 6.44001C16.9544 6.44934 17.1831 6.45868 17.4071 6.46801C17.6311 6.46801 17.8551 6.46801 18.0791 6.46801C18.4524 6.46801 18.8257 6.46334 19.1991 6.45401C19.5724 6.43534 19.9457 6.41668 20.3191 6.39801ZM21.9291 9.60401C21.9291 9.65068 21.9197 9.67868 21.9011 9.68801C21.8731 9.78134 21.8031 9.89334 21.6911 10.024C21.5884 10.1547 21.4717 10.2807 21.3411 10.402C21.2104 10.514 21.1031 10.598 21.0191 10.654C20.7111 10.8687 20.3611 11.0413 19.9691 11.172C19.5864 11.3027 19.2037 11.368 18.8211 11.368C18.5037 11.368 18.1491 11.3167 17.7571 11.214C17.3744 11.1113 17.0477 10.9713 16.7771 10.794C16.2544 10.4487 15.8717 9.99601 15.6291 9.43601C15.3864 8.87601 15.2651 8.29268 15.2651 7.68601C15.2651 6.99534 15.4004 6.35601 15.6711 5.76801C15.9417 5.18001 16.3757 4.70401 16.9731 4.34001C17.2437 4.18134 17.5471 4.05068 17.8831 3.94801C18.2191 3.83601 18.5411 3.78001 18.8491 3.78001C19.3997 3.78001 19.8851 3.89201 20.3051 4.11601C20.7251 4.34001 21.0517 4.65734 21.2851 5.06801C21.5277 5.46934 21.6491 5.95001 21.6491 6.51001C21.6491 6.66868 21.6117 6.77134 21.5371 6.81801C21.4717 6.86468 21.3691 6.88801 21.2291 6.88801C21.0424 6.88801 20.8557 6.88334 20.6691 6.87401C20.4824 6.86468 20.2957 6.85534 20.1091 6.84601C19.8477 6.82734 19.5864 6.81801 19.3251 6.81801C19.0731 6.81801 18.8164 6.81801 18.5551 6.81801C18.2377 6.81801 17.9204 6.81801 17.6031 6.81801C17.2857 6.81801 16.9684 6.82734 16.6511 6.84601C16.6417 6.99534 16.6324 7.14001 16.6231 7.28001C16.6137 7.42001 16.6091 7.56468 16.6091 7.71401C16.6091 8.05934 16.6511 8.41868 16.7351 8.79201C16.8191 9.15601 16.9544 9.49668 17.1411 9.81401C17.3277 10.122 17.5657 10.374 17.8551 10.57C18.1444 10.7567 18.4944 10.85 18.9051 10.85C19.3251 10.85 19.7264 10.7847 20.1091 10.654C20.4917 10.5233 20.8417 10.3133 21.1591 10.024C21.2431 9.94001 21.3177 9.85134 21.3831 9.75801C21.4577 9.65534 21.5371 9.56668 21.6211 9.49201C21.6677 9.44534 21.7191 9.42201 21.7751 9.42201C21.8217 9.42201 21.8591 9.44068 21.8871 9.47801C21.9151 9.51534 21.9291 9.55734 21.9291 9.60401ZM29.53 9.60401C29.53 9.64134 29.5206 9.67401 29.502 9.70201C29.2966 10.01 29.026 10.2853 28.69 10.528C28.354 10.7707 27.99 10.9667 27.598 11.116C27.2153 11.256 26.842 11.326 26.478 11.326C26.4126 11.326 26.352 11.3213 26.296 11.312C26.24 11.312 26.184 11.312 26.128 11.312C26.0346 11.4613 25.9366 11.6013 25.834 11.732C25.7406 11.8627 25.6473 11.998 25.554 12.138C25.7033 12.1193 25.848 12.1053 25.988 12.096C26.1373 12.0867 26.2866 12.082 26.436 12.082C26.6133 12.082 26.8046 12.096 27.01 12.124C27.2246 12.1613 27.4066 12.2313 27.556 12.334C27.7146 12.446 27.794 12.614 27.794 12.838C27.794 13.0807 27.724 13.272 27.584 13.412C27.4533 13.552 27.2853 13.6547 27.08 13.72C26.8746 13.7947 26.66 13.8413 26.436 13.86C26.212 13.8787 26.0113 13.888 25.834 13.888C25.6566 13.888 25.4606 13.8553 25.246 13.79C25.0406 13.734 24.854 13.664 24.686 13.58C24.63 13.552 24.532 13.496 24.392 13.412C24.2613 13.328 24.196 13.2533 24.196 13.188C24.196 13.1133 24.2286 13.076 24.294 13.076C24.322 13.076 24.3873 13.0947 24.49 13.132C24.5926 13.1787 24.6626 13.2113 24.7 13.23C24.8773 13.286 25.0593 13.3233 25.246 13.342C25.442 13.37 25.6286 13.384 25.806 13.384C25.9086 13.384 26.0533 13.3653 26.24 13.328C26.4266 13.3 26.5946 13.2487 26.744 13.174C26.9026 13.0993 26.982 12.992 26.982 12.852C26.982 12.7307 26.926 12.6373 26.814 12.572C26.7113 12.5067 26.5946 12.4553 26.464 12.418C26.3333 12.39 26.2213 12.376 26.128 12.376C25.932 12.376 25.7406 12.3993 25.554 12.446C25.3766 12.4927 25.1946 12.5487 25.008 12.614C25.1106 12.3713 25.218 12.138 25.33 11.914C25.4513 11.69 25.5633 11.4613 25.666 11.228C25.0873 11.1067 24.5926 10.878 24.182 10.542C23.7713 10.206 23.4586 9.79068 23.244 9.29601C23.0293 8.80134 22.922 8.26468 22.922 7.68601C22.922 6.99534 23.062 6.34668 23.342 5.74001C23.622 5.13334 24.0606 4.64334 24.658 4.27001C24.9193 4.11134 25.2086 3.98534 25.526 3.89201C25.8433 3.79868 26.1513 3.75201 26.45 3.75201C26.8046 3.75201 27.1546 3.82668 27.5 3.97601C27.6586 4.04134 27.8266 4.11601 28.004 4.20001C28.1813 4.27468 28.354 4.31201 28.522 4.31201C28.5966 4.31201 28.6666 4.30268 28.732 4.28401C28.7973 4.26534 28.8626 4.25134 28.928 4.24201C28.9466 4.53134 28.9653 4.82534 28.984 5.12401C29.0026 5.42268 29.0166 5.72134 29.026 6.02001V6.06201C29.026 6.17401 29.012 6.25334 28.984 6.30001C28.9653 6.33734 28.8906 6.35601 28.76 6.35601C28.6946 6.35601 28.6526 6.32334 28.634 6.25801C28.6153 6.19268 28.5966 6.13201 28.578 6.07601C28.5126 5.80534 28.41 5.52534 28.27 5.23601C28.1393 4.93734 27.9666 4.69468 27.752 4.50801C27.612 4.37734 27.4393 4.27001 27.234 4.18601C27.0286 4.10201 26.8326 4.06001 26.646 4.06001C26.198 4.06001 25.82 4.17668 25.512 4.41001C25.204 4.63401 24.952 4.92801 24.756 5.29201C24.5693 5.64668 24.434 6.02934 24.35 6.44001C24.266 6.85068 24.224 7.23801 24.224 7.60201C24.224 7.96601 24.266 8.33468 24.35 8.70801C24.434 9.08134 24.5646 9.43134 24.742 9.75801C24.9286 10.0753 25.1713 10.332 25.47 10.528C25.7686 10.724 26.1326 10.822 26.562 10.822C27.122 10.822 27.5933 10.7287 27.976 10.542C28.368 10.346 28.746 10.0427 29.11 9.63201C29.138 9.61334 29.1566 9.58534 29.166 9.54801C29.1846 9.51068 29.2126 9.48268 29.25 9.46401C29.2686 9.44535 29.306 9.43601 29.362 9.43601C29.474 9.43601 29.53 9.49201 29.53 9.60401ZM36.3905 7.61601C36.3905 7.21468 36.3578 6.81334 36.2925 6.41201C36.2365 6.00134 36.1245 5.62334 35.9565 5.27801C35.7978 4.93268 35.5645 4.65734 35.2565 4.45201C34.9485 4.23734 34.5472 4.13001 34.0525 4.13001C33.5858 4.13001 33.2032 4.24201 32.9045 4.46601C32.6152 4.69001 32.3865 4.97934 32.2185 5.33401C32.0598 5.68868 31.9478 6.07134 31.8825 6.48201C31.8265 6.89268 31.7985 7.28001 31.7985 7.64401C31.7985 8.04534 31.8265 8.44668 31.8825 8.84801C31.9478 9.24934 32.0645 9.61335 32.2325 9.94001C32.4005 10.2573 32.6385 10.514 32.9465 10.71C33.2638 10.906 33.6698 11.004 34.1645 11.004C34.6498 11.004 35.0372 10.9013 35.3265 10.696C35.6252 10.4907 35.8492 10.22 35.9985 9.88401C36.1572 9.54801 36.2598 9.18401 36.3065 8.79201C36.3625 8.39068 36.3905 7.99868 36.3905 7.61601ZM37.8325 7.65801C37.8325 8.35801 37.6645 8.98801 37.3285 9.54801C37.0018 10.108 36.5538 10.5513 35.9845 10.878C35.4245 11.2047 34.7945 11.368 34.0945 11.368C33.4132 11.368 32.7972 11.2047 32.2465 10.878C31.6958 10.542 31.2572 10.0987 30.9305 9.54801C30.6038 8.98801 30.4405 8.36734 30.4405 7.68601C30.4405 6.98601 30.5992 6.34201 30.9165 5.75401C31.2338 5.15668 31.6678 4.67601 32.2185 4.31201C32.7785 3.94801 33.4225 3.76601 34.1505 3.76601C34.9345 3.76601 35.6018 3.93401 36.1525 4.27001C36.7032 4.59668 37.1185 5.05401 37.3985 5.64201C37.6878 6.22068 37.8325 6.89268 37.8325 7.65801ZM42.1741 10.262C42.1741 10.5233 42.0761 10.7427 41.8801 10.92C41.6841 11.088 41.4601 11.172 41.2081 11.172C40.9561 11.172 40.7321 11.088 40.5361 10.92C40.3401 10.7427 40.2421 10.5233 40.2421 10.262C40.2421 9.99135 40.3355 9.77201 40.5221 9.60401C40.7181 9.42668 40.9468 9.33801 41.2081 9.33801C41.4695 9.33801 41.6935 9.42668 41.8801 9.60401C42.0761 9.77201 42.1741 9.99135 42.1741 10.262ZM42.1741 5.25001C42.1741 5.51134 42.0761 5.73068 41.8801 5.90801C41.6935 6.08534 41.4695 6.17401 41.2081 6.17401C40.9468 6.17401 40.7181 6.08534 40.5221 5.90801C40.3355 5.73068 40.2421 5.51134 40.2421 5.25001C40.2421 4.98868 40.3401 4.77401 40.5361 4.60601C40.7321 4.42868 40.9561 4.34001 41.2081 4.34001C41.4601 4.34001 41.6841 4.42868 41.8801 4.60601C42.0761 4.77401 42.1741 4.98868 42.1741 5.25001ZM54.3072 3.54201C54.3072 2.72068 54.0926 2.16068 53.6632 1.86201C53.2432 1.55401 52.6506 1.40001 51.8852 1.40001H51.4232C51.3299 1.40001 51.2132 1.40934 51.0732 1.42801C50.9426 1.43734 50.8212 1.47001 50.7092 1.52601C50.6066 1.57268 50.5552 1.66134 50.5552 1.79201V5.68401C50.6579 5.72134 50.7746 5.74468 50.9052 5.75401C51.0359 5.76334 51.1572 5.76801 51.2692 5.76801C51.6426 5.76801 52.0066 5.73534 52.3612 5.67001C52.7252 5.60468 53.0519 5.49268 53.3412 5.33401C53.6399 5.17534 53.8732 4.95134 54.0412 4.66201C54.2186 4.37268 54.3072 3.99934 54.3072 3.54201ZM57.3732 11.088C57.3732 11.1533 57.3079 11.2047 57.1772 11.242C57.0466 11.2793 56.8926 11.3027 56.7152 11.312C56.5379 11.3307 56.3699 11.34 56.2112 11.34C56.0619 11.34 55.9592 11.34 55.9032 11.34C55.5299 11.34 55.2312 11.3027 55.0072 11.228C54.7832 11.144 54.5639 10.934 54.3492 10.598C53.8919 9.86068 53.4486 9.11401 53.0192 8.35801C52.5992 7.60201 52.1792 6.84134 51.7592 6.07601L50.5552 6.11801V10.556C50.5552 10.696 50.6112 10.7893 50.7232 10.836C50.8352 10.8827 50.9472 10.906 51.0592 10.906C51.1899 10.906 51.3159 10.9013 51.4372 10.892C51.5586 10.8827 51.6799 10.878 51.8012 10.878C51.8666 10.878 51.9039 10.906 51.9132 10.962C51.9319 11.018 51.9412 11.0693 51.9412 11.116C51.9412 11.1907 51.9179 11.242 51.8712 11.27C51.8339 11.2887 51.7826 11.298 51.7172 11.298C51.3066 11.298 50.8912 11.2933 50.4712 11.284C50.0512 11.2653 49.6359 11.256 49.2252 11.256C49.0012 11.256 48.7772 11.2653 48.5532 11.284C48.3386 11.2933 48.1192 11.298 47.8952 11.298C47.8392 11.298 47.8019 11.2747 47.7832 11.228C47.7739 11.172 47.7692 11.1253 47.7692 11.088C47.7692 10.9667 47.8206 10.906 47.9232 10.906C48.0072 10.906 48.0866 10.9107 48.1612 10.92C48.2452 10.92 48.3246 10.92 48.3992 10.92C48.5392 10.92 48.6886 10.906 48.8472 10.878C49.0152 10.8407 49.1086 10.7333 49.1272 10.556C49.1459 10.3227 49.1506 10.052 49.1412 9.74401C49.1412 9.42668 49.1412 9.15134 49.1412 8.91801C49.1412 8.61001 49.1412 8.30201 49.1412 7.99401C49.1412 7.67668 49.1412 7.36401 49.1412 7.05601C49.1412 6.41201 49.1412 5.76801 49.1412 5.12401C49.1506 4.48001 49.1552 3.83601 49.1552 3.19201C49.1552 2.95868 49.1552 2.72534 49.1552 2.49201C49.1552 2.24934 49.1459 2.01601 49.1272 1.79201C49.1086 1.60534 49.0106 1.50268 48.8332 1.48401C48.6652 1.45601 48.5112 1.44201 48.3712 1.44201C48.3152 1.44201 48.2592 1.44668 48.2032 1.45601C48.1472 1.45601 48.0912 1.45601 48.0352 1.45601C47.8952 1.45601 47.8252 1.37668 47.8252 1.21801C47.8252 1.11534 47.8719 1.06401 47.9652 1.06401C48.2826 1.06401 48.5952 1.07334 48.9032 1.09201C49.2206 1.11068 49.5379 1.12001 49.8552 1.12001C50.2939 1.12001 50.7279 1.10134 51.1572 1.06401C51.5866 1.02668 52.0159 1.00801 52.4452 1.00801C52.7999 1.00801 53.1732 1.04534 53.5652 1.12001C53.9666 1.19468 54.3399 1.31601 54.6852 1.48401C55.0306 1.65201 55.3106 1.88534 55.5252 2.18401C55.7492 2.47334 55.8612 2.84201 55.8612 3.29001C55.8612 3.85001 55.7026 4.33534 55.3852 4.74601C55.0772 5.14734 54.6759 5.46001 54.1812 5.68401C54.0039 5.76801 53.8219 5.83334 53.6352 5.88001C53.4486 5.91734 53.2619 5.95468 53.0752 5.99201C53.5046 6.72001 53.9526 7.43868 54.4192 8.14801C54.8952 8.85734 55.3759 9.55734 55.8612 10.248C56.0012 10.444 56.1459 10.6027 56.2952 10.724C56.4539 10.836 56.6499 10.9153 56.8832 10.962C56.9392 10.9713 57.0326 10.976 57.1632 10.976C57.3032 10.976 57.3732 11.0133 57.3732 11.088ZM64.2197 8.83401C64.2197 8.44201 64.131 8.11534 63.9537 7.85401C63.7763 7.59268 63.5477 7.36868 63.2677 7.18201C62.997 6.98601 62.7123 6.80401 62.4137 6.63601V10.92C62.9643 10.7333 63.403 10.4953 63.7297 10.206C64.0563 9.91668 64.2197 9.45934 64.2197 8.83401ZM61.9097 1.23201C61.3777 1.34401 60.953 1.53068 60.6357 1.79201C60.3277 2.05334 60.1737 2.47801 60.1737 3.06601C60.1737 3.40201 60.2623 3.69601 60.4397 3.94801C60.6263 4.20001 60.8503 4.41934 61.1117 4.60601C61.3823 4.79268 61.6483 4.96534 61.9097 5.12401V1.23201ZM65.6337 8.62401C65.6337 9.09068 65.5403 9.48734 65.3537 9.81401C65.1763 10.1313 64.929 10.3973 64.6117 10.612C64.3037 10.8173 63.9583 10.976 63.5757 11.088C63.193 11.2 62.8057 11.2793 62.4137 11.326V12.376H61.9097V11.354C61.6297 11.3447 61.359 11.326 61.0977 11.298C60.8363 11.2607 60.575 11.1953 60.3137 11.102C60.1177 11.0273 59.9263 10.9433 59.7397 10.85C59.5623 10.7473 59.3663 10.6773 59.1517 10.64C59.105 10.3133 59.0397 9.95868 58.9557 9.57601C58.8717 9.18401 58.8297 8.82934 58.8297 8.51201C58.8297 8.37201 58.9137 8.30201 59.0817 8.30201C59.203 8.30201 59.2823 8.33468 59.3197 8.40001C59.3663 8.45601 59.399 8.53534 59.4177 8.63801C59.4363 8.75934 59.455 8.87601 59.4737 8.98801C59.5017 9.10001 59.5343 9.21668 59.5717 9.33801C59.749 9.90734 60.0383 10.304 60.4397 10.528C60.8503 10.7427 61.3403 10.8733 61.9097 10.92V6.38401C61.555 6.20668 61.1957 6.03401 60.8317 5.86601C60.5423 5.72601 60.2483 5.54401 59.9497 5.32001C59.6603 5.09601 59.4177 4.83468 59.2217 4.53601C59.035 4.23734 58.9417 3.91068 58.9417 3.55601C58.9417 2.98668 59.0817 2.52001 59.3617 2.15601C59.651 1.78268 60.0197 1.49801 60.4677 1.30201C60.925 1.10601 61.4057 0.989344 61.9097 0.952012V1.13249e-05H62.4137V0.966011C62.675 0.975345 62.9177 1.01268 63.1417 1.07801C63.375 1.14334 63.6083 1.23201 63.8417 1.34401C63.9817 1.40934 64.145 1.45601 64.3317 1.48401C64.5183 1.51201 64.6863 1.53534 64.8357 1.55401C64.845 1.69401 64.859 1.87134 64.8777 2.08601C64.8963 2.29134 64.9197 2.50134 64.9477 2.71601C64.9757 2.92134 65.0037 3.08934 65.0317 3.22001C65.0597 3.28534 65.0737 3.36001 65.0737 3.44401C65.0737 3.58401 65.0363 3.67734 64.9617 3.72401C64.887 3.76134 64.789 3.78001 64.6677 3.78001C64.593 3.78001 64.537 3.77068 64.4997 3.75201C64.4717 3.73334 64.4483 3.69134 64.4297 3.62601C64.4017 3.49534 64.3783 3.36468 64.3597 3.23401C64.341 3.10334 64.313 2.97734 64.2757 2.85601C64.1543 2.42668 63.9163 2.07201 63.5617 1.79201C63.2163 1.51201 62.8337 1.32534 62.4137 1.23201V5.34801C62.787 5.51601 63.1603 5.69334 63.5337 5.88001C63.9163 6.05734 64.2663 6.26734 64.5837 6.51001C64.901 6.75268 65.153 7.04668 65.3397 7.39201C65.5357 7.72801 65.6337 8.13868 65.6337 8.62401ZM71.8944 4.00401C71.8944 3.77068 71.8897 3.53734 71.8804 3.30401C71.8804 3.07068 71.8804 2.83734 71.8804 2.60401L68.2824 7.79801H71.8804C71.8804 7.16334 71.8804 6.52868 71.8804 5.89401C71.8897 5.25934 71.8944 4.62934 71.8944 4.00401ZM75.0864 7.33601C75.0864 7.35468 75.0724 7.41068 75.0444 7.50401C75.0257 7.58801 75.0117 7.64868 75.0024 7.68601C74.9744 7.78868 74.9417 7.90068 74.9044 8.02201C74.8764 8.14334 74.8531 8.25534 74.8344 8.35801C74.8251 8.42334 74.7971 8.46068 74.7504 8.47001C74.7037 8.47001 74.6524 8.47001 74.5964 8.47001H73.2244C73.2244 8.73134 73.2244 8.99268 73.2244 9.25401C73.2337 9.51535 73.2384 9.78135 73.2384 10.052V10.556C73.2384 10.696 73.2897 10.7893 73.3924 10.836C73.5044 10.8827 73.6304 10.9107 73.7704 10.92C73.9104 10.92 74.0224 10.92 74.1064 10.92C74.1717 10.92 74.2371 10.9153 74.3024 10.906C74.3771 10.8967 74.4471 10.892 74.5124 10.892C74.5777 10.892 74.6151 10.92 74.6244 10.976C74.6337 11.0227 74.6384 11.0693 74.6384 11.116C74.6384 11.1533 74.6291 11.2 74.6104 11.256C74.6011 11.3027 74.5731 11.326 74.5264 11.326C74.4891 11.326 74.4471 11.326 74.4004 11.326C74.3631 11.326 74.3211 11.3213 74.2744 11.312C73.9944 11.2933 73.7097 11.2793 73.4204 11.27C73.1404 11.2607 72.8651 11.256 72.5944 11.256C72.3517 11.256 72.1044 11.2607 71.8524 11.27C71.6097 11.2793 71.3671 11.2887 71.1244 11.298C71.0404 11.3073 70.9564 11.312 70.8724 11.312C70.7884 11.3213 70.7091 11.326 70.6344 11.326C70.5597 11.326 70.5131 11.3073 70.4944 11.27C70.4757 11.2233 70.4664 11.1673 70.4664 11.102C70.4664 11.0553 70.4711 11.0133 70.4804 10.976C70.4991 10.9293 70.5411 10.906 70.6064 10.906C70.6531 10.906 70.6997 10.9107 70.7464 10.92C70.8024 10.92 70.8537 10.92 70.9004 10.92C71.0031 10.92 71.1291 10.92 71.2784 10.92C71.4371 10.92 71.5724 10.8967 71.6844 10.85C71.8057 10.794 71.8664 10.696 71.8664 10.556V8.47001H67.6944C67.6291 8.47001 67.5684 8.45601 67.5124 8.42801C67.4657 8.39068 67.4424 8.33934 67.4424 8.27401C67.4424 8.19934 67.4611 8.13401 67.4984 8.07801C67.5077 8.05934 67.5171 8.04068 67.5264 8.02201C67.5357 8.00334 67.5451 7.98934 67.5544 7.98001C68.3291 6.86001 69.1084 5.73534 69.8924 4.60601C70.6857 3.47668 71.4557 2.34268 72.2024 1.20401C72.2304 1.14801 72.2631 1.10134 72.3004 1.06401C72.3284 1.01734 72.3704 0.994011 72.4264 0.994011H73.1684C73.1871 0.994011 73.2151 0.998678 73.2524 1.00801C73.2897 1.00801 73.3037 1.02201 73.2944 1.05001L73.2384 1.20401V7.79801H74.0924C74.2137 7.79801 74.3351 7.77934 74.4564 7.74201C74.5871 7.69534 74.6897 7.62534 74.7644 7.53201C74.7831 7.51334 74.8017 7.48068 74.8204 7.43401C74.8484 7.37801 74.8671 7.34068 74.8764 7.32201C74.9044 7.27534 74.9371 7.25201 74.9744 7.25201C75.0491 7.25201 75.0864 7.28001 75.0864 7.33601ZM81.5242 4.60601C81.5242 4.50334 81.5242 4.40068 81.5242 4.29801C81.5242 4.18601 81.5195 4.07868 81.5102 3.97601C81.4915 3.59334 81.4075 3.21068 81.2582 2.82801C81.1089 2.43601 80.8895 2.10934 80.6002 1.84801C80.3109 1.57734 79.9469 1.44201 79.5082 1.44201C79.0135 1.44201 78.6215 1.57734 78.3322 1.84801C78.0429 2.11868 77.8329 2.45934 77.7022 2.87001C77.5809 3.28068 77.5202 3.69601 77.5202 4.11601C77.5202 4.43334 77.5389 4.76001 77.5762 5.09601C77.6135 5.42268 77.6929 5.73068 77.8142 6.02001C77.9355 6.30001 78.1175 6.52868 78.3602 6.70601C78.6029 6.87401 78.9249 6.95801 79.3262 6.95801C79.5315 6.95801 79.7649 6.92068 80.0262 6.84601C80.2969 6.77134 80.5489 6.66401 80.7822 6.52401C81.0155 6.38401 81.1882 6.22068 81.3002 6.03401C81.4309 5.81934 81.5009 5.59068 81.5102 5.34801C81.5195 5.09601 81.5242 4.84868 81.5242 4.60601ZM82.8822 5.26401C82.8822 5.58134 82.8402 5.92201 82.7562 6.28601C82.6815 6.64068 82.5882 6.96734 82.4762 7.26601C82.0002 8.54468 81.2955 9.56668 80.3622 10.332C79.4289 11.0973 78.3089 11.6573 77.0022 12.012C76.9929 12.012 76.9835 12.012 76.9742 12.012C76.9742 12.012 76.9695 12.012 76.9602 12.012C76.8762 12.012 76.8342 11.9747 76.8342 11.9C76.8342 11.8533 76.8529 11.8207 76.8902 11.802C76.9275 11.7833 76.9649 11.7693 77.0022 11.76C77.4315 11.5733 77.8562 11.3727 78.2762 11.158C78.6962 10.9433 79.0695 10.668 79.3962 10.332C79.6949 10.0333 79.9795 9.68334 80.2502 9.28201C80.5302 8.88068 80.7682 8.46068 80.9642 8.02201C81.1602 7.57401 81.2769 7.14001 81.3142 6.72001C80.9875 6.93468 80.6375 7.11201 80.2642 7.25201C79.8909 7.39201 79.5035 7.46201 79.1022 7.46201C78.4955 7.46201 77.9682 7.34068 77.5202 7.09801C77.0722 6.84601 76.7222 6.49601 76.4702 6.04801C76.2275 5.59068 76.1062 5.05868 76.1062 4.45201C76.1062 3.71468 76.2602 3.09401 76.5682 2.59001C76.8762 2.08601 77.3009 1.70334 77.8422 1.44201C78.3929 1.18068 79.0182 1.05001 79.7182 1.05001C80.2222 1.05001 80.6842 1.17601 81.1042 1.42801C81.5242 1.68001 81.8789 2.01134 82.1682 2.42201C82.4575 2.82334 82.6535 3.25734 82.7562 3.72401C82.8122 3.97601 82.8449 4.23268 82.8542 4.49401C82.8729 4.74601 82.8822 5.00268 82.8822 5.26401ZM87.108 10.598C87.108 10.8593 87.052 11.1533 86.94 11.48C86.828 11.816 86.6834 12.1333 86.506 12.432C86.338 12.7307 86.156 12.9733 85.96 13.16L85.708 13.076C85.8667 12.8147 86.002 12.4833 86.114 12.082C86.226 11.6807 86.282 11.326 86.282 11.018V10.962C86.114 11.102 85.9274 11.172 85.722 11.172C85.5634 11.172 85.4187 11.088 85.288 10.92C85.1574 10.7427 85.092 10.5793 85.092 10.43C85.092 10.122 85.1807 9.86068 85.358 9.64601C85.5354 9.43134 85.7827 9.32401 86.1 9.32401C86.4827 9.32401 86.744 9.45468 86.884 9.71601C87.0334 9.96801 87.108 10.262 87.108 10.598ZM94.6766 4.60601C94.6766 4.50334 94.6766 4.40068 94.6766 4.29801C94.6766 4.18601 94.6719 4.07868 94.6626 3.97601C94.6439 3.59334 94.5599 3.21068 94.4106 2.82801C94.2612 2.43601 94.0419 2.10934 93.7526 1.84801C93.4632 1.57734 93.0992 1.44201 92.6606 1.44201C92.1659 1.44201 91.7739 1.57734 91.4846 1.84801C91.1952 2.11868 90.9852 2.45934 90.8546 2.87001C90.7332 3.28068 90.6726 3.69601 90.6726 4.11601C90.6726 4.43334 90.6912 4.76001 90.7286 5.09601C90.7659 5.42268 90.8452 5.73068 90.9666 6.02001C91.0879 6.30001 91.2699 6.52868 91.5126 6.70601C91.7552 6.87401 92.0772 6.95801 92.4786 6.95801C92.6839 6.95801 92.9172 6.92068 93.1786 6.84601C93.4492 6.77134 93.7012 6.66401 93.9346 6.52401C94.1679 6.38401 94.3406 6.22068 94.4526 6.03401C94.5832 5.81934 94.6532 5.59068 94.6626 5.34801C94.6719 5.09601 94.6766 4.84868 94.6766 4.60601ZM96.0346 5.26401C96.0346 5.58134 95.9926 5.92201 95.9086 6.28601C95.8339 6.64068 95.7406 6.96734 95.6286 7.26601C95.1526 8.54468 94.4479 9.56668 93.5146 10.332C92.5812 11.0973 91.4612 11.6573 90.1546 12.012C90.1452 12.012 90.1359 12.012 90.1266 12.012C90.1266 12.012 90.1219 12.012 90.1126 12.012C90.0286 12.012 89.9866 11.9747 89.9866 11.9C89.9866 11.8533 90.0052 11.8207 90.0426 11.802C90.0799 11.7833 90.1172 11.7693 90.1546 11.76C90.5839 11.5733 91.0086 11.3727 91.4286 11.158C91.8486 10.9433 92.2219 10.668 92.5486 10.332C92.8472 10.0333 93.1319 9.68334 93.4026 9.28201C93.6826 8.88068 93.9206 8.46068 94.1166 8.02201C94.3126 7.57401 94.4292 7.14001 94.4666 6.72001C94.1399 6.93468 93.7899 7.11201 93.4166 7.25201C93.0432 7.39201 92.6559 7.46201 92.2546 7.46201C91.6479 7.46201 91.1206 7.34068 90.6726 7.09801C90.2246 6.84601 89.8746 6.49601 89.6226 6.04801C89.3799 5.59068 89.2586 5.05868 89.2586 4.45201C89.2586 3.71468 89.4126 3.09401 89.7206 2.59001C90.0286 2.08601 90.4532 1.70334 90.9946 1.44201C91.5452 1.18068 92.1706 1.05001 92.8706 1.05001C93.3746 1.05001 93.8366 1.17601 94.2566 1.42801C94.6766 1.68001 95.0312 2.01134 95.3206 2.42201C95.6099 2.82334 95.8059 3.25734 95.9086 3.72401C95.9646 3.97601 95.9972 4.23268 96.0066 4.49401C96.0252 4.74601 96.0346 5.00268 96.0346 5.26401ZM102.934 4.60601C102.934 4.50334 102.934 4.40068 102.934 4.29801C102.934 4.18601 102.93 4.07868 102.92 3.97601C102.902 3.59334 102.818 3.21068 102.668 2.82801C102.519 2.43601 102.3 2.10934 102.01 1.84801C101.721 1.57734 101.357 1.44201 100.918 1.44201C100.424 1.44201 100.032 1.57734 99.7424 1.84801C99.453 2.11868 99.243 2.45934 99.1124 2.87001C98.991 3.28068 98.9304 3.69601 98.9304 4.11601C98.9304 4.43334 98.949 4.76001 98.9864 5.09601C99.0237 5.42268 99.103 5.73068 99.2244 6.02001C99.3457 6.30001 99.5277 6.52868 99.7704 6.70601C100.013 6.87401 100.335 6.95801 100.736 6.95801C100.942 6.95801 101.175 6.92068 101.436 6.84601C101.707 6.77134 101.959 6.66401 102.192 6.52401C102.426 6.38401 102.598 6.22068 102.71 6.03401C102.841 5.81934 102.911 5.59068 102.92 5.34801C102.93 5.09601 102.934 4.84868 102.934 4.60601ZM104.292 5.26401C104.292 5.58134 104.25 5.92201 104.166 6.28601C104.092 6.64068 103.998 6.96734 103.886 7.26601C103.41 8.54468 102.706 9.56668 101.772 10.332C100.839 11.0973 99.719 11.6573 98.4124 12.012C98.403 12.012 98.3937 12.012 98.3844 12.012C98.3844 12.012 98.3797 12.012 98.3704 12.012C98.2864 12.012 98.2444 11.9747 98.2444 11.9C98.2444 11.8533 98.263 11.8207 98.3004 11.802C98.3377 11.7833 98.375 11.7693 98.4124 11.76C98.8417 11.5733 99.2664 11.3727 99.6864 11.158C100.106 10.9433 100.48 10.668 100.806 10.332C101.105 10.0333 101.39 9.68334 101.66 9.28201C101.94 8.88068 102.178 8.46068 102.374 8.02201C102.57 7.57401 102.687 7.14001 102.724 6.72001C102.398 6.93468 102.048 7.11201 101.674 7.25201C101.301 7.39201 100.914 7.46201 100.512 7.46201C99.9057 7.46201 99.3784 7.34068 98.9304 7.09801C98.4824 6.84601 98.1324 6.49601 97.8804 6.04801C97.6377 5.59068 97.5164 5.05868 97.5164 4.45201C97.5164 3.71468 97.6704 3.09401 97.9784 2.59001C98.2864 2.08601 98.711 1.70334 99.2524 1.44201C99.803 1.18068 100.428 1.05001 101.128 1.05001C101.632 1.05001 102.094 1.17601 102.514 1.42801C102.934 1.68001 103.289 2.01134 103.578 2.42201C103.868 2.82334 104.064 3.25734 104.166 3.72401C104.222 3.97601 104.255 4.23268 104.264 4.49401C104.283 4.74601 104.292 5.00268 104.292 5.26401Z" fill="black"/>
</svg>
