<svg width="213" height="39" viewBox="0 0 213 39" fill="none" xmlns="http://www.w3.org/2000/svg">
<path d="M7.47203 3.47205C7.47203 2.53338 7.22669 1.89338 6.73603 1.55205C6.25603 1.20005 5.57869 1.02405 4.70403 1.02405H4.17603C4.06936 1.02405 3.93603 1.03472 3.77603 1.05605C3.62669 1.06672 3.48803 1.10405 3.36003 1.16805C3.24269 1.22138 3.18403 1.32272 3.18403 1.47205V5.92005C3.30136 5.96272 3.43469 5.98938 3.58403 6.00005C3.73336 6.01072 3.87203 6.01605 4.00003 6.01605C4.42669 6.01605 4.84269 5.97872 5.24803 5.90405C5.66403 5.82938 6.03736 5.70138 6.36803 5.52005C6.70936 5.33872 6.97603 5.08272 7.16803 4.75205C7.37069 4.42138 7.47203 3.99472 7.47203 3.47205ZM10.976 12.0961C10.976 12.1707 10.9014 12.2294 10.752 12.2721C10.6027 12.3147 10.4267 12.3414 10.224 12.3521C10.0214 12.3734 9.82936 12.3841 9.64803 12.3841C9.47736 12.3841 9.36003 12.3841 9.29603 12.3841C8.86936 12.3841 8.52803 12.3414 8.27203 12.2561C8.01603 12.1601 7.76536 11.9201 7.52003 11.5361C6.99736 10.6934 6.49069 9.84005 6.00003 8.97605C5.52003 8.11205 5.04003 7.24272 4.56003 6.36805L3.18403 6.41605V11.4881C3.18403 11.6481 3.24803 11.7547 3.37603 11.8081C3.50403 11.8614 3.63203 11.8881 3.76003 11.8881C3.90936 11.8881 4.05336 11.8827 4.19203 11.8721C4.33069 11.8614 4.46936 11.8561 4.60803 11.8561C4.68269 11.8561 4.72536 11.8881 4.73603 11.9521C4.75736 12.0161 4.76803 12.0747 4.76803 12.1281C4.76803 12.2134 4.74136 12.2721 4.68803 12.3041C4.64536 12.3254 4.58669 12.3361 4.51203 12.3361C4.04269 12.3361 3.56803 12.3307 3.08803 12.3201C2.60803 12.2987 2.13336 12.2881 1.66403 12.2881C1.40803 12.2881 1.15203 12.2987 0.896028 12.3201C0.650695 12.3307 0.400028 12.3361 0.144028 12.3361C0.0800278 12.3361 0.0373612 12.3094 0.0160278 12.2561C0.00536117 12.1921 2.78354e-05 12.1387 2.78354e-05 12.0961C2.78354e-05 11.9574 0.0586945 11.8881 0.176028 11.8881C0.272028 11.8881 0.362695 11.8934 0.448028 11.9041C0.544028 11.9041 0.634695 11.9041 0.720028 11.9041C0.880028 11.9041 1.05069 11.8881 1.23203 11.8561C1.42403 11.8134 1.53069 11.6907 1.55203 11.4881C1.57336 11.2214 1.57869 10.9121 1.56803 10.5601C1.56803 10.1974 1.56803 9.88272 1.56803 9.61605C1.56803 9.26405 1.56803 8.91205 1.56803 8.56005C1.56803 8.19738 1.56803 7.84005 1.56803 7.48805C1.56803 6.75205 1.56803 6.01605 1.56803 5.28005C1.57869 4.54405 1.58403 3.80805 1.58403 3.07205C1.58403 2.80538 1.58403 2.53872 1.58403 2.27205C1.58403 1.99472 1.57336 1.72805 1.55203 1.47205C1.53069 1.25872 1.41869 1.14138 1.21603 1.12005C1.02403 1.08805 0.848028 1.07205 0.688028 1.07205C0.624028 1.07205 0.560028 1.07738 0.496028 1.08805C0.432028 1.08805 0.368028 1.08805 0.304028 1.08805C0.144028 1.08805 0.0640278 0.997383 0.0640278 0.816051C0.0640278 0.698717 0.117361 0.64005 0.224028 0.64005C0.586695 0.64005 0.944028 0.650717 1.29603 0.67205C1.65869 0.693384 2.02136 0.70405 2.38403 0.70405C2.88536 0.70405 3.38136 0.682717 3.87203 0.64005C4.36269 0.597383 4.85336 0.57605 5.34403 0.57605C5.74936 0.57605 6.17603 0.618717 6.62403 0.70405C7.0827 0.789384 7.50936 0.92805 7.90403 1.12005C8.29869 1.31205 8.61869 1.57872 8.86403 1.92005C9.12003 2.25072 9.24803 2.67205 9.24803 3.18405C9.24803 3.82405 9.0667 4.37872 8.70403 4.84805C8.35203 5.30672 7.89336 5.66405 7.32803 5.92005C7.12536 6.01605 6.91736 6.09072 6.70403 6.14405C6.49069 6.18672 6.27736 6.22938 6.06403 6.27205C6.55469 7.10405 7.06669 7.92538 7.60003 8.73605C8.14403 9.54672 8.69336 10.3467 9.24803 11.1361C9.40803 11.3601 9.57336 11.5414 9.74403 11.6801C9.92536 11.8081 10.1494 11.8987 10.416 11.9521C10.48 11.9627 10.5867 11.9681 10.736 11.9681C10.896 11.9681 10.976 12.0107 10.976 12.0961ZM16.7205 10.4801C16.6779 10.0001 16.6512 9.52005 16.6405 9.04005C16.6405 8.54938 16.6352 8.05872 16.6245 7.56805H16.4005C16.0699 7.56805 15.7019 7.62138 15.2965 7.72805C14.9019 7.82405 14.5232 7.97338 14.1605 8.17605C13.7979 8.37872 13.4992 8.63472 13.2645 8.94405C13.0405 9.24272 12.9285 9.58938 12.9285 9.98405C12.9285 10.4961 13.0725 10.8854 13.3605 11.1521C13.6485 11.4081 14.0379 11.5361 14.5285 11.5361C14.7632 11.5361 15.0192 11.4827 15.2965 11.3761C15.5739 11.2587 15.8405 11.1201 16.0965 10.9601C16.3525 10.8001 16.5605 10.6401 16.7205 10.4801ZM19.5205 11.5041C19.5205 11.5467 19.5152 11.5787 19.5045 11.6001C19.3979 11.8347 19.2165 12.0161 18.9605 12.1441C18.7152 12.2614 18.4699 12.3201 18.2245 12.3201C17.7765 12.3201 17.4512 12.1921 17.2485 11.9361C17.0565 11.6694 16.9019 11.3441 16.7845 10.9601C16.3792 11.3334 15.9312 11.6481 15.4405 11.9041C14.9499 12.1494 14.4219 12.2721 13.8565 12.2721C13.4619 12.2721 13.0885 12.1974 12.7365 12.0481C12.3952 11.8881 12.1179 11.6587 11.9045 11.3601C11.6912 11.0614 11.5845 10.6987 11.5845 10.2721C11.5845 9.82405 11.6965 9.44005 11.9205 9.12005C12.1552 8.78938 12.4485 8.51205 12.8005 8.28805C13.1632 8.05338 13.5472 7.86672 13.9525 7.72805C14.3685 7.57872 14.7579 7.46672 15.1205 7.39205C15.3659 7.33872 15.6165 7.29072 15.8725 7.24805C16.1285 7.20538 16.3792 7.16272 16.6245 7.12005C16.6245 6.82138 16.6085 6.47472 16.5765 6.08005C16.5552 5.68538 16.4752 5.36005 16.3365 5.10405C16.1979 4.85872 16.0112 4.64005 15.7765 4.44805C15.5419 4.25605 15.2805 4.16005 14.9925 4.16005C14.5019 4.16005 14.1179 4.28805 13.8405 4.54405C13.5632 4.80005 13.3659 5.16272 13.2485 5.63205C13.2379 5.68538 13.2272 5.74405 13.2165 5.80805C13.2165 5.86138 13.2112 5.91472 13.2005 5.96805C13.1899 6.03205 13.1472 6.09072 13.0725 6.14405C13.0085 6.18672 12.9392 6.20805 12.8645 6.20805C12.6619 6.20805 12.4752 6.16005 12.3045 6.06405C12.1445 5.96805 12.0645 5.80805 12.0645 5.58405C12.0645 5.45605 12.0859 5.34405 12.1285 5.24805C12.2672 4.91738 12.4912 4.64538 12.8005 4.43205C13.1099 4.20805 13.4512 4.03738 13.8245 3.92005C14.2085 3.80272 14.5659 3.74405 14.8965 3.74405C15.4725 3.74405 15.9952 3.85072 16.4645 4.06405C16.9339 4.27738 17.3072 4.59205 17.5845 5.00805C17.8725 5.41338 18.0165 5.92538 18.0165 6.54405C18.0165 7.23738 18.0112 7.93605 18.0005 8.64005C18.0005 9.34405 18.0219 10.0481 18.0645 10.7521C18.0752 10.9867 18.1232 11.1947 18.2085 11.3761C18.2939 11.5467 18.4699 11.6321 18.7365 11.6321C18.8752 11.6321 19.0192 11.6001 19.1685 11.5361C19.3285 11.4614 19.4299 11.4241 19.4725 11.4241C19.5045 11.4241 19.5205 11.4507 19.5205 11.5041ZM27.9677 10.4001C27.9677 10.4427 27.957 10.4801 27.9357 10.5121C27.701 10.8641 27.3917 11.1787 27.0077 11.4561C26.6237 11.7334 26.2077 11.9574 25.7597 12.1281C25.3223 12.2881 24.8957 12.3681 24.4797 12.3681C24.405 12.3681 24.3357 12.3627 24.2717 12.3521C24.2077 12.3521 24.1437 12.3521 24.0797 12.3521C23.973 12.5227 23.861 12.6827 23.7437 12.8321C23.637 12.9814 23.5303 13.1361 23.4237 13.2961C23.5943 13.2747 23.7597 13.2587 23.9197 13.2481C24.0903 13.2374 24.261 13.2321 24.4317 13.2321C24.6343 13.2321 24.853 13.2481 25.0877 13.2801C25.333 13.3227 25.541 13.4027 25.7117 13.5201C25.893 13.6481 25.9837 13.8401 25.9837 14.0961C25.9837 14.3734 25.9037 14.5921 25.7437 14.7521C25.5943 14.9121 25.4023 15.0294 25.1677 15.1041C24.933 15.1894 24.6877 15.2427 24.4317 15.2641C24.1757 15.2854 23.9463 15.2961 23.7437 15.2961C23.541 15.2961 23.317 15.2587 23.0717 15.1841C22.837 15.1201 22.6237 15.0401 22.4317 14.9441C22.3677 14.9121 22.2557 14.8481 22.0957 14.7521C21.9463 14.6561 21.8717 14.5707 21.8717 14.4961C21.8717 14.4107 21.909 14.3681 21.9837 14.3681C22.0157 14.3681 22.0903 14.3894 22.2077 14.4321C22.325 14.4854 22.405 14.5227 22.4477 14.5441C22.6503 14.6081 22.8583 14.6507 23.0717 14.6721C23.2957 14.7041 23.509 14.7201 23.7117 14.7201C23.829 14.7201 23.9943 14.6987 24.2077 14.6561C24.421 14.6241 24.613 14.5654 24.7837 14.4801C24.965 14.3947 25.0557 14.2721 25.0557 14.1121C25.0557 13.9734 24.9917 13.8667 24.8637 13.7921C24.7463 13.7174 24.613 13.6587 24.4637 13.6161C24.3143 13.5841 24.1863 13.5681 24.0797 13.5681C23.8557 13.5681 23.637 13.5947 23.4237 13.6481C23.221 13.7014 23.013 13.7654 22.7997 13.8401C22.917 13.5627 23.0397 13.2961 23.1677 13.0401C23.3063 12.7841 23.4343 12.5227 23.5517 12.2561C22.8903 12.1174 22.325 11.8561 21.8557 11.4721C21.3863 11.0881 21.029 10.6134 20.7837 10.0481C20.5383 9.48272 20.4157 8.86938 20.4157 8.20805C20.4157 7.41872 20.5757 6.67738 20.8957 5.98405C21.2157 5.29072 21.717 4.73072 22.3997 4.30405C22.6983 4.12272 23.029 3.97872 23.3917 3.87205C23.7543 3.76538 24.1063 3.71205 24.4477 3.71205C24.853 3.71205 25.253 3.79738 25.6477 3.96805C25.829 4.04272 26.021 4.12805 26.2237 4.22405C26.4263 4.30938 26.6237 4.35205 26.8157 4.35205C26.901 4.35205 26.981 4.34138 27.0557 4.32005C27.1303 4.29872 27.205 4.28272 27.2797 4.27205C27.301 4.60272 27.3223 4.93872 27.3437 5.28005C27.365 5.62138 27.381 5.96272 27.3917 6.30405V6.35205C27.3917 6.48005 27.3757 6.57072 27.3437 6.62405C27.3223 6.66672 27.237 6.68805 27.0877 6.68805C27.013 6.68805 26.965 6.65072 26.9437 6.57605C26.9223 6.50138 26.901 6.43205 26.8797 6.36805C26.805 6.05872 26.6877 5.73872 26.5277 5.40805C26.3783 5.06672 26.181 4.78938 25.9357 4.57605C25.7757 4.42672 25.5783 4.30405 25.3437 4.20805C25.109 4.11205 24.885 4.06405 24.6717 4.06405C24.1597 4.06405 23.7277 4.19738 23.3757 4.46405C23.0237 4.72005 22.7357 5.05605 22.5117 5.47205C22.2983 5.87738 22.1437 6.31472 22.0477 6.78405C21.9517 7.25338 21.9037 7.69605 21.9037 8.11205C21.9037 8.52805 21.9517 8.94938 22.0477 9.37605C22.1437 9.80272 22.293 10.2027 22.4957 10.5761C22.709 10.9387 22.9863 11.2321 23.3277 11.4561C23.669 11.6801 24.085 11.7921 24.5757 11.7921C25.2157 11.7921 25.7543 11.6854 26.1917 11.4721C26.6397 11.2481 27.0717 10.9014 27.4877 10.4321C27.5197 10.4107 27.541 10.3787 27.5517 10.3361C27.573 10.2934 27.605 10.2614 27.6477 10.2401C27.669 10.2187 27.7117 10.2081 27.7757 10.2081C27.9037 10.2081 27.9677 10.2721 27.9677 10.4001ZM34.0643 10.4801C34.0216 10.0001 33.9949 9.52005 33.9843 9.04005C33.9843 8.54938 33.9789 8.05872 33.9683 7.56805H33.7443C33.4136 7.56805 33.0456 7.62138 32.6403 7.72805C32.2456 7.82405 31.8669 7.97338 31.5043 8.17605C31.1416 8.37872 30.8429 8.63472 30.6083 8.94405C30.3843 9.24272 30.2723 9.58938 30.2723 9.98405C30.2723 10.4961 30.4163 10.8854 30.7043 11.1521C30.9923 11.4081 31.3816 11.5361 31.8723 11.5361C32.1069 11.5361 32.3629 11.4827 32.6403 11.3761C32.9176 11.2587 33.1843 11.1201 33.4403 10.9601C33.6963 10.8001 33.9043 10.6401 34.0643 10.4801ZM36.8643 11.5041C36.8643 11.5467 36.8589 11.5787 36.8483 11.6001C36.7416 11.8347 36.5603 12.0161 36.3043 12.1441C36.0589 12.2614 35.8136 12.3201 35.5683 12.3201C35.1203 12.3201 34.7949 12.1921 34.5923 11.9361C34.4003 11.6694 34.2456 11.3441 34.1283 10.9601C33.7229 11.3334 33.2749 11.6481 32.7843 11.9041C32.2936 12.1494 31.7656 12.2721 31.2003 12.2721C30.8056 12.2721 30.4323 12.1974 30.0803 12.0481C29.7389 11.8881 29.4616 11.6587 29.2483 11.3601C29.0349 11.0614 28.9283 10.6987 28.9283 10.2721C28.9283 9.82405 29.0403 9.44005 29.2643 9.12005C29.4989 8.78938 29.7923 8.51205 30.1443 8.28805C30.5069 8.05338 30.8909 7.86672 31.2963 7.72805C31.7123 7.57872 32.1016 7.46672 32.4643 7.39205C32.7096 7.33872 32.9603 7.29072 33.2163 7.24805C33.4723 7.20538 33.7229 7.16272 33.9683 7.12005C33.9683 6.82138 33.9523 6.47472 33.9203 6.08005C33.8989 5.68538 33.8189 5.36005 33.6803 5.10405C33.5416 4.85872 33.3549 4.64005 33.1203 4.44805C32.8856 4.25605 32.6243 4.16005 32.3363 4.16005C31.8456 4.16005 31.4616 4.28805 31.1843 4.54405C30.9069 4.80005 30.7096 5.16272 30.5923 5.63205C30.5816 5.68538 30.5709 5.74405 30.5603 5.80805C30.5603 5.86138 30.5549 5.91472 30.5443 5.96805C30.5336 6.03205 30.4909 6.09072 30.4163 6.14405C30.3523 6.18672 30.2829 6.20805 30.2083 6.20805C30.0056 6.20805 29.8189 6.16005 29.6483 6.06405C29.4883 5.96805 29.4083 5.80805 29.4083 5.58405C29.4083 5.45605 29.4296 5.34405 29.4723 5.24805C29.6109 4.91738 29.8349 4.64538 30.1443 4.43205C30.4536 4.20805 30.7949 4.03738 31.1683 3.92005C31.5523 3.80272 31.9096 3.74405 32.2403 3.74405C32.8163 3.74405 33.3389 3.85072 33.8083 4.06405C34.2776 4.27738 34.6509 4.59205 34.9283 5.00805C35.2163 5.41338 35.3603 5.92538 35.3603 6.54405C35.3603 7.23738 35.3549 7.93605 35.3443 8.64005C35.3443 9.34405 35.3656 10.0481 35.4083 10.7521C35.4189 10.9867 35.4669 11.1947 35.5523 11.3761C35.6376 11.5467 35.8136 11.6321 36.0803 11.6321C36.2189 11.6321 36.3629 11.6001 36.5123 11.5361C36.6723 11.4614 36.7736 11.4241 36.8163 11.4241C36.8483 11.4241 36.8643 11.4507 36.8643 11.5041ZM35.1043 0.816051C34.9549 0.965384 34.8109 1.12538 34.6723 1.29605C34.5336 1.46672 34.3789 1.61072 34.2083 1.72805C34.0483 1.83472 33.8456 1.88805 33.6003 1.88805C33.3443 1.88805 33.1043 1.82938 32.8803 1.71205C32.6563 1.59472 32.4376 1.47738 32.2243 1.36005C32.0216 1.24272 31.7976 1.18405 31.5523 1.18405C31.3176 1.18405 31.1149 1.25872 30.9443 1.40805C30.7736 1.55738 30.6189 1.71205 30.4803 1.87205L30.1443 1.66405C30.2829 1.47205 30.4269 1.27472 30.5763 1.07205C30.7363 0.869383 30.9123 0.698717 31.1043 0.56005C31.3069 0.421383 31.5416 0.35205 31.8083 0.35205C32.0643 0.35205 32.2989 0.410717 32.5123 0.52805C32.7363 0.634717 32.9549 0.746717 33.1683 0.86405C33.3923 0.981384 33.6269 1.04005 33.8723 1.04005C34.0536 1.04005 34.2243 0.981384 34.3843 0.86405C34.5443 0.746717 34.6776 0.618717 34.7843 0.48005L35.1043 0.816051ZM44.5114 8.12805C44.5114 7.66938 44.4741 7.21072 44.3994 6.75205C44.3354 6.28272 44.2074 5.85072 44.0154 5.45605C43.8341 5.06138 43.5674 4.74672 43.2154 4.51205C42.8634 4.26672 42.4047 4.14405 41.8394 4.14405C41.3061 4.14405 40.8687 4.27205 40.5274 4.52805C40.1967 4.78405 39.9354 5.11472 39.7434 5.52005C39.5621 5.92538 39.4341 6.36272 39.3594 6.83205C39.2954 7.30138 39.2634 7.74405 39.2634 8.16005C39.2634 8.61872 39.2954 9.07738 39.3594 9.53605C39.4341 9.99472 39.5674 10.4107 39.7594 10.7841C39.9514 11.1467 40.2234 11.4401 40.5754 11.6641C40.9381 11.8881 41.4021 12.0001 41.9674 12.0001C42.5221 12.0001 42.9647 11.8827 43.2954 11.6481C43.6367 11.4134 43.8927 11.1041 44.0634 10.7201C44.2447 10.3361 44.3621 9.92005 44.4154 9.47205C44.4794 9.01338 44.5114 8.56538 44.5114 8.12805ZM46.1594 8.17605C46.1594 8.97605 45.9674 9.69605 45.5834 10.3361C45.2101 10.9761 44.6981 11.4827 44.0474 11.8561C43.4074 12.2294 42.6874 12.4161 41.8874 12.4161C41.1087 12.4161 40.4047 12.2294 39.7754 11.8561C39.1461 11.4721 38.6447 10.9654 38.2714 10.3361C37.8981 9.69605 37.7114 8.98672 37.7114 8.20805C37.7114 7.40805 37.8927 6.67205 38.2554 6.00005C38.6181 5.31738 39.1141 4.76805 39.7434 4.35205C40.3834 3.93605 41.1194 3.72805 41.9514 3.72805C42.8474 3.72805 43.6101 3.92005 44.2394 4.30405C44.8687 4.67738 45.3434 5.20005 45.6634 5.87205C45.9941 6.53338 46.1594 7.30138 46.1594 8.17605ZM58.3693 7.77605C58.3693 7.41338 58.3479 7.03472 58.3053 6.64005C58.2626 6.23472 58.1719 5.85605 58.0333 5.50405C57.8946 5.15205 57.6866 4.86938 57.4093 4.65605C57.1319 4.43205 56.7533 4.32005 56.2733 4.32005C55.9853 4.32005 55.6759 4.39472 55.3453 4.54405C55.0253 4.68272 54.7426 4.87472 54.4973 5.12005C54.2626 5.36538 54.1293 5.64805 54.0973 5.96805C54.0759 6.29872 54.0653 6.63472 54.0653 6.97605C54.0653 7.31738 54.0653 7.65872 54.0653 8.00005C54.0653 8.29872 54.0653 8.60272 54.0653 8.91205C54.0759 9.21072 54.0866 9.51472 54.0973 9.82405C54.1293 10.3681 54.3053 10.8321 54.6253 11.2161C54.9453 11.5894 55.3986 11.7761 55.9853 11.7761C56.5399 11.7761 56.9773 11.6534 57.2973 11.4081C57.6173 11.1521 57.8519 10.8214 58.0013 10.4161C58.1613 10.0107 58.2626 9.57872 58.3053 9.12005C58.3479 8.65072 58.3693 8.20272 58.3693 7.77605ZM60.0173 7.79205C60.0173 8.62405 59.8679 9.37605 59.5693 10.0481C59.2706 10.7201 58.8226 11.2534 58.2253 11.6481C57.6386 12.0321 56.9026 12.2241 56.0173 12.2241C55.6759 12.2241 55.3239 12.1387 54.9613 11.9681C54.6093 11.7867 54.3106 11.5787 54.0653 11.3441V14.7521C54.0653 14.9014 54.1239 14.9867 54.2413 15.0081C54.3693 15.0294 54.4866 15.0401 54.5933 15.0401C54.6893 15.0401 54.7853 15.0347 54.8813 15.0241C54.9773 15.0134 55.0733 15.0081 55.1693 15.0081C55.3079 15.0081 55.3773 15.0774 55.3773 15.2161C55.3773 15.3761 55.2973 15.4561 55.1373 15.4561C54.8066 15.4561 54.4759 15.4454 54.1453 15.4241C53.8146 15.4027 53.4839 15.3921 53.1533 15.3921C52.8759 15.3921 52.5986 15.4027 52.3213 15.4241C52.0546 15.4454 51.7826 15.4561 51.5053 15.4561C51.4306 15.4561 51.3826 15.4294 51.3613 15.3761C51.3506 15.3227 51.3453 15.2747 51.3453 15.2321C51.3453 15.0827 51.4199 15.0081 51.5693 15.0081C51.6546 15.0081 51.7399 15.0081 51.8253 15.0081C51.9106 15.0187 51.9959 15.0241 52.0813 15.0241C52.1559 15.0241 52.2626 15.0134 52.4013 14.9921C52.5506 14.9707 52.6253 14.9067 52.6253 14.8001C52.6253 13.6907 52.6253 12.5761 52.6253 11.4561C52.6359 10.3361 52.6413 9.22138 52.6413 8.11205C52.6413 7.61072 52.6359 7.11472 52.6253 6.62405C52.6253 6.13338 52.6199 5.64272 52.6093 5.15205C52.5986 4.91738 52.5559 4.75738 52.4813 4.67205C52.4066 4.57605 52.2466 4.52805 52.0013 4.52805C51.8946 4.52805 51.7879 4.54405 51.6813 4.57605C51.5746 4.59738 51.4679 4.60805 51.3613 4.60805C51.2439 4.60805 51.1853 4.55472 51.1853 4.44805C51.1853 4.35205 51.2333 4.28805 51.3293 4.25605C51.3506 4.24538 51.4466 4.22405 51.6173 4.19205C51.7879 4.16005 51.9906 4.12272 52.2253 4.08005C52.4706 4.02672 52.7106 3.97872 52.9453 3.93605C53.1799 3.89338 53.3773 3.85605 53.5373 3.82405C53.6973 3.79205 53.7826 3.77605 53.7933 3.77605C53.8786 3.77605 53.9373 3.82938 53.9693 3.93605C53.9906 4.00005 54.0013 4.11738 54.0013 4.28805C54.0119 4.44805 54.0173 4.61338 54.0173 4.78405C54.0173 4.94405 54.0173 5.06672 54.0173 5.15205C54.3159 4.75738 54.6946 4.43205 55.1533 4.17605C55.6226 3.90938 56.1079 3.77605 56.6093 3.77605C57.3453 3.77605 57.9639 3.97338 58.4653 4.36805C58.9773 4.75205 59.3613 5.25338 59.6173 5.87205C59.8839 6.48005 60.0173 7.12005 60.0173 7.79205ZM66.4237 10.4801C66.381 10.0001 66.3543 9.52005 66.3437 9.04005C66.3437 8.54938 66.3383 8.05872 66.3277 7.56805H66.1037C65.773 7.56805 65.405 7.62138 64.9997 7.72805C64.605 7.82405 64.2263 7.97338 63.8637 8.17605C63.501 8.37872 63.2023 8.63472 62.9677 8.94405C62.7437 9.24272 62.6317 9.58938 62.6317 9.98405C62.6317 10.4961 62.7757 10.8854 63.0637 11.1521C63.3517 11.4081 63.741 11.5361 64.2317 11.5361C64.4663 11.5361 64.7223 11.4827 64.9997 11.3761C65.277 11.2587 65.5437 11.1201 65.7997 10.9601C66.0557 10.8001 66.2637 10.6401 66.4237 10.4801ZM69.2237 11.5041C69.2237 11.5467 69.2183 11.5787 69.2077 11.6001C69.101 11.8347 68.9197 12.0161 68.6637 12.1441C68.4183 12.2614 68.173 12.3201 67.9277 12.3201C67.4797 12.3201 67.1543 12.1921 66.9517 11.9361C66.7597 11.6694 66.605 11.3441 66.4877 10.9601C66.0823 11.3334 65.6343 11.6481 65.1437 11.9041C64.653 12.1494 64.125 12.2721 63.5597 12.2721C63.165 12.2721 62.7917 12.1974 62.4397 12.0481C62.0983 11.8881 61.821 11.6587 61.6077 11.3601C61.3943 11.0614 61.2877 10.6987 61.2877 10.2721C61.2877 9.82405 61.3997 9.44005 61.6237 9.12005C61.8583 8.78938 62.1517 8.51205 62.5037 8.28805C62.8663 8.05338 63.2503 7.86672 63.6557 7.72805C64.0717 7.57872 64.461 7.46672 64.8237 7.39205C65.069 7.33872 65.3197 7.29072 65.5757 7.24805C65.8317 7.20538 66.0823 7.16272 66.3277 7.12005C66.3277 6.82138 66.3117 6.47472 66.2797 6.08005C66.2583 5.68538 66.1783 5.36005 66.0397 5.10405C65.901 4.85872 65.7143 4.64005 65.4797 4.44805C65.245 4.25605 64.9837 4.16005 64.6957 4.16005C64.205 4.16005 63.821 4.28805 63.5437 4.54405C63.2663 4.80005 63.069 5.16272 62.9517 5.63205C62.941 5.68538 62.9303 5.74405 62.9197 5.80805C62.9197 5.86138 62.9143 5.91472 62.9037 5.96805C62.893 6.03205 62.8503 6.09072 62.7757 6.14405C62.7117 6.18672 62.6423 6.20805 62.5677 6.20805C62.365 6.20805 62.1783 6.16005 62.0077 6.06405C61.8477 5.96805 61.7677 5.80805 61.7677 5.58405C61.7677 5.45605 61.789 5.34405 61.8317 5.24805C61.9703 4.91738 62.1943 4.64538 62.5037 4.43205C62.813 4.20805 63.1543 4.03738 63.5277 3.92005C63.9117 3.80272 64.269 3.74405 64.5997 3.74405C65.1757 3.74405 65.6983 3.85072 66.1677 4.06405C66.637 4.27738 67.0103 4.59205 67.2877 5.00805C67.5757 5.41338 67.7197 5.92538 67.7197 6.54405C67.7197 7.23738 67.7143 7.93605 67.7037 8.64005C67.7037 9.34405 67.725 10.0481 67.7677 10.7521C67.7783 10.9867 67.8263 11.1947 67.9117 11.3761C67.997 11.5467 68.173 11.6321 68.4397 11.6321C68.5783 11.6321 68.7223 11.6001 68.8717 11.5361C69.0317 11.4614 69.133 11.4241 69.1757 11.4241C69.2077 11.4241 69.2237 11.4507 69.2237 11.5041ZM76.2948 5.23205C76.2948 5.33872 76.2521 5.44005 76.1668 5.53605C76.0921 5.62138 75.9961 5.66405 75.8788 5.66405C75.7188 5.66405 75.6014 5.61072 75.5268 5.50405C75.4628 5.39738 75.4041 5.27472 75.3508 5.13605C75.3081 4.99738 75.2388 4.87472 75.1428 4.76805C75.0468 4.66138 74.8868 4.60805 74.6628 4.60805C74.6201 4.60805 74.5774 4.60805 74.5348 4.60805C74.5028 4.60805 74.4654 4.61338 74.4228 4.62405C74.2414 4.65605 74.0441 4.76805 73.8308 4.96005C73.6174 5.15205 73.4094 5.38138 73.2068 5.64805C73.0148 5.90405 72.8548 6.16005 72.7268 6.41605C72.5988 6.67205 72.5294 6.88538 72.5188 7.05605C72.5081 7.22672 72.5028 7.39738 72.5028 7.56805C72.5028 7.72805 72.5028 7.88805 72.5028 8.04805C72.5028 8.62405 72.5028 9.20005 72.5028 9.77605C72.5134 10.3521 72.5188 10.9227 72.5188 11.4881C72.5188 11.6481 72.5828 11.7654 72.7108 11.8401C72.8494 11.9041 72.9881 11.9361 73.1268 11.9361C73.2334 11.9361 73.3401 11.9307 73.4468 11.9201C73.5534 11.9094 73.6601 11.9041 73.7668 11.9041C73.8201 11.9041 73.8574 11.9307 73.8788 11.9841C73.9001 12.0267 73.9108 12.0694 73.9108 12.1121C73.9108 12.2827 73.8254 12.3681 73.6548 12.3681C73.3348 12.3681 73.0148 12.3627 72.6948 12.3521C72.3748 12.3307 72.0548 12.3201 71.7348 12.3201C71.4041 12.3201 71.0681 12.3307 70.7268 12.3521C70.3961 12.3734 70.0601 12.3841 69.7188 12.3841C69.6761 12.3841 69.6441 12.3521 69.6228 12.2881C69.6121 12.2241 69.6068 12.1707 69.6068 12.1281C69.6068 12.0214 69.6494 11.9627 69.7348 11.9521C69.8521 11.9307 69.9748 11.9254 70.1028 11.9361C70.2308 11.9467 70.3481 11.9521 70.4548 11.9521C70.6148 11.9521 70.7428 11.9201 70.8388 11.8561C70.9454 11.7814 71.0041 11.6587 71.0148 11.4881C71.0361 11.1467 71.0468 10.8001 71.0468 10.4481C71.0574 10.0961 71.0628 9.74405 71.0628 9.39205V7.84005C71.0521 7.38138 71.0468 6.92805 71.0468 6.48005C71.0574 6.02138 71.0414 5.56805 70.9988 5.12005C70.9881 4.90672 70.9294 4.75738 70.8228 4.67205C70.7161 4.57605 70.5561 4.52805 70.3428 4.52805C70.2574 4.52805 70.1668 4.53872 70.0708 4.56005C69.9854 4.57072 69.8948 4.57605 69.7988 4.57605C69.7134 4.57605 69.6708 4.51205 69.6708 4.38405C69.6708 4.30938 69.7081 4.25605 69.7828 4.22405C69.8894 4.19205 70.0014 4.17072 70.1188 4.16005C70.2361 4.13872 70.3481 4.12272 70.4548 4.11205C70.7428 4.05872 71.0308 4.00538 71.3188 3.95205C71.6068 3.89872 71.8948 3.83472 72.1828 3.76005C72.2788 3.79205 72.3481 3.85072 72.3908 3.93605C72.4121 3.97872 72.4281 4.09605 72.4388 4.28805C72.4494 4.48005 72.4548 4.70405 72.4548 4.96005C72.4548 5.20538 72.4548 5.44005 72.4548 5.66405C72.4548 5.87738 72.4548 6.02672 72.4548 6.11205C72.6894 5.73872 72.9561 5.36538 73.2548 4.99205C73.5534 4.61872 73.8948 4.30938 74.2788 4.06405C74.6628 3.81872 75.0948 3.69605 75.5748 3.69605C75.8308 3.69605 75.9961 3.77605 76.0708 3.93605C76.1454 4.09605 76.1934 4.28272 76.2148 4.49605C76.2361 4.61338 76.2521 4.73605 76.2628 4.86405C76.2841 4.99205 76.2948 5.11472 76.2948 5.23205ZM82.2362 10.4801C82.1935 10.0001 82.1668 9.52005 82.1562 9.04005C82.1562 8.54938 82.1508 8.05872 82.1402 7.56805H81.9162C81.5855 7.56805 81.2175 7.62138 80.8122 7.72805C80.4175 7.82405 80.0388 7.97338 79.6762 8.17605C79.3135 8.37872 79.0148 8.63472 78.7802 8.94405C78.5562 9.24272 78.4442 9.58938 78.4442 9.98405C78.4442 10.4961 78.5882 10.8854 78.8762 11.1521C79.1642 11.4081 79.5535 11.5361 80.0442 11.5361C80.2788 11.5361 80.5348 11.4827 80.8122 11.3761C81.0895 11.2587 81.3562 11.1201 81.6122 10.9601C81.8682 10.8001 82.0762 10.6401 82.2362 10.4801ZM85.0362 11.5041C85.0362 11.5467 85.0308 11.5787 85.0202 11.6001C84.9135 11.8347 84.7322 12.0161 84.4762 12.1441C84.2308 12.2614 83.9855 12.3201 83.7402 12.3201C83.2922 12.3201 82.9668 12.1921 82.7642 11.9361C82.5722 11.6694 82.4175 11.3441 82.3002 10.9601C81.8948 11.3334 81.4468 11.6481 80.9562 11.9041C80.4655 12.1494 79.9375 12.2721 79.3722 12.2721C78.9775 12.2721 78.6042 12.1974 78.2522 12.0481C77.9108 11.8881 77.6335 11.6587 77.4202 11.3601C77.2068 11.0614 77.1002 10.6987 77.1002 10.2721C77.1002 9.82405 77.2122 9.44005 77.4362 9.12005C77.6708 8.78938 77.9642 8.51205 78.3162 8.28805C78.6788 8.05338 79.0628 7.86672 79.4682 7.72805C79.8842 7.57872 80.2735 7.46672 80.6362 7.39205C80.8815 7.33872 81.1322 7.29072 81.3882 7.24805C81.6442 7.20538 81.8948 7.16272 82.1402 7.12005C82.1402 6.82138 82.1242 6.47472 82.0922 6.08005C82.0708 5.68538 81.9908 5.36005 81.8522 5.10405C81.7135 4.85872 81.5268 4.64005 81.2922 4.44805C81.0575 4.25605 80.7962 4.16005 80.5082 4.16005C80.0175 4.16005 79.6335 4.28805 79.3562 4.54405C79.0788 4.80005 78.8815 5.16272 78.7642 5.63205C78.7535 5.68538 78.7428 5.74405 78.7322 5.80805C78.7322 5.86138 78.7268 5.91472 78.7162 5.96805C78.7055 6.03205 78.6628 6.09072 78.5882 6.14405C78.5242 6.18672 78.4548 6.20805 78.3802 6.20805C78.1775 6.20805 77.9908 6.16005 77.8202 6.06405C77.6602 5.96805 77.5802 5.80805 77.5802 5.58405C77.5802 5.45605 77.6015 5.34405 77.6442 5.24805C77.7828 4.91738 78.0068 4.64538 78.3162 4.43205C78.6255 4.20805 78.9668 4.03738 79.3402 3.92005C79.7242 3.80272 80.0815 3.74405 80.4122 3.74405C80.9882 3.74405 81.5108 3.85072 81.9802 4.06405C82.4495 4.27738 82.8228 4.59205 83.1002 5.00805C83.3882 5.41338 83.5322 5.92538 83.5322 6.54405C83.5322 7.23738 83.5268 7.93605 83.5162 8.64005C83.5162 9.34405 83.5375 10.0481 83.5802 10.7521C83.5908 10.9867 83.6388 11.1947 83.7242 11.3761C83.8095 11.5467 83.9855 11.6321 84.2522 11.6321C84.3908 11.6321 84.5348 11.6001 84.6842 11.5361C84.8442 11.4614 84.9455 11.4241 84.9882 11.4241C85.0202 11.4241 85.0362 11.4507 85.0362 11.5041ZM97.5473 10.3681C97.5473 10.4427 97.4886 10.5494 97.3713 10.6881C97.2539 10.8161 97.1686 10.9067 97.1153 10.9601C97.0193 11.0561 96.9233 11.1521 96.8273 11.2481C96.7313 11.3441 96.6246 11.4347 96.5073 11.5201C96.1766 11.7547 95.7819 11.9574 95.3233 12.1281C94.8646 12.2881 94.4326 12.3681 94.0273 12.3681C93.2166 12.3681 92.5019 12.1921 91.8833 11.8401C91.2753 11.4774 90.7953 10.9867 90.4433 10.3681C90.1019 9.73872 89.9313 9.02405 89.9313 8.22405C89.9313 7.43472 90.0913 6.69338 90.4113 6.00005C90.7313 5.30672 91.2379 4.74672 91.9313 4.32005C92.2299 4.13872 92.5606 3.99472 92.9233 3.88805C93.2966 3.78138 93.6539 3.72805 93.9953 3.72805C94.2619 3.72805 94.5179 3.76005 94.7633 3.82405C95.0193 3.88805 95.2646 3.97338 95.4993 4.08005C95.6379 4.14405 95.7713 4.20805 95.8993 4.27205C96.0273 4.33605 96.1659 4.36805 96.3153 4.36805C96.4433 4.36805 96.5446 4.33072 96.6193 4.25605C96.7046 4.17072 96.7686 4.12805 96.8113 4.12805C96.8433 4.12805 96.8593 4.14938 96.8593 4.19205C96.8806 4.32005 96.8859 4.44805 96.8753 4.57605C96.8753 4.70405 96.8806 4.82672 96.8913 4.94405C96.9019 5.17872 96.9126 5.41338 96.9233 5.64805C96.9339 5.88272 96.9446 6.11738 96.9553 6.35205V6.40005C96.9659 6.51738 96.9553 6.60805 96.9233 6.67205C96.8913 6.73605 96.8059 6.76805 96.6673 6.76805C96.5926 6.76805 96.5393 6.72538 96.5073 6.64005C96.4859 6.55472 96.4646 6.48005 96.4433 6.41605C96.3686 6.10672 96.2566 5.77605 96.1073 5.42405C95.9579 5.07205 95.7553 4.78938 95.4993 4.57605C95.3393 4.42672 95.1366 4.30405 94.8913 4.20805C94.6566 4.11205 94.4326 4.06405 94.2193 4.06405C93.7073 4.06405 93.2699 4.19738 92.9073 4.46405C92.5553 4.72005 92.2726 5.05605 92.0593 5.47205C91.8459 5.87738 91.6859 6.31472 91.5793 6.78405C91.4833 7.25338 91.4353 7.69605 91.4353 8.11205C91.4353 8.52805 91.4833 8.95472 91.5793 9.39205C91.6753 9.81872 91.8246 10.2187 92.0273 10.5921C92.2406 10.9654 92.5179 11.2641 92.8593 11.4881C93.2113 11.7121 93.6326 11.8241 94.1233 11.8241C94.8059 11.8241 95.3766 11.7014 95.8353 11.4561C96.2939 11.2001 96.7366 10.8107 97.1633 10.2881C97.2059 10.2134 97.2646 10.1761 97.3393 10.1761C97.4779 10.1761 97.5473 10.2401 97.5473 10.3681ZM103.58 10.4801C103.537 10.0001 103.511 9.52005 103.5 9.04005C103.5 8.54938 103.495 8.05872 103.484 7.56805H103.26C102.929 7.56805 102.561 7.62138 102.156 7.72805C101.761 7.82405 101.383 7.97338 101.02 8.17605C100.657 8.37872 100.359 8.63472 100.124 8.94405C99.8999 9.24272 99.7879 9.58938 99.7879 9.98405C99.7879 10.4961 99.9319 10.8854 100.22 11.1521C100.508 11.4081 100.897 11.5361 101.388 11.5361C101.623 11.5361 101.879 11.4827 102.156 11.3761C102.433 11.2587 102.7 11.1201 102.956 10.9601C103.212 10.8001 103.42 10.6401 103.58 10.4801ZM106.38 11.5041C106.38 11.5467 106.375 11.5787 106.364 11.6001C106.257 11.8347 106.076 12.0161 105.82 12.1441C105.575 12.2614 105.329 12.3201 105.084 12.3201C104.636 12.3201 104.311 12.1921 104.108 11.9361C103.916 11.6694 103.761 11.3441 103.644 10.9601C103.239 11.3334 102.791 11.6481 102.3 11.9041C101.809 12.1494 101.281 12.2721 100.716 12.2721C100.321 12.2721 99.9479 12.1974 99.5959 12.0481C99.2546 11.8881 98.9772 11.6587 98.7639 11.3601C98.5506 11.0614 98.4439 10.6987 98.4439 10.2721C98.4439 9.82405 98.5559 9.44005 98.7799 9.12005C99.0146 8.78938 99.3079 8.51205 99.6599 8.28805C100.023 8.05338 100.407 7.86672 100.812 7.72805C101.228 7.57872 101.617 7.46672 101.98 7.39205C102.225 7.33872 102.476 7.29072 102.732 7.24805C102.988 7.20538 103.239 7.16272 103.484 7.12005C103.484 6.82138 103.468 6.47472 103.436 6.08005C103.415 5.68538 103.335 5.36005 103.196 5.10405C103.057 4.85872 102.871 4.64005 102.636 4.44805C102.401 4.25605 102.14 4.16005 101.852 4.16005C101.361 4.16005 100.977 4.28805 100.7 4.54405C100.423 4.80005 100.225 5.16272 100.108 5.63205C100.097 5.68538 100.087 5.74405 100.076 5.80805C100.076 5.86138 100.071 5.91472 100.06 5.96805C100.049 6.03205 100.007 6.09072 99.9319 6.14405C99.8679 6.18672 99.7986 6.20805 99.7239 6.20805C99.5212 6.20805 99.3346 6.16005 99.1639 6.06405C99.0039 5.96805 98.9239 5.80805 98.9239 5.58405C98.9239 5.45605 98.9452 5.34405 98.9879 5.24805C99.1266 4.91738 99.3506 4.64538 99.6599 4.43205C99.9692 4.20805 100.311 4.03738 100.684 3.92005C101.068 3.80272 101.425 3.74405 101.756 3.74405C102.332 3.74405 102.855 3.85072 103.324 4.06405C103.793 4.27738 104.167 4.59205 104.444 5.00805C104.732 5.41338 104.876 5.92538 104.876 6.54405C104.876 7.23738 104.871 7.93605 104.86 8.64005C104.86 9.34405 104.881 10.0481 104.924 10.7521C104.935 10.9867 104.983 11.1947 105.068 11.3761C105.153 11.5467 105.329 11.6321 105.596 11.6321C105.735 11.6321 105.879 11.6001 106.028 11.5361C106.188 11.4614 106.289 11.4241 106.332 11.4241C106.364 11.4241 106.38 11.4507 106.38 11.5041ZM114.891 10.3681C114.891 10.4427 114.832 10.5494 114.715 10.6881C114.598 10.8161 114.512 10.9067 114.459 10.9601C114.363 11.0561 114.267 11.1521 114.171 11.2481C114.075 11.3441 113.968 11.4347 113.851 11.5201C113.52 11.7547 113.126 11.9574 112.667 12.1281C112.208 12.2881 111.776 12.3681 111.371 12.3681C110.56 12.3681 109.846 12.1921 109.227 11.8401C108.619 11.4774 108.139 10.9867 107.787 10.3681C107.446 9.73872 107.275 9.02405 107.275 8.22405C107.275 7.43472 107.435 6.69338 107.755 6.00005C108.075 5.30672 108.582 4.74672 109.275 4.32005C109.574 4.13872 109.904 3.99472 110.267 3.88805C110.64 3.78138 110.998 3.72805 111.339 3.72805C111.606 3.72805 111.862 3.76005 112.107 3.82405C112.363 3.88805 112.608 3.97338 112.843 4.08005C112.982 4.14405 113.115 4.20805 113.243 4.27205C113.371 4.33605 113.51 4.36805 113.659 4.36805C113.787 4.36805 113.888 4.33072 113.963 4.25605C114.048 4.17072 114.112 4.12805 114.155 4.12805C114.187 4.12805 114.203 4.14938 114.203 4.19205C114.224 4.32005 114.23 4.44805 114.219 4.57605C114.219 4.70405 114.224 4.82672 114.235 4.94405C114.246 5.17872 114.256 5.41338 114.267 5.64805C114.278 5.88272 114.288 6.11738 114.299 6.35205V6.40005C114.31 6.51738 114.299 6.60805 114.267 6.67205C114.235 6.73605 114.15 6.76805 114.011 6.76805C113.936 6.76805 113.883 6.72538 113.851 6.64005C113.83 6.55472 113.808 6.48005 113.787 6.41605C113.712 6.10672 113.6 5.77605 113.451 5.42405C113.302 5.07205 113.099 4.78938 112.843 4.57605C112.683 4.42672 112.48 4.30405 112.235 4.20805C112 4.11205 111.776 4.06405 111.563 4.06405C111.051 4.06405 110.614 4.19738 110.251 4.46405C109.899 4.72005 109.616 5.05605 109.403 5.47205C109.19 5.87738 109.03 6.31472 108.923 6.78405C108.827 7.25338 108.779 7.69605 108.779 8.11205C108.779 8.52805 108.827 8.95472 108.923 9.39205C109.019 9.81872 109.168 10.2187 109.371 10.5921C109.584 10.9654 109.862 11.2641 110.203 11.4881C110.555 11.7121 110.976 11.8241 111.467 11.8241C112.15 11.8241 112.72 11.7014 113.179 11.4561C113.638 11.2001 114.08 10.8107 114.507 10.2881C114.55 10.2134 114.608 10.1761 114.683 10.1761C114.822 10.1761 114.891 10.2401 114.891 10.3681ZM125.148 12.1761C125.148 12.2294 125.121 12.2721 125.068 12.3041C125.014 12.3254 124.961 12.3361 124.908 12.3361C124.641 12.3361 124.369 12.3307 124.092 12.3201C123.825 12.2987 123.553 12.2881 123.276 12.2881C122.966 12.2881 122.652 12.2987 122.332 12.3201C122.022 12.3414 121.713 12.3521 121.404 12.3521C121.35 12.3521 121.313 12.3201 121.292 12.2561C121.281 12.1814 121.276 12.1227 121.276 12.0801C121.276 12.0054 121.313 11.9681 121.388 11.9681C121.505 11.9681 121.617 11.9734 121.724 11.9841C121.841 11.9841 121.953 11.9841 122.06 11.9841C122.198 11.9841 122.305 11.9414 122.38 11.8561C122.465 11.7601 122.513 11.6481 122.524 11.5201C122.545 11.2534 122.55 10.9867 122.54 10.7201C122.54 10.4534 122.54 10.1921 122.54 9.93605C122.54 9.61605 122.54 9.30138 122.54 8.99205C122.54 8.67205 122.54 8.35205 122.54 8.03205C122.54 7.71205 122.54 7.39205 122.54 7.07205C122.54 6.75205 122.529 6.43205 122.508 6.11205C122.497 5.97338 122.481 5.84005 122.46 5.71205C122.449 5.57338 122.422 5.44005 122.38 5.31205C122.273 5.02405 122.097 4.80538 121.852 4.65605C121.617 4.49605 121.345 4.41605 121.036 4.41605C120.673 4.41605 120.316 4.51205 119.964 4.70405C119.612 4.88538 119.318 5.11472 119.084 5.39205C118.828 5.69072 118.641 5.95205 118.524 6.17605C118.406 6.40005 118.332 6.63472 118.3 6.88005C118.278 7.12538 118.268 7.44538 118.268 7.84005V10.6561C118.268 10.7734 118.262 10.9387 118.252 11.1521C118.252 11.3654 118.278 11.5574 118.332 11.7281C118.396 11.8987 118.518 11.9841 118.7 11.9841C118.806 11.9841 118.908 11.9787 119.004 11.9681C119.1 11.9574 119.201 11.9521 119.308 11.9521C119.404 11.9521 119.452 12.0054 119.452 12.1121C119.452 12.1654 119.441 12.2187 119.42 12.2721C119.409 12.3147 119.372 12.3361 119.308 12.3361C118.945 12.3361 118.572 12.3307 118.188 12.3201C117.814 12.2987 117.441 12.2881 117.068 12.2881C116.726 12.2881 116.38 12.3041 116.028 12.3361C115.985 12.3361 115.948 12.3414 115.916 12.3521C115.884 12.3521 115.846 12.3521 115.804 12.3521C115.75 12.3521 115.708 12.3254 115.676 12.2721C115.654 12.2081 115.644 12.1547 115.644 12.1121C115.644 11.9947 115.702 11.9361 115.82 11.9361C115.884 11.9361 115.948 11.9414 116.012 11.9521C116.076 11.9521 116.145 11.9521 116.22 11.9521C116.369 11.9521 116.524 11.9307 116.684 11.8881C116.854 11.8347 116.945 11.7121 116.956 11.5201C116.977 11.1681 116.982 10.8161 116.972 10.4641C116.972 10.1121 116.972 9.76538 116.972 9.42405C116.972 8.76272 116.972 8.10672 116.972 7.45605C116.982 6.80538 116.988 6.15472 116.988 5.50405C116.988 4.82138 116.982 4.14405 116.972 3.47205C116.961 2.78938 116.95 2.10672 116.94 1.42405C116.94 1.30672 116.918 1.17872 116.876 1.04005C116.833 0.890717 116.737 0.816051 116.588 0.816051C116.438 0.816051 116.284 0.826717 116.124 0.84805C115.964 0.869384 115.804 0.880051 115.644 0.880051C115.548 0.880051 115.5 0.837384 115.5 0.75205C115.5 0.65605 115.548 0.59205 115.644 0.56005C115.857 0.506717 116.065 0.46405 116.268 0.43205C116.481 0.40005 116.689 0.362717 116.892 0.32005C117.073 0.277383 117.286 0.218717 117.532 0.144051C117.788 0.0587171 118.001 0.0160503 118.172 0.0160503C118.236 0.0160503 118.273 0.0373837 118.284 0.0800505C118.294 0.11205 118.3 0.154716 118.3 0.20805C118.3 1.08272 118.3 1.95738 118.3 2.83205C118.3 3.70672 118.289 4.58138 118.268 5.45605C118.502 5.21072 118.785 4.96538 119.116 4.72005C119.457 4.47472 119.82 4.27205 120.204 4.11205C120.588 3.94138 120.95 3.85605 121.292 3.85605C121.985 3.85605 122.529 3.95738 122.924 4.16005C123.318 4.36272 123.596 4.67738 123.756 5.10405C123.916 5.52005 123.996 6.06405 123.996 6.73605C123.996 7.53605 123.99 8.33605 123.98 9.13605C123.98 9.92538 123.98 10.7201 123.98 11.5201C123.98 11.6907 124.022 11.8134 124.108 11.8881C124.204 11.9521 124.337 11.9841 124.508 11.9841C124.582 11.9841 124.652 11.9787 124.716 11.9681C124.79 11.9574 124.865 11.9521 124.94 11.9521C124.993 11.9521 125.041 11.9787 125.084 12.0321C125.126 12.0747 125.148 12.1227 125.148 12.1761ZM132.84 8.12805C132.84 7.66938 132.802 7.21072 132.728 6.75205C132.664 6.28272 132.536 5.85072 132.344 5.45605C132.162 5.06138 131.896 4.74672 131.544 4.51205C131.192 4.26672 130.733 4.14405 130.168 4.14405C129.634 4.14405 129.197 4.27205 128.856 4.52805C128.525 4.78405 128.264 5.11472 128.072 5.52005C127.89 5.92538 127.762 6.36272 127.688 6.83205C127.624 7.30138 127.592 7.74405 127.592 8.16005C127.592 8.61872 127.624 9.07738 127.688 9.53605C127.762 9.99472 127.896 10.4107 128.088 10.7841C128.28 11.1467 128.552 11.4401 128.904 11.6641C129.266 11.8881 129.73 12.0001 130.296 12.0001C130.85 12.0001 131.293 11.8827 131.624 11.6481C131.965 11.4134 132.221 11.1041 132.392 10.7201C132.573 10.3361 132.69 9.92005 132.744 9.47205C132.808 9.01338 132.84 8.56538 132.84 8.12805ZM134.488 8.17605C134.488 8.97605 134.296 9.69605 133.912 10.3361C133.538 10.9761 133.026 11.4827 132.376 11.8561C131.736 12.2294 131.016 12.4161 130.216 12.4161C129.437 12.4161 128.733 12.2294 128.104 11.8561C127.474 11.4721 126.973 10.9654 126.6 10.3361C126.226 9.69605 126.04 8.98672 126.04 8.20805C126.04 7.40805 126.221 6.67205 126.584 6.00005C126.946 5.31738 127.442 4.76805 128.072 4.35205C128.712 3.93605 129.448 3.72805 130.28 3.72805C131.176 3.72805 131.938 3.92005 132.568 4.30405C133.197 4.67738 133.672 5.20005 133.992 5.87205C134.322 6.53338 134.488 7.30138 134.488 8.17605ZM142.185 5.23205C142.185 5.33872 142.143 5.44005 142.057 5.53605C141.983 5.62138 141.887 5.66405 141.769 5.66405C141.609 5.66405 141.492 5.61072 141.417 5.50405C141.353 5.39738 141.295 5.27472 141.241 5.13605C141.199 4.99738 141.129 4.87472 141.033 4.76805C140.937 4.66138 140.777 4.60805 140.553 4.60805C140.511 4.60805 140.468 4.60805 140.425 4.60805C140.393 4.60805 140.356 4.61338 140.313 4.62405C140.132 4.65605 139.935 4.76805 139.721 4.96005C139.508 5.15205 139.3 5.38138 139.097 5.64805C138.905 5.90405 138.745 6.16005 138.617 6.41605C138.489 6.67205 138.42 6.88538 138.409 7.05605C138.399 7.22672 138.393 7.39738 138.393 7.56805C138.393 7.72805 138.393 7.88805 138.393 8.04805C138.393 8.62405 138.393 9.20005 138.393 9.77605C138.404 10.3521 138.409 10.9227 138.409 11.4881C138.409 11.6481 138.473 11.7654 138.601 11.8401C138.74 11.9041 138.879 11.9361 139.017 11.9361C139.124 11.9361 139.231 11.9307 139.337 11.9201C139.444 11.9094 139.551 11.9041 139.657 11.9041C139.711 11.9041 139.748 11.9307 139.769 11.9841C139.791 12.0267 139.801 12.0694 139.801 12.1121C139.801 12.2827 139.716 12.3681 139.545 12.3681C139.225 12.3681 138.905 12.3627 138.585 12.3521C138.265 12.3307 137.945 12.3201 137.625 12.3201C137.295 12.3201 136.959 12.3307 136.617 12.3521C136.287 12.3734 135.951 12.3841 135.609 12.3841C135.567 12.3841 135.535 12.3521 135.513 12.2881C135.503 12.2241 135.497 12.1707 135.497 12.1281C135.497 12.0214 135.54 11.9627 135.625 11.9521C135.743 11.9307 135.865 11.9254 135.993 11.9361C136.121 11.9467 136.239 11.9521 136.345 11.9521C136.505 11.9521 136.633 11.9201 136.729 11.8561C136.836 11.7814 136.895 11.6587 136.905 11.4881C136.927 11.1467 136.937 10.8001 136.937 10.4481C136.948 10.0961 136.953 9.74405 136.953 9.39205V7.84005C136.943 7.38138 136.937 6.92805 136.937 6.48005C136.948 6.02138 136.932 5.56805 136.889 5.12005C136.879 4.90672 136.82 4.75738 136.713 4.67205C136.607 4.57605 136.447 4.52805 136.233 4.52805C136.148 4.52805 136.057 4.53872 135.961 4.56005C135.876 4.57072 135.785 4.57605 135.689 4.57605C135.604 4.57605 135.561 4.51205 135.561 4.38405C135.561 4.30938 135.599 4.25605 135.673 4.22405C135.78 4.19205 135.892 4.17072 136.009 4.16005C136.127 4.13872 136.239 4.12272 136.345 4.11205C136.633 4.05872 136.921 4.00538 137.209 3.95205C137.497 3.89872 137.785 3.83472 138.073 3.76005C138.169 3.79205 138.239 3.85072 138.281 3.93605C138.303 3.97872 138.319 4.09605 138.329 4.28805C138.34 4.48005 138.345 4.70405 138.345 4.96005C138.345 5.20538 138.345 5.44005 138.345 5.66405C138.345 5.87738 138.345 6.02672 138.345 6.11205C138.58 5.73872 138.847 5.36538 139.145 4.99205C139.444 4.61872 139.785 4.30938 140.169 4.06405C140.553 3.81872 140.985 3.69605 141.465 3.69605C141.721 3.69605 141.887 3.77605 141.961 3.93605C142.036 4.09605 142.084 4.28272 142.105 4.49605C142.127 4.61338 142.143 4.73605 142.153 4.86405C142.175 4.99205 142.185 5.11472 142.185 5.23205ZM149.295 5.23205C149.295 5.33872 149.252 5.44005 149.167 5.53605C149.092 5.62138 148.996 5.66405 148.879 5.66405C148.719 5.66405 148.601 5.61072 148.527 5.50405C148.463 5.39738 148.404 5.27472 148.351 5.13605C148.308 4.99738 148.239 4.87472 148.143 4.76805C148.047 4.66138 147.887 4.60805 147.663 4.60805C147.62 4.60805 147.577 4.60805 147.535 4.60805C147.503 4.60805 147.465 4.61338 147.423 4.62405C147.241 4.65605 147.044 4.76805 146.831 4.96005C146.617 5.15205 146.409 5.38138 146.207 5.64805C146.015 5.90405 145.855 6.16005 145.727 6.41605C145.599 6.67205 145.529 6.88538 145.519 7.05605C145.508 7.22672 145.503 7.39738 145.503 7.56805C145.503 7.72805 145.503 7.88805 145.503 8.04805C145.503 8.62405 145.503 9.20005 145.503 9.77605C145.513 10.3521 145.519 10.9227 145.519 11.4881C145.519 11.6481 145.583 11.7654 145.711 11.8401C145.849 11.9041 145.988 11.9361 146.127 11.9361C146.233 11.9361 146.34 11.9307 146.447 11.9201C146.553 11.9094 146.66 11.9041 146.767 11.9041C146.82 11.9041 146.857 11.9307 146.879 11.9841C146.9 12.0267 146.911 12.0694 146.911 12.1121C146.911 12.2827 146.825 12.3681 146.655 12.3681C146.335 12.3681 146.015 12.3627 145.695 12.3521C145.375 12.3307 145.055 12.3201 144.735 12.3201C144.404 12.3201 144.068 12.3307 143.727 12.3521C143.396 12.3734 143.06 12.3841 142.719 12.3841C142.676 12.3841 142.644 12.3521 142.623 12.2881C142.612 12.2241 142.607 12.1707 142.607 12.1281C142.607 12.0214 142.649 11.9627 142.735 11.9521C142.852 11.9307 142.975 11.9254 143.103 11.9361C143.231 11.9467 143.348 11.9521 143.455 11.9521C143.615 11.9521 143.743 11.9201 143.839 11.8561C143.945 11.7814 144.004 11.6587 144.015 11.4881C144.036 11.1467 144.047 10.8001 144.047 10.4481C144.057 10.0961 144.063 9.74405 144.063 9.39205V7.84005C144.052 7.38138 144.047 6.92805 144.047 6.48005C144.057 6.02138 144.041 5.56805 143.999 5.12005C143.988 4.90672 143.929 4.75738 143.823 4.67205C143.716 4.57605 143.556 4.52805 143.343 4.52805C143.257 4.52805 143.167 4.53872 143.071 4.56005C142.985 4.57072 142.895 4.57605 142.799 4.57605C142.713 4.57605 142.671 4.51205 142.671 4.38405C142.671 4.30938 142.708 4.25605 142.783 4.22405C142.889 4.19205 143.001 4.17072 143.119 4.16005C143.236 4.13872 143.348 4.12272 143.455 4.11205C143.743 4.05872 144.031 4.00538 144.319 3.95205C144.607 3.89872 144.895 3.83472 145.183 3.76005C145.279 3.79205 145.348 3.85072 145.391 3.93605C145.412 3.97872 145.428 4.09605 145.439 4.28805C145.449 4.48005 145.455 4.70405 145.455 4.96005C145.455 5.20538 145.455 5.44005 145.455 5.66405C145.455 5.87738 145.455 6.02672 145.455 6.11205C145.689 5.73872 145.956 5.36538 146.255 4.99205C146.553 4.61872 146.895 4.30938 147.279 4.06405C147.663 3.81872 148.095 3.69605 148.575 3.69605C148.831 3.69605 148.996 3.77605 149.071 3.93605C149.145 4.09605 149.193 4.28272 149.215 4.49605C149.236 4.61338 149.252 4.73605 149.263 4.86405C149.284 4.99205 149.295 5.11472 149.295 5.23205ZM156.98 8.12805C156.98 7.66938 156.943 7.21072 156.868 6.75205C156.804 6.28272 156.676 5.85072 156.484 5.45605C156.303 5.06138 156.036 4.74672 155.684 4.51205C155.332 4.26672 154.873 4.14405 154.308 4.14405C153.775 4.14405 153.337 4.27205 152.996 4.52805C152.665 4.78405 152.404 5.11472 152.212 5.52005C152.031 5.92538 151.903 6.36272 151.828 6.83205C151.764 7.30138 151.732 7.74405 151.732 8.16005C151.732 8.61872 151.764 9.07738 151.828 9.53605C151.903 9.99472 152.036 10.4107 152.228 10.7841C152.42 11.1467 152.692 11.4401 153.044 11.6641C153.407 11.8881 153.871 12.0001 154.436 12.0001C154.991 12.0001 155.433 11.8827 155.764 11.6481C156.105 11.4134 156.361 11.1041 156.532 10.7201C156.713 10.3361 156.831 9.92005 156.884 9.47205C156.948 9.01338 156.98 8.56538 156.98 8.12805ZM158.628 8.17605C158.628 8.97605 158.436 9.69605 158.052 10.3361C157.679 10.9761 157.167 11.4827 156.516 11.8561C155.876 12.2294 155.156 12.4161 154.356 12.4161C153.577 12.4161 152.873 12.2294 152.244 11.8561C151.615 11.4721 151.113 10.9654 150.74 10.3361C150.367 9.69605 150.18 8.98672 150.18 8.20805C150.18 7.40805 150.361 6.67205 150.724 6.00005C151.087 5.31738 151.583 4.76805 152.212 4.35205C152.852 3.93605 153.588 3.72805 154.42 3.72805C155.316 3.72805 156.079 3.92005 156.708 4.30405C157.337 4.67738 157.812 5.20005 158.132 5.87205C158.463 6.53338 158.628 7.30138 158.628 8.17605ZM169.158 10.4801C169.115 10.0001 169.089 9.52005 169.078 9.04005C169.078 8.54938 169.073 8.05872 169.062 7.56805H168.838C168.507 7.56805 168.139 7.62138 167.734 7.72805C167.339 7.82405 166.961 7.97338 166.598 8.17605C166.235 8.37872 165.937 8.63472 165.702 8.94405C165.478 9.24272 165.366 9.58938 165.366 9.98405C165.366 10.4961 165.51 10.8854 165.798 11.1521C166.086 11.4081 166.475 11.5361 166.966 11.5361C167.201 11.5361 167.457 11.4827 167.734 11.3761C168.011 11.2587 168.278 11.1201 168.534 10.9601C168.79 10.8001 168.998 10.6401 169.158 10.4801ZM171.958 11.5041C171.958 11.5467 171.953 11.5787 171.942 11.6001C171.835 11.8347 171.654 12.0161 171.398 12.1441C171.153 12.2614 170.907 12.3201 170.662 12.3201C170.214 12.3201 169.889 12.1921 169.686 11.9361C169.494 11.6694 169.339 11.3441 169.222 10.9601C168.817 11.3334 168.369 11.6481 167.878 11.9041C167.387 12.1494 166.859 12.2721 166.294 12.2721C165.899 12.2721 165.526 12.1974 165.174 12.0481C164.833 11.8881 164.555 11.6587 164.342 11.3601C164.129 11.0614 164.022 10.6987 164.022 10.2721C164.022 9.82405 164.134 9.44005 164.358 9.12005C164.593 8.78938 164.886 8.51205 165.238 8.28805C165.601 8.05338 165.985 7.86672 166.39 7.72805C166.806 7.57872 167.195 7.46672 167.558 7.39205C167.803 7.33872 168.054 7.29072 168.31 7.24805C168.566 7.20538 168.817 7.16272 169.062 7.12005C169.062 6.82138 169.046 6.47472 169.014 6.08005C168.993 5.68538 168.913 5.36005 168.774 5.10405C168.635 4.85872 168.449 4.64005 168.214 4.44805C167.979 4.25605 167.718 4.16005 167.43 4.16005C166.939 4.16005 166.555 4.28805 166.278 4.54405C166.001 4.80005 165.803 5.16272 165.686 5.63205C165.675 5.68538 165.665 5.74405 165.654 5.80805C165.654 5.86138 165.649 5.91472 165.638 5.96805C165.627 6.03205 165.585 6.09072 165.51 6.14405C165.446 6.18672 165.377 6.20805 165.302 6.20805C165.099 6.20805 164.913 6.16005 164.742 6.06405C164.582 5.96805 164.502 5.80805 164.502 5.58405C164.502 5.45605 164.523 5.34405 164.566 5.24805C164.705 4.91738 164.929 4.64538 165.238 4.43205C165.547 4.20805 165.889 4.03738 166.262 3.92005C166.646 3.80272 167.003 3.74405 167.334 3.74405C167.91 3.74405 168.433 3.85072 168.902 4.06405C169.371 4.27738 169.745 4.59205 170.022 5.00805C170.31 5.41338 170.454 5.92538 170.454 6.54405C170.454 7.23738 170.449 7.93605 170.438 8.64005C170.438 9.34405 170.459 10.0481 170.502 10.7521C170.513 10.9867 170.561 11.1947 170.646 11.3761C170.731 11.5467 170.907 11.6321 171.174 11.6321C171.313 11.6321 171.457 11.6001 171.606 11.5361C171.766 11.4614 171.867 11.4241 171.91 11.4241C171.942 11.4241 171.958 11.4507 171.958 11.5041ZM178.693 6.48005C178.693 6.11738 178.618 5.77605 178.469 5.45605C178.32 5.13605 178.106 4.87472 177.829 4.67205C177.552 4.46938 177.216 4.36805 176.821 4.36805C176.309 4.36805 175.888 4.49072 175.557 4.73605C175.237 4.98138 174.981 5.30138 174.789 5.69605C174.608 6.08005 174.48 6.49605 174.405 6.94405C174.341 7.39205 174.309 7.81872 174.309 8.22405C174.309 8.58672 174.341 8.97605 174.405 9.39205C174.469 9.80805 174.581 10.1974 174.741 10.5601C174.912 10.9227 175.146 11.2214 175.445 11.4561C175.744 11.6801 176.122 11.7921 176.581 11.7921C176.965 11.7921 177.317 11.6747 177.637 11.4401C177.957 11.1947 178.213 10.8907 178.405 10.5281C178.597 10.1654 178.693 9.80805 178.693 9.45605V6.48005ZM181.669 11.7121C181.669 11.7654 181.642 11.8187 181.589 11.8721C181.536 11.9254 181.488 11.9681 181.445 12.0001C181.306 12.1067 181.104 12.1974 180.837 12.2721C180.581 12.3467 180.362 12.3841 180.181 12.3841C179.904 12.3841 179.674 12.3041 179.493 12.1441C179.312 11.9841 179.162 11.7867 179.045 11.5521C178.938 11.3174 178.842 11.0881 178.757 10.8641C178.522 11.2374 178.202 11.5734 177.797 11.8721C177.392 12.1601 176.96 12.3041 176.501 12.3041C176.192 12.3041 175.872 12.2827 175.541 12.2401C175.221 12.1867 174.922 12.0747 174.645 11.9041C174.037 11.5201 173.573 11.0027 173.253 10.3521C172.944 9.69072 172.789 9.01338 172.789 8.32005C172.789 7.48805 172.938 6.74138 173.237 6.08005C173.536 5.40805 173.978 4.88005 174.565 4.49605C175.162 4.10138 175.898 3.90405 176.773 3.90405C176.965 3.90405 177.178 3.94138 177.413 4.01605C177.648 4.09072 177.877 4.18672 178.101 4.30405C178.336 4.41072 178.522 4.52272 178.661 4.64005V1.53605C178.661 1.19472 178.57 1.00272 178.389 0.960051C178.218 0.906717 177.989 0.880051 177.701 0.880051C177.605 0.880051 177.509 0.885384 177.413 0.89605C177.317 0.89605 177.221 0.89605 177.125 0.89605C177.082 0.89605 177.04 0.88005 176.997 0.84805C176.965 0.81605 176.949 0.778717 176.949 0.736051C176.949 0.661384 176.976 0.613384 177.029 0.592051C177.05 0.570717 177.072 0.56005 177.093 0.56005C177.125 0.56005 177.157 0.554717 177.189 0.54405C177.413 0.501383 177.637 0.469384 177.861 0.44805C178.096 0.41605 178.33 0.378717 178.565 0.33605C178.8 0.293383 179.029 0.250717 179.253 0.20805C179.477 0.154716 179.701 0.0960499 179.925 0.0320501C179.936 0.0320501 179.952 0.0267169 179.973 0.0160503C180.005 0.00538381 180.026 5.05447e-05 180.037 5.05447e-05C180.09 5.05447e-05 180.122 0.0213839 180.133 0.0640507C180.144 0.106717 180.149 0.149383 180.149 0.19205C180.149 1.51472 180.144 2.83205 180.133 4.14405C180.122 5.45605 180.117 6.77338 180.117 8.09605V10.4801C180.117 10.6614 180.138 10.8481 180.181 11.0401C180.224 11.2321 180.304 11.3921 180.421 11.5201C180.549 11.6481 180.725 11.7121 180.949 11.7121C181.056 11.7121 181.157 11.6907 181.253 11.6481C181.349 11.6054 181.45 11.5841 181.557 11.5841C181.632 11.5841 181.669 11.6267 181.669 11.7121ZM191.66 11.9201C191.66 12.0481 191.564 12.1441 191.372 12.2081C191.191 12.2721 190.988 12.3147 190.764 12.3361C190.54 12.3574 190.38 12.3681 190.284 12.3681C189.922 12.3681 189.634 12.2241 189.42 11.9361C189.207 11.6481 189.047 11.3494 188.94 11.0401C188.578 11.4987 188.124 11.8401 187.58 12.0641C187.036 12.2881 186.471 12.4001 185.884 12.4001C184.924 12.4001 184.258 12.1547 183.884 11.6641C183.522 11.1627 183.34 10.4587 183.34 9.55205C183.34 8.75205 183.34 7.95205 183.34 7.15205C183.351 6.34138 183.362 5.53605 183.372 4.73605C183.372 4.41605 183.218 4.25605 182.908 4.25605C182.823 4.25605 182.738 4.26138 182.652 4.27205C182.567 4.28272 182.482 4.28805 182.396 4.28805C182.364 4.28805 182.338 4.27205 182.316 4.24005C182.306 4.19738 182.3 4.16538 182.3 4.14405C182.3 4.02672 182.354 3.96272 182.46 3.95205C182.834 3.90938 183.207 3.88272 183.58 3.87205C183.964 3.85072 184.343 3.81872 184.716 3.77605C184.802 3.86138 184.844 3.96805 184.844 4.09605C184.844 4.36272 184.839 4.63472 184.828 4.91205C184.818 5.18938 184.812 5.46672 184.812 5.74405C184.802 6.39472 184.791 7.05072 184.78 7.71205C184.78 8.36272 184.78 9.01872 184.78 9.68005C184.78 9.88272 184.786 10.1014 184.796 10.3361C184.807 10.5601 184.85 10.7681 184.924 10.9601C185.042 11.2587 185.26 11.4721 185.58 11.6001C185.911 11.7174 186.226 11.7761 186.524 11.7761C186.855 11.7761 187.186 11.7174 187.516 11.6001C187.858 11.4721 188.146 11.2907 188.38 11.0561C188.626 10.8107 188.764 10.5067 188.796 10.1441C188.818 9.96272 188.828 9.78138 188.828 9.60005C188.839 9.40805 188.844 9.22138 188.844 9.04005L188.828 4.68805C188.828 4.54938 188.78 4.44805 188.684 4.38405C188.599 4.32005 188.498 4.28805 188.38 4.28805C188.274 4.28805 188.167 4.29338 188.06 4.30405C187.964 4.31472 187.863 4.32005 187.756 4.32005C187.66 4.32005 187.612 4.26672 187.612 4.16005C187.612 4.05338 187.66 3.99472 187.756 3.98405C187.884 3.96272 188.018 3.95205 188.156 3.95205C188.295 3.94138 188.434 3.93072 188.572 3.92005L189.676 3.80805C189.751 3.79738 189.826 3.78672 189.9 3.77605C189.986 3.76538 190.066 3.76005 190.14 3.76005C190.194 3.76005 190.231 3.79205 190.252 3.85605C190.274 3.90938 190.284 3.95205 190.284 3.98405C190.252 6.29872 190.236 8.60805 190.236 10.9121C190.236 11.1787 190.295 11.3974 190.412 11.5681C190.54 11.7387 190.748 11.8241 191.036 11.8241C191.122 11.8241 191.196 11.8134 191.26 11.7921C191.335 11.7707 191.41 11.7601 191.484 11.7601C191.602 11.7601 191.66 11.8134 191.66 11.9201ZM196.859 12.1441C196.859 12.1974 196.843 12.2507 196.811 12.3041C196.79 12.3467 196.747 12.3681 196.683 12.3681C196.352 12.3681 196.016 12.3627 195.675 12.3521C195.334 12.3307 194.992 12.3201 194.651 12.3201H194.091C193.867 12.3201 193.643 12.3307 193.419 12.3521C193.195 12.3627 192.971 12.3681 192.747 12.3681C192.704 12.3681 192.672 12.3521 192.651 12.3201C192.64 12.2774 192.635 12.2401 192.635 12.2081C192.635 12.1761 192.635 12.1441 192.635 12.1121C192.635 12.0801 192.64 12.0481 192.651 12.0161C192.672 11.9734 192.731 11.9521 192.827 11.9521C192.934 11.9414 193.04 11.9414 193.147 11.9521C193.264 11.9521 193.339 11.9521 193.371 11.9521C193.52 11.9521 193.654 11.9201 193.771 11.8561C193.888 11.7814 193.947 11.6587 193.947 11.4881C193.947 10.6667 193.952 9.85072 193.963 9.04005C193.974 8.21872 193.979 7.40272 193.979 6.59205C193.979 5.76005 193.974 4.92805 193.963 4.09605C193.963 3.25338 193.963 2.41605 193.963 1.58405C193.963 1.50938 193.958 1.42938 193.947 1.34405C193.936 1.24805 193.904 1.17338 193.851 1.12005C193.808 1.06672 193.766 1.04005 193.723 1.04005C193.68 1.02938 193.627 1.02405 193.563 1.02405C193.371 1.02405 193.179 1.05605 192.987 1.12005C192.806 1.18405 192.624 1.21605 192.443 1.21605C192.326 1.21605 192.267 1.14672 192.267 1.00805C192.267 0.922717 192.331 0.864051 192.459 0.83205C192.598 0.80005 192.704 0.778717 192.779 0.76805C193.152 0.682717 193.558 0.586717 193.995 0.48005C194.432 0.373384 194.827 0.250717 195.179 0.11205C195.2 0.11205 195.222 0.106717 195.243 0.0960503C195.264 0.0853837 195.28 0.0800505 195.291 0.0800505C195.355 0.0800505 195.392 0.101384 195.403 0.144051C195.424 0.186717 195.435 0.234717 195.435 0.288051C195.435 0.586717 195.43 0.885384 195.419 1.18405C195.419 1.47205 195.419 1.76538 195.419 2.06405V6.54405C195.419 7.36538 195.424 8.19205 195.435 9.02405C195.446 9.84538 195.451 10.6667 195.451 11.4881C195.451 11.6587 195.52 11.7814 195.659 11.8561C195.808 11.9201 195.952 11.9521 196.091 11.9521C196.208 11.9521 196.32 11.9467 196.427 11.9361C196.534 11.9254 196.64 11.9201 196.747 11.9201C196.8 11.9201 196.832 11.9521 196.843 12.0161C196.854 12.0694 196.859 12.1121 196.859 12.1441ZM203.174 11.6161C203.174 11.7121 203.1 11.8081 202.95 11.9041C202.812 12.0001 202.641 12.0854 202.438 12.1601C202.236 12.2347 202.038 12.2934 201.846 12.3361C201.665 12.3787 201.532 12.4001 201.446 12.4001C200.892 12.4001 200.46 12.3307 200.15 12.1921C199.852 12.0534 199.638 11.8241 199.51 11.5041C199.393 11.1841 199.334 10.7521 199.334 10.2081C199.334 9.32272 199.334 8.43738 199.334 7.55205C199.345 6.65605 199.356 5.76538 199.366 4.88005H198.214C198.14 4.88005 198.076 4.90138 198.022 4.94405C197.98 4.97605 197.932 4.99205 197.878 4.99205C197.825 4.99205 197.798 4.95472 197.798 4.88005C197.798 4.83738 197.825 4.75205 197.878 4.62405C197.942 4.49605 197.985 4.41072 198.006 4.36805C198.038 4.37872 198.086 4.38405 198.15 4.38405H199.398L199.414 2.35205C199.66 2.19205 199.884 2.01605 200.086 1.82405C200.289 1.62138 200.492 1.41872 200.694 1.21605C200.716 1.19472 200.737 1.17872 200.758 1.16805C200.78 1.14672 200.801 1.13605 200.822 1.13605C200.918 1.13605 200.966 1.17338 200.966 1.24805L200.87 4.36805C201.212 4.36805 201.548 4.36272 201.878 4.35205C202.22 4.34138 202.556 4.33605 202.886 4.33605C203.025 4.33605 203.094 4.41605 203.094 4.57605C203.094 4.77872 203.004 4.88005 202.822 4.88005H200.87C200.87 5.69072 200.865 6.50672 200.854 7.32805C200.854 8.13872 200.854 8.95472 200.854 9.77605V11.0081C200.854 11.2747 200.966 11.4614 201.19 11.5681C201.414 11.6641 201.633 11.7121 201.846 11.7121C202.145 11.7121 202.438 11.6641 202.726 11.5681C202.758 11.5467 202.806 11.5254 202.87 11.5041C202.934 11.4827 202.982 11.4721 203.014 11.4721C203.121 11.4721 203.174 11.5201 203.174 11.6161ZM210.84 8.12805C210.84 7.66938 210.802 7.21072 210.728 6.75205C210.664 6.28272 210.536 5.85072 210.344 5.45605C210.162 5.06138 209.896 4.74672 209.544 4.51205C209.192 4.26672 208.733 4.14405 208.168 4.14405C207.634 4.14405 207.197 4.27205 206.856 4.52805C206.525 4.78405 206.264 5.11472 206.072 5.52005C205.89 5.92538 205.762 6.36272 205.688 6.83205C205.624 7.30138 205.592 7.74405 205.592 8.16005C205.592 8.61872 205.624 9.07738 205.688 9.53605C205.762 9.99472 205.896 10.4107 206.088 10.7841C206.28 11.1467 206.552 11.4401 206.904 11.6641C207.266 11.8881 207.73 12.0001 208.296 12.0001C208.85 12.0001 209.293 11.8827 209.624 11.6481C209.965 11.4134 210.221 11.1041 210.392 10.7201C210.573 10.3361 210.69 9.92005 210.744 9.47205C210.808 9.01338 210.84 8.56538 210.84 8.12805ZM212.488 8.17605C212.488 8.97605 212.296 9.69605 211.912 10.3361C211.538 10.9761 211.026 11.4827 210.376 11.8561C209.736 12.2294 209.016 12.4161 208.216 12.4161C207.437 12.4161 206.733 12.2294 206.104 11.8561C205.474 11.4721 204.973 10.9654 204.6 10.3361C204.226 9.69605 204.04 8.98672 204.04 8.20805C204.04 7.40805 204.221 6.67205 204.584 6.00005C204.946 5.31738 205.442 4.76805 206.072 4.35205C206.712 3.93605 207.448 3.72805 208.28 3.72805C209.176 3.72805 209.938 3.92005 210.568 4.30405C211.197 4.67738 211.672 5.20005 211.992 5.87205C212.322 6.53338 212.488 7.30138 212.488 8.17605ZM58.1338 35.1121C58.1338 35.2827 58.0538 35.3681 57.8938 35.3681C57.8192 35.3681 57.7392 35.3627 57.6538 35.3521C57.5685 35.3414 57.4832 35.3361 57.3978 35.3361C57.3018 35.3361 57.2005 35.3361 57.0938 35.3361C56.9978 35.3254 56.8965 35.3201 56.7898 35.3201C56.5552 35.3094 56.3152 35.3094 56.0698 35.3201C55.8352 35.3201 55.6005 35.3201 55.3658 35.3201C55.0458 35.3201 54.7312 35.3201 54.4218 35.3201C54.1125 35.3201 53.7978 35.3254 53.4778 35.3361C53.4032 35.3467 53.3072 35.3521 53.1898 35.3521C53.0832 35.3521 52.9978 35.3521 52.9338 35.3521C52.8058 35.3521 52.7418 35.2721 52.7418 35.1121C52.7418 35.0587 52.7472 35.0107 52.7578 34.9681C52.7792 34.9147 52.8218 34.8881 52.8858 34.8881C52.9498 34.8881 53.0085 34.8934 53.0618 34.9041C53.1258 34.9041 53.1898 34.9041 53.2538 34.9041C53.3605 34.9041 53.5152 34.9041 53.7178 34.9041C53.9312 34.8934 54.1285 34.8614 54.3098 34.8081C54.4912 34.7441 54.5818 34.6374 54.5818 34.4881C54.5818 33.6241 54.5872 32.7601 54.5978 31.8961C54.6085 31.0214 54.6138 30.1521 54.6138 29.2881C54.6138 28.5521 54.6138 27.8161 54.6138 27.0801C54.6138 26.3441 54.6138 25.6027 54.6138 24.8561C54.6138 24.7174 54.5445 24.6481 54.4058 24.6481C54.3418 24.6481 54.2085 24.6854 54.0058 24.76C53.8138 24.8347 53.5952 24.9201 53.3498 25.0161C53.1045 25.1121 52.8805 25.1974 52.6778 25.272C52.4858 25.3467 52.3632 25.3841 52.3098 25.3841C52.2138 25.3841 52.1445 25.3414 52.1018 25.2561C52.0698 25.1707 52.0538 25.0907 52.0538 25.0161C52.0538 24.9521 52.0858 24.8987 52.1498 24.8561C52.2138 24.8027 52.2725 24.7707 52.3258 24.76C52.6245 24.6854 52.9072 24.6001 53.1738 24.5041C53.4405 24.3974 53.7178 24.2961 54.0058 24.2001C54.2298 24.1254 54.4645 24.0454 54.7098 23.9601C54.9552 23.8641 55.1845 23.7734 55.3978 23.6881C55.4405 23.6667 55.5152 23.6401 55.6218 23.6081C55.7285 23.5761 55.8352 23.5441 55.9418 23.5121C56.0592 23.4801 56.1285 23.4641 56.1498 23.4641C56.2138 23.4641 56.2618 23.4747 56.2938 23.496C56.3258 23.5067 56.3418 23.5601 56.3418 23.6561C56.3418 23.8907 56.3365 24.1254 56.3258 24.3601C56.3258 24.5841 56.3205 24.8134 56.3098 25.048C56.2992 25.6987 56.2885 26.3867 56.2778 27.1121C56.2778 27.8374 56.2725 28.5521 56.2618 29.2561C56.2618 30.0347 56.2618 30.8081 56.2618 31.5761C56.2618 32.3441 56.2618 33.1174 56.2618 33.8961C56.2618 33.9921 56.2618 34.0934 56.2618 34.2001C56.2725 34.2961 56.2778 34.3921 56.2778 34.4881C56.2885 34.6374 56.3738 34.7441 56.5338 34.8081C56.7045 34.8614 56.8858 34.8881 57.0778 34.8881C57.2805 34.8881 57.4245 34.8881 57.5098 34.8881C57.5952 34.8881 57.6752 34.8827 57.7498 34.8721C57.8245 34.8614 57.8992 34.8561 57.9738 34.8561C58.0378 34.8561 58.0805 34.8881 58.1018 34.9521C58.1232 35.0054 58.1338 35.0587 58.1338 35.1121ZM68.4353 31.2081C68.4353 31.7094 68.334 32.2427 68.1313 32.8081C67.9287 33.3734 67.6353 33.8267 67.2513 34.1681C66.8247 34.5414 66.3127 34.8294 65.7153 35.0321C65.118 35.2347 64.5367 35.3361 63.9713 35.3361C63.7047 35.3361 63.3847 35.3041 63.0113 35.2401C62.638 35.1654 62.27 35.0587 61.9073 34.9201C61.5447 34.7707 61.2407 34.5787 60.9953 34.3441C60.75 34.0987 60.6273 33.8054 60.6273 33.4641C60.6273 33.2294 60.7073 33.0481 60.8673 32.9201C61.0273 32.7814 61.2193 32.7121 61.4433 32.7121C61.6353 32.7121 61.806 32.7601 61.9553 32.8561C62.1047 32.9521 62.1847 33.1067 62.1953 33.3201C62.238 33.8107 62.3767 34.1894 62.6113 34.4561C62.8567 34.7227 63.2407 34.8561 63.7633 34.8561C64.4993 34.8561 65.0967 34.6854 65.5553 34.3441C66.014 33.9921 66.3553 33.4641 66.5793 32.7601C66.654 32.5147 66.6967 32.2641 66.7073 32.0081C66.7287 31.7414 66.7393 31.4801 66.7393 31.2241C66.7393 30.8721 66.6967 30.4934 66.6113 30.0881C66.5367 29.6721 66.3927 29.3201 66.1793 29.0321C65.998 28.7867 65.7633 28.6214 65.4753 28.5361C65.198 28.4507 64.91 28.4081 64.6113 28.4081C64.3767 28.4081 64.1207 28.4507 63.8433 28.5361C63.566 28.6107 63.3367 28.7227 63.1553 28.8721C62.974 29.0214 62.8087 29.2134 62.6593 29.4481C62.51 29.6721 62.4247 29.9067 62.4033 30.1521C62.3927 30.2161 62.382 30.2961 62.3713 30.3921C62.3607 30.4881 62.3073 30.5361 62.2113 30.5361C62.158 30.5361 62.046 30.5147 61.8753 30.4721C61.7153 30.4187 61.5607 30.3601 61.4113 30.2961C61.2727 30.2214 61.2033 30.1574 61.2033 30.1041C61.2033 30.0721 61.2087 30.0401 61.2193 30.0081C61.23 29.9761 61.2407 29.9441 61.2513 29.9121C61.326 29.6667 61.3847 29.3627 61.4273 29.0001C61.4807 28.6267 61.518 28.2374 61.5393 27.8321C61.5607 27.4161 61.5767 27.0161 61.5873 26.6321C61.598 26.2481 61.6033 25.9227 61.6033 25.6561C61.6033 25.0267 61.5713 24.3921 61.5073 23.7521C61.838 23.7947 62.1633 23.8267 62.4833 23.8481C62.814 23.8694 63.1447 23.8801 63.4753 23.8801H65.7633C66.0407 23.8801 66.3607 23.8641 66.7233 23.8321C67.0967 23.8001 67.406 23.7147 67.6513 23.576C67.7047 23.5441 67.7633 23.5121 67.8273 23.4801C67.902 23.4374 67.966 23.416 68.0193 23.416C68.0513 23.416 68.0993 23.4214 68.1633 23.432C68.2273 23.432 68.2593 23.4587 68.2593 23.5121C68.2593 23.5654 68.222 23.6774 68.1473 23.8481C68.0727 24.008 67.9927 24.1734 67.9073 24.3441C67.822 24.5147 67.7633 24.6267 67.7313 24.68C67.6887 24.7547 67.6353 24.8027 67.5713 24.824C67.5073 24.8454 67.4327 24.8561 67.3473 24.8561C67.2087 24.8561 67.0647 24.8561 66.9153 24.8561C66.7767 24.8454 66.6327 24.8347 66.4833 24.824C66.302 24.8027 66.1153 24.7974 65.9233 24.8081C65.7313 24.8081 65.5447 24.8081 65.3633 24.8081C65.0647 24.8081 64.766 24.8081 64.4673 24.8081C64.1687 24.7974 63.8647 24.7921 63.5553 24.7921C63.374 24.7921 63.1873 24.7921 62.9953 24.7921C62.814 24.7921 62.6327 24.7974 62.4513 24.8081C62.4407 25.4801 62.414 26.1574 62.3713 26.8401C62.3393 27.5121 62.3073 28.1841 62.2753 28.8561C62.766 28.5147 63.2193 28.2641 63.6353 28.1041C64.062 27.9334 64.574 27.8481 65.1713 27.8481C65.5767 27.8481 65.966 27.9067 66.3393 28.0241C66.7233 28.1414 67.0647 28.3387 67.3633 28.6161C67.7047 28.9361 67.966 29.3307 68.1473 29.8001C68.3393 30.2694 68.4353 30.7387 68.4353 31.2081ZM80.8008 35.0961C80.8008 35.1387 80.7902 35.1867 80.7688 35.2401C80.7475 35.2934 80.7102 35.3201 80.6568 35.3201C80.3262 35.3201 79.9902 35.3254 79.6488 35.3361C79.3182 35.3361 78.9822 35.3361 78.6408 35.3361C78.4702 35.3361 78.3048 35.3307 78.1448 35.3201C77.9955 35.2987 77.8568 35.2294 77.7288 35.1121C77.6862 35.0801 77.6488 35.0427 77.6168 35.0001C77.5848 34.9574 77.5528 34.9147 77.5208 34.8721C76.1982 33.0267 74.8115 31.2081 73.3608 29.4161L72.8008 29.8801V34.5041C72.8008 34.6854 72.8862 34.8027 73.0568 34.8561C73.2275 34.9094 73.4195 34.9361 73.6328 34.9361C73.8462 34.9254 74.0062 34.9201 74.1128 34.9201C74.2515 34.9201 74.3208 34.9894 74.3208 35.1281C74.3208 35.2667 74.2622 35.3361 74.1448 35.3361C73.7822 35.3361 73.4248 35.3254 73.0728 35.3041C72.7208 35.2827 72.3635 35.2721 72.0008 35.2721C71.6488 35.2721 71.2915 35.2774 70.9288 35.2881C70.5768 35.2987 70.2248 35.3147 69.8728 35.3361C69.7875 35.2827 69.7448 35.2081 69.7448 35.1121C69.7448 35.0374 69.7502 34.9894 69.7608 34.9681C69.7822 34.9467 69.8302 34.9307 69.9048 34.9201C69.9688 34.9094 70.0328 34.9094 70.0968 34.9201C70.1608 34.9201 70.2248 34.9201 70.2888 34.9201C70.3848 34.9201 70.5022 34.9147 70.6408 34.9041C70.7902 34.8934 70.9182 34.8614 71.0248 34.8081C71.1422 34.7441 71.2008 34.6427 71.2008 34.5041V24.456C71.2008 24.3494 71.1262 24.2534 70.9768 24.168C70.8382 24.0827 70.7262 24.0401 70.6408 24.0401H70.2888C70.2142 24.0401 70.1448 24.0454 70.0808 24.0561C70.0168 24.0561 69.9475 24.0561 69.8728 24.0561C69.7662 24.0561 69.7075 24.0241 69.6968 23.9601C69.6862 23.8961 69.6808 23.8267 69.6808 23.7521C69.6808 23.6667 69.7182 23.6241 69.7928 23.6241C70.1662 23.6241 70.5342 23.6347 70.8968 23.6561C71.2702 23.6774 71.6382 23.6881 72.0008 23.6881C72.3422 23.6881 72.6782 23.6774 73.0088 23.6561C73.3502 23.6347 73.6862 23.6241 74.0168 23.6241C74.1448 23.6241 74.2088 23.6987 74.2088 23.8481C74.2088 23.8907 74.1928 23.9387 74.1608 23.9921C74.1395 24.0347 74.1022 24.0561 74.0488 24.0561C73.9315 24.0561 73.8142 24.0561 73.6968 24.0561C73.5795 24.0454 73.4622 24.0401 73.3448 24.0401C73.2275 24.0401 73.1048 24.0774 72.9768 24.1521C72.8595 24.2267 72.8008 24.3281 72.8008 24.456V26.8881C72.8008 27.3041 72.8008 27.7201 72.8008 28.1361C72.8008 28.5521 72.7955 28.9681 72.7848 29.3841C73.8515 28.3814 74.8968 27.3521 75.9208 26.2961C76.3048 25.8907 76.6782 25.4907 77.0408 25.0961C77.4035 24.6907 77.7502 24.2694 78.0808 23.8321C78.1555 23.7254 78.2408 23.6721 78.3368 23.6721C78.4968 23.6721 78.6568 23.6774 78.8168 23.6881C78.9768 23.6881 79.1368 23.6881 79.2968 23.6881C79.4355 23.6881 79.5688 23.6881 79.6968 23.6881C79.8355 23.6774 79.9742 23.6721 80.1128 23.6721C80.1662 23.6721 80.1982 23.6987 80.2088 23.7521C80.2302 23.7947 80.2408 23.8374 80.2408 23.8801C80.2408 23.9227 80.2248 23.9707 80.1928 24.0241C80.1715 24.0667 80.1342 24.088 80.0808 24.088C79.7822 24.088 79.4995 24.1307 79.2328 24.2161C78.9662 24.3014 78.7208 24.4507 78.4968 24.6641L74.5288 28.4401C75.3288 29.4641 76.1395 30.4881 76.9608 31.5121C77.7928 32.5254 78.6462 33.5174 79.5208 34.4881C79.6808 34.6587 79.8568 34.7654 80.0488 34.8081C80.2515 34.8507 80.4275 34.8827 80.5768 34.9041C80.7262 34.9254 80.8008 34.9894 80.8008 35.0961ZM93.0037 30.4241C93.0037 30.4881 92.9877 30.5467 92.9557 30.6001C92.9237 30.6534 92.8704 30.6801 92.7957 30.6801H91.8037V34.1041C91.057 34.3601 90.3157 34.6427 89.5797 34.9521C89.2277 35.1014 88.8544 35.1974 88.4597 35.2401C88.0757 35.2827 87.697 35.3041 87.3237 35.3041C87.0037 35.3041 86.6464 35.2667 86.2517 35.1921C85.857 35.1174 85.473 35.0107 85.0997 34.8721C84.737 34.7334 84.417 34.5734 84.1397 34.3921C83.329 33.8481 82.7264 33.1441 82.3317 32.2801C81.9477 31.4161 81.7557 30.4987 81.7557 29.5281C81.7557 28.7067 81.8837 27.9334 82.1397 27.2081C82.4064 26.4827 82.785 25.8427 83.2757 25.2881C83.7664 24.7334 84.353 24.3014 85.0357 23.9921C85.729 23.6721 86.5024 23.5121 87.3557 23.5121C87.985 23.5121 88.5877 23.5974 89.1637 23.7681C89.2597 23.8001 89.4144 23.8481 89.6277 23.9121C89.841 23.9761 90.0544 24.0401 90.2677 24.1041C90.481 24.1574 90.625 24.1841 90.6997 24.1841C90.9237 24.1841 91.0784 24.1574 91.1637 24.1041C91.249 24.0401 91.313 23.9707 91.3557 23.8961C91.409 23.8214 91.4837 23.7627 91.5797 23.72H91.7077C91.793 23.72 91.841 23.768 91.8517 23.864C91.873 23.9707 91.8784 24.0827 91.8677 24.2001C91.8677 24.3174 91.8677 24.4347 91.8677 24.5521C91.8677 24.8827 91.873 25.2134 91.8837 25.5441C91.905 25.8747 91.9157 26.2107 91.9157 26.5521C91.9157 26.6801 91.9104 26.8294 91.8997 27.0001C91.8997 27.1707 91.8037 27.2561 91.6117 27.2561C91.5477 27.2561 91.489 27.2507 91.4357 27.2401C91.393 27.2187 91.3504 27.1814 91.3077 27.1281C91.297 27.1067 91.2704 27.0481 91.2277 26.9521C91.185 26.8454 91.1424 26.7387 91.0997 26.6321C91.057 26.5147 91.025 26.4347 91.0037 26.3921C90.7157 25.7414 90.2944 25.1974 89.7397 24.76C89.4517 24.5254 89.0837 24.3387 88.6357 24.2001C88.1984 24.0614 87.793 23.9921 87.4197 23.9921C86.705 23.9921 86.097 24.1681 85.5957 24.5201C85.0944 24.8614 84.689 25.3094 84.3797 25.864C84.0704 26.4187 83.8464 27.0161 83.7077 27.6561C83.569 28.2961 83.4997 28.9147 83.4997 29.5121C83.4997 30.1414 83.5744 30.7601 83.7237 31.3681C83.873 31.9761 84.1024 32.5254 84.4117 33.0161C84.7317 33.5067 85.1477 33.9014 85.6597 34.2001C86.1717 34.4881 86.785 34.6321 87.4997 34.6321C87.713 34.6321 87.969 34.6107 88.2677 34.5681C88.5664 34.5254 88.865 34.4507 89.1637 34.3441C89.4624 34.2374 89.7077 34.0934 89.8997 33.9121C90.1024 33.7307 90.2037 33.5014 90.2037 33.2241V31.1121C90.2037 30.9414 90.1184 30.8347 89.9477 30.7921C89.7877 30.7387 89.649 30.7121 89.5317 30.7121C89.3717 30.7121 89.2117 30.7227 89.0517 30.7441C88.8917 30.7547 88.7317 30.7601 88.5717 30.7601C88.4864 30.7601 88.4277 30.7334 88.3957 30.6801C88.3744 30.6267 88.3637 30.5627 88.3637 30.4881C88.3637 30.4241 88.3744 30.3654 88.3957 30.3121C88.417 30.2481 88.4704 30.2161 88.5557 30.2161C88.7264 30.2161 88.8917 30.2214 89.0517 30.2321C89.2117 30.2321 89.377 30.2321 89.5477 30.2321H90.6837C90.865 30.2321 91.0464 30.2321 91.2277 30.2321C91.409 30.2321 91.5904 30.2267 91.7717 30.2161C91.953 30.2161 92.129 30.2107 92.2997 30.2001C92.4704 30.1787 92.641 30.1681 92.8117 30.1681C92.8757 30.1681 92.9237 30.2001 92.9557 30.2641C92.9877 30.3174 93.0037 30.3707 93.0037 30.4241ZM104.768 30.7761C104.768 30.4134 104.746 30.0347 104.704 29.6401C104.661 29.2347 104.57 28.8561 104.432 28.5041C104.293 28.1521 104.085 27.8694 103.808 27.6561C103.53 27.4321 103.152 27.3201 102.672 27.3201C102.384 27.3201 102.074 27.3947 101.744 27.5441C101.424 27.6827 101.141 27.8747 100.896 28.1201C100.661 28.3654 100.528 28.6481 100.496 28.9681C100.474 29.2987 100.464 29.6347 100.464 29.9761C100.464 30.3174 100.464 30.6587 100.464 31.0001C100.464 31.2987 100.464 31.6027 100.464 31.9121C100.474 32.2107 100.485 32.5147 100.496 32.8241C100.528 33.3681 100.704 33.8321 101.024 34.2161C101.344 34.5894 101.797 34.7761 102.384 34.7761C102.938 34.7761 103.376 34.6534 103.696 34.4081C104.016 34.1521 104.25 33.8214 104.4 33.4161C104.56 33.0107 104.661 32.5787 104.704 32.1201C104.746 31.6507 104.768 31.2027 104.768 30.7761ZM106.416 30.7921C106.416 31.6241 106.266 32.3761 105.968 33.0481C105.669 33.7201 105.221 34.2534 104.624 34.6481C104.037 35.0321 103.301 35.2241 102.416 35.2241C102.074 35.2241 101.722 35.1387 101.36 34.9681C101.008 34.7867 100.709 34.5787 100.464 34.3441V37.7521C100.464 37.9014 100.522 37.9867 100.64 38.0081C100.768 38.0294 100.885 38.0401 100.992 38.0401C101.088 38.0401 101.184 38.0347 101.28 38.0241C101.376 38.0134 101.472 38.0081 101.568 38.0081C101.706 38.0081 101.776 38.0774 101.776 38.2161C101.776 38.3761 101.696 38.4561 101.536 38.4561C101.205 38.4561 100.874 38.4454 100.544 38.4241C100.213 38.4027 99.8824 38.3921 99.5517 38.3921C99.2744 38.3921 98.997 38.4027 98.7197 38.4241C98.453 38.4454 98.181 38.4561 97.9037 38.4561C97.829 38.4561 97.781 38.4294 97.7597 38.3761C97.749 38.3227 97.7437 38.2747 97.7437 38.2321C97.7437 38.0827 97.8184 38.0081 97.9677 38.0081C98.053 38.0081 98.1384 38.0081 98.2237 38.0081C98.309 38.0187 98.3944 38.0241 98.4797 38.0241C98.5544 38.0241 98.661 38.0134 98.7997 37.9921C98.949 37.9707 99.0237 37.9067 99.0237 37.8001C99.0237 36.6907 99.0237 35.5761 99.0237 34.4561C99.0344 33.3361 99.0397 32.2214 99.0397 31.1121C99.0397 30.6107 99.0344 30.1147 99.0237 29.6241C99.0237 29.1334 99.0184 28.6427 99.0077 28.1521C98.997 27.9174 98.9544 27.7574 98.8797 27.6721C98.805 27.5761 98.645 27.5281 98.3997 27.5281C98.293 27.5281 98.1864 27.5441 98.0797 27.5761C97.973 27.5974 97.8664 27.6081 97.7597 27.6081C97.6424 27.6081 97.5837 27.5547 97.5837 27.4481C97.5837 27.3521 97.6317 27.2881 97.7277 27.2561C97.749 27.2454 97.845 27.2241 98.0157 27.192C98.1864 27.1601 98.389 27.1227 98.6237 27.0801C98.869 27.0267 99.109 26.9787 99.3437 26.9361C99.5784 26.8934 99.7757 26.8561 99.9357 26.824C100.096 26.7921 100.181 26.7761 100.192 26.7761C100.277 26.7761 100.336 26.8294 100.368 26.9361C100.389 27.0001 100.4 27.1174 100.4 27.2881C100.41 27.4481 100.416 27.6134 100.416 27.7841C100.416 27.9441 100.416 28.0667 100.416 28.1521C100.714 27.7574 101.093 27.4321 101.552 27.1761C102.021 26.9094 102.506 26.7761 103.008 26.7761C103.744 26.7761 104.362 26.9734 104.864 27.3681C105.376 27.7521 105.76 28.2534 106.016 28.8721C106.282 29.4801 106.416 30.1201 106.416 30.7921ZM114.566 31.1281C114.566 30.6694 114.529 30.2107 114.454 29.7521C114.39 29.2827 114.262 28.8507 114.07 28.4561C113.889 28.0614 113.622 27.7467 113.27 27.5121C112.918 27.2667 112.459 27.1441 111.894 27.1441C111.361 27.1441 110.923 27.2721 110.582 27.5281C110.251 27.7841 109.99 28.1147 109.798 28.5201C109.617 28.9254 109.489 29.3627 109.414 29.8321C109.35 30.3014 109.318 30.7441 109.318 31.1601C109.318 31.6187 109.35 32.0774 109.414 32.5361C109.489 32.9947 109.622 33.4107 109.814 33.7841C110.006 34.1467 110.278 34.4401 110.63 34.6641C110.993 34.8881 111.457 35.0001 112.022 35.0001C112.577 35.0001 113.019 34.8827 113.35 34.6481C113.691 34.4134 113.947 34.1041 114.118 33.7201C114.299 33.3361 114.417 32.9201 114.47 32.4721C114.534 32.0134 114.566 31.5654 114.566 31.1281ZM116.214 31.1761C116.214 31.9761 116.022 32.6961 115.638 33.3361C115.265 33.9761 114.753 34.4827 114.102 34.8561C113.462 35.2294 112.742 35.4161 111.942 35.4161C111.163 35.4161 110.459 35.2294 109.83 34.8561C109.201 34.4721 108.699 33.9654 108.326 33.3361C107.953 32.6961 107.766 31.9867 107.766 31.2081C107.766 30.4081 107.947 29.6721 108.31 29.0001C108.673 28.3174 109.169 27.7681 109.798 27.3521C110.438 26.9361 111.174 26.7281 112.006 26.7281C112.902 26.7281 113.665 26.9201 114.294 27.3041C114.923 27.6774 115.398 28.2001 115.718 28.8721C116.049 29.5334 116.214 30.3014 116.214 31.1761ZM123.912 28.2321C123.912 28.3387 123.869 28.4401 123.784 28.5361C123.709 28.6214 123.613 28.6641 123.496 28.6641C123.336 28.6641 123.219 28.6107 123.144 28.5041C123.08 28.3974 123.021 28.2747 122.968 28.1361C122.925 27.9974 122.856 27.8747 122.76 27.7681C122.664 27.6614 122.504 27.6081 122.28 27.6081C122.237 27.6081 122.195 27.6081 122.152 27.6081C122.12 27.6081 122.083 27.6134 122.04 27.6241C121.859 27.6561 121.661 27.7681 121.448 27.9601C121.235 28.1521 121.027 28.3814 120.824 28.6481C120.632 28.9041 120.472 29.1601 120.344 29.4161C120.216 29.6721 120.147 29.8854 120.136 30.0561C120.125 30.2267 120.12 30.3974 120.12 30.5681C120.12 30.7281 120.12 30.8881 120.12 31.0481C120.12 31.6241 120.12 32.2001 120.12 32.7761C120.131 33.3521 120.136 33.9227 120.136 34.4881C120.136 34.6481 120.2 34.7654 120.328 34.8401C120.467 34.9041 120.605 34.9361 120.744 34.9361C120.851 34.9361 120.957 34.9307 121.064 34.9201C121.171 34.9094 121.277 34.9041 121.384 34.9041C121.437 34.9041 121.475 34.9307 121.496 34.9841C121.517 35.0267 121.528 35.0694 121.528 35.1121C121.528 35.2827 121.443 35.3681 121.272 35.3681C120.952 35.3681 120.632 35.3627 120.312 35.3521C119.992 35.3307 119.672 35.3201 119.352 35.3201C119.021 35.3201 118.685 35.3307 118.344 35.3521C118.013 35.3734 117.677 35.3841 117.336 35.3841C117.293 35.3841 117.261 35.3521 117.24 35.2881C117.229 35.2241 117.224 35.1707 117.224 35.1281C117.224 35.0214 117.267 34.9627 117.352 34.9521C117.469 34.9307 117.592 34.9254 117.72 34.9361C117.848 34.9467 117.965 34.9521 118.072 34.9521C118.232 34.9521 118.36 34.9201 118.456 34.8561C118.563 34.7814 118.621 34.6587 118.632 34.4881C118.653 34.1467 118.664 33.8001 118.664 33.4481C118.675 33.0961 118.68 32.7441 118.68 32.3921V30.8401C118.669 30.3814 118.664 29.9281 118.664 29.4801C118.675 29.0214 118.659 28.5681 118.616 28.1201C118.605 27.9067 118.547 27.7574 118.44 27.6721C118.333 27.5761 118.173 27.5281 117.96 27.5281C117.875 27.5281 117.784 27.5387 117.688 27.5601C117.603 27.5707 117.512 27.5761 117.416 27.5761C117.331 27.5761 117.288 27.5121 117.288 27.3841C117.288 27.3094 117.325 27.2561 117.4 27.2241C117.507 27.1921 117.619 27.1707 117.736 27.1601C117.853 27.1387 117.965 27.1227 118.072 27.1121C118.36 27.0587 118.648 27.0054 118.936 26.9521C119.224 26.8987 119.512 26.8347 119.8 26.7601C119.896 26.7921 119.965 26.8507 120.008 26.9361C120.029 26.9787 120.045 27.0961 120.056 27.2881C120.067 27.4801 120.072 27.7041 120.072 27.9601C120.072 28.2054 120.072 28.4401 120.072 28.6641C120.072 28.8774 120.072 29.0267 120.072 29.1121C120.307 28.7387 120.573 28.3654 120.872 27.9921C121.171 27.6187 121.512 27.3094 121.896 27.0641C122.28 26.8187 122.712 26.6961 123.192 26.6961C123.448 26.6961 123.613 26.7761 123.688 26.9361C123.763 27.0961 123.811 27.2827 123.832 27.4961C123.853 27.6134 123.869 27.7361 123.88 27.8641C123.901 27.9921 123.912 28.1147 123.912 28.2321ZM134.685 33.0641C134.685 33.5441 134.579 33.9387 134.365 34.2481C134.152 34.5467 133.875 34.7761 133.533 34.9361C133.192 35.0961 132.819 35.2081 132.413 35.2721C132.008 35.3361 131.613 35.3681 131.229 35.3681C130.877 35.3681 130.525 35.3307 130.173 35.2561C129.832 35.1814 129.485 35.1281 129.133 35.0961C129.059 34.8081 128.984 34.5201 128.909 34.2321C128.845 33.9441 128.771 33.6614 128.685 33.3841C128.675 33.3521 128.648 33.2774 128.605 33.1601C128.573 33.0427 128.557 32.9787 128.557 32.9681C128.557 32.8827 128.584 32.8241 128.637 32.7921C128.691 32.7494 128.755 32.7281 128.829 32.7281C128.904 32.7281 128.957 32.7547 128.989 32.8081C129.053 32.8827 129.107 32.9841 129.149 33.1121C129.203 33.2401 129.251 33.3521 129.293 33.4481C129.379 33.6187 129.453 33.7521 129.517 33.8481C129.581 33.9334 129.683 34.0454 129.821 34.1841C130.237 34.6214 130.755 34.8401 131.373 34.8401C131.715 34.8401 132.024 34.8027 132.301 34.7281C132.589 34.6534 132.819 34.5147 132.989 34.3121C133.16 34.0987 133.245 33.7947 133.245 33.4001C133.245 33.0587 133.139 32.7761 132.925 32.5521C132.712 32.3174 132.435 32.1094 132.093 31.9281C131.763 31.7467 131.411 31.5707 131.037 31.4001C130.664 31.2294 130.307 31.0427 129.965 30.8401C129.635 30.6267 129.363 30.3707 129.149 30.0721C128.936 29.7734 128.829 29.4107 128.829 28.9841C128.829 28.4614 128.963 28.0347 129.229 27.7041C129.507 27.3734 129.859 27.1281 130.285 26.9681C130.712 26.7974 131.155 26.7121 131.613 26.7121C131.912 26.7121 132.179 26.7494 132.413 26.824C132.659 26.8987 132.915 26.9841 133.181 27.0801C133.267 27.1121 133.352 27.1334 133.437 27.1441C133.523 27.1547 133.608 27.1601 133.693 27.1601C133.747 27.1601 133.795 27.1601 133.837 27.1601C133.88 27.1601 133.923 27.1547 133.965 27.1441C133.997 27.3361 134.024 27.5334 134.045 27.7361C134.077 27.9281 134.104 28.1254 134.125 28.3281C134.136 28.4027 134.147 28.4934 134.157 28.6001C134.179 28.6961 134.189 28.7867 134.189 28.8721C134.189 28.9467 134.173 29.0267 134.141 29.1121C134.109 29.1867 134.045 29.2241 133.949 29.2241C133.875 29.2241 133.811 29.2187 133.757 29.2081C133.715 29.1867 133.677 29.1387 133.645 29.0641C133.592 28.9574 133.544 28.8454 133.501 28.7281C133.469 28.6001 133.432 28.4827 133.389 28.3761C133.251 28.0027 133.011 27.7041 132.669 27.4801C132.328 27.2454 131.96 27.1281 131.565 27.1281C131.064 27.1281 130.685 27.2774 130.429 27.5761C130.173 27.8641 130.045 28.2534 130.045 28.7441C130.045 28.9147 130.088 29.0801 130.173 29.2401C130.269 29.4001 130.376 29.5387 130.493 29.6561C130.717 29.8694 130.979 30.0347 131.277 30.1521C131.587 30.2694 131.88 30.3867 132.157 30.5041C132.52 30.6641 132.893 30.8561 133.277 31.0801C133.672 31.3041 134.003 31.5761 134.269 31.8961C134.547 32.2161 134.685 32.6054 134.685 33.0641ZM140.994 33.4801C140.951 33.0001 140.925 32.5201 140.914 32.0401C140.914 31.5494 140.909 31.0587 140.898 30.5681H140.674C140.343 30.5681 139.975 30.6214 139.57 30.7281C139.175 30.8241 138.797 30.9734 138.434 31.1761C138.071 31.3787 137.773 31.6347 137.538 31.9441C137.314 32.2427 137.202 32.5894 137.202 32.9841C137.202 33.4961 137.346 33.8854 137.634 34.1521C137.922 34.4081 138.311 34.5361 138.802 34.5361C139.037 34.5361 139.293 34.4827 139.57 34.3761C139.847 34.2587 140.114 34.1201 140.37 33.9601C140.626 33.8001 140.834 33.6401 140.994 33.4801ZM143.794 34.5041C143.794 34.5467 143.789 34.5787 143.778 34.6001C143.671 34.8347 143.49 35.0161 143.234 35.1441C142.989 35.2614 142.743 35.3201 142.498 35.3201C142.05 35.3201 141.725 35.1921 141.522 34.9361C141.33 34.6694 141.175 34.3441 141.058 33.9601C140.653 34.3334 140.205 34.6481 139.714 34.9041C139.223 35.1494 138.695 35.2721 138.13 35.2721C137.735 35.2721 137.362 35.1974 137.01 35.0481C136.669 34.8881 136.391 34.6587 136.178 34.3601C135.965 34.0614 135.858 33.6987 135.858 33.2721C135.858 32.8241 135.97 32.4401 136.194 32.1201C136.429 31.7894 136.722 31.5121 137.074 31.2881C137.437 31.0534 137.821 30.8667 138.226 30.7281C138.642 30.5787 139.031 30.4667 139.394 30.3921C139.639 30.3387 139.89 30.2907 140.146 30.2481C140.402 30.2054 140.653 30.1627 140.898 30.1201C140.898 29.8214 140.882 29.4747 140.85 29.0801C140.829 28.6854 140.749 28.3601 140.61 28.1041C140.471 27.8587 140.285 27.6401 140.05 27.4481C139.815 27.2561 139.554 27.1601 139.266 27.1601C138.775 27.1601 138.391 27.2881 138.114 27.5441C137.837 27.8001 137.639 28.1627 137.522 28.6321C137.511 28.6854 137.501 28.7441 137.49 28.8081C137.49 28.8614 137.485 28.9147 137.474 28.9681C137.463 29.0321 137.421 29.0907 137.346 29.1441C137.282 29.1867 137.213 29.2081 137.138 29.2081C136.935 29.2081 136.749 29.1601 136.578 29.0641C136.418 28.9681 136.338 28.8081 136.338 28.5841C136.338 28.4561 136.359 28.3441 136.402 28.2481C136.541 27.9174 136.765 27.6454 137.074 27.4321C137.383 27.2081 137.725 27.0374 138.098 26.9201C138.482 26.8027 138.839 26.7441 139.17 26.7441C139.746 26.7441 140.269 26.8507 140.738 27.0641C141.207 27.2774 141.581 27.5921 141.858 28.0081C142.146 28.4134 142.29 28.9254 142.29 29.5441C142.29 30.2374 142.285 30.9361 142.274 31.6401C142.274 32.3441 142.295 33.0481 142.338 33.7521C142.349 33.9867 142.397 34.1947 142.482 34.3761C142.567 34.5467 142.743 34.6321 143.01 34.6321C143.149 34.6321 143.293 34.6001 143.442 34.5361C143.602 34.4614 143.703 34.4241 143.746 34.4241C143.778 34.4241 143.794 34.4507 143.794 34.5041ZM152.305 33.3681C152.305 33.4427 152.246 33.5494 152.129 33.6881C152.012 33.8161 151.926 33.9067 151.873 33.9601C151.777 34.0561 151.681 34.1521 151.585 34.2481C151.489 34.3441 151.382 34.4347 151.265 34.5201C150.934 34.7547 150.54 34.9574 150.081 35.1281C149.622 35.2881 149.19 35.3681 148.785 35.3681C147.974 35.3681 147.26 35.1921 146.641 34.8401C146.033 34.4774 145.553 33.9867 145.201 33.3681C144.86 32.7387 144.689 32.0241 144.689 31.2241C144.689 30.4347 144.849 29.6934 145.169 29.0001C145.489 28.3067 145.996 27.7467 146.689 27.3201C146.988 27.1387 147.318 26.9947 147.681 26.8881C148.054 26.7814 148.412 26.7281 148.753 26.7281C149.02 26.7281 149.276 26.7601 149.521 26.824C149.777 26.8881 150.022 26.9734 150.257 27.0801C150.396 27.1441 150.529 27.2081 150.657 27.2721C150.785 27.3361 150.924 27.3681 151.073 27.3681C151.201 27.3681 151.302 27.3307 151.377 27.2561C151.462 27.1707 151.526 27.1281 151.569 27.1281C151.601 27.1281 151.617 27.1494 151.617 27.192C151.638 27.3201 151.644 27.4481 151.633 27.5761C151.633 27.7041 151.638 27.8267 151.649 27.9441C151.66 28.1787 151.67 28.4134 151.681 28.6481C151.692 28.8827 151.702 29.1174 151.713 29.3521V29.4001C151.724 29.5174 151.713 29.6081 151.681 29.6721C151.649 29.7361 151.564 29.7681 151.425 29.7681C151.35 29.7681 151.297 29.7254 151.265 29.6401C151.244 29.5547 151.222 29.4801 151.201 29.4161C151.126 29.1067 151.014 28.7761 150.865 28.4241C150.716 28.0721 150.513 27.7894 150.257 27.5761C150.097 27.4267 149.894 27.3041 149.649 27.2081C149.414 27.1121 149.19 27.0641 148.977 27.0641C148.465 27.0641 148.028 27.1974 147.665 27.4641C147.313 27.7201 147.03 28.0561 146.817 28.4721C146.604 28.8774 146.444 29.3147 146.337 29.7841C146.241 30.2534 146.193 30.6961 146.193 31.1121C146.193 31.5281 146.241 31.9547 146.337 32.3921C146.433 32.8187 146.582 33.2187 146.785 33.5921C146.998 33.9654 147.276 34.2641 147.617 34.4881C147.969 34.7121 148.39 34.8241 148.881 34.8241C149.564 34.8241 150.134 34.7014 150.593 34.4561C151.052 34.2001 151.494 33.8107 151.921 33.2881C151.964 33.2134 152.022 33.1761 152.097 33.1761C152.236 33.1761 152.305 33.2401 152.305 33.3681ZM160.082 31.1281C160.082 30.6694 160.044 30.2107 159.97 29.7521C159.906 29.2827 159.778 28.8507 159.586 28.4561C159.404 28.0614 159.138 27.7467 158.786 27.5121C158.434 27.2667 157.975 27.1441 157.41 27.1441C156.876 27.1441 156.439 27.2721 156.098 27.5281C155.767 27.7841 155.506 28.1147 155.314 28.5201C155.132 28.9254 155.004 29.3627 154.93 29.8321C154.866 30.3014 154.834 30.7441 154.834 31.1601C154.834 31.6187 154.866 32.0774 154.93 32.5361C155.004 32.9947 155.138 33.4107 155.33 33.7841C155.522 34.1467 155.794 34.4401 156.146 34.6641C156.508 34.8881 156.972 35.0001 157.538 35.0001C158.092 35.0001 158.535 34.8827 158.866 34.6481C159.207 34.4134 159.463 34.1041 159.634 33.7201C159.815 33.3361 159.932 32.9201 159.986 32.4721C160.05 32.0134 160.082 31.5654 160.082 31.1281ZM161.73 31.1761C161.73 31.9761 161.538 32.6961 161.154 33.3361C160.78 33.9761 160.268 34.4827 159.618 34.8561C158.978 35.2294 158.258 35.4161 157.458 35.4161C156.679 35.4161 155.975 35.2294 155.346 34.8561C154.716 34.4721 154.215 33.9654 153.842 33.3361C153.468 32.6961 153.282 31.9867 153.282 31.2081C153.282 30.4081 153.463 29.6721 153.826 29.0001C154.188 28.3174 154.684 27.7681 155.314 27.3521C155.954 26.9361 156.69 26.7281 157.522 26.7281C158.418 26.7281 159.18 26.9201 159.81 27.3041C160.439 27.6774 160.914 28.2001 161.234 28.8721C161.564 29.5334 161.73 30.3014 161.73 31.1761Z" fill="black"/>
</svg>
