<svg width="33" height="9" viewBox="0 0 33 9" fill="none" xmlns="http://www.w3.org/2000/svg">
<path d="M10.932 8.64011C10.932 8.74411 10.884 8.79611 10.788 8.79611C10.492 8.79611 10.2 8.78811 9.912 8.77211C9.624 8.75611 9.336 8.74811 9.048 8.74811C8.912 8.74811 8.776 8.75211 8.64 8.76011C8.504 8.76011 8.368 8.76411 8.232 8.77211C8.096 8.78011 7.96 8.79211 7.824 8.80811C7.696 8.81611 7.564 8.82011 7.428 8.82011C7.356 8.82011 7.308 8.80011 7.284 8.76011C7.268 8.71211 7.26 8.66011 7.26 8.60411C7.26 8.57211 7.268 8.54011 7.284 8.50811C7.3 8.46811 7.328 8.44811 7.368 8.44811C7.392 8.44011 7.428 8.43611 7.476 8.43611C7.532 8.43611 7.588 8.44011 7.644 8.44811C7.708 8.44811 7.768 8.44811 7.824 8.44811C7.936 8.44811 8.06 8.43611 8.196 8.41211C8.34 8.38811 8.42 8.30011 8.436 8.14811C8.444 8.12411 8.444 8.10011 8.436 8.07611C8.436 8.05211 8.436 8.02811 8.436 8.00411V0.648105H8.364C8.06 1.47211 7.744 2.29211 7.416 3.10811C7.088 3.91611 6.76 4.72411 6.432 5.53211C6.304 5.86011 6.172 6.18811 6.036 6.51611C5.9 6.84411 5.764 7.17211 5.628 7.50011C5.572 7.64411 5.516 7.79211 5.46 7.94411C5.412 8.09611 5.352 8.24011 5.28 8.37611C5.224 8.46411 5.136 8.50811 5.016 8.50811C4.904 8.50811 4.82 8.46411 4.764 8.37611C4.7 8.25611 4.64 8.12811 4.584 7.99211C4.536 7.85611 4.484 7.72411 4.428 7.59611C4.308 7.31611 4.192 7.04011 4.08 6.76811C3.968 6.49611 3.856 6.22411 3.744 5.95211C3.376 5.07211 3.008 4.19611 2.64 3.32411C2.28 2.44411 1.92 1.5681 1.56 0.696105C1.56 1.93611 1.56 3.18011 1.56 4.42811C1.568 5.66811 1.572 6.90811 1.572 8.14811C1.572 8.30811 1.64 8.40011 1.776 8.42411C1.92 8.44811 2.052 8.46011 2.172 8.46011C2.252 8.46011 2.332 8.45611 2.412 8.44811C2.492 8.44011 2.572 8.43611 2.652 8.43611C2.692 8.43611 2.712 8.46011 2.712 8.50811C2.712 8.54811 2.708 8.60411 2.7 8.67611C2.692 8.74811 2.66 8.78411 2.604 8.78411C2.388 8.78411 2.168 8.78011 1.944 8.77211C1.728 8.75611 1.512 8.74811 1.296 8.74811C1.088 8.74811 0.876 8.75611 0.66 8.77211C0.452 8.78011 0.244 8.78411 0.036 8.78411C0.028 8.76811 0.02 8.75611 0.012 8.74811C0.012 8.73211 0.00799999 8.72011 0 8.71211V8.60411C0 8.52411 0.016 8.48011 0.048 8.47211C0.08 8.46411 0.124 8.46011 0.18 8.46011C0.244 8.46011 0.304 8.46411 0.36 8.47211C0.416 8.47211 0.472 8.47211 0.528 8.47211C0.648 8.47211 0.776 8.45611 0.912 8.42411C1.048 8.39211 1.12 8.30011 1.128 8.14811C1.144 8.02011 1.148 7.89211 1.14 7.76411C1.14 7.62811 1.14 7.49611 1.14 7.36811C1.14 7.11211 1.136 6.85611 1.128 6.60011C1.128 6.33611 1.128 6.07611 1.128 5.82011C1.128 4.96411 1.132 4.11211 1.14 3.26411C1.156 2.41611 1.164 1.56811 1.164 0.720105C1.164 0.568105 1.092 0.468105 0.948 0.420105C0.804 0.372105 0.672 0.348105 0.552 0.348105C0.48 0.348105 0.408 0.352105 0.336 0.360105C0.264 0.368105 0.192 0.372105 0.12 0.372105C0.072 0.372105 0.04 0.348105 0.024 0.300105C0.00799999 0.252105 0 0.212105 0 0.180105C0 0.068105 0.044 0.012105 0.132 0.012105C0.34 0.012105 0.552 0.0201051 0.768 0.0361054C0.984 0.0441053 1.196 0.0481052 1.404 0.0481052C1.812 0.0481052 2.22 0.0361052 2.628 0.012105L5.472 6.85211C5.912 5.70811 6.372 4.57611 6.852 3.45611C7.332 2.32811 7.776 1.18811 8.184 0.0361054C8.384 0.0441053 8.58 0.0521052 8.772 0.0601051C8.972 0.0601051 9.172 0.0601051 9.372 0.0601051C9.612 0.0601051 9.848 0.0521052 10.08 0.0361054C10.32 0.0121052 10.56 0.000105143 10.8 0.000105143C10.848 0.000105143 10.876 0.0241051 10.884 0.0721049C10.892 0.120105 10.896 0.160105 10.896 0.192105C10.896 0.224105 10.892 0.264105 10.884 0.312105C10.876 0.360105 10.848 0.384105 10.8 0.384105C10.696 0.384105 10.596 0.380105 10.5 0.372105C10.404 0.364105 10.308 0.360105 10.212 0.360105C10.116 0.360105 9.996 0.384105 9.852 0.432105C9.716 0.472105 9.648 0.552105 9.648 0.672105V8.05211C9.648 8.23611 9.7 8.35211 9.804 8.40011C9.916 8.44011 10.056 8.46011 10.224 8.46011C10.32 8.46011 10.416 8.45611 10.512 8.44811C10.608 8.44011 10.708 8.43611 10.812 8.43611C10.876 8.43611 10.912 8.46011 10.92 8.50811C10.928 8.55611 10.932 8.60011 10.932 8.64011ZM15.9872 4.59611C15.9792 4.26811 15.9512 3.95611 15.9032 3.66011C15.8552 3.35611 15.7392 3.10811 15.5552 2.91611C15.3712 2.71611 15.0712 2.61611 14.6552 2.61611C14.2792 2.61611 13.9712 2.72011 13.7312 2.92811C13.4992 3.12811 13.3192 3.38411 13.1912 3.69611C13.0632 4.00011 12.9672 4.31211 12.9032 4.63211C13.1032 4.64011 13.2992 4.64811 13.4912 4.65611C13.6832 4.65611 13.8752 4.65611 14.0672 4.65611C14.3872 4.65611 14.7072 4.65211 15.0272 4.64411C15.3472 4.62811 15.6672 4.61211 15.9872 4.59611ZM17.3672 7.34411C17.3672 7.38411 17.3592 7.40811 17.3432 7.41611C17.3192 7.49611 17.2592 7.59211 17.1632 7.70411C17.0752 7.81611 16.9752 7.92411 16.8632 8.02811C16.7512 8.12411 16.6592 8.19611 16.5872 8.24411C16.3232 8.42811 16.0232 8.57611 15.6872 8.68811C15.3592 8.80011 15.0312 8.85611 14.7032 8.85611C14.4312 8.85611 14.1272 8.81211 13.7912 8.72411C13.4632 8.63611 13.1832 8.51611 12.9512 8.36411C12.5032 8.06811 12.1752 7.68011 11.9672 7.20011C11.7592 6.72011 11.6552 6.22011 11.6552 5.70011C11.6552 5.10811 11.7712 4.56011 12.0032 4.05611C12.2352 3.55211 12.6072 3.14411 13.1192 2.83211C13.3512 2.69611 13.6112 2.58411 13.8992 2.49611C14.1872 2.4001 14.4632 2.3521 14.7272 2.3521C15.1992 2.3521 15.6152 2.44811 15.9752 2.64011C16.3352 2.83211 16.6152 3.10411 16.8152 3.45611C17.0232 3.80011 17.1272 4.21211 17.1272 4.69211C17.1272 4.82811 17.0952 4.91611 17.0312 4.95611C16.9752 4.99611 16.8872 5.01611 16.7672 5.01611C16.6072 5.01611 16.4472 5.01211 16.2872 5.00411C16.1272 4.99611 15.9672 4.98811 15.8072 4.98011C15.5832 4.96411 15.3592 4.95611 15.1352 4.95611C14.9192 4.95611 14.6992 4.95611 14.4752 4.95611C14.2032 4.95611 13.9312 4.95611 13.6592 4.95611C13.3872 4.95611 13.1152 4.96411 12.8432 4.98011C12.8352 5.10811 12.8272 5.23211 12.8192 5.35211C12.8112 5.47211 12.8072 5.59611 12.8072 5.72411C12.8072 6.02011 12.8432 6.32811 12.9152 6.64811C12.9872 6.96011 13.1032 7.25211 13.2632 7.52411C13.4232 7.78811 13.6272 8.00411 13.8752 8.17211C14.1232 8.33211 14.4232 8.41211 14.7752 8.41211C15.1352 8.41211 15.4792 8.35611 15.8072 8.24411C16.1352 8.13211 16.4352 7.95211 16.7072 7.70411C16.7792 7.63211 16.8432 7.55611 16.8992 7.47611C16.9632 7.38811 17.0312 7.31211 17.1032 7.24811C17.1432 7.20811 17.1872 7.18811 17.2352 7.18811C17.2752 7.18811 17.3072 7.20411 17.3312 7.23611C17.3552 7.26811 17.3672 7.30411 17.3672 7.34411ZM25.0343 8.62811C25.0343 8.73211 24.9743 8.78411 24.8543 8.78411C24.6783 8.78411 24.4983 8.78011 24.3143 8.77211C24.1303 8.75611 23.9463 8.74811 23.7623 8.74811C23.4903 8.74811 23.2103 8.75611 22.9223 8.77211C22.6423 8.78011 22.3623 8.78411 22.0823 8.78411C22.0503 8.78411 22.0303 8.76011 22.0223 8.71211C22.0143 8.65611 22.0103 8.61211 22.0103 8.58011C22.0103 8.51611 22.0503 8.48411 22.1303 8.48411C22.2103 8.48411 22.2743 8.48411 22.3223 8.48411C22.3623 8.48411 22.4023 8.48811 22.4423 8.49611C22.4903 8.49611 22.5343 8.49611 22.5743 8.49611C22.8063 8.49611 22.9343 8.38011 22.9583 8.14811C22.9823 7.67611 22.9903 7.20011 22.9823 6.72011C22.9823 6.24011 22.9823 5.76411 22.9823 5.29211C22.9823 5.20411 22.9823 5.11611 22.9823 5.02811C22.9823 4.93211 22.9823 4.84011 22.9823 4.75211C22.9743 4.56811 22.9623 4.34411 22.9463 4.08011C22.9303 3.80811 22.8943 3.58811 22.8383 3.42011C22.7103 3.0041 22.4303 2.7961 21.9983 2.7961C21.6063 2.7961 21.2463 2.89611 20.9183 3.09611C20.5903 3.29611 20.3063 3.54811 20.0663 3.85211C20.0583 4.43611 20.0543 5.01611 20.0543 5.59211C20.0543 6.16811 20.0543 6.74411 20.0543 7.32011V8.14811C20.0543 8.26811 20.1063 8.35611 20.2103 8.41211C20.3143 8.46811 20.4183 8.49611 20.5223 8.49611C20.5863 8.49611 20.6463 8.49211 20.7023 8.48411C20.7663 8.46811 20.8263 8.46011 20.8823 8.46011C20.9143 8.46011 20.9343 8.48011 20.9423 8.52011C20.9503 8.56011 20.9543 8.59211 20.9543 8.61611C20.9543 8.64811 20.9423 8.68411 20.9183 8.72411C20.9023 8.76411 20.8703 8.78411 20.8223 8.78411C20.6463 8.78411 20.4703 8.78011 20.2943 8.77211C20.1263 8.75611 19.9543 8.74811 19.7783 8.74811C19.5063 8.74811 19.2343 8.75611 18.9623 8.77211C18.6903 8.78011 18.4143 8.78411 18.1343 8.78411C18.0942 8.78411 18.0702 8.76011 18.0623 8.71211C18.0623 8.65611 18.0623 8.61211 18.0623 8.58011C18.0623 8.51611 18.0983 8.48411 18.1702 8.48411C18.2422 8.48411 18.2983 8.48411 18.3383 8.48411C18.3783 8.48411 18.4183 8.48811 18.4583 8.49611C18.4983 8.49611 18.5382 8.49611 18.5783 8.49611C18.8103 8.49611 18.9383 8.38011 18.9623 8.14811C18.9703 8.03611 18.9743 7.92411 18.9743 7.81211C18.9743 7.70011 18.9743 7.58811 18.9743 7.47611C18.9743 6.78811 18.9743 6.10011 18.9743 5.41211C18.9743 4.71611 18.9703 4.02411 18.9623 3.33611C18.9623 3.22411 18.9383 3.11211 18.8903 3.00011C18.8423 2.88811 18.7503 2.83211 18.6143 2.83211C18.5103 2.83211 18.4103 2.84811 18.3143 2.88011C18.2183 2.91211 18.1182 2.92811 18.0142 2.92811C17.9582 2.92811 17.9302 2.88811 17.9302 2.80811C17.9302 2.79211 17.9302 2.77611 17.9302 2.76011C17.9382 2.73611 17.9462 2.72011 17.9542 2.71211C17.9622 2.70411 17.9742 2.70011 17.9902 2.70011C18.0062 2.69211 18.0182 2.6841 18.0262 2.67611C18.1702 2.63611 18.3183 2.60811 18.4702 2.59211C18.6303 2.57611 18.7823 2.5521 18.9263 2.5201C19.0622 2.49611 19.1942 2.46411 19.3223 2.42411C19.4503 2.37611 19.5783 2.3521 19.7063 2.3521C19.7623 2.3521 19.8063 2.38011 19.8383 2.43611C19.8783 2.50811 19.9103 2.61211 19.9342 2.74811C19.9583 2.87611 19.9743 3.00811 19.9823 3.14411C19.9983 3.28011 20.0063 3.39211 20.0063 3.48011C20.1823 3.30411 20.3903 3.13211 20.6302 2.96411C20.8783 2.78811 21.1343 2.64411 21.3983 2.53211C21.6703 2.41211 21.9343 2.3521 22.1903 2.3521C22.9263 2.3521 23.4223 2.51611 23.6783 2.84411C23.9423 3.16411 24.0742 3.67211 24.0742 4.36811C24.0742 4.99211 24.0703 5.61611 24.0623 6.24011C24.0623 6.86411 24.0623 7.48811 24.0623 8.11211C24.0623 8.26411 24.1063 8.36811 24.1943 8.42411C24.2903 8.47211 24.4023 8.49611 24.5303 8.49611C24.5943 8.49611 24.6583 8.49211 24.7223 8.48411C24.7863 8.46811 24.8463 8.46011 24.9023 8.46011C24.9503 8.46011 24.9823 8.48011 24.9983 8.52011C25.0223 8.55211 25.0343 8.58811 25.0343 8.62811ZM32.6283 8.48411C32.6283 8.58011 32.5563 8.65211 32.4123 8.70011C32.2763 8.74811 32.1243 8.78011 31.9563 8.79611C31.7883 8.81211 31.6683 8.82011 31.5963 8.82011C31.3243 8.82011 31.1083 8.71211 30.9483 8.49611C30.7883 8.28011 30.6683 8.05611 30.5883 7.82411C30.3163 8.16811 29.9763 8.42411 29.5683 8.59211C29.1603 8.76011 28.7363 8.84411 28.2963 8.84411C27.5763 8.84411 27.0763 8.66011 26.7963 8.29211C26.5243 7.91611 26.3883 7.38811 26.3883 6.70811C26.3883 6.10811 26.3883 5.50811 26.3883 4.90811C26.3963 4.30011 26.4043 3.69611 26.4123 3.09611C26.4123 2.85611 26.2963 2.7361 26.0643 2.7361C26.0003 2.7361 25.9363 2.74011 25.8723 2.74811C25.8083 2.75611 25.7443 2.76011 25.6803 2.76011C25.6563 2.76011 25.6363 2.74811 25.6203 2.72411C25.6123 2.69211 25.6083 2.66811 25.6083 2.65211C25.6083 2.56411 25.6483 2.5161 25.7283 2.50811C26.0083 2.4761 26.2883 2.4561 26.5683 2.44811C26.8563 2.43211 27.1403 2.40811 27.4203 2.37611C27.4843 2.44011 27.5163 2.52011 27.5163 2.61611C27.5163 2.81611 27.5123 3.02011 27.5043 3.22811C27.4963 3.43611 27.4923 3.64411 27.4923 3.85211C27.4843 4.34011 27.4763 4.83211 27.4683 5.32811C27.4683 5.81611 27.4683 6.30811 27.4683 6.80411C27.4683 6.95611 27.4723 7.12011 27.4803 7.29611C27.4883 7.46411 27.5203 7.62011 27.5763 7.76411C27.6643 7.98811 27.8283 8.14811 28.0683 8.24411C28.3163 8.33211 28.5523 8.37611 28.7763 8.37611C29.0243 8.37611 29.2723 8.33211 29.5203 8.24411C29.7763 8.14811 29.9923 8.01211 30.1683 7.83611C30.3523 7.65211 30.4563 7.42411 30.4803 7.15211C30.4963 7.01611 30.5043 6.88011 30.5043 6.74411C30.5123 6.60011 30.5163 6.46011 30.5163 6.32411L30.5043 3.06011C30.5043 2.95611 30.4683 2.88011 30.3963 2.83211C30.3323 2.78411 30.2563 2.76011 30.1683 2.76011C30.0883 2.76011 30.0083 2.76411 29.9283 2.77211C29.8563 2.78011 29.7803 2.78411 29.7003 2.78411C29.6283 2.78411 29.5923 2.74411 29.5923 2.66411C29.5923 2.58411 29.6283 2.54011 29.7003 2.53211C29.7963 2.51611 29.8963 2.50811 30.0003 2.50811C30.1043 2.50011 30.2083 2.49211 30.3123 2.48411L31.1403 2.4001C31.1963 2.39211 31.2523 2.38411 31.3083 2.37611C31.3723 2.36811 31.4323 2.36411 31.4883 2.36411C31.5283 2.36411 31.5563 2.38811 31.5723 2.43611C31.5883 2.47611 31.5963 2.50811 31.5963 2.53211C31.5723 4.26811 31.5603 6.00011 31.5603 7.72811C31.5603 7.92811 31.6043 8.09211 31.6923 8.22011C31.7883 8.34811 31.9443 8.41211 32.1603 8.41211C32.2243 8.41211 32.2803 8.40411 32.3283 8.38811C32.3843 8.37211 32.4403 8.36411 32.4963 8.36411C32.5843 8.36411 32.6283 8.40411 32.6283 8.48411Z" fill="#8A7268"/>
</svg>
