<svg width="53" height="11" viewBox="0 0 53 11" fill="none" xmlns="http://www.w3.org/2000/svg">
<path d="M6.75 2.75H5.78125C5.72396 2.47135 5.6237 2.22656 5.48047 2.01562C5.33984 1.80469 5.16797 1.6276 4.96484 1.48438C4.76432 1.33854 4.54167 1.22917 4.29688 1.15625C4.05208 1.08333 3.79688 1.04687 3.53125 1.04687C3.04688 1.04687 2.60807 1.16927 2.21484 1.41406C1.82422 1.65885 1.51302 2.01953 1.28125 2.49609C1.05208 2.97266 0.9375 3.55729 0.9375 4.25C0.9375 4.94271 1.05208 5.52734 1.28125 6.00391C1.51302 6.48047 1.82422 6.84115 2.21484 7.08594C2.60807 7.33073 3.04688 7.45312 3.53125 7.45312C3.79688 7.45312 4.05208 7.41667 4.29688 7.34375C4.54167 7.27083 4.76432 7.16276 4.96484 7.01953C5.16797 6.8737 5.33984 6.69531 5.48047 6.48437C5.6237 6.27083 5.72396 6.02604 5.78125 5.75H6.75C6.67708 6.15885 6.54427 6.52474 6.35156 6.84766C6.15885 7.17057 5.91927 7.44531 5.63281 7.67187C5.34635 7.89583 5.02474 8.06641 4.66797 8.18359C4.3138 8.30078 3.9349 8.35937 3.53125 8.35937C2.84896 8.35937 2.24219 8.19271 1.71094 7.85938C1.17969 7.52604 0.761719 7.05208 0.457031 6.4375C0.152344 5.82292 2.98023e-08 5.09375 2.98023e-08 4.25C2.98023e-08 3.40625 0.152344 2.67708 0.457031 2.0625C0.761719 1.44792 1.17969 0.973958 1.71094 0.640625C2.24219 0.307291 2.84896 0.140625 3.53125 0.140625C3.9349 0.140625 4.3138 0.199218 4.66797 0.316406C5.02474 0.433594 5.34635 0.605469 5.63281 0.832031C5.91927 1.05599 6.15885 1.32943 6.35156 1.65234C6.54427 1.97266 6.67708 2.33854 6.75 2.75ZM9.95605 8.39063C9.57585 8.39063 9.23079 8.31901 8.9209 8.17578C8.611 8.02995 8.36491 7.82031 8.18262 7.54688C8.00033 7.27083 7.90918 6.9375 7.90918 6.54687C7.90918 6.20312 7.97689 5.92448 8.1123 5.71094C8.24772 5.49479 8.42871 5.32552 8.65527 5.20312C8.88184 5.08073 9.13184 4.98958 9.40527 4.92969C9.68132 4.86719 9.95866 4.81771 10.2373 4.78125C10.6019 4.73437 10.8975 4.69922 11.124 4.67578C11.3532 4.64974 11.5199 4.60677 11.624 4.54687C11.7308 4.48698 11.7842 4.38281 11.7842 4.23437V4.20312C11.7842 3.81771 11.6787 3.51823 11.4678 3.30469C11.2594 3.09115 10.943 2.98437 10.5186 2.98437C10.0785 2.98437 9.7334 3.08073 9.4834 3.27344C9.2334 3.46615 9.05762 3.67187 8.95605 3.89062L8.08105 3.57812C8.2373 3.21354 8.44564 2.92969 8.70605 2.72656C8.96908 2.52083 9.25553 2.3776 9.56543 2.29687C9.87793 2.21354 10.1852 2.17188 10.4873 2.17188C10.68 2.17188 10.9014 2.19531 11.1514 2.24219C11.404 2.28646 11.6475 2.37891 11.8818 2.51953C12.1188 2.66016 12.3154 2.8724 12.4717 3.15625C12.6279 3.4401 12.7061 3.82031 12.7061 4.29688V8.25H11.7842V7.4375H11.7373C11.6748 7.56771 11.5706 7.70703 11.4248 7.85547C11.279 8.00391 11.085 8.13021 10.8428 8.23437C10.6006 8.33854 10.305 8.39063 9.95605 8.39063ZM10.0967 7.5625C10.4613 7.5625 10.7686 7.49089 11.0186 7.34766C11.2712 7.20443 11.4613 7.01953 11.5889 6.79297C11.7191 6.56641 11.7842 6.32812 11.7842 6.07812V5.23437C11.7451 5.28125 11.6592 5.32422 11.5264 5.36328C11.3962 5.39974 11.2451 5.43229 11.0732 5.46094C10.904 5.48698 10.7386 5.51042 10.5771 5.53125C10.4183 5.54948 10.2894 5.5651 10.1904 5.57812C9.95085 5.60937 9.72689 5.66016 9.51855 5.73047C9.31283 5.79818 9.14616 5.90104 9.01855 6.03906C8.89355 6.17448 8.83105 6.35937 8.83105 6.59375C8.83105 6.91406 8.94954 7.15625 9.18652 7.32031C9.42611 7.48177 9.72949 7.5625 10.0967 7.5625ZM16.998 2.25V3.03125H13.8887V2.25H16.998ZM14.7949 0.8125H15.7168V6.53125C15.7168 6.79167 15.7546 6.98698 15.8301 7.11719C15.9082 7.24479 16.0072 7.33073 16.127 7.375C16.2493 7.41667 16.3783 7.4375 16.5137 7.4375C16.6152 7.4375 16.6986 7.43229 16.7637 7.42187C16.8288 7.40885 16.8809 7.39844 16.9199 7.39062L17.1074 8.21875C17.0449 8.24219 16.9577 8.26563 16.8457 8.28906C16.7337 8.3151 16.5918 8.32813 16.4199 8.32813C16.1595 8.32813 15.9043 8.27214 15.6543 8.16016C15.4069 8.04818 15.2012 7.8776 15.0371 7.64844C14.8757 7.41927 14.7949 7.13021 14.7949 6.78125V0.8125ZM20.8359 8.375C20.2578 8.375 19.7591 8.2474 19.3398 7.99219C18.9232 7.73438 18.6016 7.375 18.375 6.91406C18.151 6.45052 18.0391 5.91146 18.0391 5.29688C18.0391 4.68229 18.151 4.14062 18.375 3.67187C18.6016 3.20052 18.9167 2.83333 19.3203 2.57031C19.7266 2.30469 20.2005 2.17188 20.7422 2.17188C21.0547 2.17188 21.3633 2.22396 21.668 2.32812C21.9727 2.43229 22.25 2.60156 22.5 2.83594C22.75 3.06771 22.9492 3.375 23.0977 3.75781C23.2461 4.14062 23.3203 4.61198 23.3203 5.17187V5.5625H18.6953V4.76562H22.3828C22.3828 4.42708 22.3151 4.125 22.1797 3.85937C22.0469 3.59375 21.8568 3.38411 21.6094 3.23047C21.3646 3.07682 21.0755 3 20.7422 3C20.375 3 20.0573 3.09115 19.7891 3.27344C19.5234 3.45312 19.319 3.6875 19.1758 3.97656C19.0326 4.26562 18.9609 4.57552 18.9609 4.90625V5.4375C18.9609 5.89063 19.0391 6.27474 19.1953 6.58984C19.3542 6.90234 19.5742 7.14062 19.8555 7.30469C20.1367 7.46615 20.4635 7.54688 20.8359 7.54688C21.0781 7.54688 21.2969 7.51302 21.4922 7.44531C21.6901 7.375 21.8607 7.27083 22.0039 7.13281C22.1471 6.99219 22.2578 6.81771 22.3359 6.60937L23.2266 6.85938C23.1328 7.16146 22.9753 7.42708 22.7539 7.65625C22.5326 7.88281 22.2591 8.0599 21.9336 8.1875C21.6081 8.3125 21.2422 8.375 20.8359 8.375ZM27.1445 10.625C26.6992 10.625 26.3164 10.5677 25.9961 10.4531C25.6758 10.3411 25.4089 10.1927 25.1953 10.0078C24.9844 9.82552 24.8164 9.63021 24.6914 9.42188L25.4258 8.90625C25.5091 9.01563 25.6146 9.14063 25.7422 9.28125C25.8698 9.42448 26.0443 9.54818 26.2656 9.65234C26.4896 9.75911 26.7826 9.8125 27.1445 9.8125C27.6289 9.8125 28.0286 9.69531 28.3438 9.46094C28.6589 9.22656 28.8164 8.85937 28.8164 8.35937V7.14062H28.7383C28.6706 7.25 28.5742 7.38542 28.4492 7.54688C28.3268 7.70573 28.1497 7.84766 27.918 7.97266C27.6888 8.09505 27.3789 8.15625 26.9883 8.15625C26.5039 8.15625 26.069 8.04167 25.6836 7.8125C25.3008 7.58333 24.9974 7.25 24.7734 6.8125C24.5521 6.375 24.4414 5.84375 24.4414 5.21875C24.4414 4.60417 24.5495 4.06901 24.7656 3.61328C24.9818 3.15495 25.2826 2.80078 25.668 2.55078C26.0534 2.29818 26.4987 2.17188 27.0039 2.17188C27.3945 2.17188 27.7044 2.23698 27.9336 2.36719C28.1654 2.49479 28.3424 2.64062 28.4648 2.80469C28.5898 2.96615 28.6862 3.09896 28.7539 3.20312H28.8477V2.25H29.7383V8.42188C29.7383 8.9375 29.6211 9.35677 29.3867 9.67969C29.1549 10.0052 28.8424 10.2435 28.4492 10.3945C28.0586 10.5482 27.6237 10.625 27.1445 10.625ZM27.1133 7.32812C27.4831 7.32812 27.7956 7.24349 28.0508 7.07422C28.306 6.90495 28.5 6.66146 28.6328 6.34375C28.7656 6.02604 28.832 5.64583 28.832 5.20312C28.832 4.77083 28.7669 4.38932 28.6367 4.05859C28.5065 3.72786 28.3138 3.46875 28.0586 3.28125C27.8034 3.09375 27.4883 3 27.1133 3C26.7227 3 26.3971 3.09896 26.1367 3.29687C25.8789 3.49479 25.6849 3.76042 25.5547 4.09375C25.4271 4.42708 25.3633 4.79687 25.3633 5.20312C25.3633 5.61979 25.4284 5.98828 25.5586 6.30859C25.6914 6.6263 25.8867 6.8763 26.1445 7.05859C26.4049 7.23828 26.7279 7.32812 27.1133 7.32812ZM33.8633 8.375C33.3216 8.375 32.8464 8.24609 32.4375 7.98828C32.0313 7.73047 31.7135 7.36979 31.4844 6.90625C31.2578 6.44271 31.1445 5.90104 31.1445 5.28125C31.1445 4.65625 31.2578 4.11068 31.4844 3.64453C31.7135 3.17839 32.0313 2.81641 32.4375 2.55859C32.8464 2.30078 33.3216 2.17188 33.8633 2.17188C34.4049 2.17188 34.8789 2.30078 35.2852 2.55859C35.694 2.81641 36.0117 3.17839 36.2383 3.64453C36.4674 4.11068 36.582 4.65625 36.582 5.28125C36.582 5.90104 36.4674 6.44271 36.2383 6.90625C36.0117 7.36979 35.694 7.73047 35.2852 7.98828C34.8789 8.24609 34.4049 8.375 33.8633 8.375ZM33.8633 7.54688C34.2747 7.54688 34.6133 7.44141 34.8789 7.23047C35.1445 7.01953 35.3411 6.74219 35.4688 6.39844C35.5964 6.05469 35.6602 5.68229 35.6602 5.28125C35.6602 4.88021 35.5964 4.50651 35.4688 4.16016C35.3411 3.8138 35.1445 3.53385 34.8789 3.32031C34.6133 3.10677 34.2747 3 33.8633 3C33.4518 3 33.1133 3.10677 32.8477 3.32031C32.582 3.53385 32.3854 3.8138 32.2578 4.16016C32.1302 4.50651 32.0664 4.88021 32.0664 5.28125C32.0664 5.68229 32.1302 6.05469 32.2578 6.39844C32.3854 6.74219 32.582 7.01953 32.8477 7.23047C33.1133 7.44141 33.4518 7.54688 33.8633 7.54688ZM37.9893 8.25V2.25H38.8799V3.15625H38.9424C39.0518 2.85938 39.2497 2.61849 39.5361 2.43359C39.8226 2.2487 40.1455 2.15625 40.5049 2.15625C40.5726 2.15625 40.6572 2.15755 40.7588 2.16016C40.8604 2.16276 40.9372 2.16667 40.9893 2.17188V3.10937C40.958 3.10156 40.8864 3.08984 40.7744 3.07422C40.665 3.05599 40.5492 3.04687 40.4268 3.04687C40.1351 3.04687 39.8747 3.10807 39.6455 3.23047C39.4189 3.35026 39.2393 3.51693 39.1064 3.73047C38.9762 3.94141 38.9111 4.18229 38.9111 4.45312V8.25H37.9893ZM42.082 8.25V2.25H43.0039V8.25H42.082ZM42.5508 1.25C42.3711 1.25 42.2161 1.1888 42.0859 1.06641C41.9583 0.94401 41.8945 0.796875 41.8945 0.625C41.8945 0.453125 41.9583 0.30599 42.0859 0.183593C42.2161 0.0611978 42.3711 0 42.5508 0C42.7305 0 42.8841 0.0611978 43.0117 0.183593C43.1419 0.30599 43.207 0.453125 43.207 0.625C43.207 0.796875 43.1419 0.94401 43.0117 1.06641C42.8841 1.1888 42.7305 1.25 42.5508 1.25ZM46.458 8.39063C46.0778 8.39063 45.7327 8.31901 45.4229 8.17578C45.113 8.02995 44.8669 7.82031 44.6846 7.54688C44.5023 7.27083 44.4111 6.9375 44.4111 6.54687C44.4111 6.20312 44.4788 5.92448 44.6143 5.71094C44.7497 5.49479 44.9307 5.32552 45.1572 5.20312C45.3838 5.08073 45.6338 4.98958 45.9072 4.92969C46.1833 4.86719 46.4606 4.81771 46.7393 4.78125C47.1038 4.73437 47.3994 4.69922 47.626 4.67578C47.8551 4.64974 48.0218 4.60677 48.126 4.54687C48.2327 4.48698 48.2861 4.38281 48.2861 4.23437V4.20312C48.2861 3.81771 48.1807 3.51823 47.9697 3.30469C47.7614 3.09115 47.445 2.98437 47.0205 2.98437C46.5804 2.98437 46.2354 3.08073 45.9854 3.27344C45.7354 3.46615 45.5596 3.67187 45.458 3.89062L44.583 3.57812C44.7393 3.21354 44.9476 2.92969 45.208 2.72656C45.471 2.52083 45.7575 2.3776 46.0674 2.29687C46.3799 2.21354 46.6872 2.17188 46.9893 2.17188C47.182 2.17188 47.4033 2.19531 47.6533 2.24219C47.9059 2.28646 48.1494 2.37891 48.3838 2.51953C48.6208 2.66016 48.8174 2.8724 48.9736 3.15625C49.1299 3.4401 49.208 3.82031 49.208 4.29688V8.25H48.2861V7.4375H48.2393C48.1768 7.56771 48.0726 7.70703 47.9268 7.85547C47.7809 8.00391 47.5869 8.13021 47.3447 8.23437C47.1025 8.33854 46.807 8.39063 46.458 8.39063ZM46.5986 7.5625C46.9632 7.5625 47.2705 7.49089 47.5205 7.34766C47.7731 7.20443 47.9632 7.01953 48.0908 6.79297C48.221 6.56641 48.2861 6.32812 48.2861 6.07812V5.23437C48.2471 5.28125 48.1611 5.32422 48.0283 5.36328C47.8981 5.39974 47.7471 5.43229 47.5752 5.46094C47.4059 5.48698 47.2406 5.51042 47.0791 5.53125C46.9202 5.54948 46.7913 5.5651 46.6924 5.57812C46.4528 5.60937 46.2288 5.66016 46.0205 5.73047C45.8148 5.79818 45.6481 5.90104 45.5205 6.03906C45.3955 6.17448 45.333 6.35937 45.333 6.59375C45.333 6.91406 45.4515 7.15625 45.6885 7.32031C45.9281 7.48177 46.2314 7.5625 46.5986 7.5625ZM51.5625 8.3125C51.3698 8.3125 51.2044 8.24349 51.0664 8.10547C50.9284 7.96745 50.8594 7.80208 50.8594 7.60937C50.8594 7.41667 50.9284 7.2513 51.0664 7.11328C51.2044 6.97526 51.3698 6.90625 51.5625 6.90625C51.7552 6.90625 51.9206 6.97526 52.0586 7.11328C52.1966 7.2513 52.2656 7.41667 52.2656 7.60937C52.2656 7.73698 52.2331 7.85417 52.168 7.96094C52.1055 8.06771 52.0208 8.15365 51.9141 8.21875C51.8099 8.28125 51.6927 8.3125 51.5625 8.3125ZM51.5625 3.85937C51.3698 3.85937 51.2044 3.79036 51.0664 3.65234C50.9284 3.51432 50.8594 3.34896 50.8594 3.15625C50.8594 2.96354 50.9284 2.79818 51.0664 2.66016C51.2044 2.52214 51.3698 2.45313 51.5625 2.45313C51.7552 2.45313 51.9206 2.52214 52.0586 2.66016C52.1966 2.79818 52.2656 2.96354 52.2656 3.15625C52.2656 3.28385 52.2331 3.40104 52.168 3.50781C52.1055 3.61458 52.0208 3.70052 51.9141 3.76562C51.8099 3.82812 51.6927 3.85937 51.5625 3.85937Z" fill="#8A7268"/>
</svg>
