<svg width="31" height="11" viewBox="0 0 31 11" fill="none" xmlns="http://www.w3.org/2000/svg">
<path d="M5.96046e-08 8.20312V0.203125H2.70313C3.32813 0.203125 3.84115 0.309896 4.24219 0.523437C4.64323 0.734375 4.9401 1.02474 5.13281 1.39453C5.32552 1.76432 5.42188 2.1849 5.42188 2.65625C5.42188 3.1276 5.32552 3.54557 5.13281 3.91016C4.9401 4.27474 4.64453 4.5612 4.24609 4.76953C3.84766 4.97526 3.33854 5.07813 2.71875 5.07813H0.53125V4.20312H2.6875C3.11458 4.20312 3.45833 4.14062 3.71875 4.01562C3.98177 3.89062 4.17188 3.71354 4.28906 3.48437C4.40885 3.2526 4.46875 2.97656 4.46875 2.65625C4.46875 2.33594 4.40885 2.05599 4.28906 1.81641C4.16927 1.57682 3.97786 1.39193 3.71484 1.26172C3.45182 1.12891 3.10417 1.0625 2.67187 1.0625H0.96875V8.20312H5.96046e-08ZM3.76563 4.60937L5.73438 8.20312H4.60938L2.67187 4.60937H3.76563ZM8.67676 8.34375C8.29655 8.34375 7.9515 8.27214 7.6416 8.12891C7.33171 7.98307 7.08561 7.77344 6.90332 7.5C6.72103 7.22396 6.62988 6.89062 6.62988 6.5C6.62988 6.15625 6.69759 5.8776 6.83301 5.66406C6.96842 5.44792 7.14941 5.27865 7.37598 5.15625C7.60254 5.03385 7.85254 4.94271 8.12598 4.88281C8.40202 4.82031 8.67936 4.77083 8.95801 4.73438C9.32259 4.6875 9.61816 4.65234 9.84473 4.62891C10.0739 4.60286 10.2406 4.5599 10.3447 4.5C10.4515 4.4401 10.5049 4.33594 10.5049 4.1875V4.15625C10.5049 3.77083 10.3994 3.47135 10.1885 3.25781C9.98014 3.04427 9.66374 2.9375 9.23926 2.9375C8.79915 2.9375 8.4541 3.03385 8.2041 3.22656C7.9541 3.41927 7.77832 3.625 7.67676 3.84375L6.80176 3.53125C6.95801 3.16667 7.16634 2.88281 7.42676 2.67969C7.68978 2.47396 7.97624 2.33073 8.28613 2.25C8.59863 2.16667 8.90592 2.125 9.20801 2.125C9.40072 2.125 9.62207 2.14844 9.87207 2.19531C10.1247 2.23958 10.3682 2.33203 10.6025 2.47266C10.8395 2.61328 11.0361 2.82552 11.1924 3.10937C11.3486 3.39323 11.4268 3.77344 11.4268 4.25V8.20312H10.5049V7.39062H10.458C10.3955 7.52083 10.2913 7.66016 10.1455 7.80859C9.99967 7.95703 9.80566 8.08333 9.56348 8.1875C9.32129 8.29167 9.02572 8.34375 8.67676 8.34375ZM8.81738 7.51562C9.18197 7.51562 9.48926 7.44401 9.73926 7.30078C9.99186 7.15755 10.182 6.97266 10.3096 6.74609C10.4398 6.51953 10.5049 6.28125 10.5049 6.03125V5.1875C10.4658 5.23437 10.3799 5.27734 10.2471 5.31641C10.1169 5.35286 9.96582 5.38542 9.79395 5.41406C9.62467 5.4401 9.45931 5.46354 9.29785 5.48437C9.139 5.5026 9.01009 5.51823 8.91113 5.53125C8.67155 5.5625 8.44759 5.61328 8.23926 5.68359C8.03353 5.7513 7.86686 5.85417 7.73926 5.99219C7.61426 6.1276 7.55176 6.3125 7.55176 6.54687C7.55176 6.86719 7.67025 7.10937 7.90723 7.27344C8.14681 7.4349 8.4502 7.51562 8.81738 7.51562ZM15.5469 8.32813C14.9844 8.32813 14.5 8.19531 14.0938 7.92969C13.6875 7.66406 13.375 7.29818 13.1563 6.83203C12.9375 6.36589 12.8281 5.83333 12.8281 5.23437C12.8281 4.625 12.9401 4.08724 13.1641 3.62109C13.3906 3.15234 13.7057 2.78646 14.1094 2.52344C14.5156 2.25781 14.9896 2.125 15.5312 2.125C15.9531 2.125 16.3333 2.20313 16.6719 2.35938C17.0104 2.51562 17.2878 2.73437 17.5039 3.01562C17.7201 3.29687 17.8542 3.625 17.9063 4H16.9844C16.9141 3.72656 16.7578 3.48437 16.5156 3.27344C16.276 3.0599 15.9531 2.95312 15.5469 2.95312C15.1875 2.95312 14.8724 3.04687 14.6016 3.23437C14.3333 3.41927 14.1237 3.68099 13.9727 4.01953C13.8242 4.35547 13.75 4.75 13.75 5.20312C13.75 5.66667 13.8229 6.07031 13.9688 6.41406C14.1172 6.75781 14.3255 7.02474 14.5938 7.21484C14.8646 7.40495 15.1823 7.5 15.5469 7.5C15.7865 7.5 16.0039 7.45833 16.1992 7.375C16.3945 7.29167 16.5599 7.17188 16.6953 7.01562C16.8307 6.85937 16.9271 6.67187 16.9844 6.45313H17.9063C17.8542 6.80729 17.7253 7.1263 17.5195 7.41016C17.3164 7.69141 17.0469 7.91536 16.7109 8.08203C16.3776 8.24609 15.9896 8.32813 15.5469 8.32813ZM15.1094 8.17187H15.875L15.8125 8.48438C16.0156 8.51563 16.2018 8.60026 16.3711 8.73828C16.5404 8.87891 16.625 9.10156 16.625 9.40625C16.625 9.74219 16.4857 10.0156 16.207 10.2266C15.931 10.4401 15.5234 10.5469 14.9844 10.5469L14.9531 9.9375C15.1953 9.9375 15.3958 9.89844 15.5547 9.82031C15.7161 9.74479 15.7969 9.61719 15.7969 9.4375C15.7969 9.25781 15.7305 9.13542 15.5977 9.07031C15.4648 9.00521 15.25 8.96094 14.9531 8.9375L15.1094 8.17187ZM21.0195 8.34375C20.6393 8.34375 20.2943 8.27214 19.9844 8.12891C19.6745 7.98307 19.4284 7.77344 19.2461 7.5C19.0638 7.22396 18.9727 6.89062 18.9727 6.5C18.9727 6.15625 19.0404 5.8776 19.1758 5.66406C19.3112 5.44792 19.4922 5.27865 19.7188 5.15625C19.9453 5.03385 20.1953 4.94271 20.4688 4.88281C20.7448 4.82031 21.0221 4.77083 21.3008 4.73438C21.6654 4.6875 21.9609 4.65234 22.1875 4.62891C22.4167 4.60286 22.5833 4.5599 22.6875 4.5C22.7943 4.4401 22.8477 4.33594 22.8477 4.1875V4.15625C22.8477 3.77083 22.7422 3.47135 22.5313 3.25781C22.3229 3.04427 22.0065 2.9375 21.582 2.9375C21.1419 2.9375 20.7969 3.03385 20.5469 3.22656C20.2969 3.41927 20.1211 3.625 20.0195 3.84375L19.1445 3.53125C19.3008 3.16667 19.5091 2.88281 19.7695 2.67969C20.0326 2.47396 20.319 2.33073 20.6289 2.25C20.9414 2.16667 21.2487 2.125 21.5508 2.125C21.7435 2.125 21.9648 2.14844 22.2148 2.19531C22.4674 2.23958 22.7109 2.33203 22.9453 2.47266C23.1823 2.61328 23.3789 2.82552 23.5352 3.10937C23.6914 3.39323 23.7695 3.77344 23.7695 4.25V8.20312H22.8477V7.39062H22.8008C22.7383 7.52083 22.6341 7.66016 22.4883 7.80859C22.3424 7.95703 22.1484 8.08333 21.9063 8.1875C21.6641 8.29167 21.3685 8.34375 21.0195 8.34375ZM21.1602 7.51562C21.5247 7.51562 21.832 7.44401 22.082 7.30078C22.3346 7.15755 22.5247 6.97266 22.6523 6.74609C22.7826 6.51953 22.8477 6.28125 22.8477 6.03125V5.1875C22.8086 5.23437 22.7227 5.27734 22.5898 5.31641C22.4596 5.35286 22.3086 5.38542 22.1367 5.41406C21.9674 5.4401 21.8021 5.46354 21.6406 5.48437C21.4818 5.5026 21.3529 5.51823 21.2539 5.53125C21.0143 5.5625 20.7904 5.61328 20.582 5.68359C20.3763 5.7513 20.2096 5.85417 20.082 5.99219C19.957 6.1276 19.8945 6.3125 19.8945 6.54687C19.8945 6.86719 20.013 7.10937 20.25 7.27344C20.4896 7.4349 20.793 7.51562 21.1602 7.51562ZM20.4102 1.48437L19.6914 1.45312C19.6914 1.05469 19.8047 0.729167 20.0312 0.476562C20.2604 0.221354 20.543 0.0937497 20.8789 0.0937497C21.0273 0.0937497 21.1589 0.119791 21.2734 0.171874C21.388 0.221354 21.4974 0.278645 21.6016 0.343749C21.7057 0.408854 21.8125 0.467448 21.9219 0.519531C22.0339 0.56901 22.1602 0.59375 22.3008 0.59375C22.4492 0.59375 22.5742 0.536458 22.6758 0.421875C22.7799 0.304687 22.832 0.164062 22.832 -5.36442e-07L23.5352 0.0625001C23.5352 0.46875 23.4206 0.791666 23.1914 1.03125C22.9648 1.27083 22.6836 1.39062 22.3477 1.39062C22.168 1.39062 22.0195 1.36589 21.9023 1.31641C21.7852 1.26432 21.681 1.20573 21.5898 1.14062C21.4987 1.07552 21.4023 1.01823 21.3008 0.96875C21.1992 0.916666 21.0742 0.890625 20.9258 0.890625C20.7773 0.890625 20.6536 0.949219 20.5547 1.06641C20.4583 1.18099 20.4102 1.32031 20.4102 1.48437ZM27.8896 8.32813C27.348 8.32813 26.8727 8.19922 26.4639 7.94141C26.0576 7.68359 25.7399 7.32292 25.5107 6.85937C25.2842 6.39583 25.1709 5.85417 25.1709 5.23437C25.1709 4.60937 25.2842 4.0638 25.5107 3.59766C25.7399 3.13151 26.0576 2.76953 26.4639 2.51172C26.8727 2.25391 27.348 2.125 27.8896 2.125C28.4313 2.125 28.9053 2.25391 29.3115 2.51172C29.7204 2.76953 30.0381 3.13151 30.2646 3.59766C30.4938 4.0638 30.6084 4.60937 30.6084 5.23437C30.6084 5.85417 30.4938 6.39583 30.2646 6.85937C30.0381 7.32292 29.7204 7.68359 29.3115 7.94141C28.9053 8.19922 28.4313 8.32813 27.8896 8.32813ZM27.8896 7.5C28.3011 7.5 28.6396 7.39453 28.9053 7.18359C29.1709 6.97266 29.3675 6.69531 29.4951 6.35156C29.6227 6.00781 29.6865 5.63542 29.6865 5.23437C29.6865 4.83333 29.6227 4.45964 29.4951 4.11328C29.3675 3.76693 29.1709 3.48698 28.9053 3.27344C28.6396 3.0599 28.3011 2.95312 27.8896 2.95312C27.4782 2.95312 27.1396 3.0599 26.874 3.27344C26.6084 3.48698 26.4118 3.76693 26.2842 4.11328C26.1566 4.45964 26.0928 4.83333 26.0928 5.23437C26.0928 5.63542 26.1566 6.00781 26.2842 6.35156C26.4118 6.69531 26.6084 6.97266 26.874 7.18359C27.1396 7.39453 27.4782 7.5 27.8896 7.5Z" fill="#9C3F07"/>
</svg>
