<svg width="51" height="9" viewBox="0 0 51 9" fill="none" xmlns="http://www.w3.org/2000/svg">
<path d="M4.71875 2.10937C4.67188 1.71354 4.48177 1.40625 4.14844 1.1875C3.8151 0.96875 3.40625 0.859375 2.92188 0.859375C2.56771 0.859375 2.25781 0.916666 1.99219 1.03125C1.72917 1.14583 1.52344 1.30339 1.375 1.50391C1.22917 1.70443 1.15625 1.93229 1.15625 2.1875C1.15625 2.40104 1.20703 2.58464 1.30859 2.73828C1.41276 2.88932 1.54557 3.01562 1.70703 3.11719C1.86849 3.21615 2.03776 3.29818 2.21484 3.36328C2.39193 3.42578 2.55469 3.47656 2.70312 3.51562L3.51563 3.73437C3.72396 3.78906 3.95573 3.86458 4.21094 3.96094C4.46875 4.05729 4.71484 4.1888 4.94922 4.35547C5.1862 4.51953 5.38151 4.73047 5.53516 4.98828C5.6888 5.24609 5.76563 5.5625 5.76563 5.9375C5.76563 6.36979 5.65234 6.76042 5.42578 7.10937C5.20182 7.45833 4.8737 7.73568 4.44141 7.94141C4.01172 8.14714 3.48958 8.25 2.875 8.25C2.30208 8.25 1.80599 8.15755 1.38672 7.97266C0.970052 7.78776 0.641927 7.52995 0.402344 7.19922C0.165365 6.86849 0.03125 6.48438 1.86265e-08 6.04688H1C1.02604 6.34896 1.1276 6.59896 1.30469 6.79687C1.48438 6.99219 1.71094 7.13802 1.98438 7.23438C2.26042 7.32812 2.55729 7.375 2.875 7.375C3.24479 7.375 3.57682 7.3151 3.87109 7.19531C4.16536 7.07292 4.39844 6.90365 4.57031 6.6875C4.74219 6.46875 4.82813 6.21354 4.82813 5.92187C4.82813 5.65625 4.75391 5.4401 4.60547 5.27344C4.45703 5.10677 4.26172 4.97135 4.01953 4.86719C3.77734 4.76302 3.51563 4.67187 3.23438 4.59375L2.25 4.3125C1.625 4.13281 1.13021 3.8763 0.765625 3.54297C0.401042 3.20964 0.21875 2.77344 0.21875 2.23437C0.21875 1.78646 0.339844 1.39583 0.582031 1.0625C0.826823 0.726562 1.15495 0.466146 1.56641 0.28125C1.98047 0.0937497 2.44271 -2.98023e-07 2.95313 -2.98023e-07C3.46875 -2.98023e-07 3.92708 0.0924476 4.32813 0.277343C4.72917 0.459635 5.04688 0.709635 5.28125 1.02734C5.51823 1.34505 5.64323 1.70573 5.65625 2.10937H4.71875ZM9.74902 8.23438C9.1709 8.23438 8.6722 8.10677 8.25293 7.85156C7.83626 7.59375 7.51465 7.23437 7.28809 6.77344C7.06413 6.3099 6.95215 5.77083 6.95215 5.15625C6.95215 4.54167 7.06413 4 7.28809 3.53125C7.51465 3.0599 7.82975 2.69271 8.2334 2.42969C8.63965 2.16406 9.11361 2.03125 9.65527 2.03125C9.96777 2.03125 10.2764 2.08333 10.5811 2.1875C10.8857 2.29167 11.1631 2.46094 11.4131 2.69531C11.6631 2.92708 11.8623 3.23437 12.0107 3.61719C12.1592 4 12.2334 4.47135 12.2334 5.03125V5.42187H7.6084V4.625H11.2959C11.2959 4.28646 11.2282 3.98437 11.0928 3.71875C10.96 3.45312 10.7699 3.24349 10.5225 3.08984C10.2777 2.9362 9.98861 2.85937 9.65527 2.85937C9.28809 2.85937 8.97038 2.95052 8.70215 3.13281C8.43652 3.3125 8.2321 3.54687 8.08887 3.83594C7.94564 4.125 7.87402 4.4349 7.87402 4.76562V5.29688C7.87402 5.75 7.95215 6.13411 8.1084 6.44922C8.26725 6.76172 8.4873 7 8.76855 7.16406C9.0498 7.32552 9.37663 7.40625 9.74902 7.40625C9.99121 7.40625 10.21 7.3724 10.4053 7.30469C10.6032 7.23437 10.7738 7.13021 10.917 6.99219C11.0602 6.85156 11.1709 6.67708 11.249 6.46875L12.1396 6.71875C12.0459 7.02083 11.8883 7.28646 11.667 7.51562C11.4456 7.74219 11.1722 7.91927 10.8467 8.04687C10.5212 8.17188 10.1553 8.23438 9.74902 8.23438ZM13.6357 8.10938V2.10937H14.5264V3.04687H14.6045C14.7295 2.72656 14.9313 2.47786 15.21 2.30078C15.4886 2.12109 15.8232 2.03125 16.2139 2.03125C16.6097 2.03125 16.9391 2.12109 17.2021 2.30078C17.4678 2.47786 17.6748 2.72656 17.8232 3.04687H17.8857C18.0394 2.73698 18.2699 2.49089 18.5771 2.30859C18.8844 2.1237 19.2529 2.03125 19.6826 2.03125C20.2191 2.03125 20.6579 2.19922 20.999 2.53516C21.3402 2.86849 21.5107 3.38802 21.5107 4.09375V8.10938H20.5889V4.09375C20.5889 3.65104 20.4678 3.33464 20.2256 3.14453C19.9834 2.95443 19.6982 2.85937 19.3701 2.85937C18.9482 2.85937 18.6214 2.98698 18.3896 3.24219C18.1579 3.49479 18.042 3.8151 18.042 4.20312V8.10938H17.1045V4C17.1045 3.65885 16.9938 3.38411 16.7725 3.17578C16.5511 2.96484 16.266 2.85937 15.917 2.85937C15.6774 2.85937 15.4535 2.92318 15.2451 3.05078C15.0394 3.17839 14.8727 3.35547 14.7451 3.58203C14.6201 3.80599 14.5576 4.0651 14.5576 4.35937V8.10938H13.6357ZM25.7119 8.23438C25.1338 8.23438 24.6351 8.10677 24.2158 7.85156C23.7992 7.59375 23.4775 7.23437 23.251 6.77344C23.027 6.3099 22.915 5.77083 22.915 5.15625C22.915 4.54167 23.027 4 23.251 3.53125C23.4775 3.0599 23.7926 2.69271 24.1963 2.42969C24.6025 2.16406 25.0765 2.03125 25.6182 2.03125C25.9307 2.03125 26.2393 2.08333 26.5439 2.1875C26.8486 2.29167 27.126 2.46094 27.376 2.69531C27.626 2.92708 27.8252 3.23437 27.9736 3.61719C28.1221 4 28.1963 4.47135 28.1963 5.03125V5.42187H23.5713V4.625H27.2588C27.2588 4.28646 27.1911 3.98437 27.0557 3.71875C26.9229 3.45312 26.7327 3.24349 26.4854 3.08984C26.2406 2.9362 25.9515 2.85937 25.6182 2.85937C25.251 2.85937 24.9333 2.95052 24.665 3.13281C24.3994 3.3125 24.195 3.54687 24.0518 3.83594C23.9085 4.125 23.8369 4.4349 23.8369 4.76562V5.29688C23.8369 5.75 23.915 6.13411 24.0713 6.44922C24.2301 6.76172 24.4502 7 24.7314 7.16406C25.0127 7.32552 25.3395 7.40625 25.7119 7.40625C25.9541 7.40625 26.1729 7.3724 26.3682 7.30469C26.5661 7.23437 26.7367 7.13021 26.8799 6.99219C27.0231 6.85156 27.1338 6.67708 27.2119 6.46875L28.1025 6.71875C28.0088 7.02083 27.8512 7.28646 27.6299 7.51562C27.4085 7.74219 27.1351 7.91927 26.8096 8.04687C26.484 8.17188 26.1182 8.23438 25.7119 8.23438ZM30.5205 4.5V8.10938H29.5986V2.10937H30.4893V3.04687H30.5674C30.708 2.74219 30.9215 2.4974 31.208 2.3125C31.4945 2.125 31.8643 2.03125 32.3174 2.03125C32.7236 2.03125 33.0791 2.11458 33.3838 2.28125C33.6885 2.44531 33.9255 2.69531 34.0947 3.03125C34.264 3.36458 34.3486 3.78646 34.3486 4.29688V8.10938H33.4268V4.35937C33.4268 3.88802 33.3044 3.52083 33.0596 3.25781C32.8148 2.99219 32.4788 2.85937 32.0518 2.85937C31.7575 2.85937 31.4945 2.92318 31.2627 3.05078C31.0335 3.17839 30.8525 3.36458 30.7197 3.60937C30.5869 3.85417 30.5205 4.15104 30.5205 4.5ZM38.6426 2.10937V2.89062H35.5332V2.10937H38.6426ZM36.4395 0.671875H37.3613V6.39062C37.3613 6.65104 37.3991 6.84635 37.4746 6.97656C37.5527 7.10417 37.6517 7.1901 37.7715 7.23438C37.8939 7.27604 38.0228 7.29687 38.1582 7.29687C38.2598 7.29687 38.3431 7.29167 38.4082 7.28125C38.4733 7.26823 38.5254 7.25781 38.5645 7.25L38.752 8.07812C38.6895 8.10156 38.6022 8.125 38.4902 8.14844C38.3783 8.17448 38.2363 8.1875 38.0645 8.1875C37.804 8.1875 37.5488 8.13151 37.2988 8.01953C37.0514 7.90755 36.8457 7.73698 36.6816 7.50781C36.5202 7.27865 36.4395 6.98958 36.4395 6.64062V0.671875ZM42.4805 8.23438C41.9023 8.23438 41.4036 8.10677 40.9844 7.85156C40.5677 7.59375 40.2461 7.23437 40.0195 6.77344C39.7956 6.3099 39.6836 5.77083 39.6836 5.15625C39.6836 4.54167 39.7956 4 40.0195 3.53125C40.2461 3.0599 40.5612 2.69271 40.9648 2.42969C41.3711 2.16406 41.8451 2.03125 42.3867 2.03125C42.6992 2.03125 43.0078 2.08333 43.3125 2.1875C43.6172 2.29167 43.8945 2.46094 44.1445 2.69531C44.3945 2.92708 44.5938 3.23437 44.7422 3.61719C44.8906 4 44.9648 4.47135 44.9648 5.03125V5.42187H40.3398V4.625H44.0273C44.0273 4.28646 43.9596 3.98437 43.8242 3.71875C43.6914 3.45312 43.5013 3.24349 43.2539 3.08984C43.0091 2.9362 42.7201 2.85937 42.3867 2.85937C42.0195 2.85937 41.7018 2.95052 41.4336 3.13281C41.168 3.3125 40.9635 3.54687 40.8203 3.83594C40.6771 4.125 40.6055 4.4349 40.6055 4.76562V5.29688C40.6055 5.75 40.6836 6.13411 40.8398 6.44922C40.9987 6.76172 41.2188 7 41.5 7.16406C41.7813 7.32552 42.1081 7.40625 42.4805 7.40625C42.7227 7.40625 42.9414 7.3724 43.1367 7.30469C43.3346 7.23437 43.5052 7.13021 43.6484 6.99219C43.7917 6.85156 43.9023 6.67708 43.9805 6.46875L44.8711 6.71875C44.7773 7.02083 44.6198 7.28646 44.3984 7.51562C44.1771 7.74219 43.9036 7.91927 43.5781 8.04687C43.2526 8.17188 42.8867 8.23438 42.4805 8.23438ZM50.6172 3.45312L49.7891 3.6875C49.737 3.54948 49.6602 3.41536 49.5586 3.28516C49.4596 3.15234 49.3242 3.04297 49.1523 2.95703C48.9805 2.87109 48.7604 2.82812 48.4922 2.82812C48.125 2.82812 47.819 2.91276 47.5742 3.08203C47.332 3.2487 47.2109 3.46094 47.2109 3.71875C47.2109 3.94792 47.2943 4.12891 47.4609 4.26172C47.6276 4.39453 47.888 4.50521 48.2422 4.59375L49.1328 4.8125C49.6693 4.94271 50.069 5.14193 50.332 5.41016C50.5951 5.67578 50.7266 6.01823 50.7266 6.4375C50.7266 6.78125 50.6276 7.08854 50.4297 7.35937C50.2344 7.63021 49.9609 7.84375 49.6094 8C49.2578 8.15625 48.849 8.23438 48.3828 8.23438C47.7708 8.23438 47.2643 8.10156 46.8633 7.83594C46.4622 7.57031 46.2083 7.18229 46.1016 6.67187L46.9766 6.45312C47.0599 6.77604 47.2174 7.01823 47.4492 7.17969C47.6836 7.34115 47.9896 7.42188 48.3672 7.42188C48.7969 7.42188 49.138 7.33073 49.3906 7.14844C49.6458 6.96354 49.7734 6.74219 49.7734 6.48437C49.7734 6.27604 49.7005 6.10156 49.5547 5.96094C49.4089 5.81771 49.1849 5.71094 48.8828 5.64062L47.8828 5.40625C47.3333 5.27604 46.9297 5.07422 46.6719 4.80078C46.4167 4.52474 46.2891 4.17969 46.2891 3.76562C46.2891 3.42708 46.3841 3.1276 46.5742 2.86719C46.7669 2.60677 47.0286 2.40234 47.3594 2.25391C47.6927 2.10547 48.0703 2.03125 48.4922 2.03125C49.0859 2.03125 49.5521 2.16146 49.8906 2.42187C50.2318 2.68229 50.474 3.02604 50.6172 3.45312Z" fill="#8A7268"/>
</svg>
