<svg width="32" height="12" viewBox="0 0 32 12" fill="none" xmlns="http://www.w3.org/2000/svg">
<path d="M10.32 8.76801C10.32 8.83201 10.3147 8.89601 10.304 8.96001C10.2934 9.02401 10.272 9.08268 10.24 9.13601C10.1014 9.46668 9.8827 9.79201 9.58403 10.112C9.29603 10.4213 8.99736 10.6773 8.68803 10.88C8.20803 11.2 7.69603 11.424 7.15203 11.552C6.6187 11.68 6.06936 11.744 5.50403 11.744C4.3627 11.744 3.37603 11.504 2.54403 11.024C1.7227 10.5333 1.09336 9.85601 0.65603 8.99201C0.218697 8.12801 3.03388e-05 7.13601 3.03388e-05 6.01601C3.03388e-05 5.18401 0.122697 4.40534 0.36803 3.68001C0.613364 2.95468 0.970697 2.32001 1.44003 1.77601C1.90936 1.22134 2.48536 0.789342 3.16803 0.480009C3.8507 0.160009 4.62936 9.53674e-06 5.50403 9.53674e-06C5.9307 9.53674e-06 6.33603 0.0693426 6.72003 0.208009C7.1147 0.336009 7.50936 0.469343 7.90403 0.608009C8.12803 0.682676 8.35736 0.741342 8.59203 0.784009C8.83736 0.826676 9.07736 0.858676 9.31203 0.88001C9.3227 1.11468 9.3387 1.34934 9.36003 1.58401C9.38136 1.80801 9.40803 2.03734 9.44003 2.27201C9.47203 2.48534 9.50936 2.70401 9.55203 2.92801C9.60536 3.14134 9.63203 3.36001 9.63203 3.58401C9.63203 3.75468 9.5947 3.89334 9.52003 4.00001C9.45603 4.10668 9.32803 4.16001 9.13603 4.16001C9.02936 4.16001 8.94936 4.10134 8.89603 3.98401C8.85336 3.87734 8.81603 3.76534 8.78403 3.64801C8.7627 3.52001 8.73603 3.40268 8.70403 3.29601C8.6187 2.94401 8.4747 2.57601 8.27203 2.19201C8.06936 1.79734 7.82403 1.48268 7.53603 1.24801C7.40803 1.13068 7.21603 1.01334 6.96003 0.896009C6.7147 0.778676 6.4587 0.682676 6.19203 0.608009C5.93603 0.533342 5.71736 0.496009 5.53603 0.496009C5.21603 0.496009 4.8907 0.554676 4.56003 0.672009C4.22936 0.789343 3.93603 0.944009 3.68003 1.13601C3.20003 1.50934 2.81603 1.96268 2.52803 2.49601C2.24003 3.01868 2.03203 3.57868 1.90403 4.17601C1.7867 4.77334 1.72803 5.36534 1.72803 5.95201C1.72803 6.59201 1.8027 7.22134 1.95203 7.84001C2.10136 8.44801 2.33603 8.99734 2.65603 9.48801C2.97603 9.97868 3.39203 10.3733 3.90403 10.672C4.41603 10.96 5.04003 11.104 5.77603 11.104C6.08536 11.104 6.43203 11.0613 6.81603 10.976C7.20003 10.88 7.5307 10.7733 7.80803 10.656C8.1387 10.5173 8.4427 10.3413 8.72003 10.128C8.99736 9.90401 9.24803 9.65334 9.47203 9.37601C9.49336 9.35468 9.53603 9.29068 9.60003 9.18401C9.6747 9.07734 9.74936 8.97068 9.82403 8.86401C9.8987 8.75734 9.9467 8.69334 9.96803 8.67201C10.0214 8.60801 10.08 8.57601 10.144 8.57601C10.2614 8.57601 10.32 8.64001 10.32 8.76801ZM20.9218 9.02401C20.9218 9.21601 20.9058 9.41334 20.8738 9.61601C20.8418 9.80801 20.8151 10 20.7938 10.192C20.7618 10.4053 20.7404 10.624 20.7298 10.848C20.7191 11.0613 20.6871 11.2747 20.6338 11.488C20.6231 11.552 20.5911 11.616 20.5378 11.68C20.4951 11.7333 20.4364 11.76 20.3618 11.76C19.2204 11.76 18.0791 11.7547 16.9378 11.744C15.7964 11.7227 14.6551 11.712 13.5138 11.712C13.1724 11.712 12.8258 11.728 12.4738 11.76C12.1324 11.7813 11.7911 11.792 11.4498 11.792C11.3964 11.792 11.3431 11.776 11.2898 11.744C11.2471 11.7013 11.2258 11.6533 11.2258 11.6C11.2258 11.536 11.2418 11.4773 11.2738 11.424C11.3058 11.36 11.3591 11.328 11.4338 11.328C11.6578 11.328 11.8711 11.3173 12.0738 11.296C12.2764 11.264 12.4418 11.1893 12.5698 11.072C12.7084 10.944 12.7778 10.7413 12.7778 10.464V1.28001C12.7778 1.03468 12.7031 0.874676 12.5538 0.800009C12.4044 0.714676 12.2231 0.672009 12.0098 0.672009C11.9031 0.672009 11.8018 0.677343 11.7058 0.688009C11.6098 0.688009 11.5138 0.688009 11.4178 0.688009C11.3324 0.688009 11.2578 0.666676 11.1938 0.624009C11.1298 0.581342 11.0978 0.512009 11.0978 0.416009C11.0978 0.330676 11.1138 0.256009 11.1458 0.192009C11.1778 0.128009 11.2471 0.0960093 11.3538 0.0960093C11.5351 0.0960093 11.7111 0.101343 11.8818 0.112009C12.0631 0.122676 12.2391 0.128009 12.4098 0.128009C13.4871 0.128009 14.5644 0.122676 15.6418 0.112009C16.7191 0.090676 17.7911 0.0800095 18.8578 0.0800095C19.3484 0.0800095 19.8338 0.0640093 20.3138 0.0320091C20.3564 0.341342 20.4098 0.650676 20.4738 0.96001C20.5378 1.26934 20.5911 1.57868 20.6338 1.88801C20.6551 1.95201 20.6711 2.01601 20.6818 2.08001C20.6924 2.13334 20.6978 2.19201 20.6978 2.25601C20.6978 2.36268 20.6604 2.43734 20.5858 2.48001C20.5218 2.52268 20.4418 2.54401 20.3458 2.54401C20.2604 2.54401 20.1964 2.52801 20.1538 2.49601C20.1218 2.45334 20.0898 2.38934 20.0578 2.30401C19.8551 1.66401 19.5831 1.22134 19.2418 0.976009C18.9111 0.730676 18.4044 0.608009 17.7218 0.608009H14.3938V5.42401C14.8098 5.42401 15.2258 5.42401 15.6418 5.42401C16.0578 5.41334 16.4791 5.39734 16.9058 5.37601C17.3431 5.35468 17.7484 5.31734 18.1218 5.26401C18.5058 5.20001 18.9111 5.13068 19.3378 5.05601H19.3538C19.4178 5.05601 19.4498 5.08268 19.4498 5.13601C19.4498 5.21068 19.4178 5.34401 19.3538 5.53601C19.2898 5.72801 19.2418 5.85601 19.2098 5.92001C19.1564 6.04801 19.0711 6.11201 18.9538 6.11201C18.6871 6.11201 18.4098 6.09601 18.1218 6.06401C17.8444 6.02134 17.5671 6.00001 17.2898 6.00001C17.0978 5.98934 16.9058 5.98934 16.7138 6.00001C16.5218 6.00001 16.3244 6.00001 16.1218 6.00001C16.0471 6.00001 15.9671 6.00001 15.8818 6.00001C15.8071 5.98934 15.7271 5.98401 15.6418 5.98401C15.4818 5.98401 15.3058 6.00001 15.1138 6.03201C14.9218 6.05334 14.7511 6.11734 14.6018 6.22401C14.4631 6.32001 14.3938 6.48001 14.3938 6.70401V10.544C14.3938 10.9067 14.4844 11.12 14.6658 11.184C14.8471 11.2373 15.0871 11.264 15.3858 11.264H16.6658C16.9644 11.264 17.2951 11.248 17.6578 11.216C18.0311 11.184 18.3938 11.1147 18.7458 11.008C19.0978 10.9013 19.3858 10.7467 19.6098 10.544C19.8551 10.32 20.0258 10.0747 20.1218 9.80801C20.2284 9.53068 20.3511 9.25334 20.4898 8.97601C20.5431 8.88001 20.6284 8.83201 20.7458 8.83201C20.8631 8.83201 20.9218 8.89601 20.9218 9.02401ZM29.527 2.92801C29.527 2.07468 29.2604 1.45601 28.727 1.07201C28.2044 0.677342 27.5484 0.480009 26.759 0.480009C26.5457 0.480009 26.327 0.485342 26.103 0.496009C25.879 0.496009 25.655 0.496009 25.431 0.496009C25.3244 0.496009 25.2177 0.528009 25.111 0.59201C25.0044 0.656009 24.951 0.746676 24.951 0.864009V5.40801C25.1857 5.57868 25.4737 5.68001 25.815 5.71201C26.1564 5.74401 26.4604 5.76001 26.727 5.76001C27.6444 5.76001 28.3377 5.51468 28.807 5.02401C29.287 4.53334 29.527 3.83468 29.527 2.92801ZM31.287 2.88001C31.287 3.57334 31.1537 4.13868 30.887 4.57601C30.631 5.01334 30.2844 5.35468 29.847 5.60001C29.4097 5.84534 28.9137 6.01601 28.359 6.11201C27.815 6.19734 27.255 6.24001 26.679 6.24001C26.391 6.24001 26.103 6.22401 25.815 6.19201C25.527 6.16001 25.2444 6.12268 24.967 6.08001V10.864C24.967 11.024 25.0364 11.1307 25.175 11.184C25.3137 11.2373 25.4684 11.264 25.639 11.264C25.8097 11.264 25.9484 11.264 26.055 11.264C26.119 11.264 26.183 11.264 26.247 11.264C26.3217 11.2533 26.391 11.248 26.455 11.248C26.551 11.248 26.599 11.2907 26.599 11.376C26.599 11.5147 26.5884 11.6107 26.567 11.664C26.5457 11.7067 26.4604 11.728 26.311 11.728C25.9484 11.728 25.591 11.7173 25.239 11.696C24.887 11.6747 24.535 11.664 24.183 11.664C23.8204 11.664 23.4524 11.68 23.079 11.712C22.7164 11.7333 22.3537 11.744 21.991 11.744C21.8844 11.744 21.831 11.6747 21.831 11.536C21.831 11.472 21.8417 11.4133 21.863 11.36C21.8844 11.3067 21.9377 11.28 22.023 11.28C22.151 11.28 22.279 11.2853 22.407 11.296C22.535 11.296 22.663 11.296 22.791 11.296C22.919 11.296 23.031 11.264 23.127 11.2C23.2337 11.136 23.2924 11.0347 23.303 10.896C23.3244 10.704 23.3297 10.512 23.319 10.32C23.319 10.1173 23.319 9.92001 23.319 9.72801C23.319 9.34401 23.319 8.96001 23.319 8.57601C23.319 8.18134 23.319 7.79201 23.319 7.40801V4.60801C23.319 3.97868 23.3137 3.35468 23.303 2.73601C23.303 2.10668 23.303 1.48268 23.303 0.864009C23.303 0.672009 23.207 0.560009 23.015 0.528009C22.8337 0.485343 22.6737 0.464009 22.535 0.464009C22.439 0.464009 22.343 0.469343 22.247 0.480009C22.151 0.480009 22.0604 0.480009 21.975 0.480009C21.9004 0.480009 21.8577 0.448009 21.847 0.384009C21.847 0.309342 21.847 0.250676 21.847 0.208009C21.847 0.165343 21.8577 0.128009 21.879 0.0960093C21.9004 0.0533425 21.9324 0.0320091 21.975 0.0320091C22.327 0.0320091 22.679 0.042676 23.031 0.0640097C23.383 0.0853427 23.7404 0.0960093 24.103 0.0960093C24.6577 0.0960093 25.2124 0.0853427 25.767 0.0640097C26.3217 0.042676 26.8764 0.0320091 27.431 0.0320091C27.879 0.0320091 28.327 0.0800091 28.775 0.176009C29.2337 0.272009 29.6497 0.432009 30.023 0.65601C30.407 0.880009 30.711 1.17334 30.935 1.53601C31.1697 1.89868 31.287 2.34668 31.287 2.88001Z" fill="white"/>
</svg>
