<svg width="32" height="12" viewBox="0 0 32 12" fill="none" xmlns="http://www.w3.org/2000/svg">
<path d="M10.9321 8.63998C10.9321 8.74398 10.8841 8.79598 10.7881 8.79598C10.4921 8.79598 10.2001 8.78798 9.91212 8.77198C9.62412 8.75598 9.33612 8.74798 9.04812 8.74798C8.91212 8.74798 8.77612 8.75198 8.64012 8.75998C8.50412 8.75998 8.36812 8.76398 8.23212 8.77198C8.09612 8.77998 7.96012 8.79198 7.82412 8.80798C7.69612 8.81598 7.56412 8.81998 7.42812 8.81998C7.35612 8.81998 7.30812 8.79998 7.28412 8.75998C7.26812 8.71198 7.26012 8.65998 7.26012 8.60398C7.26012 8.57198 7.26812 8.53998 7.28412 8.50798C7.30012 8.46798 7.32812 8.44798 7.36812 8.44798C7.39212 8.43998 7.42812 8.43598 7.47612 8.43598C7.53212 8.43598 7.58812 8.43998 7.64412 8.44798C7.70812 8.44798 7.76812 8.44798 7.82412 8.44798C7.93612 8.44798 8.06012 8.43598 8.19612 8.41198C8.34012 8.38798 8.42012 8.29998 8.43612 8.14798C8.44412 8.12398 8.44412 8.09998 8.43612 8.07598C8.43612 8.05198 8.43612 8.02798 8.43612 8.00398V0.647983H8.36412C8.06012 1.47198 7.74412 2.29198 7.41612 3.10798C7.08812 3.91598 6.76012 4.72398 6.43212 5.53198C6.30412 5.85998 6.17212 6.18798 6.03612 6.51598C5.90012 6.84398 5.76412 7.17198 5.62812 7.49998C5.57212 7.64398 5.51612 7.79198 5.46012 7.94398C5.41212 8.09598 5.35212 8.23998 5.28012 8.37598C5.22412 8.46398 5.13612 8.50798 5.01612 8.50798C4.90412 8.50798 4.82012 8.46398 4.76412 8.37598C4.70012 8.25598 4.64012 8.12798 4.58412 7.99198C4.53612 7.85598 4.48412 7.72398 4.42812 7.59598C4.30812 7.31598 4.19212 7.03998 4.08012 6.76798C3.96812 6.49598 3.85612 6.22398 3.74412 5.95198C3.37612 5.07198 3.00812 4.19598 2.64012 3.32398C2.28012 2.44398 1.92012 1.56798 1.56012 0.695983C1.56012 1.93598 1.56012 3.17998 1.56012 4.42798C1.56812 5.66798 1.57212 6.90798 1.57212 8.14798C1.57212 8.30798 1.64012 8.39998 1.77612 8.42398C1.92012 8.44798 2.05212 8.45998 2.17212 8.45998C2.25212 8.45998 2.33212 8.45598 2.41212 8.44798C2.49212 8.43998 2.57212 8.43598 2.65212 8.43598C2.69212 8.43598 2.71212 8.45998 2.71212 8.50798C2.71212 8.54798 2.70812 8.60398 2.70012 8.67598C2.69212 8.74798 2.66012 8.78398 2.60412 8.78398C2.38812 8.78398 2.16812 8.77998 1.94412 8.77198C1.72812 8.75598 1.51212 8.74798 1.29612 8.74798C1.08812 8.74798 0.876121 8.75598 0.660121 8.77198C0.452121 8.77998 0.244121 8.78398 0.0361211 8.78398C0.0281211 8.76798 0.0201211 8.75598 0.0121211 8.74798C0.0121211 8.73198 0.0081211 8.71998 0.000121117 8.71198V8.60398C0.000121117 8.52398 0.0161211 8.47998 0.0481211 8.47198C0.0801211 8.46398 0.124121 8.45998 0.180121 8.45998C0.244121 8.45998 0.304121 8.46398 0.360121 8.47198C0.416121 8.47198 0.472121 8.47198 0.528121 8.47198C0.648121 8.47198 0.776121 8.45598 0.912121 8.42398C1.04812 8.39198 1.12012 8.29998 1.12812 8.14798C1.14412 8.01998 1.14812 7.89198 1.14012 7.76398C1.14012 7.62798 1.14012 7.49598 1.14012 7.36798C1.14012 7.11198 1.13612 6.85598 1.12812 6.59998C1.12812 6.33598 1.12812 6.07598 1.12812 5.81998C1.12812 4.96398 1.13212 4.11198 1.14012 3.26398C1.15612 2.41598 1.16412 1.56798 1.16412 0.719983C1.16412 0.567983 1.09212 0.467983 0.948121 0.419983C0.804121 0.371983 0.672121 0.347983 0.552121 0.347983C0.480121 0.347983 0.408121 0.351983 0.336121 0.359983C0.264121 0.367983 0.192121 0.371983 0.120121 0.371983C0.0721211 0.371983 0.0401211 0.347983 0.0241211 0.299983C0.00812111 0.251983 0.000121117 0.211983 0.000121117 0.179983C0.000121117 0.0679829 0.0441211 0.0119829 0.132121 0.0119829C0.340121 0.0119829 0.552121 0.0199831 0.768121 0.0359833C0.984121 0.0439832 1.19612 0.0479832 1.40412 0.0479832C1.81212 0.0479832 2.22012 0.0359831 2.62812 0.0119829L5.47212 6.85198C5.91212 5.70798 6.37212 4.57598 6.85212 3.45598C7.33212 2.32798 7.77612 1.18798 8.18412 0.0359833C8.38412 0.0439832 8.58012 0.0519831 8.77212 0.059983C8.97212 0.059983 9.17212 0.059983 9.37212 0.059983C9.61212 0.059983 9.84812 0.0519831 10.0801 0.0359833C10.3201 0.0119832 10.5601 -1.69277e-05 10.8001 -1.69277e-05C10.8481 -1.69277e-05 10.8761 0.023983 10.8841 0.0719829C10.8921 0.119983 10.8961 0.159983 10.8961 0.191983C10.8961 0.223983 10.8921 0.263983 10.8841 0.311983C10.8761 0.359983 10.8481 0.383983 10.8001 0.383983C10.6961 0.383983 10.5961 0.379983 10.5001 0.371983C10.4041 0.363983 10.3081 0.359983 10.2121 0.359983C10.1161 0.359983 9.99612 0.383983 9.85212 0.431983C9.71612 0.471983 9.64812 0.551983 9.64812 0.671983V8.05198C9.64812 8.23598 9.70012 8.35198 9.80412 8.39998C9.91612 8.43998 10.0561 8.45998 10.2241 8.45998C10.3201 8.45998 10.4161 8.45598 10.5121 8.44798C10.6081 8.43998 10.7081 8.43598 10.8121 8.43598C10.8761 8.43598 10.9121 8.45998 10.9201 8.50798C10.9281 8.55598 10.9321 8.59998 10.9321 8.63998ZM15.4353 7.40398C15.4033 7.04398 15.3833 6.68398 15.3753 6.32398C15.3753 5.95598 15.3713 5.58798 15.3633 5.21998H15.1953C14.9473 5.21998 14.6713 5.25998 14.3673 5.33998C14.0713 5.41198 13.7873 5.52398 13.5153 5.67598C13.2433 5.82798 13.0193 6.01998 12.8433 6.25198C12.6753 6.47598 12.5913 6.73598 12.5913 7.03198C12.5913 7.41598 12.6993 7.70798 12.9153 7.90798C13.1313 8.09998 13.4233 8.19598 13.7913 8.19598C13.9673 8.19598 14.1593 8.15598 14.3673 8.07598C14.5753 7.98798 14.7753 7.88398 14.9673 7.76398C15.1593 7.64398 15.3153 7.52398 15.4353 7.40398ZM17.5353 8.17198C17.5353 8.20398 17.5313 8.22798 17.5233 8.24398C17.4433 8.41998 17.3073 8.55598 17.1153 8.65198C16.9313 8.73998 16.7473 8.78398 16.5633 8.78398C16.2273 8.78398 15.9833 8.68798 15.8313 8.49598C15.6873 8.29598 15.5713 8.05198 15.4833 7.76398C15.1793 8.04398 14.8433 8.27998 14.4753 8.47198C14.1073 8.65598 13.7113 8.74798 13.2873 8.74798C12.9913 8.74798 12.7113 8.69198 12.4473 8.57998C12.1913 8.45998 11.9833 8.28798 11.8233 8.06398C11.6633 7.83998 11.5833 7.56798 11.5833 7.24798C11.5833 6.91198 11.6673 6.62398 11.8353 6.38398C12.0113 6.13598 12.2313 5.92798 12.4953 5.75998C12.7673 5.58398 13.0553 5.44398 13.3593 5.33998C13.6713 5.22798 13.9633 5.14398 14.2353 5.08798C14.4193 5.04798 14.6073 5.01198 14.7993 4.97998C14.9913 4.94798 15.1793 4.91598 15.3633 4.88398C15.3633 4.65998 15.3513 4.39998 15.3273 4.10398C15.3113 3.80798 15.2513 3.56398 15.1473 3.37198C15.0433 3.18798 14.9033 3.02398 14.7273 2.87998C14.5513 2.73598 14.3553 2.66398 14.1393 2.66398C13.7713 2.66398 13.4833 2.75998 13.2753 2.95198C13.0673 3.14398 12.9193 3.41598 12.8313 3.76798C12.8233 3.80798 12.8153 3.85198 12.8073 3.89998C12.8073 3.93998 12.8033 3.97998 12.7953 4.01998C12.7873 4.06798 12.7553 4.11198 12.6993 4.15198C12.6513 4.18398 12.5993 4.19998 12.5433 4.19998C12.3913 4.19998 12.2513 4.16398 12.1233 4.09198C12.0033 4.01998 11.9433 3.89998 11.9433 3.73198C11.9433 3.63598 11.9593 3.55198 11.9913 3.47998C12.0953 3.23198 12.2633 3.02798 12.4953 2.86798C12.7273 2.69998 12.9833 2.57198 13.2633 2.48398C13.5513 2.39598 13.8193 2.35198 14.0673 2.35198C14.4993 2.35198 14.8913 2.43198 15.2433 2.59198C15.5953 2.75198 15.8753 2.98798 16.0833 3.29998C16.2993 3.60398 16.4073 3.98798 16.4073 4.45198C16.4073 4.97198 16.4033 5.49598 16.3953 6.02398C16.3953 6.55198 16.4113 7.07998 16.4433 7.60798C16.4513 7.78398 16.4873 7.93998 16.5513 8.07598C16.6153 8.20398 16.7473 8.26798 16.9473 8.26798C17.0513 8.26798 17.1593 8.24398 17.2713 8.19598C17.3913 8.13998 17.4673 8.11198 17.4993 8.11198C17.5233 8.11198 17.5353 8.13198 17.5353 8.17198ZM23.2227 5.37598C23.2227 5.10398 23.2067 4.81998 23.1747 4.52398C23.1427 4.21998 23.0747 3.93598 22.9707 3.67198C22.8667 3.40798 22.7107 3.19598 22.5027 3.03598C22.2947 2.86798 22.0107 2.78398 21.6507 2.78398C21.4347 2.78398 21.2027 2.83998 20.9547 2.95198C20.7147 3.05598 20.5027 3.19998 20.3187 3.38398C20.1427 3.56798 20.0427 3.77998 20.0187 4.01998C20.0027 4.26798 19.9947 4.51998 19.9947 4.77598C19.9947 5.03198 19.9947 5.28798 19.9947 5.54398C19.9947 5.76798 19.9947 5.99598 19.9947 6.22798C20.0027 6.45198 20.0107 6.67998 20.0187 6.91198C20.0427 7.31998 20.1747 7.66798 20.4147 7.95598C20.6547 8.23598 20.9947 8.37598 21.4347 8.37598C21.8507 8.37598 22.1787 8.28398 22.4187 8.09998C22.6587 7.90798 22.8347 7.65998 22.9467 7.35598C23.0667 7.05198 23.1427 6.72798 23.1747 6.38398C23.2067 6.03198 23.2227 5.69598 23.2227 5.37598ZM24.4587 5.38798C24.4587 6.01198 24.3467 6.57598 24.1227 7.07998C23.8987 7.58398 23.5627 7.98398 23.1147 8.27998C22.6747 8.56798 22.1227 8.71198 21.4587 8.71198C21.2027 8.71198 20.9387 8.64798 20.6667 8.51998C20.4027 8.38398 20.1787 8.22798 19.9947 8.05198V10.608C19.9947 10.72 20.0387 10.784 20.1267 10.8C20.2227 10.816 20.3107 10.824 20.3907 10.824C20.4627 10.824 20.5347 10.82 20.6067 10.812C20.6787 10.804 20.7507 10.8 20.8227 10.8C20.9267 10.8 20.9787 10.852 20.9787 10.956C20.9787 11.076 20.9187 11.136 20.7987 11.136C20.5507 11.136 20.3027 11.128 20.0547 11.112C19.8067 11.096 19.5587 11.088 19.3107 11.088C19.1027 11.088 18.8947 11.096 18.6867 11.112C18.4867 11.128 18.2827 11.136 18.0747 11.136C18.0187 11.136 17.9827 11.116 17.9667 11.076C17.9587 11.036 17.9547 11 17.9547 10.968C17.9547 10.856 18.0107 10.8 18.1227 10.8C18.1867 10.8 18.2507 10.8 18.3147 10.8C18.3787 10.808 18.4427 10.812 18.5067 10.812C18.5627 10.812 18.6427 10.804 18.7467 10.788C18.8587 10.772 18.9147 10.724 18.9147 10.644C18.9147 9.81198 18.9147 8.97598 18.9147 8.13598C18.9227 7.29598 18.9267 6.45998 18.9267 5.62798C18.9267 5.25198 18.9227 4.87998 18.9147 4.51198C18.9147 4.14398 18.9107 3.77598 18.9027 3.40798C18.8947 3.23198 18.8627 3.11198 18.8067 3.04798C18.7507 2.97598 18.6307 2.93998 18.4467 2.93998C18.3667 2.93998 18.2867 2.95198 18.2067 2.97598C18.1267 2.99198 18.0467 2.99998 17.9667 2.99998C17.8787 2.99998 17.8347 2.95998 17.8347 2.87998C17.8347 2.80798 17.8707 2.75998 17.9427 2.73598C17.9587 2.72798 18.0307 2.71198 18.1587 2.68798C18.2867 2.66398 18.4387 2.63598 18.6147 2.60398C18.7987 2.56398 18.9787 2.52798 19.1547 2.49598C19.3307 2.46398 19.4787 2.43598 19.5987 2.41198C19.7187 2.38798 19.7827 2.37598 19.7907 2.37598C19.8547 2.37598 19.8987 2.41598 19.9227 2.49598C19.9387 2.54398 19.9467 2.63198 19.9467 2.75998C19.9547 2.87998 19.9587 3.00398 19.9587 3.13198C19.9587 3.25198 19.9587 3.34398 19.9587 3.40798C20.1827 3.11198 20.4667 2.86798 20.8107 2.67598C21.1627 2.47598 21.5267 2.37598 21.9027 2.37598C22.4547 2.37598 22.9187 2.52398 23.2947 2.81998C23.6787 3.10798 23.9667 3.48398 24.1587 3.94798C24.3587 4.40398 24.4587 4.88398 24.4587 5.38798ZM29.2634 7.40398C29.2314 7.04398 29.2114 6.68398 29.2034 6.32398C29.2034 5.95598 29.1994 5.58798 29.1914 5.21998H29.0234C28.7754 5.21998 28.4994 5.25998 28.1954 5.33998C27.8994 5.41198 27.6154 5.52398 27.3434 5.67598C27.0714 5.82798 26.8474 6.01998 26.6714 6.25198C26.5034 6.47598 26.4194 6.73598 26.4194 7.03198C26.4194 7.41598 26.5274 7.70798 26.7434 7.90798C26.9594 8.09998 27.2514 8.19598 27.6194 8.19598C27.7954 8.19598 27.9874 8.15598 28.1954 8.07598C28.4034 7.98798 28.6034 7.88398 28.7954 7.76398C28.9874 7.64398 29.1434 7.52398 29.2634 7.40398ZM31.3634 8.17198C31.3634 8.20398 31.3594 8.22798 31.3514 8.24398C31.2714 8.41998 31.1354 8.55598 30.9434 8.65198C30.7594 8.73998 30.5754 8.78398 30.3914 8.78398C30.0554 8.78398 29.8114 8.68798 29.6594 8.49598C29.5154 8.29598 29.3994 8.05198 29.3114 7.76398C29.0074 8.04398 28.6714 8.27998 28.3034 8.47198C27.9354 8.65598 27.5394 8.74798 27.1154 8.74798C26.8194 8.74798 26.5394 8.69198 26.2754 8.57998C26.0194 8.45998 25.8114 8.28798 25.6514 8.06398C25.4914 7.83998 25.4114 7.56798 25.4114 7.24798C25.4114 6.91198 25.4954 6.62398 25.6634 6.38398C25.8394 6.13598 26.0594 5.92798 26.3234 5.75998C26.5954 5.58398 26.8834 5.44398 27.1874 5.33998C27.4994 5.22798 27.7914 5.14398 28.0634 5.08798C28.2474 5.04798 28.4354 5.01198 28.6274 4.97998C28.8194 4.94798 29.0074 4.91598 29.1914 4.88398C29.1914 4.65998 29.1794 4.39998 29.1554 4.10398C29.1394 3.80798 29.0794 3.56398 28.9754 3.37198C28.8714 3.18798 28.7314 3.02398 28.5554 2.87998C28.3794 2.73598 28.1834 2.66398 27.9674 2.66398C27.5994 2.66398 27.3114 2.75998 27.1034 2.95198C26.8954 3.14398 26.7474 3.41598 26.6594 3.76798C26.6514 3.80798 26.6434 3.85198 26.6354 3.89998C26.6354 3.93998 26.6314 3.97998 26.6234 4.01998C26.6154 4.06798 26.5834 4.11198 26.5274 4.15198C26.4794 4.18398 26.4274 4.19998 26.3714 4.19998C26.2194 4.19998 26.0794 4.16398 25.9514 4.09198C25.8314 4.01998 25.7714 3.89998 25.7714 3.73198C25.7714 3.63598 25.7874 3.55198 25.8194 3.47998C25.9234 3.23198 26.0914 3.02798 26.3234 2.86798C26.5554 2.69998 26.8114 2.57198 27.0914 2.48398C27.3794 2.39598 27.6474 2.35198 27.8954 2.35198C28.3274 2.35198 28.7194 2.43198 29.0714 2.59198C29.4234 2.75198 29.7034 2.98798 29.9114 3.29998C30.1274 3.60398 30.2354 3.98798 30.2354 4.45198C30.2354 4.97198 30.2314 5.49598 30.2234 6.02398C30.2234 6.55198 30.2394 7.07998 30.2714 7.60798C30.2794 7.78398 30.3154 7.93998 30.3794 8.07598C30.4434 8.20398 30.5754 8.26798 30.7754 8.26798C30.8794 8.26798 30.9874 8.24398 31.0994 8.19598C31.2194 8.13998 31.2954 8.11198 31.3274 8.11198C31.3514 8.11198 31.3634 8.13198 31.3634 8.17198Z" fill="#9C3F07"/>
</svg>
