<svg width="42" height="12" viewBox="0 0 42 12" fill="none" xmlns="http://www.w3.org/2000/svg">
<path d="M7.18788 4.45198C7.18788 3.98798 7.13588 3.51598 7.03188 3.03598C6.93588 2.55598 6.77588 2.11198 6.55188 1.70398C6.32788 1.29598 6.02788 0.967981 5.65188 0.719981C5.27588 0.463981 4.81188 0.335981 4.25988 0.335981C3.72388 0.335981 3.26788 0.467981 2.89188 0.731981C2.51588 0.995981 2.21188 1.33998 1.97988 1.76398C1.74788 2.17998 1.57588 2.63198 1.46388 3.11998C1.35988 3.59998 1.30788 4.06398 1.30788 4.51198C1.30788 4.98398 1.35588 5.45998 1.45188 5.93998C1.54788 6.41198 1.70788 6.84798 1.93188 7.24798C2.15588 7.63998 2.45588 7.95598 2.83188 8.19598C3.21588 8.43598 3.69188 8.55598 4.25988 8.55598C4.82788 8.55598 5.29988 8.43198 5.67588 8.18398C6.05188 7.93598 6.34788 7.61198 6.56388 7.21198C6.78788 6.80398 6.94788 6.35998 7.04388 5.87998C7.13988 5.39998 7.18788 4.92398 7.18788 4.45198ZM8.49588 4.41598C8.49588 5.30398 8.33188 6.08798 8.00388 6.76798C7.68388 7.43998 7.20788 7.96398 6.57588 8.33998C5.95188 8.71598 5.17988 8.90398 4.25988 8.90398C3.36388 8.90398 2.59588 8.72398 1.95588 8.36398C1.32388 7.99598 0.839881 7.48398 0.503881 6.82798C0.167881 6.16398 -0.00011912 5.39198 -0.00011912 4.51198C-0.00011912 3.89598 0.0998809 3.31598 0.299881 2.77198C0.499881 2.22798 0.787881 1.74798 1.16388 1.33198C1.53988 0.915981 1.98788 0.591981 2.50788 0.35998C3.03588 0.119981 3.61988 -1.93119e-05 4.25988 -1.93119e-05C5.15588 -1.93119e-05 5.91588 0.187981 6.53988 0.563981C7.17188 0.931981 7.65588 1.44798 7.99188 2.11198C8.32788 2.76798 8.49588 3.53598 8.49588 4.41598ZM14.7756 5.43598C14.7756 5.16398 14.7596 4.87998 14.7276 4.58398C14.6956 4.27998 14.6276 3.99598 14.5236 3.73198C14.4196 3.46798 14.2636 3.25598 14.0556 3.09598C13.8476 2.92798 13.5636 2.84398 13.2036 2.84398C12.9876 2.84398 12.7556 2.89998 12.5076 3.01198C12.2676 3.11598 12.0556 3.25998 11.8716 3.44398C11.6956 3.62798 11.5956 3.83998 11.5716 4.07998C11.5556 4.32798 11.5476 4.57998 11.5476 4.83598C11.5476 5.09198 11.5476 5.34798 11.5476 5.60398C11.5476 5.82798 11.5476 6.05598 11.5476 6.28798C11.5556 6.51198 11.5636 6.73998 11.5716 6.97198C11.5956 7.37998 11.7276 7.72798 11.9676 8.01598C12.2076 8.29598 12.5476 8.43598 12.9876 8.43598C13.4036 8.43598 13.7316 8.34398 13.9716 8.15998C14.2116 7.96798 14.3876 7.71998 14.4996 7.41598C14.6196 7.11198 14.6956 6.78798 14.7276 6.44398C14.7596 6.09198 14.7756 5.75598 14.7756 5.43598ZM16.0116 5.44798C16.0116 6.07198 15.8996 6.63598 15.6756 7.13998C15.4516 7.64398 15.1156 8.04398 14.6676 8.33998C14.2276 8.62798 13.6756 8.77198 13.0116 8.77198C12.7556 8.77198 12.4916 8.70798 12.2196 8.57998C11.9556 8.44398 11.7316 8.28798 11.5476 8.11198V10.668C11.5476 10.78 11.5916 10.844 11.6796 10.86C11.7756 10.876 11.8636 10.884 11.9436 10.884C12.0156 10.884 12.0876 10.88 12.1596 10.872C12.2316 10.864 12.3036 10.86 12.3756 10.86C12.4796 10.86 12.5316 10.912 12.5316 11.016C12.5316 11.136 12.4716 11.196 12.3516 11.196C12.1036 11.196 11.8556 11.188 11.6076 11.172C11.3596 11.156 11.1116 11.148 10.8636 11.148C10.6556 11.148 10.4476 11.156 10.2396 11.172C10.0396 11.188 9.83563 11.196 9.62763 11.196C9.57163 11.196 9.53563 11.176 9.51963 11.136C9.51163 11.096 9.50763 11.06 9.50763 11.028C9.50763 10.916 9.56363 10.86 9.67563 10.86C9.73963 10.86 9.80363 10.86 9.86763 10.86C9.93163 10.868 9.99563 10.872 10.0596 10.872C10.1156 10.872 10.1956 10.864 10.2996 10.848C10.4116 10.832 10.4676 10.784 10.4676 10.704C10.4676 9.87198 10.4676 9.03598 10.4676 8.19598C10.4756 7.35598 10.4796 6.51998 10.4796 5.68798C10.4796 5.31198 10.4756 4.93998 10.4676 4.57198C10.4676 4.20398 10.4636 3.83598 10.4556 3.46798C10.4476 3.29198 10.4156 3.17198 10.3596 3.10798C10.3036 3.03598 10.1836 2.99998 9.99963 2.99998C9.91963 2.99998 9.83963 3.01198 9.75963 3.03598C9.67963 3.05198 9.59963 3.05998 9.51963 3.05998C9.43163 3.05998 9.38763 3.01998 9.38763 2.93998C9.38763 2.86798 9.42363 2.81998 9.49563 2.79598C9.51163 2.78798 9.58363 2.77198 9.71163 2.74798C9.83963 2.72398 9.99163 2.69598 10.1676 2.66398C10.3516 2.62398 10.5316 2.58798 10.7076 2.55598C10.8836 2.52398 11.0316 2.49598 11.1516 2.47198C11.2716 2.44798 11.3356 2.43598 11.3436 2.43598C11.4076 2.43598 11.4516 2.47598 11.4756 2.55598C11.4916 2.60398 11.4996 2.69198 11.4996 2.81998C11.5076 2.93998 11.5116 3.06398 11.5116 3.19198C11.5116 3.31198 11.5116 3.40398 11.5116 3.46798C11.7356 3.17198 12.0196 2.92798 12.3636 2.73598C12.7156 2.53598 13.0796 2.43598 13.4556 2.43598C14.0076 2.43598 14.4716 2.58398 14.8476 2.87998C15.2316 3.16798 15.5196 3.54398 15.7116 4.00798C15.9116 4.46398 16.0116 4.94398 16.0116 5.44798ZM22.7244 7.40398C22.7244 7.43598 22.7164 7.46398 22.7004 7.48798C22.5244 7.75198 22.2924 7.98798 22.0044 8.19598C21.7164 8.40398 21.4044 8.57198 21.0684 8.69998C20.7404 8.81998 20.4204 8.87998 20.1084 8.87998C20.0524 8.87998 20.0004 8.87598 19.9524 8.86798C19.9044 8.86798 19.8564 8.86798 19.8084 8.86798C19.7284 8.99598 19.6444 9.11598 19.5564 9.22798C19.4764 9.33998 19.3964 9.45598 19.3164 9.57598C19.4444 9.55998 19.5684 9.54798 19.6884 9.53998C19.8164 9.53198 19.9444 9.52798 20.0724 9.52798C20.2244 9.52798 20.3884 9.53998 20.5644 9.56398C20.7484 9.59598 20.9044 9.65598 21.0324 9.74398C21.1684 9.83998 21.2364 9.98398 21.2364 10.176C21.2364 10.384 21.1764 10.548 21.0564 10.668C20.9444 10.788 20.8004 10.876 20.6244 10.932C20.4484 10.996 20.2644 11.036 20.0724 11.052C19.8804 11.068 19.7084 11.076 19.5564 11.076C19.4044 11.076 19.2364 11.048 19.0524 10.992C18.8764 10.944 18.7164 10.884 18.5724 10.812C18.5244 10.788 18.4404 10.74 18.3204 10.668C18.2084 10.596 18.1524 10.532 18.1524 10.476C18.1524 10.412 18.1804 10.38 18.2364 10.38C18.2604 10.38 18.3164 10.396 18.4044 10.428C18.4924 10.468 18.5524 10.496 18.5844 10.512C18.7364 10.56 18.8924 10.592 19.0524 10.608C19.2204 10.632 19.3804 10.644 19.5324 10.644C19.6204 10.644 19.7444 10.628 19.9044 10.596C20.0644 10.572 20.2084 10.528 20.3364 10.464C20.4724 10.4 20.5404 10.308 20.5404 10.188C20.5404 10.084 20.4924 10.004 20.3964 9.94798C20.3084 9.89198 20.2084 9.84798 20.0964 9.81598C19.9844 9.79198 19.8884 9.77998 19.8084 9.77998C19.6404 9.77998 19.4764 9.79998 19.3164 9.83998C19.1644 9.87998 19.0084 9.92798 18.8484 9.98398C18.9364 9.77598 19.0284 9.57598 19.1244 9.38398C19.2284 9.19198 19.3244 8.99598 19.4124 8.79598C18.9164 8.69198 18.4924 8.49598 18.1404 8.20798C17.7884 7.91998 17.5204 7.56398 17.3364 7.13998C17.1524 6.71598 17.0604 6.25598 17.0604 5.75998C17.0604 5.16798 17.1804 4.61198 17.4204 4.09198C17.6604 3.57198 18.0364 3.15198 18.5484 2.83198C18.7724 2.69598 19.0204 2.58798 19.2924 2.50798C19.5644 2.42798 19.8284 2.38798 20.0844 2.38798C20.3884 2.38798 20.6884 2.45198 20.9844 2.57998C21.1204 2.63598 21.2644 2.69998 21.4164 2.77198C21.5684 2.83598 21.7164 2.86798 21.8604 2.86798C21.9244 2.86798 21.9844 2.85998 22.0404 2.84398C22.0964 2.82798 22.1524 2.81598 22.2084 2.80798C22.2244 3.05598 22.2404 3.30798 22.2564 3.56398C22.2724 3.81998 22.2844 4.07598 22.2924 4.33198V4.36798C22.2924 4.46398 22.2804 4.53198 22.2564 4.57198C22.2404 4.60398 22.1764 4.61998 22.0644 4.61998C22.0084 4.61998 21.9724 4.59198 21.9564 4.53598C21.9404 4.47998 21.9244 4.42798 21.9084 4.37998C21.8524 4.14798 21.7644 3.90798 21.6444 3.65998C21.5324 3.40398 21.3844 3.19598 21.2004 3.03598C21.0804 2.92398 20.9324 2.83198 20.7564 2.75998C20.5804 2.68798 20.4124 2.65198 20.2524 2.65198C19.8684 2.65198 19.5444 2.75198 19.2804 2.95198C19.0164 3.14398 18.8004 3.39598 18.6324 3.70798C18.4724 4.01198 18.3564 4.33998 18.2844 4.69198C18.2124 5.04398 18.1764 5.37598 18.1764 5.68798C18.1764 5.99998 18.2124 6.31598 18.2844 6.63598C18.3564 6.95598 18.4684 7.25598 18.6204 7.53598C18.7804 7.80798 18.9884 8.02798 19.2444 8.19598C19.5004 8.36398 19.8124 8.44798 20.1804 8.44798C20.6604 8.44798 21.0644 8.36798 21.3924 8.20798C21.7284 8.03998 22.0524 7.77998 22.3644 7.42798C22.3884 7.41198 22.4044 7.38798 22.4124 7.35598C22.4284 7.32398 22.4524 7.29998 22.4844 7.28398C22.5004 7.26798 22.5324 7.25998 22.5804 7.25998C22.6764 7.25998 22.7244 7.30798 22.7244 7.40398ZM28.6049 5.69998C28.6049 5.35598 28.5769 5.01198 28.5209 4.66798C28.4729 4.31598 28.3769 3.99198 28.2329 3.69598C28.0969 3.39998 27.8969 3.16398 27.6329 2.98798C27.3689 2.80398 27.0249 2.71198 26.6009 2.71198C26.2009 2.71198 25.8729 2.80798 25.6169 2.99998C25.3689 3.19198 25.1729 3.43998 25.0289 3.74398C24.8929 4.04798 24.7969 4.37598 24.7409 4.72798C24.6929 5.07998 24.6689 5.41198 24.6689 5.72398C24.6689 6.06798 24.6929 6.41198 24.7409 6.75598C24.7969 7.09998 24.8969 7.41198 25.0409 7.69198C25.1849 7.96398 25.3889 8.18398 25.6529 8.35198C25.9249 8.51998 26.2729 8.60398 26.6969 8.60398C27.1129 8.60398 27.4449 8.51598 27.6929 8.33998C27.9489 8.16398 28.1409 7.93198 28.2689 7.64398C28.4049 7.35598 28.4929 7.04398 28.5329 6.70798C28.5809 6.36398 28.6049 6.02798 28.6049 5.69998ZM29.8409 5.73598C29.8409 6.33598 29.6969 6.87598 29.4089 7.35598C29.1289 7.83598 28.7449 8.21598 28.2569 8.49598C27.7769 8.77598 27.2369 8.91598 26.6369 8.91598C26.0529 8.91598 25.5249 8.77598 25.0529 8.49598C24.5809 8.20798 24.2049 7.82798 23.9249 7.35598C23.6449 6.87598 23.5049 6.34398 23.5049 5.75998C23.5049 5.15998 23.6409 4.60798 23.9129 4.10398C24.1849 3.59198 24.5569 3.17998 25.0289 2.86798C25.5089 2.55598 26.0609 2.39998 26.6849 2.39998C27.3569 2.39998 27.9289 2.54398 28.4009 2.83198C28.8729 3.11198 29.2289 3.50398 29.4689 4.00798C29.7169 4.50398 29.8409 5.07998 29.8409 5.73598ZM28.5329 0.443981C28.3889 0.619981 28.2249 0.799981 28.0409 0.983981C27.8569 1.15998 27.6409 1.24798 27.3929 1.24798C27.2009 1.24798 27.0209 1.20398 26.8529 1.11598C26.6849 1.02798 26.5209 0.939981 26.3609 0.85198C26.2009 0.763981 26.0369 0.719981 25.8689 0.719981C25.7009 0.719981 25.5489 0.779981 25.4129 0.899981C25.2849 1.01198 25.1689 1.12398 25.0649 1.23598L24.8129 1.07998C24.9169 0.93598 25.0249 0.78798 25.1369 0.63598C25.2569 0.48398 25.3929 0.35598 25.5449 0.25198C25.6969 0.147981 25.8729 0.0959809 26.0729 0.0959809C26.2569 0.0959809 26.4289 0.139981 26.5889 0.227981C26.7489 0.307981 26.9129 0.39198 27.0809 0.47998C27.2489 0.567981 27.4289 0.611981 27.6209 0.611981C27.7729 0.611981 27.8969 0.571981 27.9929 0.491981C28.0969 0.40398 28.2009 0.30798 28.3049 0.20398L28.5329 0.443981ZM35.2903 4.65598C35.2823 4.32798 35.2543 4.01598 35.2063 3.71998C35.1583 3.41598 35.0423 3.16798 34.8583 2.97598C34.6743 2.77598 34.3743 2.67598 33.9583 2.67598C33.5823 2.67598 33.2743 2.77998 33.0343 2.98798C32.8023 3.18798 32.6223 3.44398 32.4943 3.75598C32.3663 4.05998 32.2703 4.37198 32.2063 4.69198C32.4063 4.69998 32.6023 4.70798 32.7943 4.71598C32.9863 4.71598 33.1783 4.71598 33.3703 4.71598C33.6903 4.71598 34.0103 4.71198 34.3303 4.70398C34.6503 4.68798 34.9703 4.67198 35.2903 4.65598ZM36.6703 7.40398C36.6703 7.44398 36.6623 7.46798 36.6463 7.47598C36.6223 7.55598 36.5623 7.65198 36.4663 7.76398C36.3783 7.87598 36.2783 7.98398 36.1663 8.08798C36.0543 8.18398 35.9623 8.25598 35.8903 8.30398C35.6263 8.48798 35.3263 8.63598 34.9903 8.74798C34.6623 8.85998 34.3343 8.91598 34.0063 8.91598C33.7343 8.91598 33.4303 8.87198 33.0943 8.78398C32.7663 8.69598 32.4863 8.57598 32.2543 8.42398C31.8063 8.12798 31.4783 7.73998 31.2703 7.25998C31.0623 6.77998 30.9583 6.27998 30.9583 5.75998C30.9583 5.16798 31.0743 4.61998 31.3063 4.11598C31.5383 3.61198 31.9103 3.20398 32.4223 2.89198C32.6543 2.75598 32.9143 2.64398 33.2023 2.55598C33.4903 2.45998 33.7663 2.41198 34.0303 2.41198C34.5023 2.41198 34.9183 2.50798 35.2783 2.69998C35.6383 2.89198 35.9183 3.16398 36.1183 3.51598C36.3263 3.85998 36.4303 4.27198 36.4303 4.75198C36.4303 4.88798 36.3983 4.97598 36.3343 5.01598C36.2783 5.05598 36.1903 5.07598 36.0703 5.07598C35.9103 5.07598 35.7503 5.07198 35.5903 5.06398C35.4303 5.05598 35.2703 5.04798 35.1103 5.03998C34.8863 5.02398 34.6623 5.01598 34.4383 5.01598C34.2223 5.01598 34.0023 5.01598 33.7783 5.01598C33.5063 5.01598 33.2343 5.01598 32.9623 5.01598C32.6903 5.01598 32.4183 5.02398 32.1463 5.03998C32.1383 5.16798 32.1303 5.29198 32.1223 5.41198C32.1143 5.53198 32.1103 5.65598 32.1103 5.78398C32.1103 6.07998 32.1463 6.38798 32.2183 6.70798C32.2903 7.01998 32.4063 7.31198 32.5663 7.58398C32.7263 7.84798 32.9303 8.06398 33.1783 8.23198C33.4263 8.39198 33.7263 8.47198 34.0783 8.47198C34.4383 8.47198 34.7823 8.41598 35.1103 8.30398C35.4383 8.19198 35.7383 8.01198 36.0103 7.76398C36.0823 7.69198 36.1463 7.61598 36.2023 7.53598C36.2663 7.44798 36.3343 7.37198 36.4063 7.30798C36.4463 7.26798 36.4903 7.24798 36.5383 7.24798C36.5783 7.24798 36.6103 7.26398 36.6343 7.29598C36.6583 7.32798 36.6703 7.36398 36.6703 7.40398ZM41.9014 7.15198C41.9014 7.51198 41.8213 7.80798 41.6613 8.03998C41.5013 8.26398 41.2933 8.43598 41.0373 8.55598C40.7813 8.67598 40.5013 8.75998 40.1973 8.80798C39.8933 8.85598 39.5973 8.87998 39.3093 8.87998C39.0453 8.87998 38.7813 8.85198 38.5173 8.79598C38.2613 8.73998 38.0013 8.69998 37.7373 8.67598C37.6813 8.45998 37.6253 8.24398 37.5693 8.02798C37.5213 7.81198 37.4653 7.59998 37.4013 7.39198C37.3933 7.36798 37.3733 7.31198 37.3413 7.22398C37.3173 7.13598 37.3053 7.08798 37.3053 7.07998C37.3053 7.01598 37.3253 6.97198 37.3653 6.94798C37.4053 6.91598 37.4533 6.89998 37.5093 6.89998C37.5653 6.89998 37.6053 6.91998 37.6293 6.95998C37.6773 7.01598 37.7173 7.09198 37.7493 7.18798C37.7893 7.28398 37.8253 7.36798 37.8573 7.43998C37.9213 7.56798 37.9773 7.66798 38.0253 7.73998C38.0733 7.80398 38.1493 7.88798 38.2533 7.99198C38.5653 8.31998 38.9533 8.48398 39.4173 8.48398C39.6733 8.48398 39.9053 8.45598 40.1133 8.39998C40.3293 8.34398 40.5013 8.23998 40.6293 8.08798C40.7573 7.92798 40.8213 7.69998 40.8213 7.40398C40.8213 7.14798 40.7413 6.93598 40.5813 6.76798C40.4213 6.59198 40.2133 6.43598 39.9573 6.29998C39.7093 6.16398 39.4453 6.03198 39.1653 5.90398C38.8853 5.77598 38.6173 5.63598 38.3613 5.48398C38.1133 5.32398 37.9093 5.13198 37.7493 4.90798C37.5893 4.68398 37.5093 4.41198 37.5093 4.09198C37.5093 3.69998 37.6093 3.37998 37.8093 3.13198C38.0173 2.88398 38.2813 2.69998 38.6013 2.57998C38.9213 2.45198 39.2533 2.38798 39.5973 2.38798C39.8213 2.38798 40.0213 2.41598 40.1973 2.47198C40.3813 2.52798 40.5733 2.59198 40.7733 2.66398C40.8373 2.68798 40.9013 2.70398 40.9653 2.71198C41.0293 2.71998 41.0933 2.72398 41.1573 2.72398C41.1973 2.72398 41.2333 2.72398 41.2653 2.72398C41.2973 2.72398 41.3293 2.71998 41.3613 2.71198C41.3853 2.85598 41.4053 3.00398 41.4213 3.15598C41.4453 3.29998 41.4653 3.44798 41.4813 3.59998C41.4893 3.65598 41.4973 3.72398 41.5053 3.80398C41.5213 3.87598 41.5293 3.94398 41.5293 4.00798C41.5293 4.06398 41.5173 4.12398 41.4933 4.18798C41.4693 4.24398 41.4213 4.27198 41.3493 4.27198C41.2933 4.27198 41.2453 4.26798 41.2053 4.25998C41.1733 4.24398 41.1453 4.20798 41.1213 4.15198C41.0813 4.07198 41.0453 3.98798 41.0133 3.89998C40.9893 3.80398 40.9613 3.71598 40.9293 3.63598C40.8253 3.35598 40.6453 3.13198 40.3893 2.96398C40.1333 2.78798 39.8573 2.69998 39.5613 2.69998C39.1853 2.69998 38.9013 2.81198 38.7093 3.03598C38.5173 3.25198 38.4213 3.54398 38.4213 3.91198C38.4213 4.03998 38.4533 4.16398 38.5173 4.28398C38.5893 4.40398 38.6693 4.50798 38.7573 4.59598C38.9253 4.75598 39.1213 4.87998 39.3453 4.96798C39.5773 5.05598 39.7973 5.14398 40.0053 5.23198C40.2773 5.35198 40.5573 5.49598 40.8453 5.66398C41.1413 5.83198 41.3893 6.03598 41.5893 6.27598C41.7973 6.51598 41.9014 6.80798 41.9014 7.15198Z" fill="#8A7268"/>
</svg>
