<svg width="95" height="18" viewBox="0 0 95 18" fill="none" xmlns="http://www.w3.org/2000/svg">
<mask id="path-1-outside-1_27_2" maskUnits="userSpaceOnUse" x="-0.197266" y="-0.756805" width="95" height="18" fill="black">
<rect fill="white" x="-0.197266" y="-0.756805" width="95" height="18"/>
<path d="M10.1039 0.879558V13.2432H8.65501L1.91779 3.53581H1.79705V13.2432H0.299894V0.879558H1.74876L8.51012 10.6111H8.63086V0.879558H10.1039ZM16.6736 13.4364C15.8364 13.4364 15.1019 13.2372 14.4701 12.8387C13.8422 12.4403 13.3512 11.8829 12.9971 11.1665C12.6469 10.4501 12.4719 9.61299 12.4719 8.65513C12.4719 7.68922 12.6469 6.84606 12.9971 6.12565C13.3512 5.40524 13.8422 4.84582 14.4701 4.44739C15.1019 4.04895 15.8364 3.84973 16.6736 3.84973C17.5107 3.84973 18.2432 4.04895 18.871 4.44739C19.5029 4.84582 19.9939 5.40524 20.344 6.12565C20.6982 6.84606 20.8753 7.68922 20.8753 8.65513C20.8753 9.61299 20.6982 10.4501 20.344 11.1665C19.9939 11.8829 19.5029 12.4403 18.871 12.8387C18.2432 13.2372 17.5107 13.4364 16.6736 13.4364ZM16.6736 12.1565C17.3095 12.1565 17.8327 11.9935 18.2432 11.6676C18.6537 11.3416 18.9575 10.9129 19.1547 10.3817C19.3519 9.85044 19.4506 9.27492 19.4506 8.65513C19.4506 8.03533 19.3519 7.4578 19.1547 6.92253C18.9575 6.38725 18.6537 5.95461 18.2432 5.62459C17.8327 5.29457 17.3095 5.12956 16.6736 5.12956C16.0377 5.12956 15.5145 5.29457 15.104 5.62459C14.6934 5.95461 14.3896 6.38725 14.1924 6.92253C13.9952 7.4578 13.8966 8.03533 13.8966 8.65513C13.8966 9.27492 13.9952 9.85044 14.1924 10.3817C14.3896 10.9129 14.6934 11.3416 15.104 11.6676C15.5145 11.9935 16.0377 12.1565 16.6736 12.1565ZM27.0827 3.97047V5.17785H22.2773V3.97047H27.0827ZM23.6779 1.74888H25.1026V10.5869C25.1026 10.9894 25.161 11.2913 25.2777 11.4925C25.3984 11.6897 25.5514 11.8225 25.7365 11.8909C25.9257 11.9553 26.1249 11.9875 26.3342 11.9875C26.4911 11.9875 26.6199 11.9795 26.7205 11.9634C26.8211 11.9432 26.9016 11.9271 26.962 11.9151L27.2518 13.1949C27.1552 13.2311 27.0204 13.2673 26.8473 13.3036C26.6742 13.3438 26.4549 13.3639 26.1893 13.3639C25.7868 13.3639 25.3924 13.2774 25.006 13.1043C24.6237 12.9313 24.3058 12.6677 24.0522 12.3135C23.8027 11.9593 23.6779 11.5126 23.6779 10.9733V1.74888ZM29.2259 13.2432V3.97047H30.6506V13.2432H29.2259ZM29.9503 2.42501C29.6726 2.42501 29.4331 2.33043 29.2319 2.14128C29.0347 1.95212 28.9361 1.72473 28.9361 1.4591C28.9361 1.19348 29.0347 0.966087 29.2319 0.77693C29.4331 0.587773 29.6726 0.493195 29.9503 0.493195C30.228 0.493195 30.4654 0.587773 30.6626 0.77693C30.8639 0.966087 30.9645 1.19348 30.9645 1.4591C30.9645 1.72473 30.8639 1.95212 30.6626 2.14128C30.4654 2.33043 30.228 2.42501 29.9503 2.42501ZM37.3893 3.97047V5.17785H32.3907V3.97047H37.3893ZM33.8879 13.2432V2.69064C33.8879 2.15939 34.0126 1.71668 34.2622 1.36251C34.5117 1.00835 34.8357 0.74272 35.2341 0.565637C35.6325 0.388554 36.0531 0.300012 36.4958 0.300012C36.846 0.300012 37.1317 0.328184 37.3531 0.38453C37.5744 0.440874 37.7394 0.493194 37.8481 0.541489L37.4376 1.77302C37.3651 1.74888 37.2645 1.71869 37.1357 1.68247C37.011 1.64625 36.846 1.62814 36.6407 1.62814C36.1698 1.62814 35.8298 1.74686 35.6205 1.98432C35.4152 2.22177 35.3126 2.5699 35.3126 3.02871V13.2432H33.8879ZM39.386 13.2432V3.97047H40.8107V13.2432H39.386ZM40.1104 2.42501C39.8327 2.42501 39.5933 2.33043 39.392 2.14128C39.1948 1.95212 39.0962 1.72473 39.0962 1.4591C39.0962 1.19348 39.1948 0.966087 39.392 0.77693C39.5933 0.587773 39.8327 0.493195 40.1104 0.493195C40.3881 0.493195 40.6256 0.587773 40.8228 0.77693C41.024 0.966087 41.1246 1.19348 41.1246 1.4591C41.1246 1.72473 41.024 1.95212 40.8228 2.14128C40.6256 2.33043 40.3881 2.42501 40.1104 2.42501ZM47.1872 13.4364C46.3179 13.4364 45.5693 13.2311 44.9415 12.8206C44.3137 12.4101 43.8307 11.8446 43.4926 11.1242C43.1546 10.4038 42.9855 9.58079 42.9855 8.65513C42.9855 7.71336 43.1586 6.88228 43.5047 6.16187C43.8548 5.43744 44.3418 4.87198 44.9656 4.4655C45.5935 4.05498 46.326 3.84973 47.1631 3.84973C47.8151 3.84973 48.4027 3.97047 48.9259 4.21194C49.4491 4.45342 49.8777 4.79149 50.2117 5.22615C50.5458 5.66081 50.753 6.16791 50.8335 6.74746H49.4088C49.3002 6.32487 49.0587 5.95058 48.6844 5.62459C48.3141 5.29457 47.8151 5.12956 47.1872 5.12956C46.6318 5.12956 46.1449 5.27444 45.7263 5.56422C45.3118 5.84997 44.9878 6.25444 44.7544 6.77764C44.5249 7.29682 44.4102 7.90655 44.4102 8.60683C44.4102 9.32321 44.5229 9.94703 44.7483 10.4783C44.9777 11.0095 45.2997 11.4221 45.7142 11.7159C46.1328 12.0096 46.6238 12.1565 47.1872 12.1565C47.5575 12.1565 47.8936 12.0922 48.1954 11.9634C48.4972 11.8346 48.7528 11.6494 48.9621 11.408C49.1714 11.1665 49.3203 10.8767 49.4088 10.5386H50.8335C50.753 11.086 50.5538 11.579 50.2359 12.0177C49.922 12.4524 49.5054 12.7985 48.9862 13.056C48.4711 13.3096 47.8714 13.4364 47.1872 13.4364ZM55.645 13.4605C55.0574 13.4605 54.5241 13.3498 54.0452 13.1285C53.5663 12.9031 53.1859 12.5791 52.9042 12.1565C52.6225 11.7299 52.4816 11.2148 52.4816 10.6111C52.4816 10.0798 52.5863 9.64921 52.7955 9.31919C53.0048 8.98515 53.2845 8.72354 53.6347 8.53439C53.9848 8.34523 54.3712 8.20437 54.7938 8.1118C55.2204 8.01521 55.649 7.93874 56.0796 7.8824C56.6431 7.80996 57.0999 7.75562 57.45 7.7194C57.8042 7.67916 58.0618 7.61275 58.2227 7.52018C58.3878 7.42762 58.4703 7.26663 58.4703 7.03723V6.98893C58.4703 6.39329 58.3073 5.93046 57.9813 5.60044C57.6593 5.27042 57.1703 5.10541 56.5143 5.10541C55.8341 5.10541 55.3009 5.25432 54.9145 5.55214C54.5281 5.84997 54.2565 6.16791 54.0995 6.50598L52.7472 6.02302C52.9887 5.45958 53.3107 5.02089 53.7132 4.70697C54.1196 4.38903 54.5624 4.16767 55.0413 4.04291C55.5242 3.91412 55.9991 3.84973 56.466 3.84973C56.7638 3.84973 57.1059 3.88595 57.4923 3.95839C57.8827 4.02681 58.259 4.16969 58.6212 4.38701C58.9874 4.60434 59.2913 4.93235 59.5328 5.37104C59.7742 5.80972 59.895 6.39731 59.895 7.13382V13.2432H58.4703V11.9875H58.3978C58.3012 12.1887 58.1402 12.4041 57.9149 12.6335C57.6895 12.8629 57.3896 13.0581 57.0154 13.219C56.6411 13.38 56.1843 13.4605 55.645 13.4605ZM55.8623 12.1807C56.4258 12.1807 56.9007 12.07 57.287 11.8487C57.6774 11.6273 57.9712 11.3416 58.1684 10.9914C58.3696 10.6413 58.4703 10.273 58.4703 9.88666V8.58268C58.4099 8.65513 58.2771 8.72153 58.0718 8.7819C57.8706 8.83825 57.6372 8.88855 57.3715 8.93282C57.1099 8.97307 56.8544 9.00929 56.6048 9.04149C56.3593 9.06966 56.1601 9.09381 56.0072 9.11393C55.6369 9.16223 55.2908 9.24071 54.9688 9.34937C54.6509 9.45401 54.3933 9.61299 54.1961 9.82629C54.0029 10.0356 53.9063 10.3213 53.9063 10.6835C53.9063 11.1786 54.0895 11.5529 54.4557 11.8064C54.826 12.0559 55.2948 12.1807 55.8623 12.1807ZM66.2624 13.4364C65.3931 13.4364 64.6445 13.2311 64.0167 12.8206C63.3888 12.4101 62.9059 11.8446 62.5678 11.1242C62.2298 10.4038 62.0607 9.58079 62.0607 8.65513C62.0607 7.71336 62.2338 6.88228 62.5799 6.16187C62.93 5.43744 63.417 4.87198 64.0408 4.4655C64.6687 4.05498 65.4012 3.84973 66.2383 3.84973C66.8903 3.84973 67.4779 3.97047 68.0011 4.21194C68.5243 4.45342 68.9529 4.79149 69.2869 5.22615C69.621 5.66081 69.8282 6.16791 69.9087 6.74746H68.484C68.3754 6.32487 68.1339 5.95058 67.7596 5.62459C67.3893 5.29457 66.8903 5.12956 66.2624 5.12956C65.707 5.12956 65.2201 5.27444 64.8015 5.56422C64.387 5.84997 64.063 6.25444 63.8295 6.77764C63.6001 7.29682 63.4854 7.90655 63.4854 8.60683C63.4854 9.32321 63.5981 9.94703 63.8235 10.4783C64.0529 11.0095 64.3749 11.4221 64.7894 11.7159C65.208 12.0096 65.699 12.1565 66.2624 12.1565C66.6327 12.1565 66.9688 12.0922 67.2706 11.9634C67.5724 11.8346 67.828 11.6494 68.0373 11.408C68.2466 11.1665 68.3955 10.8767 68.484 10.5386H69.9087C69.8282 11.086 69.629 11.579 69.3111 12.0177C68.9972 12.4524 68.5806 12.7985 68.0614 13.056C67.5463 13.3096 66.9466 13.4364 66.2624 13.4364ZM65.5863 13.1949H66.7695L66.6729 13.6779C66.9869 13.7261 67.2746 13.8569 67.5362 14.0703C67.7978 14.2876 67.9286 14.6317 67.9286 15.1026C67.9286 15.6217 67.7133 16.0443 67.2827 16.3703C66.8561 16.7003 66.2262 16.8654 65.3931 16.8654L65.3448 15.9236C65.7191 15.9236 66.029 15.8632 66.2745 15.7425C66.524 15.6258 66.6488 15.4286 66.6488 15.1509C66.6488 14.8732 66.5462 14.684 66.3409 14.5834C66.1357 14.4828 65.8036 14.4144 65.3448 14.3781L65.5863 13.1949ZM74.7202 13.4605C74.1326 13.4605 73.5993 13.3498 73.1204 13.1285C72.6415 12.9031 72.2611 12.5791 71.9794 12.1565C71.6977 11.7299 71.5568 11.2148 71.5568 10.6111C71.5568 10.0798 71.6615 9.64921 71.8707 9.31919C72.08 8.98515 72.3597 8.72354 72.7099 8.53439C73.06 8.34523 73.4464 8.20437 73.869 8.1118C74.2956 8.01521 74.7242 7.93874 75.1548 7.8824C75.7183 7.80996 76.1751 7.75562 76.5252 7.7194C76.8794 7.67916 77.137 7.61275 77.2979 7.52018C77.4629 7.42762 77.5455 7.26663 77.5455 7.03723V6.98893C77.5455 6.39329 77.3825 5.93046 77.0565 5.60044C76.7345 5.27042 76.2455 5.10541 75.5895 5.10541C74.9093 5.10541 74.3761 5.25432 73.9897 5.55214C73.6033 5.84997 73.3317 6.16791 73.1747 6.50598L71.8224 6.02302C72.0639 5.45958 72.3859 5.02089 72.7884 4.70697C73.1948 4.38903 73.6375 4.16767 74.1165 4.04291C74.5994 3.91412 75.0743 3.84973 75.5412 3.84973C75.839 3.84973 76.1811 3.88595 76.5675 3.95839C76.9579 4.02681 77.3342 4.16969 77.6964 4.38701C78.0626 4.60434 78.3665 4.93235 78.608 5.37104C78.8494 5.80972 78.9702 6.39731 78.9702 7.13382V13.2432H77.5455V11.9875H77.473C77.3764 12.1887 77.2154 12.4041 76.9901 12.6335C76.7647 12.8629 76.4648 13.0581 76.0906 13.219C75.7163 13.38 75.2595 13.4605 74.7202 13.4605ZM74.9375 12.1807C75.5009 12.1807 75.9759 12.07 76.3622 11.8487C76.7526 11.6273 77.0464 11.3416 77.2436 10.9914C77.4448 10.6413 77.5455 10.273 77.5455 9.88666V8.58268C77.4851 8.65513 77.3523 8.72153 77.147 8.7819C76.9458 8.83825 76.7124 8.88855 76.4467 8.93282C76.1851 8.97307 75.9296 9.00929 75.68 9.04149C75.4345 9.06966 75.2353 9.09381 75.0824 9.11393C74.7121 9.16223 74.366 9.24071 74.044 9.34937C73.7261 9.45401 73.4685 9.61299 73.2713 9.82629C73.0781 10.0356 72.9815 10.3213 72.9815 10.6835C72.9815 11.1786 73.1647 11.5529 73.5309 11.8064C73.9012 12.0559 74.37 12.1807 74.9375 12.1807ZM73.7784 2.85967L72.6676 2.81138C72.6676 2.19561 72.8427 1.69253 73.1928 1.30214C73.547 0.90773 73.9837 0.710524 74.5028 0.710524C74.7322 0.710524 74.9355 0.75077 75.1126 0.831262C75.2897 0.90773 75.4587 0.996272 75.6197 1.09689C75.7807 1.1975 75.9457 1.28806 76.1147 1.36855C76.2878 1.44502 76.483 1.48325 76.7003 1.48325C76.9297 1.48325 77.1229 1.39471 77.2798 1.21763C77.4408 1.03652 77.5213 0.819188 77.5213 0.565637L78.608 0.662229C78.608 1.29007 78.4309 1.78912 78.0767 2.15939C77.7266 2.52965 77.2919 2.71479 76.7727 2.71479C76.495 2.71479 76.2656 2.67655 76.0845 2.60008C75.9034 2.51959 75.7424 2.42904 75.6016 2.32842C75.4607 2.22781 75.3118 2.13926 75.1548 2.0628C74.9979 1.9823 74.8047 1.94206 74.5753 1.94206C74.3459 1.94206 74.1547 2.03261 74.0018 2.21372C73.8529 2.3908 73.7784 2.60612 73.7784 2.85967ZM85.3376 13.4364C84.5005 13.4364 83.766 13.2372 83.1341 12.8387C82.5063 12.4403 82.0153 11.8829 81.6611 11.1665C81.311 10.4501 81.1359 9.61299 81.1359 8.65513C81.1359 7.68922 81.311 6.84606 81.6611 6.12565C82.0153 5.40524 82.5063 4.84582 83.1341 4.44739C83.766 4.04895 84.5005 3.84973 85.3376 3.84973C86.1747 3.84973 86.9072 4.04895 87.5351 4.44739C88.1669 4.84582 88.6579 5.40524 89.0081 6.12565C89.3622 6.84606 89.5393 7.68922 89.5393 8.65513C89.5393 9.61299 89.3622 10.4501 89.0081 11.1665C88.6579 11.8829 88.1669 12.4403 87.5351 12.8387C86.9072 13.2372 86.1747 13.4364 85.3376 13.4364ZM85.3376 12.1565C85.9735 12.1565 86.4967 11.9935 86.9072 11.6676C87.3177 11.3416 87.6216 10.9129 87.8188 10.3817C88.016 9.85044 88.1146 9.27492 88.1146 8.65513C88.1146 8.03533 88.016 7.4578 87.8188 6.92253C87.6216 6.38725 87.3177 5.95461 86.9072 5.62459C86.4967 5.29457 85.9735 5.12956 85.3376 5.12956C84.7017 5.12956 84.1785 5.29457 83.768 5.62459C83.3575 5.95461 83.0537 6.38725 82.8564 6.92253C82.6592 7.4578 82.5606 8.03533 82.5606 8.65513C82.5606 9.27492 82.6592 9.85044 82.8564 10.3817C83.0537 10.9129 83.3575 11.3416 83.768 11.6676C84.1785 11.9935 84.7017 12.1565 85.3376 12.1565ZM92.7525 13.3398C92.4547 13.3398 92.1991 13.2331 91.9858 13.0198C91.7725 12.8065 91.6658 12.551 91.6658 12.2531C91.6658 11.9553 91.7725 11.6998 91.9858 11.4864C92.1991 11.2731 92.4547 11.1665 92.7525 11.1665C93.0503 11.1665 93.3059 11.2731 93.5192 11.4864C93.7325 11.6998 93.8391 11.9553 93.8391 12.2531C93.8391 12.4503 93.7888 12.6315 93.6882 12.7965C93.5916 12.9615 93.4608 13.0943 93.2958 13.1949C93.1348 13.2915 92.9537 13.3398 92.7525 13.3398ZM92.7525 6.45768C92.4547 6.45768 92.1991 6.35103 91.9858 6.13773C91.7725 5.92442 91.6658 5.66886 91.6658 5.37104C91.6658 5.07321 91.7725 4.81765 91.9858 4.60434C92.1991 4.39104 92.4547 4.28439 92.7525 4.28439C93.0503 4.28439 93.3059 4.39104 93.5192 4.60434C93.7325 4.81765 93.8391 5.07321 93.8391 5.37104C93.8391 5.56824 93.7888 5.74935 93.6882 5.91436C93.5916 6.07937 93.4608 6.21218 93.2958 6.3128C93.1348 6.40939 92.9537 6.45768 92.7525 6.45768Z"/>
</mask>
<path d="M10.1039 0.879558V13.2432H8.65501L1.91779 3.53581H1.79705V13.2432H0.299894V0.879558H1.74876L8.51012 10.6111H8.63086V0.879558H10.1039ZM16.6736 13.4364C15.8364 13.4364 15.1019 13.2372 14.4701 12.8387C13.8422 12.4403 13.3512 11.8829 12.9971 11.1665C12.6469 10.4501 12.4719 9.61299 12.4719 8.65513C12.4719 7.68922 12.6469 6.84606 12.9971 6.12565C13.3512 5.40524 13.8422 4.84582 14.4701 4.44739C15.1019 4.04895 15.8364 3.84973 16.6736 3.84973C17.5107 3.84973 18.2432 4.04895 18.871 4.44739C19.5029 4.84582 19.9939 5.40524 20.344 6.12565C20.6982 6.84606 20.8753 7.68922 20.8753 8.65513C20.8753 9.61299 20.6982 10.4501 20.344 11.1665C19.9939 11.8829 19.5029 12.4403 18.871 12.8387C18.2432 13.2372 17.5107 13.4364 16.6736 13.4364ZM16.6736 12.1565C17.3095 12.1565 17.8327 11.9935 18.2432 11.6676C18.6537 11.3416 18.9575 10.9129 19.1547 10.3817C19.3519 9.85044 19.4506 9.27492 19.4506 8.65513C19.4506 8.03533 19.3519 7.4578 19.1547 6.92253C18.9575 6.38725 18.6537 5.95461 18.2432 5.62459C17.8327 5.29457 17.3095 5.12956 16.6736 5.12956C16.0377 5.12956 15.5145 5.29457 15.104 5.62459C14.6934 5.95461 14.3896 6.38725 14.1924 6.92253C13.9952 7.4578 13.8966 8.03533 13.8966 8.65513C13.8966 9.27492 13.9952 9.85044 14.1924 10.3817C14.3896 10.9129 14.6934 11.3416 15.104 11.6676C15.5145 11.9935 16.0377 12.1565 16.6736 12.1565ZM27.0827 3.97047V5.17785H22.2773V3.97047H27.0827ZM23.6779 1.74888H25.1026V10.5869C25.1026 10.9894 25.161 11.2913 25.2777 11.4925C25.3984 11.6897 25.5514 11.8225 25.7365 11.8909C25.9257 11.9553 26.1249 11.9875 26.3342 11.9875C26.4911 11.9875 26.6199 11.9795 26.7205 11.9634C26.8211 11.9432 26.9016 11.9271 26.962 11.9151L27.2518 13.1949C27.1552 13.2311 27.0204 13.2673 26.8473 13.3036C26.6742 13.3438 26.4549 13.3639 26.1893 13.3639C25.7868 13.3639 25.3924 13.2774 25.006 13.1043C24.6237 12.9313 24.3058 12.6677 24.0522 12.3135C23.8027 11.9593 23.6779 11.5126 23.6779 10.9733V1.74888ZM29.2259 13.2432V3.97047H30.6506V13.2432H29.2259ZM29.9503 2.42501C29.6726 2.42501 29.4331 2.33043 29.2319 2.14128C29.0347 1.95212 28.9361 1.72473 28.9361 1.4591C28.9361 1.19348 29.0347 0.966087 29.2319 0.77693C29.4331 0.587773 29.6726 0.493195 29.9503 0.493195C30.228 0.493195 30.4654 0.587773 30.6626 0.77693C30.8639 0.966087 30.9645 1.19348 30.9645 1.4591C30.9645 1.72473 30.8639 1.95212 30.6626 2.14128C30.4654 2.33043 30.228 2.42501 29.9503 2.42501ZM37.3893 3.97047V5.17785H32.3907V3.97047H37.3893ZM33.8879 13.2432V2.69064C33.8879 2.15939 34.0126 1.71668 34.2622 1.36251C34.5117 1.00835 34.8357 0.74272 35.2341 0.565637C35.6325 0.388554 36.0531 0.300012 36.4958 0.300012C36.846 0.300012 37.1317 0.328184 37.3531 0.38453C37.5744 0.440874 37.7394 0.493194 37.8481 0.541489L37.4376 1.77302C37.3651 1.74888 37.2645 1.71869 37.1357 1.68247C37.011 1.64625 36.846 1.62814 36.6407 1.62814C36.1698 1.62814 35.8298 1.74686 35.6205 1.98432C35.4152 2.22177 35.3126 2.5699 35.3126 3.02871V13.2432H33.8879ZM39.386 13.2432V3.97047H40.8107V13.2432H39.386ZM40.1104 2.42501C39.8327 2.42501 39.5933 2.33043 39.392 2.14128C39.1948 1.95212 39.0962 1.72473 39.0962 1.4591C39.0962 1.19348 39.1948 0.966087 39.392 0.77693C39.5933 0.587773 39.8327 0.493195 40.1104 0.493195C40.3881 0.493195 40.6256 0.587773 40.8228 0.77693C41.024 0.966087 41.1246 1.19348 41.1246 1.4591C41.1246 1.72473 41.024 1.95212 40.8228 2.14128C40.6256 2.33043 40.3881 2.42501 40.1104 2.42501ZM47.1872 13.4364C46.3179 13.4364 45.5693 13.2311 44.9415 12.8206C44.3137 12.4101 43.8307 11.8446 43.4926 11.1242C43.1546 10.4038 42.9855 9.58079 42.9855 8.65513C42.9855 7.71336 43.1586 6.88228 43.5047 6.16187C43.8548 5.43744 44.3418 4.87198 44.9656 4.4655C45.5935 4.05498 46.326 3.84973 47.1631 3.84973C47.8151 3.84973 48.4027 3.97047 48.9259 4.21194C49.4491 4.45342 49.8777 4.79149 50.2117 5.22615C50.5458 5.66081 50.753 6.16791 50.8335 6.74746H49.4088C49.3002 6.32487 49.0587 5.95058 48.6844 5.62459C48.3141 5.29457 47.8151 5.12956 47.1872 5.12956C46.6318 5.12956 46.1449 5.27444 45.7263 5.56422C45.3118 5.84997 44.9878 6.25444 44.7544 6.77764C44.5249 7.29682 44.4102 7.90655 44.4102 8.60683C44.4102 9.32321 44.5229 9.94703 44.7483 10.4783C44.9777 11.0095 45.2997 11.4221 45.7142 11.7159C46.1328 12.0096 46.6238 12.1565 47.1872 12.1565C47.5575 12.1565 47.8936 12.0922 48.1954 11.9634C48.4972 11.8346 48.7528 11.6494 48.9621 11.408C49.1714 11.1665 49.3203 10.8767 49.4088 10.5386H50.8335C50.753 11.086 50.5538 11.579 50.2359 12.0177C49.922 12.4524 49.5054 12.7985 48.9862 13.056C48.4711 13.3096 47.8714 13.4364 47.1872 13.4364ZM55.645 13.4605C55.0574 13.4605 54.5241 13.3498 54.0452 13.1285C53.5663 12.9031 53.1859 12.5791 52.9042 12.1565C52.6225 11.7299 52.4816 11.2148 52.4816 10.6111C52.4816 10.0798 52.5863 9.64921 52.7955 9.31919C53.0048 8.98515 53.2845 8.72354 53.6347 8.53439C53.9848 8.34523 54.3712 8.20437 54.7938 8.1118C55.2204 8.01521 55.649 7.93874 56.0796 7.8824C56.6431 7.80996 57.0999 7.75562 57.45 7.7194C57.8042 7.67916 58.0618 7.61275 58.2227 7.52018C58.3878 7.42762 58.4703 7.26663 58.4703 7.03723V6.98893C58.4703 6.39329 58.3073 5.93046 57.9813 5.60044C57.6593 5.27042 57.1703 5.10541 56.5143 5.10541C55.8341 5.10541 55.3009 5.25432 54.9145 5.55214C54.5281 5.84997 54.2565 6.16791 54.0995 6.50598L52.7472 6.02302C52.9887 5.45958 53.3107 5.02089 53.7132 4.70697C54.1196 4.38903 54.5624 4.16767 55.0413 4.04291C55.5242 3.91412 55.9991 3.84973 56.466 3.84973C56.7638 3.84973 57.1059 3.88595 57.4923 3.95839C57.8827 4.02681 58.259 4.16969 58.6212 4.38701C58.9874 4.60434 59.2913 4.93235 59.5328 5.37104C59.7742 5.80972 59.895 6.39731 59.895 7.13382V13.2432H58.4703V11.9875H58.3978C58.3012 12.1887 58.1402 12.4041 57.9149 12.6335C57.6895 12.8629 57.3896 13.0581 57.0154 13.219C56.6411 13.38 56.1843 13.4605 55.645 13.4605ZM55.8623 12.1807C56.4258 12.1807 56.9007 12.07 57.287 11.8487C57.6774 11.6273 57.9712 11.3416 58.1684 10.9914C58.3696 10.6413 58.4703 10.273 58.4703 9.88666V8.58268C58.4099 8.65513 58.2771 8.72153 58.0718 8.7819C57.8706 8.83825 57.6372 8.88855 57.3715 8.93282C57.1099 8.97307 56.8544 9.00929 56.6048 9.04149C56.3593 9.06966 56.1601 9.09381 56.0072 9.11393C55.6369 9.16223 55.2908 9.24071 54.9688 9.34937C54.6509 9.45401 54.3933 9.61299 54.1961 9.82629C54.0029 10.0356 53.9063 10.3213 53.9063 10.6835C53.9063 11.1786 54.0895 11.5529 54.4557 11.8064C54.826 12.0559 55.2948 12.1807 55.8623 12.1807ZM66.2624 13.4364C65.3931 13.4364 64.6445 13.2311 64.0167 12.8206C63.3888 12.4101 62.9059 11.8446 62.5678 11.1242C62.2298 10.4038 62.0607 9.58079 62.0607 8.65513C62.0607 7.71336 62.2338 6.88228 62.5799 6.16187C62.93 5.43744 63.417 4.87198 64.0408 4.4655C64.6687 4.05498 65.4012 3.84973 66.2383 3.84973C66.8903 3.84973 67.4779 3.97047 68.0011 4.21194C68.5243 4.45342 68.9529 4.79149 69.2869 5.22615C69.621 5.66081 69.8282 6.16791 69.9087 6.74746H68.484C68.3754 6.32487 68.1339 5.95058 67.7596 5.62459C67.3893 5.29457 66.8903 5.12956 66.2624 5.12956C65.707 5.12956 65.2201 5.27444 64.8015 5.56422C64.387 5.84997 64.063 6.25444 63.8295 6.77764C63.6001 7.29682 63.4854 7.90655 63.4854 8.60683C63.4854 9.32321 63.5981 9.94703 63.8235 10.4783C64.0529 11.0095 64.3749 11.4221 64.7894 11.7159C65.208 12.0096 65.699 12.1565 66.2624 12.1565C66.6327 12.1565 66.9688 12.0922 67.2706 11.9634C67.5724 11.8346 67.828 11.6494 68.0373 11.408C68.2466 11.1665 68.3955 10.8767 68.484 10.5386H69.9087C69.8282 11.086 69.629 11.579 69.3111 12.0177C68.9972 12.4524 68.5806 12.7985 68.0614 13.056C67.5463 13.3096 66.9466 13.4364 66.2624 13.4364ZM65.5863 13.1949H66.7695L66.6729 13.6779C66.9869 13.7261 67.2746 13.8569 67.5362 14.0703C67.7978 14.2876 67.9286 14.6317 67.9286 15.1026C67.9286 15.6217 67.7133 16.0443 67.2827 16.3703C66.8561 16.7003 66.2262 16.8654 65.3931 16.8654L65.3448 15.9236C65.7191 15.9236 66.029 15.8632 66.2745 15.7425C66.524 15.6258 66.6488 15.4286 66.6488 15.1509C66.6488 14.8732 66.5462 14.684 66.3409 14.5834C66.1357 14.4828 65.8036 14.4144 65.3448 14.3781L65.5863 13.1949ZM74.7202 13.4605C74.1326 13.4605 73.5993 13.3498 73.1204 13.1285C72.6415 12.9031 72.2611 12.5791 71.9794 12.1565C71.6977 11.7299 71.5568 11.2148 71.5568 10.6111C71.5568 10.0798 71.6615 9.64921 71.8707 9.31919C72.08 8.98515 72.3597 8.72354 72.7099 8.53439C73.06 8.34523 73.4464 8.20437 73.869 8.1118C74.2956 8.01521 74.7242 7.93874 75.1548 7.8824C75.7183 7.80996 76.1751 7.75562 76.5252 7.7194C76.8794 7.67916 77.137 7.61275 77.2979 7.52018C77.4629 7.42762 77.5455 7.26663 77.5455 7.03723V6.98893C77.5455 6.39329 77.3825 5.93046 77.0565 5.60044C76.7345 5.27042 76.2455 5.10541 75.5895 5.10541C74.9093 5.10541 74.3761 5.25432 73.9897 5.55214C73.6033 5.84997 73.3317 6.16791 73.1747 6.50598L71.8224 6.02302C72.0639 5.45958 72.3859 5.02089 72.7884 4.70697C73.1948 4.38903 73.6375 4.16767 74.1165 4.04291C74.5994 3.91412 75.0743 3.84973 75.5412 3.84973C75.839 3.84973 76.1811 3.88595 76.5675 3.95839C76.9579 4.02681 77.3342 4.16969 77.6964 4.38701C78.0626 4.60434 78.3665 4.93235 78.608 5.37104C78.8494 5.80972 78.9702 6.39731 78.9702 7.13382V13.2432H77.5455V11.9875H77.473C77.3764 12.1887 77.2154 12.4041 76.9901 12.6335C76.7647 12.8629 76.4648 13.0581 76.0906 13.219C75.7163 13.38 75.2595 13.4605 74.7202 13.4605ZM74.9375 12.1807C75.5009 12.1807 75.9759 12.07 76.3622 11.8487C76.7526 11.6273 77.0464 11.3416 77.2436 10.9914C77.4448 10.6413 77.5455 10.273 77.5455 9.88666V8.58268C77.4851 8.65513 77.3523 8.72153 77.147 8.7819C76.9458 8.83825 76.7124 8.88855 76.4467 8.93282C76.1851 8.97307 75.9296 9.00929 75.68 9.04149C75.4345 9.06966 75.2353 9.09381 75.0824 9.11393C74.7121 9.16223 74.366 9.24071 74.044 9.34937C73.7261 9.45401 73.4685 9.61299 73.2713 9.82629C73.0781 10.0356 72.9815 10.3213 72.9815 10.6835C72.9815 11.1786 73.1647 11.5529 73.5309 11.8064C73.9012 12.0559 74.37 12.1807 74.9375 12.1807ZM73.7784 2.85967L72.6676 2.81138C72.6676 2.19561 72.8427 1.69253 73.1928 1.30214C73.547 0.90773 73.9837 0.710524 74.5028 0.710524C74.7322 0.710524 74.9355 0.75077 75.1126 0.831262C75.2897 0.90773 75.4587 0.996272 75.6197 1.09689C75.7807 1.1975 75.9457 1.28806 76.1147 1.36855C76.2878 1.44502 76.483 1.48325 76.7003 1.48325C76.9297 1.48325 77.1229 1.39471 77.2798 1.21763C77.4408 1.03652 77.5213 0.819188 77.5213 0.565637L78.608 0.662229C78.608 1.29007 78.4309 1.78912 78.0767 2.15939C77.7266 2.52965 77.2919 2.71479 76.7727 2.71479C76.495 2.71479 76.2656 2.67655 76.0845 2.60008C75.9034 2.51959 75.7424 2.42904 75.6016 2.32842C75.4607 2.22781 75.3118 2.13926 75.1548 2.0628C74.9979 1.9823 74.8047 1.94206 74.5753 1.94206C74.3459 1.94206 74.1547 2.03261 74.0018 2.21372C73.8529 2.3908 73.7784 2.60612 73.7784 2.85967ZM85.3376 13.4364C84.5005 13.4364 83.766 13.2372 83.1341 12.8387C82.5063 12.4403 82.0153 11.8829 81.6611 11.1665C81.311 10.4501 81.1359 9.61299 81.1359 8.65513C81.1359 7.68922 81.311 6.84606 81.6611 6.12565C82.0153 5.40524 82.5063 4.84582 83.1341 4.44739C83.766 4.04895 84.5005 3.84973 85.3376 3.84973C86.1747 3.84973 86.9072 4.04895 87.5351 4.44739C88.1669 4.84582 88.6579 5.40524 89.0081 6.12565C89.3622 6.84606 89.5393 7.68922 89.5393 8.65513C89.5393 9.61299 89.3622 10.4501 89.0081 11.1665C88.6579 11.8829 88.1669 12.4403 87.5351 12.8387C86.9072 13.2372 86.1747 13.4364 85.3376 13.4364ZM85.3376 12.1565C85.9735 12.1565 86.4967 11.9935 86.9072 11.6676C87.3177 11.3416 87.6216 10.9129 87.8188 10.3817C88.016 9.85044 88.1146 9.27492 88.1146 8.65513C88.1146 8.03533 88.016 7.4578 87.8188 6.92253C87.6216 6.38725 87.3177 5.95461 86.9072 5.62459C86.4967 5.29457 85.9735 5.12956 85.3376 5.12956C84.7017 5.12956 84.1785 5.29457 83.768 5.62459C83.3575 5.95461 83.0537 6.38725 82.8564 6.92253C82.6592 7.4578 82.5606 8.03533 82.5606 8.65513C82.5606 9.27492 82.6592 9.85044 82.8564 10.3817C83.0537 10.9129 83.3575 11.3416 83.768 11.6676C84.1785 11.9935 84.7017 12.1565 85.3376 12.1565ZM92.7525 13.3398C92.4547 13.3398 92.1991 13.2331 91.9858 13.0198C91.7725 12.8065 91.6658 12.551 91.6658 12.2531C91.6658 11.9553 91.7725 11.6998 91.9858 11.4864C92.1991 11.2731 92.4547 11.1665 92.7525 11.1665C93.0503 11.1665 93.3059 11.2731 93.5192 11.4864C93.7325 11.6998 93.8391 11.9553 93.8391 12.2531C93.8391 12.4503 93.7888 12.6315 93.6882 12.7965C93.5916 12.9615 93.4608 13.0943 93.2958 13.1949C93.1348 13.2915 92.9537 13.3398 92.7525 13.3398ZM92.7525 6.45768C92.4547 6.45768 92.1991 6.35103 91.9858 6.13773C91.7725 5.92442 91.6658 5.66886 91.6658 5.37104C91.6658 5.07321 91.7725 4.81765 91.9858 4.60434C92.1991 4.39104 92.4547 4.28439 92.7525 4.28439C93.0503 4.28439 93.3059 4.39104 93.5192 4.60434C93.7325 4.81765 93.8391 5.07321 93.8391 5.37104C93.8391 5.56824 93.7888 5.74935 93.6882 5.91436C93.5916 6.07937 93.4608 6.21218 93.2958 6.3128C93.1348 6.40939 92.9537 6.45768 92.7525 6.45768Z" fill="#E3E4EB"/>
<path d="M10.1039 0.879558H10.4039V0.579557H10.1039V0.879558ZM10.1039 13.2432V13.5432H10.4039V13.2432H10.1039ZM8.65501 13.2432L8.40855 13.4142L8.49804 13.5432H8.65501V13.2432ZM1.91779 3.53581L2.16425 3.36476L2.07475 3.23581H1.91779V3.53581ZM1.79705 3.53581V3.23581H1.49705V3.53581H1.79705ZM1.79705 13.2432V13.5432H2.09705V13.2432H1.79705ZM0.299894 13.2432H-0.000106454V13.5432H0.299894V13.2432ZM0.299894 0.879558V0.579557H-0.000106454V0.879558H0.299894ZM1.74876 0.879558L1.99513 0.708382L1.90562 0.579557H1.74876V0.879558ZM8.51012 10.6111L8.26375 10.7823L8.35326 10.9111H8.51012V10.6111ZM8.63086 10.6111V10.9111H8.93086V10.6111H8.63086ZM8.63086 0.879558V0.579557H8.33086V0.879558H8.63086ZM10.1039 0.879558H9.80387V13.2432H10.1039H10.4039V0.879558H10.1039ZM10.1039 13.2432V12.9432H8.65501V13.2432V13.5432H10.1039V13.2432ZM8.65501 13.2432L8.90147 13.0721L2.16425 3.36476L1.91779 3.53581L1.67133 3.70686L8.40855 13.4142L8.65501 13.2432ZM1.91779 3.53581V3.23581H1.79705V3.53581V3.83581H1.91779V3.53581ZM1.79705 3.53581H1.49705V13.2432H1.79705H2.09705V3.53581H1.79705ZM1.79705 13.2432V12.9432H0.299894V13.2432V13.5432H1.79705V13.2432ZM0.299894 13.2432H0.599894V0.879558H0.299894H-0.000106454V13.2432H0.299894ZM0.299894 0.879558V1.17956H1.74876V0.879558V0.579557H0.299894V0.879558ZM1.74876 0.879558L1.50239 1.05073L8.26375 10.7823L8.51012 10.6111L8.75649 10.4399L1.99513 0.708382L1.74876 0.879558ZM8.51012 10.6111V10.9111H8.63086V10.6111V10.3111H8.51012V10.6111ZM8.63086 10.6111H8.93086V0.879558H8.63086H8.33086V10.6111H8.63086ZM8.63086 0.879558V1.17956H10.1039V0.879558V0.579557H8.63086V0.879558ZM14.4701 12.8387L14.3093 13.092L14.3101 13.0925L14.4701 12.8387ZM12.9971 11.1665L12.7275 11.2982L12.7281 11.2994L12.9971 11.1665ZM12.9971 6.12565L12.7278 5.99329L12.7273 5.99451L12.9971 6.12565ZM14.4701 4.44738L14.3101 4.19362L14.3093 4.19409L14.4701 4.44738ZM18.871 4.44738L18.7103 4.70068L18.711 4.70115L18.871 4.44738ZM20.344 6.12565L20.0742 6.25679L20.0748 6.25801L20.344 6.12565ZM20.344 11.1665L20.0751 11.0335L20.0745 11.0348L20.344 11.1665ZM18.871 12.8387L18.711 12.585L18.7103 12.5854L18.871 12.8387ZM18.2432 11.6676L18.0566 11.4326V11.4326L18.2432 11.6676ZM19.1547 10.3817L19.436 10.4861V10.4861L19.1547 10.3817ZM19.1547 6.92253L19.4362 6.81882V6.81882L19.1547 6.92253ZM18.2432 5.62459L18.4311 5.39077V5.39077L18.2432 5.62459ZM15.104 5.62459L14.916 5.39077V5.39077L15.104 5.62459ZM14.1924 6.92253L13.9109 6.81882V6.81882L14.1924 6.92253ZM14.1924 10.3817L13.9111 10.4861V10.4861L14.1924 10.3817ZM15.104 11.6676L15.2905 11.4326V11.4326L15.104 11.6676ZM16.6736 13.4364V13.1364C15.886 13.1364 15.2084 12.9496 14.6301 12.585L14.4701 12.8387L14.3101 13.0925C14.9955 13.5247 15.7868 13.7364 16.6736 13.7364V13.4364ZM14.4701 12.8387L14.6308 12.5854C14.0529 12.2186 13.5977 11.7045 13.266 11.0335L12.9971 11.1665L12.7281 11.2994C13.1048 12.0613 13.6316 12.6619 14.3093 13.092L14.4701 12.8387ZM12.9971 11.1665L13.2666 11.0348C12.9401 10.3668 12.7719 9.57641 12.7719 8.65513H12.4719H12.1719C12.1719 9.64957 12.3537 10.5334 12.7275 11.2982L12.9971 11.1665ZM12.4719 8.65513H12.7719C12.7719 7.72543 12.9403 6.92878 13.2669 6.25679L12.9971 6.12565L12.7273 5.99451C12.3536 6.76334 12.1719 7.65301 12.1719 8.65513H12.4719ZM12.9971 6.12565L13.2663 6.25801C13.5981 5.58304 14.0533 5.0672 14.6308 4.70068L14.4701 4.44738L14.3093 4.19409C13.6312 4.62444 13.1043 5.22745 12.7278 5.9933L12.9971 6.12565ZM14.4701 4.44738L14.6301 4.70115C15.2084 4.33646 15.886 4.14973 16.6736 4.14973V3.84973V3.54973C15.7868 3.54973 14.9955 3.76143 14.3101 4.19362L14.4701 4.44738ZM16.6736 3.84973V4.14973C17.4611 4.14973 18.1363 4.33647 18.7103 4.70068L18.871 4.44738L19.0318 4.19409C18.35 3.76142 17.5602 3.54973 16.6736 3.54973V3.84973ZM18.871 4.44738L18.711 4.70115C19.2921 5.06758 19.7467 5.58291 20.0742 6.25679L20.344 6.12565L20.6138 5.99451C20.2411 5.22758 19.7136 4.62407 19.031 4.19362L18.871 4.44738ZM20.344 6.12565L20.0748 6.25801C20.405 6.92969 20.5753 7.7259 20.5753 8.65513H20.8753H21.1753C21.1753 7.65254 20.9914 6.76243 20.6132 5.9933L20.344 6.12565ZM20.8753 8.65513H20.5753C20.5753 9.57593 20.4051 10.3659 20.0751 11.0335L20.344 11.1665L20.6129 11.2994C20.9912 10.5343 21.1753 9.65004 21.1753 8.65513H20.8753ZM20.344 11.1665L20.0745 11.0348C19.7471 11.7046 19.2925 12.2183 18.711 12.585L18.871 12.8387L19.031 13.0925C19.7132 12.6623 20.2407 12.0611 20.6135 11.2982L20.344 11.1665ZM18.871 12.8387L18.7103 12.5854C18.1363 12.9496 17.4611 13.1364 16.6736 13.1364V13.4364V13.7364C17.5602 13.7364 18.35 13.5247 19.0318 13.092L18.871 12.8387ZM16.6736 12.1565V12.4565C17.3623 12.4565 17.9556 12.279 18.4297 11.9025L18.2432 11.6676L18.0566 11.4326C17.7097 11.7081 17.2566 11.8565 16.6736 11.8565V12.1565ZM18.2432 11.6676L18.4297 11.9025C18.8866 11.5397 19.2213 11.0644 19.436 10.4861L19.1547 10.3817L18.8735 10.2773C18.6937 10.7615 18.4208 11.1434 18.0566 11.4326L18.2432 11.6676ZM19.1547 10.3817L19.436 10.4861C19.6467 9.91844 19.7506 9.30721 19.7506 8.65513H19.4506H19.1506C19.1506 9.24262 19.0572 9.78244 18.8735 10.2773L19.1547 10.3817ZM19.4506 8.65513H19.7506C19.7506 8.00301 19.6467 7.39006 19.4362 6.81882L19.1547 6.92253L18.8732 7.02624C19.0572 7.52554 19.1506 8.06766 19.1506 8.65513H19.4506ZM19.1547 6.92253L19.4362 6.81882C19.2218 6.23688 18.8875 5.75769 18.4311 5.39077L18.2432 5.62459L18.0552 5.8584C18.4198 6.15152 18.6932 6.53762 18.8732 7.02624L19.1547 6.92253ZM18.2432 5.62459L18.4311 5.39077C17.9569 5.00955 17.3631 4.82956 16.6736 4.82956V5.12956V5.42956C17.2558 5.42956 17.7084 5.57958 18.0552 5.8584L18.2432 5.62459ZM16.6736 5.12956V4.82956C15.984 4.82956 15.3902 5.00955 14.916 5.39077L15.104 5.62459L15.2919 5.8584C15.6387 5.57958 16.0914 5.42956 16.6736 5.42956V5.12956ZM15.104 5.62459L14.916 5.39077C14.4596 5.75769 14.1253 6.23688 13.9109 6.81882L14.1924 6.92253L14.4739 7.02624C14.6539 6.53762 14.9273 6.15152 15.2919 5.8584L15.104 5.62459ZM14.1924 6.92253L13.9109 6.81882C13.7004 7.39006 13.5966 8.00301 13.5966 8.65513H13.8966H14.1966C14.1966 8.06766 14.2899 7.52554 14.4739 7.02624L14.1924 6.92253ZM13.8966 8.65513H13.5966C13.5966 9.30721 13.7004 9.91844 13.9111 10.4861L14.1924 10.3817L14.4736 10.2773C14.2899 9.78244 14.1966 9.24262 14.1966 8.65513H13.8966ZM14.1924 10.3817L13.9111 10.4861C14.1258 11.0644 14.4605 11.5397 14.9174 11.9025L15.104 11.6676L15.2905 11.4326C14.9264 11.1434 14.6534 10.7615 14.4736 10.2773L14.1924 10.3817ZM15.104 11.6676L14.9174 11.9025C15.3916 12.279 15.9848 12.4565 16.6736 12.4565V12.1565V11.8565C16.0905 11.8565 15.6374 11.7081 15.2905 11.4326L15.104 11.6676ZM27.0827 3.97047H27.3827V3.67047H27.0827V3.97047ZM27.0827 5.17785V5.47785H27.3827V5.17785H27.0827ZM22.2773 5.17785H21.9773V5.47785H22.2773V5.17785ZM22.2773 3.97047V3.67047H21.9773V3.97047H22.2773ZM23.6779 1.74888V1.44888H23.3779V1.74888H23.6779ZM25.1026 1.74888H25.4026V1.44888H25.1026V1.74888ZM25.2777 11.4925L25.0181 11.643L25.0218 11.6491L25.2777 11.4925ZM25.7365 11.8909L25.6325 12.1724L25.6398 12.1749L25.7365 11.8909ZM26.7205 11.9634L26.768 12.2598L26.7794 12.2575L26.7205 11.9634ZM26.962 11.9151L27.2546 11.8488L27.19 11.5635L26.9032 11.6209L26.962 11.9151ZM27.2518 13.1949L27.3571 13.4758L27.6022 13.3839L27.5444 13.1287L27.2518 13.1949ZM26.8473 13.3036L26.7858 13.0099L26.7793 13.0114L26.8473 13.3036ZM25.006 13.1043L24.8823 13.3777L24.8834 13.3781L25.006 13.1043ZM24.0522 12.3135L23.8069 12.4863L23.8083 12.4881L24.0522 12.3135ZM27.0827 3.97047H26.7827V5.17785H27.0827H27.3827V3.97047H27.0827ZM27.0827 5.17785V4.87785H22.2773V5.17785V5.47785H27.0827V5.17785ZM22.2773 5.17785H22.5773V3.97047H22.2773H21.9773V5.17785H22.2773ZM22.2773 3.97047V4.27047H27.0827V3.97047V3.67047H22.2773V3.97047ZM23.6779 1.74888V2.04888H25.1026V1.74888V1.44888H23.6779V1.74888ZM25.1026 1.74888H24.8026V10.5869H25.1026H25.4026V1.74888H25.1026ZM25.1026 10.5869H24.8026C24.8026 11.0086 24.862 11.3738 25.0182 11.643L25.2777 11.4925L25.5372 11.342C25.4599 11.2087 25.4026 10.9702 25.4026 10.5869H25.1026ZM25.2777 11.4925L25.0218 11.6491C25.1715 11.8935 25.3737 12.0767 25.6325 12.1723L25.7365 11.8909L25.8405 11.6095C25.729 11.5683 25.6254 11.4859 25.5336 11.3358L25.2777 11.4925ZM25.7365 11.8909L25.6398 12.1749C25.8616 12.2504 26.0936 12.2875 26.3342 12.2875V11.9875V11.6875C26.1562 11.6875 25.9898 11.6602 25.8332 11.6069L25.7365 11.8909ZM26.3342 11.9875V12.2875C26.4995 12.2875 26.6456 12.2792 26.7679 12.2596L26.7205 11.9634L26.6731 11.6671C26.5942 11.6798 26.4828 11.6875 26.3342 11.6875V11.9875ZM26.7205 11.9634L26.7794 12.2575C26.88 12.2374 26.9605 12.2213 27.0208 12.2092L26.962 11.9151L26.9032 11.6209C26.8428 11.633 26.7623 11.6491 26.6617 11.6692L26.7205 11.9634ZM26.962 11.9151L26.6694 11.9813L26.9592 13.2611L27.2518 13.1949L27.5444 13.1287L27.2546 11.8488L26.962 11.9151ZM27.2518 13.1949L27.1464 12.914C27.0707 12.9424 26.9529 12.975 26.7858 13.0099L26.8473 13.3036L26.9088 13.5972C27.0878 13.5597 27.2397 13.5198 27.3571 13.4758L27.2518 13.1949ZM26.8473 13.3036L26.7793 13.0114C26.6366 13.0446 26.4421 13.0639 26.1893 13.0639V13.3639V13.6639C26.4677 13.6639 26.7119 13.6431 26.9153 13.5958L26.8473 13.3036ZM26.1893 13.3639V13.0639C25.8313 13.0639 25.4785 12.9873 25.1287 12.8306L25.006 13.1043L24.8834 13.3781C25.3063 13.5676 25.7424 13.6639 26.1893 13.6639V13.3639ZM25.006 13.1043L25.1297 12.831C24.7973 12.6806 24.5202 12.4518 24.2961 12.1389L24.0522 12.3135L23.8083 12.4881C24.0913 12.8835 24.4501 13.182 24.8823 13.3777L25.006 13.1043ZM24.0522 12.3135L24.2974 12.1407C24.0914 11.8483 23.9779 11.466 23.9779 10.9733H23.6779H23.3779C23.3779 11.5592 23.5139 12.0704 23.807 12.4863L24.0522 12.3135ZM23.6779 10.9733H23.9779V1.74888H23.6779H23.3779V10.9733H23.6779ZM29.2259 13.2432H28.9259V13.5432H29.2259V13.2432ZM29.2259 3.97047V3.67047H28.9259V3.97047H29.2259ZM30.6506 3.97047H30.9506V3.67047H30.6506V3.97047ZM30.6506 13.2432V13.5432H30.9506V13.2432H30.6506ZM29.2319 2.14128L29.0242 2.35779L29.0264 2.35986L29.2319 2.14128ZM29.2319 0.77693L29.0264 0.558331L29.0242 0.560426L29.2319 0.77693ZM30.6626 0.77693L30.455 0.993445L30.4572 0.995518L30.6626 0.77693ZM30.6626 2.14128L30.4572 1.92268L30.455 1.92477L30.6626 2.14128ZM29.2259 13.2432H29.5259V3.97047H29.2259H28.9259V13.2432H29.2259ZM29.2259 3.97047V4.27047H30.6506V3.97047V3.67047H29.2259V3.97047ZM30.6506 3.97047H30.3506V13.2432H30.6506H30.9506V3.97047H30.6506ZM30.6506 13.2432V12.9432H29.2259V13.2432V13.5432H30.6506V13.2432ZM29.9503 2.42501V2.12501C29.7485 2.12501 29.5826 2.05923 29.4374 1.92269L29.2319 2.14128L29.0264 2.35986C29.2836 2.60164 29.5967 2.72501 29.9503 2.72501V2.42501ZM29.2319 2.14128L29.4396 1.92477C29.2994 1.79036 29.2361 1.64039 29.2361 1.4591H28.9361H28.6361C28.6361 1.80907 28.7699 2.11388 29.0242 2.35778L29.2319 2.14128ZM28.9361 1.4591H29.2361C29.2361 1.27782 29.2994 1.12785 29.4396 0.993434L29.2319 0.77693L29.0242 0.560426C28.7699 0.804329 28.6361 1.10914 28.6361 1.4591H28.9361ZM29.2319 0.77693L29.4374 0.995519C29.5826 0.858978 29.7485 0.793195 29.9503 0.793195V0.493195V0.193194C29.5967 0.193194 29.2836 0.316567 29.0264 0.558341L29.2319 0.77693ZM29.9503 0.493195V0.793195C30.152 0.793195 30.3146 0.85882 30.455 0.993435L30.6626 0.77693L30.8703 0.560426C30.6162 0.316726 30.304 0.193194 29.9503 0.193194V0.493195ZM30.6626 0.77693L30.4572 0.995518C30.6008 1.13051 30.6645 1.2799 30.6645 1.4591H30.9645H31.2645C31.2645 1.10706 31.127 0.801661 30.8681 0.558342L30.6626 0.77693ZM30.9645 1.4591H30.6645C30.6645 1.63831 30.6008 1.78769 30.4572 1.92269L30.6626 2.14128L30.8681 2.35987C31.127 2.11655 31.2645 1.81115 31.2645 1.4591H30.9645ZM30.6626 2.14128L30.455 1.92477C30.3146 2.05939 30.152 2.12501 29.9503 2.12501V2.42501V2.72501C30.304 2.72501 30.6162 2.60148 30.8703 2.35778L30.6626 2.14128ZM37.3893 3.97047H37.6893V3.67047H37.3893V3.97047ZM37.3893 5.17785V5.47785H37.6893V5.17785H37.3893ZM32.3907 5.17785H32.0907V5.47785H32.3907V5.17785ZM32.3907 3.97047V3.67047H32.0907V3.97047H32.3907ZM33.8879 13.2432H33.5879V13.5432H33.8879V13.2432ZM34.2622 1.36251L34.0169 1.18973V1.18973L34.2622 1.36251ZM35.2341 0.565637L35.1123 0.291493V0.291493L35.2341 0.565637ZM37.3531 0.384529L37.2791 0.675259V0.675259L37.3531 0.384529ZM37.8481 0.54149L38.1327 0.636357L38.2188 0.377966L37.9699 0.267346L37.8481 0.54149ZM37.4376 1.77302L37.3427 2.05763L37.6273 2.1525L37.7222 1.86789L37.4376 1.77302ZM37.1357 1.68247L37.0521 1.97058L37.0545 1.97127L37.1357 1.68247ZM35.6205 1.98432L35.3954 1.78595L35.3935 1.78813L35.6205 1.98432ZM35.3126 13.2432V13.5432H35.6126V13.2432H35.3126ZM37.3893 3.97047H37.0893V5.17785H37.3893H37.6893V3.97047H37.3893ZM37.3893 5.17785V4.87785H32.3907V5.17785V5.47785H37.3893V5.17785ZM32.3907 5.17785H32.6907V3.97047H32.3907H32.0907V5.17785H32.3907ZM32.3907 3.97047V4.27047H37.3893V3.97047V3.67047H32.3907V3.97047ZM33.8879 13.2432H34.1879V2.69064H33.8879H33.5879V13.2432H33.8879ZM33.8879 2.69064H34.1879C34.1879 2.20706 34.3009 1.82841 34.5074 1.5353L34.2622 1.36251L34.0169 1.18973C33.7244 1.60494 33.5879 2.11172 33.5879 2.69064H33.8879ZM34.2622 1.36251L34.5074 1.5353C34.7255 1.22574 35.0067 0.994996 35.3559 0.839781L35.2341 0.565637L35.1123 0.291493C34.6646 0.490444 34.2979 0.790946 34.0169 1.18973L34.2622 1.36251ZM35.2341 0.565637L35.3559 0.839781C35.7154 0.680013 36.0944 0.600012 36.4958 0.600012V0.300012V1.14441e-05C36.0118 1.14441e-05 35.5497 0.0970945 35.1123 0.291493L35.2341 0.565637ZM36.4958 0.300012V0.600012C36.8328 0.600012 37.0911 0.627415 37.2791 0.675259L37.3531 0.384529L37.4271 0.0938005C37.1723 0.0289545 36.8592 1.14441e-05 36.4958 1.14441e-05V0.300012ZM37.3531 0.384529L37.2791 0.675259C37.4961 0.730492 37.6413 0.777869 37.7263 0.815633L37.8481 0.54149L37.9699 0.267346C37.8376 0.208518 37.6528 0.151256 37.4271 0.0938005L37.3531 0.384529ZM37.8481 0.54149L37.5635 0.446621L37.153 1.67815L37.4376 1.77302L37.7222 1.86789L38.1327 0.636357L37.8481 0.54149ZM37.4376 1.77302L37.5325 1.48842C37.4534 1.46206 37.3475 1.43038 37.217 1.39367L37.1357 1.68247L37.0545 1.97127C37.1816 2.007 37.2769 2.0357 37.3427 2.05763L37.4376 1.77302ZM37.1357 1.68247L37.2194 1.39437C37.0564 1.34706 36.8599 1.32814 36.6407 1.32814V1.62814V1.92814C36.832 1.92814 36.9655 1.94544 37.0521 1.97057L37.1357 1.68247ZM36.6407 1.62814V1.32814C36.1262 1.32814 35.6847 1.45769 35.3954 1.78596L35.6205 1.98432L35.8455 2.18268C35.9748 2.03604 36.2135 1.92814 36.6407 1.92814V1.62814ZM35.6205 1.98432L35.3935 1.78813C35.1235 2.10048 35.0126 2.53037 35.0126 3.02871H35.3126H35.6126C35.6126 2.60942 35.7069 2.34306 35.8474 2.1805L35.6205 1.98432ZM35.3126 3.02871H35.0126V13.2432H35.3126H35.6126V3.02871H35.3126ZM35.3126 13.2432V12.9432H33.8879V13.2432V13.5432H35.3126V13.2432ZM39.386 13.2432H39.086V13.5432H39.386V13.2432ZM39.386 3.97047V3.67047H39.086V3.97047H39.386ZM40.8107 3.97047H41.1107V3.67047H40.8107V3.97047ZM40.8107 13.2432V13.5432H41.1107V13.2432H40.8107ZM39.392 2.14128L39.1844 2.35779L39.1866 2.35986L39.392 2.14128ZM39.392 0.77693L39.1866 0.558331L39.1844 0.560426L39.392 0.77693ZM40.8228 0.77693L40.6151 0.993445L40.6173 0.995518L40.8228 0.77693ZM40.8228 2.14128L40.6173 1.92268L40.6151 1.92477L40.8228 2.14128ZM39.386 13.2432H39.686V3.97047H39.386H39.086V13.2432H39.386ZM39.386 3.97047V4.27047H40.8107V3.97047V3.67047H39.386V3.97047ZM40.8107 3.97047H40.5107V13.2432H40.8107H41.1107V3.97047H40.8107ZM40.8107 13.2432V12.9432H39.386V13.2432V13.5432H40.8107V13.2432ZM40.1104 2.42501V2.12501C39.9086 2.12501 39.7428 2.05923 39.5975 1.92269L39.392 2.14128L39.1866 2.35986C39.4438 2.60164 39.7569 2.72501 40.1104 2.72501V2.42501ZM39.392 2.14128L39.5997 1.92477C39.4596 1.79036 39.3962 1.64039 39.3962 1.4591H39.0962H38.7962C38.7962 1.80907 38.9301 2.11388 39.1844 2.35778L39.392 2.14128ZM39.0962 1.4591H39.3962C39.3962 1.27782 39.4596 1.12785 39.5997 0.993434L39.392 0.77693L39.1844 0.560426C38.9301 0.804329 38.7962 1.10914 38.7962 1.4591H39.0962ZM39.392 0.77693L39.5975 0.995519C39.7428 0.858978 39.9086 0.793195 40.1104 0.793195V0.493195V0.193194C39.7569 0.193194 39.4438 0.316567 39.1866 0.558341L39.392 0.77693ZM40.1104 0.493195V0.793195C40.3121 0.793195 40.4748 0.85882 40.6151 0.993435L40.8228 0.77693L41.0305 0.560426C40.7764 0.316726 40.4641 0.193194 40.1104 0.193194V0.493195ZM40.8228 0.77693L40.6173 0.995518C40.7609 1.13051 40.8246 1.2799 40.8246 1.4591H41.1246H41.4246C41.4246 1.10706 41.2871 0.801661 41.0283 0.558342L40.8228 0.77693ZM41.1246 1.4591H40.8246C40.8246 1.63831 40.7609 1.78769 40.6173 1.92269L40.8228 2.14128L41.0283 2.35987C41.2871 2.11655 41.4246 1.81115 41.4246 1.4591H41.1246ZM40.8228 2.14128L40.6151 1.92477C40.4748 2.05939 40.3121 2.12501 40.1104 2.12501V2.42501V2.72501C40.4641 2.72501 40.7764 2.60148 41.0305 2.35778L40.8228 2.14128ZM44.9415 12.8206L44.7773 13.0717V13.0717L44.9415 12.8206ZM43.5047 6.16187L43.2346 6.03132L43.2343 6.03196L43.5047 6.16187ZM44.9656 4.4655L45.1294 4.71684L45.1298 4.71659L44.9656 4.4655ZM50.2117 5.22615L50.4496 5.04334V5.04334L50.2117 5.22615ZM50.8335 6.74746V7.04746H51.1781L51.1307 6.70618L50.8335 6.74746ZM49.4088 6.74746L49.1183 6.82217L49.1762 7.04746H49.4088V6.74746ZM48.6844 5.62459L48.4848 5.84855L48.4874 5.85081L48.6844 5.62459ZM45.7263 5.56422L45.8966 5.81122L45.8971 5.81087L45.7263 5.56422ZM44.7543 6.77764L44.4804 6.65541L44.4799 6.65639L44.7543 6.77764ZM44.7483 10.4783L44.4721 10.5954L44.4729 10.5972L44.7483 10.4783ZM45.7142 11.7159L45.5407 11.9606L45.5419 11.9614L45.7142 11.7159ZM48.1954 11.9634L48.0777 11.6874V11.6874L48.1954 11.9634ZM48.9621 11.408L49.1888 11.6044V11.6044L48.9621 11.408ZM49.4088 10.5386V10.2386H49.1773L49.1186 10.4626L49.4088 10.5386ZM50.8335 10.5386L51.1303 10.5823L51.1809 10.2386H50.8335V10.5386ZM50.2359 12.0177L49.993 11.8416L49.9927 11.8421L50.2359 12.0177ZM48.9862 13.056L49.1187 13.3252L49.1196 13.3248L48.9862 13.056ZM47.1872 13.4364V13.1364C46.3667 13.1364 45.6773 12.9433 45.1057 12.5695L44.9415 12.8206L44.7773 13.0717C45.4613 13.5189 46.2691 13.7364 47.1872 13.7364V13.4364ZM44.9415 12.8206L45.1057 12.5695C44.5273 12.1913 44.0801 11.67 43.7642 10.9968L43.4926 11.1242L43.2211 11.2517C43.5813 12.0193 44.1 12.6289 44.7773 13.0717L44.9415 12.8206ZM43.4926 11.1242L43.7642 10.9968C43.4477 10.3223 43.2855 9.54389 43.2855 8.65513H42.9855H42.6855C42.6855 9.61769 42.8614 10.4854 43.2211 11.2517L43.4926 11.1242ZM42.9855 8.65513H43.2855C43.2855 7.75038 43.4517 6.96505 43.7751 6.29179L43.5047 6.16187L43.2343 6.03196C42.8655 6.79951 42.6855 7.67635 42.6855 8.65513H42.9855ZM43.5047 6.16187L43.7748 6.29242C44.1032 5.61308 44.5551 5.0911 45.1294 4.71684L44.9656 4.4655L44.8019 4.21415C44.1286 4.65286 43.6065 5.26181 43.2346 6.03132L43.5047 6.16187ZM44.9656 4.4655L45.1298 4.71659C45.7033 4.34161 46.3773 4.14973 47.1631 4.14973V3.84973V3.54973C46.2747 3.54973 45.4837 3.76835 44.8015 4.2144L44.9656 4.4655ZM47.1631 3.84973V4.14973C47.7774 4.14973 48.3212 4.2633 48.8002 4.48433L48.9259 4.21194L49.0516 3.93956C48.4841 3.67764 47.8528 3.54973 47.1631 3.54973V3.84973ZM48.9259 4.21194L48.8002 4.48433C49.2816 4.70654 49.6709 5.01477 49.9739 5.40896L50.2117 5.22615L50.4496 5.04334C50.0845 4.5682 49.6165 4.2003 49.0516 3.93956L48.9259 4.21194ZM50.2117 5.22615L49.9739 5.40895C50.2741 5.79959 50.4626 6.25711 50.5364 6.78873L50.8335 6.74746L51.1307 6.70618C51.0435 6.07871 50.8175 5.52202 50.4496 5.04334L50.2117 5.22615ZM50.8335 6.74746V6.44746H49.4088V6.74746V7.04746H50.8335V6.74746ZM49.4088 6.74746L49.6994 6.67274C49.5736 6.18351 49.295 5.75856 48.8814 5.39836L48.6844 5.62459L48.4874 5.85081C48.8224 6.1426 49.0268 6.46624 49.1183 6.82217L49.4088 6.74746ZM48.6844 5.62459L48.884 5.40063C48.4454 5.00966 47.8685 4.82956 47.1872 4.82956V5.12956V5.42956C47.7617 5.42956 48.1829 5.57947 48.4848 5.84854L48.6844 5.62459ZM47.1872 5.12956V4.82956C46.5766 4.82956 46.0288 4.98988 45.5555 5.31756L45.7263 5.56422L45.8971 5.81087C46.2609 5.55901 46.687 5.42956 47.1872 5.42956V5.12956ZM45.7263 5.56422L45.556 5.31721C45.0901 5.63837 44.7331 6.08898 44.4804 6.65541L44.7543 6.77764L45.0283 6.89987C45.2425 6.4199 45.5334 6.06156 45.8966 5.81122L45.7263 5.56422ZM44.7543 6.77764L44.4799 6.65639C44.2302 7.22159 44.1102 7.87429 44.1102 8.60683H44.4102H44.7102C44.7102 7.9388 44.8197 7.37204 45.0288 6.89889L44.7543 6.77764ZM44.4102 8.60683H44.1102C44.1102 9.35405 44.2277 10.0194 44.4721 10.5954L44.7483 10.4783L45.0245 10.3611C44.8181 9.87471 44.7102 9.29237 44.7102 8.60683H44.4102ZM44.7483 10.4783L44.4729 10.5972C44.721 11.1718 45.0754 11.6308 45.5408 11.9606L45.7142 11.7159L45.8877 11.4711C45.524 11.2133 45.2344 10.8473 45.0237 10.3593L44.7483 10.4783ZM45.7142 11.7159L45.5419 11.9614C46.016 12.2942 46.5687 12.4565 47.1872 12.4565V12.1565V11.8565C46.6789 11.8565 46.2495 11.7251 45.8866 11.4703L45.7142 11.7159ZM47.1872 12.1565V12.4565C47.5928 12.4565 47.9696 12.3859 48.3131 12.2393L48.1954 11.9634L48.0777 11.6874C47.8175 11.7984 47.5222 11.8565 47.1872 11.8565V12.1565ZM48.1954 11.9634L48.3131 12.2393C48.6557 12.0931 48.9489 11.8813 49.1888 11.6044L48.9621 11.408L48.7354 11.2115C48.5567 11.4176 48.3388 11.576 48.0777 11.6874L48.1954 11.9634ZM48.9621 11.408L49.1888 11.6044C49.4309 11.325 49.5999 10.993 49.699 10.6147L49.4088 10.5386L49.1186 10.4626C49.0406 10.7604 48.9118 11.0079 48.7354 11.2115L48.9621 11.408ZM49.4088 10.5386V10.8386H50.8335V10.5386V10.2386H49.4088V10.5386ZM50.8335 10.5386L50.5367 10.495C50.4631 10.9956 50.2819 11.443 49.993 11.8416L50.2359 12.0177L50.4788 12.1938C50.8257 11.7151 51.043 11.1764 51.1303 10.5823L50.8335 10.5386ZM50.2359 12.0177L49.9927 11.8421C49.7096 12.2341 49.3321 12.5496 48.8529 12.7873L48.9862 13.056L49.1196 13.3248C49.6788 13.0474 50.1344 12.6706 50.4791 12.1933L50.2359 12.0177ZM48.9862 13.056L48.8538 12.7869C48.387 13.0166 47.8342 13.1364 47.1872 13.1364V13.4364V13.7364C47.9086 13.7364 48.5552 13.6026 49.1187 13.3252L48.9862 13.056ZM54.0452 13.1285L53.9174 13.3999L53.9193 13.4008L54.0452 13.1285ZM52.9042 12.1565L52.6539 12.3219L52.6546 12.323L52.9042 12.1565ZM52.7955 9.31919L53.0489 9.47985L53.0498 9.47846L52.7955 9.31919ZM54.7938 8.1118L54.858 8.40486L54.86 8.4044L54.7938 8.1118ZM56.0796 7.8824L56.0414 7.58485L56.0407 7.58493L56.0796 7.8824ZM57.45 7.7194L57.4809 8.01782L57.4839 8.01748L57.45 7.7194ZM58.2227 7.52018L58.076 7.25852L58.0732 7.26011L58.2227 7.52018ZM57.9813 5.60044L57.7665 5.80994L57.7678 5.81127L57.9813 5.60044ZM54.9145 5.55214L55.0977 5.78975V5.78975L54.9145 5.55214ZM54.0995 6.50598L53.9986 6.7885L54.2564 6.88055L54.3716 6.63231L54.0995 6.50598ZM52.7472 6.02302L52.4715 5.90485L52.3458 6.1982L52.6463 6.30555L52.7472 6.02302ZM53.7132 4.70697L53.8977 4.94352L53.898 4.94327L53.7132 4.70697ZM55.0413 4.04291L55.1169 4.33323L55.1186 4.33278L55.0413 4.04291ZM57.4923 3.95839L57.437 4.25327L57.4405 4.25389L57.4923 3.95839ZM58.6212 4.38701L58.4668 4.64427L58.4681 4.64501L58.6212 4.38701ZM59.5328 5.37104L59.2699 5.5157V5.5157L59.5328 5.37104ZM59.895 13.2432V13.5432H60.195V13.2432H59.895ZM58.4703 13.2432H58.1703V13.5432H58.4703V13.2432ZM58.4703 11.9875H58.7703V11.6875H58.4703V11.9875ZM58.3978 11.9875V11.6875H58.209L58.1274 11.8577L58.3978 11.9875ZM57.9149 12.6335L58.1289 12.8437V12.8437L57.9149 12.6335ZM57.0154 13.219L56.8968 12.9435V12.9435L57.0154 13.219ZM57.287 11.8487L57.139 11.5877L57.1379 11.5884L57.287 11.8487ZM58.1684 10.9914L57.9083 10.8419L57.907 10.8442L58.1684 10.9914ZM58.4703 8.58268H58.7703V7.75406L58.2398 8.39063L58.4703 8.58268ZM58.0718 8.7819L58.1527 9.07082L58.1565 9.06971L58.0718 8.7819ZM57.3715 8.93283L57.4172 9.22936L57.4209 9.22874L57.3715 8.93283ZM56.6048 9.04149L56.6391 9.33956L56.6432 9.33902L56.6048 9.04149ZM56.0072 9.11393L56.046 9.41141L56.0463 9.41137L56.0072 9.11393ZM54.9688 9.34937L55.0626 9.63435L55.0648 9.63362L54.9688 9.34937ZM54.1961 9.82629L53.9758 9.62263L53.9757 9.62281L54.1961 9.82629ZM54.4557 11.8064L54.2849 12.0531L54.288 12.0552L54.4557 11.8064ZM55.645 13.4605V13.1605C55.0959 13.1605 54.6062 13.0573 54.1711 12.8562L54.0452 13.1285L53.9193 13.4008C54.442 13.6424 55.0189 13.7605 55.645 13.7605V13.4605ZM54.0452 13.1285L54.1729 12.857C53.7412 12.6539 53.4039 12.3653 53.1538 11.9901L52.9042 12.1565L52.6546 12.323C52.9679 12.793 53.3913 13.1523 53.9174 13.3999L54.0452 13.1285ZM52.9042 12.1565L53.1545 11.9912C52.9107 11.622 52.7816 11.1668 52.7816 10.6111H52.4816H52.1816C52.1816 11.2627 52.3343 11.8379 52.6539 12.3219L52.9042 12.1565ZM52.4816 10.6111H52.7816C52.7816 10.1169 52.8792 9.74746 53.0489 9.47985L52.7955 9.31919L52.5422 9.15853C52.2933 9.55095 52.1816 10.0428 52.1816 10.6111H52.4816ZM52.7955 9.31919L53.0498 9.47846C53.2312 9.18881 53.4723 8.96309 53.7773 8.79833L53.6347 8.53439L53.4921 8.27044C53.0968 8.484 52.7784 8.78148 52.5413 9.15991L52.7955 9.31919ZM53.6347 8.53439L53.7773 8.79833C54.1007 8.62359 54.4604 8.49194 54.858 8.40485L54.7938 8.1118L54.7296 7.81875C54.282 7.91679 53.8689 8.06687 53.4921 8.27044L53.6347 8.53439ZM54.7938 8.1118L54.86 8.4044C55.2777 8.30984 55.6972 8.235 56.1186 8.17986L56.0796 7.8824L56.0407 7.58493C55.6008 7.64249 55.1631 7.72059 54.7275 7.81921L54.7938 8.1118ZM56.0796 7.8824L56.1179 8.17995C56.6802 8.10766 57.1342 8.05367 57.4809 8.01781L57.45 7.7194L57.4191 7.42099C57.0655 7.45758 56.606 7.51225 56.0414 7.58485L56.0796 7.8824ZM57.45 7.7194L57.4839 8.01748C57.8482 7.97608 58.1563 7.90444 58.3723 7.78025L58.2227 7.52018L58.0732 7.26011C57.9672 7.32106 57.7602 7.38223 57.4161 7.42132L57.45 7.7194ZM58.2227 7.52018L58.3695 7.78183C58.6508 7.62405 58.7703 7.34786 58.7703 7.03723H58.4703H58.1703C58.1703 7.18541 58.1247 7.23118 58.076 7.25854L58.2227 7.52018ZM58.4703 7.03723H58.7703V6.98893H58.4703H58.1703V7.03723H58.4703ZM58.4703 6.98893H58.7703C58.7703 6.33778 58.5907 5.7905 58.1947 5.38961L57.9813 5.60044L57.7678 5.81127C58.0238 6.07042 58.1703 6.44879 58.1703 6.98893H58.4703ZM57.9813 5.60044L58.196 5.39094C57.7973 4.98225 57.2165 4.80541 56.5143 4.80541V5.10541V5.40541C57.1241 5.40541 57.5213 5.55859 57.7665 5.80994L57.9813 5.60044ZM56.5143 5.10541V4.80541C55.7935 4.80541 55.1874 4.963 54.7314 5.31454L54.9145 5.55214L55.0977 5.78975C55.4143 5.54564 55.8748 5.40541 56.5143 5.40541V5.10541ZM54.9145 5.55214L54.7314 5.31454C54.3182 5.63301 54.01 5.9865 53.8274 6.37964L54.0995 6.50598L54.3716 6.63231C54.503 6.34932 54.7381 6.06692 55.0977 5.78975L54.9145 5.55214ZM54.0995 6.50598L54.2004 6.22346L52.8481 5.7405L52.7472 6.02302L52.6463 6.30555L53.9986 6.7885L54.0995 6.50598ZM52.7472 6.02302L53.023 6.1412C53.2485 5.61495 53.5424 5.22062 53.8977 4.94352L53.7132 4.70697L53.5286 4.47042C53.079 4.82117 52.7289 5.3042 52.4715 5.90485L52.7472 6.02302ZM53.7132 4.70697L53.898 4.94327C54.2736 4.64951 54.6794 4.4472 55.1169 4.33322L55.0413 4.04291L54.9657 3.7526C54.4453 3.88815 53.9657 4.12855 53.5283 4.47067L53.7132 4.70697ZM55.0413 4.04291L55.1186 4.33278C55.5781 4.21025 56.027 4.14973 56.466 4.14973V3.84973V3.54973C55.9713 3.54973 55.4704 3.618 54.964 3.75304L55.0413 4.04291ZM56.466 3.84973V4.14973C56.7405 4.14973 57.0634 4.18322 57.437 4.25325L57.4923 3.95839L57.5476 3.66353C57.1484 3.58868 56.7872 3.54973 56.466 3.54973V3.84973ZM57.4923 3.95839L57.4405 4.25389C57.7923 4.31555 58.1341 4.44461 58.4668 4.64426L58.6212 4.38701L58.7755 4.12977C58.3839 3.89476 57.973 3.73808 57.5441 3.6629L57.4923 3.95839ZM58.6212 4.38701L58.4681 4.64501C58.7808 4.83056 59.0497 5.11559 59.2699 5.5157L59.5328 5.37104L59.7956 5.22637C59.5329 4.74912 59.1941 4.37813 58.7743 4.12902L58.6212 4.38701ZM59.5328 5.37104L59.2699 5.5157C59.4782 5.89406 59.595 6.42577 59.595 7.13382H59.895H60.195C60.195 6.36885 60.0703 5.72538 59.7956 5.22637L59.5328 5.37104ZM59.895 7.13382H59.595V13.2432H59.895H60.195V7.13382H59.895ZM59.895 13.2432V12.9432H58.4703V13.2432V13.5432H59.895V13.2432ZM58.4703 13.2432H58.7703V11.9875H58.4703H58.1703V13.2432H58.4703ZM58.4703 11.9875V11.6875H58.3978V11.9875V12.2875H58.4703V11.9875ZM58.3978 11.9875L58.1274 11.8577C58.0498 12.0192 57.9124 12.2079 57.7009 12.4232L57.9149 12.6335L58.1289 12.8437C58.3681 12.6002 58.5526 12.3583 58.6683 12.1173L58.3978 11.9875ZM57.9149 12.6335L57.7009 12.4232C57.509 12.6185 57.2445 12.7939 56.8968 12.9435L57.0154 13.219L57.1339 13.4946C57.5348 13.3222 57.87 13.1072 58.1289 12.8437L57.9149 12.6335ZM57.0154 13.219L56.8968 12.9435C56.57 13.084 56.156 13.1605 55.645 13.1605V13.4605V13.7605C56.2125 13.7605 56.7122 13.676 57.1339 13.4946L57.0154 13.219ZM55.8623 12.1807V12.4807C56.4644 12.4807 56.9939 12.3624 57.4362 12.109L57.287 11.8487L57.1379 11.5884C56.8075 11.7777 56.3871 11.8807 55.8623 11.8807V12.1807ZM57.287 11.8487L57.435 12.1096C57.8671 11.8646 58.2028 11.5417 58.4298 11.1386L58.1684 10.9914L57.907 10.8442C57.7396 11.1414 57.4877 11.39 57.139 11.5877L57.287 11.8487ZM58.1684 10.9914L58.4285 11.1409C58.6547 10.7474 58.7703 10.3279 58.7703 9.88666H58.4703H58.1703C58.1703 10.2181 58.0846 10.5351 57.9083 10.8419L58.1684 10.9914ZM58.4703 9.88666H58.7703V8.58268H58.4703H58.1703V9.88666H58.4703ZM58.4703 8.58268L58.2398 8.39063C58.2469 8.38205 58.2395 8.39432 58.1912 8.41849C58.146 8.44112 58.0795 8.46694 57.9872 8.49409L58.0718 8.7819L58.1565 9.06971C58.2694 9.0365 58.372 8.99893 58.4595 8.95515C58.544 8.91291 58.6332 8.85576 58.7007 8.77474L58.4703 8.58268ZM58.0718 8.7819L57.9909 8.49301C57.8026 8.54576 57.5801 8.59393 57.3222 8.63691L57.3715 8.93283L57.4209 9.22874C57.6943 9.18318 57.9386 9.13073 58.1527 9.07079L58.0718 8.7819ZM57.3715 8.93283L57.3259 8.63631C57.0666 8.67621 56.8134 8.71209 56.5665 8.74396L56.6048 9.04149L56.6432 9.33902C56.8953 9.3065 57.1533 9.26993 57.4172 9.22934L57.3715 8.93283ZM56.6048 9.04149L56.5706 8.74345C56.3243 8.77171 56.1233 8.79607 55.9681 8.8165L56.0072 9.11393L56.0463 9.41137C56.1969 9.39155 56.3943 9.36761 56.639 9.33953L56.6048 9.04149ZM56.0072 9.11393L55.9684 8.81645C55.5806 8.86704 55.2152 8.94961 54.8729 9.06513L54.9688 9.34937L55.0648 9.63362C55.3665 9.5318 55.6933 9.45742 56.046 9.41141L56.0072 9.11393ZM54.9688 9.34937L54.8751 9.06441C54.5162 9.18253 54.2126 9.36657 53.9758 9.62263L54.1961 9.82629L54.4164 10.0299C54.5741 9.8594 54.7856 9.7255 55.0626 9.63434L54.9688 9.34937ZM54.1961 9.82629L53.9757 9.62281C53.7185 9.90137 53.6063 10.2672 53.6063 10.6835H53.9063H54.2063C54.2063 10.3755 54.2873 10.1698 54.4166 10.0298L54.1961 9.82629ZM53.9063 10.6835H53.6063C53.6063 11.2642 53.8278 11.7366 54.2849 12.0531L54.4557 11.8064L54.6265 11.5597C54.3511 11.3691 54.2063 11.0929 54.2063 10.6835H53.9063ZM54.4557 11.8064L54.288 12.0552C54.7197 12.3461 55.2512 12.4807 55.8623 12.4807V12.1807V11.8807C55.3384 11.8807 54.9322 11.7658 54.6234 11.5576L54.4557 11.8064ZM64.0167 12.8206L63.8525 13.0717V13.0717L64.0167 12.8206ZM62.5799 6.16187L62.3098 6.03132L62.3095 6.03196L62.5799 6.16187ZM64.0408 4.4655L64.2046 4.71684L64.205 4.71659L64.0408 4.4655ZM69.2869 5.22615L69.5248 5.04334V5.04334L69.2869 5.22615ZM69.9087 6.74746V7.04746H70.2533L70.2059 6.70618L69.9087 6.74746ZM68.484 6.74746L68.1935 6.82217L68.2514 7.04746H68.484V6.74746ZM67.7596 5.62459L67.56 5.84855L67.5626 5.85081L67.7596 5.62459ZM64.8015 5.56422L64.9718 5.81122L64.9723 5.81087L64.8015 5.56422ZM63.8295 6.77764L63.5556 6.65541L63.5551 6.65639L63.8295 6.77764ZM63.8235 10.4783L63.5473 10.5954L63.5481 10.5972L63.8235 10.4783ZM64.7894 11.7159L64.6159 11.9606L64.6171 11.9614L64.7894 11.7159ZM67.2706 11.9634L67.1529 11.6874V11.6874L67.2706 11.9634ZM68.0373 11.408L68.264 11.6044V11.6044L68.0373 11.408ZM68.484 10.5386V10.2386H68.2525L68.1938 10.4626L68.484 10.5386ZM69.9087 10.5386L70.2055 10.5823L70.2561 10.2386H69.9087V10.5386ZM69.3111 12.0177L69.0682 11.8416L69.0679 11.8421L69.3111 12.0177ZM68.0614 13.056L68.1939 13.3252L68.1948 13.3248L68.0614 13.056ZM65.5863 13.1949V12.8949H65.3413L65.2924 13.1349L65.5863 13.1949ZM66.7695 13.1949L67.0637 13.2537L67.1355 12.8949H66.7695V13.1949ZM66.6729 13.6779L66.3788 13.619L66.3172 13.9267L66.6273 13.9744L66.6729 13.6779ZM67.5362 14.0703L67.7279 13.8395L67.7258 13.8377L67.5362 14.0703ZM67.2827 16.3703L67.1016 16.1311L67.0991 16.133L67.2827 16.3703ZM65.3931 16.8654L65.0935 16.8807L65.1081 17.1654H65.3931V16.8654ZM65.3448 15.9236V15.6236H65.029L65.0452 15.939L65.3448 15.9236ZM66.2745 15.7425L66.1474 15.4707L66.1421 15.4733L66.2745 15.7425ZM66.3409 14.5834L66.2089 14.8528V14.8528L66.3409 14.5834ZM65.3448 14.3781L65.0509 14.3181L64.983 14.6505L65.3212 14.6772L65.3448 14.3781ZM66.2624 13.4364V13.1364C65.4419 13.1364 64.7525 12.9433 64.1809 12.5695L64.0167 12.8206L63.8525 13.0717C64.5365 13.5189 65.3443 13.7364 66.2624 13.7364V13.4364ZM64.0167 12.8206L64.1809 12.5695C63.6025 12.1913 63.1553 11.67 62.8394 10.9968L62.5678 11.1242L62.2962 11.2517C62.6565 12.0193 63.1752 12.6289 63.8525 13.0717L64.0167 12.8206ZM62.5678 11.1242L62.8394 10.9968C62.5229 10.3223 62.3607 9.54389 62.3607 8.65513H62.0607H61.7607C61.7607 9.61769 61.9366 10.4854 62.2962 11.2517L62.5678 11.1242ZM62.0607 8.65513H62.3607C62.3607 7.75038 62.5268 6.96505 62.8503 6.29179L62.5799 6.16187L62.3095 6.03196C61.9407 6.79951 61.7607 7.67635 61.7607 8.65513H62.0607ZM62.5799 6.16187L62.85 6.29242C63.1784 5.61308 63.6303 5.0911 64.2046 4.71684L64.0408 4.4655L63.8771 4.21415C63.2038 4.65286 62.6817 5.26181 62.3098 6.03132L62.5799 6.16187ZM64.0408 4.4655L64.205 4.71659C64.7785 4.34161 65.4525 4.14973 66.2383 4.14973V3.84973V3.54973C65.3498 3.54973 64.5589 3.76835 63.8767 4.2144L64.0408 4.4655ZM66.2383 3.84973V4.14973C66.8526 4.14973 67.3964 4.2633 67.8754 4.48433L68.0011 4.21194L68.1268 3.93956C67.5593 3.67764 66.928 3.54973 66.2383 3.54973V3.84973ZM68.0011 4.21194L67.8754 4.48433C68.3568 4.70654 68.7461 5.01477 69.0491 5.40896L69.2869 5.22615L69.5248 5.04334C69.1597 4.5682 68.6917 4.2003 68.1268 3.93956L68.0011 4.21194ZM69.2869 5.22615L69.0491 5.40895C69.3493 5.79959 69.5378 6.25711 69.6116 6.78873L69.9087 6.74746L70.2059 6.70618C70.1187 6.07871 69.8927 5.52202 69.5248 5.04334L69.2869 5.22615ZM69.9087 6.74746V6.44746H68.484V6.74746V7.04746H69.9087V6.74746ZM68.484 6.74746L68.7746 6.67274C68.6488 6.18351 68.3702 5.75856 67.9566 5.39836L67.7596 5.62459L67.5626 5.85081C67.8976 6.1426 68.1019 6.46624 68.1935 6.82217L68.484 6.74746ZM67.7596 5.62459L67.9592 5.40063C67.5205 5.00966 66.9436 4.82956 66.2624 4.82956V5.12956V5.42956C66.8369 5.42956 67.2581 5.57947 67.56 5.84854L67.7596 5.62459ZM66.2624 5.12956V4.82956C65.6518 4.82956 65.104 4.98988 64.6307 5.31756L64.8015 5.56422L64.9723 5.81087C65.3361 5.55901 65.7622 5.42956 66.2624 5.42956V5.12956ZM64.8015 5.56422L64.6312 5.31721C64.1653 5.63837 63.8083 6.08898 63.5556 6.65541L63.8295 6.77764L64.1035 6.89987C64.3177 6.4199 64.6086 6.06156 64.9718 5.81122L64.8015 5.56422ZM63.8295 6.77764L63.5551 6.65639C63.3054 7.22159 63.1854 7.87429 63.1854 8.60683H63.4854H63.7854C63.7854 7.9388 63.8949 7.37204 64.104 6.89889L63.8295 6.77764ZM63.4854 8.60683H63.1854C63.1854 9.35405 63.3029 10.0194 63.5473 10.5954L63.8235 10.4783L64.0997 10.3611C63.8933 9.87471 63.7854 9.29237 63.7854 8.60683H63.4854ZM63.8235 10.4783L63.5481 10.5972C63.7962 11.1718 64.1506 11.6308 64.6159 11.9606L64.7894 11.7159L64.9629 11.4711C64.5992 11.2133 64.3096 10.8473 64.0989 10.3593L63.8235 10.4783ZM64.7894 11.7159L64.6171 11.9614C65.0912 12.2942 65.6439 12.4565 66.2624 12.4565V12.1565V11.8565C65.7541 11.8565 65.3247 11.7251 64.9618 11.4703L64.7894 11.7159ZM66.2624 12.1565V12.4565C66.668 12.4565 67.0448 12.3859 67.3883 12.2393L67.2706 11.9634L67.1529 11.6874C66.8927 11.7984 66.5974 11.8565 66.2624 11.8565V12.1565ZM67.2706 11.9634L67.3883 12.2393C67.7309 12.0931 68.0241 11.8813 68.264 11.6044L68.0373 11.408L67.8106 11.2115C67.6319 11.4176 67.414 11.576 67.1529 11.6874L67.2706 11.9634ZM68.0373 11.408L68.264 11.6044C68.5061 11.325 68.6751 10.993 68.7742 10.6147L68.484 10.5386L68.1938 10.4626C68.1158 10.7604 67.987 11.0079 67.8106 11.2115L68.0373 11.408ZM68.484 10.5386V10.8386H69.9087V10.5386V10.2386H68.484V10.5386ZM69.9087 10.5386L69.6119 10.495C69.5383 10.9956 69.3571 11.443 69.0682 11.8416L69.3111 12.0177L69.554 12.1938C69.9009 11.7151 70.1182 11.1764 70.2055 10.5823L69.9087 10.5386ZM69.3111 12.0177L69.0679 11.8421C68.7848 12.2341 68.4073 12.5496 67.9281 12.7873L68.0614 13.056L68.1948 13.3248C68.754 13.0474 69.2096 12.6706 69.5543 12.1933L69.3111 12.0177ZM68.0614 13.056L67.929 12.7869C67.4622 13.0166 66.9094 13.1364 66.2624 13.1364V13.4364V13.7364C66.9838 13.7364 67.6304 13.6026 68.1939 13.3252L68.0614 13.056ZM65.5863 13.1949V13.4949H66.7695V13.1949V12.8949H65.5863V13.1949ZM66.7695 13.1949L66.4754 13.1361L66.3788 13.619L66.6729 13.6779L66.9671 13.7367L67.0637 13.2537L66.7695 13.1949ZM66.6729 13.6779L66.6273 13.9744C66.8851 14.014 67.1238 14.121 67.3466 14.3028L67.5362 14.0703L67.7258 13.8377C67.4255 13.5929 67.0887 13.4383 66.7186 13.3813L66.6729 13.6779ZM67.5362 14.0703L67.3445 14.301C67.5139 14.4418 67.6286 14.6849 67.6286 15.1026H67.9286H68.2286C68.2286 14.5785 68.0817 14.1334 67.7279 13.8395L67.5362 14.0703ZM67.9286 15.1026H67.6286C67.6286 15.5234 67.4609 15.8592 67.1016 16.1311L67.2827 16.3703L67.4637 16.6095C67.9658 16.2295 68.2286 15.72 68.2286 15.1026H67.9286ZM67.2827 16.3703L67.0991 16.133C66.7468 16.4056 66.1939 16.5654 65.3931 16.5654V16.8654V17.1654C66.2585 17.1654 66.9653 16.9951 67.4662 16.6076L67.2827 16.3703ZM65.3931 16.8654L65.6927 16.85L65.6444 15.9082L65.3448 15.9236L65.0452 15.939L65.0935 16.8807L65.3931 16.8654ZM65.3448 15.9236V16.2236C65.749 16.2236 66.1079 16.1587 66.4069 16.0117L66.2745 15.7425L66.1421 15.4733C65.9501 15.5677 65.6892 15.6236 65.3448 15.6236V15.9236ZM66.2745 15.7425L66.4016 16.0142C66.5688 15.936 66.7106 15.8226 66.8087 15.6674C66.9068 15.5124 66.9488 15.3356 66.9488 15.1509H66.6488H66.3488C66.3488 15.2439 66.3284 15.3045 66.3017 15.3467C66.2751 15.3887 66.2298 15.4322 66.1474 15.4707L66.2745 15.7425ZM66.6488 15.1509H66.9488C66.9488 14.9762 66.9166 14.8071 66.8355 14.6577C66.7526 14.5048 66.6278 14.3899 66.473 14.314L66.3409 14.5834L66.2089 14.8528C66.2592 14.8775 66.2884 14.9075 66.3081 14.9438C66.3297 14.9835 66.3488 15.0479 66.3488 15.1509H66.6488ZM66.3409 14.5834L66.473 14.314C66.2143 14.1872 65.8346 14.1159 65.3684 14.0791L65.3448 14.3781L65.3212 14.6772C65.7727 14.7128 66.057 14.7783 66.2089 14.8528L66.3409 14.5834ZM65.3448 14.3781L65.6388 14.4381L65.8802 13.2549L65.5863 13.1949L65.2924 13.1349L65.0509 14.3181L65.3448 14.3781ZM73.1204 13.1285L72.9926 13.3999L72.9945 13.4008L73.1204 13.1285ZM71.9794 12.1565L71.7291 12.3219L71.7298 12.323L71.9794 12.1565ZM71.8707 9.31919L72.1241 9.47985L72.125 9.47846L71.8707 9.31919ZM73.869 8.1118L73.9332 8.40486L73.9352 8.4044L73.869 8.1118ZM75.1548 7.8824L75.1166 7.58485L75.1159 7.58493L75.1548 7.8824ZM76.5252 7.7194L76.5561 8.01782L76.5591 8.01748L76.5252 7.7194ZM77.2979 7.52018L77.1512 7.25852L77.1484 7.26011L77.2979 7.52018ZM77.0565 5.60044L76.8417 5.80994L76.843 5.81127L77.0565 5.60044ZM73.9897 5.55214L74.1729 5.78975V5.78975L73.9897 5.55214ZM73.1747 6.50598L73.0738 6.7885L73.3316 6.88055L73.4468 6.63231L73.1747 6.50598ZM71.8224 6.02302L71.5467 5.90485L71.421 6.1982L71.7215 6.30555L71.8224 6.02302ZM72.7884 4.70697L72.9729 4.94352L72.9732 4.94327L72.7884 4.70697ZM74.1165 4.04291L74.1921 4.33323L74.1938 4.33278L74.1165 4.04291ZM76.5675 3.95839L76.5122 4.25327L76.5157 4.25389L76.5675 3.95839ZM77.6964 4.38701L77.542 4.64427L77.5433 4.64501L77.6964 4.38701ZM78.608 5.37104L78.3451 5.5157V5.5157L78.608 5.37104ZM78.9702 13.2432V13.5432H79.2702V13.2432H78.9702ZM77.5455 13.2432H77.2455V13.5432H77.5455V13.2432ZM77.5455 11.9875H77.8455V11.6875H77.5455V11.9875ZM77.473 11.9875V11.6875H77.2842L77.2026 11.8577L77.473 11.9875ZM76.9901 12.6335L77.2041 12.8437V12.8437L76.9901 12.6335ZM76.0906 13.219L75.972 12.9435V12.9435L76.0906 13.219ZM76.3622 11.8487L76.2142 11.5877L76.2131 11.5884L76.3622 11.8487ZM77.2436 10.9914L76.9835 10.8419L76.9822 10.8442L77.2436 10.9914ZM77.5455 8.58268H77.8455V7.75406L77.315 8.39063L77.5455 8.58268ZM77.147 8.7819L77.2279 9.07082L77.2317 9.06971L77.147 8.7819ZM76.4467 8.93283L76.4924 9.22936L76.4961 9.22874L76.4467 8.93283ZM75.68 9.04149L75.7142 9.33956L75.7184 9.33902L75.68 9.04149ZM75.0824 9.11393L75.1212 9.41141L75.1215 9.41137L75.0824 9.11393ZM74.044 9.34937L74.1378 9.63435L74.14 9.63362L74.044 9.34937ZM73.2713 9.82629L73.051 9.62263L73.0509 9.62281L73.2713 9.82629ZM73.5309 11.8064L73.3601 12.0531L73.3632 12.0552L73.5309 11.8064ZM73.7784 2.85967L73.7654 3.15939L74.0784 3.173V2.85967H73.7784ZM72.6676 2.81138H72.3676V3.09862L72.6546 3.11109L72.6676 2.81138ZM73.1928 1.30214L72.9696 1.1017L72.9695 1.10184L73.1928 1.30214ZM75.1126 0.831262L74.9884 1.10442L74.9936 1.10668L75.1126 0.831262ZM75.6197 1.09689L75.7787 0.842487V0.842487L75.6197 1.09689ZM76.1147 1.36855L75.9857 1.63952L75.9935 1.64295L76.1147 1.36855ZM77.2798 1.21763L77.0556 1.01832L77.0553 1.01863L77.2798 1.21763ZM77.5213 0.565637L77.5479 0.266815L77.2213 0.237787V0.565637H77.5213ZM78.608 0.662229H78.908V0.387712L78.6345 0.363407L78.608 0.662229ZM78.0767 2.15939L77.8599 1.95202L77.8587 1.95326L78.0767 2.15939ZM76.0845 2.60008L75.9627 2.87428L75.9678 2.87646L76.0845 2.60008ZM75.6016 2.32842L75.7759 2.0843V2.0843L75.6016 2.32842ZM75.1548 2.0628L75.0179 2.3298L75.0234 2.33249L75.1548 2.0628ZM74.0018 2.21372L73.7726 2.02017L73.7722 2.02064L74.0018 2.21372ZM74.7202 13.4605V13.1605C74.1711 13.1605 73.6814 13.0573 73.2462 12.8562L73.1204 13.1285L72.9945 13.4008C73.5172 13.6424 74.0941 13.7605 74.7202 13.7605V13.4605ZM73.1204 13.1285L73.2481 12.857C72.8164 12.6539 72.4791 12.3653 72.229 11.9901L71.9794 12.1565L71.7298 12.323C72.0431 12.793 72.4665 13.1523 72.9926 13.3999L73.1204 13.1285ZM71.9794 12.1565L72.2297 11.9912C71.9859 11.622 71.8568 11.1668 71.8568 10.6111H71.5568H71.2568C71.2568 11.2627 71.4095 11.8379 71.7291 12.3219L71.9794 12.1565ZM71.5568 10.6111H71.8568C71.8568 10.1169 71.9544 9.74746 72.1241 9.47985L71.8707 9.31919L71.6174 9.15853C71.3685 9.55095 71.2568 10.0428 71.2568 10.6111H71.5568ZM71.8707 9.31919L72.125 9.47846C72.3064 9.18881 72.5475 8.96309 72.8525 8.79833L72.7099 8.53439L72.5673 8.27044C72.172 8.484 71.8536 8.78148 71.6165 9.15991L71.8707 9.31919ZM72.7099 8.53439L72.8525 8.79833C73.1759 8.62359 73.5356 8.49194 73.9332 8.40485L73.869 8.1118L73.8048 7.81875C73.3572 7.91679 72.9441 8.06687 72.5673 8.27044L72.7099 8.53439ZM73.869 8.1118L73.9352 8.4044C74.3529 8.30984 74.7724 8.235 75.1937 8.17986L75.1548 7.8824L75.1159 7.58493C74.676 7.64249 74.2383 7.72059 73.8027 7.81921L73.869 8.1118ZM75.1548 7.8824L75.1931 8.17995C75.7554 8.10766 76.2094 8.05367 76.5561 8.01781L76.5252 7.7194L76.4943 7.42099C76.1407 7.45758 75.6812 7.51225 75.1166 7.58485L75.1548 7.8824ZM76.5252 7.7194L76.5591 8.01748C76.9234 7.97608 77.2315 7.90444 77.4475 7.78025L77.2979 7.52018L77.1484 7.26011C77.0424 7.32106 76.8354 7.38223 76.4913 7.42132L76.5252 7.7194ZM77.2979 7.52018L77.4447 7.78183C77.726 7.62405 77.8455 7.34786 77.8455 7.03723H77.5455H77.2455C77.2455 7.18541 77.1999 7.23118 77.1512 7.25854L77.2979 7.52018ZM77.5455 7.03723H77.8455V6.98893H77.5455H77.2455V7.03723H77.5455ZM77.5455 6.98893H77.8455C77.8455 6.33778 77.6659 5.7905 77.2699 5.38961L77.0565 5.60044L76.843 5.81127C77.099 6.07042 77.2455 6.44879 77.2455 6.98893H77.5455ZM77.0565 5.60044L77.2712 5.39094C76.8725 4.98225 76.2917 4.80541 75.5895 4.80541V5.10541V5.40541C76.1993 5.40541 76.5965 5.55859 76.8417 5.80994L77.0565 5.60044ZM75.5895 5.10541V4.80541C74.8687 4.80541 74.2626 4.963 73.8065 5.31454L73.9897 5.55214L74.1729 5.78975C74.4895 5.54564 74.95 5.40541 75.5895 5.40541V5.10541ZM73.9897 5.55214L73.8065 5.31454C73.3934 5.63301 73.0851 5.9865 72.9026 6.37964L73.1747 6.50598L73.4468 6.63231C73.5782 6.34932 73.8133 6.06692 74.1729 5.78975L73.9897 5.55214ZM73.1747 6.50598L73.2756 6.22346L71.9233 5.7405L71.8224 6.02302L71.7215 6.30555L73.0738 6.7885L73.1747 6.50598ZM71.8224 6.02302L72.0982 6.1412C72.3237 5.61495 72.6176 5.22062 72.9729 4.94352L72.7884 4.70697L72.6038 4.47042C72.1542 4.82117 71.8041 5.3042 71.5467 5.90485L71.8224 6.02302ZM72.7884 4.70697L72.9732 4.94327C73.3488 4.64951 73.7546 4.4472 74.1921 4.33322L74.1165 4.04291L74.0408 3.7526C73.5205 3.88815 73.0409 4.12855 72.6035 4.47067L72.7884 4.70697ZM74.1165 4.04291L74.1938 4.33278C74.6533 4.21025 75.1022 4.14973 75.5412 4.14973V3.84973V3.54973C75.0465 3.54973 74.5456 3.618 74.0392 3.75304L74.1165 4.04291ZM75.5412 3.84973V4.14973C75.8157 4.14973 76.1386 4.18322 76.5122 4.25325L76.5675 3.95839L76.6228 3.66353C76.2236 3.58868 75.8624 3.54973 75.5412 3.54973V3.84973ZM76.5675 3.95839L76.5157 4.25389C76.8675 4.31555 77.2093 4.44461 77.542 4.64426L77.6964 4.38701L77.8507 4.12977C77.4591 3.89476 77.0482 3.73808 76.6193 3.6629L76.5675 3.95839ZM77.6964 4.38701L77.5433 4.64501C77.856 4.83056 78.1249 5.11559 78.3451 5.5157L78.608 5.37104L78.8708 5.22637C78.6081 4.74912 78.2693 4.37813 77.8495 4.12902L77.6964 4.38701ZM78.608 5.37104L78.3451 5.5157C78.5534 5.89406 78.6702 6.42577 78.6702 7.13382H78.9702H79.2702C79.2702 6.36885 79.1455 5.72538 78.8708 5.22637L78.608 5.37104ZM78.9702 7.13382H78.6702V13.2432H78.9702H79.2702V7.13382H78.9702ZM78.9702 13.2432V12.9432H77.5455V13.2432V13.5432H78.9702V13.2432ZM77.5455 13.2432H77.8455V11.9875H77.5455H77.2455V13.2432H77.5455ZM77.5455 11.9875V11.6875H77.473V11.9875V12.2875H77.5455V11.9875ZM77.473 11.9875L77.2026 11.8577C77.125 12.0192 76.9876 12.2079 76.7761 12.4232L76.9901 12.6335L77.2041 12.8437C77.4433 12.6002 77.6278 12.3583 77.7435 12.1173L77.473 11.9875ZM76.9901 12.6335L76.7761 12.4232C76.5842 12.6185 76.3197 12.7939 75.972 12.9435L76.0906 13.219L76.2091 13.4946C76.61 13.3222 76.9452 13.1072 77.2041 12.8437L76.9901 12.6335ZM76.0906 13.219L75.972 12.9435C75.6452 13.084 75.2312 13.1605 74.7202 13.1605V13.4605V13.7605C75.2877 13.7605 75.7873 13.676 76.2091 13.4946L76.0906 13.219ZM74.9375 12.1807V12.4807C75.5396 12.4807 76.069 12.3624 76.5114 12.109L76.3622 11.8487L76.2131 11.5884C75.8827 11.7777 75.4623 11.8807 74.9375 11.8807V12.1807ZM76.3622 11.8487L76.5102 12.1096C76.9423 11.8646 77.278 11.5417 77.505 11.1386L77.2436 10.9914L76.9822 10.8442C76.8148 11.1414 76.5629 11.39 76.2142 11.5877L76.3622 11.8487ZM77.2436 10.9914L77.5037 11.1409C77.7299 10.7474 77.8455 10.3279 77.8455 9.88666H77.5455H77.2455C77.2455 10.2181 77.1598 10.5351 76.9835 10.8419L77.2436 10.9914ZM77.5455 9.88666H77.8455V8.58268H77.5455H77.2455V9.88666H77.5455ZM77.5455 8.58268L77.315 8.39063C77.3221 8.38205 77.3147 8.39432 77.2664 8.41849C77.2211 8.44112 77.1547 8.46694 77.0624 8.49409L77.147 8.7819L77.2317 9.06971C77.3446 9.0365 77.4472 8.99893 77.5347 8.95515C77.6192 8.91291 77.7084 8.85576 77.7759 8.77474L77.5455 8.58268ZM77.147 8.7819L77.0661 8.49301C76.8777 8.54576 76.6553 8.59393 76.3974 8.63691L76.4467 8.93283L76.4961 9.22874C76.7695 9.18318 77.0138 9.13073 77.2279 9.07079L77.147 8.7819ZM76.4467 8.93283L76.4011 8.63631C76.1418 8.67621 75.8886 8.71209 75.6417 8.74396L75.68 9.04149L75.7184 9.33902C75.9705 9.3065 76.2285 9.26993 76.4923 9.22934L76.4467 8.93283ZM75.68 9.04149L75.6458 8.74345C75.3995 8.77171 75.1985 8.79607 75.0433 8.8165L75.0824 9.11393L75.1215 9.41137C75.2721 9.39155 75.4695 9.36761 75.7142 9.33953L75.68 9.04149ZM75.0824 9.11393L75.0436 8.81645C74.6558 8.86704 74.2904 8.94961 73.9481 9.06513L74.044 9.34937L74.14 9.63362C74.4417 9.5318 74.7685 9.45742 75.1212 9.41141L75.0824 9.11393ZM74.044 9.34937L73.9502 9.06441C73.5914 9.18253 73.2878 9.36657 73.051 9.62263L73.2713 9.82629L73.4916 10.0299C73.6493 9.8594 73.8608 9.7255 74.1378 9.63434L74.044 9.34937ZM73.2713 9.82629L73.0509 9.62281C72.7937 9.90137 72.6815 10.2672 72.6815 10.6835H72.9815H73.2815C73.2815 10.3755 73.3625 10.1698 73.4917 10.0298L73.2713 9.82629ZM72.9815 10.6835H72.6815C72.6815 11.2642 72.903 11.7366 73.3601 12.0531L73.5309 11.8064L73.7017 11.5597C73.4263 11.3691 73.2815 11.0929 73.2815 10.6835H72.9815ZM73.5309 11.8064L73.3632 12.0552C73.7949 12.3461 74.3264 12.4807 74.9375 12.4807V12.1807V11.8807C74.4136 11.8807 74.0074 11.7658 73.6985 11.5576L73.5309 11.8064ZM73.7784 2.85967L73.7914 2.55995L72.6806 2.51166L72.6676 2.81138L72.6546 3.11109L73.7654 3.15939L73.7784 2.85967ZM72.6676 2.81138H72.9676C72.9676 2.25589 73.1238 1.82842 73.4162 1.50245L73.1928 1.30214L72.9695 1.10184C72.5616 1.55665 72.3676 2.13533 72.3676 2.81138H72.6676ZM73.1928 1.30214L73.416 1.50258C73.7147 1.17001 74.0708 1.01052 74.5028 1.01052V0.710524V0.410523C73.8965 0.410523 73.3793 0.645446 72.9696 1.10171L73.1928 1.30214ZM74.5028 0.710524V1.01052C74.697 1.01052 74.8567 1.0445 74.9884 1.10437L75.1126 0.831262L75.2367 0.558152C75.0143 0.457045 74.7675 0.410523 74.5028 0.410523V0.710524ZM75.1126 0.831262L74.9936 1.10668C75.1571 1.17726 75.3127 1.2588 75.4607 1.35129L75.6197 1.09689L75.7787 0.842487C75.6047 0.73374 75.4222 0.638203 75.2315 0.555843L75.1126 0.831262ZM75.6197 1.09689L75.4607 1.35129C75.6312 1.45787 75.8062 1.55394 75.9857 1.63941L76.1147 1.36855L76.2437 1.09769C76.0851 1.02218 75.9301 0.937135 75.7787 0.842487L75.6197 1.09689ZM76.1147 1.36855L75.9935 1.64295C76.21 1.73863 76.4474 1.78325 76.7003 1.78325V1.48325V1.18325C76.5185 1.18325 76.3655 1.15141 76.236 1.09414L76.1147 1.36855ZM76.7003 1.48325V1.78325C77.0186 1.78325 77.2925 1.65563 77.5043 1.41662L77.2798 1.21763L77.0553 1.01863C76.9533 1.13379 76.8408 1.18325 76.7003 1.18325V1.48325ZM77.2798 1.21763L77.5041 1.41693C77.7163 1.17819 77.8213 0.888934 77.8213 0.565637H77.5213H77.2213C77.2213 0.749443 77.1654 0.894849 77.0556 1.01832L77.2798 1.21763ZM77.5213 0.565637L77.4947 0.864459L78.5814 0.961051L78.608 0.662229L78.6345 0.363407L77.5479 0.266815L77.5213 0.565637ZM78.608 0.662229H78.308C78.308 1.2312 78.1492 1.64959 77.8599 1.95202L78.0767 2.15939L78.2935 2.36675C78.7125 1.92865 78.908 1.34894 78.908 0.662229H78.608ZM78.0767 2.15939L77.8587 1.95326C77.5665 2.26234 77.2112 2.41479 76.7727 2.41479V2.71479V3.01479C77.3726 3.01479 77.8867 2.79696 78.2947 2.36551L78.0767 2.15939ZM76.7727 2.71479V2.41479C76.5198 2.41479 76.3335 2.37956 76.2012 2.32371L76.0845 2.60008L75.9678 2.87646C76.1978 2.97354 76.4703 3.01479 76.7727 3.01479V2.71479ZM76.0845 2.60008L76.2064 2.32594C76.0411 2.2525 75.8982 2.17162 75.7759 2.0843L75.6016 2.32842L75.4272 2.57254C75.5867 2.68646 75.7657 2.78668 75.9627 2.87423L76.0845 2.60008ZM75.6016 2.32842L75.7759 2.0843C75.6214 1.9739 75.4581 1.87682 75.2862 1.7931L75.1548 2.0628L75.0234 2.33249C75.1655 2.40171 75.3 2.48172 75.4272 2.57254L75.6016 2.32842ZM75.1548 2.0628L75.2917 1.79585C75.0816 1.6881 74.8385 1.64206 74.5753 1.64206V1.94206V2.24206C74.7709 2.24206 74.9141 2.27651 75.0179 2.32974L75.1548 2.0628ZM74.5753 1.94206V1.64206C74.2542 1.64206 73.9803 1.77414 73.7726 2.02017L74.0018 2.21372L74.231 2.40727C74.3291 2.29108 74.4376 2.24206 74.5753 2.24206V1.94206ZM74.0018 2.21372L73.7722 2.02064C73.5733 2.2571 73.4784 2.54274 73.4784 2.85967H73.7784H74.0784C74.0784 2.6695 74.1324 2.52451 74.2314 2.4068L74.0018 2.21372ZM83.1341 12.8387L82.9734 13.092L82.9741 13.0925L83.1341 12.8387ZM81.6611 11.1665L81.3916 11.2982L81.3922 11.2994L81.6611 11.1665ZM81.6611 6.12565L81.3919 5.99329L81.3913 5.99451L81.6611 6.12565ZM83.1341 4.44738L82.9741 4.19362L82.9734 4.19409L83.1341 4.44738ZM87.5351 4.44738L87.3743 4.70068L87.3751 4.70115L87.5351 4.44738ZM89.0081 6.12565L88.7383 6.25679L88.7389 6.25801L89.0081 6.12565ZM89.0081 11.1665L88.7391 11.0335L88.7385 11.0348L89.0081 11.1665ZM87.5351 12.8387L87.3751 12.585L87.3743 12.5854L87.5351 12.8387ZM86.9072 11.6676L86.7207 11.4326V11.4326L86.9072 11.6676ZM87.8188 10.3817L88.1001 10.4861V10.4861L87.8188 10.3817ZM87.8188 6.92253L88.1003 6.81882V6.81882L87.8188 6.92253ZM86.9072 5.62459L87.0952 5.39077V5.39077L86.9072 5.62459ZM83.768 5.62459L83.5801 5.39077V5.39077L83.768 5.62459ZM82.8564 6.92253L82.5749 6.81882V6.81882L82.8564 6.92253ZM82.8564 10.3817L82.5752 10.4861V10.4861L82.8564 10.3817ZM83.768 11.6676L83.9546 11.4326V11.4326L83.768 11.6676ZM85.3376 13.4364V13.1364C84.5501 13.1364 83.8725 12.9496 83.2942 12.585L83.1341 12.8387L82.9741 13.0925C83.6595 13.5247 84.4509 13.7364 85.3376 13.7364V13.4364ZM83.1341 12.8387L83.2949 12.5854C82.7169 12.2186 82.2618 11.7045 81.9301 11.0335L81.6611 11.1665L81.3922 11.2994C81.7688 12.0613 82.2957 12.6619 82.9734 13.092L83.1341 12.8387ZM81.6611 11.1665L81.9307 11.0348C81.6042 10.3668 81.4359 9.57641 81.4359 8.65513H81.1359H80.8359C80.8359 9.64957 81.0178 10.5334 81.3916 11.2982L81.6611 11.1665ZM81.1359 8.65513H81.4359C81.4359 7.72543 81.6043 6.92878 81.931 6.25679L81.6611 6.12565L81.3913 5.99451C81.0176 6.76334 80.8359 7.65301 80.8359 8.65513H81.1359ZM81.6611 6.12565L81.9304 6.25801C82.2622 5.58304 82.7173 5.0672 83.2949 4.70068L83.1341 4.44738L82.9734 4.19409C82.2953 4.62444 81.7684 5.22745 81.3919 5.9933L81.6611 6.12565ZM83.1341 4.44738L83.2942 4.70115C83.8725 4.33646 84.5501 4.14973 85.3376 4.14973V3.84973V3.54973C84.4509 3.54973 83.6595 3.76143 82.9741 4.19362L83.1341 4.44738ZM85.3376 3.84973V4.14973C86.1252 4.14973 86.8004 4.33647 87.3743 4.70068L87.5351 4.44738L87.6958 4.19409C87.014 3.76142 86.2243 3.54973 85.3376 3.54973V3.84973ZM87.5351 4.44738L87.3751 4.70115C87.9562 5.06758 88.4107 5.58291 88.7383 6.25679L89.0081 6.12565L89.2779 5.99451C88.9051 5.22758 88.3777 4.62407 87.6951 4.19362L87.5351 4.44738ZM89.0081 6.12565L88.7389 6.25801C89.0691 6.92969 89.2393 7.7259 89.2393 8.65513H89.5393H89.8393C89.8393 7.65254 89.6554 6.76243 89.2773 5.9933L89.0081 6.12565ZM89.5393 8.65513H89.2393C89.2393 9.57593 89.0692 10.3659 88.7392 11.0335L89.0081 11.1665L89.277 11.2994C89.6553 10.5343 89.8393 9.65004 89.8393 8.65513H89.5393ZM89.0081 11.1665L88.7385 11.0348C88.4112 11.7046 87.9566 12.2183 87.3751 12.585L87.5351 12.8387L87.6951 13.0925C88.3773 12.6623 88.9047 12.0611 89.2776 11.2982L89.0081 11.1665ZM87.5351 12.8387L87.3743 12.5854C86.8004 12.9496 86.1252 13.1364 85.3376 13.1364V13.4364V13.7364C86.2243 13.7364 87.014 13.5247 87.6958 13.092L87.5351 12.8387ZM85.3376 12.1565V12.4565C86.0264 12.4565 86.6196 12.279 87.0938 11.9025L86.9072 11.6676L86.7207 11.4326C86.3738 11.7081 85.9207 11.8565 85.3376 11.8565V12.1565ZM86.9072 11.6676L87.0938 11.9025C87.5507 11.5397 87.8854 11.0644 88.1001 10.4861L87.8188 10.3817L87.5376 10.2773C87.3578 10.7615 87.0848 11.1434 86.7207 11.4326L86.9072 11.6676ZM87.8188 10.3817L88.1001 10.4861C88.3108 9.91844 88.4146 9.30721 88.4146 8.65513H88.1146H87.8146C87.8146 9.24262 87.7212 9.78244 87.5376 10.2773L87.8188 10.3817ZM88.1146 8.65513H88.4146C88.4146 8.00301 88.3108 7.39006 88.1003 6.81882L87.8188 6.92253L87.5373 7.02624C87.7213 7.52554 87.8146 8.06766 87.8146 8.65513H88.1146ZM87.8188 6.92253L88.1003 6.81882C87.8859 6.23688 87.5516 5.75769 87.0952 5.39077L86.9072 5.62459L86.7193 5.8584C87.0839 6.15152 87.3573 6.53762 87.5373 7.02624L87.8188 6.92253ZM86.9072 5.62459L87.0952 5.39077C86.621 5.00955 86.0272 4.82956 85.3376 4.82956V5.12956V5.42956C85.9198 5.42956 86.3724 5.57958 86.7193 5.8584L86.9072 5.62459ZM85.3376 5.12956V4.82956C84.648 4.82956 84.0543 5.00955 83.5801 5.39077L83.768 5.62459L83.956 5.8584C84.3028 5.57958 84.7554 5.42956 85.3376 5.42956V5.12956ZM83.768 5.62459L83.5801 5.39077C83.1236 5.75769 82.7893 6.23688 82.5749 6.81882L82.8564 6.92253L83.1379 7.02624C83.318 6.53762 83.5914 6.15152 83.956 5.8584L83.768 5.62459ZM82.8564 6.92253L82.5749 6.81882C82.3645 7.39006 82.2606 8.00301 82.2606 8.65513H82.5606H82.8606C82.8606 8.06766 82.954 7.52554 83.1379 7.02624L82.8564 6.92253ZM82.5606 8.65513H82.2606C82.2606 9.30721 82.3645 9.91844 82.5752 10.4861L82.8564 10.3817L83.1377 10.2773C82.954 9.78244 82.8606 9.24262 82.8606 8.65513H82.5606ZM82.8564 10.3817L82.5752 10.4861C82.7899 11.0644 83.1246 11.5397 83.5815 11.9025L83.768 11.6676L83.9546 11.4326C83.5904 11.1434 83.3174 10.7615 83.1377 10.2773L82.8564 10.3817ZM83.768 11.6676L83.5815 11.9025C84.0556 12.279 84.6489 12.4565 85.3376 12.4565V12.1565V11.8565C84.7546 11.8565 84.3014 11.7081 83.9546 11.4326L83.768 11.6676ZM91.9858 13.0198L92.1979 12.8077V12.8077L91.9858 13.0198ZM93.5192 11.4864L93.7313 11.2743V11.2743L93.5192 11.4864ZM93.6882 12.7965L93.432 12.6403L93.4293 12.6449L93.6882 12.7965ZM93.2958 13.1949L93.4502 13.4522L93.452 13.451L93.2958 13.1949ZM91.9858 6.13773L91.7737 6.34986V6.34986L91.9858 6.13773ZM91.9858 4.60435L91.7737 4.39221V4.39221L91.9858 4.60435ZM93.5192 4.60435L93.7313 4.39221V4.39221L93.5192 4.60435ZM93.6882 5.91436L93.432 5.75815L93.4293 5.76281L93.6882 5.91436ZM93.2958 6.3128L93.4502 6.57005L93.452 6.56894L93.2958 6.3128ZM92.7525 13.3398V13.0398C92.5354 13.0398 92.3558 12.9656 92.1979 12.8077L91.9858 13.0198L91.7737 13.232C92.0424 13.5007 92.374 13.6398 92.7525 13.6398V13.3398ZM91.9858 13.0198L92.1979 12.8077C92.0401 12.6498 91.9658 12.4703 91.9658 12.2531H91.6658H91.3658C91.3658 12.6317 91.5049 12.9632 91.7737 13.232L91.9858 13.0198ZM91.6658 12.2531H91.9658C91.9658 12.036 92.0401 11.8564 92.1979 11.6986L91.9858 11.4864L91.7737 11.2743C91.5049 11.5431 91.3658 11.8746 91.3658 12.2531H91.6658ZM91.9858 11.4864L92.1979 11.6986C92.3558 11.5407 92.5354 11.4665 92.7525 11.4665V11.1665V10.8665C92.374 10.8665 92.0424 11.0056 91.7737 11.2743L91.9858 11.4864ZM92.7525 11.1665V11.4665C92.9696 11.4665 93.1492 11.5407 93.307 11.6986L93.5192 11.4864L93.7313 11.2743C93.4626 11.0056 93.131 10.8665 92.7525 10.8665V11.1665ZM93.5192 11.4864L93.307 11.6986C93.4649 11.8564 93.5391 12.036 93.5391 12.2531H93.8391H94.1391C94.1391 11.8746 94.0001 11.5431 93.7313 11.2743L93.5192 11.4864ZM93.8391 12.2531H93.5391C93.5391 12.3964 93.5034 12.5233 93.4321 12.6403L93.6882 12.7965L93.9444 12.9526C94.0743 12.7396 94.1391 12.5043 94.1391 12.2531H93.8391ZM93.6882 12.7965L93.4293 12.6449C93.3581 12.7666 93.2627 12.8637 93.1396 12.9388L93.2958 13.1949L93.452 13.451C93.6589 13.3249 93.8252 13.1563 93.9471 12.948L93.6882 12.7965ZM93.2958 13.1949L93.1415 12.9377C93.0305 13.0043 92.9034 13.0398 92.7525 13.0398V13.3398V13.6398C93.004 13.6398 93.2392 13.5787 93.4502 13.4521L93.2958 13.1949ZM92.7525 6.45768V6.15768C92.5354 6.15768 92.3558 6.08345 92.1979 5.92559L91.9858 6.13773L91.7737 6.34986C92.0424 6.61861 92.374 6.75768 92.7525 6.75768V6.45768ZM91.9858 6.13773L92.1979 5.92559C92.0401 5.76774 91.9658 5.58815 91.9658 5.37104H91.6658H91.3658C91.3658 5.74957 91.5049 6.08111 91.7737 6.34986L91.9858 6.13773ZM91.6658 5.37104H91.9658C91.9658 5.15392 92.0401 4.97434 92.1979 4.81648L91.9858 4.60435L91.7737 4.39221C91.5049 4.66096 91.3658 4.9925 91.3658 5.37104H91.6658ZM91.9858 4.60435L92.1979 4.81648C92.3558 4.65862 92.5354 4.58439 92.7525 4.58439V4.28439V3.98439C92.374 3.98439 92.0424 4.12346 91.7737 4.39221L91.9858 4.60435ZM92.7525 4.28439V4.58439C92.9696 4.58439 93.1492 4.65862 93.307 4.81648L93.5192 4.60435L93.7313 4.39221C93.4626 4.12346 93.131 3.98439 92.7525 3.98439V4.28439ZM93.5192 4.60435L93.307 4.81648C93.4649 4.97434 93.5391 5.15392 93.5391 5.37104H93.8391H94.1391C94.1391 4.9925 94.0001 4.66096 93.7313 4.39221L93.5192 4.60435ZM93.8391 5.37104H93.5391C93.5391 5.51432 93.5034 5.64121 93.4321 5.75818L93.6882 5.91436L93.9444 6.07054C94.0743 5.85749 94.1391 5.62216 94.1391 5.37104H93.8391ZM93.6882 5.91436L93.4293 5.76281C93.3581 5.88451 93.2627 5.98158 93.1396 6.05666L93.2958 6.3128L93.452 6.56894C93.6589 6.44278 93.8252 6.27422 93.9471 6.06591L93.6882 5.91436ZM93.2958 6.3128L93.1415 6.05555C93.0305 6.12215 92.9034 6.15768 92.7525 6.15768V6.45768V6.75768C93.004 6.75768 93.2392 6.69663 93.4502 6.57004L93.2958 6.3128Z" fill="#E3E4EB" mask="url(#path-1-outside-1_27_2)"/>
</svg>
