<svg width="61" height="15" viewBox="0 0 61 15" fill="none" xmlns="http://www.w3.org/2000/svg">
<path d="M7.00489 3.79512C7.00489 2.91512 6.77489 2.31512 6.31489 1.99512C5.86489 1.66512 5.22989 1.50012 4.40989 1.50012H3.91489C3.81489 1.50012 3.68989 1.51012 3.53989 1.53012C3.39989 1.54012 3.26989 1.57512 3.14989 1.63512C3.03989 1.68512 2.98489 1.78012 2.98489 1.92012V6.09012C3.09489 6.13012 3.21989 6.15512 3.35989 6.16512C3.49989 6.17512 3.62989 6.18012 3.74989 6.18012C4.14989 6.18012 4.53989 6.14512 4.91989 6.07512C5.30989 6.00512 5.65989 5.88512 5.96989 5.71512C6.28989 5.54512 6.53989 5.30512 6.71989 4.99512C6.90989 4.68512 7.00489 4.28512 7.00489 3.79512ZM10.2899 11.8801C10.2899 11.9501 10.2199 12.0051 10.0799 12.0451C9.93989 12.0851 9.77489 12.1101 9.58489 12.1201C9.39489 12.1401 9.21489 12.1501 9.04489 12.1501C8.88489 12.1501 8.77489 12.1501 8.71489 12.1501C8.31489 12.1501 7.99489 12.1101 7.75489 12.0301C7.51489 11.9401 7.27989 11.7151 7.04989 11.3551C6.55989 10.5651 6.08489 9.76512 5.62489 8.95512C5.17489 8.14512 4.72489 7.33012 4.27489 6.51012L2.98489 6.55512V11.3101C2.98489 11.4601 3.04489 11.5601 3.16489 11.6101C3.28489 11.6601 3.40489 11.6851 3.52489 11.6851C3.66489 11.6851 3.79989 11.6801 3.92989 11.6701C4.05989 11.6601 4.18989 11.6551 4.31989 11.6551C4.38989 11.6551 4.42989 11.6851 4.43989 11.7451C4.45989 11.8051 4.46989 11.8601 4.46989 11.9101C4.46989 11.9901 4.44489 12.0451 4.39489 12.0751C4.35489 12.0951 4.29989 12.1051 4.22989 12.1051C3.78989 12.1051 3.34489 12.1001 2.89489 12.0901C2.44489 12.0701 1.99989 12.0601 1.55989 12.0601C1.31989 12.0601 1.07989 12.0701 0.839893 12.0901C0.609893 12.1001 0.374893 12.1051 0.134893 12.1051C0.0748926 12.1051 0.0348926 12.0801 0.0148926 12.0301C0.00489258 11.9701 -0.000107419 11.9201 -0.000107419 11.8801C-0.000107419 11.7501 0.0548926 11.6851 0.164893 11.6851C0.254893 11.6851 0.339893 11.6901 0.419893 11.7001C0.509893 11.7001 0.594893 11.7001 0.674893 11.7001C0.824893 11.7001 0.984893 11.6851 1.15489 11.6551C1.33489 11.6151 1.43489 11.5001 1.45489 11.3101C1.47489 11.0601 1.47989 10.7701 1.46989 10.4401C1.46989 10.1001 1.46989 9.80512 1.46989 9.55512C1.46989 9.22512 1.46989 8.89512 1.46989 8.56512C1.46989 8.22512 1.46989 7.89012 1.46989 7.56012C1.46989 6.87012 1.46989 6.18012 1.46989 5.49012C1.47989 4.80012 1.48489 4.11012 1.48489 3.42012C1.48489 3.17012 1.48489 2.92012 1.48489 2.67012C1.48489 2.41012 1.47489 2.16012 1.45489 1.92012C1.43489 1.72012 1.32989 1.61012 1.13989 1.59012C0.959893 1.56012 0.794893 1.54512 0.644893 1.54512C0.584893 1.54512 0.524893 1.55012 0.464893 1.56012C0.404893 1.56012 0.344893 1.56012 0.284893 1.56012C0.134893 1.56012 0.0598926 1.47512 0.0598926 1.30512C0.0598926 1.19512 0.109893 1.14012 0.209893 1.14012C0.549893 1.14012 0.884893 1.15012 1.21489 1.17012C1.55489 1.19012 1.89489 1.20012 2.23489 1.20012C2.70489 1.20012 3.16989 1.18012 3.62989 1.14012C4.08989 1.10012 4.54989 1.08012 5.00989 1.08012C5.38989 1.08012 5.78989 1.12012 6.20989 1.20012C6.63989 1.28012 7.03989 1.41012 7.40989 1.59012C7.77989 1.77012 8.07989 2.02012 8.30989 2.34012C8.54989 2.65012 8.66989 3.04512 8.66989 3.52512C8.66989 4.12512 8.49989 4.64512 8.15989 5.08512C7.82989 5.51512 7.39989 5.85012 6.86989 6.09012C6.67989 6.18012 6.48489 6.25012 6.28489 6.30012C6.08489 6.34012 5.88489 6.38012 5.68489 6.42012C6.14489 7.20012 6.62489 7.97012 7.12489 8.73012C7.63489 9.49012 8.14989 10.2401 8.66989 10.9801C8.81989 11.1901 8.97489 11.3601 9.13489 11.4901C9.30489 11.6101 9.51489 11.6951 9.76489 11.7451C9.82489 11.7551 9.92489 11.7601 10.0649 11.7601C10.2149 11.7601 10.2899 11.8001 10.2899 11.8801ZM17.6254 9.46512C17.6254 9.04512 17.5304 8.69512 17.3404 8.41512C17.1504 8.13512 16.9054 7.89512 16.6054 7.69512C16.3154 7.48512 16.0104 7.29012 15.6904 7.11012V11.7001C16.2804 11.5001 16.7504 11.2451 17.1004 10.9351C17.4504 10.6251 17.6254 10.1351 17.6254 9.46512ZM15.1504 1.32012C14.5804 1.44012 14.1254 1.64012 13.7854 1.92012C13.4554 2.20012 13.2904 2.65512 13.2904 3.28512C13.2904 3.64512 13.3854 3.96012 13.5754 4.23012C13.7754 4.50012 14.0154 4.73512 14.2954 4.93512C14.5854 5.13512 14.8704 5.32012 15.1504 5.49012V1.32012ZM19.1404 9.24012C19.1404 9.74012 19.0404 10.1651 18.8404 10.5151C18.6504 10.8551 18.3854 11.1401 18.0454 11.3701C17.7154 11.5901 17.3454 11.7601 16.9354 11.8801C16.5254 12.0001 16.1104 12.0851 15.6904 12.1351V13.2601H15.1504V12.1651C14.8504 12.1551 14.5604 12.1351 14.2804 12.1051C14.0004 12.0651 13.7204 11.9951 13.4404 11.8951C13.2304 11.8151 13.0254 11.7251 12.8254 11.6251C12.6354 11.5151 12.4254 11.4401 12.1954 11.4001C12.1454 11.0501 12.0754 10.6701 11.9854 10.2601C11.8954 9.84012 11.8504 9.46012 11.8504 9.12012C11.8504 8.97012 11.9404 8.89512 12.1204 8.89512C12.2504 8.89512 12.3354 8.93012 12.3754 9.00012C12.4254 9.06012 12.4604 9.14512 12.4804 9.25512C12.5004 9.38512 12.5204 9.51012 12.5404 9.63012C12.5704 9.75012 12.6054 9.87512 12.6454 10.0051C12.8354 10.6151 13.1454 11.0401 13.5754 11.2801C14.0154 11.5101 14.5404 11.6501 15.1504 11.7001V6.84012C14.7704 6.65012 14.3854 6.46512 13.9954 6.28512C13.6854 6.13512 13.3704 5.94012 13.0504 5.70012C12.7404 5.46012 12.4804 5.18012 12.2704 4.86012C12.0704 4.54012 11.9704 4.19012 11.9704 3.81012C11.9704 3.20012 12.1204 2.70012 12.4204 2.31012C12.7304 1.91012 13.1254 1.60512 13.6054 1.39512C14.0954 1.18512 14.6104 1.06012 15.1504 1.02012V0.000116765H15.6904V1.03512C15.9704 1.04512 16.2304 1.08512 16.4704 1.15512C16.7204 1.22512 16.9704 1.32012 17.2204 1.44012C17.3704 1.51012 17.5454 1.56012 17.7454 1.59012C17.9454 1.62012 18.1254 1.64512 18.2854 1.66512C18.2954 1.81512 18.3104 2.00512 18.3304 2.23512C18.3504 2.45512 18.3754 2.68012 18.4054 2.91012C18.4354 3.13012 18.4654 3.31012 18.4954 3.45012C18.5254 3.52012 18.5404 3.60012 18.5404 3.69012C18.5404 3.84012 18.5004 3.94012 18.4204 3.99012C18.3404 4.03012 18.2354 4.05012 18.1054 4.05012C18.0254 4.05012 17.9654 4.04012 17.9254 4.02012C17.8954 4.00012 17.8704 3.95512 17.8504 3.88512C17.8204 3.74512 17.7954 3.60512 17.7754 3.46512C17.7554 3.32512 17.7254 3.19012 17.6854 3.06012C17.5554 2.60012 17.3004 2.22012 16.9204 1.92012C16.5504 1.62012 16.1404 1.42012 15.6904 1.32012V5.73012C16.0904 5.91012 16.4904 6.10012 16.8904 6.30012C17.3004 6.49012 17.6754 6.71512 18.0154 6.97512C18.3554 7.23512 18.6254 7.55012 18.8254 7.92012C19.0354 8.28012 19.1404 8.72012 19.1404 9.24012ZM27.4533 9.18012C27.4533 8.73012 27.3583 8.35512 27.1683 8.05512C26.9883 7.74512 26.7483 7.48512 26.4483 7.27512C26.1483 7.06512 25.8183 6.89012 25.4583 6.75012C25.0983 6.60012 24.7433 6.46012 24.3933 6.33012C23.8533 6.64012 23.4233 7.03512 23.1033 7.51512C22.7833 7.98512 22.6233 8.54012 22.6233 9.18012C22.6233 10.0101 22.8233 10.6351 23.2233 11.0551C23.6233 11.4751 24.2383 11.6851 25.0683 11.6851C25.5483 11.6851 25.9633 11.5751 26.3133 11.3551C26.6733 11.1351 26.9533 10.8351 27.1533 10.4551C27.3533 10.0751 27.4533 9.65012 27.4533 9.18012ZM27.1683 3.42012C27.1683 2.74012 26.9783 2.24012 26.5983 1.92012C26.2283 1.59012 25.7183 1.42512 25.0683 1.42512C24.4583 1.42512 23.9833 1.59512 23.6433 1.93512C23.3033 2.26512 23.1333 2.73012 23.1333 3.33012C23.1333 3.80012 23.2483 4.18512 23.4783 4.48512C23.7083 4.78512 24.0033 5.03012 24.3633 5.22012C24.7333 5.41012 25.1083 5.57512 25.4883 5.71512C25.9583 5.50512 26.3533 5.20512 26.6733 4.81512C27.0033 4.41512 27.1683 3.95012 27.1683 3.42012ZM28.9383 8.67012C28.9383 9.44012 28.7483 10.0851 28.3683 10.6051C27.9983 11.1151 27.5083 11.5001 26.8983 11.7601C26.2883 12.0101 25.6233 12.1351 24.9033 12.1351C24.3133 12.1351 23.7483 12.0351 23.2083 11.8351C22.6783 11.6251 22.2433 11.3051 21.9033 10.8751C21.5733 10.4451 21.4083 9.90012 21.4083 9.24012C21.4083 8.69012 21.5333 8.23012 21.7833 7.86012C22.0433 7.48012 22.3683 7.15512 22.7583 6.88512C23.1583 6.60512 23.5683 6.35512 23.9883 6.13512C23.6783 6.00512 23.3633 5.83512 23.0433 5.62512C22.7233 5.41512 22.4533 5.16012 22.2333 4.86012C22.0133 4.56012 21.9033 4.22012 21.9033 3.84012C21.9033 3.18012 22.0733 2.64512 22.4133 2.23512C22.7533 1.81512 23.1883 1.51012 23.7183 1.32012C24.2483 1.13012 24.8033 1.03512 25.3833 1.03512C25.8333 1.03512 26.2833 1.11512 26.7333 1.27512C27.1833 1.43512 27.5583 1.68012 27.8583 2.01012C28.1583 2.34012 28.3083 2.76012 28.3083 3.27012C28.3083 3.73012 28.2133 4.12512 28.0233 4.45512C27.8433 4.78512 27.5933 5.06512 27.2733 5.29512C26.9533 5.52512 26.5983 5.72512 26.2083 5.89512C26.6183 6.01512 27.0333 6.20512 27.4533 6.46512C27.8733 6.71512 28.2233 7.02512 28.5033 7.39512C28.7933 7.76512 28.9383 8.19012 28.9383 8.67012ZM36.1659 4.93512C36.1659 4.82512 36.1659 4.71512 36.1659 4.60512C36.1659 4.48512 36.1609 4.37012 36.1509 4.26012C36.1309 3.85012 36.0409 3.44012 35.8809 3.03012C35.7209 2.61012 35.4859 2.26012 35.1759 1.98012C34.8659 1.69012 34.4759 1.54512 34.0059 1.54512C33.4759 1.54512 33.0559 1.69012 32.7459 1.98012C32.4359 2.27012 32.2109 2.63512 32.0709 3.07512C31.9409 3.51512 31.8759 3.96012 31.8759 4.41012C31.8759 4.75012 31.8959 5.10012 31.9359 5.46012C31.9759 5.81012 32.0609 6.14012 32.1909 6.45012C32.3209 6.75012 32.5159 6.99512 32.7759 7.18512C33.0359 7.36512 33.3809 7.45512 33.8109 7.45512C34.0309 7.45512 34.2809 7.41512 34.5609 7.33512C34.8509 7.25512 35.1209 7.14012 35.3709 6.99012C35.6209 6.84012 35.8059 6.66512 35.9259 6.46512C36.0659 6.23512 36.1409 5.99012 36.1509 5.73012C36.1609 5.46012 36.1659 5.19512 36.1659 4.93512ZM37.6209 5.64012C37.6209 5.98012 37.5759 6.34512 37.4859 6.73512C37.4059 7.11512 37.3059 7.46512 37.1859 7.78512C36.6759 9.15512 35.9209 10.2501 34.9209 11.0701C33.9209 11.8901 32.7209 12.4901 31.3209 12.8701C31.3109 12.8701 31.3009 12.8701 31.2909 12.8701C31.2909 12.8701 31.2859 12.8701 31.2759 12.8701C31.1859 12.8701 31.1409 12.8301 31.1409 12.7501C31.1409 12.7001 31.1609 12.6651 31.2009 12.6451C31.2409 12.6251 31.2809 12.6101 31.3209 12.6001C31.7809 12.4001 32.2359 12.1851 32.6859 11.9551C33.1359 11.7251 33.5359 11.4301 33.8859 11.0701C34.2059 10.7501 34.5109 10.3751 34.8009 9.94512C35.1009 9.51512 35.3559 9.06512 35.5659 8.59512C35.7759 8.11512 35.9009 7.65012 35.9409 7.20012C35.5909 7.43012 35.2159 7.62012 34.8159 7.77012C34.4159 7.92012 34.0009 7.99512 33.5709 7.99512C32.9209 7.99512 32.3559 7.86512 31.8759 7.60512C31.3959 7.33512 31.0209 6.96012 30.7509 6.48012C30.4909 5.99012 30.3609 5.42012 30.3609 4.77012C30.3609 3.98012 30.5259 3.31512 30.8559 2.77512C31.1859 2.23512 31.6409 1.82512 32.2209 1.54512C32.8109 1.26512 33.4809 1.12512 34.2309 1.12512C34.7709 1.12512 35.2659 1.26012 35.7159 1.53012C36.1659 1.80012 36.5459 2.15512 36.8559 2.59512C37.1659 3.02512 37.3759 3.49012 37.4859 3.99012C37.5459 4.26012 37.5809 4.53512 37.5909 4.81512C37.6109 5.08512 37.6209 5.36012 37.6209 5.64012ZM42.1486 11.3551C42.1486 11.6351 42.0886 11.9501 41.9686 12.3001C41.8486 12.6601 41.6936 13.0001 41.5036 13.3201C41.3236 13.6401 41.1286 13.9001 40.9186 14.1001L40.6486 14.0101C40.8186 13.7301 40.9636 13.3751 41.0836 12.9451C41.2036 12.5151 41.2636 12.1351 41.2636 11.8051V11.7451C41.0836 11.8951 40.8836 11.9701 40.6636 11.9701C40.4936 11.9701 40.3386 11.8801 40.1986 11.7001C40.0586 11.5101 39.9886 11.3351 39.9886 11.1751C39.9886 10.8451 40.0836 10.5651 40.2736 10.3351C40.4636 10.1051 40.7286 9.99012 41.0686 9.99012C41.4786 9.99012 41.7586 10.1301 41.9086 10.4101C42.0686 10.6801 42.1486 10.9951 42.1486 11.3551ZM50.2577 4.93512C50.2577 4.82512 50.2577 4.71512 50.2577 4.60512C50.2577 4.48512 50.2527 4.37012 50.2427 4.26012C50.2227 3.85012 50.1327 3.44012 49.9727 3.03012C49.8127 2.61012 49.5777 2.26012 49.2677 1.98012C48.9577 1.69012 48.5677 1.54512 48.0977 1.54512C47.5677 1.54512 47.1477 1.69012 46.8377 1.98012C46.5277 2.27012 46.3027 2.63512 46.1627 3.07512C46.0327 3.51512 45.9677 3.96012 45.9677 4.41012C45.9677 4.75012 45.9877 5.10012 46.0277 5.46012C46.0677 5.81012 46.1527 6.14012 46.2827 6.45012C46.4127 6.75012 46.6077 6.99512 46.8677 7.18512C47.1277 7.36512 47.4727 7.45512 47.9027 7.45512C48.1227 7.45512 48.3727 7.41512 48.6527 7.33512C48.9427 7.25512 49.2127 7.14012 49.4627 6.99012C49.7127 6.84012 49.8977 6.66512 50.0177 6.46512C50.1577 6.23512 50.2327 5.99012 50.2427 5.73012C50.2527 5.46012 50.2577 5.19512 50.2577 4.93512ZM51.7127 5.64012C51.7127 5.98012 51.6677 6.34512 51.5777 6.73512C51.4977 7.11512 51.3977 7.46512 51.2777 7.78512C50.7677 9.15512 50.0127 10.2501 49.0127 11.0701C48.0127 11.8901 46.8127 12.4901 45.4127 12.8701C45.4027 12.8701 45.3927 12.8701 45.3827 12.8701C45.3827 12.8701 45.3777 12.8701 45.3677 12.8701C45.2777 12.8701 45.2327 12.8301 45.2327 12.7501C45.2327 12.7001 45.2527 12.6651 45.2927 12.6451C45.3327 12.6251 45.3727 12.6101 45.4127 12.6001C45.8727 12.4001 46.3277 12.1851 46.7777 11.9551C47.2277 11.7251 47.6277 11.4301 47.9777 11.0701C48.2977 10.7501 48.6027 10.3751 48.8927 9.94512C49.1927 9.51512 49.4477 9.06512 49.6577 8.59512C49.8677 8.11512 49.9927 7.65012 50.0327 7.20012C49.6827 7.43012 49.3077 7.62012 48.9077 7.77012C48.5077 7.92012 48.0927 7.99512 47.6627 7.99512C47.0127 7.99512 46.4477 7.86512 45.9677 7.60512C45.4877 7.33512 45.1127 6.96012 44.8427 6.48012C44.5827 5.99012 44.4527 5.42012 44.4527 4.77012C44.4527 3.98012 44.6177 3.31512 44.9477 2.77512C45.2777 2.23512 45.7327 1.82512 46.3127 1.54512C46.9027 1.26512 47.5727 1.12512 48.3227 1.12512C48.8627 1.12512 49.3577 1.26012 49.8077 1.53012C50.2577 1.80012 50.6377 2.15512 50.9477 2.59512C51.2577 3.02512 51.4677 3.49012 51.5777 3.99012C51.6377 4.26012 51.6727 4.53512 51.6827 4.81512C51.7027 5.08512 51.7127 5.36012 51.7127 5.64012ZM59.1054 4.93512C59.1054 4.82512 59.1054 4.71512 59.1054 4.60512C59.1054 4.48512 59.1004 4.37012 59.0904 4.26012C59.0704 3.85012 58.9804 3.44012 58.8204 3.03012C58.6604 2.61012 58.4254 2.26012 58.1154 1.98012C57.8054 1.69012 57.4154 1.54512 56.9454 1.54512C56.4154 1.54512 55.9954 1.69012 55.6854 1.98012C55.3754 2.27012 55.1504 2.63512 55.0104 3.07512C54.8804 3.51512 54.8154 3.96012 54.8154 4.41012C54.8154 4.75012 54.8354 5.10012 54.8754 5.46012C54.9154 5.81012 55.0004 6.14012 55.1304 6.45012C55.2604 6.75012 55.4554 6.99512 55.7154 7.18512C55.9754 7.36512 56.3204 7.45512 56.7504 7.45512C56.9704 7.45512 57.2204 7.41512 57.5004 7.33512C57.7904 7.25512 58.0604 7.14012 58.3104 6.99012C58.5604 6.84012 58.7454 6.66512 58.8654 6.46512C59.0054 6.23512 59.0804 5.99012 59.0904 5.73012C59.1004 5.46012 59.1054 5.19512 59.1054 4.93512ZM60.5604 5.64012C60.5604 5.98012 60.5154 6.34512 60.4254 6.73512C60.3454 7.11512 60.2454 7.46512 60.1254 7.78512C59.6154 9.15512 58.8604 10.2501 57.8604 11.0701C56.8604 11.8901 55.6604 12.4901 54.2604 12.8701C54.2504 12.8701 54.2404 12.8701 54.2304 12.8701C54.2304 12.8701 54.2254 12.8701 54.2154 12.8701C54.1254 12.8701 54.0804 12.8301 54.0804 12.7501C54.0804 12.7001 54.1004 12.6651 54.1404 12.6451C54.1804 12.6251 54.2204 12.6101 54.2604 12.6001C54.7204 12.4001 55.1754 12.1851 55.6254 11.9551C56.0754 11.7251 56.4754 11.4301 56.8254 11.0701C57.1454 10.7501 57.4504 10.3751 57.7404 9.94512C58.0404 9.51512 58.2954 9.06512 58.5054 8.59512C58.7154 8.11512 58.8404 7.65012 58.8804 7.20012C58.5304 7.43012 58.1554 7.62012 57.7554 7.77012C57.3554 7.92012 56.9404 7.99512 56.5104 7.99512C55.8604 7.99512 55.2954 7.86512 54.8154 7.60512C54.3354 7.33512 53.9604 6.96012 53.6904 6.48012C53.4304 5.99012 53.3004 5.42012 53.3004 4.77012C53.3004 3.98012 53.4654 3.31512 53.7954 2.77512C54.1254 2.23512 54.5804 1.82512 55.1604 1.54512C55.7504 1.26512 56.4204 1.12512 57.1704 1.12512C57.7104 1.12512 58.2054 1.26012 58.6554 1.53012C59.1054 1.80012 59.4854 2.15512 59.7954 2.59512C60.1054 3.02512 60.3154 3.49012 60.4254 3.99012C60.4854 4.26012 60.5204 4.53512 60.5304 4.81512C60.5504 5.08512 60.5604 5.36012 60.5604 5.64012Z" fill="#3CA67B"/>
</svg>
