<svg width="63" height="23" viewBox="0 0 63 23" fill="none" xmlns="http://www.w3.org/2000/svg">
<path d="M19.056 1.10396C19.056 1.21596 19.032 1.30396 18.984 1.36796C18.952 1.41596 18.872 1.43996 18.744 1.43996C18.584 1.43996 18.424 1.43996 18.264 1.43996C18.104 1.42396 17.944 1.41596 17.784 1.41596C17.608 1.41596 17.408 1.46396 17.184 1.55996C16.96 1.65596 16.848 1.81596 16.848 2.03996V17.184C16.848 17.408 16.96 17.568 17.184 17.664C17.408 17.76 17.608 17.808 17.784 17.808C17.96 17.808 18.128 17.8 18.288 17.784C18.464 17.768 18.632 17.76 18.792 17.76C18.936 17.76 19.008 17.84 19.008 18C19.008 18.048 19.008 18.096 19.008 18.144C19.008 18.176 19.008 18.216 19.008 18.264C19.008 18.376 18.952 18.432 18.84 18.432C18.28 18.432 17.712 18.416 17.136 18.384C16.576 18.352 16.008 18.336 15.432 18.336C15.112 18.336 14.784 18.344 14.448 18.36C14.128 18.376 13.808 18.392 13.488 18.408C13.28 18.424 13.072 18.44 12.864 18.456C12.672 18.472 12.472 18.48 12.264 18.48C12.168 18.48 12.12 18.4 12.12 18.24C12.12 18.176 12.128 18.088 12.144 17.976C12.16 17.848 12.208 17.784 12.288 17.784C12.464 17.784 12.648 17.792 12.84 17.808C13.032 17.808 13.216 17.808 13.392 17.808C13.568 17.808 13.776 17.76 14.016 17.664C14.256 17.568 14.376 17.408 14.376 17.184V9.57596H4.704V17.184C4.704 17.408 4.816 17.568 5.04 17.664C5.264 17.76 5.464 17.808 5.64 17.808C5.816 17.808 5.984 17.8 6.144 17.784C6.32 17.768 6.496 17.76 6.672 17.76C6.784 17.76 6.848 17.8 6.864 17.88C6.88 17.896 6.888 17.944 6.888 18.024C6.888 18.088 6.888 18.136 6.888 18.168C6.888 18.216 6.872 18.288 6.84 18.384C6.776 18.416 6.728 18.432 6.696 18.432C6.136 18.432 5.576 18.416 5.016 18.384C4.472 18.352 3.92 18.336 3.36 18.336C3.024 18.336 2.688 18.344 2.352 18.36C2.032 18.376 1.712 18.392 1.392 18.408C1.184 18.424 0.983998 18.44 0.791998 18.456C0.599998 18.472 0.399998 18.48 0.191998 18.48C0.0799981 18.48 0.0399981 18.44 0.0719981 18.36C0.0399981 18.264 0.0239981 18.208 0.0239981 18.192C0.0239981 18.128 0.0319981 18.048 0.0479981 17.952C0.0639981 17.84 0.119998 17.784 0.215998 17.784C0.391998 17.784 0.567998 17.792 0.743998 17.808C0.935998 17.808 1.12 17.808 1.296 17.808C1.488 17.808 1.696 17.76 1.92 17.664C2.16 17.568 2.28 17.408 2.28 17.184C2.28 15.808 2.28 14.432 2.28 13.056C2.296 11.68 2.304 10.312 2.304 8.95196C2.304 7.81596 2.296 6.67196 2.28 5.51996C2.28 4.36796 2.28 3.22396 2.28 2.08796C2.28 1.86396 2.16 1.70396 1.92 1.60796C1.696 1.51196 1.488 1.46396 1.296 1.46396C1.12 1.46396 0.935998 1.47196 0.743998 1.48796C0.567998 1.48796 0.391998 1.48796 0.215998 1.48796C0.103998 1.48796 0.0399981 1.42396 0.0239981 1.29596C0.00799808 1.16796 -1.90735e-06 1.07196 -1.90735e-06 1.00796C-1.90735e-06 0.863958 0.0639981 0.791958 0.191998 0.791958C0.399998 0.791958 0.599998 0.799958 0.791998 0.815958C0.983998 0.831958 1.184 0.847958 1.392 0.863959C1.712 0.879959 2.032 0.895958 2.352 0.911958C2.688 0.927958 3.024 0.935958 3.36 0.935958C3.92 0.935958 4.48 0.919958 5.04 0.887959C5.616 0.855958 6.184 0.839958 6.744 0.839958C6.856 0.839958 6.912 0.887958 6.912 0.983959C6.912 1.07996 6.912 1.16796 6.912 1.24796C6.912 1.42396 6.832 1.51196 6.672 1.51196C6.496 1.51196 6.32 1.50396 6.144 1.48796C5.984 1.47196 5.816 1.46396 5.64 1.46396C5.464 1.46396 5.264 1.51196 5.04 1.60796C4.816 1.70396 4.704 1.86396 4.704 2.08796V8.78396H14.376V2.27996C14.376 1.95996 14.288 1.74396 14.112 1.63196C13.936 1.51996 13.696 1.46396 13.392 1.46396C13.216 1.46396 13.032 1.47196 12.84 1.48796C12.648 1.48796 12.464 1.48796 12.288 1.48796C12.192 1.48796 12.136 1.43996 12.12 1.34396C12.12 1.23196 12.12 1.14396 12.12 1.07996C12.12 0.887958 12.184 0.791958 12.312 0.791958C12.696 0.791958 13.088 0.807958 13.488 0.839958C13.904 0.871958 14.312 0.887959 14.712 0.887959H15.432C16.008 0.887959 16.576 0.871958 17.136 0.839958C17.712 0.807958 18.28 0.791958 18.84 0.791958C18.92 0.791958 18.976 0.823958 19.008 0.887959C19.04 0.951959 19.056 1.02396 19.056 1.10396ZM30.8379 12.072C30.8379 11.384 30.7819 10.696 30.6699 10.008C30.5739 9.30396 30.3819 8.65596 30.0939 8.06396C29.8219 7.47196 29.4219 6.99996 28.8939 6.64796C28.3659 6.27996 27.6779 6.09596 26.8299 6.09596C26.0299 6.09596 25.3739 6.28796 24.8619 6.67196C24.3659 7.05596 23.9739 7.55196 23.6859 8.15996C23.4139 8.76796 23.2219 9.42396 23.1099 10.128C23.0139 10.832 22.9659 11.496 22.9659 12.12C22.9659 12.808 23.0139 13.496 23.1099 14.184C23.2219 14.872 23.4219 15.496 23.7099 16.056C23.9979 16.6 24.4059 17.04 24.9339 17.376C25.4779 17.712 26.1739 17.88 27.0219 17.88C27.8539 17.88 28.5179 17.704 29.0139 17.352C29.5259 17 29.9099 16.536 30.1659 15.96C30.4379 15.384 30.6139 14.76 30.6939 14.088C30.7899 13.4 30.8379 12.728 30.8379 12.072ZM33.3099 12.144C33.3099 13.344 33.0219 14.424 32.4459 15.384C31.8859 16.344 31.1179 17.104 30.1419 17.664C29.1819 18.224 28.1019 18.504 26.9019 18.504C25.7339 18.504 24.6779 18.224 23.7339 17.664C22.7899 17.088 22.0379 16.328 21.4779 15.384C20.9179 14.424 20.6379 13.36 20.6379 12.192C20.6379 10.992 20.9099 9.88796 21.4539 8.87996C21.9979 7.85596 22.7419 7.03196 23.6859 6.40796C24.6459 5.78396 25.7499 5.47196 26.9979 5.47196C28.3419 5.47196 29.4859 5.75996 30.4299 6.33596C31.3739 6.89596 32.0859 7.67996 32.5659 8.68796C33.0619 9.67996 33.3099 10.832 33.3099 12.144ZM40.9207 16.68C40.9207 17.256 40.8887 17.912 40.8247 18.648C40.7767 19.384 40.6087 20.008 40.3207 20.52C39.8727 21.304 39.2807 21.888 38.5447 22.272C37.8247 22.656 37.0167 22.848 36.1207 22.848C35.7367 22.848 35.3287 22.8 34.8967 22.704C34.4647 22.624 34.0967 22.456 33.7927 22.2C33.6807 22.088 33.5687 21.944 33.4567 21.768C33.3287 21.592 33.2647 21.424 33.2647 21.264C33.2647 20.896 33.3687 20.616 33.5767 20.424C33.7687 20.248 34.0407 20.16 34.3927 20.16C34.5687 20.16 34.6567 20.248 34.6567 20.424C34.6567 20.808 34.7927 21.192 35.0647 21.576C35.3367 21.96 35.6807 22.152 36.0967 22.152C36.8007 22.152 37.4007 21.944 37.8967 21.528C38.3927 21.128 38.6407 20.56 38.6407 19.824V7.39196C38.6407 7.08796 38.5847 6.87196 38.4727 6.74396C38.3607 6.61596 38.1447 6.55196 37.8247 6.55196C37.6167 6.55196 37.4007 6.56796 37.1767 6.59996C36.9687 6.63196 36.7527 6.64796 36.5287 6.64796C36.4967 6.64796 36.4567 6.62396 36.4087 6.57596C36.3607 6.51196 36.3367 6.46396 36.3367 6.43196C36.3367 6.35196 36.3447 6.27996 36.3607 6.21596C36.3927 6.15196 36.4487 6.11196 36.5287 6.09596C36.6567 6.04796 36.8727 6.00796 37.1767 5.97596C37.4967 5.94396 37.7367 5.91996 37.8967 5.90396C38.3607 5.82396 38.8167 5.73596 39.2647 5.63996C39.7127 5.54396 40.1607 5.45596 40.6087 5.37596C40.6407 5.37596 40.6727 5.37596 40.7047 5.37596C40.7367 5.35996 40.7607 5.35196 40.7767 5.35196C40.8887 5.35196 40.9447 5.43196 40.9447 5.59196L40.9207 16.68ZM40.8007 1.43996C40.8007 1.83996 40.6567 2.18396 40.3687 2.47196C40.0967 2.74396 39.7527 2.87996 39.3367 2.87996C38.9367 2.87996 38.5927 2.74396 38.3047 2.47196C38.0167 2.18396 37.8727 1.83996 37.8727 1.43996C37.8727 1.03996 38.0167 0.703958 38.3047 0.431959C38.5927 0.143959 38.9367 -4.14848e-05 39.3367 -4.14848e-05C39.7367 -4.14848e-05 40.0807 0.143959 40.3687 0.431959C40.6567 0.703958 40.8007 1.03996 40.8007 1.43996ZM53.3259 9.98396C53.3099 9.32796 53.2539 8.70396 53.1579 8.11196C53.0619 7.50396 52.8299 7.00796 52.4619 6.62396C52.0939 6.22396 51.4939 6.02396 50.6619 6.02396C49.9099 6.02396 49.2939 6.23196 48.8139 6.64796C48.3499 7.04796 47.9899 7.55996 47.7339 8.18396C47.4779 8.79196 47.2859 9.41596 47.1579 10.056C47.5579 10.072 47.9499 10.088 48.3339 10.104C48.7179 10.104 49.1019 10.104 49.4859 10.104C50.1259 10.104 50.7659 10.096 51.4059 10.08C52.0459 10.048 52.6859 10.016 53.3259 9.98396ZM56.0859 15.48C56.0859 15.56 56.0699 15.608 56.0379 15.624C55.9899 15.784 55.8699 15.976 55.6779 16.2C55.5019 16.424 55.3019 16.64 55.0779 16.848C54.8539 17.04 54.6699 17.184 54.5259 17.28C53.9979 17.648 53.3979 17.944 52.7259 18.168C52.0699 18.392 51.4139 18.504 50.7579 18.504C50.2139 18.504 49.6059 18.416 48.9339 18.24C48.2779 18.064 47.7179 17.824 47.2539 17.52C46.3579 16.928 45.7019 16.152 45.2859 15.192C44.8699 14.232 44.6619 13.232 44.6619 12.192C44.6619 11.008 44.8939 9.91196 45.3579 8.90396C45.8219 7.89596 46.5659 7.07996 47.5899 6.45596C48.0539 6.18396 48.5739 5.95996 49.1499 5.78396C49.7259 5.59196 50.2779 5.49596 50.8059 5.49596C51.7499 5.49596 52.5819 5.68796 53.3019 6.07196C54.0219 6.45596 54.5819 6.99996 54.9819 7.70396C55.3979 8.39196 55.6059 9.21596 55.6059 10.176C55.6059 10.448 55.5419 10.624 55.4139 10.704C55.3019 10.784 55.1259 10.824 54.8859 10.824C54.5659 10.824 54.2459 10.816 53.9259 10.8C53.6059 10.784 53.2859 10.768 52.9659 10.752C52.5179 10.72 52.0699 10.704 51.6219 10.704C51.1899 10.704 50.7499 10.704 50.3019 10.704C49.7579 10.704 49.2139 10.704 48.6699 10.704C48.1259 10.704 47.5819 10.72 47.0379 10.752C47.0219 11.008 47.0059 11.256 46.9899 11.496C46.9739 11.736 46.9659 11.984 46.9659 12.24C46.9659 12.832 47.0379 13.448 47.1819 14.088C47.3259 14.712 47.5579 15.296 47.8779 15.84C48.1979 16.368 48.6059 16.8 49.1019 17.136C49.5979 17.456 50.1979 17.616 50.9019 17.616C51.6219 17.616 52.3099 17.504 52.9659 17.28C53.6219 17.056 54.2219 16.696 54.7659 16.2C54.9099 16.056 55.0379 15.904 55.1499 15.744C55.2779 15.568 55.4139 15.416 55.5579 15.288C55.6379 15.208 55.7259 15.168 55.8219 15.168C55.9019 15.168 55.9659 15.2 56.0139 15.264C56.0619 15.328 56.0859 15.4 56.0859 15.48ZM62.9481 16.608C62.9481 17.056 62.7801 17.432 62.4441 17.736C62.1081 18.024 61.7241 18.168 61.2921 18.168C60.8601 18.168 60.4761 18.024 60.1401 17.736C59.8041 17.432 59.6361 17.056 59.6361 16.608C59.6361 16.144 59.7961 15.768 60.1161 15.48C60.4521 15.176 60.8441 15.024 61.2921 15.024C61.7401 15.024 62.1241 15.176 62.4441 15.48C62.7801 15.768 62.9481 16.144 62.9481 16.608ZM62.9481 8.01596C62.9481 8.46396 62.7801 8.83996 62.4441 9.14396C62.1241 9.44796 61.7401 9.59996 61.2921 9.59996C60.8441 9.59996 60.4521 9.44796 60.1161 9.14396C59.7961 8.83996 59.6361 8.46396 59.6361 8.01596C59.6361 7.56796 59.8041 7.19996 60.1401 6.91196C60.4761 6.60796 60.8601 6.45596 61.2921 6.45596C61.7241 6.45596 62.1081 6.60796 62.4441 6.91196C62.7801 7.19996 62.9481 7.56796 62.9481 8.01596Z" fill="black"/>
</svg>
