<svg width="168" height="14" viewBox="0 0 168 14" fill="none" xmlns="http://www.w3.org/2000/svg">
<path d="M8.88999 5.47398C8.88999 5.08198 8.84799 4.67131 8.76399 4.24198C8.68933 3.80331 8.56799 3.38331 8.39999 2.98198C8.23199 2.58064 8.00799 2.23998 7.72799 1.95998C7.46666 1.69864 7.15866 1.47931 6.80399 1.30198C6.45866 1.11531 6.09933 1.00331 5.72599 0.965976C5.61399 0.947309 5.49733 0.937975 5.37599 0.937975C5.26399 0.937975 5.15199 0.937975 5.03999 0.937975C4.67599 0.937975 4.31199 0.942642 3.94799 0.951975C3.59333 0.961309 3.23399 0.970642 2.86999 0.979976V9.58998C2.86999 9.86998 2.96333 10.052 3.14999 10.136C3.33666 10.22 3.54666 10.262 3.77999 10.262C4.15333 10.262 4.53599 10.248 4.92799 10.22C5.32933 10.192 5.71666 10.1266 6.08999 10.024C6.47266 9.91198 6.82266 9.73931 7.13999 9.50598C7.78399 9.02998 8.23666 8.43264 8.49799 7.71398C8.75933 6.98598 8.88999 6.23931 8.88999 5.47398ZM10.444 5.26398C10.444 6.18798 10.248 7.06531 9.85599 7.89598C9.47333 8.72664 8.88066 9.38931 8.07799 9.88398C7.75133 10.08 7.37333 10.2433 6.94399 10.374C6.52399 10.4953 6.09466 10.584 5.65599 10.64C5.21733 10.696 4.80666 10.724 4.42399 10.724C4.08799 10.724 3.74733 10.7146 3.40199 10.696C3.06599 10.6773 2.72533 10.668 2.37999 10.668C2.10933 10.668 1.83399 10.6726 1.55399 10.682C1.27399 10.682 0.998661 10.6913 0.727994 10.71C0.681328 10.7193 0.634661 10.724 0.587994 10.724C0.541327 10.724 0.494661 10.724 0.447994 10.724C0.391994 10.724 0.359328 10.7006 0.349994 10.654C0.340661 10.6073 0.335994 10.5653 0.335994 10.528C0.335994 10.4626 0.382661 10.416 0.475994 10.388C0.578661 10.36 0.685994 10.3366 0.797994 10.318C0.919328 10.2993 1.00333 10.276 1.04999 10.248C1.20866 10.164 1.31133 10.0426 1.35799 9.88398C1.41399 9.71598 1.44199 9.54798 1.44199 9.37998C1.44199 8.86664 1.44199 8.35798 1.44199 7.85398C1.45133 7.34064 1.45599 6.82731 1.45599 6.31398V5.02598C1.45599 4.51264 1.45599 4.00398 1.45599 3.49998C1.45599 2.99598 1.45599 2.48731 1.45599 1.97398C1.45599 1.61931 1.41399 1.36731 1.32999 1.21798C1.24599 1.06864 1.01266 0.993976 0.629994 0.993976C0.564661 0.993976 0.499328 0.998642 0.433994 1.00798C0.377994 1.00798 0.317327 1.00798 0.251994 1.00798C0.186661 1.00798 0.125994 0.989309 0.0699942 0.951975C0.0233275 0.905309 -5.84498e-06 0.849309 -5.84498e-06 0.783976C-5.84498e-06 0.634642 0.0746608 0.559975 0.223994 0.559975C0.438661 0.559975 0.653328 0.569309 0.867994 0.587976C1.08266 0.597309 1.29266 0.601976 1.49799 0.601976C2.18866 0.601976 2.87933 0.583309 3.56999 0.545975C4.26999 0.499309 4.96533 0.475976 5.65599 0.475976C6.65466 0.475976 7.50866 0.667309 8.21799 1.04998C8.93666 1.43264 9.48733 1.98331 9.86999 2.70198C10.2527 3.41131 10.444 4.26531 10.444 5.26398ZM15.53 10.528C15.53 10.5746 15.516 10.6213 15.488 10.668C15.46 10.7053 15.4227 10.724 15.376 10.724C15.1147 10.724 14.8534 10.7193 14.592 10.71C14.34 10.6913 14.0787 10.682 13.808 10.682H13.43C13.15 10.682 12.87 10.6913 12.59 10.71C12.3194 10.7193 12.0487 10.724 11.778 10.724C11.7407 10.724 11.7127 10.7006 11.694 10.654C11.6847 10.6073 11.68 10.57 11.68 10.542C11.68 10.4953 11.6847 10.4626 11.694 10.444C11.7034 10.416 11.7314 10.3973 11.778 10.388C11.8247 10.3693 11.876 10.3646 11.932 10.374C11.9974 10.374 12.058 10.374 12.114 10.374C12.1794 10.374 12.24 10.3786 12.296 10.388C12.352 10.388 12.4127 10.388 12.478 10.388C12.6087 10.388 12.7254 10.36 12.828 10.304C12.94 10.2386 12.996 10.1313 12.996 9.98198V4.38198C12.996 4.22331 12.968 4.10198 12.912 4.01798C12.856 3.92464 12.7394 3.87798 12.562 3.87798C12.4314 3.87798 12.296 3.88731 12.156 3.90598C12.0254 3.91531 11.8947 3.92931 11.764 3.94798C11.6894 3.94798 11.652 3.90598 11.652 3.82198C11.652 3.72864 11.6894 3.66798 11.764 3.63998C11.876 3.60264 11.9927 3.57931 12.114 3.56998C12.2447 3.55131 12.366 3.53264 12.478 3.51398C12.7394 3.46731 13.0007 3.41598 13.262 3.35998C13.5234 3.30398 13.78 3.24331 14.032 3.17798C14.06 3.16864 14.0974 3.16398 14.144 3.16398C14.2467 3.16398 14.298 3.21998 14.298 3.33198C14.298 4.43331 14.2934 5.53931 14.284 6.64998C14.284 7.76064 14.284 8.87131 14.284 9.98198C14.284 10.1313 14.3494 10.2386 14.48 10.304C14.62 10.36 14.7507 10.388 14.872 10.388C14.9654 10.388 15.0587 10.3833 15.152 10.374C15.2547 10.3646 15.3527 10.36 15.446 10.36C15.4834 10.36 15.5067 10.3833 15.516 10.43C15.5254 10.4766 15.53 10.5093 15.53 10.528ZM14.396 0.839976C14.396 1.07331 14.312 1.27398 14.144 1.44198C13.976 1.60064 13.7754 1.67998 13.542 1.67998C13.3087 1.67998 13.108 1.60064 12.94 1.44198C12.772 1.27398 12.688 1.07331 12.688 0.839976C12.688 0.606642 12.772 0.410642 12.94 0.251976C13.108 0.0839758 13.3087 -2.41995e-05 13.542 -2.41995e-05C13.7754 -2.41995e-05 13.976 0.0839758 14.144 0.251976C14.312 0.410642 14.396 0.606642 14.396 0.839976ZM21.6865 11.186C21.6865 10.8126 21.5792 10.5466 21.3645 10.388C21.1592 10.22 20.9072 10.1126 20.6085 10.066C20.3099 10.01 20.0205 9.96798 19.7405 9.93998L18.1725 9.78598C17.9672 10.01 17.8132 10.234 17.7105 10.458C17.6172 10.6726 17.5705 10.934 17.5705 11.242C17.5705 11.69 17.6779 12.012 17.8925 12.208C18.1165 12.4133 18.3965 12.544 18.7325 12.6C19.0685 12.656 19.4092 12.684 19.7545 12.684C20.0905 12.684 20.4032 12.6373 20.6925 12.544C20.9912 12.4506 21.2292 12.292 21.4065 12.068C21.5932 11.8533 21.6865 11.5593 21.6865 11.186ZM21.0005 5.58598C21.0005 5.29664 20.9679 4.98864 20.9025 4.66198C20.8372 4.33531 20.7065 4.05531 20.5105 3.82198C20.3239 3.58864 20.0485 3.47198 19.6845 3.47198C19.2739 3.47198 18.9565 3.57931 18.7325 3.79398C18.5085 3.99931 18.3545 4.26531 18.2705 4.59198C18.1959 4.90931 18.1585 5.24064 18.1585 5.58598C18.1585 5.94998 18.1912 6.29531 18.2565 6.62198C18.3312 6.93931 18.4759 7.20064 18.6905 7.40598C18.9145 7.61131 19.2459 7.71398 19.6845 7.71398C19.9552 7.71398 20.1745 7.64398 20.3425 7.50398C20.5199 7.36398 20.6552 7.18664 20.7485 6.97198C20.8419 6.74798 20.9072 6.51464 20.9445 6.27198C20.9819 6.02931 21.0005 5.80064 21.0005 5.58598ZM23.4925 3.28998C23.4925 3.48598 23.4505 3.62131 23.3665 3.69598C23.2919 3.76131 23.1892 3.79864 23.0585 3.80798C22.9372 3.80798 22.8065 3.80798 22.6665 3.80798C22.4612 3.80798 22.2512 3.80798 22.0365 3.80798C21.8312 3.79864 21.6212 3.78931 21.4065 3.77998C21.7052 4.01331 21.9245 4.29331 22.0645 4.61998C22.2139 4.94664 22.2885 5.29664 22.2885 5.66998C22.2885 6.12731 22.1579 6.53331 21.8965 6.88798C21.6445 7.23331 21.3179 7.50398 20.9165 7.69998C20.5152 7.89598 20.0999 7.99398 19.6705 7.99398C19.5212 7.99398 19.3765 7.98931 19.2365 7.97998C19.0965 7.96131 18.9519 7.94731 18.8025 7.93798C18.6812 8.04998 18.5412 8.17131 18.3825 8.30198C18.2332 8.43264 18.1585 8.59131 18.1585 8.77798C18.1585 8.92731 18.2285 9.03931 18.3685 9.11398C18.5179 9.17931 18.6812 9.22598 18.8585 9.25398C19.0359 9.28198 19.1759 9.30064 19.2785 9.30998L21.0565 9.43598C21.3739 9.46398 21.6819 9.53398 21.9805 9.64598C22.2885 9.74864 22.5452 9.91198 22.7505 10.136C22.9559 10.3506 23.0585 10.6446 23.0585 11.018C23.0585 11.41 22.9419 11.7366 22.7085 11.998C22.4845 12.2593 22.1905 12.4693 21.8265 12.628C21.4719 12.7866 21.1032 12.8986 20.7205 12.964C20.3379 13.0293 19.9925 13.062 19.6845 13.062C19.4419 13.062 19.1385 13.048 18.7745 13.02C18.4105 13.0013 18.0512 12.9453 17.6965 12.852C17.3419 12.7586 17.0432 12.6093 16.8005 12.404C16.5672 12.208 16.4505 11.9373 16.4505 11.592C16.4505 11.34 16.5112 11.102 16.6325 10.878C16.7539 10.6633 16.9032 10.4626 17.0805 10.276C17.2672 10.0893 17.4492 9.92598 17.6265 9.78598C17.5239 9.73931 17.3839 9.66931 17.2065 9.57598C17.0385 9.47331 16.9545 9.35664 16.9545 9.22598C16.9545 9.06731 17.0385 8.88998 17.2065 8.69398C17.3839 8.49798 17.5752 8.31131 17.7805 8.13398C17.9859 7.94731 18.1445 7.80264 18.2565 7.69998C17.7805 7.47598 17.4259 7.19131 17.1925 6.84598C16.9685 6.49131 16.8565 6.05264 16.8565 5.52998C16.8565 5.04464 16.9919 4.62931 17.2625 4.28398C17.5425 3.92931 17.8925 3.65864 18.3125 3.47198C18.7419 3.27598 19.1759 3.17798 19.6145 3.17798C19.7732 3.17798 19.9319 3.19198 20.0905 3.21998C20.2492 3.23864 20.4032 3.27131 20.5525 3.31798C20.6272 3.33664 20.7065 3.36464 20.7905 3.40198C20.8839 3.42998 20.9679 3.44864 21.0425 3.45798C21.1079 3.46731 21.1685 3.47198 21.2245 3.47198C21.2899 3.47198 21.3552 3.47198 21.4205 3.47198C21.7565 3.47198 22.0785 3.44864 22.3865 3.40198C22.6945 3.34598 22.9699 3.18731 23.2125 2.92598C23.2685 2.86998 23.3152 2.84198 23.3525 2.84198C23.4272 2.84198 23.4692 2.90731 23.4785 3.03798C23.4879 3.15931 23.4925 3.24331 23.4925 3.28998ZM28.0672 10.528C28.0672 10.5746 28.0532 10.6213 28.0252 10.668C27.9972 10.7053 27.9598 10.724 27.9132 10.724C27.6518 10.724 27.3905 10.7193 27.1292 10.71C26.8772 10.6913 26.6158 10.682 26.3452 10.682H25.9672C25.6872 10.682 25.4072 10.6913 25.1272 10.71C24.8565 10.7193 24.5858 10.724 24.3152 10.724C24.2778 10.724 24.2498 10.7006 24.2312 10.654C24.2218 10.6073 24.2172 10.57 24.2172 10.542C24.2172 10.4953 24.2218 10.4626 24.2312 10.444C24.2405 10.416 24.2685 10.3973 24.3152 10.388C24.3618 10.3693 24.4132 10.3646 24.4692 10.374C24.5345 10.374 24.5952 10.374 24.6512 10.374C24.7165 10.374 24.7772 10.3786 24.8332 10.388C24.8892 10.388 24.9498 10.388 25.0152 10.388C25.1458 10.388 25.2625 10.36 25.3652 10.304C25.4772 10.2386 25.5332 10.1313 25.5332 9.98198V4.38198C25.5332 4.22331 25.5052 4.10198 25.4492 4.01798C25.3932 3.92464 25.2765 3.87798 25.0992 3.87798C24.9685 3.87798 24.8332 3.88731 24.6932 3.90598C24.5625 3.91531 24.4318 3.92931 24.3012 3.94798C24.2265 3.94798 24.1892 3.90598 24.1892 3.82198C24.1892 3.72864 24.2265 3.66798 24.3012 3.63998C24.4132 3.60264 24.5298 3.57931 24.6512 3.56998C24.7818 3.55131 24.9032 3.53264 25.0152 3.51398C25.2765 3.46731 25.5378 3.41598 25.7992 3.35998C26.0605 3.30398 26.3172 3.24331 26.5692 3.17798C26.5972 3.16864 26.6345 3.16398 26.6812 3.16398C26.7838 3.16398 26.8352 3.21998 26.8352 3.33198C26.8352 4.43331 26.8305 5.53931 26.8212 6.64998C26.8212 7.76064 26.8212 8.87131 26.8212 9.98198C26.8212 10.1313 26.8865 10.2386 27.0172 10.304C27.1572 10.36 27.2878 10.388 27.4092 10.388C27.5025 10.388 27.5958 10.3833 27.6892 10.374C27.7918 10.3646 27.8898 10.36 27.9832 10.36C28.0205 10.36 28.0438 10.3833 28.0532 10.43C28.0625 10.4766 28.0672 10.5093 28.0672 10.528ZM26.9332 0.839976C26.9332 1.07331 26.8492 1.27398 26.6812 1.44198C26.5132 1.60064 26.3125 1.67998 26.0792 1.67998C25.8458 1.67998 25.6452 1.60064 25.4772 1.44198C25.3092 1.27398 25.2252 1.07331 25.2252 0.839976C25.2252 0.606642 25.3092 0.410642 25.4772 0.251976C25.6452 0.0839758 25.8458 -2.41995e-05 26.0792 -2.41995e-05C26.3125 -2.41995e-05 26.5132 0.0839758 26.6812 0.251976C26.8492 0.410642 26.9332 0.606642 26.9332 0.839976ZM33.5377 10.094C33.5377 10.178 33.4723 10.262 33.3417 10.346C33.2203 10.43 33.071 10.5046 32.8937 10.57C32.7163 10.6353 32.5437 10.6866 32.3757 10.724C32.217 10.7613 32.1003 10.78 32.0257 10.78C31.5403 10.78 31.1623 10.7193 30.8917 10.598C30.6303 10.4766 30.4437 10.276 30.3317 9.99598C30.229 9.71598 30.1777 9.33798 30.1777 8.86198C30.1777 8.08731 30.1777 7.31264 30.1777 6.53798C30.187 5.75398 30.1963 4.97464 30.2057 4.19998H29.1977C29.1323 4.19998 29.0763 4.21864 29.0297 4.25598C28.9923 4.28398 28.9503 4.29798 28.9037 4.29798C28.857 4.29798 28.8337 4.26531 28.8337 4.19998C28.8337 4.16264 28.857 4.08798 28.9037 3.97598C28.9597 3.86398 28.997 3.78931 29.0157 3.75198C29.0437 3.76131 29.0857 3.76598 29.1417 3.76598H30.2337L30.2477 1.98798C30.4623 1.84798 30.6583 1.69398 30.8357 1.52598C31.013 1.34864 31.1903 1.17131 31.3677 0.993976C31.3863 0.975309 31.405 0.961309 31.4237 0.951975C31.4423 0.933309 31.461 0.923976 31.4797 0.923976C31.5637 0.923976 31.6057 0.956642 31.6057 1.02198L31.5217 3.75198C31.8203 3.75198 32.1143 3.74731 32.4037 3.73798C32.7023 3.72864 32.9963 3.72398 33.2857 3.72398C33.407 3.72398 33.4677 3.79398 33.4677 3.93398C33.4677 4.11131 33.3883 4.19998 33.2297 4.19998H31.5217C31.5217 4.90931 31.517 5.62331 31.5077 6.34198C31.5077 7.05131 31.5077 7.76531 31.5077 8.48398V9.56198C31.5077 9.79531 31.6057 9.95864 31.8017 10.052C31.9977 10.136 32.189 10.178 32.3757 10.178C32.637 10.178 32.8937 10.136 33.1457 10.052C33.1737 10.0333 33.2157 10.0146 33.2717 9.99598C33.3277 9.97731 33.3697 9.96798 33.3977 9.96798C33.491 9.96798 33.5377 10.01 33.5377 10.094ZM39.3626 5.82398C39.3533 5.44131 39.3206 5.07731 39.2646 4.73198C39.2086 4.37731 39.0733 4.08798 38.8586 3.86398C38.644 3.63064 38.294 3.51398 37.8086 3.51398C37.37 3.51398 37.0106 3.63531 36.7306 3.87798C36.46 4.11131 36.25 4.40998 36.1006 4.77398C35.9513 5.12864 35.8393 5.49264 35.7646 5.86598C35.998 5.87531 36.2266 5.88464 36.4506 5.89398C36.6746 5.89398 36.8986 5.89398 37.1226 5.89398C37.496 5.89398 37.8693 5.88931 38.2426 5.87998C38.616 5.86131 38.9893 5.84264 39.3626 5.82398ZM40.9726 9.02998C40.9726 9.07664 40.9633 9.10464 40.9446 9.11398C40.9166 9.20731 40.8466 9.31931 40.7346 9.44998C40.632 9.58064 40.5153 9.70664 40.3846 9.82798C40.254 9.93998 40.1466 10.024 40.0626 10.08C39.7546 10.2946 39.4046 10.4673 39.0126 10.598C38.63 10.7286 38.2473 10.794 37.8646 10.794C37.5473 10.794 37.1926 10.7426 36.8006 10.64C36.418 10.5373 36.0913 10.3973 35.8206 10.22C35.298 9.87464 34.9153 9.42198 34.6726 8.86198C34.43 8.30198 34.3086 7.71864 34.3086 7.11198C34.3086 6.42131 34.444 5.78198 34.7146 5.19398C34.9853 4.60598 35.4193 4.12998 36.0166 3.76598C36.2873 3.60731 36.5906 3.47664 36.9266 3.37398C37.2626 3.26198 37.5846 3.20598 37.8926 3.20598C38.4433 3.20598 38.9286 3.31798 39.3486 3.54198C39.7686 3.76598 40.0953 4.08331 40.3286 4.49398C40.5713 4.89531 40.6926 5.37598 40.6926 5.93598C40.6926 6.09464 40.6553 6.19731 40.5806 6.24398C40.5153 6.29064 40.4126 6.31398 40.2726 6.31398C40.086 6.31398 39.8993 6.30931 39.7126 6.29998C39.526 6.29064 39.3393 6.28131 39.1526 6.27198C38.8913 6.25331 38.63 6.24398 38.3686 6.24398C38.1166 6.24398 37.86 6.24398 37.5986 6.24398C37.2813 6.24398 36.964 6.24398 36.6466 6.24398C36.3293 6.24398 36.012 6.25331 35.6946 6.27198C35.6853 6.42131 35.676 6.56598 35.6666 6.70598C35.6573 6.84598 35.6526 6.99064 35.6526 7.13998C35.6526 7.48531 35.6946 7.84464 35.7786 8.21798C35.8626 8.58198 35.998 8.92264 36.1846 9.23998C36.3713 9.54798 36.6093 9.79998 36.8986 9.99598C37.188 10.1826 37.538 10.276 37.9486 10.276C38.3686 10.276 38.77 10.2106 39.1526 10.08C39.5353 9.94931 39.8853 9.73931 40.2026 9.44998C40.2866 9.36598 40.3613 9.27731 40.4266 9.18398C40.5013 9.08131 40.5806 8.99264 40.6646 8.91798C40.7113 8.87131 40.7626 8.84798 40.8186 8.84798C40.8653 8.84798 40.9026 8.86664 40.9306 8.90398C40.9586 8.94131 40.9726 8.98331 40.9726 9.02998ZM51.3735 7.04198C51.3735 6.64064 51.3409 6.23931 51.2755 5.83798C51.2195 5.42731 51.1075 5.04931 50.9395 4.70398C50.7809 4.35864 50.5475 4.08331 50.2395 3.87798C49.9315 3.66331 49.5302 3.55598 49.0355 3.55598C48.5689 3.55598 48.1862 3.66798 47.8875 3.89198C47.5982 4.11598 47.3695 4.40531 47.2015 4.75998C47.0429 5.11464 46.9309 5.49731 46.8655 5.90798C46.8095 6.31864 46.7815 6.70598 46.7815 7.06998C46.7815 7.47131 46.8095 7.87264 46.8655 8.27398C46.9309 8.67531 47.0475 9.03931 47.2155 9.36598C47.3835 9.68331 47.6215 9.93998 47.9295 10.136C48.2469 10.332 48.6529 10.43 49.1475 10.43C49.6329 10.43 50.0202 10.3273 50.3095 10.122C50.6082 9.91664 50.8322 9.64598 50.9815 9.30998C51.1402 8.97398 51.2429 8.60998 51.2895 8.21798C51.3455 7.81664 51.3735 7.42464 51.3735 7.04198ZM52.8155 7.08398C52.8155 7.78398 52.6475 8.41398 52.3115 8.97398C51.9849 9.53398 51.5369 9.97731 50.9675 10.304C50.4075 10.6306 49.7775 10.794 49.0775 10.794C48.3962 10.794 47.7802 10.6306 47.2295 10.304C46.6789 9.96798 46.2402 9.52464 45.9135 8.97398C45.5869 8.41398 45.4235 7.79331 45.4235 7.11198C45.4235 6.41198 45.5822 5.76798 45.8995 5.17998C46.2169 4.58264 46.6509 4.10198 47.2015 3.73798C47.7615 3.37398 48.4055 3.19198 49.1335 3.19198C49.9175 3.19198 50.5849 3.35998 51.1355 3.69598C51.6862 4.02264 52.1015 4.47998 52.3815 5.06798C52.6709 5.64664 52.8155 6.31864 52.8155 7.08398ZM62.7572 8.73598C62.7572 9.15598 62.6638 9.50131 62.4772 9.77198C62.2905 10.0333 62.0478 10.234 61.7492 10.374C61.4505 10.514 61.1238 10.612 60.7692 10.668C60.4145 10.724 60.0692 10.752 59.7332 10.752C59.4252 10.752 59.1172 10.7193 58.8092 10.654C58.5105 10.5886 58.2072 10.542 57.8992 10.514C57.8338 10.262 57.7685 10.01 57.7032 9.75798C57.6472 9.50598 57.5818 9.25864 57.5072 9.01598C57.4978 8.98798 57.4745 8.92264 57.4372 8.81998C57.4092 8.71731 57.3952 8.66131 57.3952 8.65198C57.3952 8.57731 57.4185 8.52598 57.4652 8.49798C57.5118 8.46064 57.5678 8.44198 57.6332 8.44198C57.6985 8.44198 57.7452 8.46531 57.7732 8.51198C57.8292 8.57731 57.8758 8.66598 57.9132 8.77798C57.9598 8.88998 58.0018 8.98798 58.0392 9.07198C58.1138 9.22131 58.1792 9.33798 58.2352 9.42198C58.2912 9.49664 58.3798 9.59464 58.5012 9.71598C58.8652 10.0986 59.3178 10.29 59.8592 10.29C60.1578 10.29 60.4285 10.2573 60.6712 10.192C60.9232 10.1266 61.1238 10.0053 61.2732 9.82798C61.4225 9.64131 61.4972 9.37531 61.4972 9.02998C61.4972 8.73131 61.4038 8.48398 61.2172 8.28798C61.0305 8.08264 60.7878 7.90064 60.4892 7.74198C60.1998 7.58331 59.8918 7.42931 59.5652 7.27998C59.2385 7.13064 58.9258 6.96731 58.6272 6.78998C58.3378 6.60331 58.0998 6.37931 57.9132 6.11798C57.7265 5.85664 57.6332 5.53931 57.6332 5.16598C57.6332 4.70864 57.7498 4.33531 57.9832 4.04598C58.2258 3.75664 58.5338 3.54198 58.9072 3.40198C59.2805 3.25264 59.6678 3.17798 60.0692 3.17798C60.3305 3.17798 60.5638 3.21064 60.7692 3.27598C60.9838 3.34131 61.2078 3.41598 61.4412 3.49998C61.5158 3.52798 61.5905 3.54664 61.6652 3.55598C61.7398 3.56531 61.8145 3.56998 61.8892 3.56998C61.9358 3.56998 61.9778 3.56998 62.0152 3.56998C62.0525 3.56998 62.0898 3.56531 62.1272 3.55598C62.1552 3.72398 62.1785 3.89664 62.1972 4.07398C62.2252 4.24198 62.2485 4.41464 62.2672 4.59198C62.2765 4.65731 62.2858 4.73664 62.2952 4.82998C62.3138 4.91398 62.3232 4.99331 62.3232 5.06798C62.3232 5.13331 62.3092 5.20331 62.2812 5.27798C62.2532 5.34331 62.1972 5.37598 62.1132 5.37598C62.0478 5.37598 61.9918 5.37131 61.9452 5.36198C61.9078 5.34331 61.8752 5.30131 61.8472 5.23598C61.8005 5.14264 61.7585 5.04464 61.7212 4.94198C61.6932 4.82998 61.6605 4.72731 61.6232 4.63398C61.5018 4.30731 61.2918 4.04598 60.9932 3.84998C60.6945 3.64464 60.3725 3.54198 60.0272 3.54198C59.5885 3.54198 59.2572 3.67264 59.0332 3.93398C58.8092 4.18598 58.6972 4.52664 58.6972 4.95598C58.6972 5.10531 58.7345 5.24998 58.8092 5.38998C58.8932 5.52998 58.9865 5.65131 59.0892 5.75398C59.2852 5.94064 59.5138 6.08531 59.7752 6.18798C60.0458 6.29064 60.3025 6.39331 60.5452 6.49598C60.8625 6.63598 61.1892 6.80398 61.5252 6.99998C61.8705 7.19598 62.1598 7.43398 62.3932 7.71398C62.6358 7.99398 62.7572 8.33464 62.7572 8.73598ZM68.9212 5.82398C68.9119 5.44131 68.8792 5.07731 68.8232 4.73198C68.7672 4.37731 68.6319 4.08798 68.4172 3.86398C68.2026 3.63064 67.8526 3.51398 67.3672 3.51398C66.9286 3.51398 66.5692 3.63531 66.2892 3.87798C66.0186 4.11131 65.8086 4.40998 65.6592 4.77398C65.5099 5.12864 65.3979 5.49264 65.3232 5.86598C65.5566 5.87531 65.7852 5.88464 66.0092 5.89398C66.2332 5.89398 66.4572 5.89398 66.6812 5.89398C67.0546 5.89398 67.4279 5.88931 67.8012 5.87998C68.1746 5.86131 68.5479 5.84264 68.9212 5.82398ZM70.5312 9.02998C70.5312 9.07664 70.5219 9.10464 70.5032 9.11398C70.4752 9.20731 70.4052 9.31931 70.2932 9.44998C70.1906 9.58064 70.0739 9.70664 69.9432 9.82798C69.8126 9.93998 69.7052 10.024 69.6212 10.08C69.3132 10.2946 68.9632 10.4673 68.5712 10.598C68.1886 10.7286 67.8059 10.794 67.4232 10.794C67.1059 10.794 66.7512 10.7426 66.3592 10.64C65.9766 10.5373 65.6499 10.3973 65.3792 10.22C64.8566 9.87464 64.4739 9.42198 64.2312 8.86198C63.9886 8.30198 63.8672 7.71864 63.8672 7.11198C63.8672 6.42131 64.0026 5.78198 64.2732 5.19398C64.5439 4.60598 64.9779 4.12998 65.5752 3.76598C65.8459 3.60731 66.1492 3.47664 66.4852 3.37398C66.8212 3.26198 67.1432 3.20598 67.4512 3.20598C68.0019 3.20598 68.4872 3.31798 68.9072 3.54198C69.3272 3.76598 69.6539 4.08331 69.8872 4.49398C70.1299 4.89531 70.2512 5.37598 70.2512 5.93598C70.2512 6.09464 70.2139 6.19731 70.1392 6.24398C70.0739 6.29064 69.9712 6.31398 69.8312 6.31398C69.6446 6.31398 69.4579 6.30931 69.2712 6.29998C69.0846 6.29064 68.8979 6.28131 68.7112 6.27198C68.4499 6.25331 68.1886 6.24398 67.9272 6.24398C67.6752 6.24398 67.4186 6.24398 67.1572 6.24398C66.8399 6.24398 66.5226 6.24398 66.2052 6.24398C65.8879 6.24398 65.5706 6.25331 65.2532 6.27198C65.2439 6.42131 65.2346 6.56598 65.2252 6.70598C65.2159 6.84598 65.2112 6.99064 65.2112 7.13998C65.2112 7.48531 65.2532 7.84464 65.3372 8.21798C65.4212 8.58198 65.5566 8.92264 65.7432 9.23998C65.9299 9.54798 66.1679 9.79998 66.4572 9.99598C66.7466 10.1826 67.0966 10.276 67.5072 10.276C67.9272 10.276 68.3286 10.2106 68.7112 10.08C69.0939 9.94931 69.4439 9.73931 69.7612 9.44998C69.8452 9.36598 69.9199 9.27731 69.9852 9.18398C70.0599 9.08131 70.1392 8.99264 70.2232 8.91798C70.2699 8.87131 70.3212 8.84798 70.3772 8.84798C70.4239 8.84798 70.4612 8.86664 70.4892 8.90398C70.5172 8.94131 70.5312 8.98331 70.5312 9.02998ZM79.4901 10.36C79.4901 10.472 79.4061 10.556 79.2381 10.612C79.0795 10.668 78.9021 10.7053 78.7061 10.724C78.5101 10.7426 78.3701 10.752 78.2861 10.752C77.9688 10.752 77.7168 10.626 77.5301 10.374C77.3435 10.122 77.2035 9.86064 77.1101 9.58998C76.7928 9.99131 76.3961 10.29 75.9201 10.486C75.4441 10.682 74.9495 10.78 74.4361 10.78C73.5961 10.78 73.0128 10.5653 72.6861 10.136C72.3688 9.69731 72.2101 9.08131 72.2101 8.28798C72.2101 7.58798 72.2101 6.88798 72.2101 6.18798C72.2195 5.47864 72.2288 4.77398 72.2381 4.07398C72.2381 3.79398 72.1028 3.65398 71.8321 3.65398C71.7575 3.65398 71.6828 3.65864 71.6081 3.66798C71.5335 3.67731 71.4588 3.68198 71.3841 3.68198C71.3561 3.68198 71.3328 3.66798 71.3141 3.63998C71.3048 3.60264 71.3001 3.57464 71.3001 3.55598C71.3001 3.45331 71.3468 3.39731 71.4401 3.38798C71.7668 3.35064 72.0935 3.32731 72.4201 3.31798C72.7561 3.29931 73.0875 3.27131 73.4141 3.23398C73.4888 3.30864 73.5261 3.40198 73.5261 3.51398C73.5261 3.74731 73.5215 3.98531 73.5121 4.22798C73.5028 4.47064 73.4981 4.71331 73.4981 4.95598C73.4888 5.52531 73.4795 6.09931 73.4701 6.67798C73.4701 7.24731 73.4701 7.82131 73.4701 8.39998C73.4701 8.57731 73.4748 8.76864 73.4841 8.97398C73.4935 9.16998 73.5308 9.35198 73.5961 9.51998C73.6988 9.78131 73.8901 9.96798 74.1701 10.08C74.4595 10.1826 74.7348 10.234 74.9961 10.234C75.2855 10.234 75.5748 10.1826 75.8641 10.08C76.1628 9.96798 76.4148 9.80931 76.6201 9.60398C76.8348 9.38931 76.9561 9.12331 76.9841 8.80598C77.0028 8.64731 77.0121 8.48864 77.0121 8.32998C77.0215 8.16198 77.0261 7.99864 77.0261 7.83998L77.0121 4.03198C77.0121 3.91064 76.9701 3.82198 76.8861 3.76598C76.8115 3.70998 76.7228 3.68198 76.6201 3.68198C76.5268 3.68198 76.4335 3.68664 76.3401 3.69598C76.2561 3.70531 76.1675 3.70998 76.0741 3.70998C75.9901 3.70998 75.9481 3.66331 75.9481 3.56998C75.9481 3.47664 75.9901 3.42531 76.0741 3.41598C76.1861 3.39731 76.3028 3.38798 76.4241 3.38798C76.5455 3.37864 76.6668 3.36931 76.7881 3.35998L77.7541 3.26198C77.8195 3.25264 77.8848 3.24331 77.9501 3.23398C78.0248 3.22464 78.0948 3.21998 78.1601 3.21998C78.2068 3.21998 78.2395 3.24798 78.2581 3.30398C78.2768 3.35064 78.2861 3.38798 78.2861 3.41598C78.2581 5.44131 78.2441 7.46198 78.2441 9.47798C78.2441 9.71131 78.2955 9.90264 78.3981 10.052C78.5101 10.2013 78.6921 10.276 78.9441 10.276C79.0188 10.276 79.0841 10.2666 79.1401 10.248C79.2055 10.2293 79.2708 10.22 79.3361 10.22C79.4388 10.22 79.4901 10.2666 79.4901 10.36ZM91.7672 10.528C91.7672 10.6493 91.6972 10.71 91.5572 10.71C91.3518 10.71 91.1418 10.7053 90.9272 10.696C90.7125 10.6773 90.4978 10.668 90.2832 10.668C89.9658 10.668 89.6392 10.6773 89.3032 10.696C88.9765 10.7053 88.6498 10.71 88.3232 10.71C88.2858 10.71 88.2625 10.682 88.2532 10.626C88.2438 10.5606 88.2392 10.5093 88.2392 10.472C88.2392 10.3973 88.2858 10.36 88.3792 10.36C88.4725 10.36 88.5472 10.36 88.6032 10.36C88.6498 10.36 88.6965 10.3646 88.7432 10.374C88.7992 10.374 88.8505 10.374 88.8972 10.374C89.1678 10.374 89.3172 10.2386 89.3452 9.96798C89.3732 9.41731 89.3825 8.86198 89.3732 8.30198C89.3732 7.74198 89.3732 7.18664 89.3732 6.63598C89.3732 6.53331 89.3732 6.43064 89.3732 6.32798C89.3732 6.21598 89.3732 6.10864 89.3732 6.00598C89.3638 5.79131 89.3498 5.52998 89.3312 5.22198C89.3125 4.90464 89.2705 4.64798 89.2052 4.45198C89.0558 3.96664 88.7292 3.72398 88.2252 3.72398C87.7678 3.72398 87.3478 3.84064 86.9652 4.07398C86.5825 4.30731 86.2512 4.60131 85.9712 4.95598C85.9618 5.63731 85.9572 6.31398 85.9572 6.98598C85.9572 7.65798 85.9572 8.32998 85.9572 9.00198V9.96798C85.9572 10.108 86.0178 10.2106 86.1392 10.276C86.2605 10.3413 86.3818 10.374 86.5032 10.374C86.5778 10.374 86.6478 10.3693 86.7132 10.36C86.7878 10.3413 86.8578 10.332 86.9232 10.332C86.9605 10.332 86.9838 10.3553 86.9932 10.402C87.0025 10.4486 87.0072 10.486 87.0072 10.514C87.0072 10.5513 86.9932 10.5933 86.9652 10.64C86.9465 10.6866 86.9092 10.71 86.8532 10.71C86.6478 10.71 86.4425 10.7053 86.2372 10.696C86.0412 10.6773 85.8405 10.668 85.6352 10.668C85.3178 10.668 85.0005 10.6773 84.6832 10.696C84.3658 10.7053 84.0438 10.71 83.7172 10.71C83.6705 10.71 83.6425 10.682 83.6332 10.626C83.6332 10.5606 83.6332 10.5093 83.6332 10.472C83.6332 10.3973 83.6752 10.36 83.7592 10.36C83.8432 10.36 83.9085 10.36 83.9552 10.36C84.0018 10.36 84.0485 10.3646 84.0952 10.374C84.1418 10.374 84.1885 10.374 84.2352 10.374C84.5058 10.374 84.6552 10.2386 84.6832 9.96798C84.6925 9.83731 84.6972 9.70664 84.6972 9.57598C84.6972 9.44531 84.6972 9.31464 84.6972 9.18398C84.6972 8.38131 84.6972 7.57864 84.6972 6.77598C84.6972 5.96398 84.6925 5.15664 84.6832 4.35398C84.6832 4.22331 84.6552 4.09264 84.5992 3.96198C84.5432 3.83131 84.4358 3.76598 84.2772 3.76598C84.1558 3.76598 84.0392 3.78464 83.9272 3.82198C83.8152 3.85931 83.6985 3.87798 83.5772 3.87798C83.5118 3.87798 83.4792 3.83131 83.4792 3.73798C83.4792 3.71931 83.4792 3.70064 83.4792 3.68198C83.4885 3.65398 83.4978 3.63531 83.5072 3.62598C83.5165 3.61664 83.5305 3.61198 83.5492 3.61198C83.5678 3.60264 83.5818 3.59331 83.5912 3.58398C83.7592 3.53731 83.9318 3.50464 84.1092 3.48598C84.2958 3.46731 84.4732 3.43931 84.6412 3.40198C84.7998 3.37398 84.9538 3.33664 85.1032 3.28998C85.2525 3.23398 85.4018 3.20598 85.5512 3.20598C85.6165 3.20598 85.6678 3.23864 85.7052 3.30398C85.7518 3.38798 85.7892 3.50931 85.8172 3.66798C85.8452 3.81731 85.8638 3.97131 85.8732 4.12998C85.8918 4.28864 85.9012 4.41931 85.9012 4.52198C86.1065 4.31664 86.3492 4.11598 86.6292 3.91998C86.9185 3.71464 87.2172 3.54664 87.5252 3.41598C87.8425 3.27598 88.1505 3.20598 88.4492 3.20598C89.3078 3.20598 89.8865 3.39731 90.1852 3.77998C90.4932 4.15331 90.6472 4.74598 90.6472 5.55798C90.6472 6.28598 90.6425 7.01398 90.6332 7.74198C90.6332 8.46998 90.6332 9.19798 90.6332 9.92598C90.6332 10.1033 90.6845 10.2246 90.7872 10.29C90.8992 10.346 91.0298 10.374 91.1792 10.374C91.2538 10.374 91.3285 10.3693 91.4032 10.36C91.4778 10.3413 91.5478 10.332 91.6132 10.332C91.6692 10.332 91.7065 10.3553 91.7252 10.402C91.7532 10.4393 91.7672 10.4813 91.7672 10.528ZM98.5689 7.04198C98.5689 6.64064 98.5362 6.23931 98.4709 5.83798C98.4149 5.42731 98.3029 5.04931 98.1349 4.70398C97.9762 4.35864 97.7429 4.08331 97.4349 3.87798C97.1269 3.66331 96.7255 3.55598 96.2309 3.55598C95.7642 3.55598 95.3815 3.66798 95.0829 3.89198C94.7935 4.11598 94.5649 4.40531 94.3969 4.75998C94.2382 5.11464 94.1262 5.49731 94.0609 5.90798C94.0049 6.31864 93.9769 6.70598 93.9769 7.06998C93.9769 7.47131 94.0049 7.87264 94.0609 8.27398C94.1262 8.67531 94.2429 9.03931 94.4109 9.36598C94.5789 9.68331 94.8169 9.93998 95.1249 10.136C95.4422 10.332 95.8482 10.43 96.3429 10.43C96.8282 10.43 97.2155 10.3273 97.5049 10.122C97.8035 9.91664 98.0275 9.64598 98.1769 9.30998C98.3355 8.97398 98.4382 8.60998 98.4849 8.21798C98.5409 7.81664 98.5689 7.42464 98.5689 7.04198ZM100.011 7.08398C100.011 7.78398 99.8429 8.41398 99.5069 8.97398C99.1802 9.53398 98.7322 9.97731 98.1629 10.304C97.6029 10.6306 96.9729 10.794 96.2729 10.794C95.5915 10.794 94.9755 10.6306 94.4249 10.304C93.8742 9.96798 93.4355 9.52464 93.1089 8.97398C92.7822 8.41398 92.6189 7.79331 92.6189 7.11198C92.6189 6.41198 92.7775 5.76798 93.0949 5.17998C93.4122 4.58264 93.8462 4.10198 94.3969 3.73798C94.9569 3.37398 95.6009 3.19198 96.3289 3.19198C97.1129 3.19198 97.7802 3.35998 98.3309 3.69598C98.8815 4.02264 99.2969 4.47998 99.5769 5.06798C99.8662 5.64664 100.011 6.31864 100.011 7.08398ZM113.41 10.556C113.41 10.6866 113.359 10.752 113.256 10.752C112.995 10.752 112.729 10.7426 112.458 10.724C112.188 10.7053 111.917 10.696 111.646 10.696C111.376 10.696 111.1 10.7053 110.82 10.724C110.55 10.7426 110.279 10.752 110.008 10.752C109.971 10.752 109.943 10.7286 109.924 10.682C109.915 10.6353 109.91 10.598 109.91 10.57C109.91 10.486 109.952 10.4346 110.036 10.416C110.13 10.3973 110.228 10.3926 110.33 10.402C110.442 10.4113 110.526 10.416 110.582 10.416C110.713 10.416 110.82 10.3833 110.904 10.318C110.988 10.2526 111.03 10.1546 111.03 10.024C111.03 9.39864 111.035 8.77798 111.044 8.16198C111.063 7.54598 111.072 6.92998 111.072 6.31398C111.072 6.21131 111.072 6.10864 111.072 6.00598C111.072 5.90331 111.068 5.80064 111.058 5.69798C111.049 5.47398 111.035 5.24531 111.016 5.01198C111.007 4.76931 110.97 4.54531 110.904 4.33998C110.839 4.12531 110.727 3.95264 110.568 3.82198C110.41 3.69131 110.181 3.62598 109.882 3.62598C109.668 3.62598 109.43 3.69131 109.168 3.82198C108.916 3.94331 108.674 4.08798 108.44 4.25598C108.207 4.42398 108.011 4.58264 107.852 4.73198C107.871 4.86264 107.88 4.99798 107.88 5.13798C107.88 5.26864 107.88 5.39931 107.88 5.52998C107.88 5.80064 107.88 6.07598 107.88 6.35598C107.89 6.62664 107.894 6.89731 107.894 7.16798C107.894 7.64398 107.89 8.11998 107.88 8.59598C107.88 9.07198 107.88 9.54798 107.88 10.024C107.88 10.164 107.941 10.262 108.062 10.318C108.184 10.374 108.305 10.402 108.426 10.402C108.501 10.402 108.576 10.3973 108.65 10.388C108.734 10.3786 108.809 10.374 108.874 10.374C108.921 10.374 108.949 10.3973 108.958 10.444C108.977 10.4906 108.986 10.528 108.986 10.556C108.986 10.6026 108.972 10.6493 108.944 10.696C108.916 10.7333 108.874 10.752 108.818 10.752C108.557 10.752 108.291 10.7426 108.02 10.724C107.759 10.7053 107.493 10.696 107.222 10.696C106.961 10.696 106.695 10.7053 106.424 10.724C106.154 10.7426 105.883 10.752 105.612 10.752C105.575 10.752 105.547 10.7286 105.528 10.682C105.51 10.6353 105.5 10.598 105.5 10.57C105.5 10.4953 105.538 10.444 105.612 10.416C105.687 10.3973 105.776 10.3926 105.878 10.402C105.99 10.4113 106.084 10.416 106.158 10.416C106.289 10.416 106.396 10.388 106.48 10.332C106.574 10.2666 106.62 10.164 106.62 10.024V6.45398C106.62 6.25798 106.616 6.01531 106.606 5.72598C106.606 5.43664 106.588 5.15198 106.55 4.87198C106.522 4.58264 106.471 4.35398 106.396 4.18598C106.331 4.01798 106.219 3.88731 106.06 3.79398C105.911 3.70064 105.743 3.65398 105.556 3.65398C105.314 3.65398 105.066 3.71464 104.814 3.83598C104.562 3.95731 104.324 4.10664 104.1 4.28398C103.876 4.46131 103.685 4.63864 103.526 4.81598V10.01C103.526 10.15 103.578 10.2526 103.68 10.318C103.783 10.374 103.895 10.402 104.016 10.402C104.091 10.402 104.166 10.3973 104.24 10.388C104.315 10.3693 104.385 10.36 104.45 10.36C104.488 10.36 104.511 10.388 104.52 10.444C104.53 10.4906 104.534 10.5233 104.534 10.542C104.534 10.5886 104.52 10.6353 104.492 10.682C104.474 10.7193 104.436 10.738 104.38 10.738C104.203 10.738 104.026 10.7333 103.848 10.724C103.671 10.7053 103.494 10.696 103.316 10.696C102.962 10.696 102.607 10.7053 102.252 10.724C101.898 10.7333 101.543 10.738 101.188 10.738C101.151 10.738 101.123 10.7146 101.104 10.668C101.086 10.6213 101.076 10.584 101.076 10.556C101.076 10.444 101.123 10.388 101.216 10.388C101.319 10.388 101.417 10.3926 101.51 10.402C101.604 10.402 101.697 10.402 101.79 10.402C101.921 10.402 102.033 10.374 102.126 10.318C102.22 10.2526 102.266 10.15 102.266 10.01C102.266 9.06731 102.262 8.12464 102.252 7.18198C102.252 6.22998 102.252 5.28264 102.252 4.33998C102.252 4.23731 102.243 4.13464 102.224 4.03198C102.206 3.92931 102.145 3.85931 102.042 3.82198C101.977 3.79398 101.907 3.77998 101.832 3.77998C101.711 3.77998 101.59 3.79864 101.468 3.83598C101.347 3.86398 101.221 3.87798 101.09 3.87798C101.006 3.87798 100.964 3.82198 100.964 3.70998C100.964 3.63531 100.992 3.58864 101.048 3.56998C101.095 3.55131 101.146 3.54198 101.202 3.54198C101.268 3.53264 101.328 3.52331 101.384 3.51398C101.599 3.48598 101.814 3.45331 102.028 3.41598C102.252 3.36931 102.467 3.32264 102.672 3.27598C102.747 3.25731 102.826 3.23864 102.91 3.21998C102.994 3.20131 103.078 3.19198 103.162 3.19198C103.274 3.19198 103.349 3.27598 103.386 3.44398C103.433 3.60264 103.456 3.77531 103.456 3.96198C103.466 4.14864 103.47 4.28398 103.47 4.36798C103.666 4.19998 103.886 4.02731 104.128 3.84998C104.371 3.66331 104.628 3.50464 104.898 3.37398C105.169 3.24331 105.44 3.17798 105.71 3.17798C106.186 3.17798 106.588 3.25731 106.914 3.41598C107.241 3.57464 107.521 3.87331 107.754 4.31198C107.96 4.13464 108.193 3.95731 108.454 3.77998C108.716 3.59331 108.986 3.43931 109.266 3.31798C109.556 3.18731 109.84 3.12198 110.12 3.12198C110.736 3.12198 111.203 3.21064 111.52 3.38798C111.847 3.56531 112.066 3.84064 112.178 4.21398C112.3 4.57798 112.36 5.04931 112.36 5.62798C112.36 6.35598 112.356 7.08864 112.346 7.82598C112.337 8.55398 112.332 9.28664 112.332 10.024C112.332 10.164 112.393 10.262 112.514 10.318C112.645 10.374 112.771 10.402 112.892 10.402C112.967 10.402 113.037 10.3973 113.102 10.388C113.177 10.3786 113.247 10.374 113.312 10.374C113.35 10.374 113.373 10.3973 113.382 10.444C113.401 10.4906 113.41 10.528 113.41 10.556ZM119.247 5.82398C119.238 5.44131 119.205 5.07731 119.149 4.73198C119.093 4.37731 118.958 4.08798 118.743 3.86398C118.529 3.63064 118.179 3.51398 117.693 3.51398C117.255 3.51398 116.895 3.63531 116.615 3.87798C116.345 4.11131 116.135 4.40998 115.985 4.77398C115.836 5.12864 115.724 5.49264 115.649 5.86598C115.883 5.87531 116.111 5.88464 116.335 5.89398C116.559 5.89398 116.783 5.89398 117.007 5.89398C117.381 5.89398 117.754 5.88931 118.127 5.87998C118.501 5.86131 118.874 5.84264 119.247 5.82398ZM120.857 9.02998C120.857 9.07664 120.848 9.10464 120.829 9.11398C120.801 9.20731 120.731 9.31931 120.619 9.44998C120.517 9.58064 120.4 9.70664 120.269 9.82798C120.139 9.93998 120.031 10.024 119.947 10.08C119.639 10.2946 119.289 10.4673 118.897 10.598C118.515 10.7286 118.132 10.794 117.749 10.794C117.432 10.794 117.077 10.7426 116.685 10.64C116.303 10.5373 115.976 10.3973 115.705 10.22C115.183 9.87464 114.8 9.42198 114.557 8.86198C114.315 8.30198 114.193 7.71864 114.193 7.11198C114.193 6.42131 114.329 5.78198 114.599 5.19398C114.87 4.60598 115.304 4.12998 115.901 3.76598C116.172 3.60731 116.475 3.47664 116.811 3.37398C117.147 3.26198 117.469 3.20598 117.777 3.20598C118.328 3.20598 118.813 3.31798 119.233 3.54198C119.653 3.76598 119.98 4.08331 120.213 4.49398C120.456 4.89531 120.577 5.37598 120.577 5.93598C120.577 6.09464 120.54 6.19731 120.465 6.24398C120.4 6.29064 120.297 6.31398 120.157 6.31398C119.971 6.31398 119.784 6.30931 119.597 6.29998C119.411 6.29064 119.224 6.28131 119.037 6.27198C118.776 6.25331 118.515 6.24398 118.253 6.24398C118.001 6.24398 117.745 6.24398 117.483 6.24398C117.166 6.24398 116.849 6.24398 116.531 6.24398C116.214 6.24398 115.897 6.25331 115.579 6.27198C115.57 6.42131 115.561 6.56598 115.551 6.70598C115.542 6.84598 115.537 6.99064 115.537 7.13998C115.537 7.48531 115.579 7.84464 115.663 8.21798C115.747 8.58198 115.883 8.92264 116.069 9.23998C116.256 9.54798 116.494 9.79998 116.783 9.99598C117.073 10.1826 117.423 10.276 117.833 10.276C118.253 10.276 118.655 10.2106 119.037 10.08C119.42 9.94931 119.77 9.73931 120.087 9.44998C120.171 9.36598 120.246 9.27731 120.311 9.18398C120.386 9.08131 120.465 8.99264 120.549 8.91798C120.596 8.87131 120.647 8.84798 120.703 8.84798C120.75 8.84798 120.787 8.86664 120.815 8.90398C120.843 8.94131 120.857 8.98331 120.857 9.02998ZM129.732 9.09998C129.695 8.67998 129.672 8.25998 129.662 7.83998C129.662 7.41064 129.658 6.98131 129.648 6.55198H129.452C129.163 6.55198 128.841 6.59864 128.486 6.69198C128.141 6.77598 127.81 6.90664 127.492 7.08398C127.175 7.26131 126.914 7.48531 126.708 7.75598C126.512 8.01731 126.414 8.32064 126.414 8.66598C126.414 9.11398 126.54 9.45464 126.792 9.68798C127.044 9.91198 127.385 10.024 127.814 10.024C128.02 10.024 128.244 9.97731 128.486 9.88398C128.729 9.78131 128.962 9.65998 129.186 9.51998C129.41 9.37998 129.592 9.23998 129.732 9.09998ZM132.182 9.99598C132.182 10.0333 132.178 10.0613 132.168 10.08C132.075 10.2853 131.916 10.444 131.692 10.556C131.478 10.6586 131.263 10.71 131.048 10.71C130.656 10.71 130.372 10.598 130.194 10.374C130.026 10.1406 129.891 9.85598 129.788 9.51998C129.434 9.84664 129.042 10.122 128.612 10.346C128.183 10.5606 127.721 10.668 127.226 10.668C126.881 10.668 126.554 10.6026 126.246 10.472C125.948 10.332 125.705 10.1313 125.518 9.86998C125.332 9.60864 125.238 9.29131 125.238 8.91798C125.238 8.52598 125.336 8.18998 125.532 7.90998C125.738 7.62064 125.994 7.37798 126.302 7.18198C126.62 6.97664 126.956 6.81331 127.31 6.69198C127.674 6.56131 128.015 6.46331 128.332 6.39798C128.547 6.35131 128.766 6.30931 128.99 6.27198C129.214 6.23464 129.434 6.19731 129.648 6.15998C129.648 5.89864 129.634 5.59531 129.606 5.24998C129.588 4.90464 129.518 4.61998 129.396 4.39598C129.275 4.18131 129.112 3.98998 128.906 3.82198C128.701 3.65398 128.472 3.56998 128.22 3.56998C127.791 3.56998 127.455 3.68198 127.212 3.90598C126.97 4.12998 126.797 4.44731 126.694 4.85798C126.685 4.90464 126.676 4.95598 126.666 5.01198C126.666 5.05864 126.662 5.10531 126.652 5.15198C126.643 5.20798 126.606 5.25931 126.54 5.30598C126.484 5.34331 126.424 5.36198 126.358 5.36198C126.181 5.36198 126.018 5.31998 125.868 5.23598C125.728 5.15198 125.658 5.01198 125.658 4.81598C125.658 4.70398 125.677 4.60598 125.714 4.52198C125.836 4.23264 126.032 3.99464 126.302 3.80798C126.573 3.61198 126.872 3.46264 127.198 3.35998C127.534 3.25731 127.847 3.20598 128.136 3.20598C128.64 3.20598 129.098 3.29931 129.508 3.48598C129.919 3.67264 130.246 3.94798 130.488 4.31198C130.74 4.66664 130.866 5.11464 130.866 5.65598C130.866 6.26264 130.862 6.87398 130.852 7.48998C130.852 8.10598 130.871 8.72198 130.908 9.33798C130.918 9.54331 130.96 9.72531 131.034 9.88398C131.109 10.0333 131.263 10.108 131.496 10.108C131.618 10.108 131.744 10.08 131.874 10.024C132.014 9.95864 132.103 9.92598 132.14 9.92598C132.168 9.92598 132.182 9.94931 132.182 9.99598ZM138.272 6.83198C138.272 6.62664 138.272 6.42598 138.272 6.22998C138.272 6.03398 138.267 5.83798 138.258 5.64198C138.23 5.07264 138.052 4.59198 137.726 4.19998C137.408 3.79864 136.946 3.59798 136.34 3.59798C135.901 3.59798 135.542 3.71464 135.262 3.94798C134.991 4.17198 134.781 4.46598 134.632 4.82998C134.482 5.19398 134.38 5.57664 134.324 5.97798C134.268 6.36998 134.24 6.73398 134.24 7.06998C134.24 7.38731 134.268 7.72798 134.324 8.09198C134.389 8.44664 134.496 8.78264 134.646 9.09998C134.795 9.40798 134.996 9.66464 135.248 9.86998C135.509 10.066 135.84 10.164 136.242 10.164C136.559 10.164 136.867 10.0986 137.166 9.96798C137.474 9.83731 137.726 9.65531 137.922 9.42198C138.127 9.17931 138.239 8.88531 138.258 8.53998C138.276 8.25064 138.281 7.96598 138.272 7.68598C138.272 7.39664 138.272 7.11198 138.272 6.83198ZM140.68 13.188C140.68 13.2253 140.666 13.2673 140.638 13.314C140.619 13.3606 140.586 13.384 140.54 13.384C140.269 13.384 139.994 13.3746 139.714 13.356C139.443 13.3373 139.168 13.328 138.888 13.328C138.598 13.328 138.309 13.3373 138.02 13.356C137.73 13.3746 137.436 13.384 137.138 13.384C137.091 13.384 137.063 13.3513 137.054 13.286C137.044 13.23 137.04 13.1833 137.04 13.146C137.04 13.0713 137.096 13.034 137.208 13.034C137.32 13.034 137.399 13.034 137.446 13.034C137.502 13.034 137.558 13.034 137.614 13.034C137.67 13.0433 137.726 13.048 137.782 13.048C137.912 13.048 138.029 13.0153 138.132 12.95C138.234 12.894 138.286 12.7913 138.286 12.642V9.74398C138.052 9.97731 137.74 10.1826 137.348 10.36C136.965 10.528 136.601 10.612 136.256 10.612C135.966 10.612 135.668 10.5886 135.36 10.542C135.052 10.486 134.767 10.3786 134.506 10.22C133.983 9.89331 133.582 9.45464 133.302 8.90398C133.031 8.35331 132.896 7.77464 132.896 7.16798C132.896 6.41198 133.036 5.74464 133.316 5.16598C133.596 4.57798 134.006 4.12064 134.548 3.79398C135.089 3.45798 135.747 3.28998 136.522 3.28998C136.904 3.28998 137.278 3.37398 137.642 3.54198C138.015 3.70998 138.314 3.94331 138.538 4.24198C138.584 4.15798 138.659 4.04131 138.762 3.89198C138.874 3.74264 138.99 3.60731 139.112 3.48598C139.233 3.36464 139.336 3.30398 139.42 3.30398C139.494 3.30398 139.541 3.31798 139.56 3.34598C139.578 3.37398 139.588 3.41598 139.588 3.47198C139.588 3.66798 139.583 3.86398 139.574 4.05998C139.564 4.24664 139.56 4.43331 139.56 4.61998V12.642C139.56 12.7913 139.611 12.894 139.714 12.95C139.826 13.0153 139.942 13.048 140.064 13.048C140.157 13.048 140.246 13.0386 140.33 13.02C140.414 13.0106 140.502 13.006 140.596 13.006C140.642 13.006 140.666 13.0293 140.666 13.076C140.675 13.1226 140.68 13.16 140.68 13.188ZM149.449 10.36C149.449 10.472 149.365 10.556 149.197 10.612C149.038 10.668 148.861 10.7053 148.665 10.724C148.469 10.7426 148.329 10.752 148.245 10.752C147.928 10.752 147.676 10.626 147.489 10.374C147.302 10.122 147.162 9.86064 147.069 9.58998C146.752 9.99131 146.355 10.29 145.879 10.486C145.403 10.682 144.908 10.78 144.395 10.78C143.555 10.78 142.972 10.5653 142.645 10.136C142.328 9.69731 142.169 9.08131 142.169 8.28798C142.169 7.58798 142.169 6.88798 142.169 6.18798C142.178 5.47864 142.188 4.77398 142.197 4.07398C142.197 3.79398 142.062 3.65398 141.791 3.65398C141.716 3.65398 141.642 3.65864 141.567 3.66798C141.492 3.67731 141.418 3.68198 141.343 3.68198C141.315 3.68198 141.292 3.66798 141.273 3.63998C141.264 3.60264 141.259 3.57464 141.259 3.55598C141.259 3.45331 141.306 3.39731 141.399 3.38798C141.726 3.35064 142.052 3.32731 142.379 3.31798C142.715 3.29931 143.046 3.27131 143.373 3.23398C143.448 3.30864 143.485 3.40198 143.485 3.51398C143.485 3.74731 143.48 3.98531 143.471 4.22798C143.462 4.47064 143.457 4.71331 143.457 4.95598C143.448 5.52531 143.438 6.09931 143.429 6.67798C143.429 7.24731 143.429 7.82131 143.429 8.39998C143.429 8.57731 143.434 8.76864 143.443 8.97398C143.452 9.16998 143.49 9.35198 143.555 9.51998C143.658 9.78131 143.849 9.96798 144.129 10.08C144.418 10.1826 144.694 10.234 144.955 10.234C145.244 10.234 145.534 10.1826 145.823 10.08C146.122 9.96798 146.374 9.80931 146.579 9.60398C146.794 9.38931 146.915 9.12331 146.943 8.80598C146.962 8.64731 146.971 8.48864 146.971 8.32998C146.98 8.16198 146.985 7.99864 146.985 7.83998L146.971 4.03198C146.971 3.91064 146.929 3.82198 146.845 3.76598C146.77 3.70998 146.682 3.68198 146.579 3.68198C146.486 3.68198 146.392 3.68664 146.299 3.69598C146.215 3.70531 146.126 3.70998 146.033 3.70998C145.949 3.70998 145.907 3.66331 145.907 3.56998C145.907 3.47664 145.949 3.42531 146.033 3.41598C146.145 3.39731 146.262 3.38798 146.383 3.38798C146.504 3.37864 146.626 3.36931 146.747 3.35998L147.713 3.26198C147.778 3.25264 147.844 3.24331 147.909 3.23398C147.984 3.22464 148.054 3.21998 148.119 3.21998C148.166 3.21998 148.198 3.24798 148.217 3.30398C148.236 3.35064 148.245 3.38798 148.245 3.41598C148.217 5.44131 148.203 7.46198 148.203 9.47798C148.203 9.71131 148.254 9.90264 148.357 10.052C148.469 10.2013 148.651 10.276 148.903 10.276C148.978 10.276 149.043 10.2666 149.099 10.248C149.164 10.2293 149.23 10.22 149.295 10.22C149.398 10.22 149.449 10.2666 149.449 10.36ZM154.026 10.528C154.026 10.5746 154.012 10.6213 153.984 10.668C153.956 10.7053 153.919 10.724 153.872 10.724C153.611 10.724 153.349 10.7193 153.088 10.71C152.836 10.6913 152.575 10.682 152.304 10.682H151.926C151.646 10.682 151.366 10.6913 151.086 10.71C150.815 10.7193 150.545 10.724 150.274 10.724C150.237 10.724 150.209 10.7006 150.19 10.654C150.181 10.6073 150.176 10.57 150.176 10.542C150.176 10.4953 150.181 10.4626 150.19 10.444C150.199 10.416 150.227 10.3973 150.274 10.388C150.321 10.3693 150.372 10.3646 150.428 10.374C150.493 10.374 150.554 10.374 150.61 10.374C150.675 10.374 150.736 10.3786 150.792 10.388C150.848 10.388 150.909 10.388 150.974 10.388C151.105 10.388 151.221 10.36 151.324 10.304C151.436 10.2386 151.492 10.1313 151.492 9.98198V4.38198C151.492 4.22331 151.464 4.10198 151.408 4.01798C151.352 3.92464 151.235 3.87798 151.058 3.87798C150.927 3.87798 150.792 3.88731 150.652 3.90598C150.521 3.91531 150.391 3.92931 150.26 3.94798C150.185 3.94798 150.148 3.90598 150.148 3.82198C150.148 3.72864 150.185 3.66798 150.26 3.63998C150.372 3.60264 150.489 3.57931 150.61 3.56998C150.741 3.55131 150.862 3.53264 150.974 3.51398C151.235 3.46731 151.497 3.41598 151.758 3.35998C152.019 3.30398 152.276 3.24331 152.528 3.17798C152.556 3.16864 152.593 3.16398 152.64 3.16398C152.743 3.16398 152.794 3.21998 152.794 3.33198C152.794 4.43331 152.789 5.53931 152.78 6.64998C152.78 7.76064 152.78 8.87131 152.78 9.98198C152.78 10.1313 152.845 10.2386 152.976 10.304C153.116 10.36 153.247 10.388 153.368 10.388C153.461 10.388 153.555 10.3833 153.648 10.374C153.751 10.3646 153.849 10.36 153.942 10.36C153.979 10.36 154.003 10.3833 154.012 10.43C154.021 10.4766 154.026 10.5093 154.026 10.528ZM152.892 0.839976C152.892 1.07331 152.808 1.27398 152.64 1.44198C152.472 1.60064 152.271 1.67998 152.038 1.67998C151.805 1.67998 151.604 1.60064 151.436 1.44198C151.268 1.27398 151.184 1.07331 151.184 0.839976C151.184 0.606642 151.268 0.410642 151.436 0.251976C151.604 0.0839758 151.805 -2.41995e-05 152.038 -2.41995e-05C152.271 -2.41995e-05 152.472 0.0839758 152.64 0.251976C152.808 0.410642 152.892 0.606642 152.892 0.839976ZM157.831 9.71598C157.831 9.97731 157.733 10.1966 157.537 10.374C157.341 10.5513 157.112 10.64 156.851 10.64C156.589 10.64 156.361 10.5513 156.165 10.374C155.969 10.1966 155.871 9.97731 155.871 9.71598C155.871 9.44531 155.969 9.22131 156.165 9.04398C156.361 8.86664 156.589 8.77798 156.851 8.77798C157.112 8.77798 157.341 8.86664 157.537 9.04398C157.733 9.22131 157.831 9.44531 157.831 9.71598ZM162.725 9.71598C162.725 9.97731 162.627 10.1966 162.431 10.374C162.235 10.5513 162.006 10.64 161.745 10.64C161.484 10.64 161.255 10.5513 161.059 10.374C160.863 10.1966 160.765 9.97731 160.765 9.71598C160.765 9.44531 160.863 9.22131 161.059 9.04398C161.255 8.86664 161.484 8.77798 161.745 8.77798C162.006 8.77798 162.235 8.86664 162.431 9.04398C162.627 9.22131 162.725 9.44531 162.725 9.71598ZM167.62 9.71598C167.62 9.97731 167.522 10.1966 167.326 10.374C167.13 10.5513 166.901 10.64 166.64 10.64C166.378 10.64 166.15 10.5513 165.954 10.374C165.758 10.1966 165.66 9.97731 165.66 9.71598C165.66 9.44531 165.758 9.22131 165.954 9.04398C166.15 8.86664 166.378 8.77798 166.64 8.77798C166.901 8.77798 167.13 8.86664 167.326 9.04398C167.522 9.22131 167.62 9.44531 167.62 9.71598Z" fill="#767676"/>
</svg>
