<svg width="44" height="27" viewBox="0 0 44 27" fill="none" xmlns="http://www.w3.org/2000/svg">
<path d="M7.73999 7.44008C7.73999 7.48808 7.73599 7.53608 7.72799 7.58408C7.71999 7.63208 7.70399 7.67608 7.67999 7.71608C7.57599 7.96408 7.41199 8.20808 7.18799 8.44808C6.97199 8.68008 6.74799 8.87208 6.51599 9.02408C6.15599 9.26408 5.77199 9.43208 5.36399 9.52808C4.96399 9.62408 4.55199 9.67208 4.12799 9.67208C3.27199 9.67208 2.53199 9.49208 1.90799 9.13208C1.29199 8.76408 0.819992 8.25608 0.491992 7.60808C0.163992 6.96008 -7.7635e-06 6.21608 -7.7635e-06 5.37608C-7.7635e-06 4.75208 0.0919922 4.16808 0.275992 3.62408C0.459992 3.08008 0.727992 2.60408 1.07999 2.19608C1.43199 1.78008 1.86399 1.45608 2.37599 1.22408C2.88799 0.984082 3.47199 0.864082 4.12799 0.864082C4.44799 0.864082 4.75199 0.916082 5.03999 1.02008C5.33599 1.11608 5.63199 1.21608 5.92799 1.32008C6.09599 1.37608 6.26799 1.42008 6.44399 1.45208C6.62799 1.48408 6.80799 1.50808 6.98399 1.52408C6.99199 1.70008 7.00399 1.87608 7.01999 2.05208C7.03599 2.22008 7.05599 2.39208 7.07999 2.56808C7.10399 2.72808 7.13199 2.89208 7.16399 3.06008C7.20399 3.22008 7.22399 3.38408 7.22399 3.55208C7.22399 3.68008 7.19599 3.78408 7.13999 3.86408C7.09199 3.94408 6.99599 3.98408 6.85199 3.98408C6.77199 3.98408 6.71199 3.94008 6.67199 3.85208C6.63999 3.77208 6.61199 3.68808 6.58799 3.60008C6.57199 3.50408 6.55199 3.41608 6.52799 3.33608C6.46399 3.07208 6.35599 2.79608 6.20399 2.50808C6.05199 2.21208 5.86799 1.97608 5.65199 1.80008C5.55599 1.71208 5.41199 1.62408 5.21999 1.53608C5.03599 1.44808 4.84399 1.37608 4.64399 1.32008C4.45199 1.26408 4.28799 1.23608 4.15199 1.23608C3.91199 1.23608 3.66799 1.28008 3.41999 1.36808C3.17199 1.45608 2.95199 1.57208 2.75999 1.71608C2.39999 1.99608 2.11199 2.33608 1.89599 2.73608C1.67999 3.12808 1.52399 3.54808 1.42799 3.99608C1.33999 4.44408 1.29599 4.88808 1.29599 5.32808C1.29599 5.80808 1.35199 6.28008 1.46399 6.74408C1.57599 7.20008 1.75199 7.61208 1.99199 7.98008C2.23199 8.34808 2.54399 8.64408 2.92799 8.86808C3.31199 9.08408 3.77999 9.19208 4.33199 9.19208C4.56399 9.19208 4.82399 9.16008 5.11199 9.09608C5.39999 9.02408 5.64799 8.94408 5.85599 8.85608C6.10399 8.75208 6.33199 8.62008 6.53999 8.46008C6.74799 8.29208 6.93599 8.10408 7.10399 7.89608C7.11999 7.88008 7.15199 7.83208 7.19999 7.75208C7.25599 7.67208 7.31199 7.59208 7.36799 7.51208C7.42399 7.43208 7.45999 7.38408 7.47599 7.36808C7.51599 7.32008 7.55999 7.29608 7.60799 7.29608C7.69599 7.29608 7.73999 7.34408 7.73999 7.44008ZM12.3313 8.28008C12.2993 7.92008 12.2793 7.56008 12.2713 7.20008C12.2713 6.83208 12.2673 6.46408 12.2593 6.09608H12.0913C11.8433 6.09608 11.5673 6.13608 11.2633 6.21608C10.9673 6.28808 10.6833 6.40008 10.4113 6.55208C10.1393 6.70408 9.9153 6.89608 9.7393 7.12808C9.5713 7.35208 9.4873 7.61208 9.4873 7.90808C9.4873 8.29208 9.5953 8.58408 9.8113 8.78408C10.0273 8.97608 10.3193 9.07208 10.6873 9.07208C10.8633 9.07208 11.0553 9.03208 11.2633 8.95208C11.4713 8.86408 11.6713 8.76008 11.8633 8.64008C12.0553 8.52008 12.2113 8.40008 12.3313 8.28008ZM14.4313 9.04808C14.4313 9.08008 14.4273 9.10408 14.4193 9.12008C14.3393 9.29608 14.2033 9.43208 14.0113 9.52808C13.8273 9.61608 13.6433 9.66008 13.4593 9.66008C13.1233 9.66008 12.8793 9.56408 12.7273 9.37208C12.5833 9.17208 12.4673 8.92808 12.3793 8.64008C12.0753 8.92008 11.7393 9.15608 11.3713 9.34808C11.0033 9.53208 10.6073 9.62408 10.1833 9.62408C9.8873 9.62408 9.6073 9.56808 9.3433 9.45608C9.0873 9.33608 8.8793 9.16408 8.7193 8.94008C8.5593 8.71608 8.4793 8.44408 8.4793 8.12408C8.4793 7.78808 8.5633 7.50008 8.7313 7.26008C8.9073 7.01208 9.1273 6.80408 9.3913 6.63608C9.6633 6.46008 9.9513 6.32008 10.2553 6.21608C10.5673 6.10408 10.8593 6.02008 11.1313 5.96408C11.3153 5.92408 11.5033 5.88808 11.6953 5.85608C11.8873 5.82408 12.0753 5.79208 12.2593 5.76008C12.2593 5.53608 12.2473 5.27608 12.2233 4.98008C12.2073 4.68408 12.1473 4.44008 12.0433 4.24808C11.9393 4.06408 11.7993 3.90008 11.6233 3.75608C11.4473 3.61208 11.2513 3.54008 11.0353 3.54008C10.6673 3.54008 10.3793 3.63608 10.1713 3.82808C9.9633 4.02008 9.8153 4.29208 9.7273 4.64408C9.7193 4.68408 9.7113 4.72808 9.7033 4.77608C9.7033 4.81608 9.6993 4.85608 9.6913 4.89608C9.6833 4.94408 9.6513 4.98808 9.5953 5.02808C9.5473 5.06008 9.4953 5.07608 9.4393 5.07608C9.2873 5.07608 9.1473 5.04008 9.0193 4.96808C8.8993 4.89608 8.8393 4.77608 8.8393 4.60808C8.8393 4.51208 8.8553 4.42808 8.8873 4.35608C8.9913 4.10808 9.1593 3.90408 9.3913 3.74408C9.6233 3.57608 9.8793 3.44808 10.1593 3.36008C10.4473 3.27208 10.7153 3.22808 10.9633 3.22808C11.3953 3.22808 11.7873 3.30808 12.1393 3.46808C12.4913 3.62808 12.7713 3.86408 12.9793 4.17608C13.1953 4.48008 13.3033 4.86408 13.3033 5.32808C13.3033 5.84808 13.2993 6.37208 13.2913 6.90008C13.2913 7.42808 13.3073 7.95608 13.3393 8.48408C13.3473 8.66008 13.3833 8.81608 13.4473 8.95208C13.5113 9.08008 13.6433 9.14408 13.8433 9.14408C13.9473 9.14408 14.0553 9.12008 14.1673 9.07208C14.2873 9.01608 14.3633 8.98808 14.3953 8.98808C14.4193 8.98808 14.4313 9.00808 14.4313 9.04808ZM19.7346 4.34408C19.7346 4.42408 19.7026 4.50008 19.6386 4.57208C19.5826 4.63608 19.5106 4.66808 19.4226 4.66808C19.3026 4.66808 19.2146 4.62808 19.1586 4.54808C19.1106 4.46808 19.0666 4.37608 19.0266 4.27208C18.9946 4.16808 18.9426 4.07608 18.8706 3.99608C18.7986 3.91608 18.6786 3.87608 18.5106 3.87608C18.4786 3.87608 18.4466 3.87608 18.4146 3.87608C18.3906 3.87608 18.3626 3.88008 18.3306 3.88808C18.1946 3.91208 18.0466 3.99608 17.8866 4.14008C17.7266 4.28408 17.5706 4.45608 17.4186 4.65608C17.2746 4.84808 17.1546 5.04008 17.0586 5.23208C16.9626 5.42408 16.9106 5.58408 16.9026 5.71208C16.8946 5.84008 16.8906 5.96808 16.8906 6.09608C16.8906 6.21608 16.8906 6.33608 16.8906 6.45608C16.8906 6.88808 16.8906 7.32008 16.8906 7.75208C16.8986 8.18408 16.9026 8.61208 16.9026 9.03608C16.9026 9.15608 16.9506 9.24408 17.0466 9.30008C17.1506 9.34808 17.2546 9.37208 17.3586 9.37208C17.4386 9.37208 17.5186 9.36808 17.5986 9.36008C17.6786 9.35208 17.7586 9.34808 17.8386 9.34808C17.8786 9.34808 17.9066 9.36808 17.9226 9.40808C17.9386 9.44008 17.9466 9.47208 17.9466 9.50408C17.9466 9.63208 17.8826 9.69608 17.7546 9.69608C17.5146 9.69608 17.2746 9.69208 17.0346 9.68408C16.7946 9.66808 16.5546 9.66008 16.3146 9.66008C16.0666 9.66008 15.8146 9.66808 15.5586 9.68408C15.3106 9.70008 15.0586 9.70808 14.8026 9.70808C14.7706 9.70808 14.7466 9.68408 14.7306 9.63608C14.7226 9.58808 14.7186 9.54808 14.7186 9.51608C14.7186 9.43608 14.7506 9.39208 14.8146 9.38408C14.9026 9.36808 14.9946 9.36408 15.0906 9.37208C15.1866 9.38008 15.2746 9.38408 15.3546 9.38408C15.4746 9.38408 15.5706 9.36008 15.6426 9.31208C15.7226 9.25608 15.7666 9.16408 15.7746 9.03608C15.7906 8.78008 15.7986 8.52008 15.7986 8.25608C15.8066 7.99208 15.8106 7.72808 15.8106 7.46408V6.30008C15.8026 5.95608 15.7986 5.61608 15.7986 5.28008C15.8066 4.93608 15.7946 4.59608 15.7626 4.26008C15.7546 4.10008 15.7106 3.98808 15.6306 3.92408C15.5506 3.85208 15.4306 3.81608 15.2706 3.81608C15.2066 3.81608 15.1386 3.82408 15.0666 3.84008C15.0026 3.84808 14.9346 3.85208 14.8626 3.85208C14.7986 3.85208 14.7666 3.80408 14.7666 3.70808C14.7666 3.65208 14.7946 3.61208 14.8506 3.58808C14.9306 3.56408 15.0146 3.54808 15.1026 3.54008C15.1906 3.52408 15.2746 3.51208 15.3546 3.50408C15.5706 3.46408 15.7866 3.42408 16.0026 3.38408C16.2186 3.34408 16.4346 3.29608 16.6506 3.24008C16.7226 3.26408 16.7746 3.30808 16.8066 3.37208C16.8226 3.40408 16.8346 3.49208 16.8426 3.63608C16.8506 3.78008 16.8546 3.94808 16.8546 4.14008C16.8546 4.32408 16.8546 4.50008 16.8546 4.66808C16.8546 4.82808 16.8546 4.94008 16.8546 5.00408C17.0306 4.72408 17.2306 4.44408 17.4546 4.16408C17.6786 3.88408 17.9346 3.65208 18.2226 3.46808C18.5106 3.28408 18.8346 3.19208 19.1946 3.19208C19.3866 3.19208 19.5106 3.25208 19.5666 3.37208C19.6226 3.49208 19.6586 3.63208 19.6746 3.79208C19.6906 3.88008 19.7026 3.97208 19.7106 4.06808C19.7266 4.16408 19.7346 4.25608 19.7346 4.34408ZM24.2147 9.13208C24.2147 9.20408 24.1587 9.27608 24.0467 9.34808C23.9427 9.42008 23.8147 9.48408 23.6627 9.54008C23.5107 9.59608 23.3627 9.64008 23.2187 9.67208C23.0827 9.70408 22.9827 9.72008 22.9187 9.72008C22.5027 9.72008 22.1787 9.66808 21.9467 9.56408C21.7227 9.46008 21.5627 9.28808 21.4667 9.04808C21.3787 8.80808 21.3347 8.48408 21.3347 8.07608C21.3347 7.41208 21.3347 6.74808 21.3347 6.08408C21.3427 5.41208 21.3507 4.74408 21.3587 4.08008H20.4947C20.4387 4.08008 20.3907 4.09608 20.3507 4.12808C20.3187 4.15208 20.2827 4.16408 20.2427 4.16408C20.2027 4.16408 20.1827 4.13608 20.1827 4.08008C20.1827 4.04808 20.2027 3.98408 20.2427 3.88808C20.2907 3.79208 20.3227 3.72808 20.3387 3.69608C20.3627 3.70408 20.3987 3.70808 20.4467 3.70808H21.3827L21.3947 2.18408C21.5787 2.06408 21.7467 1.93208 21.8987 1.78808C22.0507 1.63608 22.2027 1.48408 22.3547 1.33208C22.3707 1.31608 22.3867 1.30408 22.4027 1.29608C22.4187 1.28008 22.4347 1.27208 22.4507 1.27208C22.5227 1.27208 22.5587 1.30008 22.5587 1.35608L22.4867 3.69608C22.7427 3.69608 22.9947 3.69208 23.2427 3.68408C23.4987 3.67608 23.7507 3.67208 23.9987 3.67208C24.1027 3.67208 24.1547 3.73208 24.1547 3.85208C24.1547 4.00408 24.0867 4.08008 23.9507 4.08008H22.4867C22.4867 4.68808 22.4827 5.30008 22.4747 5.91608C22.4747 6.52408 22.4747 7.13608 22.4747 7.75208V8.67608C22.4747 8.87608 22.5587 9.01608 22.7267 9.09608C22.8947 9.16808 23.0587 9.20408 23.2187 9.20408C23.4427 9.20408 23.6627 9.16808 23.8787 9.09608C23.9027 9.08008 23.9387 9.06408 23.9867 9.04808C24.0347 9.03208 24.0707 9.02408 24.0947 9.02408C24.1747 9.02408 24.2147 9.06008 24.2147 9.13208ZM28.6555 8.28008C28.6235 7.92008 28.6035 7.56008 28.5955 7.20008C28.5955 6.83208 28.5915 6.46408 28.5835 6.09608H28.4155C28.1675 6.09608 27.8915 6.13608 27.5875 6.21608C27.2915 6.28808 27.0075 6.40008 26.7355 6.55208C26.4635 6.70408 26.2395 6.89608 26.0635 7.12808C25.8955 7.35208 25.8115 7.61208 25.8115 7.90808C25.8115 8.29208 25.9195 8.58408 26.1355 8.78408C26.3515 8.97608 26.6435 9.07208 27.0115 9.07208C27.1875 9.07208 27.3795 9.03208 27.5875 8.95208C27.7955 8.86408 27.9955 8.76008 28.1875 8.64008C28.3795 8.52008 28.5355 8.40008 28.6555 8.28008ZM30.7555 9.04808C30.7555 9.08008 30.7515 9.10408 30.7435 9.12008C30.6635 9.29608 30.5275 9.43208 30.3355 9.52808C30.1515 9.61608 29.9675 9.66008 29.7835 9.66008C29.4475 9.66008 29.2035 9.56408 29.0515 9.37208C28.9075 9.17208 28.7915 8.92808 28.7035 8.64008C28.3995 8.92008 28.0635 9.15608 27.6955 9.34808C27.3275 9.53208 26.9315 9.62408 26.5075 9.62408C26.2115 9.62408 25.9315 9.56808 25.6675 9.45608C25.4115 9.33608 25.2035 9.16408 25.0435 8.94008C24.8835 8.71608 24.8035 8.44408 24.8035 8.12408C24.8035 7.78808 24.8875 7.50008 25.0555 7.26008C25.2315 7.01208 25.4515 6.80408 25.7155 6.63608C25.9875 6.46008 26.2755 6.32008 26.5795 6.21608C26.8915 6.10408 27.1835 6.02008 27.4555 5.96408C27.6395 5.92408 27.8275 5.88808 28.0195 5.85608C28.2115 5.82408 28.3995 5.79208 28.5835 5.76008C28.5835 5.53608 28.5715 5.27608 28.5475 4.98008C28.5315 4.68408 28.4715 4.44008 28.3675 4.24808C28.2635 4.06408 28.1235 3.90008 27.9475 3.75608C27.7715 3.61208 27.5755 3.54008 27.3595 3.54008C26.9915 3.54008 26.7035 3.63608 26.4955 3.82808C26.2875 4.02008 26.1395 4.29208 26.0515 4.64408C26.0435 4.68408 26.0355 4.72808 26.0275 4.77608C26.0275 4.81608 26.0235 4.85608 26.0155 4.89608C26.0075 4.94408 25.9755 4.98808 25.9195 5.02808C25.8715 5.06008 25.8195 5.07608 25.7635 5.07608C25.6115 5.07608 25.4715 5.04008 25.3435 4.96808C25.2235 4.89608 25.1635 4.77608 25.1635 4.60808C25.1635 4.51208 25.1795 4.42808 25.2115 4.35608C25.3155 4.10808 25.4835 3.90408 25.7155 3.74408C25.9475 3.57608 26.2035 3.44808 26.4835 3.36008C26.7715 3.27208 27.0395 3.22808 27.2875 3.22808C27.7195 3.22808 28.1115 3.30808 28.4635 3.46808C28.8155 3.62808 29.0955 3.86408 29.3035 4.17608C29.5195 4.48008 29.6275 4.86408 29.6275 5.32808C29.6275 5.84808 29.6235 6.37208 29.6155 6.90008C29.6155 7.42808 29.6315 7.95608 29.6635 8.48408C29.6715 8.66008 29.7075 8.81608 29.7715 8.95208C29.8355 9.08008 29.9675 9.14408 30.1675 9.14408C30.2715 9.14408 30.3795 9.12008 30.4915 9.07208C30.6115 9.01608 30.6875 8.98808 30.7195 8.98808C30.7435 8.98808 30.7555 9.00808 30.7555 9.04808ZM29.4355 1.03208C29.3235 1.14408 29.2155 1.26408 29.1115 1.39208C29.0075 1.52008 28.8915 1.62808 28.7635 1.71608C28.6435 1.79608 28.4915 1.83608 28.3075 1.83608C28.1155 1.83608 27.9355 1.79208 27.7675 1.70408C27.5995 1.61608 27.4355 1.52808 27.2755 1.44008C27.1235 1.35208 26.9555 1.30808 26.7715 1.30808C26.5955 1.30808 26.4435 1.36408 26.3155 1.47608C26.1875 1.58808 26.0715 1.70408 25.9675 1.82408L25.7155 1.66808C25.8195 1.52408 25.9275 1.37608 26.0395 1.22408C26.1595 1.07208 26.2915 0.944082 26.4355 0.840081C26.5875 0.736081 26.7635 0.684081 26.9635 0.684081C27.1555 0.684081 27.3315 0.728081 27.4915 0.816082C27.6595 0.896082 27.8235 0.980082 27.9835 1.06808C28.1515 1.15608 28.3275 1.20008 28.5115 1.20008C28.6475 1.20008 28.7755 1.15608 28.8955 1.06808C29.0155 0.980082 29.1155 0.884082 29.1955 0.780082L29.4355 1.03208ZM36.4909 6.51608C36.4909 6.17208 36.4629 5.82808 36.4069 5.48408C36.3589 5.13208 36.2629 4.80808 36.1189 4.51208C35.9829 4.21608 35.7829 3.98008 35.5189 3.80408C35.2549 3.62008 34.9109 3.52808 34.4869 3.52808C34.0869 3.52808 33.7589 3.62408 33.5029 3.81608C33.2549 4.00808 33.0589 4.25608 32.9149 4.56008C32.7789 4.86408 32.6829 5.19208 32.6269 5.54408C32.5789 5.89608 32.5549 6.22808 32.5549 6.54008C32.5549 6.88408 32.5789 7.22808 32.6269 7.57208C32.6829 7.91608 32.7829 8.22808 32.9269 8.50808C33.0709 8.78008 33.2749 9.00008 33.5389 9.16808C33.8109 9.33608 34.1589 9.42008 34.5829 9.42008C34.9989 9.42008 35.3309 9.33208 35.5789 9.15608C35.8349 8.98008 36.0269 8.74808 36.1549 8.46008C36.2909 8.17208 36.3789 7.86008 36.4189 7.52408C36.4669 7.18008 36.4909 6.84408 36.4909 6.51608ZM37.7269 6.55208C37.7269 7.15208 37.5829 7.69208 37.2949 8.17208C37.0149 8.65208 36.6309 9.03208 36.1429 9.31208C35.6629 9.59208 35.1229 9.73208 34.5229 9.73208C33.9389 9.73208 33.4109 9.59208 32.9389 9.31208C32.4669 9.02408 32.0909 8.64408 31.8109 8.17208C31.5309 7.69208 31.3909 7.16008 31.3909 6.57608C31.3909 5.97608 31.5269 5.42408 31.7989 4.92008C32.0709 4.40808 32.4429 3.99608 32.9149 3.68408C33.3949 3.37208 33.9469 3.21608 34.5709 3.21608C35.2429 3.21608 35.8149 3.36008 36.2869 3.64808C36.7589 3.92808 37.1149 4.32008 37.3549 4.82408C37.6029 5.32008 37.7269 5.89608 37.7269 6.55208ZM43.6563 0.216082L39.3483 10.4881L38.9043 10.2721L43.2003 8.15392e-05L43.6563 0.216082ZM8.29663 24.4401C8.29663 24.4881 8.29263 24.5361 8.28463 24.5841C8.27663 24.6321 8.26063 24.6761 8.23663 24.7161C8.13263 24.9641 7.96863 25.2081 7.74463 25.4481C7.52863 25.6801 7.30463 25.8721 7.07263 26.0241C6.71263 26.2641 6.32863 26.4321 5.92063 26.5281C5.52063 26.6241 5.10863 26.6721 4.68463 26.6721C3.82863 26.6721 3.08863 26.4921 2.46463 26.1321C1.84863 25.7641 1.37663 25.2561 1.04863 24.6081C0.720633 23.9601 0.556633 23.2161 0.556633 22.3761C0.556633 21.7521 0.648633 21.1681 0.832633 20.6241C1.01663 20.0801 1.28463 19.6041 1.63663 19.1961C1.98863 18.7801 2.42063 18.4561 2.93263 18.2241C3.44463 17.9841 4.02863 17.8641 4.68463 17.8641C5.00463 17.8641 5.30863 17.9161 5.59663 18.0201C5.89263 18.1161 6.18863 18.2161 6.48463 18.3201C6.65263 18.3761 6.82463 18.4201 7.00063 18.4521C7.18463 18.4841 7.36463 18.5081 7.54063 18.5241C7.54863 18.7001 7.56063 18.8761 7.57663 19.0521C7.59263 19.2201 7.61263 19.3921 7.63663 19.5681C7.66063 19.7281 7.68863 19.8921 7.72063 20.0601C7.76063 20.2201 7.78063 20.3841 7.78063 20.5521C7.78063 20.6801 7.75263 20.7841 7.69663 20.8641C7.64863 20.9441 7.55263 20.9841 7.40863 20.9841C7.32863 20.9841 7.26863 20.9401 7.22863 20.8521C7.19663 20.7721 7.16863 20.6881 7.14463 20.6001C7.12863 20.5041 7.10863 20.4161 7.08463 20.3361C7.02063 20.0721 6.91263 19.7961 6.76063 19.5081C6.60863 19.2121 6.42463 18.9761 6.20863 18.8001C6.11263 18.7121 5.96863 18.6241 5.77663 18.5361C5.59263 18.4481 5.40063 18.3761 5.20063 18.3201C5.00863 18.2641 4.84463 18.2361 4.70863 18.2361C4.46863 18.2361 4.22463 18.2801 3.97663 18.3681C3.72863 18.4561 3.50863 18.5721 3.31663 18.7161C2.95663 18.9961 2.66863 19.3361 2.45263 19.7361C2.23663 20.1281 2.08063 20.5481 1.98463 20.9961C1.89663 21.4441 1.85263 21.8881 1.85263 22.3281C1.85263 22.8081 1.90863 23.2801 2.02063 23.7441C2.13263 24.2001 2.30863 24.6121 2.54863 24.9801C2.78863 25.3481 3.10063 25.6441 3.48463 25.8681C3.86863 26.0841 4.33663 26.1921 4.88863 26.1921C5.12063 26.1921 5.38063 26.1601 5.66863 26.0961C5.95663 26.0241 6.20463 25.9441 6.41263 25.8561C6.66063 25.7521 6.88863 25.6201 7.09663 25.4601C7.30463 25.2921 7.49263 25.1041 7.66063 24.8961C7.67663 24.8801 7.70863 24.8321 7.75663 24.7521C7.81263 24.6721 7.86863 24.5921 7.92463 24.5121C7.98063 24.4321 8.01663 24.3841 8.03263 24.3681C8.07263 24.3201 8.11663 24.2961 8.16463 24.2961C8.25263 24.2961 8.29663 24.3441 8.29663 24.4401ZM13.7639 21.3441C13.7639 21.4241 13.7319 21.5001 13.6679 21.5721C13.6119 21.6361 13.5399 21.6681 13.4519 21.6681C13.3319 21.6681 13.2439 21.6281 13.1879 21.5481C13.1399 21.4681 13.0959 21.3761 13.0559 21.2721C13.0239 21.1681 12.9719 21.0761 12.8999 20.9961C12.8279 20.9161 12.7079 20.8761 12.5399 20.8761C12.5079 20.8761 12.4759 20.8761 12.4439 20.8761C12.4199 20.8761 12.3919 20.8801 12.3599 20.8881C12.2239 20.9121 12.0759 20.9961 11.9159 21.1401C11.7559 21.2841 11.5999 21.4561 11.4479 21.6561C11.3039 21.8481 11.1839 22.0401 11.0879 22.2321C10.9919 22.4241 10.9399 22.5841 10.9319 22.7121C10.9239 22.8401 10.9199 22.9681 10.9199 23.0961C10.9199 23.2161 10.9199 23.3361 10.9199 23.4561C10.9199 23.8881 10.9199 24.3201 10.9199 24.7521C10.9279 25.1841 10.9319 25.6121 10.9319 26.0361C10.9319 26.1561 10.9799 26.2441 11.0759 26.3001C11.1799 26.3481 11.2839 26.3721 11.3879 26.3721C11.4679 26.3721 11.5479 26.3681 11.6279 26.3601C11.7079 26.3521 11.7879 26.3481 11.8679 26.3481C11.9079 26.3481 11.9359 26.3681 11.9519 26.4081C11.9679 26.4401 11.9759 26.4721 11.9759 26.5041C11.9759 26.6321 11.9119 26.6961 11.7839 26.6961C11.5439 26.6961 11.3039 26.6921 11.0639 26.6841C10.8239 26.6681 10.5839 26.6601 10.3439 26.6601C10.0959 26.6601 9.84395 26.6681 9.58795 26.6841C9.33995 26.7001 9.08795 26.7081 8.83195 26.7081C8.79995 26.7081 8.77595 26.6841 8.75995 26.6361C8.75195 26.5881 8.74795 26.5481 8.74795 26.5161C8.74795 26.4361 8.77995 26.3921 8.84395 26.3841C8.93195 26.3681 9.02395 26.3641 9.11995 26.3721C9.21595 26.3801 9.30395 26.3841 9.38395 26.3841C9.50395 26.3841 9.59995 26.3601 9.67195 26.3121C9.75195 26.2561 9.79595 26.1641 9.80395 26.0361C9.81995 25.7801 9.82795 25.5201 9.82795 25.2561C9.83595 24.9921 9.83995 24.7281 9.83995 24.4641V23.3001C9.83195 22.9561 9.82795 22.6161 9.82795 22.2801C9.83595 21.9361 9.82395 21.5961 9.79195 21.2601C9.78395 21.1001 9.73995 20.9881 9.65995 20.9241C9.57995 20.8521 9.45995 20.8161 9.29995 20.8161C9.23595 20.8161 9.16795 20.8241 9.09595 20.8401C9.03195 20.8481 8.96395 20.8521 8.89195 20.8521C8.82795 20.8521 8.79595 20.8041 8.79595 20.7081C8.79595 20.6521 8.82395 20.6121 8.87995 20.5881C8.95995 20.5641 9.04395 20.5481 9.13195 20.5401C9.21995 20.5241 9.30395 20.5121 9.38395 20.5041C9.59995 20.4641 9.81595 20.4241 10.0319 20.3841C10.2479 20.3441 10.4639 20.2961 10.6799 20.2401C10.7519 20.2641 10.8039 20.3081 10.8359 20.3721C10.8519 20.4041 10.8639 20.4921 10.8719 20.6361C10.8799 20.7801 10.8839 20.9481 10.8839 21.1401C10.8839 21.3241 10.8839 21.5001 10.8839 21.6681C10.8839 21.8281 10.8839 21.9401 10.8839 22.0041C11.0599 21.7241 11.2599 21.4441 11.4839 21.1641C11.7079 20.8841 11.9639 20.6521 12.2519 20.4681C12.5399 20.2841 12.8639 20.1921 13.2239 20.1921C13.4159 20.1921 13.5399 20.2521 13.5959 20.3721C13.6519 20.4921 13.6879 20.6321 13.7039 20.7921C13.7199 20.8801 13.7319 20.9721 13.7399 21.0681C13.7559 21.1641 13.7639 21.2561 13.7639 21.3441ZM18.772 22.4721C18.764 22.1441 18.736 21.8321 18.688 21.5361C18.64 21.2321 18.524 20.9841 18.34 20.7921C18.156 20.5921 17.856 20.4921 17.44 20.4921C17.064 20.4921 16.756 20.5961 16.516 20.8041C16.284 21.0041 16.104 21.2601 15.976 21.5721C15.848 21.8761 15.752 22.1881 15.688 22.5081C15.888 22.5161 16.084 22.5241 16.276 22.5321C16.468 22.5321 16.66 22.5321 16.852 22.5321C17.172 22.5321 17.492 22.5281 17.812 22.5201C18.132 22.5041 18.452 22.4881 18.772 22.4721ZM20.152 25.2201C20.152 25.2601 20.144 25.2841 20.128 25.2921C20.104 25.3721 20.044 25.4681 19.948 25.5801C19.86 25.6921 19.76 25.8001 19.648 25.9041C19.536 26.0001 19.444 26.0721 19.372 26.1201C19.108 26.3041 18.808 26.4521 18.472 26.5641C18.144 26.6761 17.816 26.7321 17.488 26.7321C17.216 26.7321 16.912 26.6881 16.576 26.6001C16.248 26.5121 15.968 26.3921 15.736 26.2401C15.288 25.9441 14.96 25.5561 14.752 25.0761C14.544 24.5961 14.44 24.0961 14.44 23.5761C14.44 22.9841 14.556 22.4361 14.788 21.9321C15.02 21.4281 15.392 21.0201 15.904 20.7081C16.136 20.5721 16.396 20.4601 16.684 20.3721C16.972 20.2761 17.248 20.2281 17.512 20.2281C17.984 20.2281 18.4 20.3241 18.76 20.5161C19.12 20.7081 19.4 20.9801 19.6 21.3321C19.808 21.6761 19.912 22.0881 19.912 22.5681C19.912 22.7041 19.88 22.7921 19.816 22.8321C19.76 22.8721 19.672 22.8921 19.552 22.8921C19.392 22.8921 19.232 22.8881 19.072 22.8801C18.912 22.8721 18.752 22.8641 18.592 22.8561C18.368 22.8401 18.144 22.8321 17.92 22.8321C17.704 22.8321 17.484 22.8321 17.26 22.8321C16.988 22.8321 16.716 22.8321 16.444 22.8321C16.172 22.8321 15.9 22.8401 15.628 22.8561C15.62 22.9841 15.612 23.1081 15.604 23.2281C15.596 23.3481 15.592 23.4721 15.592 23.6001C15.592 23.8961 15.628 24.2041 15.7 24.5241C15.772 24.8361 15.888 25.1281 16.048 25.4001C16.208 25.6641 16.412 25.8801 16.66 26.0481C16.908 26.2081 17.208 26.2881 17.56 26.2881C17.92 26.2881 18.264 26.2321 18.592 26.1201C18.92 26.0081 19.22 25.8281 19.492 25.5801C19.564 25.5081 19.628 25.4321 19.684 25.3521C19.748 25.2641 19.816 25.1881 19.888 25.1241C19.928 25.0841 19.972 25.0641 20.02 25.0641C20.06 25.0641 20.092 25.0801 20.116 25.1121C20.14 25.1441 20.152 25.1801 20.152 25.2201ZM18.748 18.3681L15.7 18.9681L15.544 18.4401L18.532 17.5761L18.748 18.3681ZM25.383 22.2801C25.383 22.0081 25.327 21.7521 25.215 21.5121C25.103 21.2721 24.943 21.0761 24.735 20.9241C24.527 20.7721 24.275 20.6961 23.979 20.6961C23.595 20.6961 23.279 20.7881 23.031 20.9721C22.791 21.1561 22.599 21.3961 22.455 21.6921C22.319 21.9801 22.223 22.2921 22.167 22.6281C22.119 22.9641 22.095 23.2841 22.095 23.5881C22.095 23.8601 22.119 24.1521 22.167 24.4641C22.215 24.7761 22.299 25.0681 22.419 25.3401C22.547 25.6121 22.723 25.8361 22.947 26.0121C23.171 26.1801 23.455 26.2641 23.799 26.2641C24.087 26.2641 24.351 26.1761 24.591 26.0001C24.831 25.8161 25.023 25.5881 25.167 25.3161C25.311 25.0441 25.383 24.7761 25.383 24.5121V22.2801ZM27.615 26.2041C27.615 26.2441 27.595 26.2841 27.555 26.3241C27.515 26.3641 27.479 26.3961 27.447 26.4201C27.343 26.5001 27.191 26.5681 26.991 26.6241C26.799 26.6801 26.635 26.7081 26.499 26.7081C26.291 26.7081 26.119 26.6481 25.983 26.5281C25.847 26.4081 25.735 26.2601 25.647 26.0841C25.567 25.9081 25.495 25.7361 25.431 25.5681C25.255 25.8481 25.015 26.1001 24.711 26.3241C24.407 26.5401 24.083 26.6481 23.739 26.6481C23.507 26.6481 23.267 26.6321 23.019 26.6001C22.779 26.5601 22.555 26.4761 22.347 26.3481C21.891 26.0601 21.543 25.6721 21.303 25.1841C21.071 24.6881 20.955 24.1801 20.955 23.6601C20.955 23.0361 21.067 22.4761 21.291 21.9801C21.515 21.4761 21.847 21.0801 22.287 20.7921C22.735 20.4961 23.287 20.3481 23.943 20.3481C24.087 20.3481 24.247 20.3761 24.423 20.4321C24.599 20.4881 24.771 20.5601 24.939 20.6481C25.115 20.7281 25.255 20.8121 25.359 20.9001V18.5721C25.359 18.3161 25.291 18.1721 25.155 18.1401C25.027 18.1001 24.855 18.0801 24.639 18.0801C24.567 18.0801 24.495 18.0841 24.423 18.0921C24.351 18.0921 24.279 18.0921 24.207 18.0921C24.175 18.0921 24.143 18.0801 24.111 18.0561C24.087 18.0321 24.075 18.0041 24.075 17.9721C24.075 17.9161 24.095 17.8801 24.135 17.8641C24.151 17.8481 24.167 17.8401 24.183 17.8401C24.207 17.8401 24.231 17.8361 24.255 17.8281C24.423 17.7961 24.591 17.7721 24.759 17.7561C24.935 17.7321 25.111 17.7041 25.287 17.6721C25.463 17.6401 25.635 17.6081 25.803 17.5761C25.971 17.5361 26.139 17.4921 26.307 17.4441C26.315 17.4441 26.327 17.4401 26.343 17.4321C26.367 17.4241 26.383 17.4201 26.391 17.4201C26.431 17.4201 26.455 17.4361 26.463 17.4681C26.471 17.5001 26.475 17.5321 26.475 17.5641C26.475 18.5561 26.471 19.5441 26.463 20.5281C26.455 21.5121 26.451 22.5001 26.451 23.4921V25.2801C26.451 25.4161 26.467 25.5561 26.499 25.7001C26.531 25.8441 26.591 25.9641 26.679 26.0601C26.775 26.1561 26.907 26.2041 27.075 26.2041C27.155 26.2041 27.231 26.1881 27.303 26.1561C27.375 26.1241 27.451 26.1081 27.531 26.1081C27.587 26.1081 27.615 26.1401 27.615 26.2041ZM31.4964 26.5041C31.4964 26.5441 31.4844 26.5841 31.4604 26.6241C31.4364 26.6561 31.4044 26.6721 31.3644 26.6721C31.1404 26.6721 30.9164 26.6681 30.6924 26.6601C30.4764 26.6441 30.2524 26.6361 30.0204 26.6361H29.6964C29.4564 26.6361 29.2164 26.6441 28.9764 26.6601C28.7444 26.6681 28.5124 26.6721 28.2804 26.6721C28.2484 26.6721 28.2244 26.6521 28.2084 26.6121C28.2004 26.5721 28.1964 26.5401 28.1964 26.5161C28.1964 26.4761 28.2004 26.4481 28.2084 26.4321C28.2164 26.4081 28.2404 26.3921 28.2804 26.3841C28.3204 26.3681 28.3644 26.3641 28.4124 26.3721C28.4684 26.3721 28.5204 26.3721 28.5684 26.3721C28.6244 26.3721 28.6764 26.3761 28.7244 26.3841C28.7724 26.3841 28.8244 26.3841 28.8804 26.3841C28.9924 26.3841 29.0924 26.3601 29.1804 26.3121C29.2764 26.2561 29.3244 26.1641 29.3244 26.0361V21.2361C29.3244 21.1001 29.3004 20.9961 29.2524 20.9241C29.2044 20.8441 29.1044 20.8041 28.9524 20.8041C28.8404 20.8041 28.7244 20.8121 28.6044 20.8281C28.4924 20.8361 28.3804 20.8481 28.2684 20.8641C28.2044 20.8641 28.1724 20.8281 28.1724 20.7561C28.1724 20.6761 28.2044 20.6241 28.2684 20.6001C28.3644 20.5681 28.4644 20.5481 28.5684 20.5401C28.6804 20.5241 28.7844 20.5081 28.8804 20.4921C29.1044 20.4521 29.3284 20.4081 29.5524 20.3601C29.7764 20.3121 29.9964 20.2601 30.2124 20.2041C30.2364 20.1961 30.2684 20.1921 30.3084 20.1921C30.3964 20.1921 30.4404 20.2401 30.4404 20.3361C30.4404 21.2801 30.4364 22.2281 30.4284 23.1801C30.4284 24.1321 30.4284 25.0841 30.4284 26.0361C30.4284 26.1641 30.4844 26.2561 30.5964 26.3121C30.7164 26.3601 30.8284 26.3841 30.9324 26.3841C31.0124 26.3841 31.0924 26.3801 31.1724 26.3721C31.2604 26.3641 31.3444 26.3601 31.4244 26.3601C31.4564 26.3601 31.4764 26.3801 31.4844 26.4201C31.4924 26.4601 31.4964 26.4881 31.4964 26.5041ZM30.5244 18.2001C30.5244 18.4001 30.4524 18.5721 30.3084 18.7161C30.1644 18.8521 29.9924 18.9201 29.7924 18.9201C29.5924 18.9201 29.4204 18.8521 29.2764 18.7161C29.1324 18.5721 29.0604 18.4001 29.0604 18.2001C29.0604 18.0001 29.1324 17.8321 29.2764 17.6961C29.4204 17.5521 29.5924 17.4801 29.7924 17.4801C29.9924 17.4801 30.1644 17.5521 30.3084 17.6961C30.4524 17.8321 30.5244 18.0001 30.5244 18.2001ZM36.1854 26.1321C36.1854 26.2041 36.1294 26.2761 36.0174 26.3481C35.9134 26.4201 35.7854 26.4841 35.6334 26.5401C35.4814 26.5961 35.3334 26.6401 35.1894 26.6721C35.0534 26.7041 34.9534 26.7201 34.8894 26.7201C34.4734 26.7201 34.1494 26.6681 33.9174 26.5641C33.6934 26.4601 33.5334 26.2881 33.4374 26.0481C33.3494 25.8081 33.3054 25.4841 33.3054 25.0761C33.3054 24.4121 33.3054 23.7481 33.3054 23.0841C33.3134 22.4121 33.3214 21.7441 33.3294 21.0801H32.4654C32.4094 21.0801 32.3614 21.0961 32.3214 21.1281C32.2894 21.1521 32.2534 21.1641 32.2134 21.1641C32.1734 21.1641 32.1534 21.1361 32.1534 21.0801C32.1534 21.0481 32.1734 20.9841 32.2134 20.8881C32.2614 20.7921 32.2934 20.7281 32.3094 20.6961C32.3334 20.7041 32.3694 20.7081 32.4174 20.7081H33.3534L33.3654 19.1841C33.5494 19.0641 33.7174 18.9321 33.8694 18.7881C34.0214 18.6361 34.1734 18.4841 34.3254 18.3321C34.3414 18.3161 34.3574 18.3041 34.3734 18.2961C34.3894 18.2801 34.4054 18.2721 34.4214 18.2721C34.4934 18.2721 34.5294 18.3001 34.5294 18.3561L34.4574 20.6961C34.7134 20.6961 34.9654 20.6921 35.2134 20.6841C35.4694 20.6761 35.7214 20.6721 35.9694 20.6721C36.0734 20.6721 36.1254 20.7321 36.1254 20.8521C36.1254 21.0041 36.0574 21.0801 35.9214 21.0801H34.4574C34.4574 21.6881 34.4534 22.3001 34.4454 22.9161C34.4454 23.5241 34.4454 24.1361 34.4454 24.7521V25.6761C34.4454 25.8761 34.5294 26.0161 34.6974 26.0961C34.8654 26.1681 35.0294 26.2041 35.1894 26.2041C35.4134 26.2041 35.6334 26.1681 35.8494 26.0961C35.8734 26.0801 35.9094 26.0641 35.9574 26.0481C36.0054 26.0321 36.0414 26.0241 36.0654 26.0241C36.1454 26.0241 36.1854 26.0601 36.1854 26.1321ZM41.9342 23.5161C41.9342 23.1721 41.9062 22.8281 41.8502 22.4841C41.8022 22.1321 41.7062 21.8081 41.5622 21.5121C41.4262 21.2161 41.2262 20.9801 40.9622 20.8041C40.6982 20.6201 40.3542 20.5281 39.9302 20.5281C39.5302 20.5281 39.2022 20.6241 38.9462 20.8161C38.6982 21.0081 38.5022 21.2561 38.3582 21.5601C38.2222 21.8641 38.1262 22.1921 38.0702 22.5441C38.0222 22.8961 37.9982 23.2281 37.9982 23.5401C37.9982 23.8841 38.0222 24.2281 38.0702 24.5721C38.1262 24.9161 38.2262 25.2281 38.3702 25.5081C38.5142 25.7801 38.7182 26.0001 38.9822 26.1681C39.2542 26.3361 39.6022 26.4201 40.0262 26.4201C40.4422 26.4201 40.7742 26.3321 41.0222 26.1561C41.2782 25.9801 41.4702 25.7481 41.5982 25.4601C41.7342 25.1721 41.8222 24.8601 41.8622 24.5241C41.9102 24.1801 41.9342 23.8441 41.9342 23.5161ZM43.1702 23.5521C43.1702 24.1521 43.0262 24.6921 42.7382 25.1721C42.4582 25.6521 42.0742 26.0321 41.5862 26.3121C41.1062 26.5921 40.5662 26.7321 39.9662 26.7321C39.3822 26.7321 38.8542 26.5921 38.3822 26.3121C37.9102 26.0241 37.5342 25.6441 37.2542 25.1721C36.9742 24.6921 36.8342 24.1601 36.8342 23.5761C36.8342 22.9761 36.9702 22.4241 37.2422 21.9201C37.5142 21.4081 37.8862 20.9961 38.3582 20.6841C38.8382 20.3721 39.3902 20.2161 40.0142 20.2161C40.6862 20.2161 41.2582 20.3601 41.7302 20.6481C42.2022 20.9281 42.5582 21.3201 42.7982 21.8241C43.0462 22.3201 43.1702 22.8961 43.1702 23.5521Z" fill="#C41919"/>
</svg>
