<svg width="49" height="13" viewBox="0 0 49 13" fill="none" xmlns="http://www.w3.org/2000/svg">
<path d="M8.30391 9.00797C8.30391 8.15464 8.12791 7.49331 7.77591 7.02397C7.43457 6.55464 6.81057 6.30931 5.90391 6.28797C5.73324 6.28797 5.56257 6.28797 5.39191 6.28797C5.22124 6.27731 5.05057 6.27197 4.87991 6.27197C4.61324 6.27197 4.34124 6.27731 4.06391 6.28797C3.79724 6.29864 3.52524 6.30397 3.24791 6.30397V11.312C3.24791 11.504 3.30124 11.6426 3.40791 11.728C3.52524 11.8133 3.66391 11.8666 3.82391 11.888C3.98391 11.8986 4.13324 11.904 4.27191 11.904C4.45324 11.904 4.63457 11.904 4.81591 11.904C5.00791 11.8933 5.19457 11.8826 5.37591 11.872C6.26124 11.8186 6.97057 11.5626 7.50391 11.104C8.03724 10.6453 8.30391 9.94664 8.30391 9.00797ZM7.48791 3.32797C7.48791 2.50664 7.26391 1.91997 6.81591 1.56797C6.36791 1.20531 5.74924 1.02397 4.95991 1.02397C4.67191 1.02397 4.38391 1.02931 4.09591 1.03997C3.81857 1.03997 3.53591 1.05064 3.24791 1.07197V5.85597C3.39724 5.85597 3.54124 5.86131 3.67991 5.87197C3.81857 5.87197 3.95724 5.87197 4.09591 5.87197C4.36257 5.87197 4.65591 5.86131 4.97591 5.83997C5.30657 5.81864 5.62124 5.76531 5.91991 5.67997C6.22924 5.59464 6.48524 5.45597 6.68791 5.26397C6.93324 5.01864 7.12524 4.72531 7.26391 4.38397C7.41324 4.03197 7.48791 3.67997 7.48791 3.32797ZM10.0159 8.75197C10.0159 9.49864 9.83991 10.1493 9.48791 10.704C9.13591 11.248 8.60791 11.6586 7.90391 11.936C7.53057 12.0853 7.11991 12.1866 6.67191 12.24C6.23457 12.2826 5.81324 12.304 5.40791 12.304C5.33324 12.304 5.25324 12.304 5.16791 12.304C5.09324 12.304 5.01857 12.2986 4.94391 12.288C4.43191 12.2666 3.91991 12.2506 3.40791 12.24C2.90657 12.2186 2.39991 12.208 1.88791 12.208C1.59991 12.208 1.31191 12.2293 1.02391 12.272C0.746573 12.304 0.463906 12.32 0.175906 12.32C0.090573 12.32 0.0425729 12.288 0.0319062 12.224C0.0212396 12.1493 0.0159063 12.08 0.0159063 12.016C0.0159063 11.8986 0.0639063 11.84 0.159906 11.84C0.30924 11.84 0.463906 11.84 0.623906 11.84C0.794573 11.8293 0.954573 11.8133 1.10391 11.792C1.32791 11.76 1.47191 11.6746 1.53591 11.536C1.61057 11.3866 1.65324 11.2106 1.66391 11.008C1.68524 10.7946 1.69057 10.5866 1.67991 10.384C1.66924 10.1813 1.66391 9.97864 1.66391 9.77597C1.66391 9.38131 1.66391 8.98664 1.66391 8.59197C1.67457 8.18664 1.67991 7.78664 1.67991 7.39197V5.64797C1.67991 5.07197 1.67457 4.49597 1.66391 3.91997C1.66391 3.34397 1.66391 2.76797 1.66391 2.19197C1.66391 2.08531 1.65857 1.98397 1.64791 1.88797C1.64791 1.78131 1.63191 1.67997 1.59991 1.58397C1.52524 1.37064 1.39191 1.24264 1.19991 1.19997C1.01857 1.14664 0.831906 1.11997 0.639906 1.11997C0.56524 1.11997 0.48524 1.12531 0.399906 1.13597C0.32524 1.13597 0.24524 1.13597 0.159906 1.13597C0.0852396 1.13597 0.0372396 1.09864 0.0159063 1.02397C0.00523961 0.949306 -9.37283e-05 0.890639 -9.37283e-05 0.847972C-9.37283e-05 0.805305 0.00523961 0.762638 0.0159063 0.719972C0.0372396 0.666638 0.0745729 0.639972 0.127906 0.639972C0.37324 0.639972 0.61324 0.650639 0.847906 0.671972C1.08257 0.682639 1.31724 0.687972 1.55191 0.687972C2.18124 0.687972 2.79991 0.671972 3.40791 0.639972C4.02657 0.597306 4.64524 0.554639 5.26391 0.511972C5.34924 0.501305 5.42924 0.495972 5.50391 0.495972C5.57857 0.495972 5.65324 0.495972 5.72791 0.495972C6.32524 0.495972 6.88524 0.575972 7.40791 0.735972C7.94124 0.885306 8.37324 1.15197 8.70391 1.53597C9.03457 1.91997 9.19991 2.45864 9.19991 3.15197C9.19991 3.58931 9.08257 3.98397 8.84791 4.33597C8.62391 4.67731 8.33057 4.97597 7.96791 5.23197C7.61591 5.47731 7.25324 5.67464 6.87991 5.82397V5.90397C7.39191 5.98931 7.88791 6.14397 8.36791 6.36797C8.84791 6.58131 9.24257 6.88531 9.55191 7.27997C9.86124 7.66397 10.0159 8.15464 10.0159 8.75197ZM16.4053 10.4C16.3626 9.91997 16.3359 9.43997 16.3253 8.95997C16.3253 8.46931 16.3199 7.97864 16.3093 7.48797H16.0853C15.7546 7.48797 15.3866 7.54131 14.9813 7.64797C14.5866 7.74397 14.2079 7.89331 13.8453 8.09597C13.4826 8.29864 13.1839 8.55464 12.9493 8.86397C12.7253 9.16264 12.6133 9.50931 12.6133 9.90397C12.6133 10.416 12.7573 10.8053 13.0453 11.072C13.3333 11.328 13.7226 11.456 14.2133 11.456C14.4479 11.456 14.7039 11.4026 14.9813 11.296C15.2586 11.1786 15.5253 11.04 15.7813 10.88C16.0373 10.72 16.2453 10.56 16.4053 10.4ZM19.2053 11.424C19.2053 11.4666 19.1999 11.4986 19.1893 11.52C19.0826 11.7546 18.9013 11.936 18.6453 12.064C18.3999 12.1813 18.1546 12.24 17.9093 12.24C17.4613 12.24 17.1359 12.112 16.9333 11.856C16.7413 11.5893 16.5866 11.264 16.4693 10.88C16.0639 11.2533 15.6159 11.568 15.1253 11.824C14.6346 12.0693 14.1066 12.192 13.5413 12.192C13.1466 12.192 12.7733 12.1173 12.4213 11.968C12.0799 11.808 11.8026 11.5786 11.5893 11.28C11.3759 10.9813 11.2693 10.6186 11.2693 10.192C11.2693 9.74397 11.3813 9.35997 11.6053 9.03997C11.8399 8.70931 12.1333 8.43197 12.4853 8.20797C12.8479 7.97331 13.2319 7.78664 13.6373 7.64797C14.0533 7.49864 14.4426 7.38664 14.8053 7.31197C15.0506 7.25864 15.3013 7.21064 15.5573 7.16797C15.8133 7.12531 16.0639 7.08264 16.3093 7.03997C16.3093 6.74131 16.2933 6.39464 16.2613 5.99997C16.2399 5.60531 16.1599 5.27997 16.0213 5.02397C15.8826 4.77864 15.6959 4.55997 15.4613 4.36797C15.2266 4.17597 14.9653 4.07997 14.6773 4.07997C14.1866 4.07997 13.8026 4.20797 13.5253 4.46397C13.2479 4.71997 13.0506 5.08264 12.9333 5.55197C12.9226 5.60531 12.9119 5.66397 12.9013 5.72797C12.9013 5.78131 12.8959 5.83464 12.8853 5.88797C12.8746 5.95197 12.8319 6.01064 12.7573 6.06397C12.6933 6.10664 12.6239 6.12797 12.5493 6.12797C12.3466 6.12797 12.1599 6.07997 11.9893 5.98397C11.8293 5.88797 11.7493 5.72797 11.7493 5.50397C11.7493 5.37597 11.7706 5.26397 11.8133 5.16797C11.9519 4.83731 12.1759 4.56531 12.4853 4.35197C12.7946 4.12797 13.1359 3.95731 13.5093 3.83997C13.8933 3.72264 14.2506 3.66397 14.5813 3.66397C15.1573 3.66397 15.6799 3.77064 16.1493 3.98397C16.6186 4.19731 16.9919 4.51197 17.2693 4.92797C17.5573 5.33331 17.7013 5.84531 17.7013 6.46397C17.7013 7.15731 17.6959 7.85597 17.6853 8.55997C17.6853 9.26397 17.7066 9.96797 17.7493 10.672C17.7599 10.9066 17.8079 11.1146 17.8933 11.296C17.9786 11.4666 18.1546 11.552 18.4213 11.552C18.5599 11.552 18.7039 11.52 18.8533 11.456C19.0133 11.3813 19.1146 11.344 19.1573 11.344C19.1893 11.344 19.2053 11.3706 19.2053 11.424ZM24.3884 12.032C24.3884 12.0853 24.3724 12.1386 24.3404 12.192C24.3084 12.2346 24.2657 12.256 24.2124 12.256C23.9137 12.256 23.6151 12.2506 23.3164 12.24C23.0284 12.2186 22.7297 12.208 22.4204 12.208H21.9884C21.6684 12.208 21.3484 12.2186 21.0284 12.24C20.7191 12.2506 20.4097 12.256 20.1004 12.256C20.0577 12.256 20.0257 12.2293 20.0044 12.176C19.9937 12.1226 19.9884 12.08 19.9884 12.048C19.9884 11.9946 19.9937 11.9573 20.0044 11.936C20.0151 11.904 20.0471 11.8826 20.1004 11.872C20.1537 11.8506 20.2124 11.8453 20.2764 11.856C20.3511 11.856 20.4204 11.856 20.4844 11.856C20.5591 11.856 20.6284 11.8613 20.6924 11.872C20.7564 11.872 20.8257 11.872 20.9004 11.872C21.0497 11.872 21.1831 11.84 21.3004 11.776C21.4284 11.7013 21.4924 11.5786 21.4924 11.408V5.00797C21.4924 4.82664 21.4604 4.68797 21.3964 4.59197C21.3324 4.48531 21.1991 4.43197 20.9964 4.43197C20.8471 4.43197 20.6924 4.44264 20.5324 4.46397C20.3831 4.47464 20.2337 4.49064 20.0844 4.51197C19.9991 4.51197 19.9564 4.46397 19.9564 4.36797C19.9564 4.26131 19.9991 4.19197 20.0844 4.15997C20.2124 4.11731 20.3457 4.09064 20.4844 4.07997C20.6337 4.05864 20.7724 4.03731 20.9004 4.01597C21.1991 3.96264 21.4977 3.90397 21.7964 3.83997C22.0951 3.77597 22.3884 3.70664 22.6764 3.63197C22.7084 3.62131 22.7511 3.61597 22.8044 3.61597C22.9217 3.61597 22.9804 3.67997 22.9804 3.80797C22.9804 5.06664 22.9751 6.33064 22.9644 7.59997C22.9644 8.86931 22.9644 10.1386 22.9644 11.408C22.9644 11.5786 23.0391 11.7013 23.1884 11.776C23.3484 11.84 23.4977 11.872 23.6364 11.872C23.7431 11.872 23.8497 11.8666 23.9564 11.856C24.0737 11.8453 24.1857 11.84 24.2924 11.84C24.3351 11.84 24.3617 11.8666 24.3724 11.92C24.3831 11.9733 24.3884 12.0106 24.3884 12.032ZM23.0924 0.959972C23.0924 1.22664 22.9964 1.45597 22.8044 1.64797C22.6124 1.82931 22.3831 1.91997 22.1164 1.91997C21.8497 1.91997 21.6204 1.82931 21.4284 1.64797C21.2364 1.45597 21.1404 1.22664 21.1404 0.959972C21.1404 0.693305 21.2364 0.469305 21.4284 0.287972C21.6204 0.0959724 21.8497 -2.76566e-05 22.1164 -2.76566e-05C22.3831 -2.76566e-05 22.6124 0.0959724 22.8044 0.287972C22.9964 0.469305 23.0924 0.693305 23.0924 0.959972ZM31.7764 5.15197C31.7764 5.25864 31.7337 5.35997 31.6484 5.45597C31.5737 5.54131 31.4777 5.58397 31.3604 5.58397C31.2004 5.58397 31.0831 5.53064 31.0084 5.42397C30.9444 5.31731 30.8857 5.19464 30.8324 5.05597C30.7897 4.91731 30.7204 4.79464 30.6244 4.68797C30.5284 4.58131 30.3684 4.52797 30.1444 4.52797C30.1017 4.52797 30.0591 4.52797 30.0164 4.52797C29.9844 4.52797 29.9471 4.53331 29.9044 4.54397C29.7231 4.57597 29.5257 4.68797 29.3124 4.87997C29.0991 5.07197 28.8911 5.30131 28.6884 5.56797C28.4964 5.82397 28.3364 6.07997 28.2084 6.33597C28.0804 6.59197 28.0111 6.80531 28.0004 6.97597C27.9897 7.14664 27.9844 7.31731 27.9844 7.48797C27.9844 7.64797 27.9844 7.80797 27.9844 7.96797C27.9844 8.54397 27.9844 9.11997 27.9844 9.69597C27.9951 10.272 28.0004 10.8426 28.0004 11.408C28.0004 11.568 28.0644 11.6853 28.1924 11.76C28.3311 11.824 28.4697 11.856 28.6084 11.856C28.7151 11.856 28.8217 11.8506 28.9284 11.84C29.0351 11.8293 29.1417 11.824 29.2484 11.824C29.3017 11.824 29.3391 11.8506 29.3604 11.904C29.3817 11.9466 29.3924 11.9893 29.3924 12.032C29.3924 12.2026 29.3071 12.288 29.1364 12.288C28.8164 12.288 28.4964 12.2826 28.1764 12.272C27.8564 12.2506 27.5364 12.24 27.2164 12.24C26.8857 12.24 26.5497 12.2506 26.2084 12.272C25.8777 12.2933 25.5417 12.304 25.2004 12.304C25.1577 12.304 25.1257 12.272 25.1044 12.208C25.0937 12.144 25.0884 12.0906 25.0884 12.048C25.0884 11.9413 25.1311 11.8826 25.2164 11.872C25.3337 11.8506 25.4564 11.8453 25.5844 11.856C25.7124 11.8666 25.8297 11.872 25.9364 11.872C26.0964 11.872 26.2244 11.84 26.3204 11.776C26.4271 11.7013 26.4857 11.5786 26.4964 11.408C26.5177 11.0666 26.5284 10.72 26.5284 10.368C26.5391 10.016 26.5444 9.66397 26.5444 9.31197V7.75997C26.5337 7.30131 26.5284 6.84797 26.5284 6.39997C26.5391 5.94131 26.5231 5.48797 26.4804 5.03997C26.4697 4.82664 26.4111 4.67731 26.3044 4.59197C26.1977 4.49597 26.0377 4.44797 25.8244 4.44797C25.7391 4.44797 25.6484 4.45864 25.5524 4.47997C25.4671 4.49064 25.3764 4.49597 25.2804 4.49597C25.1951 4.49597 25.1524 4.43197 25.1524 4.30397C25.1524 4.22931 25.1897 4.17597 25.2644 4.14397C25.3711 4.11197 25.4831 4.09064 25.6004 4.07997C25.7177 4.05864 25.8297 4.04264 25.9364 4.03197C26.2244 3.97864 26.5124 3.92531 26.8004 3.87197C27.0884 3.81864 27.3764 3.75464 27.6644 3.67997C27.7604 3.71197 27.8297 3.77064 27.8724 3.85597C27.8937 3.89864 27.9097 4.01597 27.9204 4.20797C27.9311 4.39997 27.9364 4.62397 27.9364 4.87997C27.9364 5.12531 27.9364 5.35997 27.9364 5.58397C27.9364 5.79731 27.9364 5.94664 27.9364 6.03197C28.1711 5.65864 28.4377 5.28531 28.7364 4.91197C29.0351 4.53864 29.3764 4.22931 29.7604 3.98397C30.1444 3.73864 30.5764 3.61597 31.0564 3.61597C31.3124 3.61597 31.4777 3.69597 31.5524 3.85597C31.6271 4.01597 31.6751 4.20264 31.6964 4.41597C31.7177 4.53331 31.7337 4.65597 31.7444 4.78397C31.7657 4.91197 31.7764 5.03464 31.7764 5.15197ZM38.8858 5.15197C38.8858 5.25864 38.8431 5.35997 38.7578 5.45597C38.6831 5.54131 38.5871 5.58397 38.4698 5.58397C38.3098 5.58397 38.1924 5.53064 38.1178 5.42397C38.0538 5.31731 37.9951 5.19464 37.9418 5.05597C37.8991 4.91731 37.8298 4.79464 37.7338 4.68797C37.6378 4.58131 37.4778 4.52797 37.2538 4.52797C37.2111 4.52797 37.1684 4.52797 37.1258 4.52797C37.0938 4.52797 37.0564 4.53331 37.0138 4.54397C36.8324 4.57597 36.6351 4.68797 36.4218 4.87997C36.2084 5.07197 36.0004 5.30131 35.7978 5.56797C35.6058 5.82397 35.4458 6.07997 35.3178 6.33597C35.1898 6.59197 35.1204 6.80531 35.1098 6.97597C35.0991 7.14664 35.0938 7.31731 35.0938 7.48797C35.0938 7.64797 35.0938 7.80797 35.0938 7.96797C35.0938 8.54397 35.0938 9.11997 35.0938 9.69597C35.1044 10.272 35.1098 10.8426 35.1098 11.408C35.1098 11.568 35.1738 11.6853 35.3018 11.76C35.4404 11.824 35.5791 11.856 35.7178 11.856C35.8244 11.856 35.9311 11.8506 36.0378 11.84C36.1444 11.8293 36.2511 11.824 36.3578 11.824C36.4111 11.824 36.4484 11.8506 36.4698 11.904C36.4911 11.9466 36.5018 11.9893 36.5018 12.032C36.5018 12.2026 36.4164 12.288 36.2458 12.288C35.9258 12.288 35.6058 12.2826 35.2858 12.272C34.9658 12.2506 34.6458 12.24 34.3258 12.24C33.9951 12.24 33.6591 12.2506 33.3178 12.272C32.9871 12.2933 32.6511 12.304 32.3098 12.304C32.2671 12.304 32.2351 12.272 32.2138 12.208C32.2031 12.144 32.1978 12.0906 32.1978 12.048C32.1978 11.9413 32.2404 11.8826 32.3258 11.872C32.4431 11.8506 32.5658 11.8453 32.6938 11.856C32.8218 11.8666 32.9391 11.872 33.0458 11.872C33.2058 11.872 33.3338 11.84 33.4298 11.776C33.5364 11.7013 33.5951 11.5786 33.6058 11.408C33.6271 11.0666 33.6378 10.72 33.6378 10.368C33.6484 10.016 33.6538 9.66397 33.6538 9.31197V7.75997C33.6431 7.30131 33.6378 6.84797 33.6378 6.39997C33.6484 5.94131 33.6324 5.48797 33.5898 5.03997C33.5791 4.82664 33.5204 4.67731 33.4138 4.59197C33.3071 4.49597 33.1471 4.44797 32.9338 4.44797C32.8484 4.44797 32.7578 4.45864 32.6618 4.47997C32.5764 4.49064 32.4858 4.49597 32.3898 4.49597C32.3044 4.49597 32.2618 4.43197 32.2618 4.30397C32.2618 4.22931 32.2991 4.17597 32.3738 4.14397C32.4804 4.11197 32.5924 4.09064 32.7098 4.07997C32.8271 4.05864 32.9391 4.04264 33.0458 4.03197C33.3338 3.97864 33.6218 3.92531 33.9098 3.87197C34.1978 3.81864 34.4858 3.75464 34.7738 3.67997C34.8698 3.71197 34.9391 3.77064 34.9818 3.85597C35.0031 3.89864 35.0191 4.01597 35.0298 4.20797C35.0404 4.39997 35.0458 4.62397 35.0458 4.87997C35.0458 5.12531 35.0458 5.35997 35.0458 5.58397C35.0458 5.79731 35.0458 5.94664 35.0458 6.03197C35.2804 5.65864 35.5471 5.28531 35.8458 4.91197C36.1444 4.53864 36.4858 4.22931 36.8698 3.98397C37.2538 3.73864 37.6858 3.61597 38.1658 3.61597C38.4218 3.61597 38.5871 3.69597 38.6618 3.85597C38.7364 4.01597 38.7844 4.20264 38.8058 4.41597C38.8271 4.53331 38.8431 4.65597 38.8538 4.78397C38.8751 4.91197 38.8858 5.03464 38.8858 5.15197ZM46.5712 8.04797C46.5712 7.58931 46.5338 7.13064 46.4592 6.67197C46.3952 6.20264 46.2672 5.77064 46.0752 5.37597C45.8938 4.98131 45.6272 4.66664 45.2752 4.43197C44.9232 4.18664 44.4645 4.06397 43.8992 4.06397C43.3658 4.06397 42.9285 4.19197 42.5872 4.44797C42.2565 4.70397 41.9952 5.03464 41.8032 5.43997C41.6218 5.84531 41.4938 6.28264 41.4192 6.75197C41.3552 7.22131 41.3232 7.66397 41.3232 8.07997C41.3232 8.53864 41.3552 8.99731 41.4192 9.45597C41.4938 9.91464 41.6272 10.3306 41.8192 10.704C42.0112 11.0666 42.2832 11.36 42.6352 11.584C42.9978 11.808 43.4618 11.92 44.0272 11.92C44.5818 11.92 45.0245 11.8026 45.3552 11.568C45.6965 11.3333 45.9525 11.024 46.1232 10.64C46.3045 10.256 46.4218 9.83997 46.4752 9.39197C46.5392 8.93331 46.5712 8.48531 46.5712 8.04797ZM48.2192 8.09597C48.2192 8.89597 48.0272 9.61597 47.6432 10.256C47.2698 10.896 46.7578 11.4026 46.1072 11.776C45.4672 12.1493 44.7472 12.336 43.9472 12.336C43.1685 12.336 42.4645 12.1493 41.8352 11.776C41.2058 11.392 40.7045 10.8853 40.3312 10.256C39.9578 9.61597 39.7712 8.90664 39.7712 8.12797C39.7712 7.32797 39.9525 6.59197 40.3152 5.91997C40.6778 5.23731 41.1738 4.68797 41.8032 4.27197C42.4432 3.85597 43.1792 3.64797 44.0112 3.64797C44.9072 3.64797 45.6698 3.83997 46.2992 4.22397C46.9285 4.59731 47.4032 5.11997 47.7232 5.79197C48.0538 6.45331 48.2192 7.22131 48.2192 8.09597Z" fill="white"/>
</svg>
