<svg width="127" height="14" viewBox="0 0 127 14" fill="none" xmlns="http://www.w3.org/2000/svg">
<path d="M8.88999 5.50199C8.88999 5.10999 8.84799 4.69932 8.76399 4.26999C8.68933 3.83132 8.56799 3.41132 8.39999 3.00999C8.23199 2.60866 8.00799 2.26799 7.72799 1.98799C7.46666 1.72666 7.15866 1.50732 6.80399 1.32999C6.45866 1.14332 6.09933 1.03132 5.72599 0.993991C5.61399 0.975324 5.49733 0.965991 5.37599 0.965991C5.26399 0.965991 5.15199 0.965991 5.03999 0.965991C4.67599 0.965991 4.31199 0.970657 3.94799 0.97999C3.59333 0.989324 3.23399 0.998658 2.86999 1.00799V9.61799C2.86999 9.89799 2.96333 10.08 3.14999 10.164C3.33666 10.248 3.54666 10.29 3.77999 10.29C4.15333 10.29 4.53599 10.276 4.92799 10.248C5.32933 10.22 5.71666 10.1547 6.08999 10.052C6.47266 9.93999 6.82266 9.76732 7.13999 9.53399C7.78399 9.05799 8.23666 8.46066 8.49799 7.74199C8.75933 7.01399 8.88999 6.26732 8.88999 5.50199ZM10.444 5.29199C10.444 6.21599 10.248 7.09332 9.85599 7.92399C9.47333 8.75466 8.88066 9.41732 8.07799 9.91199C7.75133 10.108 7.37333 10.2713 6.94399 10.402C6.52399 10.5233 6.09466 10.612 5.65599 10.668C5.21733 10.724 4.80666 10.752 4.42399 10.752C4.08799 10.752 3.74733 10.7427 3.40199 10.724C3.06599 10.7053 2.72533 10.696 2.37999 10.696C2.10933 10.696 1.83399 10.7007 1.55399 10.71C1.27399 10.71 0.998661 10.7193 0.727994 10.738C0.681328 10.7473 0.634661 10.752 0.587994 10.752C0.541327 10.752 0.494661 10.752 0.447994 10.752C0.391994 10.752 0.359328 10.7287 0.349994 10.682C0.340661 10.6353 0.335994 10.5933 0.335994 10.556C0.335994 10.4907 0.382661 10.444 0.475994 10.416C0.578661 10.388 0.685994 10.3647 0.797994 10.346C0.919328 10.3273 1.00333 10.304 1.04999 10.276C1.20866 10.192 1.31133 10.0707 1.35799 9.91199C1.41399 9.74399 1.44199 9.57599 1.44199 9.40799C1.44199 8.89466 1.44199 8.38599 1.44199 7.88199C1.45133 7.36866 1.45599 6.85532 1.45599 6.34199V5.05399C1.45599 4.54066 1.45599 4.03199 1.45599 3.52799C1.45599 3.02399 1.45599 2.51532 1.45599 2.00199C1.45599 1.64732 1.41399 1.39532 1.32999 1.24599C1.24599 1.09666 1.01266 1.02199 0.629994 1.02199C0.564661 1.02199 0.499328 1.02666 0.433994 1.03599C0.377994 1.03599 0.317327 1.03599 0.251994 1.03599C0.186661 1.03599 0.125994 1.01732 0.0699942 0.97999C0.0233275 0.933324 -5.84498e-06 0.877324 -5.84498e-06 0.811991C-5.84498e-06 0.662657 0.0746608 0.58799 0.223994 0.58799C0.438661 0.58799 0.653328 0.597324 0.867994 0.615991C1.08266 0.625324 1.29266 0.629991 1.49799 0.629991C2.18866 0.629991 2.87933 0.611324 3.56999 0.573991C4.26999 0.527324 4.96533 0.503991 5.65599 0.503991C6.65466 0.503991 7.50866 0.695324 8.21799 1.07799C8.93666 1.46066 9.48733 2.01132 9.86999 2.72999C10.2527 3.43932 10.444 4.29332 10.444 5.29199ZM15.53 10.556C15.53 10.6027 15.516 10.6493 15.488 10.696C15.46 10.7333 15.4227 10.752 15.376 10.752C15.1147 10.752 14.8534 10.7473 14.592 10.738C14.34 10.7193 14.0787 10.71 13.808 10.71H13.43C13.15 10.71 12.87 10.7193 12.59 10.738C12.3194 10.7473 12.0487 10.752 11.778 10.752C11.7407 10.752 11.7127 10.7287 11.694 10.682C11.6847 10.6353 11.68 10.598 11.68 10.57C11.68 10.5233 11.6847 10.4907 11.694 10.472C11.7034 10.444 11.7314 10.4253 11.778 10.416C11.8247 10.3973 11.876 10.3927 11.932 10.402C11.9974 10.402 12.058 10.402 12.114 10.402C12.1794 10.402 12.24 10.4067 12.296 10.416C12.352 10.416 12.4127 10.416 12.478 10.416C12.6087 10.416 12.7254 10.388 12.828 10.332C12.94 10.2667 12.996 10.1593 12.996 10.01V4.40999C12.996 4.25132 12.968 4.12999 12.912 4.04599C12.856 3.95266 12.7394 3.90599 12.562 3.90599C12.4314 3.90599 12.296 3.91532 12.156 3.93399C12.0254 3.94332 11.8947 3.95732 11.764 3.97599C11.6894 3.97599 11.652 3.93399 11.652 3.84999C11.652 3.75666 11.6894 3.69599 11.764 3.66799C11.876 3.63066 11.9927 3.60732 12.114 3.59799C12.2447 3.57932 12.366 3.56066 12.478 3.54199C12.7394 3.49532 13.0007 3.44399 13.262 3.38799C13.5234 3.33199 13.78 3.27132 14.032 3.20599C14.06 3.19666 14.0974 3.19199 14.144 3.19199C14.2467 3.19199 14.298 3.24799 14.298 3.35999C14.298 4.46132 14.2934 5.56732 14.284 6.67799C14.284 7.78866 14.284 8.89932 14.284 10.01C14.284 10.1593 14.3494 10.2667 14.48 10.332C14.62 10.388 14.7507 10.416 14.872 10.416C14.9654 10.416 15.0587 10.4113 15.152 10.402C15.2547 10.3927 15.3527 10.388 15.446 10.388C15.4834 10.388 15.5067 10.4113 15.516 10.458C15.5254 10.5047 15.53 10.5373 15.53 10.556ZM14.396 0.867991C14.396 1.10132 14.312 1.30199 14.144 1.46999C13.976 1.62866 13.7754 1.70799 13.542 1.70799C13.3087 1.70799 13.108 1.62866 12.94 1.46999C12.772 1.30199 12.688 1.10132 12.688 0.867991C12.688 0.634657 12.772 0.438657 12.94 0.279991C13.108 0.111991 13.3087 0.0279909 13.542 0.0279909C13.7754 0.0279909 13.976 0.111991 14.144 0.279991C14.312 0.438657 14.396 0.634657 14.396 0.867991ZM21.6865 11.214C21.6865 10.8407 21.5792 10.5747 21.3645 10.416C21.1592 10.248 20.9072 10.1407 20.6085 10.094C20.3099 10.038 20.0205 9.99599 19.7405 9.96799L18.1725 9.81399C17.9672 10.038 17.8132 10.262 17.7105 10.486C17.6172 10.7007 17.5705 10.962 17.5705 11.27C17.5705 11.718 17.6779 12.04 17.8925 12.236C18.1165 12.4413 18.3965 12.572 18.7325 12.628C19.0685 12.684 19.4092 12.712 19.7545 12.712C20.0905 12.712 20.4032 12.6653 20.6925 12.572C20.9912 12.4787 21.2292 12.32 21.4065 12.096C21.5932 11.8813 21.6865 11.5873 21.6865 11.214ZM21.0005 5.61399C21.0005 5.32466 20.9679 5.01666 20.9025 4.68999C20.8372 4.36332 20.7065 4.08332 20.5105 3.84999C20.3239 3.61666 20.0485 3.49999 19.6845 3.49999C19.2739 3.49999 18.9565 3.60732 18.7325 3.82199C18.5085 4.02732 18.3545 4.29332 18.2705 4.61999C18.1959 4.93732 18.1585 5.26866 18.1585 5.61399C18.1585 5.97799 18.1912 6.32332 18.2565 6.64999C18.3312 6.96732 18.4759 7.22866 18.6905 7.43399C18.9145 7.63932 19.2459 7.74199 19.6845 7.74199C19.9552 7.74199 20.1745 7.67199 20.3425 7.53199C20.5199 7.39199 20.6552 7.21466 20.7485 6.99999C20.8419 6.77599 20.9072 6.54266 20.9445 6.29999C20.9819 6.05732 21.0005 5.82866 21.0005 5.61399ZM23.4925 3.31799C23.4925 3.51399 23.4505 3.64932 23.3665 3.72399C23.2919 3.78932 23.1892 3.82666 23.0585 3.83599C22.9372 3.83599 22.8065 3.83599 22.6665 3.83599C22.4612 3.83599 22.2512 3.83599 22.0365 3.83599C21.8312 3.82666 21.6212 3.81732 21.4065 3.80799C21.7052 4.04132 21.9245 4.32132 22.0645 4.64799C22.2139 4.97466 22.2885 5.32466 22.2885 5.69799C22.2885 6.15532 22.1579 6.56132 21.8965 6.91599C21.6445 7.26132 21.3179 7.53199 20.9165 7.72799C20.5152 7.92399 20.0999 8.02199 19.6705 8.02199C19.5212 8.02199 19.3765 8.01732 19.2365 8.00799C19.0965 7.98932 18.9519 7.97532 18.8025 7.96599C18.6812 8.07799 18.5412 8.19932 18.3825 8.32999C18.2332 8.46066 18.1585 8.61932 18.1585 8.80599C18.1585 8.95532 18.2285 9.06732 18.3685 9.14199C18.5179 9.20732 18.6812 9.25399 18.8585 9.28199C19.0359 9.30999 19.1759 9.32866 19.2785 9.33799L21.0565 9.46399C21.3739 9.49199 21.6819 9.56199 21.9805 9.67399C22.2885 9.77666 22.5452 9.93999 22.7505 10.164C22.9559 10.3787 23.0585 10.6727 23.0585 11.046C23.0585 11.438 22.9419 11.7647 22.7085 12.026C22.4845 12.2873 22.1905 12.4973 21.8265 12.656C21.4719 12.8147 21.1032 12.9267 20.7205 12.992C20.3379 13.0573 19.9925 13.09 19.6845 13.09C19.4419 13.09 19.1385 13.076 18.7745 13.048C18.4105 13.0293 18.0512 12.9733 17.6965 12.88C17.3419 12.7867 17.0432 12.6373 16.8005 12.432C16.5672 12.236 16.4505 11.9653 16.4505 11.62C16.4505 11.368 16.5112 11.13 16.6325 10.906C16.7539 10.6913 16.9032 10.4907 17.0805 10.304C17.2672 10.1173 17.4492 9.95399 17.6265 9.81399C17.5239 9.76732 17.3839 9.69732 17.2065 9.60399C17.0385 9.50132 16.9545 9.38466 16.9545 9.25399C16.9545 9.09532 17.0385 8.91799 17.2065 8.72199C17.3839 8.52599 17.5752 8.33932 17.7805 8.16199C17.9859 7.97532 18.1445 7.83066 18.2565 7.72799C17.7805 7.50399 17.4259 7.21932 17.1925 6.87399C16.9685 6.51932 16.8565 6.08066 16.8565 5.55799C16.8565 5.07266 16.9919 4.65732 17.2625 4.31199C17.5425 3.95732 17.8925 3.68666 18.3125 3.49999C18.7419 3.30399 19.1759 3.20599 19.6145 3.20599C19.7732 3.20599 19.9319 3.21999 20.0905 3.24799C20.2492 3.26666 20.4032 3.29932 20.5525 3.34599C20.6272 3.36466 20.7065 3.39266 20.7905 3.42999C20.8839 3.45799 20.9679 3.47666 21.0425 3.48599C21.1079 3.49532 21.1685 3.49999 21.2245 3.49999C21.2899 3.49999 21.3552 3.49999 21.4205 3.49999C21.7565 3.49999 22.0785 3.47666 22.3865 3.42999C22.6945 3.37399 22.9699 3.21532 23.2125 2.95399C23.2685 2.89799 23.3152 2.86999 23.3525 2.86999C23.4272 2.86999 23.4692 2.93532 23.4785 3.06599C23.4879 3.18732 23.4925 3.27132 23.4925 3.31799ZM28.0672 10.556C28.0672 10.6027 28.0532 10.6493 28.0252 10.696C27.9972 10.7333 27.9598 10.752 27.9132 10.752C27.6518 10.752 27.3905 10.7473 27.1292 10.738C26.8772 10.7193 26.6158 10.71 26.3452 10.71H25.9672C25.6872 10.71 25.4072 10.7193 25.1272 10.738C24.8565 10.7473 24.5858 10.752 24.3152 10.752C24.2778 10.752 24.2498 10.7287 24.2312 10.682C24.2218 10.6353 24.2172 10.598 24.2172 10.57C24.2172 10.5233 24.2218 10.4907 24.2312 10.472C24.2405 10.444 24.2685 10.4253 24.3152 10.416C24.3618 10.3973 24.4132 10.3927 24.4692 10.402C24.5345 10.402 24.5952 10.402 24.6512 10.402C24.7165 10.402 24.7772 10.4067 24.8332 10.416C24.8892 10.416 24.9498 10.416 25.0152 10.416C25.1458 10.416 25.2625 10.388 25.3652 10.332C25.4772 10.2667 25.5332 10.1593 25.5332 10.01V4.40999C25.5332 4.25132 25.5052 4.12999 25.4492 4.04599C25.3932 3.95266 25.2765 3.90599 25.0992 3.90599C24.9685 3.90599 24.8332 3.91532 24.6932 3.93399C24.5625 3.94332 24.4318 3.95732 24.3012 3.97599C24.2265 3.97599 24.1892 3.93399 24.1892 3.84999C24.1892 3.75666 24.2265 3.69599 24.3012 3.66799C24.4132 3.63066 24.5298 3.60732 24.6512 3.59799C24.7818 3.57932 24.9032 3.56066 25.0152 3.54199C25.2765 3.49532 25.5378 3.44399 25.7992 3.38799C26.0605 3.33199 26.3172 3.27132 26.5692 3.20599C26.5972 3.19666 26.6345 3.19199 26.6812 3.19199C26.7838 3.19199 26.8352 3.24799 26.8352 3.35999C26.8352 4.46132 26.8305 5.56732 26.8212 6.67799C26.8212 7.78866 26.8212 8.89932 26.8212 10.01C26.8212 10.1593 26.8865 10.2667 27.0172 10.332C27.1572 10.388 27.2878 10.416 27.4092 10.416C27.5025 10.416 27.5958 10.4113 27.6892 10.402C27.7918 10.3927 27.8898 10.388 27.9832 10.388C28.0205 10.388 28.0438 10.4113 28.0532 10.458C28.0625 10.5047 28.0672 10.5373 28.0672 10.556ZM26.9332 0.867991C26.9332 1.10132 26.8492 1.30199 26.6812 1.46999C26.5132 1.62866 26.3125 1.70799 26.0792 1.70799C25.8458 1.70799 25.6452 1.62866 25.4772 1.46999C25.3092 1.30199 25.2252 1.10132 25.2252 0.867991C25.2252 0.634657 25.3092 0.438657 25.4772 0.279991C25.6452 0.111991 25.8458 0.0279909 26.0792 0.0279909C26.3125 0.0279909 26.5132 0.111991 26.6812 0.279991C26.8492 0.438657 26.9332 0.634657 26.9332 0.867991ZM33.5377 10.122C33.5377 10.206 33.4723 10.29 33.3417 10.374C33.2203 10.458 33.071 10.5327 32.8937 10.598C32.7163 10.6633 32.5437 10.7147 32.3757 10.752C32.217 10.7893 32.1003 10.808 32.0257 10.808C31.5403 10.808 31.1623 10.7473 30.8917 10.626C30.6303 10.5047 30.4437 10.304 30.3317 10.024C30.229 9.74399 30.1777 9.36599 30.1777 8.88999C30.1777 8.11532 30.1777 7.34066 30.1777 6.56599C30.187 5.78199 30.1963 5.00266 30.2057 4.22799H29.1977C29.1323 4.22799 29.0763 4.24666 29.0297 4.28399C28.9923 4.31199 28.9503 4.32599 28.9037 4.32599C28.857 4.32599 28.8337 4.29332 28.8337 4.22799C28.8337 4.19066 28.857 4.11599 28.9037 4.00399C28.9597 3.89199 28.997 3.81732 29.0157 3.77999C29.0437 3.78932 29.0857 3.79399 29.1417 3.79399H30.2337L30.2477 2.01599C30.4623 1.87599 30.6583 1.72199 30.8357 1.55399C31.013 1.37666 31.1903 1.19932 31.3677 1.02199C31.3863 1.00332 31.405 0.989324 31.4237 0.97999C31.4423 0.961324 31.461 0.951991 31.4797 0.951991C31.5637 0.951991 31.6057 0.984658 31.6057 1.04999L31.5217 3.77999C31.8203 3.77999 32.1143 3.77532 32.4037 3.76599C32.7023 3.75666 32.9963 3.75199 33.2857 3.75199C33.407 3.75199 33.4677 3.82199 33.4677 3.96199C33.4677 4.13932 33.3883 4.22799 33.2297 4.22799H31.5217C31.5217 4.93732 31.517 5.65132 31.5077 6.36999C31.5077 7.07932 31.5077 7.79332 31.5077 8.51199V9.58999C31.5077 9.82332 31.6057 9.98666 31.8017 10.08C31.9977 10.164 32.189 10.206 32.3757 10.206C32.637 10.206 32.8937 10.164 33.1457 10.08C33.1737 10.0613 33.2157 10.0427 33.2717 10.024C33.3277 10.0053 33.3697 9.99599 33.3977 9.99599C33.491 9.99599 33.5377 10.038 33.5377 10.122ZM39.3626 5.85199C39.3533 5.46932 39.3206 5.10532 39.2646 4.75999C39.2086 4.40532 39.0733 4.11599 38.8586 3.89199C38.644 3.65866 38.294 3.54199 37.8086 3.54199C37.37 3.54199 37.0106 3.66332 36.7306 3.90599C36.46 4.13932 36.25 4.43799 36.1006 4.80199C35.9513 5.15666 35.8393 5.52066 35.7646 5.89399C35.998 5.90332 36.2266 5.91266 36.4506 5.92199C36.6746 5.92199 36.8986 5.92199 37.1226 5.92199C37.496 5.92199 37.8693 5.91732 38.2426 5.90799C38.616 5.88932 38.9893 5.87066 39.3626 5.85199ZM40.9726 9.05799C40.9726 9.10466 40.9633 9.13266 40.9446 9.14199C40.9166 9.23532 40.8466 9.34732 40.7346 9.47799C40.632 9.60866 40.5153 9.73466 40.3846 9.85599C40.254 9.96799 40.1466 10.052 40.0626 10.108C39.7546 10.3227 39.4046 10.4953 39.0126 10.626C38.63 10.7567 38.2473 10.822 37.8646 10.822C37.5473 10.822 37.1926 10.7707 36.8006 10.668C36.418 10.5653 36.0913 10.4253 35.8206 10.248C35.298 9.90266 34.9153 9.44999 34.6726 8.88999C34.43 8.32999 34.3086 7.74666 34.3086 7.13999C34.3086 6.44932 34.444 5.80999 34.7146 5.22199C34.9853 4.63399 35.4193 4.15799 36.0166 3.79399C36.2873 3.63532 36.5906 3.50466 36.9266 3.40199C37.2626 3.28999 37.5846 3.23399 37.8926 3.23399C38.4433 3.23399 38.9286 3.34599 39.3486 3.56999C39.7686 3.79399 40.0953 4.11132 40.3286 4.52199C40.5713 4.92332 40.6926 5.40399 40.6926 5.96399C40.6926 6.12266 40.6553 6.22532 40.5806 6.27199C40.5153 6.31866 40.4126 6.34199 40.2726 6.34199C40.086 6.34199 39.8993 6.33732 39.7126 6.32799C39.526 6.31866 39.3393 6.30932 39.1526 6.29999C38.8913 6.28132 38.63 6.27199 38.3686 6.27199C38.1166 6.27199 37.86 6.27199 37.5986 6.27199C37.2813 6.27199 36.964 6.27199 36.6466 6.27199C36.3293 6.27199 36.012 6.28132 35.6946 6.29999C35.6853 6.44932 35.676 6.59399 35.6666 6.73399C35.6573 6.87399 35.6526 7.01866 35.6526 7.16799C35.6526 7.51332 35.6946 7.87266 35.7786 8.24599C35.8626 8.60999 35.998 8.95066 36.1846 9.26799C36.3713 9.57599 36.6093 9.82799 36.8986 10.024C37.188 10.2107 37.538 10.304 37.9486 10.304C38.3686 10.304 38.77 10.2387 39.1526 10.108C39.5353 9.97732 39.8853 9.76732 40.2026 9.47799C40.2866 9.39399 40.3613 9.30532 40.4266 9.21199C40.5013 9.10932 40.5806 9.02066 40.6646 8.94599C40.7113 8.89932 40.7626 8.87599 40.8186 8.87599C40.8653 8.87599 40.9026 8.89466 40.9306 8.93199C40.9586 8.96932 40.9726 9.01132 40.9726 9.05799ZM50.5755 8.76399C50.5755 9.18399 50.4822 9.52932 50.2955 9.79999C50.1089 10.0613 49.8662 10.262 49.5675 10.402C49.2689 10.542 48.9422 10.64 48.5875 10.696C48.2329 10.752 47.8875 10.78 47.5515 10.78C47.2435 10.78 46.9355 10.7473 46.6275 10.682C46.3289 10.6167 46.0255 10.57 45.7175 10.542C45.6522 10.29 45.5869 10.038 45.5215 9.78599C45.4655 9.53399 45.4002 9.28666 45.3255 9.04399C45.3162 9.01599 45.2929 8.95066 45.2555 8.84799C45.2275 8.74532 45.2135 8.68932 45.2135 8.67999C45.2135 8.60532 45.2369 8.55399 45.2835 8.52599C45.3302 8.48866 45.3862 8.46999 45.4515 8.46999C45.5169 8.46999 45.5635 8.49332 45.5915 8.53999C45.6475 8.60532 45.6942 8.69399 45.7315 8.80599C45.7782 8.91799 45.8202 9.01599 45.8575 9.09999C45.9322 9.24932 45.9975 9.36599 46.0535 9.44999C46.1095 9.52466 46.1982 9.62266 46.3195 9.74399C46.6835 10.1267 47.1362 10.318 47.6775 10.318C47.9762 10.318 48.2469 10.2853 48.4895 10.22C48.7415 10.1547 48.9422 10.0333 49.0915 9.85599C49.2409 9.66932 49.3155 9.40332 49.3155 9.05799C49.3155 8.75932 49.2222 8.51199 49.0355 8.31599C48.8489 8.11066 48.6062 7.92866 48.3075 7.76999C48.0182 7.61132 47.7102 7.45732 47.3835 7.30799C47.0569 7.15866 46.7442 6.99532 46.4455 6.81799C46.1562 6.63132 45.9182 6.40732 45.7315 6.14599C45.5449 5.88466 45.4515 5.56732 45.4515 5.19399C45.4515 4.73666 45.5682 4.36332 45.8015 4.07399C46.0442 3.78466 46.3522 3.56999 46.7255 3.42999C47.0989 3.28066 47.4862 3.20599 47.8875 3.20599C48.1489 3.20599 48.3822 3.23866 48.5875 3.30399C48.8022 3.36932 49.0262 3.44399 49.2595 3.52799C49.3342 3.55599 49.4089 3.57466 49.4835 3.58399C49.5582 3.59332 49.6329 3.59799 49.7075 3.59799C49.7542 3.59799 49.7962 3.59799 49.8335 3.59799C49.8709 3.59799 49.9082 3.59332 49.9455 3.58399C49.9735 3.75199 49.9969 3.92466 50.0155 4.10199C50.0435 4.26999 50.0669 4.44266 50.0855 4.61999C50.0949 4.68532 50.1042 4.76466 50.1135 4.85799C50.1322 4.94199 50.1415 5.02132 50.1415 5.09599C50.1415 5.16132 50.1275 5.23132 50.0995 5.30599C50.0715 5.37132 50.0155 5.40399 49.9315 5.40399C49.8662 5.40399 49.8102 5.39932 49.7635 5.38999C49.7262 5.37132 49.6935 5.32932 49.6655 5.26399C49.6189 5.17066 49.5769 5.07266 49.5395 4.96999C49.5115 4.85799 49.4789 4.75532 49.4415 4.66199C49.3202 4.33532 49.1102 4.07399 48.8115 3.87799C48.5129 3.67266 48.1909 3.56999 47.8455 3.56999C47.4069 3.56999 47.0755 3.70066 46.8515 3.96199C46.6275 4.21399 46.5155 4.55466 46.5155 4.98399C46.5155 5.13332 46.5529 5.27799 46.6275 5.41799C46.7115 5.55799 46.8049 5.67932 46.9075 5.78199C47.1035 5.96866 47.3322 6.11332 47.5935 6.21599C47.8642 6.31866 48.1209 6.42132 48.3635 6.52399C48.6809 6.66399 49.0075 6.83199 49.3435 7.02799C49.6889 7.22399 49.9782 7.46199 50.2115 7.74199C50.4542 8.02199 50.5755 8.36266 50.5755 8.76399ZM56.7396 5.85199C56.7303 5.46932 56.6976 5.10532 56.6416 4.75999C56.5856 4.40532 56.4503 4.11599 56.2356 3.89199C56.0209 3.65866 55.6709 3.54199 55.1856 3.54199C54.7469 3.54199 54.3876 3.66332 54.1076 3.90599C53.8369 4.13932 53.6269 4.43799 53.4776 4.80199C53.3283 5.15666 53.2163 5.52066 53.1416 5.89399C53.3749 5.90332 53.6036 5.91266 53.8276 5.92199C54.0516 5.92199 54.2756 5.92199 54.4996 5.92199C54.8729 5.92199 55.2463 5.91732 55.6196 5.90799C55.9929 5.88932 56.3663 5.87066 56.7396 5.85199ZM58.3496 9.05799C58.3496 9.10466 58.3403 9.13266 58.3216 9.14199C58.2936 9.23532 58.2236 9.34732 58.1116 9.47799C58.0089 9.60866 57.8923 9.73466 57.7616 9.85599C57.6309 9.96799 57.5236 10.052 57.4396 10.108C57.1316 10.3227 56.7816 10.4953 56.3896 10.626C56.0069 10.7567 55.6243 10.822 55.2416 10.822C54.9243 10.822 54.5696 10.7707 54.1776 10.668C53.7949 10.5653 53.4683 10.4253 53.1976 10.248C52.6749 9.90266 52.2923 9.44999 52.0496 8.88999C51.8069 8.32999 51.6856 7.74666 51.6856 7.13999C51.6856 6.44932 51.8209 5.80999 52.0916 5.22199C52.3623 4.63399 52.7963 4.15799 53.3936 3.79399C53.6643 3.63532 53.9676 3.50466 54.3036 3.40199C54.6396 3.28999 54.9616 3.23399 55.2696 3.23399C55.8203 3.23399 56.3056 3.34599 56.7256 3.56999C57.1456 3.79399 57.4723 4.11132 57.7056 4.52199C57.9483 4.92332 58.0696 5.40399 58.0696 5.96399C58.0696 6.12266 58.0323 6.22532 57.9576 6.27199C57.8923 6.31866 57.7896 6.34199 57.6496 6.34199C57.4629 6.34199 57.2763 6.33732 57.0896 6.32799C56.9029 6.31866 56.7163 6.30932 56.5296 6.29999C56.2683 6.28132 56.0069 6.27199 55.7456 6.27199C55.4936 6.27199 55.2369 6.27199 54.9756 6.27199C54.6583 6.27199 54.3409 6.27199 54.0236 6.27199C53.7063 6.27199 53.3889 6.28132 53.0716 6.29999C53.0623 6.44932 53.0529 6.59399 53.0436 6.73399C53.0343 6.87399 53.0296 7.01866 53.0296 7.16799C53.0296 7.51332 53.0716 7.87266 53.1556 8.24599C53.2396 8.60999 53.3749 8.95066 53.5616 9.26799C53.7483 9.57599 53.9863 9.82799 54.2756 10.024C54.5649 10.2107 54.9149 10.304 55.3256 10.304C55.7456 10.304 56.1469 10.2387 56.5296 10.108C56.9123 9.97732 57.2623 9.76732 57.5796 9.47799C57.6636 9.39399 57.7383 9.30532 57.8036 9.21199C57.8783 9.10932 57.9576 9.02066 58.0416 8.94599C58.0883 8.89932 58.1396 8.87599 58.1956 8.87599C58.2423 8.87599 58.2796 8.89466 58.3076 8.93199C58.3356 8.96932 58.3496 9.01132 58.3496 9.05799ZM67.3085 10.388C67.3085 10.5 67.2245 10.584 67.0565 10.64C66.8978 10.696 66.7205 10.7333 66.5245 10.752C66.3285 10.7707 66.1885 10.78 66.1045 10.78C65.7872 10.78 65.5352 10.654 65.3485 10.402C65.1618 10.15 65.0218 9.88866 64.9285 9.61799C64.6112 10.0193 64.2145 10.318 63.7385 10.514C63.2625 10.71 62.7678 10.808 62.2545 10.808C61.4145 10.808 60.8312 10.5933 60.5045 10.164C60.1872 9.72532 60.0285 9.10932 60.0285 8.31599C60.0285 7.61599 60.0285 6.91599 60.0285 6.21599C60.0378 5.50666 60.0472 4.80199 60.0565 4.10199C60.0565 3.82199 59.9212 3.68199 59.6505 3.68199C59.5758 3.68199 59.5012 3.68666 59.4265 3.69599C59.3518 3.70532 59.2772 3.70999 59.2025 3.70999C59.1745 3.70999 59.1512 3.69599 59.1325 3.66799C59.1232 3.63066 59.1185 3.60266 59.1185 3.58399C59.1185 3.48132 59.1652 3.42532 59.2585 3.41599C59.5852 3.37866 59.9118 3.35532 60.2385 3.34599C60.5745 3.32732 60.9058 3.29932 61.2325 3.26199C61.3072 3.33666 61.3445 3.42999 61.3445 3.54199C61.3445 3.77532 61.3398 4.01332 61.3305 4.25599C61.3212 4.49866 61.3165 4.74132 61.3165 4.98399C61.3072 5.55332 61.2978 6.12732 61.2885 6.70599C61.2885 7.27532 61.2885 7.84932 61.2885 8.42799C61.2885 8.60532 61.2932 8.79666 61.3025 9.00199C61.3118 9.19799 61.3492 9.37999 61.4145 9.54799C61.5172 9.80932 61.7085 9.99599 61.9885 10.108C62.2778 10.2107 62.5532 10.262 62.8145 10.262C63.1038 10.262 63.3932 10.2107 63.6825 10.108C63.9812 9.99599 64.2332 9.83732 64.4385 9.63199C64.6532 9.41732 64.7745 9.15132 64.8025 8.83399C64.8212 8.67532 64.8305 8.51666 64.8305 8.35799C64.8398 8.18999 64.8445 8.02666 64.8445 7.86799L64.8305 4.05999C64.8305 3.93866 64.7885 3.84999 64.7045 3.79399C64.6298 3.73799 64.5412 3.70999 64.4385 3.70999C64.3452 3.70999 64.2518 3.71466 64.1585 3.72399C64.0745 3.73332 63.9858 3.73799 63.8925 3.73799C63.8085 3.73799 63.7665 3.69132 63.7665 3.59799C63.7665 3.50466 63.8085 3.45332 63.8925 3.44399C64.0045 3.42532 64.1212 3.41599 64.2425 3.41599C64.3638 3.40666 64.4852 3.39732 64.6065 3.38799L65.5725 3.28999C65.6378 3.28066 65.7032 3.27132 65.7685 3.26199C65.8432 3.25266 65.9132 3.24799 65.9785 3.24799C66.0252 3.24799 66.0578 3.27599 66.0765 3.33199C66.0952 3.37866 66.1045 3.41599 66.1045 3.44399C66.0765 5.46932 66.0625 7.48999 66.0625 9.50599C66.0625 9.73932 66.1138 9.93066 66.2165 10.08C66.3285 10.2293 66.5105 10.304 66.7625 10.304C66.8372 10.304 66.9025 10.2947 66.9585 10.276C67.0238 10.2573 67.0892 10.248 67.1545 10.248C67.2572 10.248 67.3085 10.2947 67.3085 10.388ZM77.6535 6.81799C77.6535 6.48199 77.6208 6.14132 77.5555 5.79599C77.4902 5.45066 77.3828 5.13799 77.2335 4.85799C77.0842 4.56866 76.8742 4.33532 76.6035 4.15799C76.3422 3.98066 76.0062 3.89199 75.5955 3.89199C75.4182 3.89199 75.2035 3.94332 74.9515 4.04599C74.7088 4.13932 74.5222 4.25132 74.3915 4.38199C74.2142 4.54999 74.0788 4.73199 73.9855 4.92799C73.8922 5.12399 73.8408 5.34799 73.8315 5.59999L73.8175 7.95199C73.8175 8.21332 73.8175 8.47932 73.8175 8.74999C73.8175 9.01132 73.8175 9.27732 73.8175 9.54799C73.8175 9.61332 73.8222 9.70199 73.8315 9.81399C73.8502 9.91666 73.8688 9.99132 73.8875 10.038C73.9622 10.1873 74.1068 10.2853 74.3215 10.332C74.5455 10.3693 74.7275 10.388 74.8675 10.388C75.3715 10.388 75.8008 10.2853 76.1555 10.08C76.5102 9.87466 76.7948 9.59932 77.0095 9.25399C77.2335 8.90866 77.3968 8.52599 77.4995 8.10599C77.6022 7.67666 77.6535 7.24732 77.6535 6.81799ZM79.0535 6.83199C79.0535 7.57866 78.8855 8.25066 78.5495 8.84799C78.2228 9.44532 77.7655 9.91666 77.1775 10.262C76.5988 10.598 75.9268 10.766 75.1615 10.766C74.8255 10.766 74.4895 10.7193 74.1535 10.626C73.8175 10.5327 73.5002 10.486 73.2015 10.486C73.1362 10.486 73.0662 10.4907 72.9915 10.5C72.9168 10.5093 72.8422 10.514 72.7675 10.514C72.6088 10.514 72.5295 10.43 72.5295 10.262C72.5295 10.206 72.5388 10.1407 72.5575 10.066C72.5762 9.88866 72.5855 9.71132 72.5855 9.53399C72.5855 9.35666 72.5902 9.17932 72.5995 9.00199C72.5995 8.79666 72.5995 8.59599 72.5995 8.39999C72.6088 8.19466 72.6135 7.98932 72.6135 7.78399C72.6135 6.66399 72.6042 5.54399 72.5855 4.42399C72.5762 3.30399 72.5715 2.18399 72.5715 1.06399C72.5715 0.933324 72.5295 0.849324 72.4455 0.811991C72.3615 0.774657 72.2635 0.755991 72.1515 0.755991C72.0302 0.755991 71.9042 0.765324 71.7735 0.78399C71.6428 0.793324 71.5122 0.797991 71.3815 0.797991C71.3442 0.797991 71.3022 0.783991 71.2555 0.755991C71.2182 0.718657 71.1995 0.676657 71.1995 0.629991C71.1995 0.573991 71.2275 0.536657 71.2835 0.51799C71.3395 0.489991 71.3862 0.471324 71.4235 0.46199C71.7502 0.396657 72.0768 0.340657 72.4035 0.293991C72.7395 0.247324 73.0662 0.181991 73.3835 0.0979909C73.4395 0.0793239 73.4955 0.0606572 73.5515 0.0419908C73.6168 0.0139906 73.6775 -9.53674e-06 73.7335 -9.53674e-06C73.7988 -9.53674e-06 73.8268 0.0419905 73.8175 0.125991C73.8175 0.209991 73.8175 0.275324 73.8175 0.32199V4.22799C74.1162 3.97599 74.4615 3.76599 74.8535 3.59799C75.2548 3.42999 75.6515 3.34599 76.0435 3.34599C76.7062 3.34599 77.2615 3.50932 77.7095 3.83599C78.1575 4.16266 78.4935 4.59199 78.7175 5.12399C78.9415 5.64666 79.0535 6.21599 79.0535 6.83199ZM84.5604 9.12799C84.5231 8.70799 84.4998 8.28799 84.4904 7.86799C84.4904 7.43866 84.4858 7.00932 84.4764 6.57999H84.2804C83.9911 6.57999 83.6691 6.62666 83.3144 6.71999C82.9691 6.80399 82.6378 6.93466 82.3204 7.11199C82.0031 7.28932 81.7418 7.51332 81.5364 7.78399C81.3404 8.04532 81.2424 8.34866 81.2424 8.69399C81.2424 9.14199 81.3684 9.48266 81.6204 9.71599C81.8724 9.93999 82.2131 10.052 82.6424 10.052C82.8478 10.052 83.0718 10.0053 83.3144 9.91199C83.5571 9.80932 83.7904 9.68799 84.0144 9.54799C84.2384 9.40799 84.4204 9.26799 84.5604 9.12799ZM87.0104 10.024C87.0104 10.0613 87.0058 10.0893 86.9964 10.108C86.9031 10.3133 86.7444 10.472 86.5204 10.584C86.3058 10.6867 86.0911 10.738 85.8764 10.738C85.4844 10.738 85.1998 10.626 85.0224 10.402C84.8544 10.1687 84.7191 9.88399 84.6164 9.54799C84.2618 9.87466 83.8698 10.15 83.4404 10.374C83.0111 10.5887 82.5491 10.696 82.0544 10.696C81.7091 10.696 81.3824 10.6307 81.0744 10.5C80.7758 10.36 80.5331 10.1593 80.3464 9.89799C80.1598 9.63666 80.0664 9.31932 80.0664 8.94599C80.0664 8.55399 80.1644 8.21799 80.3604 7.93799C80.5658 7.64866 80.8224 7.40599 81.1304 7.20999C81.4478 7.00466 81.7838 6.84132 82.1384 6.71999C82.5024 6.58932 82.8431 6.49132 83.1604 6.42599C83.3751 6.37932 83.5944 6.33732 83.8184 6.29999C84.0424 6.26266 84.2618 6.22532 84.4764 6.18799C84.4764 5.92666 84.4624 5.62332 84.4344 5.27799C84.4158 4.93266 84.3458 4.64799 84.2244 4.42399C84.1031 4.20932 83.9398 4.01799 83.7344 3.84999C83.5291 3.68199 83.3004 3.59799 83.0484 3.59799C82.6191 3.59799 82.2831 3.70999 82.0404 3.93399C81.7978 4.15799 81.6251 4.47532 81.5224 4.88599C81.5131 4.93266 81.5038 4.98399 81.4944 5.03999C81.4944 5.08666 81.4898 5.13332 81.4804 5.17999C81.4711 5.23599 81.4338 5.28732 81.3684 5.33399C81.3124 5.37132 81.2518 5.38999 81.1864 5.38999C81.0091 5.38999 80.8458 5.34799 80.6964 5.26399C80.5564 5.17999 80.4864 5.03999 80.4864 4.84399C80.4864 4.73199 80.5051 4.63399 80.5424 4.54999C80.6638 4.26066 80.8598 4.02266 81.1304 3.83599C81.4011 3.63999 81.6998 3.49066 82.0264 3.38799C82.3624 3.28532 82.6751 3.23399 82.9644 3.23399C83.4684 3.23399 83.9258 3.32732 84.3364 3.51399C84.7471 3.70066 85.0738 3.97599 85.3164 4.33999C85.5684 4.69466 85.6944 5.14266 85.6944 5.68399C85.6944 6.29066 85.6898 6.90199 85.6804 7.51799C85.6804 8.13399 85.6991 8.74999 85.7364 9.36599C85.7458 9.57132 85.7878 9.75332 85.8624 9.91199C85.9371 10.0613 86.0911 10.136 86.3244 10.136C86.4458 10.136 86.5718 10.108 86.7024 10.052C86.8424 9.98666 86.9311 9.95399 86.9684 9.95399C86.9964 9.95399 87.0104 9.97732 87.0104 10.024ZM91.5457 10.556C91.5457 10.6027 91.5317 10.6493 91.5037 10.696C91.4757 10.7333 91.4383 10.752 91.3917 10.752C91.1303 10.752 90.869 10.7473 90.6077 10.738C90.3557 10.7193 90.0943 10.71 89.8237 10.71H89.4457C89.1657 10.71 88.8857 10.7193 88.6057 10.738C88.335 10.7473 88.0643 10.752 87.7937 10.752C87.7563 10.752 87.7283 10.7287 87.7097 10.682C87.7003 10.6353 87.6957 10.598 87.6957 10.57C87.6957 10.5233 87.7003 10.4907 87.7097 10.472C87.719 10.444 87.747 10.4253 87.7937 10.416C87.8403 10.3973 87.8917 10.3927 87.9477 10.402C88.013 10.402 88.0737 10.402 88.1297 10.402C88.195 10.402 88.2557 10.4067 88.3117 10.416C88.3677 10.416 88.4283 10.416 88.4937 10.416C88.6243 10.416 88.741 10.388 88.8437 10.332C88.9557 10.2667 89.0117 10.1593 89.0117 10.01V4.40999C89.0117 4.25132 88.9837 4.12999 88.9277 4.04599C88.8717 3.95266 88.755 3.90599 88.5777 3.90599C88.447 3.90599 88.3117 3.91532 88.1717 3.93399C88.041 3.94332 87.9103 3.95732 87.7797 3.97599C87.705 3.97599 87.6677 3.93399 87.6677 3.84999C87.6677 3.75666 87.705 3.69599 87.7797 3.66799C87.8917 3.63066 88.0083 3.60732 88.1297 3.59799C88.2603 3.57932 88.3817 3.56066 88.4937 3.54199C88.755 3.49532 89.0163 3.44399 89.2777 3.38799C89.539 3.33199 89.7957 3.27132 90.0477 3.20599C90.0757 3.19666 90.113 3.19199 90.1597 3.19199C90.2623 3.19199 90.3137 3.24799 90.3137 3.35999C90.3137 4.46132 90.309 5.56732 90.2997 6.67799C90.2997 7.78866 90.2997 8.89932 90.2997 10.01C90.2997 10.1593 90.365 10.2667 90.4957 10.332C90.6357 10.388 90.7663 10.416 90.8877 10.416C90.981 10.416 91.0743 10.4113 91.1677 10.402C91.2703 10.3927 91.3683 10.388 91.4617 10.388C91.499 10.388 91.5223 10.4113 91.5317 10.458C91.541 10.5047 91.5457 10.5373 91.5457 10.556ZM90.4117 0.867991C90.4117 1.10132 90.3277 1.30199 90.1597 1.46999C89.9917 1.62866 89.791 1.70799 89.5577 1.70799C89.3243 1.70799 89.1237 1.62866 88.9557 1.46999C88.7877 1.30199 88.7037 1.10132 88.7037 0.867991C88.7037 0.634657 88.7877 0.438657 88.9557 0.279991C89.1237 0.111991 89.3243 0.0279909 89.5577 0.0279909C89.791 0.0279909 89.9917 0.111991 90.1597 0.279991C90.3277 0.438657 90.4117 0.634657 90.4117 0.867991ZM98.0102 4.53599C98.0102 4.62932 97.9728 4.71799 97.8982 4.80199C97.8328 4.87666 97.7488 4.91399 97.6462 4.91399C97.5062 4.91399 97.4035 4.86732 97.3382 4.77399C97.2822 4.68066 97.2308 4.57332 97.1842 4.45199C97.1468 4.33066 97.0862 4.22332 97.0022 4.12999C96.9182 4.03666 96.7782 3.98999 96.5822 3.98999C96.5448 3.98999 96.5075 3.98999 96.4702 3.98999C96.4422 3.98999 96.4095 3.99466 96.3722 4.00399C96.2135 4.03199 96.0408 4.12999 95.8542 4.29799C95.6675 4.46599 95.4855 4.66666 95.3082 4.89999C95.1402 5.12399 95.0002 5.34799 94.8882 5.57199C94.7762 5.79599 94.7155 5.98266 94.7062 6.13199C94.6968 6.28132 94.6922 6.43066 94.6922 6.57999C94.6922 6.71999 94.6922 6.85999 94.6922 6.99999C94.6922 7.50399 94.6922 8.00799 94.6922 8.51199C94.7015 9.01599 94.7062 9.51532 94.7062 10.01C94.7062 10.15 94.7622 10.2527 94.8742 10.318C94.9955 10.374 95.1168 10.402 95.2382 10.402C95.3315 10.402 95.4248 10.3973 95.5182 10.388C95.6115 10.3787 95.7048 10.374 95.7982 10.374C95.8448 10.374 95.8775 10.3973 95.8962 10.444C95.9148 10.4813 95.9242 10.5187 95.9242 10.556C95.9242 10.7053 95.8495 10.78 95.7002 10.78C95.4202 10.78 95.1402 10.7753 94.8602 10.766C94.5802 10.7473 94.3002 10.738 94.0202 10.738C93.7308 10.738 93.4368 10.7473 93.1382 10.766C92.8488 10.7847 92.5548 10.794 92.2562 10.794C92.2188 10.794 92.1908 10.766 92.1722 10.71C92.1628 10.654 92.1582 10.6073 92.1582 10.57C92.1582 10.4767 92.1955 10.4253 92.2702 10.416C92.3728 10.3973 92.4802 10.3927 92.5922 10.402C92.7042 10.4113 92.8068 10.416 92.9002 10.416C93.0402 10.416 93.1522 10.388 93.2362 10.332C93.3295 10.2667 93.3808 10.1593 93.3902 10.01C93.4088 9.71132 93.4182 9.40799 93.4182 9.09999C93.4275 8.79199 93.4322 8.48399 93.4322 8.17599V6.81799C93.4228 6.41666 93.4182 6.01999 93.4182 5.62799C93.4275 5.22666 93.4135 4.82999 93.3762 4.43799C93.3668 4.25132 93.3155 4.12066 93.2222 4.04599C93.1288 3.96199 92.9888 3.91999 92.8022 3.91999C92.7275 3.91999 92.6482 3.92932 92.5642 3.94799C92.4895 3.95732 92.4102 3.96199 92.3262 3.96199C92.2515 3.96199 92.2142 3.90599 92.2142 3.79399C92.2142 3.72866 92.2468 3.68199 92.3122 3.65399C92.4055 3.62599 92.5035 3.60732 92.6062 3.59799C92.7088 3.57932 92.8068 3.56532 92.9002 3.55599C93.1522 3.50932 93.4042 3.46266 93.6562 3.41599C93.9082 3.36932 94.1602 3.31332 94.4122 3.24799C94.4962 3.27599 94.5568 3.32732 94.5942 3.40199C94.6128 3.43932 94.6268 3.54199 94.6362 3.70999C94.6455 3.87799 94.6502 4.07399 94.6502 4.29799C94.6502 4.51266 94.6502 4.71799 94.6502 4.91399C94.6502 5.10066 94.6502 5.23132 94.6502 5.30599C94.8555 4.97932 95.0888 4.65266 95.3502 4.32599C95.6115 3.99932 95.9102 3.72866 96.2462 3.51399C96.5822 3.29932 96.9602 3.19199 97.3802 3.19199C97.6042 3.19199 97.7488 3.26199 97.8142 3.40199C97.8795 3.54199 97.9215 3.70532 97.9402 3.89199C97.9588 3.99466 97.9728 4.10199 97.9822 4.21399C98.0008 4.32599 98.0102 4.43332 98.0102 4.53599ZM104.231 4.53599C104.231 4.62932 104.194 4.71799 104.119 4.80199C104.054 4.87666 103.97 4.91399 103.867 4.91399C103.727 4.91399 103.624 4.86732 103.559 4.77399C103.503 4.68066 103.452 4.57332 103.405 4.45199C103.368 4.33066 103.307 4.22332 103.223 4.12999C103.139 4.03666 102.999 3.98999 102.803 3.98999C102.766 3.98999 102.728 3.98999 102.691 3.98999C102.663 3.98999 102.63 3.99466 102.593 4.00399C102.434 4.03199 102.262 4.12999 102.075 4.29799C101.888 4.46599 101.706 4.66666 101.529 4.89999C101.361 5.12399 101.221 5.34799 101.109 5.57199C100.997 5.79599 100.936 5.98266 100.927 6.13199C100.918 6.28132 100.913 6.43066 100.913 6.57999C100.913 6.71999 100.913 6.85999 100.913 6.99999C100.913 7.50399 100.913 8.00799 100.913 8.51199C100.922 9.01599 100.927 9.51532 100.927 10.01C100.927 10.15 100.983 10.2527 101.095 10.318C101.216 10.374 101.338 10.402 101.459 10.402C101.552 10.402 101.646 10.3973 101.739 10.388C101.832 10.3787 101.926 10.374 102.019 10.374C102.066 10.374 102.098 10.3973 102.117 10.444C102.136 10.4813 102.145 10.5187 102.145 10.556C102.145 10.7053 102.07 10.78 101.921 10.78C101.641 10.78 101.361 10.7753 101.081 10.766C100.801 10.7473 100.521 10.738 100.241 10.738C99.9515 10.738 99.6575 10.7473 99.3589 10.766C99.0695 10.7847 98.7755 10.794 98.4769 10.794C98.4395 10.794 98.4115 10.766 98.3929 10.71C98.3835 10.654 98.3789 10.6073 98.3789 10.57C98.3789 10.4767 98.4162 10.4253 98.4909 10.416C98.5935 10.3973 98.7009 10.3927 98.8129 10.402C98.9249 10.4113 99.0275 10.416 99.1209 10.416C99.2609 10.416 99.3729 10.388 99.4569 10.332C99.5502 10.2667 99.6015 10.1593 99.6109 10.01C99.6295 9.71132 99.6389 9.40799 99.6389 9.09999C99.6482 8.79199 99.6529 8.48399 99.6529 8.17599V6.81799C99.6435 6.41666 99.6389 6.01999 99.6389 5.62799C99.6482 5.22666 99.6342 4.82999 99.5969 4.43799C99.5875 4.25132 99.5362 4.12066 99.4429 4.04599C99.3495 3.96199 99.2095 3.91999 99.0229 3.91999C98.9482 3.91999 98.8689 3.92932 98.7849 3.94799C98.7102 3.95732 98.6309 3.96199 98.5469 3.96199C98.4722 3.96199 98.4349 3.90599 98.4349 3.79399C98.4349 3.72866 98.4675 3.68199 98.5329 3.65399C98.6262 3.62599 98.7242 3.60732 98.8269 3.59799C98.9295 3.57932 99.0275 3.56532 99.1209 3.55599C99.3729 3.50932 99.6249 3.46266 99.8769 3.41599C100.129 3.36932 100.381 3.31332 100.633 3.24799C100.717 3.27599 100.778 3.32732 100.815 3.40199C100.834 3.43932 100.848 3.54199 100.857 3.70999C100.866 3.87799 100.871 4.07399 100.871 4.29799C100.871 4.51266 100.871 4.71799 100.871 4.91399C100.871 5.10066 100.871 5.23132 100.871 5.30599C101.076 4.97932 101.31 4.65266 101.571 4.32599C101.832 3.99932 102.131 3.72866 102.467 3.51399C102.803 3.29932 103.181 3.19199 103.601 3.19199C103.825 3.19199 103.97 3.26199 104.035 3.40199C104.1 3.54199 104.142 3.70532 104.161 3.89199C104.18 3.99466 104.194 4.10199 104.203 4.21399C104.222 4.32599 104.231 4.43332 104.231 4.53599ZM110.956 7.06999C110.956 6.66866 110.923 6.26732 110.858 5.86599C110.802 5.45532 110.69 5.07732 110.522 4.73199C110.363 4.38666 110.13 4.11132 109.822 3.90599C109.514 3.69132 109.112 3.58399 108.618 3.58399C108.151 3.58399 107.768 3.69599 107.47 3.91999C107.18 4.14399 106.952 4.43332 106.784 4.78799C106.625 5.14266 106.513 5.52532 106.448 5.93599C106.392 6.34666 106.364 6.73399 106.364 7.09799C106.364 7.49932 106.392 7.90066 106.448 8.30199C106.513 8.70332 106.63 9.06732 106.798 9.39399C106.966 9.71132 107.204 9.96799 107.512 10.164C107.829 10.36 108.235 10.458 108.73 10.458C109.215 10.458 109.602 10.3553 109.892 10.15C110.19 9.94466 110.414 9.67399 110.564 9.33799C110.722 9.00199 110.825 8.63799 110.872 8.24599C110.928 7.84466 110.956 7.45266 110.956 7.06999ZM112.398 7.11199C112.398 7.81199 112.23 8.44199 111.894 9.00199C111.567 9.56199 111.119 10.0053 110.55 10.332C109.99 10.6587 109.36 10.822 108.66 10.822C107.978 10.822 107.362 10.6587 106.812 10.332C106.261 9.99599 105.822 9.55266 105.496 9.00199C105.169 8.44199 105.006 7.82132 105.006 7.13999C105.006 6.43999 105.164 5.79599 105.482 5.20799C105.799 4.61066 106.233 4.12999 106.784 3.76599C107.344 3.40199 107.988 3.21999 108.716 3.21999C109.5 3.21999 110.167 3.38799 110.718 3.72399C111.268 4.05066 111.684 4.50799 111.964 5.09599C112.253 5.67466 112.398 6.34666 112.398 7.11199ZM116.473 9.74399C116.473 10.0053 116.375 10.2247 116.179 10.402C115.983 10.5793 115.755 10.668 115.493 10.668C115.232 10.668 115.003 10.5793 114.807 10.402C114.611 10.2247 114.513 10.0053 114.513 9.74399C114.513 9.47332 114.611 9.24932 114.807 9.07199C115.003 8.89466 115.232 8.80599 115.493 8.80599C115.755 8.80599 115.983 8.89466 116.179 9.07199C116.375 9.24932 116.473 9.47332 116.473 9.74399ZM121.368 9.74399C121.368 10.0053 121.27 10.2247 121.074 10.402C120.878 10.5793 120.649 10.668 120.388 10.668C120.126 10.668 119.898 10.5793 119.702 10.402C119.506 10.2247 119.408 10.0053 119.408 9.74399C119.408 9.47332 119.506 9.24932 119.702 9.07199C119.898 8.89466 120.126 8.80599 120.388 8.80599C120.649 8.80599 120.878 8.89466 121.074 9.07199C121.27 9.24932 121.368 9.47332 121.368 9.74399ZM126.262 9.74399C126.262 10.0053 126.164 10.2247 125.968 10.402C125.772 10.5793 125.544 10.668 125.282 10.668C125.021 10.668 124.792 10.5793 124.596 10.402C124.4 10.2247 124.302 10.0053 124.302 9.74399C124.302 9.47332 124.4 9.24932 124.596 9.07199C124.792 8.89466 125.021 8.80599 125.282 8.80599C125.544 8.80599 125.772 8.89466 125.968 9.07199C126.164 9.24932 126.262 9.47332 126.262 9.74399Z" fill="#767676"/>
</svg>
