<svg width="92" height="14" viewBox="0 0 92 14" fill="none" xmlns="http://www.w3.org/2000/svg">
<mask id="path-1-outside-1_45_165" maskUnits="userSpaceOnUse" x="-0.794922" y="-0.899902" width="92" height="15" fill="black">
<rect fill="white" x="-0.794922" y="-0.899902" width="92" height="15"/>
<path d="M0.349965 10.1001V0.645552H6.05593V1.66118H1.49485V4.85578H5.76048V5.8714H1.49485V9.08447H6.12979V10.1001H0.349965ZM8.78427 3.00919L10.4831 5.90834L12.182 3.00919H13.4377L11.1479 6.55464L13.4377 10.1001H12.182L10.4831 7.34868L8.78427 10.1001H7.52859L9.78143 6.55464L7.52859 3.00919H8.78427ZM17.581 10.2478C16.9162 10.2478 16.3438 10.0909 15.8636 9.77694C15.3835 9.46302 15.0142 9.03061 14.7557 8.47971C14.4972 7.92881 14.3679 7.29943 14.3679 6.59157C14.3679 5.8714 14.5002 5.23587 14.7649 4.68497C15.0327 4.13099 15.4051 3.69858 15.8821 3.38774C16.3622 3.07382 16.9223 2.91686 17.5625 2.91686C18.0611 2.91686 18.5104 3.00919 18.9105 3.19385C19.3106 3.37851 19.6384 3.63703 19.8938 3.96942C20.1493 4.3018 20.3078 4.68959 20.3693 5.13277H19.2798C19.1967 4.80961 19.0121 4.52339 18.7259 4.2741C18.4427 4.02174 18.0611 3.89555 17.581 3.89555C17.1563 3.89555 16.7839 4.00635 16.4638 4.22794C16.1468 4.44645 15.899 4.75576 15.7205 5.15585C15.5451 5.55287 15.4574 6.01913 15.4574 6.55464C15.4574 7.10247 15.5436 7.5795 15.7159 7.98575C15.8913 8.392 16.1375 8.70746 16.4545 8.93213C16.7746 9.1568 17.1501 9.26913 17.581 9.26913C17.8641 9.26913 18.1211 9.21989 18.3519 9.1214C18.5827 9.02292 18.7782 8.88135 18.9382 8.69669C19.0982 8.51203 19.2121 8.29044 19.2798 8.03192H20.3693C20.3078 8.45048 20.1554 8.82749 19.9123 9.16295C19.6722 9.49534 19.3537 9.76002 18.9567 9.95699C18.5627 10.1509 18.1042 10.2478 17.581 10.2478ZM23.0515 0.645552V10.1001H21.962V0.645552H23.0515ZM29.5157 7.20095V3.00919H30.6052V10.1001H29.5157V8.89981H29.4419C29.2757 9.2599 29.0171 9.56613 28.6663 9.81849C28.3154 10.0678 27.8722 10.1924 27.3367 10.1924C26.8936 10.1924 26.4996 10.0955 26.1549 9.90159C25.8102 9.70462 25.5394 9.40916 25.3424 9.01523C25.1454 8.61821 25.047 8.11809 25.047 7.51487V3.00919H26.1365V7.44101C26.1365 7.95805 26.2811 8.37046 26.5704 8.67822C26.8628 8.98599 27.2352 9.13987 27.6876 9.13987C27.9584 9.13987 28.2339 9.07062 28.5139 8.93213C28.7971 8.79363 29.0341 8.58128 29.2249 8.29505C29.4188 8.00883 29.5157 7.64413 29.5157 7.20095ZM32.6007 10.1001V3.00919H33.6902V10.1001H32.6007ZM33.1547 1.82737C32.9423 1.82737 32.7592 1.75505 32.6053 1.6104C32.4545 1.46575 32.3791 1.29186 32.3791 1.08873C32.3791 0.885609 32.4545 0.711722 32.6053 0.567072C32.7592 0.422422 32.9423 0.350098 33.1547 0.350098C33.367 0.350098 33.5486 0.422422 33.6994 0.567072C33.8533 0.711722 33.9302 0.885609 33.9302 1.08873C33.9302 1.29186 33.8533 1.46575 33.6994 1.6104C33.5486 1.75505 33.367 1.82737 33.1547 1.82737ZM35.6856 10.1001V3.00919H36.7382V4.08021H36.8121C36.9413 3.72936 37.1752 3.44468 37.5138 3.22616C37.8523 3.00765 38.2339 2.89839 38.6586 2.89839C38.7387 2.89839 38.8387 2.89993 38.9587 2.90301C39.0787 2.90609 39.1695 2.9107 39.2311 2.91686V4.02481C39.1942 4.01558 39.1095 4.00173 38.9772 3.98326C38.8479 3.96172 38.711 3.95095 38.5663 3.95095C38.2216 3.95095 37.9139 4.02327 37.643 4.16792C37.3753 4.3095 37.1629 4.50647 37.0059 4.75883C36.8521 5.00812 36.7751 5.29281 36.7751 5.61288V10.1001H35.6856ZM44.1788 12.7592V3.00919H45.2314V4.13561H45.3606C45.4406 4.0125 45.5514 3.85554 45.693 3.66473C45.8377 3.47084 46.0439 3.29849 46.3116 3.14768C46.5824 2.9938 46.9487 2.91686 47.4103 2.91686C48.0074 2.91686 48.5337 3.06613 48.9892 3.36466C49.4447 3.66319 49.8001 4.08637 50.0556 4.63419C50.311 5.18201 50.4387 5.82832 50.4387 6.57311C50.4387 7.32406 50.311 7.97498 50.0556 8.52588C49.8001 9.0737 49.4462 9.49842 48.9938 9.80003C48.5414 10.0986 48.0197 10.2478 47.4288 10.2478C46.9733 10.2478 46.6086 10.1724 46.3347 10.0216C46.0608 9.86773 45.85 9.69385 45.7022 9.49996C45.5545 9.30299 45.4406 9.13987 45.3606 9.01061H45.2683V12.7592H44.1788ZM45.2498 6.55464C45.2498 7.09015 45.3283 7.56257 45.4853 7.9719C45.6422 8.37815 45.8715 8.69669 46.1731 8.92751C46.4747 9.15526 46.844 9.26913 47.2811 9.26913C47.7366 9.26913 48.1167 9.1491 48.4213 8.90905C48.7291 8.66591 48.9599 8.33968 49.1138 7.93035C49.2708 7.51795 49.3493 7.05938 49.3493 6.55464C49.3493 6.05606 49.2723 5.60673 49.1184 5.20663C48.9676 4.80346 48.7383 4.48492 48.4306 4.25102C48.1259 4.01404 47.7427 3.89555 47.2811 3.89555C46.8379 3.89555 46.4655 4.00789 46.1639 4.23255C45.8623 4.45415 45.6345 4.76499 45.4806 5.16508C45.3268 5.5621 45.2498 6.02529 45.2498 6.55464ZM52.1007 10.1001V3.00919H53.1532V4.08021H53.2271C53.3564 3.72936 53.5903 3.44468 53.9288 3.22616C54.2673 3.00765 54.649 2.89839 55.0737 2.89839C55.1537 2.89839 55.2537 2.89993 55.3738 2.90301C55.4938 2.90609 55.5846 2.9107 55.6461 2.91686V4.02481C55.6092 4.01558 55.5246 4.00173 55.3922 3.98326C55.263 3.96172 55.126 3.95095 54.9814 3.95095C54.6367 3.95095 54.3289 4.02327 54.0581 4.16792C53.7903 4.3095 53.5779 4.50647 53.421 4.75883C53.2671 5.00812 53.1902 5.29281 53.1902 5.61288V10.1001H52.1007ZM59.6025 10.2478C58.9623 10.2478 58.4006 10.0955 57.9174 9.79079C57.4373 9.48611 57.0618 9.05985 56.791 8.51203C56.5233 7.96421 56.3894 7.32406 56.3894 6.59157C56.3894 5.85294 56.5233 5.20817 56.791 4.65727C57.0618 4.10637 57.4373 3.67858 57.9174 3.37389C58.4006 3.0692 58.9623 2.91686 59.6025 2.91686C60.2426 2.91686 60.8027 3.0692 61.2828 3.37389C61.766 3.67858 62.1415 4.10637 62.4093 4.65727C62.6801 5.20817 62.8155 5.85294 62.8155 6.59157C62.8155 7.32406 62.6801 7.96421 62.4093 8.51203C62.1415 9.05985 61.766 9.48611 61.2828 9.79079C60.8027 10.0955 60.2426 10.2478 59.6025 10.2478ZM59.6025 9.26913C60.0887 9.26913 60.4888 9.14449 60.8027 8.8952C61.1167 8.64591 61.349 8.31814 61.4998 7.91189C61.6506 7.50564 61.726 7.06553 61.726 6.59157C61.726 6.11762 61.6506 5.67597 61.4998 5.26665C61.349 4.85732 61.1167 4.52647 60.8027 4.2741C60.4888 4.02174 60.0887 3.89555 59.6025 3.89555C59.1162 3.89555 58.7161 4.02174 58.4022 4.2741C58.0882 4.52647 57.8559 4.85732 57.7051 5.26665C57.5543 5.67597 57.4789 6.11762 57.4789 6.59157C57.4789 7.06553 57.5543 7.50564 57.7051 7.91189C57.8559 8.31814 58.0882 8.64591 58.4022 8.8952C58.7161 9.14449 59.1162 9.26913 59.6025 9.26913ZM67.1562 10.2478C66.5653 10.2478 66.0436 10.0986 65.5912 9.80003C65.1388 9.49842 64.7848 9.0737 64.5294 8.52588C64.2739 7.97498 64.1462 7.32406 64.1462 6.57311C64.1462 5.82832 64.2739 5.18201 64.5294 4.63419C64.7848 4.08637 65.1403 3.66319 65.5958 3.36466C66.0513 3.06613 66.5776 2.91686 67.1746 2.91686C67.6363 2.91686 68.001 2.9938 68.2687 3.14768C68.5396 3.29849 68.7458 3.47084 68.8873 3.66473C69.032 3.85554 69.1443 4.0125 69.2243 4.13561H69.3167V0.645552H70.4062V10.1001H69.3536V9.01061H69.2243C69.1443 9.13987 69.0305 9.30299 68.8827 9.49996C68.735 9.69385 68.5242 9.86773 68.2503 10.0216C67.9764 10.1724 67.6117 10.2478 67.1562 10.2478ZM67.3039 9.26913C67.7409 9.26913 68.1102 9.15526 68.4118 8.92751C68.7135 8.69669 68.9427 8.37815 69.0997 7.9719C69.2567 7.56257 69.3351 7.09015 69.3351 6.55464C69.3351 6.02529 69.2582 5.5621 69.1043 5.16508C68.9504 4.76499 68.7227 4.45415 68.4211 4.23255C68.1195 4.00789 67.7471 3.89555 67.3039 3.89555C66.8422 3.89555 66.4575 4.01404 66.1498 4.25102C65.8451 4.48492 65.6158 4.80346 65.4619 5.20663C65.3111 5.60673 65.2357 6.05606 65.2357 6.55464C65.2357 7.05938 65.3126 7.51795 65.4665 7.93035C65.6235 8.33968 65.8543 8.66591 66.159 8.90905C66.4668 9.1491 66.8484 9.26913 67.3039 9.26913ZM77.0216 7.20095V3.00919H78.1111V10.1001H77.0216V8.89981H76.9477C76.7815 9.2599 76.523 9.56613 76.1721 9.81849C75.8213 10.0678 75.3781 10.1924 74.8426 10.1924C74.3994 10.1924 74.0055 10.0955 73.6608 9.90159C73.3161 9.70462 73.0452 9.40916 72.8483 9.01523C72.6513 8.61821 72.5528 8.11809 72.5528 7.51487V3.00919H73.6423V7.44101C73.6423 7.95805 73.787 8.37046 74.0763 8.67822C74.3686 8.98599 74.741 9.13987 75.1934 9.13987C75.4643 9.13987 75.7397 9.07062 76.0198 8.93213C76.3029 8.79363 76.5399 8.58128 76.7307 8.29505C76.9246 8.00883 77.0216 7.64413 77.0216 7.20095ZM83.1903 3.00919V3.93248H79.5156V3.00919H83.1903ZM80.5866 1.31032H81.6761V8.06885C81.6761 8.37661 81.7208 8.60744 81.81 8.76132C81.9023 8.91212 82.0193 9.01369 82.1609 9.06601C82.3055 9.11525 82.4579 9.13987 82.6179 9.13987C82.7379 9.13987 82.8364 9.13372 82.9134 9.1214C82.9903 9.10602 83.0518 9.09371 83.098 9.08447L83.3196 10.0632C83.2457 10.0909 83.1426 10.1186 83.0103 10.1463C82.878 10.177 82.7102 10.1924 82.5071 10.1924C82.1993 10.1924 81.8977 10.1263 81.6023 9.99392C81.3099 9.86158 81.0668 9.65999 80.8729 9.38916C80.6821 9.11833 80.5866 8.77671 80.5866 8.3643V1.31032ZM87.6337 10.2478C86.9935 10.2478 86.4319 10.0955 85.9487 9.79079C85.4686 9.48611 85.0931 9.05985 84.8223 8.51203C84.5545 7.96421 84.4206 7.32406 84.4206 6.59157C84.4206 5.85294 84.5545 5.20817 84.8223 4.65727C85.0931 4.10637 85.4686 3.67858 85.9487 3.37389C86.4319 3.0692 86.9935 2.91686 87.6337 2.91686C88.2739 2.91686 88.834 3.0692 89.3141 3.37389C89.7973 3.67858 90.1728 4.10637 90.4405 4.65727C90.7114 5.20817 90.8468 5.85294 90.8468 6.59157C90.8468 7.32406 90.7114 7.96421 90.4405 8.51203C90.1728 9.05985 89.7973 9.48611 89.3141 9.79079C88.834 10.0955 88.2739 10.2478 87.6337 10.2478ZM87.6337 9.26913C88.12 9.26913 88.5201 9.14449 88.834 8.8952C89.1479 8.64591 89.3803 8.31814 89.5311 7.91189C89.6819 7.50564 89.7573 7.06553 89.7573 6.59157C89.7573 6.11762 89.6819 5.67597 89.5311 5.26665C89.3803 4.85732 89.1479 4.52647 88.834 4.2741C88.5201 4.02174 88.12 3.89555 87.6337 3.89555C87.1474 3.89555 86.7473 4.02174 86.4334 4.2741C86.1195 4.52647 85.8871 4.85732 85.7363 5.26665C85.5855 5.67597 85.5101 6.11762 85.5101 6.59157C85.5101 7.06553 85.5855 7.50564 85.7363 7.91189C85.8871 8.31814 86.1195 8.64591 86.4334 8.8952C86.7473 9.14449 87.1474 9.26913 87.6337 9.26913Z"/>
</mask>
<path d="M0.349965 10.1001V0.645552H6.05593V1.66118H1.49485V4.85578H5.76048V5.8714H1.49485V9.08447H6.12979V10.1001H0.349965ZM8.78427 3.00919L10.4831 5.90834L12.182 3.00919H13.4377L11.1479 6.55464L13.4377 10.1001H12.182L10.4831 7.34868L8.78427 10.1001H7.52859L9.78143 6.55464L7.52859 3.00919H8.78427ZM17.581 10.2478C16.9162 10.2478 16.3438 10.0909 15.8636 9.77694C15.3835 9.46302 15.0142 9.03061 14.7557 8.47971C14.4972 7.92881 14.3679 7.29943 14.3679 6.59157C14.3679 5.8714 14.5002 5.23587 14.7649 4.68497C15.0327 4.13099 15.4051 3.69858 15.8821 3.38774C16.3622 3.07382 16.9223 2.91686 17.5625 2.91686C18.0611 2.91686 18.5104 3.00919 18.9105 3.19385C19.3106 3.37851 19.6384 3.63703 19.8938 3.96942C20.1493 4.3018 20.3078 4.68959 20.3693 5.13277H19.2798C19.1967 4.80961 19.0121 4.52339 18.7259 4.2741C18.4427 4.02174 18.0611 3.89555 17.581 3.89555C17.1563 3.89555 16.7839 4.00635 16.4638 4.22794C16.1468 4.44645 15.899 4.75576 15.7205 5.15585C15.5451 5.55287 15.4574 6.01913 15.4574 6.55464C15.4574 7.10247 15.5436 7.5795 15.7159 7.98575C15.8913 8.392 16.1375 8.70746 16.4545 8.93213C16.7746 9.1568 17.1501 9.26913 17.581 9.26913C17.8641 9.26913 18.1211 9.21989 18.3519 9.1214C18.5827 9.02292 18.7782 8.88135 18.9382 8.69669C19.0982 8.51203 19.2121 8.29044 19.2798 8.03192H20.3693C20.3078 8.45048 20.1554 8.82749 19.9123 9.16295C19.6722 9.49534 19.3537 9.76002 18.9567 9.95699C18.5627 10.1509 18.1042 10.2478 17.581 10.2478ZM23.0515 0.645552V10.1001H21.962V0.645552H23.0515ZM29.5157 7.20095V3.00919H30.6052V10.1001H29.5157V8.89981H29.4419C29.2757 9.2599 29.0171 9.56613 28.6663 9.81849C28.3154 10.0678 27.8722 10.1924 27.3367 10.1924C26.8936 10.1924 26.4996 10.0955 26.1549 9.90159C25.8102 9.70462 25.5394 9.40916 25.3424 9.01523C25.1454 8.61821 25.047 8.11809 25.047 7.51487V3.00919H26.1365V7.44101C26.1365 7.95805 26.2811 8.37046 26.5704 8.67822C26.8628 8.98599 27.2352 9.13987 27.6876 9.13987C27.9584 9.13987 28.2339 9.07062 28.5139 8.93213C28.7971 8.79363 29.0341 8.58128 29.2249 8.29505C29.4188 8.00883 29.5157 7.64413 29.5157 7.20095ZM32.6007 10.1001V3.00919H33.6902V10.1001H32.6007ZM33.1547 1.82737C32.9423 1.82737 32.7592 1.75505 32.6053 1.6104C32.4545 1.46575 32.3791 1.29186 32.3791 1.08873C32.3791 0.885609 32.4545 0.711722 32.6053 0.567072C32.7592 0.422422 32.9423 0.350098 33.1547 0.350098C33.367 0.350098 33.5486 0.422422 33.6994 0.567072C33.8533 0.711722 33.9302 0.885609 33.9302 1.08873C33.9302 1.29186 33.8533 1.46575 33.6994 1.6104C33.5486 1.75505 33.367 1.82737 33.1547 1.82737ZM35.6856 10.1001V3.00919H36.7382V4.08021H36.8121C36.9413 3.72936 37.1752 3.44468 37.5138 3.22616C37.8523 3.00765 38.2339 2.89839 38.6586 2.89839C38.7387 2.89839 38.8387 2.89993 38.9587 2.90301C39.0787 2.90609 39.1695 2.9107 39.2311 2.91686V4.02481C39.1942 4.01558 39.1095 4.00173 38.9772 3.98326C38.8479 3.96172 38.711 3.95095 38.5663 3.95095C38.2216 3.95095 37.9139 4.02327 37.643 4.16792C37.3753 4.3095 37.1629 4.50647 37.0059 4.75883C36.8521 5.00812 36.7751 5.29281 36.7751 5.61288V10.1001H35.6856ZM44.1788 12.7592V3.00919H45.2314V4.13561H45.3606C45.4406 4.0125 45.5514 3.85554 45.693 3.66473C45.8377 3.47084 46.0439 3.29849 46.3116 3.14768C46.5824 2.9938 46.9487 2.91686 47.4103 2.91686C48.0074 2.91686 48.5337 3.06613 48.9892 3.36466C49.4447 3.66319 49.8001 4.08637 50.0556 4.63419C50.311 5.18201 50.4387 5.82832 50.4387 6.57311C50.4387 7.32406 50.311 7.97498 50.0556 8.52588C49.8001 9.0737 49.4462 9.49842 48.9938 9.80003C48.5414 10.0986 48.0197 10.2478 47.4288 10.2478C46.9733 10.2478 46.6086 10.1724 46.3347 10.0216C46.0608 9.86773 45.85 9.69385 45.7022 9.49996C45.5545 9.30299 45.4406 9.13987 45.3606 9.01061H45.2683V12.7592H44.1788ZM45.2498 6.55464C45.2498 7.09015 45.3283 7.56257 45.4853 7.9719C45.6422 8.37815 45.8715 8.69669 46.1731 8.92751C46.4747 9.15526 46.844 9.26913 47.2811 9.26913C47.7366 9.26913 48.1167 9.1491 48.4213 8.90905C48.7291 8.66591 48.9599 8.33968 49.1138 7.93035C49.2708 7.51795 49.3493 7.05938 49.3493 6.55464C49.3493 6.05606 49.2723 5.60673 49.1184 5.20663C48.9676 4.80346 48.7383 4.48492 48.4306 4.25102C48.1259 4.01404 47.7427 3.89555 47.2811 3.89555C46.8379 3.89555 46.4655 4.00789 46.1639 4.23255C45.8623 4.45415 45.6345 4.76499 45.4806 5.16508C45.3268 5.5621 45.2498 6.02529 45.2498 6.55464ZM52.1007 10.1001V3.00919H53.1532V4.08021H53.2271C53.3564 3.72936 53.5903 3.44468 53.9288 3.22616C54.2673 3.00765 54.649 2.89839 55.0737 2.89839C55.1537 2.89839 55.2537 2.89993 55.3738 2.90301C55.4938 2.90609 55.5846 2.9107 55.6461 2.91686V4.02481C55.6092 4.01558 55.5246 4.00173 55.3922 3.98326C55.263 3.96172 55.126 3.95095 54.9814 3.95095C54.6367 3.95095 54.3289 4.02327 54.0581 4.16792C53.7903 4.3095 53.5779 4.50647 53.421 4.75883C53.2671 5.00812 53.1902 5.29281 53.1902 5.61288V10.1001H52.1007ZM59.6025 10.2478C58.9623 10.2478 58.4006 10.0955 57.9174 9.79079C57.4373 9.48611 57.0618 9.05985 56.791 8.51203C56.5233 7.96421 56.3894 7.32406 56.3894 6.59157C56.3894 5.85294 56.5233 5.20817 56.791 4.65727C57.0618 4.10637 57.4373 3.67858 57.9174 3.37389C58.4006 3.0692 58.9623 2.91686 59.6025 2.91686C60.2426 2.91686 60.8027 3.0692 61.2828 3.37389C61.766 3.67858 62.1415 4.10637 62.4093 4.65727C62.6801 5.20817 62.8155 5.85294 62.8155 6.59157C62.8155 7.32406 62.6801 7.96421 62.4093 8.51203C62.1415 9.05985 61.766 9.48611 61.2828 9.79079C60.8027 10.0955 60.2426 10.2478 59.6025 10.2478ZM59.6025 9.26913C60.0887 9.26913 60.4888 9.14449 60.8027 8.8952C61.1167 8.64591 61.349 8.31814 61.4998 7.91189C61.6506 7.50564 61.726 7.06553 61.726 6.59157C61.726 6.11762 61.6506 5.67597 61.4998 5.26665C61.349 4.85732 61.1167 4.52647 60.8027 4.2741C60.4888 4.02174 60.0887 3.89555 59.6025 3.89555C59.1162 3.89555 58.7161 4.02174 58.4022 4.2741C58.0882 4.52647 57.8559 4.85732 57.7051 5.26665C57.5543 5.67597 57.4789 6.11762 57.4789 6.59157C57.4789 7.06553 57.5543 7.50564 57.7051 7.91189C57.8559 8.31814 58.0882 8.64591 58.4022 8.8952C58.7161 9.14449 59.1162 9.26913 59.6025 9.26913ZM67.1562 10.2478C66.5653 10.2478 66.0436 10.0986 65.5912 9.80003C65.1388 9.49842 64.7848 9.0737 64.5294 8.52588C64.2739 7.97498 64.1462 7.32406 64.1462 6.57311C64.1462 5.82832 64.2739 5.18201 64.5294 4.63419C64.7848 4.08637 65.1403 3.66319 65.5958 3.36466C66.0513 3.06613 66.5776 2.91686 67.1746 2.91686C67.6363 2.91686 68.001 2.9938 68.2687 3.14768C68.5396 3.29849 68.7458 3.47084 68.8873 3.66473C69.032 3.85554 69.1443 4.0125 69.2243 4.13561H69.3167V0.645552H70.4062V10.1001H69.3536V9.01061H69.2243C69.1443 9.13987 69.0305 9.30299 68.8827 9.49996C68.735 9.69385 68.5242 9.86773 68.2503 10.0216C67.9764 10.1724 67.6117 10.2478 67.1562 10.2478ZM67.3039 9.26913C67.7409 9.26913 68.1102 9.15526 68.4118 8.92751C68.7135 8.69669 68.9427 8.37815 69.0997 7.9719C69.2567 7.56257 69.3351 7.09015 69.3351 6.55464C69.3351 6.02529 69.2582 5.5621 69.1043 5.16508C68.9504 4.76499 68.7227 4.45415 68.4211 4.23255C68.1195 4.00789 67.7471 3.89555 67.3039 3.89555C66.8422 3.89555 66.4575 4.01404 66.1498 4.25102C65.8451 4.48492 65.6158 4.80346 65.4619 5.20663C65.3111 5.60673 65.2357 6.05606 65.2357 6.55464C65.2357 7.05938 65.3126 7.51795 65.4665 7.93035C65.6235 8.33968 65.8543 8.66591 66.159 8.90905C66.4668 9.1491 66.8484 9.26913 67.3039 9.26913ZM77.0216 7.20095V3.00919H78.1111V10.1001H77.0216V8.89981H76.9477C76.7815 9.2599 76.523 9.56613 76.1721 9.81849C75.8213 10.0678 75.3781 10.1924 74.8426 10.1924C74.3994 10.1924 74.0055 10.0955 73.6608 9.90159C73.3161 9.70462 73.0452 9.40916 72.8483 9.01523C72.6513 8.61821 72.5528 8.11809 72.5528 7.51487V3.00919H73.6423V7.44101C73.6423 7.95805 73.787 8.37046 74.0763 8.67822C74.3686 8.98599 74.741 9.13987 75.1934 9.13987C75.4643 9.13987 75.7397 9.07062 76.0198 8.93213C76.3029 8.79363 76.5399 8.58128 76.7307 8.29505C76.9246 8.00883 77.0216 7.64413 77.0216 7.20095ZM83.1903 3.00919V3.93248H79.5156V3.00919H83.1903ZM80.5866 1.31032H81.6761V8.06885C81.6761 8.37661 81.7208 8.60744 81.81 8.76132C81.9023 8.91212 82.0193 9.01369 82.1609 9.06601C82.3055 9.11525 82.4579 9.13987 82.6179 9.13987C82.7379 9.13987 82.8364 9.13372 82.9134 9.1214C82.9903 9.10602 83.0518 9.09371 83.098 9.08447L83.3196 10.0632C83.2457 10.0909 83.1426 10.1186 83.0103 10.1463C82.878 10.177 82.7102 10.1924 82.5071 10.1924C82.1993 10.1924 81.8977 10.1263 81.6023 9.99392C81.3099 9.86158 81.0668 9.65999 80.8729 9.38916C80.6821 9.11833 80.5866 8.77671 80.5866 8.3643V1.31032ZM87.6337 10.2478C86.9935 10.2478 86.4319 10.0955 85.9487 9.79079C85.4686 9.48611 85.0931 9.05985 84.8223 8.51203C84.5545 7.96421 84.4206 7.32406 84.4206 6.59157C84.4206 5.85294 84.5545 5.20817 84.8223 4.65727C85.0931 4.10637 85.4686 3.67858 85.9487 3.37389C86.4319 3.0692 86.9935 2.91686 87.6337 2.91686C88.2739 2.91686 88.834 3.0692 89.3141 3.37389C89.7973 3.67858 90.1728 4.10637 90.4405 4.65727C90.7114 5.20817 90.8468 5.85294 90.8468 6.59157C90.8468 7.32406 90.7114 7.96421 90.4405 8.51203C90.1728 9.05985 89.7973 9.48611 89.3141 9.79079C88.834 10.0955 88.2739 10.2478 87.6337 10.2478ZM87.6337 9.26913C88.12 9.26913 88.5201 9.14449 88.834 8.8952C89.1479 8.64591 89.3803 8.31814 89.5311 7.91189C89.6819 7.50564 89.7573 7.06553 89.7573 6.59157C89.7573 6.11762 89.6819 5.67597 89.5311 5.26665C89.3803 4.85732 89.1479 4.52647 88.834 4.2741C88.5201 4.02174 88.12 3.89555 87.6337 3.89555C87.1474 3.89555 86.7473 4.02174 86.4334 4.2741C86.1195 4.52647 85.8871 4.85732 85.7363 5.26665C85.5855 5.67597 85.5101 6.11762 85.5101 6.59157C85.5101 7.06553 85.5855 7.50564 85.7363 7.91189C85.8871 8.31814 86.1195 8.64591 86.4334 8.8952C86.7473 9.14449 87.1474 9.26913 87.6337 9.26913Z" fill="white"/>
<path d="M0.349965 10.1001H-3.54052e-05V10.4501H0.349965V10.1001ZM0.349965 0.645552V0.295552H-3.54052e-05V0.645552H0.349965ZM6.05593 0.645552H6.40593V0.295552H6.05593V0.645552ZM6.05593 1.66118V2.01118H6.40593V1.66118H6.05593ZM1.49485 1.66118V1.31118H1.14485V1.66118H1.49485ZM1.49485 4.85578H1.14485V5.20578H1.49485V4.85578ZM5.76048 4.85578H6.11048V4.50578H5.76048V4.85578ZM5.76048 5.8714V6.22141H6.11048V5.8714H5.76048ZM1.49485 5.8714V5.5214H1.14485V5.8714H1.49485ZM1.49485 9.08447H1.14485V9.43447H1.49485V9.08447ZM6.12979 9.08447H6.47979V8.73447H6.12979V9.08447ZM6.12979 10.1001V10.4501H6.47979V10.1001H6.12979ZM0.349965 10.1001H0.699965V0.645552H0.349965H-3.54052e-05V10.1001H0.349965ZM0.349965 0.645552V0.995552H6.05593V0.645552V0.295552H0.349965V0.645552ZM6.05593 0.645552H5.70593V1.66118H6.05593H6.40593V0.645552H6.05593ZM6.05593 1.66118V1.31118H1.49485V1.66118V2.01118H6.05593V1.66118ZM1.49485 1.66118H1.14485V4.85578H1.49485H1.84485V1.66118H1.49485ZM1.49485 4.85578V5.20578H5.76048V4.85578V4.50578H1.49485V4.85578ZM5.76048 4.85578H5.41048V5.8714H5.76048H6.11048V4.85578H5.76048ZM5.76048 5.8714V5.5214H1.49485V5.8714V6.22141H5.76048V5.8714ZM1.49485 5.8714H1.14485V9.08447H1.49485H1.84485V5.8714H1.49485ZM1.49485 9.08447V9.43447H6.12979V9.08447V8.73447H1.49485V9.08447ZM6.12979 9.08447H5.77979V10.1001H6.12979H6.47979V9.08447H6.12979ZM6.12979 10.1001V9.7501H0.349965V10.1001V10.4501H6.12979V10.1001ZM8.78427 3.00919L9.08624 2.83224L8.98484 2.65919H8.78427V3.00919ZM10.4831 5.90834L10.1812 6.08529L10.4831 6.60061L10.7851 6.08529L10.4831 5.90834ZM12.182 3.00919V2.65919H11.9814L11.88 2.83224L12.182 3.00919ZM13.4377 3.00919L13.7317 3.19907L14.0804 2.65919H13.4377V3.00919ZM11.1479 6.55464L10.8539 6.36476L10.7313 6.55464L10.8539 6.74453L11.1479 6.55464ZM13.4377 10.1001V10.4501H14.0804L13.7317 9.91021L13.4377 10.1001ZM12.182 10.1001L11.8842 10.284L11.9868 10.4501H12.182V10.1001ZM10.4831 7.34868L10.7809 7.1648L10.4831 6.68248L10.1853 7.1648L10.4831 7.34868ZM8.78427 10.1001V10.4501H8.9795L9.08207 10.284L8.78427 10.1001ZM7.52859 10.1001L7.23318 9.91239L6.89151 10.4501H7.52859V10.1001ZM9.78143 6.55464L10.0768 6.74235L10.1961 6.55464L10.0768 6.36694L9.78143 6.55464ZM7.52859 3.00919V2.65919H6.89151L7.23318 3.1969L7.52859 3.00919ZM8.78427 3.00919L8.4823 3.18614L10.1812 6.08529L10.4831 5.90834L10.7851 5.73138L9.08624 2.83224L8.78427 3.00919ZM10.4831 5.90834L10.7851 6.08529L12.484 3.18614L12.182 3.00919L11.88 2.83224L10.1812 5.73138L10.4831 5.90834ZM12.182 3.00919V3.35919H13.4377V3.00919V2.65919H12.182V3.00919ZM13.4377 3.00919L13.1437 2.8193L10.8539 6.36476L11.1479 6.55464L11.4419 6.74453L13.7317 3.19907L13.4377 3.00919ZM11.1479 6.55464L10.8539 6.74453L13.1437 10.29L13.4377 10.1001L13.7317 9.91021L11.4419 6.36476L11.1479 6.55464ZM13.4377 10.1001V9.7501H12.182V10.1001V10.4501H13.4377V10.1001ZM12.182 10.1001L12.4798 9.91622L10.7809 7.1648L10.4831 7.34868L10.1853 7.53256L11.8842 10.284L12.182 10.1001ZM10.4831 7.34868L10.1853 7.1648L8.48646 9.91622L8.78427 10.1001L9.08207 10.284L10.7809 7.53256L10.4831 7.34868ZM8.78427 10.1001V9.7501H7.52859V10.1001V10.4501H8.78427V10.1001ZM7.52859 10.1001L7.82399 10.2878L10.0768 6.74235L9.78143 6.55464L9.48602 6.36694L7.23318 9.91239L7.52859 10.1001ZM9.78143 6.55464L10.0768 6.36694L7.82399 2.82148L7.52859 3.00919L7.23318 3.1969L9.48602 6.74235L9.78143 6.55464ZM7.52859 3.00919V3.35919H8.78427V3.00919V2.65919H7.52859V3.00919ZM15.8636 9.77694L15.6721 10.0699V10.0699L15.8636 9.77694ZM14.7649 4.68497L14.4498 4.53266L14.4494 4.5334L14.7649 4.68497ZM15.8821 3.38774L16.0732 3.68098L16.0736 3.68068L15.8821 3.38774ZM19.8938 3.96942L20.1713 3.75614V3.75614L19.8938 3.96942ZM20.3693 5.13277V5.48277H20.7713L20.716 5.08462L20.3693 5.13277ZM19.2798 5.13277L18.9409 5.21993L19.0084 5.48277H19.2798V5.13277ZM18.7259 4.2741L18.493 4.5354L18.496 4.53803L18.7259 4.2741ZM16.4638 4.22794L16.6624 4.51611L16.663 4.51571L16.4638 4.22794ZM15.7205 5.15585L15.4009 5.01324L15.4004 5.01439L15.7205 5.15585ZM15.7159 7.98575L15.3937 8.12245L15.3946 8.1245L15.7159 7.98575ZM16.4545 8.93213L16.2522 9.21769L16.2535 9.2186L16.4545 8.93213ZM18.3519 9.1214L18.2146 8.79948V8.79948L18.3519 9.1214ZM18.9382 8.69669L19.2027 8.92591V8.92591L18.9382 8.69669ZM19.2798 8.03192V7.68192H19.0097L18.9412 7.94324L19.2798 8.03192ZM20.3693 8.03192L20.7156 8.08284L20.7746 7.68192H20.3693V8.03192ZM19.9123 9.16295L19.6289 8.95756L19.6285 8.95803L19.9123 9.16295ZM18.9567 9.95699L19.1112 10.271L19.1122 10.2705L18.9567 9.95699ZM17.581 10.2478V9.89783C16.9732 9.89783 16.4697 9.75507 16.0552 9.484L15.8636 9.77694L15.6721 10.0699C16.2178 10.4267 16.8592 10.5978 17.581 10.5978V10.2478ZM15.8636 9.77694L16.0552 9.484C15.6328 9.20781 15.3052 8.82688 15.0725 8.33103L14.7557 8.47971L14.4388 8.6284C14.7232 9.23434 15.1343 9.71824 15.6721 10.0699L15.8636 9.77694ZM14.7557 8.47971L15.0725 8.33103C14.8391 7.83366 14.7179 7.25638 14.7179 6.59157H14.3679H14.0179C14.0179 7.34249 14.1552 8.02397 14.4388 8.6284L14.7557 8.47971ZM14.3679 6.59157H14.7179C14.7179 5.91459 14.8421 5.33243 15.0804 4.83654L14.7649 4.68497L14.4494 4.5334C14.1583 5.13931 14.0179 5.82822 14.0179 6.59157H14.3679ZM14.7649 4.68497L15.08 4.83728C15.3224 4.3359 15.6539 3.95422 16.0732 3.68098L15.8821 3.38774L15.691 3.0945C15.1563 3.44295 14.743 3.92608 14.4498 4.53266L14.7649 4.68497ZM15.8821 3.38774L16.0736 3.68068C16.4903 3.40822 16.9822 3.26686 17.5625 3.26686V2.91686V2.56686C16.8625 2.56686 16.2341 2.73942 15.6906 3.0948L15.8821 3.38774ZM17.5625 2.91686V3.26686C18.0171 3.26686 18.4154 3.35083 18.7638 3.51163L18.9105 3.19385L19.0572 2.87606C18.6054 2.66755 18.1051 2.56686 17.5625 2.56686V2.91686ZM18.9105 3.19385L18.7638 3.51163C19.1152 3.67381 19.3972 3.89753 19.6163 4.18269L19.8938 3.96942L20.1713 3.75614C19.8796 3.37653 19.506 3.0832 19.0572 2.87606L18.9105 3.19385ZM19.8938 3.96942L19.6163 4.18269C19.8323 4.46372 19.9689 4.79365 20.0226 5.18092L20.3693 5.13277L20.716 5.08462C20.6467 4.58552 20.4663 4.13989 20.1713 3.75614L19.8938 3.96942ZM20.3693 5.13277V4.78277H19.2798V5.13277V5.48277H20.3693V5.13277ZM19.2798 5.13277L19.6188 5.0456C19.5157 4.64469 19.2878 4.29937 18.9557 4.01017L18.7259 4.2741L18.496 4.53803C18.7364 4.74742 18.8778 4.97454 18.9409 5.21993L19.2798 5.13277ZM18.7259 4.2741L18.9587 4.01282C18.5958 3.68935 18.1234 3.54555 17.581 3.54555V3.89555V4.24555C17.9988 4.24555 18.2896 4.35413 18.493 4.53538L18.7259 4.2741ZM17.581 3.89555V3.54555C17.0918 3.54555 16.6485 3.67436 16.2646 3.94017L16.4638 4.22794L16.663 4.51571C16.9192 4.33834 17.2207 4.24555 17.581 4.24555V3.89555ZM16.4638 4.22794L16.2651 3.93977C15.8882 4.19959 15.6019 4.56272 15.4009 5.01325L15.7205 5.15585L16.0402 5.29845C16.1962 4.9488 16.4054 4.69331 16.6624 4.51611L16.4638 4.22794ZM15.7205 5.15585L15.4004 5.01439C15.2012 5.4651 15.1074 5.9815 15.1074 6.55464H15.4574H15.8074C15.8074 6.05676 15.889 5.64063 16.0407 5.29731L15.7205 5.15585ZM15.4574 6.55464H15.1074C15.1074 7.13844 15.1992 7.66387 15.3937 8.12244L15.7159 7.98575L16.0381 7.84906C15.888 7.49513 15.8074 7.06649 15.8074 6.55464H15.4574ZM15.7159 7.98575L15.3946 8.1245C15.5918 8.5813 15.8758 8.95097 16.2522 9.21768L16.4545 8.93213L16.6569 8.64657C16.3992 8.46395 16.1908 8.2027 16.0372 7.847L15.7159 7.98575ZM16.4545 8.93213L16.2535 9.2186C16.6384 9.48881 17.0858 9.61913 17.581 9.61913V9.26913V8.91913C17.2144 8.91913 16.9108 8.82478 16.6556 8.64566L16.4545 8.93213ZM17.581 9.26913V9.61913C17.9053 9.61913 18.2098 9.56257 18.4893 9.44333L18.3519 9.1214L18.2146 8.79948C18.0324 8.87721 17.8229 8.91913 17.581 8.91913V9.26913ZM18.3519 9.1214L18.4893 9.44333C18.7676 9.32457 19.0069 9.15183 19.2027 8.92591L18.9382 8.69669L18.6737 8.46746C18.5494 8.61087 18.3979 8.72126 18.2146 8.79948L18.3519 9.1214ZM18.9382 8.69669L19.2027 8.92591C19.4011 8.69701 19.5384 8.42608 19.6184 8.12059L19.2798 8.03192L18.9412 7.94324C18.8858 8.15479 18.7954 8.32704 18.6737 8.46746L18.9382 8.69669ZM19.2798 8.03192V8.38192H20.3693V8.03192V7.68192H19.2798V8.03192ZM20.3693 8.03192L20.023 7.98099C19.9695 8.34497 19.8382 8.66876 19.6289 8.95756L19.9123 9.16295L20.1957 9.36835C20.4726 8.98622 20.646 8.55598 20.7156 8.08284L20.3693 8.03192ZM19.9123 9.16295L19.6285 8.95803C19.4244 9.24067 19.1514 9.46965 18.8011 9.64345L18.9567 9.95699L19.1122 10.2705C19.5559 10.0504 19.92 9.75001 20.196 9.36787L19.9123 9.16295ZM18.9567 9.95699L18.8021 9.64296C18.4646 9.80907 18.0607 9.89783 17.581 9.89783V10.2478V10.5978C18.1476 10.5978 18.6608 10.4927 19.1112 10.271L18.9567 9.95699ZM23.0515 0.645552H23.4015V0.295552H23.0515V0.645552ZM23.0515 10.1001V10.4501H23.4015V10.1001H23.0515ZM21.962 10.1001H21.612V10.4501H21.962V10.1001ZM21.962 0.645552V0.295552H21.612V0.645552H21.962ZM23.0515 0.645552H22.7015V10.1001H23.0515H23.4015V0.645552H23.0515ZM23.0515 10.1001V9.7501H21.962V10.1001V10.4501H23.0515V10.1001ZM21.962 10.1001H22.312V0.645552H21.962H21.612V10.1001H21.962ZM21.962 0.645552V0.995552H23.0515V0.645552V0.295552H21.962V0.645552ZM29.5157 3.00919V2.65919H29.1657V3.00919H29.5157ZM30.6052 3.00919H30.9552V2.65919H30.6052V3.00919ZM30.6052 10.1001V10.4501H30.9552V10.1001H30.6052ZM29.5157 10.1001H29.1657V10.4501H29.5157V10.1001ZM29.5157 8.89981H29.8657V8.54981H29.5157V8.89981ZM29.4419 8.89981V8.54981H29.2179L29.1241 8.75314L29.4419 8.89981ZM28.6663 9.81849L28.869 10.1038L28.8707 10.1026L28.6663 9.81849ZM26.1549 9.90159L25.9813 10.2055L25.9833 10.2066L26.1549 9.90159ZM25.3424 9.01523L25.0289 9.17078L25.0294 9.17175L25.3424 9.01523ZM25.047 3.00919V2.65919H24.697V3.00919H25.047ZM26.1365 3.00919H26.4865V2.65919H26.1365V3.00919ZM26.5704 8.67822L26.3154 8.91794L26.3167 8.91928L26.5704 8.67822ZM28.5139 8.93213L28.3602 8.61772L28.3588 8.61839L28.5139 8.93213ZM29.2249 8.29506L28.9351 8.09875L28.9337 8.10091L29.2249 8.29506ZM29.5157 7.20095H29.8657V3.00919H29.5157H29.1657V7.20095H29.5157ZM29.5157 3.00919V3.35919H30.6052V3.00919V2.65919H29.5157V3.00919ZM30.6052 3.00919H30.2552V10.1001H30.6052H30.9552V3.00919H30.6052ZM30.6052 10.1001V9.7501H29.5157V10.1001V10.4501H30.6052V10.1001ZM29.5157 10.1001H29.8657V8.89981H29.5157H29.1657V10.1001H29.5157ZM29.5157 8.89981V8.54981H29.4419V8.89981V9.24981H29.5157V8.89981ZM29.4419 8.89981L29.1241 8.75314C28.9854 9.05354 28.7683 9.31401 28.4619 9.53436L28.6663 9.81849L28.8707 10.1026C29.266 9.81824 29.5659 9.46626 29.7596 9.04648L29.4419 8.89981ZM28.6663 9.81849L28.4636 9.53318C28.185 9.73108 27.8175 9.84243 27.3367 9.84243V10.1924V10.5424C27.927 10.5424 28.4458 10.4045 28.869 10.1038L28.6663 9.81849ZM27.3367 10.1924V9.84243C26.9463 9.84243 26.6127 9.75754 26.3265 9.59654L26.1549 9.90159L25.9833 10.2066C26.3865 10.4334 26.8408 10.5424 27.3367 10.5424V10.1924ZM26.1549 9.90159L26.3286 9.5977C26.0503 9.43872 25.825 9.19786 25.6555 8.8587L25.3424 9.01523L25.0294 9.17175C25.2537 9.62047 25.5701 9.97052 25.9813 10.2055L26.1549 9.90159ZM25.3424 9.01523L25.656 8.85967C25.49 8.52521 25.397 8.08261 25.397 7.51487H25.047H24.697C24.697 8.15357 24.8009 8.71121 25.0289 9.17078L25.3424 9.01523ZM25.047 7.51487H25.397V3.00919H25.047H24.697V7.51487H25.047ZM25.047 3.00919V3.35919H26.1365V3.00919V2.65919H25.047V3.00919ZM26.1365 3.00919H25.7865V7.44101H26.1365H26.4865V3.00919H26.1365ZM26.1365 7.44101H25.7865C25.7865 8.0261 25.952 8.53141 26.3154 8.91794L26.5704 8.67822L26.8254 8.4385C26.6102 8.2095 26.4865 7.89 26.4865 7.44101H26.1365ZM26.5704 8.67822L26.3167 8.91928C26.6798 9.30156 27.1463 9.48987 27.6876 9.48987V9.13987V8.78987C27.3241 8.78987 27.0457 8.67042 26.8242 8.43716L26.5704 8.67822ZM27.6876 9.13987V9.48987C28.0199 9.48987 28.3482 9.40455 28.6691 9.24586L28.5139 8.93213L28.3588 8.61839C28.1196 8.7367 27.8969 8.78987 27.6876 8.78987V9.13987ZM28.5139 8.93213L28.6677 9.24653C29.0115 9.07837 29.2942 8.82211 29.5161 8.4892L29.2249 8.29506L28.9337 8.10091C28.774 8.34044 28.5826 8.5089 28.3602 8.61772L28.5139 8.93213ZM29.2249 8.29506L29.5146 8.49135C29.7575 8.13283 29.8657 7.69448 29.8657 7.20095H29.5157H29.1657C29.1657 7.59378 29.08 7.88484 28.9351 8.09876L29.2249 8.29506ZM32.6007 10.1001H32.2507V10.4501H32.6007V10.1001ZM32.6007 3.00919V2.65919H32.2507V3.00919H32.6007ZM33.6902 3.00919H34.0402V2.65919H33.6902V3.00919ZM33.6902 10.1001V10.4501H34.0402V10.1001H33.6902ZM32.6053 1.6104L32.363 1.863L32.3656 1.86542L32.6053 1.6104ZM32.6053 0.567072L32.3656 0.312038L32.363 0.314484L32.6053 0.567072ZM33.6994 0.567072L33.4571 0.819674L33.4597 0.822091L33.6994 0.567072ZM33.6994 1.6104L33.4597 1.35536L33.4571 1.35781L33.6994 1.6104ZM32.6007 10.1001H32.9507V3.00919H32.6007H32.2507V10.1001H32.6007ZM32.6007 3.00919V3.35919H33.6902V3.00919V2.65919H32.6007V3.00919ZM33.6902 3.00919H33.3402V10.1001H33.6902H34.0402V3.00919H33.6902ZM33.6902 10.1001V9.7501H32.6007V10.1001V10.4501H33.6902V10.1001ZM33.1547 1.82737V1.47737C33.0308 1.47737 32.9336 1.43864 32.845 1.35538L32.6053 1.6104L32.3656 1.86542C32.5848 2.07145 32.8538 2.17737 33.1547 2.17737V1.82737ZM32.6053 1.6104L32.8476 1.35781C32.7634 1.27703 32.7291 1.19346 32.7291 1.08873H32.3791H32.0291C32.0291 1.39026 32.1456 1.65446 32.363 1.86298L32.6053 1.6104ZM32.3791 1.08873H32.7291C32.7291 0.984008 32.7634 0.90044 32.8476 0.81966L32.6053 0.567072L32.363 0.314484C32.1456 0.523004 32.0291 0.78721 32.0291 1.08873H32.3791ZM32.6053 0.567072L32.845 0.822092C32.9336 0.738829 33.0308 0.700098 33.1547 0.700098V0.350098V9.72748e-05C32.8538 9.72748e-05 32.5848 0.106016 32.3656 0.312052L32.6053 0.567072ZM33.1547 0.350098V0.700098C33.2783 0.700098 33.3727 0.738644 33.4571 0.81966L33.6994 0.567072L33.9417 0.314483C33.7245 0.106201 33.4557 9.72748e-05 33.1547 9.72748e-05V0.350098ZM33.6994 0.567072L33.4597 0.822091C33.5463 0.903553 33.5802 0.986431 33.5802 1.08873H33.9302H34.2802C34.2802 0.784787 34.1602 0.51989 33.9391 0.312053L33.6994 0.567072ZM33.9302 1.08873H33.5802C33.5802 1.19104 33.5463 1.27391 33.4597 1.35538L33.6994 1.6104L33.9391 1.86542C34.1602 1.65758 34.2802 1.39268 34.2802 1.08873H33.9302ZM33.6994 1.6104L33.4571 1.35781C33.3727 1.43882 33.2783 1.47737 33.1547 1.47737V1.82737V2.17737C33.4557 2.17737 33.7245 2.07127 33.9417 1.86298L33.6994 1.6104ZM35.6856 10.1001H35.3356V10.4501H35.6856V10.1001ZM35.6856 3.00919V2.65919H35.3356V3.00919H35.6856ZM36.7382 3.00919H37.0882V2.65919H36.7382V3.00919ZM36.7382 4.08021H36.3882V4.43021H36.7382V4.08021ZM36.8121 4.08021V4.43021H37.0561L37.1405 4.20121L36.8121 4.08021ZM37.5138 3.22616L37.324 2.9321V2.9321L37.5138 3.22616ZM39.2311 2.91686H39.5811V2.60011L39.2659 2.5686L39.2311 2.91686ZM39.2311 4.02481L39.1462 4.36436L39.5811 4.47308V4.02481H39.2311ZM38.9772 3.98326L38.9196 4.32862L38.9288 4.32991L38.9772 3.98326ZM37.643 4.16792L37.8066 4.47734L37.8079 4.47665L37.643 4.16792ZM37.0059 4.75883L36.7087 4.57398L36.7081 4.57499L37.0059 4.75883ZM36.7751 10.1001V10.4501H37.1251V10.1001H36.7751ZM35.6856 10.1001H36.0356V3.00919H35.6856H35.3356V10.1001H35.6856ZM35.6856 3.00919V3.35919H36.7382V3.00919V2.65919H35.6856V3.00919ZM36.7382 3.00919H36.3882V4.08021H36.7382H37.0882V3.00919H36.7382ZM36.7382 4.08021V4.43021H36.8121V4.08021V3.73021H36.7382V4.08021ZM36.8121 4.08021L37.1405 4.20121C37.2414 3.9272 37.4235 3.70099 37.7036 3.52023L37.5138 3.22616L37.324 2.9321C36.9269 3.18836 36.6412 3.53152 36.4836 3.95921L36.8121 4.08021ZM37.5138 3.22616L37.7036 3.52023C37.9824 3.34025 38.2974 3.24839 38.6586 3.24839V2.89839V2.54839C38.1704 2.54839 37.7222 2.67505 37.324 2.9321L37.5138 3.22616ZM38.6586 2.89839V3.24839C38.7346 3.24839 38.8314 3.24986 38.9497 3.25289L38.9587 2.90301L38.9677 2.55312C38.846 2.55 38.7427 2.54839 38.6586 2.54839V2.89839ZM38.9587 2.90301L38.9497 3.25289C39.0676 3.25592 39.1479 3.26029 39.1963 3.26512L39.2311 2.91686L39.2659 2.5686C39.1911 2.56112 39.0899 2.55626 38.9677 2.55312L38.9587 2.90301ZM39.2311 2.91686H38.8811V4.02481H39.2311H39.5811V2.91686H39.2311ZM39.2311 4.02481L39.316 3.68526C39.2573 3.6706 39.1527 3.65436 39.0256 3.63662L38.9772 3.98326L38.9288 4.32991C38.9936 4.33894 39.0448 4.3466 39.0834 4.35291C39.1026 4.35606 39.1177 4.35871 39.1292 4.36088C39.1348 4.36195 39.1391 4.36282 39.1422 4.36348C39.1454 4.36417 39.1466 4.36447 39.1462 4.36436L39.2311 4.02481ZM38.9772 3.98326L39.0347 3.63803C38.8846 3.61301 38.7283 3.60095 38.5663 3.60095V3.95095V4.30095C38.6936 4.30095 38.8112 4.31044 38.9196 4.3285L38.9772 3.98326ZM38.5663 3.95095V3.60095C38.1713 3.60095 37.8057 3.68427 37.4781 3.8592L37.643 4.16792L37.8079 4.47665C38.022 4.36228 38.272 4.30095 38.5663 4.30095V3.95095ZM37.643 4.16792L37.4794 3.85851C37.158 4.02847 36.8991 4.26796 36.7087 4.57399L37.0059 4.75883L37.3032 4.94368C37.4267 4.74498 37.5925 4.59053 37.8066 4.47734L37.643 4.16792ZM37.0059 4.75883L36.7081 4.57499C36.517 4.8846 36.4251 5.23409 36.4251 5.61288H36.7751H37.1251C37.1251 5.35152 37.1871 5.13165 37.3038 4.94268L37.0059 4.75883ZM36.7751 5.61288H36.4251V10.1001H36.7751H37.1251V5.61288H36.7751ZM36.7751 10.1001V9.7501H35.6856V10.1001V10.4501H36.7751V10.1001ZM44.1788 12.7592H43.8288V13.1092H44.1788V12.7592ZM44.1788 3.00919V2.65919H43.8288V3.00919H44.1788ZM45.2314 3.00919H45.5814V2.65919H45.2314V3.00919ZM45.2314 4.13561H44.8814V4.48561H45.2314V4.13561ZM45.3606 4.13561V4.48561H45.5506L45.6541 4.32635L45.3606 4.13561ZM45.693 3.66473L45.4125 3.45544L45.4119 3.45618L45.693 3.66473ZM46.3116 3.14768L46.4834 3.45264L46.4845 3.45199L46.3116 3.14768ZM48.9892 3.36466L49.181 3.07193V3.07193L48.9892 3.36466ZM50.0556 4.63419L50.3728 4.48628V4.48628L50.0556 4.63419ZM50.0556 8.52588L50.3728 8.67379L50.3731 8.67311L50.0556 8.52588ZM48.9938 9.80003L49.1866 10.0922L49.1879 10.0912L48.9938 9.80003ZM46.3347 10.0216L46.1633 10.3268L46.1659 10.3282L46.3347 10.0216ZM45.7022 9.49996L45.4222 9.70996L45.4238 9.71207L45.7022 9.49996ZM45.3606 9.01061L45.6582 8.82638L45.5556 8.66061H45.3606V9.01061ZM45.2683 9.01061V8.66061H44.9183V9.01061H45.2683ZM45.2683 12.7592V13.1092H45.6183V12.7592H45.2683ZM45.4853 7.9719L45.1585 8.09722L45.1588 8.09804L45.4853 7.9719ZM46.1731 8.92751L45.9604 9.20546L45.9622 9.20683L46.1731 8.92751ZM48.4213 8.90905L48.6379 9.18397L48.6383 9.18369L48.4213 8.90905ZM49.1138 7.93035L48.7867 7.80585L48.7862 7.80719L49.1138 7.93035ZM49.1184 5.20663L48.7906 5.32926L48.7918 5.33227L49.1184 5.20663ZM48.4306 4.25102L48.2157 4.52731L48.2188 4.52968L48.4306 4.25102ZM46.1639 4.23255L46.3711 4.51462L46.373 4.51324L46.1639 4.23255ZM45.4806 5.16508L45.807 5.29157L45.8073 5.29073L45.4806 5.16508ZM44.1788 12.7592H44.5288V3.00919H44.1788H43.8288V12.7592H44.1788ZM44.1788 3.00919V3.35919H45.2314V3.00919V2.65919H44.1788V3.00919ZM45.2314 3.00919H44.8814V4.13561H45.2314H45.5814V3.00919H45.2314ZM45.2314 4.13561V4.48561H45.3606V4.13561V3.78561H45.2314V4.13561ZM45.3606 4.13561L45.6541 4.32635C45.7285 4.21183 45.8345 4.06135 45.9741 3.87327L45.693 3.66473L45.4119 3.45618C45.2683 3.64973 45.1528 3.81317 45.0672 3.94486L45.3606 4.13561ZM45.693 3.66473L45.9735 3.87401C46.0822 3.7283 46.2471 3.58573 46.4834 3.45264L46.3116 3.14768L46.1399 2.84273C45.8407 3.01124 45.5931 3.21337 45.4125 3.45544L45.693 3.66473ZM46.3116 3.14768L46.4845 3.45199C46.6832 3.33909 46.9822 3.26686 47.4103 3.26686V2.91686V2.56686C46.9152 2.56686 46.4817 2.64851 46.1387 2.84337L46.3116 3.14768ZM47.4103 2.91686V3.26686C47.9461 3.26686 48.4043 3.3998 48.7973 3.65739L48.9892 3.36466L49.181 3.07193C48.6631 2.73245 48.0687 2.56686 47.4103 2.56686V2.91686ZM48.9892 3.36466L48.7973 3.65739C49.1925 3.9164 49.5073 4.28658 49.7384 4.7821L50.0556 4.63419L50.3728 4.48628C50.0929 3.88615 49.6968 3.40998 49.181 3.07193L48.9892 3.36466ZM50.0556 4.63419L49.7384 4.7821C49.9678 5.27414 50.0887 5.86783 50.0887 6.57311H50.4387H50.7887C50.7887 5.7888 50.6542 5.08988 50.3728 4.48628L50.0556 4.63419ZM50.4387 6.57311H50.0887C50.0887 7.28494 49.9677 7.88346 49.738 8.37865L50.0556 8.52588L50.3731 8.67311C50.6544 8.0665 50.7887 7.36317 50.7887 6.57311H50.4387ZM50.0556 8.52588L49.7384 8.37797C49.5069 8.87432 49.1929 9.24666 48.7996 9.50881L48.9938 9.80003L49.1879 10.0912C49.6995 9.75017 50.0933 9.27308 50.3728 8.67379L50.0556 8.52588ZM48.9938 9.80003L48.801 9.5079C48.411 9.76528 47.9576 9.89783 47.4288 9.89783V10.2478V10.5978C48.0818 10.5978 48.6718 10.4318 49.1866 10.0922L48.9938 9.80003ZM47.4288 10.2478V9.89783C47.0072 9.89783 46.7074 9.82729 46.5035 9.71501L46.3347 10.0216L46.1659 10.3282C46.5098 10.5176 46.9394 10.5978 47.4288 10.5978V10.2478ZM46.3347 10.0216L46.5061 9.71647C46.2623 9.5795 46.0924 9.43448 45.9806 9.28784L45.7022 9.49996L45.4238 9.71207C45.6076 9.95321 45.8592 10.156 46.1633 10.3268L46.3347 10.0216ZM45.7022 9.49996L45.9822 9.28996C45.8374 9.0969 45.7305 8.9431 45.6582 8.82638L45.3606 9.01061L45.063 9.19483C45.1508 9.33664 45.2716 9.50907 45.4222 9.70996L45.7022 9.49996ZM45.3606 9.01061V8.66061H45.2683V9.01061V9.36061H45.3606V9.01061ZM45.2683 9.01061H44.9183V12.7592H45.2683H45.6183V9.01061H45.2683ZM45.2683 12.7592V12.4092H44.1788V12.7592V13.1092H45.2683V12.7592ZM45.2498 6.55464H44.8998C44.8998 7.12379 44.9832 7.64011 45.1585 8.09721L45.4853 7.9719L45.8121 7.84659C45.6734 7.48503 45.5998 7.05651 45.5998 6.55464H45.2498ZM45.4853 7.9719L45.1588 8.09804C45.3355 8.5554 45.6005 8.93 45.9604 9.20546L46.1731 8.92751L46.3858 8.64957C46.1425 8.46338 45.949 8.2009 45.8117 7.84576L45.4853 7.9719ZM46.1731 8.92751L45.9622 9.20683C46.3338 9.48739 46.7803 9.61913 47.2811 9.61913V9.26913V8.91913C46.9078 8.91913 46.6157 8.82313 46.384 8.6482L46.1731 8.92751ZM47.2811 9.26913V9.61913C47.8009 9.61913 48.2612 9.48081 48.6379 9.18397L48.4213 8.90905L48.2047 8.63412C47.9721 8.8174 47.6722 8.91913 47.2811 8.91913V9.26913ZM48.4213 8.90905L48.6383 9.18369C49.0016 8.89665 49.2678 8.51542 49.4414 8.05352L49.1138 7.93035L48.7862 7.80719C48.6521 8.16394 48.4566 8.43517 48.2044 8.63441L48.4213 8.90905ZM49.1138 7.93035L49.4409 8.05485C49.615 7.59739 49.6993 7.09587 49.6993 6.55464H49.3493H48.9993C48.9993 7.02288 48.9265 7.4385 48.7867 7.80586L49.1138 7.93035ZM49.3493 6.55464H49.6993C49.6993 6.02 49.6167 5.52715 49.4451 5.08099L49.1184 5.20663L48.7918 5.33227C48.9279 5.68631 48.9993 6.09213 48.9993 6.55464H49.3493ZM49.1184 5.20663L49.4462 5.08401C49.275 4.62617 49.0086 4.25072 48.6424 3.97236L48.4306 4.25102L48.2188 4.52968C48.4681 4.71913 48.6603 4.98075 48.7906 5.32925L49.1184 5.20663ZM48.4306 4.25102L48.6455 3.97475C48.2679 3.68113 47.8048 3.54555 47.2811 3.54555V3.89555V4.24555C47.6807 4.24555 47.9838 4.34696 48.2157 4.52729L48.4306 4.25102ZM47.2811 3.89555V3.54555C46.7764 3.54555 46.3271 3.67455 45.9548 3.95187L46.1639 4.23255L46.373 4.51324C46.6039 4.34122 46.8993 4.24555 47.2811 4.24555V3.89555ZM46.1639 4.23255L45.9567 3.9505C45.5936 4.21725 45.3283 4.58617 45.154 5.03944L45.4806 5.16508L45.8073 5.29073C45.9407 4.94381 46.131 4.69104 46.3711 4.51461L46.1639 4.23255ZM45.4806 5.16508L45.1543 5.03859C44.9815 5.48444 44.8998 5.99217 44.8998 6.55464H45.2498H45.5998C45.5998 6.0584 45.672 5.63976 45.807 5.29157L45.4806 5.16508ZM52.1007 10.1001H51.7507V10.4501H52.1007V10.1001ZM52.1007 3.00919V2.65919H51.7507V3.00919H52.1007ZM53.1532 3.00919H53.5032V2.65919H53.1532V3.00919ZM53.1532 4.08021H52.8032V4.43021H53.1532V4.08021ZM53.2271 4.08021V4.43021H53.4711L53.5555 4.20121L53.2271 4.08021ZM53.9288 3.22616L53.739 2.9321V2.9321L53.9288 3.22616ZM55.6461 2.91686H55.9961V2.60011L55.681 2.5686L55.6461 2.91686ZM55.6461 4.02481L55.5612 4.36436L55.9961 4.47308V4.02481H55.6461ZM55.3922 3.98326L55.3347 4.32862L55.3439 4.32991L55.3922 3.98326ZM54.0581 4.16792L54.2217 4.47734L54.2229 4.47665L54.0581 4.16792ZM53.421 4.75883L53.1238 4.57398L53.1232 4.57499L53.421 4.75883ZM53.1902 10.1001V10.4501H53.5402V10.1001H53.1902ZM52.1007 10.1001H52.4507V3.00919H52.1007H51.7507V10.1001H52.1007ZM52.1007 3.00919V3.35919H53.1532V3.00919V2.65919H52.1007V3.00919ZM53.1532 3.00919H52.8032V4.08021H53.1532H53.5032V3.00919H53.1532ZM53.1532 4.08021V4.43021H53.2271V4.08021V3.73021H53.1532V4.08021ZM53.2271 4.08021L53.5555 4.20121C53.6565 3.9272 53.8386 3.70099 54.1186 3.52023L53.9288 3.22616L53.739 2.9321C53.342 3.18836 53.0562 3.53152 52.8987 3.95921L53.2271 4.08021ZM53.9288 3.22616L54.1186 3.52023C54.3974 3.34025 54.7125 3.24839 55.0737 3.24839V2.89839V2.54839C54.5855 2.54839 54.1372 2.67505 53.739 2.9321L53.9288 3.22616ZM55.0737 2.89839V3.24839C55.1496 3.24839 55.2464 3.24986 55.3648 3.25289L55.3738 2.90301L55.3827 2.55312C55.261 2.55 55.1578 2.54839 55.0737 2.54839V2.89839ZM55.3738 2.90301L55.3648 3.25289C55.4826 3.25592 55.563 3.26029 55.6113 3.26512L55.6461 2.91686L55.681 2.5686C55.6062 2.56112 55.505 2.55626 55.3827 2.55312L55.3738 2.90301ZM55.6461 2.91686H55.2961V4.02481H55.6461H55.9961V2.91686H55.6461ZM55.6461 4.02481L55.731 3.68526C55.6724 3.6706 55.5677 3.65436 55.4406 3.63662L55.3922 3.98326L55.3439 4.32991C55.4086 4.33894 55.4599 4.3466 55.4984 4.35291C55.5177 4.35606 55.5328 4.35871 55.5442 4.36088C55.5499 4.36195 55.5541 4.36282 55.5573 4.36348C55.5605 4.36417 55.5617 4.36447 55.5612 4.36436L55.6461 4.02481ZM55.3922 3.98326L55.4498 3.63803C55.2996 3.61301 55.1433 3.60095 54.9814 3.60095V3.95095V4.30095C55.1087 4.30095 55.2263 4.31044 55.3347 4.3285L55.3922 3.98326ZM54.9814 3.95095V3.60095C54.5863 3.60095 54.2207 3.68427 53.8932 3.8592L54.0581 4.16792L54.2229 4.47665C54.4371 4.36228 54.687 4.30095 54.9814 4.30095V3.95095ZM54.0581 4.16792L53.8945 3.85851C53.573 4.02847 53.3141 4.26796 53.1238 4.57399L53.421 4.75883L53.7182 4.94368C53.8418 4.74498 54.0076 4.59053 54.2217 4.47734L54.0581 4.16792ZM53.421 4.75883L53.1232 4.57499C52.932 4.8846 52.8402 5.23409 52.8402 5.61288H53.1902H53.5402C53.5402 5.35152 53.6022 5.13165 53.7188 4.94268L53.421 4.75883ZM53.1902 5.61288H52.8402V10.1001H53.1902H53.5402V5.61288H53.1902ZM53.1902 10.1001V9.7501H52.1007V10.1001V10.4501H53.1902V10.1001ZM57.9174 9.79079L57.7299 10.0863L57.7308 10.0868L57.9174 9.79079ZM56.791 8.51203L56.4766 8.66572L56.4773 8.66714L56.791 8.51203ZM56.791 4.65727L56.4769 4.50285L56.4762 4.50427L56.791 4.65727ZM57.9174 3.37389L57.7308 3.07783L57.7299 3.07837L57.9174 3.37389ZM61.2828 3.37389L61.0953 3.66941L61.0962 3.66995L61.2828 3.37389ZM62.4093 4.65727L62.0945 4.81027L62.0952 4.81169L62.4093 4.65727ZM62.4093 8.51203L62.0955 8.35691L62.0948 8.35834L62.4093 8.51203ZM61.2828 9.79079L61.0962 9.49474L61.0953 9.49528L61.2828 9.79079ZM60.8027 8.8952L60.5851 8.62111V8.62111L60.8027 8.8952ZM61.4998 7.91189L61.8279 8.03369V8.03369L61.4998 7.91189ZM61.4998 5.26665L61.8282 5.14565V5.14565L61.4998 5.26665ZM60.8027 4.2741L61.022 4.00132V4.00132L60.8027 4.2741ZM58.4022 4.2741L58.1829 4.00132V4.00132L58.4022 4.2741ZM57.7051 5.26665L57.3767 5.14565V5.14565L57.7051 5.26665ZM57.7051 7.91189L57.377 8.03369V8.03369L57.7051 7.91189ZM58.4022 8.8952L58.6198 8.62111V8.62111L58.4022 8.8952ZM59.6025 10.2478V9.89783C59.0202 9.89783 58.5249 9.76005 58.1041 9.49474L57.9174 9.79079L57.7308 10.0868C58.2764 10.4309 58.9044 10.5978 59.6025 10.5978V10.2478ZM57.9174 9.79079L58.105 9.49528C57.6831 9.22752 57.3494 8.85172 57.1048 8.35692L56.791 8.51203L56.4773 8.66714C56.7743 9.26798 57.1916 9.74469 57.7299 10.0863L57.9174 9.79079ZM56.791 8.51203L57.1055 8.35834C56.8653 7.86706 56.7394 7.28138 56.7394 6.59157H56.3894H56.0394C56.0394 7.36673 56.1812 8.06136 56.4766 8.66572L56.791 8.51203ZM56.3894 6.59157H56.7394C56.7394 5.89518 56.8655 5.30468 57.1058 4.81027L56.791 4.65727L56.4762 4.50427C56.181 5.11167 56.0394 5.81069 56.0394 6.59157H56.3894ZM56.791 4.65727L57.1051 4.81169C57.3499 4.31379 57.6835 3.93685 58.105 3.66941L57.9174 3.37389L57.7299 3.07837C57.1911 3.4203 56.7738 3.89895 56.4769 4.50286L56.791 4.65727ZM57.9174 3.37389L58.1041 3.66995C58.5249 3.40464 59.0202 3.26686 59.6025 3.26686V2.91686V2.56686C58.9044 2.56686 58.2764 2.73377 57.7308 3.07784L57.9174 3.37389ZM59.6025 2.91686V3.26686C60.1848 3.26686 60.6781 3.40465 61.0953 3.66941L61.2828 3.37389L61.4704 3.07837C60.9274 2.73376 60.3004 2.56686 59.6025 2.56686V2.91686ZM61.2828 3.37389L61.0962 3.66995C61.5201 3.93729 61.8531 4.31365 62.0945 4.81027L62.4093 4.65727L62.7241 4.50427C62.4299 3.8991 62.0119 3.41986 61.4695 3.07783L61.2828 3.37389ZM62.4093 4.65727L62.0952 4.81169C62.3381 5.30574 62.4655 5.89573 62.4655 6.59157H62.8155H63.1655C63.1655 5.81015 63.0221 5.1106 62.7234 4.50286L62.4093 4.65727ZM62.8155 6.59157H62.4655C62.4655 7.28082 62.3382 7.86598 62.0955 8.35692L62.4093 8.51203L62.723 8.66714C63.022 8.06243 63.1655 7.36729 63.1655 6.59157H62.8155ZM62.4093 8.51203L62.0948 8.35834C61.8536 8.85187 61.5206 9.22708 61.0962 9.49474L61.2828 9.79079L61.4695 10.0868C62.0114 9.74513 62.4294 9.26784 62.7237 8.66572L62.4093 8.51203ZM61.2828 9.79079L61.0953 9.49528C60.6781 9.76004 60.1848 9.89783 59.6025 9.89783V10.2478V10.5978C60.3004 10.5978 60.9274 10.4309 61.4704 10.0863L61.2828 9.79079ZM59.6025 9.26913V9.61913C60.1504 9.61913 60.6322 9.47755 61.0204 9.16929L60.8027 8.8952L60.5851 8.62111C60.3454 8.81143 60.0271 8.91913 59.6025 8.91913V9.26913ZM60.8027 8.8952L61.0204 9.16929C61.3884 8.87706 61.6568 8.4948 61.8279 8.03369L61.4998 7.91189L61.1717 7.79008C61.0413 8.14147 60.8449 8.41476 60.5851 8.62111L60.8027 8.8952ZM61.4998 7.91189L61.8279 8.03369C61.9945 7.58497 62.076 7.10321 62.076 6.59157H61.726H61.376C61.376 7.02785 61.3067 7.42631 61.1717 7.79008L61.4998 7.91189ZM61.726 6.59157H62.076C62.076 6.0799 61.9945 5.59694 61.8282 5.14565L61.4998 5.26665L61.1714 5.38764C61.3067 5.75501 61.376 6.15533 61.376 6.59157H61.726ZM61.4998 5.26665L61.8282 5.14565C61.6574 4.68189 61.3895 4.29674 61.022 4.00132L60.8027 4.2741L60.5834 4.54688C60.8438 4.7562 61.0407 5.03275 61.1714 5.38764L61.4998 5.26665ZM60.8027 4.2741L61.022 4.00132C60.6338 3.68922 60.1514 3.54555 59.6025 3.54555V3.89555V4.24555C60.0261 4.24555 60.3438 4.35426 60.5834 4.54688L60.8027 4.2741ZM59.6025 3.89555V3.54555C59.0535 3.54555 58.5711 3.68922 58.1829 4.00132L58.4022 4.2741L58.6215 4.54688C58.8611 4.35426 59.1788 4.24555 59.6025 4.24555V3.89555ZM58.4022 4.2741L58.1829 4.00132C57.8154 4.29674 57.5475 4.68189 57.3767 5.14565L57.7051 5.26665L58.0335 5.38764C58.1642 5.03275 58.3611 4.7562 58.6215 4.54688L58.4022 4.2741ZM57.7051 5.26665L57.3767 5.14565C57.2104 5.59694 57.1289 6.0799 57.1289 6.59157H57.4789H57.8289C57.8289 6.15533 57.8982 5.75501 58.0335 5.38764L57.7051 5.26665ZM57.4789 6.59157H57.1289C57.1289 7.10321 57.2104 7.58497 57.377 8.03369L57.7051 7.91189L58.0332 7.79008C57.8982 7.42631 57.8289 7.02785 57.8289 6.59157H57.4789ZM57.7051 7.91189L57.377 8.03369C57.5481 8.4948 57.8165 8.87706 58.1845 9.16929L58.4022 8.8952L58.6198 8.62111C58.36 8.41476 58.1636 8.14147 58.0332 7.79008L57.7051 7.91189ZM58.4022 8.8952L58.1845 9.16929C58.5727 9.47755 59.0545 9.61913 59.6025 9.61913V9.26913V8.91913C59.1778 8.91913 58.8595 8.81143 58.6198 8.62111L58.4022 8.8952ZM65.5912 9.80003L65.397 10.0912L65.3984 10.0922L65.5912 9.80003ZM64.5294 8.52588L64.2119 8.67311L64.2122 8.67379L64.5294 8.52588ZM64.5294 4.63419L64.2122 4.48628V4.48628L64.5294 4.63419ZM65.5958 3.36466L65.4039 3.07193V3.07193L65.5958 3.36466ZM68.2687 3.14768L68.0943 3.45117L68.0985 3.45347L68.2687 3.14768ZM68.8873 3.66473L68.6046 3.87115L68.6084 3.87616L68.8873 3.66473ZM69.2243 4.13561L68.9309 4.32635L69.0344 4.48561H69.2243V4.13561ZM69.3167 4.13561V4.48561H69.6667V4.13561H69.3167ZM69.3167 0.645552V0.295552H68.9667V0.645552H69.3167ZM70.4062 0.645552H70.7562V0.295552H70.4062V0.645552ZM70.4062 10.1001V10.4501H70.7562V10.1001H70.4062ZM69.3536 10.1001H69.0036V10.4501H69.3536V10.1001ZM69.3536 9.01061H69.7036V8.66061H69.3536V9.01061ZM69.2243 9.01061V8.66061H69.0294L68.9268 8.82639L69.2243 9.01061ZM68.8827 9.49996L69.1611 9.71208L69.1627 9.70996L68.8827 9.49996ZM68.2503 10.0216L68.4191 10.3282L68.4217 10.3268L68.2503 10.0216ZM68.4118 8.92751L68.6228 9.20683L68.6246 9.20546L68.4118 8.92751ZM69.0997 7.9719L69.4262 8.09804L69.4265 8.09721L69.0997 7.9719ZM69.1043 5.16508L68.7776 5.29073L68.778 5.29157L69.1043 5.16508ZM68.4211 4.23255L68.212 4.51325L68.2139 4.51461L68.4211 4.23255ZM66.1498 4.25102L66.3629 4.52865L66.3633 4.52834L66.1498 4.25102ZM65.4619 5.20663L65.1349 5.08182L65.1344 5.08319L65.4619 5.20663ZM65.4665 7.93035L65.1386 8.05272L65.1397 8.05567L65.4665 7.93035ZM66.159 8.90905L65.9407 9.18264L65.9437 9.18502L66.159 8.90905ZM67.1562 10.2478V9.89783C66.6273 9.89783 66.174 9.76528 65.7839 9.5079L65.5912 9.80003L65.3984 10.0922C65.9132 10.4318 66.5032 10.5978 67.1562 10.5978V10.2478ZM65.5912 9.80003L65.7853 9.50881C65.3921 9.24666 65.078 8.87432 64.8466 8.37797L64.5294 8.52588L64.2122 8.67379C64.4916 9.27308 64.8854 9.75017 65.397 10.0912L65.5912 9.80003ZM64.5294 8.52588L64.8469 8.37865C64.6173 7.88346 64.4962 7.28494 64.4962 6.57311H64.1462H63.7962C63.7962 7.36317 63.9306 8.0665 64.2119 8.67311L64.5294 8.52588ZM64.1462 6.57311H64.4962C64.4962 5.86783 64.6172 5.27414 64.8466 4.7821L64.5294 4.63419L64.2122 4.48628C63.9307 5.08988 63.7962 5.7888 63.7962 6.57311H64.1462ZM64.5294 4.63419L64.8466 4.7821C65.0777 4.28658 65.3924 3.9164 65.7877 3.65739L65.5958 3.36466L65.4039 3.07193C64.8882 3.40998 64.492 3.88615 64.2122 4.48628L64.5294 4.63419ZM65.5958 3.36466L65.7877 3.65739C66.1807 3.3998 66.6389 3.26686 67.1746 3.26686V2.91686V2.56686C66.5162 2.56686 65.9219 2.73245 65.4039 3.07193L65.5958 3.36466ZM67.1746 2.91686V3.26686C67.6031 3.26686 67.8996 3.33921 68.0943 3.45114L68.2687 3.14768L68.4431 2.84423C68.1024 2.64839 67.6694 2.56686 67.1746 2.56686V2.91686ZM68.2687 3.14768L68.0985 3.45347C68.3375 3.58655 68.5003 3.72817 68.6047 3.87112L68.8873 3.66473L69.17 3.45833C68.9912 3.2135 68.7417 3.01042 68.439 2.84189L68.2687 3.14768ZM68.8873 3.66473L68.6084 3.87616C68.7507 4.06387 68.8574 4.2133 68.9309 4.32635L69.2243 4.13561L69.5178 3.94486C69.4312 3.8117 69.3133 3.64721 69.1663 3.45329L68.8873 3.66473ZM69.2243 4.13561V4.48561H69.3167V4.13561V3.78561H69.2243V4.13561ZM69.3167 4.13561H69.6667V0.645552H69.3167H68.9667V4.13561H69.3167ZM69.3167 0.645552V0.995552H70.4062V0.645552V0.295552H69.3167V0.645552ZM70.4062 0.645552H70.0562V10.1001H70.4062H70.7562V0.645552H70.4062ZM70.4062 10.1001V9.7501H69.3536V10.1001V10.4501H70.4062V10.1001ZM69.3536 10.1001H69.7036V9.01061H69.3536H69.0036V10.1001H69.3536ZM69.3536 9.01061V8.66061H69.2243V9.01061V9.36061H69.3536V9.01061ZM69.2243 9.01061L68.9268 8.82639C68.8545 8.9431 68.7475 9.0969 68.6027 9.28996L68.8827 9.49996L69.1627 9.70996C69.3134 9.50907 69.4342 9.33664 69.5219 9.19483L69.2243 9.01061ZM68.8827 9.49996L68.6043 9.28784C68.4926 9.43448 68.3226 9.5795 68.0788 9.71647L68.2503 10.0216L68.4217 10.3268C68.7257 10.156 68.9774 9.95321 69.1611 9.71207L68.8827 9.49996ZM68.2503 10.0216L68.0815 9.71501C67.8775 9.82729 67.5778 9.89783 67.1562 9.89783V10.2478V10.5978C67.6455 10.5978 68.0752 10.5176 68.4191 10.3282L68.2503 10.0216ZM67.3039 9.26913V9.61913C67.8046 9.61913 68.2512 9.48739 68.6228 9.20683L68.4118 8.92751L68.2009 8.6482C67.9693 8.82313 67.6772 8.91913 67.3039 8.91913V9.26913ZM68.4118 8.92751L68.6246 9.20546C68.9845 8.93 69.2495 8.5554 69.4262 8.09804L69.0997 7.9719L68.7732 7.84576C68.636 8.2009 68.4424 8.46338 68.1991 8.64957L68.4118 8.92751ZM69.0997 7.9719L69.4265 8.09721C69.6018 7.64011 69.6851 7.12379 69.6851 6.55464H69.3351H68.9851C68.9851 7.05651 68.9115 7.48503 68.7729 7.84659L69.0997 7.9719ZM69.3351 6.55464H69.6851C69.6851 5.99217 69.6035 5.48444 69.4307 5.03859L69.1043 5.16508L68.778 5.29157C68.9129 5.63976 68.9851 6.0584 68.9851 6.55464H69.3351ZM69.1043 5.16508L69.431 5.03944C69.2567 4.58617 68.9914 4.21725 68.6283 3.9505L68.4211 4.23255L68.2139 4.51461C68.454 4.69104 68.6442 4.94381 68.7776 5.29073L69.1043 5.16508ZM68.4211 4.23255L68.6302 3.95187C68.2579 3.67455 67.8085 3.54555 67.3039 3.54555V3.89555V4.24555C67.6856 4.24555 67.9811 4.34122 68.212 4.51324L68.4211 4.23255ZM67.3039 3.89555V3.54555C66.7801 3.54555 66.3162 3.68116 65.9362 3.97371L66.1498 4.25102L66.3633 4.52834C66.5989 4.34692 66.9044 4.24555 67.3039 4.24555V3.89555ZM66.1498 4.25102L65.9366 3.97339C65.5744 4.25144 65.309 4.62583 65.1349 5.08183L65.4619 5.20663L65.7889 5.33144C65.9226 4.98109 66.1157 4.7184 66.3629 4.52865L66.1498 4.25102ZM65.4619 5.20663L65.1344 5.08319C64.9665 5.5287 64.8857 6.02078 64.8857 6.55464H65.2357H65.5857C65.5857 6.09135 65.6557 5.68475 65.7894 5.33008L65.4619 5.20663ZM65.2357 6.55464H64.8857C64.8857 7.09511 64.9682 7.59587 65.1386 8.05271L65.4665 7.93035L65.7944 7.808C65.6571 7.44002 65.5857 7.02365 65.5857 6.55464H65.2357ZM65.4665 7.93035L65.1397 8.05567C65.3162 8.51578 65.5814 8.89594 65.9407 9.18262L66.159 8.90905L66.3773 8.63547C66.1272 8.43589 65.9308 8.16358 65.7933 7.80504L65.4665 7.93035ZM66.159 8.90905L65.9437 9.18502C66.3229 9.48078 66.784 9.61913 67.3039 9.61913V9.26913V8.91913C66.9128 8.91913 66.6106 8.81743 66.3743 8.63307L66.159 8.90905ZM77.0216 3.00919V2.65919H76.6716V3.00919H77.0216ZM78.1111 3.00919H78.4611V2.65919H78.1111V3.00919ZM78.1111 10.1001V10.4501H78.4611V10.1001H78.1111ZM77.0216 10.1001H76.6716V10.4501H77.0216V10.1001ZM77.0216 8.89981H77.3716V8.54981H77.0216V8.89981ZM76.9477 8.89981V8.54981H76.7238L76.6299 8.75314L76.9477 8.89981ZM76.1721 9.81849L76.3749 10.1038L76.3765 10.1026L76.1721 9.81849ZM73.6608 9.90159L73.4871 10.2055L73.4892 10.2066L73.6608 9.90159ZM72.8483 9.01523L72.5347 9.17078L72.5352 9.17175L72.8483 9.01523ZM72.5528 3.00919V2.65919H72.2028V3.00919H72.5528ZM73.6423 3.00919H73.9923V2.65919H73.6423V3.00919ZM74.0763 8.67822L73.8212 8.91794L73.8225 8.91928L74.0763 8.67822ZM76.0198 8.93213L75.866 8.61772L75.8647 8.61839L76.0198 8.93213ZM76.7307 8.29506L76.441 8.09875L76.4395 8.10091L76.7307 8.29506ZM77.0216 7.20095H77.3716V3.00919H77.0216H76.6716V7.20095H77.0216ZM77.0216 3.00919V3.35919H78.1111V3.00919V2.65919H77.0216V3.00919ZM78.1111 3.00919H77.7611V10.1001H78.1111H78.4611V3.00919H78.1111ZM78.1111 10.1001V9.7501H77.0216V10.1001V10.4501H78.1111V10.1001ZM77.0216 10.1001H77.3716V8.89981H77.0216H76.6716V10.1001H77.0216ZM77.0216 8.89981V8.54981H76.9477V8.89981V9.24981H77.0216V8.89981ZM76.9477 8.89981L76.6299 8.75314C76.4913 9.05354 76.2741 9.31401 75.9678 9.53436L76.1721 9.81849L76.3765 10.1026C76.7719 9.81824 77.0718 9.46626 77.2655 9.04648L76.9477 8.89981ZM76.1721 9.81849L75.9694 9.53318C75.6909 9.73108 75.3234 9.84243 74.8426 9.84243V10.1924V10.5424C75.4328 10.5424 75.9517 10.4045 76.3749 10.1038L76.1721 9.81849ZM74.8426 10.1924V9.84243C74.4521 9.84243 74.1186 9.75754 73.8324 9.59654L73.6608 9.90159L73.4892 10.2066C73.8924 10.4334 74.3467 10.5424 74.8426 10.5424V10.1924ZM73.6608 9.90159L73.8344 9.5977C73.5562 9.43872 73.3309 9.19786 73.1613 8.8587L72.8483 9.01523L72.5352 9.17175C72.7596 9.62047 73.076 9.97052 73.4871 10.2055L73.6608 9.90159ZM72.8483 9.01523L73.1618 8.85967C72.9959 8.52521 72.9028 8.08261 72.9028 7.51487H72.5528H72.2028C72.2028 8.15357 72.3067 8.71121 72.5347 9.17078L72.8483 9.01523ZM72.5528 7.51487H72.9028V3.00919H72.5528H72.2028V7.51487H72.5528ZM72.5528 3.00919V3.35919H73.6423V3.00919V2.65919H72.5528V3.00919ZM73.6423 3.00919H73.2923V7.44101H73.6423H73.9923V3.00919H73.6423ZM73.6423 7.44101H73.2923C73.2923 8.0261 73.4579 8.53141 73.8212 8.91794L74.0763 8.67822L74.3313 8.4385C74.116 8.2095 73.9923 7.89 73.9923 7.44101H73.6423ZM74.0763 8.67822L73.8225 8.91928C74.1857 9.30156 74.6521 9.48987 75.1935 9.48987V9.13987V8.78987C74.8299 8.78987 74.5516 8.67042 74.33 8.43716L74.0763 8.67822ZM75.1935 9.13987V9.48987C75.5258 9.48987 75.854 9.40455 76.1749 9.24586L76.0198 8.93213L75.8647 8.61839C75.6254 8.7367 75.4028 8.78987 75.1935 8.78987V9.13987ZM76.0198 8.93213L76.1736 9.24653C76.5174 9.07837 76.8 8.82211 77.0219 8.4892L76.7307 8.29506L76.4395 8.10091C76.2798 8.34044 76.0885 8.5089 75.866 8.61772L76.0198 8.93213ZM76.7307 8.29506L77.0205 8.49135C77.2634 8.13283 77.3716 7.69448 77.3716 7.20095H77.0216H76.6716C76.6716 7.59378 76.5859 7.88484 76.441 8.09876L76.7307 8.29506ZM83.1903 3.00919H83.5403V2.65919H83.1903V3.00919ZM83.1903 3.93248V4.28248H83.5403V3.93248H83.1903ZM79.5156 3.93248H79.1656V4.28248H79.5156V3.93248ZM79.5156 3.00919V2.65919H79.1656V3.00919H79.5156ZM80.5866 1.31032V0.960325H80.2366V1.31032H80.5866ZM81.6761 1.31032H82.0261V0.960325H81.6761V1.31032ZM81.81 8.76132L81.5072 8.93697L81.5115 8.94407L81.81 8.76132ZM82.1609 9.06601L82.0395 9.39441L82.0481 9.39733L82.1609 9.06601ZM82.9134 9.1214L82.9687 9.46727L82.982 9.46461L82.9134 9.1214ZM83.098 9.08447L83.4394 9.00718L83.364 8.67434L83.0294 8.74127L83.098 9.08447ZM83.3196 10.0632L83.4425 10.3909L83.7284 10.2837L83.661 9.98588L83.3196 10.0632ZM83.0103 10.1463L82.9386 9.8036L82.931 9.80536L83.0103 10.1463ZM81.6023 9.99392L81.4579 10.3128L81.4592 10.3133L81.6023 9.99392ZM80.8729 9.38916L80.5867 9.59075L80.5883 9.5929L80.8729 9.38916ZM83.1903 3.00919H82.8403V3.93248H83.1903H83.5403V3.00919H83.1903ZM83.1903 3.93248V3.58248H79.5156V3.93248V4.28248H83.1903V3.93248ZM79.5156 3.93248H79.8656V3.00919H79.5156H79.1656V3.93248H79.5156ZM79.5156 3.00919V3.35919H83.1903V3.00919V2.65919H79.5156V3.00919ZM80.5866 1.31032V1.66033H81.6761V1.31032V0.960325H80.5866V1.31032ZM81.6761 1.31032H81.3261V8.06885H81.6761H82.0261V1.31032H81.6761ZM81.6761 8.06885H81.3261C81.3261 8.39898 81.372 8.7037 81.5073 8.93692L81.81 8.76132L82.1128 8.58572C82.0695 8.51117 82.0261 8.35425 82.0261 8.06885H81.6761ZM81.81 8.76132L81.5115 8.94407C81.6375 9.14992 81.8121 9.31024 82.0395 9.39431L82.1609 9.06601L82.2822 8.73771C82.2265 8.71714 82.1671 8.67433 82.1085 8.57857L81.81 8.76132ZM82.1609 9.06601L82.0481 9.39733C82.2307 9.45952 82.4213 9.48987 82.6179 9.48987V9.13987V8.78987C82.4944 8.78987 82.3803 8.77098 82.2737 8.73468L82.1609 9.06601ZM82.6179 9.13987V9.48987C82.7477 9.48987 82.8664 9.48336 82.9687 9.46701L82.9134 9.1214L82.8581 8.7758C82.8064 8.78407 82.7282 8.78987 82.6179 8.78987V9.13987ZM82.9134 9.1214L82.982 9.46461C83.0589 9.44922 83.1205 9.43691 83.1666 9.42768L83.098 9.08447L83.0294 8.74127C82.9832 8.7505 82.9217 8.76281 82.8447 8.7782L82.9134 9.1214ZM83.098 9.08447L82.7567 9.16176L82.9782 10.1405L83.3196 10.0632L83.661 9.98588L83.4394 9.00718L83.098 9.08447ZM83.3196 10.0632L83.1967 9.73545C83.1471 9.75403 83.0639 9.77745 82.9386 9.80369L83.0103 10.1463L83.082 10.4888C83.2213 10.4597 83.3443 10.4277 83.4425 10.3909L83.3196 10.0632ZM83.0103 10.1463L82.931 9.80536C82.8341 9.82791 82.6953 9.84243 82.5071 9.84243V10.1924V10.5424C82.7252 10.5424 82.9219 10.5262 83.0896 10.4872L83.0103 10.1463ZM82.5071 10.1924V9.84243C82.2512 9.84243 81.9982 9.78775 81.7453 9.6745L81.6023 9.99392L81.4592 10.3133C81.7973 10.4648 82.1475 10.5424 82.5071 10.5424V10.1924ZM81.6023 9.99392L81.7466 9.67506C81.5125 9.56908 81.3169 9.4082 81.1575 9.18542L80.8729 9.38916L80.5883 9.5929C80.8166 9.91179 81.1073 10.1541 81.4579 10.3128L81.6023 9.99392ZM80.8729 9.38916L81.159 9.18758C81.019 8.98881 80.9366 8.72236 80.9366 8.3643H80.5866H80.2366C80.2366 8.83105 80.3452 9.24784 80.5868 9.59074L80.8729 9.38916ZM80.5866 8.3643H80.9366V1.31032H80.5866H80.2366V8.3643H80.5866ZM85.9487 9.79079L85.7611 10.0863L85.762 10.0868L85.9487 9.79079ZM84.8223 8.51203L84.5078 8.66572L84.5085 8.66714L84.8223 8.51203ZM84.8223 4.65727L84.5082 4.50285L84.5075 4.50427L84.8223 4.65727ZM85.9487 3.37389L85.762 3.07783L85.7611 3.07837L85.9487 3.37389ZM89.3141 3.37389L89.1266 3.66941L89.1274 3.66995L89.3141 3.37389ZM90.4405 4.65727L90.1257 4.81027L90.1264 4.81169L90.4405 4.65727ZM90.4405 8.51203L90.1268 8.35691L90.1261 8.35834L90.4405 8.51203ZM89.3141 9.79079L89.1274 9.49474L89.1266 9.49528L89.3141 9.79079ZM88.834 8.8952L88.6163 8.62111V8.62111L88.834 8.8952ZM89.5311 7.91189L89.8592 8.03369V8.03369L89.5311 7.91189ZM89.5311 5.26665L89.8595 5.14565V5.14565L89.5311 5.26665ZM88.834 4.2741L89.0533 4.00132V4.00132L88.834 4.2741ZM86.4334 4.2741L86.2141 4.00132V4.00132L86.4334 4.2741ZM85.7363 5.26665L85.4079 5.14565V5.14565L85.7363 5.26665ZM85.7363 7.91189L85.4082 8.03369V8.03369L85.7363 7.91189ZM86.4334 8.8952L86.6511 8.62111V8.62111L86.4334 8.8952ZM87.6337 10.2478V9.89783C87.0514 9.89783 86.5561 9.76005 86.1354 9.49474L85.9487 9.79079L85.762 10.0868C86.3076 10.4309 86.9357 10.5978 87.6337 10.5978V10.2478ZM85.9487 9.79079L86.1362 9.49528C85.7143 9.22752 85.3806 8.85172 85.136 8.35692L84.8223 8.51203L84.5085 8.66714C84.8056 9.26798 85.2228 9.74469 85.7611 10.0863L85.9487 9.79079ZM84.8223 8.51203L85.1367 8.35834C84.8966 7.86706 84.7706 7.28138 84.7706 6.59157H84.4206H84.0706C84.0706 7.36673 84.2124 8.06136 84.5078 8.66572L84.8223 8.51203ZM84.4206 6.59157H84.7706C84.7706 5.89518 84.8968 5.30468 85.1371 4.81027L84.8223 4.65727L84.5075 4.50427C84.2123 5.11167 84.0706 5.81069 84.0706 6.59157H84.4206ZM84.8223 4.65727L85.1364 4.81169C85.3811 4.31379 85.7148 3.93685 86.1362 3.66941L85.9487 3.37389L85.7611 3.07837C85.2224 3.4203 84.8051 3.89895 84.5082 4.50286L84.8223 4.65727ZM85.9487 3.37389L86.1354 3.66995C86.5561 3.40464 87.0514 3.26686 87.6337 3.26686V2.91686V2.56686C86.9357 2.56686 86.3076 2.73377 85.762 3.07784L85.9487 3.37389ZM87.6337 2.91686V3.26686C88.216 3.26686 88.7094 3.40465 89.1266 3.66941L89.3141 3.37389L89.5016 3.07837C88.9586 2.73376 88.3317 2.56686 87.6337 2.56686V2.91686ZM89.3141 3.37389L89.1274 3.66995C89.5514 3.93729 89.8844 4.31365 90.1257 4.81027L90.4405 4.65727L90.7553 4.50427C90.4612 3.8991 90.0432 3.41986 89.5008 3.07783L89.3141 3.37389ZM90.4405 4.65727L90.1264 4.81169C90.3693 5.30574 90.4968 5.89573 90.4968 6.59157H90.8468H91.1968C91.1968 5.81015 91.0534 5.1106 90.7546 4.50286L90.4405 4.65727ZM90.8468 6.59157H90.4968C90.4968 7.28082 90.3695 7.86598 90.1268 8.35692L90.4405 8.51203L90.7543 8.66714C91.0532 8.06243 91.1968 7.36729 91.1968 6.59157H90.8468ZM90.4405 8.51203L90.1261 8.35834C89.8848 8.85187 89.5519 9.22708 89.1274 9.49474L89.3141 9.79079L89.5008 10.0868C90.0427 9.74513 90.4607 9.26784 90.755 8.66572L90.4405 8.51203ZM89.3141 9.79079L89.1266 9.49528C88.7094 9.76004 88.216 9.89783 87.6337 9.89783V10.2478V10.5978C88.3317 10.5978 88.9586 10.4309 89.5016 10.0863L89.3141 9.79079ZM87.6337 9.26913V9.61913C88.1816 9.61913 88.6635 9.47755 89.0516 9.16929L88.834 8.8952L88.6163 8.62111C88.3767 8.81143 88.0583 8.91913 87.6337 8.91913V9.26913ZM88.834 8.8952L89.0516 9.16929C89.4196 8.87706 89.688 8.4948 89.8592 8.03369L89.5311 7.91189L89.2029 7.79008C89.0725 8.14147 88.8762 8.41476 88.6163 8.62111L88.834 8.8952ZM89.5311 7.91189L89.8592 8.03369C90.0258 7.58497 90.1073 7.10321 90.1073 6.59157H89.7573H89.4073C89.4073 7.02785 89.338 7.42631 89.2029 7.79008L89.5311 7.91189ZM89.7573 6.59157H90.1073C90.1073 6.0799 90.0258 5.59694 89.8595 5.14565L89.5311 5.26665L89.2027 5.38764C89.338 5.75501 89.4073 6.15533 89.4073 6.59157H89.7573ZM89.5311 5.26665L89.8595 5.14565C89.6886 4.68189 89.4207 4.29674 89.0533 4.00132L88.834 4.2741L88.6147 4.54688C88.8751 4.7562 89.0719 5.03275 89.2027 5.38764L89.5311 5.26665ZM88.834 4.2741L89.0533 4.00132C88.665 3.68922 88.1826 3.54555 87.6337 3.54555V3.89555V4.24555C88.0573 4.24555 88.3751 4.35426 88.6147 4.54688L88.834 4.2741ZM87.6337 3.89555V3.54555C87.0848 3.54555 86.6023 3.68922 86.2141 4.00132L86.4334 4.2741L86.6527 4.54688C86.8923 4.35426 87.2101 4.24555 87.6337 4.24555V3.89555ZM86.4334 4.2741L86.2141 4.00132C85.8466 4.29674 85.5788 4.68189 85.4079 5.14565L85.7363 5.26665L86.0648 5.38764C86.1955 5.03275 86.3923 4.7562 86.6527 4.54688L86.4334 4.2741ZM85.7363 5.26665L85.4079 5.14565C85.2416 5.59694 85.1601 6.0799 85.1601 6.59157H85.5101H85.8601C85.8601 6.15533 85.9294 5.75501 86.0648 5.38764L85.7363 5.26665ZM85.5101 6.59157H85.1601C85.1601 7.10321 85.2416 7.58497 85.4082 8.03369L85.7363 7.91189L86.0645 7.79008C85.9294 7.42631 85.8601 7.02785 85.8601 6.59157H85.5101ZM85.7363 7.91189L85.4082 8.03369C85.5794 8.4948 85.8478 8.87706 86.2158 9.16929L86.4334 8.8952L86.6511 8.62111C86.3912 8.41476 86.1949 8.14147 86.0645 7.79008L85.7363 7.91189ZM86.4334 8.8952L86.2158 9.16929C86.6039 9.47755 87.0858 9.61913 87.6337 9.61913V9.26913V8.91913C87.2091 8.91913 86.8907 8.81143 86.6511 8.62111L86.4334 8.8952Z" fill="white" mask="url(#path-1-outside-1_45_165)"/>
</svg>
