<svg width="60" height="10" viewBox="0 0 60 10" fill="none" xmlns="http://www.w3.org/2000/svg">
<path d="M4.22397 4.60906C4.22397 4.3964 4.21663 4.13606 4.20197 3.82806C4.19463 3.51273 4.16897 3.18273 4.12497 2.83806C4.08097 2.4934 4.00397 2.17073 3.89397 1.87006C3.78397 1.5694 3.63363 1.3274 3.44297 1.14406C3.2523 0.953398 3.00297 0.858064 2.69496 0.858064C2.4163 0.858064 2.18163 0.957064 1.99096 1.15506C1.8003 1.34573 1.6463 1.59873 1.52896 1.91406C1.41163 2.22206 1.31996 2.55206 1.25396 2.90406C1.1953 3.24873 1.15496 3.5824 1.13296 3.90506C1.11096 4.2204 1.09996 4.47706 1.09996 4.67506C1.09996 4.87306 1.1073 5.1224 1.12196 5.42306C1.14396 5.7164 1.18063 6.02806 1.23196 6.35806C1.2833 6.68073 1.36396 6.98506 1.47396 7.27106C1.5913 7.55706 1.74163 7.79173 1.92496 7.97506C2.1083 8.15106 2.3393 8.23906 2.61796 8.23906C2.9113 8.23906 3.1533 8.15106 3.34397 7.97506C3.53463 7.79173 3.68863 7.55706 3.80597 7.27106C3.9233 6.97773 4.0113 6.66606 4.06997 6.33606C4.13597 5.99873 4.1763 5.67973 4.19096 5.37906C4.21297 5.07106 4.22397 4.8144 4.22397 4.60906ZM5.36797 4.46606C5.36797 4.8034 5.33497 5.15906 5.26897 5.53306C5.2103 5.90706 5.11496 6.27373 4.98296 6.63306C4.85097 6.9924 4.67497 7.31873 4.45497 7.61206C4.2423 7.9054 3.98197 8.14006 3.67397 8.31606C3.36597 8.48473 3.00663 8.56906 2.59596 8.56906C2.10463 8.56906 1.6903 8.44806 1.35296 8.20606C1.02296 7.95673 0.758965 7.63773 0.560965 7.24906C0.362965 6.8604 0.219965 6.44606 0.131965 6.00606C0.0439649 5.55873 -3.51258e-05 5.13706 -3.51258e-05 4.74106C-3.51258e-05 4.40373 0.0292982 4.0444 0.0879649 3.66306C0.146632 3.2744 0.241965 2.89673 0.373965 2.53006C0.505965 2.1634 0.678298 1.82973 0.890965 1.52906C1.11096 1.2284 1.37496 0.990064 1.68296 0.814064C1.9983 0.630731 2.36496 0.539064 2.78297 0.539064C3.17896 0.539064 3.51996 0.623397 3.80597 0.792064C4.0993 0.960731 4.34496 1.1844 4.54297 1.46306C4.7483 1.74173 4.90963 2.0534 5.02697 2.39806C5.1443 2.74273 5.22863 3.09473 5.27997 3.45406C5.33863 3.80606 5.36797 4.1434 5.36797 4.46606ZM10.7342 6.20406C10.7342 5.95473 10.7196 5.70173 10.6902 5.44506C10.6609 5.18106 10.5986 4.93906 10.5032 4.71906C10.4079 4.49173 10.2649 4.31206 10.0742 4.18006C9.89091 4.04073 9.63791 3.97106 9.31525 3.97106C9.15391 3.97106 8.96691 4.0004 8.75425 4.05906C8.54891 4.11773 8.35458 4.20206 8.17125 4.31206C7.98791 4.42206 7.85225 4.5504 7.76425 4.69706C7.66891 4.86573 7.61391 5.04906 7.59925 5.24706C7.59191 5.43773 7.58825 5.6284 7.58825 5.81906C7.58825 5.89973 7.58825 5.98406 7.58825 6.07206C7.58825 6.15273 7.59191 6.2334 7.59925 6.31406C7.61391 6.6074 7.67991 6.90806 7.79725 7.21606C7.91458 7.52406 8.08691 7.78073 8.31425 7.98606C8.54158 8.1914 8.82758 8.29406 9.17225 8.29406C9.56091 8.29406 9.86891 8.18773 10.0962 7.97506C10.3236 7.7624 10.4849 7.4984 10.5802 7.18306C10.6829 6.8604 10.7342 6.53406 10.7342 6.20406ZM11.8672 5.94006C11.8672 6.51206 11.7426 6.99606 11.4932 7.39206C11.2439 7.78806 10.9029 8.08873 10.4702 8.29406C10.0449 8.4994 9.55358 8.60206 8.99625 8.60206C8.60758 8.60206 8.24825 8.50673 7.91825 8.31606C7.58825 8.11806 7.30958 7.8614 7.08225 7.54606C6.86225 7.2234 6.70825 6.87873 6.62025 6.51206C6.57625 6.31406 6.54691 6.11606 6.53225 5.91806C6.52491 5.71273 6.52125 5.5074 6.52125 5.30206C6.52125 5.0454 6.55058 4.77773 6.60925 4.49906C6.67525 4.2204 6.75225 3.96373 6.84025 3.72906C7.21425 2.71706 7.76791 1.91406 8.50125 1.32006C9.23458 0.718731 10.1146 0.278731 11.1412 6.42538e-05C11.1486 6.42538e-05 11.1522 6.42538e-05 11.1522 6.42538e-05C11.1596 6.42538e-05 11.1669 6.42538e-05 11.1742 6.42538e-05C11.2329 6.42538e-05 11.2622 0.0257308 11.2622 0.0770639C11.2622 0.121064 11.2476 0.146731 11.2182 0.154064C11.1962 0.176064 11.1706 0.194397 11.1412 0.209064C11.1119 0.216397 11.0826 0.227397 11.0532 0.242064C10.8919 0.308064 10.7306 0.377731 10.5692 0.451064C10.4079 0.524398 10.2539 0.601397 10.1072 0.682064C9.95325 0.770064 9.80291 0.869064 9.65625 0.979064C9.51691 1.08173 9.38491 1.1954 9.26025 1.32006C9.03291 1.55473 8.80925 1.82973 8.58925 2.14506C8.36925 2.45306 8.18225 2.78306 8.02825 3.13506C7.88158 3.47973 7.78991 3.82073 7.75325 4.15806C8.00991 3.9894 8.28491 3.85006 8.57825 3.74006C8.87158 3.63006 9.17591 3.57506 9.49125 3.57506C10.2099 3.57506 10.7856 3.7914 11.2182 4.22406C11.6509 4.6494 11.8672 5.2214 11.8672 5.94006ZM17.3325 6.43506C17.3325 6.10506 17.2629 5.83006 17.1235 5.61006C16.9915 5.38273 16.8155 5.19206 16.5955 5.03806C16.3755 4.88406 16.1335 4.75573 15.8695 4.65306C15.6055 4.54306 15.3452 4.4404 15.0885 4.34506C14.6925 4.5724 14.3772 4.86206 14.1425 5.21406C13.9079 5.55873 13.7905 5.96573 13.7905 6.43506C13.7905 7.04373 13.9372 7.50206 14.2305 7.81006C14.5239 8.11806 14.9749 8.27206 15.5835 8.27206C15.9355 8.27206 16.2399 8.1914 16.4965 8.03006C16.7605 7.86873 16.9659 7.64873 17.1125 7.37006C17.2592 7.0914 17.3325 6.77973 17.3325 6.43506ZM17.1235 2.21106C17.1235 1.7124 16.9842 1.34573 16.7055 1.11106C16.4342 0.869064 16.0602 0.748064 15.5835 0.748064C15.1362 0.748064 14.7879 0.872731 14.5385 1.12206C14.2892 1.36406 14.1645 1.70506 14.1645 2.14506C14.1645 2.48973 14.2489 2.77206 14.4175 2.99206C14.5862 3.21206 14.8025 3.39173 15.0665 3.53106C15.3379 3.6704 15.6129 3.7914 15.8915 3.89406C16.2362 3.74006 16.5259 3.52006 16.7605 3.23406C17.0025 2.94073 17.1235 2.59973 17.1235 2.21106ZM18.4215 6.06106C18.4215 6.62573 18.2822 7.09873 18.0035 7.48006C17.7322 7.85406 17.3729 8.1364 16.9255 8.32706C16.4782 8.5104 15.9905 8.60206 15.4625 8.60206C15.0299 8.60206 14.6155 8.52873 14.2195 8.38206C13.8309 8.22806 13.5119 7.9934 13.2625 7.67806C13.0205 7.36273 12.8995 6.96306 12.8995 6.47906C12.8995 6.07573 12.9912 5.7384 13.1745 5.46706C13.3652 5.1884 13.6035 4.95006 13.8895 4.75206C14.1829 4.54673 14.4835 4.3634 14.7915 4.20206C14.5642 4.10673 14.3332 3.98206 14.0985 3.82806C13.8639 3.67406 13.6659 3.48706 13.5045 3.26706C13.3432 3.04706 13.2625 2.79773 13.2625 2.51906C13.2625 2.03506 13.3872 1.64273 13.6365 1.34206C13.8859 1.03406 14.2049 0.810397 14.5935 0.671064C14.9822 0.531731 15.3892 0.462064 15.8145 0.462064C16.1445 0.462064 16.4745 0.520731 16.8045 0.638064C17.1345 0.755397 17.4095 0.935064 17.6295 1.17706C17.8495 1.41906 17.9595 1.72706 17.9595 2.10106C17.9595 2.4384 17.8899 2.72806 17.7505 2.97006C17.6185 3.21206 17.4352 3.4174 17.2005 3.58606C16.9659 3.75473 16.7055 3.9014 16.4195 4.02606C16.7202 4.11406 17.0245 4.2534 17.3325 4.44406C17.6405 4.6274 17.8972 4.85473 18.1025 5.12606C18.3152 5.3974 18.4215 5.70906 18.4215 6.06106ZM24.2388 8.42606C24.2388 8.5434 24.1838 8.60206 24.0738 8.60206C24.0225 8.60206 23.9675 8.5984 23.9088 8.59106C23.8501 8.58373 23.7915 8.58006 23.7328 8.58006C23.6668 8.58006 23.5971 8.58006 23.5238 8.58006C23.4578 8.57273 23.3881 8.56906 23.3148 8.56906C23.1535 8.56173 22.9885 8.56173 22.8198 8.56906C22.6585 8.56906 22.4971 8.56906 22.3358 8.56906C22.1158 8.56906 21.8995 8.56906 21.6868 8.56906C21.4741 8.56906 21.2578 8.57273 21.0378 8.58006C20.9865 8.5874 20.9205 8.59106 20.8398 8.59106C20.7665 8.59106 20.7078 8.59106 20.6638 8.59106C20.5758 8.59106 20.5318 8.53606 20.5318 8.42606C20.5318 8.3894 20.5355 8.3564 20.5428 8.32706C20.5575 8.2904 20.5868 8.27206 20.6308 8.27206C20.6748 8.27206 20.7151 8.27573 20.7518 8.28306C20.7958 8.28306 20.8398 8.28306 20.8838 8.28306C20.9571 8.28306 21.0635 8.28306 21.2028 8.28306C21.3495 8.27573 21.4851 8.25373 21.6098 8.21706C21.7345 8.17306 21.7968 8.09973 21.7968 7.99706C21.7968 7.40306 21.8005 6.80906 21.8078 6.21506C21.8151 5.61373 21.8188 5.01606 21.8188 4.42206C21.8188 3.91606 21.8188 3.41006 21.8188 2.90406C21.8188 2.39806 21.8188 1.8884 21.8188 1.37506C21.8188 1.27973 21.7711 1.23206 21.6758 1.23206C21.6318 1.23206 21.5401 1.25773 21.4008 1.30906C21.2688 1.3604 21.1185 1.41906 20.9498 1.48506C20.7811 1.55106 20.6271 1.60973 20.4878 1.66106C20.3558 1.7124 20.2715 1.73806 20.2348 1.73806C20.1688 1.73806 20.1211 1.70873 20.0918 1.65006C20.0698 1.5914 20.0588 1.5364 20.0588 1.48506C20.0588 1.44106 20.0808 1.4044 20.1248 1.37506C20.1688 1.3384 20.2091 1.3164 20.2458 1.30906C20.4511 1.25773 20.6455 1.19906 20.8288 1.13306C21.0121 1.05973 21.2028 0.990064 21.4008 0.924064C21.5548 0.872731 21.7161 0.817731 21.8848 0.759064C22.0535 0.693064 22.2111 0.630731 22.3578 0.572064C22.3871 0.557398 22.4385 0.539064 22.5118 0.517064C22.5851 0.495064 22.6585 0.473064 22.7318 0.451064C22.8125 0.429064 22.8601 0.418064 22.8748 0.418064C22.9188 0.418064 22.9518 0.425397 22.9738 0.440064C22.9958 0.447398 23.0068 0.484064 23.0068 0.550064C23.0068 0.711397 23.0031 0.872731 22.9958 1.03406C22.9958 1.18806 22.9921 1.34573 22.9848 1.50706C22.9775 1.9544 22.9701 2.4274 22.9628 2.92606C22.9628 3.42473 22.9591 3.91606 22.9518 4.40006C22.9518 4.9354 22.9518 5.46706 22.9518 5.99506C22.9518 6.52306 22.9518 7.05473 22.9518 7.59006C22.9518 7.65606 22.9518 7.72573 22.9518 7.79906C22.9591 7.86506 22.9628 7.93106 22.9628 7.99706C22.9701 8.09973 23.0288 8.17306 23.1388 8.21706C23.2561 8.25373 23.3808 8.27206 23.5128 8.27206C23.6521 8.27206 23.7511 8.27206 23.8098 8.27206C23.8685 8.27206 23.9235 8.2684 23.9748 8.26106C24.0261 8.25373 24.0775 8.25006 24.1288 8.25006C24.1728 8.25006 24.2021 8.27206 24.2168 8.31606C24.2315 8.35273 24.2388 8.3894 24.2388 8.42606ZM30.1771 4.60906C30.1771 4.3964 30.1698 4.13606 30.1551 3.82806C30.1478 3.51273 30.1221 3.18273 30.0781 2.83806C30.0341 2.4934 29.9571 2.17073 29.8471 1.87006C29.7371 1.5694 29.5868 1.3274 29.3961 1.14406C29.2054 0.953398 28.9561 0.858064 28.6481 0.858064C28.3694 0.858064 28.1348 0.957064 27.9441 1.15506C27.7534 1.34573 27.5994 1.59873 27.4821 1.91406C27.3648 2.22206 27.2731 2.55206 27.2071 2.90406C27.1484 3.24873 27.1081 3.5824 27.0861 3.90506C27.0641 4.2204 27.0531 4.47706 27.0531 4.67506C27.0531 4.87306 27.0604 5.1224 27.0751 5.42306C27.0971 5.7164 27.1338 6.02806 27.1851 6.35806C27.2364 6.68073 27.3171 6.98506 27.4271 7.27106C27.5444 7.55706 27.6948 7.79173 27.8781 7.97506C28.0614 8.15106 28.2924 8.23906 28.5711 8.23906C28.8644 8.23906 29.1064 8.15106 29.2971 7.97506C29.4878 7.79173 29.6418 7.55706 29.7591 7.27106C29.8764 6.97773 29.9644 6.66606 30.0231 6.33606C30.0891 5.99873 30.1294 5.67973 30.1441 5.37906C30.1661 5.07106 30.1771 4.8144 30.1771 4.60906ZM31.3211 4.46606C31.3211 4.8034 31.2881 5.15906 31.2221 5.53306C31.1634 5.90706 31.0681 6.27373 30.9361 6.63306C30.8041 6.9924 30.6281 7.31873 30.4081 7.61206C30.1954 7.9054 29.9351 8.14006 29.6271 8.31606C29.3191 8.48473 28.9598 8.56906 28.5491 8.56906C28.0578 8.56906 27.6434 8.44806 27.3061 8.20606C26.9761 7.95673 26.7121 7.63773 26.5141 7.24906C26.3161 6.8604 26.1731 6.44606 26.0851 6.00606C25.9971 5.55873 25.9531 5.13706 25.9531 4.74106C25.9531 4.40373 25.9824 4.0444 26.0411 3.66306C26.0998 3.2744 26.1951 2.89673 26.3271 2.53006C26.4591 2.1634 26.6314 1.82973 26.8441 1.52906C27.0641 1.2284 27.3281 0.990064 27.6361 0.814064C27.9514 0.630731 28.3181 0.539064 28.7361 0.539064C29.1321 0.539064 29.4731 0.623397 29.7591 0.792064C30.0524 0.960731 30.2981 1.1844 30.4961 1.46306C30.7014 1.74173 30.8628 2.0534 30.9801 2.39806C31.0974 2.74273 31.1818 3.09473 31.2331 3.45406C31.2918 3.80606 31.3211 4.1434 31.3211 4.46606ZM37.9304 6.34706C37.9304 5.7604 37.8094 5.30573 37.5674 4.98306C37.3327 4.6604 36.9037 4.49173 36.2804 4.47706C36.163 4.47706 36.0457 4.47706 35.9284 4.47706C35.811 4.46973 35.6937 4.46606 35.5764 4.46606C35.393 4.46606 35.206 4.46973 35.0154 4.47706C34.832 4.4844 34.645 4.48806 34.4544 4.48806V7.93106C34.4544 8.06306 34.491 8.1584 34.5644 8.21706C34.645 8.27573 34.7404 8.3124 34.8504 8.32706C34.9604 8.3344 35.063 8.33806 35.1584 8.33806C35.283 8.33806 35.4077 8.33806 35.5324 8.33806C35.6644 8.33073 35.7927 8.3234 35.9174 8.31606C36.526 8.2794 37.0137 8.1034 37.3804 7.78806C37.747 7.47273 37.9304 6.9924 37.9304 6.34706ZM37.3694 2.44206C37.3694 1.8774 37.2154 1.47406 36.9074 1.23206C36.5994 0.982731 36.174 0.858064 35.6314 0.858064C35.4334 0.858064 35.2354 0.861731 35.0374 0.869064C34.8467 0.869064 34.6524 0.876397 34.4544 0.891064V4.18006C34.557 4.18006 34.656 4.18373 34.7514 4.19106C34.8467 4.19106 34.942 4.19106 35.0374 4.19106C35.2207 4.19106 35.4224 4.18373 35.6424 4.16906C35.8697 4.1544 36.086 4.11773 36.2914 4.05906C36.504 4.0004 36.68 3.90506 36.8194 3.77306C36.988 3.6044 37.12 3.40273 37.2154 3.16806C37.318 2.92606 37.3694 2.68406 37.3694 2.44206ZM39.1074 6.17106C39.1074 6.6844 38.9864 7.13173 38.7444 7.51306C38.5024 7.88706 38.1394 8.1694 37.6554 8.36006C37.3987 8.46273 37.1164 8.5324 36.8084 8.56906C36.5077 8.5984 36.218 8.61306 35.9394 8.61306C35.888 8.61306 35.833 8.61306 35.7744 8.61306C35.723 8.61306 35.6717 8.6094 35.6204 8.60206C35.2684 8.5874 34.9164 8.5764 34.5644 8.56906C34.2197 8.5544 33.8714 8.54706 33.5194 8.54706C33.3214 8.54706 33.1234 8.56173 32.9254 8.59106C32.7347 8.61306 32.5404 8.62406 32.3424 8.62406C32.2837 8.62406 32.2507 8.60206 32.2434 8.55806C32.236 8.50673 32.2324 8.45906 32.2324 8.41506C32.2324 8.3344 32.2654 8.29406 32.3314 8.29406C32.434 8.29406 32.5404 8.29406 32.6504 8.29406C32.7677 8.28673 32.8777 8.27573 32.9804 8.26106C33.1344 8.23906 33.2334 8.1804 33.2774 8.08506C33.3287 7.9824 33.358 7.8614 33.3654 7.72206C33.38 7.5754 33.3837 7.4324 33.3764 7.29306C33.369 7.15373 33.3654 7.0144 33.3654 6.87506C33.3654 6.60373 33.3654 6.3324 33.3654 6.06106C33.3727 5.7824 33.3764 5.5074 33.3764 5.23606V4.03706C33.3764 3.64106 33.3727 3.24506 33.3654 2.84906C33.3654 2.45306 33.3654 2.05706 33.3654 1.66106C33.3654 1.58773 33.3617 1.51806 33.3544 1.45206C33.3544 1.37873 33.3434 1.30906 33.3214 1.24306C33.27 1.0964 33.1784 1.0084 33.0464 0.979064C32.9217 0.942397 32.7934 0.924064 32.6614 0.924064C32.61 0.924064 32.555 0.927731 32.4964 0.935064C32.445 0.935064 32.39 0.935064 32.3314 0.935064C32.28 0.935064 32.247 0.909397 32.2324 0.858064C32.225 0.806731 32.2214 0.766397 32.2214 0.737064C32.2214 0.707731 32.225 0.678397 32.2324 0.649064C32.247 0.612397 32.2727 0.594064 32.3094 0.594064C32.478 0.594064 32.643 0.601397 32.8044 0.616064C32.9657 0.623397 33.127 0.627064 33.2884 0.627064C33.721 0.627064 34.1464 0.616064 34.5644 0.594064C34.9897 0.564731 35.415 0.535398 35.8404 0.506064C35.899 0.498731 35.954 0.495064 36.0054 0.495064C36.0567 0.495064 36.108 0.495064 36.1594 0.495064C36.57 0.495064 36.955 0.550064 37.3144 0.660064C37.681 0.762731 37.978 0.946064 38.2054 1.21006C38.4327 1.47406 38.5464 1.8444 38.5464 2.32106C38.5464 2.62173 38.4657 2.89306 38.3044 3.13506C38.1504 3.36973 37.9487 3.57506 37.6994 3.75106C37.4574 3.91973 37.208 4.0554 36.9514 4.15806V4.21306C37.3034 4.27173 37.6444 4.37806 37.9744 4.53206C38.3044 4.67873 38.5757 4.88773 38.7884 5.15906C39.001 5.42306 39.1074 5.7604 39.1074 6.17106ZM44.7981 5.32406C44.5634 4.66406 44.3287 4.00406 44.0941 3.34406C43.8594 2.67673 43.6247 2.01306 43.3901 1.35306C43.1627 2.01306 42.9317 2.67306 42.6971 3.33306C42.4624 3.99306 42.2314 4.65673 42.0041 5.32406H44.7981ZM47.9001 8.42606C47.9001 8.47006 47.8927 8.5104 47.8781 8.54706C47.8707 8.5764 47.8451 8.59106 47.8011 8.59106C47.7497 8.59106 47.6214 8.5874 47.4161 8.58006C47.2181 8.57273 47.0457 8.56906 46.8991 8.56906C46.6717 8.56906 46.4444 8.56906 46.2171 8.56906C45.9971 8.56906 45.7734 8.5764 45.5461 8.59106C45.4287 8.5984 45.3077 8.60206 45.1831 8.60206C45.0657 8.6094 44.9484 8.61306 44.8311 8.61306C44.7944 8.61306 44.7687 8.60206 44.7541 8.58006C44.7467 8.55073 44.7431 8.5214 44.7431 8.49206L44.7541 8.40406C44.7541 8.38206 44.7614 8.36006 44.7761 8.33806C44.7907 8.30873 44.8127 8.29406 44.8421 8.29406H45.3811C45.4471 8.29406 45.5204 8.2794 45.6011 8.25006C45.6891 8.22073 45.7331 8.16573 45.7331 8.08506C45.7331 8.06306 45.7074 7.97873 45.6561 7.83206C45.6047 7.67806 45.5424 7.49473 45.4691 7.28206C45.3957 7.06206 45.3187 6.84206 45.2381 6.62206C45.1574 6.40206 45.0877 6.20773 45.0291 6.03906C44.9704 5.86306 44.9301 5.7494 44.9081 5.69806H41.9051C41.8831 5.76406 41.8391 5.88506 41.7731 6.06106C41.7071 6.22973 41.6337 6.42406 41.5531 6.64406C41.4797 6.86406 41.4027 7.0804 41.3221 7.29306C41.2487 7.50573 41.1864 7.68906 41.1351 7.84306C41.0911 7.98973 41.0691 8.0814 41.0691 8.11806C41.0691 8.22073 41.1241 8.28673 41.2341 8.31606C41.3441 8.3454 41.4357 8.36006 41.5091 8.36006C41.5824 8.36006 41.6484 8.36006 41.7071 8.36006C41.7657 8.36006 41.8134 8.3564 41.8501 8.34906C41.8647 8.34906 41.8904 8.34906 41.9271 8.34906C41.9711 8.34173 41.9967 8.33806 42.0041 8.33806C42.0481 8.33806 42.0737 8.36373 42.0811 8.41506C42.0957 8.4664 42.0994 8.50673 42.0921 8.53606C42.0847 8.5654 42.0664 8.58373 42.0371 8.59106C42.0151 8.59106 41.9894 8.59106 41.9601 8.59106C41.7474 8.59106 41.5311 8.5874 41.3111 8.58006C41.0911 8.57273 40.8747 8.56906 40.6621 8.56906C40.5007 8.56906 40.3431 8.57273 40.1891 8.58006C40.0351 8.5874 39.8774 8.59106 39.7161 8.59106C39.6501 8.59106 39.6171 8.5544 39.6171 8.48106C39.6171 8.3784 39.6684 8.32706 39.7711 8.32706C39.8077 8.32706 39.8517 8.33073 39.9031 8.33806C39.9544 8.33806 40.0094 8.33806 40.0681 8.33806C40.1487 8.33806 40.2294 8.31606 40.3101 8.27206C40.3981 8.22073 40.4714 8.13273 40.5301 8.00806C40.5667 7.94206 40.6401 7.76606 40.7501 7.48006C40.8601 7.19406 40.9957 6.8384 41.1571 6.41306C41.3184 5.9804 41.4871 5.5184 41.6631 5.02706C41.8464 4.5284 42.0261 4.0334 42.2021 3.54206C42.3781 3.05073 42.5357 2.59606 42.6751 2.17806C42.8217 1.76006 42.9391 1.4154 43.0271 1.14406C43.1151 0.865397 43.1591 0.700397 43.1591 0.649064C43.1591 0.634397 43.1481 0.616064 43.1261 0.594064C43.1041 0.564731 43.0931 0.546398 43.0931 0.539064C43.0931 0.50973 43.1041 0.491397 43.1261 0.484064C43.1994 0.469397 43.2764 0.458398 43.3571 0.451064C43.4377 0.443731 43.5147 0.436397 43.5881 0.429064C43.6834 0.414397 43.7787 0.403397 43.8741 0.396064C43.9694 0.381397 44.0647 0.370397 44.1601 0.363064L47.0091 8.06306C47.0384 8.1364 47.0934 8.19506 47.1741 8.23906C47.2621 8.27573 47.3427 8.29406 47.4161 8.29406C47.4821 8.29406 47.5481 8.29406 47.6141 8.29406C47.6874 8.28673 47.7607 8.28306 47.8341 8.28306C47.8634 8.28306 47.8817 8.3014 47.8891 8.33806C47.8964 8.37473 47.9001 8.40406 47.9001 8.42606ZM52.8546 3.32206C52.8546 3.2414 52.8546 3.16073 52.8546 3.08006C52.8546 2.99206 52.851 2.90773 52.8436 2.82706C52.829 2.5264 52.763 2.22573 52.6456 1.92506C52.5283 1.61706 52.356 1.3604 52.1286 1.15506C51.9013 0.942397 51.6153 0.836064 51.2706 0.836064C50.882 0.836064 50.574 0.942397 50.3466 1.15506C50.1193 1.36773 49.9543 1.6354 49.8516 1.95806C49.7563 2.28073 49.7086 2.60706 49.7086 2.93706C49.7086 3.1864 49.7233 3.44306 49.7526 3.70706C49.782 3.96373 49.8443 4.20573 49.9396 4.43306C50.035 4.65306 50.178 4.83273 50.3686 4.97206C50.5593 5.10406 50.8123 5.17006 51.1276 5.17006C51.289 5.17006 51.4723 5.14073 51.6776 5.08206C51.8903 5.0234 52.0883 4.93906 52.2716 4.82906C52.455 4.71906 52.5906 4.59073 52.6786 4.44406C52.7813 4.2754 52.8363 4.09573 52.8436 3.90506C52.851 3.70706 52.8546 3.51273 52.8546 3.32206ZM53.9216 3.83906C53.9216 4.0884 53.8886 4.35606 53.8226 4.64206C53.764 4.92073 53.6906 5.1774 53.6026 5.41206C53.2286 6.41673 52.675 7.21973 51.9416 7.82106C51.2083 8.4224 50.3283 8.8624 49.3016 9.14106C49.2943 9.14106 49.287 9.14106 49.2796 9.14106C49.2796 9.14106 49.276 9.14106 49.2686 9.14106C49.2026 9.14106 49.1696 9.11173 49.1696 9.05306C49.1696 9.0164 49.1843 8.99073 49.2136 8.97606C49.243 8.9614 49.2723 8.9504 49.3016 8.94306C49.639 8.7964 49.9726 8.63873 50.3026 8.47006C50.6326 8.3014 50.926 8.08506 51.1826 7.82106C51.4173 7.5864 51.641 7.3114 51.8536 6.99606C52.0736 6.68073 52.2606 6.35073 52.4146 6.00606C52.5686 5.65406 52.6603 5.31306 52.6896 4.98306C52.433 5.15173 52.158 5.29106 51.8646 5.40106C51.5713 5.51106 51.267 5.56606 50.9516 5.56606C50.475 5.56606 50.0606 5.47073 49.7086 5.28006C49.3566 5.08206 49.0816 4.80706 48.8836 4.45506C48.693 4.09573 48.5976 3.67773 48.5976 3.20106C48.5976 2.62173 48.7186 2.13406 48.9606 1.73806C49.2026 1.34206 49.5363 1.0414 49.9616 0.836064C50.3943 0.630731 50.8856 0.528064 51.4356 0.528064C51.8316 0.528064 52.1946 0.627064 52.5246 0.825064C52.8546 1.02306 53.1333 1.2834 53.3606 1.60606C53.588 1.9214 53.742 2.2624 53.8226 2.62906C53.8666 2.82706 53.8923 3.02873 53.8996 3.23406C53.9143 3.43206 53.9216 3.63373 53.9216 3.83906ZM59.8599 8.42606C59.8599 8.5434 59.8049 8.60206 59.6949 8.60206C59.6436 8.60206 59.5886 8.5984 59.5299 8.59106C59.4712 8.58373 59.4126 8.58006 59.3539 8.58006C59.2879 8.58006 59.2182 8.58006 59.1449 8.58006C59.0789 8.57273 59.0092 8.56906 58.9359 8.56906C58.7746 8.56173 58.6096 8.56173 58.4409 8.56906C58.2796 8.56906 58.1182 8.56906 57.9569 8.56906C57.7369 8.56906 57.5206 8.56906 57.3079 8.56906C57.0952 8.56906 56.8789 8.57273 56.6589 8.58006C56.6076 8.5874 56.5416 8.59106 56.4609 8.59106C56.3876 8.59106 56.3289 8.59106 56.2849 8.59106C56.1969 8.59106 56.1529 8.53606 56.1529 8.42606C56.1529 8.3894 56.1566 8.3564 56.1639 8.32706C56.1786 8.2904 56.2079 8.27206 56.2519 8.27206C56.2959 8.27206 56.3362 8.27573 56.3729 8.28306C56.4169 8.28306 56.4609 8.28306 56.5049 8.28306C56.5782 8.28306 56.6846 8.28306 56.8239 8.28306C56.9706 8.27573 57.1062 8.25373 57.2309 8.21706C57.3556 8.17306 57.4179 8.09973 57.4179 7.99706C57.4179 7.40306 57.4216 6.80906 57.4289 6.21506C57.4362 5.61373 57.4399 5.01606 57.4399 4.42206C57.4399 3.91606 57.4399 3.41006 57.4399 2.90406C57.4399 2.39806 57.4399 1.8884 57.4399 1.37506C57.4399 1.27973 57.3922 1.23206 57.2969 1.23206C57.2529 1.23206 57.1612 1.25773 57.0219 1.30906C56.8899 1.3604 56.7396 1.41906 56.5709 1.48506C56.4022 1.55106 56.2482 1.60973 56.1089 1.66106C55.9769 1.7124 55.8926 1.73806 55.8559 1.73806C55.7899 1.73806 55.7422 1.70873 55.7129 1.65006C55.6909 1.5914 55.6799 1.5364 55.6799 1.48506C55.6799 1.44106 55.7019 1.4044 55.7459 1.37506C55.7899 1.3384 55.8302 1.3164 55.8669 1.30906C56.0722 1.25773 56.2666 1.19906 56.4499 1.13306C56.6332 1.05973 56.8239 0.990064 57.0219 0.924064C57.1759 0.872731 57.3372 0.817731 57.5059 0.759064C57.6746 0.693064 57.8322 0.630731 57.9789 0.572064C58.0082 0.557398 58.0596 0.539064 58.1329 0.517064C58.2062 0.495064 58.2796 0.473064 58.3529 0.451064C58.4336 0.429064 58.4812 0.418064 58.4959 0.418064C58.5399 0.418064 58.5729 0.425397 58.5949 0.440064C58.6169 0.447398 58.6279 0.484064 58.6279 0.550064C58.6279 0.711397 58.6242 0.872731 58.6169 1.03406C58.6169 1.18806 58.6132 1.34573 58.6059 1.50706C58.5986 1.9544 58.5912 2.4274 58.5839 2.92606C58.5839 3.42473 58.5802 3.91606 58.5729 4.40006C58.5729 4.9354 58.5729 5.46706 58.5729 5.99506C58.5729 6.52306 58.5729 7.05473 58.5729 7.59006C58.5729 7.65606 58.5729 7.72573 58.5729 7.79906C58.5802 7.86506 58.5839 7.93106 58.5839 7.99706C58.5912 8.09973 58.6499 8.17306 58.7599 8.21706C58.8772 8.25373 59.0019 8.27206 59.1339 8.27206C59.2732 8.27206 59.3722 8.27206 59.4309 8.27206C59.4896 8.27206 59.5446 8.2684 59.5959 8.26106C59.6472 8.25373 59.6986 8.25006 59.7499 8.25006C59.7939 8.25006 59.8232 8.27206 59.8379 8.31606C59.8526 8.35273 59.8599 8.3894 59.8599 8.42606Z" fill="black"/>
</svg>
