<svg width="98" height="13" viewBox="0 0 98 13" fill="none" xmlns="http://www.w3.org/2000/svg">
<path d="M1.56958 12.75H-1.80043e-05L4.53976 0.386363H6.08521L10.625 12.75H9.05538L5.36078 2.34233H5.26419L1.56958 12.75ZM2.14913 7.92045H8.47583V9.24858H2.14913V7.92045ZM15.859 12.9432C15.0863 12.9432 14.4041 12.748 13.8125 12.3576C13.2209 11.9632 12.758 11.4078 12.424 10.6914C12.0899 9.971 11.9229 9.11979 11.9229 8.13778C11.9229 7.16383 12.0899 6.31865 12.424 5.60227C12.758 4.88589 13.2229 4.3325 13.8185 3.94212C14.4142 3.55173 15.1024 3.35653 15.8831 3.35653C16.4868 3.35653 16.9638 3.45715 17.3139 3.65838C17.6681 3.85559 17.9377 4.08097 18.1229 4.33452C18.312 4.58404 18.4589 4.7893 18.5635 4.95028H18.6843V0.386363H20.109V12.75H18.7326V11.3253H18.5635C18.4589 11.4943 18.31 11.7076 18.1168 11.9652C17.9236 12.2187 17.6479 12.4461 17.2898 12.6474C16.9316 12.8446 16.4546 12.9432 15.859 12.9432ZM16.0522 11.6634C16.6237 11.6634 17.1066 11.5144 17.501 11.2166C17.8955 10.9148 18.1953 10.4982 18.4006 9.96697C18.6058 9.4317 18.7084 8.81392 18.7084 8.11364C18.7084 7.4214 18.6078 6.8157 18.4066 6.29652C18.2054 5.77332 17.9075 5.36683 17.5131 5.07706C17.1187 4.78326 16.6317 4.63636 16.0522 4.63636C15.4485 4.63636 14.9454 4.79131 14.543 5.10121C14.1445 5.40708 13.8447 5.82363 13.6434 6.35085C13.4462 6.87405 13.3476 7.46165 13.3476 8.11364C13.3476 8.77367 13.4483 9.37334 13.6495 9.91264C13.8547 10.4479 14.1566 10.8745 14.555 11.1925C14.9575 11.5064 15.4565 11.6634 16.0522 11.6634ZM28.7599 8.95881V3.47727H30.1846V12.75H28.7599V11.1804H28.6633C28.446 11.6513 28.1079 12.0517 27.6491 12.3817C27.1903 12.7077 26.6108 12.8707 25.9105 12.8707C25.3309 12.8707 24.8158 12.744 24.365 12.4904C23.9143 12.2328 23.5601 11.8465 23.3025 11.3313C23.045 10.8121 22.9162 10.1581 22.9162 9.36932V3.47727H24.3409V9.27273C24.3409 9.94886 24.53 10.4882 24.9084 10.8906C25.2907 11.2931 25.7777 11.4943 26.3693 11.4943C26.7235 11.4943 27.0837 11.4038 27.4499 11.2227C27.8202 11.0415 28.1301 10.7638 28.3796 10.3896C28.6331 10.0153 28.7599 9.53835 28.7599 8.95881ZM32.9873 12.75V0.386363H34.412V4.95028H34.5327C34.6374 4.7893 34.7823 4.58404 34.9674 4.33452C35.1566 4.08097 35.4262 3.85559 35.7763 3.65838C36.1305 3.45715 36.6094 3.35653 37.2131 3.35653C37.9939 3.35653 38.6821 3.55173 39.2778 3.94212C39.8734 4.3325 40.3383 4.88589 40.6723 5.60227C41.0063 6.31865 41.1734 7.16383 41.1734 8.13778C41.1734 9.11979 41.0063 9.971 40.6723 10.6914C40.3383 11.4078 39.8754 11.9632 39.2838 12.3576C38.6922 12.748 38.01 12.9432 37.2373 12.9432C36.6416 12.9432 36.1647 12.8446 35.8065 12.6474C35.4483 12.4461 35.1727 12.2187 34.9795 11.9652C34.7863 11.7076 34.6374 11.4943 34.5327 11.3253H34.3637V12.75H32.9873ZM34.3879 8.11364C34.3879 8.81392 34.4905 9.4317 34.6957 9.96697C34.901 10.4982 35.2008 10.9148 35.5952 11.2166C35.9897 11.5144 36.4726 11.6634 37.0441 11.6634C37.6397 11.6634 38.1368 11.5064 38.5352 11.1925C38.9377 10.8745 39.2395 10.4479 39.4408 9.91264C39.646 9.37334 39.7487 8.77367 39.7487 8.11364C39.7487 7.46165 39.648 6.87405 39.4468 6.35085C39.2496 5.82363 38.9498 5.40708 38.5473 5.10121C38.1489 4.79131 37.6478 4.63636 37.0441 4.63636C36.4646 4.63636 35.9776 4.78326 35.5832 5.07706C35.1888 5.36683 34.8909 5.77332 34.6897 6.29652C34.4885 6.8157 34.3879 7.4214 34.3879 8.11364ZM47.1197 12.9432C46.2826 12.9432 45.5481 12.744 44.9163 12.3455C44.2884 11.9471 43.7974 11.3897 43.4433 10.6733C43.0931 9.95691 42.918 9.11979 42.918 8.16193C42.918 7.19602 43.0931 6.35286 43.4433 5.63246C43.7974 4.91205 44.2884 4.35263 44.9163 3.95419C45.5481 3.55575 46.2826 3.35653 47.1197 3.35653C47.9569 3.35653 48.6893 3.55575 49.3172 3.95419C49.9491 4.35263 50.4401 4.91205 50.7902 5.63246C51.1444 6.35286 51.3214 7.19602 51.3214 8.16193C51.3214 9.11979 51.1444 9.95691 50.7902 10.6733C50.4401 11.3897 49.9491 11.9471 49.3172 12.3455C48.6893 12.744 47.9569 12.9432 47.1197 12.9432ZM47.1197 11.6634C47.7556 11.6634 48.2788 11.5004 48.6893 11.1744C49.0999 10.8484 49.4037 10.4197 49.6009 9.88849C49.7981 9.35724 49.8967 8.78172 49.8967 8.16193C49.8967 7.54214 49.7981 6.96461 49.6009 6.42933C49.4037 5.89406 49.0999 5.46141 48.6893 5.13139C48.2788 4.80137 47.7556 4.63636 47.1197 4.63636C46.4839 4.63636 45.9607 4.80137 45.5501 5.13139C45.1396 5.46141 44.8358 5.89406 44.6386 6.42933C44.4414 6.96461 44.3428 7.54214 44.3428 8.16193C44.3428 8.78172 44.4414 9.35724 44.6386 9.88849C44.8358 10.4197 45.1396 10.8484 45.5501 11.1744C45.9607 11.5004 46.4839 11.6634 47.1197 11.6634ZM66.5843 0.386363H68.0815V8.57244C68.0815 9.41761 67.8823 10.1722 67.4838 10.8363C67.0894 11.4963 66.532 12.0175 65.8116 12.3999C65.0912 12.7782 64.246 12.9673 63.2761 12.9673C62.3061 12.9673 61.461 12.7782 60.7406 12.3999C60.0202 12.0175 59.4607 11.4963 59.0623 10.8363C58.6679 10.1722 58.4707 9.41761 58.4707 8.57244V0.386363H59.9678V8.4517C59.9678 9.0554 60.1007 9.59268 60.3663 10.0636C60.6319 10.5304 61.0102 10.8987 61.5012 11.1683C61.9963 11.4339 62.5879 11.5668 63.2761 11.5668C63.9643 11.5668 64.5559 11.4339 65.0509 11.1683C65.546 10.8987 65.9243 10.5304 66.1859 10.0636C66.4515 9.59268 66.5843 9.0554 66.5843 8.4517V0.386363ZM70.8781 12.75V3.47727H72.2545V4.87784H72.3511C72.5201 4.41903 72.826 4.04676 73.2687 3.76101C73.7114 3.47526 74.2105 3.33239 74.7659 3.33239C74.8705 3.33239 75.0013 3.3344 75.1583 3.33842C75.3152 3.34245 75.434 3.34848 75.5145 3.35653V4.8054C75.4662 4.79332 75.3555 4.77521 75.1824 4.75106C75.0134 4.72289 74.8343 4.70881 74.6451 4.70881C74.1944 4.70881 73.7919 4.80339 73.4377 4.99254C73.0876 5.17767 72.8099 5.43525 72.6047 5.76527C72.4034 6.09126 72.3028 6.46354 72.3028 6.8821V12.75H70.8781ZM80.8088 12.9432C79.9154 12.9432 79.1447 12.746 78.4967 12.3516C77.8528 11.9531 77.3557 11.3977 77.0056 10.6854C76.6595 9.96899 76.4864 9.13589 76.4864 8.18608C76.4864 7.23627 76.6595 6.39915 77.0056 5.67472C77.3557 4.94626 77.8427 4.37879 78.4665 3.9723C79.0944 3.56179 79.8268 3.35653 80.664 3.35653C81.1469 3.35653 81.6238 3.43703 82.0947 3.59801C82.5656 3.759 82.9942 4.0206 83.3806 4.38281C83.7669 4.741 84.0748 5.21591 84.3042 5.80753C84.5336 6.39915 84.6483 7.1276 84.6483 7.9929V8.59659H77.5006V7.36506H83.1995C83.1995 6.84186 83.0948 6.375 82.8855 5.96449C82.6803 5.55398 82.3865 5.22999 82.0042 4.99254C81.6258 4.75509 81.1791 4.63636 80.664 4.63636C80.0965 4.63636 79.6055 4.77723 79.1909 5.05895C78.7804 5.33665 78.4645 5.69886 78.2431 6.1456C78.0218 6.59233 77.9111 7.07126 77.9111 7.58239V8.40341C77.9111 9.10369 78.0319 9.69732 78.2733 10.1843C78.5188 10.6673 78.8589 11.0355 79.2936 11.2891C79.7282 11.5386 80.2333 11.6634 80.8088 11.6634C81.1831 11.6634 81.5212 11.611 81.823 11.5064C82.1289 11.3977 82.3925 11.2367 82.6139 11.0234C82.8352 10.8061 83.0063 10.5365 83.127 10.2145L84.5034 10.6009C84.3586 11.0677 84.1151 11.4782 83.773 11.8324C83.4309 12.1825 83.0083 12.4562 82.5052 12.6534C82.0021 12.8466 81.4367 12.9432 80.8088 12.9432ZM86.8156 12.75V3.47727H88.2403V12.75H86.8156ZM87.54 1.93182C87.2623 1.93182 87.0229 1.83724 86.8216 1.64808C86.6244 1.45893 86.5258 1.23153 86.5258 0.965909C86.5258 0.700284 86.6244 0.472893 86.8216 0.283735C87.0229 0.0945784 87.2623 0 87.54 0C87.8177 0 88.0552 0.0945784 88.2524 0.283735C88.4536 0.472893 88.5542 0.700284 88.5542 0.965909C88.5542 1.23153 88.4536 1.45893 88.2524 1.64808C88.0552 1.83724 87.8177 1.93182 87.54 1.93182ZM93.5785 12.9673C92.9909 12.9673 92.4576 12.8567 91.9787 12.6353C91.4997 12.4099 91.1194 12.0859 90.8377 11.6634C90.556 11.2367 90.4151 10.7216 90.4151 10.1179C90.4151 9.58665 90.5198 9.15601 90.729 8.82599C90.9383 8.49195 91.218 8.23035 91.5682 8.04119C91.9183 7.85204 92.3047 7.71117 92.7273 7.61861C93.1539 7.52202 93.5825 7.44555 94.0131 7.3892C94.5766 7.31676 95.0334 7.26243 95.3835 7.22621C95.7377 7.18596 95.9952 7.11955 96.1562 7.02699C96.3212 6.93442 96.4037 6.77344 96.4037 6.54403V6.49574C96.4037 5.90009 96.2407 5.43726 95.9148 5.10724C95.5928 4.77723 95.1038 4.61222 94.4478 4.61222C93.7676 4.61222 93.2344 4.76113 92.848 5.05895C92.4616 5.35677 92.19 5.67472 92.033 6.01278L90.6807 5.52983C90.9222 4.96638 91.2442 4.5277 91.6466 4.21378C92.0531 3.89583 92.4958 3.67448 92.9748 3.54972C93.4577 3.42093 93.9326 3.35653 94.3995 3.35653C94.6973 3.35653 95.0394 3.39276 95.4258 3.4652C95.8162 3.53362 96.1925 3.67649 96.5547 3.89382C96.9209 4.11115 97.2248 4.43916 97.4662 4.87784C97.7077 5.31652 97.8285 5.90412 97.8285 6.64062V12.75H96.4037V11.4943H96.3313C96.2347 11.6955 96.0737 11.9109 95.8483 12.1403C95.623 12.3697 95.3231 12.5649 94.9488 12.7259C94.5746 12.8868 94.1178 12.9673 93.5785 12.9673ZM93.7958 11.6875C94.3592 11.6875 94.8341 11.5768 95.2205 11.3555C95.6109 11.1341 95.9047 10.8484 96.1019 10.4982C96.3031 10.1481 96.4037 9.77983 96.4037 9.39347V8.08949C96.3434 8.16193 96.2106 8.22834 96.0053 8.28871C95.8041 8.34505 95.5706 8.39536 95.305 8.43963C95.0434 8.47988 94.7879 8.5161 94.5383 8.5483C94.2928 8.57647 94.0936 8.60062 93.9407 8.62074C93.5704 8.66903 93.2243 8.74751 92.9023 8.85618C92.5844 8.96082 92.3268 9.11979 92.1296 9.3331C91.9364 9.54238 91.8398 9.82812 91.8398 10.1903C91.8398 10.6854 92.0229 11.0597 92.3892 11.3132C92.7595 11.5627 93.2283 11.6875 93.7958 11.6875Z" fill="#1C2434"/>
</svg>
