<svg width="55" height="14" viewBox="0 0 55 14" fill="none" xmlns="http://www.w3.org/2000/svg">
<path d="M-5.126e-06 11.4546V1.27274H3.44034C4.23579 1.27274 4.88873 1.40863 5.39914 1.68041C5.90956 1.94888 6.2874 2.31843 6.53267 2.78908C6.77793 3.25972 6.90056 3.79499 6.90056 4.3949C6.90056 4.99481 6.77793 5.52677 6.53267 5.99078C6.2874 6.4548 5.91122 6.81938 5.40411 7.08453C4.89701 7.34637 4.24905 7.47729 3.46022 7.47729H0.676131V6.36365H3.42045C3.96401 6.36365 4.40151 6.2841 4.73295 6.12501C5.0677 5.96592 5.30965 5.74054 5.4588 5.44888C5.61126 5.1539 5.68749 4.80257 5.68749 4.3949C5.68749 3.98723 5.61126 3.63093 5.4588 3.32601C5.30634 3.02108 5.06273 2.78576 4.72798 2.62004C4.39322 2.45101 3.95075 2.36649 3.40056 2.36649H1.23295V11.4546H-5.126e-06ZM4.79261 6.8807L7.29829 11.4546H5.86647L3.40056 6.8807H4.79261ZM11.7789 12.7273V1.3113e-05H12.5943V12.7273H11.7789ZM14.5233 3.8182C14.4636 3.31441 14.2216 2.92331 13.7974 2.6449C13.3732 2.36649 12.8528 2.22729 12.2363 2.22729C11.7856 2.22729 11.3912 2.3002 11.0531 2.44604C10.7183 2.59187 10.4565 2.79239 10.2676 3.0476C10.082 3.30281 9.98916 3.59282 9.98916 3.91763C9.98916 4.18941 10.0538 4.42307 10.1831 4.61862C10.3156 4.81086 10.4847 4.9716 10.6902 5.10087C10.8957 5.22681 11.1111 5.33122 11.3365 5.41408C11.5618 5.49362 11.769 5.55825 11.9579 5.60797L12.992 5.88638C13.2572 5.95598 13.5521 6.0521 13.8769 6.17473C14.2051 6.29736 14.5183 6.46474 14.8166 6.67686C15.1182 6.88567 15.3668 7.15413 15.5623 7.48226C15.7579 7.81038 15.8556 8.21308 15.8556 8.69035C15.8556 9.24054 15.7115 9.7377 15.4231 10.1818C15.1381 10.626 14.7205 10.9789 14.1703 11.2408C13.6234 11.5026 12.9589 11.6335 12.1767 11.6335C11.4475 11.6335 10.8161 11.5159 10.2825 11.2806C9.75218 11.0452 9.33457 10.7171 9.02965 10.2962C8.72804 9.87525 8.55735 9.38638 8.51757 8.82956H9.7903C9.82344 9.21403 9.95271 9.53221 10.1781 9.7841C10.4068 10.0327 10.6951 10.2183 11.0431 10.3409C11.3945 10.4602 11.7723 10.5199 12.1767 10.5199C12.6473 10.5199 13.0699 10.4437 13.4444 10.2912C13.8189 10.1354 14.1156 9.91999 14.3343 9.6449C14.5531 9.36649 14.6625 9.04168 14.6625 8.67047C14.6625 8.3324 14.568 8.05731 14.3791 7.84518C14.1902 7.63306 13.9416 7.46071 13.6333 7.32814C13.3251 7.19556 12.992 7.07956 12.6341 6.98013L11.3812 6.62217C10.5858 6.39348 9.95602 6.06701 9.492 5.64277C9.02799 5.21853 8.79598 4.66337 8.79598 3.97729C8.79598 3.40721 8.9501 2.91005 9.25834 2.48581C9.56989 2.05825 9.98751 1.72681 10.5112 1.49149C11.0382 1.25285 11.6265 1.13354 12.2761 1.13354C12.9323 1.13354 13.5157 1.2512 14.0261 1.48652C14.5365 1.71853 14.9409 2.03671 15.2392 2.44106C15.5408 2.84542 15.6999 3.30446 15.7164 3.8182H14.5233ZM25.2209 1.27274V11.4546H23.9879V2.56535H23.9283L21.4425 4.21592V2.96308L23.9879 1.27274H25.2209ZM31.3906 1.13354C31.8082 1.13685 32.2258 1.2164 32.6435 1.37217C33.0611 1.52795 33.4422 1.78647 33.7869 2.14774C34.1316 2.5057 34.4084 2.99457 34.6172 3.61436C34.826 4.23415 34.9304 5.01138 34.9304 5.94604C34.9304 6.85087 34.8442 7.65461 34.6719 8.35726C34.5028 9.0566 34.2576 9.64656 33.9361 10.1271C33.6179 10.6077 33.2301 10.9723 32.7727 11.2209C32.3187 11.4695 31.8049 11.5938 31.2315 11.5938C30.6615 11.5938 30.1527 11.4811 29.7053 11.2557C29.2611 11.027 28.8965 10.7105 28.6115 10.3061C28.3298 9.89845 28.1491 9.42615 28.0696 8.88922H29.2827C29.392 9.35655 29.6091 9.74267 29.9339 10.0476C30.2621 10.3492 30.6946 10.5 31.2315 10.5C32.017 10.5 32.6368 10.157 33.0909 9.47089C33.5483 8.78481 33.777 7.81535 33.777 6.56251H33.6974C33.5118 6.84092 33.2914 7.08122 33.0362 7.28339C32.781 7.48557 32.4976 7.64135 32.1861 7.75072C31.8745 7.8601 31.5431 7.91479 31.1918 7.91479C30.6084 7.91479 30.0731 7.77061 29.5859 7.48226C29.102 7.19059 28.7142 6.79121 28.4226 6.2841C28.1342 5.77369 27.9901 5.19035 27.9901 4.5341C27.9901 3.911 28.1293 3.34092 28.4077 2.82388C28.6894 2.30352 29.0838 1.88922 29.5909 1.58098C30.1013 1.27274 30.7012 1.12359 31.3906 1.13354ZM31.3906 2.22729C30.973 2.22729 30.5968 2.33169 30.2621 2.5405C29.9306 2.74599 29.6671 3.0244 29.4716 3.37572C29.2794 3.72374 29.1832 4.10986 29.1832 4.5341C29.1832 4.95835 29.276 5.34447 29.4616 5.69249C29.6506 6.03718 29.9074 6.31228 30.2322 6.51777C30.5604 6.71995 30.9332 6.82104 31.3508 6.82104C31.6657 6.82104 31.959 6.75972 32.2308 6.63709C32.5026 6.51114 32.7396 6.34045 32.9418 6.12501C33.1472 5.90626 33.308 5.65934 33.424 5.38425C33.54 5.10584 33.598 4.81583 33.598 4.51422C33.598 4.11649 33.5019 3.74362 33.3097 3.39561C33.1207 3.0476 32.8589 2.76588 32.5241 2.55044C32.1927 2.335 31.8149 2.22729 31.3906 2.22729ZM38.2999 10.0625L38.2203 10.5994C38.164 10.9773 38.0778 11.3816 37.9618 11.8125C37.8491 12.2434 37.7315 12.6494 37.6088 13.0306C37.4862 13.4117 37.3851 13.715 37.3056 13.9404H36.4107C36.4538 13.7282 36.5101 13.4482 36.5797 13.1002C36.6493 12.7521 36.7189 12.3627 36.7885 11.9318C36.8614 11.5043 36.9211 11.0668 36.9675 10.6193L37.0272 10.0625H38.2999ZM40.5669 11.4546L45.1209 2.44604V2.36649H39.8709V1.27274H46.3936V2.42615L41.8595 11.4546H40.5669ZM51.3491 11.5938C50.6 11.5938 49.962 11.3899 49.435 10.9823C48.908 10.5713 48.5053 9.97634 48.2269 9.19746C47.9485 8.41526 47.8093 7.47066 47.8093 6.36365C47.8093 5.26327 47.9485 4.32364 48.2269 3.54476C48.5086 2.76256 48.913 2.16597 49.44 1.75498C49.9703 1.34069 50.6066 1.13354 51.3491 1.13354C52.0915 1.13354 52.7262 1.34069 53.2532 1.75498C53.7835 2.16597 54.1879 2.76256 54.4663 3.54476C54.748 4.32364 54.8888 5.26327 54.8888 6.36365C54.8888 7.47066 54.7496 8.41526 54.4712 9.19746C54.1928 9.97634 53.7901 10.5713 53.2631 10.9823C52.7361 11.3899 52.0981 11.5938 51.3491 11.5938ZM51.3491 10.5C52.0915 10.5 52.6682 10.1421 53.0792 9.42615C53.4902 8.71024 53.6957 7.68941 53.6957 6.36365C53.6957 5.48202 53.6012 4.73131 53.4123 4.11152C53.2267 3.49173 52.9582 3.01943 52.6069 2.69462C52.2589 2.36981 51.8396 2.2074 51.3491 2.2074C50.6133 2.2074 50.0382 2.57033 49.6239 3.29618C49.2096 4.01872 49.0025 5.04121 49.0025 6.36365C49.0025 7.24528 49.0953 7.99433 49.2809 8.61081C49.4665 9.22729 49.7333 9.69627 50.0813 10.0178C50.4326 10.3393 50.8552 10.5 51.3491 10.5Z" fill="#1C2434"/>
</svg>
