<svg width="39" height="8" viewBox="0 0 39 8" fill="none" xmlns="http://www.w3.org/2000/svg">
<mask id="path-1-outside-1_22_496" maskUnits="userSpaceOnUse" x="-0.123657" y="-0.527283" width="39" height="9" fill="black">
<rect fill="white" x="-0.123657" y="-0.527283" width="39" height="9"/>
<path d="M1.20985 0.19999L3.36894 6.32215H3.45416L5.61325 0.19999H6.53655L3.8661 7.47272H2.95701L0.28655 0.19999H1.20985ZM9.33485 7.58635C8.80928 7.58635 8.35592 7.47035 7.97476 7.23834C7.59597 7.00397 7.3036 6.67726 7.09763 6.25823C6.89403 5.83683 6.79223 5.34677 6.79223 4.78806C6.79223 4.22935 6.89403 3.73692 7.09763 3.31079C7.3036 2.88228 7.59005 2.54847 7.957 2.30936C8.32632 2.06789 8.75719 1.94715 9.24962 1.94715C9.53371 1.94715 9.81425 1.9945 10.0912 2.08919C10.3682 2.18389 10.6204 2.33777 10.8476 2.55084C11.0749 2.76154 11.256 3.0409 11.391 3.38891C11.5259 3.73692 11.5934 4.16543 11.5934 4.67442V5.02954H7.38882V4.3051H10.7411C10.7411 3.99734 10.6795 3.72272 10.5564 3.48124C10.4357 3.23976 10.2629 3.04918 10.038 2.90951C9.81543 2.76983 9.55265 2.69999 9.24962 2.69999C8.91581 2.69999 8.62699 2.78285 8.38314 2.94857C8.14166 3.11192 7.95582 3.32499 7.82561 3.58777C7.6954 3.85056 7.6303 4.13228 7.6303 4.43294V4.9159C7.6303 5.32783 7.70132 5.67703 7.84337 5.96348C7.98778 6.24758 8.18783 6.46419 8.44351 6.61334C8.69919 6.76012 8.9963 6.83351 9.33485 6.83351C9.55502 6.83351 9.75388 6.80274 9.93144 6.74118C10.1114 6.67726 10.2664 6.58257 10.3966 6.45709C10.5268 6.32925 10.6275 6.17063 10.6985 5.98124L11.5081 6.20851C11.4229 6.48313 11.2797 6.72461 11.0785 6.93294C10.8772 7.13891 10.6286 7.2999 10.3327 7.4159C10.0368 7.52954 9.70416 7.58635 9.33485 7.58635ZM12.8682 7.47272V2.01817H13.6779V2.84204H13.7347C13.8341 2.57215 14.0141 2.35316 14.2745 2.18507C14.5349 2.01699 14.8285 1.93294 15.1552 1.93294C15.2167 1.93294 15.2937 1.93413 15.386 1.9365C15.4783 1.93886 15.5482 1.94241 15.5955 1.94715V2.79942C15.5671 2.79232 15.502 2.78167 15.4002 2.76746C15.3008 2.75089 15.1954 2.7426 15.0841 2.7426C14.819 2.7426 14.5822 2.79824 14.3739 2.90951C14.1679 3.01841 14.0046 3.16992 13.8839 3.36405C13.7655 3.55581 13.7063 3.7748 13.7063 4.02101V7.47272H12.8682ZM20.3957 0.19999V7.47272H19.5151V0.19999H20.3957ZM24.4201 2.01817V2.7284H21.5934V2.01817H24.4201ZM22.4172 0.711354H23.2553V5.91022C23.2553 6.14696 23.2896 6.32452 23.3583 6.44289C23.4293 6.55889 23.5193 6.63702 23.6282 6.67726C23.7394 6.71514 23.8566 6.73408 23.9797 6.73408C24.0721 6.73408 24.1478 6.72935 24.207 6.71988C24.2662 6.70804 24.3135 6.69857 24.3491 6.69147L24.5195 7.44431C24.4627 7.46562 24.3834 7.48692 24.2816 7.50823C24.1798 7.5319 24.0508 7.54374 23.8945 7.54374C23.6578 7.54374 23.4258 7.49284 23.1985 7.39104C22.9736 7.28924 22.7866 7.13418 22.6374 6.92584C22.4906 6.71751 22.4172 6.45472 22.4172 6.13749V0.711354ZM27.9091 7.58635C27.3835 7.58635 26.9301 7.47035 26.549 7.23834C26.1702 7.00397 25.8778 6.67726 25.6718 6.25823C25.4683 5.83683 25.3665 5.34677 25.3665 4.78806C25.3665 4.22935 25.4683 3.73692 25.6718 3.31079C25.8778 2.88228 26.1643 2.54847 26.5312 2.30936C26.9005 2.06789 27.3314 1.94715 27.8238 1.94715C28.1079 1.94715 28.3885 1.9945 28.6655 2.08919C28.9424 2.18389 29.1946 2.33777 29.4218 2.55084C29.6491 2.76154 29.8302 3.0409 29.9652 3.38891C30.1001 3.73692 30.1676 4.16543 30.1676 4.67442V5.02954H25.963V4.3051H29.3153C29.3153 3.99734 29.2538 3.72272 29.1307 3.48124C29.0099 3.23976 28.8371 3.04918 28.6122 2.90951C28.3897 2.76983 28.1269 2.69999 27.8238 2.69999C27.49 2.69999 27.2012 2.78285 26.9574 2.94857C26.7159 3.11192 26.53 3.32499 26.3998 3.58777C26.2696 3.85056 26.2045 4.13228 26.2045 4.43294V4.9159C26.2045 5.32783 26.2755 5.67703 26.4176 5.96348C26.562 6.24758 26.762 6.46419 27.0177 6.61334C27.2734 6.76012 27.5705 6.83351 27.9091 6.83351C28.1292 6.83351 28.3281 6.80274 28.5057 6.74118C28.6856 6.67726 28.8406 6.58257 28.9709 6.45709C29.1011 6.32925 29.2017 6.17063 29.2727 5.98124L30.0824 6.20851C29.9971 6.48313 29.8539 6.72461 29.6527 6.93294C29.4514 7.13891 29.2029 7.2999 28.9069 7.4159C28.611 7.52954 28.2784 7.58635 27.9091 7.58635ZM31.4424 7.47272V2.01817H32.2521V2.87044H32.3231C32.4368 2.57925 32.6202 2.35316 32.8736 2.19218C33.1269 2.02883 33.4311 1.94715 33.7862 1.94715C34.146 1.94715 34.4455 2.02883 34.6846 2.19218C34.9261 2.35316 35.1143 2.57925 35.2493 2.87044H35.3061C35.4458 2.58872 35.6553 2.365 35.9346 2.19928C36.214 2.03119 36.549 1.94715 36.9396 1.94715C37.4273 1.94715 37.8262 2.09985 38.1363 2.40525C38.4465 2.70828 38.6015 3.18058 38.6015 3.82215V7.47272H37.7635V3.82215C37.7635 3.41969 37.6534 3.13204 37.4332 2.95922C37.213 2.7864 36.9538 2.69999 36.6555 2.69999C36.272 2.69999 35.9749 2.81599 35.7642 3.048C35.5535 3.27764 35.4481 3.56883 35.4481 3.92158V7.47272H34.5959V3.73692C34.5959 3.42679 34.4952 3.17703 34.294 2.98763C34.0928 2.79587 33.8335 2.69999 33.5163 2.69999C33.2985 2.69999 33.0949 2.75799 32.9055 2.874C32.7185 2.99 32.567 3.15098 32.451 3.35695C32.3373 3.56055 32.2805 3.79611 32.2805 4.06363V7.47272H31.4424Z"/>
</mask>
<path d="M1.20985 0.19999L3.36894 6.32215H3.45416L5.61325 0.19999H6.53655L3.8661 7.47272H2.95701L0.28655 0.19999H1.20985ZM9.33485 7.58635C8.80928 7.58635 8.35592 7.47035 7.97476 7.23834C7.59597 7.00397 7.3036 6.67726 7.09763 6.25823C6.89403 5.83683 6.79223 5.34677 6.79223 4.78806C6.79223 4.22935 6.89403 3.73692 7.09763 3.31079C7.3036 2.88228 7.59005 2.54847 7.957 2.30936C8.32632 2.06789 8.75719 1.94715 9.24962 1.94715C9.53371 1.94715 9.81425 1.9945 10.0912 2.08919C10.3682 2.18389 10.6204 2.33777 10.8476 2.55084C11.0749 2.76154 11.256 3.0409 11.391 3.38891C11.5259 3.73692 11.5934 4.16543 11.5934 4.67442V5.02954H7.38882V4.3051H10.7411C10.7411 3.99734 10.6795 3.72272 10.5564 3.48124C10.4357 3.23976 10.2629 3.04918 10.038 2.90951C9.81543 2.76983 9.55265 2.69999 9.24962 2.69999C8.91581 2.69999 8.62699 2.78285 8.38314 2.94857C8.14166 3.11192 7.95582 3.32499 7.82561 3.58777C7.6954 3.85056 7.6303 4.13228 7.6303 4.43294V4.9159C7.6303 5.32783 7.70132 5.67703 7.84337 5.96348C7.98778 6.24758 8.18783 6.46419 8.44351 6.61334C8.69919 6.76012 8.9963 6.83351 9.33485 6.83351C9.55502 6.83351 9.75388 6.80274 9.93144 6.74118C10.1114 6.67726 10.2664 6.58257 10.3966 6.45709C10.5268 6.32925 10.6275 6.17063 10.6985 5.98124L11.5081 6.20851C11.4229 6.48313 11.2797 6.72461 11.0785 6.93294C10.8772 7.13891 10.6286 7.2999 10.3327 7.4159C10.0368 7.52954 9.70416 7.58635 9.33485 7.58635ZM12.8682 7.47272V2.01817H13.6779V2.84204H13.7347C13.8341 2.57215 14.0141 2.35316 14.2745 2.18507C14.5349 2.01699 14.8285 1.93294 15.1552 1.93294C15.2167 1.93294 15.2937 1.93413 15.386 1.9365C15.4783 1.93886 15.5482 1.94241 15.5955 1.94715V2.79942C15.5671 2.79232 15.502 2.78167 15.4002 2.76746C15.3008 2.75089 15.1954 2.7426 15.0841 2.7426C14.819 2.7426 14.5822 2.79824 14.3739 2.90951C14.1679 3.01841 14.0046 3.16992 13.8839 3.36405C13.7655 3.55581 13.7063 3.7748 13.7063 4.02101V7.47272H12.8682ZM20.3957 0.19999V7.47272H19.5151V0.19999H20.3957ZM24.4201 2.01817V2.7284H21.5934V2.01817H24.4201ZM22.4172 0.711354H23.2553V5.91022C23.2553 6.14696 23.2896 6.32452 23.3583 6.44289C23.4293 6.55889 23.5193 6.63702 23.6282 6.67726C23.7394 6.71514 23.8566 6.73408 23.9797 6.73408C24.0721 6.73408 24.1478 6.72935 24.207 6.71988C24.2662 6.70804 24.3135 6.69857 24.3491 6.69147L24.5195 7.44431C24.4627 7.46562 24.3834 7.48692 24.2816 7.50823C24.1798 7.5319 24.0508 7.54374 23.8945 7.54374C23.6578 7.54374 23.4258 7.49284 23.1985 7.39104C22.9736 7.28924 22.7866 7.13418 22.6374 6.92584C22.4906 6.71751 22.4172 6.45472 22.4172 6.13749V0.711354ZM27.9091 7.58635C27.3835 7.58635 26.9301 7.47035 26.549 7.23834C26.1702 7.00397 25.8778 6.67726 25.6718 6.25823C25.4683 5.83683 25.3665 5.34677 25.3665 4.78806C25.3665 4.22935 25.4683 3.73692 25.6718 3.31079C25.8778 2.88228 26.1643 2.54847 26.5312 2.30936C26.9005 2.06789 27.3314 1.94715 27.8238 1.94715C28.1079 1.94715 28.3885 1.9945 28.6655 2.08919C28.9424 2.18389 29.1946 2.33777 29.4218 2.55084C29.6491 2.76154 29.8302 3.0409 29.9652 3.38891C30.1001 3.73692 30.1676 4.16543 30.1676 4.67442V5.02954H25.963V4.3051H29.3153C29.3153 3.99734 29.2538 3.72272 29.1307 3.48124C29.0099 3.23976 28.8371 3.04918 28.6122 2.90951C28.3897 2.76983 28.1269 2.69999 27.8238 2.69999C27.49 2.69999 27.2012 2.78285 26.9574 2.94857C26.7159 3.11192 26.53 3.32499 26.3998 3.58777C26.2696 3.85056 26.2045 4.13228 26.2045 4.43294V4.9159C26.2045 5.32783 26.2755 5.67703 26.4176 5.96348C26.562 6.24758 26.762 6.46419 27.0177 6.61334C27.2734 6.76012 27.5705 6.83351 27.9091 6.83351C28.1292 6.83351 28.3281 6.80274 28.5057 6.74118C28.6856 6.67726 28.8406 6.58257 28.9709 6.45709C29.1011 6.32925 29.2017 6.17063 29.2727 5.98124L30.0824 6.20851C29.9971 6.48313 29.8539 6.72461 29.6527 6.93294C29.4514 7.13891 29.2029 7.2999 28.9069 7.4159C28.611 7.52954 28.2784 7.58635 27.9091 7.58635ZM31.4424 7.47272V2.01817H32.2521V2.87044H32.3231C32.4368 2.57925 32.6202 2.35316 32.8736 2.19218C33.1269 2.02883 33.4311 1.94715 33.7862 1.94715C34.146 1.94715 34.4455 2.02883 34.6846 2.19218C34.9261 2.35316 35.1143 2.57925 35.2493 2.87044H35.3061C35.4458 2.58872 35.6553 2.365 35.9346 2.19928C36.214 2.03119 36.549 1.94715 36.9396 1.94715C37.4273 1.94715 37.8262 2.09985 38.1363 2.40525C38.4465 2.70828 38.6015 3.18058 38.6015 3.82215V7.47272H37.7635V3.82215C37.7635 3.41969 37.6534 3.13204 37.4332 2.95922C37.213 2.7864 36.9538 2.69999 36.6555 2.69999C36.272 2.69999 35.9749 2.81599 35.7642 3.048C35.5535 3.27764 35.4481 3.56883 35.4481 3.92158V7.47272H34.5959V3.73692C34.5959 3.42679 34.4952 3.17703 34.294 2.98763C34.0928 2.79587 33.8335 2.69999 33.5163 2.69999C33.2985 2.69999 33.0949 2.75799 32.9055 2.874C32.7185 2.99 32.567 3.15098 32.451 3.35695C32.3373 3.56055 32.2805 3.79611 32.2805 4.06363V7.47272H31.4424Z" fill="#1C2434"/>
<path d="M1.20985 0.19999L1.39846 0.133471L1.35139 -1.00136e-05H1.20985V0.19999ZM3.36894 6.32215L3.18032 6.38867L3.2274 6.52215H3.36894V6.32215ZM3.45416 6.32215V6.52215H3.5957L3.64278 6.38867L3.45416 6.32215ZM5.61325 0.19999V-1.00136e-05H5.47172L5.42464 0.133471L5.61325 0.19999ZM6.53655 0.19999L6.72429 0.268927L6.82304 -1.00136e-05H6.53655V0.19999ZM3.8661 7.47272V7.67272H4.00572L4.05384 7.54165L3.8661 7.47272ZM2.957 7.47272L2.76926 7.54165L2.81739 7.67272H2.957V7.47272ZM0.286551 0.19999V-1.00136e-05H5.62668e-05L0.0988064 0.268927L0.286551 0.19999ZM1.20985 0.19999L1.02123 0.266508L3.18032 6.38867L3.36894 6.32215L3.55755 6.25563L1.39846 0.133471L1.20985 0.19999ZM3.36894 6.32215V6.52215H3.45416V6.32215V6.12215H3.36894V6.32215ZM3.45416 6.32215L3.64278 6.38867L5.80187 0.266508L5.61325 0.19999L5.42464 0.133471L3.26555 6.25563L3.45416 6.32215ZM5.61325 0.19999V0.39999H6.53655V0.19999V-1.00136e-05H5.61325V0.19999ZM6.53655 0.19999L6.34881 0.131052L3.67835 7.40378L3.8661 7.47272L4.05384 7.54165L6.72429 0.268927L6.53655 0.19999ZM3.8661 7.47272V7.27272H2.957V7.47272V7.67272H3.8661V7.47272ZM2.957 7.47272L3.14475 7.40378L0.474294 0.131052L0.286551 0.19999L0.0988064 0.268927L2.76926 7.54165L2.957 7.47272ZM0.286551 0.19999V0.39999H1.20985V0.19999V-1.00136e-05H0.286551V0.19999ZM7.97476 7.23834L7.86952 7.40842L7.87077 7.40918L7.97476 7.23834ZM7.09763 6.25823L6.91754 6.34524L6.91814 6.34645L7.09763 6.25823ZM7.09763 3.31079L6.91737 3.22414L6.91717 3.22457L7.09763 3.31079ZM7.957 2.30936L8.06619 2.47693L8.06645 2.47676L7.957 2.30936ZM10.0912 2.08919L10.1559 1.89995V1.89995L10.0912 2.08919ZM10.8476 2.55084L10.7108 2.69675L10.7117 2.69751L10.8476 2.55084ZM11.391 3.38891L11.5774 3.31661V3.3166L11.391 3.38891ZM11.5934 5.02954V5.22954H11.7934V5.02954H11.5934ZM7.38882 5.02954H7.18882V5.22954H7.38882V5.02954ZM7.38882 4.3051V4.1051H7.18882V4.3051H7.38882ZM10.7411 4.3051V4.5051H10.9411V4.3051H10.7411ZM10.5564 3.48124L10.3775 3.57069L10.3783 3.57208L10.5564 3.48124ZM10.038 2.90951L9.93165 3.07891L9.93245 3.07941L10.038 2.90951ZM8.38314 2.94857L8.4952 3.11423L8.49556 3.11398L8.38314 2.94857ZM7.82561 3.58777L7.64641 3.49898V3.49898L7.82561 3.58777ZM7.84337 5.96348L7.66418 6.05234L7.66508 6.05411L7.84337 5.96348ZM8.44351 6.61334L8.34273 6.7861L8.34394 6.78679L8.44351 6.61334ZM9.93144 6.74118L9.99695 6.93016L9.99839 6.92964L9.93144 6.74118ZM10.3966 6.45709L10.5354 6.60111L10.5368 6.5998L10.3966 6.45709ZM10.6985 5.98124L10.7525 5.78868L10.5757 5.73905L10.5112 5.91102L10.6985 5.98124ZM11.5081 6.20851L11.6992 6.26779L11.7601 6.0715L11.5622 6.01595L11.5081 6.20851ZM11.0785 6.93294L11.2215 7.07271L11.2223 7.07189L11.0785 6.93294ZM10.3327 7.4159L10.4044 7.60261L10.4057 7.6021L10.3327 7.4159ZM9.33485 7.58635V7.38635C8.83936 7.38635 8.42338 7.27728 8.07875 7.0675L7.97476 7.23834L7.87077 7.40918C8.28845 7.66342 8.7792 7.78635 9.33485 7.78635V7.58635ZM7.97476 7.23834L8.07999 7.06827C7.73473 6.85464 7.46735 6.55703 7.27712 6.17L7.09763 6.25823L6.91814 6.34645C7.13984 6.7975 7.45721 7.1533 7.86953 7.40842L7.97476 7.23834ZM7.09763 6.25823L7.27771 6.17122C7.08952 5.78171 6.99223 5.32241 6.99223 4.78806H6.79223H6.59223C6.59223 5.37113 6.69854 5.89194 6.91755 6.34523L7.09763 6.25823ZM6.79223 4.78806H6.99223C6.99223 4.25377 7.0895 3.79173 7.27809 3.39701L7.09763 3.31079L6.91717 3.22457C6.69856 3.68211 6.59223 4.20492 6.59223 4.78806H6.79223ZM7.09763 3.31079L7.27789 3.39743C7.46941 2.99897 7.73249 2.69437 8.06619 2.47693L7.957 2.30936L7.84782 2.1418C7.44762 2.40258 7.13778 2.76559 6.91737 3.22414L7.09763 3.31079ZM7.957 2.30936L8.06645 2.47676C8.39954 2.25897 8.7914 2.14715 9.24962 2.14715V1.94715V1.74715C8.72298 1.74715 8.25311 1.8768 7.84756 2.14197L7.957 2.30936ZM9.24962 1.94715V2.14715C9.51103 2.14715 9.76974 2.19064 10.0265 2.27844L10.0912 2.08919L10.1559 1.89995C9.85876 1.79835 9.55639 1.74715 9.24962 1.74715V1.94715ZM10.0912 2.08919L10.0265 2.27844C10.275 2.36338 10.5029 2.50181 10.7108 2.69675L10.8476 2.55084L10.9844 2.40493C10.7378 2.17374 10.4615 2.0044 10.1559 1.89995L10.0912 2.08919ZM10.8476 2.55084L10.7117 2.69751C10.9126 2.88378 11.0783 3.1358 11.2045 3.46122L11.391 3.38891L11.5774 3.3166C11.4337 2.946 11.2372 2.6393 10.9836 2.40417L10.8476 2.55084ZM11.391 3.38891L11.2045 3.46122C11.3279 3.77945 11.3934 4.18175 11.3934 4.67442H11.5934H11.7934C11.7934 4.1491 11.7239 3.69439 11.5774 3.31661L11.391 3.38891ZM11.5934 4.67442H11.3934V5.02954H11.5934H11.7934V4.67442H11.5934ZM11.5934 5.02954V4.82954H7.38882V5.02954V5.22954H11.5934V5.02954ZM7.38882 5.02954H7.58882V4.3051H7.38882H7.18882V5.02954H7.38882ZM7.38882 4.3051V4.5051H10.7411V4.3051V4.1051H7.38882V4.3051ZM10.7411 4.3051H10.9411C10.9411 3.97007 10.8739 3.66362 10.7346 3.3904L10.5564 3.48124L10.3783 3.57208C10.4852 3.78182 10.5411 4.0246 10.5411 4.3051H10.7411ZM10.5564 3.48124L10.7353 3.3918C10.5984 3.11792 10.4005 2.8992 10.1435 2.73961L10.038 2.90951L9.93245 3.07941C10.1253 3.19917 10.273 3.3616 10.3776 3.57068L10.5564 3.48124ZM10.038 2.90951L10.1443 2.74011C9.88525 2.57752 9.58437 2.49999 9.24962 2.49999V2.69999V2.89999C9.52092 2.89999 9.74561 2.96214 9.93165 3.0789L10.038 2.90951ZM9.24962 2.69999V2.49999C8.88121 2.49999 8.55199 2.592 8.27072 2.78315L8.38314 2.94857L8.49556 3.11398C8.70198 2.9737 8.95042 2.89999 9.24962 2.89999V2.69999ZM8.38314 2.94857L8.27108 2.78291C8.00077 2.96577 7.79188 3.20539 7.64641 3.49898L7.82561 3.58777L8.00482 3.67657C8.11977 3.44459 8.28256 3.25808 8.4952 3.11423L8.38314 2.94857ZM7.82561 3.58777L7.64641 3.49898C7.50217 3.79007 7.4303 4.10228 7.4303 4.43294H7.6303H7.8303C7.8303 4.16228 7.88864 3.91104 8.00482 3.67657L7.82561 3.58777ZM7.6303 4.43294H7.4303V4.9159H7.6303H7.8303V4.43294H7.6303ZM7.6303 4.9159H7.4303C7.4303 5.35006 7.50508 5.73147 7.66419 6.05233L7.84337 5.96348L8.02255 5.87463C7.89756 5.62258 7.8303 5.3056 7.8303 4.9159H7.6303ZM7.84337 5.96348L7.66508 6.05411C7.82551 6.36972 8.0513 6.6161 8.34274 6.7861L8.44351 6.61334L8.54428 6.44059C8.32435 6.31229 8.15005 6.12543 8.02166 5.87286L7.84337 5.96348ZM8.44351 6.61334L8.34394 6.78679C8.63417 6.95341 8.96662 7.03351 9.33485 7.03351V6.83351V6.63351C9.02599 6.63351 8.76421 6.56683 8.54308 6.43989L8.44351 6.61334ZM9.33485 6.83351V7.03351C9.57357 7.03351 9.79506 7.00014 9.99695 6.93015L9.93144 6.74118L9.86593 6.55222C9.71271 6.60533 9.53646 6.63351 9.33485 6.63351V6.83351ZM9.93144 6.74118L9.99839 6.92964C10.2036 6.85673 10.3836 6.74744 10.5354 6.60111L10.3966 6.45709L10.2579 6.31308C10.1493 6.41769 10.0191 6.49779 9.86448 6.55272L9.93144 6.74118ZM10.3966 6.45709L10.5368 6.5998C10.6899 6.4494 10.8056 6.26518 10.8857 6.05146L10.6985 5.98124L10.5112 5.91102C10.4493 6.07609 10.3637 6.2091 10.2565 6.31438L10.3966 6.45709ZM10.6985 5.98124L10.6444 6.1738L11.4541 6.40107L11.5081 6.20851L11.5622 6.01595L10.7525 5.78868L10.6985 5.98124ZM11.5081 6.20851L11.3171 6.14923C11.2412 6.39375 11.1143 6.60799 10.9346 6.794L11.0785 6.93294L11.2223 7.07189C11.4451 6.84123 11.6046 6.57252 11.6992 6.26779L11.5081 6.20851ZM11.0785 6.93294L10.9354 6.79318C10.7559 6.97686 10.532 7.12295 10.2597 7.22969L10.3327 7.4159L10.4057 7.6021C10.7253 7.47684 10.9985 7.30096 11.2215 7.07271L11.0785 6.93294ZM10.3327 7.4159L10.261 7.22919C9.99142 7.33272 9.68363 7.38635 9.33485 7.38635V7.58635V7.78635C9.7247 7.78635 10.0822 7.72635 10.4044 7.60261L10.3327 7.4159ZM12.8682 7.47272H12.6682V7.67272H12.8682V7.47272ZM12.8682 2.01817V1.81817H12.6682V2.01817H12.8682ZM13.6779 2.01817H13.8779V1.81817H13.6779V2.01817ZM13.6779 2.84204H13.4779V3.04204H13.6779V2.84204ZM13.7347 2.84204V3.04204H13.8742L13.9224 2.91118L13.7347 2.84204ZM14.2745 2.18507L14.166 2.01704V2.01704L14.2745 2.18507ZM15.5955 1.94715H15.7955V1.76615L15.6154 1.74814L15.5955 1.94715ZM15.5955 2.79942L15.547 2.99345L15.7955 3.05558V2.79942H15.5955ZM15.4002 2.76746L15.3673 2.96481L15.3725 2.96554L15.4002 2.76746ZM14.3739 2.90951L14.4674 3.08632L14.4681 3.08592L14.3739 2.90951ZM13.8839 3.36405L13.714 3.25842L13.7137 3.259L13.8839 3.36405ZM13.7063 7.47272V7.67272H13.9063V7.47272H13.7063ZM12.8682 7.47272H13.0682V2.01817H12.8682H12.6682V7.47272H12.8682ZM12.8682 2.01817V2.21817H13.6779V2.01817V1.81817H12.8682V2.01817ZM13.6779 2.01817H13.4779V2.84204H13.6779H13.8779V2.01817H13.6779ZM13.6779 2.84204V3.04204H13.7347V2.84204V2.64204H13.6779V2.84204ZM13.7347 2.84204L13.9224 2.91118C14.0056 2.6852 14.1559 2.49963 14.3829 2.35311L14.2745 2.18507L14.166 2.01704C13.8722 2.2067 13.6626 2.4591 13.547 2.77289L13.7347 2.84204ZM14.2745 2.18507L14.3829 2.35311C14.6092 2.20704 14.8647 2.13294 15.1552 2.13294V1.93294V1.73294C14.7922 1.73294 14.4605 1.82693 14.166 2.01704L14.2745 2.18507ZM15.1552 1.93294V2.13294C15.2144 2.13294 15.2895 2.13409 15.3809 2.13643L15.386 1.9365L15.3911 1.73656C15.2978 1.73417 15.219 1.73294 15.1552 1.73294V1.93294ZM15.386 1.9365L15.3809 2.13643C15.4719 2.13876 15.5358 2.14218 15.5756 2.14616L15.5955 1.94715L15.6154 1.74814C15.5605 1.74265 15.4847 1.73896 15.3911 1.73656L15.386 1.9365ZM15.5955 1.94715H15.3955V2.79942H15.5955H15.7955V1.94715H15.5955ZM15.5955 2.79942L15.644 2.60539C15.6032 2.59519 15.5266 2.58317 15.4278 2.56938L15.4002 2.76746L15.3725 2.96554C15.4773 2.98016 15.531 2.98945 15.547 2.99345L15.5955 2.79942ZM15.4002 2.76746L15.4331 2.57018C15.3217 2.55162 15.2053 2.5426 15.0841 2.5426V2.7426V2.9426C15.1855 2.9426 15.2798 2.95015 15.3673 2.96474L15.4002 2.76746ZM15.0841 2.7426V2.5426C14.7902 2.5426 14.5204 2.60452 14.2797 2.73309L14.3739 2.90951L14.4681 3.08592C14.6441 2.99196 14.8478 2.9426 15.0841 2.9426V2.7426ZM14.3739 2.90951L14.2804 2.7327C14.0438 2.85782 13.8538 3.03363 13.714 3.25843L13.8839 3.36405L14.0537 3.46968C14.1553 3.30621 14.2921 3.179 14.4674 3.08631L14.3739 2.90951ZM13.8839 3.36405L13.7137 3.259C13.574 3.48523 13.5063 3.74125 13.5063 4.02101H13.7063H13.9063C13.9063 3.80835 13.9569 3.6264 14.054 3.46911L13.8839 3.36405ZM13.7063 4.02101H13.5063V7.47272H13.7063H13.9063V4.02101H13.7063ZM13.7063 7.47272V7.27272H12.8682V7.47272V7.67272H13.7063V7.47272ZM20.3957 0.19999H20.5957V-1.00136e-05H20.3957V0.19999ZM20.3957 7.47272V7.67272H20.5957V7.47272H20.3957ZM19.5151 7.47272H19.3151V7.67272H19.5151V7.47272ZM19.5151 0.19999V-1.00136e-05H19.3151V0.19999H19.5151ZM20.3957 0.19999H20.1957V7.47272H20.3957H20.5957V0.19999H20.3957ZM20.3957 7.47272V7.27272H19.5151V7.47272V7.67272H20.3957V7.47272ZM19.5151 7.47272H19.7151V0.19999H19.5151H19.3151V7.47272H19.5151ZM19.5151 0.19999V0.39999H20.3957V0.19999V-1.00136e-05H19.5151V0.19999ZM24.4201 2.01817H24.6201V1.81817H24.4201V2.01817ZM24.4201 2.7284V2.9284H24.6201V2.7284H24.4201ZM21.5934 2.7284H21.3934V2.9284H21.5934V2.7284ZM21.5934 2.01817V1.81817H21.3934V2.01817H21.5934ZM22.4172 0.711353V0.511353H22.2172V0.711353H22.4172ZM23.2553 0.711353H23.4553V0.511353H23.2553V0.711353ZM23.3583 6.44289L23.1852 6.54326L23.1877 6.54732L23.3583 6.44289ZM23.6282 6.67726L23.5588 6.86492L23.5637 6.86659L23.6282 6.67726ZM24.207 6.71988L24.2386 6.91751L24.2462 6.91599L24.207 6.71988ZM24.3491 6.69147L24.5441 6.6473L24.501 6.45711L24.3098 6.49535L24.3491 6.69147ZM24.5195 7.44431L24.5897 7.63157L24.7531 7.57031L24.7146 7.40014L24.5195 7.44431ZM24.2816 7.50823L24.2406 7.31242L24.2363 7.31343L24.2816 7.50823ZM23.1985 7.39104L23.116 7.57325L23.1167 7.57357L23.1985 7.39104ZM22.6374 6.92584L22.4739 7.04104L22.4748 7.04226L22.6374 6.92584ZM24.4201 2.01817H24.2201V2.7284H24.4201H24.6201V2.01817H24.4201ZM24.4201 2.7284V2.5284H21.5934V2.7284V2.9284H24.4201V2.7284ZM21.5934 2.7284H21.7934V2.01817H21.5934H21.3934V2.7284H21.5934ZM21.5934 2.01817V2.21817H24.4201V2.01817V1.81817H21.5934V2.01817ZM22.4172 0.711353V0.911354H23.2553V0.711353V0.511353H22.4172V0.711353ZM23.2553 0.711353H23.0553V5.91022H23.2553H23.4553V0.711353H23.2553ZM23.2553 5.91022H23.0553C23.0553 6.15974 23.0903 6.37952 23.1853 6.54323L23.3583 6.44289L23.5313 6.34254C23.4889 6.26951 23.4553 6.13418 23.4553 5.91022H23.2553ZM23.3583 6.44289L23.1877 6.54732C23.278 6.69478 23.4008 6.80647 23.5588 6.86486L23.6282 6.67726L23.6975 6.48966C23.6377 6.46756 23.5806 6.42301 23.5289 6.33846L23.3583 6.44289ZM23.6282 6.67726L23.5637 6.86659C23.6967 6.91187 23.8358 6.93408 23.9797 6.93408V6.73408V6.53408C23.8775 6.53408 23.7822 6.51842 23.6926 6.48793L23.6282 6.67726ZM23.9797 6.73408V6.93408C24.0776 6.93408 24.165 6.92914 24.2386 6.91736L24.207 6.71988L24.1754 6.52239C24.1307 6.52955 24.0665 6.53408 23.9797 6.53408V6.73408ZM24.207 6.71988L24.2462 6.91599C24.3054 6.90416 24.3528 6.89469 24.3883 6.88758L24.3491 6.69147L24.3098 6.49535C24.2743 6.50245 24.227 6.51192 24.1678 6.52376L24.207 6.71988ZM24.3491 6.69147L24.154 6.73563L24.3244 7.48847L24.5195 7.44431L24.7146 7.40014L24.5441 6.6473L24.3491 6.69147ZM24.5195 7.44431L24.4493 7.25704C24.4063 7.27314 24.3384 7.292 24.2406 7.31247L24.2816 7.50823L24.3226 7.70399C24.4284 7.68184 24.519 7.65809 24.5897 7.63157L24.5195 7.44431ZM24.2816 7.50823L24.2363 7.31343C24.1547 7.3324 24.0422 7.34374 23.8945 7.34374V7.54374V7.74374C24.0593 7.74374 24.2049 7.73141 24.3269 7.70303L24.2816 7.50823ZM23.8945 7.54374V7.34374C23.6874 7.34374 23.4832 7.29941 23.2802 7.20852L23.1985 7.39104L23.1167 7.57357C23.3684 7.68628 23.6281 7.74374 23.8945 7.74374V7.54374ZM23.1985 7.39104L23.281 7.20884C23.0893 7.1221 22.9295 6.99029 22.8 6.80942L22.6374 6.92584L22.4748 7.04226C22.6436 7.27806 22.8578 7.45638 23.116 7.57325L23.1985 7.39104ZM22.6374 6.92584L22.8009 6.81065C22.6831 6.6435 22.6172 6.42367 22.6172 6.13749H22.4172H22.2172C22.2172 6.48578 22.2981 6.79152 22.4739 7.04103L22.6374 6.92584ZM22.4172 6.13749H22.6172V0.711353H22.4172H22.2172V6.13749H22.4172ZM26.549 7.23834L26.4437 7.40842L26.445 7.40918L26.549 7.23834ZM25.6718 6.25823L25.4918 6.34524L25.4924 6.34645L25.6718 6.25823ZM25.6718 3.31079L25.4916 3.22414L25.4914 3.22457L25.6718 3.31079ZM26.5312 2.30936L26.6404 2.47693L26.6407 2.47676L26.5312 2.30936ZM28.6655 2.08919L28.7302 1.89995V1.89995L28.6655 2.08919ZM29.4218 2.55084L29.2851 2.69675L29.2859 2.69751L29.4218 2.55084ZM29.9652 3.38891L30.1516 3.31661V3.3166L29.9652 3.38891ZM30.1676 5.02954V5.22954H30.3676V5.02954H30.1676ZM25.963 5.02954H25.763V5.22954H25.963V5.02954ZM25.963 4.3051V4.1051H25.763V4.3051H25.963ZM29.3153 4.3051V4.5051H29.5153V4.3051H29.3153ZM29.1307 3.48124L28.9518 3.57069L28.9525 3.57208L29.1307 3.48124ZM28.6122 2.90951L28.5059 3.07891L28.5067 3.07941L28.6122 2.90951ZM26.9574 2.94857L27.0694 3.11423L27.0698 3.11398L26.9574 2.94857ZM26.3998 3.58777L26.2206 3.49898V3.49898L26.3998 3.58777ZM26.4176 5.96348L26.2384 6.05234L26.2393 6.05411L26.4176 5.96348ZM27.0177 6.61334L26.917 6.7861L26.9182 6.78679L27.0177 6.61334ZM28.5057 6.74118L28.5712 6.93016L28.5726 6.92964L28.5057 6.74118ZM28.9709 6.45709L29.1096 6.60111L29.111 6.5998L28.9709 6.45709ZM29.2727 5.98124L29.3268 5.78868L29.1499 5.73905L29.0854 5.91102L29.2727 5.98124ZM30.0824 6.20851L30.2734 6.26779L30.3343 6.0715L30.1364 6.01595L30.0824 6.20851ZM29.6527 6.93294L29.7957 7.07271L29.7965 7.07189L29.6527 6.93294ZM28.9069 7.4159L28.9786 7.60261L28.9799 7.6021L28.9069 7.4159ZM27.9091 7.58635V7.38635C27.4136 7.38635 26.9976 7.27728 26.653 7.0675L26.549 7.23834L26.445 7.40918C26.8627 7.66342 27.3534 7.78635 27.9091 7.78635V7.58635ZM26.549 7.23834L26.6542 7.06827C26.309 6.85464 26.0416 6.55703 25.8513 6.17L25.6718 6.25823L25.4924 6.34645C25.7141 6.7975 26.0314 7.1533 26.4437 7.40842L26.549 7.23834ZM25.6718 6.25823L25.8519 6.17122C25.6637 5.78171 25.5665 5.32241 25.5665 4.78806H25.3665H25.1665C25.1665 5.37113 25.2728 5.89194 25.4918 6.34523L25.6718 6.25823ZM25.3665 4.78806H25.5665C25.5665 4.25377 25.6637 3.79173 25.8523 3.39701L25.6718 3.31079L25.4914 3.22457C25.2728 3.68211 25.1665 4.20492 25.1665 4.78806H25.3665ZM25.6718 3.31079L25.8521 3.39743C26.0436 2.99897 26.3067 2.69437 26.6404 2.47693L26.5312 2.30936L26.422 2.1418C26.0218 2.40258 25.712 2.76559 25.4916 3.22414L25.6718 3.31079ZM26.5312 2.30936L26.6407 2.47676C26.9738 2.25897 27.3656 2.14715 27.8238 2.14715V1.94715V1.74715C27.2972 1.74715 26.8273 1.8768 26.4218 2.14197L26.5312 2.30936ZM27.8238 1.94715V2.14715C28.0853 2.14715 28.344 2.19064 28.6008 2.27844L28.6655 2.08919L28.7302 1.89995C28.433 1.79835 28.1306 1.74715 27.8238 1.74715V1.94715ZM28.6655 2.08919L28.6008 2.27844C28.8492 2.36338 29.0771 2.50181 29.2851 2.69675L29.4218 2.55084L29.5586 2.40493C29.312 2.17374 29.0357 2.0044 28.7302 1.89995L28.6655 2.08919ZM29.4218 2.55084L29.2859 2.69751C29.4868 2.88378 29.6525 3.1358 29.7787 3.46122L29.9652 3.38891L30.1516 3.3166C30.0079 2.946 29.8114 2.6393 29.5578 2.40417L29.4218 2.55084ZM29.9652 3.38891L29.7787 3.46122C29.9021 3.77945 29.9676 4.18175 29.9676 4.67442H30.1676H30.3676C30.3676 4.1491 30.2981 3.69439 30.1516 3.31661L29.9652 3.38891ZM30.1676 4.67442H29.9676V5.02954H30.1676H30.3676V4.67442H30.1676ZM30.1676 5.02954V4.82954H25.963V5.02954V5.22954H30.1676V5.02954ZM25.963 5.02954H26.163V4.3051H25.963H25.763V5.02954H25.963ZM25.963 4.3051V4.5051H29.3153V4.3051V4.1051H25.963V4.3051ZM29.3153 4.3051H29.5153C29.5153 3.97007 29.4481 3.66362 29.3088 3.3904L29.1307 3.48124L28.9525 3.57208C29.0594 3.78182 29.1153 4.0246 29.1153 4.3051H29.3153ZM29.1307 3.48124L29.3095 3.3918C29.1726 3.11792 28.9747 2.8992 28.7177 2.73961L28.6122 2.90951L28.5067 3.07941C28.6995 3.19917 28.8472 3.3616 28.9518 3.57068L29.1307 3.48124ZM28.6122 2.90951L28.7185 2.74011C28.4595 2.57752 28.1586 2.49999 27.8238 2.49999V2.69999V2.89999C28.0951 2.89999 28.3198 2.96214 28.5059 3.0789L28.6122 2.90951ZM27.8238 2.69999V2.49999C27.4554 2.49999 27.1262 2.592 26.8449 2.78315L26.9574 2.94857L27.0698 3.11398C27.2762 2.9737 27.5246 2.89999 27.8238 2.89999V2.69999ZM26.9574 2.94857L26.8453 2.78291C26.575 2.96577 26.3661 3.20539 26.2206 3.49898L26.3998 3.58777L26.579 3.67657C26.694 3.44459 26.8568 3.25808 27.0694 3.11423L26.9574 2.94857ZM26.3998 3.58777L26.2206 3.49898C26.0764 3.79007 26.0045 4.10228 26.0045 4.43294H26.2045H26.4045C26.4045 4.16228 26.4629 3.91104 26.579 3.67657L26.3998 3.58777ZM26.2045 4.43294H26.0045V4.9159H26.2045H26.4045V4.43294H26.2045ZM26.2045 4.9159H26.0045C26.0045 5.35006 26.0793 5.73147 26.2384 6.05233L26.4176 5.96348L26.5968 5.87463C26.4718 5.62258 26.4045 5.3056 26.4045 4.9159H26.2045ZM26.4176 5.96348L26.2393 6.05411C26.3997 6.36972 26.6255 6.6161 26.917 6.7861L27.0177 6.61334L27.1185 6.44059C26.8986 6.31229 26.7243 6.12543 26.5959 5.87286L26.4176 5.96348ZM27.0177 6.61334L26.9182 6.78679C27.2084 6.95341 27.5408 7.03351 27.9091 7.03351V6.83351V6.63351C27.6002 6.63351 27.3384 6.56683 27.1173 6.43989L27.0177 6.61334ZM27.9091 6.83351V7.03351C28.1478 7.03351 28.3693 7.00014 28.5712 6.93015L28.5057 6.74118L28.4401 6.55222C28.2869 6.60533 28.1107 6.63351 27.9091 6.63351V6.83351ZM28.5057 6.74118L28.5726 6.92964C28.7778 6.85673 28.9578 6.74744 29.1096 6.60111L28.9709 6.45709L28.8321 6.31308C28.7235 6.41769 28.5933 6.49779 28.4387 6.55272L28.5057 6.74118ZM28.9709 6.45709L29.111 6.5998C29.2642 6.4494 29.3798 6.26518 29.46 6.05146L29.2727 5.98124L29.0854 5.91102C29.0235 6.07609 28.938 6.2091 28.8307 6.31438L28.9709 6.45709ZM29.2727 5.98124L29.2187 6.1738L30.0283 6.40107L30.0824 6.20851L30.1364 6.01595L29.3268 5.78868L29.2727 5.98124ZM30.0824 6.20851L29.8913 6.14923C29.8155 6.39375 29.6885 6.60799 29.5088 6.794L29.6527 6.93294L29.7965 7.07189C30.0193 6.84123 30.1788 6.57252 30.2734 6.26779L30.0824 6.20851ZM29.6527 6.93294L29.5096 6.79318C29.3302 6.97686 29.1063 7.12295 28.8339 7.22969L28.9069 7.4159L28.9799 7.6021C29.2995 7.47684 29.5727 7.30096 29.7957 7.07271L29.6527 6.93294ZM28.9069 7.4159L28.8352 7.22919C28.5656 7.33272 28.2579 7.38635 27.9091 7.38635V7.58635V7.78635C28.2989 7.78635 28.6564 7.72635 28.9786 7.60261L28.9069 7.4159ZM31.4424 7.47272H31.2424V7.67272H31.4424V7.47272ZM31.4424 2.01817V1.81817H31.2424V2.01817H31.4424ZM32.2521 2.01817H32.4521V1.81817H32.2521V2.01817ZM32.2521 2.87044H32.0521V3.07044H32.2521V2.87044ZM32.3231 2.87044V3.07044H32.4598L32.5094 2.94315L32.3231 2.87044ZM32.8736 2.19218L32.9808 2.36098L32.9819 2.36026L32.8736 2.19218ZM34.6846 2.19218L34.5718 2.35733L34.5737 2.35859L34.6846 2.19218ZM35.2493 2.87044L35.0678 2.95454L35.1215 3.07044H35.2493V2.87044ZM35.3061 2.87044V3.07044H35.4302L35.4853 2.95928L35.3061 2.87044ZM35.9346 2.19928L36.0367 2.37129L36.0377 2.37065L35.9346 2.19928ZM38.1363 2.40525L37.996 2.54775L37.9966 2.5483L38.1363 2.40525ZM38.6015 7.47272V7.67272H38.8015V7.47272H38.6015ZM37.7635 7.47272H37.5635V7.67272H37.7635V7.47272ZM37.4332 2.95922L37.3097 3.11655V3.11655L37.4332 2.95922ZM35.7642 3.048L35.9115 3.18322L35.9122 3.18246L35.7642 3.048ZM35.4481 7.47272V7.67272H35.6481V7.47272H35.4481ZM34.5959 7.47272H34.3959V7.67272H34.5959V7.47272ZM34.294 2.98763L34.156 3.13242L34.1569 3.13327L34.294 2.98763ZM32.9055 2.874L32.801 2.70344L32.8001 2.70403L32.9055 2.874ZM32.451 3.35695L32.2767 3.2588L32.2763 3.25948L32.451 3.35695ZM32.2805 7.47272V7.67272H32.4805V7.47272H32.2805ZM31.4424 7.47272H31.6424V2.01817H31.4424H31.2424V7.47272H31.4424ZM31.4424 2.01817V2.21817H32.2521V2.01817V1.81817H31.4424V2.01817ZM32.2521 2.01817H32.0521V2.87044H32.2521H32.4521V2.01817H32.2521ZM32.2521 2.87044V3.07044H32.3231V2.87044V2.67044H32.2521V2.87044ZM32.3231 2.87044L32.5094 2.94315C32.6083 2.68982 32.765 2.49816 32.9808 2.36097L32.8736 2.19218L32.7663 2.02338C32.4755 2.20817 32.2652 2.46868 32.1368 2.79774L32.3231 2.87044ZM32.8736 2.19218L32.9819 2.36026C33.1976 2.22122 33.4626 2.14715 33.7862 2.14715V1.94715V1.74715C33.3996 1.74715 33.0562 1.83643 32.7652 2.0241L32.8736 2.19218ZM33.7862 1.94715V2.14715C34.1156 2.14715 34.3732 2.22165 34.5718 2.35732L34.6846 2.19218L34.7975 2.02704C34.5178 1.836 34.1765 1.74715 33.7862 1.74715V1.94715ZM34.6846 2.19218L34.5737 2.35859C34.7814 2.49703 34.9467 2.69311 35.0678 2.95454L35.2493 2.87044L35.4307 2.78635C35.282 2.4654 35.0709 2.2093 34.7956 2.02577L34.6846 2.19218ZM35.2493 2.87044V3.07044H35.3061V2.87044V2.67044H35.2493V2.87044ZM35.3061 2.87044L35.4853 2.95928C35.6072 2.71333 35.7894 2.518 36.0367 2.37129L35.9346 2.19928L35.8326 2.02727C35.5212 2.212 35.2843 2.46411 35.1269 2.7816L35.3061 2.87044ZM35.9346 2.19928L36.0377 2.37065C36.2803 2.2247 36.5781 2.14715 36.9396 2.14715V1.94715V1.74715C36.5199 1.74715 36.1477 1.83768 35.8315 2.02791L35.9346 2.19928ZM36.9396 1.94715V2.14715C37.3817 2.14715 37.7279 2.28377 37.996 2.54775L38.1363 2.40525L38.2767 2.26274C37.9245 1.91593 37.4729 1.74715 36.9396 1.74715V1.94715ZM38.1363 2.40525L37.9966 2.5483C38.253 2.79887 38.4015 3.20867 38.4015 3.82215H38.6015H38.8015C38.8015 3.15248 38.6399 2.61769 38.2761 2.2622L38.1363 2.40525ZM38.6015 3.82215H38.4015V7.47272H38.6015H38.8015V3.82215H38.6015ZM38.6015 7.47272V7.27272H37.7635V7.47272V7.67272H38.6015V7.47272ZM37.7635 7.47272H37.9635V3.82215H37.7635H37.5635V7.47272H37.7635ZM37.7635 3.82215H37.9635C37.9635 3.3864 37.8437 3.02714 37.5567 2.8019L37.4332 2.95922L37.3097 3.11655C37.4631 3.23695 37.5635 3.45297 37.5635 3.82215H37.7635ZM37.4332 2.95922L37.5567 2.8019C37.2989 2.59954 36.9954 2.49999 36.6555 2.49999V2.69999V2.89999C36.9122 2.89999 37.1272 2.97326 37.3097 3.11655L37.4332 2.95922ZM36.6555 2.69999V2.49999C36.2292 2.49999 35.873 2.63067 35.6161 2.91354L35.7642 3.048L35.9122 3.18246C36.0767 3.00132 36.3147 2.89999 36.6555 2.89999V2.69999ZM35.7642 3.048L35.6168 2.91279C35.3677 3.18424 35.2481 3.52586 35.2481 3.92158H35.4481H35.6481C35.6481 3.6118 35.7392 3.37104 35.9115 3.18322L35.7642 3.048ZM35.4481 3.92158H35.2481V7.47272H35.4481H35.6481V3.92158H35.4481ZM35.4481 7.47272V7.27272H34.5959V7.47272V7.67272H35.4481V7.47272ZM34.5959 7.47272H34.7959V3.73692H34.5959H34.3959V7.47272H34.5959ZM34.5959 3.73692H34.7959C34.7959 3.37908 34.6776 3.07399 34.4311 2.84199L34.294 2.98763L34.1569 3.13327C34.3129 3.28006 34.3959 3.4745 34.3959 3.73692H34.5959ZM34.294 2.98763L34.432 2.84284C34.1883 2.61058 33.8771 2.49999 33.5163 2.49999V2.69999V2.89999C33.79 2.89999 33.9973 2.98116 34.156 3.13242L34.294 2.98763ZM33.5163 2.69999V2.49999C33.2609 2.49999 33.0212 2.56858 32.8011 2.70344L32.9055 2.874L33.01 3.04455C33.1686 2.9474 33.3361 2.89999 33.5163 2.89999V2.69999ZM32.9055 2.874L32.8001 2.70403C32.5823 2.8391 32.408 3.02572 32.2767 3.2588L32.451 3.35695L32.6252 3.4551C32.726 3.27625 32.8546 3.1409 33.0109 3.04396L32.9055 2.874ZM32.451 3.35695L32.2763 3.25948C32.1437 3.49702 32.0805 3.76707 32.0805 4.06363H32.2805H32.4805C32.4805 3.82514 32.5309 3.62408 32.6256 3.45442L32.451 3.35695ZM32.2805 4.06363H32.0805V7.47272H32.2805H32.4805V4.06363H32.2805ZM32.2805 7.47272V7.27272H31.4424V7.47272V7.67272H32.2805V7.47272Z" fill="#1C2434" mask="url(#path-1-outside-1_22_496)"/>
</svg>
