<svg width="62" height="10" viewBox="0 0 62 10" fill="none" xmlns="http://www.w3.org/2000/svg">
<path d="M4.22397 4.60894C4.22397 4.39628 4.21663 4.13594 4.20197 3.82794C4.19463 3.51261 4.16897 3.18261 4.12497 2.83794C4.08097 2.49328 4.00397 2.17061 3.89397 1.86994C3.78397 1.56928 3.63363 1.32728 3.44297 1.14394C3.2523 0.953275 3.00297 0.857942 2.69496 0.857942C2.4163 0.857942 2.18163 0.956942 1.99096 1.15494C1.8003 1.34561 1.6463 1.59861 1.52896 1.91394C1.41163 2.22194 1.31996 2.55194 1.25396 2.90394C1.1953 3.24861 1.15496 3.58228 1.13296 3.90494C1.11096 4.22028 1.09996 4.47694 1.09996 4.67494C1.09996 4.87294 1.1073 5.12228 1.12196 5.42294C1.14396 5.71628 1.18063 6.02794 1.23196 6.35794C1.2833 6.68061 1.36396 6.98494 1.47396 7.27094C1.5913 7.55694 1.74163 7.79161 1.92496 7.97494C2.1083 8.15094 2.3393 8.23894 2.61796 8.23894C2.9113 8.23894 3.1533 8.15094 3.34397 7.97494C3.53463 7.79161 3.68863 7.55694 3.80597 7.27094C3.9233 6.97761 4.0113 6.66594 4.06997 6.33594C4.13597 5.99861 4.1763 5.67961 4.19096 5.37894C4.21297 5.07094 4.22397 4.81428 4.22397 4.60894ZM5.36797 4.46594C5.36797 4.80328 5.33497 5.15894 5.26897 5.53294C5.2103 5.90694 5.11496 6.27361 4.98296 6.63294C4.85097 6.99228 4.67497 7.31861 4.45497 7.61194C4.2423 7.90528 3.98197 8.13994 3.67397 8.31594C3.36597 8.48461 3.00663 8.56894 2.59596 8.56894C2.10463 8.56894 1.6903 8.44794 1.35296 8.20594C1.02296 7.95661 0.758965 7.63761 0.560965 7.24894C0.362965 6.86028 0.219965 6.44594 0.131965 6.00594C0.0439649 5.55861 -3.51258e-05 5.13694 -3.51258e-05 4.74094C-3.51258e-05 4.40361 0.0292982 4.04428 0.0879649 3.66294C0.146632 3.27428 0.241965 2.89661 0.373965 2.52994C0.505965 2.16328 0.678298 1.82961 0.890965 1.52894C1.11096 1.22828 1.37496 0.989942 1.68296 0.813942C1.9983 0.630609 2.36496 0.538942 2.78297 0.538942C3.17896 0.538942 3.51996 0.623275 3.80597 0.791942C4.0993 0.960609 4.34496 1.18428 4.54297 1.46294C4.7483 1.74161 4.90963 2.05328 5.02697 2.39794C5.1443 2.74261 5.22863 3.09461 5.27997 3.45394C5.33863 3.80594 5.36797 4.14328 5.36797 4.46594ZM10.7122 4.60894C10.7122 4.39628 10.7049 4.13594 10.6902 3.82794C10.6829 3.51261 10.6572 3.18261 10.6132 2.83794C10.5692 2.49328 10.4922 2.17061 10.3822 1.86994C10.2722 1.56928 10.1219 1.32728 9.93125 1.14394C9.74058 0.953275 9.49125 0.857942 9.18325 0.857942C8.90458 0.857942 8.66991 0.956942 8.47925 1.15494C8.28858 1.34561 8.13458 1.59861 8.01725 1.91394C7.89991 2.22194 7.80825 2.55194 7.74225 2.90394C7.68358 3.24861 7.64325 3.58228 7.62125 3.90494C7.59925 4.22028 7.58825 4.47694 7.58825 4.67494C7.58825 4.87294 7.59558 5.12228 7.61025 5.42294C7.63225 5.71628 7.66891 6.02794 7.72025 6.35794C7.77158 6.68061 7.85225 6.98494 7.96225 7.27094C8.07958 7.55694 8.22991 7.79161 8.41325 7.97494C8.59658 8.15094 8.82758 8.23894 9.10625 8.23894C9.39958 8.23894 9.64158 8.15094 9.83225 7.97494C10.0229 7.79161 10.1769 7.55694 10.2942 7.27094C10.4116 6.97761 10.4996 6.66594 10.5582 6.33594C10.6242 5.99861 10.6646 5.67961 10.6792 5.37894C10.7012 5.07094 10.7122 4.81428 10.7122 4.60894ZM11.8562 4.46594C11.8562 4.80328 11.8232 5.15894 11.7572 5.53294C11.6986 5.90694 11.6032 6.27361 11.4712 6.63294C11.3392 6.99228 11.1632 7.31861 10.9432 7.61194C10.7306 7.90528 10.4702 8.13994 10.1622 8.31594C9.85425 8.48461 9.49491 8.56894 9.08425 8.56894C8.59291 8.56894 8.17858 8.44794 7.84125 8.20594C7.51125 7.95661 7.24725 7.63761 7.04925 7.24894C6.85125 6.86028 6.70825 6.44594 6.62025 6.00594C6.53225 5.55861 6.48825 5.13694 6.48825 4.74094C6.48825 4.40361 6.51758 4.04428 6.57625 3.66294C6.63491 3.27428 6.73025 2.89661 6.86225 2.52994C6.99425 2.16328 7.16658 1.82961 7.37925 1.52894C7.59925 1.22828 7.86325 0.989942 8.17125 0.813942C8.48658 0.630609 8.85325 0.538942 9.27125 0.538942C9.66725 0.538942 10.0082 0.623275 10.2942 0.791942C10.5876 0.960609 10.8332 1.18428 11.0312 1.46294C11.2366 1.74161 11.3979 2.05328 11.5152 2.39794C11.6326 2.74261 11.7169 3.09461 11.7682 3.45394C11.8269 3.80594 11.8562 4.14328 11.8562 4.46594ZM17.7505 8.42594C17.7505 8.54328 17.6955 8.60194 17.5855 8.60194C17.5342 8.60194 17.4792 8.59828 17.4205 8.59094C17.3619 8.58361 17.3032 8.57994 17.2445 8.57994C17.1785 8.57994 17.1089 8.57994 17.0355 8.57994C16.9695 8.57261 16.8999 8.56894 16.8265 8.56894C16.6652 8.56161 16.5002 8.56161 16.3315 8.56894C16.1702 8.56894 16.0089 8.56894 15.8475 8.56894C15.6275 8.56894 15.4112 8.56894 15.1985 8.56894C14.9859 8.56894 14.7695 8.57261 14.5495 8.57994C14.4982 8.58728 14.4322 8.59094 14.3515 8.59094C14.2782 8.59094 14.2195 8.59094 14.1755 8.59094C14.0875 8.59094 14.0435 8.53594 14.0435 8.42594C14.0435 8.38928 14.0472 8.35628 14.0545 8.32694C14.0692 8.29028 14.0985 8.27194 14.1425 8.27194C14.1865 8.27194 14.2269 8.27561 14.2635 8.28294C14.3075 8.28294 14.3515 8.28294 14.3955 8.28294C14.4689 8.28294 14.5752 8.28294 14.7145 8.28294C14.8612 8.27561 14.9969 8.25361 15.1215 8.21694C15.2462 8.17294 15.3085 8.09961 15.3085 7.99694C15.3085 7.40294 15.3122 6.80894 15.3195 6.21494C15.3269 5.61361 15.3305 5.01594 15.3305 4.42194C15.3305 3.91594 15.3305 3.40994 15.3305 2.90394C15.3305 2.39794 15.3305 1.88828 15.3305 1.37494C15.3305 1.27961 15.2829 1.23194 15.1875 1.23194C15.1435 1.23194 15.0519 1.25761 14.9125 1.30894C14.7805 1.36028 14.6302 1.41894 14.4615 1.48494C14.2929 1.55094 14.1389 1.60961 13.9995 1.66094C13.8675 1.71228 13.7832 1.73794 13.7465 1.73794C13.6805 1.73794 13.6329 1.70861 13.6035 1.64994C13.5815 1.59128 13.5705 1.53628 13.5705 1.48494C13.5705 1.44094 13.5925 1.40428 13.6365 1.37494C13.6805 1.33828 13.7209 1.31628 13.7575 1.30894C13.9629 1.25761 14.1572 1.19894 14.3405 1.13294C14.5239 1.05961 14.7145 0.989942 14.9125 0.923942C15.0665 0.872609 15.2279 0.817609 15.3965 0.758942C15.5652 0.692942 15.7229 0.630609 15.8695 0.571942C15.8989 0.557276 15.9502 0.538942 16.0235 0.516942C16.0969 0.494942 16.1702 0.472942 16.2435 0.450942C16.3242 0.428942 16.3719 0.417942 16.3865 0.417942C16.4305 0.417942 16.4635 0.425275 16.4855 0.439942C16.5075 0.447275 16.5185 0.483942 16.5185 0.549942C16.5185 0.711275 16.5149 0.872609 16.5075 1.03394C16.5075 1.18794 16.5039 1.34561 16.4965 1.50694C16.4892 1.95428 16.4819 2.42728 16.4745 2.92594C16.4745 3.42461 16.4709 3.91594 16.4635 4.39994C16.4635 4.93528 16.4635 5.46694 16.4635 5.99494C16.4635 6.52294 16.4635 7.05461 16.4635 7.58994C16.4635 7.65594 16.4635 7.72561 16.4635 7.79894C16.4709 7.86494 16.4745 7.93094 16.4745 7.99694C16.4819 8.09961 16.5405 8.17294 16.6505 8.21694C16.7679 8.25361 16.8925 8.27194 17.0245 8.27194C17.1639 8.27194 17.2629 8.27194 17.3215 8.27194C17.3802 8.27194 17.4352 8.26828 17.4865 8.26094C17.5379 8.25361 17.5892 8.24994 17.6405 8.24994C17.6845 8.24994 17.7139 8.27194 17.7285 8.31594C17.7432 8.35261 17.7505 8.38928 17.7505 8.42594ZM23.7108 6.20394C23.7108 5.95461 23.6961 5.70161 23.6668 5.44494C23.6375 5.18094 23.5751 4.93894 23.4798 4.71894C23.3845 4.49161 23.2415 4.31194 23.0508 4.17994C22.8675 4.04061 22.6145 3.97094 22.2918 3.97094C22.1305 3.97094 21.9435 4.00028 21.7308 4.05894C21.5255 4.11761 21.3311 4.20194 21.1478 4.31194C20.9645 4.42194 20.8288 4.55028 20.7408 4.69694C20.6455 4.86561 20.5905 5.04894 20.5758 5.24694C20.5685 5.43761 20.5648 5.62828 20.5648 5.81894C20.5648 5.89961 20.5648 5.98394 20.5648 6.07194C20.5648 6.15261 20.5685 6.23328 20.5758 6.31394C20.5905 6.60728 20.6565 6.90794 20.7738 7.21594C20.8911 7.52394 21.0635 7.78061 21.2908 7.98594C21.5181 8.19128 21.8041 8.29394 22.1488 8.29394C22.5375 8.29394 22.8455 8.18761 23.0728 7.97494C23.3001 7.76228 23.4615 7.49828 23.5568 7.18294C23.6595 6.86028 23.7108 6.53394 23.7108 6.20394ZM24.8438 5.93994C24.8438 6.51194 24.7191 6.99594 24.4698 7.39194C24.2205 7.78794 23.8795 8.08861 23.4468 8.29394C23.0215 8.49928 22.5301 8.60194 21.9728 8.60194C21.5841 8.60194 21.2248 8.50661 20.8948 8.31594C20.5648 8.11794 20.2861 7.86128 20.0588 7.54594C19.8388 7.22328 19.6848 6.87861 19.5968 6.51194C19.5528 6.31394 19.5235 6.11594 19.5088 5.91794C19.5015 5.71261 19.4978 5.50728 19.4978 5.30194C19.4978 5.04528 19.5271 4.77761 19.5858 4.49894C19.6518 4.22028 19.7288 3.96361 19.8168 3.72894C20.1908 2.71694 20.7445 1.91394 21.4778 1.31994C22.2111 0.718609 23.0911 0.278609 24.1178 -5.78165e-05C24.1251 -5.78165e-05 24.1288 -5.78165e-05 24.1288 -5.78165e-05C24.1361 -5.78165e-05 24.1435 -5.78165e-05 24.1508 -5.78165e-05C24.2095 -5.78165e-05 24.2388 0.0256087 24.2388 0.0769418C24.2388 0.120942 24.2241 0.146609 24.1948 0.153942C24.1728 0.175942 24.1471 0.194275 24.1178 0.208942C24.0885 0.216275 24.0591 0.227275 24.0298 0.241942C23.8685 0.307942 23.7071 0.377609 23.5458 0.450942C23.3845 0.524276 23.2305 0.601275 23.0838 0.681942C22.9298 0.769942 22.7795 0.868942 22.6328 0.978942C22.4935 1.08161 22.3615 1.19528 22.2368 1.31994C22.0095 1.55461 21.7858 1.82961 21.5658 2.14494C21.3458 2.45294 21.1588 2.78294 21.0048 3.13494C20.8581 3.47961 20.7665 3.82061 20.7298 4.15794C20.9865 3.98928 21.2615 3.84994 21.5548 3.73994C21.8481 3.62994 22.1525 3.57494 22.4678 3.57494C23.1865 3.57494 23.7621 3.79128 24.1948 4.22394C24.6275 4.64928 24.8438 5.22128 24.8438 5.93994ZM31.2991 0.890942C31.0864 1.11094 30.8848 1.37861 30.6941 1.69394C30.5108 2.00928 30.3421 2.33561 30.1881 2.67294C30.0341 3.00294 29.9021 3.31461 29.7921 3.60794C29.5354 4.28261 29.3374 4.97561 29.1981 5.68694C29.0588 6.39828 28.9598 7.11328 28.9011 7.83194C28.8791 8.11061 28.8314 8.33428 28.7581 8.50294C28.6848 8.66428 28.4868 8.74494 28.1641 8.74494C27.9661 8.74494 27.8341 8.67528 27.7681 8.53594C27.7094 8.38928 27.6801 8.23528 27.6801 8.07394C27.6801 7.76594 27.7278 7.41761 27.8231 7.02894C27.9184 6.63294 28.0358 6.22594 28.1751 5.80794C28.3218 5.38994 28.4721 4.99028 28.6261 4.60894C28.7801 4.22028 28.9194 3.88294 29.0441 3.59694C29.2421 3.15694 29.4731 2.72061 29.7371 2.28794C30.0084 1.85528 30.2908 1.44828 30.5841 1.06694C29.8361 1.07428 29.0808 1.09628 28.3181 1.13294C28.1274 1.14028 27.9294 1.15128 27.7241 1.16594C27.5188 1.17328 27.3208 1.19894 27.1301 1.24294C26.8588 1.30161 26.6534 1.44094 26.5141 1.66094C26.3821 1.88094 26.2758 2.11561 26.1951 2.36494C26.1804 2.37228 26.1584 2.37594 26.1291 2.37594C26.0704 2.37594 26.0191 2.36494 25.9751 2.34294C26.0118 2.07894 26.0411 1.81494 26.0631 1.55094C26.0924 1.27961 26.1218 1.01194 26.1511 0.747942C26.1658 0.703942 26.1731 0.674609 26.1731 0.659942C26.1804 0.637942 26.2061 0.619609 26.2501 0.604942C26.3088 0.590275 26.3711 0.582942 26.4371 0.582942C26.8918 0.582942 27.3464 0.586609 27.8011 0.593942C28.2631 0.601275 28.7251 0.604942 29.1871 0.604942C29.5391 0.604942 29.8911 0.601275 30.2431 0.593942C30.5951 0.586609 30.9471 0.575609 31.2991 0.560942V0.890942ZM40.2734 5.20294C40.2734 5.24694 40.2624 5.28728 40.2404 5.32394C40.2184 5.36061 40.1817 5.37894 40.1304 5.37894H39.4484V7.73294C38.935 7.90894 38.4254 8.10328 37.9194 8.31594C37.6774 8.41861 37.4207 8.48461 37.1494 8.51394C36.8854 8.54328 36.625 8.55794 36.3684 8.55794C36.1484 8.55794 35.9027 8.53228 35.6314 8.48094C35.36 8.42961 35.096 8.35628 34.8394 8.26094C34.59 8.16561 34.37 8.05561 34.1794 7.93094C33.622 7.55694 33.2077 7.07294 32.9364 6.47894C32.6724 5.88494 32.5404 5.25428 32.5404 4.58694C32.5404 4.02228 32.6284 3.49061 32.8044 2.99194C32.9877 2.49328 33.248 2.05328 33.5854 1.67194C33.9227 1.29061 34.326 0.993609 34.7954 0.780942C35.272 0.560942 35.8037 0.450942 36.3904 0.450942C36.823 0.450942 37.2374 0.509609 37.6334 0.626942C37.6994 0.648942 37.8057 0.681942 37.9524 0.725942C38.099 0.769942 38.2457 0.813942 38.3924 0.857942C38.539 0.894609 38.638 0.912942 38.6894 0.912942C38.8434 0.912942 38.9497 0.894609 39.0084 0.857942C39.067 0.813942 39.111 0.766275 39.1404 0.714942C39.177 0.663609 39.2284 0.623275 39.2944 0.593942H39.3824C39.441 0.593942 39.474 0.626942 39.4814 0.692942C39.496 0.766275 39.4997 0.843276 39.4924 0.923942C39.4924 1.00461 39.4924 1.08528 39.4924 1.16594C39.4924 1.39328 39.496 1.62061 39.5034 1.84794C39.518 2.07528 39.5254 2.30628 39.5254 2.54094C39.5254 2.62894 39.5217 2.73161 39.5144 2.84894C39.5144 2.96628 39.4484 3.02494 39.3164 3.02494C39.2724 3.02494 39.232 3.02128 39.1954 3.01394C39.166 2.99928 39.1367 2.97361 39.1074 2.93694C39.1 2.92228 39.0817 2.88194 39.0524 2.81594C39.023 2.74261 38.9937 2.66928 38.9644 2.59594C38.935 2.51528 38.913 2.46028 38.8984 2.43094C38.7004 1.98361 38.4107 1.60961 38.0294 1.30894C37.8314 1.14761 37.5784 1.01928 37.2704 0.923942C36.9697 0.828609 36.691 0.780942 36.4344 0.780942C35.943 0.780942 35.525 0.901942 35.1804 1.14394C34.8357 1.37861 34.557 1.68661 34.3444 2.06794C34.1317 2.44928 33.9777 2.85994 33.8824 3.29994C33.787 3.73994 33.7394 4.16528 33.7394 4.57594C33.7394 5.00861 33.7907 5.43394 33.8934 5.85194C33.996 6.26994 34.1537 6.64761 34.3664 6.98494C34.5864 7.32228 34.8724 7.59361 35.2244 7.79894C35.5764 7.99694 35.998 8.09594 36.4894 8.09594C36.636 8.09594 36.812 8.08128 37.0174 8.05194C37.2227 8.02261 37.428 7.97128 37.6334 7.89794C37.8387 7.82461 38.0074 7.72561 38.1394 7.60094C38.2787 7.47628 38.3484 7.31861 38.3484 7.12794V5.67594C38.3484 5.55861 38.2897 5.48528 38.1724 5.45594C38.0624 5.41928 37.967 5.40094 37.8864 5.40094C37.7764 5.40094 37.6664 5.40828 37.5564 5.42294C37.4464 5.43028 37.3364 5.43394 37.2264 5.43394C37.1677 5.43394 37.1274 5.41561 37.1054 5.37894C37.0907 5.34228 37.0834 5.29828 37.0834 5.24694C37.0834 5.20294 37.0907 5.16261 37.1054 5.12594C37.12 5.08194 37.1567 5.05994 37.2154 5.05994C37.3327 5.05994 37.4464 5.06361 37.5564 5.07094C37.6664 5.07094 37.78 5.07094 37.8974 5.07094H38.6784C38.803 5.07094 38.9277 5.07094 39.0524 5.07094C39.177 5.07094 39.3017 5.06728 39.4264 5.05994C39.551 5.05994 39.672 5.05628 39.7894 5.04894C39.9067 5.03428 40.024 5.02694 40.1414 5.02694C40.1854 5.02694 40.2184 5.04894 40.2404 5.09294C40.2624 5.12961 40.2734 5.16628 40.2734 5.20294ZM48.7131 0.604942C48.7131 0.714942 48.6948 0.773609 48.6581 0.780942C48.6288 0.788275 48.5665 0.791942 48.4711 0.791942C48.4418 0.791942 48.4125 0.791942 48.3831 0.791942C48.3611 0.784609 48.3355 0.780942 48.3061 0.780942C48.1888 0.780942 48.0825 0.802942 47.9871 0.846942C47.8918 0.890942 47.8221 0.967942 47.7781 1.07794C47.7268 1.20994 47.6791 1.34561 47.6351 1.48494C47.5911 1.61694 47.5471 1.75261 47.5031 1.89194C47.4078 2.17061 47.3088 2.45294 47.2061 2.73894C47.1108 3.02494 47.0118 3.30728 46.9091 3.58594C46.6158 4.42928 46.3115 5.27261 45.9961 6.11594C45.6881 6.95194 45.3838 7.79161 45.0831 8.63494H44.6431C44.4891 8.63494 44.3828 8.56528 44.3241 8.42594C44.2801 8.32328 44.2361 8.21694 44.1921 8.10694C44.1555 7.99694 44.1188 7.88694 44.0821 7.77694C44.0015 7.54961 43.9171 7.32594 43.8291 7.10594C43.7485 6.87861 43.6641 6.65128 43.5761 6.42394C43.2828 5.64661 42.9895 4.87294 42.6961 4.10294C42.4028 3.33294 42.1168 2.55928 41.8381 1.78194C41.7941 1.66461 41.7465 1.54728 41.6951 1.42994C41.6438 1.30528 41.5815 1.19528 41.5081 1.09994C41.4201 0.975275 41.3211 0.898276 41.2111 0.868942C41.1085 0.839609 41.0095 0.828609 40.9141 0.835942C40.8261 0.835942 40.7528 0.832275 40.6941 0.824942C40.6355 0.810276 40.6061 0.766275 40.6061 0.692942C40.6061 0.641609 40.6135 0.604942 40.6281 0.582942C40.6428 0.553608 40.6758 0.538942 40.7271 0.538942C40.8811 0.538942 41.0351 0.542609 41.1891 0.549942C41.3505 0.557276 41.5118 0.560942 41.6731 0.560942C42.0105 0.560942 42.3441 0.557276 42.6741 0.549942C43.0115 0.535275 43.3451 0.527942 43.6751 0.527942C43.7631 0.527942 43.8071 0.571942 43.8071 0.659942C43.8071 0.762609 43.7631 0.813942 43.6751 0.813942C43.5871 0.813942 43.4991 0.810276 43.4111 0.802942C43.3305 0.788275 43.2425 0.780942 43.1471 0.780942C43.0665 0.780942 42.9748 0.791942 42.8721 0.813942C42.7768 0.835942 42.7291 0.901942 42.7291 1.01194C42.7291 1.01194 42.7401 1.04494 42.7621 1.11094C42.7841 1.16961 42.8061 1.23194 42.8281 1.29794C42.8501 1.36394 42.8611 1.40428 42.8611 1.41894C43.2058 2.45294 43.5651 3.48328 43.9391 4.50994C44.3205 5.53661 44.6981 6.56328 45.0721 7.58994C45.4168 6.57061 45.7688 5.55494 46.1281 4.54294C46.4875 3.52361 46.8321 2.50428 47.1621 1.48494L47.2941 1.07794C47.2941 0.901942 47.2281 0.806609 47.0961 0.791942C46.9715 0.769942 46.8468 0.758942 46.7221 0.758942C46.6635 0.758942 46.6011 0.766275 46.5351 0.780942C46.4765 0.788275 46.4141 0.791942 46.3481 0.791942C46.3188 0.791942 46.2968 0.780942 46.2821 0.758942C46.2675 0.729609 46.2601 0.700275 46.2601 0.670942C46.2601 0.604942 46.2785 0.564609 46.3151 0.549942C46.3298 0.549942 46.3408 0.549942 46.3481 0.549942C46.3555 0.542609 46.3628 0.538942 46.3701 0.538942C46.3848 0.538942 46.3995 0.542609 46.4141 0.549942C46.4288 0.549942 46.4435 0.549942 46.4581 0.549942C46.6268 0.557276 46.7991 0.560942 46.9751 0.560942C47.1511 0.560942 47.3235 0.560942 47.4921 0.560942C47.6828 0.560942 47.8698 0.553609 48.0531 0.538942C48.2438 0.524275 48.4308 0.516942 48.6141 0.516942C48.6801 0.516942 48.7131 0.546275 48.7131 0.604942ZM53.5851 3.32194C53.5851 3.24128 53.5851 3.16061 53.5851 3.07994C53.5851 2.99194 53.5814 2.90761 53.5741 2.82694C53.5594 2.52628 53.4934 2.22561 53.3761 1.92494C53.2588 1.61694 53.0864 1.36028 52.8591 1.15494C52.6318 0.942275 52.3458 0.835942 52.0011 0.835942C51.6124 0.835942 51.3044 0.942275 51.0771 1.15494C50.8498 1.36761 50.6848 1.63528 50.5821 1.95794C50.4868 2.28061 50.4391 2.60694 50.4391 2.93694C50.4391 3.18628 50.4538 3.44294 50.4831 3.70694C50.5124 3.96361 50.5748 4.20561 50.6701 4.43294C50.7654 4.65294 50.9084 4.83261 51.0991 4.97194C51.2898 5.10394 51.5428 5.16994 51.8581 5.16994C52.0194 5.16994 52.2028 5.14061 52.4081 5.08194C52.6208 5.02328 52.8188 4.93894 53.0021 4.82894C53.1854 4.71894 53.3211 4.59061 53.4091 4.44394C53.5118 4.27528 53.5668 4.09561 53.5741 3.90494C53.5814 3.70694 53.5851 3.51261 53.5851 3.32194ZM54.6521 3.83894C54.6521 4.08828 54.6191 4.35594 54.5531 4.64194C54.4944 4.92061 54.4211 5.17728 54.3331 5.41194C53.9591 6.41661 53.4054 7.21961 52.6721 7.82094C51.9388 8.42228 51.0588 8.86228 50.0321 9.14094C50.0248 9.14094 50.0174 9.14094 50.0101 9.14094C50.0101 9.14094 50.0064 9.14094 49.9991 9.14094C49.9331 9.14094 49.9001 9.11161 49.9001 9.05294C49.9001 9.01628 49.9148 8.99061 49.9441 8.97594C49.9734 8.96128 50.0028 8.95028 50.0321 8.94294C50.3694 8.79628 50.7031 8.63861 51.0331 8.46994C51.3631 8.30128 51.6564 8.08494 51.9131 7.82094C52.1478 7.58628 52.3714 7.31128 52.5841 6.99594C52.8041 6.68061 52.9911 6.35061 53.1451 6.00594C53.2991 5.65394 53.3908 5.31294 53.4201 4.98294C53.1634 5.15161 52.8884 5.29094 52.5951 5.40094C52.3018 5.51094 51.9974 5.56594 51.6821 5.56594C51.2054 5.56594 50.7911 5.47061 50.4391 5.27994C50.0871 5.08194 49.8121 4.80694 49.6141 4.45494C49.4234 4.09561 49.3281 3.67761 49.3281 3.20094C49.3281 2.62161 49.4491 2.13394 49.6911 1.73794C49.9331 1.34194 50.2668 1.04128 50.6921 0.835942C51.1248 0.630609 51.6161 0.527942 52.1661 0.527942C52.5621 0.527942 52.9251 0.626942 53.2551 0.824942C53.5851 1.02294 53.8638 1.28328 54.0911 1.60594C54.3184 1.92128 54.4724 2.26228 54.5531 2.62894C54.5971 2.82694 54.6228 3.02861 54.6301 3.23394C54.6448 3.43194 54.6521 3.63361 54.6521 3.83894ZM60.0404 4.60894C60.0404 4.39628 60.033 4.13594 60.0184 3.82794C60.011 3.51261 59.9854 3.18261 59.9414 2.83794C59.8974 2.49328 59.8204 2.17061 59.7104 1.86994C59.6004 1.56928 59.45 1.32728 59.2594 1.14394C59.0687 0.953275 58.8194 0.857942 58.5114 0.857942C58.2327 0.857942 57.998 0.956942 57.8074 1.15494C57.6167 1.34561 57.4627 1.59861 57.3454 1.91394C57.228 2.22194 57.1364 2.55194 57.0704 2.90394C57.0117 3.24861 56.9714 3.58228 56.9494 3.90494C56.9274 4.22028 56.9164 4.47694 56.9164 4.67494C56.9164 4.87294 56.9237 5.12228 56.9384 5.42294C56.9604 5.71628 56.997 6.02794 57.0484 6.35794C57.0997 6.68061 57.1804 6.98494 57.2904 7.27094C57.4077 7.55694 57.558 7.79161 57.7414 7.97494C57.9247 8.15094 58.1557 8.23894 58.4344 8.23894C58.7277 8.23894 58.9697 8.15094 59.1604 7.97494C59.351 7.79161 59.505 7.55694 59.6224 7.27094C59.7397 6.97761 59.8277 6.66594 59.8864 6.33594C59.9524 5.99861 59.9927 5.67961 60.0074 5.37894C60.0294 5.07094 60.0404 4.81428 60.0404 4.60894ZM61.1844 4.46594C61.1844 4.80328 61.1514 5.15894 61.0854 5.53294C61.0267 5.90694 60.9314 6.27361 60.7994 6.63294C60.6674 6.99228 60.4914 7.31861 60.2714 7.61194C60.0587 7.90528 59.7984 8.13994 59.4904 8.31594C59.1824 8.48461 58.823 8.56894 58.4124 8.56894C57.921 8.56894 57.5067 8.44794 57.1694 8.20594C56.8394 7.95661 56.5754 7.63761 56.3774 7.24894C56.1794 6.86028 56.0364 6.44594 55.9484 6.00594C55.8604 5.55861 55.8164 5.13694 55.8164 4.74094C55.8164 4.40361 55.8457 4.04428 55.9044 3.66294C55.963 3.27428 56.0584 2.89661 56.1904 2.52994C56.3224 2.16328 56.4947 1.82961 56.7074 1.52894C56.9274 1.22828 57.1914 0.989942 57.4994 0.813942C57.8147 0.630609 58.1814 0.538942 58.5994 0.538942C58.9954 0.538942 59.3364 0.623275 59.6224 0.791942C59.9157 0.960609 60.1614 1.18428 60.3594 1.46294C60.5647 1.74161 60.726 2.05328 60.8434 2.39794C60.9607 2.74261 61.045 3.09461 61.0964 3.45394C61.155 3.80594 61.1844 4.14328 61.1844 4.46594Z" fill="black"/>
</svg>
