<svg width="40" height="12" viewBox="0 0 40 12" fill="none" xmlns="http://www.w3.org/2000/svg">
<path d="M4.31816 0.159046V11.7954H2.90907V1.63632H2.84089L-2.21729e-05 3.52268V2.09086L2.90907 0.159046H4.31816ZM11.5966 11.9545C10.8466 11.9545 10.178 11.8257 9.59089 11.5681C9.00755 11.3106 8.54354 10.9526 8.19884 10.4943C7.85793 10.0322 7.67233 9.49617 7.64202 8.88632H9.07384C9.10414 9.26132 9.23293 9.58518 9.46021 9.85791C9.68748 10.1268 9.98483 10.3352 10.3523 10.4829C10.7197 10.6306 11.1269 10.7045 11.5738 10.7045C12.0738 10.7045 12.517 10.6174 12.9034 10.4431C13.2898 10.2689 13.5928 10.0265 13.8125 9.71586C14.0322 9.40526 14.142 9.04541 14.142 8.63632C14.142 8.20829 14.036 7.83139 13.8238 7.50564C13.6117 7.17609 13.3011 6.91852 12.892 6.73291C12.4829 6.5473 11.9829 6.4545 11.392 6.4545H10.4602V5.2045H11.392C11.8541 5.2045 12.2594 5.12117 12.6079 4.9545C12.9602 4.78783 13.2348 4.55299 13.4318 4.24996C13.6326 3.94693 13.7329 3.59086 13.7329 3.18177C13.7329 2.78783 13.6458 2.44503 13.4716 2.15336C13.2973 1.8617 13.0511 1.63442 12.7329 1.47155C12.4185 1.30867 12.0473 1.22723 11.6193 1.22723C11.2178 1.22723 10.839 1.30109 10.4829 1.44882C10.1307 1.59276 9.84278 1.80299 9.6193 2.0795C9.39581 2.35223 9.2746 2.68177 9.25566 3.06814H7.89202C7.91475 2.45829 8.09846 1.9242 8.44316 1.46586C8.78786 1.00374 9.23861 0.643895 9.79543 0.386319C10.356 0.128743 10.9716 -4.48227e-05 11.642 -4.48227e-05C12.3617 -4.48227e-05 12.9791 0.145789 13.4943 0.437455C14.0094 0.725334 14.4053 1.10602 14.6818 1.5795C14.9583 2.05299 15.0966 2.56435 15.0966 3.11359C15.0966 3.76889 14.9242 4.32761 14.5795 4.78973C14.2386 5.25185 13.7746 5.57193 13.1875 5.74996V5.84086C13.9223 5.96208 14.4962 6.27458 14.9091 6.77836C15.3219 7.27836 15.5284 7.89768 15.5284 8.63632C15.5284 9.26889 15.356 9.83708 15.0113 10.3409C14.6704 10.8409 14.2045 11.2348 13.6136 11.5227C13.0227 11.8106 12.3504 11.9545 11.5966 11.9545ZM18.0568 11.7954V0.159046H19.4659V5.93177H19.6023L24.8295 0.159046H26.6704L21.7841 5.40905L26.6704 11.7954H24.9659L20.9204 6.38632L19.4659 8.02268V11.7954H18.0568ZM28.3125 11.7954V3.06814H29.6079V4.43177H29.7216C29.9034 3.96586 30.1969 3.60412 30.6023 3.34655C31.0076 3.08518 31.4943 2.9545 32.0625 2.9545C32.6382 2.9545 33.1174 3.08518 33.5 3.34655C33.8863 3.60412 34.1875 3.96586 34.4034 4.43177H34.4943C34.7178 3.98102 35.053 3.62306 35.5 3.35791C35.9469 3.08897 36.4829 2.9545 37.1079 2.9545C37.8882 2.9545 38.5265 3.19882 39.0227 3.68746C39.5189 4.1723 39.767 4.92799 39.767 5.9545V11.7954H38.4261V5.9545C38.4261 5.31056 38.25 4.85033 37.8977 4.57382C37.5454 4.2973 37.1307 4.15905 36.6534 4.15905C36.0398 4.15905 35.5644 4.34465 35.2273 4.71586C34.8901 5.08329 34.7216 5.5492 34.7216 6.11359V11.7954H33.3579V5.81814C33.3579 5.32193 33.1969 4.9223 32.875 4.61927C32.553 4.31246 32.1382 4.15905 31.6307 4.15905C31.2822 4.15905 30.9564 4.25185 30.6534 4.43746C30.3541 4.62306 30.1117 4.88064 29.9261 5.21018C29.7443 5.53594 29.6534 5.91283 29.6534 6.34086V11.7954H28.3125Z" fill="#919191"/>
</svg>
