<svg width="180" height="13" viewBox="0 0 180 13" fill="none" xmlns="http://www.w3.org/2000/svg">
<path d="M1.56957 12.75H-3.32631e-05L4.53974 0.386363H6.08519L10.625 12.75H9.05536L5.36076 2.34233H5.26417L1.56957 12.75ZM2.14911 7.92045H8.47582V9.24858H2.14911V7.92045ZM13.7823 0.386363V12.75H12.3576V0.386363H13.7823ZM20.4244 3.47727V4.68466H15.619V3.47727H20.4244ZM17.0196 1.25568H18.4443V10.0938C18.4443 10.4962 18.5027 10.7981 18.6194 10.9993C18.7401 11.1965 18.893 11.3293 19.0782 11.3977C19.2673 11.4621 19.4666 11.4943 19.6758 11.4943C19.8328 11.4943 19.9616 11.4863 20.0622 11.4702C20.1628 11.45 20.2433 11.4339 20.3037 11.4219L20.5935 12.7017C20.4969 12.7379 20.362 12.7741 20.189 12.8104C20.0159 12.8506 19.7966 12.8707 19.531 12.8707C19.1285 12.8707 18.7341 12.7842 18.3477 12.6112C17.9654 12.4381 17.6474 12.1745 17.3939 11.8203C17.1444 11.4661 17.0196 11.0194 17.0196 10.4801V1.25568ZM26.3557 12.9432C25.4622 12.9432 24.6915 12.746 24.0436 12.3516C23.3996 11.9531 22.9026 11.3977 22.5524 10.6854C22.2063 9.96899 22.0333 9.13589 22.0333 8.18608C22.0333 7.23627 22.2063 6.39915 22.5524 5.67472C22.9026 4.94626 23.3896 4.37879 24.0134 3.9723C24.6412 3.56179 25.3737 3.35653 26.2108 3.35653C26.6938 3.35653 27.1707 3.43703 27.6416 3.59801C28.1124 3.759 28.5411 4.0206 28.9274 4.38281C29.3138 4.741 29.6217 5.21591 29.8511 5.80753C30.0805 6.39915 30.1952 7.1276 30.1952 7.9929V8.59659H23.0475V7.36506H28.7463C28.7463 6.84186 28.6417 6.375 28.4324 5.96449C28.2272 5.55398 27.9334 5.22999 27.551 4.99254C27.1727 4.75509 26.726 4.63636 26.2108 4.63636C25.6433 4.63636 25.1523 4.77723 24.7378 5.05895C24.3273 5.33665 24.0114 5.69886 23.79 6.1456C23.5687 6.59233 23.458 7.07126 23.458 7.58239V8.40341C23.458 9.10369 23.5787 9.69732 23.8202 10.1843C24.0657 10.6673 24.4058 11.0355 24.8404 11.2891C25.2751 11.5386 25.7802 11.6634 26.3557 11.6634C26.73 11.6634 27.0681 11.611 27.3699 11.5064C27.6758 11.3977 27.9394 11.2367 28.1607 11.0234C28.3821 10.8061 28.5531 10.5365 28.6739 10.2145L30.0503 10.6009C29.9054 11.0677 29.6619 11.4782 29.3198 11.8324C28.9777 12.1825 28.5552 12.4562 28.0521 12.6534C27.549 12.8466 26.9835 12.9432 26.3557 12.9432ZM32.3624 12.75V3.47727H33.7389V4.87784H33.8355C34.0045 4.41903 34.3104 4.04676 34.7531 3.76101C35.1958 3.47526 35.6948 3.33239 36.2502 3.33239C36.3549 3.33239 36.4857 3.3344 36.6426 3.33842C36.7996 3.34245 36.9183 3.34848 36.9988 3.35653V4.8054C36.9505 4.79332 36.8398 4.77521 36.6668 4.75106C36.4977 4.72289 36.3187 4.70881 36.1295 4.70881C35.6787 4.70881 35.2763 4.80339 34.9221 4.99254C34.572 5.17767 34.2943 5.43525 34.089 5.76527C33.8878 6.09126 33.7872 6.46354 33.7872 6.8821V12.75H32.3624ZM41.4163 12.9673C40.8287 12.9673 40.2955 12.8567 39.8166 12.6353C39.3376 12.4099 38.9573 12.0859 38.6756 11.6634C38.3938 11.2367 38.253 10.7216 38.253 10.1179C38.253 9.58665 38.3576 9.15601 38.5669 8.82599C38.7762 8.49195 39.0559 8.23035 39.406 8.04119C39.7562 7.85204 40.1425 7.71117 40.5651 7.61861C40.9917 7.52202 41.4204 7.44555 41.851 7.3892C42.4144 7.31676 42.8712 7.26243 43.2214 7.22621C43.5755 7.18596 43.8331 7.11955 43.9941 7.02699C44.1591 6.93442 44.2416 6.77344 44.2416 6.54403V6.49574C44.2416 5.90009 44.0786 5.43726 43.7526 5.10724C43.4307 4.77723 42.9417 4.61222 42.2857 4.61222C41.6055 4.61222 41.0722 4.76113 40.6859 5.05895C40.2995 5.35677 40.0278 5.67472 39.8709 6.01278L38.5186 5.52983C38.7601 4.96638 39.0821 4.5277 39.4845 4.21378C39.891 3.89583 40.3337 3.67448 40.8126 3.54972C41.2956 3.42093 41.7705 3.35653 42.2374 3.35653C42.5352 3.35653 42.8773 3.39276 43.2636 3.4652C43.654 3.53362 44.0303 3.67649 44.3925 3.89382C44.7588 4.11115 45.0626 4.43916 45.3041 4.87784C45.5456 5.31652 45.6663 5.90412 45.6663 6.64062V12.75H44.2416V11.4943H44.1692C44.0726 11.6955 43.9116 11.9109 43.6862 12.1403C43.4608 12.3697 43.161 12.5649 42.7867 12.7259C42.4124 12.8868 41.9556 12.9673 41.4163 12.9673ZM41.6337 11.6875C42.1971 11.6875 42.672 11.5768 43.0584 11.3555C43.4488 11.1341 43.7426 10.8484 43.9398 10.4982C44.141 10.1481 44.2416 9.77983 44.2416 9.39347V8.08949C44.1813 8.16193 44.0484 8.22834 43.8432 8.28871C43.642 8.34505 43.4085 8.39536 43.1429 8.43963C42.8813 8.47988 42.6257 8.5161 42.3762 8.5483C42.1307 8.57647 41.9315 8.60062 41.7786 8.62074C41.4083 8.66903 41.0622 8.74751 40.7402 8.85618C40.4223 8.96082 40.1647 9.11979 39.9675 9.3331C39.7743 9.54238 39.6777 9.82812 39.6777 10.1903C39.6777 10.6854 39.8608 11.0597 40.2271 11.3132C40.5973 11.5627 41.0662 11.6875 41.6337 11.6875ZM48.2667 12.75V3.47727H49.6432V4.87784H49.7398C49.9088 4.41903 50.2147 4.04676 50.6574 3.76101C51.1001 3.47526 51.5991 3.33239 52.1545 3.33239C52.2592 3.33239 52.39 3.3344 52.5469 3.33842C52.7039 3.34245 52.8226 3.34848 52.9031 3.35653V4.8054C52.8548 4.79332 52.7441 4.77521 52.5711 4.75106C52.402 4.72289 52.2229 4.70881 52.0338 4.70881C51.583 4.70881 51.1806 4.80339 50.8264 4.99254C50.4763 5.17767 50.1986 5.43525 49.9933 5.76527C49.7921 6.09126 49.6915 6.46354 49.6915 6.8821V12.75H48.2667ZM62.1019 12.9673C61.5143 12.9673 60.981 12.8567 60.5021 12.6353C60.0232 12.4099 59.6428 12.0859 59.3611 11.6634C59.0794 11.2367 58.9385 10.7216 58.9385 10.1179C58.9385 9.58665 59.0432 9.15601 59.2525 8.82599C59.4617 8.49195 59.7414 8.23035 60.0916 8.04119C60.4417 7.85204 60.8281 7.71117 61.2507 7.61861C61.6773 7.52202 62.1059 7.44555 62.5365 7.3892C63.1 7.31676 63.5568 7.26243 63.9069 7.22621C64.2611 7.18596 64.5187 7.11955 64.6797 7.02699C64.8447 6.93442 64.9272 6.77344 64.9272 6.54403V6.49574C64.9272 5.90009 64.7642 5.43726 64.4382 5.10724C64.1162 4.77723 63.6272 4.61222 62.9712 4.61222C62.291 4.61222 61.7578 4.76113 61.3714 5.05895C60.9851 5.35677 60.7134 5.67472 60.5564 6.01278L59.2042 5.52983C59.4456 4.96638 59.7676 4.5277 60.1701 4.21378C60.5766 3.89583 61.0193 3.67448 61.4982 3.54972C61.9811 3.42093 62.4561 3.35653 62.9229 3.35653C63.2207 3.35653 63.5628 3.39276 63.9492 3.4652C64.3396 3.53362 64.7159 3.67649 65.0781 3.89382C65.4443 4.11115 65.7482 4.43916 65.9897 4.87784C66.2311 5.31652 66.3519 5.90412 66.3519 6.64062V12.75H64.9272V11.4943H64.8547C64.7581 11.6955 64.5971 11.9109 64.3718 12.1403C64.1464 12.3697 63.8466 12.5649 63.4723 12.7259C63.098 12.8868 62.6412 12.9673 62.1019 12.9673ZM62.3192 11.6875C62.8827 11.6875 63.3576 11.5768 63.7439 11.3555C64.1343 11.1341 64.4281 10.8484 64.6253 10.4982C64.8266 10.1481 64.9272 9.77983 64.9272 9.39347V8.08949C64.8668 8.16193 64.734 8.22834 64.5287 8.28871C64.3275 8.34505 64.0941 8.39536 63.8284 8.43963C63.5668 8.47988 63.3113 8.5161 63.0618 8.5483C62.8163 8.57647 62.617 8.60062 62.4641 8.62074C62.0938 8.66903 61.7477 8.74751 61.4257 8.85618C61.1078 8.96082 60.8502 9.11979 60.653 9.3331C60.4598 9.54238 60.3632 9.82812 60.3632 10.1903C60.3632 10.6854 60.5464 11.0597 60.9126 11.3132C61.2829 11.5627 61.7517 11.6875 62.3192 11.6875ZM70.377 0.386363V12.75H68.9523V0.386363H70.377ZM76.7535 12.9432C75.8842 12.9432 75.1356 12.7379 74.5078 12.3274C73.8799 11.9169 73.397 11.3514 73.0589 10.631C72.7208 9.91063 72.5518 9.08759 72.5518 8.16193C72.5518 7.22017 72.7249 6.38909 73.071 5.66868C73.4211 4.94425 73.9081 4.37879 74.5319 3.9723C75.1598 3.56179 75.8922 3.35653 76.7294 3.35653C77.3814 3.35653 77.969 3.47727 78.4922 3.71875C79.0154 3.96023 79.444 4.2983 79.778 4.73295C80.1121 5.16761 80.3193 5.67472 80.3998 6.25426H78.9751C78.8664 5.83168 78.625 5.45739 78.2507 5.13139C77.8804 4.80137 77.3814 4.63636 76.7535 4.63636C76.1981 4.63636 75.7111 4.78125 75.2926 5.07102C74.878 5.35677 74.5541 5.76124 74.3206 6.28445C74.0912 6.80362 73.9765 7.41335 73.9765 8.11364C73.9765 8.83002 74.0892 9.45384 74.3146 9.98509C74.544 10.5163 74.866 10.9289 75.2805 11.2227C75.6991 11.5165 76.1901 11.6634 76.7535 11.6634C77.1238 11.6634 77.4598 11.599 77.7617 11.4702C78.0635 11.3414 78.3191 11.1562 78.5284 10.9148C78.7377 10.6733 78.8866 10.3835 78.9751 10.0455H80.3998C80.3193 10.5928 80.1201 11.0858 79.8022 11.5245C79.4882 11.9592 79.0717 12.3053 78.5525 12.5629C78.0374 12.8164 77.4377 12.9432 76.7535 12.9432ZM85.2113 12.9673C84.6237 12.9673 84.0904 12.8567 83.6115 12.6353C83.1325 12.4099 82.7522 12.0859 82.4705 11.6634C82.1888 11.2367 82.0479 10.7216 82.0479 10.1179C82.0479 9.58665 82.1525 9.15601 82.3618 8.82599C82.5711 8.49195 82.8508 8.23035 83.201 8.04119C83.5511 7.85204 83.9375 7.71117 84.3601 7.61861C84.7867 7.52202 85.2153 7.44555 85.6459 7.3892C86.2094 7.31676 86.6662 7.26243 87.0163 7.22621C87.3705 7.18596 87.628 7.11955 87.789 7.02699C87.954 6.93442 88.0365 6.77344 88.0365 6.54403V6.49574C88.0365 5.90009 87.8735 5.43726 87.5476 5.10724C87.2256 4.77723 86.7366 4.61222 86.0806 4.61222C85.4004 4.61222 84.8672 4.76113 84.4808 5.05895C84.0944 5.35677 83.8228 5.67472 83.6658 6.01278L82.3135 5.52983C82.555 4.96638 82.877 4.5277 83.2794 4.21378C83.6859 3.89583 84.1286 3.67448 84.6076 3.54972C85.0905 3.42093 85.5654 3.35653 86.0323 3.35653C86.3301 3.35653 86.6722 3.39276 87.0586 3.4652C87.4489 3.53362 87.8253 3.67649 88.1875 3.89382C88.5537 4.11115 88.8576 4.43916 89.099 4.87784C89.3405 5.31652 89.4613 5.90412 89.4613 6.64062V12.75H88.0365V11.4943H87.9641C87.8675 11.6955 87.7065 11.9109 87.4811 12.1403C87.2558 12.3697 86.9559 12.5649 86.5816 12.7259C86.2074 12.8868 85.7506 12.9673 85.2113 12.9673ZM85.4286 11.6875C85.992 11.6875 86.4669 11.5768 86.8533 11.3555C87.2437 11.1341 87.5375 10.8484 87.7347 10.4982C87.9359 10.1481 88.0365 9.77983 88.0365 9.39347V8.08949C87.9762 8.16193 87.8434 8.22834 87.6381 8.28871C87.4369 8.34505 87.2034 8.39536 86.9378 8.43963C86.6762 8.47988 86.4207 8.5161 86.1711 8.5483C85.9256 8.57647 85.7264 8.60062 85.5735 8.62074C85.2032 8.66903 84.8571 8.74751 84.5351 8.85618C84.2172 8.96082 83.9596 9.11979 83.7624 9.3331C83.5692 9.54238 83.4726 9.82812 83.4726 10.1903C83.4726 10.6854 83.6557 11.0597 84.022 11.3132C84.3922 11.5627 84.8611 11.6875 85.4286 11.6875ZM93.4864 7.17188V12.75H92.0617V3.47727H93.4381V4.92614H93.5588C93.7762 4.45526 94.1062 4.07694 94.5489 3.79119C94.9916 3.50142 95.5631 3.35653 96.2634 3.35653C96.8912 3.35653 97.4406 3.48532 97.9115 3.7429C98.3823 3.99645 98.7486 4.38281 99.0102 4.90199C99.2718 5.41714 99.4026 6.06913 99.4026 6.85795V12.75H97.9779V6.95455C97.9779 6.22609 97.7887 5.65862 97.4104 5.25213C97.0321 4.84162 96.5129 4.63636 95.8529 4.63636C95.3981 4.63636 94.9916 4.73497 94.6334 4.93217C94.2792 5.12938 93.9995 5.41714 93.7943 5.79545C93.589 6.17377 93.4864 6.63258 93.4864 7.17188ZM105.773 12.9432C104.904 12.9432 104.155 12.7379 103.527 12.3274C102.899 11.9169 102.417 11.3514 102.078 10.631C101.74 9.91063 101.571 9.08759 101.571 8.16193C101.571 7.22017 101.744 6.38909 102.091 5.66868C102.441 4.94425 102.928 4.37879 103.551 3.9723C104.179 3.56179 104.912 3.35653 105.749 3.35653C106.401 3.35653 106.988 3.47727 107.512 3.71875C108.035 3.96023 108.464 4.2983 108.798 4.73295C109.132 5.16761 109.339 5.67472 109.419 6.25426H107.995C107.886 5.83168 107.644 5.45739 107.27 5.13139C106.9 4.80137 106.401 4.63636 105.773 4.63636C105.218 4.63636 104.731 4.78125 104.312 5.07102C103.898 5.35677 103.574 5.76124 103.34 6.28445C103.111 6.80362 102.996 7.41335 102.996 8.11364C102.996 8.83002 103.109 9.45384 103.334 9.98509C103.564 10.5163 103.886 10.9289 104.3 11.2227C104.719 11.5165 105.21 11.6634 105.773 11.6634C106.143 11.6634 106.479 11.599 106.781 11.4702C107.083 11.3414 107.339 11.1562 107.548 10.9148C107.757 10.6733 107.906 10.3835 107.995 10.0455H109.419C109.339 10.5928 109.14 11.0858 108.822 11.5245C108.508 11.9592 108.091 12.3053 107.572 12.5629C107.057 12.8164 106.457 12.9432 105.773 12.9432ZM115.39 12.9432C114.496 12.9432 113.726 12.746 113.078 12.3516C112.434 11.9531 111.937 11.3977 111.587 10.6854C111.24 9.96899 111.067 9.13589 111.067 8.18608C111.067 7.23627 111.24 6.39915 111.587 5.67472C111.937 4.94626 112.424 4.37879 113.048 3.9723C113.675 3.56179 114.408 3.35653 115.245 3.35653C115.728 3.35653 116.205 3.43703 116.676 3.59801C117.147 3.759 117.575 4.0206 117.962 4.38281C118.348 4.741 118.656 5.21591 118.885 5.80753C119.115 6.39915 119.229 7.1276 119.229 7.9929V8.59659H112.082V7.36506H117.781C117.781 6.84186 117.676 6.375 117.467 5.96449C117.261 5.55398 116.968 5.22999 116.585 4.99254C116.207 4.75509 115.76 4.63636 115.245 4.63636C114.678 4.63636 114.187 4.77723 113.772 5.05895C113.361 5.33665 113.046 5.69886 112.824 6.1456C112.603 6.59233 112.492 7.07126 112.492 7.58239V8.40341C112.492 9.10369 112.613 9.69732 112.854 10.1843C113.1 10.6673 113.44 11.0355 113.875 11.2891C114.309 11.5386 114.814 11.6634 115.39 11.6634C115.764 11.6634 116.102 11.611 116.404 11.5064C116.71 11.3977 116.974 11.2367 117.195 11.0234C117.416 10.8061 117.587 10.5365 117.708 10.2145L119.084 10.6009C118.94 11.0677 118.696 11.4782 118.354 11.8324C118.012 12.1825 117.589 12.4562 117.086 12.6534C116.583 12.8466 116.018 12.9432 115.39 12.9432ZM129.679 12.9432C128.907 12.9432 128.224 12.748 127.633 12.3576C127.041 11.9632 126.578 11.4078 126.244 10.6914C125.91 9.971 125.743 9.11979 125.743 8.13778C125.743 7.16383 125.91 6.31865 126.244 5.60227C126.578 4.88589 127.043 4.3325 127.639 3.94212C128.234 3.55173 128.923 3.35653 129.703 3.35653C130.307 3.35653 130.784 3.45715 131.134 3.65838C131.488 3.85559 131.758 4.08097 131.943 4.33452C132.132 4.58404 132.279 4.7893 132.384 4.95028H132.505V0.386363H133.929V12.75H132.553V11.3253H132.384C132.279 11.4943 132.13 11.7076 131.937 11.9652C131.744 12.2187 131.468 12.4461 131.11 12.6474C130.752 12.8446 130.275 12.9432 129.679 12.9432ZM129.872 11.6634C130.444 11.6634 130.927 11.5144 131.321 11.2166C131.716 10.9148 132.016 10.4982 132.221 9.96697C132.426 9.4317 132.529 8.81392 132.529 8.11364C132.529 7.4214 132.428 6.8157 132.227 6.29652C132.026 5.77332 131.728 5.36683 131.333 5.07706C130.939 4.78326 130.452 4.63636 129.872 4.63636C129.269 4.63636 128.766 4.79131 128.363 5.10121C127.965 5.40708 127.665 5.82363 127.464 6.35085C127.267 6.87405 127.168 7.46165 127.168 8.11364C127.168 8.77367 127.269 9.37334 127.47 9.91264C127.675 10.4479 127.977 10.8745 128.375 11.1925C128.778 11.5064 129.277 11.6634 129.872 11.6634ZM140.504 12.9432C139.666 12.9432 138.932 12.744 138.3 12.3455C137.672 11.9471 137.181 11.3897 136.827 10.6733C136.477 9.95691 136.302 9.11979 136.302 8.16193C136.302 7.19602 136.477 6.35286 136.827 5.63246C137.181 4.91205 137.672 4.35263 138.3 3.95419C138.932 3.55575 139.666 3.35653 140.504 3.35653C141.341 3.35653 142.073 3.55575 142.701 3.95419C143.333 4.35263 143.824 4.91205 144.174 5.63246C144.528 6.35286 144.705 7.19602 144.705 8.16193C144.705 9.11979 144.528 9.95691 144.174 10.6733C143.824 11.3897 143.333 11.9471 142.701 12.3455C142.073 12.744 141.341 12.9432 140.504 12.9432ZM140.504 11.6634C141.139 11.6634 141.663 11.5004 142.073 11.1744C142.484 10.8484 142.787 10.4197 142.985 9.88849C143.182 9.35724 143.281 8.78172 143.281 8.16193C143.281 7.54214 143.182 6.96461 142.985 6.42933C142.787 5.89406 142.484 5.46141 142.073 5.13139C141.663 4.80137 141.139 4.63636 140.504 4.63636C139.868 4.63636 139.344 4.80137 138.934 5.13139C138.523 5.46141 138.22 5.89406 138.022 6.42933C137.825 6.96461 137.727 7.54214 137.727 8.16193C137.727 8.78172 137.825 9.35724 138.022 9.88849C138.22 10.4197 138.523 10.8484 138.934 11.1744C139.344 11.5004 139.868 11.6634 140.504 11.6634ZM151.661 12.75V3.47727H153.038V4.87784H153.134C153.303 4.41903 153.609 4.04676 154.052 3.76101C154.495 3.47526 154.994 3.33239 155.549 3.33239C155.654 3.33239 155.785 3.3344 155.941 3.33842C156.098 3.34245 156.217 3.34848 156.298 3.35653V4.8054C156.249 4.79332 156.139 4.77521 155.966 4.75106C155.797 4.72289 155.617 4.70881 155.428 4.70881C154.978 4.70881 154.575 4.80339 154.221 4.99254C153.871 5.17767 153.593 5.43525 153.388 5.76527C153.187 6.09126 153.086 6.46354 153.086 6.8821V12.75H151.661ZM160.715 12.9673C160.128 12.9673 159.594 12.8567 159.115 12.6353C158.636 12.4099 158.256 12.0859 157.974 11.6634C157.693 11.2367 157.552 10.7216 157.552 10.1179C157.552 9.58665 157.656 9.15601 157.866 8.82599C158.075 8.49195 158.355 8.23035 158.705 8.04119C159.055 7.85204 159.441 7.71117 159.864 7.61861C160.291 7.52202 160.719 7.44555 161.15 7.3892C161.713 7.31676 162.17 7.26243 162.52 7.22621C162.874 7.18596 163.132 7.11955 163.293 7.02699C163.458 6.93442 163.54 6.77344 163.54 6.54403V6.49574C163.54 5.90009 163.377 5.43726 163.051 5.10724C162.729 4.77723 162.24 4.61222 161.584 4.61222C160.904 4.61222 160.371 4.76113 159.985 5.05895C159.598 5.35677 159.327 5.67472 159.17 6.01278L157.817 5.52983C158.059 4.96638 158.381 4.5277 158.783 4.21378C159.19 3.89583 159.633 3.67448 160.111 3.54972C160.594 3.42093 161.069 3.35653 161.536 3.35653C161.834 3.35653 162.176 3.39276 162.562 3.4652C162.953 3.53362 163.329 3.67649 163.691 3.89382C164.058 4.11115 164.361 4.43916 164.603 4.87784C164.844 5.31652 164.965 5.90412 164.965 6.64062V12.75H163.54V11.4943H163.468C163.371 11.6955 163.21 11.9109 162.985 12.1403C162.76 12.3697 162.46 12.5649 162.086 12.7259C161.711 12.8868 161.254 12.9673 160.715 12.9673ZM160.932 11.6875C161.496 11.6875 161.971 11.5768 162.357 11.3555C162.748 11.1341 163.041 10.8484 163.239 10.4982C163.44 10.1481 163.54 9.77983 163.54 9.39347V8.08949C163.48 8.16193 163.347 8.22834 163.142 8.28871C162.941 8.34505 162.707 8.39536 162.442 8.43963C162.18 8.47988 161.925 8.5161 161.675 8.5483C161.43 8.57647 161.23 8.60062 161.077 8.62074C160.707 8.66903 160.361 8.74751 160.039 8.85618C159.721 8.96082 159.464 9.11979 159.266 9.3331C159.073 9.54238 158.977 9.82812 158.977 10.1903C158.977 10.6854 159.16 11.0597 159.526 11.3132C159.896 11.5627 160.365 11.6875 160.932 11.6875ZM167.566 12.75V3.47727H168.99V12.75H167.566ZM168.29 1.93182C168.012 1.93182 167.773 1.83724 167.572 1.64808C167.374 1.45893 167.276 1.23153 167.276 0.965909C167.276 0.700284 167.374 0.472893 167.572 0.283735C167.773 0.0945784 168.012 0 168.29 0C168.568 0 168.805 0.0945784 169.002 0.283735C169.204 0.472893 169.304 0.700284 169.304 0.965909C169.304 1.23153 169.204 1.45893 169.002 1.64808C168.805 1.83724 168.568 1.93182 168.29 1.93182ZM175.367 12.9432C174.53 12.9432 173.795 12.744 173.163 12.3455C172.535 11.9471 172.044 11.3897 171.69 10.6733C171.34 9.95691 171.165 9.11979 171.165 8.16193C171.165 7.19602 171.34 6.35286 171.69 5.63246C172.044 4.91205 172.535 4.35263 173.163 3.95419C173.795 3.55575 174.53 3.35653 175.367 3.35653C176.204 3.35653 176.936 3.55575 177.564 3.95419C178.196 4.35263 178.687 4.91205 179.037 5.63246C179.391 6.35286 179.569 7.19602 179.569 8.16193C179.569 9.11979 179.391 9.95691 179.037 10.6733C178.687 11.3897 178.196 11.9471 177.564 12.3455C176.936 12.744 176.204 12.9432 175.367 12.9432ZM175.367 11.6634C176.003 11.6634 176.526 11.5004 176.936 11.1744C177.347 10.8484 177.651 10.4197 177.848 9.88849C178.045 9.35724 178.144 8.78172 178.144 8.16193C178.144 7.54214 178.045 6.96461 177.848 6.42933C177.651 5.89406 177.347 5.46141 176.936 5.13139C176.526 4.80137 176.003 4.63636 175.367 4.63636C174.731 4.63636 174.208 4.80137 173.797 5.13139C173.387 5.46141 173.083 5.89406 172.886 6.42933C172.688 6.96461 172.59 7.54214 172.59 8.16193C172.59 8.78172 172.688 9.35724 172.886 9.88849C173.083 10.4197 173.387 10.8484 173.797 11.1744C174.208 11.5004 174.731 11.6634 175.367 11.6634Z" fill="white"/>
</svg>
