<svg width="119" height="7" viewBox="0 0 119 7" fill="none" xmlns="http://www.w3.org/2000/svg">
<path d="M2.56819 6.54557L2.6591 4.04557L0.545466 5.38647L1.11461e-05 4.43193L2.22728 3.27284L1.11461e-05 2.11375L0.545466 1.1592L2.6591 2.50011L2.56819 0.000110626H3.6591L3.56819 2.50011L5.68183 1.1592L6.22728 2.11375L4.00001 3.27284L6.22728 4.43193L5.68183 5.38647L3.56819 4.04557L3.6591 6.54557H2.56819ZM10.5682 6.54557L10.6591 4.04557L8.54547 5.38647L8.00001 4.43193L10.2273 3.27284L8.00001 2.11375L8.54547 1.1592L10.6591 2.50011L10.5682 0.000110626H11.6591L11.5682 2.50011L13.6818 1.1592L14.2273 2.11375L12 3.27284L14.2273 4.43193L13.6818 5.38647L11.5682 4.04557L11.6591 6.54557H10.5682ZM18.5682 6.54557L18.6591 4.04557L16.5455 5.38647L16 4.43193L18.2273 3.27284L16 2.11375L16.5455 1.1592L18.6591 2.50011L18.5682 0.000110626H19.6591L19.5682 2.50011L21.6818 1.1592L22.2273 2.11375L20 3.27284L22.2273 4.43193L21.6818 5.38647L19.5682 4.04557L19.6591 6.54557H18.5682ZM26.5682 6.54557L26.6591 4.04557L24.5455 5.38647L24 4.43193L26.2273 3.27284L24 2.11375L24.5455 1.1592L26.6591 2.50011L26.5682 0.000110626H27.6591L27.5682 2.50011L29.6818 1.1592L30.2273 2.11375L28 3.27284L30.2273 4.43193L29.6818 5.38647L27.5682 4.04557L27.6591 6.54557H26.5682ZM34.5682 6.54557L34.6591 4.04557L32.5455 5.38647L32 4.43193L34.2273 3.27284L32 2.11375L32.5455 1.1592L34.6591 2.50011L34.5682 0.000110626H35.6591L35.5682 2.50011L37.6818 1.1592L38.2273 2.11375L36 3.27284L38.2273 4.43193L37.6818 5.38647L35.5682 4.04557L35.6591 6.54557H34.5682ZM42.5682 6.54557L42.6591 4.04557L40.5455 5.38647L40 4.43193L42.2273 3.27284L40 2.11375L40.5455 1.1592L42.6591 2.50011L42.5682 0.000110626H43.6591L43.5682 2.50011L45.6818 1.1592L46.2273 2.11375L44 3.27284L46.2273 4.43193L45.6818 5.38647L43.5682 4.04557L43.6591 6.54557H42.5682ZM50.5682 6.54557L50.6591 4.04557L48.5455 5.38647L48 4.43193L50.2273 3.27284L48 2.11375L48.5455 1.1592L50.6591 2.50011L50.5682 0.000110626H51.6591L51.5682 2.50011L53.6818 1.1592L54.2273 2.11375L52 3.27284L54.2273 4.43193L53.6818 5.38647L51.5682 4.04557L51.6591 6.54557H50.5682ZM58.5682 6.54557L58.6591 4.04557L56.5455 5.38647L56 4.43193L58.2273 3.27284L56 2.11375L56.5455 1.1592L58.6591 2.50011L58.5682 0.000110626H59.6591L59.5682 2.50011L61.6818 1.1592L62.2273 2.11375L60 3.27284L62.2273 4.43193L61.6818 5.38647L59.5682 4.04557L59.6591 6.54557H58.5682ZM66.5682 6.54557L66.6591 4.04557L64.5455 5.38647L64 4.43193L66.2273 3.27284L64 2.11375L64.5455 1.1592L66.6591 2.50011L66.5682 0.000110626H67.6591L67.5682 2.50011L69.6818 1.1592L70.2273 2.11375L68 3.27284L70.2273 4.43193L69.6818 5.38647L67.5682 4.04557L67.6591 6.54557H66.5682ZM74.5682 6.54557L74.6591 4.04557L72.5455 5.38647L72 4.43193L74.2273 3.27284L72 2.11375L72.5455 1.1592L74.6591 2.50011L74.5682 0.000110626H75.6591L75.5682 2.50011L77.6818 1.1592L78.2273 2.11375L76 3.27284L78.2273 4.43193L77.6818 5.38647L75.5682 4.04557L75.6591 6.54557H74.5682ZM82.5682 6.54557L82.6591 4.04557L80.5455 5.38647L80 4.43193L82.2273 3.27284L80 2.11375L80.5455 1.1592L82.6591 2.50011L82.5682 0.000110626H83.6591L83.5682 2.50011L85.6818 1.1592L86.2273 2.11375L84 3.27284L86.2273 4.43193L85.6818 5.38647L83.5682 4.04557L83.6591 6.54557H82.5682ZM90.5682 6.54557L90.6591 4.04557L88.5455 5.38647L88 4.43193L90.2273 3.27284L88 2.11375L88.5455 1.1592L90.6591 2.50011L90.5682 0.000110626H91.6591L91.5682 2.50011L93.6818 1.1592L94.2273 2.11375L92 3.27284L94.2273 4.43193L93.6818 5.38647L91.5682 4.04557L91.6591 6.54557H90.5682ZM98.5682 6.54557L98.6591 4.04557L96.5455 5.38647L96 4.43193L98.2273 3.27284L96 2.11375L96.5455 1.1592L98.6591 2.50011L98.5682 0.000110626H99.6591L99.5682 2.50011L101.682 1.1592L102.227 2.11375L100 3.27284L102.227 4.43193L101.682 5.38647L99.5682 4.04557L99.6591 6.54557H98.5682ZM106.568 6.54557L106.659 4.04557L104.545 5.38647L104 4.43193L106.227 3.27284L104 2.11375L104.545 1.1592L106.659 2.50011L106.568 0.000110626H107.659L107.568 2.50011L109.682 1.1592L110.227 2.11375L108 3.27284L110.227 4.43193L109.682 5.38647L107.568 4.04557L107.659 6.54557H106.568ZM114.568 6.54557L114.659 4.04557L112.545 5.38647L112 4.43193L114.227 3.27284L112 2.11375L112.545 1.1592L114.659 2.50011L114.568 0.000110626H115.659L115.568 2.50011L117.682 1.1592L118.227 2.11375L116 3.27284L118.227 4.43193L117.682 5.38647L115.568 4.04557L115.659 6.54557H114.568Z" fill="#919191"/>
</svg>
