<svg width="49" height="13" viewBox="0 0 49 13" fill="none" xmlns="http://www.w3.org/2000/svg">
<path d="M7.29258 3.25999C7.22014 2.64825 6.92634 2.17334 6.41119 1.83527C5.89604 1.4972 5.26417 1.32817 4.51559 1.32817C3.96824 1.32817 3.48931 1.41671 3.0788 1.59379C2.67232 1.77088 2.35437 2.01437 2.12497 2.32426C1.89959 2.63416 1.7869 2.98631 1.7869 3.38073C1.7869 3.71074 1.86538 3.99448 2.02234 4.23193C2.18332 4.46536 2.38858 4.66056 2.63811 4.81752C2.88763 4.97045 3.14923 5.09723 3.42291 5.19784C3.69658 5.29443 3.94812 5.37291 4.17752 5.43328L5.43321 5.77135C5.75518 5.85587 6.11337 5.97258 6.50778 6.12149C6.90622 6.2704 7.28654 6.47365 7.64876 6.73122C8.015 6.98477 8.31685 7.31077 8.5543 7.70921C8.79175 8.10764 8.91048 8.59664 8.91048 9.17618C8.91048 9.84427 8.73541 10.448 8.38527 10.9873C8.03915 11.5266 7.53205 11.9552 6.86396 12.2731C6.1999 12.5911 5.39296 12.75 4.44315 12.75C3.55773 12.75 2.79104 12.6072 2.14308 12.3214C1.49914 12.0357 0.992036 11.6372 0.621771 11.1261C0.25553 10.615 0.0482622 10.0214 -3.32631e-05 9.34521H1.54542C1.58567 9.81207 1.74263 10.1984 2.0163 10.5043C2.294 10.8062 2.64414 11.0315 3.06673 11.1804C3.49334 11.3253 3.95214 11.3978 4.44315 11.3978C5.01464 11.3978 5.52778 11.3052 5.98257 11.1201C6.43735 10.9309 6.79755 10.6693 7.06318 10.3353C7.3288 9.9972 7.46161 9.60279 7.46161 9.15203C7.46161 8.74152 7.34691 8.40748 7.11751 8.1499C6.88811 7.89233 6.58626 7.68305 6.21197 7.52206C5.83768 7.36108 5.43321 7.22021 4.99855 7.09948L3.47724 6.66482C2.51133 6.38712 1.74665 5.99069 1.18321 5.47554C0.619758 4.96039 0.338035 4.28627 0.338035 3.45317C0.338035 2.76093 0.52518 2.15724 0.89947 1.64209C1.27778 1.12291 1.78489 0.720451 2.42078 0.434703C3.06069 0.14493 3.77506 4.39286e-05 4.56389 4.39286e-05C5.36076 4.39286e-05 6.0691 0.142918 6.68889 0.428666C7.30868 0.710389 7.79968 1.09675 8.1619 1.58776C8.52814 2.07876 8.72132 2.63617 8.74144 3.25999H7.29258ZM15.0666 12.7259C14.1732 12.7259 13.4025 12.5287 12.7545 12.1343C12.1106 11.7358 11.6135 11.1804 11.2634 10.4681C10.9173 9.7517 10.7442 8.9186 10.7442 7.96879C10.7442 7.01898 10.9173 6.18186 11.2634 5.45743C11.6135 4.72897 12.1005 4.1615 12.7243 3.75502C13.3522 3.3445 14.0846 3.13925 14.9218 3.13925C15.4047 3.13925 15.8816 3.21974 16.3525 3.38073C16.8234 3.54171 17.252 3.80331 17.6384 4.16553C18.0247 4.52372 18.3326 4.99862 18.562 5.59024C18.7914 6.18186 18.9061 6.91032 18.9061 7.77561V8.37931H11.7584V7.14777H17.4573C17.4573 6.62457 17.3526 6.15771 17.1433 5.7472C16.9381 5.33669 16.6443 5.01271 16.262 4.77526C15.8836 4.5378 15.4369 4.41908 14.9218 4.41908C14.3543 4.41908 13.8633 4.55994 13.4487 4.84166C13.0382 5.11936 12.7223 5.48158 12.5009 5.92831C12.2796 6.37504 12.1689 6.85397 12.1689 7.3651V8.18612C12.1689 8.88641 12.2897 9.48004 12.5311 9.96702C12.7766 10.45 13.1167 10.8182 13.5514 11.0718C13.986 11.3213 14.4911 11.4461 15.0666 11.4461C15.4409 11.4461 15.779 11.3937 16.0808 11.2891C16.3867 11.1804 16.6503 11.0195 16.8717 10.8062C17.093 10.5888 17.2641 10.3192 17.3848 9.9972L18.7612 10.3836C18.6164 10.8504 18.3729 11.2609 18.0308 11.6151C17.6887 11.9652 17.2661 12.2389 16.763 12.4361C16.2599 12.6293 15.6945 12.7259 15.0666 12.7259ZM22.4981 6.95459V12.5327H21.0734V3.25999H22.4498V4.70885H22.5705C22.7879 4.23797 23.1179 3.85966 23.5606 3.57391C24.0033 3.28414 24.5748 3.13925 25.2751 3.13925C25.9029 3.13925 26.4523 3.26804 26.9232 3.52561C27.3941 3.77916 27.7603 4.16553 28.0219 4.6847C28.2835 5.19985 28.4143 5.85184 28.4143 6.64067V12.5327H26.9896V6.73726C26.9896 6.0088 26.8004 5.44133 26.4221 5.03485C26.0438 4.62433 25.5246 4.41908 24.8646 4.41908C24.4098 4.41908 24.0033 4.51768 23.6451 4.71489C23.291 4.91209 23.0112 5.19985 22.806 5.57817C22.6007 5.95648 22.4981 6.41529 22.4981 6.95459ZM32.4424 6.95459V12.5327H31.0177V0.169078H32.4424V4.70885H32.5632C32.7805 4.22992 33.1065 3.84959 33.5412 3.56787C33.9798 3.28212 34.5634 3.13925 35.2919 3.13925C35.9237 3.13925 36.4771 3.26602 36.952 3.51958C37.4269 3.7691 37.7952 4.15345 38.0568 4.67263C38.3224 5.18778 38.4552 5.84379 38.4552 6.64067V12.5327H37.0305V6.73726C37.0305 6.00075 36.8393 5.43127 36.457 5.02881C36.0787 4.62232 35.5535 4.41908 34.8814 4.41908C34.4145 4.41908 33.9959 4.51768 33.6257 4.71489C33.2594 4.91209 32.9697 5.19985 32.7564 5.57817C32.5471 5.95648 32.4424 6.41529 32.4424 6.95459ZM43.7904 12.75C43.2028 12.75 42.6695 12.6394 42.1906 12.418C41.7116 12.1926 41.3313 11.8687 41.0496 11.4461C40.7679 11.0195 40.627 10.5043 40.627 9.90061C40.627 9.36936 40.7316 8.93873 40.9409 8.60871C41.1502 8.27467 41.4299 8.01306 41.7801 7.82391C42.1302 7.63475 42.5166 7.49389 42.9392 7.40132C43.3658 7.30473 43.7944 7.22826 44.225 7.17192C44.7885 7.09948 45.2453 7.04514 45.5954 7.00892C45.9496 6.96868 46.2071 6.90227 46.3681 6.8097C46.5331 6.71714 46.6156 6.55615 46.6156 6.32675V6.27845C46.6156 5.68281 46.4526 5.21998 46.1267 4.88996C45.8047 4.55994 45.3157 4.39493 44.6597 4.39493C43.9795 4.39493 43.4463 4.54384 43.0599 4.84166C42.6735 5.13949 42.4019 5.45743 42.2449 5.7955L40.8926 5.31254C41.1341 4.7491 41.4561 4.31041 41.8585 3.99649C42.265 3.67855 42.7077 3.45719 43.1867 3.33243C43.6696 3.20364 44.1445 3.13925 44.6114 3.13925C44.9092 3.13925 45.2513 3.17547 45.6377 3.24791C46.0281 3.31633 46.4044 3.45921 46.7666 3.67654C47.1328 3.89387 47.4367 4.22187 47.6781 4.66056C47.9196 5.09924 48.0404 5.68683 48.0404 6.42334V12.5327H46.6156V11.277H46.5432C46.4466 11.4783 46.2856 11.6936 46.0602 11.923C45.8349 12.1524 45.535 12.3476 45.1607 12.5086C44.7865 12.6696 44.3297 12.75 43.7904 12.75ZM44.0077 11.4702C44.5711 11.4702 45.046 11.3595 45.4324 11.1382C45.8228 10.9168 46.1166 10.6311 46.3138 10.2809C46.515 9.9308 46.6156 9.56254 46.6156 9.17618V7.8722C46.5553 7.94465 46.4225 8.01105 46.2172 8.07142C46.016 8.12777 45.7825 8.17807 45.5169 8.22235C45.2553 8.26259 44.9998 8.29881 44.7502 8.33101C44.5047 8.35918 44.3055 8.38333 44.1526 8.40345C43.7823 8.45175 43.4362 8.53023 43.1142 8.63889C42.7963 8.74353 42.5387 8.90251 42.3415 9.11581C42.1483 9.32509 42.0517 9.61084 42.0517 9.97306C42.0517 10.4681 42.2348 10.8424 42.6011 11.0959C42.9714 11.3455 43.4402 11.4702 44.0077 11.4702Z" fill="white"/>
</svg>
