<svg width="42" height="12" viewBox="0 0 42 12" fill="none" xmlns="http://www.w3.org/2000/svg">
<path d="M7.188 4.45192C7.188 3.98792 7.136 3.51592 7.032 3.03592C6.936 2.55592 6.776 2.11192 6.552 1.70392C6.328 1.29592 6.028 0.96792 5.652 0.71992C5.276 0.46392 4.812 0.33592 4.26 0.33592C3.724 0.33592 3.268 0.46792 2.892 0.73192C2.516 0.995919 2.212 1.33992 1.98 1.76392C1.748 2.17992 1.576 2.63192 1.464 3.11992C1.36 3.59992 1.308 4.06392 1.308 4.51192C1.308 4.98392 1.356 5.45992 1.452 5.93992C1.548 6.41192 1.708 6.84792 1.932 7.24792C2.156 7.63992 2.456 7.95592 2.832 8.19592C3.216 8.43592 3.692 8.55592 4.26 8.55592C4.828 8.55592 5.3 8.43192 5.676 8.18392C6.052 7.93592 6.348 7.61192 6.564 7.21192C6.788 6.80392 6.948 6.35992 7.044 5.87992C7.14 5.39992 7.188 4.92392 7.188 4.45192ZM8.496 4.41592C8.496 5.30392 8.332 6.08792 8.004 6.76792C7.684 7.43992 7.208 7.96392 6.576 8.33992C5.952 8.71592 5.18 8.90392 4.26 8.90392C3.364 8.90392 2.596 8.72392 1.956 8.36392C1.324 7.99592 0.840003 7.48392 0.504003 6.82792C0.168003 6.16392 2.95043e-06 5.39192 2.95043e-06 4.51192C2.95043e-06 3.89592 0.100003 3.31592 0.300003 2.77192C0.500003 2.22792 0.788003 1.74792 1.164 1.33192C1.54 0.91592 1.988 0.59192 2.508 0.359919C3.036 0.11992 3.62 -8.03471e-05 4.26 -8.03471e-05C5.156 -8.03471e-05 5.916 0.18792 6.54 0.56392C7.172 0.93192 7.656 1.44792 7.992 2.11192C8.328 2.76792 8.496 3.53592 8.496 4.41592ZM14.7758 5.43592C14.7758 5.16392 14.7598 4.87992 14.7278 4.58392C14.6958 4.27992 14.6278 3.99592 14.5238 3.73192C14.4198 3.46792 14.2638 3.25592 14.0558 3.09592C13.8478 2.92792 13.5638 2.84392 13.2038 2.84392C12.9878 2.84392 12.7558 2.89992 12.5078 3.01192C12.2678 3.11592 12.0558 3.25992 11.8718 3.44392C11.6958 3.62792 11.5958 3.83992 11.5718 4.07992C11.5558 4.32792 11.5478 4.57992 11.5478 4.83592C11.5478 5.09192 11.5478 5.34792 11.5478 5.60392C11.5478 5.82792 11.5478 6.05592 11.5478 6.28792C11.5558 6.51192 11.5638 6.73992 11.5718 6.97192C11.5958 7.37992 11.7278 7.72792 11.9678 8.01592C12.2078 8.29592 12.5478 8.43592 12.9878 8.43592C13.4038 8.43592 13.7318 8.34392 13.9718 8.15992C14.2118 7.96792 14.3878 7.71992 14.4998 7.41592C14.6198 7.11192 14.6958 6.78792 14.7278 6.44392C14.7598 6.09192 14.7758 5.75592 14.7758 5.43592ZM16.0118 5.44792C16.0118 6.07192 15.8998 6.63592 15.6758 7.13992C15.4518 7.64392 15.1158 8.04392 14.6678 8.33992C14.2278 8.62792 13.6758 8.77192 13.0118 8.77192C12.7558 8.77192 12.4918 8.70792 12.2198 8.57992C11.9558 8.44392 11.7318 8.28792 11.5478 8.11192V10.6679C11.5478 10.7799 11.5918 10.8439 11.6798 10.8599C11.7758 10.8759 11.8638 10.8839 11.9438 10.8839C12.0158 10.8839 12.0878 10.8799 12.1598 10.8719C12.2318 10.8639 12.3038 10.8599 12.3758 10.8599C12.4798 10.8599 12.5318 10.9119 12.5318 11.0159C12.5318 11.1359 12.4718 11.1959 12.3518 11.1959C12.1038 11.1959 11.8558 11.1879 11.6078 11.1719C11.3598 11.1559 11.1118 11.1479 10.8638 11.1479C10.6558 11.1479 10.4478 11.1559 10.2398 11.1719C10.0398 11.1879 9.83575 11.1959 9.62775 11.1959C9.57175 11.1959 9.53575 11.1759 9.51975 11.1359C9.51175 11.0959 9.50775 11.0599 9.50775 11.0279C9.50775 10.9159 9.56375 10.8599 9.67575 10.8599C9.73975 10.8599 9.80375 10.8599 9.86775 10.8599C9.93175 10.8679 9.99575 10.8719 10.0598 10.8719C10.1158 10.8719 10.1958 10.8639 10.2998 10.8479C10.4118 10.8319 10.4678 10.7839 10.4678 10.7039C10.4678 9.87192 10.4678 9.03592 10.4678 8.19592C10.4758 7.35592 10.4798 6.51992 10.4798 5.68792C10.4798 5.31192 10.4758 4.93992 10.4678 4.57192C10.4678 4.20392 10.4638 3.83592 10.4558 3.46792C10.4478 3.29192 10.4158 3.17192 10.3598 3.10792C10.3038 3.03592 10.1838 2.99992 9.99975 2.99992C9.91975 2.99992 9.83975 3.01192 9.75975 3.03592C9.67975 3.05192 9.59975 3.05992 9.51975 3.05992C9.43175 3.05992 9.38775 3.01992 9.38775 2.93992C9.38775 2.86792 9.42375 2.81992 9.49575 2.79592C9.51175 2.78792 9.58375 2.77192 9.71175 2.74792C9.83975 2.72392 9.99175 2.69592 10.1678 2.66392C10.3518 2.62392 10.5318 2.58792 10.7078 2.55592C10.8838 2.52392 11.0318 2.49592 11.1518 2.47192C11.2718 2.44792 11.3358 2.43592 11.3438 2.43592C11.4078 2.43592 11.4518 2.47592 11.4758 2.55592C11.4918 2.60392 11.4998 2.69192 11.4998 2.81992C11.5078 2.93992 11.5118 3.06392 11.5118 3.19192C11.5118 3.31192 11.5118 3.40392 11.5118 3.46792C11.7358 3.17192 12.0198 2.92792 12.3638 2.73592C12.7158 2.53592 13.0798 2.43592 13.4558 2.43592C14.0078 2.43592 14.4718 2.58392 14.8478 2.87992C15.2318 3.16792 15.5198 3.54392 15.7118 4.00792C15.9118 4.46392 16.0118 4.94392 16.0118 5.44792ZM22.7245 7.40392C22.7245 7.43592 22.7165 7.46392 22.7005 7.48792C22.5245 7.75192 22.2925 7.98792 22.0045 8.19592C21.7165 8.40392 21.4045 8.57192 21.0685 8.69992C20.7405 8.81992 20.4205 8.87992 20.1085 8.87992C20.0525 8.87992 20.0005 8.87592 19.9525 8.86792C19.9045 8.86792 19.8565 8.86792 19.8085 8.86792C19.7285 8.99592 19.6445 9.11592 19.5565 9.22792C19.4765 9.33992 19.3965 9.45592 19.3165 9.57592C19.4445 9.55992 19.5685 9.54792 19.6885 9.53992C19.8165 9.53192 19.9445 9.52792 20.0725 9.52792C20.2245 9.52792 20.3885 9.53992 20.5645 9.56392C20.7485 9.59592 20.9045 9.65592 21.0325 9.74392C21.1685 9.83992 21.2365 9.98392 21.2365 10.1759C21.2365 10.3839 21.1765 10.5479 21.0565 10.6679C20.9445 10.7879 20.8005 10.8759 20.6245 10.9319C20.4485 10.9959 20.2645 11.0359 20.0725 11.0519C19.8805 11.0679 19.7085 11.0759 19.5565 11.0759C19.4045 11.0759 19.2365 11.0479 19.0525 10.9919C18.8765 10.9439 18.7165 10.8839 18.5725 10.8119C18.5245 10.7879 18.4405 10.7399 18.3205 10.6679C18.2085 10.5959 18.1525 10.5319 18.1525 10.4759C18.1525 10.4119 18.1805 10.3799 18.2365 10.3799C18.2605 10.3799 18.3165 10.3959 18.4045 10.4279C18.4925 10.4679 18.5525 10.4959 18.5845 10.5119C18.7365 10.5599 18.8925 10.5919 19.0525 10.6079C19.2205 10.6319 19.3805 10.6439 19.5325 10.6439C19.6205 10.6439 19.7445 10.6279 19.9045 10.5959C20.0645 10.5719 20.2085 10.5279 20.3365 10.4639C20.4725 10.3999 20.5405 10.3079 20.5405 10.1879C20.5405 10.0839 20.4925 10.0039 20.3965 9.94792C20.3085 9.89192 20.2085 9.84792 20.0965 9.81592C19.9845 9.79192 19.8885 9.77992 19.8085 9.77992C19.6405 9.77992 19.4765 9.79992 19.3165 9.83992C19.1645 9.87992 19.0085 9.92792 18.8485 9.98392C18.9365 9.77592 19.0285 9.57592 19.1245 9.38392C19.2285 9.19192 19.3245 8.99592 19.4125 8.79592C18.9165 8.69192 18.4925 8.49592 18.1405 8.20792C17.7885 7.91992 17.5205 7.56392 17.3365 7.13992C17.1525 6.71592 17.0605 6.25592 17.0605 5.75992C17.0605 5.16792 17.1805 4.61192 17.4205 4.09192C17.6605 3.57192 18.0365 3.15192 18.5485 2.83192C18.7725 2.69592 19.0205 2.58792 19.2925 2.50792C19.5645 2.42792 19.8285 2.38792 20.0845 2.38792C20.3885 2.38792 20.6885 2.45192 20.9845 2.57992C21.1205 2.63592 21.2645 2.69992 21.4165 2.77192C21.5685 2.83592 21.7165 2.86792 21.8605 2.86792C21.9245 2.86792 21.9845 2.85992 22.0405 2.84392C22.0965 2.82792 22.1525 2.81592 22.2085 2.80792C22.2245 3.05592 22.2405 3.30792 22.2565 3.56392C22.2725 3.81992 22.2845 4.07592 22.2925 4.33192V4.36792C22.2925 4.46392 22.2805 4.53192 22.2565 4.57192C22.2405 4.60392 22.1765 4.61992 22.0645 4.61992C22.0085 4.61992 21.9725 4.59192 21.9565 4.53592C21.9405 4.47992 21.9245 4.42792 21.9085 4.37992C21.8525 4.14792 21.7645 3.90792 21.6445 3.65992C21.5325 3.40392 21.3845 3.19592 21.2005 3.03592C21.0805 2.92392 20.9325 2.83192 20.7565 2.75992C20.5805 2.68792 20.4125 2.65192 20.2525 2.65192C19.8685 2.65192 19.5445 2.75192 19.2805 2.95192C19.0165 3.14392 18.8005 3.39592 18.6325 3.70792C18.4725 4.01192 18.3565 4.33992 18.2845 4.69192C18.2125 5.04392 18.1765 5.37592 18.1765 5.68792C18.1765 5.99992 18.2125 6.31592 18.2845 6.63592C18.3565 6.95592 18.4685 7.25592 18.6205 7.53592C18.7805 7.80792 18.9885 8.02792 19.2445 8.19592C19.5005 8.36392 19.8125 8.44792 20.1805 8.44792C20.6605 8.44792 21.0645 8.36792 21.3925 8.20792C21.7285 8.03992 22.0525 7.77992 22.3645 7.42792C22.3885 7.41192 22.4045 7.38792 22.4125 7.35592C22.4285 7.32392 22.4525 7.29992 22.4845 7.28392C22.5005 7.26792 22.5325 7.25992 22.5805 7.25992C22.6765 7.25992 22.7245 7.30792 22.7245 7.40392ZM28.605 5.69992C28.605 5.35592 28.577 5.01192 28.521 4.66792C28.473 4.31592 28.377 3.99192 28.233 3.69592C28.097 3.39992 27.897 3.16392 27.633 2.98792C27.369 2.80392 27.025 2.71192 26.601 2.71192C26.201 2.71192 25.873 2.80792 25.617 2.99992C25.369 3.19192 25.173 3.43992 25.029 3.74392C24.893 4.04792 24.797 4.37592 24.741 4.72792C24.693 5.07992 24.669 5.41192 24.669 5.72392C24.669 6.06792 24.693 6.41192 24.741 6.75592C24.797 7.09992 24.897 7.41192 25.041 7.69192C25.185 7.96392 25.389 8.18392 25.653 8.35192C25.925 8.51992 26.273 8.60392 26.697 8.60392C27.113 8.60392 27.445 8.51592 27.693 8.33992C27.949 8.16392 28.141 7.93192 28.269 7.64392C28.405 7.35592 28.493 7.04392 28.533 6.70792C28.581 6.36392 28.605 6.02792 28.605 5.69992ZM29.841 5.73592C29.841 6.33592 29.697 6.87592 29.409 7.35592C29.129 7.83592 28.745 8.21592 28.257 8.49592C27.777 8.77592 27.237 8.91592 26.637 8.91592C26.053 8.91592 25.525 8.77592 25.053 8.49592C24.581 8.20792 24.205 7.82792 23.925 7.35592C23.645 6.87592 23.505 6.34392 23.505 5.75992C23.505 5.15992 23.641 4.60792 23.913 4.10392C24.185 3.59192 24.557 3.17992 25.029 2.86792C25.509 2.55592 26.061 2.39992 26.685 2.39992C27.357 2.39992 27.929 2.54392 28.401 2.83192C28.873 3.11192 29.229 3.50392 29.469 4.00792C29.717 4.50392 29.841 5.07992 29.841 5.73592ZM28.533 0.44392C28.389 0.61992 28.225 0.79992 28.041 0.98392C27.857 1.15992 27.641 1.24792 27.393 1.24792C27.201 1.24792 27.021 1.20392 26.853 1.11592C26.685 1.02792 26.521 0.93992 26.361 0.851919C26.201 0.76392 26.037 0.71992 25.869 0.71992C25.701 0.71992 25.549 0.77992 25.413 0.89992C25.285 1.01192 25.169 1.12392 25.065 1.23592L24.813 1.07992C24.917 0.935919 25.025 0.787919 25.137 0.635919C25.257 0.483919 25.393 0.355919 25.545 0.251919C25.697 0.14792 25.873 0.0959198 26.073 0.0959198C26.257 0.0959198 26.429 0.13992 26.589 0.22792C26.749 0.30792 26.913 0.391919 27.081 0.479919C27.249 0.567919 27.429 0.61192 27.621 0.61192C27.773 0.61192 27.897 0.57192 27.993 0.49192C28.097 0.403919 28.201 0.307919 28.305 0.203919L28.533 0.44392ZM35.2904 4.65592C35.2824 4.32792 35.2544 4.01592 35.2064 3.71992C35.1584 3.41592 35.0424 3.16792 34.8584 2.97592C34.6744 2.77592 34.3744 2.67592 33.9584 2.67592C33.5824 2.67592 33.2744 2.77992 33.0344 2.98792C32.8024 3.18792 32.6224 3.44392 32.4944 3.75592C32.3664 4.05992 32.2704 4.37192 32.2064 4.69192C32.4064 4.69992 32.6024 4.70792 32.7944 4.71592C32.9864 4.71592 33.1784 4.71592 33.3704 4.71592C33.6904 4.71592 34.0104 4.71192 34.3304 4.70392C34.6504 4.68792 34.9704 4.67192 35.2904 4.65592ZM36.6704 7.40392C36.6704 7.44392 36.6624 7.46792 36.6464 7.47592C36.6224 7.55592 36.5624 7.65192 36.4664 7.76392C36.3784 7.87592 36.2784 7.98392 36.1664 8.08792C36.0544 8.18392 35.9624 8.25592 35.8904 8.30392C35.6264 8.48792 35.3264 8.63592 34.9904 8.74792C34.6624 8.85992 34.3344 8.91592 34.0064 8.91592C33.7344 8.91592 33.4304 8.87192 33.0944 8.78392C32.7664 8.69592 32.4864 8.57592 32.2544 8.42392C31.8064 8.12792 31.4784 7.73992 31.2704 7.25992C31.0624 6.77992 30.9584 6.27992 30.9584 5.75992C30.9584 5.16792 31.0744 4.61992 31.3064 4.11592C31.5384 3.61192 31.9104 3.20392 32.4224 2.89192C32.6544 2.75592 32.9144 2.64392 33.2024 2.55592C33.4904 2.45992 33.7664 2.41192 34.0304 2.41192C34.5024 2.41192 34.9184 2.50792 35.2784 2.69992C35.6384 2.89192 35.9184 3.16392 36.1184 3.51592C36.3264 3.85992 36.4304 4.27192 36.4304 4.75192C36.4304 4.88792 36.3984 4.97592 36.3344 5.01592C36.2784 5.05592 36.1904 5.07592 36.0704 5.07592C35.9104 5.07592 35.7504 5.07192 35.5904 5.06392C35.4304 5.05592 35.2704 5.04792 35.1104 5.03992C34.8864 5.02392 34.6624 5.01592 34.4384 5.01592C34.2224 5.01592 34.0024 5.01592 33.7784 5.01592C33.5064 5.01592 33.2344 5.01592 32.9624 5.01592C32.6904 5.01592 32.4184 5.02392 32.1464 5.03992C32.1384 5.16792 32.1304 5.29192 32.1224 5.41192C32.1144 5.53192 32.1104 5.65592 32.1104 5.78392C32.1104 6.07992 32.1464 6.38792 32.2184 6.70792C32.2904 7.01992 32.4064 7.31192 32.5664 7.58392C32.7264 7.84792 32.9304 8.06392 33.1784 8.23192C33.4264 8.39192 33.7264 8.47192 34.0784 8.47192C34.4384 8.47192 34.7824 8.41592 35.1104 8.30392C35.4384 8.19192 35.7384 8.01192 36.0104 7.76392C36.0824 7.69192 36.1464 7.61592 36.2024 7.53592C36.2664 7.44792 36.3344 7.37192 36.4064 7.30792C36.4464 7.26792 36.4904 7.24792 36.5384 7.24792C36.5784 7.24792 36.6104 7.26392 36.6344 7.29592C36.6584 7.32792 36.6704 7.36392 36.6704 7.40392ZM41.9015 7.15192C41.9015 7.51192 41.8215 7.80792 41.6615 8.03992C41.5015 8.26392 41.2935 8.43592 41.0375 8.55592C40.7815 8.67592 40.5015 8.75992 40.1975 8.80792C39.8935 8.85592 39.5975 8.87992 39.3095 8.87992C39.0455 8.87992 38.7815 8.85192 38.5175 8.79592C38.2615 8.73992 38.0015 8.69992 37.7375 8.67592C37.6815 8.45992 37.6255 8.24392 37.5695 8.02792C37.5215 7.81192 37.4655 7.59992 37.4015 7.39192C37.3935 7.36792 37.3735 7.31192 37.3415 7.22392C37.3175 7.13592 37.3055 7.08792 37.3055 7.07992C37.3055 7.01592 37.3255 6.97192 37.3655 6.94792C37.4055 6.91592 37.4535 6.89992 37.5095 6.89992C37.5655 6.89992 37.6055 6.91992 37.6295 6.95992C37.6775 7.01592 37.7175 7.09192 37.7495 7.18792C37.7895 7.28392 37.8255 7.36792 37.8575 7.43992C37.9215 7.56792 37.9775 7.66792 38.0255 7.73992C38.0735 7.80392 38.1495 7.88792 38.2535 7.99192C38.5655 8.31992 38.9535 8.48392 39.4175 8.48392C39.6735 8.48392 39.9055 8.45592 40.1135 8.39992C40.3295 8.34392 40.5015 8.23992 40.6295 8.08792C40.7575 7.92792 40.8215 7.69992 40.8215 7.40392C40.8215 7.14792 40.7415 6.93592 40.5815 6.76792C40.4215 6.59192 40.2135 6.43592 39.9575 6.29992C39.7095 6.16392 39.4455 6.03192 39.1655 5.90392C38.8855 5.77592 38.6175 5.63592 38.3615 5.48392C38.1135 5.32392 37.9095 5.13192 37.7495 4.90792C37.5895 4.68392 37.5095 4.41192 37.5095 4.09192C37.5095 3.69992 37.6095 3.37992 37.8095 3.13192C38.0175 2.88392 38.2815 2.69992 38.6015 2.57992C38.9215 2.45192 39.2535 2.38792 39.5975 2.38792C39.8215 2.38792 40.0215 2.41592 40.1975 2.47192C40.3815 2.52792 40.5735 2.59192 40.7735 2.66392C40.8375 2.68792 40.9015 2.70392 40.9655 2.71192C41.0295 2.71992 41.0935 2.72392 41.1575 2.72392C41.1975 2.72392 41.2335 2.72392 41.2655 2.72392C41.2975 2.72392 41.3295 2.71992 41.3615 2.71192C41.3855 2.85592 41.4055 3.00392 41.4215 3.15592C41.4455 3.29992 41.4655 3.44792 41.4815 3.59992C41.4895 3.65592 41.4975 3.72392 41.5055 3.80392C41.5215 3.87592 41.5295 3.94392 41.5295 4.00792C41.5295 4.06392 41.5175 4.12392 41.4935 4.18792C41.4695 4.24392 41.4215 4.27192 41.3495 4.27192C41.2935 4.27192 41.2455 4.26792 41.2055 4.25992C41.1735 4.24392 41.1455 4.20792 41.1215 4.15192C41.0815 4.07192 41.0455 3.98792 41.0135 3.89992C40.9895 3.80392 40.9615 3.71592 40.9295 3.63592C40.8255 3.35592 40.6455 3.13192 40.3895 2.96392C40.1335 2.78792 39.8575 2.69992 39.5615 2.69992C39.1855 2.69992 38.9015 2.81192 38.7095 3.03592C38.5175 3.25192 38.4215 3.54392 38.4215 3.91192C38.4215 4.03992 38.4535 4.16392 38.5175 4.28392C38.5895 4.40392 38.6695 4.50792 38.7575 4.59592C38.9255 4.75592 39.1215 4.87992 39.3455 4.96792C39.5775 5.05592 39.7975 5.14392 40.0055 5.23192C40.2775 5.35192 40.5575 5.49592 40.8455 5.66392C41.1415 5.83192 41.3895 6.03592 41.5895 6.27592C41.7975 6.51592 41.9015 6.80792 41.9015 7.15192Z" fill="#9C3F07"/>
</svg>
