<svg width="70" height="15" viewBox="0 0 70 15" fill="none" xmlns="http://www.w3.org/2000/svg">
<path d="M7.696 2.89603C7.696 2.04269 7.42933 1.42403 6.896 1.04003C6.37333 0.64536 5.71733 0.448027 4.928 0.448027C4.71467 0.448027 4.496 0.45336 4.272 0.464026C4.048 0.464026 3.824 0.464026 3.6 0.464026C3.49333 0.464026 3.38667 0.496027 3.28 0.560027C3.17333 0.624027 3.12 0.714693 3.12 0.832026V5.37603C3.35467 5.54669 3.64267 5.64803 3.984 5.68003C4.32533 5.71203 4.62933 5.72803 4.896 5.72803C5.81333 5.72803 6.50667 5.48269 6.976 4.99203C7.456 4.50136 7.696 3.80269 7.696 2.89603ZM9.456 2.84803C9.456 3.54136 9.32267 4.10669 9.056 4.54403C8.8 4.98136 8.45333 5.32269 8.016 5.56803C7.57867 5.81336 7.08267 5.98403 6.528 6.08003C5.984 6.16536 5.424 6.20803 4.848 6.20803C4.56 6.20803 4.272 6.19203 3.984 6.16003C3.696 6.12803 3.41333 6.09069 3.136 6.04803V10.832C3.136 10.992 3.20533 11.0987 3.344 11.152C3.48267 11.2054 3.63733 11.232 3.808 11.232C3.97867 11.232 4.11733 11.232 4.224 11.232C4.288 11.232 4.352 11.232 4.416 11.232C4.49067 11.2214 4.56 11.216 4.624 11.216C4.72 11.216 4.768 11.2587 4.768 11.344C4.768 11.4827 4.75733 11.5787 4.736 11.632C4.71467 11.6747 4.62933 11.696 4.48 11.696C4.11733 11.696 3.76 11.6854 3.408 11.664C3.056 11.6427 2.704 11.632 2.352 11.632C1.98933 11.632 1.62133 11.648 1.248 11.68C0.885334 11.7014 0.522667 11.712 0.16 11.712C0.0533337 11.712 3.8743e-07 11.6427 3.8743e-07 11.504C3.8743e-07 11.44 0.0106671 11.3814 0.0320004 11.328C0.0533337 11.2747 0.106667 11.248 0.192 11.248C0.32 11.248 0.448 11.2534 0.576 11.264C0.704 11.264 0.832 11.264 0.96 11.264C1.088 11.264 1.2 11.232 1.296 11.168C1.40267 11.104 1.46133 11.0027 1.472 10.864C1.49333 10.672 1.49867 10.48 1.488 10.288C1.488 10.0854 1.488 9.88803 1.488 9.69603C1.488 9.31203 1.488 8.92803 1.488 8.54403C1.488 8.14936 1.488 7.76003 1.488 7.37603V4.57603C1.488 3.94669 1.48267 3.32269 1.472 2.70403C1.472 2.07469 1.472 1.45069 1.472 0.832026C1.472 0.640026 1.376 0.528027 1.184 0.496027C1.00267 0.45336 0.842667 0.432027 0.704 0.432027C0.608 0.432027 0.512 0.43736 0.416 0.448027C0.32 0.448027 0.229334 0.448027 0.144 0.448027C0.0693337 0.448027 0.0266671 0.416027 0.0160004 0.352027C0.0160004 0.27736 0.0160004 0.218693 0.0160004 0.176026C0.0160004 0.13336 0.0266671 0.0960271 0.0480004 0.0640268C0.0693337 0.0213601 0.101334 2.67029e-05 0.144 2.67029e-05C0.496 2.67029e-05 0.848 0.0106936 1.2 0.0320272C1.552 0.0533603 1.90933 0.0640268 2.272 0.0640268C2.82667 0.0640268 3.38133 0.0533603 3.936 0.0320272C4.49067 0.0106936 5.04533 2.67029e-05 5.6 2.67029e-05C6.048 2.67029e-05 6.496 0.0480267 6.944 0.144027C7.40267 0.240027 7.81867 0.400027 8.192 0.624027C8.576 0.848027 8.88 1.14136 9.104 1.50403C9.33867 1.86669 9.456 2.31469 9.456 2.84803ZM16.5444 4.60803C16.5444 4.71469 16.5017 4.81603 16.4164 4.91203C16.3417 4.99736 16.2457 5.04003 16.1284 5.04003C15.9684 5.04003 15.851 4.98669 15.7764 4.88003C15.7124 4.77336 15.6537 4.65069 15.6004 4.51203C15.5577 4.37336 15.4884 4.25069 15.3924 4.14403C15.2964 4.03736 15.1364 3.98403 14.9124 3.98403C14.8697 3.98403 14.827 3.98403 14.7844 3.98403C14.7524 3.98403 14.715 3.98936 14.6724 4.00003C14.491 4.03203 14.2937 4.14403 14.0804 4.33603C13.867 4.52803 13.659 4.75736 13.4564 5.02403C13.2644 5.28003 13.1044 5.53603 12.9764 5.79203C12.8484 6.04803 12.779 6.26136 12.7684 6.43203C12.7577 6.60269 12.7524 6.77336 12.7524 6.94403C12.7524 7.10403 12.7524 7.26403 12.7524 7.42403C12.7524 8.00003 12.7524 8.57603 12.7524 9.15203C12.763 9.72803 12.7684 10.2987 12.7684 10.864C12.7684 11.024 12.8324 11.1414 12.9604 11.216C13.099 11.28 13.2377 11.312 13.3764 11.312C13.483 11.312 13.5897 11.3067 13.6964 11.296C13.803 11.2854 13.9097 11.28 14.0164 11.28C14.0697 11.28 14.107 11.3067 14.1284 11.36C14.1497 11.4027 14.1604 11.4454 14.1604 11.488C14.1604 11.6587 14.075 11.744 13.9044 11.744C13.5844 11.744 13.2644 11.7387 12.9444 11.728C12.6244 11.7067 12.3044 11.696 11.9844 11.696C11.6537 11.696 11.3177 11.7067 10.9764 11.728C10.6457 11.7494 10.3097 11.76 9.96838 11.76C9.92571 11.76 9.89371 11.728 9.87238 11.664C9.86171 11.6 9.85638 11.5467 9.85638 11.504C9.85638 11.3974 9.89904 11.3387 9.98438 11.328C10.1017 11.3067 10.2244 11.3014 10.3524 11.312C10.4804 11.3227 10.5977 11.328 10.7044 11.328C10.8644 11.328 10.9924 11.296 11.0884 11.232C11.195 11.1574 11.2537 11.0347 11.2644 10.864C11.2857 10.5227 11.2964 10.176 11.2964 9.82403C11.307 9.47203 11.3124 9.12003 11.3124 8.76803V7.21603C11.3017 6.75736 11.2964 6.30403 11.2964 5.85603C11.307 5.39736 11.291 4.94403 11.2484 4.49603C11.2377 4.28269 11.179 4.13336 11.0724 4.04803C10.9657 3.95203 10.8057 3.90403 10.5924 3.90403C10.507 3.90403 10.4164 3.91469 10.3204 3.93603C10.235 3.94669 10.1444 3.95203 10.0484 3.95203C9.96304 3.95203 9.92038 3.88803 9.92038 3.76003C9.92038 3.68536 9.95771 3.63203 10.0324 3.60003C10.139 3.56803 10.251 3.54669 10.3684 3.53603C10.4857 3.51469 10.5977 3.49869 10.7044 3.48803C10.9924 3.43469 11.2804 3.38136 11.5684 3.32803C11.8564 3.27469 12.1444 3.21069 12.4324 3.13603C12.5284 3.16803 12.5977 3.22669 12.6404 3.31203C12.6617 3.35469 12.6777 3.47203 12.6884 3.66403C12.699 3.85603 12.7044 4.08003 12.7044 4.33603C12.7044 4.58136 12.7044 4.81603 12.7044 5.04003C12.7044 5.25336 12.7044 5.40269 12.7044 5.48803C12.939 5.11469 13.2057 4.74136 13.5044 4.36803C13.803 3.99469 14.1444 3.68536 14.5284 3.44003C14.9124 3.19469 15.3444 3.07203 15.8244 3.07203C16.0804 3.07203 16.2457 3.15203 16.3204 3.31203C16.395 3.47203 16.443 3.65869 16.4644 3.87203C16.4857 3.98936 16.5017 4.11203 16.5124 4.24003C16.5337 4.36803 16.5444 4.49069 16.5444 4.60803ZM23.2218 6.11203C23.2111 5.67469 23.1738 5.25869 23.1098 4.86403C23.0458 4.45869 22.8911 4.12803 22.6458 3.87203C22.4004 3.60536 22.0004 3.47203 21.4458 3.47203C20.9444 3.47203 20.5338 3.61069 20.2138 3.88803C19.9044 4.15469 19.6644 4.49603 19.4938 4.91203C19.3231 5.31736 19.1951 5.73336 19.1098 6.16003C19.3764 6.17069 19.6378 6.18136 19.8938 6.19203C20.1498 6.19203 20.4058 6.19203 20.6618 6.19203C21.0884 6.19203 21.5151 6.18669 21.9418 6.17603C22.3684 6.15469 22.7951 6.13336 23.2218 6.11203ZM25.0618 9.77603C25.0618 9.82936 25.0511 9.86136 25.0298 9.87203C24.9978 9.97869 24.9178 10.1067 24.7898 10.256C24.6724 10.4054 24.5391 10.5494 24.3898 10.688C24.2404 10.816 24.1178 10.912 24.0218 10.976C23.6698 11.2214 23.2698 11.4187 22.8218 11.568C22.3844 11.7174 21.9471 11.792 21.5098 11.792C21.1471 11.792 20.7418 11.7334 20.2938 11.616C19.8564 11.4987 19.4831 11.3387 19.1738 11.136C18.5764 10.7414 18.1391 10.224 17.8618 9.58403C17.5844 8.94403 17.4458 8.27736 17.4458 7.58403C17.4458 6.79469 17.6004 6.06403 17.9098 5.39203C18.2191 4.72003 18.7151 4.17603 19.3978 3.76003C19.7071 3.57869 20.0538 3.42936 20.4378 3.31203C20.8218 3.18403 21.1898 3.12003 21.5418 3.12003C22.1711 3.12003 22.7258 3.24803 23.2058 3.50403C23.6858 3.76003 24.0591 4.12269 24.3258 4.59203C24.6031 5.05069 24.7418 5.60003 24.7418 6.24003C24.7418 6.42136 24.6991 6.53869 24.6138 6.59203C24.5391 6.64536 24.4218 6.67203 24.2618 6.67203C24.0484 6.67203 23.8351 6.66669 23.6218 6.65603C23.4084 6.64536 23.1951 6.63469 22.9818 6.62403C22.6831 6.60269 22.3844 6.59203 22.0858 6.59203C21.7978 6.59203 21.5044 6.59203 21.2058 6.59203C20.8431 6.59203 20.4804 6.59203 20.1178 6.59203C19.7551 6.59203 19.3924 6.60269 19.0298 6.62403C19.0191 6.79469 19.0084 6.96003 18.9978 7.12003C18.9871 7.28003 18.9818 7.44536 18.9818 7.61603C18.9818 8.01069 19.0298 8.42136 19.1258 8.84803C19.2218 9.26403 19.3764 9.65336 19.5898 10.016C19.8031 10.368 20.0751 10.656 20.4058 10.88C20.7364 11.0934 21.1364 11.2 21.6058 11.2C22.0858 11.2 22.5444 11.1254 22.9818 10.976C23.4191 10.8267 23.8191 10.5867 24.1818 10.256C24.2778 10.16 24.3631 10.0587 24.4378 9.95203C24.5231 9.83469 24.6138 9.73336 24.7098 9.64803C24.7631 9.59469 24.8218 9.56803 24.8858 9.56803C24.9391 9.56803 24.9818 9.58936 25.0138 9.63203C25.0458 9.67469 25.0618 9.72269 25.0618 9.77603ZM33.7485 9.77603C33.7485 9.81869 33.7378 9.85603 33.7165 9.88803C33.4818 10.24 33.1725 10.5547 32.7885 10.832C32.4045 11.1094 31.9885 11.3334 31.5405 11.504C31.1032 11.664 30.6765 11.744 30.2605 11.744C30.1858 11.744 30.1165 11.7387 30.0525 11.728C29.9885 11.728 29.9245 11.728 29.8605 11.728C29.7538 11.8987 29.6418 12.0587 29.5245 12.208C29.4178 12.3574 29.3112 12.512 29.2045 12.672C29.3752 12.6507 29.5405 12.6347 29.7005 12.624C29.8712 12.6134 30.0418 12.608 30.2125 12.608C30.4152 12.608 30.6338 12.624 30.8685 12.656C31.1138 12.6987 31.3218 12.7787 31.4925 12.896C31.6738 13.024 31.7645 13.216 31.7645 13.472C31.7645 13.7494 31.6845 13.968 31.5245 14.128C31.3752 14.288 31.1832 14.4054 30.9485 14.48C30.7138 14.5654 30.4685 14.6187 30.2125 14.64C29.9565 14.6614 29.7272 14.672 29.5245 14.672C29.3218 14.672 29.0978 14.6347 28.8525 14.56C28.6178 14.496 28.4045 14.416 28.2125 14.32C28.1485 14.288 28.0365 14.224 27.8765 14.128C27.7272 14.032 27.6525 13.9467 27.6525 13.872C27.6525 13.7867 27.6898 13.744 27.7645 13.744C27.7965 13.744 27.8712 13.7654 27.9885 13.808C28.1058 13.8614 28.1858 13.8987 28.2285 13.92C28.4312 13.984 28.6392 14.0267 28.8525 14.048C29.0765 14.08 29.2898 14.096 29.4925 14.096C29.6098 14.096 29.7752 14.0747 29.9885 14.032C30.2018 14 30.3938 13.9414 30.5645 13.856C30.7458 13.7707 30.8365 13.648 30.8365 13.488C30.8365 13.3494 30.7725 13.2427 30.6445 13.168C30.5272 13.0934 30.3938 13.0347 30.2445 12.992C30.0952 12.96 29.9672 12.944 29.8605 12.944C29.6365 12.944 29.4178 12.9707 29.2045 13.024C29.0018 13.0774 28.7938 13.1414 28.5805 13.216C28.6978 12.9387 28.8205 12.672 28.9485 12.416C29.0872 12.16 29.2152 11.8987 29.3325 11.632C28.6712 11.4934 28.1058 11.232 27.6365 10.848C27.1672 10.464 26.8098 9.98936 26.5645 9.42403C26.3192 8.85869 26.1965 8.24536 26.1965 7.58403C26.1965 6.79469 26.3565 6.05336 26.6765 5.36003C26.9965 4.66669 27.4978 4.10669 28.1805 3.68003C28.4792 3.49869 28.8098 3.35469 29.1725 3.24803C29.5352 3.14136 29.8872 3.08803 30.2285 3.08803C30.6338 3.08803 31.0338 3.17336 31.4285 3.34403C31.6098 3.41869 31.8018 3.50403 32.0045 3.60003C32.2072 3.68536 32.4045 3.72803 32.5965 3.72803C32.6818 3.72803 32.7618 3.71736 32.8365 3.69603C32.9112 3.67469 32.9858 3.65869 33.0605 3.64803C33.0818 3.97869 33.1032 4.31469 33.1245 4.65603C33.1458 4.99736 33.1618 5.33869 33.1725 5.68003V5.72803C33.1725 5.85603 33.1565 5.94669 33.1245 6.00003C33.1032 6.04269 33.0178 6.06403 32.8685 6.06403C32.7938 6.06403 32.7458 6.02669 32.7245 5.95203C32.7032 5.87736 32.6818 5.80803 32.6605 5.74403C32.5858 5.43469 32.4685 5.11469 32.3085 4.78403C32.1592 4.44269 31.9618 4.16536 31.7165 3.95203C31.5565 3.80269 31.3592 3.68003 31.1245 3.58403C30.8898 3.48803 30.6658 3.44003 30.4525 3.44003C29.9405 3.44003 29.5085 3.57336 29.1565 3.84003C28.8045 4.09603 28.5165 4.43203 28.2925 4.84803C28.0792 5.25336 27.9245 5.69069 27.8285 6.16003C27.7325 6.62936 27.6845 7.07203 27.6845 7.48803C27.6845 7.90403 27.7325 8.32536 27.8285 8.75203C27.9245 9.17869 28.0738 9.57869 28.2765 9.95203C28.4898 10.3147 28.7672 10.608 29.1085 10.832C29.4498 11.056 29.8658 11.168 30.3565 11.168C30.9965 11.168 31.5352 11.0614 31.9725 10.848C32.4205 10.624 32.8525 10.2774 33.2685 9.80803C33.3005 9.78669 33.3218 9.75469 33.3325 9.71203C33.3538 9.66936 33.3858 9.63736 33.4285 9.61603C33.4498 9.59469 33.4925 9.58403 33.5565 9.58403C33.6845 9.58403 33.7485 9.64803 33.7485 9.77603ZM41.5891 7.50403C41.5891 7.04536 41.5518 6.58669 41.4771 6.12803C41.4131 5.65869 41.2851 5.22669 41.0931 4.83203C40.9118 4.43736 40.6451 4.12269 40.2931 3.88803C39.9411 3.64269 39.4825 3.52003 38.9171 3.52003C38.3838 3.52003 37.9465 3.64803 37.6051 3.90403C37.2745 4.16003 37.0131 4.49069 36.8211 4.89603C36.6398 5.30136 36.5118 5.73869 36.4371 6.20803C36.3731 6.67736 36.3411 7.12003 36.3411 7.53603C36.3411 7.99469 36.3731 8.45336 36.4371 8.91203C36.5118 9.37069 36.6451 9.78669 36.8371 10.16C37.0291 10.5227 37.3011 10.816 37.6531 11.04C38.0158 11.264 38.4798 11.376 39.0451 11.376C39.5998 11.376 40.0425 11.2587 40.3731 11.024C40.7145 10.7894 40.9705 10.48 41.1411 10.096C41.3225 9.71203 41.4398 9.29603 41.4931 8.84803C41.5571 8.38936 41.5891 7.94136 41.5891 7.50403ZM43.2371 7.55203C43.2371 8.35203 43.0451 9.07203 42.6611 9.71203C42.2878 10.352 41.7758 10.8587 41.1251 11.232C40.4851 11.6054 39.7651 11.792 38.9651 11.792C38.1865 11.792 37.4825 11.6054 36.8531 11.232C36.2238 10.848 35.7225 10.3414 35.3491 9.71203C34.9758 9.07203 34.7891 8.36269 34.7891 7.58403C34.7891 6.78403 34.9705 6.04803 35.3331 5.37603C35.6958 4.69336 36.1918 4.14403 36.8211 3.72803C37.4611 3.31203 38.1971 3.10403 39.0291 3.10403C39.9251 3.10403 40.6878 3.29603 41.3171 3.68003C41.9465 4.05336 42.4211 4.57603 42.7411 5.24803C43.0718 5.90936 43.2371 6.67736 43.2371 7.55203ZM48.199 10.528C48.199 10.8267 48.087 11.0774 47.863 11.28C47.639 11.472 47.383 11.568 47.095 11.568C46.807 11.568 46.551 11.472 46.327 11.28C46.103 11.0774 45.991 10.8267 45.991 10.528C45.991 10.2187 46.0977 9.96803 46.311 9.77603C46.535 9.57336 46.7963 9.47203 47.095 9.47203C47.3937 9.47203 47.6497 9.57336 47.863 9.77603C48.087 9.96803 48.199 10.2187 48.199 10.528ZM48.199 4.80003C48.199 5.09869 48.087 5.34936 47.863 5.55203C47.6497 5.75469 47.3937 5.85603 47.095 5.85603C46.7963 5.85603 46.535 5.75469 46.311 5.55203C46.0977 5.34936 45.991 5.09869 45.991 4.80003C45.991 4.50136 46.103 4.25603 46.327 4.06403C46.551 3.86136 46.807 3.76003 47.095 3.76003C47.383 3.76003 47.639 3.86136 47.863 4.06403C48.087 4.25603 48.199 4.50136 48.199 4.80003ZM58.1294 10.56C58.1294 10.8587 58.0174 11.1094 57.7934 11.312C57.5694 11.5147 57.308 11.616 57.0094 11.616C56.7107 11.616 56.4494 11.5147 56.2254 11.312C56.0014 11.1094 55.8894 10.8587 55.8894 10.56C55.8894 10.2507 56.0014 9.99469 56.2254 9.79203C56.4494 9.58936 56.7107 9.48803 57.0094 9.48803C57.308 9.48803 57.5694 9.58936 57.7934 9.79203C58.0174 9.99469 58.1294 10.2507 58.1294 10.56ZM63.7231 10.56C63.7231 10.8587 63.6111 11.1094 63.3871 11.312C63.1631 11.5147 62.9018 11.616 62.6031 11.616C62.3045 11.616 62.0431 11.5147 61.8191 11.312C61.5951 11.1094 61.4831 10.8587 61.4831 10.56C61.4831 10.2507 61.5951 9.99469 61.8191 9.79203C62.0431 9.58936 62.3045 9.48803 62.6031 9.48803C62.9018 9.48803 63.1631 9.58936 63.3871 9.79203C63.6111 9.99469 63.7231 10.2507 63.7231 10.56ZM69.3169 10.56C69.3169 10.8587 69.2049 11.1094 68.9809 11.312C68.7569 11.5147 68.4955 11.616 68.1969 11.616C67.8982 11.616 67.6369 11.5147 67.4129 11.312C67.1889 11.1094 67.0769 10.8587 67.0769 10.56C67.0769 10.2507 67.1889 9.99469 67.4129 9.79203C67.6369 9.58936 67.8982 9.48803 68.1969 9.48803C68.4955 9.48803 68.7569 9.58936 68.9809 9.79203C69.2049 9.99469 69.3169 10.2507 69.3169 10.56Z" fill="#919191"/>
</svg>
