<svg width="107" height="11" viewBox="0 0 107 11" fill="none" xmlns="http://www.w3.org/2000/svg">
<path d="M4.42796 5.28008C4.42796 5.00808 4.37196 4.75208 4.25996 4.51208C4.14796 4.27208 3.98796 4.07608 3.77996 3.92408C3.57196 3.77208 3.31996 3.69608 3.02396 3.69608C2.63996 3.69608 2.32396 3.78808 2.07596 3.97208C1.83596 4.15608 1.64396 4.39608 1.49996 4.69208C1.36396 4.98008 1.26796 5.29208 1.21196 5.62808C1.16396 5.96408 1.13996 6.28408 1.13996 6.58808C1.13996 6.86008 1.16396 7.15208 1.21196 7.46408C1.25996 7.77608 1.34396 8.06808 1.46396 8.34008C1.59196 8.61208 1.76796 8.83608 1.99196 9.01208C2.21596 9.18008 2.49996 9.26408 2.84396 9.26408C3.13196 9.26408 3.39596 9.17608 3.63596 9.00008C3.87596 8.81608 4.06796 8.58808 4.21196 8.31608C4.35596 8.04408 4.42796 7.77608 4.42796 7.51208V5.28008ZM6.65996 9.20408C6.65996 9.24408 6.63996 9.28408 6.59996 9.32408C6.55996 9.36408 6.52396 9.39608 6.49196 9.42008C6.38796 9.50008 6.23596 9.56808 6.03596 9.62408C5.84396 9.68008 5.67996 9.70808 5.54396 9.70808C5.33596 9.70808 5.16396 9.64808 5.02796 9.52808C4.89196 9.40808 4.77996 9.26008 4.69196 9.08408C4.61196 8.90808 4.53996 8.73608 4.47596 8.56808C4.29996 8.84808 4.05996 9.10008 3.75596 9.32408C3.45196 9.54008 3.12796 9.64808 2.78396 9.64808C2.55196 9.64808 2.31196 9.63208 2.06396 9.60008C1.82396 9.56008 1.59996 9.47608 1.39196 9.34808C0.935961 9.06008 0.587961 8.67208 0.347961 8.18408C0.115961 7.68808 -3.9041e-05 7.18008 -3.9041e-05 6.66008C-3.9041e-05 6.03608 0.111961 5.47608 0.335961 4.98008C0.559961 4.47608 0.891961 4.08008 1.33196 3.79208C1.77996 3.49608 2.33196 3.34808 2.98796 3.34808C3.13196 3.34808 3.29196 3.37608 3.46796 3.43208C3.64396 3.48808 3.81596 3.56008 3.98396 3.64808C4.15996 3.72808 4.29996 3.81208 4.40396 3.90008V1.57208C4.40396 1.31608 4.33596 1.17208 4.19996 1.14008C4.07196 1.10008 3.89996 1.08008 3.68396 1.08008C3.61196 1.08008 3.53996 1.08408 3.46796 1.09208C3.39596 1.09208 3.32396 1.09208 3.25196 1.09208C3.21996 1.09208 3.18796 1.08008 3.15596 1.05608C3.13196 1.03208 3.11996 1.00408 3.11996 0.972082C3.11996 0.916082 3.13996 0.880082 3.17996 0.864082C3.19596 0.848082 3.21196 0.840081 3.22796 0.840081C3.25196 0.840081 3.27596 0.836082 3.29996 0.828082C3.46796 0.796082 3.63596 0.772082 3.80396 0.756082C3.97996 0.732082 4.15596 0.704082 4.33196 0.672081C4.50796 0.640081 4.67996 0.608081 4.84796 0.576081C5.01596 0.536081 5.18396 0.492081 5.35196 0.444082C5.35996 0.444082 5.37196 0.440082 5.38796 0.432082C5.41196 0.424082 5.42796 0.420082 5.43596 0.420082C5.47596 0.420082 5.49996 0.436082 5.50796 0.468082C5.51596 0.500082 5.51996 0.532081 5.51996 0.564081C5.51996 1.55608 5.51596 2.54408 5.50796 3.52808C5.49996 4.51208 5.49596 5.50008 5.49596 6.49208V8.28008C5.49596 8.41608 5.51196 8.55608 5.54396 8.70008C5.57596 8.84408 5.63596 8.96408 5.72396 9.06008C5.81996 9.15608 5.95196 9.20408 6.11996 9.20408C6.19996 9.20408 6.27596 9.18808 6.34796 9.15608C6.41996 9.12408 6.49596 9.10808 6.57596 9.10808C6.63196 9.10808 6.65996 9.14008 6.65996 9.20408ZM11.7053 5.28008C11.7053 5.00808 11.6493 4.75208 11.5373 4.51208C11.4253 4.27208 11.2653 4.07608 11.0573 3.92408C10.8493 3.77208 10.5973 3.69608 10.3013 3.69608C9.9173 3.69608 9.6013 3.78808 9.3533 3.97208C9.1133 4.15608 8.9213 4.39608 8.7773 4.69208C8.6413 4.98008 8.5453 5.29208 8.4893 5.62808C8.4413 5.96408 8.4173 6.28408 8.4173 6.58808C8.4173 6.86008 8.4413 7.15208 8.4893 7.46408C8.5373 7.77608 8.6213 8.06808 8.7413 8.34008C8.8693 8.61208 9.0453 8.83608 9.2693 9.01208C9.4933 9.18008 9.7773 9.26408 10.1213 9.26408C10.4093 9.26408 10.6733 9.17608 10.9133 9.00008C11.1533 8.81608 11.3453 8.58808 11.4893 8.31608C11.6333 8.04408 11.7053 7.77608 11.7053 7.51208V5.28008ZM13.9373 9.20408C13.9373 9.24408 13.9173 9.28408 13.8773 9.32408C13.8373 9.36408 13.8013 9.39608 13.7693 9.42008C13.6653 9.50008 13.5133 9.56808 13.3133 9.62408C13.1213 9.68008 12.9573 9.70808 12.8213 9.70808C12.6133 9.70808 12.4413 9.64808 12.3053 9.52808C12.1693 9.40808 12.0573 9.26008 11.9693 9.08408C11.8893 8.90808 11.8173 8.73608 11.7533 8.56808C11.5773 8.84808 11.3373 9.10008 11.0333 9.32408C10.7293 9.54008 10.4053 9.64808 10.0613 9.64808C9.8293 9.64808 9.5893 9.63208 9.3413 9.60008C9.1013 9.56008 8.8773 9.47608 8.6693 9.34808C8.2133 9.06008 7.8653 8.67208 7.6253 8.18408C7.3933 7.68808 7.2773 7.18008 7.2773 6.66008C7.2773 6.03608 7.3893 5.47608 7.6133 4.98008C7.8373 4.47608 8.1693 4.08008 8.6093 3.79208C9.0573 3.49608 9.6093 3.34808 10.2653 3.34808C10.4093 3.34808 10.5693 3.37608 10.7453 3.43208C10.9213 3.48808 11.0933 3.56008 11.2613 3.64808C11.4373 3.72808 11.5773 3.81208 11.6813 3.90008V1.57208C11.6813 1.31608 11.6133 1.17208 11.4773 1.14008C11.3493 1.10008 11.1773 1.08008 10.9613 1.08008C10.8893 1.08008 10.8173 1.08408 10.7453 1.09208C10.6733 1.09208 10.6013 1.09208 10.5293 1.09208C10.4973 1.09208 10.4653 1.08008 10.4333 1.05608C10.4093 1.03208 10.3973 1.00408 10.3973 0.972082C10.3973 0.916082 10.4173 0.880082 10.4573 0.864082C10.4733 0.848082 10.4893 0.840081 10.5053 0.840081C10.5293 0.840081 10.5533 0.836082 10.5773 0.828082C10.7453 0.796082 10.9133 0.772082 11.0813 0.756082C11.2573 0.732082 11.4333 0.704082 11.6093 0.672081C11.7853 0.640081 11.9573 0.608081 12.1253 0.576081C12.2933 0.536081 12.4613 0.492081 12.6293 0.444082C12.6373 0.444082 12.6493 0.440082 12.6653 0.432082C12.6893 0.424082 12.7053 0.420082 12.7133 0.420082C12.7533 0.420082 12.7773 0.436082 12.7853 0.468082C12.7933 0.500082 12.7973 0.532081 12.7973 0.564081C12.7973 1.55608 12.7933 2.54408 12.7853 3.52808C12.7773 4.51208 12.7733 5.50008 12.7733 6.49208V8.28008C12.7733 8.41608 12.7893 8.55608 12.8213 8.70008C12.8533 8.84408 12.9133 8.96408 13.0013 9.06008C13.0973 9.15608 13.2293 9.20408 13.3973 9.20408C13.4773 9.20408 13.5533 9.18808 13.6253 9.15608C13.6973 9.12408 13.7733 9.10808 13.8533 9.10808C13.9093 9.10808 13.9373 9.14008 13.9373 9.20408ZM31.3906 0.216082L27.0826 10.4881L26.6386 10.2721L30.9346 8.15392e-05L31.3906 0.216082ZM54.9466 9.52808C54.9466 9.64008 54.9026 9.69608 54.8146 9.69608C54.5906 9.69608 54.3626 9.68808 54.1306 9.67208C53.8986 9.65608 53.6666 9.64808 53.4346 9.64808C53.2026 9.64808 52.9666 9.65608 52.7266 9.67208C52.4946 9.68808 52.2626 9.69608 52.0306 9.69608C51.9986 9.69608 51.9746 9.67608 51.9586 9.63608C51.9506 9.59608 51.9466 9.56408 51.9466 9.54008C51.9466 9.46808 51.9826 9.42408 52.0546 9.40808C52.1346 9.39208 52.2186 9.38808 52.3066 9.39608C52.4026 9.40408 52.4746 9.40808 52.5226 9.40808C52.6346 9.40808 52.7266 9.38008 52.7986 9.32408C52.8706 9.26808 52.9066 9.18408 52.9066 9.07208C52.9066 8.53608 52.9106 8.00408 52.9186 7.47608C52.9346 6.94808 52.9426 6.42008 52.9426 5.89208C52.9426 5.80408 52.9426 5.71608 52.9426 5.62808C52.9426 5.54008 52.9386 5.45208 52.9306 5.36408C52.9226 5.17208 52.9106 4.97608 52.8946 4.77608C52.8866 4.56808 52.8546 4.37608 52.7986 4.20008C52.7426 4.01608 52.6466 3.86808 52.5106 3.75608C52.3746 3.64408 52.1786 3.58808 51.9226 3.58808C51.7386 3.58808 51.5346 3.64408 51.3106 3.75608C51.0946 3.86008 50.8866 3.98408 50.6866 4.12808C50.4866 4.27208 50.3186 4.40808 50.1826 4.53608C50.1986 4.64808 50.2066 4.76408 50.2066 4.88408C50.2066 4.99608 50.2066 5.10808 50.2066 5.22008C50.2066 5.45208 50.2066 5.68808 50.2066 5.92808C50.2146 6.16008 50.2186 6.39208 50.2186 6.62408C50.2186 7.03208 50.2146 7.44008 50.2066 7.84808C50.2066 8.25608 50.2066 8.66408 50.2066 9.07208C50.2066 9.19208 50.2586 9.27608 50.3626 9.32408C50.4666 9.37208 50.5706 9.39608 50.6746 9.39608C50.7386 9.39608 50.8026 9.39208 50.8666 9.38408C50.9386 9.37608 51.0026 9.37208 51.0586 9.37208C51.0986 9.37208 51.1226 9.39208 51.1306 9.43208C51.1466 9.47208 51.1546 9.50408 51.1546 9.52808C51.1546 9.56808 51.1426 9.60808 51.1186 9.64808C51.0946 9.68008 51.0586 9.69608 51.0106 9.69608C50.7866 9.69608 50.5586 9.68808 50.3266 9.67208C50.1026 9.65608 49.8746 9.64808 49.6426 9.64808C49.4186 9.64808 49.1906 9.65608 48.9586 9.67208C48.7266 9.68808 48.4946 9.69608 48.2626 9.69608C48.2306 9.69608 48.2066 9.67608 48.1906 9.63608C48.1746 9.59608 48.1666 9.56408 48.1666 9.54008C48.1666 9.47608 48.1986 9.43208 48.2626 9.40808C48.3266 9.39208 48.4026 9.38808 48.4906 9.39608C48.5866 9.40408 48.6666 9.40808 48.7306 9.40808C48.8426 9.40808 48.9346 9.38408 49.0066 9.33608C49.0866 9.28008 49.1266 9.19208 49.1266 9.07208V6.01208C49.1266 5.84408 49.1226 5.63608 49.1146 5.38808C49.1146 5.14008 49.0986 4.89608 49.0666 4.65608C49.0426 4.40808 48.9986 4.21208 48.9346 4.06808C48.8786 3.92408 48.7826 3.81208 48.6466 3.73208C48.5186 3.65208 48.3746 3.61208 48.2146 3.61208C48.0066 3.61208 47.7946 3.66408 47.5786 3.76808C47.3626 3.87208 47.1586 4.00008 46.9666 4.15208C46.7746 4.30408 46.6106 4.45608 46.4746 4.60808V9.06008C46.4746 9.18008 46.5186 9.26808 46.6066 9.32408C46.6946 9.37208 46.7906 9.39608 46.8946 9.39608C46.9586 9.39608 47.0226 9.39208 47.0866 9.38408C47.1506 9.36808 47.2106 9.36008 47.2666 9.36008C47.2986 9.36008 47.3186 9.38408 47.3266 9.43208C47.3346 9.47208 47.3386 9.50008 47.3386 9.51608C47.3386 9.55608 47.3266 9.59608 47.3026 9.63608C47.2866 9.66808 47.2546 9.68408 47.2066 9.68408C47.0546 9.68408 46.9026 9.68008 46.7506 9.67208C46.5986 9.65608 46.4466 9.64808 46.2946 9.64808C45.9906 9.64808 45.6866 9.65608 45.3826 9.67208C45.0786 9.68008 44.7746 9.68408 44.4706 9.68408C44.4386 9.68408 44.4146 9.66408 44.3986 9.62408C44.3826 9.58408 44.3746 9.55208 44.3746 9.52808C44.3746 9.43208 44.4146 9.38408 44.4946 9.38408C44.5826 9.38408 44.6666 9.38808 44.7466 9.39608C44.8266 9.39608 44.9066 9.39608 44.9866 9.39608C45.0986 9.39608 45.1946 9.37208 45.2746 9.32408C45.3546 9.26808 45.3946 9.18008 45.3946 9.06008C45.3946 8.25208 45.3906 7.44408 45.3826 6.63608C45.3826 5.82008 45.3826 5.00808 45.3826 4.20008C45.3826 4.11208 45.3746 4.02408 45.3586 3.93608C45.3426 3.84808 45.2906 3.78808 45.2026 3.75608C45.1466 3.73208 45.0866 3.72008 45.0226 3.72008C44.9186 3.72008 44.8146 3.73608 44.7106 3.76808C44.6066 3.79208 44.4986 3.80408 44.3866 3.80408C44.3146 3.80408 44.2786 3.75608 44.2786 3.66008C44.2786 3.59608 44.3026 3.55608 44.3506 3.54008C44.3906 3.52408 44.4346 3.51608 44.4826 3.51608C44.5386 3.50808 44.5906 3.50008 44.6386 3.49208C44.8226 3.46808 45.0066 3.44008 45.1906 3.40808C45.3826 3.36808 45.5666 3.32808 45.7426 3.28808C45.8066 3.27208 45.8746 3.25608 45.9466 3.24008C46.0186 3.22408 46.0906 3.21608 46.1626 3.21608C46.2586 3.21608 46.3226 3.28808 46.3546 3.43208C46.3946 3.56808 46.4146 3.71608 46.4146 3.87608C46.4226 4.03608 46.4266 4.15208 46.4266 4.22408C46.5946 4.08008 46.7826 3.93208 46.9906 3.78008C47.1986 3.62008 47.4186 3.48408 47.6506 3.37208C47.8826 3.26008 48.1146 3.20408 48.3466 3.20408C48.7546 3.20408 49.0986 3.27208 49.3786 3.40808C49.6586 3.54408 49.8986 3.80008 50.0986 4.17608C50.2746 4.02408 50.4746 3.87208 50.6986 3.72008C50.9226 3.56008 51.1546 3.42808 51.3946 3.32408C51.6426 3.21208 51.8866 3.15608 52.1266 3.15608C52.6546 3.15608 53.0546 3.23208 53.3266 3.38408C53.6066 3.53608 53.7946 3.77208 53.8906 4.09208C53.9946 4.40408 54.0466 4.80808 54.0466 5.30408C54.0466 5.92808 54.0426 6.55608 54.0346 7.18808C54.0266 7.81208 54.0226 8.44008 54.0226 9.07208C54.0226 9.19208 54.0746 9.27608 54.1786 9.32408C54.2906 9.37208 54.3986 9.39608 54.5026 9.39608C54.5666 9.39608 54.6266 9.39208 54.6826 9.38408C54.7466 9.37608 54.8066 9.37208 54.8626 9.37208C54.8946 9.37208 54.9146 9.39208 54.9226 9.43208C54.9386 9.47208 54.9466 9.50408 54.9466 9.52808ZM65.9857 9.52808C65.9857 9.64008 65.9417 9.69608 65.8537 9.69608C65.6297 9.69608 65.4017 9.68808 65.1697 9.67208C64.9377 9.65608 64.7057 9.64808 64.4737 9.64808C64.2417 9.64808 64.0057 9.65608 63.7657 9.67208C63.5337 9.68808 63.3017 9.69608 63.0697 9.69608C63.0377 9.69608 63.0137 9.67608 62.9977 9.63608C62.9897 9.59608 62.9857 9.56408 62.9857 9.54008C62.9857 9.46808 63.0217 9.42408 63.0937 9.40808C63.1737 9.39208 63.2577 9.38808 63.3457 9.39608C63.4417 9.40408 63.5137 9.40808 63.5617 9.40808C63.6737 9.40808 63.7657 9.38008 63.8377 9.32408C63.9097 9.26808 63.9457 9.18408 63.9457 9.07208C63.9457 8.53608 63.9497 8.00408 63.9577 7.47608C63.9737 6.94808 63.9817 6.42008 63.9817 5.89208C63.9817 5.80408 63.9817 5.71608 63.9817 5.62808C63.9817 5.54008 63.9777 5.45208 63.9697 5.36408C63.9617 5.17208 63.9497 4.97608 63.9337 4.77608C63.9257 4.56808 63.8937 4.37608 63.8377 4.20008C63.7817 4.01608 63.6857 3.86808 63.5497 3.75608C63.4137 3.64408 63.2177 3.58808 62.9617 3.58808C62.7777 3.58808 62.5737 3.64408 62.3497 3.75608C62.1337 3.86008 61.9257 3.98408 61.7257 4.12808C61.5257 4.27208 61.3577 4.40808 61.2217 4.53608C61.2377 4.64808 61.2457 4.76408 61.2457 4.88408C61.2457 4.99608 61.2457 5.10808 61.2457 5.22008C61.2457 5.45208 61.2457 5.68808 61.2457 5.92808C61.2537 6.16008 61.2577 6.39208 61.2577 6.62408C61.2577 7.03208 61.2537 7.44008 61.2457 7.84808C61.2457 8.25608 61.2457 8.66408 61.2457 9.07208C61.2457 9.19208 61.2977 9.27608 61.4017 9.32408C61.5057 9.37208 61.6097 9.39608 61.7137 9.39608C61.7777 9.39608 61.8417 9.39208 61.9057 9.38408C61.9777 9.37608 62.0417 9.37208 62.0977 9.37208C62.1377 9.37208 62.1617 9.39208 62.1697 9.43208C62.1857 9.47208 62.1937 9.50408 62.1937 9.52808C62.1937 9.56808 62.1817 9.60808 62.1577 9.64808C62.1337 9.68008 62.0977 9.69608 62.0497 9.69608C61.8257 9.69608 61.5977 9.68808 61.3657 9.67208C61.1417 9.65608 60.9137 9.64808 60.6817 9.64808C60.4577 9.64808 60.2297 9.65608 59.9977 9.67208C59.7657 9.68808 59.5337 9.69608 59.3017 9.69608C59.2697 9.69608 59.2457 9.67608 59.2297 9.63608C59.2137 9.59608 59.2057 9.56408 59.2057 9.54008C59.2057 9.47608 59.2377 9.43208 59.3017 9.40808C59.3657 9.39208 59.4417 9.38808 59.5297 9.39608C59.6257 9.40408 59.7057 9.40808 59.7697 9.40808C59.8817 9.40808 59.9737 9.38408 60.0457 9.33608C60.1257 9.28008 60.1657 9.19208 60.1657 9.07208V6.01208C60.1657 5.84408 60.1617 5.63608 60.1537 5.38808C60.1537 5.14008 60.1377 4.89608 60.1057 4.65608C60.0817 4.40808 60.0377 4.21208 59.9737 4.06808C59.9177 3.92408 59.8217 3.81208 59.6857 3.73208C59.5577 3.65208 59.4137 3.61208 59.2537 3.61208C59.0457 3.61208 58.8337 3.66408 58.6177 3.76808C58.4017 3.87208 58.1977 4.00008 58.0057 4.15208C57.8137 4.30408 57.6497 4.45608 57.5137 4.60808V9.06008C57.5137 9.18008 57.5577 9.26808 57.6457 9.32408C57.7337 9.37208 57.8297 9.39608 57.9337 9.39608C57.9977 9.39608 58.0617 9.39208 58.1257 9.38408C58.1897 9.36808 58.2497 9.36008 58.3057 9.36008C58.3377 9.36008 58.3577 9.38408 58.3657 9.43208C58.3737 9.47208 58.3777 9.50008 58.3777 9.51608C58.3777 9.55608 58.3657 9.59608 58.3417 9.63608C58.3257 9.66808 58.2937 9.68408 58.2457 9.68408C58.0937 9.68408 57.9417 9.68008 57.7897 9.67208C57.6377 9.65608 57.4857 9.64808 57.3337 9.64808C57.0297 9.64808 56.7257 9.65608 56.4217 9.67208C56.1177 9.68008 55.8137 9.68408 55.5097 9.68408C55.4777 9.68408 55.4537 9.66408 55.4377 9.62408C55.4217 9.58408 55.4137 9.55208 55.4137 9.52808C55.4137 9.43208 55.4537 9.38408 55.5337 9.38408C55.6217 9.38408 55.7057 9.38808 55.7857 9.39608C55.8657 9.39608 55.9457 9.39608 56.0257 9.39608C56.1377 9.39608 56.2337 9.37208 56.3137 9.32408C56.3937 9.26808 56.4337 9.18008 56.4337 9.06008C56.4337 8.25208 56.4297 7.44408 56.4217 6.63608C56.4217 5.82008 56.4217 5.00808 56.4217 4.20008C56.4217 4.11208 56.4137 4.02408 56.3977 3.93608C56.3817 3.84808 56.3297 3.78808 56.2417 3.75608C56.1857 3.73208 56.1257 3.72008 56.0617 3.72008C55.9577 3.72008 55.8537 3.73608 55.7497 3.76808C55.6457 3.79208 55.5377 3.80408 55.4257 3.80408C55.3537 3.80408 55.3177 3.75608 55.3177 3.66008C55.3177 3.59608 55.3417 3.55608 55.3897 3.54008C55.4297 3.52408 55.4737 3.51608 55.5217 3.51608C55.5777 3.50808 55.6297 3.50008 55.6777 3.49208C55.8617 3.46808 56.0457 3.44008 56.2297 3.40808C56.4217 3.36808 56.6057 3.32808 56.7817 3.28808C56.8457 3.27208 56.9137 3.25608 56.9857 3.24008C57.0577 3.22408 57.1297 3.21608 57.2017 3.21608C57.2977 3.21608 57.3617 3.28808 57.3937 3.43208C57.4337 3.56808 57.4537 3.71608 57.4537 3.87608C57.4617 4.03608 57.4657 4.15208 57.4657 4.22408C57.6337 4.08008 57.8217 3.93208 58.0297 3.78008C58.2377 3.62008 58.4577 3.48408 58.6897 3.37208C58.9217 3.26008 59.1537 3.20408 59.3857 3.20408C59.7937 3.20408 60.1377 3.27208 60.4177 3.40808C60.6977 3.54408 60.9377 3.80008 61.1377 4.17608C61.3137 4.02408 61.5137 3.87208 61.7377 3.72008C61.9617 3.56008 62.1937 3.42808 62.4337 3.32408C62.6817 3.21208 62.9257 3.15608 63.1657 3.15608C63.6937 3.15608 64.0937 3.23208 64.3657 3.38408C64.6457 3.53608 64.8337 3.77208 64.9297 4.09208C65.0337 4.40408 65.0857 4.80808 65.0857 5.30408C65.0857 5.92808 65.0817 6.55608 65.0737 7.18808C65.0657 7.81208 65.0617 8.44008 65.0617 9.07208C65.0617 9.19208 65.1137 9.27608 65.2177 9.32408C65.3297 9.37208 65.4377 9.39608 65.5417 9.39608C65.6057 9.39608 65.6657 9.39208 65.7217 9.38408C65.7857 9.37608 65.8457 9.37208 65.9017 9.37208C65.9337 9.37208 65.9537 9.39208 65.9617 9.43208C65.9777 9.47208 65.9857 9.50408 65.9857 9.52808ZM83.4688 0.216082L79.1608 10.4881L78.7168 10.2721L83.0128 8.15392e-05L83.4688 0.216082ZM97.4368 8.28008C97.4048 7.92008 97.3848 7.56008 97.3768 7.20008C97.3768 6.83208 97.3728 6.46408 97.3648 6.09608H97.1968C96.9488 6.09608 96.6728 6.13608 96.3688 6.21608C96.0728 6.28808 95.7888 6.40008 95.5168 6.55208C95.2448 6.70408 95.0208 6.89608 94.8448 7.12808C94.6768 7.35208 94.5928 7.61208 94.5928 7.90808C94.5928 8.29208 94.7008 8.58408 94.9168 8.78408C95.1328 8.97608 95.4248 9.07208 95.7928 9.07208C95.9688 9.07208 96.1608 9.03208 96.3688 8.95208C96.5768 8.86408 96.7768 8.76008 96.9688 8.64008C97.1608 8.52008 97.3168 8.40008 97.4368 8.28008ZM99.5368 9.04808C99.5368 9.08008 99.5328 9.10408 99.5248 9.12008C99.4448 9.29608 99.3088 9.43208 99.1168 9.52808C98.9328 9.61608 98.7488 9.66008 98.5648 9.66008C98.2288 9.66008 97.9848 9.56408 97.8328 9.37208C97.6888 9.17208 97.5728 8.92808 97.4848 8.64008C97.1808 8.92008 96.8448 9.15608 96.4768 9.34808C96.1088 9.53208 95.7128 9.62408 95.2888 9.62408C94.9928 9.62408 94.7128 9.56808 94.4488 9.45608C94.1928 9.33608 93.9848 9.16408 93.8248 8.94008C93.6648 8.71608 93.5848 8.44408 93.5848 8.12408C93.5848 7.78808 93.6688 7.50008 93.8368 7.26008C94.0128 7.01208 94.2328 6.80408 94.4968 6.63608C94.7688 6.46008 95.0568 6.32008 95.3608 6.21608C95.6728 6.10408 95.9648 6.02008 96.2368 5.96408C96.4208 5.92408 96.6088 5.88808 96.8008 5.85608C96.9928 5.82408 97.1808 5.79208 97.3648 5.76008C97.3648 5.53608 97.3528 5.27608 97.3288 4.98008C97.3128 4.68408 97.2528 4.44008 97.1488 4.24808C97.0448 4.06408 96.9048 3.90008 96.7288 3.75608C96.5528 3.61208 96.3568 3.54008 96.1408 3.54008C95.7728 3.54008 95.4848 3.63608 95.2768 3.82808C95.0688 4.02008 94.9208 4.29208 94.8328 4.64408C94.8248 4.68408 94.8168 4.72808 94.8088 4.77608C94.8088 4.81608 94.8048 4.85608 94.7968 4.89608C94.7888 4.94408 94.7568 4.98808 94.7008 5.02808C94.6528 5.06008 94.6008 5.07608 94.5448 5.07608C94.3928 5.07608 94.2528 5.04008 94.1248 4.96808C94.0048 4.89608 93.9448 4.77608 93.9448 4.60808C93.9448 4.51208 93.9608 4.42808 93.9928 4.35608C94.0968 4.10808 94.2648 3.90408 94.4968 3.74408C94.7288 3.57608 94.9848 3.44808 95.2648 3.36008C95.5528 3.27208 95.8208 3.22808 96.0688 3.22808C96.5008 3.22808 96.8928 3.30808 97.2448 3.46808C97.5968 3.62808 97.8768 3.86408 98.0848 4.17608C98.3008 4.48008 98.4088 4.86408 98.4088 5.32808C98.4088 5.84808 98.4048 6.37208 98.3968 6.90008C98.3968 7.42808 98.4128 7.95608 98.4448 8.48408C98.4528 8.66008 98.4888 8.81608 98.5528 8.95208C98.6168 9.08008 98.7488 9.14408 98.9488 9.14408C99.0528 9.14408 99.1608 9.12008 99.2728 9.07208C99.3928 9.01608 99.4688 8.98808 99.5008 8.98808C99.5248 8.98808 99.5368 9.00808 99.5368 9.04808ZM103.964 8.28008C103.932 7.92008 103.912 7.56008 103.904 7.20008C103.904 6.83208 103.9 6.46408 103.892 6.09608H103.724C103.476 6.09608 103.2 6.13608 102.896 6.21608C102.6 6.28808 102.316 6.40008 102.044 6.55208C101.772 6.70408 101.548 6.89608 101.372 7.12808C101.204 7.35208 101.12 7.61208 101.12 7.90808C101.12 8.29208 101.228 8.58408 101.444 8.78408C101.66 8.97608 101.952 9.07208 102.32 9.07208C102.496 9.07208 102.688 9.03208 102.896 8.95208C103.104 8.86408 103.304 8.76008 103.496 8.64008C103.688 8.52008 103.844 8.40008 103.964 8.28008ZM106.064 9.04808C106.064 9.08008 106.06 9.10408 106.052 9.12008C105.972 9.29608 105.836 9.43208 105.644 9.52808C105.46 9.61608 105.276 9.66008 105.092 9.66008C104.756 9.66008 104.512 9.56408 104.36 9.37208C104.216 9.17208 104.1 8.92808 104.012 8.64008C103.708 8.92008 103.372 9.15608 103.004 9.34808C102.636 9.53208 102.24 9.62408 101.816 9.62408C101.52 9.62408 101.24 9.56808 100.976 9.45608C100.72 9.33608 100.512 9.16408 100.352 8.94008C100.192 8.71608 100.112 8.44408 100.112 8.12408C100.112 7.78808 100.196 7.50008 100.364 7.26008C100.54 7.01208 100.76 6.80408 101.024 6.63608C101.296 6.46008 101.584 6.32008 101.888 6.21608C102.2 6.10408 102.492 6.02008 102.764 5.96408C102.948 5.92408 103.136 5.88808 103.328 5.85608C103.52 5.82408 103.708 5.79208 103.892 5.76008C103.892 5.53608 103.88 5.27608 103.856 4.98008C103.84 4.68408 103.78 4.44008 103.676 4.24808C103.572 4.06408 103.432 3.90008 103.256 3.75608C103.08 3.61208 102.884 3.54008 102.668 3.54008C102.3 3.54008 102.012 3.63608 101.804 3.82808C101.596 4.02008 101.448 4.29208 101.36 4.64408C101.352 4.68408 101.344 4.72808 101.336 4.77608C101.336 4.81608 101.332 4.85608 101.324 4.89608C101.316 4.94408 101.284 4.98808 101.228 5.02808C101.18 5.06008 101.128 5.07608 101.072 5.07608C100.92 5.07608 100.78 5.04008 100.652 4.96808C100.532 4.89608 100.472 4.77608 100.472 4.60808C100.472 4.51208 100.488 4.42808 100.52 4.35608C100.624 4.10808 100.792 3.90408 101.024 3.74408C101.256 3.57608 101.512 3.44808 101.792 3.36008C102.08 3.27208 102.348 3.22808 102.596 3.22808C103.028 3.22808 103.42 3.30808 103.772 3.46808C104.124 3.62808 104.404 3.86408 104.612 4.17608C104.828 4.48008 104.936 4.86408 104.936 5.32808C104.936 5.84808 104.932 6.37208 104.924 6.90008C104.924 7.42808 104.94 7.95608 104.972 8.48408C104.98 8.66008 105.016 8.81608 105.08 8.95208C105.144 9.08008 105.276 9.14408 105.476 9.14408C105.58 9.14408 105.688 9.12008 105.8 9.07208C105.92 9.01608 105.996 8.98808 106.028 8.98808C106.052 8.98808 106.064 9.00808 106.064 9.04808Z" fill="black"/>
</svg>
