<svg width="52" height="10" viewBox="0 0 52 10" fill="none" xmlns="http://www.w3.org/2000/svg">
<path d="M7.74001 7.00795C7.74001 7.05595 7.73601 7.10395 7.72801 7.15195C7.72001 7.19995 7.70401 7.24395 7.68001 7.28395C7.57601 7.53195 7.41201 7.77595 7.18801 8.01595C6.97201 8.24795 6.74801 8.43995 6.51601 8.59195C6.15601 8.83195 5.77201 8.99995 5.36401 9.09595C4.96401 9.19195 4.55201 9.23995 4.12801 9.23995C3.27201 9.23995 2.53201 9.05995 1.90801 8.69995C1.29201 8.33195 0.820007 7.82395 0.492007 7.17595C0.164007 6.52795 7.49528e-06 5.78395 7.49528e-06 4.94395C7.49528e-06 4.31995 0.0920075 3.73595 0.276007 3.19195C0.460007 2.64795 0.728007 2.17195 1.08001 1.76395C1.43201 1.34795 1.86401 1.02395 2.37601 0.791953C2.88801 0.551953 3.47201 0.431953 4.12801 0.431953C4.44801 0.431953 4.75201 0.483953 5.04001 0.587952C5.33601 0.683953 5.63201 0.783953 5.92801 0.887953C6.09601 0.943953 6.26801 0.987952 6.44401 1.01995C6.62801 1.05195 6.80801 1.07595 6.98401 1.09195C6.99201 1.26795 7.00401 1.44395 7.02001 1.61995C7.03601 1.78795 7.05601 1.95995 7.08001 2.13595C7.10401 2.29595 7.13201 2.45995 7.16401 2.62795C7.20401 2.78795 7.22401 2.95195 7.22401 3.11995C7.22401 3.24795 7.19601 3.35195 7.14001 3.43195C7.09201 3.51195 6.99601 3.55195 6.85201 3.55195C6.77201 3.55195 6.71201 3.50795 6.67201 3.41995C6.64001 3.33995 6.61201 3.25595 6.58801 3.16795C6.57201 3.07195 6.55201 2.98395 6.52801 2.90395C6.46401 2.63995 6.35601 2.36395 6.20401 2.07595C6.05201 1.77995 5.86801 1.54395 5.65201 1.36795C5.55601 1.27995 5.41201 1.19195 5.22001 1.10395C5.03601 1.01595 4.84401 0.943953 4.64401 0.887953C4.45201 0.831953 4.28801 0.803952 4.15201 0.803952C3.91201 0.803952 3.66801 0.847953 3.42001 0.935953C3.17201 1.02395 2.95201 1.13995 2.76001 1.28395C2.40001 1.56395 2.11201 1.90395 1.89601 2.30395C1.68001 2.69595 1.52401 3.11595 1.42801 3.56395C1.34001 4.01195 1.29601 4.45595 1.29601 4.89595C1.29601 5.37595 1.35201 5.84795 1.46401 6.31195C1.57601 6.76795 1.75201 7.17995 1.99201 7.54795C2.23201 7.91595 2.54401 8.21195 2.92801 8.43595C3.31201 8.65195 3.78001 8.75995 4.33201 8.75995C4.56401 8.75995 4.82401 8.72795 5.11201 8.66395C5.40001 8.59195 5.64801 8.51195 5.85601 8.42395C6.10401 8.31995 6.33201 8.18795 6.54001 8.02795C6.74801 7.85995 6.93601 7.67195 7.10401 7.46395C7.12001 7.44795 7.15201 7.39995 7.20001 7.31995C7.25601 7.23995 7.31201 7.15995 7.36801 7.07995C7.42401 6.99995 7.46001 6.95195 7.47601 6.93595C7.51601 6.88795 7.56001 6.86395 7.60801 6.86395C7.69601 6.86395 7.74001 6.91195 7.74001 7.00795ZM12.3313 7.84795C12.2993 7.48795 12.2793 7.12795 12.2713 6.76795C12.2713 6.39995 12.2673 6.03195 12.2593 5.66395H12.0913C11.8433 5.66395 11.5673 5.70395 11.2633 5.78395C10.9673 5.85595 10.6833 5.96795 10.4113 6.11995C10.1393 6.27195 9.91532 6.46395 9.73932 6.69595C9.57132 6.91995 9.48732 7.17995 9.48732 7.47595C9.48732 7.85995 9.59532 8.15195 9.81132 8.35195C10.0273 8.54395 10.3193 8.63995 10.6873 8.63995C10.8633 8.63995 11.0553 8.59995 11.2633 8.51995C11.4713 8.43195 11.6713 8.32795 11.8633 8.20795C12.0553 8.08795 12.2113 7.96795 12.3313 7.84795ZM14.4313 8.61595C14.4313 8.64795 14.4273 8.67195 14.4193 8.68795C14.3393 8.86395 14.2033 8.99995 14.0113 9.09595C13.8273 9.18395 13.6433 9.22795 13.4593 9.22795C13.1233 9.22795 12.8793 9.13195 12.7273 8.93995C12.5833 8.73995 12.4673 8.49595 12.3793 8.20795C12.0753 8.48795 11.7393 8.72395 11.3713 8.91595C11.0033 9.09995 10.6073 9.19195 10.1833 9.19195C9.88732 9.19195 9.60732 9.13595 9.34332 9.02395C9.08732 8.90395 8.87932 8.73195 8.71932 8.50795C8.55932 8.28395 8.47932 8.01195 8.47932 7.69195C8.47932 7.35595 8.56332 7.06795 8.73132 6.82795C8.90732 6.57995 9.12732 6.37195 9.39132 6.20395C9.66332 6.02795 9.95132 5.88795 10.2553 5.78395C10.5673 5.67195 10.8593 5.58795 11.1313 5.53195C11.3153 5.49195 11.5033 5.45595 11.6953 5.42395C11.8873 5.39195 12.0753 5.35995 12.2593 5.32795C12.2593 5.10395 12.2473 4.84395 12.2233 4.54795C12.2073 4.25195 12.1473 4.00795 12.0433 3.81595C11.9393 3.63195 11.7993 3.46795 11.6233 3.32395C11.4473 3.17995 11.2513 3.10795 11.0353 3.10795C10.6673 3.10795 10.3793 3.20395 10.1713 3.39595C9.96332 3.58795 9.81532 3.85995 9.72732 4.21195C9.71932 4.25195 9.71132 4.29595 9.70332 4.34395C9.70332 4.38395 9.69932 4.42395 9.69132 4.46395C9.68332 4.51195 9.65132 4.55595 9.59532 4.59595C9.54732 4.62795 9.49532 4.64395 9.43932 4.64395C9.28732 4.64395 9.14732 4.60795 9.01932 4.53595C8.89932 4.46395 8.83932 4.34395 8.83932 4.17595C8.83932 4.07995 8.85532 3.99595 8.88732 3.92395C8.99132 3.67595 9.15932 3.47195 9.39132 3.31195C9.62332 3.14395 9.87932 3.01595 10.1593 2.92795C10.4473 2.83995 10.7153 2.79595 10.9633 2.79595C11.3953 2.79595 11.7873 2.87595 12.1393 3.03595C12.4913 3.19595 12.7713 3.43195 12.9793 3.74395C13.1953 4.04795 13.3033 4.43195 13.3033 4.89595C13.3033 5.41595 13.2993 5.93995 13.2913 6.46795C13.2913 6.99595 13.3073 7.52395 13.3393 8.05195C13.3473 8.22795 13.3833 8.38395 13.4473 8.51995C13.5113 8.64795 13.6433 8.71195 13.8433 8.71195C13.9473 8.71195 14.0553 8.68795 14.1673 8.63995C14.2873 8.58395 14.3633 8.55595 14.3953 8.55595C14.4193 8.55595 14.4313 8.57595 14.4313 8.61595ZM19.7347 3.91195C19.7347 3.99195 19.7027 4.06795 19.6387 4.13995C19.5827 4.20395 19.5107 4.23595 19.4227 4.23595C19.3027 4.23595 19.2147 4.19595 19.1587 4.11595C19.1107 4.03595 19.0667 3.94395 19.0267 3.83995C18.9947 3.73595 18.9427 3.64395 18.8707 3.56395C18.7987 3.48395 18.6787 3.44395 18.5107 3.44395C18.4787 3.44395 18.4467 3.44395 18.4147 3.44395C18.3907 3.44395 18.3627 3.44795 18.3307 3.45595C18.1947 3.47995 18.0467 3.56395 17.8867 3.70795C17.7267 3.85195 17.5707 4.02395 17.4187 4.22395C17.2747 4.41595 17.1547 4.60795 17.0587 4.79995C16.9627 4.99195 16.9107 5.15195 16.9027 5.27995C16.8947 5.40795 16.8907 5.53595 16.8907 5.66395C16.8907 5.78395 16.8907 5.90395 16.8907 6.02395C16.8907 6.45595 16.8907 6.88795 16.8907 7.31995C16.8987 7.75195 16.9027 8.17995 16.9027 8.60395C16.9027 8.72395 16.9507 8.81195 17.0467 8.86795C17.1507 8.91595 17.2547 8.93995 17.3587 8.93995C17.4387 8.93995 17.5187 8.93595 17.5987 8.92795C17.6787 8.91995 17.7587 8.91595 17.8387 8.91595C17.8787 8.91595 17.9067 8.93595 17.9227 8.97595C17.9387 9.00795 17.9467 9.03995 17.9467 9.07195C17.9467 9.19995 17.8827 9.26395 17.7547 9.26395C17.5147 9.26395 17.2747 9.25995 17.0347 9.25195C16.7947 9.23595 16.5547 9.22795 16.3147 9.22795C16.0667 9.22795 15.8147 9.23595 15.5587 9.25195C15.3107 9.26795 15.0587 9.27595 14.8027 9.27595C14.7707 9.27595 14.7467 9.25195 14.7307 9.20395C14.7227 9.15595 14.7187 9.11595 14.7187 9.08395C14.7187 9.00395 14.7507 8.95995 14.8147 8.95195C14.9027 8.93595 14.9947 8.93195 15.0907 8.93995C15.1867 8.94795 15.2747 8.95195 15.3547 8.95195C15.4747 8.95195 15.5707 8.92795 15.6427 8.87995C15.7227 8.82395 15.7667 8.73195 15.7747 8.60395C15.7907 8.34795 15.7987 8.08795 15.7987 7.82395C15.8067 7.55995 15.8107 7.29595 15.8107 7.03195V5.86795C15.8027 5.52395 15.7987 5.18395 15.7987 4.84795C15.8067 4.50395 15.7947 4.16395 15.7627 3.82795C15.7547 3.66795 15.7107 3.55595 15.6307 3.49195C15.5507 3.41995 15.4307 3.38395 15.2707 3.38395C15.2067 3.38395 15.1387 3.39195 15.0667 3.40795C15.0027 3.41595 14.9347 3.41995 14.8627 3.41995C14.7987 3.41995 14.7667 3.37195 14.7667 3.27595C14.7667 3.21995 14.7947 3.17995 14.8507 3.15595C14.9307 3.13195 15.0147 3.11595 15.1027 3.10795C15.1907 3.09195 15.2747 3.07995 15.3547 3.07195C15.5707 3.03195 15.7867 2.99195 16.0027 2.95195C16.2187 2.91195 16.4347 2.86395 16.6507 2.80795C16.7227 2.83195 16.7747 2.87595 16.8067 2.93995C16.8227 2.97195 16.8347 3.05995 16.8427 3.20395C16.8507 3.34795 16.8547 3.51595 16.8547 3.70795C16.8547 3.89195 16.8547 4.06795 16.8547 4.23595C16.8547 4.39595 16.8547 4.50795 16.8547 4.57195C17.0307 4.29195 17.2307 4.01195 17.4547 3.73195C17.6787 3.45195 17.9347 3.21995 18.2227 3.03595C18.5107 2.85195 18.8347 2.75995 19.1947 2.75995C19.3867 2.75995 19.5107 2.81995 19.5667 2.93995C19.6227 3.05995 19.6587 3.19995 19.6747 3.35995C19.6907 3.44795 19.7027 3.53995 19.7107 3.63595C19.7267 3.73195 19.7347 3.82395 19.7347 3.91195ZM25.0667 3.91195C25.0667 3.99195 25.0347 4.06795 24.9707 4.13995C24.9147 4.20395 24.8427 4.23595 24.7547 4.23595C24.6347 4.23595 24.5467 4.19595 24.4907 4.11595C24.4427 4.03595 24.3987 3.94395 24.3587 3.83995C24.3267 3.73595 24.2747 3.64395 24.2027 3.56395C24.1307 3.48395 24.0107 3.44395 23.8427 3.44395C23.8107 3.44395 23.7787 3.44395 23.7467 3.44395C23.7227 3.44395 23.6947 3.44795 23.6627 3.45595C23.5267 3.47995 23.3787 3.56395 23.2187 3.70795C23.0587 3.85195 22.9027 4.02395 22.7507 4.22395C22.6067 4.41595 22.4867 4.60795 22.3907 4.79995C22.2947 4.99195 22.2427 5.15195 22.2347 5.27995C22.2267 5.40795 22.2227 5.53595 22.2227 5.66395C22.2227 5.78395 22.2227 5.90395 22.2227 6.02395C22.2227 6.45595 22.2227 6.88795 22.2227 7.31995C22.2307 7.75195 22.2347 8.17995 22.2347 8.60395C22.2347 8.72395 22.2827 8.81195 22.3787 8.86795C22.4827 8.91595 22.5867 8.93995 22.6907 8.93995C22.7707 8.93995 22.8507 8.93595 22.9307 8.92795C23.0107 8.91995 23.0907 8.91595 23.1707 8.91595C23.2107 8.91595 23.2387 8.93595 23.2547 8.97595C23.2707 9.00795 23.2787 9.03995 23.2787 9.07195C23.2787 9.19995 23.2147 9.26395 23.0867 9.26395C22.8467 9.26395 22.6067 9.25995 22.3667 9.25195C22.1267 9.23595 21.8867 9.22795 21.6467 9.22795C21.3987 9.22795 21.1467 9.23595 20.8907 9.25195C20.6427 9.26795 20.3907 9.27595 20.1347 9.27595C20.1027 9.27595 20.0787 9.25195 20.0627 9.20395C20.0547 9.15595 20.0507 9.11595 20.0507 9.08395C20.0507 9.00395 20.0827 8.95995 20.1467 8.95195C20.2347 8.93595 20.3267 8.93195 20.4227 8.93995C20.5187 8.94795 20.6067 8.95195 20.6867 8.95195C20.8067 8.95195 20.9027 8.92795 20.9747 8.87995C21.0547 8.82395 21.0987 8.73195 21.1067 8.60395C21.1227 8.34795 21.1307 8.08795 21.1307 7.82395C21.1387 7.55995 21.1427 7.29595 21.1427 7.03195V5.86795C21.1347 5.52395 21.1307 5.18395 21.1307 4.84795C21.1387 4.50395 21.1267 4.16395 21.0947 3.82795C21.0867 3.66795 21.0427 3.55595 20.9627 3.49195C20.8827 3.41995 20.7627 3.38395 20.6027 3.38395C20.5387 3.38395 20.4707 3.39195 20.3987 3.40795C20.3347 3.41595 20.2667 3.41995 20.1947 3.41995C20.1307 3.41995 20.0987 3.37195 20.0987 3.27595C20.0987 3.21995 20.1267 3.17995 20.1827 3.15595C20.2627 3.13195 20.3467 3.11595 20.4347 3.10795C20.5227 3.09195 20.6067 3.07995 20.6867 3.07195C20.9027 3.03195 21.1187 2.99195 21.3347 2.95195C21.5507 2.91195 21.7667 2.86395 21.9827 2.80795C22.0547 2.83195 22.1067 2.87595 22.1387 2.93995C22.1547 2.97195 22.1667 3.05995 22.1747 3.20395C22.1827 3.34795 22.1867 3.51595 22.1867 3.70795C22.1867 3.89195 22.1867 4.06795 22.1867 4.23595C22.1867 4.39595 22.1867 4.50795 22.1867 4.57195C22.3627 4.29195 22.5627 4.01195 22.7867 3.73195C23.0107 3.45195 23.2667 3.21995 23.5547 3.03595C23.8427 2.85195 24.1667 2.75995 24.5267 2.75995C24.7187 2.75995 24.8427 2.81995 24.8987 2.93995C24.9547 3.05995 24.9907 3.19995 25.0067 3.35995C25.0227 3.44795 25.0347 3.53995 25.0427 3.63595C25.0587 3.73195 25.0667 3.82395 25.0667 3.91195ZM28.9827 9.07195C28.9827 9.11195 28.9707 9.15195 28.9467 9.19195C28.9227 9.22395 28.8907 9.23995 28.8507 9.23995C28.6267 9.23995 28.4027 9.23595 28.1787 9.22795C27.9627 9.21195 27.7387 9.20395 27.5067 9.20395H27.1827C26.9427 9.20395 26.7027 9.21195 26.4627 9.22795C26.2307 9.23595 25.9987 9.23995 25.7667 9.23995C25.7347 9.23995 25.7107 9.21995 25.6947 9.17995C25.6867 9.13995 25.6827 9.10795 25.6827 9.08395C25.6827 9.04395 25.6867 9.01595 25.6947 8.99995C25.7027 8.97595 25.7267 8.95995 25.7667 8.95195C25.8067 8.93595 25.8507 8.93195 25.8987 8.93995C25.9547 8.93995 26.0067 8.93995 26.0547 8.93995C26.1107 8.93995 26.1627 8.94395 26.2107 8.95195C26.2587 8.95195 26.3107 8.95195 26.3667 8.95195C26.4787 8.95195 26.5787 8.92795 26.6667 8.87995C26.7627 8.82395 26.8107 8.73195 26.8107 8.60395V3.80395C26.8107 3.66795 26.7867 3.56395 26.7387 3.49195C26.6907 3.41195 26.5907 3.37195 26.4387 3.37195C26.3267 3.37195 26.2107 3.37995 26.0907 3.39595C25.9787 3.40395 25.8667 3.41595 25.7547 3.43195C25.6907 3.43195 25.6587 3.39595 25.6587 3.32395C25.6587 3.24395 25.6907 3.19195 25.7547 3.16795C25.8507 3.13595 25.9507 3.11595 26.0547 3.10795C26.1667 3.09195 26.2707 3.07595 26.3667 3.05995C26.5907 3.01995 26.8147 2.97595 27.0387 2.92795C27.2627 2.87995 27.4827 2.82795 27.6987 2.77195C27.7227 2.76395 27.7547 2.75995 27.7947 2.75995C27.8827 2.75995 27.9267 2.80795 27.9267 2.90395C27.9267 3.84795 27.9227 4.79595 27.9147 5.74795C27.9147 6.69995 27.9147 7.65195 27.9147 8.60395C27.9147 8.73195 27.9707 8.82395 28.0827 8.87995C28.2027 8.92795 28.3147 8.95195 28.4187 8.95195C28.4987 8.95195 28.5787 8.94795 28.6587 8.93995C28.7467 8.93195 28.8307 8.92795 28.9107 8.92795C28.9427 8.92795 28.9627 8.94795 28.9707 8.98795C28.9787 9.02795 28.9827 9.05595 28.9827 9.07195ZM28.0107 0.767953C28.0107 0.967953 27.9387 1.13995 27.7947 1.28395C27.6507 1.41995 27.4787 1.48795 27.2787 1.48795C27.0787 1.48795 26.9067 1.41995 26.7627 1.28395C26.6187 1.13995 26.5467 0.967953 26.5467 0.767953C26.5467 0.567953 26.6187 0.399953 26.7627 0.263953C26.9067 0.119953 27.0787 0.0479529 27.2787 0.0479529C27.4787 0.0479529 27.6507 0.119953 27.7947 0.263953C27.9387 0.399953 28.0107 0.567953 28.0107 0.767953ZM36.7077 9.07195C36.7077 9.17595 36.6477 9.22795 36.5277 9.22795C36.3517 9.22795 36.1717 9.22395 35.9877 9.21595C35.8037 9.19995 35.6197 9.19195 35.4357 9.19195C35.1637 9.19195 34.8837 9.19995 34.5957 9.21595C34.3157 9.22395 34.0357 9.22795 33.7557 9.22795C33.7237 9.22795 33.7037 9.20395 33.6957 9.15595C33.6877 9.09995 33.6837 9.05595 33.6837 9.02395C33.6837 8.95995 33.7237 8.92795 33.8037 8.92795C33.8837 8.92795 33.9477 8.92795 33.9957 8.92795C34.0357 8.92795 34.0757 8.93195 34.1157 8.93995C34.1637 8.93995 34.2077 8.93995 34.2477 8.93995C34.4797 8.93995 34.6077 8.82395 34.6317 8.59195C34.6557 8.11995 34.6637 7.64395 34.6557 7.16395C34.6557 6.68395 34.6557 6.20795 34.6557 5.73595C34.6557 5.64795 34.6557 5.55995 34.6557 5.47195C34.6557 5.37595 34.6557 5.28395 34.6557 5.19595C34.6477 5.01195 34.6357 4.78795 34.6197 4.52395C34.6037 4.25195 34.5677 4.03195 34.5117 3.86395C34.3837 3.44795 34.1037 3.23995 33.6717 3.23995C33.2797 3.23995 32.9197 3.33995 32.5917 3.53995C32.2637 3.73995 31.9797 3.99195 31.7397 4.29595C31.7317 4.87995 31.7277 5.45995 31.7277 6.03595C31.7277 6.61195 31.7277 7.18795 31.7277 7.76395V8.59195C31.7277 8.71195 31.7797 8.79995 31.8837 8.85595C31.9877 8.91195 32.0917 8.93995 32.1957 8.93995C32.2597 8.93995 32.3197 8.93595 32.3757 8.92795C32.4397 8.91195 32.4997 8.90395 32.5557 8.90395C32.5877 8.90395 32.6077 8.92395 32.6157 8.96395C32.6237 9.00395 32.6277 9.03595 32.6277 9.05995C32.6277 9.09195 32.6157 9.12795 32.5917 9.16795C32.5757 9.20795 32.5437 9.22795 32.4957 9.22795C32.3197 9.22795 32.1437 9.22395 31.9677 9.21595C31.7997 9.19995 31.6277 9.19195 31.4517 9.19195C31.1797 9.19195 30.9077 9.19995 30.6357 9.21595C30.3637 9.22395 30.0877 9.22795 29.8077 9.22795C29.7677 9.22795 29.7437 9.20395 29.7357 9.15595C29.7357 9.09995 29.7357 9.05595 29.7357 9.02395C29.7357 8.95995 29.7717 8.92795 29.8437 8.92795C29.9157 8.92795 29.9717 8.92795 30.0117 8.92795C30.0517 8.92795 30.0917 8.93195 30.1317 8.93995C30.1717 8.93995 30.2117 8.93995 30.2517 8.93995C30.4837 8.93995 30.6117 8.82395 30.6357 8.59195C30.6437 8.47995 30.6477 8.36795 30.6477 8.25595C30.6477 8.14395 30.6477 8.03195 30.6477 7.91995C30.6477 7.23195 30.6477 6.54395 30.6477 5.85595C30.6477 5.15995 30.6437 4.46795 30.6357 3.77995C30.6357 3.66795 30.6117 3.55595 30.5637 3.44395C30.5157 3.33195 30.4237 3.27595 30.2877 3.27595C30.1837 3.27595 30.0837 3.29195 29.9877 3.32395C29.8917 3.35595 29.7917 3.37195 29.6877 3.37195C29.6317 3.37195 29.6037 3.33195 29.6037 3.25195C29.6037 3.23595 29.6037 3.21995 29.6037 3.20395C29.6117 3.17995 29.6197 3.16395 29.6277 3.15595C29.6357 3.14795 29.6477 3.14395 29.6637 3.14395C29.6797 3.13595 29.6917 3.12795 29.6997 3.11995C29.8437 3.07995 29.9917 3.05195 30.1437 3.03595C30.3037 3.01995 30.4557 2.99595 30.5997 2.96395C30.7357 2.93995 30.8677 2.90795 30.9957 2.86795C31.1237 2.81995 31.2517 2.79595 31.3797 2.79595C31.4357 2.79595 31.4797 2.82395 31.5117 2.87995C31.5517 2.95195 31.5837 3.05595 31.6077 3.19195C31.6317 3.31995 31.6477 3.45195 31.6557 3.58795C31.6717 3.72395 31.6797 3.83595 31.6797 3.92395C31.8557 3.74795 32.0637 3.57595 32.3037 3.40795C32.5517 3.23195 32.8077 3.08795 33.0717 2.97595C33.3437 2.85595 33.6077 2.79595 33.8637 2.79595C34.5997 2.79595 35.0957 2.95995 35.3517 3.28795C35.6157 3.60795 35.7477 4.11595 35.7477 4.81195C35.7477 5.43595 35.7437 6.05995 35.7357 6.68395C35.7357 7.30795 35.7357 7.93195 35.7357 8.55595C35.7357 8.70795 35.7797 8.81195 35.8677 8.86795C35.9637 8.91595 36.0757 8.93995 36.2037 8.93995C36.2677 8.93995 36.3317 8.93595 36.3957 8.92795C36.4597 8.91195 36.5197 8.90395 36.5757 8.90395C36.6237 8.90395 36.6557 8.92395 36.6717 8.96395C36.6957 8.99595 36.7077 9.03195 36.7077 9.07195ZM44.3978 9.11995C44.3978 9.15995 44.3778 9.19195 44.3378 9.21595C44.2978 9.23195 44.2578 9.23995 44.2178 9.23995C44.0178 9.23995 43.8138 9.23595 43.6058 9.22795C43.4058 9.21195 43.2018 9.20395 42.9938 9.20395C42.7618 9.20395 42.5258 9.21195 42.2858 9.22795C42.0538 9.24395 41.8218 9.25195 41.5898 9.25195C41.5498 9.25195 41.5218 9.22795 41.5058 9.17995C41.4978 9.12395 41.4938 9.07995 41.4938 9.04795C41.4938 8.99195 41.5218 8.96395 41.5778 8.96395C41.6658 8.96395 41.7498 8.96795 41.8298 8.97595C41.9178 8.97595 42.0018 8.97595 42.0818 8.97595C42.1858 8.97595 42.2658 8.94395 42.3218 8.87995C42.3858 8.80795 42.4218 8.72395 42.4298 8.62795C42.4458 8.42795 42.4498 8.22795 42.4418 8.02795C42.4418 7.82795 42.4418 7.63195 42.4418 7.43995C42.4418 7.19995 42.4418 6.96395 42.4418 6.73195C42.4418 6.49195 42.4418 6.25195 42.4418 6.01195C42.4418 5.77195 42.4418 5.53195 42.4418 5.29195C42.4418 5.05195 42.4338 4.81195 42.4178 4.57195C42.4098 4.46795 42.3978 4.36795 42.3818 4.27195C42.3738 4.16795 42.3538 4.06795 42.3218 3.97195C42.2418 3.75595 42.1098 3.59195 41.9258 3.47995C41.7498 3.35995 41.5458 3.29995 41.3138 3.29995C41.0418 3.29995 40.7738 3.37195 40.5098 3.51595C40.2458 3.65195 40.0258 3.82395 39.8498 4.03195C39.6578 4.25595 39.5178 4.45195 39.4298 4.61995C39.3418 4.78795 39.2858 4.96395 39.2618 5.14795C39.2458 5.33195 39.2378 5.57195 39.2378 5.86795V7.97995C39.2378 8.06795 39.2338 8.19195 39.2258 8.35195C39.2258 8.51195 39.2458 8.65595 39.2858 8.78395C39.3338 8.91195 39.4258 8.97595 39.5618 8.97595C39.6418 8.97595 39.7178 8.97195 39.7898 8.96395C39.8618 8.95595 39.9378 8.95195 40.0178 8.95195C40.0898 8.95195 40.1258 8.99195 40.1258 9.07195C40.1258 9.11195 40.1178 9.15195 40.1018 9.19195C40.0938 9.22395 40.0658 9.23995 40.0178 9.23995C39.7458 9.23995 39.4658 9.23595 39.1778 9.22795C38.8978 9.21195 38.6178 9.20395 38.3378 9.20395C38.0818 9.20395 37.8218 9.21595 37.5578 9.23995C37.5258 9.23995 37.4978 9.24395 37.4738 9.25195C37.4498 9.25195 37.4218 9.25195 37.3898 9.25195C37.3498 9.25195 37.3178 9.23195 37.2938 9.19195C37.2778 9.14395 37.2698 9.10395 37.2698 9.07195C37.2698 8.98395 37.3138 8.93995 37.4018 8.93995C37.4498 8.93995 37.4978 8.94395 37.5458 8.95195C37.5938 8.95195 37.6458 8.95195 37.7018 8.95195C37.8138 8.95195 37.9298 8.93595 38.0498 8.90395C38.1778 8.86395 38.2458 8.77195 38.2538 8.62795C38.2698 8.36395 38.2738 8.09995 38.2658 7.83595C38.2658 7.57195 38.2658 7.31195 38.2658 7.05595C38.2658 6.55995 38.2658 6.06795 38.2658 5.57995C38.2738 5.09195 38.2778 4.60395 38.2778 4.11595C38.2778 3.60395 38.2738 3.09595 38.2658 2.59195C38.2578 2.07995 38.2498 1.56795 38.2418 1.05595C38.2418 0.967953 38.2258 0.871953 38.1938 0.767953C38.1618 0.655953 38.0898 0.599953 37.9778 0.599953C37.8658 0.599953 37.7498 0.607953 37.6298 0.623953C37.5098 0.639953 37.3898 0.647953 37.2698 0.647953C37.1978 0.647953 37.1618 0.615953 37.1618 0.551953C37.1618 0.479953 37.1978 0.431953 37.2698 0.407953C37.4298 0.367953 37.5858 0.335953 37.7378 0.311952C37.8978 0.287953 38.0538 0.259953 38.2058 0.227953C38.3418 0.195953 38.5018 0.151953 38.6858 0.095953C38.8778 0.0319529 39.0378 -4.72069e-05 39.1658 -4.72069e-05C39.2138 -4.72069e-05 39.2418 0.0159528 39.2498 0.0479529C39.2578 0.0719526 39.2618 0.103952 39.2618 0.143952C39.2618 0.799953 39.2618 1.45595 39.2618 2.11195C39.2618 2.76795 39.2538 3.42395 39.2378 4.07995C39.4138 3.89595 39.6258 3.71195 39.8738 3.52795C40.1298 3.34395 40.4018 3.19195 40.6898 3.07195C40.9778 2.94395 41.2498 2.87995 41.5058 2.87995C42.0258 2.87995 42.4338 2.95595 42.7298 3.10795C43.0258 3.25995 43.2338 3.49595 43.3538 3.81595C43.4738 4.12795 43.5338 4.53595 43.5338 5.03995C43.5338 5.63995 43.5298 6.23995 43.5218 6.83995C43.5218 7.43195 43.5218 8.02795 43.5218 8.62795C43.5218 8.75595 43.5538 8.84795 43.6178 8.90395C43.6898 8.95195 43.7898 8.97595 43.9178 8.97595C43.9738 8.97595 44.0258 8.97195 44.0738 8.96395C44.1298 8.95595 44.1858 8.95195 44.2418 8.95195C44.2818 8.95195 44.3178 8.97195 44.3498 9.01195C44.3818 9.04395 44.3978 9.07995 44.3978 9.11995ZM50.1667 6.08395C50.1667 5.73995 50.1387 5.39595 50.0827 5.05195C50.0347 4.69995 49.9387 4.37595 49.7947 4.07995C49.6587 3.78395 49.4587 3.54795 49.1947 3.37195C48.9307 3.18795 48.5867 3.09595 48.1627 3.09595C47.7627 3.09595 47.4347 3.19195 47.1787 3.38395C46.9307 3.57595 46.7347 3.82395 46.5907 4.12795C46.4547 4.43195 46.3587 4.75995 46.3027 5.11195C46.2547 5.46395 46.2307 5.79595 46.2307 6.10795C46.2307 6.45195 46.2547 6.79595 46.3027 7.13995C46.3587 7.48395 46.4587 7.79595 46.6027 8.07595C46.7467 8.34795 46.9507 8.56795 47.2147 8.73595C47.4867 8.90395 47.8347 8.98795 48.2587 8.98795C48.6747 8.98795 49.0067 8.89995 49.2547 8.72395C49.5107 8.54795 49.7027 8.31595 49.8307 8.02795C49.9667 7.73995 50.0547 7.42795 50.0947 7.09195C50.1427 6.74795 50.1667 6.41195 50.1667 6.08395ZM51.4027 6.11995C51.4027 6.71995 51.2587 7.25995 50.9707 7.73995C50.6907 8.21995 50.3067 8.59995 49.8187 8.87995C49.3387 9.15995 48.7987 9.29995 48.1987 9.29995C47.6147 9.29995 47.0867 9.15995 46.6147 8.87995C46.1427 8.59195 45.7667 8.21195 45.4867 7.73995C45.2067 7.25995 45.0667 6.72795 45.0667 6.14395C45.0667 5.54395 45.2027 4.99195 45.4747 4.48795C45.7467 3.97595 46.1187 3.56395 46.5907 3.25195C47.0707 2.93995 47.6227 2.78395 48.2467 2.78395C48.9187 2.78395 49.4907 2.92795 49.9627 3.21595C50.4347 3.49595 50.7907 3.88795 51.0307 4.39195C51.2787 4.88795 51.4027 5.46395 51.4027 6.11995Z" fill="#9C3F07"/>
</svg>
