<svg width="47" height="12" viewBox="0 0 47 12" fill="none" xmlns="http://www.w3.org/2000/svg">
<path d="M1.38492 10.9091H-2.21692e-05L4.00566 -3.3617e-05H5.3693L9.37498 10.9091H7.99003L4.73009 1.72582H4.64486L1.38492 10.9091ZM1.89628 6.64769H7.47867V7.81957H1.89628V6.64769ZM12.1608 -3.3617e-05V10.9091H10.9037V-3.3617e-05H12.1608ZM18.0216 2.72724V3.79258H13.7815V2.72724H18.0216ZM15.0173 0.767012H16.2744V8.56531C16.2744 8.92042 16.3259 9.18676 16.4289 9.36431C16.5354 9.53832 16.6703 9.65551 16.8337 9.71588C17.0006 9.77269 17.1764 9.8011 17.361 9.8011C17.4995 9.8011 17.6132 9.794 17.7019 9.7798C17.7907 9.76204 17.8618 9.74784 17.915 9.73718L18.1707 10.8664C18.0855 10.8984 17.9665 10.9304 17.8138 10.9623C17.6611 10.9978 17.4676 11.0156 17.2332 11.0156C16.8781 11.0156 16.5301 10.9392 16.1892 10.7865C15.8518 10.6338 15.5713 10.4012 15.3475 10.0887C15.1274 9.77625 15.0173 9.38207 15.0173 8.90622V0.767012ZM23.255 11.0795C22.4667 11.0795 21.7866 10.9055 21.2149 10.5575C20.6467 10.2059 20.2082 9.71588 19.8992 9.08732C19.5938 8.45522 19.4411 7.72014 19.4411 6.88207C19.4411 6.044 19.5938 5.30536 19.8992 4.66616C20.2082 4.0234 20.6379 3.52269 21.1883 3.16403C21.7423 2.80181 22.3886 2.62071 23.1272 2.62071C23.5533 2.62071 23.9741 2.69173 24.3896 2.83377C24.8051 2.97582 25.1833 3.20664 25.5242 3.52625C25.8651 3.8423 26.1368 4.26133 26.3392 4.78335C26.5416 5.30536 26.6428 5.94812 26.6428 6.71161V7.24428H20.336V6.15764H25.3644C25.3644 5.69599 25.2721 5.28406 25.0874 4.92184C24.9063 4.55963 24.6471 4.27376 24.3097 4.06424C23.9759 3.85472 23.5817 3.74997 23.1272 3.74997C22.6265 3.74997 22.1932 3.87426 21.8275 4.12284C21.4653 4.36786 21.1865 4.68747 20.9912 5.08164C20.7959 5.47582 20.6982 5.8984 20.6982 6.3494V7.07383C20.6982 7.69173 20.8048 8.21552 21.0178 8.64521C21.2344 9.07134 21.5345 9.39627 21.918 9.62C22.3016 9.84017 22.7472 9.95025 23.255 9.95025C23.5853 9.95025 23.8836 9.90409 24.1499 9.81176C24.4198 9.71588 24.6524 9.57383 24.8477 9.38562C25.043 9.19386 25.194 8.95593 25.3005 8.67184L26.515 9.01275C26.3871 9.42468 26.1723 9.7869 25.8705 10.0994C25.5686 10.4083 25.1957 10.6498 24.7518 10.8238C24.308 10.9943 23.809 11.0795 23.255 11.0795ZM28.5551 10.9091V2.72724H29.7696V3.96303H29.8548C30.004 3.55821 30.2739 3.22973 30.6645 2.97759C31.0551 2.72546 31.4955 2.5994 31.9855 2.5994C32.0778 2.5994 32.1932 2.60117 32.3317 2.60472C32.4702 2.60828 32.575 2.6136 32.646 2.62071V3.89911C32.6034 3.88846 32.5057 3.87248 32.353 3.85117C32.2039 3.82632 32.0459 3.81389 31.879 3.81389C31.4812 3.81389 31.1261 3.89734 30.8136 4.06424C30.5047 4.22759 30.2597 4.45487 30.0785 4.74606C29.901 5.0337 29.8122 5.36218 29.8122 5.7315V10.9091H28.5551ZM36.5438 11.1008C36.0254 11.1008 35.5548 11.0032 35.1323 10.8079C34.7097 10.609 34.3741 10.3231 34.1255 9.95025C33.8769 9.57383 33.7526 9.11928 33.7526 8.58661C33.7526 8.11786 33.845 7.73789 34.0296 7.4467C34.2143 7.15196 34.4611 6.92113 34.77 6.75423C35.079 6.58732 35.4199 6.46303 35.7928 6.38136C36.1692 6.29613 36.5474 6.22866 36.9274 6.17894C37.4245 6.11502 37.8276 6.06708 38.1365 6.03512C38.449 5.99961 38.6763 5.94102 38.8183 5.85934C38.9639 5.77767 39.0367 5.63562 39.0367 5.4332V5.39059C39.0367 4.86502 38.8929 4.45664 38.6053 4.16545C38.3212 3.87426 37.8897 3.72866 37.3109 3.72866C36.7107 3.72866 36.2402 3.86005 35.8993 4.12284C35.5584 4.38562 35.3187 4.66616 35.1802 4.96445L33.987 4.53832C34.2001 4.04116 34.4842 3.65409 34.8393 3.3771C35.198 3.09656 35.5886 2.90124 36.0112 2.79116C36.4373 2.67752 36.8563 2.62071 37.2683 2.62071C37.5311 2.62071 37.8329 2.65267 38.1738 2.71659C38.5183 2.77695 38.8503 2.90302 39.1699 3.09478C39.4931 3.28654 39.7612 3.57596 39.9742 3.96303C40.1873 4.35011 40.2938 4.86857 40.2938 5.51843V10.9091H39.0367V9.8011H38.9728C38.8876 9.97866 38.7455 10.1686 38.5467 10.3711C38.3478 10.5735 38.0833 10.7457 37.753 10.8878C37.4227 11.0298 37.0197 11.1008 36.5438 11.1008ZM36.7356 9.97156C37.2328 9.97156 37.6518 9.8739 37.9927 9.67859C38.3372 9.48328 38.5964 9.23115 38.7704 8.9222C38.948 8.61325 39.0367 8.28832 39.0367 7.94741V6.79684C38.9835 6.86076 38.8663 6.91936 38.6852 6.97262C38.5076 7.02234 38.3016 7.06673 38.0673 7.10579C37.8364 7.1413 37.611 7.17326 37.3908 7.20167C37.1742 7.22653 36.9984 7.24784 36.8634 7.26559C36.5367 7.30821 36.2313 7.37745 35.9472 7.47333C35.6667 7.56566 35.4394 7.70593 35.2654 7.89414C35.095 8.0788 35.0097 8.33093 35.0097 8.65053C35.0097 9.08732 35.1713 9.41758 35.4945 9.6413C35.8212 9.86147 36.2349 9.97156 36.7356 9.97156ZM42.5883 10.9091V2.72724H43.8028V3.96303H43.888C44.0372 3.55821 44.3071 3.22973 44.6977 2.97759C45.0883 2.72546 45.5287 2.5994 46.0187 2.5994C46.111 2.5994 46.2265 2.60117 46.3649 2.60472C46.5034 2.60828 46.6082 2.6136 46.6792 2.62071V3.89911C46.6366 3.88846 46.539 3.87248 46.3863 3.85117C46.2371 3.82632 46.0791 3.81389 45.9122 3.81389C45.5144 3.81389 45.1593 3.89734 44.8468 4.06424C44.5379 4.22759 44.2929 4.45487 44.1117 4.74606C43.9342 5.0337 43.8454 5.36218 43.8454 5.7315V10.9091H42.5883Z" fill="#042A7D"/>
</svg>
