<svg width="30" height="12" viewBox="0 0 30 12" fill="none" xmlns="http://www.w3.org/2000/svg">
<path d="M7.47197 2.896C7.47197 1.95733 7.22663 1.31733 6.73597 0.976001C6.25597 0.624001 5.57863 0.448001 4.70397 0.448001H4.17597C4.0693 0.448001 3.93597 0.458667 3.77597 0.48C3.62663 0.490667 3.48797 0.528 3.35997 0.592C3.24263 0.645334 3.18397 0.746668 3.18397 0.896001V5.344C3.3013 5.38667 3.43463 5.41333 3.58397 5.424C3.7333 5.43467 3.87197 5.44 3.99997 5.44C4.42663 5.44 4.84263 5.40267 5.24797 5.328C5.66397 5.25333 6.0373 5.12533 6.36797 4.944C6.7093 4.76267 6.97597 4.50667 7.16797 4.176C7.37063 3.84533 7.47197 3.41867 7.47197 2.896ZM10.976 11.52C10.976 11.5947 10.9013 11.6533 10.752 11.696C10.6026 11.7387 10.4266 11.7653 10.224 11.776C10.0213 11.7973 9.8293 11.808 9.64797 11.808C9.4773 11.808 9.35997 11.808 9.29597 11.808C8.8693 11.808 8.52797 11.7653 8.27197 11.68C8.01597 11.584 7.7653 11.344 7.51997 10.96C6.9973 10.1173 6.49063 9.264 5.99997 8.4C5.51997 7.536 5.03997 6.66667 4.55997 5.792L3.18397 5.84V10.912C3.18397 11.072 3.24797 11.1787 3.37597 11.232C3.50397 11.2853 3.63197 11.312 3.75997 11.312C3.9093 11.312 4.0533 11.3067 4.19197 11.296C4.33063 11.2853 4.4693 11.28 4.60797 11.28C4.68263 11.28 4.7253 11.312 4.73597 11.376C4.7573 11.44 4.76797 11.4987 4.76797 11.552C4.76797 11.6373 4.7413 11.696 4.68797 11.728C4.6453 11.7493 4.58663 11.76 4.51197 11.76C4.04263 11.76 3.56797 11.7547 3.08797 11.744C2.60797 11.7227 2.1333 11.712 1.66397 11.712C1.40797 11.712 1.15197 11.7227 0.895967 11.744C0.650634 11.7547 0.399967 11.76 0.143967 11.76C0.0799668 11.76 0.0373001 11.7333 0.0159668 11.68C0.00530013 11.616 -3.31998e-05 11.5627 -3.31998e-05 11.52C-3.31998e-05 11.3813 0.0586335 11.312 0.175967 11.312C0.271967 11.312 0.362634 11.3173 0.447967 11.328C0.543967 11.328 0.634634 11.328 0.719967 11.328C0.879967 11.328 1.05063 11.312 1.23197 11.28C1.42397 11.2373 1.53063 11.1147 1.55197 10.912C1.5733 10.6453 1.57863 10.336 1.56797 9.984C1.56797 9.62133 1.56797 9.30667 1.56797 9.04C1.56797 8.688 1.56797 8.336 1.56797 7.984C1.56797 7.62133 1.56797 7.264 1.56797 6.912C1.56797 6.176 1.56797 5.44 1.56797 4.704C1.57863 3.968 1.58397 3.232 1.58397 2.496C1.58397 2.22933 1.58397 1.96267 1.58397 1.696C1.58397 1.41867 1.5733 1.152 1.55197 0.896001C1.53063 0.682667 1.41863 0.565334 1.21597 0.544001C1.02397 0.512 0.847967 0.496 0.687967 0.496C0.623967 0.496 0.559967 0.501334 0.495967 0.512C0.431967 0.512 0.367967 0.512 0.303967 0.512C0.143967 0.512 0.0639668 0.421334 0.0639668 0.240001C0.0639668 0.122667 0.1173 0.0640001 0.223967 0.0640001C0.586634 0.0640001 0.943967 0.074667 1.29597 0.0960007C1.65863 0.117334 2.0213 0.128 2.38397 0.128C2.8853 0.128 3.3813 0.106667 3.87197 0.0640001C4.36263 0.0213334 4.8533 0 5.34397 0C5.7493 0 6.17597 0.0426668 6.62397 0.128C7.08263 0.213334 7.5093 0.352001 7.90397 0.544001C8.29863 0.736001 8.61863 1.00267 8.86397 1.344C9.11997 1.67467 9.24797 2.096 9.24797 2.608C9.24797 3.248 9.06663 3.80267 8.70397 4.272C8.35197 4.73067 7.8933 5.088 7.32797 5.344C7.1253 5.44 6.9173 5.51467 6.70397 5.568C6.49063 5.61067 6.2773 5.65333 6.06397 5.696C6.55463 6.528 7.06663 7.34933 7.59997 8.16C8.14397 8.97067 8.6933 9.77067 9.24797 10.56C9.40797 10.784 9.5733 10.9653 9.74397 11.104C9.9253 11.232 10.1493 11.3227 10.416 11.376C10.48 11.3867 10.5866 11.392 10.736 11.392C10.896 11.392 10.976 11.4347 10.976 11.52ZM20.8165 11.344C20.8165 11.472 20.7205 11.568 20.5285 11.632C20.3471 11.696 20.1445 11.7387 19.9205 11.76C19.6965 11.7813 19.5365 11.792 19.4405 11.792C19.0778 11.792 18.7898 11.648 18.5765 11.36C18.3631 11.072 18.2031 10.7733 18.0965 10.464C17.7338 10.9227 17.2805 11.264 16.7365 11.488C16.1925 11.712 15.6271 11.824 15.0405 11.824C14.0805 11.824 13.4138 11.5787 13.0405 11.088C12.6778 10.5867 12.4965 9.88267 12.4965 8.976C12.4965 8.176 12.4965 7.376 12.4965 6.576C12.5071 5.76533 12.5178 4.96 12.5285 4.16C12.5285 3.84 12.3738 3.68 12.0645 3.68C11.9791 3.68 11.8938 3.68533 11.8085 3.696C11.7231 3.70667 11.6378 3.712 11.5525 3.712C11.5205 3.712 11.4938 3.696 11.4725 3.664C11.4618 3.62133 11.4565 3.58933 11.4565 3.568C11.4565 3.45067 11.5098 3.38667 11.6165 3.376C11.9898 3.33333 12.3631 3.30667 12.7365 3.296C13.1205 3.27467 13.4991 3.24267 13.8725 3.2C13.9578 3.28533 14.0005 3.392 14.0005 3.52C14.0005 3.78667 13.9951 4.05867 13.9845 4.336C13.9738 4.61333 13.9685 4.89067 13.9685 5.168C13.9578 5.81867 13.9471 6.47467 13.9365 7.136C13.9365 7.78667 13.9365 8.44267 13.9365 9.104C13.9365 9.30667 13.9418 9.52533 13.9525 9.76C13.9631 9.984 14.0058 10.192 14.0805 10.384C14.1978 10.6827 14.4165 10.896 14.7365 11.024C15.0671 11.1413 15.3818 11.2 15.6805 11.2C16.0111 11.2 16.3418 11.1413 16.6725 11.024C17.0138 10.896 17.3018 10.7147 17.5365 10.48C17.7818 10.2347 17.9205 9.93067 17.9525 9.568C17.9738 9.38667 17.9845 9.20533 17.9845 9.024C17.9951 8.832 18.0005 8.64533 18.0005 8.464L17.9845 4.112C17.9845 3.97333 17.9365 3.872 17.8405 3.808C17.7551 3.744 17.6538 3.712 17.5365 3.712C17.4298 3.712 17.3231 3.71733 17.2165 3.728C17.1205 3.73867 17.0191 3.744 16.9125 3.744C16.8165 3.744 16.7685 3.69067 16.7685 3.584C16.7685 3.47733 16.8165 3.41867 16.9125 3.408C17.0405 3.38667 17.1738 3.376 17.3125 3.376C17.4511 3.36533 17.5898 3.35467 17.7285 3.344L18.8325 3.232C18.9071 3.22133 18.9818 3.21067 19.0565 3.2C19.1418 3.18933 19.2218 3.184 19.2965 3.184C19.3498 3.184 19.3871 3.216 19.4085 3.28C19.4298 3.33333 19.4405 3.376 19.4405 3.408C19.4085 5.72267 19.3925 8.032 19.3925 10.336C19.3925 10.6027 19.4511 10.8213 19.5685 10.992C19.6965 11.1627 19.9045 11.248 20.1925 11.248C20.2778 11.248 20.3525 11.2373 20.4165 11.216C20.4911 11.1947 20.5658 11.184 20.6405 11.184C20.7578 11.184 20.8165 11.2373 20.8165 11.344ZM26.7673 9.904C26.7247 9.424 26.698 8.944 26.6873 8.464C26.6873 7.97333 26.682 7.48267 26.6713 6.992H26.4473C26.1167 6.992 25.7487 7.04533 25.3433 7.152C24.9487 7.248 24.57 7.39733 24.2073 7.6C23.8447 7.80267 23.546 8.05867 23.3113 8.368C23.0873 8.66667 22.9753 9.01333 22.9753 9.408C22.9753 9.92 23.1193 10.3093 23.4073 10.576C23.6953 10.832 24.0847 10.96 24.5753 10.96C24.81 10.96 25.066 10.9067 25.3433 10.8C25.6207 10.6827 25.8873 10.544 26.1433 10.384C26.3993 10.224 26.6073 10.064 26.7673 9.904ZM29.5673 10.928C29.5673 10.9707 29.562 11.0027 29.5513 11.024C29.4447 11.2587 29.2633 11.44 29.0073 11.568C28.762 11.6853 28.5167 11.744 28.2713 11.744C27.8233 11.744 27.498 11.616 27.2953 11.36C27.1033 11.0933 26.9487 10.768 26.8313 10.384C26.426 10.7573 25.978 11.072 25.4873 11.328C24.9967 11.5733 24.4687 11.696 23.9033 11.696C23.5087 11.696 23.1353 11.6213 22.7833 11.472C22.442 11.312 22.1647 11.0827 21.9513 10.784C21.738 10.4853 21.6313 10.1227 21.6313 9.696C21.6313 9.248 21.7433 8.864 21.9673 8.544C22.202 8.21333 22.4953 7.936 22.8473 7.712C23.21 7.47733 23.594 7.29067 23.9993 7.152C24.4153 7.00267 24.8047 6.89067 25.1673 6.816C25.4127 6.76267 25.6633 6.71467 25.9193 6.672C26.1753 6.62933 26.426 6.58667 26.6713 6.544C26.6713 6.24533 26.6553 5.89867 26.6233 5.504C26.602 5.10933 26.522 4.784 26.3833 4.528C26.2447 4.28267 26.058 4.064 25.8233 3.872C25.5887 3.68 25.3273 3.584 25.0393 3.584C24.5487 3.584 24.1647 3.712 23.8873 3.968C23.61 4.224 23.4127 4.58667 23.2953 5.056C23.2847 5.10933 23.274 5.168 23.2633 5.232C23.2633 5.28533 23.258 5.33867 23.2473 5.392C23.2367 5.456 23.194 5.51467 23.1193 5.568C23.0553 5.61067 22.986 5.632 22.9113 5.632C22.7087 5.632 22.522 5.584 22.3513 5.488C22.1913 5.392 22.1113 5.232 22.1113 5.008C22.1113 4.88 22.1327 4.768 22.1753 4.672C22.314 4.34133 22.538 4.06933 22.8473 3.856C23.1567 3.632 23.498 3.46133 23.8713 3.344C24.2553 3.22667 24.6127 3.168 24.9433 3.168C25.5193 3.168 26.042 3.27467 26.5113 3.488C26.9807 3.70133 27.354 4.016 27.6313 4.432C27.9193 4.83733 28.0633 5.34933 28.0633 5.968C28.0633 6.66133 28.058 7.36 28.0473 8.064C28.0473 8.768 28.0687 9.472 28.1113 10.176C28.122 10.4107 28.17 10.6187 28.2553 10.8C28.3407 10.9707 28.5167 11.056 28.7833 11.056C28.922 11.056 29.066 11.024 29.2153 10.96C29.3753 10.8853 29.4767 10.848 29.5193 10.848C29.5513 10.848 29.5673 10.8747 29.5673 10.928Z" fill="white"/>
</svg>
