<svg width="60" height="10" viewBox="0 0 60 10" fill="none" xmlns="http://www.w3.org/2000/svg">
<path d="M4.22397 4.60906C4.22397 4.3964 4.21663 4.13606 4.20197 3.82806C4.19463 3.51273 4.16897 3.18273 4.12497 2.83806C4.08097 2.4934 4.00397 2.17073 3.89397 1.87006C3.78397 1.5694 3.63363 1.3274 3.44297 1.14406C3.2523 0.953398 3.00297 0.858064 2.69496 0.858064C2.4163 0.858064 2.18163 0.957064 1.99096 1.15506C1.8003 1.34573 1.6463 1.59873 1.52896 1.91406C1.41163 2.22206 1.31996 2.55206 1.25396 2.90406C1.1953 3.24873 1.15496 3.5824 1.13296 3.90506C1.11096 4.2204 1.09996 4.47706 1.09996 4.67506C1.09996 4.87306 1.1073 5.1224 1.12196 5.42306C1.14396 5.7164 1.18063 6.02806 1.23196 6.35806C1.2833 6.68073 1.36396 6.98506 1.47396 7.27106C1.5913 7.55706 1.74163 7.79173 1.92496 7.97506C2.1083 8.15106 2.3393 8.23906 2.61796 8.23906C2.9113 8.23906 3.1533 8.15106 3.34397 7.97506C3.53463 7.79173 3.68863 7.55706 3.80597 7.27106C3.9233 6.97773 4.0113 6.66606 4.06997 6.33606C4.13597 5.99873 4.1763 5.67973 4.19096 5.37906C4.21297 5.07106 4.22397 4.8144 4.22397 4.60906ZM5.36797 4.46606C5.36797 4.8034 5.33497 5.15906 5.26897 5.53306C5.2103 5.90706 5.11496 6.27373 4.98296 6.63306C4.85097 6.9924 4.67497 7.31873 4.45497 7.61206C4.2423 7.9054 3.98197 8.14006 3.67397 8.31606C3.36597 8.48473 3.00663 8.56906 2.59596 8.56906C2.10463 8.56906 1.6903 8.44806 1.35296 8.20606C1.02296 7.95673 0.758965 7.63773 0.560965 7.24906C0.362965 6.8604 0.219965 6.44606 0.131965 6.00606C0.0439649 5.55873 -3.51258e-05 5.13706 -3.51258e-05 4.74106C-3.51258e-05 4.40373 0.0292982 4.0444 0.0879649 3.66306C0.146632 3.2744 0.241965 2.89673 0.373965 2.53006C0.505965 2.1634 0.678298 1.82973 0.890965 1.52906C1.11096 1.2284 1.37496 0.990064 1.68296 0.814064C1.9983 0.630731 2.36496 0.539064 2.78297 0.539064C3.17896 0.539064 3.51996 0.623397 3.80597 0.792064C4.0993 0.960731 4.34496 1.1844 4.54297 1.46306C4.7483 1.74173 4.90963 2.0534 5.02697 2.39806C5.1443 2.74273 5.22863 3.09473 5.27997 3.45406C5.33863 3.80606 5.36797 4.1434 5.36797 4.46606ZM10.7122 4.60906C10.7122 4.3964 10.7049 4.13606 10.6902 3.82806C10.6829 3.51273 10.6572 3.18273 10.6132 2.83806C10.5692 2.4934 10.4922 2.17073 10.3822 1.87006C10.2722 1.5694 10.1219 1.3274 9.93125 1.14406C9.74058 0.953398 9.49125 0.858064 9.18325 0.858064C8.90458 0.858064 8.66991 0.957064 8.47925 1.15506C8.28858 1.34573 8.13458 1.59873 8.01725 1.91406C7.89991 2.22206 7.80825 2.55206 7.74225 2.90406C7.68358 3.24873 7.64325 3.5824 7.62125 3.90506C7.59925 4.2204 7.58825 4.47706 7.58825 4.67506C7.58825 4.87306 7.59558 5.1224 7.61025 5.42306C7.63225 5.7164 7.66891 6.02806 7.72025 6.35806C7.77158 6.68073 7.85225 6.98506 7.96225 7.27106C8.07958 7.55706 8.22991 7.79173 8.41325 7.97506C8.59658 8.15106 8.82758 8.23906 9.10625 8.23906C9.39958 8.23906 9.64158 8.15106 9.83225 7.97506C10.0229 7.79173 10.1769 7.55706 10.2942 7.27106C10.4116 6.97773 10.4996 6.66606 10.5582 6.33606C10.6242 5.99873 10.6646 5.67973 10.6792 5.37906C10.7012 5.07106 10.7122 4.8144 10.7122 4.60906ZM11.8562 4.46606C11.8562 4.8034 11.8232 5.15906 11.7572 5.53306C11.6986 5.90706 11.6032 6.27373 11.4712 6.63306C11.3392 6.9924 11.1632 7.31873 10.9432 7.61206C10.7306 7.9054 10.4702 8.14006 10.1622 8.31606C9.85425 8.48473 9.49491 8.56906 9.08425 8.56906C8.59291 8.56906 8.17858 8.44806 7.84125 8.20606C7.51125 7.95673 7.24725 7.63773 7.04925 7.24906C6.85125 6.8604 6.70825 6.44606 6.62025 6.00606C6.53225 5.55873 6.48825 5.13706 6.48825 4.74106C6.48825 4.40373 6.51758 4.0444 6.57625 3.66306C6.63491 3.2744 6.73025 2.89673 6.86225 2.53006C6.99425 2.1634 7.16658 1.82973 7.37925 1.52906C7.59925 1.2284 7.86325 0.990064 8.17125 0.814064C8.48658 0.630731 8.85325 0.539064 9.27125 0.539064C9.66725 0.539064 10.0082 0.623397 10.2942 0.792064C10.5876 0.960731 10.8332 1.1844 11.0312 1.46306C11.2366 1.74173 11.3979 2.0534 11.5152 2.39806C11.6326 2.74273 11.7169 3.09473 11.7682 3.45406C11.8269 3.80606 11.8562 4.1434 11.8562 4.46606ZM17.2335 3.32206C17.2335 3.2414 17.2335 3.16073 17.2335 3.08006C17.2335 2.99206 17.2299 2.90773 17.2225 2.82706C17.2079 2.5264 17.1419 2.22573 17.0245 1.92506C16.9072 1.61706 16.7349 1.3604 16.5075 1.15506C16.2802 0.942397 15.9942 0.836064 15.6495 0.836064C15.2609 0.836064 14.9529 0.942397 14.7255 1.15506C14.4982 1.36773 14.3332 1.6354 14.2305 1.95806C14.1352 2.28073 14.0875 2.60706 14.0875 2.93706C14.0875 3.1864 14.1022 3.44306 14.1315 3.70706C14.1609 3.96373 14.2232 4.20573 14.3185 4.43306C14.4139 4.65306 14.5569 4.83273 14.7475 4.97206C14.9382 5.10406 15.1912 5.17006 15.5065 5.17006C15.6679 5.17006 15.8512 5.14073 16.0565 5.08206C16.2692 5.0234 16.4672 4.93906 16.6505 4.82906C16.8339 4.71906 16.9695 4.59073 17.0575 4.44406C17.1602 4.2754 17.2152 4.09573 17.2225 3.90506C17.2299 3.70706 17.2335 3.51273 17.2335 3.32206ZM18.3005 3.83906C18.3005 4.0884 18.2675 4.35606 18.2015 4.64206C18.1429 4.92073 18.0695 5.1774 17.9815 5.41206C17.6075 6.41673 17.0539 7.21973 16.3205 7.82106C15.5872 8.4224 14.7072 8.8624 13.6805 9.14106C13.6732 9.14106 13.6659 9.14106 13.6585 9.14106C13.6585 9.14106 13.6549 9.14106 13.6475 9.14106C13.5815 9.14106 13.5485 9.11173 13.5485 9.05306C13.5485 9.0164 13.5632 8.99073 13.5925 8.97606C13.6219 8.9614 13.6512 8.9504 13.6805 8.94306C14.0179 8.7964 14.3515 8.63873 14.6815 8.47006C15.0115 8.3014 15.3049 8.08506 15.5615 7.82106C15.7962 7.5864 16.0199 7.3114 16.2325 6.99606C16.4525 6.68073 16.6395 6.35073 16.7935 6.00606C16.9475 5.65406 17.0392 5.31306 17.0685 4.98306C16.8119 5.15173 16.5369 5.29106 16.2435 5.40106C15.9502 5.51106 15.6459 5.56606 15.3305 5.56606C14.8539 5.56606 14.4395 5.47073 14.0875 5.28006C13.7355 5.08206 13.4605 4.80706 13.2625 4.45506C13.0719 4.09573 12.9765 3.67773 12.9765 3.20106C12.9765 2.62173 13.0975 2.13406 13.3395 1.73806C13.5815 1.34206 13.9152 1.0414 14.3405 0.836064C14.7732 0.630731 15.2645 0.528064 15.8145 0.528064C16.2105 0.528064 16.5735 0.627064 16.9035 0.825064C17.2335 1.02306 17.5122 1.2834 17.7395 1.60606C17.9669 1.9214 18.1209 2.2624 18.2015 2.62906C18.2455 2.82706 18.2712 3.02873 18.2785 3.23406C18.2932 3.43206 18.3005 3.63373 18.3005 3.83906ZM24.8438 6.89706C24.8438 6.91173 24.8291 6.95206 24.7998 7.01806C24.7778 7.07673 24.7631 7.11706 24.7558 7.13906C24.7265 7.2124 24.6971 7.28573 24.6678 7.35906C24.6458 7.4324 24.6238 7.50573 24.6018 7.57906C24.5651 7.7184 24.5321 7.85773 24.5028 7.99706C24.4735 8.1364 24.4405 8.27206 24.4038 8.40406C24.3671 8.50673 24.3048 8.55806 24.2168 8.55806C24.0115 8.55806 23.7695 8.55073 23.4908 8.53606C23.2121 8.5214 22.9738 8.51406 22.7758 8.51406C22.3871 8.51406 22.0241 8.51773 21.6868 8.52506C21.3568 8.52506 21.0231 8.52873 20.6858 8.53606C20.5171 8.53606 20.3448 8.5434 20.1688 8.55806C20.0001 8.5654 19.8315 8.56906 19.6628 8.56906C19.6261 8.56906 19.5858 8.55806 19.5418 8.53606C19.4978 8.51406 19.4758 8.4774 19.4758 8.42606C19.4758 8.15473 19.5381 7.8944 19.6628 7.64506C19.7801 7.41773 19.9488 7.16473 20.1688 6.88606C20.3961 6.6074 20.6455 6.32506 20.9168 6.03906C21.1881 5.75306 21.4521 5.48173 21.7088 5.22506C21.9728 4.9684 22.2001 4.7484 22.3908 4.56506C22.6548 4.3084 22.8821 4.0004 23.0728 3.64106C23.2635 3.2744 23.3588 2.90406 23.3588 2.53006C23.3588 2.2514 23.3221 1.99106 23.2488 1.74906C23.1828 1.49973 23.0618 1.29806 22.8858 1.14406C22.7098 0.990064 22.4605 0.913064 22.1378 0.913064C21.8591 0.913064 21.6098 0.960731 21.3898 1.05606C21.1771 1.14406 20.9901 1.31273 20.8288 1.56206C20.7261 1.7234 20.6601 1.91406 20.6308 2.13406C20.6088 2.34673 20.5905 2.5484 20.5758 2.73906C20.5685 2.9884 20.4291 3.11306 20.1578 3.11306C19.7691 3.11306 19.5748 2.92973 19.5748 2.56306C19.5748 2.2184 19.6628 1.9214 19.8388 1.67206C20.0221 1.42273 20.2531 1.2174 20.5318 1.05606C20.8178 0.894731 21.1221 0.773731 21.4448 0.693064C21.7675 0.612397 22.0718 0.572064 22.3578 0.572064C22.7171 0.572064 23.0618 0.649064 23.3918 0.803064C23.7291 0.957064 24.0041 1.17706 24.2168 1.46306C24.4295 1.74173 24.5358 2.0754 24.5358 2.46406C24.5358 2.94806 24.4441 3.3624 24.2608 3.70706C24.0775 4.05173 23.8355 4.35606 23.5348 4.62006C23.2415 4.88406 22.9225 5.12973 22.5778 5.35706C22.2331 5.57706 21.8958 5.80806 21.5658 6.05006C21.3385 6.21873 21.1185 6.41306 20.9058 6.63306C20.7005 6.84573 20.5061 7.06206 20.3228 7.28206C20.2935 7.32606 20.2458 7.39206 20.1798 7.48006C20.1211 7.56806 20.0918 7.6414 20.0918 7.70006C20.0918 7.75873 20.1211 7.78806 20.1798 7.78806C20.6198 7.78806 21.0598 7.78073 21.4998 7.76606C21.9398 7.74406 22.3835 7.7294 22.8308 7.72206C23.2415 7.71473 23.5825 7.6524 23.8538 7.53506C24.1325 7.41773 24.3965 7.1904 24.6458 6.85306C24.6678 6.82373 24.6935 6.80906 24.7228 6.80906C24.7448 6.80906 24.7705 6.82006 24.7998 6.84206C24.8291 6.85673 24.8438 6.87506 24.8438 6.89706ZM29.1321 2.84906C29.1321 2.66573 29.1284 2.4824 29.1211 2.29906C29.1211 2.11573 29.1211 1.9324 29.1211 1.74906L26.2941 5.83006H29.1211C29.1211 5.3314 29.1211 4.83273 29.1211 4.33406C29.1284 3.8354 29.1321 3.3404 29.1321 2.84906ZM31.6401 5.46706C31.6401 5.48173 31.6291 5.52573 31.6071 5.59906C31.5924 5.66506 31.5814 5.71273 31.5741 5.74206C31.5521 5.82273 31.5264 5.91073 31.4971 6.00606C31.4751 6.1014 31.4568 6.1894 31.4421 6.27006C31.4348 6.3214 31.4128 6.35073 31.3761 6.35806C31.3394 6.35806 31.2991 6.35806 31.2551 6.35806H30.1771C30.1771 6.5634 30.1771 6.76873 30.1771 6.97406C30.1844 7.1794 30.1881 7.3884 30.1881 7.60106V7.99706C30.1881 8.10706 30.2284 8.1804 30.3091 8.21706C30.3971 8.25373 30.4961 8.27573 30.6061 8.28306C30.7161 8.28306 30.8041 8.28306 30.8701 8.28306C30.9214 8.28306 30.9728 8.2794 31.0241 8.27206C31.0828 8.26473 31.1378 8.26106 31.1891 8.26106C31.2404 8.26106 31.2698 8.28306 31.2771 8.32706C31.2844 8.36373 31.2881 8.4004 31.2881 8.43706C31.2881 8.4664 31.2808 8.50306 31.2661 8.54706C31.2588 8.58373 31.2368 8.60206 31.2001 8.60206C31.1708 8.60206 31.1378 8.60206 31.1011 8.60206C31.0718 8.60206 31.0388 8.5984 31.0021 8.59106C30.7821 8.5764 30.5584 8.5654 30.3311 8.55806C30.1111 8.55073 29.8948 8.54706 29.6821 8.54706C29.4914 8.54706 29.2971 8.55073 29.0991 8.55806C28.9084 8.5654 28.7178 8.57273 28.5271 8.58006C28.4611 8.5874 28.3951 8.59106 28.3291 8.59106C28.2631 8.5984 28.2008 8.60206 28.1421 8.60206C28.0834 8.60206 28.0468 8.5874 28.0321 8.55806C28.0174 8.5214 28.0101 8.4774 28.0101 8.42606C28.0101 8.3894 28.0138 8.3564 28.0211 8.32706C28.0358 8.2904 28.0688 8.27206 28.1201 8.27206C28.1568 8.27206 28.1934 8.27573 28.2301 8.28306C28.2741 8.28306 28.3144 8.28306 28.3511 8.28306C28.4318 8.28306 28.5308 8.28306 28.6481 8.28306C28.7728 8.28306 28.8791 8.26473 28.9671 8.22806C29.0624 8.18406 29.1101 8.10706 29.1101 7.99706V6.35806H25.8321C25.7808 6.35806 25.7331 6.34706 25.6891 6.32506C25.6524 6.29573 25.6341 6.2554 25.6341 6.20406C25.6341 6.1454 25.6488 6.09406 25.6781 6.05006C25.6854 6.0354 25.6928 6.02073 25.7001 6.00606C25.7074 5.9914 25.7148 5.9804 25.7221 5.97306C26.3308 5.09306 26.9431 4.2094 27.5591 3.32206C28.1824 2.43473 28.7874 1.54373 29.3741 0.649064C29.3961 0.605064 29.4218 0.568397 29.4511 0.539064C29.4731 0.502397 29.5061 0.484064 29.5501 0.484064H30.1331C30.1478 0.484064 30.1698 0.487731 30.1991 0.495064C30.2284 0.495064 30.2394 0.506064 30.2321 0.528064L30.1881 0.649064V5.83006H30.8591C30.9544 5.83006 31.0498 5.8154 31.1451 5.78606C31.2478 5.7494 31.3284 5.6944 31.3871 5.62106C31.4018 5.6064 31.4164 5.58073 31.4311 5.54406C31.4531 5.50006 31.4678 5.47073 31.4751 5.45606C31.4971 5.4194 31.5228 5.40106 31.5521 5.40106C31.6108 5.40106 31.6401 5.42306 31.6401 5.46706ZM39.3824 2.59606C39.3824 2.69873 39.3384 2.75006 39.2504 2.75006C39.221 2.75006 39.1954 2.75006 39.1734 2.75006C39.1514 2.74273 39.133 2.7244 39.1184 2.69506C39.111 2.6804 39.1 2.6474 39.0854 2.59606C39.078 2.5374 39.0744 2.49706 39.0744 2.47506C39.0377 2.25506 38.9827 2.01306 38.9094 1.74906C38.8434 1.47773 38.737 1.25773 38.5904 1.08906C38.517 1.00106 38.3924 0.942398 38.2164 0.913064C38.0404 0.883731 37.8607 0.869064 37.6774 0.869064C37.494 0.869064 37.351 0.869064 37.2484 0.869064C37.1384 0.869064 37.0027 0.869064 36.8414 0.869064C36.6874 0.869064 36.548 0.898398 36.4234 0.957064C36.306 1.01573 36.2474 1.13306 36.2474 1.30906C36.2474 2.4164 36.251 3.5274 36.2584 4.64206C36.273 5.7494 36.2804 6.8604 36.2804 7.97506C36.2804 8.0704 36.3207 8.14373 36.4014 8.19506C36.482 8.23906 36.5737 8.2684 36.6764 8.28306C36.779 8.29773 36.8634 8.30506 36.9294 8.30506C36.988 8.30506 37.0394 8.30506 37.0834 8.30506C37.1347 8.29773 37.186 8.29406 37.2374 8.29406C37.3107 8.29406 37.3474 8.32706 37.3474 8.39306C37.3474 8.4224 37.3474 8.4664 37.3474 8.52506C37.3474 8.5764 37.3217 8.60206 37.2704 8.60206C37.0064 8.60206 36.7424 8.5984 36.4784 8.59106C36.2217 8.5764 35.9614 8.56906 35.6974 8.56906C35.3454 8.56906 34.986 8.58006 34.6194 8.60206C34.5387 8.60206 34.4544 8.60573 34.3664 8.61306C34.2784 8.6204 34.194 8.62406 34.1134 8.62406C34.0474 8.62406 34.0144 8.58373 34.0144 8.50306C34.0144 8.41506 34.0254 8.36006 34.0474 8.33806C34.0694 8.31606 34.1207 8.30506 34.2014 8.30506C34.216 8.30506 34.2307 8.30873 34.2454 8.31606C34.2674 8.31606 34.282 8.31606 34.2894 8.31606C34.37 8.31606 34.4727 8.30873 34.5974 8.29406C34.722 8.2794 34.832 8.25006 34.9274 8.20606C35.03 8.15473 35.0814 8.07773 35.0814 7.97506C35.0887 7.4104 35.0924 6.84573 35.0924 6.28106C35.0997 5.7164 35.1034 5.15173 35.1034 4.58706C35.1034 4.02973 35.0997 3.47606 35.0924 2.92606C35.085 2.36873 35.0814 1.8114 35.0814 1.25406C35.0814 1.16606 35.0447 1.0854 34.9714 1.01206C34.9054 0.938731 34.832 0.898397 34.7514 0.891064C34.6854 0.876397 34.6157 0.869064 34.5424 0.869064C34.4764 0.869064 34.4067 0.869064 34.3334 0.869064H33.3544C33.0904 0.869064 32.8924 0.935064 32.7604 1.06706C32.6357 1.19173 32.5477 1.35673 32.4964 1.56206C32.445 1.76006 32.3974 1.9654 32.3534 2.17806C32.3534 2.19273 32.3424 2.24406 32.3204 2.33206C32.3057 2.41273 32.2874 2.4934 32.2654 2.57406C32.2507 2.6474 32.2397 2.68773 32.2324 2.69506C32.203 2.73173 32.159 2.75006 32.1004 2.75006C32.0197 2.75006 31.9794 2.70973 31.9794 2.62906C31.9794 2.59973 31.9794 2.56306 31.9794 2.51906C31.9867 2.46773 31.994 2.40906 32.0014 2.34306C32.016 2.1744 32.027 1.97273 32.0344 1.73806C32.049 1.49606 32.06 1.2724 32.0674 1.06706C32.0747 0.993731 32.0784 0.920398 32.0784 0.847064C32.0784 0.773731 32.082 0.707731 32.0894 0.649064C32.0894 0.546397 32.1517 0.502397 32.2764 0.517064C32.8117 0.568397 33.3507 0.594064 33.8934 0.594064C34.4434 0.586731 34.986 0.583064 35.5214 0.583064H36.4564C36.757 0.583064 37.0577 0.583064 37.3584 0.583064C37.6664 0.575731 37.9744 0.568397 38.2824 0.561064C38.4144 0.553731 38.55 0.550064 38.6894 0.550064C38.836 0.542731 38.979 0.539064 39.1184 0.539064C39.2137 0.539064 39.2687 0.575731 39.2834 0.649064C39.2907 0.671064 39.298 0.751731 39.3054 0.891064C39.3127 1.02306 39.32 1.17706 39.3274 1.35306C39.3347 1.52173 39.3384 1.68306 39.3384 1.83706C39.3457 1.98373 39.3494 2.0864 39.3494 2.14506C39.3567 2.2184 39.364 2.29173 39.3714 2.36506C39.3787 2.4384 39.3824 2.5154 39.3824 2.59606ZM47.1751 0.682064C47.1751 0.748064 47.1568 0.792064 47.1201 0.814064C47.0834 0.828731 47.0358 0.836064 46.9771 0.836064C46.9478 0.836064 46.9184 0.836064 46.8891 0.836064C46.8598 0.828731 46.8304 0.825064 46.8011 0.825064C46.7498 0.825064 46.6838 0.828731 46.6031 0.836064C46.5224 0.843397 46.4601 0.858064 46.4161 0.880064C46.3648 0.902064 46.3134 0.946064 46.2621 1.01206C46.2108 1.07073 46.1668 1.1294 46.1301 1.18806C45.7561 1.82606 45.3858 2.46773 45.0191 3.11306C44.6524 3.75106 44.2821 4.38906 43.9081 5.02706C43.9081 5.1444 43.9044 5.26173 43.8971 5.37906C43.8971 5.4964 43.8971 5.61373 43.8971 5.73106V7.68906C43.8971 7.84306 43.9154 7.98973 43.9521 8.12906C43.9888 8.2684 44.1061 8.33806 44.3041 8.33806C44.4141 8.33806 44.5204 8.3344 44.6231 8.32706C44.7331 8.3124 44.8394 8.30506 44.9421 8.30506C45.0008 8.30506 45.0301 8.3454 45.0301 8.42606C45.0301 8.4774 45.0228 8.5214 45.0081 8.55806C44.9934 8.5874 44.9531 8.60206 44.8871 8.60206C44.6964 8.60206 44.5058 8.5984 44.3151 8.59106C44.1244 8.58373 43.9338 8.58006 43.7431 8.58006C43.4131 8.58006 43.0831 8.58373 42.7531 8.59106C42.4231 8.60573 42.0968 8.61306 41.7741 8.61306C41.6714 8.61306 41.6201 8.55806 41.6201 8.44806C41.6201 8.4114 41.6384 8.38206 41.6751 8.36006C41.7191 8.33806 41.7558 8.32706 41.7851 8.32706C41.8658 8.32706 41.9464 8.33073 42.0271 8.33806C42.1078 8.33806 42.1884 8.33806 42.2691 8.33806C42.3718 8.33806 42.4781 8.3234 42.5881 8.29406C42.6981 8.2574 42.7531 8.17673 42.7531 8.05206V6.11606C42.7531 5.7934 42.7238 5.50373 42.6651 5.24706C42.6064 4.9904 42.5038 4.71906 42.3571 4.43306C42.2398 4.18373 42.1078 3.91973 41.9611 3.64106C41.8144 3.35506 41.6678 3.0764 41.5211 2.80506C41.3744 2.53373 41.2351 2.28806 41.1031 2.06806C40.9784 1.84073 40.8758 1.66106 40.7951 1.52906C40.7584 1.45573 40.7144 1.38606 40.6631 1.32006C40.6191 1.25406 40.5714 1.18806 40.5201 1.12206C40.4028 0.990064 40.2488 0.924064 40.0581 0.924064C39.9921 0.924064 39.9224 0.927731 39.8491 0.935064C39.7831 0.942397 39.7134 0.946064 39.6401 0.946064C39.5521 0.946064 39.5081 0.902064 39.5081 0.814064C39.5081 0.755397 39.5154 0.715064 39.5301 0.693064C39.5521 0.671064 39.5961 0.656397 39.6621 0.649064C39.7354 0.641731 39.8124 0.634397 39.8931 0.627064C39.9738 0.619731 40.0508 0.612398 40.1241 0.605064C40.2488 0.590397 40.3844 0.575731 40.5311 0.561064C40.6778 0.539064 40.7988 0.524397 40.8941 0.517064C40.9601 0.502397 41.0298 0.491397 41.1031 0.484064C41.1838 0.476731 41.2534 0.473064 41.3121 0.473064C41.3854 0.473064 41.4404 0.487731 41.4771 0.517064C41.5138 0.546398 41.5468 0.594064 41.5761 0.660064C41.6201 0.733398 41.6604 0.803064 41.6971 0.869064C41.7338 0.935064 41.7704 1.00473 41.8071 1.07806C42.1298 1.6794 42.4414 2.29173 42.7421 2.91506C43.0428 3.53106 43.3361 4.15073 43.6221 4.77406C43.6734 4.6934 43.7541 4.55406 43.8641 4.35606C43.9814 4.15806 44.1171 3.9234 44.2711 3.65206C44.4251 3.38073 44.5828 3.10206 44.7441 2.81606C44.9054 2.52273 45.0558 2.24406 45.1951 1.98006C45.3344 1.71606 45.4444 1.4924 45.5251 1.30906C45.6131 1.12573 45.6571 1.00473 45.6571 0.946064C45.6571 0.880064 45.6351 0.839731 45.5911 0.825064C45.5471 0.803064 45.4958 0.792064 45.4371 0.792064C45.3418 0.792064 45.2464 0.795731 45.1511 0.803064C45.0631 0.810398 44.9714 0.814064 44.8761 0.814064C44.8321 0.814064 44.8028 0.799398 44.7881 0.770064C44.7734 0.733398 44.7661 0.696731 44.7661 0.660064C44.7661 0.594064 44.7844 0.557398 44.8211 0.550064C44.8578 0.535397 44.9018 0.528064 44.9531 0.528064C45.1438 0.528064 45.3381 0.531731 45.5361 0.539064C45.7341 0.546398 45.9284 0.550064 46.1191 0.550064C46.2731 0.550064 46.4271 0.546398 46.5811 0.539064C46.7351 0.531731 46.8928 0.528064 47.0541 0.528064C47.0908 0.528064 47.1201 0.546397 47.1421 0.583064C47.1641 0.612397 47.1751 0.645397 47.1751 0.682064ZM53.0311 5.74206C53.0311 6.08673 52.9614 6.4534 52.8221 6.84206C52.6827 7.23073 52.4811 7.5424 52.2171 7.77706C51.9237 8.03373 51.5717 8.23173 51.1611 8.37106C50.7504 8.5104 50.3507 8.58006 49.9621 8.58006C49.7787 8.58006 49.5587 8.55806 49.3021 8.51406C49.0454 8.46273 48.7924 8.3894 48.5431 8.29406C48.2937 8.1914 48.0847 8.0594 47.9161 7.89806C47.7474 7.7294 47.6631 7.52773 47.6631 7.29306C47.6631 7.13173 47.7181 7.00706 47.8281 6.91906C47.9381 6.82373 48.0701 6.77606 48.2241 6.77606C48.3561 6.77606 48.4734 6.80906 48.5761 6.87506C48.6787 6.94106 48.7337 7.0474 48.7411 7.19406C48.7704 7.5314 48.8657 7.79173 49.0271 7.97506C49.1957 8.1584 49.4597 8.25006 49.8191 8.25006C50.3251 8.25006 50.7357 8.13273 51.0511 7.89806C51.3664 7.65606 51.6011 7.29306 51.7551 6.80906C51.8064 6.6404 51.8357 6.46806 51.8431 6.29206C51.8577 6.10873 51.8651 5.92906 51.8651 5.75306C51.8651 5.51106 51.8357 5.25073 51.7771 4.97206C51.7257 4.68606 51.6267 4.44406 51.4801 4.24606C51.3554 4.0774 51.1941 3.96373 50.9961 3.90506C50.8054 3.8464 50.6074 3.81706 50.4021 3.81706C50.2407 3.81706 50.0647 3.8464 49.8741 3.90506C49.6834 3.9564 49.5257 4.0334 49.4011 4.13606C49.2764 4.23873 49.1627 4.37073 49.0601 4.53206C48.9574 4.68606 48.8987 4.8474 48.8841 5.01606C48.8767 5.06006 48.8694 5.11506 48.8621 5.18106C48.8547 5.24706 48.8181 5.28006 48.7521 5.28006C48.7154 5.28006 48.6384 5.2654 48.5211 5.23606C48.4111 5.1994 48.3047 5.15906 48.2021 5.11506C48.1067 5.06373 48.0591 5.01973 48.0591 4.98306C48.0591 4.96106 48.0627 4.93906 48.0701 4.91706C48.0774 4.89506 48.0847 4.87306 48.0921 4.85106C48.1434 4.6824 48.1837 4.4734 48.2131 4.22406C48.2497 3.9674 48.2754 3.69973 48.2901 3.42106C48.3047 3.13506 48.3157 2.86006 48.3231 2.59606C48.3304 2.33206 48.3341 2.1084 48.3341 1.92506C48.3341 1.4924 48.3121 1.05606 48.2681 0.616064C48.4954 0.645398 48.7191 0.667398 48.9391 0.682064C49.1664 0.696731 49.3937 0.704064 49.6211 0.704064H51.1941C51.3847 0.704064 51.6047 0.693064 51.8541 0.671064C52.1107 0.649064 52.3234 0.590397 52.4921 0.495064C52.5287 0.473064 52.5691 0.451064 52.6131 0.429064C52.6644 0.399731 52.7084 0.385064 52.7451 0.385064C52.7671 0.385064 52.8001 0.388731 52.8441 0.396064C52.8881 0.396064 52.9101 0.414397 52.9101 0.451064C52.9101 0.487731 52.8844 0.564731 52.8331 0.682064C52.7817 0.792064 52.7267 0.905731 52.6681 1.02306C52.6094 1.1404 52.5691 1.2174 52.5471 1.25406C52.5177 1.3054 52.4811 1.3384 52.4371 1.35306C52.3931 1.36773 52.3417 1.37506 52.2831 1.37506C52.1877 1.37506 52.0887 1.37506 51.9861 1.37506C51.8907 1.36773 51.7917 1.3604 51.6891 1.35306C51.5644 1.3384 51.4361 1.33473 51.3041 1.34206C51.1721 1.34206 51.0437 1.34206 50.9191 1.34206C50.7137 1.34206 50.5084 1.34206 50.3031 1.34206C50.0977 1.33473 49.8887 1.33106 49.6761 1.33106C49.5514 1.33106 49.4231 1.33106 49.2911 1.33106C49.1664 1.33106 49.0417 1.33473 48.9171 1.34206C48.9097 1.80406 48.8914 2.26973 48.8621 2.73906C48.8401 3.20106 48.8181 3.66306 48.7961 4.12506C49.1334 3.8904 49.4451 3.71806 49.7311 3.60806C50.0244 3.49073 50.3764 3.43206 50.7871 3.43206C51.0657 3.43206 51.3334 3.4724 51.5901 3.55306C51.8541 3.63373 52.0887 3.7694 52.2941 3.96006C52.5287 4.18006 52.7084 4.4514 52.8331 4.77406C52.9651 5.09673 53.0311 5.4194 53.0311 5.74206ZM58.3973 6.20406C58.3973 5.95473 58.3827 5.70173 58.3533 5.44506C58.324 5.18106 58.2617 4.93906 58.1663 4.71906C58.071 4.49173 57.928 4.31206 57.7373 4.18006C57.554 4.04073 57.301 3.97106 56.9783 3.97106C56.817 3.97106 56.63 4.0004 56.4173 4.05906C56.212 4.11773 56.0177 4.20206 55.8343 4.31206C55.651 4.42206 55.5153 4.5504 55.4273 4.69706C55.332 4.86573 55.277 5.04906 55.2623 5.24706C55.255 5.43773 55.2513 5.6284 55.2513 5.81906C55.2513 5.89973 55.2513 5.98406 55.2513 6.07206C55.2513 6.15273 55.255 6.2334 55.2623 6.31406C55.277 6.6074 55.343 6.90806 55.4603 7.21606C55.5777 7.52406 55.75 7.78073 55.9773 7.98606C56.2047 8.1914 56.4907 8.29406 56.8353 8.29406C57.224 8.29406 57.532 8.18773 57.7593 7.97506C57.9867 7.7624 58.148 7.4984 58.2433 7.18306C58.346 6.8604 58.3973 6.53406 58.3973 6.20406ZM59.5303 5.94006C59.5303 6.51206 59.4057 6.99606 59.1563 7.39206C58.907 7.78806 58.566 8.08873 58.1333 8.29406C57.708 8.4994 57.2167 8.60206 56.6593 8.60206C56.2707 8.60206 55.9113 8.50673 55.5813 8.31606C55.2513 8.11806 54.9727 7.8614 54.7453 7.54606C54.5253 7.2234 54.3713 6.87873 54.2833 6.51206C54.2393 6.31406 54.21 6.11606 54.1953 5.91806C54.188 5.71273 54.1843 5.5074 54.1843 5.30206C54.1843 5.0454 54.2137 4.77773 54.2723 4.49906C54.3383 4.2204 54.4153 3.96373 54.5033 3.72906C54.8773 2.71706 55.431 1.91406 56.1643 1.32006C56.8977 0.718731 57.7777 0.278731 58.8043 6.42538e-05C58.8117 6.42538e-05 58.8153 6.42538e-05 58.8153 6.42538e-05C58.8227 6.42538e-05 58.83 6.42538e-05 58.8373 6.42538e-05C58.896 6.42538e-05 58.9253 0.0257308 58.9253 0.0770639C58.9253 0.121064 58.9107 0.146731 58.8813 0.154064C58.8593 0.176064 58.8337 0.194397 58.8043 0.209064C58.775 0.216397 58.7457 0.227397 58.7163 0.242064C58.555 0.308064 58.3937 0.377731 58.2323 0.451064C58.071 0.524398 57.917 0.601397 57.7703 0.682064C57.6163 0.770064 57.466 0.869064 57.3193 0.979064C57.18 1.08173 57.048 1.1954 56.9233 1.32006C56.696 1.55473 56.4723 1.82973 56.2523 2.14506C56.0323 2.45306 55.8453 2.78306 55.6913 3.13506C55.5447 3.47973 55.453 3.82073 55.4163 4.15806C55.673 3.9894 55.948 3.85006 56.2413 3.74006C56.5347 3.63006 56.839 3.57506 57.1543 3.57506C57.873 3.57506 58.4487 3.7914 58.8813 4.22406C59.314 4.6494 59.5303 5.2214 59.5303 5.94006Z" fill="black"/>
</svg>
