<svg width="44" height="27" viewBox="0 0 44 27" fill="none" xmlns="http://www.w3.org/2000/svg">
<path d="M7.73999 7.44008C7.73999 7.48808 7.73599 7.53608 7.72799 7.58408C7.71999 7.63208 7.70399 7.67608 7.67999 7.71608C7.57599 7.96408 7.41199 8.20808 7.18799 8.44808C6.97199 8.68008 6.74799 8.87208 6.51599 9.02408C6.15599 9.26408 5.77199 9.43208 5.36399 9.52808C4.96399 9.62408 4.55199 9.67208 4.12799 9.67208C3.27199 9.67208 2.53199 9.49208 1.90799 9.13208C1.29199 8.76408 0.819992 8.25608 0.491992 7.60808C0.163992 6.96008 -7.7635e-06 6.21608 -7.7635e-06 5.37608C-7.7635e-06 4.75208 0.0919922 4.16808 0.275992 3.62408C0.459992 3.08008 0.727992 2.60408 1.07999 2.19608C1.43199 1.78008 1.86399 1.45608 2.37599 1.22408C2.88799 0.984082 3.47199 0.864082 4.12799 0.864082C4.44799 0.864082 4.75199 0.916082 5.03999 1.02008C5.33599 1.11608 5.63199 1.21608 5.92799 1.32008C6.09599 1.37608 6.26799 1.42008 6.44399 1.45208C6.62799 1.48408 6.80799 1.50808 6.98399 1.52408C6.99199 1.70008 7.00399 1.87608 7.01999 2.05208C7.03599 2.22008 7.05599 2.39208 7.07999 2.56808C7.10399 2.72808 7.13199 2.89208 7.16399 3.06008C7.20399 3.22008 7.22399 3.38408 7.22399 3.55208C7.22399 3.68008 7.19599 3.78408 7.13999 3.86408C7.09199 3.94408 6.99599 3.98408 6.85199 3.98408C6.77199 3.98408 6.71199 3.94008 6.67199 3.85208C6.63999 3.77208 6.61199 3.68808 6.58799 3.60008C6.57199 3.50408 6.55199 3.41608 6.52799 3.33608C6.46399 3.07208 6.35599 2.79608 6.20399 2.50808C6.05199 2.21208 5.86799 1.97608 5.65199 1.80008C5.55599 1.71208 5.41199 1.62408 5.21999 1.53608C5.03599 1.44808 4.84399 1.37608 4.64399 1.32008C4.45199 1.26408 4.28799 1.23608 4.15199 1.23608C3.91199 1.23608 3.66799 1.28008 3.41999 1.36808C3.17199 1.45608 2.95199 1.57208 2.75999 1.71608C2.39999 1.99608 2.11199 2.33608 1.89599 2.73608C1.67999 3.12808 1.52399 3.54808 1.42799 3.99608C1.33999 4.44408 1.29599 4.88808 1.29599 5.32808C1.29599 5.80808 1.35199 6.28008 1.46399 6.74408C1.57599 7.20008 1.75199 7.61208 1.99199 7.98008C2.23199 8.34808 2.54399 8.64408 2.92799 8.86808C3.31199 9.08408 3.77999 9.19208 4.33199 9.19208C4.56399 9.19208 4.82399 9.16008 5.11199 9.09608C5.39999 9.02408 5.64799 8.94408 5.85599 8.85608C6.10399 8.75208 6.33199 8.62008 6.53999 8.46008C6.74799 8.29208 6.93599 8.10408 7.10399 7.89608C7.11999 7.88008 7.15199 7.83208 7.19999 7.75208C7.25599 7.67208 7.31199 7.59208 7.36799 7.51208C7.42399 7.43208 7.45999 7.38408 7.47599 7.36808C7.51599 7.32008 7.55999 7.29608 7.60799 7.29608C7.69599 7.29608 7.73999 7.34408 7.73999 7.44008ZM12.3313 8.28008C12.2993 7.92008 12.2793 7.56008 12.2713 7.20008C12.2713 6.83208 12.2673 6.46408 12.2593 6.09608H12.0913C11.8433 6.09608 11.5673 6.13608 11.2633 6.21608C10.9673 6.28808 10.6833 6.40008 10.4113 6.55208C10.1393 6.70408 9.9153 6.89608 9.7393 7.12808C9.5713 7.35208 9.4873 7.61208 9.4873 7.90808C9.4873 8.29208 9.5953 8.58408 9.8113 8.78408C10.0273 8.97608 10.3193 9.07208 10.6873 9.07208C10.8633 9.07208 11.0553 9.03208 11.2633 8.95208C11.4713 8.86408 11.6713 8.76008 11.8633 8.64008C12.0553 8.52008 12.2113 8.40008 12.3313 8.28008ZM14.4313 9.04808C14.4313 9.08008 14.4273 9.10408 14.4193 9.12008C14.3393 9.29608 14.2033 9.43208 14.0113 9.52808C13.8273 9.61608 13.6433 9.66008 13.4593 9.66008C13.1233 9.66008 12.8793 9.56408 12.7273 9.37208C12.5833 9.17208 12.4673 8.92808 12.3793 8.64008C12.0753 8.92008 11.7393 9.15608 11.3713 9.34808C11.0033 9.53208 10.6073 9.62408 10.1833 9.62408C9.8873 9.62408 9.6073 9.56808 9.3433 9.45608C9.0873 9.33608 8.8793 9.16408 8.7193 8.94008C8.5593 8.71608 8.4793 8.44408 8.4793 8.12408C8.4793 7.78808 8.5633 7.50008 8.7313 7.26008C8.9073 7.01208 9.1273 6.80408 9.3913 6.63608C9.6633 6.46008 9.9513 6.32008 10.2553 6.21608C10.5673 6.10408 10.8593 6.02008 11.1313 5.96408C11.3153 5.92408 11.5033 5.88808 11.6953 5.85608C11.8873 5.82408 12.0753 5.79208 12.2593 5.76008C12.2593 5.53608 12.2473 5.27608 12.2233 4.98008C12.2073 4.68408 12.1473 4.44008 12.0433 4.24808C11.9393 4.06408 11.7993 3.90008 11.6233 3.75608C11.4473 3.61208 11.2513 3.54008 11.0353 3.54008C10.6673 3.54008 10.3793 3.63608 10.1713 3.82808C9.9633 4.02008 9.8153 4.29208 9.7273 4.64408C9.7193 4.68408 9.7113 4.72808 9.7033 4.77608C9.7033 4.81608 9.6993 4.85608 9.6913 4.89608C9.6833 4.94408 9.6513 4.98808 9.5953 5.02808C9.5473 5.06008 9.4953 5.07608 9.4393 5.07608C9.2873 5.07608 9.1473 5.04008 9.0193 4.96808C8.8993 4.89608 8.8393 4.77608 8.8393 4.60808C8.8393 4.51208 8.8553 4.42808 8.8873 4.35608C8.9913 4.10808 9.1593 3.90408 9.3913 3.74408C9.6233 3.57608 9.8793 3.44808 10.1593 3.36008C10.4473 3.27208 10.7153 3.22808 10.9633 3.22808C11.3953 3.22808 11.7873 3.30808 12.1393 3.46808C12.4913 3.62808 12.7713 3.86408 12.9793 4.17608C13.1953 4.48008 13.3033 4.86408 13.3033 5.32808C13.3033 5.84808 13.2993 6.37208 13.2913 6.90008C13.2913 7.42808 13.3073 7.95608 13.3393 8.48408C13.3473 8.66008 13.3833 8.81608 13.4473 8.95208C13.5113 9.08008 13.6433 9.14408 13.8433 9.14408C13.9473 9.14408 14.0553 9.12008 14.1673 9.07208C14.2873 9.01608 14.3633 8.98808 14.3953 8.98808C14.4193 8.98808 14.4313 9.00808 14.4313 9.04808ZM19.7346 4.34408C19.7346 4.42408 19.7026 4.50008 19.6386 4.57208C19.5826 4.63608 19.5106 4.66808 19.4226 4.66808C19.3026 4.66808 19.2146 4.62808 19.1586 4.54808C19.1106 4.46808 19.0666 4.37608 19.0266 4.27208C18.9946 4.16808 18.9426 4.07608 18.8706 3.99608C18.7986 3.91608 18.6786 3.87608 18.5106 3.87608C18.4786 3.87608 18.4466 3.87608 18.4146 3.87608C18.3906 3.87608 18.3626 3.88008 18.3306 3.88808C18.1946 3.91208 18.0466 3.99608 17.8866 4.14008C17.7266 4.28408 17.5706 4.45608 17.4186 4.65608C17.2746 4.84808 17.1546 5.04008 17.0586 5.23208C16.9626 5.42408 16.9106 5.58408 16.9026 5.71208C16.8946 5.84008 16.8906 5.96808 16.8906 6.09608C16.8906 6.21608 16.8906 6.33608 16.8906 6.45608C16.8906 6.88808 16.8906 7.32008 16.8906 7.75208C16.8986 8.18408 16.9026 8.61208 16.9026 9.03608C16.9026 9.15608 16.9506 9.24408 17.0466 9.30008C17.1506 9.34808 17.2546 9.37208 17.3586 9.37208C17.4386 9.37208 17.5186 9.36808 17.5986 9.36008C17.6786 9.35208 17.7586 9.34808 17.8386 9.34808C17.8786 9.34808 17.9066 9.36808 17.9226 9.40808C17.9386 9.44008 17.9466 9.47208 17.9466 9.50408C17.9466 9.63208 17.8826 9.69608 17.7546 9.69608C17.5146 9.69608 17.2746 9.69208 17.0346 9.68408C16.7946 9.66808 16.5546 9.66008 16.3146 9.66008C16.0666 9.66008 15.8146 9.66808 15.5586 9.68408C15.3106 9.70008 15.0586 9.70808 14.8026 9.70808C14.7706 9.70808 14.7466 9.68408 14.7306 9.63608C14.7226 9.58808 14.7186 9.54808 14.7186 9.51608C14.7186 9.43608 14.7506 9.39208 14.8146 9.38408C14.9026 9.36808 14.9946 9.36408 15.0906 9.37208C15.1866 9.38008 15.2746 9.38408 15.3546 9.38408C15.4746 9.38408 15.5706 9.36008 15.6426 9.31208C15.7226 9.25608 15.7666 9.16408 15.7746 9.03608C15.7906 8.78008 15.7986 8.52008 15.7986 8.25608C15.8066 7.99208 15.8106 7.72808 15.8106 7.46408V6.30008C15.8026 5.95608 15.7986 5.61608 15.7986 5.28008C15.8066 4.93608 15.7946 4.59608 15.7626 4.26008C15.7546 4.10008 15.7106 3.98808 15.6306 3.92408C15.5506 3.85208 15.4306 3.81608 15.2706 3.81608C15.2066 3.81608 15.1386 3.82408 15.0666 3.84008C15.0026 3.84808 14.9346 3.85208 14.8626 3.85208C14.7986 3.85208 14.7666 3.80408 14.7666 3.70808C14.7666 3.65208 14.7946 3.61208 14.8506 3.58808C14.9306 3.56408 15.0146 3.54808 15.1026 3.54008C15.1906 3.52408 15.2746 3.51208 15.3546 3.50408C15.5706 3.46408 15.7866 3.42408 16.0026 3.38408C16.2186 3.34408 16.4346 3.29608 16.6506 3.24008C16.7226 3.26408 16.7746 3.30808 16.8066 3.37208C16.8226 3.40408 16.8346 3.49208 16.8426 3.63608C16.8506 3.78008 16.8546 3.94808 16.8546 4.14008C16.8546 4.32408 16.8546 4.50008 16.8546 4.66808C16.8546 4.82808 16.8546 4.94008 16.8546 5.00408C17.0306 4.72408 17.2306 4.44408 17.4546 4.16408C17.6786 3.88408 17.9346 3.65208 18.2226 3.46808C18.5106 3.28408 18.8346 3.19208 19.1946 3.19208C19.3866 3.19208 19.5106 3.25208 19.5666 3.37208C19.6226 3.49208 19.6586 3.63208 19.6746 3.79208C19.6906 3.88008 19.7026 3.97208 19.7106 4.06808C19.7266 4.16408 19.7346 4.25608 19.7346 4.34408ZM24.2147 9.13208C24.2147 9.20408 24.1587 9.27608 24.0467 9.34808C23.9427 9.42008 23.8147 9.48408 23.6627 9.54008C23.5107 9.59608 23.3627 9.64008 23.2187 9.67208C23.0827 9.70408 22.9827 9.72008 22.9187 9.72008C22.5027 9.72008 22.1787 9.66808 21.9467 9.56408C21.7227 9.46008 21.5627 9.28808 21.4667 9.04808C21.3787 8.80808 21.3347 8.48408 21.3347 8.07608C21.3347 7.41208 21.3347 6.74808 21.3347 6.08408C21.3427 5.41208 21.3507 4.74408 21.3587 4.08008H20.4947C20.4387 4.08008 20.3907 4.09608 20.3507 4.12808C20.3187 4.15208 20.2827 4.16408 20.2427 4.16408C20.2027 4.16408 20.1827 4.13608 20.1827 4.08008C20.1827 4.04808 20.2027 3.98408 20.2427 3.88808C20.2907 3.79208 20.3227 3.72808 20.3387 3.69608C20.3627 3.70408 20.3987 3.70808 20.4467 3.70808H21.3827L21.3947 2.18408C21.5787 2.06408 21.7467 1.93208 21.8987 1.78808C22.0507 1.63608 22.2027 1.48408 22.3547 1.33208C22.3707 1.31608 22.3867 1.30408 22.4027 1.29608C22.4187 1.28008 22.4347 1.27208 22.4507 1.27208C22.5227 1.27208 22.5587 1.30008 22.5587 1.35608L22.4867 3.69608C22.7427 3.69608 22.9947 3.69208 23.2427 3.68408C23.4987 3.67608 23.7507 3.67208 23.9987 3.67208C24.1027 3.67208 24.1547 3.73208 24.1547 3.85208C24.1547 4.00408 24.0867 4.08008 23.9507 4.08008H22.4867C22.4867 4.68808 22.4827 5.30008 22.4747 5.91608C22.4747 6.52408 22.4747 7.13608 22.4747 7.75208V8.67608C22.4747 8.87608 22.5587 9.01608 22.7267 9.09608C22.8947 9.16808 23.0587 9.20408 23.2187 9.20408C23.4427 9.20408 23.6627 9.16808 23.8787 9.09608C23.9027 9.08008 23.9387 9.06408 23.9867 9.04808C24.0347 9.03208 24.0707 9.02408 24.0947 9.02408C24.1747 9.02408 24.2147 9.06008 24.2147 9.13208ZM28.6555 8.28008C28.6235 7.92008 28.6035 7.56008 28.5955 7.20008C28.5955 6.83208 28.5915 6.46408 28.5835 6.09608H28.4155C28.1675 6.09608 27.8915 6.13608 27.5875 6.21608C27.2915 6.28808 27.0075 6.40008 26.7355 6.55208C26.4635 6.70408 26.2395 6.89608 26.0635 7.12808C25.8955 7.35208 25.8115 7.61208 25.8115 7.90808C25.8115 8.29208 25.9195 8.58408 26.1355 8.78408C26.3515 8.97608 26.6435 9.07208 27.0115 9.07208C27.1875 9.07208 27.3795 9.03208 27.5875 8.95208C27.7955 8.86408 27.9955 8.76008 28.1875 8.64008C28.3795 8.52008 28.5355 8.40008 28.6555 8.28008ZM30.7555 9.04808C30.7555 9.08008 30.7515 9.10408 30.7435 9.12008C30.6635 9.29608 30.5275 9.43208 30.3355 9.52808C30.1515 9.61608 29.9675 9.66008 29.7835 9.66008C29.4475 9.66008 29.2035 9.56408 29.0515 9.37208C28.9075 9.17208 28.7915 8.92808 28.7035 8.64008C28.3995 8.92008 28.0635 9.15608 27.6955 9.34808C27.3275 9.53208 26.9315 9.62408 26.5075 9.62408C26.2115 9.62408 25.9315 9.56808 25.6675 9.45608C25.4115 9.33608 25.2035 9.16408 25.0435 8.94008C24.8835 8.71608 24.8035 8.44408 24.8035 8.12408C24.8035 7.78808 24.8875 7.50008 25.0555 7.26008C25.2315 7.01208 25.4515 6.80408 25.7155 6.63608C25.9875 6.46008 26.2755 6.32008 26.5795 6.21608C26.8915 6.10408 27.1835 6.02008 27.4555 5.96408C27.6395 5.92408 27.8275 5.88808 28.0195 5.85608C28.2115 5.82408 28.3995 5.79208 28.5835 5.76008C28.5835 5.53608 28.5715 5.27608 28.5475 4.98008C28.5315 4.68408 28.4715 4.44008 28.3675 4.24808C28.2635 4.06408 28.1235 3.90008 27.9475 3.75608C27.7715 3.61208 27.5755 3.54008 27.3595 3.54008C26.9915 3.54008 26.7035 3.63608 26.4955 3.82808C26.2875 4.02008 26.1395 4.29208 26.0515 4.64408C26.0435 4.68408 26.0355 4.72808 26.0275 4.77608C26.0275 4.81608 26.0235 4.85608 26.0155 4.89608C26.0075 4.94408 25.9755 4.98808 25.9195 5.02808C25.8715 5.06008 25.8195 5.07608 25.7635 5.07608C25.6115 5.07608 25.4715 5.04008 25.3435 4.96808C25.2235 4.89608 25.1635 4.77608 25.1635 4.60808C25.1635 4.51208 25.1795 4.42808 25.2115 4.35608C25.3155 4.10808 25.4835 3.90408 25.7155 3.74408C25.9475 3.57608 26.2035 3.44808 26.4835 3.36008C26.7715 3.27208 27.0395 3.22808 27.2875 3.22808C27.7195 3.22808 28.1115 3.30808 28.4635 3.46808C28.8155 3.62808 29.0955 3.86408 29.3035 4.17608C29.5195 4.48008 29.6275 4.86408 29.6275 5.32808C29.6275 5.84808 29.6235 6.37208 29.6155 6.90008C29.6155 7.42808 29.6315 7.95608 29.6635 8.48408C29.6715 8.66008 29.7075 8.81608 29.7715 8.95208C29.8355 9.08008 29.9675 9.14408 30.1675 9.14408C30.2715 9.14408 30.3795 9.12008 30.4915 9.07208C30.6115 9.01608 30.6875 8.98808 30.7195 8.98808C30.7435 8.98808 30.7555 9.00808 30.7555 9.04808ZM29.4355 1.03208C29.3235 1.14408 29.2155 1.26408 29.1115 1.39208C29.0075 1.52008 28.8915 1.62808 28.7635 1.71608C28.6435 1.79608 28.4915 1.83608 28.3075 1.83608C28.1155 1.83608 27.9355 1.79208 27.7675 1.70408C27.5995 1.61608 27.4355 1.52808 27.2755 1.44008C27.1235 1.35208 26.9555 1.30808 26.7715 1.30808C26.5955 1.30808 26.4435 1.36408 26.3155 1.47608C26.1875 1.58808 26.0715 1.70408 25.9675 1.82408L25.7155 1.66808C25.8195 1.52408 25.9275 1.37608 26.0395 1.22408C26.1595 1.07208 26.2915 0.944082 26.4355 0.840081C26.5875 0.736081 26.7635 0.684081 26.9635 0.684081C27.1555 0.684081 27.3315 0.728081 27.4915 0.816082C27.6595 0.896082 27.8235 0.980082 27.9835 1.06808C28.1515 1.15608 28.3275 1.20008 28.5115 1.20008C28.6475 1.20008 28.7755 1.15608 28.8955 1.06808C29.0155 0.980082 29.1155 0.884082 29.1955 0.780082L29.4355 1.03208ZM36.4909 6.51608C36.4909 6.17208 36.4629 5.82808 36.4069 5.48408C36.3589 5.13208 36.2629 4.80808 36.1189 4.51208C35.9829 4.21608 35.7829 3.98008 35.5189 3.80408C35.2549 3.62008 34.9109 3.52808 34.4869 3.52808C34.0869 3.52808 33.7589 3.62408 33.5029 3.81608C33.2549 4.00808 33.0589 4.25608 32.9149 4.56008C32.7789 4.86408 32.6829 5.19208 32.6269 5.54408C32.5789 5.89608 32.5549 6.22808 32.5549 6.54008C32.5549 6.88408 32.5789 7.22808 32.6269 7.57208C32.6829 7.91608 32.7829 8.22808 32.9269 8.50808C33.0709 8.78008 33.2749 9.00008 33.5389 9.16808C33.8109 9.33608 34.1589 9.42008 34.5829 9.42008C34.9989 9.42008 35.3309 9.33208 35.5789 9.15608C35.8349 8.98008 36.0269 8.74808 36.1549 8.46008C36.2909 8.17208 36.3789 7.86008 36.4189 7.52408C36.4669 7.18008 36.4909 6.84408 36.4909 6.51608ZM37.7269 6.55208C37.7269 7.15208 37.5829 7.69208 37.2949 8.17208C37.0149 8.65208 36.6309 9.03208 36.1429 9.31208C35.6629 9.59208 35.1229 9.73208 34.5229 9.73208C33.9389 9.73208 33.4109 9.59208 32.9389 9.31208C32.4669 9.02408 32.0909 8.64408 31.8109 8.17208C31.5309 7.69208 31.3909 7.16008 31.3909 6.57608C31.3909 5.97608 31.5269 5.42408 31.7989 4.92008C32.0709 4.40808 32.4429 3.99608 32.9149 3.68408C33.3949 3.37208 33.9469 3.21608 34.5709 3.21608C35.2429 3.21608 35.8149 3.36008 36.2869 3.64808C36.7589 3.92808 37.1149 4.32008 37.3549 4.82408C37.6029 5.32008 37.7269 5.89608 37.7269 6.55208ZM43.6563 0.216082L39.3483 10.4881L38.9043 10.2721L43.2003 8.15392e-05L43.6563 0.216082ZM9.87913 22.1721C9.87913 21.8361 9.84313 21.4841 9.77113 21.1161C9.70713 20.7401 9.60313 20.3801 9.45913 20.0361C9.31513 19.6921 9.12313 19.4001 8.88313 19.1601C8.65913 18.9361 8.39513 18.7481 8.09113 18.5961C7.79513 18.4361 7.48713 18.3401 7.16713 18.3081C7.07113 18.2921 6.97113 18.2841 6.86713 18.2841C6.77113 18.2841 6.67513 18.2841 6.57913 18.2841C6.26713 18.2841 5.95513 18.2881 5.64313 18.2961C5.33913 18.3041 5.03113 18.3121 4.71913 18.3201V25.7001C4.71913 25.9401 4.79913 26.0961 4.95913 26.1681C5.11913 26.2401 5.29913 26.2761 5.49913 26.2761C5.81913 26.2761 6.14713 26.2641 6.48313 26.2401C6.82713 26.2161 7.15913 26.1601 7.47913 26.0721C7.80713 25.9761 8.10713 25.8281 8.37913 25.6281C8.93113 25.2201 9.31913 24.7081 9.54313 24.0921C9.76713 23.4681 9.87913 22.8281 9.87913 22.1721ZM11.2111 21.9921C11.2111 22.7841 11.0431 23.5361 10.7071 24.2481C10.3791 24.9601 9.87113 25.5281 9.18313 25.9521C8.90313 26.1201 8.57913 26.2601 8.21113 26.3721C7.85113 26.4761 7.48313 26.5521 7.10713 26.6001C6.73113 26.6481 6.37913 26.6721 6.05113 26.6721C5.76313 26.6721 5.47113 26.6641 5.17513 26.6481C4.88713 26.6321 4.59513 26.6241 4.29913 26.6241C4.06713 26.6241 3.83113 26.6281 3.59113 26.6361C3.35113 26.6361 3.11513 26.6441 2.88313 26.6601C2.84313 26.6681 2.80313 26.6721 2.76313 26.6721C2.72313 26.6721 2.68313 26.6721 2.64313 26.6721C2.59513 26.6721 2.56713 26.6521 2.55913 26.6121C2.55113 26.5721 2.54713 26.5361 2.54713 26.5041C2.54713 26.4481 2.58713 26.4081 2.66713 26.3841C2.75513 26.3601 2.84713 26.3401 2.94313 26.3241C3.04713 26.3081 3.11913 26.2881 3.15913 26.2641C3.29513 26.1921 3.38313 26.0881 3.42313 25.9521C3.47113 25.8081 3.49513 25.6641 3.49513 25.5201C3.49513 25.0801 3.49513 24.6441 3.49513 24.2121C3.50313 23.7721 3.50713 23.3321 3.50713 22.8921V21.7881C3.50713 21.3481 3.50713 20.9121 3.50713 20.4801C3.50713 20.0481 3.50713 19.6121 3.50713 19.1721C3.50713 18.8681 3.47113 18.6521 3.39913 18.5241C3.32713 18.3961 3.12713 18.3321 2.79913 18.3321C2.74313 18.3321 2.68713 18.3361 2.63113 18.3441C2.58313 18.3441 2.53113 18.3441 2.47513 18.3441C2.41913 18.3441 2.36713 18.3281 2.31913 18.2961C2.27913 18.2561 2.25913 18.2081 2.25913 18.1521C2.25913 18.0241 2.32313 17.9601 2.45113 17.9601C2.63513 17.9601 2.81913 17.9681 3.00313 17.9841C3.18713 17.9921 3.36713 17.9961 3.54313 17.9961C4.13513 17.9961 4.72713 17.9801 5.31913 17.9481C5.91913 17.9081 6.51513 17.8881 7.10713 17.8881C7.96313 17.8881 8.69513 18.0521 9.30313 18.3801C9.91913 18.7081 10.3911 19.1801 10.7191 19.7961C11.0471 20.4041 11.2111 21.1361 11.2111 21.9921ZM16.6626 22.4721C16.6546 22.1441 16.6266 21.8321 16.5786 21.5361C16.5306 21.2321 16.4146 20.9841 16.2306 20.7921C16.0466 20.5921 15.7466 20.4921 15.3306 20.4921C14.9546 20.4921 14.6466 20.5961 14.4066 20.8041C14.1746 21.0041 13.9946 21.2601 13.8666 21.5721C13.7386 21.8761 13.6426 22.1881 13.5786 22.5081C13.7786 22.5161 13.9746 22.5241 14.1666 22.5321C14.3586 22.5321 14.5506 22.5321 14.7426 22.5321C15.0626 22.5321 15.3826 22.5281 15.7026 22.5201C16.0226 22.5041 16.3426 22.4881 16.6626 22.4721ZM18.0426 25.2201C18.0426 25.2601 18.0346 25.2841 18.0186 25.2921C17.9946 25.3721 17.9346 25.4681 17.8386 25.5801C17.7506 25.6921 17.6506 25.8001 17.5386 25.9041C17.4266 26.0001 17.3346 26.0721 17.2626 26.1201C16.9986 26.3041 16.6986 26.4521 16.3626 26.5641C16.0346 26.6761 15.7066 26.7321 15.3786 26.7321C15.1066 26.7321 14.8026 26.6881 14.4666 26.6001C14.1386 26.5121 13.8586 26.3921 13.6266 26.2401C13.1786 25.9441 12.8506 25.5561 12.6426 25.0761C12.4346 24.5961 12.3306 24.0961 12.3306 23.5761C12.3306 22.9841 12.4466 22.4361 12.6786 21.9321C12.9106 21.4281 13.2826 21.0201 13.7946 20.7081C14.0266 20.5721 14.2866 20.4601 14.5746 20.3721C14.8626 20.2761 15.1386 20.2281 15.4026 20.2281C15.8746 20.2281 16.2906 20.3241 16.6506 20.5161C17.0106 20.7081 17.2906 20.9801 17.4906 21.3321C17.6986 21.6761 17.8026 22.0881 17.8026 22.5681C17.8026 22.7041 17.7706 22.7921 17.7066 22.8321C17.6506 22.8721 17.5626 22.8921 17.4426 22.8921C17.2826 22.8921 17.1226 22.8881 16.9626 22.8801C16.8026 22.8721 16.6426 22.8641 16.4826 22.8561C16.2586 22.8401 16.0346 22.8321 15.8106 22.8321C15.5946 22.8321 15.3746 22.8321 15.1506 22.8321C14.8786 22.8321 14.6066 22.8321 14.3346 22.8321C14.0626 22.8321 13.7906 22.8401 13.5186 22.8561C13.5106 22.9841 13.5026 23.1081 13.4946 23.2281C13.4866 23.3481 13.4826 23.4721 13.4826 23.6001C13.4826 23.8961 13.5186 24.2041 13.5906 24.5241C13.6626 24.8361 13.7786 25.1281 13.9386 25.4001C14.0986 25.6641 14.3026 25.8801 14.5506 26.0481C14.7986 26.2081 15.0986 26.2881 15.4506 26.2881C15.8106 26.2881 16.1546 26.2321 16.4826 26.1201C16.8106 26.0081 17.1106 25.8281 17.3826 25.5801C17.4546 25.5081 17.5186 25.4321 17.5746 25.3521C17.6386 25.2641 17.7066 25.1881 17.7786 25.1241C17.8186 25.0841 17.8626 25.0641 17.9106 25.0641C17.9506 25.0641 17.9826 25.0801 18.0066 25.1121C18.0306 25.1441 18.0426 25.1801 18.0426 25.2201ZM16.6386 18.3681L13.5906 18.9681L13.4346 18.4401L16.4226 17.5761L16.6386 18.3681ZM24.0537 23.3001C24.0537 23.0121 24.0257 22.7201 23.9697 22.4241C23.9137 22.1281 23.8217 21.8601 23.6937 21.6201C23.5657 21.3721 23.3857 21.1721 23.1537 21.0201C22.9297 20.8681 22.6417 20.7921 22.2897 20.7921C22.1377 20.7921 21.9537 20.8361 21.7377 20.9241C21.5297 21.0041 21.3697 21.1001 21.2577 21.2121C21.1057 21.3561 20.9897 21.5121 20.9097 21.6801C20.8297 21.8481 20.7857 22.0401 20.7777 22.2561L20.7657 24.2721C20.7657 24.4961 20.7657 24.7241 20.7657 24.9561C20.7657 25.1801 20.7657 25.4081 20.7657 25.6401C20.7657 25.6961 20.7697 25.7721 20.7777 25.8681C20.7937 25.9561 20.8097 26.0201 20.8257 26.0601C20.8897 26.1881 21.0137 26.2721 21.1977 26.3121C21.3897 26.3441 21.5457 26.3601 21.6657 26.3601C22.0977 26.3601 22.4657 26.2721 22.7697 26.0961C23.0737 25.9201 23.3177 25.6841 23.5017 25.3881C23.6937 25.0921 23.8337 24.7641 23.9217 24.4041C24.0097 24.0361 24.0537 23.6681 24.0537 23.3001ZM25.2537 23.3121C25.2537 23.9521 25.1097 24.5281 24.8217 25.0401C24.5417 25.5521 24.1497 25.9561 23.6457 26.2521C23.1497 26.5401 22.5737 26.6841 21.9177 26.6841C21.6297 26.6841 21.3417 26.6441 21.0537 26.5641C20.7657 26.4841 20.4937 26.4441 20.2377 26.4441C20.1817 26.4441 20.1217 26.4481 20.0577 26.4561C19.9937 26.4641 19.9297 26.4681 19.8657 26.4681C19.7297 26.4681 19.6617 26.3961 19.6617 26.2521C19.6617 26.2041 19.6697 26.1481 19.6857 26.0841C19.7017 25.9321 19.7097 25.7801 19.7097 25.6281C19.7097 25.4761 19.7137 25.3241 19.7217 25.1721C19.7217 24.9961 19.7217 24.8241 19.7217 24.6561C19.7297 24.4801 19.7337 24.3041 19.7337 24.1281C19.7337 23.1681 19.7257 22.2081 19.7097 21.2481C19.7017 20.2881 19.6977 19.3281 19.6977 18.3681C19.6977 18.2561 19.6617 18.1841 19.5897 18.1521C19.5177 18.1201 19.4337 18.1041 19.3377 18.1041C19.2337 18.1041 19.1257 18.1121 19.0137 18.1281C18.9017 18.1361 18.7897 18.1401 18.6777 18.1401C18.6457 18.1401 18.6097 18.1281 18.5697 18.1041C18.5377 18.0721 18.5217 18.0361 18.5217 17.9961C18.5217 17.9481 18.5457 17.9161 18.5937 17.9001C18.6417 17.8761 18.6817 17.8601 18.7137 17.8521C18.9937 17.7961 19.2737 17.7481 19.5537 17.7081C19.8417 17.6681 20.1217 17.6121 20.3937 17.5401C20.4417 17.5241 20.4897 17.5081 20.5377 17.4921C20.5937 17.4681 20.6457 17.4561 20.6937 17.4561C20.7497 17.4561 20.7737 17.4921 20.7657 17.5641C20.7657 17.6361 20.7657 17.6921 20.7657 17.7321V21.0801C21.0217 20.8641 21.3177 20.6841 21.6537 20.5401C21.9977 20.3961 22.3377 20.3241 22.6737 20.3241C23.2417 20.3241 23.7177 20.4641 24.1017 20.7441C24.4857 21.0241 24.7737 21.3921 24.9657 21.8481C25.1577 22.2961 25.2537 22.7841 25.2537 23.3121ZM29.4339 26.5041C29.4339 26.5441 29.4219 26.5841 29.3979 26.6241C29.3739 26.6561 29.3419 26.6721 29.3019 26.6721C29.0779 26.6721 28.8539 26.6681 28.6299 26.6601C28.4139 26.6441 28.1899 26.6361 27.9579 26.6361H27.6339C27.3939 26.6361 27.1539 26.6441 26.9139 26.6601C26.6819 26.6681 26.4499 26.6721 26.2179 26.6721C26.1859 26.6721 26.1619 26.6521 26.1459 26.6121C26.1379 26.5721 26.1339 26.5401 26.1339 26.5161C26.1339 26.4761 26.1379 26.4481 26.1459 26.4321C26.1539 26.4081 26.1779 26.3921 26.2179 26.3841C26.2579 26.3681 26.3019 26.3641 26.3499 26.3721C26.4059 26.3721 26.4579 26.3721 26.5059 26.3721C26.5619 26.3721 26.6139 26.3761 26.6619 26.3841C26.7099 26.3841 26.7619 26.3841 26.8179 26.3841C26.9299 26.3841 27.0299 26.3601 27.1179 26.3121C27.2139 26.2561 27.2619 26.1641 27.2619 26.0361V21.2361C27.2619 21.1001 27.2379 20.9961 27.1899 20.9241C27.1419 20.8441 27.0419 20.8041 26.8899 20.8041C26.7779 20.8041 26.6619 20.8121 26.5419 20.8281C26.4299 20.8361 26.3179 20.8481 26.2059 20.8641C26.1419 20.8641 26.1099 20.8281 26.1099 20.7561C26.1099 20.6761 26.1419 20.6241 26.2059 20.6001C26.3019 20.5681 26.4019 20.5481 26.5059 20.5401C26.6179 20.5241 26.7219 20.5081 26.8179 20.4921C27.0419 20.4521 27.2659 20.4081 27.4899 20.3601C27.7139 20.3121 27.9339 20.2601 28.1499 20.2041C28.1739 20.1961 28.2059 20.1921 28.2459 20.1921C28.3339 20.1921 28.3779 20.2401 28.3779 20.3361C28.3779 21.2801 28.3739 22.2281 28.3659 23.1801C28.3659 24.1321 28.3659 25.0841 28.3659 26.0361C28.3659 26.1641 28.4219 26.2561 28.5339 26.3121C28.6539 26.3601 28.7659 26.3841 28.8699 26.3841C28.9499 26.3841 29.0299 26.3801 29.1099 26.3721C29.1979 26.3641 29.2819 26.3601 29.3619 26.3601C29.3939 26.3601 29.4139 26.3801 29.4219 26.4201C29.4299 26.4601 29.4339 26.4881 29.4339 26.5041ZM28.4619 18.2001C28.4619 18.4001 28.3899 18.5721 28.2459 18.7161C28.1019 18.8521 27.9299 18.9201 27.7299 18.9201C27.5299 18.9201 27.3579 18.8521 27.2139 18.7161C27.0699 18.5721 26.9979 18.4001 26.9979 18.2001C26.9979 18.0001 27.0699 17.8321 27.2139 17.6961C27.3579 17.5521 27.5299 17.4801 27.7299 17.4801C27.9299 17.4801 28.1019 17.5521 28.2459 17.6961C28.3899 17.8321 28.4619 18.0001 28.4619 18.2001ZM34.1229 26.1321C34.1229 26.2041 34.0669 26.2761 33.9549 26.3481C33.8509 26.4201 33.7229 26.4841 33.5709 26.5401C33.4189 26.5961 33.2709 26.6401 33.1269 26.6721C32.9909 26.7041 32.8909 26.7201 32.8269 26.7201C32.4109 26.7201 32.0869 26.6681 31.8549 26.5641C31.6309 26.4601 31.4709 26.2881 31.3749 26.0481C31.2869 25.8081 31.2429 25.4841 31.2429 25.0761C31.2429 24.4121 31.2429 23.7481 31.2429 23.0841C31.2509 22.4121 31.2589 21.7441 31.2669 21.0801H30.4029C30.3469 21.0801 30.2989 21.0961 30.2589 21.1281C30.2269 21.1521 30.1909 21.1641 30.1509 21.1641C30.1109 21.1641 30.0909 21.1361 30.0909 21.0801C30.0909 21.0481 30.1109 20.9841 30.1509 20.8881C30.1989 20.7921 30.2309 20.7281 30.2469 20.6961C30.2709 20.7041 30.3069 20.7081 30.3549 20.7081H31.2909L31.3029 19.1841C31.4869 19.0641 31.6549 18.9321 31.8069 18.7881C31.9589 18.6361 32.1109 18.4841 32.2629 18.3321C32.2789 18.3161 32.2949 18.3041 32.3109 18.2961C32.3269 18.2801 32.3429 18.2721 32.3589 18.2721C32.4309 18.2721 32.4669 18.3001 32.4669 18.3561L32.3949 20.6961C32.6509 20.6961 32.9029 20.6921 33.1509 20.6841C33.4069 20.6761 33.6589 20.6721 33.9069 20.6721C34.0109 20.6721 34.0629 20.7321 34.0629 20.8521C34.0629 21.0041 33.9949 21.0801 33.8589 21.0801H32.3949C32.3949 21.6881 32.3909 22.3001 32.3829 22.9161C32.3829 23.5241 32.3829 24.1361 32.3829 24.7521V25.6761C32.3829 25.8761 32.4669 26.0161 32.6349 26.0961C32.8029 26.1681 32.9669 26.2041 33.1269 26.2041C33.3509 26.2041 33.5709 26.1681 33.7869 26.0961C33.8109 26.0801 33.8469 26.0641 33.8949 26.0481C33.9429 26.0321 33.9789 26.0241 34.0029 26.0241C34.0829 26.0241 34.1229 26.0601 34.1229 26.1321ZM39.8717 23.5161C39.8717 23.1721 39.8437 22.8281 39.7877 22.4841C39.7397 22.1321 39.6437 21.8081 39.4997 21.5121C39.3637 21.2161 39.1637 20.9801 38.8997 20.8041C38.6357 20.6201 38.2917 20.5281 37.8677 20.5281C37.4677 20.5281 37.1397 20.6241 36.8837 20.8161C36.6357 21.0081 36.4397 21.2561 36.2957 21.5601C36.1597 21.8641 36.0637 22.1921 36.0077 22.5441C35.9597 22.8961 35.9357 23.2281 35.9357 23.5401C35.9357 23.8841 35.9597 24.2281 36.0077 24.5721C36.0637 24.9161 36.1637 25.2281 36.3077 25.5081C36.4517 25.7801 36.6557 26.0001 36.9197 26.1681C37.1917 26.3361 37.5397 26.4201 37.9637 26.4201C38.3797 26.4201 38.7117 26.3321 38.9597 26.1561C39.2157 25.9801 39.4077 25.7481 39.5357 25.4601C39.6717 25.1721 39.7597 24.8601 39.7997 24.5241C39.8477 24.1801 39.8717 23.8441 39.8717 23.5161ZM41.1077 23.5521C41.1077 24.1521 40.9637 24.6921 40.6757 25.1721C40.3957 25.6521 40.0117 26.0321 39.5237 26.3121C39.0437 26.5921 38.5037 26.7321 37.9037 26.7321C37.3197 26.7321 36.7917 26.5921 36.3197 26.3121C35.8477 26.0241 35.4717 25.6441 35.1917 25.1721C34.9117 24.6921 34.7717 24.1601 34.7717 23.5761C34.7717 22.9761 34.9077 22.4241 35.1797 21.9201C35.4517 21.4081 35.8237 20.9961 36.2957 20.6841C36.7757 20.3721 37.3277 20.2161 37.9517 20.2161C38.6237 20.2161 39.1957 20.3601 39.6677 20.6481C40.1397 20.9281 40.4957 21.3201 40.7357 21.8241C40.9837 22.3201 41.1077 22.8961 41.1077 23.5521Z" fill="#2A7420"/>
</svg>
