<svg width="57" height="11" viewBox="0 0 57 11" fill="none" xmlns="http://www.w3.org/2000/svg">
<path d="M4.22397 4.22405C4.22397 4.01139 4.21663 3.75105 4.20197 3.44305C4.19463 3.12772 4.16897 2.79772 4.12497 2.45305C4.08097 2.10839 4.00397 1.78572 3.89397 1.48505C3.78397 1.18439 3.63363 0.942388 3.44297 0.759054C3.2523 0.568388 3.00297 0.473055 2.69496 0.473055C2.4163 0.473055 2.18163 0.572054 1.99096 0.770054C1.8003 0.960721 1.6463 1.21372 1.52896 1.52905C1.41163 1.83705 1.31996 2.16705 1.25396 2.51905C1.1953 2.86372 1.15496 3.19739 1.13296 3.52005C1.11096 3.83539 1.09996 4.09205 1.09996 4.29005C1.09996 4.48805 1.1073 4.73739 1.12196 5.03805C1.14396 5.33139 1.18063 5.64305 1.23196 5.97305C1.2833 6.29572 1.36396 6.60005 1.47396 6.88605C1.5913 7.17205 1.74163 7.40672 1.92496 7.59005C2.1083 7.76605 2.3393 7.85405 2.61796 7.85405C2.9113 7.85405 3.1533 7.76605 3.34397 7.59005C3.53463 7.40672 3.68863 7.17205 3.80597 6.88605C3.9233 6.59272 4.0113 6.28105 4.06997 5.95105C4.13597 5.61372 4.1763 5.29472 4.19096 4.99405C4.21297 4.68605 4.22397 4.42939 4.22397 4.22405ZM5.36797 4.08105C5.36797 4.41839 5.33497 4.77405 5.26897 5.14805C5.2103 5.52205 5.11496 5.88872 4.98296 6.24805C4.85097 6.60739 4.67497 6.93372 4.45497 7.22705C4.2423 7.52039 3.98197 7.75505 3.67397 7.93105C3.36597 8.09972 3.00663 8.18405 2.59596 8.18405C2.10463 8.18405 1.6903 8.06305 1.35296 7.82105C1.02296 7.57172 0.758965 7.25272 0.560965 6.86405C0.362965 6.47539 0.219965 6.06105 0.131965 5.62105C0.0439649 5.17372 -3.51258e-05 4.75205 -3.51258e-05 4.35605C-3.51258e-05 4.01872 0.0292982 3.65939 0.0879649 3.27805C0.146632 2.88939 0.241965 2.51172 0.373965 2.14505C0.505965 1.77839 0.678298 1.44472 0.890965 1.14405C1.11096 0.843388 1.37496 0.605054 1.68296 0.429054C1.9983 0.245721 2.36496 0.154054 2.78297 0.154054C3.17896 0.154054 3.51996 0.238387 3.80597 0.407054C4.0993 0.575721 4.34496 0.799388 4.54297 1.07805C4.7483 1.35672 4.90963 1.66839 5.02697 2.01305C5.1443 2.35772 5.22863 2.70972 5.27997 3.06905C5.33863 3.42105 5.36797 3.75839 5.36797 4.08105ZM10.7122 4.22405C10.7122 4.01139 10.7049 3.75105 10.6902 3.44305C10.6829 3.12772 10.6572 2.79772 10.6132 2.45305C10.5692 2.10839 10.4922 1.78572 10.3822 1.48505C10.2722 1.18439 10.1219 0.942388 9.93125 0.759054C9.74058 0.568388 9.49125 0.473055 9.18325 0.473055C8.90458 0.473055 8.66991 0.572054 8.47925 0.770054C8.28858 0.960721 8.13458 1.21372 8.01725 1.52905C7.89991 1.83705 7.80825 2.16705 7.74225 2.51905C7.68358 2.86372 7.64325 3.19739 7.62125 3.52005C7.59925 3.83539 7.58825 4.09205 7.58825 4.29005C7.58825 4.48805 7.59558 4.73739 7.61025 5.03805C7.63225 5.33139 7.66891 5.64305 7.72025 5.97305C7.77158 6.29572 7.85225 6.60005 7.96225 6.88605C8.07958 7.17205 8.22991 7.40672 8.41325 7.59005C8.59658 7.76605 8.82758 7.85405 9.10625 7.85405C9.39958 7.85405 9.64158 7.76605 9.83225 7.59005C10.0229 7.40672 10.1769 7.17205 10.2942 6.88605C10.4116 6.59272 10.4996 6.28105 10.5582 5.95105C10.6242 5.61372 10.6646 5.29472 10.6792 4.99405C10.7012 4.68605 10.7122 4.42939 10.7122 4.22405ZM11.8562 4.08105C11.8562 4.41839 11.8232 4.77405 11.7572 5.14805C11.6986 5.52205 11.6032 5.88872 11.4712 6.24805C11.3392 6.60739 11.1632 6.93372 10.9432 7.22705C10.7306 7.52039 10.4702 7.75505 10.1622 7.93105C9.85425 8.09972 9.49491 8.18405 9.08425 8.18405C8.59291 8.18405 8.17858 8.06305 7.84125 7.82105C7.51125 7.57172 7.24725 7.25272 7.04925 6.86405C6.85125 6.47539 6.70825 6.06105 6.62025 5.62105C6.53225 5.17372 6.48825 4.75205 6.48825 4.35605C6.48825 4.01872 6.51758 3.65939 6.57625 3.27805C6.63491 2.88939 6.73025 2.51172 6.86225 2.14505C6.99425 1.77839 7.16658 1.44472 7.37925 1.14405C7.59925 0.843388 7.86325 0.605054 8.17125 0.429054C8.48658 0.245721 8.85325 0.154054 9.27125 0.154054C9.66725 0.154054 10.0082 0.238387 10.2942 0.407054C10.5876 0.575721 10.8332 0.799388 11.0312 1.07805C11.2366 1.35672 11.3979 1.66839 11.5152 2.01305C11.6326 2.35772 11.7169 2.70972 11.7682 3.06905C11.8269 3.42105 11.8562 3.75839 11.8562 4.08105ZM17.2005 4.22405C17.2005 4.01139 17.1932 3.75105 17.1785 3.44305C17.1712 3.12772 17.1455 2.79772 17.1015 2.45305C17.0575 2.10839 16.9805 1.78572 16.8705 1.48505C16.7605 1.18439 16.6102 0.942388 16.4195 0.759054C16.2289 0.568388 15.9795 0.473055 15.6715 0.473055C15.3929 0.473055 15.1582 0.572054 14.9675 0.770054C14.7769 0.960721 14.6229 1.21372 14.5055 1.52905C14.3882 1.83705 14.2965 2.16705 14.2305 2.51905C14.1719 2.86372 14.1315 3.19739 14.1095 3.52005C14.0875 3.83539 14.0765 4.09205 14.0765 4.29005C14.0765 4.48805 14.0839 4.73739 14.0985 5.03805C14.1205 5.33139 14.1572 5.64305 14.2085 5.97305C14.2599 6.29572 14.3405 6.60005 14.4505 6.88605C14.5679 7.17205 14.7182 7.40672 14.9015 7.59005C15.0849 7.76605 15.3159 7.85405 15.5945 7.85405C15.8879 7.85405 16.1299 7.76605 16.3205 7.59005C16.5112 7.40672 16.6652 7.17205 16.7825 6.88605C16.8999 6.59272 16.9879 6.28105 17.0465 5.95105C17.1125 5.61372 17.1529 5.29472 17.1675 4.99405C17.1895 4.68605 17.2005 4.42939 17.2005 4.22405ZM18.3445 4.08105C18.3445 4.41839 18.3115 4.77405 18.2455 5.14805C18.1869 5.52205 18.0915 5.88872 17.9595 6.24805C17.8275 6.60739 17.6515 6.93372 17.4315 7.22705C17.2189 7.52039 16.9585 7.75505 16.6505 7.93105C16.3425 8.09972 15.9832 8.18405 15.5725 8.18405C15.0812 8.18405 14.6669 8.06305 14.3295 7.82105C13.9995 7.57172 13.7355 7.25272 13.5375 6.86405C13.3395 6.47539 13.1965 6.06105 13.1085 5.62105C13.0205 5.17372 12.9765 4.75205 12.9765 4.35605C12.9765 4.01872 13.0059 3.65939 13.0645 3.27805C13.1232 2.88939 13.2185 2.51172 13.3505 2.14505C13.4825 1.77839 13.6549 1.44472 13.8675 1.14405C14.0875 0.843388 14.3515 0.605054 14.6595 0.429054C14.9749 0.245721 15.3415 0.154054 15.7595 0.154054C16.1555 0.154054 16.4965 0.238387 16.7825 0.407054C17.0759 0.575721 17.3215 0.799388 17.5195 1.07805C17.7249 1.35672 17.8862 1.66839 18.0035 2.01305C18.1209 2.35772 18.2052 2.70972 18.2565 3.06905C18.3152 3.42105 18.3445 3.75839 18.3445 4.08105ZM23.8208 6.05005C23.8208 5.72005 23.7511 5.44505 23.6118 5.22505C23.4798 4.99772 23.3038 4.80705 23.0838 4.65305C22.8638 4.49905 22.6218 4.37072 22.3578 4.26805C22.0938 4.15805 21.8335 4.05539 21.5768 3.96005C21.1808 4.18739 20.8655 4.47705 20.6308 4.82905C20.3961 5.17372 20.2788 5.58072 20.2788 6.05005C20.2788 6.65872 20.4255 7.11705 20.7188 7.42505C21.0121 7.73305 21.4631 7.88705 22.0718 7.88705C22.4238 7.88705 22.7281 7.80639 22.9848 7.64505C23.2488 7.48372 23.4541 7.26372 23.6008 6.98505C23.7475 6.70639 23.8208 6.39472 23.8208 6.05005ZM23.6118 1.82605C23.6118 1.32739 23.4725 0.960721 23.1938 0.726055C22.9225 0.484054 22.5485 0.363054 22.0718 0.363054C21.6245 0.363054 21.2761 0.487721 21.0268 0.737054C20.7775 0.979054 20.6528 1.32005 20.6528 1.76005C20.6528 2.10472 20.7371 2.38705 20.9058 2.60705C21.0745 2.82705 21.2908 3.00672 21.5548 3.14605C21.8261 3.28539 22.1011 3.40639 22.3798 3.50905C22.7245 3.35505 23.0141 3.13505 23.2488 2.84905C23.4908 2.55572 23.6118 2.21472 23.6118 1.82605ZM24.9098 5.67605C24.9098 6.24072 24.7705 6.71372 24.4918 7.09505C24.2205 7.46905 23.8611 7.75139 23.4138 7.94205C22.9665 8.12539 22.4788 8.21705 21.9508 8.21705C21.5181 8.21705 21.1038 8.14372 20.7078 7.99705C20.3191 7.84305 20.0001 7.60839 19.7508 7.29305C19.5088 6.97772 19.3878 6.57805 19.3878 6.09405C19.3878 5.69072 19.4795 5.35339 19.6628 5.08205C19.8535 4.80339 20.0918 4.56505 20.3778 4.36705C20.6711 4.16172 20.9718 3.97839 21.2798 3.81705C21.0525 3.72172 20.8215 3.59705 20.5868 3.44305C20.3521 3.28905 20.1541 3.10205 19.9928 2.88205C19.8315 2.66205 19.7508 2.41272 19.7508 2.13405C19.7508 1.65005 19.8755 1.25772 20.1248 0.957054C20.3741 0.649054 20.6931 0.425388 21.0818 0.286054C21.4705 0.146721 21.8775 0.0770544 22.3028 0.0770544C22.6328 0.0770544 22.9628 0.135721 23.2928 0.253054C23.6228 0.370388 23.8978 0.550054 24.1178 0.792054C24.3378 1.03405 24.4478 1.34205 24.4478 1.71605C24.4478 2.05339 24.3781 2.34305 24.2388 2.58505C24.1068 2.82705 23.9235 3.03239 23.6888 3.20105C23.4541 3.36972 23.1938 3.51639 22.9078 3.64105C23.2085 3.72905 23.5128 3.86839 23.8208 4.05905C24.1288 4.24239 24.3855 4.46972 24.5908 4.74105C24.8035 5.01239 24.9098 5.32405 24.9098 5.67605ZM31.3211 5.35705C31.3211 5.70172 31.2514 6.06839 31.1121 6.45705C30.9728 6.84572 30.7711 7.15739 30.5071 7.39205C30.2138 7.64872 29.8618 7.84672 29.4511 7.98605C29.0404 8.12539 28.6408 8.19505 28.2521 8.19505C28.0688 8.19505 27.8488 8.17305 27.5921 8.12905C27.3354 8.07772 27.0824 8.00439 26.8331 7.90905C26.5838 7.80639 26.3748 7.67439 26.2061 7.51305C26.0374 7.34439 25.9531 7.14272 25.9531 6.90805C25.9531 6.74672 26.0081 6.62205 26.1181 6.53405C26.2281 6.43872 26.3601 6.39105 26.5141 6.39105C26.6461 6.39105 26.7634 6.42405 26.8661 6.49005C26.9688 6.55605 27.0238 6.66239 27.0311 6.80905C27.0604 7.14639 27.1558 7.40672 27.3171 7.59005C27.4858 7.77339 27.7498 7.86505 28.1091 7.86505C28.6151 7.86505 29.0258 7.74772 29.3411 7.51305C29.6564 7.27105 29.8911 6.90805 30.0451 6.42405C30.0964 6.25539 30.1258 6.08305 30.1331 5.90705C30.1478 5.72372 30.1551 5.54405 30.1551 5.36805C30.1551 5.12605 30.1258 4.86572 30.0671 4.58705C30.0158 4.30105 29.9168 4.05905 29.7701 3.86105C29.6454 3.69239 29.4841 3.57872 29.2861 3.52005C29.0954 3.46139 28.8974 3.43205 28.6921 3.43205C28.5308 3.43205 28.3548 3.46139 28.1641 3.52005C27.9734 3.57139 27.8158 3.64839 27.6911 3.75105C27.5664 3.85372 27.4528 3.98572 27.3501 4.14705C27.2474 4.30105 27.1888 4.46239 27.1741 4.63105C27.1668 4.67505 27.1594 4.73005 27.1521 4.79605C27.1448 4.86205 27.1081 4.89505 27.0421 4.89505C27.0054 4.89505 26.9284 4.88039 26.8111 4.85105C26.7011 4.81439 26.5948 4.77405 26.4921 4.73005C26.3968 4.67872 26.3491 4.63472 26.3491 4.59805C26.3491 4.57605 26.3528 4.55405 26.3601 4.53205C26.3674 4.51005 26.3748 4.48805 26.3821 4.46605C26.4334 4.29739 26.4738 4.08839 26.5031 3.83905C26.5398 3.58239 26.5654 3.31472 26.5801 3.03605C26.5948 2.75005 26.6058 2.47505 26.6131 2.21105C26.6204 1.94705 26.6241 1.72339 26.6241 1.54005C26.6241 1.10739 26.6021 0.671054 26.5581 0.231054C26.7854 0.260388 27.0091 0.282388 27.2291 0.297054C27.4564 0.311721 27.6838 0.319055 27.9111 0.319055H29.4841C29.6748 0.319055 29.8948 0.308055 30.1441 0.286054C30.4008 0.264054 30.6134 0.205387 30.7821 0.110054C30.8188 0.0880543 30.8591 0.0660544 30.9031 0.0440542C30.9544 0.0147208 30.9984 5.4121e-05 31.0351 5.4121e-05C31.0571 5.4121e-05 31.0901 0.00372074 31.1341 0.011054C31.1781 0.011054 31.2001 0.0293875 31.2001 0.0660546C31.2001 0.102721 31.1744 0.179721 31.1231 0.297054C31.0718 0.407054 31.0168 0.520721 30.9581 0.638054C30.8994 0.755388 30.8591 0.832387 30.8371 0.869054C30.8078 0.920388 30.7711 0.953388 30.7271 0.968054C30.6831 0.982721 30.6318 0.990054 30.5731 0.990054C30.4778 0.990054 30.3788 0.990054 30.2761 0.990054C30.1808 0.982721 30.0818 0.975388 29.9791 0.968054C29.8544 0.953388 29.7261 0.949721 29.5941 0.957054C29.4621 0.957054 29.3338 0.957054 29.2091 0.957054C29.0038 0.957054 28.7984 0.957054 28.5931 0.957054C28.3878 0.949721 28.1788 0.946054 27.9661 0.946054C27.8414 0.946054 27.7131 0.946054 27.5811 0.946054C27.4564 0.946054 27.3318 0.949721 27.2071 0.957054C27.1998 1.41905 27.1814 1.88472 27.1521 2.35405C27.1301 2.81605 27.1081 3.27805 27.0861 3.74005C27.4234 3.50539 27.7351 3.33305 28.0211 3.22305C28.3144 3.10572 28.6664 3.04705 29.0771 3.04705C29.3558 3.04705 29.6234 3.08739 29.8801 3.16805C30.1441 3.24872 30.3788 3.38439 30.5841 3.57505C30.8188 3.79505 30.9984 4.06639 31.1231 4.38905C31.2551 4.71172 31.3211 5.03439 31.3211 5.35705ZM36.8084 0.297054C36.8084 0.348388 36.801 0.388721 36.7864 0.418055C36.779 0.447388 36.746 0.462054 36.6874 0.462054C36.5774 0.462054 36.4674 0.462054 36.3574 0.462054C36.2547 0.454721 36.1484 0.451054 36.0384 0.451054C35.9357 0.451054 35.8294 0.480388 35.7194 0.539054C35.6167 0.590388 35.558 0.678387 35.5434 0.803054C35.536 0.854388 35.5324 0.909388 35.5324 0.968054C35.5397 1.01939 35.5434 1.07439 35.5434 1.13305C35.5434 2.10839 35.5397 3.08372 35.5324 4.05905C35.5324 5.03439 35.5324 6.01339 35.5324 6.99605C35.5324 7.56072 35.4517 8.07039 35.2904 8.52505C35.1364 8.98705 34.876 9.35005 34.5094 9.61405C34.1427 9.88539 33.644 10.0211 33.0134 10.0211C32.8814 10.0211 32.72 10.0174 32.5294 10.0101C32.3387 10.0027 32.1517 9.97705 31.9684 9.93305C31.785 9.88905 31.631 9.81205 31.5064 9.70205C31.3817 9.59939 31.3194 9.45272 31.3194 9.26205C31.3194 9.07872 31.389 8.93205 31.5284 8.82205C31.6677 8.71939 31.818 8.66805 31.9794 8.66805C32.038 8.66805 32.115 8.68272 32.2104 8.71205C32.313 8.74139 32.4047 8.78172 32.4854 8.83305C32.566 8.88439 32.6064 8.94672 32.6064 9.02005C32.577 9.05672 32.5477 9.09705 32.5184 9.14105C32.489 9.18505 32.4744 9.23639 32.4744 9.29505C32.4744 9.44905 32.5367 9.55539 32.6614 9.61405C32.786 9.67272 32.9107 9.70205 33.0354 9.70205C33.2114 9.70205 33.3874 9.66539 33.5634 9.59205C33.7394 9.52605 33.8934 9.42705 34.0254 9.29505C34.1647 9.17039 34.2527 9.01639 34.2894 8.83305C34.326 8.60572 34.348 8.37839 34.3554 8.15105C34.3627 7.92372 34.3664 7.69639 34.3664 7.46905V0.803054C34.3664 0.685721 34.3187 0.601388 34.2234 0.550054C34.128 0.498721 34.018 0.469388 33.8934 0.462054C33.7687 0.447388 33.666 0.440054 33.5854 0.440054C33.512 0.440054 33.4387 0.443721 33.3654 0.451054C33.2994 0.458387 33.2334 0.462054 33.1674 0.462054C33.0647 0.462054 33.0134 0.410721 33.0134 0.308054C33.0134 0.198054 33.061 0.143054 33.1564 0.143054C33.2297 0.143054 33.303 0.146721 33.3764 0.154054C33.457 0.161388 33.534 0.165055 33.6074 0.165055C34.0254 0.187054 34.447 0.198054 34.8724 0.198054C35.173 0.198054 35.4774 0.190721 35.7854 0.176054C36.0934 0.154054 36.3977 0.143054 36.6984 0.143054C36.757 0.143054 36.79 0.161388 36.7974 0.198054C36.8047 0.227388 36.8084 0.260388 36.8084 0.297054ZM44.091 5.72005C44.091 5.77139 44.0873 5.82639 44.08 5.88505C44.0726 5.93639 44.0616 5.99139 44.047 6.05005C43.9956 6.37272 43.9516 6.70272 43.915 7.04005C43.8856 7.37005 43.8416 7.69639 43.783 8.01905C43.783 8.05572 43.7683 8.08872 43.739 8.11805C43.6876 8.16205 43.6253 8.18405 43.552 8.18405C43.1926 8.18405 42.8333 8.18039 42.474 8.17305C42.1146 8.16572 41.7516 8.16205 41.385 8.16205C40.9376 8.16205 40.4903 8.16205 40.043 8.16205C39.603 8.16205 39.1593 8.16939 38.712 8.18405C38.4626 8.19139 38.217 8.19872 37.975 8.20605C37.733 8.22072 37.4873 8.22805 37.238 8.22805C37.15 8.22805 37.106 8.17672 37.106 8.07405C37.106 7.97139 37.1573 7.92005 37.26 7.92005C37.3333 7.92005 37.403 7.92372 37.469 7.93105C37.5423 7.93105 37.612 7.93105 37.678 7.93105C37.7806 7.93105 37.8833 7.91272 37.986 7.87605C38.096 7.83205 38.151 7.75139 38.151 7.63405V1.13305C38.151 0.986388 38.1473 0.865387 38.14 0.770054C38.1326 0.667387 38.096 0.590388 38.03 0.539054C37.9713 0.487721 37.8576 0.462054 37.689 0.462054C37.6156 0.462054 37.546 0.465721 37.48 0.473055C37.414 0.480388 37.3443 0.484054 37.271 0.484054C37.2123 0.484054 37.1756 0.469388 37.161 0.440054C37.1463 0.403388 37.139 0.359388 37.139 0.308054C37.139 0.264054 37.1426 0.227388 37.15 0.198054C37.1646 0.161388 37.1976 0.143054 37.249 0.143054C37.491 0.143054 37.7293 0.146721 37.964 0.154054C38.206 0.161388 38.448 0.165055 38.69 0.165055C38.9686 0.165055 39.251 0.161388 39.537 0.154054C39.823 0.146721 40.1053 0.143054 40.384 0.143054C40.4353 0.143054 40.4646 0.161388 40.472 0.198054C40.4866 0.227388 40.494 0.260388 40.494 0.297054C40.494 0.326388 40.4866 0.363054 40.472 0.407054C40.4646 0.443721 40.4353 0.462054 40.384 0.462054C40.2886 0.462054 40.1933 0.462054 40.098 0.462054C40.01 0.454721 39.9183 0.451054 39.823 0.451054C39.7056 0.451054 39.5883 0.465721 39.471 0.495054C39.3536 0.524388 39.295 0.616054 39.295 0.770054C39.295 1.02672 39.2913 1.28339 39.284 1.54005C39.284 1.79672 39.284 2.05339 39.284 2.31005V5.55505C39.284 5.87772 39.284 6.20405 39.284 6.53405C39.2913 6.86405 39.295 7.19039 39.295 7.51305C39.295 7.63772 39.3463 7.72939 39.449 7.78805C39.5516 7.83939 39.669 7.86872 39.801 7.87605C39.933 7.88339 40.043 7.88705 40.131 7.88705C40.4536 7.88705 40.7763 7.87972 41.099 7.86505C41.4216 7.85039 41.7406 7.81739 42.056 7.76605C42.2613 7.72939 42.4556 7.65972 42.639 7.55705C42.8296 7.44705 42.9946 7.31139 43.134 7.15005C43.3173 6.93739 43.4566 6.71005 43.552 6.46805C43.6473 6.21872 43.7426 5.96939 43.838 5.72005C43.86 5.66872 43.8856 5.63939 43.915 5.63205C43.9443 5.62472 43.981 5.62105 44.025 5.62105C44.047 5.62105 44.0616 5.63572 44.069 5.66505C44.0836 5.68705 44.091 5.70539 44.091 5.72005ZM50.2061 6.51205C50.2061 6.52672 50.1914 6.56705 50.1621 6.63305C50.1401 6.69172 50.1254 6.73205 50.1181 6.75405C50.0888 6.82739 50.0594 6.90072 50.0301 6.97405C50.0081 7.04739 49.9861 7.12072 49.9641 7.19405C49.9274 7.33339 49.8944 7.47272 49.8651 7.61205C49.8358 7.75139 49.8028 7.88705 49.7661 8.01905C49.7294 8.12172 49.6671 8.17305 49.5791 8.17305C49.3738 8.17305 49.1318 8.16572 48.8531 8.15105C48.5744 8.13639 48.3361 8.12905 48.1381 8.12905C47.7494 8.12905 47.3864 8.13272 47.0491 8.14005C46.7191 8.14005 46.3854 8.14372 46.0481 8.15105C45.8794 8.15105 45.7071 8.15839 45.5311 8.17305C45.3624 8.18039 45.1938 8.18405 45.0251 8.18405C44.9884 8.18405 44.9481 8.17305 44.9041 8.15105C44.8601 8.12905 44.8381 8.09239 44.8381 8.04105C44.8381 7.76972 44.9004 7.50939 45.0251 7.26005C45.1424 7.03272 45.3111 6.77972 45.5311 6.50105C45.7584 6.22239 46.0078 5.94005 46.2791 5.65405C46.5504 5.36805 46.8144 5.09672 47.0711 4.84005C47.3351 4.58339 47.5624 4.36339 47.7531 4.18005C48.0171 3.92339 48.2444 3.61539 48.4351 3.25605C48.6258 2.88939 48.7211 2.51905 48.7211 2.14505C48.7211 1.86639 48.6844 1.60605 48.6111 1.36405C48.5451 1.11472 48.4241 0.913054 48.2481 0.759054C48.0721 0.605054 47.8228 0.528055 47.5001 0.528055C47.2214 0.528055 46.9721 0.575721 46.7521 0.671054C46.5394 0.759054 46.3524 0.927721 46.1911 1.17705C46.0884 1.33839 46.0224 1.52905 45.9931 1.74905C45.9711 1.96172 45.9528 2.16339 45.9381 2.35405C45.9308 2.60339 45.7914 2.72805 45.5201 2.72805C45.1314 2.72805 44.9371 2.54472 44.9371 2.17805C44.9371 1.83339 45.0251 1.53639 45.2011 1.28705C45.3844 1.03772 45.6154 0.832387 45.8941 0.671054C46.1801 0.509721 46.4844 0.388721 46.8071 0.308054C47.1298 0.227388 47.4341 0.187054 47.7201 0.187054C48.0794 0.187054 48.4241 0.264054 48.7541 0.418055C49.0914 0.572054 49.3664 0.792054 49.5791 1.07805C49.7918 1.35672 49.8981 1.69039 49.8981 2.07905C49.8981 2.56305 49.8064 2.97739 49.6231 3.32205C49.4398 3.66672 49.1978 3.97105 48.8971 4.23505C48.6038 4.49905 48.2848 4.74472 47.9401 4.97205C47.5954 5.19205 47.2581 5.42305 46.9281 5.66505C46.7008 5.83372 46.4808 6.02805 46.2681 6.24805C46.0628 6.46072 45.8684 6.67705 45.6851 6.89705C45.6558 6.94105 45.6081 7.00705 45.5421 7.09505C45.4834 7.18305 45.4541 7.25639 45.4541 7.31505C45.4541 7.37372 45.4834 7.40305 45.5421 7.40305C45.9821 7.40305 46.4221 7.39572 46.8621 7.38105C47.3021 7.35905 47.7458 7.34439 48.1931 7.33705C48.6038 7.32972 48.9448 7.26739 49.2161 7.15005C49.4948 7.03272 49.7588 6.80539 50.0081 6.46805C50.0301 6.43872 50.0558 6.42405 50.0851 6.42405C50.1071 6.42405 50.1328 6.43505 50.1621 6.45705C50.1914 6.47172 50.2061 6.49005 50.2061 6.51205ZM56.6834 5.35705C56.6834 5.70172 56.6137 6.06839 56.4744 6.45705C56.3351 6.84572 56.1334 7.15739 55.8694 7.39205C55.5761 7.64872 55.2241 7.84672 54.8134 7.98605C54.4027 8.12539 54.0031 8.19505 53.6144 8.19505C53.4311 8.19505 53.2111 8.17305 52.9544 8.12905C52.6977 8.07772 52.4447 8.00439 52.1954 7.90905C51.9461 7.80639 51.7371 7.67439 51.5684 7.51305C51.3997 7.34439 51.3154 7.14272 51.3154 6.90805C51.3154 6.74672 51.3704 6.62205 51.4804 6.53405C51.5904 6.43872 51.7224 6.39105 51.8764 6.39105C52.0084 6.39105 52.1257 6.42405 52.2284 6.49005C52.3311 6.55605 52.3861 6.66239 52.3934 6.80905C52.4227 7.14639 52.5181 7.40672 52.6794 7.59005C52.8481 7.77339 53.1121 7.86505 53.4714 7.86505C53.9774 7.86505 54.3881 7.74772 54.7034 7.51305C55.0187 7.27105 55.2534 6.90805 55.4074 6.42405C55.4587 6.25539 55.4881 6.08305 55.4954 5.90705C55.5101 5.72372 55.5174 5.54405 55.5174 5.36805C55.5174 5.12605 55.4881 4.86572 55.4294 4.58705C55.3781 4.30105 55.2791 4.05905 55.1324 3.86105C55.0077 3.69239 54.8464 3.57872 54.6484 3.52005C54.4577 3.46139 54.2597 3.43205 54.0544 3.43205C53.8931 3.43205 53.7171 3.46139 53.5264 3.52005C53.3357 3.57139 53.1781 3.64839 53.0534 3.75105C52.9287 3.85372 52.8151 3.98572 52.7124 4.14705C52.6097 4.30105 52.5511 4.46239 52.5364 4.63105C52.5291 4.67505 52.5217 4.73005 52.5144 4.79605C52.5071 4.86205 52.4704 4.89505 52.4044 4.89505C52.3677 4.89505 52.2907 4.88039 52.1734 4.85105C52.0634 4.81439 51.9571 4.77405 51.8544 4.73005C51.7591 4.67872 51.7114 4.63472 51.7114 4.59805C51.7114 4.57605 51.7151 4.55405 51.7224 4.53205C51.7297 4.51005 51.7371 4.48805 51.7444 4.46605C51.7957 4.29739 51.8361 4.08839 51.8654 3.83905C51.9021 3.58239 51.9277 3.31472 51.9424 3.03605C51.9571 2.75005 51.9681 2.47505 51.9754 2.21105C51.9827 1.94705 51.9864 1.72339 51.9864 1.54005C51.9864 1.10739 51.9644 0.671054 51.9204 0.231054C52.1477 0.260388 52.3714 0.282388 52.5914 0.297054C52.8187 0.311721 53.0461 0.319055 53.2734 0.319055H54.8464C55.0371 0.319055 55.2571 0.308055 55.5064 0.286054C55.7631 0.264054 55.9757 0.205387 56.1444 0.110054C56.1811 0.0880543 56.2214 0.0660544 56.2654 0.0440542C56.3167 0.0147208 56.3607 5.4121e-05 56.3974 5.4121e-05C56.4194 5.4121e-05 56.4524 0.00372074 56.4964 0.011054C56.5404 0.011054 56.5624 0.0293875 56.5624 0.0660546C56.5624 0.102721 56.5367 0.179721 56.4854 0.297054C56.4341 0.407054 56.3791 0.520721 56.3204 0.638054C56.2617 0.755388 56.2214 0.832387 56.1994 0.869054C56.1701 0.920388 56.1334 0.953388 56.0894 0.968054C56.0454 0.982721 55.9941 0.990054 55.9354 0.990054C55.8401 0.990054 55.7411 0.990054 55.6384 0.990054C55.5431 0.982721 55.4441 0.975388 55.3414 0.968054C55.2167 0.953388 55.0884 0.949721 54.9564 0.957054C54.8244 0.957054 54.6961 0.957054 54.5714 0.957054C54.3661 0.957054 54.1607 0.957054 53.9554 0.957054C53.7501 0.949721 53.5411 0.946054 53.3284 0.946054C53.2037 0.946054 53.0754 0.946054 52.9434 0.946054C52.8187 0.946054 52.6941 0.949721 52.5694 0.957054C52.5621 1.41905 52.5437 1.88472 52.5144 2.35405C52.4924 2.81605 52.4704 3.27805 52.4484 3.74005C52.7857 3.50539 53.0974 3.33305 53.3834 3.22305C53.6767 3.10572 54.0287 3.04705 54.4394 3.04705C54.7181 3.04705 54.9857 3.08739 55.2424 3.16805C55.5064 3.24872 55.7411 3.38439 55.9464 3.57505C56.1811 3.79505 56.3607 4.06639 56.4854 4.38905C56.6174 4.71172 56.6834 5.03439 56.6834 5.35705Z" fill="black"/>
</svg>
