<svg width="115" height="15" viewBox="0 0 115 15" fill="none" xmlns="http://www.w3.org/2000/svg">
<path d="M6.36799 11.9041C6.30399 11.7761 6.20266 11.5947 6.06399 11.3601C5.93599 11.1147 5.78666 10.8587 5.61599 10.5921C5.45599 10.3147 5.30133 10.0694 5.15199 9.85605C5.01333 9.63205 4.89599 9.48805 4.79999 9.42405C4.68266 9.33872 4.57066 9.28538 4.46399 9.26405C4.36799 9.24272 4.25066 9.23205 4.11199 9.23205C3.93066 9.23205 3.74399 9.30138 3.55199 9.44005C3.37066 9.56805 3.21599 9.72805 3.08799 9.92005C2.95999 10.1121 2.87999 10.2987 2.84799 10.4801C3.00799 10.7254 3.26399 10.9601 3.61599 11.1841C3.97866 11.4081 4.35733 11.5894 4.75199 11.7281C5.15733 11.8561 5.50399 11.9201 5.79199 11.9201C5.88799 11.9201 5.98399 11.9201 6.07999 11.9201C6.17599 11.9094 6.27199 11.9041 6.36799 11.9041ZM9.51999 6.57605C9.51999 5.96805 9.45066 5.33872 9.31199 4.68805C9.17333 4.02672 8.94933 3.41872 8.63999 2.86405C8.33066 2.29872 7.91999 1.84005 7.40799 1.48805C6.90666 1.13605 6.28799 0.960051 5.55199 0.960051C4.99733 0.960051 4.50666 1.08272 4.07999 1.32805C3.65333 1.56272 3.29066 1.88272 2.99199 2.28805C2.69333 2.68272 2.44799 3.12538 2.25599 3.61605C2.07466 4.10672 1.94133 4.60805 1.85599 5.12005C1.77066 5.63205 1.72799 6.11738 1.72799 6.57605C1.72799 7.15205 1.77599 7.73338 1.87199 8.32005C1.97866 8.90672 2.18133 9.45072 2.47999 9.95205C2.69333 9.60005 2.97066 9.28005 3.31199 8.99205C3.65333 8.69338 4.04266 8.54405 4.47999 8.54405C4.88533 8.54405 5.22133 8.63472 5.48799 8.81605C5.76533 8.98672 6.02133 9.22672 6.25599 9.53605C6.50133 9.83472 6.72533 10.1494 6.92799 10.4801C7.13066 10.8001 7.33333 11.1254 7.53599 11.4561C7.67466 11.3387 7.81333 11.2267 7.95199 11.1201C8.09066 11.0134 8.21866 10.8907 8.33599 10.7521C8.83733 10.1867 9.15733 9.53072 9.29599 8.78405C9.44533 8.03738 9.51999 7.30138 9.51999 6.57605ZM12 13.1361C12 13.1681 11.9733 13.2161 11.92 13.2801C11.8773 13.3441 11.8453 13.3867 11.824 13.4081C11.5893 13.6961 11.3067 13.9254 10.976 14.0961C10.656 14.2667 10.3093 14.3521 9.93599 14.3521C9.39199 14.3521 8.92799 14.2667 8.54399 14.0961C8.15999 13.9254 7.81866 13.6854 7.51999 13.3761C7.22133 13.0667 6.91733 12.7041 6.60799 12.2881C6.44799 12.2987 6.28799 12.3147 6.12799 12.3361C5.97866 12.3467 5.82399 12.3521 5.66399 12.3521C4.84266 12.3521 4.08533 12.2027 3.39199 11.9041C2.69866 11.6054 2.09599 11.1894 1.58399 10.6561C1.08266 10.1227 0.693326 9.50405 0.415993 8.80005C0.13866 8.09605 -7.15256e-06 7.33872 -7.15256e-06 6.52805C-7.15256e-06 5.69605 0.133326 4.91738 0.399993 4.19205C0.66666 3.45605 1.05066 2.81072 1.55199 2.25605C2.05333 1.70138 2.65066 1.26938 3.34399 0.960051C4.04799 0.64005 4.83199 0.48005 5.69599 0.48005C6.92266 0.48005 7.95199 0.746717 8.78399 1.28005C9.61599 1.81338 10.2453 2.53872 10.672 3.45605C11.1093 4.37338 11.328 5.41338 11.328 6.57605C11.328 7.32272 11.1893 8.04805 10.912 8.75205C10.6347 9.45605 10.24 10.0907 9.72799 10.6561C9.21599 11.2107 8.61333 11.6374 7.91999 11.9361C8.29333 12.3947 8.68266 12.7734 9.08799 13.0721C9.49333 13.3814 10.0053 13.5361 10.624 13.5361C10.688 13.5361 10.7947 13.5201 10.944 13.4881C11.104 13.4561 11.2533 13.4081 11.392 13.3441C11.5413 13.2907 11.632 13.2374 11.664 13.1841L11.744 13.1041C11.7653 13.0827 11.7867 13.0614 11.808 13.0401C11.8293 13.0187 11.8453 13.0081 11.856 13.0081C11.952 13.0081 12 13.0507 12 13.1361ZM22.165 11.9201C22.165 12.0481 22.069 12.1441 21.877 12.2081C21.6957 12.2721 21.493 12.3147 21.269 12.3361C21.045 12.3574 20.885 12.3681 20.789 12.3681C20.4263 12.3681 20.1383 12.2241 19.925 11.9361C19.7117 11.6481 19.5517 11.3494 19.445 11.0401C19.0823 11.4987 18.629 11.8401 18.085 12.0641C17.541 12.2881 16.9757 12.4001 16.389 12.4001C15.429 12.4001 14.7623 12.1547 14.389 11.6641C14.0263 11.1627 13.845 10.4587 13.845 9.55205C13.845 8.75205 13.845 7.95205 13.845 7.15205C13.8557 6.34138 13.8663 5.53605 13.877 4.73605C13.877 4.41605 13.7223 4.25605 13.413 4.25605C13.3277 4.25605 13.2423 4.26138 13.157 4.27205C13.0717 4.28272 12.9863 4.28805 12.901 4.28805C12.869 4.28805 12.8423 4.27205 12.821 4.24005C12.8103 4.19738 12.805 4.16538 12.805 4.14405C12.805 4.02672 12.8583 3.96272 12.965 3.95205C13.3383 3.90938 13.7117 3.88272 14.085 3.87205C14.469 3.85072 14.8477 3.81872 15.221 3.77605C15.3063 3.86138 15.349 3.96805 15.349 4.09605C15.349 4.36272 15.3437 4.63472 15.333 4.91205C15.3223 5.18938 15.317 5.46672 15.317 5.74405C15.3063 6.39472 15.2957 7.05072 15.285 7.71205C15.285 8.36272 15.285 9.01872 15.285 9.68005C15.285 9.88272 15.2903 10.1014 15.301 10.3361C15.3117 10.5601 15.3543 10.7681 15.429 10.9601C15.5463 11.2587 15.765 11.4721 16.085 11.6001C16.4157 11.7174 16.7303 11.7761 17.029 11.7761C17.3597 11.7761 17.6903 11.7174 18.021 11.6001C18.3623 11.4721 18.6503 11.2907 18.885 11.0561C19.1303 10.8107 19.269 10.5067 19.301 10.1441C19.3223 9.96272 19.333 9.78138 19.333 9.60005C19.3437 9.40805 19.349 9.22138 19.349 9.04005L19.333 4.68805C19.333 4.54938 19.285 4.44805 19.189 4.38405C19.1037 4.32005 19.0023 4.28805 18.885 4.28805C18.7783 4.28805 18.6717 4.29338 18.565 4.30405C18.469 4.31472 18.3677 4.32005 18.261 4.32005C18.165 4.32005 18.117 4.26672 18.117 4.16005C18.117 4.05338 18.165 3.99472 18.261 3.98405C18.389 3.96272 18.5223 3.95205 18.661 3.95205C18.7997 3.94138 18.9383 3.93072 19.077 3.92005L20.181 3.80805C20.2557 3.79738 20.3303 3.78672 20.405 3.77605C20.4903 3.76538 20.5703 3.76005 20.645 3.76005C20.6983 3.76005 20.7357 3.79205 20.757 3.85605C20.7783 3.90938 20.789 3.95205 20.789 3.98405C20.757 6.29872 20.741 8.60805 20.741 10.9121C20.741 11.1787 20.7997 11.3974 20.917 11.5681C21.045 11.7387 21.253 11.8241 21.541 11.8241C21.6263 11.8241 21.701 11.8134 21.765 11.7921C21.8397 11.7707 21.9143 11.7601 21.989 11.7601C22.1063 11.7601 22.165 11.8134 22.165 11.9201ZM28.1159 10.4801C28.0732 10.0001 28.0465 9.52005 28.0359 9.04005C28.0359 8.54938 28.0305 8.05872 28.0199 7.56805H27.7959C27.4652 7.56805 27.0972 7.62138 26.6919 7.72805C26.2972 7.82405 25.9185 7.97338 25.5559 8.17605C25.1932 8.37872 24.8945 8.63472 24.6599 8.94405C24.4359 9.24272 24.3239 9.58938 24.3239 9.98405C24.3239 10.4961 24.4679 10.8854 24.7559 11.1521C25.0439 11.4081 25.4332 11.5361 25.9239 11.5361C26.1585 11.5361 26.4145 11.4827 26.6919 11.3761C26.9692 11.2587 27.2359 11.1201 27.4919 10.9601C27.7479 10.8001 27.9559 10.6401 28.1159 10.4801ZM30.9159 11.5041C30.9159 11.5467 30.9105 11.5787 30.8999 11.6001C30.7932 11.8347 30.6119 12.0161 30.3559 12.1441C30.1105 12.2614 29.8652 12.3201 29.6199 12.3201C29.1719 12.3201 28.8465 12.1921 28.6439 11.9361C28.4519 11.6694 28.2972 11.3441 28.1799 10.9601C27.7745 11.3334 27.3265 11.6481 26.8359 11.9041C26.3452 12.1494 25.8172 12.2721 25.2519 12.2721C24.8572 12.2721 24.4839 12.1974 24.1319 12.0481C23.7905 11.8881 23.5132 11.6587 23.2999 11.3601C23.0865 11.0614 22.9799 10.6987 22.9799 10.2721C22.9799 9.82405 23.0919 9.44005 23.3159 9.12005C23.5505 8.78938 23.8439 8.51205 24.1959 8.28805C24.5585 8.05338 24.9425 7.86672 25.3479 7.72805C25.7639 7.57872 26.1532 7.46672 26.5159 7.39205C26.7612 7.33872 27.0119 7.29072 27.2679 7.24805C27.5239 7.20538 27.7745 7.16272 28.0199 7.12005C28.0199 6.82138 28.0039 6.47472 27.9719 6.08005C27.9505 5.68538 27.8705 5.36005 27.7319 5.10405C27.5932 4.85872 27.4065 4.64005 27.1719 4.44805C26.9372 4.25605 26.6759 4.16005 26.3879 4.16005C25.8972 4.16005 25.5132 4.28805 25.2359 4.54405C24.9585 4.80005 24.7612 5.16272 24.6439 5.63205C24.6332 5.68538 24.6225 5.74405 24.6119 5.80805C24.6119 5.86138 24.6065 5.91472 24.5959 5.96805C24.5852 6.03205 24.5425 6.09072 24.4679 6.14405C24.4039 6.18672 24.3345 6.20805 24.2599 6.20805C24.0572 6.20805 23.8705 6.16005 23.6999 6.06405C23.5399 5.96805 23.4599 5.80805 23.4599 5.58405C23.4599 5.45605 23.4812 5.34405 23.5239 5.24805C23.6625 4.91738 23.8865 4.64538 24.1959 4.43205C24.5052 4.20805 24.8465 4.03738 25.2199 3.92005C25.6039 3.80272 25.9612 3.74405 26.2919 3.74405C26.8679 3.74405 27.3905 3.85072 27.8599 4.06405C28.3292 4.27738 28.7025 4.59205 28.9799 5.00805C29.2679 5.41338 29.4119 5.92538 29.4119 6.54405C29.4119 7.23738 29.4065 7.93605 29.3959 8.64005C29.3959 9.34405 29.4172 10.0481 29.4599 10.7521C29.4705 10.9867 29.5185 11.1947 29.6039 11.3761C29.6892 11.5467 29.8652 11.6321 30.1319 11.6321C30.2705 11.6321 30.4145 11.6001 30.5639 11.5361C30.7239 11.4614 30.8252 11.4241 30.8679 11.4241C30.8999 11.4241 30.9159 11.4507 30.9159 11.5041ZM40.899 12.1121C40.899 12.2507 40.819 12.3201 40.659 12.3201C40.4243 12.3201 40.1843 12.3147 39.939 12.3041C39.6937 12.2827 39.4483 12.2721 39.203 12.2721C38.8403 12.2721 38.467 12.2827 38.083 12.3041C37.7097 12.3147 37.3363 12.3201 36.963 12.3201C36.9203 12.3201 36.8937 12.2881 36.883 12.2241C36.8723 12.1494 36.867 12.0907 36.867 12.0481C36.867 11.9627 36.9203 11.9201 37.027 11.9201C37.1337 11.9201 37.219 11.9201 37.283 11.9201C37.3363 11.9201 37.3897 11.9254 37.443 11.9361C37.507 11.9361 37.5657 11.9361 37.619 11.9361C37.9283 11.9361 38.099 11.7814 38.131 11.4721C38.163 10.8427 38.1737 10.2081 38.163 9.56805C38.163 8.92805 38.163 8.29338 38.163 7.66405C38.163 7.54672 38.163 7.42938 38.163 7.31205C38.163 7.18405 38.163 7.06138 38.163 6.94405C38.1523 6.69872 38.1363 6.40005 38.115 6.04805C38.0937 5.68538 38.0457 5.39205 37.971 5.16805C37.8003 4.61338 37.427 4.33605 36.851 4.33605C36.3283 4.33605 35.8483 4.46938 35.411 4.73605C34.9737 5.00272 34.595 5.33872 34.275 5.74405C34.2643 6.52272 34.259 7.29605 34.259 8.06405C34.259 8.83205 34.259 9.60005 34.259 10.3681V11.4721C34.259 11.6321 34.3283 11.7494 34.467 11.8241C34.6057 11.8987 34.7443 11.9361 34.883 11.9361C34.9683 11.9361 35.0483 11.9307 35.123 11.9201C35.2083 11.8987 35.2883 11.8881 35.363 11.8881C35.4057 11.8881 35.4323 11.9147 35.443 11.9681C35.4537 12.0214 35.459 12.0641 35.459 12.0961C35.459 12.1387 35.443 12.1867 35.411 12.2401C35.3897 12.2934 35.347 12.3201 35.283 12.3201C35.0483 12.3201 34.8137 12.3147 34.579 12.3041C34.355 12.2827 34.1257 12.2721 33.891 12.2721C33.5283 12.2721 33.1657 12.2827 32.803 12.3041C32.4403 12.3147 32.0723 12.3201 31.699 12.3201C31.6457 12.3201 31.6137 12.2881 31.603 12.2241C31.603 12.1494 31.603 12.0907 31.603 12.0481C31.603 11.9627 31.651 11.9201 31.747 11.9201C31.843 11.9201 31.9177 11.9201 31.971 11.9201C32.0243 11.9201 32.0777 11.9254 32.131 11.9361C32.1843 11.9361 32.2377 11.9361 32.291 11.9361C32.6003 11.9361 32.771 11.7814 32.803 11.4721C32.8137 11.3227 32.819 11.1734 32.819 11.0241C32.819 10.8747 32.819 10.7254 32.819 10.5761C32.819 9.65872 32.819 8.74138 32.819 7.82405C32.819 6.89605 32.8137 5.97338 32.803 5.05605C32.803 4.90672 32.771 4.75738 32.707 4.60805C32.643 4.45872 32.5203 4.38405 32.339 4.38405C32.2003 4.38405 32.067 4.40538 31.939 4.44805C31.811 4.49072 31.6777 4.51205 31.539 4.51205C31.4643 4.51205 31.427 4.45872 31.427 4.35205C31.427 4.33072 31.427 4.30938 31.427 4.28805C31.4377 4.25605 31.4483 4.23472 31.459 4.22405C31.4697 4.21338 31.4857 4.20805 31.507 4.20805C31.5283 4.19738 31.5443 4.18672 31.555 4.17605C31.747 4.12272 31.9443 4.08538 32.147 4.06405C32.3603 4.04272 32.563 4.01072 32.755 3.96805C32.9363 3.93605 33.1123 3.89338 33.283 3.84005C33.4537 3.77605 33.6243 3.74405 33.795 3.74405C33.8697 3.74405 33.9283 3.78138 33.971 3.85605C34.0243 3.95205 34.067 4.09072 34.099 4.27205C34.131 4.44272 34.1523 4.61872 34.163 4.80005C34.1843 4.98138 34.195 5.13072 34.195 5.24805C34.4297 5.01338 34.707 4.78405 35.027 4.56005C35.3577 4.32538 35.699 4.13338 36.051 3.98405C36.4137 3.82405 36.7657 3.74405 37.107 3.74405C38.0883 3.74405 38.7497 3.96272 39.091 4.40005C39.443 4.82672 39.619 5.50405 39.619 6.43205C39.619 7.26405 39.6137 8.09605 39.603 8.92805C39.603 9.76005 39.603 10.5921 39.603 11.4241C39.603 11.6267 39.6617 11.7654 39.779 11.8401C39.907 11.9041 40.0563 11.9361 40.227 11.9361C40.3123 11.9361 40.3977 11.9307 40.483 11.9201C40.5683 11.8987 40.6483 11.8881 40.723 11.8881C40.787 11.8881 40.8297 11.9147 40.851 11.9681C40.883 12.0107 40.899 12.0587 40.899 12.1121ZM46.9604 11.6161C46.9604 11.7121 46.8857 11.8081 46.7364 11.9041C46.5977 12.0001 46.427 12.0854 46.2244 12.1601C46.0217 12.2347 45.8244 12.2934 45.6324 12.3361C45.451 12.3787 45.3177 12.4001 45.2324 12.4001C44.6777 12.4001 44.2457 12.3307 43.9364 12.1921C43.6377 12.0534 43.4244 11.8241 43.2964 11.5041C43.179 11.1841 43.1204 10.7521 43.1204 10.2081C43.1204 9.32272 43.1204 8.43738 43.1204 7.55205C43.131 6.65605 43.1417 5.76538 43.1524 4.88005H42.0004C41.9257 4.88005 41.8617 4.90138 41.8084 4.94405C41.7657 4.97605 41.7177 4.99205 41.6644 4.99205C41.611 4.99205 41.5844 4.95472 41.5844 4.88005C41.5844 4.83738 41.611 4.75205 41.6644 4.62405C41.7284 4.49605 41.771 4.41072 41.7924 4.36805C41.8244 4.37872 41.8724 4.38405 41.9364 4.38405H43.1844L43.2004 2.35205C43.4457 2.19205 43.6697 2.01605 43.8724 1.82405C44.075 1.62138 44.2777 1.41872 44.4804 1.21605C44.5017 1.19472 44.523 1.17872 44.5444 1.16805C44.5657 1.14672 44.587 1.13605 44.6084 1.13605C44.7044 1.13605 44.7524 1.17338 44.7524 1.24805L44.6564 4.36805C44.9977 4.36805 45.3337 4.36272 45.6644 4.35205C46.0057 4.34138 46.3417 4.33605 46.6724 4.33605C46.811 4.33605 46.8804 4.41605 46.8804 4.57605C46.8804 4.77872 46.7897 4.88005 46.6084 4.88005H44.6564C44.6564 5.69072 44.651 6.50672 44.6404 7.32805C44.6404 8.13872 44.6404 8.95472 44.6404 9.77605V11.0081C44.6404 11.2747 44.7524 11.4614 44.9764 11.5681C45.2004 11.6641 45.419 11.7121 45.6324 11.7121C45.931 11.7121 46.2244 11.6641 46.5124 11.5681C46.5444 11.5467 46.5924 11.5254 46.6564 11.5041C46.7204 11.4827 46.7684 11.4721 46.8004 11.4721C46.907 11.4721 46.9604 11.5201 46.9604 11.6161ZM52.1615 12.1121C52.1615 12.1654 52.1455 12.2187 52.1135 12.2721C52.0815 12.3147 52.0388 12.3361 51.9855 12.3361C51.6868 12.3361 51.3882 12.3307 51.0895 12.3201C50.8015 12.2987 50.5028 12.2881 50.1935 12.2881H49.7615C49.4415 12.2881 49.1215 12.2987 48.8015 12.3201C48.4922 12.3307 48.1828 12.3361 47.8735 12.3361C47.8308 12.3361 47.7988 12.3094 47.7775 12.2561C47.7668 12.2027 47.7615 12.1601 47.7615 12.1281C47.7615 12.0747 47.7668 12.0374 47.7775 12.0161C47.7882 11.9841 47.8202 11.9627 47.8735 11.9521C47.9268 11.9307 47.9855 11.9254 48.0495 11.9361C48.1242 11.9361 48.1935 11.9361 48.2575 11.9361C48.3322 11.9361 48.4015 11.9414 48.4655 11.9521C48.5295 11.9521 48.5988 11.9521 48.6735 11.9521C48.8228 11.9521 48.9562 11.9201 49.0735 11.8561C49.2015 11.7814 49.2655 11.6587 49.2655 11.4881V5.08805C49.2655 4.90672 49.2335 4.76805 49.1695 4.67205C49.1055 4.56538 48.9722 4.51205 48.7695 4.51205C48.6202 4.51205 48.4655 4.52272 48.3055 4.54405C48.1562 4.55472 48.0068 4.57072 47.8575 4.59205C47.7722 4.59205 47.7295 4.54405 47.7295 4.44805C47.7295 4.34138 47.7722 4.27205 47.8575 4.24005C47.9855 4.19738 48.1188 4.17072 48.2575 4.16005C48.4068 4.13872 48.5455 4.11738 48.6735 4.09605C48.9722 4.04272 49.2708 3.98405 49.5695 3.92005C49.8682 3.85605 50.1615 3.78672 50.4495 3.71205C50.4815 3.70138 50.5242 3.69605 50.5775 3.69605C50.6948 3.69605 50.7535 3.76005 50.7535 3.88805C50.7535 5.14672 50.7482 6.41072 50.7375 7.68005C50.7375 8.94938 50.7375 10.2187 50.7375 11.4881C50.7375 11.6587 50.8122 11.7814 50.9615 11.8561C51.1215 11.9201 51.2708 11.9521 51.4095 11.9521C51.5162 11.9521 51.6228 11.9467 51.7295 11.9361C51.8468 11.9254 51.9588 11.9201 52.0655 11.9201C52.1082 11.9201 52.1348 11.9467 52.1455 12.0001C52.1562 12.0534 52.1615 12.0907 52.1615 12.1121ZM50.8655 1.04005C50.8655 1.30672 50.7695 1.53605 50.5775 1.72805C50.3855 1.90938 50.1562 2.00005 49.8895 2.00005C49.6228 2.00005 49.3935 1.90938 49.2015 1.72805C49.0095 1.53605 48.9135 1.30672 48.9135 1.04005C48.9135 0.773383 49.0095 0.549383 49.2015 0.368051C49.3935 0.176051 49.6228 0.0800505 49.8895 0.0800505C50.1562 0.0800505 50.3855 0.176051 50.5775 0.368051C50.7695 0.549383 50.8655 0.773383 50.8655 1.04005ZM59.2135 6.48005C59.2135 6.11738 59.1388 5.77605 58.9895 5.45605C58.8402 5.13605 58.6268 4.87472 58.3495 4.67205C58.0722 4.46938 57.7362 4.36805 57.3415 4.36805C56.8295 4.36805 56.4082 4.49072 56.0775 4.73605C55.7575 4.98138 55.5015 5.30138 55.3095 5.69605C55.1282 6.08005 55.0002 6.49605 54.9255 6.94405C54.8615 7.39205 54.8295 7.81872 54.8295 8.22405C54.8295 8.58672 54.8615 8.97605 54.9255 9.39205C54.9895 9.80805 55.1015 10.1974 55.2615 10.5601C55.4322 10.9227 55.6668 11.2214 55.9655 11.4561C56.2642 11.6801 56.6428 11.7921 57.1015 11.7921C57.4855 11.7921 57.8375 11.6747 58.1575 11.4401C58.4775 11.1947 58.7335 10.8907 58.9255 10.5281C59.1175 10.1654 59.2135 9.80805 59.2135 9.45605V6.48005ZM62.1895 11.7121C62.1895 11.7654 62.1628 11.8187 62.1095 11.8721C62.0562 11.9254 62.0082 11.9681 61.9655 12.0001C61.8268 12.1067 61.6242 12.1974 61.3575 12.2721C61.1015 12.3467 60.8828 12.3841 60.7015 12.3841C60.4242 12.3841 60.1948 12.3041 60.0135 12.1441C59.8322 11.9841 59.6828 11.7867 59.5655 11.5521C59.4588 11.3174 59.3628 11.0881 59.2775 10.8641C59.0428 11.2374 58.7228 11.5734 58.3175 11.8721C57.9122 12.1601 57.4802 12.3041 57.0215 12.3041C56.7122 12.3041 56.3922 12.2827 56.0615 12.2401C55.7415 12.1867 55.4428 12.0747 55.1655 11.9041C54.5575 11.5201 54.0935 11.0027 53.7735 10.3521C53.4642 9.69072 53.3095 9.01338 53.3095 8.32005C53.3095 7.48805 53.4588 6.74138 53.7575 6.08005C54.0562 5.40805 54.4988 4.88005 55.0855 4.49605C55.6828 4.10138 56.4188 3.90405 57.2935 3.90405C57.4855 3.90405 57.6988 3.94138 57.9335 4.01605C58.1682 4.09072 58.3975 4.18672 58.6215 4.30405C58.8562 4.41072 59.0428 4.52272 59.1815 4.64005V1.53605C59.1815 1.19472 59.0908 1.00272 58.9095 0.960051C58.7388 0.906717 58.5095 0.880051 58.2215 0.880051C58.1255 0.880051 58.0295 0.885384 57.9335 0.89605C57.8375 0.89605 57.7415 0.89605 57.6455 0.89605C57.6028 0.89605 57.5602 0.88005 57.5175 0.84805C57.4855 0.81605 57.4695 0.778717 57.4695 0.736051C57.4695 0.661384 57.4962 0.613384 57.5495 0.592051C57.5708 0.570717 57.5922 0.56005 57.6135 0.56005C57.6455 0.56005 57.6775 0.554717 57.7095 0.54405C57.9335 0.501383 58.1575 0.469384 58.3815 0.44805C58.6162 0.41605 58.8508 0.378717 59.0855 0.33605C59.3202 0.293383 59.5495 0.250717 59.7735 0.20805C59.9975 0.154716 60.2215 0.0960499 60.4455 0.0320501C60.4562 0.0320501 60.4722 0.0267169 60.4935 0.0160503C60.5255 0.00538381 60.5468 5.05447e-05 60.5575 5.05447e-05C60.6108 5.05447e-05 60.6428 0.0213839 60.6535 0.0640507C60.6642 0.106717 60.6695 0.149383 60.6695 0.19205C60.6695 1.51472 60.6642 2.83205 60.6535 4.14405C60.6428 5.45605 60.6375 6.77338 60.6375 8.09605V10.4801C60.6375 10.6614 60.6588 10.8481 60.7015 11.0401C60.7442 11.2321 60.8242 11.3921 60.9415 11.5201C61.0695 11.6481 61.2455 11.7121 61.4695 11.7121C61.5762 11.7121 61.6775 11.6907 61.7735 11.6481C61.8695 11.6054 61.9708 11.5841 62.0775 11.5841C62.1522 11.5841 62.1895 11.6267 62.1895 11.7121ZM68.0846 10.4801C68.042 10.0001 68.0153 9.52005 68.0046 9.04005C68.0046 8.54938 67.9993 8.05872 67.9886 7.56805H67.7646C67.434 7.56805 67.066 7.62138 66.6606 7.72805C66.266 7.82405 65.8873 7.97338 65.5246 8.17605C65.162 8.37872 64.8633 8.63472 64.6286 8.94405C64.4046 9.24272 64.2926 9.58938 64.2926 9.98405C64.2926 10.4961 64.4366 10.8854 64.7246 11.1521C65.0126 11.4081 65.402 11.5361 65.8926 11.5361C66.1273 11.5361 66.3833 11.4827 66.6606 11.3761C66.938 11.2587 67.2046 11.1201 67.4606 10.9601C67.7166 10.8001 67.9246 10.6401 68.0846 10.4801ZM70.8846 11.5041C70.8846 11.5467 70.8793 11.5787 70.8686 11.6001C70.762 11.8347 70.5806 12.0161 70.3246 12.1441C70.0793 12.2614 69.834 12.3201 69.5886 12.3201C69.1406 12.3201 68.8153 12.1921 68.6126 11.9361C68.4206 11.6694 68.266 11.3441 68.1486 10.9601C67.7433 11.3334 67.2953 11.6481 66.8046 11.9041C66.314 12.1494 65.786 12.2721 65.2206 12.2721C64.826 12.2721 64.4526 12.1974 64.1006 12.0481C63.7593 11.8881 63.482 11.6587 63.2686 11.3601C63.0553 11.0614 62.9486 10.6987 62.9486 10.2721C62.9486 9.82405 63.0606 9.44005 63.2846 9.12005C63.5193 8.78938 63.8126 8.51205 64.1646 8.28805C64.5273 8.05338 64.9113 7.86672 65.3166 7.72805C65.7326 7.57872 66.122 7.46672 66.4846 7.39205C66.73 7.33872 66.9806 7.29072 67.2366 7.24805C67.4926 7.20538 67.7433 7.16272 67.9886 7.12005C67.9886 6.82138 67.9726 6.47472 67.9406 6.08005C67.9193 5.68538 67.8393 5.36005 67.7006 5.10405C67.562 4.85872 67.3753 4.64005 67.1406 4.44805C66.906 4.25605 66.6446 4.16005 66.3566 4.16005C65.866 4.16005 65.482 4.28805 65.2046 4.54405C64.9273 4.80005 64.73 5.16272 64.6126 5.63205C64.602 5.68538 64.5913 5.74405 64.5806 5.80805C64.5806 5.86138 64.5753 5.91472 64.5646 5.96805C64.554 6.03205 64.5113 6.09072 64.4366 6.14405C64.3726 6.18672 64.3033 6.20805 64.2286 6.20805C64.026 6.20805 63.8393 6.16005 63.6686 6.06405C63.5086 5.96805 63.4286 5.80805 63.4286 5.58405C63.4286 5.45605 63.45 5.34405 63.4926 5.24805C63.6313 4.91738 63.8553 4.64538 64.1646 4.43205C64.474 4.20805 64.8153 4.03738 65.1886 3.92005C65.5726 3.80272 65.93 3.74405 66.2606 3.74405C66.8366 3.74405 67.3593 3.85072 67.8286 4.06405C68.298 4.27738 68.6713 4.59205 68.9486 5.00805C69.2366 5.41338 69.3806 5.92538 69.3806 6.54405C69.3806 7.23738 69.3753 7.93605 69.3646 8.64005C69.3646 9.34405 69.386 10.0481 69.4286 10.7521C69.4393 10.9867 69.4873 11.1947 69.5726 11.3761C69.658 11.5467 69.834 11.6321 70.1006 11.6321C70.2393 11.6321 70.3833 11.6001 70.5326 11.5361C70.6926 11.4614 70.794 11.4241 70.8366 11.4241C70.8686 11.4241 70.8846 11.4507 70.8846 11.5041ZM77.6197 6.48005C77.6197 6.11738 77.5451 5.77605 77.3957 5.45605C77.2464 5.13605 77.0331 4.87472 76.7557 4.67205C76.4784 4.46938 76.1424 4.36805 75.7477 4.36805C75.2357 4.36805 74.8144 4.49072 74.4837 4.73605C74.1637 4.98138 73.9077 5.30138 73.7157 5.69605C73.5344 6.08005 73.4064 6.49605 73.3317 6.94405C73.2677 7.39205 73.2357 7.81872 73.2357 8.22405C73.2357 8.58672 73.2677 8.97605 73.3317 9.39205C73.3957 9.80805 73.5077 10.1974 73.6677 10.5601C73.8384 10.9227 74.0731 11.2214 74.3717 11.4561C74.6704 11.6801 75.0491 11.7921 75.5077 11.7921C75.8917 11.7921 76.2437 11.6747 76.5637 11.4401C76.8837 11.1947 77.1397 10.8907 77.3317 10.5281C77.5237 10.1654 77.6197 9.80805 77.6197 9.45605V6.48005ZM80.5957 11.7121C80.5957 11.7654 80.5691 11.8187 80.5157 11.8721C80.4624 11.9254 80.4144 11.9681 80.3717 12.0001C80.2331 12.1067 80.0304 12.1974 79.7637 12.2721C79.5077 12.3467 79.2891 12.3841 79.1077 12.3841C78.8304 12.3841 78.6011 12.3041 78.4197 12.1441C78.2384 11.9841 78.0891 11.7867 77.9717 11.5521C77.8651 11.3174 77.7691 11.0881 77.6837 10.8641C77.4491 11.2374 77.1291 11.5734 76.7237 11.8721C76.3184 12.1601 75.8864 12.3041 75.4277 12.3041C75.1184 12.3041 74.7984 12.2827 74.4677 12.2401C74.1477 12.1867 73.8491 12.0747 73.5717 11.9041C72.9637 11.5201 72.4997 11.0027 72.1797 10.3521C71.8704 9.69072 71.7157 9.01338 71.7157 8.32005C71.7157 7.48805 71.8651 6.74138 72.1637 6.08005C72.4624 5.40805 72.9051 4.88005 73.4917 4.49605C74.0891 4.10138 74.8251 3.90405 75.6997 3.90405C75.8917 3.90405 76.1051 3.94138 76.3397 4.01605C76.5744 4.09072 76.8037 4.18672 77.0277 4.30405C77.2624 4.41072 77.4491 4.52272 77.5877 4.64005V1.53605C77.5877 1.19472 77.4971 1.00272 77.3157 0.960051C77.1451 0.906717 76.9157 0.880051 76.6277 0.880051C76.5317 0.880051 76.4357 0.885384 76.3397 0.89605C76.2437 0.89605 76.1477 0.89605 76.0517 0.89605C76.0091 0.89605 75.9664 0.88005 75.9237 0.84805C75.8917 0.81605 75.8757 0.778717 75.8757 0.736051C75.8757 0.661384 75.9024 0.613384 75.9557 0.592051C75.9771 0.570717 75.9984 0.56005 76.0197 0.56005C76.0517 0.56005 76.0837 0.554717 76.1157 0.54405C76.3397 0.501383 76.5637 0.469384 76.7877 0.44805C77.0224 0.41605 77.2571 0.378717 77.4917 0.33605C77.7264 0.293383 77.9557 0.250717 78.1797 0.20805C78.4037 0.154716 78.6277 0.0960499 78.8517 0.0320501C78.8624 0.0320501 78.8784 0.0267169 78.8997 0.0160503C78.9317 0.00538381 78.9531 5.05447e-05 78.9637 5.05447e-05C79.0171 5.05447e-05 79.0491 0.0213839 79.0597 0.0640507C79.0704 0.106717 79.0757 0.149383 79.0757 0.19205C79.0757 1.51472 79.0704 2.83205 79.0597 4.14405C79.0491 5.45605 79.0437 6.77338 79.0437 8.09605V10.4801C79.0437 10.6614 79.0651 10.8481 79.1077 11.0401C79.1504 11.2321 79.2304 11.3921 79.3477 11.5201C79.4757 11.6481 79.6517 11.7121 79.8757 11.7121C79.9824 11.7121 80.0837 11.6907 80.1797 11.6481C80.2757 11.6054 80.3771 11.5841 80.4837 11.5841C80.5584 11.5841 80.5957 11.6267 80.5957 11.7121ZM87.2269 6.73605C87.2162 6.29872 87.1789 5.88272 87.1149 5.48805C87.0509 5.08272 86.8962 4.75205 86.6509 4.49605C86.4055 4.22938 86.0055 4.09605 85.4509 4.09605C84.9495 4.09605 84.5389 4.23472 84.2189 4.51205C83.9095 4.77872 83.6695 5.12005 83.4989 5.53605C83.3282 5.94138 83.2002 6.35738 83.1149 6.78405C83.3815 6.79472 83.6429 6.80538 83.8989 6.81605C84.1549 6.81605 84.4109 6.81605 84.6669 6.81605C85.0935 6.81605 85.5202 6.81072 85.9469 6.80005C86.3735 6.77872 86.8002 6.75738 87.2269 6.73605ZM89.0669 10.4001C89.0669 10.4534 89.0562 10.4854 89.0349 10.4961C89.0029 10.6027 88.9229 10.7307 88.7949 10.8801C88.6775 11.0294 88.5442 11.1734 88.3949 11.3121C88.2455 11.4401 88.1229 11.5361 88.0269 11.6001C87.6749 11.8454 87.2749 12.0427 86.8269 12.1921C86.3895 12.3414 85.9522 12.4161 85.5149 12.4161C85.1522 12.4161 84.7469 12.3574 84.2989 12.2401C83.8615 12.1227 83.4882 11.9627 83.1789 11.7601C82.5815 11.3654 82.1442 10.8481 81.8669 10.2081C81.5895 9.56805 81.4509 8.90138 81.4509 8.20805C81.4509 7.41872 81.6055 6.68805 81.9149 6.01605C82.2242 5.34405 82.7202 4.80005 83.4029 4.38405C83.7122 4.20272 84.0589 4.05338 84.4429 3.93605C84.8269 3.80805 85.1949 3.74405 85.5469 3.74405C86.1762 3.74405 86.7309 3.87205 87.2109 4.12805C87.6909 4.38405 88.0642 4.74672 88.3309 5.21605C88.6082 5.67472 88.7469 6.22405 88.7469 6.86405C88.7469 7.04538 88.7042 7.16272 88.6189 7.21605C88.5442 7.26938 88.4269 7.29605 88.2669 7.29605C88.0535 7.29605 87.8402 7.29072 87.6269 7.28005C87.4135 7.26938 87.2002 7.25872 86.9869 7.24805C86.6882 7.22672 86.3895 7.21605 86.0909 7.21605C85.8029 7.21605 85.5095 7.21605 85.2109 7.21605C84.8482 7.21605 84.4855 7.21605 84.1229 7.21605C83.7602 7.21605 83.3975 7.22672 83.0349 7.24805C83.0242 7.41872 83.0135 7.58405 83.0029 7.74405C82.9922 7.90405 82.9869 8.06938 82.9869 8.24005C82.9869 8.63472 83.0349 9.04538 83.1309 9.47205C83.2269 9.88805 83.3815 10.2774 83.5949 10.6401C83.8082 10.9921 84.0802 11.2801 84.4109 11.5041C84.7415 11.7174 85.1415 11.8241 85.6109 11.8241C86.0909 11.8241 86.5495 11.7494 86.9869 11.6001C87.4242 11.4507 87.8242 11.2107 88.1869 10.8801C88.2829 10.7841 88.3682 10.6827 88.4429 10.5761C88.5282 10.4587 88.6189 10.3574 88.7149 10.2721C88.7682 10.2187 88.8269 10.1921 88.8909 10.1921C88.9442 10.1921 88.9869 10.2134 89.0189 10.2561C89.0509 10.2987 89.0669 10.3467 89.0669 10.4001ZM93.6416 11.1521C93.6416 11.4507 93.5296 11.7014 93.3056 11.9041C93.0816 12.0961 92.8256 12.1921 92.5376 12.1921C92.2496 12.1921 91.9936 12.0961 91.7696 11.9041C91.5456 11.7014 91.4336 11.4507 91.4336 11.1521C91.4336 10.8427 91.5403 10.5921 91.7536 10.4001C91.9776 10.1974 92.239 10.0961 92.5376 10.0961C92.8363 10.0961 93.0923 10.1974 93.3056 10.4001C93.5296 10.5921 93.6416 10.8427 93.6416 11.1521ZM93.6416 5.42405C93.6416 5.72272 93.5296 5.97338 93.3056 6.17605C93.0923 6.37872 92.8363 6.48005 92.5376 6.48005C92.239 6.48005 91.9776 6.37872 91.7536 6.17605C91.5403 5.97338 91.4336 5.72272 91.4336 5.42405C91.4336 5.12538 91.5456 4.88005 91.7696 4.68805C91.9936 4.48538 92.2496 4.38405 92.5376 4.38405C92.8256 4.38405 93.0816 4.48538 93.3056 4.68805C93.5296 4.88005 93.6416 5.12538 93.6416 5.42405ZM103.572 11.1841C103.572 11.4827 103.46 11.7334 103.236 11.9361C103.012 12.1387 102.751 12.2401 102.452 12.2401C102.153 12.2401 101.892 12.1387 101.668 11.9361C101.444 11.7334 101.332 11.4827 101.332 11.1841C101.332 10.8747 101.444 10.6187 101.668 10.4161C101.892 10.2134 102.153 10.1121 102.452 10.1121C102.751 10.1121 103.012 10.2134 103.236 10.4161C103.46 10.6187 103.572 10.8747 103.572 11.1841ZM109.166 11.1841C109.166 11.4827 109.054 11.7334 108.83 11.9361C108.606 12.1387 108.344 12.2401 108.046 12.2401C107.747 12.2401 107.486 12.1387 107.262 11.9361C107.038 11.7334 106.926 11.4827 106.926 11.1841C106.926 10.8747 107.038 10.6187 107.262 10.4161C107.486 10.2134 107.747 10.1121 108.046 10.1121C108.344 10.1121 108.606 10.2134 108.83 10.4161C109.054 10.6187 109.166 10.8747 109.166 11.1841ZM114.759 11.1841C114.759 11.4827 114.647 11.7334 114.423 11.9361C114.199 12.1387 113.938 12.2401 113.639 12.2401C113.341 12.2401 113.079 12.1387 112.855 11.9361C112.631 11.7334 112.519 11.4827 112.519 11.1841C112.519 10.8747 112.631 10.6187 112.855 10.4161C113.079 10.2134 113.341 10.1121 113.639 10.1121C113.938 10.1121 114.199 10.2134 114.423 10.4161C114.647 10.6187 114.759 10.8747 114.759 11.1841Z" fill="#919191"/>
</svg>
