<svg width="152" height="12" viewBox="0 0 152 12" fill="none" xmlns="http://www.w3.org/2000/svg">
<path d="M12.4459 10.556C12.4459 10.6867 12.3946 10.752 12.2919 10.752C12.0306 10.752 11.7646 10.7427 11.4939 10.724C11.2232 10.7054 10.9526 10.696 10.6819 10.696C10.4112 10.696 10.1359 10.7054 9.85589 10.724C9.58523 10.7427 9.31456 10.752 9.0439 10.752C9.00656 10.752 8.97856 10.7287 8.9599 10.682C8.95056 10.6354 8.94589 10.598 8.94589 10.57C8.94589 10.486 8.98789 10.4347 9.07189 10.416C9.16523 10.3974 9.26323 10.3927 9.3659 10.402C9.47789 10.4114 9.56189 10.416 9.6179 10.416C9.74856 10.416 9.8559 10.3834 9.9399 10.318C10.0239 10.2527 10.0659 10.1547 10.0659 10.024C10.0659 9.3987 10.0706 8.77804 10.0799 8.16204C10.0986 7.54604 10.1079 6.93004 10.1079 6.31404C10.1079 6.21137 10.1079 6.1087 10.1079 6.00604C10.1079 5.90337 10.1032 5.8007 10.0939 5.69804C10.0846 5.47404 10.0706 5.24537 10.0519 5.01204C10.0426 4.76937 10.0052 4.54537 9.9399 4.34004C9.87456 4.12537 9.76256 3.9527 9.60389 3.82204C9.44523 3.69137 9.21656 3.62604 8.9179 3.62604C8.70323 3.62604 8.46523 3.69137 8.2039 3.82204C7.95189 3.94337 7.70923 4.08804 7.4759 4.25604C7.24256 4.42404 7.04656 4.5827 6.88789 4.73204C6.90656 4.8627 6.91589 4.99804 6.91589 5.13804C6.91589 5.2687 6.91589 5.39937 6.91589 5.53004C6.91589 5.8007 6.91589 6.07604 6.91589 6.35604C6.92523 6.6267 6.92989 6.89737 6.92989 7.16804C6.92989 7.64404 6.92523 8.12004 6.91589 8.59604C6.91589 9.07204 6.91589 9.54804 6.91589 10.024C6.91589 10.164 6.97656 10.262 7.0979 10.318C7.21923 10.374 7.34056 10.402 7.46189 10.402C7.53656 10.402 7.61123 10.3974 7.6859 10.388C7.7699 10.3787 7.84456 10.374 7.90989 10.374C7.95656 10.374 7.98456 10.3974 7.9939 10.444C8.01256 10.4907 8.02189 10.528 8.02189 10.556C8.02189 10.6027 8.00789 10.6494 7.97989 10.696C7.95189 10.7334 7.90989 10.752 7.85389 10.752C7.59256 10.752 7.32656 10.7427 7.05589 10.724C6.79456 10.7054 6.52856 10.696 6.25789 10.696C5.99656 10.696 5.73056 10.7054 5.45989 10.724C5.18923 10.7427 4.91856 10.752 4.64789 10.752C4.61056 10.752 4.58256 10.7287 4.56389 10.682C4.54523 10.6354 4.53589 10.598 4.53589 10.57C4.53589 10.4954 4.57323 10.444 4.64789 10.416C4.72256 10.3974 4.81123 10.3927 4.91389 10.402C5.02589 10.4114 5.11923 10.416 5.19389 10.416C5.32456 10.416 5.43189 10.388 5.51589 10.332C5.60923 10.2667 5.65589 10.164 5.65589 10.024V6.45404C5.65589 6.25804 5.65123 6.01537 5.64189 5.72604C5.64189 5.4367 5.62323 5.15204 5.5859 4.87204C5.55789 4.5827 5.50656 4.35404 5.43189 4.18604C5.36656 4.01804 5.25456 3.88737 5.09589 3.79404C4.94656 3.7007 4.77856 3.65404 4.59189 3.65404C4.34923 3.65404 4.10189 3.7147 3.84989 3.83604C3.59789 3.95737 3.35989 4.1067 3.13589 4.28404C2.91189 4.46137 2.72056 4.6387 2.56189 4.81604V10.01C2.56189 10.15 2.61323 10.2527 2.71589 10.318C2.81856 10.374 2.93056 10.402 3.05189 10.402C3.12656 10.402 3.20123 10.3974 3.27589 10.388C3.35056 10.3694 3.42056 10.36 3.48589 10.36C3.52323 10.36 3.54656 10.388 3.55589 10.444C3.56523 10.4907 3.56989 10.5234 3.56989 10.542C3.56989 10.5887 3.55589 10.6354 3.52789 10.682C3.50923 10.7194 3.47189 10.738 3.41589 10.738C3.23856 10.738 3.06123 10.7334 2.88389 10.724C2.70656 10.7054 2.52923 10.696 2.35189 10.696C1.99723 10.696 1.64256 10.7054 1.28789 10.724C0.933228 10.7334 0.578561 10.738 0.223895 10.738C0.186561 10.738 0.158561 10.7147 0.139895 10.668C0.121228 10.6214 0.111895 10.584 0.111895 10.556C0.111895 10.444 0.158561 10.388 0.251895 10.388C0.354561 10.388 0.452561 10.3927 0.545895 10.402C0.639228 10.402 0.732561 10.402 0.825895 10.402C0.956561 10.402 1.06856 10.374 1.16189 10.318C1.25523 10.2527 1.30189 10.15 1.30189 10.01C1.30189 9.06737 1.29723 8.1247 1.28789 7.18204C1.28789 6.23004 1.28789 5.2827 1.28789 4.34004C1.28789 4.23737 1.27856 4.1347 1.25989 4.03204C1.24123 3.92937 1.18056 3.85937 1.07789 3.82204C1.01256 3.79404 0.942561 3.78004 0.867895 3.78004C0.746561 3.78004 0.625228 3.7987 0.503895 3.83604C0.382561 3.86404 0.256561 3.87804 0.125895 3.87804C0.0418946 3.87804 -0.000105444 3.82204 -0.000105444 3.71004C-0.000105444 3.63537 0.0278946 3.5887 0.0838945 3.57004C0.130561 3.55137 0.181895 3.54204 0.237895 3.54204C0.303228 3.5327 0.363895 3.52337 0.419895 3.51404C0.634561 3.48604 0.849228 3.45337 1.06389 3.41604C1.28789 3.36937 1.50256 3.3227 1.70789 3.27604C1.78256 3.25737 1.86189 3.2387 1.94589 3.22004C2.02989 3.20137 2.11389 3.19204 2.19789 3.19204C2.30989 3.19204 2.38456 3.27604 2.42189 3.44404C2.46856 3.6027 2.49189 3.77537 2.49189 3.96204C2.50123 4.1487 2.50589 4.28404 2.50589 4.36804C2.70189 4.20004 2.92123 4.02737 3.16389 3.85004C3.40656 3.66337 3.66323 3.5047 3.93389 3.37404C4.20456 3.24337 4.47523 3.17804 4.74589 3.17804C5.22189 3.17804 5.62323 3.25737 5.94989 3.41604C6.27656 3.5747 6.55656 3.87337 6.78989 4.31204C6.99523 4.1347 7.22856 3.95737 7.4899 3.78004C7.75123 3.59337 8.02189 3.43937 8.30189 3.31804C8.59123 3.18737 8.8759 3.12204 9.1559 3.12204C9.7719 3.12204 10.2386 3.2107 10.5559 3.38804C10.8826 3.56537 11.1019 3.8407 11.2139 4.21404C11.3352 4.57804 11.3959 5.04937 11.3959 5.62804C11.3959 6.35604 11.3912 7.0887 11.3819 7.82604C11.3726 8.55404 11.3679 9.2867 11.3679 10.024C11.3679 10.164 11.4286 10.262 11.5499 10.318C11.6806 10.374 11.8066 10.402 11.9279 10.402C12.0026 10.402 12.0726 10.3974 12.1379 10.388C12.2126 10.3787 12.2826 10.374 12.3479 10.374C12.3852 10.374 12.4086 10.3974 12.4179 10.444C12.4366 10.4907 12.4459 10.528 12.4459 10.556ZM18.2828 5.82404C18.2735 5.44137 18.2408 5.07737 18.1848 4.73204C18.1288 4.37737 17.9935 4.08804 17.7788 3.86404C17.5641 3.6307 17.2141 3.51404 16.7288 3.51404C16.2901 3.51404 15.9308 3.63537 15.6508 3.87804C15.3801 4.11137 15.1701 4.41004 15.0208 4.77404C14.8715 5.1287 14.7595 5.4927 14.6848 5.86604C14.9181 5.87537 15.1468 5.8847 15.3708 5.89404C15.5948 5.89404 15.8188 5.89404 16.0428 5.89404C16.4161 5.89404 16.7895 5.88937 17.1628 5.88004C17.5361 5.86137 17.9095 5.8427 18.2828 5.82404ZM19.8928 9.03004C19.8928 9.0767 19.8835 9.1047 19.8648 9.11404C19.8368 9.20737 19.7668 9.31937 19.6548 9.45004C19.5521 9.5807 19.4355 9.7067 19.3048 9.82804C19.1741 9.94004 19.0668 10.024 18.9828 10.08C18.6748 10.2947 18.3248 10.4674 17.9328 10.598C17.5501 10.7287 17.1675 10.794 16.7848 10.794C16.4675 10.794 16.1128 10.7427 15.7208 10.64C15.3381 10.5374 15.0115 10.3974 14.7408 10.22C14.2181 9.8747 13.8355 9.42204 13.5928 8.86204C13.3501 8.30204 13.2288 7.7187 13.2288 7.11204C13.2288 6.42137 13.3641 5.78204 13.6348 5.19404C13.9055 4.60604 14.3395 4.13004 14.9368 3.76604C15.2075 3.60737 15.5108 3.4767 15.8468 3.37404C16.1828 3.26204 16.5048 3.20604 16.8128 3.20604C17.3635 3.20604 17.8488 3.31804 18.2688 3.54204C18.6888 3.76604 19.0155 4.08337 19.2488 4.49404C19.4915 4.89537 19.6128 5.37604 19.6128 5.93604C19.6128 6.0947 19.5755 6.19737 19.5008 6.24404C19.4355 6.2907 19.3328 6.31404 19.1928 6.31404C19.0061 6.31404 18.8195 6.30937 18.6328 6.30004C18.4461 6.2907 18.2595 6.28137 18.0728 6.27204C17.8115 6.25337 17.5501 6.24404 17.2888 6.24404C17.0368 6.24404 16.7801 6.24404 16.5188 6.24404C16.2015 6.24404 15.8841 6.24404 15.5668 6.24404C15.2495 6.24404 14.9321 6.25337 14.6148 6.27204C14.6055 6.42137 14.5961 6.56604 14.5868 6.70604C14.5775 6.84604 14.5728 6.9907 14.5728 7.14004C14.5728 7.48537 14.6148 7.8447 14.6988 8.21804C14.7828 8.58204 14.9181 8.9227 15.1048 9.24004C15.2915 9.54804 15.5295 9.80004 15.8188 9.99604C16.1081 10.1827 16.4581 10.276 16.8688 10.276C17.2888 10.276 17.6901 10.2107 18.0728 10.08C18.4555 9.94937 18.8055 9.73937 19.1228 9.45004C19.2068 9.36604 19.2815 9.27737 19.3468 9.18404C19.4215 9.08137 19.5008 8.9927 19.5848 8.91804C19.6315 8.87137 19.6828 8.84804 19.7388 8.84804C19.7855 8.84804 19.8228 8.8667 19.8508 8.90404C19.8788 8.94137 19.8928 8.98337 19.8928 9.03004ZM28.8517 10.36C28.8517 10.472 28.7677 10.556 28.5997 10.612C28.441 10.668 28.2637 10.7054 28.0677 10.724C27.8717 10.7427 27.7317 10.752 27.6477 10.752C27.3304 10.752 27.0784 10.626 26.8917 10.374C26.705 10.122 26.565 9.8607 26.4717 9.59004C26.1544 9.99137 25.7577 10.29 25.2817 10.486C24.8057 10.682 24.311 10.78 23.7977 10.78C22.9577 10.78 22.3744 10.5654 22.0477 10.136C21.7304 9.69737 21.5717 9.08137 21.5717 8.28804C21.5717 7.58804 21.5717 6.88804 21.5717 6.18804C21.581 5.4787 21.5904 4.77404 21.5997 4.07404C21.5997 3.79404 21.4644 3.65404 21.1937 3.65404C21.119 3.65404 21.0444 3.6587 20.9697 3.66804C20.895 3.67737 20.8204 3.68204 20.7457 3.68204C20.7177 3.68204 20.6944 3.66804 20.6757 3.64004C20.6664 3.6027 20.6617 3.5747 20.6617 3.55604C20.6617 3.45337 20.7084 3.39737 20.8017 3.38804C21.1284 3.3507 21.455 3.32737 21.7817 3.31804C22.1177 3.29937 22.449 3.27137 22.7757 3.23404C22.8504 3.3087 22.8877 3.40204 22.8877 3.51404C22.8877 3.74737 22.883 3.98537 22.8737 4.22804C22.8644 4.4707 22.8597 4.71337 22.8597 4.95604C22.8504 5.52537 22.841 6.09937 22.8317 6.67804C22.8317 7.24737 22.8317 7.82137 22.8317 8.40004C22.8317 8.57737 22.8364 8.7687 22.8457 8.97404C22.855 9.17004 22.8924 9.35204 22.9577 9.52004C23.0604 9.78137 23.2517 9.96804 23.5317 10.08C23.821 10.1827 24.0964 10.234 24.3577 10.234C24.647 10.234 24.9364 10.1827 25.2257 10.08C25.5244 9.96804 25.7764 9.80937 25.9817 9.60404C26.1964 9.38937 26.3177 9.12337 26.3457 8.80604C26.3644 8.64737 26.3737 8.4887 26.3737 8.33004C26.383 8.16204 26.3877 7.9987 26.3877 7.84004L26.3737 4.03204C26.3737 3.9107 26.3317 3.82204 26.2477 3.76604C26.173 3.71004 26.0844 3.68204 25.9817 3.68204C25.8884 3.68204 25.795 3.6867 25.7017 3.69604C25.6177 3.70537 25.529 3.71004 25.4357 3.71004C25.3517 3.71004 25.3097 3.66337 25.3097 3.57004C25.3097 3.4767 25.3517 3.42537 25.4357 3.41604C25.5477 3.39737 25.6644 3.38804 25.7857 3.38804C25.907 3.3787 26.0284 3.36937 26.1497 3.36004L27.1157 3.26204C27.181 3.2527 27.2464 3.24337 27.3117 3.23404C27.3864 3.2247 27.4564 3.22004 27.5217 3.22004C27.5684 3.22004 27.601 3.24804 27.6197 3.30404C27.6384 3.3507 27.6477 3.38804 27.6477 3.41604C27.6197 5.44137 27.6057 7.46204 27.6057 9.47804C27.6057 9.71137 27.657 9.9027 27.7597 10.052C27.8717 10.2014 28.0537 10.276 28.3057 10.276C28.3804 10.276 28.4457 10.2667 28.5017 10.248C28.567 10.2294 28.6324 10.22 28.6977 10.22C28.8004 10.22 28.8517 10.2667 28.8517 10.36ZM34.7027 5.82404C34.6934 5.44137 34.6607 5.07737 34.6047 4.73204C34.5487 4.37737 34.4134 4.08804 34.1987 3.86404C33.9841 3.6307 33.6341 3.51404 33.1487 3.51404C32.7101 3.51404 32.3507 3.63537 32.0707 3.87804C31.8001 4.11137 31.5901 4.41004 31.4407 4.77404C31.2914 5.1287 31.1794 5.4927 31.1047 5.86604C31.3381 5.87537 31.5667 5.8847 31.7907 5.89404C32.0147 5.89404 32.2387 5.89404 32.4627 5.89404C32.8361 5.89404 33.2094 5.88937 33.5827 5.88004C33.9561 5.86137 34.3294 5.8427 34.7027 5.82404ZM36.3127 9.03004C36.3127 9.0767 36.3034 9.1047 36.2847 9.11404C36.2567 9.20737 36.1867 9.31937 36.0747 9.45004C35.9721 9.5807 35.8554 9.7067 35.7247 9.82804C35.5941 9.94004 35.4867 10.024 35.4027 10.08C35.0947 10.2947 34.7447 10.4674 34.3527 10.598C33.9701 10.7287 33.5874 10.794 33.2047 10.794C32.8874 10.794 32.5327 10.7427 32.1407 10.64C31.7581 10.5374 31.4314 10.3974 31.1607 10.22C30.6381 9.8747 30.2554 9.42204 30.0127 8.86204C29.7701 8.30204 29.6487 7.7187 29.6487 7.11204C29.6487 6.42137 29.7841 5.78204 30.0547 5.19404C30.3254 4.60604 30.7594 4.13004 31.3567 3.76604C31.6274 3.60737 31.9307 3.4767 32.2667 3.37404C32.6027 3.26204 32.9247 3.20604 33.2327 3.20604C33.7834 3.20604 34.2687 3.31804 34.6887 3.54204C35.1087 3.76604 35.4354 4.08337 35.6687 4.49404C35.9114 4.89537 36.0327 5.37604 36.0327 5.93604C36.0327 6.0947 35.9954 6.19737 35.9207 6.24404C35.8554 6.2907 35.7527 6.31404 35.6127 6.31404C35.4261 6.31404 35.2394 6.30937 35.0527 6.30004C34.8661 6.2907 34.6794 6.28137 34.4927 6.27204C34.2314 6.25337 33.9701 6.24404 33.7087 6.24404C33.4567 6.24404 33.2001 6.24404 32.9387 6.24404C32.6214 6.24404 32.3041 6.24404 31.9867 6.24404C31.6694 6.24404 31.3521 6.25337 31.0347 6.27204C31.0254 6.42137 31.0161 6.56604 31.0067 6.70604C30.9974 6.84604 30.9927 6.9907 30.9927 7.14004C30.9927 7.48537 31.0347 7.8447 31.1187 8.21804C31.2027 8.58204 31.3381 8.9227 31.5247 9.24004C31.7114 9.54804 31.9494 9.80004 32.2387 9.99604C32.5281 10.1827 32.8781 10.276 33.2887 10.276C33.7087 10.276 34.1101 10.2107 34.4927 10.08C34.8754 9.94937 35.2254 9.73937 35.5427 9.45004C35.6267 9.36604 35.7014 9.27737 35.7667 9.18404C35.8414 9.08137 35.9207 8.9927 36.0047 8.91804C36.0514 8.87137 36.1027 8.84804 36.1587 8.84804C36.2054 8.84804 36.2427 8.8667 36.2707 8.90404C36.2987 8.94137 36.3127 8.98337 36.3127 9.03004ZM49.3736 10.556C49.3736 10.6867 49.3223 10.752 49.2196 10.752C48.9583 10.752 48.6923 10.7427 48.4216 10.724C48.151 10.7054 47.8803 10.696 47.6096 10.696C47.339 10.696 47.0636 10.7054 46.7836 10.724C46.513 10.7427 46.2423 10.752 45.9716 10.752C45.9343 10.752 45.9063 10.7287 45.8876 10.682C45.8783 10.6354 45.8736 10.598 45.8736 10.57C45.8736 10.486 45.9156 10.4347 45.9996 10.416C46.093 10.3974 46.191 10.3927 46.2936 10.402C46.4056 10.4114 46.4896 10.416 46.5456 10.416C46.6763 10.416 46.7836 10.3834 46.8676 10.318C46.9516 10.2527 46.9936 10.1547 46.9936 10.024C46.9936 9.3987 46.9983 8.77804 47.0076 8.16204C47.0263 7.54604 47.0356 6.93004 47.0356 6.31404C47.0356 6.21137 47.0356 6.1087 47.0356 6.00604C47.0356 5.90337 47.031 5.8007 47.0216 5.69804C47.0123 5.47404 46.9983 5.24537 46.9796 5.01204C46.9703 4.76937 46.933 4.54537 46.8676 4.34004C46.8023 4.12537 46.6903 3.9527 46.5316 3.82204C46.373 3.69137 46.1443 3.62604 45.8456 3.62604C45.631 3.62604 45.393 3.69137 45.1316 3.82204C44.8796 3.94337 44.637 4.08804 44.4036 4.25604C44.1703 4.42404 43.9743 4.5827 43.8156 4.73204C43.8343 4.8627 43.8436 4.99804 43.8436 5.13804C43.8436 5.2687 43.8436 5.39937 43.8436 5.53004C43.8436 5.8007 43.8436 6.07604 43.8436 6.35604C43.853 6.6267 43.8576 6.89737 43.8576 7.16804C43.8576 7.64404 43.853 8.12004 43.8436 8.59604C43.8436 9.07204 43.8436 9.54804 43.8436 10.024C43.8436 10.164 43.9043 10.262 44.0256 10.318C44.147 10.374 44.2683 10.402 44.3896 10.402C44.4643 10.402 44.539 10.3974 44.6136 10.388C44.6976 10.3787 44.7723 10.374 44.8376 10.374C44.8843 10.374 44.9123 10.3974 44.9216 10.444C44.9403 10.4907 44.9496 10.528 44.9496 10.556C44.9496 10.6027 44.9356 10.6494 44.9076 10.696C44.8796 10.7334 44.8376 10.752 44.7816 10.752C44.5203 10.752 44.2543 10.7427 43.9836 10.724C43.7223 10.7054 43.4563 10.696 43.1856 10.696C42.9243 10.696 42.6583 10.7054 42.3876 10.724C42.117 10.7427 41.8463 10.752 41.5756 10.752C41.5383 10.752 41.5103 10.7287 41.4916 10.682C41.473 10.6354 41.4636 10.598 41.4636 10.57C41.4636 10.4954 41.501 10.444 41.5756 10.416C41.6503 10.3974 41.739 10.3927 41.8416 10.402C41.9536 10.4114 42.047 10.416 42.1216 10.416C42.2523 10.416 42.3596 10.388 42.4436 10.332C42.537 10.2667 42.5836 10.164 42.5836 10.024V6.45404C42.5836 6.25804 42.579 6.01537 42.5696 5.72604C42.5696 5.4367 42.551 5.15204 42.5136 4.87204C42.4856 4.5827 42.4343 4.35404 42.3596 4.18604C42.2943 4.01804 42.1823 3.88737 42.0236 3.79404C41.8743 3.7007 41.7063 3.65404 41.5196 3.65404C41.277 3.65404 41.0296 3.7147 40.7776 3.83604C40.5256 3.95737 40.2876 4.1067 40.0636 4.28404C39.8396 4.46137 39.6483 4.6387 39.4896 4.81604V10.01C39.4896 10.15 39.541 10.2527 39.6436 10.318C39.7463 10.374 39.8583 10.402 39.9796 10.402C40.0543 10.402 40.129 10.3974 40.2036 10.388C40.2783 10.3694 40.3483 10.36 40.4136 10.36C40.451 10.36 40.4743 10.388 40.4836 10.444C40.493 10.4907 40.4976 10.5234 40.4976 10.542C40.4976 10.5887 40.4836 10.6354 40.4556 10.682C40.437 10.7194 40.3996 10.738 40.3436 10.738C40.1663 10.738 39.989 10.7334 39.8116 10.724C39.6343 10.7054 39.457 10.696 39.2796 10.696C38.925 10.696 38.5703 10.7054 38.2156 10.724C37.861 10.7334 37.5063 10.738 37.1516 10.738C37.1143 10.738 37.0863 10.7147 37.0676 10.668C37.049 10.6214 37.0396 10.584 37.0396 10.556C37.0396 10.444 37.0863 10.388 37.1796 10.388C37.2823 10.388 37.3803 10.3927 37.4736 10.402C37.567 10.402 37.6603 10.402 37.7536 10.402C37.8843 10.402 37.9963 10.374 38.0896 10.318C38.183 10.2527 38.2296 10.15 38.2296 10.01C38.2296 9.06737 38.225 8.1247 38.2156 7.18204C38.2156 6.23004 38.2156 5.2827 38.2156 4.34004C38.2156 4.23737 38.2063 4.1347 38.1876 4.03204C38.169 3.92937 38.1083 3.85937 38.0056 3.82204C37.9403 3.79404 37.8703 3.78004 37.7956 3.78004C37.6743 3.78004 37.553 3.7987 37.4316 3.83604C37.3103 3.86404 37.1843 3.87804 37.0536 3.87804C36.9696 3.87804 36.9276 3.82204 36.9276 3.71004C36.9276 3.63537 36.9556 3.5887 37.0116 3.57004C37.0583 3.55137 37.1096 3.54204 37.1656 3.54204C37.231 3.5327 37.2916 3.52337 37.3476 3.51404C37.5623 3.48604 37.777 3.45337 37.9916 3.41604C38.2156 3.36937 38.4303 3.3227 38.6356 3.27604C38.7103 3.25737 38.7896 3.2387 38.8736 3.22004C38.9576 3.20137 39.0416 3.19204 39.1256 3.19204C39.2376 3.19204 39.3123 3.27604 39.3496 3.44404C39.3963 3.6027 39.4196 3.77537 39.4196 3.96204C39.429 4.1487 39.4336 4.28404 39.4336 4.36804C39.6296 4.20004 39.849 4.02737 40.0916 3.85004C40.3343 3.66337 40.591 3.5047 40.8616 3.37404C41.1323 3.24337 41.403 3.17804 41.6736 3.17804C42.1496 3.17804 42.551 3.25737 42.8776 3.41604C43.2043 3.5747 43.4843 3.87337 43.7176 4.31204C43.923 4.1347 44.1563 3.95737 44.4176 3.78004C44.679 3.59337 44.9496 3.43937 45.2296 3.31804C45.519 3.18737 45.8036 3.12204 46.0836 3.12204C46.6996 3.12204 47.1663 3.2107 47.4836 3.38804C47.8103 3.56537 48.0296 3.8407 48.1416 4.21404C48.263 4.57804 48.3236 5.04937 48.3236 5.62804C48.3236 6.35604 48.319 7.0887 48.3096 7.82604C48.3003 8.55404 48.2956 9.2867 48.2956 10.024C48.2956 10.164 48.3563 10.262 48.4776 10.318C48.6083 10.374 48.7343 10.402 48.8556 10.402C48.9303 10.402 49.0003 10.3974 49.0656 10.388C49.1403 10.3787 49.2103 10.374 49.2756 10.374C49.313 10.374 49.3363 10.3974 49.3456 10.444C49.3643 10.4907 49.3736 10.528 49.3736 10.556ZM54.5665 9.10004C54.5292 8.68004 54.5059 8.26004 54.4965 7.84004C54.4965 7.4107 54.4919 6.98137 54.4825 6.55204H54.2865C53.9972 6.55204 53.6752 6.5987 53.3205 6.69204C52.9752 6.77604 52.6439 6.9067 52.3265 7.08404C52.0092 7.26137 51.7479 7.48537 51.5425 7.75604C51.3465 8.01737 51.2485 8.3207 51.2485 8.66604C51.2485 9.11404 51.3745 9.4547 51.6265 9.68804C51.8785 9.91204 52.2192 10.024 52.6485 10.024C52.8539 10.024 53.0779 9.97737 53.3205 9.88404C53.5632 9.78137 53.7965 9.66004 54.0205 9.52004C54.2445 9.38004 54.4265 9.24004 54.5665 9.10004ZM57.0165 9.99604C57.0165 10.0334 57.0119 10.0614 57.0025 10.08C56.9092 10.2854 56.7505 10.444 56.5265 10.556C56.3119 10.6587 56.0972 10.71 55.8825 10.71C55.4905 10.71 55.2059 10.598 55.0285 10.374C54.8605 10.1407 54.7252 9.85604 54.6225 9.52004C54.2679 9.8467 53.8759 10.122 53.4465 10.346C53.0172 10.5607 52.5552 10.668 52.0605 10.668C51.7152 10.668 51.3885 10.6027 51.0805 10.472C50.7819 10.332 50.5392 10.1314 50.3525 9.87004C50.1659 9.6087 50.0725 9.29137 50.0725 8.91804C50.0725 8.52604 50.1705 8.19004 50.3665 7.91004C50.5719 7.6207 50.8285 7.37804 51.1365 7.18204C51.4539 6.9767 51.7899 6.81337 52.1445 6.69204C52.5085 6.56137 52.8492 6.46337 53.1665 6.39804C53.3812 6.35137 53.6005 6.30937 53.8245 6.27204C54.0485 6.2347 54.2679 6.19737 54.4825 6.16004C54.4825 5.8987 54.4685 5.59537 54.4405 5.25004C54.4219 4.9047 54.3519 4.62004 54.2305 4.39604C54.1092 4.18137 53.9459 3.99004 53.7405 3.82204C53.5352 3.65404 53.3065 3.57004 53.0545 3.57004C52.6252 3.57004 52.2892 3.68204 52.0465 3.90604C51.8039 4.13004 51.6312 4.44737 51.5285 4.85804C51.5192 4.9047 51.5099 4.95604 51.5005 5.01204C51.5005 5.0587 51.4959 5.10537 51.4865 5.15204C51.4772 5.20804 51.4399 5.25937 51.3745 5.30604C51.3185 5.34337 51.2579 5.36204 51.1925 5.36204C51.0152 5.36204 50.8519 5.32004 50.7025 5.23604C50.5625 5.15204 50.4925 5.01204 50.4925 4.81604C50.4925 4.70404 50.5112 4.60604 50.5485 4.52204C50.6699 4.2327 50.8659 3.9947 51.1365 3.80804C51.4072 3.61204 51.7059 3.4627 52.0325 3.36004C52.3685 3.25737 52.6812 3.20604 52.9705 3.20604C53.4745 3.20604 53.9319 3.29937 54.3425 3.48604C54.7532 3.6727 55.0799 3.94804 55.3225 4.31204C55.5745 4.6667 55.7005 5.1147 55.7005 5.65604C55.7005 6.2627 55.6959 6.87404 55.6865 7.49004C55.6865 8.10604 55.7052 8.72204 55.7425 9.33804C55.7519 9.54337 55.7939 9.72537 55.8685 9.88404C55.9432 10.0334 56.0972 10.108 56.3305 10.108C56.4519 10.108 56.5779 10.08 56.7085 10.024C56.8485 9.9587 56.9372 9.92604 56.9745 9.92604C57.0025 9.92604 57.0165 9.94937 57.0165 9.99604ZM61.5518 10.528C61.5518 10.5747 61.5378 10.6214 61.5098 10.668C61.4818 10.7054 61.4444 10.724 61.3978 10.724C61.1364 10.724 60.8751 10.7194 60.6138 10.71C60.3618 10.6914 60.1004 10.682 59.8298 10.682H59.4518C59.1718 10.682 58.8918 10.6914 58.6118 10.71C58.3411 10.7194 58.0704 10.724 57.7998 10.724C57.7624 10.724 57.7344 10.7007 57.7158 10.654C57.7064 10.6074 57.7018 10.57 57.7018 10.542C57.7018 10.4954 57.7064 10.4627 57.7158 10.444C57.7251 10.416 57.7531 10.3974 57.7998 10.388C57.8464 10.3694 57.8978 10.3647 57.9538 10.374C58.0191 10.374 58.0798 10.374 58.1358 10.374C58.2011 10.374 58.2618 10.3787 58.3178 10.388C58.3738 10.388 58.4344 10.388 58.4998 10.388C58.6304 10.388 58.7471 10.36 58.8498 10.304C58.9618 10.2387 59.0178 10.1314 59.0178 9.98204V4.38204C59.0178 4.22337 58.9898 4.10204 58.9338 4.01804C58.8778 3.9247 58.7611 3.87804 58.5838 3.87804C58.4531 3.87804 58.3178 3.88737 58.1778 3.90604C58.0471 3.91537 57.9164 3.92937 57.7858 3.94804C57.7111 3.94804 57.6738 3.90604 57.6738 3.82204C57.6738 3.7287 57.7111 3.66804 57.7858 3.64004C57.8978 3.6027 58.0144 3.57937 58.1358 3.57004C58.2664 3.55137 58.3878 3.5327 58.4998 3.51404C58.7611 3.46737 59.0224 3.41604 59.2838 3.36004C59.5451 3.30404 59.8018 3.24337 60.0538 3.17804C60.0818 3.1687 60.1191 3.16404 60.1658 3.16404C60.2684 3.16404 60.3198 3.22004 60.3198 3.33204C60.3198 4.43337 60.3151 5.53937 60.3058 6.65004C60.3058 7.7607 60.3058 8.87137 60.3058 9.98204C60.3058 10.1314 60.3711 10.2387 60.5018 10.304C60.6418 10.36 60.7724 10.388 60.8938 10.388C60.9871 10.388 61.0804 10.3834 61.1738 10.374C61.2764 10.3647 61.3744 10.36 61.4678 10.36C61.5051 10.36 61.5284 10.3834 61.5378 10.43C61.5471 10.4767 61.5518 10.5094 61.5518 10.528ZM60.4178 0.840037C60.4178 1.07337 60.3338 1.27404 60.1658 1.44204C59.9978 1.6007 59.7971 1.68004 59.5638 1.68004C59.3304 1.68004 59.1298 1.6007 58.9618 1.44204C58.7938 1.27404 58.7098 1.07337 58.7098 0.840037C58.7098 0.606703 58.7938 0.410703 58.9618 0.252037C59.1298 0.0840369 59.3304 3.68357e-05 59.5638 3.68357e-05C59.7971 3.68357e-05 59.9978 0.0840369 60.1658 0.252037C60.3338 0.410703 60.4178 0.606703 60.4178 0.840037ZM66.3363 10.556C66.3363 10.6027 66.3223 10.6494 66.2943 10.696C66.2756 10.7334 66.2383 10.752 66.1823 10.752C65.8929 10.752 65.5989 10.7474 65.3003 10.738C65.0016 10.7194 64.7029 10.71 64.4043 10.71H63.9143C63.7183 10.71 63.5223 10.7194 63.3263 10.738C63.1303 10.7474 62.9343 10.752 62.7383 10.752C62.7009 10.752 62.6729 10.738 62.6543 10.71C62.6449 10.6727 62.6403 10.64 62.6403 10.612C62.6403 10.584 62.6403 10.556 62.6403 10.528C62.6403 10.5 62.6449 10.472 62.6543 10.444C62.6729 10.4067 62.7243 10.388 62.8083 10.388C62.9016 10.3787 62.9949 10.3787 63.0883 10.388C63.1909 10.388 63.2563 10.388 63.2843 10.388C63.4149 10.388 63.5316 10.36 63.6343 10.304C63.7369 10.2387 63.7883 10.1314 63.7883 9.98204C63.7883 9.26337 63.7929 8.54937 63.8023 7.84004C63.8116 7.12137 63.8163 6.40737 63.8163 5.69804C63.8163 4.97004 63.8116 4.24204 63.8023 3.51404C63.8023 2.7767 63.8023 2.04404 63.8023 1.31604C63.8023 1.2507 63.7976 1.1807 63.7883 1.10604C63.7789 1.02204 63.7509 0.956703 63.7043 0.910037C63.6669 0.86337 63.6296 0.840037 63.5923 0.840037C63.5549 0.830704 63.5083 0.826037 63.4523 0.826037C63.2843 0.826037 63.1163 0.854037 62.9483 0.910037C62.7896 0.966037 62.6309 0.994037 62.4723 0.994037C62.3696 0.994037 62.3183 0.93337 62.3183 0.812036C62.3183 0.73737 62.3743 0.686037 62.4863 0.658037C62.6076 0.630037 62.7009 0.61137 62.7663 0.602037C63.0929 0.52737 63.4476 0.44337 63.8303 0.350037C64.2129 0.256703 64.5583 0.14937 64.8663 0.0280365C64.8849 0.0280365 64.9036 0.0233699 64.9223 0.0140367C64.9409 0.00470344 64.9549 3.68357e-05 64.9643 3.68357e-05C65.0203 3.68357e-05 65.0529 0.0187035 65.0623 0.0560369C65.0809 0.0933698 65.0903 0.13537 65.0903 0.182037C65.0903 0.44337 65.0856 0.704704 65.0763 0.966037C65.0763 1.21804 65.0763 1.4747 65.0763 1.73604V5.65604C65.0763 6.3747 65.0809 7.09804 65.0903 7.82604C65.0996 8.5447 65.1043 9.26337 65.1043 9.98204C65.1043 10.1314 65.1649 10.2387 65.2863 10.304C65.4169 10.36 65.5429 10.388 65.6643 10.388C65.7669 10.388 65.8649 10.3834 65.9583 10.374C66.0516 10.3647 66.1449 10.36 66.2383 10.36C66.2849 10.36 66.3129 10.388 66.3223 10.444C66.3316 10.4907 66.3363 10.528 66.3363 10.556ZM74.6201 4.50804C74.6201 4.23737 74.5454 4.02737 74.3961 3.87804C74.2468 3.7287 74.0368 3.65404 73.7661 3.65404C73.4208 3.65404 73.1268 3.7567 72.8841 3.96204C72.6508 4.15804 72.4594 4.4147 72.3101 4.73204C72.1701 5.04004 72.0674 5.36204 72.0021 5.69804C71.9368 6.03404 71.9041 6.34204 71.9041 6.62204C71.9041 6.87404 71.9274 7.12137 71.9741 7.36404C72.0301 7.59737 72.1328 7.79337 72.2821 7.95204C72.4408 8.1107 72.6741 8.19004 72.9821 8.19004C73.1874 8.19004 73.3508 8.14804 73.4721 8.06404C73.6028 7.9707 73.7194 7.84004 73.8221 7.67204C73.9061 7.54137 73.9901 7.33604 74.0741 7.05604C74.1674 6.77604 74.2561 6.46804 74.3401 6.13204C74.4241 5.79604 74.4894 5.48337 74.5361 5.19404C74.5921 4.89537 74.6201 4.6667 74.6201 4.50804ZM78.3161 5.33404C78.3161 5.75404 78.2508 6.17404 78.1201 6.59404C77.9988 7.0047 77.8214 7.38737 77.5881 7.74204C77.1028 8.5167 76.3934 8.90404 75.4601 8.90404C75.1054 8.90404 74.8254 8.80137 74.6201 8.59604C74.4148 8.3907 74.2748 8.12937 74.2001 7.81204C73.9761 8.15737 73.7288 8.42337 73.4581 8.61004C73.1874 8.7967 72.8374 8.89004 72.4081 8.89004C72.1561 8.89004 71.9274 8.8107 71.7221 8.65204C71.5168 8.48404 71.3488 8.29737 71.2181 8.09204C71.0874 7.86804 70.9988 7.63004 70.9521 7.37804C70.9148 7.1167 70.8961 6.86004 70.8961 6.60804C70.8961 6.33737 70.9381 6.0527 71.0221 5.75404C71.1061 5.44604 71.2134 5.15204 71.3441 4.87204C71.4841 4.5827 71.6381 4.33537 71.8061 4.13004C72.0394 3.83137 72.3054 3.6027 72.6041 3.44404C72.9121 3.28537 73.2574 3.20604 73.6401 3.20604C73.9014 3.20604 74.1394 3.2807 74.3541 3.43004C74.5781 3.57004 74.7648 3.74737 74.9141 3.96204C74.9701 3.85937 75.0261 3.75204 75.0821 3.64004C75.1381 3.52804 75.1988 3.4207 75.2641 3.31804C75.4041 3.34604 75.5394 3.36937 75.6701 3.38804C75.8101 3.4067 75.9454 3.4347 76.0761 3.47204C76.0108 3.67737 75.9174 3.9667 75.7961 4.34004C75.6748 4.70404 75.5534 5.09604 75.4321 5.51604C75.3108 5.93604 75.2081 6.32804 75.1241 6.69204C75.0401 7.05604 74.9981 7.33137 74.9981 7.51804C74.9981 7.69537 75.0541 7.87737 75.1661 8.06404C75.2781 8.2507 75.4321 8.34404 75.6281 8.34404C76.0294 8.34404 76.3608 8.23204 76.6221 8.00804C76.8928 7.7747 77.1074 7.48537 77.2661 7.14004C77.4248 6.78537 77.5368 6.4167 77.6021 6.03404C77.6674 5.64204 77.7001 5.28737 77.7001 4.97004C77.7001 4.61537 77.6581 4.25137 77.5741 3.87804C77.4994 3.5047 77.3688 3.1687 77.1821 2.87004C76.9394 2.4687 76.6221 2.14204 76.2301 1.89004C75.8474 1.6287 75.4274 1.43737 74.9701 1.31604C74.5221 1.18537 74.0741 1.12004 73.6261 1.12004C72.8794 1.12004 72.2214 1.2647 71.6521 1.55404C71.0828 1.84337 70.6068 2.24004 70.2241 2.74404C69.8414 3.24804 69.5521 3.81737 69.3561 4.45204C69.1601 5.07737 69.0621 5.73537 69.0621 6.42604C69.0621 7.0327 69.1554 7.61137 69.3421 8.16204C69.5381 8.7127 69.8181 9.20737 70.1821 9.64604C70.5461 10.0754 70.9801 10.416 71.4841 10.668C71.9974 10.9107 72.5761 11.032 73.2201 11.032C73.9388 11.032 74.6201 10.9154 75.2641 10.682C75.9174 10.4487 76.5428 10.1454 77.1401 9.77204C77.1588 9.75337 77.1821 9.7487 77.2101 9.75804C77.2474 9.76737 77.2661 9.78604 77.2661 9.81404C77.2661 9.87937 77.2334 9.9447 77.1681 10.01C77.1121 10.066 77.0608 10.1174 77.0141 10.164C76.7341 10.416 76.3654 10.6447 75.9081 10.85C75.4601 11.0647 74.9934 11.2327 74.5081 11.354C74.0228 11.4847 73.5888 11.55 73.2061 11.55C72.0768 11.55 71.0688 11.2887 70.1821 10.766C69.3048 10.2527 68.6468 9.45937 68.2081 8.38604C68.0868 8.0967 67.9888 7.7887 67.9141 7.46204C67.8488 7.13537 67.8161 6.81804 67.8161 6.51004C67.8161 5.70737 67.9654 4.95604 68.2641 4.25604C68.5721 3.55604 68.9921 2.94004 69.5241 2.40804C70.0561 1.87604 70.6721 1.4607 71.3721 1.16204C72.0814 0.86337 72.8374 0.714037 73.6401 0.714037C75.1148 0.714037 76.2628 1.1107 77.0841 1.90404C77.9054 2.69737 78.3161 3.8407 78.3161 5.33404ZM85.0836 5.82404C85.0742 5.44137 85.0416 5.07737 84.9856 4.73204C84.9296 4.37737 84.7942 4.08804 84.5796 3.86404C84.3649 3.6307 84.0149 3.51404 83.5296 3.51404C83.0909 3.51404 82.7316 3.63537 82.4516 3.87804C82.1809 4.11137 81.9709 4.41004 81.8216 4.77404C81.6722 5.1287 81.5602 5.4927 81.4856 5.86604C81.7189 5.87537 81.9476 5.8847 82.1716 5.89404C82.3956 5.89404 82.6196 5.89404 82.8436 5.89404C83.2169 5.89404 83.5902 5.88937 83.9636 5.88004C84.3369 5.86137 84.7102 5.8427 85.0836 5.82404ZM86.6936 9.03004C86.6936 9.0767 86.6842 9.1047 86.6656 9.11404C86.6376 9.20737 86.5676 9.31937 86.4556 9.45004C86.3529 9.5807 86.2362 9.7067 86.1056 9.82804C85.9749 9.94004 85.8676 10.024 85.7836 10.08C85.4756 10.2947 85.1256 10.4674 84.7336 10.598C84.3509 10.7287 83.9682 10.794 83.5856 10.794C83.2682 10.794 82.9136 10.7427 82.5216 10.64C82.1389 10.5374 81.8122 10.3974 81.5416 10.22C81.0189 9.8747 80.6362 9.42204 80.3936 8.86204C80.1509 8.30204 80.0296 7.7187 80.0296 7.11204C80.0296 6.42137 80.1649 5.78204 80.4356 5.19404C80.7062 4.60604 81.1402 4.13004 81.7376 3.76604C82.0082 3.60737 82.3116 3.4767 82.6476 3.37404C82.9836 3.26204 83.3056 3.20604 83.6136 3.20604C84.1642 3.20604 84.6496 3.31804 85.0696 3.54204C85.4896 3.76604 85.8162 4.08337 86.0496 4.49404C86.2922 4.89537 86.4136 5.37604 86.4136 5.93604C86.4136 6.0947 86.3762 6.19737 86.3016 6.24404C86.2362 6.2907 86.1336 6.31404 85.9936 6.31404C85.8069 6.31404 85.6202 6.30937 85.4336 6.30004C85.2469 6.2907 85.0602 6.28137 84.8736 6.27204C84.6122 6.25337 84.3509 6.24404 84.0896 6.24404C83.8376 6.24404 83.5809 6.24404 83.3196 6.24404C83.0022 6.24404 82.6849 6.24404 82.3676 6.24404C82.0502 6.24404 81.7329 6.25337 81.4156 6.27204C81.4062 6.42137 81.3969 6.56604 81.3876 6.70604C81.3782 6.84604 81.3736 6.9907 81.3736 7.14004C81.3736 7.48537 81.4156 7.8447 81.4996 8.21804C81.5836 8.58204 81.7189 8.9227 81.9056 9.24004C82.0922 9.54804 82.3302 9.80004 82.6196 9.99604C82.9089 10.1827 83.2589 10.276 83.6696 10.276C84.0896 10.276 84.4909 10.2107 84.8736 10.08C85.2562 9.94937 85.6062 9.73937 85.9236 9.45004C86.0076 9.36604 86.0822 9.27737 86.1476 9.18404C86.2222 9.08137 86.3016 8.9927 86.3856 8.91804C86.4322 8.87137 86.4836 8.84804 86.5396 8.84804C86.5862 8.84804 86.6236 8.8667 86.6516 8.90404C86.6796 8.94137 86.6936 8.98337 86.6936 9.03004ZM99.7545 10.556C99.7545 10.6867 99.7032 10.752 99.6005 10.752C99.3392 10.752 99.0732 10.7427 98.8025 10.724C98.5318 10.7054 98.2612 10.696 97.9905 10.696C97.7198 10.696 97.4445 10.7054 97.1645 10.724C96.8938 10.7427 96.6232 10.752 96.3525 10.752C96.3152 10.752 96.2872 10.7287 96.2685 10.682C96.2592 10.6354 96.2545 10.598 96.2545 10.57C96.2545 10.486 96.2965 10.4347 96.3805 10.416C96.4738 10.3974 96.5718 10.3927 96.6745 10.402C96.7865 10.4114 96.8705 10.416 96.9265 10.416C97.0572 10.416 97.1645 10.3834 97.2485 10.318C97.3325 10.2527 97.3745 10.1547 97.3745 10.024C97.3745 9.3987 97.3792 8.77804 97.3885 8.16204C97.4072 7.54604 97.4165 6.93004 97.4165 6.31404C97.4165 6.21137 97.4165 6.1087 97.4165 6.00604C97.4165 5.90337 97.4118 5.8007 97.4025 5.69804C97.3932 5.47404 97.3792 5.24537 97.3605 5.01204C97.3512 4.76937 97.3138 4.54537 97.2485 4.34004C97.1832 4.12537 97.0712 3.9527 96.9125 3.82204C96.7538 3.69137 96.5252 3.62604 96.2265 3.62604C96.0118 3.62604 95.7738 3.69137 95.5125 3.82204C95.2605 3.94337 95.0178 4.08804 94.7845 4.25604C94.5512 4.42404 94.3552 4.5827 94.1965 4.73204C94.2152 4.8627 94.2245 4.99804 94.2245 5.13804C94.2245 5.2687 94.2245 5.39937 94.2245 5.53004C94.2245 5.8007 94.2245 6.07604 94.2245 6.35604C94.2338 6.6267 94.2385 6.89737 94.2385 7.16804C94.2385 7.64404 94.2338 8.12004 94.2245 8.59604C94.2245 9.07204 94.2245 9.54804 94.2245 10.024C94.2245 10.164 94.2852 10.262 94.4065 10.318C94.5278 10.374 94.6492 10.402 94.7705 10.402C94.8452 10.402 94.9198 10.3974 94.9945 10.388C95.0785 10.3787 95.1532 10.374 95.2185 10.374C95.2652 10.374 95.2932 10.3974 95.3025 10.444C95.3212 10.4907 95.3305 10.528 95.3305 10.556C95.3305 10.6027 95.3165 10.6494 95.2885 10.696C95.2605 10.7334 95.2185 10.752 95.1625 10.752C94.9012 10.752 94.6352 10.7427 94.3645 10.724C94.1032 10.7054 93.8372 10.696 93.5665 10.696C93.3052 10.696 93.0392 10.7054 92.7685 10.724C92.4978 10.7427 92.2272 10.752 91.9565 10.752C91.9192 10.752 91.8912 10.7287 91.8725 10.682C91.8538 10.6354 91.8445 10.598 91.8445 10.57C91.8445 10.4954 91.8818 10.444 91.9565 10.416C92.0312 10.3974 92.1198 10.3927 92.2225 10.402C92.3345 10.4114 92.4278 10.416 92.5025 10.416C92.6332 10.416 92.7405 10.388 92.8245 10.332C92.9178 10.2667 92.9645 10.164 92.9645 10.024V6.45404C92.9645 6.25804 92.9598 6.01537 92.9505 5.72604C92.9505 5.4367 92.9318 5.15204 92.8945 4.87204C92.8665 4.5827 92.8152 4.35404 92.7405 4.18604C92.6752 4.01804 92.5632 3.88737 92.4045 3.79404C92.2552 3.7007 92.0872 3.65404 91.9005 3.65404C91.6578 3.65404 91.4105 3.7147 91.1585 3.83604C90.9065 3.95737 90.6685 4.1067 90.4445 4.28404C90.2205 4.46137 90.0292 4.6387 89.8705 4.81604V10.01C89.8705 10.15 89.9218 10.2527 90.0245 10.318C90.1272 10.374 90.2392 10.402 90.3605 10.402C90.4352 10.402 90.5098 10.3974 90.5845 10.388C90.6592 10.3694 90.7292 10.36 90.7945 10.36C90.8318 10.36 90.8552 10.388 90.8645 10.444C90.8738 10.4907 90.8785 10.5234 90.8785 10.542C90.8785 10.5887 90.8645 10.6354 90.8365 10.682C90.8178 10.7194 90.7805 10.738 90.7245 10.738C90.5472 10.738 90.3698 10.7334 90.1925 10.724C90.0152 10.7054 89.8378 10.696 89.6605 10.696C89.3058 10.696 88.9512 10.7054 88.5965 10.724C88.2418 10.7334 87.8872 10.738 87.5325 10.738C87.4952 10.738 87.4672 10.7147 87.4485 10.668C87.4298 10.6214 87.4205 10.584 87.4205 10.556C87.4205 10.444 87.4672 10.388 87.5605 10.388C87.6632 10.388 87.7612 10.3927 87.8545 10.402C87.9478 10.402 88.0412 10.402 88.1345 10.402C88.2652 10.402 88.3772 10.374 88.4705 10.318C88.5638 10.2527 88.6105 10.15 88.6105 10.01C88.6105 9.06737 88.6058 8.1247 88.5965 7.18204C88.5965 6.23004 88.5965 5.2827 88.5965 4.34004C88.5965 4.23737 88.5872 4.1347 88.5685 4.03204C88.5498 3.92937 88.4892 3.85937 88.3865 3.82204C88.3212 3.79404 88.2512 3.78004 88.1765 3.78004C88.0552 3.78004 87.9338 3.7987 87.8125 3.83604C87.6912 3.86404 87.5652 3.87804 87.4345 3.87804C87.3505 3.87804 87.3085 3.82204 87.3085 3.71004C87.3085 3.63537 87.3365 3.5887 87.3925 3.57004C87.4392 3.55137 87.4905 3.54204 87.5465 3.54204C87.6118 3.5327 87.6725 3.52337 87.7285 3.51404C87.9432 3.48604 88.1578 3.45337 88.3725 3.41604C88.5965 3.36937 88.8112 3.3227 89.0165 3.27604C89.0912 3.25737 89.1705 3.2387 89.2545 3.22004C89.3385 3.20137 89.4225 3.19204 89.5065 3.19204C89.6185 3.19204 89.6932 3.27604 89.7305 3.44404C89.7772 3.6027 89.8005 3.77537 89.8005 3.96204C89.8098 4.1487 89.8145 4.28404 89.8145 4.36804C90.0105 4.20004 90.2298 4.02737 90.4725 3.85004C90.7152 3.66337 90.9718 3.5047 91.2425 3.37404C91.5132 3.24337 91.7838 3.17804 92.0545 3.17804C92.5305 3.17804 92.9318 3.25737 93.2585 3.41604C93.5852 3.5747 93.8652 3.87337 94.0985 4.31204C94.3038 4.1347 94.5372 3.95737 94.7985 3.78004C95.0598 3.59337 95.3305 3.43937 95.6105 3.31804C95.8998 3.18737 96.1845 3.12204 96.4645 3.12204C97.0805 3.12204 97.5472 3.2107 97.8645 3.38804C98.1912 3.56537 98.4105 3.8407 98.5225 4.21404C98.6438 4.57804 98.7045 5.04937 98.7045 5.62804C98.7045 6.35604 98.6998 7.0887 98.6905 7.82604C98.6812 8.55404 98.6765 9.2867 98.6765 10.024C98.6765 10.164 98.7372 10.262 98.8585 10.318C98.9892 10.374 99.1152 10.402 99.2365 10.402C99.3112 10.402 99.3812 10.3974 99.4465 10.388C99.5212 10.3787 99.5912 10.374 99.6565 10.374C99.6938 10.374 99.7172 10.3974 99.7265 10.444C99.7452 10.4907 99.7545 10.528 99.7545 10.556ZM104.947 9.10004C104.91 8.68004 104.887 8.26004 104.877 7.84004C104.877 7.4107 104.873 6.98137 104.863 6.55204H104.667C104.378 6.55204 104.056 6.5987 103.701 6.69204C103.356 6.77604 103.025 6.9067 102.707 7.08404C102.39 7.26137 102.129 7.48537 101.923 7.75604C101.727 8.01737 101.629 8.3207 101.629 8.66604C101.629 9.11404 101.755 9.4547 102.007 9.68804C102.259 9.91204 102.6 10.024 103.029 10.024C103.235 10.024 103.459 9.97737 103.701 9.88404C103.944 9.78137 104.177 9.66004 104.401 9.52004C104.625 9.38004 104.807 9.24004 104.947 9.10004ZM107.397 9.99604C107.397 10.0334 107.393 10.0614 107.383 10.08C107.29 10.2854 107.131 10.444 106.907 10.556C106.693 10.6587 106.478 10.71 106.263 10.71C105.871 10.71 105.587 10.598 105.409 10.374C105.241 10.1407 105.106 9.85604 105.003 9.52004C104.649 9.8467 104.257 10.122 103.827 10.346C103.398 10.5607 102.936 10.668 102.441 10.668C102.096 10.668 101.769 10.6027 101.461 10.472C101.163 10.332 100.92 10.1314 100.733 9.87004C100.547 9.6087 100.453 9.29137 100.453 8.91804C100.453 8.52604 100.551 8.19004 100.747 7.91004C100.953 7.6207 101.209 7.37804 101.517 7.18204C101.835 6.9767 102.171 6.81337 102.525 6.69204C102.889 6.56137 103.23 6.46337 103.547 6.39804C103.762 6.35137 103.981 6.30937 104.205 6.27204C104.429 6.2347 104.649 6.19737 104.863 6.16004C104.863 5.8987 104.849 5.59537 104.821 5.25004C104.803 4.9047 104.733 4.62004 104.611 4.39604C104.49 4.18137 104.327 3.99004 104.121 3.82204C103.916 3.65404 103.687 3.57004 103.435 3.57004C103.006 3.57004 102.67 3.68204 102.427 3.90604C102.185 4.13004 102.012 4.44737 101.909 4.85804C101.9 4.9047 101.891 4.95604 101.881 5.01204C101.881 5.0587 101.877 5.10537 101.867 5.15204C101.858 5.20804 101.821 5.25937 101.755 5.30604C101.699 5.34337 101.639 5.36204 101.573 5.36204C101.396 5.36204 101.233 5.32004 101.083 5.23604C100.943 5.15204 100.873 5.01204 100.873 4.81604C100.873 4.70404 100.892 4.60604 100.929 4.52204C101.051 4.2327 101.247 3.9947 101.517 3.80804C101.788 3.61204 102.087 3.4627 102.413 3.36004C102.749 3.25737 103.062 3.20604 103.351 3.20604C103.855 3.20604 104.313 3.29937 104.723 3.48604C105.134 3.6727 105.461 3.94804 105.703 4.31204C105.955 4.6667 106.081 5.1147 106.081 5.65604C106.081 6.2627 106.077 6.87404 106.067 7.49004C106.067 8.10604 106.086 8.72204 106.123 9.33804C106.133 9.54337 106.175 9.72537 106.249 9.88404C106.324 10.0334 106.478 10.108 106.711 10.108C106.833 10.108 106.959 10.08 107.089 10.024C107.229 9.9587 107.318 9.92604 107.355 9.92604C107.383 9.92604 107.397 9.94937 107.397 9.99604ZM111.933 10.528C111.933 10.5747 111.919 10.6214 111.891 10.668C111.863 10.7054 111.825 10.724 111.779 10.724C111.517 10.724 111.256 10.7194 110.995 10.71C110.743 10.6914 110.481 10.682 110.211 10.682H109.833C109.553 10.682 109.273 10.6914 108.993 10.71C108.722 10.7194 108.451 10.724 108.181 10.724C108.143 10.724 108.115 10.7007 108.097 10.654C108.087 10.6074 108.083 10.57 108.083 10.542C108.083 10.4954 108.087 10.4627 108.097 10.444C108.106 10.416 108.134 10.3974 108.181 10.388C108.227 10.3694 108.279 10.3647 108.335 10.374C108.4 10.374 108.461 10.374 108.517 10.374C108.582 10.374 108.643 10.3787 108.699 10.388C108.755 10.388 108.815 10.388 108.881 10.388C109.011 10.388 109.128 10.36 109.231 10.304C109.343 10.2387 109.399 10.1314 109.399 9.98204V4.38204C109.399 4.22337 109.371 4.10204 109.315 4.01804C109.259 3.9247 109.142 3.87804 108.965 3.87804C108.834 3.87804 108.699 3.88737 108.559 3.90604C108.428 3.91537 108.297 3.92937 108.167 3.94804C108.092 3.94804 108.055 3.90604 108.055 3.82204C108.055 3.7287 108.092 3.66804 108.167 3.64004C108.279 3.6027 108.395 3.57937 108.517 3.57004C108.647 3.55137 108.769 3.5327 108.881 3.51404C109.142 3.46737 109.403 3.41604 109.665 3.36004C109.926 3.30404 110.183 3.24337 110.435 3.17804C110.463 3.1687 110.5 3.16404 110.547 3.16404C110.649 3.16404 110.701 3.22004 110.701 3.33204C110.701 4.43337 110.696 5.53937 110.687 6.65004C110.687 7.7607 110.687 8.87137 110.687 9.98204C110.687 10.1314 110.752 10.2387 110.883 10.304C111.023 10.36 111.153 10.388 111.275 10.388C111.368 10.388 111.461 10.3834 111.555 10.374C111.657 10.3647 111.755 10.36 111.849 10.36C111.886 10.36 111.909 10.3834 111.919 10.43C111.928 10.4767 111.933 10.5094 111.933 10.528ZM110.799 0.840037C110.799 1.07337 110.715 1.27404 110.547 1.44204C110.379 1.6007 110.178 1.68004 109.945 1.68004C109.711 1.68004 109.511 1.6007 109.343 1.44204C109.175 1.27404 109.091 1.07337 109.091 0.840037C109.091 0.606703 109.175 0.410703 109.343 0.252037C109.511 0.0840369 109.711 3.68357e-05 109.945 3.68357e-05C110.178 3.68357e-05 110.379 0.0840369 110.547 0.252037C110.715 0.410703 110.799 0.606703 110.799 0.840037ZM116.717 10.556C116.717 10.6027 116.703 10.6494 116.675 10.696C116.656 10.7334 116.619 10.752 116.563 10.752C116.274 10.752 115.98 10.7474 115.681 10.738C115.382 10.7194 115.084 10.71 114.785 10.71H114.295C114.099 10.71 113.903 10.7194 113.707 10.738C113.511 10.7474 113.315 10.752 113.119 10.752C113.082 10.752 113.054 10.738 113.035 10.71C113.026 10.6727 113.021 10.64 113.021 10.612C113.021 10.584 113.021 10.556 113.021 10.528C113.021 10.5 113.026 10.472 113.035 10.444C113.054 10.4067 113.105 10.388 113.189 10.388C113.282 10.3787 113.376 10.3787 113.469 10.388C113.572 10.388 113.637 10.388 113.665 10.388C113.796 10.388 113.912 10.36 114.015 10.304C114.118 10.2387 114.169 10.1314 114.169 9.98204C114.169 9.26337 114.174 8.54937 114.183 7.84004C114.192 7.12137 114.197 6.40737 114.197 5.69804C114.197 4.97004 114.192 4.24204 114.183 3.51404C114.183 2.7767 114.183 2.04404 114.183 1.31604C114.183 1.2507 114.178 1.1807 114.169 1.10604C114.16 1.02204 114.132 0.956703 114.085 0.910037C114.048 0.86337 114.01 0.840037 113.973 0.840037C113.936 0.830704 113.889 0.826037 113.833 0.826037C113.665 0.826037 113.497 0.854037 113.329 0.910037C113.17 0.966037 113.012 0.994037 112.853 0.994037C112.75 0.994037 112.699 0.93337 112.699 0.812036C112.699 0.73737 112.755 0.686037 112.867 0.658037C112.988 0.630037 113.082 0.61137 113.147 0.602037C113.474 0.52737 113.828 0.44337 114.211 0.350037C114.594 0.256703 114.939 0.14937 115.247 0.0280365C115.266 0.0280365 115.284 0.0233699 115.303 0.0140367C115.322 0.00470344 115.336 3.68357e-05 115.345 3.68357e-05C115.401 3.68357e-05 115.434 0.0187035 115.443 0.0560369C115.462 0.0933698 115.471 0.13537 115.471 0.182037C115.471 0.44337 115.466 0.704704 115.457 0.966037C115.457 1.21804 115.457 1.4747 115.457 1.73604V5.65604C115.457 6.3747 115.462 7.09804 115.471 7.82604C115.48 8.5447 115.485 9.26337 115.485 9.98204C115.485 10.1314 115.546 10.2387 115.667 10.304C115.798 10.36 115.924 10.388 116.045 10.388C116.148 10.388 116.246 10.3834 116.339 10.374C116.432 10.3647 116.526 10.36 116.619 10.36C116.666 10.36 116.694 10.388 116.703 10.444C116.712 10.4907 116.717 10.528 116.717 10.556ZM120.577 9.71604C120.577 9.97737 120.479 10.1967 120.283 10.374C120.087 10.5514 119.858 10.64 119.597 10.64C119.336 10.64 119.107 10.5514 118.911 10.374C118.715 10.1967 118.617 9.97737 118.617 9.71604C118.617 9.44537 118.715 9.22137 118.911 9.04404C119.107 8.8667 119.336 8.77804 119.597 8.77804C119.858 8.77804 120.087 8.8667 120.283 9.04404C120.479 9.22137 120.577 9.44537 120.577 9.71604ZM129.392 9.00204C129.392 9.06737 129.34 9.1607 129.238 9.28204C129.135 9.39404 129.06 9.47337 129.014 9.52004C128.93 9.60404 128.846 9.68804 128.762 9.77204C128.678 9.85604 128.584 9.93537 128.482 10.01C128.192 10.2154 127.847 10.3927 127.446 10.542C127.044 10.682 126.666 10.752 126.312 10.752C125.602 10.752 124.977 10.598 124.436 10.29C123.904 9.9727 123.484 9.54337 123.176 9.00204C122.877 8.45137 122.728 7.82604 122.728 7.12604C122.728 6.43537 122.868 5.7867 123.148 5.18004C123.428 4.57337 123.871 4.08337 124.478 3.71004C124.739 3.55137 125.028 3.42537 125.346 3.33204C125.672 3.2387 125.985 3.19204 126.284 3.19204C126.517 3.19204 126.741 3.22004 126.956 3.27604C127.18 3.33204 127.394 3.4067 127.6 3.50004C127.721 3.55604 127.838 3.61204 127.95 3.66804C128.062 3.72404 128.183 3.75204 128.314 3.75204C128.426 3.75204 128.514 3.71937 128.58 3.65404C128.654 3.57937 128.71 3.54204 128.748 3.54204C128.776 3.54204 128.79 3.5607 128.79 3.59804C128.808 3.71004 128.813 3.82204 128.804 3.93404C128.804 4.04604 128.808 4.15337 128.818 4.25604C128.827 4.46137 128.836 4.6667 128.846 4.87204C128.855 5.07737 128.864 5.2827 128.874 5.48804V5.53004C128.883 5.6327 128.874 5.71204 128.846 5.76804C128.818 5.82404 128.743 5.85204 128.622 5.85204C128.556 5.85204 128.51 5.8147 128.482 5.74004C128.463 5.66537 128.444 5.60004 128.426 5.54404C128.36 5.27337 128.262 4.98404 128.132 4.67604C128.001 4.36804 127.824 4.1207 127.6 3.93404C127.46 3.80337 127.282 3.69604 127.068 3.61204C126.862 3.52804 126.666 3.48604 126.48 3.48604C126.032 3.48604 125.649 3.6027 125.332 3.83604C125.024 4.06004 124.776 4.35404 124.59 4.71804C124.403 5.0727 124.263 5.45537 124.17 5.86604C124.086 6.2767 124.044 6.66404 124.044 7.02804C124.044 7.39204 124.086 7.76537 124.17 8.14804C124.254 8.52137 124.384 8.87137 124.562 9.19804C124.748 9.5247 124.991 9.78604 125.29 9.98204C125.598 10.178 125.966 10.276 126.396 10.276C126.993 10.276 127.492 10.1687 127.894 9.95404C128.295 9.73004 128.682 9.38937 129.056 8.93204C129.093 8.8667 129.144 8.83404 129.21 8.83404C129.331 8.83404 129.392 8.89004 129.392 9.00204ZM136.196 7.04204C136.196 6.6407 136.163 6.23937 136.098 5.83804C136.042 5.42737 135.93 5.04937 135.762 4.70404C135.603 4.3587 135.37 4.08337 135.062 3.87804C134.754 3.66337 134.353 3.55604 133.858 3.55604C133.391 3.55604 133.009 3.66804 132.71 3.89204C132.421 4.11604 132.192 4.40537 132.024 4.76004C131.865 5.1147 131.753 5.49737 131.688 5.90804C131.632 6.3187 131.604 6.70604 131.604 7.07004C131.604 7.47137 131.632 7.8727 131.688 8.27404C131.753 8.67537 131.87 9.03937 132.038 9.36604C132.206 9.68337 132.444 9.94004 132.752 10.136C133.069 10.332 133.475 10.43 133.97 10.43C134.455 10.43 134.843 10.3274 135.132 10.122C135.431 9.9167 135.655 9.64604 135.804 9.31004C135.963 8.97404 136.065 8.61004 136.112 8.21804C136.168 7.8167 136.196 7.4247 136.196 7.04204ZM137.638 7.08404C137.638 7.78404 137.47 8.41404 137.134 8.97404C136.807 9.53404 136.359 9.97737 135.79 10.304C135.23 10.6307 134.6 10.794 133.9 10.794C133.219 10.794 132.603 10.6307 132.052 10.304C131.501 9.96804 131.063 9.5247 130.736 8.97404C130.409 8.41404 130.246 7.79337 130.246 7.11204C130.246 6.41204 130.405 5.76804 130.722 5.18004C131.039 4.5827 131.473 4.10204 132.024 3.73804C132.584 3.37404 133.228 3.19204 133.956 3.19204C134.74 3.19204 135.407 3.36004 135.958 3.69604C136.509 4.0227 136.924 4.48004 137.204 5.06804C137.493 5.6467 137.638 6.3187 137.638 7.08404ZM151.038 10.556C151.038 10.6867 150.986 10.752 150.884 10.752C150.622 10.752 150.356 10.7427 150.086 10.724C149.815 10.7054 149.544 10.696 149.274 10.696C149.003 10.696 148.728 10.7054 148.448 10.724C148.177 10.7427 147.906 10.752 147.636 10.752C147.598 10.752 147.57 10.7287 147.552 10.682C147.542 10.6354 147.538 10.598 147.538 10.57C147.538 10.486 147.58 10.4347 147.664 10.416C147.757 10.3974 147.855 10.3927 147.958 10.402C148.07 10.4114 148.154 10.416 148.21 10.416C148.34 10.416 148.448 10.3834 148.532 10.318C148.616 10.2527 148.658 10.1547 148.658 10.024C148.658 9.3987 148.662 8.77804 148.672 8.16204C148.69 7.54604 148.7 6.93004 148.7 6.31404C148.7 6.21137 148.7 6.1087 148.7 6.00604C148.7 5.90337 148.695 5.8007 148.686 5.69804C148.676 5.47404 148.662 5.24537 148.644 5.01204C148.634 4.76937 148.597 4.54537 148.532 4.34004C148.466 4.12537 148.354 3.9527 148.196 3.82204C148.037 3.69137 147.808 3.62604 147.51 3.62604C147.295 3.62604 147.057 3.69137 146.796 3.82204C146.544 3.94337 146.301 4.08804 146.068 4.25604C145.834 4.42404 145.638 4.5827 145.48 4.73204C145.498 4.8627 145.508 4.99804 145.508 5.13804C145.508 5.2687 145.508 5.39937 145.508 5.53004C145.508 5.8007 145.508 6.07604 145.508 6.35604C145.517 6.6267 145.522 6.89737 145.522 7.16804C145.522 7.64404 145.517 8.12004 145.508 8.59604C145.508 9.07204 145.508 9.54804 145.508 10.024C145.508 10.164 145.568 10.262 145.69 10.318C145.811 10.374 145.932 10.402 146.054 10.402C146.128 10.402 146.203 10.3974 146.278 10.388C146.362 10.3787 146.436 10.374 146.502 10.374C146.548 10.374 146.576 10.3974 146.586 10.444C146.604 10.4907 146.614 10.528 146.614 10.556C146.614 10.6027 146.6 10.6494 146.572 10.696C146.544 10.7334 146.502 10.752 146.446 10.752C146.184 10.752 145.918 10.7427 145.648 10.724C145.386 10.7054 145.12 10.696 144.85 10.696C144.588 10.696 144.322 10.7054 144.052 10.724C143.781 10.7427 143.51 10.752 143.24 10.752C143.202 10.752 143.174 10.7287 143.156 10.682C143.137 10.6354 143.128 10.598 143.128 10.57C143.128 10.4954 143.165 10.444 143.24 10.416C143.314 10.3974 143.403 10.3927 143.506 10.402C143.618 10.4114 143.711 10.416 143.786 10.416C143.916 10.416 144.024 10.388 144.108 10.332C144.201 10.2667 144.248 10.164 144.248 10.024V6.45404C144.248 6.25804 144.243 6.01537 144.234 5.72604C144.234 5.4367 144.215 5.15204 144.178 4.87204C144.15 4.5827 144.098 4.35404 144.024 4.18604C143.958 4.01804 143.846 3.88737 143.688 3.79404C143.538 3.7007 143.37 3.65404 143.184 3.65404C142.941 3.65404 142.694 3.7147 142.442 3.83604C142.19 3.95737 141.952 4.1067 141.728 4.28404C141.504 4.46137 141.312 4.6387 141.154 4.81604V10.01C141.154 10.15 141.205 10.2527 141.308 10.318C141.41 10.374 141.522 10.402 141.644 10.402C141.718 10.402 141.793 10.3974 141.868 10.388C141.942 10.3694 142.012 10.36 142.078 10.36C142.115 10.36 142.138 10.388 142.148 10.444C142.157 10.4907 142.162 10.5234 142.162 10.542C142.162 10.5887 142.148 10.6354 142.12 10.682C142.101 10.7194 142.064 10.738 142.008 10.738C141.83 10.738 141.653 10.7334 141.476 10.724C141.298 10.7054 141.121 10.696 140.944 10.696C140.589 10.696 140.234 10.7054 139.88 10.724C139.525 10.7334 139.17 10.738 138.816 10.738C138.778 10.738 138.75 10.7147 138.732 10.668C138.713 10.6214 138.704 10.584 138.704 10.556C138.704 10.444 138.75 10.388 138.844 10.388C138.946 10.388 139.044 10.3927 139.138 10.402C139.231 10.402 139.324 10.402 139.418 10.402C139.548 10.402 139.66 10.374 139.754 10.318C139.847 10.2527 139.894 10.15 139.894 10.01C139.894 9.06737 139.889 8.1247 139.88 7.18204C139.88 6.23004 139.88 5.2827 139.88 4.34004C139.88 4.23737 139.87 4.1347 139.852 4.03204C139.833 3.92937 139.772 3.85937 139.67 3.82204C139.604 3.79404 139.534 3.78004 139.46 3.78004C139.338 3.78004 139.217 3.7987 139.096 3.83604C138.974 3.86404 138.848 3.87804 138.718 3.87804C138.634 3.87804 138.592 3.82204 138.592 3.71004C138.592 3.63537 138.62 3.5887 138.676 3.57004C138.722 3.55137 138.774 3.54204 138.83 3.54204C138.895 3.5327 138.956 3.52337 139.012 3.51404C139.226 3.48604 139.441 3.45337 139.656 3.41604C139.88 3.36937 140.094 3.3227 140.3 3.27604C140.374 3.25737 140.454 3.2387 140.538 3.22004C140.622 3.20137 140.706 3.19204 140.79 3.19204C140.902 3.19204 140.976 3.27604 141.014 3.44404C141.06 3.6027 141.084 3.77537 141.084 3.96204C141.093 4.1487 141.098 4.28404 141.098 4.36804C141.294 4.20004 141.513 4.02737 141.756 3.85004C141.998 3.66337 142.255 3.5047 142.526 3.37404C142.796 3.24337 143.067 3.17804 143.338 3.17804C143.814 3.17804 144.215 3.25737 144.542 3.41604C144.868 3.5747 145.148 3.87337 145.382 4.31204C145.587 4.1347 145.82 3.95737 146.082 3.78004C146.343 3.59337 146.614 3.43937 146.894 3.31804C147.183 3.18737 147.468 3.12204 147.748 3.12204C148.364 3.12204 148.83 3.2107 149.148 3.38804C149.474 3.56537 149.694 3.8407 149.806 4.21404C149.927 4.57804 149.988 5.04937 149.988 5.62804C149.988 6.35604 149.983 7.0887 149.974 7.82604C149.964 8.55404 149.96 9.2867 149.96 10.024C149.96 10.164 150.02 10.262 150.142 10.318C150.272 10.374 150.398 10.402 150.52 10.402C150.594 10.402 150.664 10.3974 150.73 10.388C150.804 10.3787 150.874 10.374 150.94 10.374C150.977 10.374 151 10.3974 151.01 10.444C151.028 10.4907 151.038 10.528 151.038 10.556Z" fill="#767676"/>
</svg>
