<svg width="107" height="14" viewBox="0 0 107 14" fill="none" xmlns="http://www.w3.org/2000/svg">
<mask id="path-1-outside-1_41_610" maskUnits="userSpaceOnUse" x="-0.520996" y="-0.336426" width="107" height="14" fill="black">
<rect fill="white" x="-0.520996" y="-0.336426" width="107" height="14"/>
<path d="M0.300027 1.62806V0.299937H9.57275V1.62806H5.68497V12.6636H4.18781V1.62806H0.300027ZM14.2333 12.8568C13.3398 12.8568 12.5691 12.6595 11.9211 12.2651C11.2772 11.8667 10.7801 11.3113 10.43 10.5989C10.0839 9.88256 9.91082 9.04946 9.91082 8.09965C9.91082 7.14984 10.0839 6.31272 10.43 5.58829C10.7801 4.85983 11.2671 4.29236 11.8909 3.88587C12.5188 3.47536 13.2513 3.27011 14.0884 3.27011C14.5713 3.27011 15.0483 3.3506 15.5191 3.51158C15.99 3.67257 16.4186 3.93417 16.805 4.29639C17.1914 4.65458 17.4992 5.12948 17.7286 5.7211C17.9581 6.31272 18.0728 7.04118 18.0728 7.90647V8.51017H10.925V7.27863H16.6239C16.6239 6.75543 16.5193 6.28857 16.31 5.87806C16.1047 5.46755 15.8109 5.14357 15.4286 4.90612C15.0503 4.66866 14.6035 4.54994 14.0884 4.54994C13.5209 4.54994 13.0299 4.6908 12.6154 4.97252C12.2049 5.25022 11.8889 5.61244 11.6676 6.05917C11.4462 6.5059 11.3355 6.98483 11.3355 7.49596V8.31698C11.3355 9.01727 11.4563 9.6109 11.6978 10.0979C11.9433 10.5808 12.2833 10.9491 12.718 11.2026C13.1527 11.4522 13.6577 11.5769 14.2333 11.5769C14.6076 11.5769 14.9456 11.5246 15.2475 11.42C15.5533 11.3113 15.817 11.1503 16.0383 10.937C16.2597 10.7197 16.4307 10.45 16.5514 10.1281L17.9279 10.5144C17.783 10.9813 17.5395 11.3918 17.1974 11.746C16.8553 12.0961 16.4327 12.3698 15.9296 12.567C15.4266 12.7602 14.8611 12.8568 14.2333 12.8568ZM20.24 12.6636V3.39085H21.6164V4.83971H21.7372C21.9304 4.34468 22.2423 3.96033 22.6729 3.68666C23.1035 3.40896 23.6207 3.27011 24.2244 3.27011C24.8361 3.27011 25.3452 3.40896 25.7517 3.68666C26.1622 3.96033 26.4822 4.34468 26.7116 4.83971H26.8082C27.0456 4.36078 27.4018 3.98045 27.8767 3.69873C28.3516 3.41298 28.9211 3.27011 29.5852 3.27011C30.4143 3.27011 31.0924 3.5297 31.6196 4.04887C32.1469 4.56402 32.4105 5.36694 32.4105 6.45761V12.6636H30.9858V6.45761C30.9858 5.77342 30.7986 5.28443 30.4243 4.99063C30.05 4.69684 29.6093 4.54994 29.1022 4.54994C28.4502 4.54994 27.9452 4.74714 27.587 5.14156C27.2288 5.53195 27.0497 6.02697 27.0497 6.62664V12.6636H25.6008V6.31272C25.6008 5.7855 25.4298 5.3609 25.0877 5.03893C24.7456 4.71293 24.3049 4.54994 23.7656 4.54994C23.3953 4.54994 23.0492 4.64854 22.7272 4.84575C22.4093 5.04295 22.1517 5.31663 21.9545 5.66677C21.7613 6.01289 21.6647 6.41334 21.6647 6.86812V12.6636H20.24ZM37.7441 12.8809C37.1565 12.8809 36.6232 12.7702 36.1443 12.5489C35.6654 12.3235 35.2851 11.9995 35.0033 11.5769C34.7216 11.1503 34.5807 10.6352 34.5807 10.0315C34.5807 9.50022 34.6854 9.06959 34.8947 8.73957C35.1039 8.40552 35.3837 8.14392 35.7338 7.95477C36.0839 7.76561 36.4703 7.62475 36.8929 7.53218C37.3195 7.43559 37.7481 7.35912 38.1788 7.30278C38.7422 7.23034 39.199 7.176 39.5491 7.13978C39.9033 7.09954 40.1609 7.03313 40.3219 6.94056C40.4869 6.848 40.5694 6.68701 40.5694 6.45761V6.40931C40.5694 5.81367 40.4064 5.35084 40.0804 5.02082C39.7584 4.6908 39.2694 4.52579 38.6134 4.52579C37.9333 4.52579 37.4 4.6747 37.0136 4.97252C36.6273 5.27034 36.3556 5.58829 36.1986 5.92636L34.8464 5.4434C35.0878 4.87996 35.4098 4.44127 35.8123 4.12735C36.2188 3.80941 36.6615 3.58805 37.1404 3.46329C37.6234 3.3345 38.0983 3.27011 38.5651 3.27011C38.8629 3.27011 39.205 3.30633 39.5914 3.37877C39.9818 3.44719 40.3581 3.59007 40.7203 3.80739C41.0865 4.02472 41.3904 4.35273 41.6319 4.79142C41.8734 5.2301 41.9941 5.81769 41.9941 6.5542V12.6636H40.5694V11.4079H40.4969C40.4003 11.6091 40.2394 11.8244 40.014 12.0538C39.7886 12.2832 39.4888 12.4784 39.1145 12.6394C38.7402 12.8004 38.2834 12.8809 37.7441 12.8809ZM37.9614 11.6011C38.5249 11.6011 38.9998 11.4904 39.3861 11.269C39.7765 11.0477 40.0703 10.7619 40.2675 10.4118C40.4688 10.0617 40.5694 9.6934 40.5694 9.30704V8.00306C40.509 8.07551 40.3762 8.14191 40.1709 8.20228C39.9697 8.25863 39.7363 8.30893 39.4707 8.3532C39.2091 8.39345 38.9535 8.42967 38.704 8.46187C38.4585 8.49004 38.2592 8.51419 38.1063 8.53431C37.736 8.58261 37.3899 8.66109 37.068 8.76975C36.75 8.87439 36.4924 9.03337 36.2952 9.24667C36.1021 9.45595 36.0055 9.7417 36.0055 10.1039C36.0055 10.5989 36.1886 10.9732 36.5548 11.2268C36.9251 11.4763 37.394 11.6011 37.9614 11.6011ZM53.2635 12.8568C52.3701 12.8568 51.5994 12.6595 50.9514 12.2651C50.3075 11.8667 49.8104 11.3113 49.4603 10.5989C49.1142 9.88256 48.9411 9.04946 48.9411 8.09965C48.9411 7.14984 49.1142 6.31272 49.4603 5.58829C49.8104 4.85983 50.2974 4.29236 50.9212 3.88587C51.5491 3.47536 52.2815 3.27011 53.1187 3.27011C53.6016 3.27011 54.0785 3.3506 54.5494 3.51158C55.0203 3.67257 55.4489 3.93417 55.8353 4.29639C56.2216 4.65458 56.5295 5.12948 56.7589 5.7211C56.9883 6.31272 57.103 7.04118 57.103 7.90647V8.51017H49.9553V7.27863H55.6542C55.6542 6.75543 55.5495 6.28857 55.3402 5.87806C55.135 5.46755 54.8412 5.14357 54.4589 4.90612C54.0805 4.66866 53.6338 4.54994 53.1187 4.54994C52.5512 4.54994 52.0602 4.6908 51.6456 4.97252C51.2351 5.25022 50.9192 5.61244 50.6978 6.05917C50.4765 6.5059 50.3658 6.98483 50.3658 7.49596V8.31698C50.3658 9.01727 50.4866 9.6109 50.728 10.0979C50.9735 10.5808 51.3136 10.9491 51.7483 11.2026C52.1829 11.4522 52.688 11.5769 53.2635 11.5769C53.6378 11.5769 53.9759 11.5246 54.2777 11.42C54.5836 11.3113 54.8472 11.1503 55.0686 10.937C55.2899 10.7197 55.461 10.45 55.5817 10.1281L56.9581 10.5144C56.8133 10.9813 56.5698 11.3918 56.2277 11.746C55.8856 12.0961 55.463 12.3698 54.9599 12.567C54.4568 12.7602 53.8914 12.8568 53.2635 12.8568ZM65.8385 5.46755L64.5586 5.82977C64.4781 5.61646 64.3594 5.40919 64.2025 5.20796C64.0495 5.00271 63.8402 4.83367 63.5746 4.70086C63.309 4.56805 62.9689 4.50164 62.5544 4.50164C61.9869 4.50164 61.514 4.63244 61.1357 4.89404C60.7614 5.15162 60.5743 5.47962 60.5743 5.87806C60.5743 6.23223 60.7031 6.51194 60.9606 6.7172C61.2182 6.92245 61.6207 7.0935 62.168 7.23034L63.5444 7.5684C64.3735 7.76963 64.9913 8.07752 65.3978 8.49205C65.8043 8.90257 66.0075 9.4318 66.0075 10.0798C66.0075 10.611 65.8546 11.0859 65.5487 11.5045C65.2468 11.923 64.8243 12.2531 64.2809 12.4945C63.7376 12.736 63.1058 12.8568 62.3853 12.8568C61.4396 12.8568 60.6568 12.6515 60.037 12.241C59.4172 11.8305 59.0248 11.2308 58.8598 10.442L60.212 10.1039C60.3408 10.603 60.5843 10.9773 60.9425 11.2268C61.3047 11.4763 61.7776 11.6011 62.3612 11.6011C63.0253 11.6011 63.5525 11.4602 63.9429 11.1785C64.3373 10.8927 64.5345 10.5506 64.5345 10.1522C64.5345 9.83024 64.4218 9.56059 64.1964 9.34326C63.971 9.12191 63.6249 8.9569 63.1581 8.84823L61.6126 8.48602C60.7634 8.28479 60.1396 7.97288 59.7412 7.55029C59.3468 7.12368 59.1495 6.59042 59.1495 5.95051C59.1495 5.42731 59.2964 4.96447 59.5902 4.56201C59.8881 4.15955 60.2925 3.84362 60.8037 3.61421C61.3188 3.38481 61.9024 3.27011 62.5544 3.27011C63.472 3.27011 64.1924 3.47134 64.7156 3.8738C65.2428 4.27626 65.6171 4.80751 65.8385 5.46755ZM71.9192 12.8568C71.0498 12.8568 70.3013 12.6515 69.6734 12.241C69.0456 11.8305 68.5626 11.265 68.2246 10.5446C67.8865 9.8242 67.7175 9.00117 67.7175 8.07551C67.7175 7.13374 67.8905 6.30266 68.2366 5.58225C68.5868 4.85782 69.0738 4.29236 69.6976 3.88587C70.3254 3.47536 71.0579 3.27011 71.895 3.27011C72.547 3.27011 73.1346 3.39085 73.6578 3.63232C74.181 3.8738 74.6096 4.21187 74.9437 4.64653C75.2777 5.08119 75.485 5.58829 75.5655 6.16784H74.1408C74.0321 5.74525 73.7906 5.37096 73.4163 5.04497C73.0461 4.71495 72.547 4.54994 71.9192 4.54994C71.3638 4.54994 70.8768 4.69482 70.4582 4.9846C70.0437 5.27034 69.7197 5.67482 69.4863 6.19802C69.2569 6.7172 69.1422 7.32693 69.1422 8.02721C69.1422 8.74359 69.2549 9.36741 69.4802 9.89866C69.7097 10.4299 70.0316 10.8424 70.4462 11.1362C70.8647 11.43 71.3557 11.5769 71.9192 11.5769C72.2894 11.5769 72.6255 11.5125 72.9273 11.3837C73.2292 11.255 73.4847 11.0698 73.694 10.8283C73.9033 10.5869 74.0522 10.2971 74.1408 9.95903H75.5655C75.485 10.5064 75.2858 10.9994 74.9678 11.4381C74.6539 11.8727 74.2373 12.2189 73.7182 12.4764C73.203 12.73 72.6034 12.8568 71.9192 12.8568ZM83.492 8.87238V3.39085H84.9167V12.6636H83.492V11.094H83.3954C83.178 11.5649 82.84 11.9653 82.3812 12.2953C81.9224 12.6213 81.3428 12.7843 80.6425 12.7843C80.063 12.7843 79.5478 12.6575 79.0971 12.404C78.6463 12.1464 78.2922 11.76 78.0346 11.2449C77.777 10.7257 77.6482 10.0717 77.6482 9.28289V3.39085H79.0729V9.1863C79.0729 9.86244 79.2621 10.4017 79.6404 10.8042C80.0227 11.2067 80.5097 11.4079 81.1013 11.4079C81.4555 11.4079 81.8157 11.3173 82.182 11.1362C82.5522 10.9551 82.8621 10.6774 83.1116 10.3031C83.3652 9.92884 83.492 9.45193 83.492 8.87238ZM87.5261 12.6636V3.39085H88.9026V4.79142H88.9992C89.1682 4.33261 89.4741 3.96033 89.9168 3.67458C90.3595 3.38883 90.8585 3.24596 91.4139 3.24596C91.5186 3.24596 91.6494 3.24797 91.8063 3.252C91.9633 3.25602 92.082 3.26206 92.1625 3.27011V4.71897C92.1142 4.7069 92.0035 4.68879 91.8305 4.66464C91.6614 4.63647 91.4823 4.62238 91.2932 4.62238C90.8424 4.62238 90.44 4.71696 90.0858 4.90612C89.7357 5.09125 89.458 5.34882 89.2527 5.67884C89.0515 6.00484 88.9509 6.37712 88.9509 6.79568V12.6636H87.5261ZM97.3362 12.8568C96.499 12.8568 95.7645 12.6575 95.1327 12.2591C94.5048 11.8607 94.0138 11.3033 93.6597 10.5869C93.3095 9.87049 93.1345 9.03337 93.1345 8.07551C93.1345 7.1096 93.3095 6.26644 93.6597 5.54603C94.0138 4.82562 94.5048 4.2662 95.1327 3.86776C95.7645 3.46933 96.499 3.27011 97.3362 3.27011C98.1733 3.27011 98.9058 3.46933 99.5336 3.86776C100.165 4.2662 100.656 4.82562 101.007 5.54603C101.361 6.26644 101.538 7.1096 101.538 8.07551C101.538 9.03337 101.361 9.87049 101.007 10.5869C100.656 11.3033 100.165 11.8607 99.5336 12.2591C98.9058 12.6575 98.1733 12.8568 97.3362 12.8568ZM97.3362 11.5769C97.972 11.5769 98.4953 11.4139 98.9058 11.0879C99.3163 10.7619 99.6201 10.3333 99.8173 9.80207C100.015 9.27082 100.113 8.6953 100.113 8.07551C100.113 7.45571 100.015 6.87818 99.8173 6.34291C99.6201 5.80763 99.3163 5.37499 98.9058 5.04497C98.4953 4.71495 97.972 4.54994 97.3362 4.54994C96.7003 4.54994 96.1771 4.71495 95.7666 5.04497C95.356 5.37499 95.0522 5.80763 94.855 6.34291C94.6578 6.87818 94.5592 7.45571 94.5592 8.07551C94.5592 8.6953 94.6578 9.27082 94.855 9.80207C95.0522 10.3333 95.356 10.7619 95.7666 11.0879C96.1771 11.4139 96.7003 11.5769 97.3362 11.5769ZM104.751 12.7602C104.453 12.7602 104.198 12.6535 103.984 12.4402C103.771 12.2269 103.664 11.9713 103.664 11.6735C103.664 11.3757 103.771 11.1201 103.984 10.9068C104.198 10.6935 104.453 10.5869 104.751 10.5869C105.049 10.5869 105.304 10.6935 105.518 10.9068C105.731 11.1201 105.838 11.3757 105.838 11.6735C105.838 11.8707 105.787 12.0518 105.687 12.2168C105.59 12.3819 105.459 12.5147 105.294 12.6153C105.133 12.7119 104.952 12.7602 104.751 12.7602ZM104.751 5.87806C104.453 5.87806 104.198 5.77141 103.984 5.55811C103.771 5.3448 103.664 5.08924 103.664 4.79142C103.664 4.49359 103.771 4.23803 103.984 4.02472C104.198 3.81142 104.453 3.70477 104.751 3.70477C105.049 3.70477 105.304 3.81142 105.518 4.02472C105.731 4.23803 105.838 4.49359 105.838 4.79142C105.838 4.98862 105.787 5.16973 105.687 5.33474C105.59 5.49975 105.459 5.63256 105.294 5.73318C105.133 5.82977 104.952 5.87806 104.751 5.87806Z"/>
</mask>
<path d="M0.300027 1.62806V0.299937H9.57275V1.62806H5.68497V12.6636H4.18781V1.62806H0.300027ZM14.2333 12.8568C13.3398 12.8568 12.5691 12.6595 11.9211 12.2651C11.2772 11.8667 10.7801 11.3113 10.43 10.5989C10.0839 9.88256 9.91082 9.04946 9.91082 8.09965C9.91082 7.14984 10.0839 6.31272 10.43 5.58829C10.7801 4.85983 11.2671 4.29236 11.8909 3.88587C12.5188 3.47536 13.2513 3.27011 14.0884 3.27011C14.5713 3.27011 15.0483 3.3506 15.5191 3.51158C15.99 3.67257 16.4186 3.93417 16.805 4.29639C17.1914 4.65458 17.4992 5.12948 17.7286 5.7211C17.9581 6.31272 18.0728 7.04118 18.0728 7.90647V8.51017H10.925V7.27863H16.6239C16.6239 6.75543 16.5193 6.28857 16.31 5.87806C16.1047 5.46755 15.8109 5.14357 15.4286 4.90612C15.0503 4.66866 14.6035 4.54994 14.0884 4.54994C13.5209 4.54994 13.0299 4.6908 12.6154 4.97252C12.2049 5.25022 11.8889 5.61244 11.6676 6.05917C11.4462 6.5059 11.3355 6.98483 11.3355 7.49596V8.31698C11.3355 9.01727 11.4563 9.6109 11.6978 10.0979C11.9433 10.5808 12.2833 10.9491 12.718 11.2026C13.1527 11.4522 13.6577 11.5769 14.2333 11.5769C14.6076 11.5769 14.9456 11.5246 15.2475 11.42C15.5533 11.3113 15.817 11.1503 16.0383 10.937C16.2597 10.7197 16.4307 10.45 16.5514 10.1281L17.9279 10.5144C17.783 10.9813 17.5395 11.3918 17.1974 11.746C16.8553 12.0961 16.4327 12.3698 15.9296 12.567C15.4266 12.7602 14.8611 12.8568 14.2333 12.8568ZM20.24 12.6636V3.39085H21.6164V4.83971H21.7372C21.9304 4.34468 22.2423 3.96033 22.6729 3.68666C23.1035 3.40896 23.6207 3.27011 24.2244 3.27011C24.8361 3.27011 25.3452 3.40896 25.7517 3.68666C26.1622 3.96033 26.4822 4.34468 26.7116 4.83971H26.8082C27.0456 4.36078 27.4018 3.98045 27.8767 3.69873C28.3516 3.41298 28.9211 3.27011 29.5852 3.27011C30.4143 3.27011 31.0924 3.5297 31.6196 4.04887C32.1469 4.56402 32.4105 5.36694 32.4105 6.45761V12.6636H30.9858V6.45761C30.9858 5.77342 30.7986 5.28443 30.4243 4.99063C30.05 4.69684 29.6093 4.54994 29.1022 4.54994C28.4502 4.54994 27.9452 4.74714 27.587 5.14156C27.2288 5.53195 27.0497 6.02697 27.0497 6.62664V12.6636H25.6008V6.31272C25.6008 5.7855 25.4298 5.3609 25.0877 5.03893C24.7456 4.71293 24.3049 4.54994 23.7656 4.54994C23.3953 4.54994 23.0492 4.64854 22.7272 4.84575C22.4093 5.04295 22.1517 5.31663 21.9545 5.66677C21.7613 6.01289 21.6647 6.41334 21.6647 6.86812V12.6636H20.24ZM37.7441 12.8809C37.1565 12.8809 36.6232 12.7702 36.1443 12.5489C35.6654 12.3235 35.2851 11.9995 35.0033 11.5769C34.7216 11.1503 34.5807 10.6352 34.5807 10.0315C34.5807 9.50022 34.6854 9.06959 34.8947 8.73957C35.1039 8.40552 35.3837 8.14392 35.7338 7.95477C36.0839 7.76561 36.4703 7.62475 36.8929 7.53218C37.3195 7.43559 37.7481 7.35912 38.1788 7.30278C38.7422 7.23034 39.199 7.176 39.5491 7.13978C39.9033 7.09954 40.1609 7.03313 40.3219 6.94056C40.4869 6.848 40.5694 6.68701 40.5694 6.45761V6.40931C40.5694 5.81367 40.4064 5.35084 40.0804 5.02082C39.7584 4.6908 39.2694 4.52579 38.6134 4.52579C37.9333 4.52579 37.4 4.6747 37.0136 4.97252C36.6273 5.27034 36.3556 5.58829 36.1986 5.92636L34.8464 5.4434C35.0878 4.87996 35.4098 4.44127 35.8123 4.12735C36.2188 3.80941 36.6615 3.58805 37.1404 3.46329C37.6234 3.3345 38.0983 3.27011 38.5651 3.27011C38.8629 3.27011 39.205 3.30633 39.5914 3.37877C39.9818 3.44719 40.3581 3.59007 40.7203 3.80739C41.0865 4.02472 41.3904 4.35273 41.6319 4.79142C41.8734 5.2301 41.9941 5.81769 41.9941 6.5542V12.6636H40.5694V11.4079H40.4969C40.4003 11.6091 40.2394 11.8244 40.014 12.0538C39.7886 12.2832 39.4888 12.4784 39.1145 12.6394C38.7402 12.8004 38.2834 12.8809 37.7441 12.8809ZM37.9614 11.6011C38.5249 11.6011 38.9998 11.4904 39.3861 11.269C39.7765 11.0477 40.0703 10.7619 40.2675 10.4118C40.4688 10.0617 40.5694 9.6934 40.5694 9.30704V8.00306C40.509 8.07551 40.3762 8.14191 40.1709 8.20228C39.9697 8.25863 39.7363 8.30893 39.4707 8.3532C39.2091 8.39345 38.9535 8.42967 38.704 8.46187C38.4585 8.49004 38.2592 8.51419 38.1063 8.53431C37.736 8.58261 37.3899 8.66109 37.068 8.76975C36.75 8.87439 36.4924 9.03337 36.2952 9.24667C36.1021 9.45595 36.0055 9.7417 36.0055 10.1039C36.0055 10.5989 36.1886 10.9732 36.5548 11.2268C36.9251 11.4763 37.394 11.6011 37.9614 11.6011ZM53.2635 12.8568C52.3701 12.8568 51.5994 12.6595 50.9514 12.2651C50.3075 11.8667 49.8104 11.3113 49.4603 10.5989C49.1142 9.88256 48.9411 9.04946 48.9411 8.09965C48.9411 7.14984 49.1142 6.31272 49.4603 5.58829C49.8104 4.85983 50.2974 4.29236 50.9212 3.88587C51.5491 3.47536 52.2815 3.27011 53.1187 3.27011C53.6016 3.27011 54.0785 3.3506 54.5494 3.51158C55.0203 3.67257 55.4489 3.93417 55.8353 4.29639C56.2216 4.65458 56.5295 5.12948 56.7589 5.7211C56.9883 6.31272 57.103 7.04118 57.103 7.90647V8.51017H49.9553V7.27863H55.6542C55.6542 6.75543 55.5495 6.28857 55.3402 5.87806C55.135 5.46755 54.8412 5.14357 54.4589 4.90612C54.0805 4.66866 53.6338 4.54994 53.1187 4.54994C52.5512 4.54994 52.0602 4.6908 51.6456 4.97252C51.2351 5.25022 50.9192 5.61244 50.6978 6.05917C50.4765 6.5059 50.3658 6.98483 50.3658 7.49596V8.31698C50.3658 9.01727 50.4866 9.6109 50.728 10.0979C50.9735 10.5808 51.3136 10.9491 51.7483 11.2026C52.1829 11.4522 52.688 11.5769 53.2635 11.5769C53.6378 11.5769 53.9759 11.5246 54.2777 11.42C54.5836 11.3113 54.8472 11.1503 55.0686 10.937C55.2899 10.7197 55.461 10.45 55.5817 10.1281L56.9581 10.5144C56.8133 10.9813 56.5698 11.3918 56.2277 11.746C55.8856 12.0961 55.463 12.3698 54.9599 12.567C54.4568 12.7602 53.8914 12.8568 53.2635 12.8568ZM65.8385 5.46755L64.5586 5.82977C64.4781 5.61646 64.3594 5.40919 64.2025 5.20796C64.0495 5.00271 63.8402 4.83367 63.5746 4.70086C63.309 4.56805 62.9689 4.50164 62.5544 4.50164C61.9869 4.50164 61.514 4.63244 61.1357 4.89404C60.7614 5.15162 60.5743 5.47962 60.5743 5.87806C60.5743 6.23223 60.7031 6.51194 60.9606 6.7172C61.2182 6.92245 61.6207 7.0935 62.168 7.23034L63.5444 7.5684C64.3735 7.76963 64.9913 8.07752 65.3978 8.49205C65.8043 8.90257 66.0075 9.4318 66.0075 10.0798C66.0075 10.611 65.8546 11.0859 65.5487 11.5045C65.2468 11.923 64.8243 12.2531 64.2809 12.4945C63.7376 12.736 63.1058 12.8568 62.3853 12.8568C61.4396 12.8568 60.6568 12.6515 60.037 12.241C59.4172 11.8305 59.0248 11.2308 58.8598 10.442L60.212 10.1039C60.3408 10.603 60.5843 10.9773 60.9425 11.2268C61.3047 11.4763 61.7776 11.6011 62.3612 11.6011C63.0253 11.6011 63.5525 11.4602 63.9429 11.1785C64.3373 10.8927 64.5345 10.5506 64.5345 10.1522C64.5345 9.83024 64.4218 9.56059 64.1964 9.34326C63.971 9.12191 63.6249 8.9569 63.1581 8.84823L61.6126 8.48602C60.7634 8.28479 60.1396 7.97288 59.7412 7.55029C59.3468 7.12368 59.1495 6.59042 59.1495 5.95051C59.1495 5.42731 59.2964 4.96447 59.5902 4.56201C59.8881 4.15955 60.2925 3.84362 60.8037 3.61421C61.3188 3.38481 61.9024 3.27011 62.5544 3.27011C63.472 3.27011 64.1924 3.47134 64.7156 3.8738C65.2428 4.27626 65.6171 4.80751 65.8385 5.46755ZM71.9192 12.8568C71.0498 12.8568 70.3013 12.6515 69.6734 12.241C69.0456 11.8305 68.5626 11.265 68.2246 10.5446C67.8865 9.8242 67.7175 9.00117 67.7175 8.07551C67.7175 7.13374 67.8905 6.30266 68.2366 5.58225C68.5868 4.85782 69.0738 4.29236 69.6976 3.88587C70.3254 3.47536 71.0579 3.27011 71.895 3.27011C72.547 3.27011 73.1346 3.39085 73.6578 3.63232C74.181 3.8738 74.6096 4.21187 74.9437 4.64653C75.2777 5.08119 75.485 5.58829 75.5655 6.16784H74.1408C74.0321 5.74525 73.7906 5.37096 73.4163 5.04497C73.0461 4.71495 72.547 4.54994 71.9192 4.54994C71.3638 4.54994 70.8768 4.69482 70.4582 4.9846C70.0437 5.27034 69.7197 5.67482 69.4863 6.19802C69.2569 6.7172 69.1422 7.32693 69.1422 8.02721C69.1422 8.74359 69.2549 9.36741 69.4802 9.89866C69.7097 10.4299 70.0316 10.8424 70.4462 11.1362C70.8647 11.43 71.3557 11.5769 71.9192 11.5769C72.2894 11.5769 72.6255 11.5125 72.9273 11.3837C73.2292 11.255 73.4847 11.0698 73.694 10.8283C73.9033 10.5869 74.0522 10.2971 74.1408 9.95903H75.5655C75.485 10.5064 75.2858 10.9994 74.9678 11.4381C74.6539 11.8727 74.2373 12.2189 73.7182 12.4764C73.203 12.73 72.6034 12.8568 71.9192 12.8568ZM83.492 8.87238V3.39085H84.9167V12.6636H83.492V11.094H83.3954C83.178 11.5649 82.84 11.9653 82.3812 12.2953C81.9224 12.6213 81.3428 12.7843 80.6425 12.7843C80.063 12.7843 79.5478 12.6575 79.0971 12.404C78.6463 12.1464 78.2922 11.76 78.0346 11.2449C77.777 10.7257 77.6482 10.0717 77.6482 9.28289V3.39085H79.0729V9.1863C79.0729 9.86244 79.2621 10.4017 79.6404 10.8042C80.0227 11.2067 80.5097 11.4079 81.1013 11.4079C81.4555 11.4079 81.8157 11.3173 82.182 11.1362C82.5522 10.9551 82.8621 10.6774 83.1116 10.3031C83.3652 9.92884 83.492 9.45193 83.492 8.87238ZM87.5261 12.6636V3.39085H88.9026V4.79142H88.9992C89.1682 4.33261 89.4741 3.96033 89.9168 3.67458C90.3595 3.38883 90.8585 3.24596 91.4139 3.24596C91.5186 3.24596 91.6494 3.24797 91.8063 3.252C91.9633 3.25602 92.082 3.26206 92.1625 3.27011V4.71897C92.1142 4.7069 92.0035 4.68879 91.8305 4.66464C91.6614 4.63647 91.4823 4.62238 91.2932 4.62238C90.8424 4.62238 90.44 4.71696 90.0858 4.90612C89.7357 5.09125 89.458 5.34882 89.2527 5.67884C89.0515 6.00484 88.9509 6.37712 88.9509 6.79568V12.6636H87.5261ZM97.3362 12.8568C96.499 12.8568 95.7645 12.6575 95.1327 12.2591C94.5048 11.8607 94.0138 11.3033 93.6597 10.5869C93.3095 9.87049 93.1345 9.03337 93.1345 8.07551C93.1345 7.1096 93.3095 6.26644 93.6597 5.54603C94.0138 4.82562 94.5048 4.2662 95.1327 3.86776C95.7645 3.46933 96.499 3.27011 97.3362 3.27011C98.1733 3.27011 98.9058 3.46933 99.5336 3.86776C100.165 4.2662 100.656 4.82562 101.007 5.54603C101.361 6.26644 101.538 7.1096 101.538 8.07551C101.538 9.03337 101.361 9.87049 101.007 10.5869C100.656 11.3033 100.165 11.8607 99.5336 12.2591C98.9058 12.6575 98.1733 12.8568 97.3362 12.8568ZM97.3362 11.5769C97.972 11.5769 98.4953 11.4139 98.9058 11.0879C99.3163 10.7619 99.6201 10.3333 99.8173 9.80207C100.015 9.27082 100.113 8.6953 100.113 8.07551C100.113 7.45571 100.015 6.87818 99.8173 6.34291C99.6201 5.80763 99.3163 5.37499 98.9058 5.04497C98.4953 4.71495 97.972 4.54994 97.3362 4.54994C96.7003 4.54994 96.1771 4.71495 95.7666 5.04497C95.356 5.37499 95.0522 5.80763 94.855 6.34291C94.6578 6.87818 94.5592 7.45571 94.5592 8.07551C94.5592 8.6953 94.6578 9.27082 94.855 9.80207C95.0522 10.3333 95.356 10.7619 95.7666 11.0879C96.1771 11.4139 96.7003 11.5769 97.3362 11.5769ZM104.751 12.7602C104.453 12.7602 104.198 12.6535 103.984 12.4402C103.771 12.2269 103.664 11.9713 103.664 11.6735C103.664 11.3757 103.771 11.1201 103.984 10.9068C104.198 10.6935 104.453 10.5869 104.751 10.5869C105.049 10.5869 105.304 10.6935 105.518 10.9068C105.731 11.1201 105.838 11.3757 105.838 11.6735C105.838 11.8707 105.787 12.0518 105.687 12.2168C105.59 12.3819 105.459 12.5147 105.294 12.6153C105.133 12.7119 104.952 12.7602 104.751 12.7602ZM104.751 5.87806C104.453 5.87806 104.198 5.77141 103.984 5.55811C103.771 5.3448 103.664 5.08924 103.664 4.79142C103.664 4.49359 103.771 4.23803 103.984 4.02472C104.198 3.81142 104.453 3.70477 104.751 3.70477C105.049 3.70477 105.304 3.81142 105.518 4.02472C105.731 4.23803 105.838 4.49359 105.838 4.79142C105.838 4.98862 105.787 5.16973 105.687 5.33474C105.59 5.49975 105.459 5.63256 105.294 5.73318C105.133 5.82977 104.952 5.87806 104.751 5.87806Z" fill="#E3E4EB"/>
<path d="M0.300027 1.62806H2.66433e-05V1.92806H0.300027V1.62806ZM0.300027 0.299937V-6.29425e-05H2.66433e-05V0.299937H0.300027ZM9.57275 0.299937H9.87275V-6.29425e-05H9.57275V0.299937ZM9.57275 1.62806V1.92806H9.87275V1.62806H9.57275ZM5.68497 1.62806V1.32806H5.38497V1.62806H5.68497ZM5.68497 12.6636V12.9636H5.98497V12.6636H5.68497ZM4.18781 12.6636H3.88781V12.9636H4.18781V12.6636ZM4.18781 1.62806H4.48781V1.32806H4.18781V1.62806ZM0.300027 1.62806H0.600027V0.299937H0.300027H2.66433e-05V1.62806H0.300027ZM0.300027 0.299937V0.599937H9.57275V0.299937V-6.29425e-05H0.300027V0.299937ZM9.57275 0.299937H9.27275V1.62806H9.57275H9.87275V0.299937H9.57275ZM9.57275 1.62806V1.32806H5.68497V1.62806V1.92806H9.57275V1.62806ZM5.68497 1.62806H5.38497V12.6636H5.68497H5.98497V1.62806H5.68497ZM5.68497 12.6636V12.3636H4.18781V12.6636V12.9636H5.68497V12.6636ZM4.18781 12.6636H4.48781V1.62806H4.18781H3.88781V12.6636H4.18781ZM4.18781 1.62806V1.32806H0.300027V1.62806V1.92806H4.18781V1.62806ZM11.9211 12.2651L11.7633 12.5203L11.7651 12.5214L11.9211 12.2651ZM10.43 10.5989L10.1599 10.7295L10.1608 10.7313L10.43 10.5989ZM10.43 5.58829L10.1596 5.45832L10.1593 5.45896L10.43 5.58829ZM11.8909 3.88587L12.0547 4.13722L12.0551 4.13697L11.8909 3.88587ZM15.5191 3.51159L15.6162 3.22772V3.22772L15.5191 3.51159ZM16.805 4.29639L16.5998 4.51525L16.601 4.51639L16.805 4.29639ZM17.7286 5.7211L18.0084 5.61264V5.61264L17.7286 5.7211ZM18.0728 8.51017V8.81017H18.3728V8.51017H18.0728ZM10.925 8.51017H10.625V8.81017H10.925V8.51017ZM10.925 7.27863V6.97863H10.625V7.27863H10.925ZM16.6239 7.27863V7.57863H16.9239V7.27863H16.6239ZM16.31 5.87806L16.0416 6.01223L16.0427 6.01432L16.31 5.87806ZM15.4286 4.90612L15.2691 5.16022L15.2703 5.16097L15.4286 4.90612ZM12.6154 4.97252L12.7835 5.22101L12.784 5.22065L12.6154 4.97252ZM11.6676 6.05917L11.3988 5.92598V5.92598L11.6676 6.05917ZM11.6978 10.0979L11.429 10.2312L11.4303 10.2338L11.6978 10.0979ZM12.718 11.2026L12.5668 11.4618L12.5686 11.4628L12.718 11.2026ZM15.2475 11.42L15.3457 11.7034L15.3479 11.7027L15.2475 11.42ZM16.0383 10.937L16.2465 11.153L16.2485 11.1511L16.0383 10.937ZM16.5514 10.1281L16.6325 9.83923L16.3673 9.76477L16.2705 10.0227L16.5514 10.1281ZM17.9279 10.5144L18.2144 10.6033L18.3058 10.3089L18.0089 10.2256L17.9279 10.5144ZM17.1974 11.746L17.412 11.9556L17.4132 11.9544L17.1974 11.746ZM15.9296 12.567L16.0372 12.8471L16.0391 12.8463L15.9296 12.567ZM14.2333 12.8568V12.5568C13.3849 12.5568 12.6703 12.3699 12.0771 12.0089L11.9211 12.2651L11.7651 12.5214C12.4679 12.9492 13.2947 13.1568 14.2333 13.1568V12.8568ZM11.9211 12.2651L12.079 12.01C11.4853 11.6427 11.0258 11.1309 10.6992 10.4666L10.43 10.5989L10.1608 10.7313C10.5345 11.4917 11.069 12.0907 11.7633 12.5203L11.9211 12.2651ZM10.43 10.5989L10.7001 10.4684C10.3771 9.79989 10.2108 9.01293 10.2108 8.09965H9.91082H9.61082C9.61082 9.086 9.79064 9.96523 10.1599 10.7295L10.43 10.5989ZM9.91082 8.09965H10.2108C10.2108 7.18648 10.3771 6.39493 10.7007 5.71762L10.43 5.58829L10.1593 5.45896C9.79068 6.23051 9.61082 7.1132 9.61082 8.09965H9.91082ZM10.43 5.58829L10.7004 5.71826C11.0289 5.03487 11.4808 4.51121 12.0547 4.13722L11.8909 3.88587L11.7272 3.63453C11.0535 4.07351 10.5314 4.6848 10.1596 5.45832L10.43 5.58829ZM11.8909 3.88587L12.0551 4.13697C12.6286 3.76199 13.3026 3.57011 14.0884 3.57011V3.27011V2.97011C13.1999 2.97011 12.409 3.18873 11.7268 3.63478L11.8909 3.88587ZM14.0884 3.27011V3.57011C14.5373 3.57011 14.9815 3.64482 15.4221 3.79545L15.5191 3.51159L15.6162 3.22772C15.115 3.05638 14.6054 2.97011 14.0884 2.97011V3.27011ZM15.5191 3.51159L15.4221 3.79545C15.8502 3.94181 16.2425 4.18022 16.5998 4.51525L16.805 4.29639L17.0102 4.07753C16.5948 3.68812 16.1299 3.40333 15.6162 3.22772L15.5191 3.51159ZM16.805 4.29639L16.601 4.51639C16.9479 4.83794 17.2327 5.27183 17.4489 5.82956L17.7286 5.7211L18.0084 5.61264C17.7658 4.98714 17.4348 4.47122 17.009 4.07639L16.805 4.29639ZM17.7286 5.7211L17.4489 5.82956C17.661 6.37652 17.7728 7.06567 17.7728 7.90647H18.0728H18.3728C18.3728 7.01669 18.2551 6.24893 18.0084 5.61264L17.7286 5.7211ZM18.0728 7.90647H17.7728V8.51017H18.0728H18.3728V7.90647H18.0728ZM18.0728 8.51017V8.21017H10.925V8.51017V8.81017H18.0728V8.51017ZM10.925 8.51017H11.225V7.27863H10.925H10.625V8.51017H10.925ZM10.925 7.27863V7.57863H16.6239V7.27863V6.97863H10.925V7.27863ZM16.6239 7.27863H16.9239C16.9239 6.71453 16.8108 6.19992 16.5772 5.74181L16.31 5.87806L16.0427 6.01432C16.2277 6.37722 16.3239 6.79633 16.3239 7.27863H16.6239ZM16.31 5.87806L16.5783 5.7439C16.3487 5.28479 16.0173 4.9186 15.5869 4.65127L15.4286 4.90612L15.2703 5.16097C15.6045 5.36854 15.8607 5.65031 16.0416 6.01223L16.31 5.87806ZM15.4286 4.90612L15.5881 4.65202C15.155 4.3802 14.6511 4.24994 14.0884 4.24994V4.54994V4.84994C14.5559 4.84994 14.9455 4.95713 15.2691 5.16021L15.4286 4.90612ZM14.0884 4.54994V4.24994C13.469 4.24994 12.9174 4.40453 12.4467 4.7244L12.6154 4.97252L12.784 5.22065C13.1424 4.97707 13.5728 4.84994 14.0884 4.84994V4.54994ZM12.6154 4.97252L12.4473 4.72404C11.9935 5.03099 11.643 5.43304 11.3988 5.92598L11.6676 6.05917L11.9364 6.19237C12.1348 5.79184 12.4162 5.46945 12.7835 5.22101L12.6154 4.97252ZM11.6676 6.05917L11.3988 5.92598C11.1564 6.41518 11.0355 6.93983 11.0355 7.49596H11.3355H11.6355C11.6355 7.02984 11.7361 6.59663 11.9364 6.19236L11.6676 6.05917ZM11.3355 7.49596H11.0355V8.31698H11.3355H11.6355V7.49596H11.3355ZM11.3355 8.31698H11.0355C11.0355 9.05062 11.1619 9.69257 11.429 10.2312L11.6978 10.0979L11.9665 9.9646C11.7506 9.52923 11.6355 8.98392 11.6355 8.31698H11.3355ZM11.6978 10.0979L11.4303 10.2338C11.6999 10.764 12.0786 11.1769 12.5668 11.4618L12.718 11.2026L12.8692 10.9435C12.4881 10.7212 12.1867 10.3976 11.9652 9.96193L11.6978 10.0979ZM12.718 11.2026L12.5686 11.4628C13.0551 11.7421 13.6132 11.8769 14.2333 11.8769V11.5769V11.2769C13.7023 11.2769 13.2502 11.1622 12.8674 10.9425L12.718 11.2026ZM14.2333 11.5769V11.8769C14.6354 11.8769 15.0074 11.8207 15.3457 11.7034L15.2475 11.42L15.1492 11.1365C14.8839 11.2285 14.5797 11.2769 14.2333 11.2769V11.5769ZM15.2475 11.42L15.3479 11.7027C15.6917 11.5805 15.9927 11.3976 16.2465 11.153L16.0383 10.937L15.8301 10.721C15.6413 10.903 15.415 11.0421 15.147 11.1373L15.2475 11.42ZM16.0383 10.937L16.2485 11.1511C16.5043 10.8999 16.6979 10.5919 16.8323 10.2334L16.5514 10.1281L16.2705 10.0227C16.1635 10.3082 16.015 10.5395 15.8281 10.7229L16.0383 10.937ZM16.5514 10.1281L16.4704 10.4169L17.8468 10.8033L17.9279 10.5144L18.0089 10.2256L16.6325 9.83923L16.5514 10.1281ZM17.9279 10.5144L17.6413 10.4255C17.5105 10.8472 17.2914 11.2169 16.9816 11.5375L17.1974 11.746L17.4132 11.9544C17.7876 11.5667 18.0555 11.1154 18.2144 10.6033L17.9279 10.5144ZM17.1974 11.746L16.9828 11.5363C16.6734 11.853 16.2878 12.1044 15.8202 12.2877L15.9296 12.567L16.0391 12.8463C16.5776 12.6352 17.0372 12.3392 17.412 11.9556L17.1974 11.746ZM15.9296 12.567L15.8221 12.2869C15.3585 12.4649 14.8303 12.5568 14.2333 12.5568V12.8568V13.1568C14.8919 13.1568 15.4946 13.0554 16.0372 12.847L15.9296 12.567ZM20.24 12.6636H19.94V12.9636H20.24V12.6636ZM20.24 3.39085V3.09085H19.94V3.39085H20.24ZM21.6164 3.39085H21.9164V3.09085H21.6164V3.39085ZM21.6164 4.83971H21.3164V5.13971H21.6164V4.83971ZM21.7372 4.83971V5.13971H21.9421L22.0166 4.94877L21.7372 4.83971ZM22.6729 3.68666L22.8338 3.93986L22.8355 3.93878L22.6729 3.68666ZM25.7517 3.68666L25.5825 3.93438L25.5853 3.93627L25.7517 3.68666ZM26.7116 4.83971L26.4394 4.96585L26.52 5.13971H26.7116V4.83971ZM26.8082 4.83971V5.13971H26.9943L27.077 4.97297L26.8082 4.83971ZM27.8767 3.69873L28.0298 3.95675L28.0314 3.95579L27.8767 3.69873ZM31.6196 4.04887L31.4091 4.26263L31.41 4.26345L31.6196 4.04887ZM32.4105 12.6636V12.9636H32.7105V12.6636H32.4105ZM30.9858 12.6636H30.6858V12.9636H30.9858V12.6636ZM30.4243 4.99063L30.2391 5.22662V5.22662L30.4243 4.99063ZM27.587 5.14156L27.808 5.34438L27.809 5.34325L27.587 5.14156ZM27.0497 12.6636V12.9636H27.3497V12.6636H27.0497ZM25.6008 12.6636H25.3008V12.9636H25.6008V12.6636ZM25.0877 5.03893L24.8807 5.25611L24.8821 5.25739L25.0877 5.03893ZM22.7272 4.84575L22.5705 4.58992L22.5691 4.59081L22.7272 4.84575ZM21.9545 5.66677L21.6931 5.51955L21.6925 5.52056L21.9545 5.66677ZM21.6647 12.6636V12.9636H21.9647V12.6636H21.6647ZM20.24 12.6636H20.54V3.39085H20.24H19.94V12.6636H20.24ZM20.24 3.39085V3.69085H21.6164V3.39085V3.09085H20.24V3.39085ZM21.6164 3.39085H21.3164V4.83971H21.6164H21.9164V3.39085H21.6164ZM21.6164 4.83971V5.13971H21.7372V4.83971V4.53971H21.6164V4.83971ZM21.7372 4.83971L22.0166 4.94877C22.1877 4.51054 22.4593 4.17782 22.8338 3.93985L22.6729 3.68666L22.512 3.43346C22.0252 3.74284 21.673 4.17882 21.4577 4.73065L21.7372 4.83971ZM22.6729 3.68666L22.8355 3.93878C23.2096 3.69755 23.6679 3.57011 24.2244 3.57011V3.27011V2.97011C23.5735 2.97011 22.9975 3.12036 22.5103 3.43453L22.6729 3.68666ZM24.2244 3.27011V3.57011C24.7905 3.57011 25.2368 3.6982 25.5825 3.93437L25.7517 3.68666L25.921 3.43894C25.4537 3.11972 24.8818 2.97011 24.2244 2.97011V3.27011ZM25.7517 3.68666L25.5853 3.93627C25.9451 4.17613 26.2307 4.51546 26.4394 4.96585L26.7116 4.83971L26.9838 4.71357C26.7337 4.1739 26.3794 3.74453 25.9181 3.43704L25.7517 3.68666ZM26.7116 4.83971V5.13971H26.8082V4.83971V4.53971H26.7116V4.83971ZM26.8082 4.83971L27.077 4.97297C27.2878 4.5477 27.603 4.20995 28.0298 3.95675L27.8767 3.69873L27.7237 3.44071C27.2007 3.75095 26.8035 4.17386 26.5394 4.70645L26.8082 4.83971ZM27.8767 3.69873L28.0314 3.95579C28.4511 3.70325 28.9648 3.57011 29.5852 3.57011V3.27011V2.97011C28.8775 2.97011 28.2522 3.12271 27.7221 3.44168L27.8767 3.69873ZM29.5852 3.27011V3.57011C30.3458 3.57011 30.945 3.80558 31.4091 4.26263L31.6196 4.04887L31.8301 3.83511C31.2398 3.25382 30.4827 2.97011 29.5852 2.97011V3.27011ZM31.6196 4.04887L31.41 4.26345C31.8567 4.69991 32.1105 5.40908 32.1105 6.45761H32.4105H32.7105C32.7105 5.32479 32.437 4.42814 31.8293 3.8343L31.6196 4.04887ZM32.4105 6.45761H32.1105V12.6636H32.4105H32.7105V6.45761H32.4105ZM32.4105 12.6636V12.3636H30.9858V12.6636V12.9636H32.4105V12.6636ZM30.9858 12.6636H31.2858V6.45761H30.9858H30.6858V12.6636H30.9858ZM30.9858 6.45761H31.2858C31.2858 5.72349 31.084 5.12708 30.6096 4.75465L30.4243 4.99063L30.2391 5.22662C30.5132 5.44178 30.6858 5.82335 30.6858 6.45761H30.9858ZM30.4243 4.99063L30.6096 4.75465C30.1788 4.41655 29.6718 4.24994 29.1022 4.24994V4.54994V4.84994C29.5469 4.84994 29.9212 4.97712 30.2391 5.22662L30.4243 4.99063ZM29.1022 4.54994V4.24994C28.3861 4.24994 27.7924 4.46916 27.3649 4.93987L27.587 5.14156L27.809 5.34325C28.0979 5.02513 28.5144 4.84994 29.1022 4.84994V4.54994ZM27.587 5.14156L27.3659 4.93874C26.9502 5.39184 26.7497 5.96252 26.7497 6.62664H27.0497H27.3497C27.3497 6.09143 27.5074 5.67205 27.808 5.34438L27.587 5.14156ZM27.0497 6.62664H26.7497V12.6636H27.0497H27.3497V6.62664H27.0497ZM27.0497 12.6636V12.3636H25.6008V12.6636V12.9636H27.0497V12.6636ZM25.6008 12.6636H25.9008V6.31272H25.6008H25.3008V12.6636H25.6008ZM25.6008 6.31272H25.9008C25.9008 5.71393 25.7033 5.20635 25.2933 4.82047L25.0877 5.03893L24.8821 5.25739C25.1562 5.51545 25.3008 5.85706 25.3008 6.31272H25.6008ZM25.0877 5.03893L25.2946 4.82175C24.8888 4.43501 24.3702 4.24994 23.7656 4.24994V4.54994V4.84994C24.2396 4.84994 24.6024 4.99086 24.8807 5.25611L25.0877 5.03893ZM23.7656 4.54994V4.24994C23.3389 4.24994 22.9387 4.36443 22.5705 4.58992L22.7272 4.84575L22.8839 5.10157C23.1597 4.93265 23.4518 4.84994 23.7656 4.84994V4.54994ZM22.7272 4.84575L22.5691 4.59081C22.205 4.81661 21.9132 5.12873 21.6931 5.51955L21.9545 5.66677L22.2159 5.81399C22.3902 5.50452 22.6135 5.2693 22.8854 5.10069L22.7272 4.84575ZM21.9545 5.66677L21.6925 5.52056C21.4709 5.91759 21.3647 6.36978 21.3647 6.86812H21.6647H21.9647C21.9647 6.45689 22.0517 6.10818 22.2165 5.81298L21.9545 5.66677ZM21.6647 6.86812H21.3647V12.6636H21.6647H21.9647V6.86812H21.6647ZM21.6647 12.6636V12.3636H20.24V12.6636V12.9636H21.6647V12.6636ZM36.1443 12.5489L36.0166 12.8203L36.0184 12.8212L36.1443 12.5489ZM35.0033 11.5769L34.753 11.7422L34.7537 11.7433L35.0033 11.5769ZM34.8947 8.73957L35.148 8.90023L35.1489 8.89884L34.8947 8.73957ZM36.8929 7.53218L36.9571 7.82524L36.9591 7.82478L36.8929 7.53218ZM38.1788 7.30278L38.1405 7.00523L38.1398 7.00531L38.1788 7.30278ZM39.5491 7.13978L39.58 7.4382L39.583 7.43786L39.5491 7.13978ZM40.3219 6.94056L40.1751 6.6789L40.1723 6.68049L40.3219 6.94056ZM40.0804 5.02082L39.8657 5.23032L39.867 5.23165L40.0804 5.02082ZM37.0136 4.97252L37.1968 5.21013V5.21013L37.0136 4.97252ZM36.1986 5.92636L36.0977 6.20888L36.3555 6.30093L36.4707 6.05269L36.1986 5.92636ZM34.8464 5.4434L34.5706 5.32523L34.4449 5.61858L34.7455 5.72593L34.8464 5.4434ZM35.8123 4.12735L35.9968 4.3639L35.9971 4.36365L35.8123 4.12735ZM37.1404 3.46329L37.216 3.75361L37.2177 3.75316L37.1404 3.46329ZM39.5914 3.37877L39.5361 3.67365L39.5396 3.67427L39.5914 3.37877ZM40.7203 3.80739L40.566 4.06465L40.5672 4.06539L40.7203 3.80739ZM41.6319 4.79142L41.3691 4.93608V4.93608L41.6319 4.79142ZM41.9941 12.6636V12.9636H42.2941V12.6636H41.9941ZM40.5694 12.6636H40.2694V12.9636H40.5694V12.6636ZM40.5694 11.4079H40.8694V11.1079H40.5694V11.4079ZM40.4969 11.4079V11.1079H40.3082L40.2265 11.2781L40.4969 11.4079ZM40.014 12.0538L40.228 12.2641V12.2641L40.014 12.0538ZM39.1145 12.6394L38.9959 12.3638V12.3638L39.1145 12.6394ZM39.3861 11.269L39.2382 11.0081L39.237 11.0087L39.3861 11.269ZM40.2675 10.4118L40.0074 10.2623L40.0061 10.2646L40.2675 10.4118ZM40.5694 8.00306H40.8694V7.17444L40.3389 7.81101L40.5694 8.00306ZM40.1709 8.20228L40.2518 8.4912L40.2556 8.49009L40.1709 8.20228ZM39.4707 8.3532L39.5163 8.64974L39.52 8.64912L39.4707 8.3532ZM38.704 8.46187L38.7382 8.75994L38.7424 8.7594L38.704 8.46187ZM38.1063 8.53431L38.1451 8.83179L38.1454 8.83175L38.1063 8.53431ZM37.068 8.76975L37.1617 9.05472L37.1639 9.054L37.068 8.76975ZM36.2952 9.24667L36.075 9.04301L36.0748 9.04319L36.2952 9.24667ZM36.5548 11.2268L36.384 11.4735L36.3872 11.4756L36.5548 11.2268ZM37.7441 12.8809V12.5809C37.195 12.5809 36.7054 12.4777 36.2702 12.2766L36.1443 12.5489L36.0184 12.8212C36.5411 13.0628 37.118 13.1809 37.7441 13.1809V12.8809ZM36.1443 12.5489L36.272 12.2774C35.8404 12.0743 35.5031 11.7857 35.2529 11.4105L35.0033 11.5769L34.7537 11.7433C35.0671 12.2133 35.4904 12.5727 36.0166 12.8203L36.1443 12.5489ZM35.0033 11.5769L35.2537 11.4116C35.0098 11.0424 34.8807 10.5872 34.8807 10.0315H34.5807H34.2807C34.2807 10.6831 34.4334 11.2583 34.753 11.7422L35.0033 11.5769ZM34.5807 10.0315H34.8807C34.8807 9.53731 34.9783 9.16784 35.148 8.90023L34.8947 8.73957L34.6413 8.57891C34.3925 8.97133 34.2807 9.46313 34.2807 10.0315H34.5807ZM34.8947 8.73957L35.1489 8.89884C35.3304 8.60919 35.5714 8.38347 35.8764 8.21871L35.7338 7.95477L35.5912 7.69082C35.1959 7.90438 34.8775 8.20185 34.6404 8.58029L34.8947 8.73957ZM35.7338 7.95477L35.8764 8.21871C36.1998 8.04397 36.5595 7.91232 36.9571 7.82523L36.8929 7.53218L36.8287 7.23913C36.3811 7.33717 35.968 7.48725 35.5912 7.69082L35.7338 7.95477ZM36.8929 7.53218L36.9591 7.82478C37.3768 7.73022 37.7963 7.65538 38.2177 7.60024L38.1788 7.30278L38.1398 7.00531C37.7 7.06287 37.2622 7.14097 36.8266 7.23959L36.8929 7.53218ZM38.1788 7.30278L38.217 7.60033C38.7793 7.52804 39.2334 7.47405 39.58 7.43819L39.5491 7.13978L39.5183 6.84137C39.1646 6.87796 38.7051 6.93263 38.1405 7.00523L38.1788 7.30278ZM39.5491 7.13978L39.583 7.43786C39.9473 7.39646 40.2554 7.32482 40.4714 7.20063L40.3219 6.94056L40.1723 6.68049C40.0663 6.74144 39.8593 6.80261 39.5153 6.8417L39.5491 7.13978ZM40.3219 6.94056L40.4686 7.20221C40.7499 7.04443 40.8694 6.76824 40.8694 6.45761H40.5694H40.2694C40.2694 6.60579 40.2239 6.65156 40.1751 6.67892L40.3219 6.94056ZM40.5694 6.45761H40.8694V6.40931H40.5694H40.2694V6.45761H40.5694ZM40.5694 6.40931H40.8694C40.8694 5.75816 40.6898 5.21088 40.2938 4.80999L40.0804 5.02082L39.867 5.23165C40.123 5.4908 40.2694 5.86917 40.2694 6.40931H40.5694ZM40.0804 5.02082L40.2951 4.81132C39.8964 4.40263 39.3157 4.22579 38.6134 4.22579V4.52579V4.82579C39.2232 4.82579 39.6204 4.97897 39.8657 5.23032L40.0804 5.02082ZM38.6134 4.52579V4.22579C37.8926 4.22579 37.2865 4.38338 36.8305 4.73492L37.0136 4.97252L37.1968 5.21013C37.5135 4.96602 37.9739 4.82579 38.6134 4.82579V4.52579ZM37.0136 4.97252L36.8305 4.73492C36.4173 5.05339 36.1091 5.40688 35.9265 5.80002L36.1986 5.92636L36.4707 6.05269C36.6021 5.7697 36.8372 5.4873 37.1968 5.21013L37.0136 4.97252ZM36.1986 5.92636L36.2995 5.64384L34.9473 5.16088L34.8464 5.4434L34.7455 5.72593L36.0977 6.20888L36.1986 5.92636ZM34.8464 5.4434L35.1221 5.56158C35.3476 5.03533 35.6415 4.641 35.9968 4.3639L35.8123 4.12735L35.6278 3.8908C35.1781 4.24154 34.828 4.72458 34.5706 5.32523L34.8464 5.4434ZM35.8123 4.12735L35.9971 4.36365C36.3727 4.06989 36.7785 3.86758 37.216 3.7536L37.1404 3.46329L37.0648 3.17298C36.5444 3.30853 36.0648 3.54893 35.6274 3.89105L35.8123 4.12735ZM37.1404 3.46329L37.2177 3.75316C37.6772 3.63062 38.1261 3.57011 38.5651 3.57011V3.27011V2.97011C38.0704 2.97011 37.5695 3.03838 37.0631 3.17342L37.1404 3.46329ZM38.5651 3.27011V3.57011C38.8396 3.57011 39.1626 3.6036 39.5361 3.67363L39.5914 3.37877L39.6467 3.08391C39.2475 3.00906 38.8863 2.97011 38.5651 2.97011V3.27011ZM39.5914 3.37877L39.5396 3.67427C39.8914 3.73593 40.2332 3.86499 40.566 4.06464L40.7203 3.80739L40.8747 3.55015C40.483 3.31514 40.0721 3.15845 39.6432 3.08328L39.5914 3.37877ZM40.7203 3.80739L40.5672 4.06539C40.8799 4.25094 41.1488 4.53597 41.3691 4.93608L41.6319 4.79142L41.8947 4.64675C41.632 4.1695 41.2932 3.79851 40.8734 3.5494L40.7203 3.80739ZM41.6319 4.79142L41.3691 4.93608C41.5773 5.31444 41.6941 5.84615 41.6941 6.5542H41.9941H42.2941C42.2941 5.78923 42.1694 5.14576 41.8947 4.64675L41.6319 4.79142ZM41.9941 6.5542H41.6941V12.6636H41.9941H42.2941V6.5542H41.9941ZM41.9941 12.6636V12.3636H40.5694V12.6636V12.9636H41.9941V12.6636ZM40.5694 12.6636H40.8694V11.4079H40.5694H40.2694V12.6636H40.5694ZM40.5694 11.4079V11.1079H40.4969V11.4079V11.7079H40.5694V11.4079ZM40.4969 11.4079L40.2265 11.2781C40.1489 11.4396 40.0115 11.6283 39.8 11.8436L40.014 12.0538L40.228 12.2641C40.4672 12.0206 40.6517 11.7786 40.7674 11.5377L40.4969 11.4079ZM40.014 12.0538L39.8 11.8436C39.6081 12.0389 39.3437 12.2143 38.9959 12.3638L39.1145 12.6394L39.233 12.915C39.6339 12.7426 39.9691 12.5276 40.228 12.2641L40.014 12.0538ZM39.1145 12.6394L38.9959 12.3638C38.6691 12.5044 38.2552 12.5809 37.7441 12.5809V12.8809V13.1809C38.3116 13.1809 38.8113 13.0964 39.233 12.915L39.1145 12.6394ZM37.9614 11.6011V11.9011C38.5635 11.9011 39.093 11.7827 39.5353 11.5293L39.3861 11.269L39.237 11.0087C38.9066 11.198 38.4862 11.3011 37.9614 11.3011V11.6011ZM39.3861 11.269L39.5341 11.53C39.9663 11.285 40.3019 10.9621 40.5289 10.559L40.2675 10.4118L40.0061 10.2646C39.8387 10.5618 39.5868 10.8104 39.2382 11.0081L39.3861 11.269ZM40.2675 10.4118L40.5276 10.5613C40.7538 10.1678 40.8694 9.74828 40.8694 9.30704H40.5694H40.2694C40.2694 9.63853 40.1838 9.95551 40.0074 10.2623L40.2675 10.4118ZM40.5694 9.30704H40.8694V8.00306H40.5694H40.2694V9.30704H40.5694ZM40.5694 8.00306L40.3389 7.81101C40.3461 7.80243 40.3387 7.8147 40.2903 7.83887C40.2451 7.8615 40.1786 7.88731 40.0863 7.91447L40.1709 8.20228L40.2556 8.49009C40.3685 8.45688 40.4711 8.41931 40.5587 8.37553C40.6431 8.33329 40.7323 8.27614 40.7998 8.19512L40.5694 8.00306ZM40.1709 8.20228L40.0901 7.91339C39.9017 7.96614 39.6792 8.01431 39.4213 8.05729L39.4707 8.3532L39.52 8.64912C39.7934 8.60355 40.0378 8.55111 40.2518 8.49117L40.1709 8.20228ZM39.4707 8.3532L39.425 8.05669C39.1657 8.09659 38.9126 8.13247 38.6656 8.16434L38.704 8.46187L38.7424 8.7594C38.9944 8.72688 39.2524 8.69031 39.5163 8.64972L39.4707 8.3532ZM38.704 8.46187L38.6698 8.16383C38.4235 8.19209 38.2224 8.21645 38.0672 8.23688L38.1063 8.53431L38.1454 8.83175C38.2961 8.81193 38.4935 8.78799 38.7382 8.75991L38.704 8.46187ZM38.1063 8.53431L38.0675 8.23683C37.6797 8.28742 37.3143 8.36999 36.972 8.48551L37.068 8.76975L37.1639 9.054C37.4656 8.95218 37.7924 8.8778 38.1451 8.83179L38.1063 8.53431ZM37.068 8.76975L36.9742 8.48479C36.6153 8.60291 36.3117 8.78695 36.075 9.04301L36.2952 9.24667L36.5155 9.45033C36.6732 9.27978 36.8847 9.14588 37.1617 9.05472L37.068 8.76975ZM36.2952 9.24667L36.0748 9.04319C35.8177 9.32175 35.7055 9.68755 35.7055 10.1039H36.0055H36.3055C36.3055 9.79585 36.3864 9.59015 36.5157 9.45016L36.2952 9.24667ZM36.0055 10.1039H35.7055C35.7055 10.6846 35.9269 11.1569 36.3841 11.4734L36.5548 11.2268L36.7256 10.9801C36.4503 10.7895 36.3055 10.5133 36.3055 10.1039H36.0055ZM36.5548 11.2268L36.3872 11.4756C36.8188 11.7665 37.3504 11.9011 37.9614 11.9011V11.6011V11.3011C37.4375 11.3011 37.0313 11.1861 36.7225 10.978L36.5548 11.2268ZM50.9514 12.2651L50.7935 12.5203L50.7954 12.5214L50.9514 12.2651ZM49.4603 10.5989L49.1901 10.7295L49.191 10.7313L49.4603 10.5989ZM49.4603 5.58829L49.1899 5.45832L49.1896 5.45896L49.4603 5.58829ZM50.9212 3.88587L51.085 4.13722L51.0854 4.13697L50.9212 3.88587ZM54.5494 3.51159L54.6465 3.22772V3.22772L54.5494 3.51159ZM55.8353 4.29639L55.6301 4.51525L55.6313 4.51639L55.8353 4.29639ZM56.7589 5.7211L57.0386 5.61264V5.61264L56.7589 5.7211ZM57.103 8.51017V8.81017H57.403V8.51017H57.103ZM49.9553 8.51017H49.6553V8.81017H49.9553V8.51017ZM49.9553 7.27863V6.97863H49.6553V7.27863H49.9553ZM55.6542 7.27863V7.57863H55.9542V7.27863H55.6542ZM55.3402 5.87806L55.0719 6.01223L55.073 6.01432L55.3402 5.87806ZM54.4589 4.90612L54.2994 5.16022L54.3006 5.16097L54.4589 4.90612ZM51.6456 4.97252L51.8137 5.22101L51.8143 5.22065L51.6456 4.97252ZM50.6978 6.05917L50.429 5.92598V5.92598L50.6978 6.05917ZM50.728 10.0979L50.4592 10.2312L50.4606 10.2338L50.728 10.0979ZM51.7483 11.2026L51.5971 11.4618L51.5989 11.4628L51.7483 11.2026ZM54.2777 11.42L54.376 11.7034L54.3782 11.7027L54.2777 11.42ZM55.0686 10.937L55.2768 11.153L55.2788 11.1511L55.0686 10.937ZM55.5817 10.1281L55.6628 9.83923L55.3976 9.76477L55.3008 10.0227L55.5817 10.1281ZM56.9581 10.5144L57.2447 10.6033L57.336 10.3089L57.0392 10.2256L56.9581 10.5144ZM56.2277 11.746L56.4423 11.9556L56.4435 11.9544L56.2277 11.746ZM54.9599 12.567L55.0675 12.8471L55.0694 12.8463L54.9599 12.567ZM53.2635 12.8568V12.5568C52.4152 12.5568 51.7006 12.3699 51.1074 12.0089L50.9514 12.2651L50.7954 12.5214C51.4982 12.9492 52.325 13.1568 53.2635 13.1568V12.8568ZM50.9514 12.2651L51.1092 12.01C50.5156 11.6427 50.056 11.1309 49.7295 10.4666L49.4603 10.5989L49.191 10.7313C49.5648 11.4917 50.0993 12.0907 50.7935 12.5203L50.9514 12.2651ZM49.4603 10.5989L49.7304 10.4684C49.4074 9.79989 49.2411 9.01293 49.2411 8.09965H48.9411H48.6411C48.6411 9.086 48.8209 9.96523 49.1901 10.7295L49.4603 10.5989ZM48.9411 8.09965H49.2411C49.2411 7.18648 49.4074 6.39493 49.731 5.71762L49.4603 5.58829L49.1896 5.45896C48.8209 6.23051 48.6411 7.1132 48.6411 8.09965H48.9411ZM49.4603 5.58829L49.7307 5.71826C50.0591 5.03487 50.511 4.51121 51.085 4.13722L50.9212 3.88587L50.7574 3.63453C50.0837 4.07351 49.5617 4.6848 49.1899 5.45832L49.4603 5.58829ZM50.9212 3.88587L51.0854 4.13697C51.6589 3.76199 52.3328 3.57011 53.1187 3.57011V3.27011V2.97011C52.2302 2.97011 51.4392 3.18873 50.757 3.63478L50.9212 3.88587ZM53.1187 3.27011V3.57011C53.5676 3.57011 54.0118 3.64482 54.4524 3.79545L54.5494 3.51159L54.6465 3.22772C54.1453 3.05638 53.6356 2.97011 53.1187 2.97011V3.27011ZM54.5494 3.51159L54.4524 3.79545C54.8804 3.94181 55.2727 4.18022 55.6301 4.51525L55.8353 4.29639L56.0405 4.07753C55.6251 3.68812 55.1601 3.40333 54.6465 3.22772L54.5494 3.51159ZM55.8353 4.29639L55.6313 4.51639C55.9782 4.83794 56.263 5.27183 56.4792 5.82956L56.7589 5.7211L57.0386 5.61264C56.7961 4.98714 56.4651 4.47122 56.0392 4.07639L55.8353 4.29639ZM56.7589 5.7211L56.4792 5.82956C56.6913 6.37652 56.803 7.06567 56.803 7.90647H57.103H57.403C57.403 7.01669 57.2854 6.24893 57.0386 5.61264L56.7589 5.7211ZM57.103 7.90647H56.803V8.51017H57.103H57.403V7.90647H57.103ZM57.103 8.51017V8.21017H49.9553V8.51017V8.81017H57.103V8.51017ZM49.9553 8.51017H50.2553V7.27863H49.9553H49.6553V8.51017H49.9553ZM49.9553 7.27863V7.57863H55.6542V7.27863V6.97863H49.9553V7.27863ZM55.6542 7.27863H55.9542C55.9542 6.71453 55.8411 6.19992 55.6075 5.74181L55.3402 5.87806L55.073 6.01432C55.258 6.37722 55.3542 6.79633 55.3542 7.27863H55.6542ZM55.3402 5.87806L55.6086 5.7439C55.379 5.28479 55.0476 4.9186 54.6171 4.65127L54.4589 4.90612L54.3006 5.16097C54.6348 5.36854 54.891 5.65031 55.0719 6.01223L55.3402 5.87806ZM54.4589 4.90612L54.6183 4.65202C54.1853 4.3802 53.6814 4.24994 53.1187 4.24994V4.54994V4.84994C53.5862 4.84994 53.9758 4.95713 54.2994 5.16021L54.4589 4.90612ZM53.1187 4.54994V4.24994C52.4993 4.24994 51.9477 4.40453 51.477 4.7244L51.6456 4.97252L51.8143 5.22065C52.1727 4.97707 52.6031 4.84994 53.1187 4.84994V4.54994ZM51.6456 4.97252L51.4775 4.72404C51.0238 5.03099 50.6733 5.43304 50.429 5.92598L50.6978 6.05917L50.9667 6.19237C51.1651 5.79184 51.4465 5.46945 51.8137 5.22101L51.6456 4.97252ZM50.6978 6.05917L50.429 5.92598C50.1866 6.41518 50.0658 6.93983 50.0658 7.49596H50.3658H50.6658C50.6658 7.02984 50.7663 6.59663 50.9667 6.19236L50.6978 6.05917ZM50.3658 7.49596H50.0658V8.31698H50.3658H50.6658V7.49596H50.3658ZM50.3658 8.31698H50.0658C50.0658 9.05062 50.1922 9.69257 50.4593 10.2312L50.728 10.0979L50.9968 9.9646C50.7809 9.52923 50.6658 8.98392 50.6658 8.31698H50.3658ZM50.728 10.0979L50.4606 10.2338C50.7301 10.764 51.1088 11.1769 51.5971 11.4618L51.7483 11.2026L51.8994 10.9435C51.5184 10.7212 51.2169 10.3976 50.9955 9.96193L50.728 10.0979ZM51.7483 11.2026L51.5989 11.4628C52.0854 11.7421 52.6435 11.8769 53.2635 11.8769V11.5769V11.2769C52.7325 11.2769 52.2805 11.1622 51.8976 10.9425L51.7483 11.2026ZM53.2635 11.5769V11.8769C53.6657 11.8769 54.0377 11.8207 54.376 11.7034L54.2777 11.42L54.1795 11.1365C53.9141 11.2285 53.61 11.2769 53.2635 11.2769V11.5769ZM54.2777 11.42L54.3782 11.7027C54.722 11.5805 55.0229 11.3976 55.2767 11.153L55.0686 10.937L54.8604 10.721C54.6715 10.903 54.4452 11.0421 54.1773 11.1373L54.2777 11.42ZM55.0686 10.937L55.2788 11.1511C55.5346 10.8999 55.7282 10.5919 55.8626 10.2334L55.5817 10.1281L55.3008 10.0227C55.1938 10.3082 55.0453 10.5395 54.8584 10.7229L55.0686 10.937ZM55.5817 10.1281L55.5006 10.4169L56.8771 10.8033L56.9581 10.5144L57.0392 10.2256L55.6628 9.83923L55.5817 10.1281ZM56.9581 10.5144L56.6716 10.4255C56.5407 10.8472 56.3216 11.2169 56.0119 11.5375L56.2277 11.746L56.4435 11.9544C56.8179 11.5667 57.0858 11.1154 57.2447 10.6033L56.9581 10.5144ZM56.2277 11.746L56.0131 11.5363C55.7037 11.853 55.3181 12.1044 54.8504 12.2877L54.9599 12.567L55.0694 12.8463C55.6079 12.6352 56.0675 12.3392 56.4423 11.9556L56.2277 11.746ZM54.9599 12.567L54.8524 12.2869C54.3888 12.4649 53.8606 12.5568 53.2635 12.5568V12.8568V13.1568C53.9222 13.1568 54.5249 13.0554 55.0675 12.847L54.9599 12.567ZM65.8385 5.46755L65.9202 5.75621L66.223 5.67052L66.1229 5.37216L65.8385 5.46755ZM64.5586 5.82977L64.278 5.93568L64.3752 6.19346L64.6403 6.11843L64.5586 5.82977ZM64.2025 5.20796L63.9618 5.38725L63.9659 5.39247L64.2025 5.20796ZM63.5746 4.70086L63.7088 4.43253V4.43253L63.5746 4.70086ZM61.1357 4.89404L61.3058 5.14118L61.3063 5.14079L61.1357 4.89404ZM60.9606 6.7172L60.7737 6.95181V6.95181L60.9606 6.7172ZM62.168 7.23034L62.0953 7.52138L62.0965 7.52168L62.168 7.23034ZM63.5444 7.5684L63.4729 7.85975L63.4737 7.85994L63.5444 7.5684ZM65.3978 8.49205L65.1836 8.7021L65.1846 8.70314L65.3978 8.49205ZM65.5487 11.5045L65.3065 11.3275L65.3054 11.329L65.5487 11.5045ZM60.037 12.241L60.2026 11.9909V11.9909L60.037 12.241ZM58.8598 10.442L58.787 10.1509L58.507 10.2209L58.5661 10.5034L58.8598 10.442ZM60.212 10.1039L60.5025 10.029L60.4281 9.74066L60.1393 9.81287L60.212 10.1039ZM60.9425 11.2268L60.771 11.4729L60.7723 11.4738L60.9425 11.2268ZM63.9429 11.1785L64.1184 11.4218L64.1189 11.4214L63.9429 11.1785ZM64.1964 9.34326L63.9862 9.55731L63.9882 9.55922L64.1964 9.34326ZM63.1581 8.84823L63.0896 9.14032L63.0901 9.14042L63.1581 8.84823ZM61.6126 8.48602L61.5434 8.77793L61.5442 8.7781L61.6126 8.48602ZM59.7412 7.55029L59.5209 7.75396L59.5229 7.7561L59.7412 7.55029ZM59.5902 4.56201L59.3491 4.38356L59.3479 4.38513L59.5902 4.56201ZM60.8037 3.61421L60.6816 3.34016L60.6808 3.34052L60.8037 3.61421ZM64.7156 3.8738L64.5327 4.11159L64.5336 4.11226L64.7156 3.8738ZM65.8385 5.46755L65.7568 5.17889L64.4769 5.54111L64.5586 5.82977L64.6403 6.11843L65.9202 5.75621L65.8385 5.46755ZM64.5586 5.82977L64.8393 5.72385C64.747 5.47913 64.6124 5.2457 64.439 5.02345L64.2025 5.20796L63.9659 5.39247C64.1065 5.57269 64.2093 5.7538 64.278 5.93568L64.5586 5.82977ZM64.2025 5.20796L64.443 5.02872C64.2579 4.78026 64.0096 4.58295 63.7088 4.43253L63.5746 4.70086L63.4405 4.96919C63.6709 5.08439 63.8411 5.22515 63.9619 5.38721L64.2025 5.20796ZM63.5746 4.70086L63.7088 4.43253C63.3884 4.27232 62.9981 4.20164 62.5544 4.20164V4.50164V4.80164C62.9397 4.80164 63.2296 4.86378 63.4405 4.96919L63.5746 4.70086ZM62.5544 4.50164V4.20164C61.9403 4.20164 61.4042 4.34364 60.9651 4.64729L61.1357 4.89404L61.3063 5.14079C61.6238 4.92124 62.0335 4.80164 62.5544 4.80164V4.50164ZM61.1357 4.89404L60.9656 4.64691C60.5232 4.95134 60.2743 5.36583 60.2743 5.87806H60.5743H60.8743C60.8743 5.59342 60.9996 5.35189 61.3058 5.14118L61.1357 4.89404ZM60.5743 5.87806H60.2743C60.2743 6.31566 60.4387 6.68489 60.7737 6.95181L60.9606 6.7172L61.1476 6.48258C60.9674 6.33899 60.8743 6.1488 60.8743 5.87806H60.5743ZM60.9606 6.7172L60.7737 6.95181C61.0807 7.19647 61.5318 7.38053 62.0953 7.52138L62.168 7.23034L62.2408 6.93929C61.7095 6.80647 61.3557 6.64844 61.1476 6.48258L60.9606 6.7172ZM62.168 7.23034L62.0965 7.52168L63.4729 7.85975L63.5444 7.5684L63.616 7.27706L62.2396 6.93899L62.168 7.23034ZM63.5444 7.5684L63.4737 7.85994C64.2723 8.05378 64.8307 8.34219 65.1836 8.7021L65.3978 8.49205L65.612 8.28201C65.1519 7.81285 64.4747 7.48549 63.6152 7.27687L63.5444 7.5684ZM65.3978 8.49205L65.1846 8.70314C65.5285 9.05044 65.7075 9.50037 65.7075 10.0798H66.0075H66.3075C66.3075 9.36324 66.08 8.75469 65.6109 8.28097L65.3978 8.49205ZM66.0075 10.0798H65.7075C65.7075 10.5491 65.5738 10.9616 65.3065 11.3275L65.5487 11.5045L65.7909 11.6815C66.1353 11.2102 66.3075 10.673 66.3075 10.0798H66.0075ZM65.5487 11.5045L65.3054 11.329C65.039 11.6983 64.6614 11.9972 64.1591 12.2204L64.2809 12.4945L64.4028 12.7687C64.9871 12.509 65.4547 12.1478 65.792 11.68L65.5487 11.5045ZM64.2809 12.4945L64.1591 12.2204C63.6614 12.4416 63.0725 12.5568 62.3853 12.5568V12.8568V13.1568C63.139 13.1568 63.8139 13.0304 64.4028 12.7687L64.2809 12.4945ZM62.3853 12.8568V12.5568C61.4825 12.5568 60.7615 12.361 60.2026 11.9909L60.037 12.241L59.8713 12.4911C60.552 12.942 61.3966 13.1568 62.3853 13.1568V12.8568ZM60.037 12.241L60.2026 11.9909C59.6545 11.6278 59.3038 11.0992 59.1534 10.3806L58.8598 10.442L58.5661 10.5034C58.7458 11.3624 59.1798 12.0331 59.8713 12.4911L60.037 12.241ZM58.8598 10.442L58.9325 10.733L60.2848 10.395L60.212 10.1039L60.1393 9.81287L58.787 10.1509L58.8598 10.442ZM60.212 10.1039L59.9216 10.1789C60.0649 10.7342 60.3437 11.1752 60.771 11.4729L60.9425 11.2268L61.114 10.9806C60.825 10.7793 60.6168 10.4717 60.5025 10.029L60.212 10.1039ZM60.9425 11.2268L60.7723 11.4738C61.1986 11.7675 61.7364 11.9011 62.3612 11.9011V11.6011V11.3011C61.8188 11.3011 61.4109 11.1851 61.1127 10.9797L60.9425 11.2268ZM62.3612 11.6011V11.9011C63.0649 11.9011 63.6608 11.752 64.1184 11.4218L63.9429 11.1785L63.7673 10.9352C63.4442 11.1684 62.9856 11.3011 62.3612 11.3011V11.6011ZM63.9429 11.1785L64.1189 11.4214C64.5717 11.0934 64.8345 10.6686 64.8345 10.1522H64.5345H64.2345C64.2345 10.4327 64.1029 10.6921 63.7669 10.9355L63.9429 11.1785ZM64.5345 10.1522H64.8345C64.8345 9.75138 64.6905 9.40296 64.4047 9.12731L64.1964 9.34326L63.9882 9.55922C64.1531 9.71822 64.2345 9.9091 64.2345 10.1522H64.5345ZM64.1964 9.34326L64.4066 9.12923C64.1266 8.8542 63.7209 8.67122 63.2261 8.55604L63.1581 8.84823L63.0901 9.14042C63.529 9.24258 63.8155 9.38962 63.9862 9.5573L64.1964 9.34326ZM63.1581 8.84823L63.2265 8.55615L61.6811 8.19393L61.6126 8.48602L61.5442 8.7781L63.0896 9.14032L63.1581 8.84823ZM61.6126 8.48602L61.6818 8.1941C60.8628 8.00003 60.3022 7.708 59.9594 7.34449L59.7412 7.55029L59.5229 7.7561C59.977 8.23775 60.664 8.56955 61.5434 8.77793L61.6126 8.48602ZM59.7412 7.55029L59.9614 7.34664C59.6237 6.98128 59.4495 6.52323 59.4495 5.95051H59.1495H58.8495C58.8495 6.65761 59.0698 7.26609 59.5209 7.75395L59.7412 7.55029ZM59.1495 5.95051H59.4495C59.4495 5.4875 59.5782 5.08733 59.8326 4.7389L59.5902 4.56201L59.3479 4.38513C59.0147 4.84162 58.8495 5.36711 58.8495 5.95051H59.1495ZM59.5902 4.56201L59.8314 4.74047C60.0951 4.38412 60.4566 4.0988 60.9265 3.88791L60.8037 3.61421L60.6808 3.34052C60.1284 3.58844 59.681 3.93498 59.3491 4.38356L59.5902 4.56201ZM60.8037 3.61421L60.9257 3.88827C61.3969 3.67844 61.9379 3.57011 62.5544 3.57011V3.27011V2.97011C61.8669 2.97011 61.2407 3.09118 60.6816 3.34016L60.8037 3.61421ZM62.5544 3.27011V3.57011C63.4312 3.57011 64.079 3.76258 64.5327 4.11159L64.7156 3.8738L64.8985 3.63601C64.3058 3.1801 63.5128 2.97011 62.5544 2.97011V3.27011ZM64.7156 3.8738L64.5336 4.11226C65.0107 4.47648 65.3508 4.95678 65.554 5.56294L65.8385 5.46755L66.1229 5.37216C65.8835 4.65825 65.475 4.07605 64.8976 3.63534L64.7156 3.8738ZM69.6734 12.241L69.5093 12.4921V12.4921L69.6734 12.241ZM68.2366 5.58225L67.9665 5.4517L67.9662 5.45234L68.2366 5.58225ZM69.6976 3.88587L69.8614 4.13722L69.8617 4.13697L69.6976 3.88587ZM74.9437 4.64653L75.1815 4.46372V4.46372L74.9437 4.64653ZM75.5655 6.16784V6.46784H75.91L75.8626 6.12656L75.5655 6.16784ZM74.1408 6.16784L73.8502 6.24255L73.9081 6.46784H74.1408V6.16784ZM73.4163 5.04497L73.2167 5.26893L73.2193 5.27119L73.4163 5.04497ZM70.4582 4.9846L70.6285 5.2316L70.629 5.23125L70.4582 4.9846ZM69.4863 6.19802L69.2123 6.07579L69.2119 6.07677L69.4863 6.19802ZM69.4802 9.89866L69.2041 10.0158L69.2048 10.0176L69.4802 9.89866ZM70.4462 11.1362L70.2727 11.381L70.2738 11.3818L70.4462 11.1362ZM72.9273 11.3837L72.8096 11.1078V11.1078L72.9273 11.3837ZM73.694 10.8283L73.9207 11.0248V11.0248L73.694 10.8283ZM74.1408 9.95903V9.65903H73.9092L73.8505 9.88302L74.1408 9.95903ZM75.5655 9.95903L75.8623 10.0027L75.9128 9.65903H75.5655V9.95903ZM74.9678 11.4381L74.7249 11.262L74.7246 11.2624L74.9678 11.4381ZM73.7182 12.4764L73.8507 12.7456L73.8515 12.7452L73.7182 12.4764ZM71.9192 12.8568V12.5568C71.0987 12.5568 70.4093 12.3637 69.8376 11.9899L69.6734 12.241L69.5093 12.4921C70.1933 12.9393 71.001 13.1568 71.9192 13.1568V12.8568ZM69.6734 12.241L69.8376 11.9899C69.2592 11.6117 68.8121 11.0904 68.4961 10.4172L68.2246 10.5446L67.953 10.6721C68.3132 11.4396 68.832 12.0492 69.5093 12.4921L69.6734 12.241ZM68.2246 10.5446L68.4961 10.4172C68.1796 9.74264 68.0175 8.96427 68.0175 8.07551H67.7175H67.4175C67.4175 9.03807 67.5934 9.90577 67.953 10.6721L68.2246 10.5446ZM67.7175 8.07551H68.0175C68.0175 7.17076 68.1836 6.38543 68.507 5.71217L68.2366 5.58225L67.9662 5.45234C67.5975 6.21989 67.4175 7.09673 67.4175 8.07551H67.7175ZM68.2366 5.58225L68.5067 5.7128C68.8351 5.03346 69.287 4.51148 69.8614 4.13722L69.6976 3.88587L69.5338 3.63453C68.8605 4.07324 68.3385 4.68219 67.9665 5.4517L68.2366 5.58225ZM69.6976 3.88587L69.8617 4.13697C70.4352 3.76199 71.1092 3.57011 71.895 3.57011V3.27011V2.97011C71.0066 2.97011 70.2156 3.18873 69.5334 3.63478L69.6976 3.88587ZM71.895 3.27011V3.57011C72.5093 3.57011 73.0532 3.68368 73.5321 3.90471L73.6578 3.63232L73.7835 3.35994C73.216 3.09801 72.5847 2.97011 71.895 2.97011V3.27011ZM73.6578 3.63232L73.5321 3.90471C74.0135 4.12692 74.4029 4.43515 74.7058 4.82934L74.9437 4.64653L75.1815 4.46372C74.8164 3.98858 74.3485 3.62068 73.7835 3.35994L73.6578 3.63232ZM74.9437 4.64653L74.7058 4.82933C75.006 5.21997 75.1945 5.67749 75.2683 6.20911L75.5655 6.16784L75.8626 6.12656C75.7755 5.49909 75.5494 4.9424 75.1815 4.46372L74.9437 4.64653ZM75.5655 6.16784V5.86784H74.1408V6.16784V6.46784H75.5655V6.16784ZM74.1408 6.16784L74.4313 6.09312C74.3055 5.60389 74.0269 5.17894 73.6134 4.81874L73.4163 5.04497L73.2193 5.27119C73.5543 5.56298 73.7587 5.88662 73.8502 6.24255L74.1408 6.16784ZM73.4163 5.04497L73.6159 4.82101C73.1773 4.43004 72.6004 4.24994 71.9192 4.24994V4.54994V4.84994C72.4936 4.84994 72.9148 4.99985 73.2167 5.26892L73.4163 5.04497ZM71.9192 4.54994V4.24994C71.3086 4.24994 70.7608 4.41026 70.2875 4.73794L70.4582 4.9846L70.629 5.23125C70.9928 4.97939 71.419 4.84994 71.9192 4.84994V4.54994ZM70.4582 4.9846L70.288 4.73759C69.8221 5.05875 69.465 5.50936 69.2123 6.07579L69.4863 6.19802L69.7603 6.32025C69.9744 5.84028 70.2653 5.48194 70.6285 5.2316L70.4582 4.9846ZM69.4863 6.19802L69.2119 6.07677C68.9621 6.64197 68.8422 7.29467 68.8422 8.02721H69.1422H69.4422C69.4422 7.35918 69.5516 6.79242 69.7607 6.31927L69.4863 6.19802ZM69.1422 8.02721H68.8422C68.8422 8.77443 68.9597 9.43973 69.2041 10.0158L69.4802 9.89866L69.7564 9.78149C69.5501 9.29509 69.4422 8.71275 69.4422 8.02721H69.1422ZM69.4802 9.89866L69.2048 10.0176C69.4529 10.5922 69.8073 11.0512 70.2727 11.381L70.4462 11.1362L70.6196 10.8915C70.2559 10.6337 69.9664 10.2676 69.7557 9.77973L69.4802 9.89866ZM70.4462 11.1362L70.2738 11.3818C70.748 11.7146 71.3006 11.8769 71.9192 11.8769V11.5769V11.2769C71.4108 11.2769 70.9815 11.1454 70.6185 10.8907L70.4462 11.1362ZM71.9192 11.5769V11.8769C72.3247 11.8769 72.7015 11.8063 73.0451 11.6597L72.9273 11.3837L72.8096 11.1078C72.5495 11.2188 72.2542 11.2769 71.9192 11.2769V11.5769ZM72.9273 11.3837L73.0451 11.6597C73.3876 11.5135 73.6808 11.3017 73.9207 11.0248L73.694 10.8283L73.4673 10.6319C73.2887 10.838 73.0707 10.9964 72.8096 11.1078L72.9273 11.3837ZM73.694 10.8283L73.9207 11.0248C74.1629 10.7454 74.3319 10.4134 74.431 10.035L74.1408 9.95903L73.8505 9.88302C73.7726 10.1808 73.6437 10.4283 73.4673 10.6319L73.694 10.8283ZM74.1408 9.95903V10.259H75.5655V9.95903V9.65903H74.1408V9.95903ZM75.5655 9.95903L75.2687 9.91538C75.1951 10.4159 75.0139 10.8633 74.7249 11.262L74.9678 11.4381L75.2107 11.6141C75.5577 11.1354 75.7749 10.5968 75.8623 10.0027L75.5655 9.95903ZM74.9678 11.4381L74.7246 11.2624C74.4415 11.6544 74.064 11.97 73.5848 12.2077L73.7182 12.4764L73.8515 12.7452C74.4107 12.4677 74.8663 12.091 75.211 11.6137L74.9678 11.4381ZM73.7182 12.4764L73.5857 12.2073C73.1189 12.437 72.5661 12.5568 71.9192 12.5568V12.8568V13.1568C72.6406 13.1568 73.2871 13.023 73.8507 12.7456L73.7182 12.4764ZM83.492 3.39085V3.09085H83.192V3.39085H83.492ZM84.9167 3.39085H85.2167V3.09085H84.9167V3.39085ZM84.9167 12.6636V12.9636H85.2167V12.6636H84.9167ZM83.492 12.6636H83.192V12.9636H83.492V12.6636ZM83.492 11.094H83.792V10.794H83.492V11.094ZM83.3954 11.094V10.794H83.2034L83.123 10.9683L83.3954 11.094ZM82.3812 12.2953L82.5549 12.5399L82.5564 12.5389L82.3812 12.2953ZM79.0971 12.404L78.9482 12.6645L78.95 12.6655L79.0971 12.404ZM78.0346 11.2449L77.7658 11.3782L77.7663 11.3791L78.0346 11.2449ZM77.6482 3.39085V3.09085H77.3482V3.39085H77.6482ZM79.0729 3.39085H79.3729V3.09085H79.0729V3.39085ZM79.6404 10.8042L79.4218 11.0097L79.4229 11.0108L79.6404 10.8042ZM82.182 11.1362L82.0501 10.8667L82.049 10.8673L82.182 11.1362ZM83.1116 10.3031L82.8633 10.1349L82.862 10.1367L83.1116 10.3031ZM83.492 8.87238H83.792V3.39085H83.492H83.192V8.87238H83.492ZM83.492 3.39085V3.69085H84.9167V3.39085V3.09085H83.492V3.39085ZM84.9167 3.39085H84.6167V12.6636H84.9167H85.2167V3.39085H84.9167ZM84.9167 12.6636V12.3636H83.492V12.6636V12.9636H84.9167V12.6636ZM83.492 12.6636H83.792V11.094H83.492H83.192V12.6636H83.492ZM83.492 11.094V10.794H83.3954V11.094V11.394H83.492V11.094ZM83.3954 11.094L83.123 10.9683C82.9293 11.388 82.6266 11.7492 82.206 12.0518L82.3812 12.2953L82.5564 12.5389C83.0533 12.1814 83.4268 11.7417 83.6678 11.2197L83.3954 11.094ZM82.3812 12.2953L82.2074 12.0508C81.8106 12.3327 81.2959 12.4843 80.6425 12.4843V12.7843V13.0843C81.3897 13.0843 82.0341 12.9099 82.5549 12.5399L82.3812 12.2953ZM80.6425 12.7843V12.4843C80.1082 12.4843 79.6448 12.3679 79.2442 12.1425L79.0971 12.404L78.95 12.6655C79.4509 12.9472 80.0178 13.0843 80.6425 13.0843V12.7843ZM79.0971 12.404L79.2459 12.1435C78.8521 11.9185 78.537 11.5789 78.3029 11.1107L78.0346 11.2449L77.7663 11.3791C78.0473 11.9412 78.4405 12.3743 78.9482 12.6645L79.0971 12.404ZM78.0346 11.2449L78.3033 11.1116C78.0723 10.646 77.9482 10.0413 77.9482 9.28289H77.6482H77.3482C77.3482 10.1021 77.4817 10.8054 77.7658 11.3782L78.0346 11.2449ZM77.6482 9.28289H77.9482V3.39085H77.6482H77.3482V9.28289H77.6482ZM77.6482 3.39085V3.69085H79.0729V3.39085V3.09085H77.6482V3.39085ZM79.0729 3.39085H78.7729V9.1863H79.0729H79.3729V3.39085H79.0729ZM79.0729 9.1863H78.7729C78.7729 9.92077 78.98 10.5397 79.4218 11.0097L79.6404 10.8042L79.859 10.5987C79.5441 10.2638 79.3729 9.80411 79.3729 9.1863H79.0729ZM79.6404 10.8042L79.4229 11.0108C79.8659 11.4771 80.4335 11.7079 81.1013 11.7079V11.4079V11.1079C80.5859 11.1079 80.1796 10.9362 79.8579 10.5976L79.6404 10.8042ZM81.1013 11.4079V11.7079C81.5082 11.7079 81.9137 11.6036 82.3149 11.4051L82.182 11.1362L82.049 10.8673C81.7177 11.0311 81.4028 11.1079 81.1013 11.1079V11.4079ZM82.182 11.1362L82.3138 11.4057C82.736 11.1992 83.085 10.8839 83.3613 10.4695L83.1116 10.3031L82.862 10.1367C82.6392 10.471 82.3684 10.7111 82.0501 10.8667L82.182 11.1362ZM83.1116 10.3031L83.36 10.4714C83.6555 10.0351 83.792 9.49508 83.792 8.87238H83.492H83.192C83.192 9.40877 83.0748 9.82256 82.8633 10.1349L83.1116 10.3031ZM87.5261 12.6636H87.2261V12.9636H87.5261V12.6636ZM87.5261 3.39085V3.09085H87.2261V3.39085H87.5261ZM88.9026 3.39085H89.2026V3.09085H88.9026V3.39085ZM88.9026 4.79142H88.6026V5.09142H88.9026V4.79142ZM88.9992 4.79142V5.09142H89.2083L89.2807 4.89513L88.9992 4.79142ZM89.9168 3.67458L89.7541 3.42253V3.42253L89.9168 3.67458ZM92.1625 3.27011H92.4625V2.99861L92.1924 2.9716L92.1625 3.27011ZM92.1625 4.71897L92.0898 5.01001L92.4625 5.1032V4.71897H92.1625ZM91.8305 4.66464L91.7811 4.96066L91.789 4.96176L91.8305 4.66464ZM90.0858 4.90612L90.226 5.17133L90.2271 5.17074L90.0858 4.90612ZM89.2527 5.67884L88.998 5.5204L88.9974 5.52126L89.2527 5.67884ZM88.9509 12.6636V12.9636H89.2509V12.6636H88.9509ZM87.5261 12.6636H87.8261V3.39085H87.5261H87.2261V12.6636H87.5261ZM87.5261 3.39085V3.69085H88.9026V3.39085V3.09085H87.5261V3.39085ZM88.9026 3.39085H88.6026V4.79142H88.9026H89.2026V3.39085H88.9026ZM88.9026 4.79142V5.09142H88.9992V4.79142V4.49142H88.9026V4.79142ZM88.9992 4.79142L89.2807 4.89513C89.4254 4.50218 89.6869 4.18003 90.0795 3.92664L89.9168 3.67458L89.7541 3.42253C89.2612 3.74063 88.9109 4.16303 88.7177 4.6877L88.9992 4.79142ZM89.9168 3.67458L90.0795 3.92664C90.471 3.67392 90.913 3.54596 91.4139 3.54596V3.24596V2.94596C90.8041 2.94596 90.248 3.10375 89.7541 3.42253L89.9168 3.67458ZM91.4139 3.24596V3.54596C91.5151 3.54596 91.6431 3.54791 91.7986 3.5519L91.8063 3.252L91.814 2.9521C91.6556 2.94803 91.5221 2.94596 91.4139 2.94596V3.24596ZM91.8063 3.252L91.7986 3.5519C91.9537 3.55587 92.0635 3.5617 92.1327 3.56862L92.1625 3.27011L92.1924 2.9716C92.1005 2.96241 91.9729 2.95617 91.814 2.9521L91.8063 3.252ZM92.1625 3.27011H91.8625V4.71897H92.1625H92.4625V3.27011H92.1625ZM92.1625 4.71897L92.2353 4.42793C92.1684 4.4112 92.0405 4.39104 91.8719 4.36752L91.8305 4.66464L91.789 4.96176C91.9666 4.98653 92.0601 5.0026 92.0898 5.01001L92.1625 4.71897ZM91.8305 4.66464L91.8798 4.36872C91.6929 4.33757 91.4972 4.32238 91.2932 4.32238V4.62238V4.92238C91.4675 4.92238 91.63 4.93536 91.7812 4.96056L91.8305 4.66464ZM91.2932 4.62238V4.32238C90.7993 4.32238 90.3472 4.42638 89.9445 4.64149L90.0858 4.90612L90.2271 5.17074C90.5327 5.00754 90.8856 4.92238 91.2932 4.92238V4.62238ZM90.0858 4.90612L89.9456 4.64091C89.5494 4.85037 89.2318 5.14439 88.998 5.5204L89.2527 5.67884L89.5075 5.83728C89.6841 5.55326 89.9219 5.33213 90.226 5.17133L90.0858 4.90612ZM89.2527 5.67884L88.9974 5.52126C88.7643 5.89896 88.6509 6.32679 88.6509 6.79568H88.9509H89.2509C89.2509 6.42744 89.3387 6.11071 89.508 5.83642L89.2527 5.67884ZM88.9509 6.79568H88.6509V12.6636H88.9509H89.2509V6.79568H88.9509ZM88.9509 12.6636V12.3636H87.5261V12.6636V12.9636H88.9509V12.6636ZM95.1327 12.2591L94.9719 12.5124L94.9727 12.5129L95.1327 12.2591ZM93.6597 10.5869L93.3901 10.7186L93.3907 10.7198L93.6597 10.5869ZM93.6597 5.54603L93.3904 5.41367L93.3898 5.41489L93.6597 5.54603ZM95.1327 3.86776L94.9727 3.614L94.9719 3.61447L95.1327 3.86776ZM99.5336 3.86776L99.3729 4.12106L99.3736 4.12153L99.5336 3.86776ZM101.007 5.54603L100.737 5.67717L100.737 5.67839L101.007 5.54603ZM101.007 10.5869L100.738 10.4539L100.737 10.4551L101.007 10.5869ZM99.5336 12.2591L99.3736 12.0053L99.3729 12.0058L99.5336 12.2591ZM98.9058 11.0879L98.7192 10.853V10.853L98.9058 11.0879ZM99.8173 9.80207L100.099 9.90647V9.90647L99.8173 9.80207ZM99.8173 6.34291L100.099 6.23919V6.23919L99.8173 6.34291ZM98.9058 5.04497L99.0937 4.81115V4.81115L98.9058 5.04497ZM95.7666 5.04497L95.5786 4.81115V4.81115L95.7666 5.04497ZM94.855 6.34291L94.5735 6.23919V6.23919L94.855 6.34291ZM94.855 9.80207L94.5737 9.90647V9.90647L94.855 9.80207ZM95.7666 11.0879L95.9531 10.853V10.853L95.7666 11.0879ZM97.3362 12.8568V12.5568C96.5486 12.5568 95.871 12.37 95.2927 12.0053L95.1327 12.2591L94.9727 12.5129C95.6581 12.9451 96.4494 13.1568 97.3362 13.1568V12.8568ZM95.1327 12.2591L95.2934 12.0058C94.7155 11.639 94.2603 11.1249 93.9286 10.4539L93.6597 10.5869L93.3907 10.7198C93.7674 11.4817 94.2942 12.0823 94.9719 12.5124L95.1327 12.2591ZM93.6597 10.5869L93.9292 10.4551C93.6027 9.78722 93.4345 8.99679 93.4345 8.07551H93.1345H92.8345C92.8345 9.06995 93.0163 9.95376 93.3901 10.7186L93.6597 10.5869ZM93.1345 8.07551H93.4345C93.4345 7.14581 93.6029 6.34916 93.9295 5.67717L93.6597 5.54603L93.3898 5.41489C93.0162 6.18372 92.8345 7.07339 92.8345 8.07551H93.1345ZM93.6597 5.54603L93.9289 5.67839C94.2607 5.00342 94.7159 4.48758 95.2934 4.12106L95.1327 3.86776L94.9719 3.61447C94.2938 4.04482 93.7669 4.64783 93.3904 5.41368L93.6597 5.54603ZM95.1327 3.86776L95.2927 4.12153C95.871 3.75684 96.5486 3.57011 97.3362 3.57011V3.27011V2.97011C96.4494 2.97011 95.6581 3.18181 94.9727 3.614L95.1327 3.86776ZM97.3362 3.27011V3.57011C98.1237 3.57011 98.799 3.75685 99.3729 4.12106L99.5336 3.86776L99.6944 3.61447C99.0126 3.1818 98.2228 2.97011 97.3362 2.97011V3.27011ZM99.5336 3.86776L99.3736 4.12153C99.9547 4.48796 100.409 5.00329 100.737 5.67717L101.007 5.54603L101.276 5.41489C100.904 4.64796 100.376 4.04445 99.6936 3.614L99.5336 3.86776ZM101.007 5.54603L100.737 5.67839C101.068 6.35007 101.238 7.14628 101.238 8.07551H101.538H101.838C101.838 7.07292 101.654 6.18281 101.276 5.41368L101.007 5.54603ZM101.538 8.07551H101.238C101.238 8.99631 101.068 9.78629 100.738 10.4539L101.007 10.5869L101.276 10.7198C101.654 9.95468 101.838 9.07042 101.838 8.07551H101.538ZM101.007 10.5869L100.737 10.4551C100.41 11.125 99.9551 11.6386 99.3736 12.0053L99.5336 12.2591L99.6936 12.5129C100.376 12.0827 100.903 11.4815 101.276 10.7186L101.007 10.5869ZM99.5336 12.2591L99.3729 12.0058C98.799 12.37 98.1237 12.5568 97.3362 12.5568V12.8568V13.1568C98.2228 13.1568 99.0126 12.9451 99.6944 12.5124L99.5336 12.2591ZM97.3362 11.5769V11.8769C98.0249 11.8769 98.6182 11.6994 99.0923 11.3229L98.9058 11.0879L98.7192 10.853C98.3723 11.1284 97.9192 11.2769 97.3362 11.2769V11.5769ZM98.9058 11.0879L99.0923 11.3229C99.5492 10.9601 99.8839 10.4847 100.099 9.90647L99.8173 9.80207L99.5361 9.69767C99.3563 10.1819 99.0834 10.5638 98.7192 10.853L98.9058 11.0879ZM99.8173 9.80207L100.099 9.90647C100.309 9.33881 100.413 8.72759 100.413 8.07551H100.113H99.8131C99.8131 8.663 99.7198 9.20282 99.5361 9.69767L99.8173 9.80207ZM100.113 8.07551H100.413C100.413 7.42339 100.309 6.81044 100.099 6.23919L99.8173 6.34291L99.5358 6.44662C99.7198 6.94592 99.8131 7.48804 99.8131 8.07551H100.113ZM99.8173 6.34291L100.099 6.23919C99.8844 5.65726 99.5501 5.17807 99.0937 4.81115L98.9058 5.04497L98.7178 5.27878C99.0824 5.5719 99.3558 5.958 99.5358 6.44662L99.8173 6.34291ZM98.9058 5.04497L99.0937 4.81115C98.6195 4.42993 98.0257 4.24994 97.3362 4.24994V4.54994V4.84994C97.9184 4.84994 98.371 4.99996 98.7178 5.27878L98.9058 5.04497ZM97.3362 4.54994V4.24994C96.6466 4.24994 96.0528 4.42993 95.5786 4.81115L95.7666 5.04497L95.9545 5.27878C96.3013 4.99996 96.754 4.84994 97.3362 4.84994V4.54994ZM95.7666 5.04497L95.5786 4.81115C95.1222 5.17807 94.7879 5.65726 94.5735 6.23919L94.855 6.34291L95.1365 6.44662C95.3165 5.958 95.5899 5.5719 95.9545 5.27878L95.7666 5.04497ZM94.855 6.34291L94.5735 6.23919C94.363 6.81044 94.2592 7.42339 94.2592 8.07551H94.5592H94.8592C94.8592 7.48804 94.9525 6.94592 95.1365 6.44662L94.855 6.34291ZM94.5592 8.07551H94.2592C94.2592 8.72759 94.363 9.33881 94.5737 9.90647L94.855 9.80207L95.1362 9.69767C94.9525 9.20282 94.8592 8.663 94.8592 8.07551H94.5592ZM94.855 9.80207L94.5737 9.90647C94.7884 10.4847 95.1231 10.9601 95.58 11.3229L95.7666 11.0879L95.9531 10.853C95.589 10.5638 95.316 10.1819 95.1362 9.69767L94.855 9.80207ZM95.7666 11.0879L95.58 11.3229C96.0542 11.6994 96.6474 11.8769 97.3362 11.8769V11.5769V11.2769C96.7531 11.2769 96.3 11.1284 95.9531 10.853L95.7666 11.0879ZM103.984 12.4402L104.196 12.2281V12.2281L103.984 12.4402ZM105.518 10.9068L105.73 10.6947V10.6947L105.518 10.9068ZM105.687 12.2168L105.431 12.0606L105.428 12.0653L105.687 12.2168ZM105.294 12.6153L105.449 12.8725L105.451 12.8714L105.294 12.6153ZM103.984 5.55811L103.772 5.77024V5.77024L103.984 5.55811ZM103.984 4.02472L103.772 3.81259V3.81259L103.984 4.02472ZM105.518 4.02472L105.73 3.81259V3.81259L105.518 4.02472ZM105.687 5.33474L105.431 5.17853L105.428 5.18319L105.687 5.33474ZM105.294 5.73318L105.449 5.99043L105.451 5.98932L105.294 5.73318ZM104.751 12.7602V12.4602C104.534 12.4602 104.354 12.3859 104.196 12.2281L103.984 12.4402L103.772 12.6523C104.041 12.9211 104.372 13.0602 104.751 13.0602V12.7602ZM103.984 12.4402L104.196 12.2281C104.039 12.0702 103.964 11.8906 103.964 11.6735H103.664H103.364C103.364 12.052 103.503 12.3836 103.772 12.6523L103.984 12.4402ZM103.664 11.6735H103.964C103.964 11.4564 104.039 11.2768 104.196 11.119L103.984 10.9068L103.772 10.6947C103.503 10.9634 103.364 11.295 103.364 11.6735H103.664ZM103.984 10.9068L104.196 11.119C104.354 10.9611 104.534 10.8869 104.751 10.8869V10.5869V10.2869C104.372 10.2869 104.041 10.4259 103.772 10.6947L103.984 10.9068ZM104.751 10.5869V10.8869C104.968 10.8869 105.148 10.9611 105.306 11.119L105.518 10.9068L105.73 10.6947C105.461 10.4259 105.13 10.2869 104.751 10.2869V10.5869ZM105.518 10.9068L105.306 11.119C105.463 11.2768 105.538 11.4564 105.538 11.6735H105.838H106.138C106.138 11.295 105.999 10.9634 105.73 10.6947L105.518 10.9068ZM105.838 11.6735H105.538C105.538 11.8168 105.502 11.9437 105.431 12.0607L105.687 12.2168L105.943 12.373C106.073 12.16 106.138 11.9246 106.138 11.6735H105.838ZM105.687 12.2168L105.428 12.0653C105.357 12.187 105.261 12.2841 105.138 12.3591L105.294 12.6153L105.451 12.8714C105.657 12.7453 105.824 12.5767 105.946 12.3684L105.687 12.2168ZM105.294 12.6153L105.14 12.358C105.029 12.4246 104.902 12.4602 104.751 12.4602V12.7602V13.0602C105.003 13.0602 105.238 12.9991 105.449 12.8725L105.294 12.6153ZM104.751 5.87806V5.57806C104.534 5.57806 104.354 5.50383 104.196 5.34597L103.984 5.55811L103.772 5.77024C104.041 6.03899 104.372 6.17806 104.751 6.17806V5.87806ZM103.984 5.55811L104.196 5.34597C104.039 5.18812 103.964 5.00853 103.964 4.79142H103.664H103.364C103.364 5.16995 103.503 5.50149 103.772 5.77024L103.984 5.55811ZM103.664 4.79142H103.964C103.964 4.5743 104.039 4.39472 104.196 4.23686L103.984 4.02472L103.772 3.81259C103.503 4.08134 103.364 4.41288 103.364 4.79142H103.664ZM103.984 4.02472L104.196 4.23686C104.354 4.079 104.534 4.00477 104.751 4.00477V3.70477V3.40477C104.372 3.40477 104.041 3.54384 103.772 3.81259L103.984 4.02472ZM104.751 3.70477V4.00477C104.968 4.00477 105.148 4.079 105.306 4.23686L105.518 4.02472L105.73 3.81259C105.461 3.54384 105.13 3.40477 104.751 3.40477V3.70477ZM105.518 4.02472L105.306 4.23686C105.463 4.39472 105.538 4.5743 105.538 4.79142H105.838H106.138C106.138 4.41288 105.999 4.08134 105.73 3.81259L105.518 4.02472ZM105.838 4.79142H105.538C105.538 4.9347 105.502 5.06159 105.431 5.17856L105.687 5.33474L105.943 5.49092C106.073 5.27787 106.138 5.04254 106.138 4.79142H105.838ZM105.687 5.33474L105.428 5.18319C105.357 5.30489 105.261 5.40196 105.138 5.47704L105.294 5.73318L105.451 5.98932C105.657 5.86316 105.824 5.6946 105.946 5.48629L105.687 5.33474ZM105.294 5.73318L105.14 5.47593C105.029 5.54253 104.902 5.57806 104.751 5.57806V5.87806V6.17806C105.003 6.17806 105.238 6.11701 105.449 5.99042L105.294 5.73318Z" fill="#E3E4EB" mask="url(#path-1-outside-1_41_610)"/>
</svg>
