<svg width="89" height="10" viewBox="0 0 89 10" fill="none" xmlns="http://www.w3.org/2000/svg">
<path d="M6.09607 7.00804C6.09607 7.46404 5.99207 7.84404 5.78407 8.14804C5.57607 8.45204 5.30007 8.69604 4.95607 8.88004C4.62007 9.05604 4.25207 9.18404 3.85207 9.26404C3.46007 9.33604 3.07607 9.37204 2.70007 9.37204C2.21207 9.37204 1.75207 9.29604 1.32007 9.14404C1.14407 9.08004 0.972072 9.01204 0.804072 8.94004C0.636072 8.86004 0.460072 8.79604 0.276072 8.74804C0.244072 8.49204 0.188072 8.21204 0.108072 7.90804C0.0360723 7.60404 7.22706e-05 7.32804 7.22706e-05 7.08004C7.22706e-05 6.96804 0.0160723 6.88404 0.0480723 6.82804C0.0880723 6.76404 0.172072 6.73204 0.300072 6.73204C0.412072 6.73204 0.484072 6.76004 0.516072 6.81604C0.548072 6.86404 0.572072 6.93204 0.588072 7.02004C0.620072 7.13204 0.648072 7.24404 0.672072 7.35604C0.696072 7.46004 0.724072 7.56804 0.756072 7.68004C0.916072 8.16004 1.15207 8.49604 1.46407 8.68804C1.78407 8.88004 2.19207 8.97604 2.68807 8.97604C3.09607 8.97604 3.46007 8.92004 3.78007 8.80804C4.10807 8.68804 4.36407 8.49604 4.54807 8.23204C4.74007 7.96804 4.83607 7.61604 4.83607 7.17604C4.83607 6.83204 4.72007 6.52404 4.48807 6.25204C4.25607 5.97204 4.00007 5.75204 3.72007 5.59204C3.65607 5.55204 3.58807 5.51604 3.51607 5.48404C3.44407 5.45204 3.37207 5.42004 3.30007 5.38804C3.05207 5.26004 2.80007 5.13204 2.54407 5.00404C2.29607 4.87604 2.04407 4.75204 1.78807 4.63204C1.54007 4.50404 1.28407 4.34404 1.02007 4.15204C0.764072 3.95204 0.544072 3.72404 0.360072 3.46804C0.184072 3.21204 0.0960723 2.93204 0.0960723 2.62804C0.0960723 2.11604 0.232072 1.69204 0.504072 1.35604C0.776072 1.02004 1.12407 0.768038 1.54807 0.600037C1.97207 0.432038 2.41207 0.348038 2.86807 0.348038C3.19607 0.348038 3.48807 0.388038 3.74407 0.468038C4.00807 0.548038 4.26807 0.632038 4.52407 0.720038C4.78007 0.800038 5.06007 0.856038 5.36407 0.888038C5.38807 1.12804 5.41207 1.36804 5.43607 1.60804C5.46007 1.84804 5.49607 2.08804 5.54407 2.32804C5.55207 2.36004 5.55607 2.39204 5.55607 2.42404C5.56407 2.45604 5.56807 2.48804 5.56807 2.52004C5.56807 2.64804 5.52407 2.73204 5.43607 2.77204C5.35607 2.80404 5.26407 2.82004 5.16007 2.82004C5.05607 2.82004 5.00007 2.80004 4.99207 2.76004C4.98407 2.72004 4.97207 2.66004 4.95607 2.58004C4.85207 1.94004 4.63207 1.46004 4.29607 1.14004C3.96007 0.812037 3.45607 0.648037 2.78407 0.648037C2.28807 0.648037 1.90007 0.780037 1.62007 1.04404C1.34807 1.30804 1.21207 1.69204 1.21207 2.19604C1.21207 2.53204 1.30007 2.81604 1.47607 3.04804C1.65207 3.28004 1.88407 3.48404 2.17207 3.66004C2.46807 3.82804 2.78807 3.98804 3.13207 4.14004C3.48407 4.29204 3.83207 4.44804 4.17607 4.60804C4.52007 4.76804 4.83607 4.95604 5.12407 5.17204C5.42007 5.38004 5.65607 5.63204 5.83207 5.92804C6.00807 6.22404 6.09607 6.58404 6.09607 7.00804ZM11.4451 5.05204C11.4371 4.72404 11.4091 4.41204 11.3611 4.11604C11.3131 3.81204 11.1971 3.56404 11.0131 3.37204C10.8291 3.17204 10.5291 3.07204 10.1131 3.07204C9.73707 3.07204 9.42907 3.17604 9.18907 3.38404C8.95707 3.58404 8.77707 3.84004 8.64907 4.15204C8.52107 4.45604 8.42507 4.76804 8.36107 5.08804C8.56107 5.09604 8.75707 5.10404 8.94907 5.11204C9.14107 5.11204 9.33307 5.11204 9.52507 5.11204C9.84507 5.11204 10.1651 5.10804 10.4851 5.10004C10.8051 5.08404 11.1251 5.06804 11.4451 5.05204ZM12.8251 7.80004C12.8251 7.84004 12.8171 7.86404 12.8011 7.87204C12.7771 7.95204 12.7171 8.04804 12.6211 8.16004C12.5331 8.27204 12.4331 8.38004 12.3211 8.48404C12.2091 8.58004 12.1171 8.65204 12.0451 8.70004C11.7811 8.88404 11.4811 9.03204 11.1451 9.14404C10.8171 9.25604 10.4891 9.31204 10.1611 9.31204C9.88907 9.31204 9.58507 9.26804 9.24907 9.18004C8.92107 9.09204 8.64107 8.97204 8.40907 8.82004C7.96107 8.52404 7.63307 8.13604 7.42507 7.65604C7.21707 7.17604 7.11307 6.67604 7.11307 6.15604C7.11307 5.56404 7.22907 5.01604 7.46107 4.51204C7.69307 4.00804 8.06507 3.60004 8.57707 3.28804C8.80907 3.15204 9.06907 3.04004 9.35707 2.95204C9.64507 2.85604 9.92107 2.80804 10.1851 2.80804C10.6571 2.80804 11.0731 2.90404 11.4331 3.09604C11.7931 3.28804 12.0731 3.56004 12.2731 3.91204C12.4811 4.25604 12.5851 4.66804 12.5851 5.14804C12.5851 5.28404 12.5531 5.37204 12.4891 5.41204C12.4331 5.45204 12.3451 5.47204 12.2251 5.47204C12.0651 5.47204 11.9051 5.46804 11.7451 5.46004C11.5851 5.45204 11.4251 5.44404 11.2651 5.43604C11.0411 5.42004 10.8171 5.41204 10.5931 5.41204C10.3771 5.41204 10.1571 5.41204 9.93307 5.41204C9.66107 5.41204 9.38907 5.41204 9.11707 5.41204C8.84507 5.41204 8.57307 5.42004 8.30107 5.43604C8.29307 5.56404 8.28507 5.68804 8.27707 5.80804C8.26907 5.92804 8.26507 6.05204 8.26507 6.18004C8.26507 6.47604 8.30107 6.78404 8.37307 7.10404C8.44507 7.41604 8.56107 7.70804 8.72107 7.98004C8.88107 8.24404 9.08507 8.46004 9.33307 8.62804C9.58107 8.78804 9.88107 8.86804 10.2331 8.86804C10.5931 8.86804 10.9371 8.81204 11.2651 8.70004C11.5931 8.58804 11.8931 8.40804 12.1651 8.16004C12.2371 8.08804 12.3011 8.01204 12.3571 7.93204C12.4211 7.84404 12.4891 7.76804 12.5611 7.70404C12.6011 7.66404 12.6451 7.64404 12.6931 7.64404C12.7331 7.64404 12.7651 7.66004 12.7891 7.69204C12.8131 7.72404 12.8251 7.76004 12.8251 7.80004ZM16.8681 9.10804C16.8681 9.14804 16.8561 9.18804 16.8321 9.22804C16.8161 9.26004 16.7841 9.27604 16.7361 9.27604C16.4881 9.27604 16.2361 9.27204 15.9801 9.26404C15.7241 9.24804 15.4681 9.24004 15.2121 9.24004H14.7921C14.6241 9.24004 14.4561 9.24804 14.2881 9.26404C14.1201 9.27204 13.9521 9.27604 13.7841 9.27604C13.7521 9.27604 13.7281 9.26404 13.7121 9.24004C13.7041 9.20804 13.7001 9.18004 13.7001 9.15604C13.7001 9.13204 13.7001 9.10804 13.7001 9.08404C13.7001 9.06004 13.7041 9.03604 13.7121 9.01204C13.7281 8.98004 13.7721 8.96404 13.8441 8.96404C13.9241 8.95604 14.0041 8.95604 14.0841 8.96404C14.1721 8.96404 14.2281 8.96404 14.2521 8.96404C14.3641 8.96404 14.4641 8.94004 14.5521 8.89204C14.6401 8.83604 14.6841 8.74404 14.6841 8.61604C14.6841 8.00004 14.6881 7.38804 14.6961 6.78004C14.7041 6.16404 14.7081 5.55204 14.7081 4.94404C14.7081 4.32004 14.7041 3.69604 14.6961 3.07204C14.6961 2.44004 14.6961 1.81204 14.6961 1.18804C14.6961 1.13204 14.6921 1.07204 14.6841 1.00804C14.6761 0.936038 14.6521 0.880038 14.6121 0.840038C14.5801 0.800038 14.5481 0.780038 14.5161 0.780038C14.4841 0.772038 14.4441 0.768038 14.3961 0.768038C14.2521 0.768038 14.1081 0.792038 13.9641 0.840038C13.8281 0.888038 13.6921 0.912038 13.5561 0.912038C13.4681 0.912038 13.4241 0.860038 13.4241 0.756037C13.4241 0.692038 13.4721 0.648038 13.5681 0.624038C13.6721 0.600038 13.7521 0.584038 13.8081 0.576038C14.0881 0.512038 14.3921 0.440037 14.7201 0.360038C15.0481 0.280038 15.3441 0.188038 15.6081 0.0840375C15.6241 0.0840375 15.6401 0.0800376 15.6561 0.0720377C15.6721 0.0640378 15.6841 0.0600379 15.6921 0.0600379C15.7401 0.0600379 15.7681 0.0760379 15.7761 0.108038C15.7921 0.140038 15.8001 0.176038 15.8001 0.216038C15.8001 0.440038 15.7961 0.664038 15.7881 0.888038C15.7881 1.10404 15.7881 1.32404 15.7881 1.54804V4.90804C15.7881 5.52404 15.7921 6.14404 15.8001 6.76804C15.8081 7.38404 15.8121 8.00004 15.8121 8.61604C15.8121 8.74404 15.8641 8.83604 15.9681 8.89204C16.0801 8.94004 16.1881 8.96404 16.2921 8.96404C16.3801 8.96404 16.4641 8.96004 16.5441 8.95204C16.6241 8.94404 16.7041 8.94004 16.7841 8.94004C16.8241 8.94004 16.8481 8.96404 16.8561 9.01204C16.8641 9.05204 16.8681 9.08404 16.8681 9.10804ZM22.1326 5.05204C22.1246 4.72404 22.0966 4.41204 22.0486 4.11604C22.0006 3.81204 21.8846 3.56404 21.7006 3.37204C21.5166 3.17204 21.2166 3.07204 20.8006 3.07204C20.4246 3.07204 20.1166 3.17604 19.8766 3.38404C19.6446 3.58404 19.4646 3.84004 19.3366 4.15204C19.2086 4.45604 19.1126 4.76804 19.0486 5.08804C19.2486 5.09604 19.4446 5.10404 19.6366 5.11204C19.8286 5.11204 20.0206 5.11204 20.2126 5.11204C20.5326 5.11204 20.8526 5.10804 21.1726 5.10004C21.4926 5.08404 21.8126 5.06804 22.1326 5.05204ZM23.5126 7.80004C23.5126 7.84004 23.5046 7.86404 23.4886 7.87204C23.4646 7.95204 23.4046 8.04804 23.3086 8.16004C23.2206 8.27204 23.1206 8.38004 23.0086 8.48404C22.8966 8.58004 22.8046 8.65204 22.7326 8.70004C22.4686 8.88404 22.1686 9.03204 21.8326 9.14404C21.5046 9.25604 21.1766 9.31204 20.8486 9.31204C20.5766 9.31204 20.2726 9.26804 19.9366 9.18004C19.6086 9.09204 19.3286 8.97204 19.0966 8.82004C18.6486 8.52404 18.3206 8.13604 18.1126 7.65604C17.9046 7.17604 17.8006 6.67604 17.8006 6.15604C17.8006 5.56404 17.9166 5.01604 18.1486 4.51204C18.3806 4.00804 18.7526 3.60004 19.2646 3.28804C19.4966 3.15204 19.7566 3.04004 20.0446 2.95204C20.3326 2.85604 20.6086 2.80804 20.8726 2.80804C21.3446 2.80804 21.7606 2.90404 22.1206 3.09604C22.4806 3.28804 22.7606 3.56004 22.9606 3.91204C23.1686 4.25604 23.2726 4.66804 23.2726 5.14804C23.2726 5.28404 23.2406 5.37204 23.1766 5.41204C23.1206 5.45204 23.0326 5.47204 22.9126 5.47204C22.7526 5.47204 22.5926 5.46804 22.4326 5.46004C22.2726 5.45204 22.1126 5.44404 21.9526 5.43604C21.7286 5.42004 21.5046 5.41204 21.2806 5.41204C21.0646 5.41204 20.8446 5.41204 20.6206 5.41204C20.3486 5.41204 20.0766 5.41204 19.8046 5.41204C19.5326 5.41204 19.2606 5.42004 18.9886 5.43604C18.9806 5.56404 18.9726 5.68804 18.9646 5.80804C18.9566 5.92804 18.9526 6.05204 18.9526 6.18004C18.9526 6.47604 18.9886 6.78404 19.0606 7.10404C19.1326 7.41604 19.2486 7.70804 19.4086 7.98004C19.5686 8.24404 19.7726 8.46004 20.0206 8.62804C20.2686 8.78804 20.5686 8.86804 20.9206 8.86804C21.2806 8.86804 21.6246 8.81204 21.9526 8.70004C22.2806 8.58804 22.5806 8.40804 22.8526 8.16004C22.9246 8.08804 22.9886 8.01204 23.0446 7.93204C23.1086 7.84404 23.1766 7.76804 23.2486 7.70404C23.2886 7.66404 23.3326 7.64404 23.3806 7.64404C23.4206 7.64404 23.4526 7.66004 23.4766 7.69204C23.5006 7.72404 23.5126 7.76004 23.5126 7.80004ZM30.0756 7.77604C30.0756 7.83204 30.0316 7.91204 29.9436 8.01604C29.8556 8.11204 29.7916 8.18004 29.7516 8.22004C29.6796 8.29204 29.6076 8.36404 29.5356 8.43604C29.4636 8.50804 29.3836 8.57604 29.2956 8.64004C29.0476 8.81604 28.7516 8.96804 28.4076 9.09604C28.0636 9.21604 27.7396 9.27604 27.4356 9.27604C26.8276 9.27604 26.2916 9.14404 25.8276 8.88004C25.3716 8.60804 25.0116 8.24004 24.7476 7.77604C24.4916 7.30404 24.3636 6.76804 24.3636 6.16804C24.3636 5.57604 24.4836 5.02004 24.7236 4.50004C24.9636 3.98004 25.3436 3.56004 25.8636 3.24004C26.0876 3.10404 26.3356 2.99604 26.6076 2.91604C26.8876 2.83604 27.1556 2.79604 27.4116 2.79604C27.6116 2.79604 27.8036 2.82004 27.9876 2.86804C28.1796 2.91604 28.3636 2.98004 28.5396 3.06004C28.6436 3.10804 28.7436 3.15604 28.8396 3.20404C28.9356 3.25204 29.0396 3.27604 29.1516 3.27604C29.2476 3.27604 29.3236 3.24804 29.3796 3.19204C29.4436 3.12804 29.4916 3.09604 29.5236 3.09604C29.5476 3.09604 29.5596 3.11204 29.5596 3.14404C29.5756 3.24004 29.5796 3.33604 29.5716 3.43204C29.5716 3.52804 29.5756 3.62004 29.5836 3.70804C29.5916 3.88404 29.5996 4.06004 29.6076 4.23604C29.6156 4.41204 29.6236 4.58804 29.6316 4.76404V4.80004C29.6396 4.88804 29.6316 4.95604 29.6076 5.00404C29.5836 5.05204 29.5196 5.07604 29.4156 5.07604C29.3596 5.07604 29.3196 5.04404 29.2956 4.98004C29.2796 4.91604 29.2636 4.86004 29.2476 4.81204C29.1916 4.58004 29.1076 4.33204 28.9956 4.06804C28.8836 3.80404 28.7316 3.59204 28.5396 3.43204C28.4196 3.32004 28.2676 3.22804 28.0836 3.15604C27.9076 3.08404 27.7396 3.04804 27.5796 3.04804C27.1956 3.04804 26.8676 3.14804 26.5956 3.34804C26.3316 3.54004 26.1196 3.79204 25.9596 4.10404C25.7996 4.40804 25.6796 4.73604 25.5996 5.08804C25.5276 5.44004 25.4916 5.77204 25.4916 6.08404C25.4916 6.39604 25.5276 6.71604 25.5996 7.04404C25.6716 7.36404 25.7836 7.66404 25.9356 7.94404C26.0956 8.22404 26.3036 8.44804 26.5596 8.61604C26.8236 8.78404 27.1396 8.86804 27.5076 8.86804C28.0196 8.86804 28.4476 8.77604 28.7916 8.59204C29.1356 8.40004 29.4676 8.10804 29.7876 7.71604C29.8196 7.66004 29.8636 7.63204 29.9196 7.63204C30.0236 7.63204 30.0756 7.68004 30.0756 7.77604ZM34.0601 9.08404C34.0601 9.12404 34.0481 9.16404 34.0241 9.20404C34.0001 9.23604 33.9681 9.25204 33.9281 9.25204C33.7041 9.25204 33.4801 9.24804 33.2561 9.24004C33.0401 9.22404 32.8161 9.21604 32.5841 9.21604H32.2601C32.0201 9.21604 31.7801 9.22404 31.5401 9.24004C31.3081 9.24804 31.0761 9.25204 30.8441 9.25204C30.8121 9.25204 30.7881 9.23204 30.7721 9.19204C30.7641 9.15204 30.7601 9.12004 30.7601 9.09604C30.7601 9.05604 30.7641 9.02804 30.7721 9.01204C30.7801 8.98804 30.8041 8.97204 30.8441 8.96404C30.8841 8.94804 30.9281 8.94404 30.9761 8.95204C31.0321 8.95204 31.0841 8.95204 31.1321 8.95204C31.1881 8.95204 31.2401 8.95604 31.2881 8.96404C31.3361 8.96404 31.3881 8.96404 31.4441 8.96404C31.5561 8.96404 31.6561 8.94004 31.7441 8.89204C31.8401 8.83604 31.8881 8.74404 31.8881 8.61604V3.81604C31.8881 3.68004 31.8641 3.57604 31.8161 3.50404C31.7681 3.42404 31.6681 3.38404 31.5161 3.38404C31.4041 3.38404 31.2881 3.39204 31.1681 3.40804C31.0561 3.41604 30.9441 3.42804 30.8321 3.44404C30.7681 3.44404 30.7361 3.40804 30.7361 3.33604C30.7361 3.25604 30.7681 3.20404 30.8321 3.18004C30.9281 3.14804 31.0281 3.12804 31.1321 3.12004C31.2441 3.10404 31.3481 3.08804 31.4441 3.07204C31.6681 3.03204 31.8921 2.98804 32.1161 2.94004C32.3401 2.89204 32.5601 2.84004 32.7761 2.78404C32.8001 2.77604 32.8321 2.77204 32.8721 2.77204C32.9601 2.77204 33.0041 2.82004 33.0041 2.91604C33.0041 3.86004 33.0001 4.80804 32.9921 5.76004C32.9921 6.71204 32.9921 7.66404 32.9921 8.61604C32.9921 8.74404 33.0481 8.83604 33.1601 8.89204C33.2801 8.94004 33.3921 8.96404 33.4961 8.96404C33.5761 8.96404 33.6561 8.96004 33.7361 8.95204C33.8241 8.94404 33.9081 8.94004 33.9881 8.94004C34.0201 8.94004 34.0401 8.96004 34.0481 9.00004C34.0561 9.04004 34.0601 9.06804 34.0601 9.08404ZM33.0881 0.780038C33.0881 0.980038 33.0161 1.15204 32.8721 1.29604C32.7281 1.43204 32.5561 1.50004 32.3561 1.50004C32.1561 1.50004 31.9841 1.43204 31.8401 1.29604C31.6961 1.15204 31.6241 0.980038 31.6241 0.780038C31.6241 0.580038 31.6961 0.412038 31.8401 0.276038C31.9841 0.132038 32.1561 0.0600379 32.3561 0.0600379C32.5561 0.0600379 32.7281 0.132038 32.8721 0.276038C33.0161 0.412038 33.0881 0.580038 33.0881 0.780038ZM40.0331 6.09604C40.0331 5.75204 40.0051 5.40804 39.9491 5.06404C39.9011 4.71204 39.8051 4.38804 39.6611 4.09204C39.5251 3.79604 39.3251 3.56004 39.0611 3.38404C38.7971 3.20004 38.4531 3.10804 38.0291 3.10804C37.6291 3.10804 37.3011 3.20404 37.0451 3.39604C36.7971 3.58804 36.6011 3.83604 36.4571 4.14004C36.3211 4.44404 36.2251 4.77204 36.1691 5.12404C36.1211 5.47604 36.0971 5.80804 36.0971 6.12004C36.0971 6.46404 36.1211 6.80804 36.1691 7.15204C36.2251 7.49604 36.3251 7.80804 36.4691 8.08804C36.6131 8.36004 36.8171 8.58004 37.0811 8.74804C37.3531 8.91604 37.7011 9.00004 38.1251 9.00004C38.5411 9.00004 38.8731 8.91204 39.1211 8.73604C39.3771 8.56004 39.5691 8.32804 39.6971 8.04004C39.8331 7.75204 39.9211 7.44004 39.9611 7.10404C40.0091 6.76004 40.0331 6.42404 40.0331 6.09604ZM41.2691 6.13204C41.2691 6.73204 41.1251 7.27204 40.8371 7.75204C40.5571 8.23204 40.1731 8.61204 39.6851 8.89204C39.2051 9.17204 38.6651 9.31204 38.0651 9.31204C37.4811 9.31204 36.9531 9.17204 36.4811 8.89204C36.0091 8.60404 35.6331 8.22404 35.3531 7.75204C35.0731 7.27204 34.9331 6.74004 34.9331 6.15604C34.9331 5.55604 35.0691 5.00404 35.3411 4.50004C35.6131 3.98804 35.9851 3.57604 36.4571 3.26404C36.9371 2.95204 37.4891 2.79604 38.1131 2.79604C38.7851 2.79604 39.3571 2.94004 39.8291 3.22804C40.3011 3.50804 40.6571 3.90004 40.8971 4.40404C41.1451 4.90004 41.2691 5.47604 41.2691 6.13204ZM49.2265 9.08404C49.2265 9.18804 49.1665 9.24004 49.0465 9.24004C48.8705 9.24004 48.6905 9.23604 48.5065 9.22804C48.3225 9.21204 48.1385 9.20404 47.9545 9.20404C47.6825 9.20404 47.4025 9.21204 47.1145 9.22804C46.8345 9.23604 46.5545 9.24004 46.2745 9.24004C46.2425 9.24004 46.2225 9.21604 46.2145 9.16804C46.2065 9.11204 46.2025 9.06804 46.2025 9.03604C46.2025 8.97204 46.2425 8.94004 46.3225 8.94004C46.4025 8.94004 46.4665 8.94004 46.5145 8.94004C46.5545 8.94004 46.5945 8.94404 46.6345 8.95204C46.6825 8.95204 46.7265 8.95204 46.7665 8.95204C46.9985 8.95204 47.1265 8.83604 47.1505 8.60404C47.1745 8.13204 47.1825 7.65604 47.1745 7.17604C47.1745 6.69604 47.1745 6.22004 47.1745 5.74804C47.1745 5.66004 47.1745 5.57204 47.1745 5.48404C47.1745 5.38804 47.1745 5.29604 47.1745 5.20804C47.1665 5.02404 47.1545 4.80004 47.1385 4.53604C47.1225 4.26404 47.0865 4.04404 47.0305 3.87604C46.9025 3.46004 46.6225 3.25204 46.1905 3.25204C45.7985 3.25204 45.4385 3.35204 45.1105 3.55204C44.7825 3.75204 44.4985 4.00404 44.2585 4.30804C44.2505 4.89204 44.2465 5.47204 44.2465 6.04804C44.2465 6.62404 44.2465 7.20004 44.2465 7.77604V8.60404C44.2465 8.72404 44.2985 8.81204 44.4025 8.86804C44.5065 8.92404 44.6105 8.95204 44.7145 8.95204C44.7785 8.95204 44.8385 8.94804 44.8945 8.94004C44.9585 8.92404 45.0185 8.91604 45.0745 8.91604C45.1065 8.91604 45.1265 8.93604 45.1345 8.97604C45.1425 9.01604 45.1465 9.04804 45.1465 9.07204C45.1465 9.10404 45.1345 9.14004 45.1105 9.18004C45.0945 9.22004 45.0625 9.24004 45.0145 9.24004C44.8385 9.24004 44.6625 9.23604 44.4865 9.22804C44.3185 9.21204 44.1465 9.20404 43.9705 9.20404C43.6985 9.20404 43.4265 9.21204 43.1545 9.22804C42.8825 9.23604 42.6065 9.24004 42.3265 9.24004C42.2865 9.24004 42.2625 9.21604 42.2545 9.16804C42.2545 9.11204 42.2545 9.06804 42.2545 9.03604C42.2545 8.97204 42.2905 8.94004 42.3625 8.94004C42.4345 8.94004 42.4905 8.94004 42.5305 8.94004C42.5705 8.94004 42.6105 8.94404 42.6505 8.95204C42.6905 8.95204 42.7305 8.95204 42.7705 8.95204C43.0025 8.95204 43.1305 8.83604 43.1545 8.60404C43.1625 8.49204 43.1665 8.38004 43.1665 8.26804C43.1665 8.15604 43.1665 8.04404 43.1665 7.93204C43.1665 7.24404 43.1665 6.55604 43.1665 5.86804C43.1665 5.17204 43.1625 4.48004 43.1545 3.79204C43.1545 3.68004 43.1305 3.56804 43.0825 3.45604C43.0345 3.34404 42.9425 3.28804 42.8065 3.28804C42.7025 3.28804 42.6025 3.30404 42.5065 3.33604C42.4105 3.36804 42.3105 3.38404 42.2065 3.38404C42.1505 3.38404 42.1225 3.34404 42.1225 3.26404C42.1225 3.24804 42.1225 3.23204 42.1225 3.21604C42.1305 3.19204 42.1385 3.17604 42.1465 3.16804C42.1545 3.16004 42.1665 3.15604 42.1825 3.15604C42.1985 3.14804 42.2105 3.14004 42.2185 3.13204C42.3625 3.09204 42.5105 3.06404 42.6625 3.04804C42.8225 3.03204 42.9745 3.00804 43.1185 2.97604C43.2545 2.95204 43.3865 2.92004 43.5145 2.88004C43.6425 2.83204 43.7705 2.80804 43.8985 2.80804C43.9545 2.80804 43.9985 2.83604 44.0305 2.89204C44.0705 2.96404 44.1025 3.06804 44.1265 3.20404C44.1505 3.33204 44.1665 3.46404 44.1745 3.60004C44.1905 3.73604 44.1985 3.84804 44.1985 3.93604C44.3745 3.76004 44.5825 3.58804 44.8225 3.42004C45.0705 3.24404 45.3265 3.10004 45.5905 2.98804C45.8625 2.86804 46.1265 2.80804 46.3825 2.80804C47.1185 2.80804 47.6145 2.97204 47.8705 3.30004C48.1345 3.62004 48.2665 4.12804 48.2665 4.82404C48.2665 5.44804 48.2625 6.07204 48.2545 6.69604C48.2545 7.32004 48.2545 7.94404 48.2545 8.56804C48.2545 8.72004 48.2985 8.82404 48.3865 8.88004C48.4825 8.92804 48.5945 8.95204 48.7225 8.95204C48.7865 8.95204 48.8505 8.94804 48.9145 8.94004C48.9785 8.92404 49.0385 8.91604 49.0945 8.91604C49.1425 8.91604 49.1745 8.93604 49.1905 8.97604C49.2145 9.00804 49.2265 9.04404 49.2265 9.08404ZM53.7485 7.86004C53.7165 7.50004 53.6965 7.14004 53.6885 6.78004C53.6885 6.41204 53.6845 6.04404 53.6765 5.67604H53.5085C53.2605 5.67604 52.9845 5.71604 52.6805 5.79604C52.3845 5.86804 52.1005 5.98004 51.8285 6.13204C51.5565 6.28404 51.3325 6.47604 51.1565 6.70804C50.9885 6.93204 50.9045 7.19204 50.9045 7.48804C50.9045 7.87204 51.0125 8.16404 51.2285 8.36404C51.4445 8.55604 51.7365 8.65204 52.1045 8.65204C52.2805 8.65204 52.4725 8.61204 52.6805 8.53204C52.8885 8.44404 53.0885 8.34004 53.2805 8.22004C53.4725 8.10004 53.6285 7.98004 53.7485 7.86004ZM55.8485 8.62804C55.8485 8.66004 55.8445 8.68404 55.8365 8.70004C55.7565 8.87604 55.6205 9.01204 55.4285 9.10804C55.2445 9.19604 55.0605 9.24004 54.8765 9.24004C54.5405 9.24004 54.2965 9.14404 54.1445 8.95204C54.0005 8.75204 53.8845 8.50804 53.7965 8.22004C53.4925 8.50004 53.1565 8.73604 52.7885 8.92804C52.4205 9.11204 52.0245 9.20404 51.6005 9.20404C51.3045 9.20404 51.0245 9.14804 50.7605 9.03604C50.5045 8.91604 50.2965 8.74404 50.1365 8.52004C49.9765 8.29604 49.8965 8.02404 49.8965 7.70404C49.8965 7.36804 49.9805 7.08004 50.1485 6.84004C50.3245 6.59204 50.5445 6.38404 50.8085 6.21604C51.0805 6.04004 51.3685 5.90004 51.6725 5.79604C51.9845 5.68404 52.2765 5.60004 52.5485 5.54404C52.7325 5.50404 52.9205 5.46804 53.1125 5.43604C53.3045 5.40404 53.4925 5.37204 53.6765 5.34004C53.6765 5.11604 53.6645 4.85604 53.6405 4.56004C53.6245 4.26404 53.5645 4.02004 53.4605 3.82804C53.3565 3.64404 53.2165 3.48004 53.0405 3.33604C52.8645 3.19204 52.6685 3.12004 52.4525 3.12004C52.0845 3.12004 51.7965 3.21604 51.5885 3.40804C51.3805 3.60004 51.2325 3.87204 51.1445 4.22404C51.1365 4.26404 51.1285 4.30804 51.1205 4.35604C51.1205 4.39604 51.1165 4.43604 51.1085 4.47604C51.1005 4.52404 51.0685 4.56804 51.0125 4.60804C50.9645 4.64004 50.9125 4.65604 50.8565 4.65604C50.7045 4.65604 50.5645 4.62004 50.4365 4.54804C50.3165 4.47604 50.2565 4.35604 50.2565 4.18804C50.2565 4.09204 50.2725 4.00804 50.3045 3.93604C50.4085 3.68804 50.5765 3.48404 50.8085 3.32404C51.0405 3.15604 51.2965 3.02804 51.5765 2.94004C51.8645 2.85204 52.1325 2.80804 52.3805 2.80804C52.8125 2.80804 53.2045 2.88804 53.5565 3.04804C53.9085 3.20804 54.1885 3.44404 54.3965 3.75604C54.6125 4.06004 54.7205 4.44404 54.7205 4.90804C54.7205 5.42804 54.7165 5.95204 54.7085 6.48004C54.7085 7.00804 54.7245 7.53604 54.7565 8.06404C54.7645 8.24004 54.8005 8.39604 54.8645 8.53204C54.9285 8.66004 55.0605 8.72404 55.2605 8.72404C55.3645 8.72404 55.4725 8.70004 55.5845 8.65204C55.7045 8.59604 55.7805 8.56804 55.8125 8.56804C55.8365 8.56804 55.8485 8.58804 55.8485 8.62804ZM61.1519 3.92404C61.1519 4.00404 61.1199 4.08004 61.0559 4.15204C60.9999 4.21604 60.9279 4.24804 60.8399 4.24804C60.7199 4.24804 60.6319 4.20804 60.5759 4.12804C60.5279 4.04804 60.4839 3.95604 60.4439 3.85204C60.4119 3.74804 60.3599 3.65604 60.2879 3.57604C60.2159 3.49604 60.0959 3.45604 59.9279 3.45604C59.8959 3.45604 59.8639 3.45604 59.8319 3.45604C59.8079 3.45604 59.7799 3.46004 59.7479 3.46804C59.6119 3.49204 59.4639 3.57604 59.3039 3.72004C59.1439 3.86404 58.9879 4.03604 58.8359 4.23604C58.6919 4.42804 58.5719 4.62004 58.4759 4.81204C58.3799 5.00404 58.3279 5.16404 58.3199 5.29204C58.3119 5.42004 58.3079 5.54804 58.3079 5.67604C58.3079 5.79604 58.3079 5.91604 58.3079 6.03604C58.3079 6.46804 58.3079 6.90004 58.3079 7.33204C58.3159 7.76404 58.3199 8.19204 58.3199 8.61604C58.3199 8.73604 58.3679 8.82404 58.4639 8.88004C58.5679 8.92804 58.6719 8.95204 58.7759 8.95204C58.8559 8.95204 58.9359 8.94804 59.0159 8.94004C59.0959 8.93204 59.1759 8.92804 59.2559 8.92804C59.2959 8.92804 59.3239 8.94804 59.3399 8.98804C59.3559 9.02004 59.3639 9.05204 59.3639 9.08404C59.3639 9.21204 59.2999 9.27604 59.1719 9.27604C58.9319 9.27604 58.6919 9.27204 58.4519 9.26404C58.2119 9.24804 57.9719 9.24004 57.7319 9.24004C57.4839 9.24004 57.2319 9.24804 56.9759 9.26404C56.7279 9.28004 56.4759 9.28804 56.2199 9.28804C56.1879 9.28804 56.1639 9.26404 56.1479 9.21604C56.1399 9.16804 56.1359 9.12804 56.1359 9.09604C56.1359 9.01604 56.1679 8.97204 56.2319 8.96404C56.3199 8.94804 56.4119 8.94404 56.5079 8.95204C56.6039 8.96004 56.6919 8.96404 56.7719 8.96404C56.8919 8.96404 56.9879 8.94004 57.0599 8.89204C57.1399 8.83604 57.1839 8.74404 57.1919 8.61604C57.2079 8.36004 57.2159 8.10004 57.2159 7.83604C57.2239 7.57204 57.2279 7.30804 57.2279 7.04404V5.88004C57.2199 5.53604 57.2159 5.19604 57.2159 4.86004C57.2239 4.51604 57.2119 4.17604 57.1799 3.84004C57.1719 3.68004 57.1279 3.56804 57.0479 3.50404C56.9679 3.43204 56.8479 3.39604 56.6879 3.39604C56.6239 3.39604 56.5559 3.40404 56.4839 3.42004C56.4199 3.42804 56.3519 3.43204 56.2799 3.43204C56.2159 3.43204 56.1839 3.38404 56.1839 3.28804C56.1839 3.23204 56.2119 3.19204 56.2679 3.16804C56.3479 3.14404 56.4319 3.12804 56.5199 3.12004C56.6079 3.10404 56.6919 3.09204 56.7719 3.08404C56.9879 3.04404 57.2039 3.00404 57.4199 2.96404C57.6359 2.92404 57.8519 2.87604 58.0679 2.82004C58.1399 2.84404 58.1919 2.88804 58.2239 2.95204C58.2399 2.98404 58.2519 3.07204 58.2599 3.21604C58.2679 3.36004 58.2719 3.52804 58.2719 3.72004C58.2719 3.90404 58.2719 4.08004 58.2719 4.24804C58.2719 4.40804 58.2719 4.52004 58.2719 4.58404C58.4479 4.30404 58.6479 4.02404 58.8719 3.74404C59.0959 3.46404 59.3519 3.23204 59.6399 3.04804C59.9279 2.86404 60.2519 2.77204 60.6119 2.77204C60.8039 2.77204 60.9279 2.83204 60.9839 2.95204C61.0399 3.07204 61.0759 3.21204 61.0919 3.37204C61.1079 3.46004 61.1199 3.55204 61.1279 3.64804C61.1439 3.74404 61.1519 3.83604 61.1519 3.92404ZM69.2319 4.86004C69.2319 4.58804 69.1759 4.33204 69.0639 4.09204C68.9519 3.85204 68.7919 3.65604 68.5839 3.50404C68.3759 3.35204 68.1239 3.27604 67.8279 3.27604C67.4439 3.27604 67.1279 3.36804 66.8799 3.55204C66.6399 3.73604 66.4479 3.97604 66.3039 4.27204C66.1679 4.56004 66.0719 4.87204 66.0159 5.20804C65.9679 5.54404 65.9439 5.86404 65.9439 6.16804C65.9439 6.44004 65.9679 6.73204 66.0159 7.04404C66.0639 7.35604 66.1479 7.64804 66.2679 7.92004C66.3959 8.19204 66.5719 8.41604 66.7959 8.59204C67.0199 8.76004 67.3039 8.84404 67.6479 8.84404C67.9359 8.84404 68.1999 8.75604 68.4399 8.58004C68.6799 8.39604 68.8719 8.16804 69.0159 7.89604C69.1599 7.62404 69.2319 7.35604 69.2319 7.09204V4.86004ZM71.4639 8.78404C71.4639 8.82404 71.4439 8.86404 71.4039 8.90404C71.3639 8.94404 71.3279 8.97604 71.2959 9.00004C71.1919 9.08004 71.0399 9.14804 70.8399 9.20404C70.6479 9.26004 70.4839 9.28804 70.3479 9.28804C70.1399 9.28804 69.9679 9.22804 69.8319 9.10804C69.6959 8.98804 69.5839 8.84004 69.4959 8.66404C69.4159 8.48804 69.3439 8.31604 69.2799 8.14804C69.1039 8.42804 68.8639 8.68004 68.5599 8.90404C68.2559 9.12004 67.9319 9.22804 67.5879 9.22804C67.3559 9.22804 67.1159 9.21204 66.8679 9.18004C66.6279 9.14004 66.4039 9.05604 66.1959 8.92804C65.7399 8.64004 65.3919 8.25204 65.1519 7.76404C64.9199 7.26804 64.8039 6.76004 64.8039 6.24004C64.8039 5.61604 64.9159 5.05604 65.1399 4.56004C65.3639 4.05604 65.6959 3.66004 66.1359 3.37204C66.5839 3.07604 67.1359 2.92804 67.7919 2.92804C67.9359 2.92804 68.0959 2.95604 68.2719 3.01204C68.4479 3.06804 68.6199 3.14004 68.7879 3.22804C68.9639 3.30804 69.1039 3.39204 69.2079 3.48004V1.15204C69.2079 0.896038 69.1399 0.752038 69.0039 0.720038C68.8759 0.680038 68.7039 0.660038 68.4879 0.660038C68.4159 0.660038 68.3439 0.664038 68.2719 0.672038C68.1999 0.672038 68.1279 0.672038 68.0559 0.672038C68.0239 0.672038 67.9919 0.660038 67.9599 0.636038C67.9359 0.612037 67.9239 0.584038 67.9239 0.552038C67.9239 0.496038 67.9439 0.460038 67.9839 0.444038C67.9999 0.428038 68.0159 0.420038 68.0319 0.420038C68.0559 0.420038 68.0799 0.416038 68.1039 0.408038C68.2719 0.376038 68.4399 0.352038 68.6079 0.336038C68.7839 0.312038 68.9599 0.284038 69.1359 0.252038C69.3119 0.220037 69.4839 0.188037 69.6519 0.156037C69.8199 0.116037 69.9879 0.0720375 70.1559 0.0240376C70.1639 0.0240376 70.1759 0.0200377 70.1919 0.0120378C70.2159 0.00403786 70.2319 3.79086e-05 70.2399 3.79086e-05C70.2799 3.79086e-05 70.3039 0.0160379 70.3119 0.048038C70.3199 0.0800376 70.3239 0.112037 70.3239 0.144037C70.3239 1.13604 70.3199 2.12404 70.3119 3.10804C70.3039 4.09204 70.2999 5.08004 70.2999 6.07204V7.86004C70.2999 7.99604 70.3159 8.13604 70.3479 8.28004C70.3799 8.42404 70.4399 8.54404 70.5279 8.64004C70.6239 8.73604 70.7559 8.78404 70.9239 8.78404C71.0039 8.78404 71.0799 8.76804 71.1519 8.73604C71.2239 8.70404 71.2999 8.68804 71.3799 8.68804C71.4359 8.68804 71.4639 8.72004 71.4639 8.78404ZM75.8853 7.86004C75.8533 7.50004 75.8333 7.14004 75.8253 6.78004C75.8253 6.41204 75.8213 6.04404 75.8133 5.67604H75.6453C75.3973 5.67604 75.1213 5.71604 74.8173 5.79604C74.5213 5.86804 74.2373 5.98004 73.9653 6.13204C73.6933 6.28404 73.4693 6.47604 73.2933 6.70804C73.1253 6.93204 73.0413 7.19204 73.0413 7.48804C73.0413 7.87204 73.1493 8.16404 73.3653 8.36404C73.5813 8.55604 73.8733 8.65204 74.2413 8.65204C74.4173 8.65204 74.6093 8.61204 74.8173 8.53204C75.0253 8.44404 75.2253 8.34004 75.4173 8.22004C75.6093 8.10004 75.7653 7.98004 75.8853 7.86004ZM77.9853 8.62804C77.9853 8.66004 77.9813 8.68404 77.9733 8.70004C77.8933 8.87604 77.7573 9.01204 77.5653 9.10804C77.3813 9.19604 77.1973 9.24004 77.0133 9.24004C76.6773 9.24004 76.4333 9.14404 76.2813 8.95204C76.1373 8.75204 76.0213 8.50804 75.9333 8.22004C75.6293 8.50004 75.2933 8.73604 74.9253 8.92804C74.5573 9.11204 74.1613 9.20404 73.7373 9.20404C73.4413 9.20404 73.1613 9.14804 72.8973 9.03604C72.6413 8.91604 72.4333 8.74404 72.2733 8.52004C72.1133 8.29604 72.0333 8.02404 72.0333 7.70404C72.0333 7.36804 72.1173 7.08004 72.2853 6.84004C72.4613 6.59204 72.6813 6.38404 72.9453 6.21604C73.2173 6.04004 73.5053 5.90004 73.8093 5.79604C74.1213 5.68404 74.4133 5.60004 74.6853 5.54404C74.8693 5.50404 75.0573 5.46804 75.2493 5.43604C75.4413 5.40404 75.6293 5.37204 75.8133 5.34004C75.8133 5.11604 75.8013 4.85604 75.7773 4.56004C75.7613 4.26404 75.7013 4.02004 75.5973 3.82804C75.4933 3.64404 75.3533 3.48004 75.1773 3.33604C75.0013 3.19204 74.8053 3.12004 74.5893 3.12004C74.2213 3.12004 73.9333 3.21604 73.7253 3.40804C73.5173 3.60004 73.3693 3.87204 73.2813 4.22404C73.2733 4.26404 73.2653 4.30804 73.2573 4.35604C73.2573 4.39604 73.2533 4.43604 73.2453 4.47604C73.2373 4.52404 73.2053 4.56804 73.1493 4.60804C73.1013 4.64004 73.0493 4.65604 72.9933 4.65604C72.8413 4.65604 72.7013 4.62004 72.5733 4.54804C72.4533 4.47604 72.3933 4.35604 72.3933 4.18804C72.3933 4.09204 72.4093 4.00804 72.4413 3.93604C72.5453 3.68804 72.7133 3.48404 72.9453 3.32404C73.1773 3.15604 73.4333 3.02804 73.7133 2.94004C74.0013 2.85204 74.2693 2.80804 74.5173 2.80804C74.9493 2.80804 75.3413 2.88804 75.6933 3.04804C76.0453 3.20804 76.3253 3.44404 76.5333 3.75604C76.7493 4.06004 76.8573 4.44404 76.8573 4.90804C76.8573 5.42804 76.8533 5.95204 76.8453 6.48004C76.8453 7.00804 76.8613 7.53604 76.8933 8.06404C76.9013 8.24004 76.9373 8.39604 77.0013 8.53204C77.0653 8.66004 77.1973 8.72404 77.3973 8.72404C77.5013 8.72404 77.6093 8.70004 77.7213 8.65204C77.8413 8.59604 77.9173 8.56804 77.9493 8.56804C77.9733 8.56804 77.9853 8.58804 77.9853 8.62804ZM82.4366 8.71204C82.4366 8.78404 82.3806 8.85604 82.2686 8.92804C82.1646 9.00004 82.0366 9.06404 81.8846 9.12004C81.7326 9.17604 81.5846 9.22004 81.4406 9.25204C81.3046 9.28404 81.2046 9.30004 81.1406 9.30004C80.7246 9.30004 80.4006 9.24804 80.1686 9.14404C79.9446 9.04004 79.7846 8.86804 79.6886 8.62804C79.6006 8.38804 79.5566 8.06404 79.5566 7.65604C79.5566 6.99204 79.5566 6.32804 79.5566 5.66404C79.5646 4.99204 79.5726 4.32404 79.5806 3.66004H78.7166C78.6606 3.66004 78.6126 3.67604 78.5726 3.70804C78.5406 3.73204 78.5046 3.74404 78.4646 3.74404C78.4246 3.74404 78.4046 3.71604 78.4046 3.66004C78.4046 3.62804 78.4246 3.56404 78.4646 3.46804C78.5126 3.37204 78.5446 3.30804 78.5606 3.27604C78.5846 3.28404 78.6206 3.28804 78.6686 3.28804H79.6046L79.6166 1.76404C79.8006 1.64404 79.9686 1.51204 80.1206 1.36804C80.2726 1.21604 80.4246 1.06404 80.5766 0.912038C80.5926 0.896038 80.6086 0.884038 80.6246 0.876037C80.6406 0.860038 80.6566 0.852038 80.6726 0.852038C80.7446 0.852038 80.7806 0.880038 80.7806 0.936038L80.7086 3.27604C80.9646 3.27604 81.2166 3.27204 81.4646 3.26404C81.7206 3.25604 81.9726 3.25204 82.2206 3.25204C82.3246 3.25204 82.3766 3.31204 82.3766 3.43204C82.3766 3.58404 82.3086 3.66004 82.1726 3.66004H80.7086C80.7086 4.26804 80.7046 4.88004 80.6966 5.49604C80.6966 6.10404 80.6966 6.71604 80.6966 7.33204V8.25604C80.6966 8.45604 80.7806 8.59604 80.9486 8.67604C81.1166 8.74804 81.2806 8.78404 81.4406 8.78404C81.6646 8.78404 81.8846 8.74804 82.1006 8.67604C82.1246 8.66004 82.1606 8.64404 82.2086 8.62804C82.2566 8.61204 82.2926 8.60404 82.3166 8.60404C82.3966 8.60404 82.4366 8.64004 82.4366 8.71204ZM86.8774 7.86004C86.8454 7.50004 86.8254 7.14004 86.8174 6.78004C86.8174 6.41204 86.8134 6.04404 86.8054 5.67604H86.6374C86.3894 5.67604 86.1134 5.71604 85.8094 5.79604C85.5134 5.86804 85.2294 5.98004 84.9574 6.13204C84.6854 6.28404 84.4614 6.47604 84.2854 6.70804C84.1174 6.93204 84.0334 7.19204 84.0334 7.48804C84.0334 7.87204 84.1414 8.16404 84.3574 8.36404C84.5734 8.55604 84.8654 8.65204 85.2334 8.65204C85.4094 8.65204 85.6014 8.61204 85.8094 8.53204C86.0174 8.44404 86.2174 8.34004 86.4094 8.22004C86.6014 8.10004 86.7574 7.98004 86.8774 7.86004ZM88.9774 8.62804C88.9774 8.66004 88.9734 8.68404 88.9654 8.70004C88.8854 8.87604 88.7494 9.01204 88.5574 9.10804C88.3734 9.19604 88.1894 9.24004 88.0054 9.24004C87.6694 9.24004 87.4254 9.14404 87.2734 8.95204C87.1294 8.75204 87.0134 8.50804 86.9254 8.22004C86.6214 8.50004 86.2854 8.73604 85.9174 8.92804C85.5494 9.11204 85.1534 9.20404 84.7294 9.20404C84.4334 9.20404 84.1534 9.14804 83.8894 9.03604C83.6334 8.91604 83.4254 8.74404 83.2654 8.52004C83.1054 8.29604 83.0254 8.02404 83.0254 7.70404C83.0254 7.36804 83.1094 7.08004 83.2774 6.84004C83.4534 6.59204 83.6734 6.38404 83.9374 6.21604C84.2094 6.04004 84.4974 5.90004 84.8014 5.79604C85.1134 5.68404 85.4054 5.60004 85.6774 5.54404C85.8614 5.50404 86.0494 5.46804 86.2414 5.43604C86.4334 5.40404 86.6214 5.37204 86.8054 5.34004C86.8054 5.11604 86.7934 4.85604 86.7694 4.56004C86.7534 4.26404 86.6934 4.02004 86.5894 3.82804C86.4854 3.64404 86.3454 3.48004 86.1694 3.33604C85.9934 3.19204 85.7974 3.12004 85.5814 3.12004C85.2134 3.12004 84.9254 3.21604 84.7174 3.40804C84.5094 3.60004 84.3614 3.87204 84.2734 4.22404C84.2654 4.26404 84.2574 4.30804 84.2494 4.35604C84.2494 4.39604 84.2454 4.43604 84.2374 4.47604C84.2294 4.52404 84.1974 4.56804 84.1414 4.60804C84.0934 4.64004 84.0414 4.65604 83.9854 4.65604C83.8334 4.65604 83.6934 4.62004 83.5654 4.54804C83.4454 4.47604 83.3854 4.35604 83.3854 4.18804C83.3854 4.09204 83.4014 4.00804 83.4334 3.93604C83.5374 3.68804 83.7054 3.48404 83.9374 3.32404C84.1694 3.15604 84.4254 3.02804 84.7054 2.94004C84.9934 2.85204 85.2614 2.80804 85.5094 2.80804C85.9414 2.80804 86.3334 2.88804 86.6854 3.04804C87.0374 3.20804 87.3174 3.44404 87.5254 3.75604C87.7414 4.06004 87.8494 4.44404 87.8494 4.90804C87.8494 5.42804 87.8454 5.95204 87.8374 6.48004C87.8374 7.00804 87.8534 7.53604 87.8854 8.06404C87.8934 8.24004 87.9294 8.39604 87.9934 8.53204C88.0574 8.66004 88.1894 8.72404 88.3894 8.72404C88.4934 8.72404 88.6014 8.70004 88.7134 8.65204C88.8334 8.59604 88.9094 8.56804 88.9414 8.56804C88.9654 8.56804 88.9774 8.58804 88.9774 8.62804Z" fill="black"/>
</svg>
