<svg width="209" height="14" viewBox="0 0 209 14" fill="none" xmlns="http://www.w3.org/2000/svg">
<path d="M8.88999 5.54411C8.88999 5.15211 8.84799 4.74144 8.76399 4.31211C8.68933 3.87344 8.56799 3.45344 8.39999 3.05211C8.23199 2.65077 8.00799 2.31011 7.72799 2.0301C7.46666 1.76877 7.15866 1.54944 6.80399 1.37211C6.45866 1.18544 6.09933 1.07344 5.72599 1.03611C5.61399 1.01744 5.49733 1.0081 5.37599 1.0081C5.26399 1.0081 5.15199 1.0081 5.03999 1.0081C4.67599 1.0081 4.31199 1.01277 3.94799 1.0221C3.59333 1.03144 3.23399 1.04077 2.86999 1.05011V9.66011C2.86999 9.94011 2.96333 10.1221 3.14999 10.2061C3.33666 10.2901 3.54666 10.3321 3.77999 10.3321C4.15333 10.3321 4.53599 10.3181 4.92799 10.2901C5.32933 10.2621 5.71666 10.1968 6.08999 10.0941C6.47266 9.98211 6.82266 9.80944 7.13999 9.57611C7.78399 9.10011 8.23666 8.50277 8.49799 7.78411C8.75933 7.05611 8.88999 6.30944 8.88999 5.54411ZM10.444 5.33411C10.444 6.25811 10.248 7.13544 9.85599 7.96611C9.47333 8.79677 8.88066 9.45944 8.07799 9.95411C7.75133 10.1501 7.37333 10.3134 6.94399 10.4441C6.52399 10.5654 6.09466 10.6541 5.65599 10.7101C5.21733 10.7661 4.80666 10.7941 4.42399 10.7941C4.08799 10.7941 3.74733 10.7848 3.40199 10.7661C3.06599 10.7474 2.72533 10.7381 2.37999 10.7381C2.10933 10.7381 1.83399 10.7428 1.55399 10.7521C1.27399 10.7521 0.998661 10.7614 0.727994 10.7801C0.681328 10.7894 0.634661 10.7941 0.587994 10.7941C0.541327 10.7941 0.494661 10.7941 0.447994 10.7941C0.391994 10.7941 0.359328 10.7708 0.349994 10.7241C0.340661 10.6774 0.335994 10.6354 0.335994 10.5981C0.335994 10.5328 0.382661 10.4861 0.475994 10.4581C0.578661 10.4301 0.685994 10.4068 0.797994 10.3881C0.919328 10.3694 1.00333 10.3461 1.04999 10.3181C1.20866 10.2341 1.31133 10.1128 1.35799 9.95411C1.41399 9.78611 1.44199 9.61811 1.44199 9.45011C1.44199 8.93677 1.44199 8.42811 1.44199 7.92411C1.45133 7.41077 1.45599 6.89744 1.45599 6.38411V5.09611C1.45599 4.58277 1.45599 4.07411 1.45599 3.57011C1.45599 3.06611 1.45599 2.55744 1.45599 2.0441C1.45599 1.68944 1.41399 1.43744 1.32999 1.28811C1.24599 1.13877 1.01266 1.0641 0.629994 1.0641C0.564661 1.0641 0.499328 1.06877 0.433994 1.0781C0.377994 1.0781 0.317327 1.0781 0.251994 1.0781C0.186661 1.0781 0.125994 1.05944 0.0699942 1.0221C0.0233275 0.975438 -5.84498e-06 0.919438 -5.84498e-06 0.854105C-5.84498e-06 0.704771 0.0746608 0.630105 0.223994 0.630105C0.438661 0.630105 0.653328 0.639438 0.867994 0.658105C1.08266 0.667438 1.29266 0.672105 1.49799 0.672105C2.18866 0.672105 2.87933 0.653438 3.56999 0.616105C4.26999 0.569438 4.96533 0.546105 5.65599 0.546105C6.65466 0.546105 7.50866 0.737438 8.21799 1.12011C8.93666 1.50277 9.48733 2.05344 9.86999 2.77211C10.2527 3.48144 10.444 4.33544 10.444 5.33411ZM15.53 10.5981C15.53 10.6448 15.516 10.6914 15.488 10.7381C15.46 10.7754 15.4227 10.7941 15.376 10.7941C15.1147 10.7941 14.8534 10.7894 14.592 10.7801C14.34 10.7614 14.0787 10.7521 13.808 10.7521H13.43C13.15 10.7521 12.87 10.7614 12.59 10.7801C12.3194 10.7894 12.0487 10.7941 11.778 10.7941C11.7407 10.7941 11.7127 10.7708 11.694 10.7241C11.6847 10.6774 11.68 10.6401 11.68 10.6121C11.68 10.5654 11.6847 10.5328 11.694 10.5141C11.7034 10.4861 11.7314 10.4674 11.778 10.4581C11.8247 10.4394 11.876 10.4348 11.932 10.4441C11.9974 10.4441 12.058 10.4441 12.114 10.4441C12.1794 10.4441 12.24 10.4488 12.296 10.4581C12.352 10.4581 12.4127 10.4581 12.478 10.4581C12.6087 10.4581 12.7254 10.4301 12.828 10.3741C12.94 10.3088 12.996 10.2014 12.996 10.0521V4.45211C12.996 4.29344 12.968 4.17211 12.912 4.08811C12.856 3.99477 12.7394 3.94811 12.562 3.94811C12.4314 3.94811 12.296 3.95744 12.156 3.9761C12.0254 3.98544 11.8947 3.99944 11.764 4.01811C11.6894 4.01811 11.652 3.97611 11.652 3.89211C11.652 3.79877 11.6894 3.73811 11.764 3.71011C11.876 3.67277 11.9927 3.64944 12.114 3.64011C12.2447 3.62144 12.366 3.60277 12.478 3.58411C12.7394 3.53744 13.0007 3.48611 13.262 3.43011C13.5234 3.3741 13.78 3.31344 14.032 3.24811C14.06 3.23877 14.0974 3.23411 14.144 3.23411C14.2467 3.23411 14.298 3.29011 14.298 3.4021C14.298 4.50344 14.2934 5.60944 14.284 6.72011C14.284 7.83077 14.284 8.94144 14.284 10.0521C14.284 10.2014 14.3494 10.3088 14.48 10.3741C14.62 10.4301 14.7507 10.4581 14.872 10.4581C14.9654 10.4581 15.0587 10.4534 15.152 10.4441C15.2547 10.4348 15.3527 10.4301 15.446 10.4301C15.4834 10.4301 15.5067 10.4534 15.516 10.5001C15.5254 10.5468 15.53 10.5794 15.53 10.5981ZM14.396 0.910105C14.396 1.14344 14.312 1.3441 14.144 1.5121C13.976 1.67077 13.7754 1.75011 13.542 1.75011C13.3087 1.75011 13.108 1.67077 12.94 1.5121C12.772 1.3441 12.688 1.14344 12.688 0.910105C12.688 0.676772 12.772 0.480772 12.94 0.322105C13.108 0.154105 13.3087 0.0701052 13.542 0.0701052C13.7754 0.0701052 13.976 0.154105 14.144 0.322105C14.312 0.480772 14.396 0.676772 14.396 0.910105ZM21.6865 11.2561C21.6865 10.8828 21.5792 10.6168 21.3645 10.4581C21.1592 10.2901 20.9072 10.1828 20.6085 10.1361C20.3099 10.0801 20.0205 10.0381 19.7405 10.0101L18.1725 9.85611C17.9672 10.0801 17.8132 10.3041 17.7105 10.5281C17.6172 10.7428 17.5705 11.0041 17.5705 11.3121C17.5705 11.7601 17.6779 12.0821 17.8925 12.2781C18.1165 12.4834 18.3965 12.6141 18.7325 12.6701C19.0685 12.7261 19.4092 12.7541 19.7545 12.7541C20.0905 12.7541 20.4032 12.7074 20.6925 12.6141C20.9912 12.5208 21.2292 12.3621 21.4065 12.1381C21.5932 11.9234 21.6865 11.6294 21.6865 11.2561ZM21.0005 5.65611C21.0005 5.36677 20.9679 5.05877 20.9025 4.73211C20.8372 4.40544 20.7065 4.12544 20.5105 3.89211C20.3239 3.65877 20.0485 3.5421 19.6845 3.5421C19.2739 3.5421 18.9565 3.64944 18.7325 3.86411C18.5085 4.06944 18.3545 4.33544 18.2705 4.66211C18.1959 4.97944 18.1585 5.31077 18.1585 5.65611C18.1585 6.02011 18.1912 6.36544 18.2565 6.69211C18.3312 7.00944 18.4759 7.27077 18.6905 7.47611C18.9145 7.68144 19.2459 7.78411 19.6845 7.78411C19.9552 7.78411 20.1745 7.71411 20.3425 7.57411C20.5199 7.43411 20.6552 7.25677 20.7485 7.04211C20.8419 6.81811 20.9072 6.58477 20.9445 6.34211C20.9819 6.09944 21.0005 5.87077 21.0005 5.65611ZM23.4925 3.36011C23.4925 3.55611 23.4505 3.69144 23.3665 3.76611C23.2919 3.83144 23.1892 3.86877 23.0585 3.8781C22.9372 3.8781 22.8065 3.8781 22.6665 3.8781C22.4612 3.8781 22.2512 3.8781 22.0365 3.8781C21.8312 3.86877 21.6212 3.85944 21.4065 3.85011C21.7052 4.08344 21.9245 4.36344 22.0645 4.69011C22.2139 5.01677 22.2885 5.36677 22.2885 5.74011C22.2885 6.19744 22.1579 6.60344 21.8965 6.95811C21.6445 7.30344 21.3179 7.57411 20.9165 7.77011C20.5152 7.96611 20.0999 8.06411 19.6705 8.06411C19.5212 8.06411 19.3765 8.05944 19.2365 8.05011C19.0965 8.03144 18.9519 8.01744 18.8025 8.00811C18.6812 8.12011 18.5412 8.24144 18.3825 8.37211C18.2332 8.50277 18.1585 8.66144 18.1585 8.84811C18.1585 8.99744 18.2285 9.10944 18.3685 9.18411C18.5179 9.24944 18.6812 9.29611 18.8585 9.32411C19.0359 9.35211 19.1759 9.37077 19.2785 9.38011L21.0565 9.50611C21.3739 9.53411 21.6819 9.60411 21.9805 9.71611C22.2885 9.81877 22.5452 9.98211 22.7505 10.2061C22.9559 10.4208 23.0585 10.7148 23.0585 11.0881C23.0585 11.4801 22.9419 11.8068 22.7085 12.0681C22.4845 12.3294 22.1905 12.5394 21.8265 12.6981C21.4719 12.8568 21.1032 12.9688 20.7205 13.0341C20.3379 13.0994 19.9925 13.1321 19.6845 13.1321C19.4419 13.1321 19.1385 13.1181 18.7745 13.0901C18.4105 13.0714 18.0512 13.0154 17.6965 12.9221C17.3419 12.8288 17.0432 12.6794 16.8005 12.4741C16.5672 12.2781 16.4505 12.0074 16.4505 11.6621C16.4505 11.4101 16.5112 11.1721 16.6325 10.9481C16.7539 10.7334 16.9032 10.5328 17.0805 10.3461C17.2672 10.1594 17.4492 9.99611 17.6265 9.85611C17.5239 9.80944 17.3839 9.73944 17.2065 9.64611C17.0385 9.54344 16.9545 9.42677 16.9545 9.29611C16.9545 9.13744 17.0385 8.96011 17.2065 8.76411C17.3839 8.56811 17.5752 8.38144 17.7805 8.20411C17.9859 8.01744 18.1445 7.87277 18.2565 7.77011C17.7805 7.54611 17.4259 7.26144 17.1925 6.91611C16.9685 6.56144 16.8565 6.12277 16.8565 5.60011C16.8565 5.11477 16.9919 4.69944 17.2625 4.35411C17.5425 3.99944 17.8925 3.72877 18.3125 3.5421C18.7419 3.34611 19.1759 3.24811 19.6145 3.24811C19.7732 3.24811 19.9319 3.26211 20.0905 3.29011C20.2492 3.30877 20.4032 3.34144 20.5525 3.38811C20.6272 3.40677 20.7065 3.43477 20.7905 3.4721C20.8839 3.5001 20.9679 3.51877 21.0425 3.5281C21.1079 3.53744 21.1685 3.5421 21.2245 3.5421C21.2899 3.5421 21.3552 3.5421 21.4205 3.5421C21.7565 3.5421 22.0785 3.51877 22.3865 3.4721C22.6945 3.4161 22.9699 3.25744 23.2125 2.99611C23.2685 2.94011 23.3152 2.91211 23.3525 2.91211C23.4272 2.91211 23.4692 2.97744 23.4785 3.10811C23.4879 3.22944 23.4925 3.31344 23.4925 3.36011ZM28.0672 10.5981C28.0672 10.6448 28.0532 10.6914 28.0252 10.7381C27.9972 10.7754 27.9598 10.7941 27.9132 10.7941C27.6518 10.7941 27.3905 10.7894 27.1292 10.7801C26.8772 10.7614 26.6158 10.7521 26.3452 10.7521H25.9672C25.6872 10.7521 25.4072 10.7614 25.1272 10.7801C24.8565 10.7894 24.5858 10.7941 24.3152 10.7941C24.2778 10.7941 24.2498 10.7708 24.2312 10.7241C24.2218 10.6774 24.2172 10.6401 24.2172 10.6121C24.2172 10.5654 24.2218 10.5328 24.2312 10.5141C24.2405 10.4861 24.2685 10.4674 24.3152 10.4581C24.3618 10.4394 24.4132 10.4348 24.4692 10.4441C24.5345 10.4441 24.5952 10.4441 24.6512 10.4441C24.7165 10.4441 24.7772 10.4488 24.8332 10.4581C24.8892 10.4581 24.9498 10.4581 25.0152 10.4581C25.1458 10.4581 25.2625 10.4301 25.3652 10.3741C25.4772 10.3088 25.5332 10.2014 25.5332 10.0521V4.45211C25.5332 4.29344 25.5052 4.17211 25.4492 4.08811C25.3932 3.99477 25.2765 3.94811 25.0992 3.94811C24.9685 3.94811 24.8332 3.95744 24.6932 3.9761C24.5625 3.98544 24.4318 3.99944 24.3012 4.01811C24.2265 4.01811 24.1892 3.97611 24.1892 3.89211C24.1892 3.79877 24.2265 3.73811 24.3012 3.71011C24.4132 3.67277 24.5298 3.64944 24.6512 3.64011C24.7818 3.62144 24.9032 3.60277 25.0152 3.58411C25.2765 3.53744 25.5378 3.48611 25.7992 3.43011C26.0605 3.3741 26.3172 3.31344 26.5692 3.24811C26.5972 3.23877 26.6345 3.23411 26.6812 3.23411C26.7838 3.23411 26.8352 3.29011 26.8352 3.4021C26.8352 4.50344 26.8305 5.60944 26.8212 6.72011C26.8212 7.83077 26.8212 8.94144 26.8212 10.0521C26.8212 10.2014 26.8865 10.3088 27.0172 10.3741C27.1572 10.4301 27.2878 10.4581 27.4092 10.4581C27.5025 10.4581 27.5958 10.4534 27.6892 10.4441C27.7918 10.4348 27.8898 10.4301 27.9832 10.4301C28.0205 10.4301 28.0438 10.4534 28.0532 10.5001C28.0625 10.5468 28.0672 10.5794 28.0672 10.5981ZM26.9332 0.910105C26.9332 1.14344 26.8492 1.3441 26.6812 1.5121C26.5132 1.67077 26.3125 1.75011 26.0792 1.75011C25.8458 1.75011 25.6452 1.67077 25.4772 1.5121C25.3092 1.3441 25.2252 1.14344 25.2252 0.910105C25.2252 0.676772 25.3092 0.480772 25.4772 0.322105C25.6452 0.154105 25.8458 0.0701052 26.0792 0.0701052C26.3125 0.0701052 26.5132 0.154105 26.6812 0.322105C26.8492 0.480772 26.9332 0.676772 26.9332 0.910105ZM33.5377 10.1641C33.5377 10.2481 33.4723 10.3321 33.3417 10.4161C33.2203 10.5001 33.071 10.5748 32.8937 10.6401C32.7163 10.7054 32.5437 10.7568 32.3757 10.7941C32.217 10.8314 32.1003 10.8501 32.0257 10.8501C31.5403 10.8501 31.1623 10.7894 30.8917 10.6681C30.6303 10.5468 30.4437 10.3461 30.3317 10.0661C30.229 9.78611 30.1777 9.40811 30.1777 8.93211C30.1777 8.15744 30.1777 7.38277 30.1777 6.60811C30.187 5.82411 30.1963 5.04477 30.2057 4.27011H29.1977C29.1323 4.27011 29.0763 4.28877 29.0297 4.32611C28.9923 4.35411 28.9503 4.36811 28.9037 4.36811C28.857 4.36811 28.8337 4.33544 28.8337 4.27011C28.8337 4.23277 28.857 4.15811 28.9037 4.04611C28.9597 3.93411 28.997 3.85944 29.0157 3.82211C29.0437 3.83144 29.0857 3.83611 29.1417 3.83611H30.2337L30.2477 2.05811C30.4623 1.91811 30.6583 1.7641 30.8357 1.5961C31.013 1.41877 31.1903 1.24144 31.3677 1.0641C31.3863 1.04544 31.405 1.03144 31.4237 1.0221C31.4423 1.00344 31.461 0.994105 31.4797 0.994105C31.5637 0.994105 31.6057 1.02677 31.6057 1.09211L31.5217 3.82211C31.8203 3.82211 32.1143 3.81744 32.4037 3.80811C32.7023 3.79877 32.9963 3.7941 33.2857 3.7941C33.407 3.7941 33.4677 3.8641 33.4677 4.00411C33.4677 4.18144 33.3883 4.27011 33.2297 4.27011H31.5217C31.5217 4.97944 31.517 5.69344 31.5077 6.41211C31.5077 7.12144 31.5077 7.83544 31.5077 8.55411V9.63211C31.5077 9.86544 31.6057 10.0288 31.8017 10.1221C31.9977 10.2061 32.189 10.2481 32.3757 10.2481C32.637 10.2481 32.8937 10.2061 33.1457 10.1221C33.1737 10.1034 33.2157 10.0848 33.2717 10.0661C33.3277 10.0474 33.3697 10.0381 33.3977 10.0381C33.491 10.0381 33.5377 10.0801 33.5377 10.1641ZM39.3626 5.89411C39.3533 5.51144 39.3206 5.14744 39.2646 4.80211C39.2086 4.44744 39.0733 4.15811 38.8586 3.93411C38.644 3.70077 38.294 3.58411 37.8086 3.58411C37.37 3.58411 37.0106 3.70544 36.7306 3.94811C36.46 4.18144 36.25 4.48011 36.1006 4.84411C35.9513 5.19877 35.8393 5.56277 35.7646 5.93611C35.998 5.94544 36.2266 5.95477 36.4506 5.96411C36.6746 5.96411 36.8986 5.96411 37.1226 5.96411C37.496 5.96411 37.8693 5.95944 38.2426 5.95011C38.616 5.93144 38.9893 5.91277 39.3626 5.89411ZM40.9726 9.10011C40.9726 9.14677 40.9633 9.17477 40.9446 9.18411C40.9166 9.27744 40.8466 9.38944 40.7346 9.52011C40.632 9.65077 40.5153 9.77677 40.3846 9.89811C40.254 10.0101 40.1466 10.0941 40.0626 10.1501C39.7546 10.3648 39.4046 10.5374 39.0126 10.6681C38.63 10.7988 38.2473 10.8641 37.8646 10.8641C37.5473 10.8641 37.1926 10.8128 36.8006 10.7101C36.418 10.6074 36.0913 10.4674 35.8206 10.2901C35.298 9.94477 34.9153 9.49211 34.6726 8.93211C34.43 8.37211 34.3086 7.78877 34.3086 7.18211C34.3086 6.49144 34.444 5.85211 34.7146 5.26411C34.9853 4.67611 35.4193 4.20011 36.0166 3.83611C36.2873 3.67744 36.5906 3.54677 36.9266 3.44411C37.2626 3.3321 37.5846 3.2761 37.8926 3.2761C38.4433 3.2761 38.9286 3.38811 39.3486 3.61211C39.7686 3.83611 40.0953 4.15344 40.3286 4.56411C40.5713 4.96544 40.6926 5.44611 40.6926 6.00611C40.6926 6.16477 40.6553 6.26744 40.5806 6.31411C40.5153 6.36077 40.4126 6.38411 40.2726 6.38411C40.086 6.38411 39.8993 6.37944 39.7126 6.37011C39.526 6.36077 39.3393 6.35144 39.1526 6.34211C38.8913 6.32344 38.63 6.31411 38.3686 6.31411C38.1166 6.31411 37.86 6.31411 37.5986 6.31411C37.2813 6.31411 36.964 6.31411 36.6466 6.31411C36.3293 6.31411 36.012 6.32344 35.6946 6.34211C35.6853 6.49144 35.676 6.63611 35.6666 6.77611C35.6573 6.91611 35.6526 7.06077 35.6526 7.21011C35.6526 7.55544 35.6946 7.91477 35.7786 8.28811C35.8626 8.65211 35.998 8.99277 36.1846 9.31011C36.3713 9.61811 36.6093 9.87011 36.8986 10.0661C37.188 10.2528 37.538 10.3461 37.9486 10.3461C38.3686 10.3461 38.77 10.2808 39.1526 10.1501C39.5353 10.0194 39.8853 9.80944 40.2026 9.52011C40.2866 9.43611 40.3613 9.34744 40.4266 9.25411C40.5013 9.15144 40.5806 9.06277 40.6646 8.98811C40.7113 8.94144 40.7626 8.91811 40.8186 8.91811C40.8653 8.91811 40.9026 8.93677 40.9306 8.97411C40.9586 9.01144 40.9726 9.05344 40.9726 9.10011ZM51.3735 7.11211C51.3735 6.71077 51.3409 6.30944 51.2755 5.90811C51.2195 5.49744 51.1075 5.11944 50.9395 4.77411C50.7809 4.42877 50.5475 4.15344 50.2395 3.94811C49.9315 3.73344 49.5302 3.62611 49.0355 3.62611C48.5689 3.62611 48.1862 3.73811 47.8875 3.96211C47.5982 4.18611 47.3695 4.47544 47.2015 4.83011C47.0429 5.18477 46.9309 5.56744 46.8655 5.97811C46.8095 6.38877 46.7815 6.77611 46.7815 7.14011C46.7815 7.54144 46.8095 7.94277 46.8655 8.34411C46.9309 8.74544 47.0475 9.10944 47.2155 9.43611C47.3835 9.75344 47.6215 10.0101 47.9295 10.2061C48.2469 10.4021 48.6529 10.5001 49.1475 10.5001C49.6329 10.5001 50.0202 10.3974 50.3095 10.1921C50.6082 9.98677 50.8322 9.71611 50.9815 9.38011C51.1402 9.04411 51.2429 8.68011 51.2895 8.28811C51.3455 7.88677 51.3735 7.49477 51.3735 7.11211ZM52.8155 7.15411C52.8155 7.85411 52.6475 8.48411 52.3115 9.04411C51.9849 9.60411 51.5369 10.0474 50.9675 10.3741C50.4075 10.7008 49.7775 10.8641 49.0775 10.8641C48.3962 10.8641 47.7802 10.7008 47.2295 10.3741C46.6789 10.0381 46.2402 9.59477 45.9135 9.04411C45.5869 8.48411 45.4235 7.86344 45.4235 7.18211C45.4235 6.48211 45.5822 5.83811 45.8995 5.25011C46.2169 4.65277 46.6509 4.17211 47.2015 3.80811C47.7615 3.44411 48.4055 3.2621 49.1335 3.2621C49.9175 3.2621 50.5849 3.43011 51.1355 3.76611C51.6862 4.09277 52.1015 4.55011 52.3815 5.13811C52.6709 5.71677 52.8155 6.38877 52.8155 7.15411ZM62.7572 8.80611C62.7572 9.22611 62.6638 9.57144 62.4772 9.84211C62.2905 10.1034 62.0478 10.3041 61.7492 10.4441C61.4505 10.5841 61.1238 10.6821 60.7692 10.7381C60.4145 10.7941 60.0692 10.8221 59.7332 10.8221C59.4252 10.8221 59.1172 10.7894 58.8092 10.7241C58.5105 10.6588 58.2072 10.6121 57.8992 10.5841C57.8338 10.3321 57.7685 10.0801 57.7032 9.82811C57.6472 9.57611 57.5818 9.32877 57.5072 9.08611C57.4978 9.05811 57.4745 8.99277 57.4372 8.89011C57.4092 8.78744 57.3952 8.73144 57.3952 8.72211C57.3952 8.64744 57.4185 8.59611 57.4652 8.56811C57.5118 8.53077 57.5678 8.51211 57.6332 8.51211C57.6985 8.51211 57.7452 8.53544 57.7732 8.58211C57.8292 8.64744 57.8758 8.73611 57.9132 8.84811C57.9598 8.96011 58.0018 9.05811 58.0392 9.14211C58.1138 9.29144 58.1792 9.40811 58.2352 9.49211C58.2912 9.56677 58.3798 9.66477 58.5012 9.78611C58.8652 10.1688 59.3178 10.3601 59.8592 10.3601C60.1578 10.3601 60.4285 10.3274 60.6712 10.2621C60.9232 10.1968 61.1238 10.0754 61.2732 9.89811C61.4225 9.71144 61.4972 9.44544 61.4972 9.10011C61.4972 8.80144 61.4038 8.55411 61.2172 8.35811C61.0305 8.15277 60.7878 7.97077 60.4892 7.81211C60.1998 7.65344 59.8918 7.49944 59.5652 7.35011C59.2385 7.20077 58.9258 7.03744 58.6272 6.86011C58.3378 6.67344 58.0998 6.44944 57.9132 6.18811C57.7265 5.92677 57.6332 5.60944 57.6332 5.23611C57.6332 4.77877 57.7498 4.40544 57.9832 4.11611C58.2258 3.82677 58.5338 3.61211 58.9072 3.4721C59.2805 3.32277 59.6678 3.24811 60.0692 3.24811C60.3305 3.24811 60.5638 3.28077 60.7692 3.3461C60.9838 3.41144 61.2078 3.48611 61.4412 3.57011C61.5158 3.59811 61.5905 3.61677 61.6652 3.62611C61.7398 3.63544 61.8145 3.64011 61.8892 3.64011C61.9358 3.64011 61.9778 3.64011 62.0152 3.64011C62.0525 3.64011 62.0898 3.63544 62.1272 3.62611C62.1552 3.79411 62.1785 3.96677 62.1972 4.14411C62.2252 4.31211 62.2485 4.48477 62.2672 4.66211C62.2765 4.72744 62.2858 4.80677 62.2952 4.90011C62.3138 4.98411 62.3232 5.06344 62.3232 5.13811C62.3232 5.20344 62.3092 5.27344 62.2812 5.34811C62.2532 5.41344 62.1972 5.44611 62.1132 5.44611C62.0478 5.44611 61.9918 5.44144 61.9452 5.43211C61.9078 5.41344 61.8752 5.37144 61.8472 5.30611C61.8005 5.21277 61.7585 5.11477 61.7212 5.0121C61.6932 4.90011 61.6605 4.79744 61.6232 4.70411C61.5018 4.37744 61.2918 4.11611 60.9932 3.92011C60.6945 3.71477 60.3725 3.61211 60.0272 3.61211C59.5885 3.61211 59.2572 3.74277 59.0332 4.00411C58.8092 4.25611 58.6972 4.59677 58.6972 5.02611C58.6972 5.17544 58.7345 5.32011 58.8092 5.46011C58.8932 5.60011 58.9865 5.72144 59.0892 5.82411C59.2852 6.01077 59.5138 6.15544 59.7752 6.25811C60.0458 6.36077 60.3025 6.46344 60.5452 6.56611C60.8625 6.70611 61.1892 6.87411 61.5252 7.07011C61.8705 7.26611 62.1598 7.50411 62.3932 7.78411C62.6358 8.06411 62.7572 8.40477 62.7572 8.80611ZM68.9212 5.89411C68.9119 5.51144 68.8792 5.14744 68.8232 4.80211C68.7672 4.44744 68.6319 4.15811 68.4172 3.93411C68.2026 3.70077 67.8526 3.58411 67.3672 3.58411C66.9286 3.58411 66.5692 3.70544 66.2892 3.94811C66.0186 4.18144 65.8086 4.48011 65.6592 4.84411C65.5099 5.19877 65.3979 5.56277 65.3232 5.93611C65.5566 5.94544 65.7852 5.95477 66.0092 5.96411C66.2332 5.96411 66.4572 5.96411 66.6812 5.96411C67.0546 5.96411 67.4279 5.95944 67.8012 5.95011C68.1746 5.93144 68.5479 5.91277 68.9212 5.89411ZM70.5312 9.10011C70.5312 9.14677 70.5219 9.17477 70.5032 9.18411C70.4752 9.27744 70.4052 9.38944 70.2932 9.52011C70.1906 9.65077 70.0739 9.77677 69.9432 9.89811C69.8126 10.0101 69.7052 10.0941 69.6212 10.1501C69.3132 10.3648 68.9632 10.5374 68.5712 10.6681C68.1886 10.7988 67.8059 10.8641 67.4232 10.8641C67.1059 10.8641 66.7512 10.8128 66.3592 10.7101C65.9766 10.6074 65.6499 10.4674 65.3792 10.2901C64.8566 9.94477 64.4739 9.49211 64.2312 8.93211C63.9886 8.37211 63.8672 7.78877 63.8672 7.18211C63.8672 6.49144 64.0026 5.85211 64.2732 5.26411C64.5439 4.67611 64.9779 4.20011 65.5752 3.83611C65.8459 3.67744 66.1492 3.54677 66.4852 3.44411C66.8212 3.3321 67.1432 3.2761 67.4512 3.2761C68.0019 3.2761 68.4872 3.38811 68.9072 3.61211C69.3272 3.83611 69.6539 4.15344 69.8872 4.56411C70.1299 4.96544 70.2512 5.44611 70.2512 6.00611C70.2512 6.16477 70.2139 6.26744 70.1392 6.31411C70.0739 6.36077 69.9712 6.38411 69.8312 6.38411C69.6446 6.38411 69.4579 6.37944 69.2712 6.37011C69.0846 6.36077 68.8979 6.35144 68.7112 6.34211C68.4499 6.32344 68.1886 6.31411 67.9272 6.31411C67.6752 6.31411 67.4186 6.31411 67.1572 6.31411C66.8399 6.31411 66.5226 6.31411 66.2052 6.31411C65.8879 6.31411 65.5706 6.32344 65.2532 6.34211C65.2439 6.49144 65.2346 6.63611 65.2252 6.77611C65.2159 6.91611 65.2112 7.06077 65.2112 7.21011C65.2112 7.55544 65.2532 7.91477 65.3372 8.28811C65.4212 8.65211 65.5566 8.99277 65.7432 9.31011C65.9299 9.61811 66.1679 9.87011 66.4572 10.0661C66.7466 10.2528 67.0966 10.3461 67.5072 10.3461C67.9272 10.3461 68.3286 10.2808 68.7112 10.1501C69.0939 10.0194 69.4439 9.80944 69.7612 9.52011C69.8452 9.43611 69.9199 9.34744 69.9852 9.25411C70.0599 9.15144 70.1392 9.06277 70.2232 8.98811C70.2699 8.94144 70.3212 8.91811 70.3772 8.91811C70.4239 8.91811 70.4612 8.93677 70.4892 8.97411C70.5172 9.01144 70.5312 9.05344 70.5312 9.10011ZM79.4901 10.4301C79.4901 10.5421 79.4061 10.6261 79.2381 10.6821C79.0795 10.7381 78.9021 10.7754 78.7061 10.7941C78.5101 10.8128 78.3701 10.8221 78.2861 10.8221C77.9688 10.8221 77.7168 10.6961 77.5301 10.4441C77.3435 10.1921 77.2035 9.93077 77.1101 9.66011C76.7928 10.0614 76.3961 10.3601 75.9201 10.5561C75.4441 10.7521 74.9495 10.8501 74.4361 10.8501C73.5961 10.8501 73.0128 10.6354 72.6861 10.2061C72.3688 9.76744 72.2101 9.15144 72.2101 8.35811C72.2101 7.65811 72.2101 6.95811 72.2101 6.25811C72.2195 5.54877 72.2288 4.84411 72.2381 4.14411C72.2381 3.86411 72.1028 3.7241 71.8321 3.7241C71.7575 3.7241 71.6828 3.72877 71.6081 3.73811C71.5335 3.74744 71.4588 3.75211 71.3841 3.75211C71.3561 3.75211 71.3328 3.73811 71.3141 3.71011C71.3048 3.67277 71.3001 3.64477 71.3001 3.62611C71.3001 3.52344 71.3468 3.46744 71.4401 3.4581C71.7668 3.42077 72.0935 3.39744 72.4201 3.38811C72.7561 3.36944 73.0875 3.34144 73.4141 3.30411C73.4888 3.37877 73.5261 3.47211 73.5261 3.58411C73.5261 3.81744 73.5215 4.05544 73.5121 4.29811C73.5028 4.54077 73.4981 4.78344 73.4981 5.02611C73.4888 5.59544 73.4795 6.16944 73.4701 6.74811C73.4701 7.31744 73.4701 7.89144 73.4701 8.47011C73.4701 8.64744 73.4748 8.83877 73.4841 9.04411C73.4935 9.24011 73.5308 9.42211 73.5961 9.59011C73.6988 9.85144 73.8901 10.0381 74.1701 10.1501C74.4595 10.2528 74.7348 10.3041 74.9961 10.3041C75.2855 10.3041 75.5748 10.2528 75.8641 10.1501C76.1628 10.0381 76.4148 9.87944 76.6201 9.67411C76.8348 9.45944 76.9561 9.19344 76.9841 8.87611C77.0028 8.71744 77.0121 8.55877 77.0121 8.40011C77.0215 8.23211 77.0261 8.06877 77.0261 7.91011L77.0121 4.10211C77.0121 3.98077 76.9701 3.89211 76.8861 3.83611C76.8115 3.78011 76.7228 3.75211 76.6201 3.75211C76.5268 3.75211 76.4335 3.75677 76.3401 3.76611C76.2561 3.77544 76.1675 3.7801 76.0741 3.7801C75.9901 3.7801 75.9481 3.73344 75.9481 3.64011C75.9481 3.54677 75.9901 3.49544 76.0741 3.48611C76.1861 3.46744 76.3028 3.4581 76.4241 3.4581C76.5455 3.44877 76.6668 3.43944 76.7881 3.43011L77.7541 3.3321C77.8195 3.32277 77.8848 3.31344 77.9501 3.30411C78.0248 3.29477 78.0948 3.29011 78.1601 3.29011C78.2068 3.29011 78.2395 3.31811 78.2581 3.37411C78.2768 3.42077 78.2861 3.45811 78.2861 3.48611C78.2581 5.51144 78.2441 7.53211 78.2441 9.54811C78.2441 9.78144 78.2955 9.97277 78.3981 10.1221C78.5101 10.2714 78.6921 10.3461 78.9441 10.3461C79.0188 10.3461 79.0841 10.3368 79.1401 10.3181C79.2055 10.2994 79.2708 10.2901 79.3361 10.2901C79.4388 10.2901 79.4901 10.3368 79.4901 10.4301ZM91.7672 10.5981C91.7672 10.7194 91.6972 10.7801 91.5572 10.7801C91.3518 10.7801 91.1418 10.7754 90.9272 10.7661C90.7125 10.7474 90.4978 10.7381 90.2832 10.7381C89.9658 10.7381 89.6392 10.7474 89.3032 10.7661C88.9765 10.7754 88.6498 10.7801 88.3232 10.7801C88.2858 10.7801 88.2625 10.7521 88.2532 10.6961C88.2438 10.6308 88.2392 10.5794 88.2392 10.5421C88.2392 10.4674 88.2858 10.4301 88.3792 10.4301C88.4725 10.4301 88.5472 10.4301 88.6032 10.4301C88.6498 10.4301 88.6965 10.4348 88.7432 10.4441C88.7992 10.4441 88.8505 10.4441 88.8972 10.4441C89.1678 10.4441 89.3172 10.3088 89.3452 10.0381C89.3732 9.48744 89.3825 8.93211 89.3732 8.37211C89.3732 7.81211 89.3732 7.25677 89.3732 6.70611C89.3732 6.60344 89.3732 6.50077 89.3732 6.39811C89.3732 6.28611 89.3732 6.17877 89.3732 6.07611C89.3638 5.86144 89.3498 5.60011 89.3312 5.29211C89.3125 4.97477 89.2705 4.71811 89.2052 4.52211C89.0558 4.03677 88.7292 3.7941 88.2252 3.7941C87.7678 3.7941 87.3478 3.91077 86.9652 4.14411C86.5825 4.37744 86.2512 4.67144 85.9712 5.02611C85.9618 5.70744 85.9572 6.38411 85.9572 7.05611C85.9572 7.72811 85.9572 8.40011 85.9572 9.07211V10.0381C85.9572 10.1781 86.0178 10.2808 86.1392 10.3461C86.2605 10.4114 86.3818 10.4441 86.5032 10.4441C86.5778 10.4441 86.6478 10.4394 86.7132 10.4301C86.7878 10.4114 86.8578 10.4021 86.9232 10.4021C86.9605 10.4021 86.9838 10.4254 86.9932 10.4721C87.0025 10.5188 87.0072 10.5561 87.0072 10.5841C87.0072 10.6214 86.9932 10.6634 86.9652 10.7101C86.9465 10.7568 86.9092 10.7801 86.8532 10.7801C86.6478 10.7801 86.4425 10.7754 86.2372 10.7661C86.0412 10.7474 85.8405 10.7381 85.6352 10.7381C85.3178 10.7381 85.0005 10.7474 84.6832 10.7661C84.3658 10.7754 84.0438 10.7801 83.7172 10.7801C83.6705 10.7801 83.6425 10.7521 83.6332 10.6961C83.6332 10.6308 83.6332 10.5794 83.6332 10.5421C83.6332 10.4674 83.6752 10.4301 83.7592 10.4301C83.8432 10.4301 83.9085 10.4301 83.9552 10.4301C84.0018 10.4301 84.0485 10.4348 84.0952 10.4441C84.1418 10.4441 84.1885 10.4441 84.2352 10.4441C84.5058 10.4441 84.6552 10.3088 84.6832 10.0381C84.6925 9.90744 84.6972 9.77677 84.6972 9.64611C84.6972 9.51544 84.6972 9.38477 84.6972 9.25411C84.6972 8.45144 84.6972 7.64877 84.6972 6.84611C84.6972 6.03411 84.6925 5.22677 84.6832 4.42411C84.6832 4.29344 84.6552 4.16277 84.5992 4.03211C84.5432 3.90144 84.4358 3.83611 84.2772 3.83611C84.1558 3.83611 84.0392 3.85477 83.9272 3.89211C83.8152 3.92944 83.6985 3.94811 83.5772 3.94811C83.5118 3.94811 83.4792 3.90144 83.4792 3.80811C83.4792 3.78944 83.4792 3.77077 83.4792 3.75211C83.4885 3.72411 83.4978 3.70544 83.5072 3.69611C83.5165 3.68677 83.5305 3.68211 83.5492 3.68211C83.5678 3.67277 83.5818 3.66344 83.5912 3.6541C83.7592 3.60744 83.9318 3.57477 84.1092 3.55611C84.2958 3.53744 84.4732 3.50944 84.6412 3.4721C84.7998 3.44411 84.9538 3.40677 85.1032 3.36011C85.2525 3.30411 85.4018 3.2761 85.5512 3.2761C85.6165 3.2761 85.6678 3.30877 85.7052 3.37411C85.7518 3.45811 85.7892 3.57944 85.8172 3.73811C85.8452 3.88744 85.8638 4.04144 85.8732 4.20011C85.8918 4.35877 85.9012 4.48944 85.9012 4.5921C86.1065 4.38677 86.3492 4.18611 86.6292 3.99011C86.9185 3.78477 87.2172 3.61677 87.5252 3.48611C87.8425 3.34611 88.1505 3.2761 88.4492 3.2761C89.3078 3.2761 89.8865 3.46744 90.1852 3.85011C90.4932 4.22344 90.6472 4.81611 90.6472 5.62811C90.6472 6.35611 90.6425 7.08411 90.6332 7.81211C90.6332 8.54011 90.6332 9.26811 90.6332 9.99611C90.6332 10.1734 90.6845 10.2948 90.7872 10.3601C90.8992 10.4161 91.0298 10.4441 91.1792 10.4441C91.2538 10.4441 91.3285 10.4394 91.4032 10.4301C91.4778 10.4114 91.5478 10.4021 91.6132 10.4021C91.6692 10.4021 91.7065 10.4254 91.7252 10.4721C91.7532 10.5094 91.7672 10.5514 91.7672 10.5981ZM98.5689 7.11211C98.5689 6.71077 98.5362 6.30944 98.4709 5.90811C98.4149 5.49744 98.3029 5.11944 98.1349 4.77411C97.9762 4.42877 97.7429 4.15344 97.4349 3.94811C97.1269 3.73344 96.7255 3.62611 96.2309 3.62611C95.7642 3.62611 95.3815 3.73811 95.0829 3.96211C94.7935 4.18611 94.5649 4.47544 94.3969 4.83011C94.2382 5.18477 94.1262 5.56744 94.0609 5.97811C94.0049 6.38877 93.9769 6.77611 93.9769 7.14011C93.9769 7.54144 94.0049 7.94277 94.0609 8.34411C94.1262 8.74544 94.2429 9.10944 94.4109 9.43611C94.5789 9.75344 94.8169 10.0101 95.1249 10.2061C95.4422 10.4021 95.8482 10.5001 96.3429 10.5001C96.8282 10.5001 97.2155 10.3974 97.5049 10.1921C97.8035 9.98677 98.0275 9.71611 98.1769 9.38011C98.3355 9.04411 98.4382 8.68011 98.4849 8.28811C98.5409 7.88677 98.5689 7.49477 98.5689 7.11211ZM100.011 7.15411C100.011 7.85411 99.8429 8.48411 99.5069 9.04411C99.1802 9.60411 98.7322 10.0474 98.1629 10.3741C97.6029 10.7008 96.9729 10.8641 96.2729 10.8641C95.5915 10.8641 94.9755 10.7008 94.4249 10.3741C93.8742 10.0381 93.4355 9.59477 93.1089 9.04411C92.7822 8.48411 92.6189 7.86344 92.6189 7.18211C92.6189 6.48211 92.7775 5.83811 93.0949 5.25011C93.4122 4.65277 93.8462 4.17211 94.3969 3.80811C94.9569 3.44411 95.6009 3.2621 96.3289 3.2621C97.1129 3.2621 97.7802 3.43011 98.3309 3.76611C98.8815 4.09277 99.2969 4.55011 99.5769 5.13811C99.8662 5.71677 100.011 6.38877 100.011 7.15411ZM113.41 10.6261C113.41 10.7568 113.359 10.8221 113.256 10.8221C112.995 10.8221 112.729 10.8128 112.458 10.7941C112.188 10.7754 111.917 10.7661 111.646 10.7661C111.376 10.7661 111.1 10.7754 110.82 10.7941C110.55 10.8128 110.279 10.8221 110.008 10.8221C109.971 10.8221 109.943 10.7988 109.924 10.7521C109.915 10.7054 109.91 10.6681 109.91 10.6401C109.91 10.5561 109.952 10.5048 110.036 10.4861C110.13 10.4674 110.228 10.4628 110.33 10.4721C110.442 10.4814 110.526 10.4861 110.582 10.4861C110.713 10.4861 110.82 10.4534 110.904 10.3881C110.988 10.3228 111.03 10.2248 111.03 10.0941C111.03 9.46877 111.035 8.84811 111.044 8.23211C111.063 7.61611 111.072 7.00011 111.072 6.38411C111.072 6.28144 111.072 6.17877 111.072 6.07611C111.072 5.97344 111.068 5.87077 111.058 5.76811C111.049 5.54411 111.035 5.31544 111.016 5.08211C111.007 4.83944 110.97 4.61544 110.904 4.41011C110.839 4.19544 110.727 4.02277 110.568 3.89211C110.41 3.76144 110.181 3.69611 109.882 3.69611C109.668 3.69611 109.43 3.76144 109.168 3.89211C108.916 4.01344 108.674 4.1581 108.44 4.32611C108.207 4.49411 108.011 4.65277 107.852 4.80211C107.871 4.93277 107.88 5.06811 107.88 5.20811C107.88 5.33877 107.88 5.46944 107.88 5.60011C107.88 5.87077 107.88 6.14611 107.88 6.42611C107.89 6.69677 107.894 6.96744 107.894 7.23811C107.894 7.71411 107.89 8.19011 107.88 8.66611C107.88 9.14211 107.88 9.61811 107.88 10.0941C107.88 10.2341 107.941 10.3321 108.062 10.3881C108.184 10.4441 108.305 10.4721 108.426 10.4721C108.501 10.4721 108.576 10.4674 108.65 10.4581C108.734 10.4488 108.809 10.4441 108.874 10.4441C108.921 10.4441 108.949 10.4674 108.958 10.5141C108.977 10.5608 108.986 10.5981 108.986 10.6261C108.986 10.6728 108.972 10.7194 108.944 10.7661C108.916 10.8034 108.874 10.8221 108.818 10.8221C108.557 10.8221 108.291 10.8128 108.02 10.7941C107.759 10.7754 107.493 10.7661 107.222 10.7661C106.961 10.7661 106.695 10.7754 106.424 10.7941C106.154 10.8128 105.883 10.8221 105.612 10.8221C105.575 10.8221 105.547 10.7988 105.528 10.7521C105.51 10.7054 105.5 10.6681 105.5 10.6401C105.5 10.5654 105.538 10.5141 105.612 10.4861C105.687 10.4674 105.776 10.4628 105.878 10.4721C105.99 10.4814 106.084 10.4861 106.158 10.4861C106.289 10.4861 106.396 10.4581 106.48 10.4021C106.574 10.3368 106.62 10.2341 106.62 10.0941V6.52411C106.62 6.32811 106.616 6.08544 106.606 5.79611C106.606 5.50677 106.588 5.22211 106.55 4.94211C106.522 4.65277 106.471 4.42411 106.396 4.25611C106.331 4.08811 106.219 3.95744 106.06 3.86411C105.911 3.77077 105.743 3.7241 105.556 3.7241C105.314 3.7241 105.066 3.78477 104.814 3.90611C104.562 4.02744 104.324 4.17677 104.1 4.35411C103.876 4.53144 103.685 4.70877 103.526 4.88611V10.0801C103.526 10.2201 103.578 10.3228 103.68 10.3881C103.783 10.4441 103.895 10.4721 104.016 10.4721C104.091 10.4721 104.166 10.4674 104.24 10.4581C104.315 10.4394 104.385 10.4301 104.45 10.4301C104.488 10.4301 104.511 10.4581 104.52 10.5141C104.53 10.5608 104.534 10.5934 104.534 10.6121C104.534 10.6588 104.52 10.7054 104.492 10.7521C104.474 10.7894 104.436 10.8081 104.38 10.8081C104.203 10.8081 104.026 10.8034 103.848 10.7941C103.671 10.7754 103.494 10.7661 103.316 10.7661C102.962 10.7661 102.607 10.7754 102.252 10.7941C101.898 10.8034 101.543 10.8081 101.188 10.8081C101.151 10.8081 101.123 10.7848 101.104 10.7381C101.086 10.6914 101.076 10.6541 101.076 10.6261C101.076 10.5141 101.123 10.4581 101.216 10.4581C101.319 10.4581 101.417 10.4628 101.51 10.4721C101.604 10.4721 101.697 10.4721 101.79 10.4721C101.921 10.4721 102.033 10.4441 102.126 10.3881C102.22 10.3228 102.266 10.2201 102.266 10.0801C102.266 9.13744 102.262 8.19477 102.252 7.25211C102.252 6.30011 102.252 5.35277 102.252 4.41011C102.252 4.30744 102.243 4.20477 102.224 4.10211C102.206 3.99944 102.145 3.92944 102.042 3.89211C101.977 3.86411 101.907 3.85011 101.832 3.85011C101.711 3.85011 101.59 3.86877 101.468 3.90611C101.347 3.93411 101.221 3.94811 101.09 3.94811C101.006 3.94811 100.964 3.89211 100.964 3.7801C100.964 3.70544 100.992 3.65877 101.048 3.64011C101.095 3.62144 101.146 3.61211 101.202 3.61211C101.268 3.60277 101.328 3.59344 101.384 3.58411C101.599 3.5561 101.814 3.52344 102.028 3.48611C102.252 3.43944 102.467 3.39277 102.672 3.3461C102.747 3.32744 102.826 3.30877 102.91 3.29011C102.994 3.27144 103.078 3.2621 103.162 3.2621C103.274 3.2621 103.349 3.34611 103.386 3.51411C103.433 3.67277 103.456 3.84544 103.456 4.03211C103.466 4.21877 103.47 4.35411 103.47 4.43811C103.666 4.27011 103.886 4.09744 104.128 3.92011C104.371 3.73344 104.628 3.57477 104.898 3.44411C105.169 3.31344 105.44 3.24811 105.71 3.24811C106.186 3.24811 106.588 3.32744 106.914 3.48611C107.241 3.64477 107.521 3.94344 107.754 4.38211C107.96 4.20477 108.193 4.02744 108.454 3.85011C108.716 3.66344 108.986 3.50944 109.266 3.38811C109.556 3.25744 109.84 3.19211 110.12 3.19211C110.736 3.19211 111.203 3.28077 111.52 3.4581C111.847 3.63544 112.066 3.91077 112.178 4.28411C112.3 4.64811 112.36 5.11944 112.36 5.69811C112.36 6.42611 112.356 7.15877 112.346 7.89611C112.337 8.62411 112.332 9.35677 112.332 10.0941C112.332 10.2341 112.393 10.3321 112.514 10.3881C112.645 10.4441 112.771 10.4721 112.892 10.4721C112.967 10.4721 113.037 10.4674 113.102 10.4581C113.177 10.4488 113.247 10.4441 113.312 10.4441C113.35 10.4441 113.373 10.4674 113.382 10.5141C113.401 10.5608 113.41 10.5981 113.41 10.6261ZM119.247 5.89411C119.238 5.51144 119.205 5.14744 119.149 4.80211C119.093 4.44744 118.958 4.15811 118.743 3.93411C118.529 3.70077 118.179 3.58411 117.693 3.58411C117.255 3.58411 116.895 3.70544 116.615 3.94811C116.345 4.18144 116.135 4.48011 115.985 4.84411C115.836 5.19877 115.724 5.56277 115.649 5.93611C115.883 5.94544 116.111 5.95477 116.335 5.96411C116.559 5.96411 116.783 5.96411 117.007 5.96411C117.381 5.96411 117.754 5.95944 118.127 5.95011C118.501 5.93144 118.874 5.91277 119.247 5.89411ZM120.857 9.10011C120.857 9.14677 120.848 9.17477 120.829 9.18411C120.801 9.27744 120.731 9.38944 120.619 9.52011C120.517 9.65077 120.4 9.77677 120.269 9.89811C120.139 10.0101 120.031 10.0941 119.947 10.1501C119.639 10.3648 119.289 10.5374 118.897 10.6681C118.515 10.7988 118.132 10.8641 117.749 10.8641C117.432 10.8641 117.077 10.8128 116.685 10.7101C116.303 10.6074 115.976 10.4674 115.705 10.2901C115.183 9.94477 114.8 9.49211 114.557 8.93211C114.315 8.37211 114.193 7.78877 114.193 7.18211C114.193 6.49144 114.329 5.85211 114.599 5.26411C114.87 4.67611 115.304 4.20011 115.901 3.83611C116.172 3.67744 116.475 3.54677 116.811 3.44411C117.147 3.3321 117.469 3.2761 117.777 3.2761C118.328 3.2761 118.813 3.38811 119.233 3.61211C119.653 3.83611 119.98 4.15344 120.213 4.56411C120.456 4.96544 120.577 5.44611 120.577 6.00611C120.577 6.16477 120.54 6.26744 120.465 6.31411C120.4 6.36077 120.297 6.38411 120.157 6.38411C119.971 6.38411 119.784 6.37944 119.597 6.37011C119.411 6.36077 119.224 6.35144 119.037 6.34211C118.776 6.32344 118.515 6.31411 118.253 6.31411C118.001 6.31411 117.745 6.31411 117.483 6.31411C117.166 6.31411 116.849 6.31411 116.531 6.31411C116.214 6.31411 115.897 6.32344 115.579 6.34211C115.57 6.49144 115.561 6.63611 115.551 6.77611C115.542 6.91611 115.537 7.06077 115.537 7.21011C115.537 7.55544 115.579 7.91477 115.663 8.28811C115.747 8.65211 115.883 8.99277 116.069 9.31011C116.256 9.61811 116.494 9.87011 116.783 10.0661C117.073 10.2528 117.423 10.3461 117.833 10.3461C118.253 10.3461 118.655 10.2808 119.037 10.1501C119.42 10.0194 119.77 9.80944 120.087 9.52011C120.171 9.43611 120.246 9.34744 120.311 9.25411C120.386 9.15144 120.465 9.06277 120.549 8.98811C120.596 8.94144 120.647 8.91811 120.703 8.91811C120.75 8.91811 120.787 8.93677 120.815 8.97411C120.843 9.01144 120.857 9.05344 120.857 9.10011ZM130.46 5.67011C130.46 5.35277 130.395 5.05411 130.264 4.77411C130.134 4.49411 129.947 4.26544 129.704 4.08811C129.462 3.91077 129.168 3.82211 128.822 3.82211C128.374 3.82211 128.006 3.92944 127.716 4.14411C127.436 4.35877 127.212 4.63877 127.044 4.98411C126.886 5.32011 126.774 5.68411 126.708 6.07611C126.652 6.46811 126.624 6.84144 126.624 7.19611C126.624 7.51344 126.652 7.85411 126.708 8.21811C126.764 8.58211 126.862 8.92277 127.002 9.24011C127.152 9.55744 127.357 9.81877 127.618 10.0241C127.88 10.2201 128.211 10.3181 128.612 10.3181C128.948 10.3181 129.256 10.2154 129.536 10.0101C129.816 9.79544 130.04 9.52944 130.208 9.21211C130.376 8.89477 130.46 8.58211 130.46 8.27411V5.67011ZM133.064 10.2481C133.064 10.2948 133.041 10.3414 132.994 10.3881C132.948 10.4348 132.906 10.4721 132.868 10.5001C132.747 10.5934 132.57 10.6728 132.336 10.7381C132.112 10.8034 131.921 10.8361 131.762 10.8361C131.52 10.8361 131.319 10.7661 131.16 10.6261C131.002 10.4861 130.871 10.3134 130.768 10.1081C130.675 9.90277 130.591 9.70211 130.516 9.50611C130.311 9.83277 130.031 10.1268 129.676 10.3881C129.322 10.6401 128.944 10.7661 128.542 10.7661C128.272 10.7661 127.992 10.7474 127.702 10.7101C127.422 10.6634 127.161 10.5654 126.918 10.4161C126.386 10.0801 125.98 9.62744 125.7 9.05811C125.43 8.47944 125.294 7.88677 125.294 7.28011C125.294 6.55211 125.425 5.89877 125.686 5.32011C125.948 4.73211 126.335 4.27011 126.848 3.93411C127.371 3.58877 128.015 3.41611 128.78 3.41611C128.948 3.41611 129.135 3.44877 129.34 3.51411C129.546 3.57944 129.746 3.66344 129.942 3.76611C130.148 3.85944 130.311 3.95744 130.432 4.06011V1.3441C130.432 1.04544 130.353 0.877439 130.194 0.840105C130.045 0.793439 129.844 0.770105 129.592 0.770105C129.508 0.770105 129.424 0.774772 129.34 0.784105C129.256 0.784105 129.172 0.784105 129.088 0.784105C129.051 0.784105 129.014 0.770105 128.976 0.742105C128.948 0.714105 128.934 0.681438 128.934 0.644105C128.934 0.578772 128.958 0.536772 129.004 0.518105C129.023 0.499438 129.042 0.490105 129.06 0.490105C129.088 0.490105 129.116 0.485438 129.144 0.476105C129.34 0.438772 129.536 0.410772 129.732 0.392105C129.938 0.364105 130.143 0.331438 130.348 0.294105C130.554 0.256771 130.754 0.219438 130.95 0.182105C131.146 0.135438 131.342 0.0841047 131.538 0.0281049C131.548 0.0281049 131.562 0.0234383 131.58 0.0141051C131.608 0.00477187 131.627 0.000105262 131.636 0.000105262C131.683 0.000105262 131.711 0.018772 131.72 0.0561054C131.73 0.0934382 131.734 0.130771 131.734 0.168105C131.734 1.32544 131.73 2.47811 131.72 3.62611C131.711 4.77411 131.706 5.92677 131.706 7.08411V9.17011C131.706 9.32877 131.725 9.49211 131.762 9.66011C131.8 9.82811 131.87 9.96811 131.972 10.0801C132.084 10.1921 132.238 10.2481 132.434 10.2481C132.528 10.2481 132.616 10.2294 132.7 10.1921C132.784 10.1548 132.873 10.1361 132.966 10.1361C133.032 10.1361 133.064 10.1734 133.064 10.2481ZM138.867 5.89411C138.857 5.51144 138.825 5.14744 138.769 4.80211C138.713 4.44744 138.577 4.15811 138.363 3.93411C138.148 3.70077 137.798 3.58411 137.313 3.58411C136.874 3.58411 136.515 3.70544 136.235 3.94811C135.964 4.18144 135.754 4.48011 135.605 4.84411C135.455 5.19877 135.343 5.56277 135.269 5.93611C135.502 5.94544 135.731 5.95477 135.955 5.96411C136.179 5.96411 136.403 5.96411 136.627 5.96411C137 5.96411 137.373 5.95944 137.747 5.95011C138.12 5.93144 138.493 5.91277 138.867 5.89411ZM140.477 9.10011C140.477 9.14677 140.467 9.17477 140.449 9.18411C140.421 9.27744 140.351 9.38944 140.239 9.52011C140.136 9.65077 140.019 9.77677 139.889 9.89811C139.758 10.0101 139.651 10.0941 139.567 10.1501C139.259 10.3648 138.909 10.5374 138.517 10.6681C138.134 10.7988 137.751 10.8641 137.369 10.8641C137.051 10.8641 136.697 10.8128 136.305 10.7101C135.922 10.6074 135.595 10.4674 135.325 10.2901C134.802 9.94477 134.419 9.49211 134.177 8.93211C133.934 8.37211 133.813 7.78877 133.813 7.18211C133.813 6.49144 133.948 5.85211 134.219 5.26411C134.489 4.67611 134.923 4.20011 135.521 3.83611C135.791 3.67744 136.095 3.54677 136.431 3.44411C136.767 3.3321 137.089 3.2761 137.397 3.2761C137.947 3.2761 138.433 3.38811 138.853 3.61211C139.273 3.83611 139.599 4.15344 139.833 4.56411C140.075 4.96544 140.197 5.44611 140.197 6.00611C140.197 6.16477 140.159 6.26744 140.085 6.31411C140.019 6.36077 139.917 6.38411 139.777 6.38411C139.59 6.38411 139.403 6.37944 139.217 6.37011C139.03 6.36077 138.843 6.35144 138.657 6.34211C138.395 6.32344 138.134 6.31411 137.873 6.31411C137.621 6.31411 137.364 6.31411 137.103 6.31411C136.785 6.31411 136.468 6.31411 136.151 6.31411C135.833 6.31411 135.516 6.32344 135.199 6.34211C135.189 6.49144 135.18 6.63611 135.171 6.77611C135.161 6.91611 135.157 7.06077 135.157 7.21011C135.157 7.55544 135.199 7.91477 135.283 8.28811C135.367 8.65211 135.502 8.99277 135.689 9.31011C135.875 9.61811 136.113 9.87011 136.403 10.0661C136.692 10.2528 137.042 10.3461 137.453 10.3461C137.873 10.3461 138.274 10.2808 138.657 10.1501C139.039 10.0194 139.389 9.80944 139.707 9.52011C139.791 9.43611 139.865 9.34744 139.931 9.25411C140.005 9.15144 140.085 9.06277 140.169 8.98811C140.215 8.94144 140.267 8.91811 140.323 8.91811C140.369 8.91811 140.407 8.93677 140.435 8.97411C140.463 9.01144 140.477 9.05344 140.477 9.10011ZM152.935 10.4301C152.935 10.5421 152.851 10.6261 152.683 10.6821C152.525 10.7381 152.347 10.7754 152.151 10.7941C151.955 10.8128 151.815 10.8221 151.731 10.8221C151.414 10.8221 151.162 10.6961 150.975 10.4441C150.789 10.1921 150.649 9.93077 150.555 9.66011C150.238 10.0614 149.841 10.3601 149.365 10.5561C148.889 10.7521 148.395 10.8501 147.881 10.8501C147.041 10.8501 146.458 10.6354 146.131 10.2061C145.814 9.76744 145.655 9.15144 145.655 8.35811C145.655 7.65811 145.655 6.95811 145.655 6.25811C145.665 5.54877 145.674 4.84411 145.683 4.14411C145.683 3.86411 145.548 3.7241 145.277 3.7241C145.203 3.7241 145.128 3.72877 145.053 3.73811C144.979 3.74744 144.904 3.75211 144.829 3.75211C144.801 3.75211 144.778 3.73811 144.759 3.71011C144.75 3.67277 144.745 3.64477 144.745 3.62611C144.745 3.52344 144.792 3.46744 144.885 3.4581C145.212 3.42077 145.539 3.39744 145.865 3.38811C146.201 3.36944 146.533 3.34144 146.859 3.30411C146.934 3.37877 146.971 3.47211 146.971 3.58411C146.971 3.81744 146.967 4.05544 146.957 4.29811C146.948 4.54077 146.943 4.78344 146.943 5.02611C146.934 5.59544 146.925 6.16944 146.915 6.74811C146.915 7.31744 146.915 7.89144 146.915 8.47011C146.915 8.64744 146.92 8.83877 146.929 9.04411C146.939 9.24011 146.976 9.42211 147.041 9.59011C147.144 9.85144 147.335 10.0381 147.615 10.1501C147.905 10.2528 148.18 10.3041 148.441 10.3041C148.731 10.3041 149.02 10.2528 149.309 10.1501C149.608 10.0381 149.86 9.87944 150.065 9.67411C150.28 9.45944 150.401 9.19344 150.429 8.87611C150.448 8.71744 150.457 8.55877 150.457 8.40011C150.467 8.23211 150.471 8.06877 150.471 7.91011L150.457 4.10211C150.457 3.98077 150.415 3.89211 150.331 3.83611C150.257 3.78011 150.168 3.75211 150.065 3.75211C149.972 3.75211 149.879 3.75677 149.785 3.76611C149.701 3.77544 149.613 3.7801 149.519 3.7801C149.435 3.7801 149.393 3.73344 149.393 3.64011C149.393 3.54677 149.435 3.49544 149.519 3.48611C149.631 3.46744 149.748 3.4581 149.869 3.4581C149.991 3.44877 150.112 3.43944 150.233 3.43011L151.199 3.3321C151.265 3.32277 151.33 3.31344 151.395 3.30411C151.47 3.29477 151.54 3.29011 151.605 3.29011C151.652 3.29011 151.685 3.31811 151.703 3.37411C151.722 3.42077 151.731 3.45811 151.731 3.48611C151.703 5.51144 151.689 7.53211 151.689 9.54811C151.689 9.78144 151.741 9.97277 151.843 10.1221C151.955 10.2714 152.137 10.3461 152.389 10.3461C152.464 10.3461 152.529 10.3368 152.585 10.3181C152.651 10.2994 152.716 10.2901 152.781 10.2901C152.884 10.2901 152.935 10.3368 152.935 10.4301ZM158.87 8.80611C158.87 9.22611 158.777 9.57144 158.59 9.84211C158.404 10.1034 158.161 10.3041 157.862 10.4441C157.564 10.5841 157.237 10.6821 156.882 10.7381C156.528 10.7941 156.182 10.8221 155.846 10.8221C155.538 10.8221 155.23 10.7894 154.922 10.7241C154.624 10.6588 154.32 10.6121 154.012 10.5841C153.947 10.3321 153.882 10.0801 153.816 9.82811C153.76 9.57611 153.695 9.32877 153.62 9.08611C153.611 9.05811 153.588 8.99277 153.55 8.89011C153.522 8.78744 153.508 8.73144 153.508 8.72211C153.508 8.64744 153.532 8.59611 153.578 8.56811C153.625 8.53077 153.681 8.51211 153.746 8.51211C153.812 8.51211 153.858 8.53544 153.886 8.58211C153.942 8.64744 153.989 8.73611 154.026 8.84811C154.073 8.96011 154.115 9.05811 154.152 9.14211C154.227 9.29144 154.292 9.40811 154.348 9.49211C154.404 9.56677 154.493 9.66477 154.614 9.78611C154.978 10.1688 155.431 10.3601 155.972 10.3601C156.271 10.3601 156.542 10.3274 156.784 10.2621C157.036 10.1968 157.237 10.0754 157.386 9.89811C157.536 9.71144 157.61 9.44544 157.61 9.10011C157.61 8.80144 157.517 8.55411 157.33 8.35811C157.144 8.15277 156.901 7.97077 156.602 7.81211C156.313 7.65344 156.005 7.49944 155.678 7.35011C155.352 7.20077 155.039 7.03744 154.74 6.86011C154.451 6.67344 154.213 6.44944 154.026 6.18811C153.84 5.92677 153.746 5.60944 153.746 5.23611C153.746 4.77877 153.863 4.40544 154.096 4.11611C154.339 3.82677 154.647 3.61211 155.02 3.4721C155.394 3.32277 155.781 3.24811 156.182 3.24811C156.444 3.24811 156.677 3.28077 156.882 3.3461C157.097 3.41144 157.321 3.48611 157.554 3.57011C157.629 3.59811 157.704 3.61677 157.778 3.62611C157.853 3.63544 157.928 3.64011 158.002 3.64011C158.049 3.64011 158.091 3.64011 158.128 3.64011C158.166 3.64011 158.203 3.63544 158.24 3.62611C158.268 3.79411 158.292 3.96677 158.31 4.14411C158.338 4.31211 158.362 4.48477 158.38 4.66211C158.39 4.72744 158.399 4.80677 158.408 4.90011C158.427 4.98411 158.436 5.06344 158.436 5.13811C158.436 5.20344 158.422 5.27344 158.394 5.34811C158.366 5.41344 158.31 5.44611 158.226 5.44611C158.161 5.44611 158.105 5.44144 158.058 5.43211C158.021 5.41344 157.988 5.37144 157.96 5.30611C157.914 5.21277 157.872 5.11477 157.834 5.0121C157.806 4.90011 157.774 4.79744 157.736 4.70411C157.615 4.37744 157.405 4.11611 157.106 3.92011C156.808 3.71477 156.486 3.61211 156.14 3.61211C155.702 3.61211 155.37 3.74277 155.146 4.00411C154.922 4.25611 154.81 4.59677 154.81 5.02611C154.81 5.17544 154.848 5.32011 154.922 5.46011C155.006 5.60011 155.1 5.72144 155.202 5.82411C155.398 6.01077 155.627 6.15544 155.888 6.25811C156.159 6.36077 156.416 6.46344 156.658 6.56611C156.976 6.70611 157.302 6.87411 157.638 7.07011C157.984 7.26611 158.273 7.50411 158.506 7.78411C158.749 8.06411 158.87 8.40477 158.87 8.80611ZM167.975 10.4301C167.975 10.5421 167.891 10.6261 167.723 10.6821C167.564 10.7381 167.387 10.7754 167.191 10.7941C166.995 10.8128 166.855 10.8221 166.771 10.8221C166.453 10.8221 166.201 10.6961 166.015 10.4441C165.828 10.1921 165.688 9.93077 165.595 9.66011C165.277 10.0614 164.881 10.3601 164.405 10.5561C163.929 10.7521 163.434 10.8501 162.921 10.8501C162.081 10.8501 161.497 10.6354 161.171 10.2061C160.853 9.76744 160.695 9.15144 160.695 8.35811C160.695 7.65811 160.695 6.95811 160.695 6.25811C160.704 5.54877 160.713 4.84411 160.723 4.14411C160.723 3.86411 160.587 3.7241 160.317 3.7241C160.242 3.7241 160.167 3.72877 160.093 3.73811C160.018 3.74744 159.943 3.75211 159.869 3.75211C159.841 3.75211 159.817 3.73811 159.799 3.71011C159.789 3.67277 159.785 3.64477 159.785 3.62611C159.785 3.52344 159.831 3.46744 159.925 3.4581C160.251 3.42077 160.578 3.39744 160.905 3.38811C161.241 3.36944 161.572 3.34144 161.899 3.30411C161.973 3.37877 162.011 3.47211 162.011 3.58411C162.011 3.81744 162.006 4.05544 161.997 4.29811C161.987 4.54077 161.983 4.78344 161.983 5.02611C161.973 5.59544 161.964 6.16944 161.955 6.74811C161.955 7.31744 161.955 7.89144 161.955 8.47011C161.955 8.64744 161.959 8.83877 161.969 9.04411C161.978 9.24011 162.015 9.42211 162.081 9.59011C162.183 9.85144 162.375 10.0381 162.655 10.1501C162.944 10.2528 163.219 10.3041 163.481 10.3041C163.77 10.3041 164.059 10.2528 164.349 10.1501C164.647 10.0381 164.899 9.87944 165.105 9.67411C165.319 9.45944 165.441 9.19344 165.469 8.87611C165.487 8.71744 165.497 8.55877 165.497 8.40011C165.506 8.23211 165.511 8.06877 165.511 7.91011L165.497 4.10211C165.497 3.98077 165.455 3.89211 165.371 3.83611C165.296 3.78011 165.207 3.75211 165.105 3.75211C165.011 3.75211 164.918 3.75677 164.825 3.76611C164.741 3.77544 164.652 3.7801 164.559 3.7801C164.475 3.7801 164.433 3.73344 164.433 3.64011C164.433 3.54677 164.475 3.49544 164.559 3.48611C164.671 3.46744 164.787 3.4581 164.909 3.4581C165.03 3.44877 165.151 3.43944 165.273 3.43011L166.239 3.3321C166.304 3.32277 166.369 3.31344 166.435 3.30411C166.509 3.29477 166.579 3.29011 166.645 3.29011C166.691 3.29011 166.724 3.31811 166.743 3.37411C166.761 3.42077 166.771 3.45811 166.771 3.48611C166.743 5.51144 166.729 7.53211 166.729 9.54811C166.729 9.78144 166.78 9.97277 166.883 10.1221C166.995 10.2714 167.177 10.3461 167.429 10.3461C167.503 10.3461 167.569 10.3368 167.625 10.3181C167.69 10.2994 167.755 10.2901 167.821 10.2901C167.923 10.2901 167.975 10.3368 167.975 10.4301ZM173.182 9.17011C173.144 8.75011 173.121 8.33011 173.112 7.91011C173.112 7.48077 173.107 7.05144 173.098 6.62211H172.902C172.612 6.62211 172.29 6.66877 171.936 6.76211C171.59 6.84611 171.259 6.97677 170.942 7.15411C170.624 7.33144 170.363 7.55544 170.158 7.82611C169.962 8.08744 169.864 8.39077 169.864 8.73611C169.864 9.18411 169.99 9.52477 170.242 9.75811C170.494 9.98211 170.834 10.0941 171.264 10.0941C171.469 10.0941 171.693 10.0474 171.936 9.95411C172.178 9.85144 172.412 9.73011 172.636 9.59011C172.86 9.45011 173.042 9.31011 173.182 9.17011ZM175.632 10.0661C175.632 10.1034 175.627 10.1314 175.618 10.1501C175.524 10.3554 175.366 10.5141 175.142 10.6261C174.927 10.7288 174.712 10.7801 174.498 10.7801C174.106 10.7801 173.821 10.6681 173.644 10.4441C173.476 10.2108 173.34 9.92611 173.238 9.59011C172.883 9.91677 172.491 10.1921 172.062 10.4161C171.632 10.6308 171.17 10.7381 170.676 10.7381C170.33 10.7381 170.004 10.6728 169.696 10.5421C169.397 10.4021 169.154 10.2014 168.968 9.94011C168.781 9.67877 168.688 9.36144 168.688 8.98811C168.688 8.59611 168.786 8.26011 168.982 7.98011C169.187 7.69077 169.444 7.44811 169.752 7.25211C170.069 7.04677 170.405 6.88344 170.76 6.76211C171.124 6.63144 171.464 6.53344 171.782 6.46811C171.996 6.42144 172.216 6.37944 172.44 6.34211C172.664 6.30477 172.883 6.26744 173.098 6.23011C173.098 5.96877 173.084 5.66544 173.056 5.32011C173.037 4.97477 172.967 4.69011 172.846 4.46611C172.724 4.25144 172.561 4.06011 172.356 3.89211C172.15 3.72411 171.922 3.64011 171.67 3.64011C171.24 3.64011 170.904 3.75211 170.662 3.9761C170.419 4.20011 170.246 4.51744 170.144 4.92811C170.134 4.97477 170.125 5.02611 170.116 5.08211C170.116 5.12877 170.111 5.17544 170.102 5.22211C170.092 5.27811 170.055 5.32944 169.99 5.37611C169.934 5.41344 169.873 5.43211 169.808 5.43211C169.63 5.43211 169.467 5.39011 169.318 5.30611C169.178 5.22211 169.108 5.08211 169.108 4.88611C169.108 4.77411 169.126 4.67611 169.164 4.5921C169.285 4.30277 169.481 4.06477 169.752 3.8781C170.022 3.68211 170.321 3.53277 170.648 3.43011C170.984 3.32744 171.296 3.2761 171.586 3.2761C172.09 3.2761 172.547 3.36944 172.958 3.55611C173.368 3.74277 173.695 4.01811 173.938 4.38211C174.19 4.73677 174.316 5.18477 174.316 5.72611C174.316 6.33277 174.311 6.94411 174.302 7.56011C174.302 8.17611 174.32 8.79211 174.358 9.40811C174.367 9.61344 174.409 9.79544 174.484 9.95411C174.558 10.1034 174.712 10.1781 174.946 10.1781C175.067 10.1781 175.193 10.1501 175.324 10.0941C175.464 10.0288 175.552 9.99611 175.59 9.99611C175.618 9.99611 175.632 10.0194 175.632 10.0661ZM173.784 1.2041L170.228 1.9181L170.06 1.28811L173.56 0.280105L173.784 1.2041ZM181.819 4.57811C181.819 4.67144 181.781 4.76011 181.707 4.84411C181.641 4.91877 181.557 4.95611 181.455 4.95611C181.315 4.95611 181.212 4.90944 181.147 4.81611C181.091 4.72277 181.039 4.61544 180.993 4.4941C180.955 4.37277 180.895 4.26544 180.811 4.1721C180.727 4.07877 180.587 4.03211 180.391 4.03211C180.353 4.03211 180.316 4.03211 180.279 4.03211C180.251 4.03211 180.218 4.03677 180.181 4.04611C180.022 4.07411 179.849 4.17211 179.663 4.34011C179.476 4.50811 179.294 4.70877 179.117 4.94211C178.949 5.16611 178.809 5.39011 178.697 5.61411C178.585 5.83811 178.524 6.02477 178.515 6.17411C178.505 6.32344 178.501 6.47277 178.501 6.62211C178.501 6.76211 178.501 6.90211 178.501 7.04211C178.501 7.54611 178.501 8.05011 178.501 8.55411C178.51 9.05811 178.515 9.55744 178.515 10.0521C178.515 10.1921 178.571 10.2948 178.683 10.3601C178.804 10.4161 178.925 10.4441 179.047 10.4441C179.14 10.4441 179.233 10.4394 179.327 10.4301C179.42 10.4208 179.513 10.4161 179.607 10.4161C179.653 10.4161 179.686 10.4394 179.705 10.4861C179.723 10.5234 179.733 10.5608 179.733 10.5981C179.733 10.7474 179.658 10.8221 179.509 10.8221C179.229 10.8221 178.949 10.8174 178.669 10.8081C178.389 10.7894 178.109 10.7801 177.829 10.7801C177.539 10.7801 177.245 10.7894 176.947 10.8081C176.657 10.8268 176.363 10.8361 176.065 10.8361C176.027 10.8361 175.999 10.8081 175.981 10.7521C175.971 10.6961 175.967 10.6494 175.967 10.6121C175.967 10.5188 176.004 10.4674 176.079 10.4581C176.181 10.4394 176.289 10.4348 176.401 10.4441C176.513 10.4534 176.615 10.4581 176.709 10.4581C176.849 10.4581 176.961 10.4301 177.045 10.3741C177.138 10.3088 177.189 10.2014 177.199 10.0521C177.217 9.75344 177.227 9.45011 177.227 9.14211C177.236 8.83411 177.241 8.52611 177.241 8.21811V6.86011C177.231 6.45877 177.227 6.06211 177.227 5.67011C177.236 5.26877 177.222 4.87211 177.185 4.48011C177.175 4.29344 177.124 4.16277 177.031 4.08811C176.937 4.00411 176.797 3.96211 176.611 3.96211C176.536 3.96211 176.457 3.97144 176.373 3.99011C176.298 3.99944 176.219 4.00411 176.135 4.00411C176.06 4.00411 176.023 3.94811 176.023 3.83611C176.023 3.77077 176.055 3.72411 176.121 3.69611C176.214 3.66811 176.312 3.64944 176.415 3.64011C176.517 3.62144 176.615 3.60744 176.709 3.5981C176.961 3.55144 177.213 3.50477 177.465 3.4581C177.717 3.41144 177.969 3.35544 178.221 3.29011C178.305 3.31811 178.365 3.36944 178.403 3.44411C178.421 3.48144 178.435 3.58411 178.445 3.75211C178.454 3.92011 178.459 4.11611 178.459 4.34011C178.459 4.55477 178.459 4.76011 178.459 4.95611C178.459 5.14277 178.459 5.27344 178.459 5.34811C178.664 5.02144 178.897 4.69477 179.159 4.36811C179.42 4.04144 179.719 3.77077 180.055 3.55611C180.391 3.34144 180.769 3.23411 181.189 3.23411C181.413 3.23411 181.557 3.30411 181.623 3.44411C181.688 3.58411 181.73 3.74744 181.749 3.93411C181.767 4.03677 181.781 4.14411 181.791 4.25611C181.809 4.36811 181.819 4.47544 181.819 4.57811ZM186.387 10.5981C186.387 10.6448 186.373 10.6914 186.345 10.7381C186.317 10.7754 186.28 10.7941 186.233 10.7941C185.972 10.7941 185.711 10.7894 185.449 10.7801C185.197 10.7614 184.936 10.7521 184.665 10.7521H184.287C184.007 10.7521 183.727 10.7614 183.447 10.7801C183.177 10.7894 182.906 10.7941 182.635 10.7941C182.598 10.7941 182.57 10.7708 182.551 10.7241C182.542 10.6774 182.537 10.6401 182.537 10.6121C182.537 10.5654 182.542 10.5328 182.551 10.5141C182.561 10.4861 182.589 10.4674 182.635 10.4581C182.682 10.4394 182.733 10.4348 182.789 10.4441C182.855 10.4441 182.915 10.4441 182.971 10.4441C183.037 10.4441 183.097 10.4488 183.153 10.4581C183.209 10.4581 183.27 10.4581 183.335 10.4581C183.466 10.4581 183.583 10.4301 183.685 10.3741C183.797 10.3088 183.853 10.2014 183.853 10.0521V4.45211C183.853 4.29344 183.825 4.17211 183.769 4.08811C183.713 3.99477 183.597 3.94811 183.419 3.94811C183.289 3.94811 183.153 3.95744 183.013 3.9761C182.883 3.98544 182.752 3.99944 182.621 4.01811C182.547 4.01811 182.509 3.97611 182.509 3.89211C182.509 3.79877 182.547 3.73811 182.621 3.71011C182.733 3.67277 182.85 3.64944 182.971 3.64011C183.102 3.62144 183.223 3.60277 183.335 3.58411C183.597 3.53744 183.858 3.48611 184.119 3.43011C184.381 3.3741 184.637 3.31344 184.889 3.24811C184.917 3.23877 184.955 3.23411 185.001 3.23411C185.104 3.23411 185.155 3.29011 185.155 3.4021C185.155 4.50344 185.151 5.60944 185.141 6.72011C185.141 7.83077 185.141 8.94144 185.141 10.0521C185.141 10.2014 185.207 10.3088 185.337 10.3741C185.477 10.4301 185.608 10.4581 185.729 10.4581C185.823 10.4581 185.916 10.4534 186.009 10.4441C186.112 10.4348 186.21 10.4301 186.303 10.4301C186.341 10.4301 186.364 10.4534 186.373 10.5001C186.383 10.5468 186.387 10.5794 186.387 10.5981ZM185.253 0.910105C185.253 1.14344 185.169 1.3441 185.001 1.5121C184.833 1.67077 184.633 1.75011 184.399 1.75011C184.166 1.75011 183.965 1.67077 183.797 1.5121C183.629 1.3441 183.545 1.14344 183.545 0.910105C183.545 0.676772 183.629 0.480772 183.797 0.322105C183.965 0.154105 184.166 0.0701052 184.399 0.0701052C184.633 0.0701052 184.833 0.154105 185.001 0.322105C185.169 0.480772 185.253 0.676772 185.253 0.910105ZM193.356 7.11211C193.356 6.71077 193.323 6.30944 193.258 5.90811C193.202 5.49744 193.09 5.11944 192.922 4.77411C192.763 4.42877 192.53 4.15344 192.222 3.94811C191.914 3.73344 191.513 3.62611 191.018 3.62611C190.551 3.62611 190.169 3.73811 189.87 3.96211C189.581 4.18611 189.352 4.47544 189.184 4.83011C189.025 5.18477 188.913 5.56744 188.848 5.97811C188.792 6.38877 188.764 6.77611 188.764 7.14011C188.764 7.54144 188.792 7.94277 188.848 8.34411C188.913 8.74544 189.03 9.10944 189.198 9.43611C189.366 9.75344 189.604 10.0101 189.912 10.2061C190.229 10.4021 190.635 10.5001 191.13 10.5001C191.615 10.5001 192.003 10.3974 192.292 10.1921C192.591 9.98677 192.815 9.71611 192.964 9.38011C193.123 9.04411 193.225 8.68011 193.272 8.28811C193.328 7.88677 193.356 7.49477 193.356 7.11211ZM194.798 7.15411C194.798 7.85411 194.63 8.48411 194.294 9.04411C193.967 9.60411 193.519 10.0474 192.95 10.3741C192.39 10.7008 191.76 10.8641 191.06 10.8641C190.379 10.8641 189.763 10.7008 189.212 10.3741C188.661 10.0381 188.223 9.59477 187.896 9.04411C187.569 8.48411 187.406 7.86344 187.406 7.18211C187.406 6.48211 187.565 5.83811 187.882 5.25011C188.199 4.65277 188.633 4.17211 189.184 3.80811C189.744 3.44411 190.388 3.2621 191.116 3.2621C191.9 3.2621 192.567 3.43011 193.118 3.76611C193.669 4.09277 194.084 4.55011 194.364 5.13811C194.653 5.71677 194.798 6.38877 194.798 7.15411ZM198.874 9.78611C198.874 10.0474 198.776 10.2668 198.58 10.4441C198.384 10.6214 198.155 10.7101 197.894 10.7101C197.632 10.7101 197.404 10.6214 197.208 10.4441C197.012 10.2668 196.914 10.0474 196.914 9.78611C196.914 9.51544 197.012 9.29144 197.208 9.11411C197.404 8.93677 197.632 8.84811 197.894 8.84811C198.155 8.84811 198.384 8.93677 198.58 9.11411C198.776 9.29144 198.874 9.51544 198.874 9.78611ZM203.768 9.78611C203.768 10.0474 203.67 10.2668 203.474 10.4441C203.278 10.6214 203.049 10.7101 202.788 10.7101C202.527 10.7101 202.298 10.6214 202.102 10.4441C201.906 10.2668 201.808 10.0474 201.808 9.78611C201.808 9.51544 201.906 9.29144 202.102 9.11411C202.298 8.93677 202.527 8.84811 202.788 8.84811C203.049 8.84811 203.278 8.93677 203.474 9.11411C203.67 9.29144 203.768 9.51544 203.768 9.78611ZM208.663 9.78611C208.663 10.0474 208.565 10.2668 208.369 10.4441C208.173 10.6214 207.944 10.7101 207.683 10.7101C207.421 10.7101 207.193 10.6214 206.997 10.4441C206.801 10.2668 206.703 10.0474 206.703 9.78611C206.703 9.51544 206.801 9.29144 206.997 9.11411C207.193 8.93677 207.421 8.84811 207.683 8.84811C207.944 8.84811 208.173 8.93677 208.369 9.11411C208.565 9.29144 208.663 9.51544 208.663 9.78611Z" fill="#767676"/>
</svg>
