<svg width="8" height="12" viewBox="0 0 8 12" fill="none" xmlns="http://www.w3.org/2000/svg">
<path d="M7.74401 7.82402C7.74401 8.50669 7.61601 9.09869 7.36001 9.60002C7.10401 10.0907 6.75201 10.496 6.30401 10.816C5.86667 11.136 5.36534 11.376 4.80001 11.536C4.24534 11.6854 3.66401 11.76 3.05601 11.76C2.71467 11.76 2.35734 11.728 1.98401 11.664C1.62134 11.6 1.28001 11.4827 0.960006 11.312C0.650672 11.1414 0.405339 10.896 0.224006 10.576C0.0746725 10.3307 5.78165e-06 10.0587 5.78165e-06 9.76002C5.78165e-06 9.51469 0.0693391 9.33335 0.208006 9.21602C0.357339 9.08802 0.549339 9.02402 0.784006 9.02402C1.10401 9.02402 1.28001 9.16802 1.31201 9.45602C1.35467 9.75469 1.43467 10.048 1.55201 10.336C1.68001 10.6134 1.85601 10.8427 2.08001 11.024C2.31467 11.2054 2.60267 11.296 2.94401 11.296C4.05334 11.296 4.84267 11.024 5.31201 10.48C5.79201 9.92535 6.03201 9.10935 6.03201 8.03202C6.03201 7.31735 5.84001 6.73068 5.45601 6.27202C5.08267 5.80269 4.52801 5.56802 3.79201 5.56802C3.65334 5.56802 3.50401 5.57869 3.34401 5.60002C3.18401 5.61069 3.03467 5.63202 2.89601 5.66402C2.82134 5.67469 2.74134 5.70135 2.65601 5.74402C2.57067 5.77602 2.48534 5.79202 2.40001 5.79202C2.32534 5.79202 2.27734 5.76002 2.25601 5.69602C2.24534 5.63202 2.24001 5.57335 2.24001 5.52002C2.24001 5.44535 2.25067 5.36535 2.27201 5.28002C2.29334 5.19468 2.35201 5.15202 2.44801 5.15202C2.48001 5.15202 2.51201 5.15735 2.54401 5.16802C2.58667 5.16802 2.62934 5.16802 2.67201 5.16802C2.88534 5.16802 3.09867 5.16802 3.31201 5.16802C3.53601 5.15735 3.74934 5.12535 3.95201 5.07202C4.54934 4.90135 4.97067 4.62402 5.21601 4.24002C5.47201 3.84535 5.60001 3.34402 5.60001 2.73602C5.60001 2.32002 5.54134 1.94135 5.42401 1.60002C5.31734 1.25869 5.13067 0.986685 4.86401 0.784018C4.59734 0.581351 4.22934 0.480018 3.76001 0.480018C3.05601 0.480018 2.52267 0.698684 2.16001 1.13602C1.80801 1.56268 1.63201 2.11202 1.63201 2.78402C1.63201 3.01868 1.50401 3.13602 1.24801 3.13602C1.00267 3.13602 0.794672 3.07202 0.624006 2.94402C0.464006 2.81602 0.384006 2.61868 0.384006 2.35202C0.384006 2.23468 0.426672 2.06935 0.512006 1.85602C0.608006 1.64268 0.693339 1.48802 0.768006 1.39202C1.17334 0.869351 1.68534 0.506685 2.30401 0.304018C2.93334 0.101351 3.56267 1.81198e-05 4.19201 1.81198e-05C4.68267 1.81198e-05 5.15734 0.0960182 5.61601 0.288018C6.07467 0.480018 6.45334 0.762685 6.75201 1.13602C7.05067 1.49868 7.20001 1.95202 7.20001 2.49602C7.20001 2.89069 7.08801 3.26935 6.86401 3.63202C6.65067 3.99468 6.40001 4.29868 6.11201 4.54402C5.88801 4.74668 5.63734 4.90668 5.36001 5.02402C5.08267 5.14135 4.80534 5.23735 4.52801 5.31202C4.73067 5.32268 4.97601 5.34402 5.26401 5.37602C5.56267 5.40802 5.80267 5.46135 5.98401 5.53602C6.48534 5.70669 6.90134 5.99469 7.23201 6.40002C7.57334 6.79468 7.74401 7.26935 7.74401 7.82402Z" fill="#1C2434"/>
</svg>
