<svg width="50" height="14" viewBox="0 0 50 14" fill="none" xmlns="http://www.w3.org/2000/svg">
<path d="M-8.9407e-06 11.4546V1.27274H3.44033C4.23579 1.27274 4.88872 1.40863 5.39914 1.68041C5.90956 1.94888 6.2874 2.31843 6.53266 2.78908C6.77793 3.25972 6.90056 3.79499 6.90056 4.3949C6.90056 4.99481 6.77793 5.52677 6.53266 5.99078C6.2874 6.4548 5.91121 6.81938 5.40411 7.08453C4.89701 7.34637 4.24904 7.47729 3.46022 7.47729H0.676127V6.36365H3.42045C3.96401 6.36365 4.40151 6.2841 4.73295 6.12501C5.0677 5.96592 5.30965 5.74054 5.4588 5.44888C5.61126 5.1539 5.68749 4.80257 5.68749 4.3949C5.68749 3.98723 5.61126 3.63093 5.4588 3.32601C5.30634 3.02108 5.06273 2.78576 4.72797 2.62004C4.39322 2.45101 3.95075 2.36649 3.40056 2.36649H1.23295V11.4546H-8.9407e-06ZM4.7926 6.8807L7.29829 11.4546H5.86647L3.40056 6.8807H4.7926ZM11.7789 12.7273V1.3113e-05H12.5943V12.7273H11.7789ZM14.5233 3.8182C14.4636 3.31441 14.2216 2.92331 13.7974 2.6449C13.3732 2.36649 12.8528 2.22729 12.2363 2.22729C11.7856 2.22729 11.3911 2.3002 11.0531 2.44604C10.7183 2.59187 10.4565 2.79239 10.2676 3.0476C10.082 3.30281 9.98916 3.59282 9.98916 3.91763C9.98916 4.18941 10.0538 4.42307 10.1831 4.61862C10.3156 4.81086 10.4847 4.9716 10.6902 5.10087C10.8956 5.22681 11.1111 5.33122 11.3365 5.41408C11.5618 5.49362 11.769 5.55825 11.9579 5.60797L12.992 5.88638C13.2572 5.95598 13.5521 6.0521 13.8769 6.17473C14.2051 6.29736 14.5183 6.46474 14.8166 6.67686C15.1182 6.88567 15.3668 7.15413 15.5623 7.48226C15.7579 7.81038 15.8556 8.21308 15.8556 8.69035C15.8556 9.24054 15.7115 9.7377 15.4231 10.1818C15.1381 10.626 14.7205 10.9789 14.1703 11.2408C13.6234 11.5026 12.9589 11.6335 12.1767 11.6335C11.4475 11.6335 10.8161 11.5159 10.2825 11.2806C9.75218 11.0452 9.33457 10.7171 9.02964 10.2962C8.72803 9.87525 8.55734 9.38638 8.51757 8.82956H9.7903C9.82344 9.21403 9.9527 9.53221 10.1781 9.7841C10.4068 10.0327 10.6951 10.2183 11.0431 10.3409C11.3945 10.4602 11.7723 10.5199 12.1767 10.5199C12.6473 10.5199 13.0699 10.4437 13.4444 10.2912C13.8189 10.1354 14.1156 9.91999 14.3343 9.6449C14.5531 9.36649 14.6625 9.04168 14.6625 8.67047C14.6625 8.3324 14.568 8.05731 14.3791 7.84518C14.1902 7.63306 13.9416 7.46071 13.6333 7.32814C13.3251 7.19556 12.992 7.07956 12.634 6.98013L11.3812 6.62217C10.5858 6.39348 9.95602 6.06701 9.492 5.64277C9.02799 5.21853 8.79598 4.66337 8.79598 3.97729C8.79598 3.40721 8.9501 2.91005 9.25834 2.48581C9.56989 2.05825 9.9875 1.72681 10.5112 1.49149C11.0382 1.25285 11.6265 1.13354 12.2761 1.13354C12.9323 1.13354 13.5157 1.2512 14.0261 1.48652C14.5365 1.71853 14.9409 2.03671 15.2392 2.44106C15.5408 2.84542 15.6999 3.30446 15.7164 3.8182H14.5233ZM24.8828 1.13354C25.3004 1.13685 25.718 1.2164 26.1356 1.37217C26.5533 1.52795 26.9344 1.78647 27.2791 2.14774C27.6238 2.5057 27.9006 2.99457 28.1094 3.61436C28.3182 4.23415 28.4226 5.01138 28.4226 5.94604C28.4226 6.85087 28.3364 7.65461 28.1641 8.35726C27.995 9.0566 27.7498 9.64656 27.4283 10.1271C27.1101 10.6077 26.7223 10.9723 26.2649 11.2209C25.8108 11.4695 25.2971 11.5938 24.7237 11.5938C24.1536 11.5938 23.6449 11.4811 23.1974 11.2557C22.7533 11.027 22.3887 10.7105 22.1037 10.3061C21.822 9.89845 21.6413 9.42615 21.5618 8.88922H22.7748C22.8842 9.35655 23.1013 9.74267 23.4261 10.0476C23.7543 10.3492 24.1868 10.5 24.7237 10.5C25.5092 10.5 26.129 10.157 26.5831 9.47089C27.0405 8.78481 27.2692 7.81535 27.2692 6.56251H27.1896C27.004 6.84092 26.7836 7.08122 26.5284 7.28339C26.2732 7.48557 25.9898 7.64135 25.6783 7.75072C25.3667 7.8601 25.0353 7.91479 24.6839 7.91479C24.1006 7.91479 23.5653 7.77061 23.0781 7.48226C22.5942 7.19059 22.2064 6.79121 21.9148 6.2841C21.6264 5.77369 21.4822 5.19035 21.4822 4.5341C21.4822 3.911 21.6214 3.34092 21.8998 2.82388C22.1816 2.30352 22.576 1.88922 23.0831 1.58098C23.5935 1.27274 24.1934 1.12359 24.8828 1.13354ZM24.8828 2.22729C24.4652 2.22729 24.089 2.33169 23.7543 2.5405C23.4228 2.74599 23.1593 3.0244 22.9638 3.37572C22.7715 3.72374 22.6754 4.10986 22.6754 4.5341C22.6754 4.95835 22.7682 5.34447 22.9538 5.69249C23.1427 6.03718 23.3996 6.31228 23.7244 6.51777C24.0525 6.71995 24.4254 6.82104 24.843 6.82104C25.1579 6.82104 25.4512 6.75972 25.723 6.63709C25.9948 6.51114 26.2318 6.34045 26.4339 6.12501C26.6394 5.90626 26.8002 5.65934 26.9162 5.38425C27.0322 5.10584 27.0902 4.81583 27.0902 4.51422C27.0902 4.11649 26.9941 3.74362 26.8018 3.39561C26.6129 3.0476 26.3511 2.76588 26.0163 2.55044C25.6849 2.335 25.307 2.22729 24.8828 2.22729ZM31.7921 10.0625L31.7125 10.5994C31.6562 10.9773 31.57 11.3816 31.454 11.8125C31.3413 12.2434 31.2237 12.6494 31.101 13.0306C30.9784 13.4117 30.8773 13.715 30.7978 13.9404H29.9029C29.946 13.7282 30.0023 13.4482 30.0719 13.1002C30.1415 12.7521 30.2111 12.3627 30.2807 11.9318C30.3536 11.5043 30.4133 11.0668 30.4597 10.6193L30.5193 10.0625H31.7921ZM36.8929 11.5938C36.2102 11.5938 35.6069 11.4728 35.0833 11.2308C34.5629 10.9856 34.1569 10.6492 33.8652 10.2216C33.5736 9.79073 33.4294 9.3002 33.4327 8.75001C33.4294 8.31914 33.5139 7.92142 33.6862 7.55683C33.8586 7.18893 34.0939 6.88235 34.3922 6.63709C34.6938 6.38851 35.0302 6.23107 35.4014 6.16479V6.10513C34.9142 5.97918 34.5264 5.70574 34.2381 5.28481C33.9497 4.86057 33.8072 4.37833 33.8105 3.83808C33.8072 3.32104 33.9381 2.85868 34.2033 2.45101C34.4684 2.04334 34.833 1.72184 35.297 1.48652C35.7644 1.2512 36.2963 1.13354 36.8929 1.13354C37.4829 1.13354 38.0099 1.2512 38.4739 1.48652C38.9379 1.72184 39.3025 2.04334 39.5676 2.45101C39.8361 2.85868 39.972 3.32104 39.9753 3.83808C39.972 4.37833 39.8245 4.86057 39.5328 5.28481C39.2445 5.70574 38.8617 5.97918 38.3844 6.10513V6.16479C38.7523 6.23107 39.0837 6.38851 39.3787 6.63709C39.6737 6.88235 39.909 7.18893 40.0847 7.55683C40.2603 7.92142 40.3498 8.31914 40.3532 8.75001C40.3498 9.3002 40.2007 9.79073 39.9057 10.2216C39.614 10.6492 39.208 10.9856 38.6877 11.2308C38.1706 11.4728 37.5724 11.5938 36.8929 11.5938ZM36.8929 10.5C37.3536 10.5 37.7514 10.4254 38.0861 10.2763C38.4209 10.1271 38.6794 9.91668 38.8617 9.6449C39.044 9.37312 39.1368 9.05494 39.1401 8.69035C39.1368 8.30588 39.0373 7.96616 38.8418 7.67118C38.6462 7.3762 38.3794 7.14419 38.0414 6.97516C37.7066 6.80612 37.3238 6.7216 36.8929 6.7216C36.4587 6.7216 36.071 6.80612 35.7296 6.97516C35.3915 7.14419 35.1247 7.3762 34.9291 7.67118C34.7369 7.96616 34.6425 8.30588 34.6458 8.69035C34.6425 9.05494 34.7303 9.37312 34.9093 9.6449C35.0916 9.91668 35.3517 10.1271 35.6898 10.2763C36.0279 10.4254 36.4289 10.5 36.8929 10.5ZM36.8929 5.66763C37.2575 5.66763 37.5807 5.59471 37.8624 5.44888C38.1474 5.30304 38.3711 5.09921 38.5335 4.83737C38.696 4.57553 38.7788 4.26895 38.7821 3.91763C38.7788 3.57293 38.6976 3.27298 38.5385 3.01777C38.3794 2.75925 38.159 2.56038 37.8773 2.42118C37.5956 2.27866 37.2675 2.2074 36.8929 2.2074C36.5118 2.2074 36.1787 2.27866 35.8936 2.42118C35.6086 2.56038 35.3882 2.75925 35.2324 3.01777C35.0766 3.27298 35.0004 3.57293 35.0037 3.91763C35.0004 4.26895 35.0783 4.57553 35.2374 4.83737C35.3998 5.09921 35.6235 5.30304 35.9085 5.44888C36.1936 5.59471 36.5217 5.66763 36.8929 5.66763ZM45.5795 11.5938C44.8305 11.5938 44.1925 11.3899 43.6655 10.9823C43.1385 10.5713 42.7358 9.97634 42.4574 9.19746C42.179 8.41526 42.0398 7.47066 42.0398 6.36365C42.0398 5.26327 42.179 4.32364 42.4574 3.54476C42.7391 2.76256 43.1435 2.16597 43.6704 1.75498C44.2007 1.34069 44.8371 1.13354 45.5795 1.13354C46.322 1.13354 46.9567 1.34069 47.4837 1.75498C48.014 2.16597 48.4183 2.76256 48.6967 3.54476C48.9784 4.32364 49.1193 5.26327 49.1193 6.36365C49.1193 7.47066 48.9801 8.41526 48.7017 9.19746C48.4233 9.97634 48.0206 10.5713 47.4936 10.9823C46.9666 11.3899 46.3286 11.5938 45.5795 11.5938ZM45.5795 10.5C46.322 10.5 46.8987 10.1421 47.3097 9.42615C47.7206 8.71024 47.9261 7.68941 47.9261 6.36365C47.9261 5.48202 47.8317 4.73131 47.6427 4.11152C47.4571 3.49173 47.1887 3.01943 46.8373 2.69462C46.4893 2.36981 46.0701 2.2074 45.5795 2.2074C44.8437 2.2074 44.2687 2.57033 43.8544 3.29618C43.4401 4.01872 43.2329 5.04121 43.2329 6.36365C43.2329 7.24528 43.3257 7.99433 43.5114 8.61081C43.697 9.22729 43.9638 9.69627 44.3118 10.0178C44.6631 10.3393 45.0857 10.5 45.5795 10.5Z" fill="#1C2434"/>
</svg>
