<svg width="95" height="34" viewBox="0 0 95 34" fill="none" xmlns="http://www.w3.org/2000/svg">
<path d="M7.2926 3.25996C7.22015 2.64821 6.92636 2.17331 6.4112 1.83524C5.89605 1.49717 5.26419 1.32814 4.51561 1.32814C3.96826 1.32814 3.48933 1.41668 3.07882 1.59376C2.67233 1.77085 2.35439 2.01434 2.12498 2.32423C1.8996 2.63413 1.78691 2.98628 1.78691 3.3807C1.78691 3.71071 1.86539 3.99445 2.02235 4.2319C2.18334 4.46533 2.38859 4.66052 2.63812 4.81749C2.88765 4.97042 3.14925 5.0972 3.42292 5.19781C3.6966 5.2944 3.94814 5.37288 4.17754 5.43325L5.43322 5.77132C5.75519 5.85584 6.11338 5.97255 6.50779 6.12146C6.90623 6.27037 7.28656 6.47362 7.64878 6.73119C8.01502 6.98474 8.31686 7.31074 8.55432 7.70918C8.79177 8.10761 8.91049 8.5966 8.91049 9.17615C8.91049 9.84424 8.73542 10.4479 8.38528 10.9872C8.03916 11.5265 7.53206 11.9552 6.86397 12.2731C6.19991 12.591 5.39297 12.75 4.44316 12.75C3.55775 12.75 2.79106 12.6071 2.14309 12.3214C1.49915 12.0356 0.992051 11.6372 0.621786 11.1261C0.255545 10.615 0.0482774 10.0213 -1.80043e-05 9.34518H1.54544C1.58568 9.81204 1.74264 10.1984 2.01632 10.5043C2.29402 10.8061 2.64416 11.0315 3.06674 11.1804C3.49335 11.3253 3.95216 11.3977 4.44316 11.3977C5.01466 11.3977 5.5278 11.3052 5.98258 11.12C6.43736 10.9309 6.79757 10.6693 7.06319 10.3352C7.32882 9.99717 7.46163 9.60276 7.46163 9.152C7.46163 8.74149 7.34693 8.40745 7.11753 8.14987C6.88812 7.8923 6.58627 7.68302 6.21198 7.52203C5.8377 7.36105 5.43322 7.22018 4.99856 7.09945L3.47726 6.66479C2.51135 6.38709 1.74667 5.99066 1.18322 5.47551C0.619774 4.96036 0.33805 4.28624 0.33805 3.45314C0.33805 2.7609 0.525195 2.15721 0.899485 1.64206C1.2778 1.12288 1.7849 0.720421 2.42079 0.434673C3.06071 0.1449 3.77508 1.3411e-05 4.5639 1.3411e-05C5.36078 1.3411e-05 6.06911 0.142887 6.6889 0.428635C7.30869 0.710359 7.7997 1.09672 8.16191 1.58773C8.52815 2.07873 8.72134 2.63614 8.74146 3.25996H7.2926ZM15.0667 12.7259C14.1732 12.7259 13.4025 12.5287 12.7545 12.1342C12.1106 11.7358 11.6135 11.1804 11.2634 10.4681C10.9173 9.75167 10.7442 8.91857 10.7442 7.96876C10.7442 7.01895 10.9173 6.18183 11.2634 5.4574C11.6135 4.72894 12.1005 4.16147 12.7243 3.75499C13.3522 3.34447 14.0846 3.13922 14.9218 3.13922C15.4047 3.13922 15.8816 3.21971 16.3525 3.3807C16.8234 3.54168 17.252 3.80328 17.6384 4.1655C18.0248 4.52369 18.3326 4.99859 18.562 5.59021C18.7914 6.18183 18.9061 6.91029 18.9061 7.77558V8.37928H11.7584V7.14774H17.4573C17.4573 6.62454 17.3526 6.15768 17.1434 5.74717C16.9381 5.33666 16.6443 5.01268 16.262 4.77523C15.8837 4.53777 15.4369 4.41905 14.9218 4.41905C14.3543 4.41905 13.8633 4.55991 13.4488 4.84163C13.0382 5.11933 12.7223 5.48155 12.501 5.92828C12.2796 6.37501 12.1689 6.85394 12.1689 7.36507V8.18609C12.1689 8.88638 12.2897 9.48001 12.5311 9.96699C12.7766 10.4499 13.1167 10.8182 13.5514 11.0717C13.986 11.3213 14.4911 11.446 15.0667 11.446C15.4409 11.446 15.779 11.3937 16.0809 11.2891C16.3867 11.1804 16.6503 11.0194 16.8717 10.8061C17.0931 10.5888 17.2641 10.3191 17.3848 9.99717L18.7613 10.3835C18.6164 10.8504 18.3729 11.2609 18.0308 11.6151C17.6887 11.9652 17.2661 12.2389 16.763 12.4361C16.26 12.6293 15.6945 12.7259 15.0667 12.7259ZM21.0734 12.5327V3.25996H22.4498V4.70882H22.5706C22.7637 4.21379 23.0757 3.82944 23.5063 3.55577C23.9369 3.27807 24.4541 3.13922 25.0578 3.13922C25.6695 3.13922 26.1786 3.27807 26.5851 3.55577C26.9956 3.82944 27.3156 4.21379 27.545 4.70882H27.6416C27.879 4.22989 28.2352 3.84956 28.7101 3.56784C29.185 3.28209 29.7545 3.13922 30.4186 3.13922C31.2476 3.13922 31.9258 3.39881 32.453 3.91798C32.9802 4.43313 33.2439 5.23605 33.2439 6.32672V12.5327H31.8191V6.32672C31.8191 5.64253 31.632 5.15354 31.2577 4.85974C30.8834 4.56595 30.4427 4.41905 29.9356 4.41905C29.2836 4.41905 28.7785 4.61625 28.4203 5.01067C28.0622 5.40106 27.8831 5.89608 27.8831 6.49575V12.5327H26.4342V6.18183C26.4342 5.65461 26.2632 5.23001 25.9211 4.90804C25.579 4.58204 25.1383 4.41905 24.599 4.41905C24.2287 4.41905 23.8826 4.51765 23.5606 4.71486C23.2427 4.91206 22.9851 5.18574 22.7879 5.53588C22.5947 5.882 22.4981 6.28245 22.4981 6.73723V12.5327H21.0734ZM39.7366 12.7259C38.8431 12.7259 38.0724 12.5287 37.4244 12.1342C36.7805 11.7358 36.2835 11.1804 35.9333 10.4681C35.5872 9.75167 35.4141 8.91857 35.4141 7.96876C35.4141 7.01895 35.5872 6.18183 35.9333 5.4574C36.2835 4.72894 36.7704 4.16147 37.3942 3.75499C38.0221 3.34447 38.7546 3.13922 39.5917 3.13922C40.0746 3.13922 40.5516 3.21971 41.0224 3.3807C41.4933 3.54168 41.9219 3.80328 42.3083 4.1655C42.6947 4.52369 43.0026 4.99859 43.232 5.59021C43.4614 6.18183 43.5761 6.91029 43.5761 7.77558V8.37928H36.4283V7.14774H42.1272C42.1272 6.62454 42.0226 6.15768 41.8133 5.74717C41.608 5.33666 41.3142 5.01268 40.9319 4.77523C40.5536 4.53777 40.1068 4.41905 39.5917 4.41905C39.0242 4.41905 38.5332 4.55991 38.1187 4.84163C37.7082 5.11933 37.3922 5.48155 37.1709 5.92828C36.9495 6.37501 36.8388 6.85394 36.8388 7.36507V8.18609C36.8388 8.88638 36.9596 9.48001 37.2011 9.96699C37.4466 10.4499 37.7866 10.8182 38.2213 11.0717C38.656 11.3213 39.1611 11.446 39.7366 11.446C40.1109 11.446 40.4489 11.3937 40.7508 11.2891C41.0567 11.1804 41.3203 11.0194 41.5416 10.8061C41.763 10.5888 41.934 10.3191 42.0548 9.99717L43.4312 10.3835C43.2863 10.8504 43.0428 11.2609 42.7007 11.6151C42.3586 11.9652 41.936 12.2389 41.433 12.4361C40.9299 12.6293 40.3644 12.7259 39.7366 12.7259ZM47.168 6.95456V12.5327H45.7433V3.25996H47.1197V4.70882H47.2405C47.4578 4.23794 47.7878 3.85963 48.2305 3.57388C48.6732 3.2841 49.2447 3.13922 49.945 3.13922C50.5729 3.13922 51.1222 3.26801 51.5931 3.52558C52.064 3.77913 52.4302 4.1655 52.6918 4.68467C52.9534 5.19982 53.0842 5.85181 53.0842 6.64064V12.5327H51.6595V6.73723C51.6595 6.00877 51.4704 5.4413 51.092 5.03481C50.7137 4.6243 50.1946 4.41905 49.5345 4.41905C49.0797 4.41905 48.6732 4.51765 48.3151 4.71486C47.9609 4.91206 47.6812 5.19982 47.4759 5.57814C47.2707 5.95645 47.168 6.41526 47.168 6.95456ZM59.7203 3.25996V4.46734H54.9149V3.25996H59.7203ZM56.3155 1.03837H57.7402V9.87643C57.7402 10.2789 57.7986 10.5807 57.9153 10.782C58.036 10.9792 58.189 11.112 58.3741 11.1804C58.5633 11.2448 58.7625 11.277 58.9718 11.277C59.1287 11.277 59.2575 11.269 59.3581 11.2529C59.4587 11.2327 59.5392 11.2166 59.5996 11.2046L59.8894 12.4844C59.7928 12.5206 59.6579 12.5568 59.4849 12.5931C59.3118 12.6333 59.0925 12.6534 58.8269 12.6534C58.4244 12.6534 58.03 12.5669 57.6436 12.3938C57.2613 12.2208 56.9433 11.9572 56.6898 11.603C56.4403 11.2488 56.3155 10.8021 56.3155 10.2628V1.03837ZM65.6516 12.7259C64.7581 12.7259 63.9874 12.5287 63.3395 12.1342C62.6955 11.7358 62.1985 11.1804 61.8483 10.4681C61.5022 9.75167 61.3292 8.91857 61.3292 7.96876C61.3292 7.01895 61.5022 6.18183 61.8483 5.4574C62.1985 4.72894 62.6855 4.16147 63.3093 3.75499C63.9371 3.34447 64.6696 3.13922 65.5067 3.13922C65.9897 3.13922 66.4666 3.21971 66.9375 3.3807C67.4084 3.54168 67.837 3.80328 68.2233 4.1655C68.6097 4.52369 68.9176 4.99859 69.147 5.59021C69.3764 6.18183 69.4911 6.91029 69.4911 7.77558V8.37928H62.3434V7.14774H68.0422C68.0422 6.62454 67.9376 6.15768 67.7283 5.74717C67.5231 5.33666 67.2293 5.01268 66.8469 4.77523C66.4686 4.53777 66.0219 4.41905 65.5067 4.41905C64.9393 4.41905 64.4483 4.55991 64.0337 4.84163C63.6232 5.11933 63.3073 5.48155 63.0859 5.92828C62.8646 6.37501 62.7539 6.85394 62.7539 7.36507V8.18609C62.7539 8.88638 62.8746 9.48001 63.1161 9.96699C63.3616 10.4499 63.7017 10.8182 64.1363 11.0717C64.571 11.3213 65.0761 11.446 65.6516 11.446C66.0259 11.446 66.364 11.3937 66.6658 11.2891C66.9717 11.1804 67.2353 11.0194 67.4567 10.8061C67.678 10.5888 67.8491 10.3191 67.9698 9.99717L69.3462 10.3835C69.2013 10.8504 68.9578 11.2609 68.6157 11.6151C68.2737 11.9652 67.8511 12.2389 67.348 12.4361C66.8449 12.6293 66.2795 12.7259 65.6516 12.7259ZM79.941 12.7259C79.1683 12.7259 78.4861 12.5307 77.8945 12.1403C77.3029 11.7459 76.8401 11.1905 76.506 10.4741C76.172 9.75368 76.005 8.90248 76.005 7.92047C76.005 6.94651 76.172 6.10134 76.506 5.38496C76.8401 4.66857 77.3049 4.11519 77.9006 3.7248C78.4962 3.33441 79.1844 3.13922 79.9652 3.13922C80.5689 3.13922 81.0458 3.23983 81.3959 3.44107C81.7501 3.63827 82.0198 3.86365 82.2049 4.1172C82.394 4.36673 82.5409 4.57198 82.6456 4.73297H82.7663V0.169048H84.191V12.5327H82.8146V11.108H82.6456C82.5409 11.277 82.392 11.4903 82.1988 11.7479C82.0057 12.0014 81.73 12.2288 81.3718 12.4301C81.0136 12.6273 80.5367 12.7259 79.941 12.7259ZM80.1342 11.446C80.7057 11.446 81.1887 11.2971 81.5831 10.9993C81.9775 10.6975 82.2773 10.2809 82.4826 9.74966C82.6878 9.21438 82.7905 8.5966 82.7905 7.89632C82.7905 7.20409 82.6898 6.59838 82.4886 6.0792C82.2874 5.556 81.9896 5.14952 81.5952 4.85974C81.2007 4.56595 80.7138 4.41905 80.1342 4.41905C79.5305 4.41905 79.0274 4.574 78.625 4.88389C78.2265 5.18976 77.9267 5.60631 77.7255 6.13354C77.5283 6.65674 77.4297 7.24433 77.4297 7.89632C77.4297 8.55636 77.5303 9.15603 77.7315 9.69533C77.9368 10.2306 78.2386 10.6572 78.6371 10.9752C79.0395 11.2891 79.5386 11.446 80.1342 11.446ZM90.886 12.7259C89.9925 12.7259 89.2218 12.5287 88.5738 12.1342C87.9299 11.7358 87.4329 11.1804 87.0827 10.4681C86.7366 9.75167 86.5635 8.91857 86.5635 7.96876C86.5635 7.01895 86.7366 6.18183 87.0827 5.4574C87.4329 4.72894 87.9198 4.16147 88.5437 3.75499C89.1715 3.34447 89.904 3.13922 90.7411 3.13922C91.2241 3.13922 91.701 3.21971 92.1719 3.3807C92.6427 3.54168 93.0714 3.80328 93.4577 4.1655C93.8441 4.52369 94.152 4.99859 94.3814 5.59021C94.6108 6.18183 94.7255 6.91029 94.7255 7.77558V8.37928H87.5778V7.14774H93.2766C93.2766 6.62454 93.172 6.15768 92.9627 5.74717C92.7574 5.33666 92.4636 5.01268 92.0813 4.77523C91.703 4.53777 91.2563 4.41905 90.7411 4.41905C90.1736 4.41905 89.6826 4.55991 89.2681 4.84163C88.8576 5.11933 88.5416 5.48155 88.3203 5.92828C88.0989 6.37501 87.9883 6.85394 87.9883 7.36507V8.18609C87.9883 8.88638 88.109 9.48001 88.3505 9.96699C88.596 10.4499 88.9361 10.8182 89.3707 11.0717C89.8054 11.3213 90.3105 11.446 90.886 11.446C91.2603 11.446 91.5983 11.3937 91.9002 11.2891C92.2061 11.1804 92.4697 11.0194 92.691 10.8061C92.9124 10.5888 93.0834 10.3191 93.2042 9.99717L94.5806 10.3835C94.4357 10.8504 94.1922 11.2609 93.8501 11.6151C93.508 11.9652 93.0854 12.2389 92.5824 12.4361C92.0793 12.6293 91.5138 12.7259 90.886 12.7259ZM27.1186 21.169H28.9056L33.1073 31.4318H33.2522L37.4539 21.169H39.2408V33.5327H37.8402V24.1392H37.7195L33.8559 33.5327H32.5036L28.6399 24.1392H28.5192V33.5327H27.1186V21.169ZM42.0495 33.5327V24.26H43.4742V33.5327H42.0495ZM42.7739 22.7145C42.4962 22.7145 42.2567 22.6199 42.0555 22.4308C41.8583 22.2416 41.7597 22.0142 41.7597 21.7486C41.7597 21.483 41.8583 21.2556 42.0555 21.0664C42.2567 20.8773 42.4962 20.7827 42.7739 20.7827C43.0516 20.7827 43.2891 20.8773 43.4863 21.0664C43.6875 21.2556 43.7881 21.483 43.7881 21.7486C43.7881 22.0142 43.6875 22.2416 43.4863 22.4308C43.2891 22.6199 43.0516 22.7145 42.7739 22.7145ZM47.5084 21.169V33.5327H46.0837V21.169H47.5084ZM51.5426 27.9546V33.5327H50.1178V21.169H51.5426V25.7088H51.6633C51.8806 25.2299 52.2066 24.8496 52.6413 24.5678C53.08 24.2821 53.6635 24.1392 54.392 24.1392C55.0238 24.1392 55.5772 24.266 56.0521 24.5195C56.527 24.7691 56.8953 25.1534 57.1569 25.6726C57.4225 26.1878 57.5553 26.8438 57.5553 27.6406V33.5327H56.1306V27.7372C56.1306 27.0007 55.9395 26.4312 55.5571 26.0288C55.1788 25.6223 54.6536 25.419 53.9815 25.419C53.5146 25.419 53.0961 25.5177 52.7258 25.7149C52.3595 25.9121 52.0698 26.1998 51.8565 26.5781C51.6472 26.9565 51.5426 27.4153 51.5426 27.9546ZM63.9288 33.7259C63.0917 33.7259 62.3572 33.5266 61.7253 33.1282C61.0975 32.7298 60.6065 32.1724 60.2523 31.456C59.9022 30.7396 59.7271 29.9025 59.7271 28.9446C59.7271 27.9787 59.9022 27.1355 60.2523 26.4151C60.6065 25.6947 61.0975 25.1353 61.7253 24.7369C62.3572 24.3384 63.0917 24.1392 63.9288 24.1392C64.7659 24.1392 65.4984 24.3384 66.1263 24.7369C66.7581 25.1353 67.2491 25.6947 67.5993 26.4151C67.9534 27.1355 68.1305 27.9787 68.1305 28.9446C68.1305 29.9025 67.9534 30.7396 67.5993 31.456C67.2491 32.1724 66.7581 32.7298 66.1263 33.1282C65.4984 33.5266 64.7659 33.7259 63.9288 33.7259ZM63.9288 32.446C64.5647 32.446 65.0879 32.283 65.4984 31.957C65.9089 31.6311 66.2128 31.2024 66.41 30.6712C66.6072 30.1399 66.7058 29.5644 66.7058 28.9446C66.7058 28.3248 66.6072 27.7473 66.41 27.212C66.2128 26.6767 65.9089 26.2441 65.4984 25.9141C65.0879 25.5841 64.5647 25.419 63.9288 25.419C63.2929 25.419 62.7697 25.5841 62.3592 25.9141C61.9487 26.2441 61.6449 26.6767 61.4476 27.212C61.2504 27.7473 61.1518 28.3248 61.1518 28.9446C61.1518 29.5644 61.2504 30.1399 61.4476 30.6712C61.6449 31.2024 61.9487 31.6311 62.3592 31.957C62.7697 32.283 63.2929 32.446 63.9288 32.446Z" fill="#1C2434"/>
</svg>
