<svg width="103" height="13" viewBox="0 0 103 13" fill="none" xmlns="http://www.w3.org/2000/svg">
<path d="M5.572 10.4161C5.516 10.3041 5.42733 10.1454 5.306 9.94011C5.194 9.72544 5.06333 9.50144 4.914 9.26811C4.774 9.02544 4.63866 8.81077 4.508 8.62411C4.38666 8.42811 4.284 8.30211 4.2 8.24611C4.09733 8.17144 3.99933 8.12477 3.906 8.10611C3.822 8.08744 3.71933 8.07811 3.598 8.07811C3.43933 8.07811 3.276 8.13877 3.108 8.26011C2.94933 8.37211 2.814 8.51211 2.702 8.68011C2.59 8.84811 2.52 9.01144 2.492 9.17011C2.632 9.38477 2.856 9.59011 3.164 9.78611C3.48133 9.98211 3.81266 10.1408 4.158 10.2621C4.51266 10.3741 4.816 10.4301 5.068 10.4301C5.152 10.4301 5.236 10.4301 5.32 10.4301C5.404 10.4208 5.488 10.4161 5.572 10.4161ZM8.33 5.75411C8.33 5.22211 8.26933 4.67144 8.148 4.10211C8.02666 3.52344 7.83066 2.99144 7.56 2.5061C7.28933 2.01144 6.93 1.61011 6.482 1.30211C6.04333 0.994105 5.502 0.840105 4.858 0.840105C4.37266 0.840105 3.94333 0.947439 3.57 1.16211C3.19666 1.36744 2.87933 1.64744 2.618 2.00211C2.35666 2.34744 2.142 2.73477 1.974 3.16411C1.81533 3.59344 1.69866 4.03211 1.624 4.48011C1.54933 4.92811 1.512 5.35277 1.512 5.75411C1.512 6.25811 1.554 6.76677 1.638 7.28011C1.73133 7.79344 1.90866 8.26944 2.17 8.70811C2.35666 8.40011 2.59933 8.12011 2.898 7.86811C3.19666 7.60677 3.53733 7.47611 3.92 7.47611C4.27466 7.47611 4.56866 7.55544 4.802 7.71411C5.04466 7.86344 5.26866 8.07344 5.474 8.34411C5.68866 8.60544 5.88466 8.88077 6.062 9.17011C6.23933 9.45011 6.41666 9.73477 6.594 10.0241C6.71533 9.92144 6.83666 9.82344 6.958 9.73011C7.07933 9.63677 7.19133 9.52944 7.294 9.40811C7.73266 8.91344 8.01266 8.33944 8.134 7.68611C8.26466 7.03277 8.33 6.38877 8.33 5.75411ZM10.5 11.4941C10.5 11.5221 10.4767 11.5641 10.43 11.6201C10.3927 11.6761 10.3647 11.7134 10.346 11.7321C10.1407 11.9841 9.89333 12.1848 9.604 12.3341C9.324 12.4834 9.02066 12.5581 8.694 12.5581C8.218 12.5581 7.812 12.4834 7.476 12.3341C7.14 12.1848 6.84133 11.9748 6.58 11.7041C6.31866 11.4334 6.05266 11.1161 5.782 10.7521C5.642 10.7614 5.502 10.7754 5.362 10.7941C5.23133 10.8034 5.096 10.8081 4.956 10.8081C4.23733 10.8081 3.57466 10.6774 2.968 10.4161C2.36133 10.1548 1.834 9.79077 1.386 9.32411C0.947329 8.85744 0.606662 8.31611 0.363996 7.70011C0.121329 7.08411 -4.35114e-06 6.42144 -4.35114e-06 5.71211C-4.35114e-06 4.98411 0.116662 4.30277 0.349996 3.6681C0.583329 3.0241 0.919329 2.45944 1.358 1.9741C1.79666 1.48877 2.31933 1.11077 2.926 0.840105C3.542 0.560105 4.228 0.420105 4.984 0.420105C6.05733 0.420105 6.958 0.653438 7.686 1.12011C8.414 1.58677 8.96466 2.22144 9.338 3.0241C9.72066 3.82677 9.912 4.73677 9.912 5.75411C9.912 6.40744 9.79066 7.04211 9.548 7.65811C9.30533 8.27411 8.96 8.82944 8.512 9.32411C8.064 9.80944 7.53666 10.1828 6.93 10.4441C7.25666 10.8454 7.59733 11.1768 7.952 11.4381C8.30666 11.7088 8.75466 11.8441 9.296 11.8441C9.352 11.8441 9.44533 11.8301 9.576 11.8021C9.716 11.7741 9.84666 11.7321 9.968 11.6761C10.0987 11.6294 10.178 11.5828 10.206 11.5361L10.276 11.4661C10.2947 11.4474 10.3133 11.4288 10.332 11.4101C10.3507 11.3914 10.3647 11.3821 10.374 11.3821C10.458 11.3821 10.5 11.4194 10.5 11.4941ZM19.3944 10.4301C19.3944 10.5421 19.3104 10.6261 19.1424 10.6821C18.9837 10.7381 18.8064 10.7754 18.6104 10.7941C18.4144 10.8128 18.2744 10.8221 18.1904 10.8221C17.873 10.8221 17.621 10.6961 17.4344 10.4441C17.2477 10.1921 17.1077 9.93077 17.0144 9.66011C16.697 10.0614 16.3004 10.3601 15.8244 10.5561C15.3484 10.7521 14.8537 10.8501 14.3404 10.8501C13.5004 10.8501 12.917 10.6354 12.5904 10.2061C12.273 9.76744 12.1144 9.15144 12.1144 8.35811C12.1144 7.65811 12.1144 6.95811 12.1144 6.25811C12.1237 5.54877 12.133 4.84411 12.1424 4.14411C12.1424 3.86411 12.007 3.7241 11.7364 3.7241C11.6617 3.7241 11.587 3.72877 11.5124 3.73811C11.4377 3.74744 11.363 3.75211 11.2884 3.75211C11.2604 3.75211 11.237 3.73811 11.2184 3.71011C11.209 3.67277 11.2044 3.64477 11.2044 3.62611C11.2044 3.52344 11.251 3.46744 11.3444 3.4581C11.671 3.42077 11.9977 3.39744 12.3244 3.38811C12.6604 3.36944 12.9917 3.34144 13.3184 3.30411C13.393 3.37877 13.4304 3.47211 13.4304 3.58411C13.4304 3.81744 13.4257 4.05544 13.4164 4.29811C13.407 4.54077 13.4024 4.78344 13.4024 5.02611C13.393 5.59544 13.3837 6.16944 13.3744 6.74811C13.3744 7.31744 13.3744 7.89144 13.3744 8.47011C13.3744 8.64744 13.379 8.83877 13.3884 9.04411C13.3977 9.24011 13.435 9.42211 13.5004 9.59011C13.603 9.85144 13.7944 10.0381 14.0744 10.1501C14.3637 10.2528 14.639 10.3041 14.9004 10.3041C15.1897 10.3041 15.479 10.2528 15.7684 10.1501C16.067 10.0381 16.319 9.87944 16.5244 9.67411C16.739 9.45944 16.8604 9.19344 16.8884 8.87611C16.907 8.71744 16.9164 8.55877 16.9164 8.40011C16.9257 8.23211 16.9304 8.06877 16.9304 7.91011L16.9164 4.10211C16.9164 3.98077 16.8744 3.89211 16.7904 3.83611C16.7157 3.78011 16.627 3.75211 16.5244 3.75211C16.431 3.75211 16.3377 3.75677 16.2444 3.76611C16.1604 3.77544 16.0717 3.7801 15.9784 3.7801C15.8944 3.7801 15.8524 3.73344 15.8524 3.64011C15.8524 3.54677 15.8944 3.49544 15.9784 3.48611C16.0904 3.46744 16.207 3.4581 16.3284 3.4581C16.4497 3.44877 16.571 3.43944 16.6924 3.43011L17.6584 3.3321C17.7237 3.32277 17.789 3.31344 17.8544 3.30411C17.929 3.29477 17.999 3.29011 18.0644 3.29011C18.111 3.29011 18.1437 3.31811 18.1624 3.37411C18.181 3.42077 18.1904 3.45811 18.1904 3.48611C18.1624 5.51144 18.1484 7.53211 18.1484 9.54811C18.1484 9.78144 18.1997 9.97277 18.3024 10.1221C18.4144 10.2714 18.5964 10.3461 18.8484 10.3461C18.923 10.3461 18.9884 10.3368 19.0444 10.3181C19.1097 10.2994 19.175 10.2901 19.2404 10.2901C19.343 10.2901 19.3944 10.3368 19.3944 10.4301ZM24.6014 9.17011C24.5641 8.75011 24.5407 8.33011 24.5314 7.91011C24.5314 7.48077 24.5267 7.05144 24.5174 6.62211H24.3214C24.0321 6.62211 23.7101 6.66877 23.3554 6.76211C23.0101 6.84611 22.6787 6.97677 22.3614 7.15411C22.0441 7.33144 21.7827 7.55544 21.5774 7.82611C21.3814 8.08744 21.2834 8.39077 21.2834 8.73611C21.2834 9.18411 21.4094 9.52477 21.6614 9.75811C21.9134 9.98211 22.2541 10.0941 22.6834 10.0941C22.8887 10.0941 23.1127 10.0474 23.3554 9.95411C23.5981 9.85144 23.8314 9.73011 24.0554 9.59011C24.2794 9.45011 24.4614 9.31011 24.6014 9.17011ZM27.0514 10.0661C27.0514 10.1034 27.0467 10.1314 27.0374 10.1501C26.9441 10.3554 26.7854 10.5141 26.5614 10.6261C26.3467 10.7288 26.1321 10.7801 25.9174 10.7801C25.5254 10.7801 25.2407 10.6681 25.0634 10.4441C24.8954 10.2108 24.7601 9.92611 24.6574 9.59011C24.3027 9.91677 23.9107 10.1921 23.4814 10.4161C23.0521 10.6308 22.5901 10.7381 22.0954 10.7381C21.7501 10.7381 21.4234 10.6728 21.1154 10.5421C20.8167 10.4021 20.5741 10.2014 20.3874 9.94011C20.2007 9.67877 20.1074 9.36144 20.1074 8.98811C20.1074 8.59611 20.2054 8.26011 20.4014 7.98011C20.6067 7.69077 20.8634 7.44811 21.1714 7.25211C21.4887 7.04677 21.8247 6.88344 22.1794 6.76211C22.5434 6.63144 22.8841 6.53344 23.2014 6.46811C23.4161 6.42144 23.6354 6.37944 23.8594 6.34211C24.0834 6.30477 24.3027 6.26744 24.5174 6.23011C24.5174 5.96877 24.5034 5.66544 24.4754 5.32011C24.4567 4.97477 24.3867 4.69011 24.2654 4.46611C24.1441 4.25144 23.9807 4.06011 23.7754 3.89211C23.5701 3.72411 23.3414 3.64011 23.0894 3.64011C22.6601 3.64011 22.3241 3.75211 22.0814 3.9761C21.8387 4.20011 21.6661 4.51744 21.5634 4.92811C21.5541 4.97477 21.5447 5.02611 21.5354 5.08211C21.5354 5.12877 21.5307 5.17544 21.5214 5.22211C21.5121 5.27811 21.4747 5.32944 21.4094 5.37611C21.3534 5.41344 21.2927 5.43211 21.2274 5.43211C21.0501 5.43211 20.8867 5.39011 20.7374 5.30611C20.5974 5.22211 20.5274 5.08211 20.5274 4.88611C20.5274 4.77411 20.5461 4.67611 20.5834 4.5921C20.7047 4.30277 20.9007 4.06477 21.1714 3.8781C21.4421 3.68211 21.7407 3.53277 22.0674 3.43011C22.4034 3.32744 22.7161 3.2761 23.0054 3.2761C23.5094 3.2761 23.9667 3.36944 24.3774 3.55611C24.7881 3.74277 25.1147 4.01811 25.3574 4.38211C25.6094 4.73677 25.7354 5.18477 25.7354 5.72611C25.7354 6.33277 25.7307 6.94411 25.7214 7.56011C25.7214 8.17611 25.7401 8.79211 25.7774 9.40811C25.7867 9.61344 25.8287 9.79544 25.9034 9.95411C25.9781 10.1034 26.1321 10.1781 26.3654 10.1781C26.4867 10.1781 26.6127 10.1501 26.7434 10.0941C26.8834 10.0288 26.9721 9.99611 27.0094 9.99611C27.0374 9.99611 27.0514 10.0194 27.0514 10.0661ZM35.7866 10.5981C35.7866 10.7194 35.7166 10.7801 35.5766 10.7801C35.3713 10.7801 35.1613 10.7754 34.9466 10.7661C34.732 10.7474 34.5173 10.7381 34.3026 10.7381C33.9853 10.7381 33.6586 10.7474 33.3226 10.7661C32.996 10.7754 32.6693 10.7801 32.3426 10.7801C32.3053 10.7801 32.282 10.7521 32.2726 10.6961C32.2633 10.6308 32.2586 10.5794 32.2586 10.5421C32.2586 10.4674 32.3053 10.4301 32.3986 10.4301C32.492 10.4301 32.5666 10.4301 32.6226 10.4301C32.6693 10.4301 32.716 10.4348 32.7626 10.4441C32.8186 10.4441 32.87 10.4441 32.9166 10.4441C33.1873 10.4441 33.3366 10.3088 33.3646 10.0381C33.3926 9.48744 33.402 8.93211 33.3926 8.37211C33.3926 7.81211 33.3926 7.25677 33.3926 6.70611C33.3926 6.60344 33.3926 6.50077 33.3926 6.39811C33.3926 6.28611 33.3926 6.17877 33.3926 6.07611C33.3833 5.86144 33.3693 5.60011 33.3506 5.29211C33.332 4.97477 33.29 4.71811 33.2246 4.52211C33.0753 4.03677 32.7486 3.7941 32.2446 3.7941C31.7873 3.7941 31.3673 3.91077 30.9846 4.14411C30.602 4.37744 30.2706 4.67144 29.9906 5.02611C29.9813 5.70744 29.9766 6.38411 29.9766 7.05611C29.9766 7.72811 29.9766 8.40011 29.9766 9.07211V10.0381C29.9766 10.1781 30.0373 10.2808 30.1586 10.3461C30.28 10.4114 30.4013 10.4441 30.5226 10.4441C30.5973 10.4441 30.6673 10.4394 30.7326 10.4301C30.8073 10.4114 30.8773 10.4021 30.9426 10.4021C30.98 10.4021 31.0033 10.4254 31.0126 10.4721C31.022 10.5188 31.0266 10.5561 31.0266 10.5841C31.0266 10.6214 31.0126 10.6634 30.9846 10.7101C30.966 10.7568 30.9286 10.7801 30.8726 10.7801C30.6673 10.7801 30.462 10.7754 30.2566 10.7661C30.0606 10.7474 29.86 10.7381 29.6546 10.7381C29.3373 10.7381 29.02 10.7474 28.7026 10.7661C28.3853 10.7754 28.0633 10.7801 27.7366 10.7801C27.69 10.7801 27.662 10.7521 27.6526 10.6961C27.6526 10.6308 27.6526 10.5794 27.6526 10.5421C27.6526 10.4674 27.6946 10.4301 27.7786 10.4301C27.8626 10.4301 27.928 10.4301 27.9746 10.4301C28.0213 10.4301 28.068 10.4348 28.1146 10.4441C28.1613 10.4441 28.208 10.4441 28.2546 10.4441C28.5253 10.4441 28.6746 10.3088 28.7026 10.0381C28.712 9.90744 28.7166 9.77677 28.7166 9.64611C28.7166 9.51544 28.7166 9.38477 28.7166 9.25411C28.7166 8.45144 28.7166 7.64877 28.7166 6.84611C28.7166 6.03411 28.712 5.22677 28.7026 4.42411C28.7026 4.29344 28.6746 4.16277 28.6186 4.03211C28.5626 3.90144 28.4553 3.83611 28.2966 3.83611C28.1753 3.83611 28.0586 3.85477 27.9466 3.89211C27.8346 3.92944 27.718 3.94811 27.5966 3.94811C27.5313 3.94811 27.4986 3.90144 27.4986 3.80811C27.4986 3.78944 27.4986 3.77077 27.4986 3.75211C27.508 3.72411 27.5173 3.70544 27.5266 3.69611C27.536 3.68677 27.55 3.68211 27.5686 3.68211C27.5873 3.67277 27.6013 3.66344 27.6106 3.6541C27.7786 3.60744 27.9513 3.57477 28.1286 3.55611C28.3153 3.53744 28.4926 3.50944 28.6606 3.4721C28.8193 3.44411 28.9733 3.40677 29.1226 3.36011C29.272 3.30411 29.4213 3.2761 29.5706 3.2761C29.636 3.2761 29.6873 3.30877 29.7246 3.37411C29.7713 3.45811 29.8086 3.57944 29.8366 3.73811C29.8646 3.88744 29.8833 4.04144 29.8926 4.20011C29.9113 4.35877 29.9206 4.48944 29.9206 4.5921C30.126 4.38677 30.3686 4.18611 30.6486 3.99011C30.938 3.78477 31.2366 3.61677 31.5446 3.48611C31.862 3.34611 32.17 3.2761 32.4686 3.2761C33.3273 3.2761 33.906 3.46744 34.2046 3.85011C34.5126 4.22344 34.6666 4.81611 34.6666 5.62811C34.6666 6.35611 34.662 7.08411 34.6526 7.81211C34.6526 8.54011 34.6526 9.26811 34.6526 9.99611C34.6526 10.1734 34.704 10.2948 34.8066 10.3601C34.9186 10.4161 35.0493 10.4441 35.1986 10.4441C35.2733 10.4441 35.348 10.4394 35.4226 10.4301C35.4973 10.4114 35.5673 10.4021 35.6326 10.4021C35.6886 10.4021 35.726 10.4254 35.7446 10.4721C35.7726 10.5094 35.7866 10.5514 35.7866 10.5981ZM41.0903 10.1641C41.0903 10.2481 41.025 10.3321 40.8943 10.4161C40.773 10.5001 40.6237 10.5748 40.4463 10.6401C40.269 10.7054 40.0963 10.7568 39.9283 10.7941C39.7697 10.8314 39.653 10.8501 39.5783 10.8501C39.093 10.8501 38.715 10.7894 38.4443 10.6681C38.183 10.5468 37.9963 10.3461 37.8843 10.0661C37.7817 9.78611 37.7303 9.40811 37.7303 8.93211C37.7303 8.15744 37.7303 7.38277 37.7303 6.60811C37.7397 5.82411 37.749 5.04477 37.7583 4.27011H36.7503C36.685 4.27011 36.629 4.28877 36.5823 4.32611C36.545 4.35411 36.503 4.36811 36.4563 4.36811C36.4097 4.36811 36.3863 4.33544 36.3863 4.27011C36.3863 4.23277 36.4097 4.15811 36.4563 4.04611C36.5123 3.93411 36.5497 3.85944 36.5683 3.82211C36.5963 3.83144 36.6383 3.83611 36.6943 3.83611H37.7863L37.8003 2.05811C38.015 1.91811 38.211 1.7641 38.3883 1.5961C38.5657 1.41877 38.743 1.24144 38.9203 1.0641C38.939 1.04544 38.9577 1.03144 38.9763 1.0221C38.995 1.00344 39.0137 0.994105 39.0323 0.994105C39.1163 0.994105 39.1583 1.02677 39.1583 1.09211L39.0743 3.82211C39.373 3.82211 39.667 3.81744 39.9563 3.80811C40.255 3.79877 40.549 3.7941 40.8383 3.7941C40.9597 3.7941 41.0203 3.8641 41.0203 4.00411C41.0203 4.18144 40.941 4.27011 40.7823 4.27011H39.0743C39.0743 4.97944 39.0697 5.69344 39.0603 6.41211C39.0603 7.12144 39.0603 7.83544 39.0603 8.55411V9.63211C39.0603 9.86544 39.1583 10.0288 39.3543 10.1221C39.5503 10.2061 39.7417 10.2481 39.9283 10.2481C40.1897 10.2481 40.4463 10.2061 40.6983 10.1221C40.7263 10.1034 40.7683 10.0848 40.8243 10.0661C40.8803 10.0474 40.9223 10.0381 40.9503 10.0381C41.0437 10.0381 41.0903 10.0801 41.0903 10.1641ZM45.6413 10.5981C45.6413 10.6448 45.6273 10.6914 45.5993 10.7381C45.5713 10.7754 45.534 10.7941 45.4873 10.7941C45.226 10.7941 44.9646 10.7894 44.7033 10.7801C44.4513 10.7614 44.19 10.7521 43.9193 10.7521H43.5413C43.2613 10.7521 42.9813 10.7614 42.7013 10.7801C42.4306 10.7894 42.16 10.7941 41.8893 10.7941C41.852 10.7941 41.824 10.7708 41.8053 10.7241C41.796 10.6774 41.7913 10.6401 41.7913 10.6121C41.7913 10.5654 41.796 10.5328 41.8053 10.5141C41.8146 10.4861 41.8426 10.4674 41.8893 10.4581C41.936 10.4394 41.9873 10.4348 42.0433 10.4441C42.1086 10.4441 42.1693 10.4441 42.2253 10.4441C42.2906 10.4441 42.3513 10.4488 42.4073 10.4581C42.4633 10.4581 42.524 10.4581 42.5893 10.4581C42.72 10.4581 42.8366 10.4301 42.9393 10.3741C43.0513 10.3088 43.1073 10.2014 43.1073 10.0521V4.45211C43.1073 4.29344 43.0793 4.17211 43.0233 4.08811C42.9673 3.99477 42.8506 3.94811 42.6733 3.94811C42.5426 3.94811 42.4073 3.95744 42.2673 3.9761C42.1366 3.98544 42.006 3.99944 41.8753 4.01811C41.8006 4.01811 41.7633 3.97611 41.7633 3.89211C41.7633 3.79877 41.8006 3.73811 41.8753 3.71011C41.9873 3.67277 42.104 3.64944 42.2253 3.64011C42.356 3.62144 42.4773 3.60277 42.5893 3.58411C42.8506 3.53744 43.112 3.48611 43.3733 3.43011C43.6346 3.3741 43.8913 3.31344 44.1433 3.24811C44.1713 3.23877 44.2086 3.23411 44.2553 3.23411C44.358 3.23411 44.4093 3.29011 44.4093 3.4021C44.4093 4.50344 44.4046 5.60944 44.3953 6.72011C44.3953 7.83077 44.3953 8.94144 44.3953 10.0521C44.3953 10.2014 44.4606 10.3088 44.5913 10.3741C44.7313 10.4301 44.862 10.4581 44.9833 10.4581C45.0766 10.4581 45.17 10.4534 45.2633 10.4441C45.366 10.4348 45.464 10.4301 45.5573 10.4301C45.5946 10.4301 45.618 10.4534 45.6273 10.5001C45.6366 10.5468 45.6413 10.5794 45.6413 10.5981ZM44.5073 0.910105C44.5073 1.14344 44.4233 1.3441 44.2553 1.5121C44.0873 1.67077 43.8866 1.75011 43.6533 1.75011C43.42 1.75011 43.2193 1.67077 43.0513 1.5121C42.8833 1.3441 42.7993 1.14344 42.7993 0.910105C42.7993 0.676772 42.8833 0.480772 43.0513 0.322105C43.2193 0.154105 43.42 0.0701052 43.6533 0.0701052C43.8866 0.0701052 44.0873 0.154105 44.2553 0.322105C44.4233 0.480772 44.5073 0.676772 44.5073 0.910105ZM51.8118 5.67011C51.8118 5.35277 51.7465 5.05411 51.6158 4.77411C51.4851 4.49411 51.2985 4.26544 51.0558 4.08811C50.8131 3.91077 50.5191 3.82211 50.1738 3.82211C49.7258 3.82211 49.3571 3.92944 49.0678 4.14411C48.7878 4.35877 48.5638 4.63877 48.3958 4.98411C48.2371 5.32011 48.1251 5.68411 48.0598 6.07611C48.0038 6.46811 47.9758 6.84144 47.9758 7.19611C47.9758 7.51344 48.0038 7.85411 48.0598 8.21811C48.1158 8.58211 48.2138 8.92277 48.3538 9.24011C48.5031 9.55744 48.7085 9.81877 48.9698 10.0241C49.2311 10.2201 49.5625 10.3181 49.9638 10.3181C50.2998 10.3181 50.6078 10.2154 50.8878 10.0101C51.1678 9.79544 51.3918 9.52944 51.5598 9.21211C51.7278 8.89477 51.8118 8.58211 51.8118 8.27411V5.67011ZM54.4158 10.2481C54.4158 10.2948 54.3925 10.3414 54.3458 10.3881C54.2991 10.4348 54.2571 10.4721 54.2198 10.5001C54.0985 10.5934 53.9211 10.6728 53.6878 10.7381C53.4638 10.8034 53.2725 10.8361 53.1138 10.8361C52.8711 10.8361 52.6705 10.7661 52.5118 10.6261C52.3531 10.4861 52.2225 10.3134 52.1198 10.1081C52.0265 9.90277 51.9425 9.70211 51.8678 9.50611C51.6625 9.83277 51.3825 10.1268 51.0278 10.3881C50.6731 10.6401 50.2951 10.7661 49.8938 10.7661C49.6231 10.7661 49.3431 10.7474 49.0538 10.7101C48.7738 10.6634 48.5125 10.5654 48.2698 10.4161C47.7378 10.0801 47.3318 9.62744 47.0518 9.05811C46.7811 8.47944 46.6458 7.88677 46.6458 7.28011C46.6458 6.55211 46.7765 5.89877 47.0378 5.32011C47.2991 4.73211 47.6865 4.27011 48.1998 3.93411C48.7225 3.58877 49.3665 3.41611 50.1318 3.41611C50.2998 3.41611 50.4865 3.44877 50.6918 3.51411C50.8971 3.57944 51.0978 3.66344 51.2938 3.76611C51.4991 3.85944 51.6625 3.95744 51.7838 4.06011V1.3441C51.7838 1.04544 51.7045 0.877439 51.5458 0.840105C51.3965 0.793439 51.1958 0.770105 50.9438 0.770105C50.8598 0.770105 50.7758 0.774772 50.6918 0.784105C50.6078 0.784105 50.5238 0.784105 50.4398 0.784105C50.4025 0.784105 50.3651 0.770105 50.3278 0.742105C50.2998 0.714105 50.2858 0.681438 50.2858 0.644105C50.2858 0.578772 50.3091 0.536772 50.3558 0.518105C50.3745 0.499438 50.3931 0.490105 50.4118 0.490105C50.4398 0.490105 50.4678 0.485438 50.4958 0.476105C50.6918 0.438772 50.8878 0.410772 51.0838 0.392105C51.2891 0.364105 51.4945 0.331438 51.6998 0.294105C51.9051 0.256771 52.1058 0.219438 52.3018 0.182105C52.4978 0.135438 52.6938 0.0841047 52.8898 0.0281049C52.8991 0.0281049 52.9131 0.0234383 52.9318 0.0141051C52.9598 0.00477187 52.9785 0.000105262 52.9878 0.000105262C53.0345 0.000105262 53.0625 0.018772 53.0718 0.0561054C53.0811 0.0934382 53.0858 0.130771 53.0858 0.168105C53.0858 1.32544 53.0811 2.47811 53.0718 3.62611C53.0625 4.77411 53.0578 5.92677 53.0578 7.08411V9.17011C53.0578 9.32877 53.0765 9.49211 53.1138 9.66011C53.1511 9.82811 53.2211 9.96811 53.3238 10.0801C53.4358 10.1921 53.5898 10.2481 53.7858 10.2481C53.8791 10.2481 53.9678 10.2294 54.0518 10.1921C54.1358 10.1548 54.2245 10.1361 54.3178 10.1361C54.3831 10.1361 54.4158 10.1734 54.4158 10.2481ZM59.574 9.17011C59.5367 8.75011 59.5134 8.33011 59.504 7.91011C59.504 7.48077 59.4994 7.05144 59.49 6.62211H59.294C59.0047 6.62211 58.6827 6.66877 58.328 6.76211C57.9827 6.84611 57.6514 6.97677 57.334 7.15411C57.0167 7.33144 56.7554 7.55544 56.55 7.82611C56.354 8.08744 56.256 8.39077 56.256 8.73611C56.256 9.18411 56.382 9.52477 56.634 9.75811C56.886 9.98211 57.2267 10.0941 57.656 10.0941C57.8614 10.0941 58.0854 10.0474 58.328 9.95411C58.5707 9.85144 58.804 9.73011 59.028 9.59011C59.252 9.45011 59.434 9.31011 59.574 9.17011ZM62.024 10.0661C62.024 10.1034 62.0194 10.1314 62.01 10.1501C61.9167 10.3554 61.758 10.5141 61.534 10.6261C61.3194 10.7288 61.1047 10.7801 60.89 10.7801C60.498 10.7801 60.2134 10.6681 60.036 10.4441C59.868 10.2108 59.7327 9.92611 59.63 9.59011C59.2754 9.91677 58.8834 10.1921 58.454 10.4161C58.0247 10.6308 57.5627 10.7381 57.068 10.7381C56.7227 10.7381 56.396 10.6728 56.088 10.5421C55.7894 10.4021 55.5467 10.2014 55.36 9.94011C55.1734 9.67877 55.08 9.36144 55.08 8.98811C55.08 8.59611 55.178 8.26011 55.374 7.98011C55.5794 7.69077 55.836 7.44811 56.144 7.25211C56.4614 7.04677 56.7974 6.88344 57.152 6.76211C57.516 6.63144 57.8567 6.53344 58.174 6.46811C58.3887 6.42144 58.608 6.37944 58.832 6.34211C59.056 6.30477 59.2754 6.26744 59.49 6.23011C59.49 5.96877 59.476 5.66544 59.448 5.32011C59.4294 4.97477 59.3594 4.69011 59.238 4.46611C59.1167 4.25144 58.9534 4.06011 58.748 3.89211C58.5427 3.72411 58.314 3.64011 58.062 3.64011C57.6327 3.64011 57.2967 3.75211 57.054 3.9761C56.8114 4.20011 56.6387 4.51744 56.536 4.92811C56.5267 4.97477 56.5174 5.02611 56.508 5.08211C56.508 5.12877 56.5034 5.17544 56.494 5.22211C56.4847 5.27811 56.4474 5.32944 56.382 5.37611C56.326 5.41344 56.2654 5.43211 56.2 5.43211C56.0227 5.43211 55.8594 5.39011 55.71 5.30611C55.57 5.22211 55.5 5.08211 55.5 4.88611C55.5 4.77411 55.5187 4.67611 55.556 4.5921C55.6774 4.30277 55.8734 4.06477 56.144 3.8781C56.4147 3.68211 56.7134 3.53277 57.04 3.43011C57.376 3.32744 57.6887 3.2761 57.978 3.2761C58.482 3.2761 58.9394 3.36944 59.35 3.55611C59.7607 3.74277 60.0874 4.01811 60.33 4.38211C60.582 4.73677 60.708 5.18477 60.708 5.72611C60.708 6.33277 60.7034 6.94411 60.694 7.56011C60.694 8.17611 60.7127 8.79211 60.75 9.40811C60.7594 9.61344 60.8014 9.79544 60.876 9.95411C60.9507 10.1034 61.1047 10.1781 61.338 10.1781C61.4594 10.1781 61.5854 10.1501 61.716 10.0941C61.856 10.0288 61.9447 9.99611 61.982 9.99611C62.01 9.99611 62.024 10.0194 62.024 10.0661ZM67.9173 5.67011C67.9173 5.35277 67.8519 5.05411 67.7213 4.77411C67.5906 4.49411 67.4039 4.26544 67.1613 4.08811C66.9186 3.91077 66.6246 3.82211 66.2793 3.82211C65.8313 3.82211 65.4626 3.92944 65.1733 4.14411C64.8933 4.35877 64.6693 4.63877 64.5013 4.98411C64.3426 5.32011 64.2306 5.68411 64.1653 6.07611C64.1093 6.46811 64.0813 6.84144 64.0813 7.19611C64.0813 7.51344 64.1093 7.85411 64.1653 8.21811C64.2213 8.58211 64.3193 8.92277 64.4593 9.24011C64.6086 9.55744 64.8139 9.81877 65.0753 10.0241C65.3366 10.2201 65.6679 10.3181 66.0693 10.3181C66.4053 10.3181 66.7133 10.2154 66.9933 10.0101C67.2733 9.79544 67.4973 9.52944 67.6653 9.21211C67.8333 8.89477 67.9173 8.58211 67.9173 8.27411V5.67011ZM70.5213 10.2481C70.5213 10.2948 70.4979 10.3414 70.4513 10.3881C70.4046 10.4348 70.3626 10.4721 70.3253 10.5001C70.2039 10.5934 70.0266 10.6728 69.7933 10.7381C69.5693 10.8034 69.3779 10.8361 69.2193 10.8361C68.9766 10.8361 68.7759 10.7661 68.6173 10.6261C68.4586 10.4861 68.3279 10.3134 68.2253 10.1081C68.1319 9.90277 68.0479 9.70211 67.9733 9.50611C67.7679 9.83277 67.4879 10.1268 67.1333 10.3881C66.7786 10.6401 66.4006 10.7661 65.9993 10.7661C65.7286 10.7661 65.4486 10.7474 65.1593 10.7101C64.8793 10.6634 64.6179 10.5654 64.3753 10.4161C63.8433 10.0801 63.4373 9.62744 63.1573 9.05811C62.8866 8.47944 62.7513 7.88677 62.7513 7.28011C62.7513 6.55211 62.8819 5.89877 63.1433 5.32011C63.4046 4.73211 63.7919 4.27011 64.3053 3.93411C64.8279 3.58877 65.4719 3.41611 66.2373 3.41611C66.4053 3.41611 66.5919 3.44877 66.7973 3.51411C67.0026 3.57944 67.2033 3.66344 67.3993 3.76611C67.6046 3.85944 67.7679 3.95744 67.8893 4.06011V1.3441C67.8893 1.04544 67.8099 0.877439 67.6513 0.840105C67.5019 0.793439 67.3013 0.770105 67.0493 0.770105C66.9653 0.770105 66.8813 0.774772 66.7973 0.784105C66.7133 0.784105 66.6293 0.784105 66.5453 0.784105C66.5079 0.784105 66.4706 0.770105 66.4333 0.742105C66.4053 0.714105 66.3913 0.681438 66.3913 0.644105C66.3913 0.578772 66.4146 0.536772 66.4613 0.518105C66.4799 0.499438 66.4986 0.490105 66.5173 0.490105C66.5453 0.490105 66.5733 0.485438 66.6013 0.476105C66.7973 0.438772 66.9933 0.410772 67.1893 0.392105C67.3946 0.364105 67.5999 0.331438 67.8053 0.294105C68.0106 0.256771 68.2113 0.219438 68.4073 0.182105C68.6033 0.135438 68.7993 0.0841047 68.9953 0.0281049C69.0046 0.0281049 69.0186 0.0234383 69.0373 0.0141051C69.0653 0.00477187 69.0839 0.000105262 69.0933 0.000105262C69.1399 0.000105262 69.1679 0.018772 69.1773 0.0561054C69.1866 0.0934382 69.1913 0.130771 69.1913 0.168105C69.1913 1.32544 69.1866 2.47811 69.1773 3.62611C69.1679 4.77411 69.1633 5.92677 69.1633 7.08411V9.17011C69.1633 9.32877 69.1819 9.49211 69.2193 9.66011C69.2566 9.82811 69.3266 9.96811 69.4293 10.0801C69.5413 10.1921 69.6953 10.2481 69.8913 10.2481C69.9846 10.2481 70.0733 10.2294 70.1573 10.1921C70.2413 10.1548 70.3299 10.1361 70.4233 10.1361C70.4886 10.1361 70.5213 10.1734 70.5213 10.2481ZM76.3235 5.89411C76.3142 5.51144 76.2815 5.14744 76.2255 4.80211C76.1695 4.44744 76.0342 4.15811 75.8195 3.93411C75.6048 3.70077 75.2548 3.58411 74.7695 3.58411C74.3308 3.58411 73.9715 3.70544 73.6915 3.94811C73.4208 4.18144 73.2108 4.48011 73.0615 4.84411C72.9122 5.19877 72.8002 5.56277 72.7255 5.93611C72.9588 5.94544 73.1875 5.95477 73.4115 5.96411C73.6355 5.96411 73.8595 5.96411 74.0835 5.96411C74.4568 5.96411 74.8302 5.95944 75.2035 5.95011C75.5768 5.93144 75.9502 5.91277 76.3235 5.89411ZM77.9335 9.10011C77.9335 9.14677 77.9242 9.17477 77.9055 9.18411C77.8775 9.27744 77.8075 9.38944 77.6955 9.52011C77.5928 9.65077 77.4762 9.77677 77.3455 9.89811C77.2148 10.0101 77.1075 10.0941 77.0235 10.1501C76.7155 10.3648 76.3655 10.5374 75.9735 10.6681C75.5908 10.7988 75.2082 10.8641 74.8255 10.8641C74.5082 10.8641 74.1535 10.8128 73.7615 10.7101C73.3788 10.6074 73.0522 10.4674 72.7815 10.2901C72.2588 9.94477 71.8762 9.49211 71.6335 8.93211C71.3908 8.37211 71.2695 7.78877 71.2695 7.18211C71.2695 6.49144 71.4048 5.85211 71.6755 5.26411C71.9462 4.67611 72.3802 4.20011 72.9775 3.83611C73.2482 3.67744 73.5515 3.54677 73.8875 3.44411C74.2235 3.3321 74.5455 3.2761 74.8535 3.2761C75.4042 3.2761 75.8895 3.38811 76.3095 3.61211C76.7295 3.83611 77.0562 4.15344 77.2895 4.56411C77.5322 4.96544 77.6535 5.44611 77.6535 6.00611C77.6535 6.16477 77.6162 6.26744 77.5415 6.31411C77.4762 6.36077 77.3735 6.38411 77.2335 6.38411C77.0468 6.38411 76.8602 6.37944 76.6735 6.37011C76.4868 6.36077 76.3002 6.35144 76.1135 6.34211C75.8522 6.32344 75.5908 6.31411 75.3295 6.31411C75.0775 6.31411 74.8208 6.31411 74.5595 6.31411C74.2422 6.31411 73.9248 6.31411 73.6075 6.31411C73.2902 6.31411 72.9728 6.32344 72.6555 6.34211C72.6462 6.49144 72.6368 6.63611 72.6275 6.77611C72.6182 6.91611 72.6135 7.06077 72.6135 7.21011C72.6135 7.55544 72.6555 7.91477 72.7395 8.28811C72.8235 8.65211 72.9588 8.99277 73.1455 9.31011C73.3322 9.61811 73.5702 9.87011 73.8595 10.0661C74.1488 10.2528 74.4988 10.3461 74.9095 10.3461C75.3295 10.3461 75.7308 10.2808 76.1135 10.1501C76.4962 10.0194 76.8462 9.80944 77.1635 9.52011C77.2475 9.43611 77.3222 9.34744 77.3875 9.25411C77.4622 9.15144 77.5415 9.06277 77.6255 8.98811C77.6722 8.94144 77.7235 8.91811 77.7795 8.91811C77.8262 8.91811 77.8635 8.93677 77.8915 8.97411C77.9195 9.01144 77.9335 9.05344 77.9335 9.10011ZM81.9364 9.75811C81.9364 10.0194 81.8384 10.2388 81.6424 10.4161C81.4464 10.5841 81.2224 10.6681 80.9704 10.6681C80.7184 10.6681 80.4944 10.5841 80.2984 10.4161C80.1024 10.2388 80.0044 10.0194 80.0044 9.75811C80.0044 9.48744 80.0978 9.26811 80.2844 9.10011C80.4804 8.92277 80.7091 8.83411 80.9704 8.83411C81.2318 8.83411 81.4558 8.92277 81.6424 9.10011C81.8384 9.26811 81.9364 9.48744 81.9364 9.75811ZM81.9364 4.74611C81.9364 5.00744 81.8384 5.22677 81.6424 5.40411C81.4558 5.58144 81.2318 5.67011 80.9704 5.67011C80.7091 5.67011 80.4804 5.58144 80.2844 5.40411C80.0978 5.22677 80.0044 5.00744 80.0044 4.74611C80.0044 4.48477 80.1024 4.27011 80.2984 4.10211C80.4944 3.92477 80.7184 3.83611 80.9704 3.83611C81.2224 3.83611 81.4464 3.92477 81.6424 4.10211C81.8384 4.27011 81.9364 4.48477 81.9364 4.74611ZM93.9855 10.5981C93.9855 10.7474 93.9155 10.8221 93.7755 10.8221C93.7102 10.8221 93.6402 10.8174 93.5655 10.8081C93.4908 10.7988 93.4162 10.7941 93.3415 10.7941C93.2575 10.7941 93.1688 10.7941 93.0755 10.7941C92.9915 10.7848 92.9028 10.7801 92.8095 10.7801C92.6042 10.7708 92.3942 10.7708 92.1795 10.7801C91.9742 10.7801 91.7688 10.7801 91.5635 10.7801C91.2835 10.7801 91.0082 10.7801 90.7375 10.7801C90.4668 10.7801 90.1915 10.7848 89.9115 10.7941C89.8462 10.8034 89.7622 10.8081 89.6595 10.8081C89.5662 10.8081 89.4915 10.8081 89.4355 10.8081C89.3235 10.8081 89.2675 10.7381 89.2675 10.5981C89.2675 10.5514 89.2722 10.5094 89.2815 10.4721C89.3002 10.4254 89.3375 10.4021 89.3935 10.4021C89.4495 10.4021 89.5008 10.4068 89.5475 10.4161C89.6035 10.4161 89.6595 10.4161 89.7155 10.4161C89.8088 10.4161 89.9442 10.4161 90.1215 10.4161C90.3082 10.4068 90.4808 10.3788 90.6395 10.3321C90.7982 10.2761 90.8775 10.1828 90.8775 10.0521C90.8775 9.29611 90.8822 8.54011 90.8915 7.78411C90.9008 7.01877 90.9055 6.25811 90.9055 5.50211C90.9055 4.85811 90.9055 4.21411 90.9055 3.57011C90.9055 2.92611 90.9055 2.27744 90.9055 1.62411C90.9055 1.50277 90.8448 1.44211 90.7235 1.44211C90.6675 1.44211 90.5508 1.47477 90.3735 1.5401C90.2055 1.60544 90.0142 1.68011 89.7995 1.76411C89.5848 1.84811 89.3888 1.92277 89.2115 1.9881C89.0435 2.05344 88.9362 2.08611 88.8895 2.08611C88.8055 2.08611 88.7448 2.04877 88.7075 1.9741C88.6795 1.89944 88.6655 1.82944 88.6655 1.76411C88.6655 1.70811 88.6935 1.66144 88.7495 1.62411C88.8055 1.57744 88.8568 1.54944 88.9035 1.5401C89.1648 1.47477 89.4122 1.40011 89.6455 1.31611C89.8788 1.22277 90.1215 1.13411 90.3735 1.05011C90.5695 0.984771 90.7748 0.914772 90.9895 0.840105C91.2042 0.756105 91.4048 0.676772 91.5915 0.602105C91.6288 0.583439 91.6942 0.560105 91.7875 0.532105C91.8808 0.504105 91.9742 0.476105 92.0675 0.448105C92.1702 0.420105 92.2308 0.406105 92.2495 0.406105C92.3055 0.406105 92.3475 0.415438 92.3755 0.434105C92.4035 0.443438 92.4175 0.490105 92.4175 0.574105C92.4175 0.779438 92.4128 0.984771 92.4035 1.1901C92.4035 1.38611 92.3988 1.58677 92.3895 1.7921C92.3802 2.36144 92.3708 2.96344 92.3615 3.5981C92.3615 4.23277 92.3568 4.85811 92.3475 5.47411C92.3475 6.15544 92.3475 6.83211 92.3475 7.50411C92.3475 8.17611 92.3475 8.85277 92.3475 9.53411C92.3475 9.61811 92.3475 9.70677 92.3475 9.80011C92.3568 9.88411 92.3615 9.96811 92.3615 10.0521C92.3708 10.1828 92.4455 10.2761 92.5855 10.3321C92.7348 10.3788 92.8935 10.4021 93.0615 10.4021C93.2388 10.4021 93.3648 10.4021 93.4395 10.4021C93.5142 10.4021 93.5842 10.3974 93.6495 10.3881C93.7148 10.3788 93.7802 10.3741 93.8455 10.3741C93.9015 10.3741 93.9388 10.4021 93.9575 10.4581C93.9762 10.5048 93.9855 10.5514 93.9855 10.5981ZM102.999 7.18211C102.999 7.62077 102.911 8.08744 102.733 8.58211C102.556 9.07677 102.299 9.47344 101.963 9.77211C101.59 10.0988 101.142 10.3508 100.619 10.5281C100.097 10.7054 99.588 10.7941 99.0933 10.7941C98.86 10.7941 98.58 10.7661 98.2533 10.7101C97.9266 10.6448 97.6046 10.5514 97.2873 10.4301C96.97 10.2994 96.704 10.1314 96.4893 9.92611C96.2746 9.71144 96.1673 9.45477 96.1673 9.15611C96.1673 8.95077 96.2373 8.79211 96.3773 8.68011C96.5173 8.55877 96.6853 8.49811 96.8813 8.49811C97.0493 8.49811 97.1986 8.54011 97.3293 8.62411C97.46 8.70811 97.53 8.84344 97.5393 9.03011C97.5766 9.45944 97.698 9.79077 97.9033 10.0241C98.118 10.2574 98.454 10.3741 98.9113 10.3741C99.5553 10.3741 100.078 10.2248 100.479 9.92611C100.881 9.61811 101.179 9.15611 101.375 8.54011C101.441 8.32544 101.478 8.10611 101.487 7.88211C101.506 7.64877 101.515 7.42011 101.515 7.19611C101.515 6.88811 101.478 6.55677 101.403 6.20211C101.338 5.83811 101.212 5.53011 101.025 5.27811C100.867 5.06344 100.661 4.91877 100.409 4.84411C100.167 4.76944 99.9146 4.73211 99.6533 4.73211C99.448 4.73211 99.224 4.76944 98.9813 4.84411C98.7386 4.90944 98.538 5.00744 98.3793 5.13811C98.2206 5.26877 98.076 5.43677 97.9453 5.64211C97.8146 5.83811 97.74 6.04344 97.7213 6.25811C97.712 6.31411 97.7026 6.38411 97.6933 6.46811C97.684 6.55211 97.6373 6.59411 97.5533 6.59411C97.5066 6.59411 97.4086 6.57544 97.2593 6.53811C97.1193 6.49144 96.984 6.44011 96.8533 6.38411C96.732 6.31877 96.6713 6.26277 96.6713 6.21611C96.6713 6.18811 96.676 6.16011 96.6853 6.13211C96.6946 6.10411 96.704 6.07611 96.7133 6.04811C96.7786 5.83344 96.83 5.56744 96.8673 5.25011C96.914 4.92344 96.9466 4.58277 96.9653 4.22811C96.984 3.86411 96.998 3.51411 97.0073 3.17811C97.0166 2.84211 97.0213 2.55744 97.0213 2.32411C97.0213 1.77344 96.9933 1.21811 96.9373 0.658105C97.2266 0.695439 97.5113 0.723438 97.7913 0.742105C98.0806 0.760772 98.37 0.770105 98.6593 0.770105H100.661C100.904 0.770105 101.184 0.756105 101.501 0.728105C101.828 0.700105 102.099 0.625438 102.313 0.504105C102.36 0.476105 102.411 0.448105 102.467 0.420105C102.533 0.382771 102.589 0.364105 102.635 0.364105C102.663 0.364105 102.705 0.368771 102.761 0.378105C102.817 0.378105 102.845 0.401438 102.845 0.448105C102.845 0.494772 102.813 0.592772 102.747 0.742105C102.682 0.882105 102.612 1.02677 102.537 1.17611C102.463 1.32544 102.411 1.42344 102.383 1.4701C102.346 1.53544 102.299 1.57744 102.243 1.5961C102.187 1.61477 102.122 1.62411 102.047 1.62411C101.926 1.62411 101.8 1.62411 101.669 1.62411C101.548 1.61477 101.422 1.60544 101.291 1.5961C101.133 1.57744 100.969 1.57277 100.801 1.5821C100.633 1.5821 100.47 1.5821 100.311 1.5821C100.05 1.5821 99.7886 1.5821 99.5273 1.5821C99.266 1.57277 99 1.56811 98.7293 1.56811C98.5706 1.56811 98.4073 1.56811 98.2393 1.56811C98.0806 1.56811 97.922 1.57277 97.7633 1.5821C97.754 2.17011 97.7306 2.76277 97.6933 3.36011C97.6653 3.94811 97.6373 4.53611 97.6093 5.12411C98.0386 4.82544 98.4353 4.60611 98.7993 4.46611C99.1726 4.31677 99.6206 4.24211 100.143 4.24211C100.498 4.24211 100.839 4.29344 101.165 4.3961C101.501 4.49877 101.8 4.67144 102.061 4.9141C102.36 5.19411 102.589 5.53944 102.747 5.95011C102.915 6.36077 102.999 6.77144 102.999 7.18211Z" fill="black"/>
</svg>
