<svg width="82" height="18" viewBox="0 0 82 18" fill="none" xmlns="http://www.w3.org/2000/svg">
<mask id="path-1-outside-1_22_652" maskUnits="userSpaceOnUse" x="-0.605713" y="-0.429504" width="83" height="18" fill="black">
<rect fill="white" x="-0.605713" y="-0.429504" width="83" height="18"/>
<path d="M0.300004 10.8858V9.58186L6.05285 0.479586H6.99887V2.49947H6.35966L2.01307 9.37731V9.47959H9.76023V10.8858H0.300004ZM6.46194 13.5705V10.4895V9.88229V0.479586H7.97046V13.5705H6.46194ZM16.2466 13.7495C15.4966 13.7495 14.8211 13.6003 14.2203 13.302C13.6194 13.0037 13.1379 12.5946 12.7757 12.0748C12.4135 11.5549 12.2153 10.9625 12.1812 10.2978H13.7153C13.775 10.8901 14.0434 11.3802 14.5207 11.7679C15.0022 12.1515 15.5775 12.3432 16.2466 12.3432C16.7835 12.3432 17.2608 12.2175 17.6784 11.9661C18.1003 11.7147 18.4305 11.3695 18.6691 10.9306C18.912 10.4874 19.0335 9.98669 19.0335 9.42845C19.0335 8.85743 18.9078 8.34819 18.6564 7.90075C18.4092 7.44905 18.0683 7.09322 17.6336 6.83328C17.199 6.57334 16.7025 6.44123 16.1443 6.43697C15.7437 6.43271 15.3325 6.4945 14.9106 6.62234C14.4887 6.74592 14.1414 6.90572 13.8687 7.10175L12.3858 6.92277L13.1784 0.479586H19.9795V1.88584H14.5079L14.0477 5.74663H14.1244C14.3929 5.53356 14.7295 5.35672 15.1343 5.21609C15.5392 5.07547 15.961 5.00515 16.4 5.00515C17.2011 5.00515 17.9149 5.19692 18.5413 5.58044C19.172 5.9597 19.6663 6.47959 20.0243 7.1401C20.3865 7.80061 20.5676 8.55487 20.5676 9.40288C20.5676 10.2381 20.3801 10.9838 20.0051 11.6401C19.6343 12.2921 19.123 12.8077 18.471 13.187C17.819 13.562 17.0775 13.7495 16.2466 13.7495ZM24.8902 11.7807L24.7879 12.4711C24.7155 12.9569 24.6047 13.4767 24.4555 14.0307C24.3107 14.5847 24.1594 15.1067 24.0017 15.5968C23.844 16.0868 23.7141 16.4767 23.6118 16.7665H22.4612C22.5166 16.4938 22.5891 16.1337 22.6786 15.6863C22.768 15.2388 22.8575 14.7381 22.947 14.1841C23.0408 13.6344 23.1175 13.0719 23.1771 12.4966L23.2538 11.7807H24.8902ZM31.7041 0.300609C32.2411 0.30487 32.778 0.407143 33.3149 0.607427C33.8519 0.807711 34.3419 1.1401 34.7851 1.60459C35.2283 2.06481 35.5841 2.69336 35.8526 3.49024C36.121 4.28711 36.2553 5.2864 36.2553 6.48811C36.2553 7.65146 36.1445 8.68484 35.9229 9.58825C35.7055 10.4874 35.3902 11.2459 34.9769 11.8638C34.5678 12.4817 34.0692 12.9505 33.4811 13.2701C32.8973 13.5897 32.2368 13.7495 31.4996 13.7495C30.7666 13.7495 30.1125 13.6046 29.5372 13.3148C28.9662 13.0208 28.4974 12.6138 28.131 12.0939C27.7688 11.5698 27.5365 10.9625 27.4342 10.2722H28.9939C29.1345 10.8731 29.4136 11.3695 29.8313 11.7615C30.2531 12.1493 30.8092 12.3432 31.4996 12.3432C32.5095 12.3432 33.3064 11.9022 33.8902 11.0201C34.4783 10.138 34.7723 8.89152 34.7723 7.28072H34.67C34.4314 7.63868 34.148 7.94763 33.8199 8.20757C33.4918 8.46751 33.1274 8.6678 32.7269 8.80842C32.3263 8.94905 31.9001 9.01936 31.4484 9.01936C30.6984 9.01936 30.0102 8.83399 29.3838 8.46325C28.7617 8.08825 28.2631 7.57476 27.8881 6.92277C27.5173 6.26652 27.332 5.51652 27.332 4.67277C27.332 3.87163 27.5109 3.13868 27.8689 2.4739C28.2311 1.80487 28.7382 1.2722 29.3902 0.875893C30.0465 0.479586 30.8178 0.287825 31.7041 0.300609ZM31.7041 1.70686C31.1672 1.70686 30.6835 1.84109 30.2531 2.10956C29.827 2.37376 29.4882 2.73172 29.2368 3.18342C28.9896 3.63086 28.8661 4.12731 28.8661 4.67277C28.8661 5.21822 28.9854 5.71467 29.224 6.16211C29.4669 6.6053 29.7972 6.95899 30.2148 7.22319C30.6367 7.48314 31.1161 7.61311 31.653 7.61311C32.0578 7.61311 32.4349 7.53427 32.7844 7.3766C33.1338 7.21467 33.4385 6.99521 33.6984 6.71822C33.9626 6.43697 34.1693 6.1195 34.3185 5.76581C34.4676 5.40785 34.5422 5.03498 34.5422 4.6472C34.5422 4.13584 34.4186 3.65643 34.1715 3.20899C33.9286 2.76155 33.5919 2.39933 33.1615 2.12234C32.7354 1.84535 32.2496 1.70686 31.7041 1.70686ZM42.9365 0.300609C43.4735 0.30487 44.0104 0.407143 44.5473 0.607427C45.0843 0.807711 45.5743 1.1401 46.0175 1.60459C46.4607 2.06481 46.8165 2.69336 47.085 3.49024C47.3534 4.28711 47.4877 5.2864 47.4877 6.48811C47.4877 7.65146 47.3769 8.68484 47.1553 9.58825C46.938 10.4874 46.6226 11.2459 46.2093 11.8638C45.8002 12.4817 45.3016 12.9505 44.7135 13.2701C44.1297 13.5897 43.4692 13.7495 42.732 13.7495C41.999 13.7495 41.3449 13.6046 40.7696 13.3148C40.1986 13.0208 39.7299 12.6138 39.3634 12.0939C39.0012 11.5698 38.7689 10.9625 38.6667 10.2722H40.2263C40.3669 10.8731 40.6461 11.3695 41.0637 11.7615C41.4856 12.1493 42.0417 12.3432 42.732 12.3432C43.7419 12.3432 44.5388 11.9022 45.1226 11.0201C45.7107 10.138 46.0047 8.89152 46.0047 7.28072H45.9025C45.6638 7.63868 45.3804 7.94763 45.0523 8.20757C44.7242 8.46751 44.3598 8.6678 43.9593 8.80842C43.5587 8.94905 43.1326 9.01936 42.6809 9.01936C41.9309 9.01936 41.2427 8.83399 40.6162 8.46325C39.9941 8.08825 39.4955 7.57476 39.1205 6.92277C38.7498 6.26652 38.5644 5.51652 38.5644 4.67277C38.5644 3.87163 38.7434 3.13868 39.1013 2.4739C39.4635 1.80487 39.9706 1.2722 40.6226 0.875893C41.2789 0.479586 42.0502 0.287825 42.9365 0.300609ZM42.9365 1.70686C42.3996 1.70686 41.9159 1.84109 41.4856 2.10956C41.0594 2.37376 40.7206 2.73172 40.4692 3.18342C40.2221 3.63086 40.0985 4.12731 40.0985 4.67277C40.0985 5.21822 40.2178 5.71467 40.4564 6.16211C40.6993 6.6053 41.0296 6.95899 41.4472 7.22319C41.8691 7.48314 42.3485 7.61311 42.8854 7.61311C43.2902 7.61311 43.6674 7.53427 44.0168 7.3766C44.3662 7.21467 44.6709 6.99521 44.9309 6.71822C45.1951 6.43697 45.4017 6.1195 45.5509 5.76581C45.7 5.40785 45.7746 5.03498 45.7746 4.6472C45.7746 4.13584 45.651 3.65643 45.4039 3.20899C45.161 2.76155 44.8243 2.39933 44.3939 2.12234C43.9678 1.84535 43.482 1.70686 42.9365 1.70686ZM63.8849 0.479586H65.4701V9.1472C65.4701 10.0421 65.2592 10.8411 64.8373 11.5442C64.4197 12.2431 63.8295 12.7949 63.0667 13.1998C62.3039 13.6003 61.409 13.8006 60.382 13.8006C59.355 13.8006 58.4602 13.6003 57.6974 13.1998C56.9346 12.7949 56.3423 12.2431 55.9204 11.5442C55.5028 10.8411 55.294 10.0421 55.294 9.1472V0.479586H56.8792V9.01936C56.8792 9.65856 57.0198 10.2275 57.3011 10.726C57.5823 11.2204 57.9829 11.6103 58.5028 11.8958C59.0269 12.177 59.6533 12.3177 60.382 12.3177C61.1107 12.3177 61.7371 12.177 62.2613 11.8958C62.7854 11.6103 63.186 11.2204 63.463 10.726C63.7443 10.2275 63.8849 9.65856 63.8849 9.01936V0.479586ZM69.9397 7.66425V13.5705H68.4312V3.75231H69.8886V5.2864H70.0164C70.2466 4.78783 70.596 4.38726 71.0647 4.0847C71.5335 3.77788 72.1386 3.62447 72.8801 3.62447C73.5449 3.62447 74.1265 3.76084 74.6251 4.03356C75.1237 4.30203 75.5115 4.71112 75.7885 5.26084C76.0655 5.80629 76.2039 6.49663 76.2039 7.33186V13.5705H74.6954V7.43413C74.6954 6.66283 74.4951 6.06197 74.0946 5.63157C73.694 5.19692 73.1443 4.97959 72.4454 4.97959C71.9639 4.97959 71.5335 5.08399 71.1542 5.2928C70.7792 5.5016 70.4831 5.80629 70.2657 6.20686C70.0484 6.60743 69.9397 7.09322 69.9397 7.66425ZM80.0599 13.6728C79.7446 13.6728 79.474 13.5598 79.2482 13.334C79.0223 13.1081 78.9094 12.8375 78.9094 12.5222C78.9094 12.2069 79.0223 11.9363 79.2482 11.7104C79.474 11.4846 79.7446 11.3716 80.0599 11.3716C80.3753 11.3716 80.6459 11.4846 80.8717 11.7104C81.0976 11.9363 81.2105 12.2069 81.2105 12.5222C81.2105 12.731 81.1572 12.9228 81.0507 13.0975C80.9484 13.2722 80.8099 13.4128 80.6352 13.5194C80.4648 13.6216 80.273 13.6728 80.0599 13.6728Z"/>
</mask>
<path d="M0.300004 10.8858V9.58186L6.05285 0.479586H6.99887V2.49947H6.35966L2.01307 9.37731V9.47959H9.76023V10.8858H0.300004ZM6.46194 13.5705V10.4895V9.88229V0.479586H7.97046V13.5705H6.46194ZM16.2466 13.7495C15.4966 13.7495 14.8211 13.6003 14.2203 13.302C13.6194 13.0037 13.1379 12.5946 12.7757 12.0748C12.4135 11.5549 12.2153 10.9625 12.1812 10.2978H13.7153C13.775 10.8901 14.0434 11.3802 14.5207 11.7679C15.0022 12.1515 15.5775 12.3432 16.2466 12.3432C16.7835 12.3432 17.2608 12.2175 17.6784 11.9661C18.1003 11.7147 18.4305 11.3695 18.6691 10.9306C18.912 10.4874 19.0335 9.98669 19.0335 9.42845C19.0335 8.85743 18.9078 8.34819 18.6564 7.90075C18.4092 7.44905 18.0683 7.09322 17.6336 6.83328C17.199 6.57334 16.7025 6.44123 16.1443 6.43697C15.7437 6.43271 15.3325 6.4945 14.9106 6.62234C14.4887 6.74592 14.1414 6.90572 13.8687 7.10175L12.3858 6.92277L13.1784 0.479586H19.9795V1.88584H14.5079L14.0477 5.74663H14.1244C14.3929 5.53356 14.7295 5.35672 15.1343 5.21609C15.5392 5.07547 15.961 5.00515 16.4 5.00515C17.2011 5.00515 17.9149 5.19692 18.5413 5.58044C19.172 5.9597 19.6663 6.47959 20.0243 7.1401C20.3865 7.80061 20.5676 8.55487 20.5676 9.40288C20.5676 10.2381 20.3801 10.9838 20.0051 11.6401C19.6343 12.2921 19.123 12.8077 18.471 13.187C17.819 13.562 17.0775 13.7495 16.2466 13.7495ZM24.8902 11.7807L24.7879 12.4711C24.7155 12.9569 24.6047 13.4767 24.4555 14.0307C24.3107 14.5847 24.1594 15.1067 24.0017 15.5968C23.844 16.0868 23.7141 16.4767 23.6118 16.7665H22.4612C22.5166 16.4938 22.5891 16.1337 22.6786 15.6863C22.768 15.2388 22.8575 14.7381 22.947 14.1841C23.0408 13.6344 23.1175 13.0719 23.1771 12.4966L23.2538 11.7807H24.8902ZM31.7041 0.300609C32.2411 0.30487 32.778 0.407143 33.3149 0.607427C33.8519 0.807711 34.3419 1.1401 34.7851 1.60459C35.2283 2.06481 35.5841 2.69336 35.8526 3.49024C36.121 4.28711 36.2553 5.2864 36.2553 6.48811C36.2553 7.65146 36.1445 8.68484 35.9229 9.58825C35.7055 10.4874 35.3902 11.2459 34.9769 11.8638C34.5678 12.4817 34.0692 12.9505 33.4811 13.2701C32.8973 13.5897 32.2368 13.7495 31.4996 13.7495C30.7666 13.7495 30.1125 13.6046 29.5372 13.3148C28.9662 13.0208 28.4974 12.6138 28.131 12.0939C27.7688 11.5698 27.5365 10.9625 27.4342 10.2722H28.9939C29.1345 10.8731 29.4136 11.3695 29.8313 11.7615C30.2531 12.1493 30.8092 12.3432 31.4996 12.3432C32.5095 12.3432 33.3064 11.9022 33.8902 11.0201C34.4783 10.138 34.7723 8.89152 34.7723 7.28072H34.67C34.4314 7.63868 34.148 7.94763 33.8199 8.20757C33.4918 8.46751 33.1274 8.6678 32.7269 8.80842C32.3263 8.94905 31.9001 9.01936 31.4484 9.01936C30.6984 9.01936 30.0102 8.83399 29.3838 8.46325C28.7617 8.08825 28.2631 7.57476 27.8881 6.92277C27.5173 6.26652 27.332 5.51652 27.332 4.67277C27.332 3.87163 27.5109 3.13868 27.8689 2.4739C28.2311 1.80487 28.7382 1.2722 29.3902 0.875893C30.0465 0.479586 30.8178 0.287825 31.7041 0.300609ZM31.7041 1.70686C31.1672 1.70686 30.6835 1.84109 30.2531 2.10956C29.827 2.37376 29.4882 2.73172 29.2368 3.18342C28.9896 3.63086 28.8661 4.12731 28.8661 4.67277C28.8661 5.21822 28.9854 5.71467 29.224 6.16211C29.4669 6.6053 29.7972 6.95899 30.2148 7.22319C30.6367 7.48314 31.1161 7.61311 31.653 7.61311C32.0578 7.61311 32.4349 7.53427 32.7844 7.3766C33.1338 7.21467 33.4385 6.99521 33.6984 6.71822C33.9626 6.43697 34.1693 6.1195 34.3185 5.76581C34.4676 5.40785 34.5422 5.03498 34.5422 4.6472C34.5422 4.13584 34.4186 3.65643 34.1715 3.20899C33.9286 2.76155 33.5919 2.39933 33.1615 2.12234C32.7354 1.84535 32.2496 1.70686 31.7041 1.70686ZM42.9365 0.300609C43.4735 0.30487 44.0104 0.407143 44.5473 0.607427C45.0843 0.807711 45.5743 1.1401 46.0175 1.60459C46.4607 2.06481 46.8165 2.69336 47.085 3.49024C47.3534 4.28711 47.4877 5.2864 47.4877 6.48811C47.4877 7.65146 47.3769 8.68484 47.1553 9.58825C46.938 10.4874 46.6226 11.2459 46.2093 11.8638C45.8002 12.4817 45.3016 12.9505 44.7135 13.2701C44.1297 13.5897 43.4692 13.7495 42.732 13.7495C41.999 13.7495 41.3449 13.6046 40.7696 13.3148C40.1986 13.0208 39.7299 12.6138 39.3634 12.0939C39.0012 11.5698 38.7689 10.9625 38.6667 10.2722H40.2263C40.3669 10.8731 40.6461 11.3695 41.0637 11.7615C41.4856 12.1493 42.0417 12.3432 42.732 12.3432C43.7419 12.3432 44.5388 11.9022 45.1226 11.0201C45.7107 10.138 46.0047 8.89152 46.0047 7.28072H45.9025C45.6638 7.63868 45.3804 7.94763 45.0523 8.20757C44.7242 8.46751 44.3598 8.6678 43.9593 8.80842C43.5587 8.94905 43.1326 9.01936 42.6809 9.01936C41.9309 9.01936 41.2427 8.83399 40.6162 8.46325C39.9941 8.08825 39.4955 7.57476 39.1205 6.92277C38.7498 6.26652 38.5644 5.51652 38.5644 4.67277C38.5644 3.87163 38.7434 3.13868 39.1013 2.4739C39.4635 1.80487 39.9706 1.2722 40.6226 0.875893C41.2789 0.479586 42.0502 0.287825 42.9365 0.300609ZM42.9365 1.70686C42.3996 1.70686 41.9159 1.84109 41.4856 2.10956C41.0594 2.37376 40.7206 2.73172 40.4692 3.18342C40.2221 3.63086 40.0985 4.12731 40.0985 4.67277C40.0985 5.21822 40.2178 5.71467 40.4564 6.16211C40.6993 6.6053 41.0296 6.95899 41.4472 7.22319C41.8691 7.48314 42.3485 7.61311 42.8854 7.61311C43.2902 7.61311 43.6674 7.53427 44.0168 7.3766C44.3662 7.21467 44.6709 6.99521 44.9309 6.71822C45.1951 6.43697 45.4017 6.1195 45.5509 5.76581C45.7 5.40785 45.7746 5.03498 45.7746 4.6472C45.7746 4.13584 45.651 3.65643 45.4039 3.20899C45.161 2.76155 44.8243 2.39933 44.3939 2.12234C43.9678 1.84535 43.482 1.70686 42.9365 1.70686ZM63.8849 0.479586H65.4701V9.1472C65.4701 10.0421 65.2592 10.8411 64.8373 11.5442C64.4197 12.2431 63.8295 12.7949 63.0667 13.1998C62.3039 13.6003 61.409 13.8006 60.382 13.8006C59.355 13.8006 58.4602 13.6003 57.6974 13.1998C56.9346 12.7949 56.3423 12.2431 55.9204 11.5442C55.5028 10.8411 55.294 10.0421 55.294 9.1472V0.479586H56.8792V9.01936C56.8792 9.65856 57.0198 10.2275 57.3011 10.726C57.5823 11.2204 57.9829 11.6103 58.5028 11.8958C59.0269 12.177 59.6533 12.3177 60.382 12.3177C61.1107 12.3177 61.7371 12.177 62.2613 11.8958C62.7854 11.6103 63.186 11.2204 63.463 10.726C63.7443 10.2275 63.8849 9.65856 63.8849 9.01936V0.479586ZM69.9397 7.66425V13.5705H68.4312V3.75231H69.8886V5.2864H70.0164C70.2466 4.78783 70.596 4.38726 71.0647 4.0847C71.5335 3.77788 72.1386 3.62447 72.8801 3.62447C73.5449 3.62447 74.1265 3.76084 74.6251 4.03356C75.1237 4.30203 75.5115 4.71112 75.7885 5.26084C76.0655 5.80629 76.2039 6.49663 76.2039 7.33186V13.5705H74.6954V7.43413C74.6954 6.66283 74.4951 6.06197 74.0946 5.63157C73.694 5.19692 73.1443 4.97959 72.4454 4.97959C71.9639 4.97959 71.5335 5.08399 71.1542 5.2928C70.7792 5.5016 70.4831 5.80629 70.2657 6.20686C70.0484 6.60743 69.9397 7.09322 69.9397 7.66425ZM80.0599 13.6728C79.7446 13.6728 79.474 13.5598 79.2482 13.334C79.0223 13.1081 78.9094 12.8375 78.9094 12.5222C78.9094 12.2069 79.0223 11.9363 79.2482 11.7104C79.474 11.4846 79.7446 11.3716 80.0599 11.3716C80.3753 11.3716 80.6459 11.4846 80.8717 11.7104C81.0976 11.9363 81.2105 12.2069 81.2105 12.5222C81.2105 12.731 81.1572 12.9228 81.0507 13.0975C80.9484 13.2722 80.8099 13.4128 80.6352 13.5194C80.4648 13.6216 80.273 13.6728 80.0599 13.6728Z" fill="#1C2434"/>
<path d="M0.300005 10.8858H4.76837e-06V11.1858H0.300005V10.8858ZM0.300005 9.58186L0.0464087 9.42158L4.76837e-06 9.495V9.58186H0.300005ZM6.05285 0.479586V0.179586H5.88756L5.79925 0.319308L6.05285 0.479586ZM6.99887 0.479586H7.29887V0.179586H6.99887V0.479586ZM6.99887 2.49947V2.79947H7.29887V2.49947H6.99887ZM6.35966 2.49947V2.19947H6.19437L6.10606 2.3392L6.35966 2.49947ZM2.01307 9.37731L1.75947 9.21704L1.71307 9.29046V9.37731H2.01307ZM2.01307 9.47959H1.71307V9.77959H2.01307V9.47959ZM9.76023 9.47959H10.0602V9.17959H9.76023V9.47959ZM9.76023 10.8858V11.1858H10.0602V10.8858H9.76023ZM6.46194 13.5705H6.16194V13.8705H6.46194V13.5705ZM6.46194 0.479586V0.179586H6.16194V0.479586H6.46194ZM7.97046 0.479586H8.27046V0.179586H7.97046V0.479586ZM7.97046 13.5705V13.8705H8.27046V13.5705H7.97046ZM0.300005 10.8858H0.600004V9.58186H0.300005H4.76837e-06V10.8858H0.300005ZM0.300005 9.58186L0.5536 9.74214L6.30644 0.639864L6.05285 0.479586L5.79925 0.319308L0.0464087 9.42158L0.300005 9.58186ZM6.05285 0.479586V0.779586H6.99887V0.479586V0.179586H6.05285V0.479586ZM6.99887 0.479586H6.69887V2.49947H6.99887H7.29887V0.479586H6.99887ZM6.99887 2.49947V2.19947H6.35966V2.49947V2.79947H6.99887V2.49947ZM6.35966 2.49947L6.10606 2.3392L1.75947 9.21704L2.01307 9.37731L2.26667 9.53758L6.61327 2.65974L6.35966 2.49947ZM2.01307 9.37731H1.71307V9.47959H2.01307H2.31307V9.37731H2.01307ZM2.01307 9.47959V9.77959H9.76023V9.47959V9.17959H2.01307V9.47959ZM9.76023 9.47959H9.46023V10.8858H9.76023H10.0602V9.47959H9.76023ZM9.76023 10.8858V10.5858H0.300005V10.8858V11.1858H9.76023V10.8858ZM6.46194 13.5705H6.76194V10.4895H6.46194H6.16194V13.5705H6.46194ZM6.46194 10.4895H6.76194V9.88229H6.46194H6.16194V10.4895H6.46194ZM6.46194 9.88229H6.76194V0.479586H6.46194H6.16194V9.88229H6.46194ZM6.46194 0.479586V0.779586H7.97046V0.479586V0.179586H6.46194V0.479586ZM7.97046 0.479586H7.67046V13.5705H7.97046H8.27046V0.479586H7.97046ZM7.97046 13.5705V13.2705H6.46194V13.5705V13.8705H7.97046V13.5705ZM14.2203 13.302L14.0869 13.5707V13.5707L14.2203 13.302ZM12.7757 12.0748L13.0218 11.9033V11.9033L12.7757 12.0748ZM12.1812 10.2978V9.99777H11.8654L11.8816 10.3131L12.1812 10.2978ZM13.7153 10.2978L14.0138 10.2677L13.9866 9.99777H13.7153V10.2978ZM14.5207 11.7679L14.3315 12.0008L14.3338 12.0026L14.5207 11.7679ZM17.6784 11.9661L17.5248 11.7084L17.5236 11.7091L17.6784 11.9661ZM18.6691 10.9306L18.4061 10.7864L18.4056 10.7873L18.6691 10.9306ZM18.6564 7.90075L18.3932 8.04476L18.3948 8.04771L18.6564 7.90075ZM16.1443 6.43697L16.1411 6.73696L16.142 6.73696L16.1443 6.43697ZM14.9106 6.62234L14.995 6.91026L14.9976 6.90945L14.9106 6.62234ZM13.8687 7.10175L13.8328 7.39958L13.9489 7.4136L14.0438 7.34535L13.8687 7.10175ZM12.3858 6.92277L12.088 6.88614L12.0513 7.18458L12.3498 7.22061L12.3858 6.92277ZM13.1784 0.479586V0.179586H12.913L12.8806 0.442958L13.1784 0.479586ZM19.9795 0.479586H20.2795V0.179586H19.9795V0.479586ZM19.9795 1.88584V2.18584H20.2795V1.88584H19.9795ZM14.5079 1.88584V1.58584H14.2416L14.21 1.85033L14.5079 1.88584ZM14.0477 5.74663L13.7498 5.71112L13.7098 6.04663H14.0477V5.74663ZM14.1244 5.74663V6.04663H14.229L14.3109 5.98162L14.1244 5.74663ZM18.5413 5.58044L18.3847 5.8363L18.3867 5.83753L18.5413 5.58044ZM20.0243 7.1401L19.7605 7.28304L19.7612 7.28435L20.0243 7.1401ZM20.0051 11.6401L19.7446 11.4913L19.7443 11.4918L20.0051 11.6401ZM18.471 13.187L18.6206 13.447L18.6218 13.4463L18.471 13.187ZM16.2466 13.7495V13.4495C15.5373 13.4495 14.9084 13.3087 14.3537 13.0333L14.2203 13.302L14.0869 13.5707C14.7339 13.8919 15.4558 14.0495 16.2466 14.0495V13.7495ZM14.2203 13.302L14.3537 13.0333C13.7952 12.7561 13.3535 12.3793 13.0218 11.9033L12.7757 12.0748L12.5295 12.2463C12.9223 12.8099 13.4436 13.2514 14.0869 13.5707L14.2203 13.302ZM12.7757 12.0748L13.0218 11.9033C12.6933 11.4318 12.5122 10.8941 12.4808 10.2824L12.1812 10.2978L11.8816 10.3131C11.9184 11.031 12.1336 11.678 12.5295 12.2463L12.7757 12.0748ZM12.1812 10.2978V10.5978H13.7153V10.2978V9.99777H12.1812V10.2978ZM13.7153 10.2978L13.4168 10.3278C13.4848 11.0025 13.7946 11.5645 14.3315 12.0008L14.5207 11.7679L14.7099 11.5351C14.2923 11.1958 14.0652 10.7777 14.0138 10.2677L13.7153 10.2978ZM14.5207 11.7679L14.3338 12.0026C14.8732 12.4322 15.5159 12.6432 16.2466 12.6432V12.3432V12.0432C15.6391 12.0432 15.1313 11.8707 14.7076 11.5333L14.5207 11.7679ZM16.2466 12.3432V12.6432C16.8323 12.6432 17.3641 12.5055 17.8331 12.2231L17.6784 11.9661L17.5236 11.7091C17.1574 11.9296 16.7347 12.0432 16.2466 12.0432V12.3432ZM17.6784 11.9661L17.832 12.2238C18.3009 11.9443 18.6688 11.5593 18.9327 11.0739L18.6691 10.9306L18.4056 10.7873C18.1922 11.1797 17.8996 11.485 17.5248 11.7084L17.6784 11.9661ZM18.6691 10.9306L18.9322 11.0748C19.2018 10.5829 19.3335 10.0317 19.3335 9.42845H19.0335H18.7335C18.7335 9.94167 18.6223 10.3919 18.4061 10.7864L18.6691 10.9306ZM19.0335 9.42845H19.3335C19.3335 8.81187 19.1973 8.251 18.9179 7.75379L18.6564 7.90075L18.3948 8.04771C18.6183 8.44538 18.7335 8.90298 18.7335 9.42845H19.0335ZM18.6564 7.90075L18.9195 7.75675C18.6472 7.25899 18.2689 6.86365 17.7876 6.57581L17.6336 6.83328L17.4797 7.09075C17.8677 7.32279 18.1712 7.6391 18.3932 8.04475L18.6564 7.90075ZM17.6336 6.83328L17.7876 6.57581C17.3025 6.28568 16.7526 6.14161 16.1466 6.13698L16.1443 6.43697L16.142 6.73696C16.6524 6.74086 17.0955 6.86099 17.4797 7.09075L17.6336 6.83328ZM16.1443 6.43697L16.1475 6.13699C15.7135 6.13237 15.2718 6.19942 14.8236 6.33523L14.9106 6.62234L14.9976 6.90945C15.3932 6.78959 15.774 6.73305 16.1411 6.73696L16.1443 6.43697ZM14.9106 6.62234L14.8263 6.33444C14.3814 6.46477 14.0009 6.63728 13.6936 6.85814L13.8687 7.10175L14.0438 7.34535C14.282 7.17416 14.5961 7.02707 14.995 6.91024L14.9106 6.62234ZM13.8687 7.10175L13.9047 6.80391L12.4217 6.62493L12.3858 6.92277L12.3498 7.22061L13.8328 7.39958L13.8687 7.10175ZM12.3858 6.92277L12.6835 6.9594L13.4761 0.516214L13.1784 0.479586L12.8806 0.442958L12.088 6.88614L12.3858 6.92277ZM13.1784 0.479586V0.779586H19.9795V0.479586V0.179586H13.1784V0.479586ZM19.9795 0.479586H19.6795V1.88584H19.9795H20.2795V0.479586H19.9795ZM19.9795 1.88584V1.58584H14.5079V1.88584V2.18584H19.9795V1.88584ZM14.5079 1.88584L14.21 1.85033L13.7498 5.71112L14.0477 5.74663L14.3456 5.78214L14.8058 1.92135L14.5079 1.88584ZM14.0477 5.74663V6.04663H14.1244V5.74663V5.44663H14.0477V5.74663ZM14.1244 5.74663L14.3109 5.98162C14.5473 5.79402 14.8522 5.63169 15.2328 5.49948L15.1343 5.21609L15.0359 4.9327C14.6069 5.08174 14.2385 5.27311 13.9379 5.51165L14.1244 5.74663ZM15.1343 5.21609L15.2328 5.49948C15.6052 5.37012 15.9937 5.30515 16.4 5.30515V5.00515V4.70515C15.9284 4.70515 15.4732 4.78082 15.0359 4.9327L15.1343 5.21609ZM16.4 5.00515V5.30515C17.151 5.30515 17.8096 5.48423 18.3847 5.83629L18.5413 5.58044L18.698 5.32458C18.0201 4.9096 17.2512 4.70515 16.4 4.70515V5.00515ZM18.5413 5.58044L18.3867 5.83753C18.9705 6.18858 19.4275 6.66861 19.7605 7.28304L20.0243 7.1401L20.288 6.99716C19.9051 6.29056 19.3735 5.73082 18.6959 5.32334L18.5413 5.58044ZM20.0243 7.1401L19.7612 7.28435C20.0963 7.89532 20.2676 8.59886 20.2676 9.40288H20.5676H20.8676C20.8676 8.51089 20.6767 7.7059 20.2873 6.99585L20.0243 7.1401ZM20.5676 9.40288H20.2676C20.2676 10.1915 20.0911 10.885 19.7446 11.4913L20.0051 11.6401L20.2656 11.7889C20.6691 11.0827 20.8676 10.2847 20.8676 9.40288H20.5676ZM20.0051 11.6401L19.7443 11.4918C19.3999 12.0975 18.9266 12.5749 18.3201 12.9277L18.471 13.187L18.6218 13.4463C19.3194 13.0405 19.8688 12.4867 20.2659 11.7884L20.0051 11.6401ZM18.471 13.187L18.3214 12.9269C17.7196 13.2731 17.0307 13.4495 16.2466 13.4495V13.7495V14.0495C17.1244 14.0495 17.9184 13.8509 18.6206 13.447L18.471 13.187ZM24.8902 11.7807L25.187 11.8247L25.2379 11.4807H24.8902V11.7807ZM24.7879 12.4711L25.0846 12.5153L25.0847 12.515L24.7879 12.4711ZM24.4555 14.0307L24.1659 13.9527L24.1653 13.9548L24.4555 14.0307ZM23.6118 16.7665V17.0665H23.8241L23.8947 16.8664L23.6118 16.7665ZM22.4612 16.7665L22.1672 16.7068L22.0942 17.0665H22.4612V16.7665ZM22.6786 15.6863L22.3844 15.6274V15.6274L22.6786 15.6863ZM22.947 14.1841L22.6513 14.1337L22.6509 14.1363L22.947 14.1841ZM23.1771 12.4966L22.8788 12.4647L22.8787 12.4657L23.1771 12.4966ZM23.2538 11.7807V11.4807H22.9843L22.9555 11.7488L23.2538 11.7807ZM24.8902 11.7807L24.5934 11.7368L24.4912 12.4271L24.7879 12.4711L25.0847 12.515L25.187 11.8247L24.8902 11.7807ZM24.7879 12.4711L24.4912 12.4268C24.4207 12.8995 24.3125 13.4081 24.1659 13.9527L24.4555 14.0307L24.7452 14.1087C24.8969 13.5454 25.0103 13.0142 25.0846 12.5153L24.7879 12.4711ZM24.4555 14.0307L24.1653 13.9548C24.0217 14.504 23.8719 15.0207 23.7161 15.5049L24.0017 15.5968L24.2873 15.6887C24.4468 15.1928 24.5996 14.6654 24.7458 14.1066L24.4555 14.0307ZM24.0017 15.5968L23.7161 15.5049C23.5588 15.9938 23.4298 16.3807 23.3289 16.6667L23.6118 16.7665L23.8947 16.8664C23.9983 16.5728 24.1292 16.1799 24.2873 15.6887L24.0017 15.5968ZM23.6118 16.7665V16.4665H22.4612V16.7665V17.0665H23.6118V16.7665ZM22.4612 16.7665L22.7552 16.8262C22.8107 16.5531 22.8832 16.1927 22.9727 15.7451L22.6786 15.6863L22.3844 15.6274C22.2949 16.0747 22.2225 16.4345 22.1672 16.7068L22.4612 16.7665ZM22.6786 15.6863L22.9727 15.7451C23.0631 15.2933 23.1532 14.7888 23.2432 14.232L22.947 14.1841L22.6509 14.1363C22.5618 14.6874 22.473 15.1844 22.3844 15.6274L22.6786 15.6863ZM22.947 14.1841L23.2428 14.2346C23.3376 13.6782 23.4152 13.1091 23.4755 12.5276L23.1771 12.4966L22.8787 12.4657C22.8197 13.0347 22.7439 13.5907 22.6513 14.1337L22.947 14.1841ZM23.1771 12.4966L23.4754 12.5286L23.5521 11.8127L23.2538 11.7807L22.9555 11.7488L22.8788 12.4647L23.1771 12.4966ZM23.2538 11.7807V12.0807H24.8902V11.7807V11.4807H23.2538V11.7807ZM31.7041 0.300609L31.6998 0.600584L31.7017 0.600599L31.7041 0.300609ZM33.3149 0.607427L33.4198 0.326345V0.326344L33.3149 0.607427ZM34.7851 1.60459L34.568 1.81168L34.569 1.81268L34.7851 1.60459ZM35.8526 3.49024L35.5683 3.58602V3.58602L35.8526 3.49024ZM35.9229 9.58825L35.6315 9.51678L35.6313 9.51777L35.9229 9.58825ZM34.9769 11.8638L34.7275 11.697L34.7267 11.6982L34.9769 11.8638ZM33.4811 13.2701L33.3379 13.0065L33.3371 13.0069L33.4811 13.2701ZM29.5372 13.3148L29.3999 13.5815L29.4023 13.5827L29.5372 13.3148ZM28.131 12.0939L27.8842 12.2645L27.8858 12.2668L28.131 12.0939ZM27.4342 10.2722V9.9722H27.0865L27.1375 10.3162L27.4342 10.2722ZM28.9939 10.2722L29.286 10.2038L29.2318 9.9722H28.9939V10.2722ZM29.8313 11.7615L29.6259 11.9803L29.6282 11.9824L29.8313 11.7615ZM33.8902 11.0201L33.6406 10.8537L33.64 10.8545L33.8902 11.0201ZM34.7723 7.28072H35.0723V6.98072H34.7723V7.28072ZM34.67 7.28072V6.98072H34.5095L34.4204 7.11431L34.67 7.28072ZM29.3838 8.46325L29.2289 8.7202L29.231 8.72142L29.3838 8.46325ZM27.8881 6.92277L27.6269 7.07033L27.628 7.07234L27.8881 6.92277ZM27.8689 2.4739L27.6051 2.33107L27.6048 2.33167L27.8689 2.4739ZM29.3902 0.875894L29.2351 0.619086L29.2344 0.619536L29.3902 0.875894ZM30.2531 2.10956L30.4112 2.36453L30.4119 2.3641L30.2531 2.10956ZM29.2368 3.18342L28.9747 3.03752L28.9742 3.03837L29.2368 3.18342ZM29.224 6.16212L28.9593 6.3033L28.9609 6.3063L29.224 6.16212ZM30.2148 7.22319L30.0544 7.47674L30.0574 7.4786L30.2148 7.22319ZM32.7844 7.3766L32.9078 7.65007L32.9105 7.6488L32.7844 7.3766ZM33.6984 6.71822L33.4798 6.51282L33.4797 6.51293L33.6984 6.71822ZM34.3185 5.76581L34.5949 5.88238L34.5954 5.88119L34.3185 5.76581ZM34.1715 3.20899L33.9078 3.35212L33.9089 3.35404L34.1715 3.20899ZM33.1615 2.12234L32.998 2.37388L32.9992 2.37461L33.1615 2.12234ZM31.7041 0.300609L31.7017 0.600599C32.2014 0.604565 32.7037 0.699629 33.2101 0.888509L33.3149 0.607427L33.4198 0.326344C32.8523 0.114657 32.2807 0.00517559 31.7065 0.000617981L31.7041 0.300609ZM33.3149 0.607427L33.2101 0.888508C33.6996 1.07112 34.1524 1.37604 34.568 1.81168L34.7851 1.60459L35.0021 1.39749C34.5314 0.904153 34.0041 0.544306 33.4198 0.326345L33.3149 0.607427ZM34.7851 1.60459L34.569 1.81268C34.9733 2.23254 35.3097 2.81845 35.5683 3.58602L35.8526 3.49024L36.1369 3.39446C35.8585 2.56827 35.4832 1.89708 35.0012 1.39649L34.7851 1.60459ZM35.8526 3.49024L35.5683 3.58602C35.8229 4.3419 35.9553 5.3062 35.9553 6.48811H36.2553H36.5553C36.5553 5.26661 36.4191 4.23233 36.1369 3.39446L35.8526 3.49024ZM36.2553 6.48811H35.9553C35.9553 7.6331 35.8461 8.64174 35.6315 9.51678L35.9229 9.58825L36.2142 9.65972C36.4428 8.72795 36.5553 7.66982 36.5553 6.48811H36.2553ZM35.9229 9.58825L35.6313 9.51777C35.4203 10.3906 35.1171 11.1147 34.7275 11.697L34.9769 11.8638L35.2262 12.0306C35.6633 11.3772 35.9908 10.5842 36.2145 9.65873L35.9229 9.58825ZM34.9769 11.8638L34.7267 11.6982C34.3417 12.2797 33.8783 12.7127 33.3379 13.0065L33.4811 13.2701L33.6244 13.5337C34.26 13.1882 34.7938 12.6838 35.227 12.0294L34.9769 11.8638ZM33.4811 13.2701L33.3371 13.0069C32.802 13.2998 32.192 13.4495 31.4996 13.4495V13.7495V14.0495C32.2816 14.0495 32.9926 13.8795 33.6252 13.5332L33.4811 13.2701ZM31.4996 13.7495V13.4495C30.807 13.4495 30.2002 13.3128 29.6722 13.0469L29.5372 13.3148L29.4023 13.5827C30.0249 13.8963 30.7263 14.0495 31.4996 14.0495V13.7495ZM29.5372 13.3148L29.6746 13.0481C29.1461 12.776 28.7145 12.401 28.3762 11.9211L28.131 12.0939L27.8858 12.2668C28.2804 12.8266 28.7863 13.2656 29.3999 13.5815L29.5372 13.3148ZM28.131 12.0939L28.3778 11.9234C28.0441 11.4405 27.8272 10.8775 27.731 10.2282L27.4342 10.2722L27.1375 10.3162C27.2458 11.0476 27.4934 11.699 27.8842 12.2645L28.131 12.0939ZM27.4342 10.2722V10.5722H28.9939V10.2722V9.9722H27.4342V10.2722ZM28.9939 10.2722L28.7018 10.3406C28.8548 10.9943 29.1618 11.5446 29.6259 11.9803L29.8313 11.7615L30.0366 11.5428C29.6654 11.1944 29.4142 10.7518 29.286 10.2038L28.9939 10.2722ZM29.8313 11.7615L29.6282 11.9824C30.1164 12.4311 30.7503 12.6432 31.4996 12.6432V12.3432V12.0432C30.8682 12.0432 30.3899 11.8676 30.0343 11.5407L29.8313 11.7615ZM31.4996 12.3432V12.6432C32.6158 12.6432 33.5042 12.1469 34.1404 11.1856L33.8902 11.0201L33.64 10.8545C33.1086 11.6574 32.4033 12.0432 31.4996 12.0432V12.3432ZM33.8902 11.0201L34.1398 11.1865C34.7737 10.2357 35.0723 8.92203 35.0723 7.28072H34.7723H34.4723C34.4723 8.86101 34.1828 10.0403 33.6406 10.8537L33.8902 11.0201ZM34.7723 7.28072V6.98072H34.67V7.28072V7.58072H34.7723V7.28072ZM34.67 7.28072L34.4204 7.11431C34.1987 7.44692 33.9365 7.73248 33.6336 7.97242L33.8199 8.20757L34.0062 8.44272C34.3596 8.16278 34.6641 7.83044 34.9196 7.44713L34.67 7.28072ZM33.8199 8.20757L33.6336 7.97242C33.332 8.21138 32.9971 8.39561 32.6275 8.52536L32.7269 8.80842L32.8262 9.09149C33.2578 8.93999 33.6516 8.72365 34.0062 8.44272L33.8199 8.20757ZM32.7269 8.80842L32.6275 8.52536C32.2608 8.65407 31.8685 8.71936 31.4484 8.71936V9.01936V9.31936C31.9318 9.31936 32.3917 9.24402 32.8262 9.09149L32.7269 8.80842ZM31.4484 9.01936V8.71936C30.7505 8.71936 30.1153 8.54758 29.5366 8.20508L29.3838 8.46325L29.231 8.72142C29.9052 9.1204 30.6464 9.31936 31.4484 9.31936V9.01936ZM29.3838 8.46325L29.5387 8.20631C28.9617 7.85855 28.4987 7.38268 28.1481 6.7732L27.8881 6.92277L27.628 7.07234C28.0275 7.76684 28.5616 8.31796 29.2289 8.72019L29.3838 8.46325ZM27.8881 6.92277L28.1493 6.77521C27.8069 6.16916 27.632 5.47111 27.632 4.67277H27.332H27.032C27.032 5.56193 27.2278 6.36387 27.6269 7.07033L27.8881 6.92277ZM27.332 4.67277H27.632C27.632 3.91815 27.8001 3.23452 28.133 2.61613L27.8689 2.4739L27.6048 2.33167C27.2218 3.04283 27.032 3.82511 27.032 4.67277H27.332ZM27.8689 2.4739L28.1327 2.61673C28.4695 1.99458 28.9393 1.50103 29.546 1.13225L29.3902 0.875894L29.2344 0.619536C28.5371 1.04337 27.9927 1.61516 27.6051 2.33107L27.8689 2.4739ZM29.3902 0.875894L29.5453 1.1327C30.1464 0.769711 30.8606 0.588474 31.6998 0.600577L31.7041 0.300609L31.7085 0.000639915C30.7749 -0.0128241 29.9465 0.189462 29.2351 0.619088L29.3902 0.875894ZM31.7041 1.70686V1.40686C31.1145 1.40686 30.5752 1.55508 30.0944 1.85502L30.2531 2.10956L30.4119 2.3641C30.7918 2.12711 31.2199 2.00686 31.7041 2.00686V1.70686ZM30.2531 2.10956L30.095 1.85459C29.6241 2.14656 29.2501 2.54264 28.9747 3.03752L29.2368 3.18342L29.4989 3.32932C29.7263 2.92079 30.0299 2.60097 30.4112 2.36453L30.2531 2.10956ZM29.2368 3.18342L28.9742 3.03837C28.7009 3.5332 28.5661 4.08009 28.5661 4.67277H28.8661H29.1661C29.1661 4.17454 29.2784 3.72853 29.4994 3.32848L29.2368 3.18342ZM28.8661 4.67277H28.5661C28.5661 5.26364 28.6958 5.80914 28.9593 6.30329L29.224 6.16212L29.4887 6.02094C29.275 5.6202 29.1661 5.1728 29.1661 4.67277H28.8661ZM29.224 6.16212L28.9609 6.3063C29.2277 6.79298 29.5928 7.18472 30.0544 7.47672L30.2148 7.22319L30.3752 6.96967C30.0015 6.73326 29.7061 6.41761 29.4871 6.01793L29.224 6.16212ZM30.2148 7.22319L30.0574 7.4786C30.5305 7.77013 31.0653 7.91311 31.653 7.91311V7.61311V7.31311C31.1668 7.31311 30.7428 7.19615 30.3722 6.96778L30.2148 7.22319ZM31.653 7.61311V7.91311C32.0979 7.91311 32.5174 7.8262 32.9078 7.65005L32.7844 7.3766L32.661 7.10315C32.3525 7.24235 32.0177 7.31311 31.653 7.31311V7.61311ZM32.7844 7.3766L32.9105 7.6488C33.2943 7.47093 33.6306 7.22893 33.9172 6.92352L33.6984 6.71822L33.4797 6.51293C33.2464 6.76149 32.9733 6.95841 32.6582 7.10441L32.7844 7.3766ZM33.6984 6.71822L33.9171 6.92362C34.2055 6.61657 34.4318 6.26905 34.5949 5.88237L34.3185 5.76581L34.042 5.64924C33.9068 5.96995 33.7197 6.25738 33.4798 6.51282L33.6984 6.71822ZM34.3185 5.76581L34.5954 5.88119C34.7598 5.48668 34.8422 5.07459 34.8422 4.6472H34.5422H34.2422C34.2422 4.99538 34.1755 5.32903 34.0415 5.65042L34.3185 5.76581ZM34.5422 4.6472H34.8422C34.8422 4.08512 34.7058 3.55581 34.4341 3.06393L34.1715 3.20899L33.9089 3.35404C34.1315 3.75706 34.2422 4.18655 34.2422 4.6472H34.5422ZM34.1715 3.20899L34.4351 3.06586C34.168 2.57386 33.7964 2.1742 33.3239 1.87007L33.1615 2.12234L32.9992 2.37461C33.3874 2.62446 33.6891 2.94924 33.9078 3.35212L34.1715 3.20899ZM33.1615 2.12234L33.325 1.87081C32.8466 1.55985 32.3032 1.40686 31.7041 1.40686V1.70686V2.00686C32.196 2.00686 32.6241 2.13085 32.998 2.37387L33.1615 2.12234ZM42.9365 0.300609L42.9322 0.600584L42.9342 0.600599L42.9365 0.300609ZM44.5473 0.607427L44.6522 0.326345V0.326344L44.5473 0.607427ZM46.0175 1.60459L45.8005 1.81168L45.8014 1.81268L46.0175 1.60459ZM47.085 3.49024L46.8007 3.58602V3.58602L47.085 3.49024ZM47.1553 9.58825L46.8639 9.51678L46.8637 9.51777L47.1553 9.58825ZM46.2093 11.8638L45.9599 11.697L45.9591 11.6982L46.2093 11.8638ZM44.7135 13.2701L44.5703 13.0065L44.5695 13.0069L44.7135 13.2701ZM40.7696 13.3148L40.6323 13.5815L40.6347 13.5827L40.7696 13.3148ZM39.3634 12.0939L39.1166 12.2645L39.1182 12.2668L39.3634 12.0939ZM38.6667 10.2722V9.9722H38.3189L38.3699 10.3162L38.6667 10.2722ZM40.2263 10.2722L40.5184 10.2038L40.4642 9.9722H40.2263V10.2722ZM41.0637 11.7615L40.8583 11.9803L40.8607 11.9824L41.0637 11.7615ZM45.1226 11.0201L44.873 10.8537L44.8725 10.8545L45.1226 11.0201ZM46.0047 7.28072H46.3047V6.98072H46.0047V7.28072ZM45.9025 7.28072V6.98072H45.7419L45.6528 7.11431L45.9025 7.28072ZM40.6162 8.46325L40.4614 8.7202L40.4634 8.72142L40.6162 8.46325ZM39.1205 6.92277L38.8593 7.07033L38.8604 7.07234L39.1205 6.92277ZM39.1013 2.4739L38.8375 2.33107L38.8372 2.33167L39.1013 2.4739ZM40.6226 0.875894L40.4675 0.619086L40.4668 0.619536L40.6226 0.875894ZM41.4855 2.10956L41.6436 2.36453L41.6443 2.3641L41.4855 2.10956ZM40.4692 3.18342L40.2071 3.03752L40.2066 3.03837L40.4692 3.18342ZM40.4564 6.16212L40.1917 6.3033L40.1934 6.3063L40.4564 6.16212ZM41.4472 7.22319L41.2868 7.47674L41.2898 7.4786L41.4472 7.22319ZM44.0168 7.3766L44.1402 7.65007L44.1429 7.6488L44.0168 7.3766ZM44.9309 6.71822L44.7122 6.51282L44.7121 6.51293L44.9309 6.71822ZM45.5509 5.76581L45.8273 5.88238L45.8278 5.88119L45.5509 5.76581ZM45.4039 3.20899L45.1402 3.35212L45.1413 3.35404L45.4039 3.20899ZM44.3939 2.12234L44.2304 2.37388L44.2316 2.37461L44.3939 2.12234ZM42.9365 0.300609L42.9342 0.600599C43.4338 0.604565 43.9361 0.699629 44.4425 0.888509L44.5473 0.607427L44.6522 0.326344C44.0847 0.114657 43.5131 0.00517559 42.9389 0.000617981L42.9365 0.300609ZM44.5473 0.607427L44.4425 0.888508C44.932 1.07112 45.3848 1.37604 45.8005 1.81168L46.0175 1.60459L46.2346 1.39749C45.7639 0.904153 45.2365 0.544306 44.6522 0.326345L44.5473 0.607427ZM46.0175 1.60459L45.8014 1.81268C46.2057 2.23254 46.5421 2.81845 46.8007 3.58602L47.085 3.49024L47.3693 3.39446C47.0909 2.56827 46.7157 1.89708 46.2336 1.39649L46.0175 1.60459ZM47.085 3.49024L46.8007 3.58602C47.0553 4.3419 47.1877 5.3062 47.1877 6.48811H47.4877H47.7877C47.7877 5.26661 47.6516 4.23233 47.3693 3.39446L47.085 3.49024ZM47.4877 6.48811H47.1877C47.1877 7.6331 47.0786 8.64174 46.8639 9.51678L47.1553 9.58825L47.4467 9.65972C47.6752 8.72795 47.7877 7.66982 47.7877 6.48811H47.4877ZM47.1553 9.58825L46.8637 9.51777C46.6527 10.3906 46.3495 11.1147 45.9599 11.697L46.2093 11.8638L46.4586 12.0306C46.8958 11.3772 47.2232 10.5842 47.4469 9.65873L47.1553 9.58825ZM46.2093 11.8638L45.9591 11.6982C45.5742 12.2797 45.1108 12.7127 44.5703 13.0065L44.7135 13.2701L44.8568 13.5337C45.4924 13.1882 46.0262 12.6838 46.4594 12.0294L46.2093 11.8638ZM44.7135 13.2701L44.5695 13.0069C44.0344 13.2998 43.4244 13.4495 42.732 13.4495V13.7495V14.0495C43.514 14.0495 44.225 13.8795 44.8576 13.5332L44.7135 13.2701ZM42.732 13.7495V13.4495C42.0394 13.4495 41.4326 13.3128 40.9046 13.0469L40.7696 13.3148L40.6347 13.5827C41.2573 13.8963 41.9587 14.0495 42.732 14.0495V13.7495ZM40.7696 13.3148L40.907 13.0481C40.3785 12.776 39.9469 12.401 39.6086 11.9211L39.3634 12.0939L39.1182 12.2668C39.5128 12.8266 40.0187 13.2656 40.6323 13.5815L40.7696 13.3148ZM39.3634 12.0939L39.6102 11.9234C39.2765 11.4405 39.0596 10.8775 38.9634 10.2282L38.6667 10.2722L38.3699 10.3162C38.4783 11.0476 38.7258 11.699 39.1166 12.2645L39.3634 12.0939ZM38.6667 10.2722V10.5722H40.2263V10.2722V9.9722H38.6667V10.2722ZM40.2263 10.2722L39.9342 10.3406C40.0872 10.9943 40.3943 11.5446 40.8583 11.9803L41.0637 11.7615L41.269 11.5428C40.8979 11.1944 40.6467 10.7518 40.5184 10.2038L40.2263 10.2722ZM41.0637 11.7615L40.8607 11.9824C41.3488 12.4311 41.9827 12.6432 42.732 12.6432V12.3432V12.0432C42.1006 12.0432 41.6223 11.8676 41.2667 11.5407L41.0637 11.7615ZM42.732 12.3432V12.6432C43.8482 12.6432 44.7366 12.1469 45.3728 11.1856L45.1226 11.0201L44.8725 10.8545C44.341 11.6574 43.6357 12.0432 42.732 12.0432V12.3432ZM45.1226 11.0201L45.3722 11.1865C46.0061 10.2357 46.3047 8.92203 46.3047 7.28072H46.0047H45.7047C45.7047 8.86101 45.4153 10.0403 44.873 10.8537L45.1226 11.0201ZM46.0047 7.28072V6.98072H45.9025V7.28072V7.58072H46.0047V7.28072ZM45.9025 7.28072L45.6528 7.11431C45.4311 7.44692 45.1689 7.73248 44.866 7.97242L45.0523 8.20757L45.2386 8.44272C45.592 8.16278 45.8965 7.83044 46.1521 7.44713L45.9025 7.28072ZM45.0523 8.20757L44.866 7.97242C44.5644 8.21138 44.2295 8.39561 43.8599 8.52536L43.9593 8.80842L44.0586 9.09149C44.4902 8.93999 44.884 8.72365 45.2386 8.44272L45.0523 8.20757ZM43.9593 8.80842L43.8599 8.52536C43.4933 8.65407 43.1009 8.71936 42.6809 8.71936V9.01936V9.31936C43.1642 9.31936 43.6242 9.24402 44.0586 9.09149L43.9593 8.80842ZM42.6809 9.01936V8.71936C41.9829 8.71936 41.3477 8.54758 40.769 8.20508L40.6162 8.46325L40.4634 8.72142C41.1376 9.1204 41.8788 9.31936 42.6809 9.31936V9.01936ZM40.6162 8.46325L40.7711 8.20631C40.1941 7.85855 39.7311 7.38268 39.3805 6.7732L39.1205 6.92277L38.8604 7.07234C39.2599 7.76684 39.794 8.31796 40.4614 8.72019L40.6162 8.46325ZM39.1205 6.92277L39.3817 6.77521C39.0393 6.16916 38.8644 5.47111 38.8644 4.67277H38.5644H38.2644C38.2644 5.56193 38.4602 6.36387 38.8593 7.07033L39.1205 6.92277ZM38.5644 4.67277H38.8644C38.8644 3.91815 39.0325 3.23452 39.3655 2.61613L39.1013 2.4739L38.8372 2.33167C38.4542 3.04283 38.2644 3.82511 38.2644 4.67277H38.5644ZM39.1013 2.4739L39.3651 2.61673C39.702 1.99458 40.1717 1.50103 40.7785 1.13225L40.6226 0.875894L40.4668 0.619536C39.7695 1.04337 39.2251 1.61516 38.8375 2.33107L39.1013 2.4739ZM40.6226 0.875894L40.7777 1.1327C41.3788 0.769711 42.093 0.588474 42.9322 0.600577L42.9365 0.300609L42.9409 0.000639915C42.0073 -0.0128241 41.179 0.189462 40.4675 0.619088L40.6226 0.875894ZM42.9365 1.70686V1.40686C42.3469 1.40686 41.8076 1.55508 41.3268 1.85502L41.4855 2.10956L41.6443 2.3641C42.0243 2.12711 42.4523 2.00686 42.9365 2.00686V1.70686ZM41.4855 2.10956L41.3275 1.85459C40.8566 2.14656 40.4825 2.54264 40.2071 3.03752L40.4692 3.18342L40.7313 3.32932C40.9587 2.92079 41.2623 2.60097 41.6436 2.36453L41.4855 2.10956ZM40.4692 3.18342L40.2066 3.03837C39.9333 3.5332 39.7985 4.08009 39.7985 4.67277H40.0985H40.3985C40.3985 4.17454 40.5108 3.72853 40.7318 3.32848L40.4692 3.18342ZM40.0985 4.67277H39.7985C39.7985 5.26364 39.9282 5.80914 40.1917 6.30329L40.4564 6.16212L40.7211 6.02094C40.5074 5.6202 40.3985 5.1728 40.3985 4.67277H40.0985ZM40.4564 6.16212L40.1934 6.3063C40.4601 6.79298 40.8253 7.18472 41.2868 7.47672L41.4472 7.22319L41.6076 6.96967C41.2339 6.73326 40.9386 6.41761 40.7195 6.01793L40.4564 6.16212ZM41.4472 7.22319L41.2898 7.4786C41.763 7.77013 42.2977 7.91311 42.8854 7.91311V7.61311V7.31311C42.3992 7.31311 41.9752 7.19615 41.6046 6.96778L41.4472 7.22319ZM42.8854 7.61311V7.91311C43.3304 7.91311 43.7498 7.8262 44.1402 7.65005L44.0168 7.3766L43.8934 7.10315C43.5849 7.24235 43.2501 7.31311 42.8854 7.31311V7.61311ZM44.0168 7.3766L44.1429 7.6488C44.5267 7.47093 44.863 7.22893 45.1496 6.92352L44.9309 6.71822L44.7121 6.51293C44.4788 6.76149 44.2057 6.95841 43.8907 7.10441L44.0168 7.3766ZM44.9309 6.71822L45.1495 6.92362C45.438 6.61657 45.6643 6.26905 45.8273 5.88237L45.5509 5.76581L45.2745 5.64924C45.1392 5.96995 44.9522 6.25738 44.7122 6.51282L44.9309 6.71822ZM45.5509 5.76581L45.8278 5.88119C45.9922 5.48668 46.0746 5.07459 46.0746 4.6472H45.7746H45.4746C45.4746 4.99538 45.4079 5.32903 45.274 5.65042L45.5509 5.76581ZM45.7746 4.6472H46.0746C46.0746 4.08512 45.9382 3.55581 45.6665 3.06393L45.4039 3.20899L45.1413 3.35404C45.3639 3.75706 45.4746 4.18655 45.4746 4.6472H45.7746ZM45.4039 3.20899L45.6675 3.06586C45.4004 2.57386 45.0289 2.1742 44.5563 1.87007L44.3939 2.12234L44.2316 2.37461C44.6198 2.62446 44.9215 2.94924 45.1402 3.35212L45.4039 3.20899ZM44.3939 2.12234L44.5574 1.87081C44.079 1.55985 43.5356 1.40686 42.9365 1.40686V1.70686V2.00686C43.4284 2.00686 43.8566 2.13085 44.2304 2.37387L44.3939 2.12234ZM63.8849 0.479586V0.179586H63.5849V0.479586H63.8849ZM65.4701 0.479586H65.7701V0.179586H65.4701V0.479586ZM64.8373 11.5442L64.58 11.3899L64.5798 11.3903L64.8373 11.5442ZM63.0667 13.1998L63.2062 13.4654L63.2073 13.4647L63.0667 13.1998ZM57.6974 13.1998L57.5567 13.4648L57.5579 13.4654L57.6974 13.1998ZM55.9204 11.5442L55.6624 11.6974L55.6636 11.6993L55.9204 11.5442ZM55.294 0.479586V0.179586H54.994V0.479586H55.294ZM56.8792 0.479586H57.1792V0.179586H56.8792V0.479586ZM57.3011 10.726L57.0398 10.8734L57.0403 10.8744L57.3011 10.726ZM58.5028 11.8958L58.3584 12.1587L58.3609 12.1601L58.5028 11.8958ZM62.2613 11.8958L62.4031 12.1601L62.4048 12.1592L62.2613 11.8958ZM63.463 10.726L63.2017 10.5786L63.2013 10.5794L63.463 10.726ZM63.8849 0.479586V0.779586H65.4701V0.479586V0.179586H63.8849V0.479586ZM65.4701 0.479586H65.1701V9.1472H65.4701H65.7701V0.479586H65.4701ZM65.4701 9.1472H65.1701C65.1701 9.99284 64.9714 10.7376 64.58 11.3899L64.8373 11.5442L65.0945 11.6986C65.5469 10.9446 65.7701 10.0913 65.7701 9.1472H65.4701ZM64.8373 11.5442L64.5798 11.3903C64.192 12.0393 63.6435 12.554 62.9261 12.9348L63.0667 13.1998L63.2073 13.4647C64.0154 13.0359 64.6474 12.4469 65.0948 11.6981L64.8373 11.5442ZM63.0667 13.1998L62.9272 12.9342C62.215 13.3082 61.3697 13.5006 60.382 13.5006V13.8006V14.1006C61.4483 14.1006 62.3928 13.8925 63.2062 13.4654L63.0667 13.1998ZM60.382 13.8006V13.5006C59.3944 13.5006 58.5491 13.3082 57.8369 12.9342L57.6974 13.1998L57.5579 13.4654C58.3712 13.8925 59.3157 14.1006 60.382 14.1006V13.8006ZM57.6974 13.1998L57.838 12.9348C57.1203 12.5539 56.5694 12.0388 56.1772 11.3892L55.9204 11.5442L55.6636 11.6993C56.1151 12.4473 56.7489 13.036 57.5567 13.4647L57.6974 13.1998ZM55.9204 11.5442L56.1783 11.391C55.7908 10.7386 55.594 9.99341 55.594 9.1472H55.294H54.994C54.994 10.0908 55.2147 10.9436 55.6625 11.6974L55.9204 11.5442ZM55.294 9.1472H55.594V0.479586H55.294H54.994V9.1472H55.294ZM55.294 0.479586V0.779586H56.8792V0.479586V0.179586H55.294V0.479586ZM56.8792 0.479586H56.5792V9.01936H56.8792H57.1792V0.479586H56.8792ZM56.8792 9.01936H56.5792C56.5792 9.70406 56.7303 10.3248 57.0398 10.8734L57.3011 10.726L57.5624 10.5786C57.3093 10.1301 57.1792 9.61307 57.1792 9.01936H56.8792ZM57.3011 10.726L57.0403 10.8744C57.3502 11.4191 57.792 11.8477 58.3584 12.1587L58.5028 11.8958L58.6472 11.6328C58.1737 11.3728 57.8144 11.0217 57.5618 10.5777L57.3011 10.726ZM58.5028 11.8958L58.3609 12.1601C58.9375 12.4695 59.6149 12.6177 60.382 12.6177V12.3177V12.0177C59.6918 12.0177 59.1164 11.8846 58.6446 11.6314L58.5028 11.8958ZM60.382 12.3177V12.6177C61.1492 12.6177 61.8266 12.4695 62.4031 12.1601L62.2613 11.8958L62.1195 11.6314C61.6477 11.8846 61.0722 12.0177 60.382 12.0177V12.3177ZM62.2613 11.8958L62.4048 12.1592C62.9758 11.8482 63.4186 11.419 63.7247 10.8727L63.463 10.726L63.2013 10.5794C62.9534 11.0217 62.5951 11.3723 62.1178 11.6323L62.2613 11.8958ZM63.463 10.726L63.7243 10.8734C64.0338 10.3248 64.1849 9.70406 64.1849 9.01936H63.8849H63.5849C63.5849 9.61307 63.4547 10.1301 63.2017 10.5786L63.463 10.726ZM63.8849 9.01936H64.1849V0.479586H63.8849H63.5849V9.01936H63.8849ZM69.9397 13.5705V13.8705H70.2397V13.5705H69.9397ZM68.4312 13.5705H68.1312V13.8705H68.4312V13.5705ZM68.4312 3.75231V3.45231H68.1312V3.75231H68.4312ZM69.8886 3.75231H70.1886V3.45231H69.8886V3.75231ZM69.8886 5.2864H69.5886V5.5864H69.8886V5.2864ZM70.0164 5.2864V5.5864H70.2084L70.2888 5.41212L70.0164 5.2864ZM71.0647 4.0847L71.2274 4.33676L71.229 4.33571L71.0647 4.0847ZM74.6251 4.03356L74.4811 4.29677L74.4829 4.2977L74.6251 4.03356ZM75.7885 5.26084L75.5206 5.39583L75.521 5.39667L75.7885 5.26084ZM76.2039 13.5705V13.8705H76.5039V13.5705H76.2039ZM74.6954 13.5705H74.3954V13.8705H74.6954V13.5705ZM74.0946 5.63157L73.874 5.83488L73.875 5.83596L74.0946 5.63157ZM71.1542 5.2928L71.0095 5.02999L71.0083 5.03069L71.1542 5.2928ZM70.2657 6.20686L70.002 6.06379V6.06379L70.2657 6.20686ZM69.9397 7.66425H69.6397V13.5705H69.9397H70.2397V7.66425H69.9397ZM69.9397 13.5705V13.2705H68.4312V13.5705V13.8705H69.9397V13.5705ZM68.4312 13.5705H68.7312V3.75231H68.4312H68.1312V13.5705H68.4312ZM68.4312 3.75231V4.05231H69.8886V3.75231V3.45231H68.4312V3.75231ZM69.8886 3.75231H69.5886V5.2864H69.8886H70.1886V3.75231H69.8886ZM69.8886 5.2864V5.5864H70.0164V5.2864V4.9864H69.8886V5.2864ZM70.0164 5.2864L70.2888 5.41212C70.4947 4.96607 70.8057 4.60898 71.2274 4.33676L71.0647 4.0847L70.9021 3.83265C70.3863 4.16554 69.9984 4.60958 69.7441 5.16069L70.0164 5.2864ZM71.0647 4.0847L71.229 4.33571C71.6355 4.06968 72.1785 3.92447 72.8801 3.92447V3.62447V3.32447C72.0988 3.32447 71.4315 3.48608 70.9004 3.83369L71.0647 4.0847ZM72.8801 3.62447V3.92447C73.5031 3.92447 74.0337 4.05199 74.4811 4.29676L74.6251 4.03356L74.7691 3.77037C74.2194 3.46969 73.5866 3.32447 72.8801 3.32447V3.62447ZM74.6251 4.03356L74.4829 4.2977C74.9226 4.53446 75.2687 4.89601 75.5206 5.39583L75.7885 5.26084L76.0564 5.12584C75.7542 4.52624 75.3248 4.0696 74.7673 3.76942L74.6251 4.03356ZM75.7885 5.26084L75.521 5.39667C75.7702 5.88753 75.9039 6.52747 75.9039 7.33186H76.2039H76.5039C76.5039 6.46579 76.3607 5.72505 76.056 5.125L75.7885 5.26084ZM76.2039 7.33186H75.9039V13.5705H76.2039H76.5039V7.33186H76.2039ZM76.2039 13.5705V13.2705H74.6954V13.5705V13.8705H76.2039V13.5705ZM74.6954 13.5705H74.9954V7.43413H74.6954H74.3954V13.5705H74.6954ZM74.6954 7.43413H74.9954C74.9954 6.61129 74.7809 5.92865 74.3142 5.42719L74.0946 5.63157L73.875 5.83596C74.2094 6.19529 74.3954 6.71436 74.3954 7.43413H74.6954ZM74.0946 5.63157L74.3152 5.42827C73.8474 4.92072 73.2114 4.67959 72.4454 4.67959V4.97959V5.27959C73.0771 5.27959 73.5406 5.47312 73.874 5.83488L74.0946 5.63157ZM72.4454 4.97959V4.67959C71.9191 4.67959 71.4379 4.79414 71.0095 5.02999L71.1542 5.2928L71.2989 5.5556C71.6291 5.37384 72.0087 5.27959 72.4454 5.27959V4.97959ZM71.1542 5.2928L71.0083 5.03069C70.5804 5.26894 70.2448 5.61641 70.002 6.06379L70.2657 6.20686L70.5294 6.34992C70.7214 5.99617 70.9781 5.73427 71.3002 5.5549L71.1542 5.2928ZM70.2657 6.20686L70.002 6.06379C69.7556 6.51804 69.6397 7.05567 69.6397 7.66425H69.9397H70.2397C70.2397 7.13077 70.3412 6.69682 70.5294 6.34992L70.2657 6.20686ZM79.2482 13.334L79.4603 13.1219V13.1219L79.2482 13.334ZM80.8717 11.7104L81.0839 11.4983V11.4983L80.8717 11.7104ZM81.0507 13.0975L80.7945 12.9413L80.7918 12.9459L81.0507 13.0975ZM80.6352 13.5194L80.7896 13.7766L80.7914 13.7755L80.6352 13.5194ZM80.0599 13.6728V13.3728C79.8253 13.3728 79.6307 13.2923 79.4603 13.1219L79.2482 13.334L79.036 13.5461C79.3173 13.8274 79.6639 13.9728 80.0599 13.9728V13.6728ZM79.2482 13.334L79.4603 13.1219C79.2899 12.9515 79.2094 12.7568 79.2094 12.5222H78.9094H78.6094C78.6094 12.9183 78.7547 13.2648 79.036 13.5461L79.2482 13.334ZM78.9094 12.5222H79.2094C79.2094 12.2876 79.2899 12.0929 79.4603 11.9225L79.2482 11.7104L79.036 11.4983C78.7547 11.7796 78.6094 12.1262 78.6094 12.5222H78.9094ZM79.2482 11.7104L79.4603 11.9225C79.6307 11.7521 79.8253 11.6716 80.0599 11.6716V11.3716V11.0716C79.6639 11.0716 79.3173 11.217 79.036 11.4983L79.2482 11.7104ZM80.0599 11.3716V11.6716C80.2946 11.6716 80.4892 11.7521 80.6596 11.9225L80.8717 11.7104L81.0839 11.4983C80.8026 11.217 80.456 11.0716 80.0599 11.0716V11.3716ZM80.8717 11.7104L80.6596 11.9225C80.83 12.0929 80.9105 12.2876 80.9105 12.5222H81.2105H81.5105C81.5105 12.1262 81.3652 11.7796 81.0839 11.4983L80.8717 11.7104ZM81.2105 12.5222H80.9105C80.9105 12.6771 80.8718 12.8146 80.7946 12.9413L81.0507 13.0975L81.3069 13.2537C81.4427 13.0309 81.5105 12.7849 81.5105 12.5222H81.2105ZM81.0507 13.0975L80.7918 12.9459C80.7149 13.0773 80.6119 13.1822 80.479 13.2632L80.6352 13.5194L80.7914 13.7755C81.008 13.6434 81.182 13.4671 81.3096 13.249L81.0507 13.0975ZM80.6352 13.5194L80.4809 13.2621C80.3604 13.3344 80.2227 13.3728 80.0599 13.3728V13.6728V13.9728C80.3233 13.9728 80.5691 13.9089 80.7896 13.7766L80.6352 13.5194Z" fill="#1C2434" mask="url(#path-1-outside-1_22_652)"/>
</svg>
