<svg width="98" height="11" viewBox="0 0 98 11" fill="none" xmlns="http://www.w3.org/2000/svg">
<path d="M5.96046e-08 8.20312V0.203125H2.70313C3.32813 0.203125 3.84115 0.309896 4.24219 0.523437C4.64323 0.734375 4.9401 1.02474 5.13281 1.39453C5.32552 1.76432 5.42188 2.1849 5.42188 2.65625C5.42188 3.1276 5.32552 3.54557 5.13281 3.91016C4.9401 4.27474 4.64453 4.5612 4.24609 4.76953C3.84766 4.97526 3.33854 5.07813 2.71875 5.07813H0.53125V4.20312H2.6875C3.11458 4.20312 3.45833 4.14062 3.71875 4.01562C3.98177 3.89062 4.17188 3.71354 4.28906 3.48437C4.40885 3.2526 4.46875 2.97656 4.46875 2.65625C4.46875 2.33594 4.40885 2.05599 4.28906 1.81641C4.16927 1.57682 3.97786 1.39193 3.71484 1.26172C3.45182 1.12891 3.10417 1.0625 2.67187 1.0625H0.96875V8.20312H5.96046e-08ZM3.76563 4.60937L5.73438 8.20312H4.60938L2.67187 4.60937H3.76563ZM8.67676 8.34375C8.29655 8.34375 7.9515 8.27214 7.6416 8.12891C7.33171 7.98307 7.08561 7.77344 6.90332 7.5C6.72103 7.22396 6.62988 6.89062 6.62988 6.5C6.62988 6.15625 6.69759 5.8776 6.83301 5.66406C6.96842 5.44792 7.14941 5.27865 7.37598 5.15625C7.60254 5.03385 7.85254 4.94271 8.12598 4.88281C8.40202 4.82031 8.67936 4.77083 8.95801 4.73438C9.32259 4.6875 9.61816 4.65234 9.84473 4.62891C10.0739 4.60286 10.2406 4.5599 10.3447 4.5C10.4515 4.4401 10.5049 4.33594 10.5049 4.1875V4.15625C10.5049 3.77083 10.3994 3.47135 10.1885 3.25781C9.98014 3.04427 9.66374 2.9375 9.23926 2.9375C8.79915 2.9375 8.4541 3.03385 8.2041 3.22656C7.9541 3.41927 7.77832 3.625 7.67676 3.84375L6.80176 3.53125C6.95801 3.16667 7.16634 2.88281 7.42676 2.67969C7.68978 2.47396 7.97624 2.33073 8.28613 2.25C8.59863 2.16667 8.90592 2.125 9.20801 2.125C9.40072 2.125 9.62207 2.14844 9.87207 2.19531C10.1247 2.23958 10.3682 2.33203 10.6025 2.47266C10.8395 2.61328 11.0361 2.82552 11.1924 3.10937C11.3486 3.39323 11.4268 3.77344 11.4268 4.25V8.20312H10.5049V7.39062H10.458C10.3955 7.52083 10.2913 7.66016 10.1455 7.80859C9.99967 7.95703 9.80566 8.08333 9.56348 8.1875C9.32129 8.29167 9.02572 8.34375 8.67676 8.34375ZM8.81738 7.51562C9.18197 7.51562 9.48926 7.44401 9.73926 7.30078C9.99186 7.15755 10.182 6.97266 10.3096 6.74609C10.4398 6.51953 10.5049 6.28125 10.5049 6.03125V5.1875C10.4658 5.23437 10.3799 5.27734 10.2471 5.31641C10.1169 5.35286 9.96582 5.38542 9.79395 5.41406C9.62467 5.4401 9.45931 5.46354 9.29785 5.48437C9.139 5.5026 9.01009 5.51823 8.91113 5.53125C8.67155 5.5625 8.44759 5.61328 8.23926 5.68359C8.03353 5.7513 7.86686 5.85417 7.73926 5.99219C7.61426 6.1276 7.55176 6.3125 7.55176 6.54687C7.55176 6.86719 7.67025 7.10937 7.90723 7.27344C8.14681 7.4349 8.4502 7.51562 8.81738 7.51562ZM15.5469 8.32813C14.9844 8.32813 14.5 8.19531 14.0938 7.92969C13.6875 7.66406 13.375 7.29818 13.1563 6.83203C12.9375 6.36589 12.8281 5.83333 12.8281 5.23437C12.8281 4.625 12.9401 4.08724 13.1641 3.62109C13.3906 3.15234 13.7057 2.78646 14.1094 2.52344C14.5156 2.25781 14.9896 2.125 15.5312 2.125C15.9531 2.125 16.3333 2.20313 16.6719 2.35938C17.0104 2.51562 17.2878 2.73437 17.5039 3.01562C17.7201 3.29687 17.8542 3.625 17.9063 4H16.9844C16.9141 3.72656 16.7578 3.48437 16.5156 3.27344C16.276 3.0599 15.9531 2.95312 15.5469 2.95312C15.1875 2.95312 14.8724 3.04687 14.6016 3.23437C14.3333 3.41927 14.1237 3.68099 13.9727 4.01953C13.8242 4.35547 13.75 4.75 13.75 5.20312C13.75 5.66667 13.8229 6.07031 13.9688 6.41406C14.1172 6.75781 14.3255 7.02474 14.5938 7.21484C14.8646 7.40495 15.1823 7.5 15.5469 7.5C15.7865 7.5 16.0039 7.45833 16.1992 7.375C16.3945 7.29167 16.5599 7.17188 16.6953 7.01562C16.8307 6.85937 16.9271 6.67187 16.9844 6.45313H17.9063C17.8542 6.80729 17.7253 7.1263 17.5195 7.41016C17.3164 7.69141 17.0469 7.91536 16.7109 8.08203C16.3776 8.24609 15.9896 8.32813 15.5469 8.32813ZM15.1094 8.17187H15.875L15.8125 8.48438C16.0156 8.51563 16.2018 8.60026 16.3711 8.73828C16.5404 8.87891 16.625 9.10156 16.625 9.40625C16.625 9.74219 16.4857 10.0156 16.207 10.2266C15.931 10.4401 15.5234 10.5469 14.9844 10.5469L14.9531 9.9375C15.1953 9.9375 15.3958 9.89844 15.5547 9.82031C15.7161 9.74479 15.7969 9.61719 15.7969 9.4375C15.7969 9.25781 15.7305 9.13542 15.5977 9.07031C15.4648 9.00521 15.25 8.96094 14.9531 8.9375L15.1094 8.17187ZM21.0195 8.34375C20.6393 8.34375 20.2943 8.27214 19.9844 8.12891C19.6745 7.98307 19.4284 7.77344 19.2461 7.5C19.0638 7.22396 18.9727 6.89062 18.9727 6.5C18.9727 6.15625 19.0404 5.8776 19.1758 5.66406C19.3112 5.44792 19.4922 5.27865 19.7188 5.15625C19.9453 5.03385 20.1953 4.94271 20.4688 4.88281C20.7448 4.82031 21.0221 4.77083 21.3008 4.73438C21.6654 4.6875 21.9609 4.65234 22.1875 4.62891C22.4167 4.60286 22.5833 4.5599 22.6875 4.5C22.7943 4.4401 22.8477 4.33594 22.8477 4.1875V4.15625C22.8477 3.77083 22.7422 3.47135 22.5313 3.25781C22.3229 3.04427 22.0065 2.9375 21.582 2.9375C21.1419 2.9375 20.7969 3.03385 20.5469 3.22656C20.2969 3.41927 20.1211 3.625 20.0195 3.84375L19.1445 3.53125C19.3008 3.16667 19.5091 2.88281 19.7695 2.67969C20.0326 2.47396 20.319 2.33073 20.6289 2.25C20.9414 2.16667 21.2487 2.125 21.5508 2.125C21.7435 2.125 21.9648 2.14844 22.2148 2.19531C22.4674 2.23958 22.7109 2.33203 22.9453 2.47266C23.1823 2.61328 23.3789 2.82552 23.5352 3.10937C23.6914 3.39323 23.7695 3.77344 23.7695 4.25V8.20312H22.8477V7.39062H22.8008C22.7383 7.52083 22.6341 7.66016 22.4883 7.80859C22.3424 7.95703 22.1484 8.08333 21.9063 8.1875C21.6641 8.29167 21.3685 8.34375 21.0195 8.34375ZM21.1602 7.51562C21.5247 7.51562 21.832 7.44401 22.082 7.30078C22.3346 7.15755 22.5247 6.97266 22.6523 6.74609C22.7826 6.51953 22.8477 6.28125 22.8477 6.03125V5.1875C22.8086 5.23437 22.7227 5.27734 22.5898 5.31641C22.4596 5.35286 22.3086 5.38542 22.1367 5.41406C21.9674 5.4401 21.8021 5.46354 21.6406 5.48437C21.4818 5.5026 21.3529 5.51823 21.2539 5.53125C21.0143 5.5625 20.7904 5.61328 20.582 5.68359C20.3763 5.7513 20.2096 5.85417 20.082 5.99219C19.957 6.1276 19.8945 6.3125 19.8945 6.54687C19.8945 6.86719 20.013 7.10937 20.25 7.27344C20.4896 7.4349 20.793 7.51562 21.1602 7.51562ZM20.4102 1.48437L19.6914 1.45312C19.6914 1.05469 19.8047 0.729167 20.0312 0.476562C20.2604 0.221354 20.543 0.0937497 20.8789 0.0937497C21.0273 0.0937497 21.1589 0.119791 21.2734 0.171874C21.388 0.221354 21.4974 0.278645 21.6016 0.343749C21.7057 0.408854 21.8125 0.467448 21.9219 0.519531C22.0339 0.56901 22.1602 0.59375 22.3008 0.59375C22.4492 0.59375 22.5742 0.536458 22.6758 0.421875C22.7799 0.304687 22.832 0.164062 22.832 -5.36442e-07L23.5352 0.0625001C23.5352 0.46875 23.4206 0.791666 23.1914 1.03125C22.9648 1.27083 22.6836 1.39062 22.3477 1.39062C22.168 1.39062 22.0195 1.36589 21.9023 1.31641C21.7852 1.26432 21.681 1.20573 21.5898 1.14062C21.4987 1.07552 21.4023 1.01823 21.3008 0.96875C21.1992 0.916666 21.0742 0.890625 20.9258 0.890625C20.7773 0.890625 20.6536 0.949219 20.5547 1.06641C20.4583 1.18099 20.4102 1.32031 20.4102 1.48437ZM27.8896 8.32813C27.348 8.32813 26.8727 8.19922 26.4639 7.94141C26.0576 7.68359 25.7399 7.32292 25.5107 6.85937C25.2842 6.39583 25.1709 5.85417 25.1709 5.23437C25.1709 4.60937 25.2842 4.0638 25.5107 3.59766C25.7399 3.13151 26.0576 2.76953 26.4639 2.51172C26.8727 2.25391 27.348 2.125 27.8896 2.125C28.4313 2.125 28.9053 2.25391 29.3115 2.51172C29.7204 2.76953 30.0381 3.13151 30.2646 3.59766C30.4938 4.0638 30.6084 4.60937 30.6084 5.23437C30.6084 5.85417 30.4938 6.39583 30.2646 6.85937C30.0381 7.32292 29.7204 7.68359 29.3115 7.94141C28.9053 8.19922 28.4313 8.32813 27.8896 8.32813ZM27.8896 7.5C28.3011 7.5 28.6396 7.39453 28.9053 7.18359C29.1709 6.97266 29.3675 6.69531 29.4951 6.35156C29.6227 6.00781 29.6865 5.63542 29.6865 5.23437C29.6865 4.83333 29.6227 4.45964 29.4951 4.11328C29.3675 3.76693 29.1709 3.48698 28.9053 3.27344C28.6396 3.0599 28.3011 2.95312 27.8896 2.95312C27.4782 2.95312 27.1396 3.0599 26.874 3.27344C26.6084 3.48698 26.4118 3.76693 26.2842 4.11328C26.1566 4.45964 26.0928 4.83333 26.0928 5.23437C26.0928 5.63542 26.1566 6.00781 26.2842 6.35156C26.4118 6.69531 26.6084 6.97266 26.874 7.18359C27.1396 7.39453 27.4782 7.5 27.8896 7.5ZM35.2344 8.20312V0.203125H38.0313C38.5885 0.203125 39.0482 0.299479 39.4102 0.492188C39.7721 0.682291 40.0417 0.938802 40.2188 1.26172C40.3958 1.58203 40.4844 1.9375 40.4844 2.32812C40.4844 2.67187 40.4232 2.95573 40.3008 3.17969C40.181 3.40365 40.0221 3.58073 39.8242 3.71094C39.6289 3.84115 39.4167 3.9375 39.1875 4V4.07812C39.4323 4.09375 39.6784 4.17969 39.9258 4.33594C40.1732 4.49219 40.3802 4.71615 40.5469 5.00781C40.7135 5.29948 40.7969 5.65625 40.7969 6.07812C40.7969 6.47917 40.7057 6.83984 40.5234 7.16016C40.3411 7.48047 40.0534 7.73437 39.6602 7.92187C39.2669 8.10937 38.7552 8.20312 38.125 8.20312H35.2344ZM36.2031 7.34375H38.125C38.7578 7.34375 39.207 7.22135 39.4727 6.97656C39.7409 6.72917 39.875 6.42969 39.875 6.07812C39.875 5.80729 39.806 5.55729 39.668 5.32812C39.5299 5.09635 39.3333 4.91146 39.0781 4.77344C38.8229 4.63281 38.5208 4.5625 38.1719 4.5625H36.2031V7.34375ZM36.2031 3.71875H38C38.2917 3.71875 38.5547 3.66146 38.7891 3.54687C39.026 3.43229 39.2135 3.27083 39.3516 3.0625C39.4922 2.85417 39.5625 2.60937 39.5625 2.32812C39.5625 1.97656 39.4401 1.67839 39.1953 1.43359C38.9505 1.1862 38.5625 1.0625 38.0313 1.0625H36.2031V3.71875ZM44.7793 8.32813C44.2012 8.32813 43.7025 8.20052 43.2832 7.94531C42.8665 7.6875 42.5449 7.32812 42.3184 6.86719C42.0944 6.40365 41.9824 5.86458 41.9824 5.25C41.9824 4.63542 42.0944 4.09375 42.3184 3.625C42.5449 3.15365 42.86 2.78646 43.2637 2.52344C43.6699 2.25781 44.1439 2.125 44.6855 2.125C44.998 2.125 45.3066 2.17708 45.6113 2.28125C45.916 2.38542 46.1934 2.55469 46.4434 2.78906C46.6934 3.02083 46.8926 3.32812 47.041 3.71094C47.1895 4.09375 47.2637 4.5651 47.2637 5.125V5.51562H42.6387V4.71875H46.3262C46.3262 4.38021 46.2585 4.07812 46.123 3.8125C45.9902 3.54687 45.8001 3.33724 45.5527 3.18359C45.3079 3.02995 45.0189 2.95312 44.6855 2.95312C44.3184 2.95312 44.0007 3.04427 43.7324 3.22656C43.4668 3.40625 43.2624 3.64062 43.1191 3.92969C42.9759 4.21875 42.9043 4.52865 42.9043 4.85937V5.39063C42.9043 5.84375 42.9824 6.22786 43.1387 6.54297C43.2975 6.85547 43.5176 7.09375 43.7988 7.25781C44.0801 7.41927 44.4069 7.5 44.7793 7.5C45.0215 7.5 45.2402 7.46615 45.4355 7.39844C45.6335 7.32812 45.804 7.22396 45.9473 7.08594C46.0905 6.94531 46.2012 6.77083 46.2793 6.5625L47.1699 6.8125C47.0762 7.11458 46.9186 7.38021 46.6973 7.60937C46.4759 7.83594 46.2025 8.01302 45.877 8.14062C45.5514 8.26563 45.1855 8.32813 44.7793 8.32813ZM52.916 3.54687L52.0879 3.78125C52.0358 3.64323 51.959 3.50911 51.8574 3.37891C51.7585 3.24609 51.623 3.13672 51.4512 3.05078C51.2793 2.96484 51.0592 2.92187 50.791 2.92187C50.4238 2.92187 50.1178 3.00651 49.873 3.17578C49.6309 3.34245 49.5098 3.55469 49.5098 3.8125C49.5098 4.04167 49.5931 4.22266 49.7598 4.35547C49.9264 4.48828 50.1868 4.59896 50.541 4.6875L51.4316 4.90625C51.9681 5.03646 52.3678 5.23568 52.6309 5.50391C52.8939 5.76953 53.0254 6.11198 53.0254 6.53125C53.0254 6.875 52.9264 7.18229 52.7285 7.45312C52.5332 7.72396 52.2598 7.9375 51.9082 8.09375C51.5566 8.25 51.1478 8.32813 50.6816 8.32813C50.0697 8.32813 49.5632 8.19531 49.1621 7.92969C48.7611 7.66406 48.5072 7.27604 48.4004 6.76562L49.2754 6.54687C49.3587 6.86979 49.5163 7.11198 49.748 7.27344C49.9824 7.4349 50.2884 7.51562 50.666 7.51562C51.0957 7.51562 51.4368 7.42448 51.6895 7.24219C51.9447 7.05729 52.0723 6.83594 52.0723 6.57812C52.0723 6.36979 51.9993 6.19531 51.8535 6.05469C51.7077 5.91146 51.4837 5.80469 51.1816 5.73437L50.1816 5.5C49.6322 5.36979 49.2285 5.16797 48.9707 4.89453C48.7155 4.61849 48.5879 4.27344 48.5879 3.85937C48.5879 3.52083 48.6829 3.22135 48.873 2.96094C49.0658 2.70052 49.3275 2.49609 49.6582 2.34766C49.9915 2.19922 50.3691 2.125 50.791 2.125C51.3848 2.125 51.8509 2.25521 52.1895 2.51562C52.5306 2.77604 52.7728 3.11979 52.916 3.54687ZM58.6631 3.54687L57.835 3.78125C57.7829 3.64323 57.7061 3.50911 57.6045 3.37891C57.5055 3.24609 57.3701 3.13672 57.1982 3.05078C57.0264 2.96484 56.8063 2.92187 56.5381 2.92187C56.1709 2.92187 55.8649 3.00651 55.6201 3.17578C55.3779 3.34245 55.2568 3.55469 55.2568 3.8125C55.2568 4.04167 55.3402 4.22266 55.5068 4.35547C55.6735 4.48828 55.9339 4.59896 56.2881 4.6875L57.1787 4.90625C57.7152 5.03646 58.1149 5.23568 58.3779 5.50391C58.641 5.76953 58.7725 6.11198 58.7725 6.53125C58.7725 6.875 58.6735 7.18229 58.4756 7.45312C58.2803 7.72396 58.0068 7.9375 57.6553 8.09375C57.3037 8.25 56.8949 8.32813 56.4287 8.32813C55.8167 8.32813 55.3102 8.19531 54.9092 7.92969C54.5081 7.66406 54.2542 7.27604 54.1475 6.76562L55.0225 6.54687C55.1058 6.86979 55.2633 7.11198 55.4951 7.27344C55.7295 7.4349 56.0355 7.51562 56.4131 7.51562C56.8428 7.51562 57.1839 7.42448 57.4365 7.24219C57.6917 7.05729 57.8193 6.83594 57.8193 6.57812C57.8193 6.36979 57.7464 6.19531 57.6006 6.05469C57.4548 5.91146 57.2308 5.80469 56.9287 5.73437L55.9287 5.5C55.3792 5.36979 54.9756 5.16797 54.7178 4.89453C54.4626 4.61849 54.335 4.27344 54.335 3.85937C54.335 3.52083 54.43 3.22135 54.6201 2.96094C54.8128 2.70052 55.0745 2.49609 55.4053 2.34766C55.7386 2.19922 56.1162 2.125 56.5381 2.125C57.1318 2.125 57.598 2.25521 57.9365 2.51562C58.2777 2.77604 58.5199 3.11979 58.6631 3.54687ZM62.6758 8.32813C62.0977 8.32813 61.599 8.20052 61.1797 7.94531C60.763 7.6875 60.4414 7.32812 60.2148 6.86719C59.9909 6.40365 59.8789 5.86458 59.8789 5.25C59.8789 4.63542 59.9909 4.09375 60.2148 3.625C60.4414 3.15365 60.7565 2.78646 61.1602 2.52344C61.5664 2.25781 62.0404 2.125 62.582 2.125C62.8945 2.125 63.2031 2.17708 63.5078 2.28125C63.8125 2.38542 64.0898 2.55469 64.3398 2.78906C64.5898 3.02083 64.7891 3.32812 64.9375 3.71094C65.0859 4.09375 65.1602 4.5651 65.1602 5.125V5.51562H60.5352V4.71875H64.2227C64.2227 4.38021 64.1549 4.07812 64.0195 3.8125C63.8867 3.54687 63.6966 3.33724 63.4492 3.18359C63.2044 3.02995 62.9154 2.95312 62.582 2.95312C62.2148 2.95312 61.8971 3.04427 61.6289 3.22656C61.3633 3.40625 61.1589 3.64062 61.0156 3.92969C60.8724 4.21875 60.8008 4.52865 60.8008 4.85937V5.39063C60.8008 5.84375 60.8789 6.22786 61.0352 6.54297C61.194 6.85547 61.4141 7.09375 61.6953 7.25781C61.9766 7.41927 62.3034 7.5 62.6758 7.5C62.918 7.5 63.1367 7.46615 63.332 7.39844C63.5299 7.32812 63.7005 7.22396 63.8438 7.08594C63.987 6.94531 64.0977 6.77083 64.1758 6.5625L65.0664 6.8125C64.9727 7.11458 64.8151 7.38021 64.5938 7.60937C64.3724 7.83594 64.099 8.01302 63.7734 8.14062C63.4479 8.26563 63.082 8.32813 62.6758 8.32813ZM66.5625 8.20312V2.20312H67.4531V3.10937H67.5156C67.625 2.8125 67.8229 2.57161 68.1094 2.38672C68.3958 2.20182 68.7188 2.10937 69.0781 2.10937C69.1458 2.10937 69.2305 2.11068 69.332 2.11328C69.4336 2.11589 69.5104 2.11979 69.5625 2.125V3.0625C69.5313 3.05469 69.4596 3.04297 69.3477 3.02734C69.2383 3.00911 69.1224 3 69 3C68.7083 3 68.4479 3.0612 68.2188 3.18359C67.9922 3.30339 67.8125 3.47005 67.6797 3.68359C67.5495 3.89453 67.4844 4.13542 67.4844 4.40625V8.20312H66.5625ZM76.5459 0.203125V8.20312H75.5771V1.21875H75.5303L73.5771 2.51562V1.53125L75.5771 0.203125H76.5459ZM81.3467 8.3125C80.8883 8.3125 80.4756 8.22135 80.1084 8.03906C79.7412 7.85677 79.4469 7.60677 79.2256 7.28906C79.0042 6.97135 78.8831 6.60937 78.8623 6.20312H79.7998C79.8363 6.5651 80.0003 6.86458 80.292 7.10156C80.5863 7.33594 80.9378 7.45312 81.3467 7.45312C81.6748 7.45312 81.9665 7.3763 82.2217 7.22266C82.4795 7.06901 82.6813 6.85807 82.8271 6.58984C82.9756 6.31901 83.0498 6.01302 83.0498 5.67187C83.0498 5.32292 82.973 5.01172 82.8193 4.73828C82.6683 4.46224 82.46 4.24479 82.1943 4.08594C81.9287 3.92708 81.6253 3.84635 81.2842 3.84375C81.0394 3.84115 80.7881 3.87891 80.5303 3.95703C80.2725 4.03255 80.0602 4.13021 79.8936 4.25L78.9873 4.14062L79.4717 0.203125H83.6279V1.0625H80.2842L80.0029 3.42187H80.0498C80.2139 3.29167 80.4196 3.18359 80.667 3.09766C80.9144 3.01172 81.1722 2.96875 81.4404 2.96875C81.93 2.96875 82.3662 3.08594 82.749 3.32031C83.1344 3.55208 83.4365 3.86979 83.6553 4.27344C83.8766 4.67708 83.9873 5.13802 83.9873 5.65625C83.9873 6.16667 83.8727 6.6224 83.6436 7.02344C83.417 7.42187 83.1045 7.73698 82.7061 7.96875C82.3076 8.19792 81.8545 8.3125 81.3467 8.3125ZM85.6797 8.20312V0.203125H86.6484V4.17187H86.7422L90.3359 0.203125H91.6016L88.2422 3.8125L91.6016 8.20312H90.4297L87.6484 4.48437L86.6484 5.60937V8.20312H85.6797ZM94.7119 10.5781C94.2666 10.5781 93.8838 10.5208 93.5635 10.4063C93.2432 10.2943 92.9762 10.1458 92.7627 9.96094C92.5518 9.77865 92.3838 9.58333 92.2588 9.375L92.9932 8.85938C93.0765 8.96875 93.182 9.09375 93.3096 9.23438C93.4372 9.3776 93.6117 9.5013 93.833 9.60547C94.057 9.71224 94.3499 9.76562 94.7119 9.76562C95.1963 9.76562 95.596 9.64844 95.9111 9.41406C96.2262 9.17969 96.3838 8.8125 96.3838 8.3125V7.09375H96.3057C96.238 7.20312 96.1416 7.33854 96.0166 7.5C95.8942 7.65885 95.7171 7.80078 95.4854 7.92578C95.2562 8.04818 94.9463 8.10937 94.5557 8.10937C94.0713 8.10937 93.6364 7.99479 93.251 7.76563C92.8682 7.53646 92.5648 7.20312 92.3408 6.76562C92.1195 6.32812 92.0088 5.79687 92.0088 5.17187C92.0088 4.55729 92.1169 4.02214 92.333 3.56641C92.5492 3.10807 92.8499 2.75391 93.2354 2.50391C93.6208 2.2513 94.0661 2.125 94.5713 2.125C94.9619 2.125 95.2718 2.1901 95.501 2.32031C95.7327 2.44792 95.9098 2.59375 96.0322 2.75781C96.1572 2.91927 96.2536 3.05208 96.3213 3.15625H96.415V2.20312H97.3057V8.375C97.3057 8.89062 97.1885 9.3099 96.9541 9.63281C96.7223 9.95833 96.4098 10.1966 96.0166 10.3477C95.626 10.5013 95.1911 10.5781 94.7119 10.5781ZM94.6807 7.28125C95.0505 7.28125 95.363 7.19661 95.6182 7.02734C95.8734 6.85807 96.0674 6.61458 96.2002 6.29688C96.333 5.97917 96.3994 5.59896 96.3994 5.15625C96.3994 4.72396 96.3343 4.34245 96.2041 4.01172C96.0739 3.68099 95.8812 3.42187 95.626 3.23437C95.3708 3.04687 95.0557 2.95312 94.6807 2.95312C94.29 2.95312 93.9645 3.05208 93.7041 3.25C93.4463 3.44792 93.2523 3.71354 93.1221 4.04688C92.9945 4.38021 92.9307 4.75 92.9307 5.15625C92.9307 5.57292 92.9958 5.94141 93.126 6.26172C93.2588 6.57943 93.4541 6.82943 93.7119 7.01172C93.9723 7.19141 94.2952 7.28125 94.6807 7.28125Z" fill="#1C2434"/>
</svg>
