<svg width="33" height="9" viewBox="0 0 33 9" fill="none" xmlns="http://www.w3.org/2000/svg">
<path d="M10.932 8.63998C10.932 8.74398 10.884 8.79598 10.788 8.79598C10.492 8.79598 10.2 8.78798 9.912 8.77198C9.624 8.75598 9.336 8.74798 9.048 8.74798C8.912 8.74798 8.776 8.75198 8.64 8.75998C8.504 8.75998 8.368 8.76398 8.232 8.77198C8.096 8.77998 7.96 8.79198 7.824 8.80798C7.696 8.81598 7.564 8.81998 7.428 8.81998C7.356 8.81998 7.308 8.79998 7.284 8.75998C7.268 8.71198 7.26 8.65998 7.26 8.60398C7.26 8.57198 7.268 8.53998 7.284 8.50798C7.3 8.46798 7.328 8.44798 7.368 8.44798C7.392 8.43998 7.428 8.43598 7.476 8.43598C7.532 8.43598 7.588 8.43998 7.644 8.44798C7.708 8.44798 7.768 8.44798 7.824 8.44798C7.936 8.44798 8.06 8.43598 8.196 8.41198C8.34 8.38798 8.42 8.29998 8.436 8.14798C8.444 8.12398 8.444 8.09998 8.436 8.07598C8.436 8.05198 8.436 8.02798 8.436 8.00398V0.647983H8.364C8.06 1.47198 7.744 2.29198 7.416 3.10798C7.088 3.91598 6.76 4.72398 6.432 5.53198C6.304 5.85998 6.172 6.18798 6.036 6.51598C5.9 6.84398 5.764 7.17198 5.628 7.49998C5.572 7.64398 5.516 7.79198 5.46 7.94398C5.412 8.09598 5.352 8.23998 5.28 8.37598C5.224 8.46398 5.136 8.50798 5.016 8.50798C4.904 8.50798 4.82 8.46398 4.764 8.37598C4.7 8.25598 4.64 8.12798 4.584 7.99198C4.536 7.85598 4.484 7.72398 4.428 7.59598C4.308 7.31598 4.192 7.03998 4.08 6.76798C3.968 6.49598 3.856 6.22398 3.744 5.95198C3.376 5.07198 3.008 4.19598 2.64 3.32398C2.28 2.44398 1.92 1.56798 1.56 0.695983C1.56 1.93598 1.56 3.17998 1.56 4.42798C1.568 5.66798 1.572 6.90798 1.572 8.14798C1.572 8.30798 1.64 8.39998 1.776 8.42398C1.92 8.44798 2.052 8.45998 2.172 8.45998C2.252 8.45998 2.332 8.45598 2.412 8.44798C2.492 8.43998 2.572 8.43598 2.652 8.43598C2.692 8.43598 2.712 8.45998 2.712 8.50798C2.712 8.54798 2.708 8.60398 2.7 8.67598C2.692 8.74798 2.66 8.78398 2.604 8.78398C2.388 8.78398 2.168 8.77998 1.944 8.77198C1.728 8.75598 1.512 8.74798 1.296 8.74798C1.088 8.74798 0.876 8.75598 0.66 8.77198C0.452 8.77998 0.244 8.78398 0.036 8.78398C0.028 8.76798 0.02 8.75598 0.012 8.74798C0.012 8.73198 0.00799999 8.71998 0 8.71198V8.60398C0 8.52398 0.016 8.47998 0.048 8.47198C0.08 8.46398 0.124 8.45998 0.18 8.45998C0.244 8.45998 0.304 8.46398 0.36 8.47198C0.416 8.47198 0.472 8.47198 0.528 8.47198C0.648 8.47198 0.776 8.45598 0.912 8.42398C1.048 8.39198 1.12 8.29998 1.128 8.14798C1.144 8.01998 1.148 7.89198 1.14 7.76398C1.14 7.62798 1.14 7.49598 1.14 7.36798C1.14 7.11198 1.136 6.85598 1.128 6.59998C1.128 6.33598 1.128 6.07598 1.128 5.81998C1.128 4.96398 1.132 4.11198 1.14 3.26398C1.156 2.41598 1.164 1.56798 1.164 0.719983C1.164 0.567983 1.092 0.467983 0.948 0.419983C0.804 0.371983 0.672 0.347983 0.552 0.347983C0.48 0.347983 0.408 0.351983 0.336 0.359983C0.264 0.367983 0.192 0.371983 0.12 0.371983C0.072 0.371983 0.04 0.347983 0.024 0.299983C0.00799999 0.251983 0 0.211983 0 0.179983C0 0.0679829 0.044 0.0119829 0.132 0.0119829C0.34 0.0119829 0.552 0.0199831 0.768 0.0359833C0.984 0.0439832 1.196 0.0479832 1.404 0.0479832C1.812 0.0479832 2.22 0.0359831 2.628 0.0119829L5.472 6.85198C5.912 5.70798 6.372 4.57598 6.852 3.45598C7.332 2.32798 7.776 1.18798 8.184 0.0359833C8.384 0.0439832 8.58 0.0519831 8.772 0.059983C8.972 0.059983 9.172 0.059983 9.372 0.059983C9.612 0.059983 9.848 0.0519831 10.08 0.0359833C10.32 0.0119832 10.56 -1.69277e-05 10.8 -1.69277e-05C10.848 -1.69277e-05 10.876 0.023983 10.884 0.0719829C10.892 0.119983 10.896 0.159983 10.896 0.191983C10.896 0.223983 10.892 0.263983 10.884 0.311983C10.876 0.359983 10.848 0.383983 10.8 0.383983C10.696 0.383983 10.596 0.379983 10.5 0.371983C10.404 0.363983 10.308 0.359983 10.212 0.359983C10.116 0.359983 9.996 0.383983 9.852 0.431983C9.716 0.471983 9.648 0.551983 9.648 0.671983V8.05198C9.648 8.23598 9.7 8.35198 9.804 8.39998C9.916 8.43998 10.056 8.45998 10.224 8.45998C10.32 8.45998 10.416 8.45598 10.512 8.44798C10.608 8.43998 10.708 8.43598 10.812 8.43598C10.876 8.43598 10.912 8.45998 10.92 8.50798C10.928 8.55598 10.932 8.59998 10.932 8.63998ZM15.9872 4.59598C15.9792 4.26798 15.9512 3.95598 15.9032 3.65998C15.8552 3.35598 15.7392 3.10798 15.5552 2.91598C15.3712 2.71598 15.0712 2.61598 14.6552 2.61598C14.2792 2.61598 13.9712 2.71998 13.7312 2.92798C13.4992 3.12798 13.3192 3.38398 13.1912 3.69598C13.0632 3.99998 12.9672 4.31198 12.9032 4.63198C13.1032 4.63998 13.2992 4.64798 13.4912 4.65598C13.6832 4.65598 13.8752 4.65598 14.0672 4.65598C14.3872 4.65598 14.7072 4.65198 15.0272 4.64398C15.3472 4.62798 15.6672 4.61198 15.9872 4.59598ZM17.3672 7.34398C17.3672 7.38398 17.3592 7.40798 17.3432 7.41598C17.3192 7.49598 17.2592 7.59198 17.1632 7.70398C17.0752 7.81598 16.9752 7.92398 16.8632 8.02798C16.7512 8.12398 16.6592 8.19598 16.5872 8.24398C16.3232 8.42798 16.0232 8.57598 15.6872 8.68798C15.3592 8.79998 15.0312 8.85598 14.7032 8.85598C14.4312 8.85598 14.1272 8.81198 13.7912 8.72398C13.4632 8.63598 13.1832 8.51598 12.9512 8.36398C12.5032 8.06798 12.1752 7.67998 11.9672 7.19998C11.7592 6.71998 11.6552 6.21998 11.6552 5.69998C11.6552 5.10798 11.7712 4.55998 12.0032 4.05598C12.2352 3.55198 12.6072 3.14398 13.1192 2.83198C13.3512 2.69598 13.6112 2.58398 13.8992 2.49598C14.1872 2.39998 14.4632 2.35198 14.7272 2.35198C15.1992 2.35198 15.6152 2.44798 15.9752 2.63998C16.3352 2.83198 16.6152 3.10398 16.8152 3.45598C17.0232 3.79998 17.1272 4.21198 17.1272 4.69198C17.1272 4.82798 17.0952 4.91598 17.0312 4.95598C16.9752 4.99598 16.8872 5.01598 16.7672 5.01598C16.6072 5.01598 16.4472 5.01198 16.2872 5.00398C16.1272 4.99598 15.9672 4.98798 15.8072 4.97998C15.5832 4.96398 15.3592 4.95598 15.1352 4.95598C14.9192 4.95598 14.6992 4.95598 14.4752 4.95598C14.2032 4.95598 13.9312 4.95598 13.6592 4.95598C13.3872 4.95598 13.1152 4.96398 12.8432 4.97998C12.8352 5.10798 12.8272 5.23198 12.8192 5.35198C12.8112 5.47198 12.8072 5.59598 12.8072 5.72398C12.8072 6.01998 12.8432 6.32798 12.9152 6.64798C12.9872 6.95998 13.1032 7.25198 13.2632 7.52398C13.4232 7.78798 13.6272 8.00398 13.8752 8.17198C14.1232 8.33198 14.4232 8.41198 14.7752 8.41198C15.1352 8.41198 15.4792 8.35598 15.8072 8.24398C16.1352 8.13198 16.4352 7.95198 16.7072 7.70398C16.7792 7.63198 16.8432 7.55598 16.8992 7.47598C16.9632 7.38798 17.0312 7.31198 17.1032 7.24798C17.1432 7.20798 17.1872 7.18798 17.2352 7.18798C17.2752 7.18798 17.3072 7.20398 17.3312 7.23598C17.3552 7.26798 17.3672 7.30398 17.3672 7.34398ZM25.0343 8.62798C25.0343 8.73198 24.9743 8.78398 24.8543 8.78398C24.6783 8.78398 24.4983 8.77998 24.3143 8.77198C24.1303 8.75598 23.9463 8.74798 23.7623 8.74798C23.4903 8.74798 23.2103 8.75598 22.9223 8.77198C22.6423 8.77998 22.3623 8.78398 22.0823 8.78398C22.0503 8.78398 22.0303 8.75998 22.0223 8.71198C22.0143 8.65598 22.0103 8.61198 22.0103 8.57998C22.0103 8.51598 22.0503 8.48398 22.1303 8.48398C22.2103 8.48398 22.2743 8.48398 22.3223 8.48398C22.3623 8.48398 22.4023 8.48798 22.4423 8.49598C22.4903 8.49598 22.5343 8.49598 22.5743 8.49598C22.8063 8.49598 22.9343 8.37998 22.9583 8.14798C22.9823 7.67598 22.9903 7.19998 22.9823 6.71998C22.9823 6.23998 22.9823 5.76398 22.9823 5.29198C22.9823 5.20398 22.9823 5.11598 22.9823 5.02798C22.9823 4.93198 22.9823 4.83998 22.9823 4.75198C22.9743 4.56798 22.9623 4.34398 22.9463 4.07998C22.9303 3.80798 22.8943 3.58798 22.8383 3.41998C22.7103 3.00398 22.4303 2.79598 21.9983 2.79598C21.6063 2.79598 21.2463 2.89598 20.9183 3.09598C20.5903 3.29598 20.3063 3.54798 20.0663 3.85198C20.0583 4.43598 20.0543 5.01598 20.0543 5.59198C20.0543 6.16798 20.0543 6.74398 20.0543 7.31998V8.14798C20.0543 8.26798 20.1063 8.35598 20.2103 8.41198C20.3143 8.46798 20.4183 8.49598 20.5223 8.49598C20.5863 8.49598 20.6463 8.49198 20.7023 8.48398C20.7663 8.46798 20.8263 8.45998 20.8823 8.45998C20.9143 8.45998 20.9343 8.47998 20.9423 8.51998C20.9503 8.55998 20.9543 8.59198 20.9543 8.61598C20.9543 8.64798 20.9423 8.68398 20.9183 8.72398C20.9023 8.76398 20.8703 8.78398 20.8223 8.78398C20.6463 8.78398 20.4703 8.77998 20.2943 8.77198C20.1263 8.75598 19.9543 8.74798 19.7783 8.74798C19.5063 8.74798 19.2343 8.75598 18.9623 8.77198C18.6903 8.77998 18.4143 8.78398 18.1343 8.78398C18.0942 8.78398 18.0702 8.75998 18.0623 8.71198C18.0623 8.65598 18.0623 8.61198 18.0623 8.57998C18.0623 8.51598 18.0983 8.48398 18.1702 8.48398C18.2422 8.48398 18.2983 8.48398 18.3383 8.48398C18.3783 8.48398 18.4183 8.48798 18.4583 8.49598C18.4983 8.49598 18.5382 8.49598 18.5783 8.49598C18.8103 8.49598 18.9383 8.37998 18.9623 8.14798C18.9703 8.03598 18.9743 7.92398 18.9743 7.81198C18.9743 7.69998 18.9743 7.58798 18.9743 7.47598C18.9743 6.78798 18.9743 6.09998 18.9743 5.41198C18.9743 4.71598 18.9703 4.02398 18.9623 3.33598C18.9623 3.22398 18.9383 3.11198 18.8903 2.99998C18.8423 2.88798 18.7503 2.83198 18.6143 2.83198C18.5103 2.83198 18.4103 2.84798 18.3143 2.87998C18.2183 2.91198 18.1182 2.92798 18.0142 2.92798C17.9582 2.92798 17.9302 2.88798 17.9302 2.80798C17.9302 2.79198 17.9302 2.77598 17.9302 2.75998C17.9382 2.73598 17.9462 2.71998 17.9542 2.71198C17.9622 2.70398 17.9742 2.69998 17.9902 2.69998C18.0062 2.69198 18.0182 2.68398 18.0262 2.67598C18.1702 2.63598 18.3183 2.60798 18.4702 2.59198C18.6303 2.57598 18.7823 2.55198 18.9263 2.51998C19.0622 2.49598 19.1942 2.46398 19.3223 2.42398C19.4503 2.37598 19.5783 2.35198 19.7063 2.35198C19.7623 2.35198 19.8063 2.37998 19.8383 2.43598C19.8783 2.50798 19.9103 2.61198 19.9342 2.74798C19.9583 2.87598 19.9743 3.00798 19.9823 3.14398C19.9983 3.27998 20.0063 3.39198 20.0063 3.47998C20.1823 3.30398 20.3903 3.13198 20.6302 2.96398C20.8783 2.78798 21.1343 2.64398 21.3983 2.53198C21.6703 2.41198 21.9343 2.35198 22.1903 2.35198C22.9263 2.35198 23.4223 2.51598 23.6783 2.84398C23.9423 3.16398 24.0742 3.67198 24.0742 4.36798C24.0742 4.99198 24.0703 5.61598 24.0623 6.23998C24.0623 6.86398 24.0623 7.48798 24.0623 8.11198C24.0623 8.26398 24.1063 8.36798 24.1943 8.42398C24.2903 8.47198 24.4023 8.49598 24.5303 8.49598C24.5943 8.49598 24.6583 8.49198 24.7223 8.48398C24.7863 8.46798 24.8463 8.45998 24.9023 8.45998C24.9503 8.45998 24.9823 8.47998 24.9983 8.51998C25.0223 8.55198 25.0343 8.58798 25.0343 8.62798ZM32.6283 8.48398C32.6283 8.57998 32.5563 8.65198 32.4123 8.69998C32.2763 8.74798 32.1243 8.77998 31.9563 8.79598C31.7883 8.81198 31.6683 8.81998 31.5963 8.81998C31.3243 8.81998 31.1083 8.71198 30.9483 8.49598C30.7883 8.27998 30.6683 8.05598 30.5883 7.82398C30.3163 8.16798 29.9763 8.42398 29.5683 8.59198C29.1603 8.75998 28.7363 8.84398 28.2963 8.84398C27.5763 8.84398 27.0763 8.65998 26.7963 8.29198C26.5243 7.91598 26.3883 7.38798 26.3883 6.70798C26.3883 6.10798 26.3883 5.50798 26.3883 4.90798C26.3963 4.29998 26.4043 3.69598 26.4123 3.09598C26.4123 2.85598 26.2963 2.73598 26.0643 2.73598C26.0003 2.73598 25.9363 2.73998 25.8723 2.74798C25.8083 2.75598 25.7443 2.75998 25.6803 2.75998C25.6563 2.75998 25.6363 2.74798 25.6203 2.72398C25.6123 2.69198 25.6083 2.66798 25.6083 2.65198C25.6083 2.56398 25.6483 2.51598 25.7283 2.50798C26.0083 2.47598 26.2883 2.45598 26.5683 2.44798C26.8563 2.43198 27.1403 2.40798 27.4203 2.37598C27.4843 2.43998 27.5163 2.51998 27.5163 2.61598C27.5163 2.81598 27.5123 3.01998 27.5043 3.22798C27.4963 3.43598 27.4923 3.64398 27.4923 3.85198C27.4843 4.33998 27.4763 4.83198 27.4683 5.32798C27.4683 5.81598 27.4683 6.30798 27.4683 6.80398C27.4683 6.95598 27.4723 7.11998 27.4803 7.29598C27.4883 7.46398 27.5203 7.61998 27.5763 7.76398C27.6643 7.98798 27.8283 8.14798 28.0683 8.24398C28.3163 8.33198 28.5523 8.37598 28.7763 8.37598C29.0243 8.37598 29.2723 8.33198 29.5203 8.24398C29.7763 8.14798 29.9923 8.01198 30.1683 7.83598C30.3523 7.65198 30.4563 7.42398 30.4803 7.15198C30.4963 7.01598 30.5043 6.87998 30.5043 6.74398C30.5123 6.59998 30.5163 6.45998 30.5163 6.32398L30.5043 3.05998C30.5043 2.95598 30.4683 2.87998 30.3963 2.83198C30.3323 2.78398 30.2563 2.75998 30.1683 2.75998C30.0883 2.75998 30.0083 2.76398 29.9283 2.77198C29.8563 2.77998 29.7803 2.78398 29.7003 2.78398C29.6283 2.78398 29.5923 2.74398 29.5923 2.66398C29.5923 2.58398 29.6283 2.53998 29.7003 2.53198C29.7963 2.51598 29.8963 2.50798 30.0003 2.50798C30.1043 2.49998 30.2083 2.49198 30.3123 2.48398L31.1403 2.39998C31.1963 2.39198 31.2523 2.38398 31.3083 2.37598C31.3723 2.36798 31.4323 2.36398 31.4883 2.36398C31.5283 2.36398 31.5563 2.38798 31.5723 2.43598C31.5883 2.47598 31.5963 2.50798 31.5963 2.53198C31.5723 4.26798 31.5603 5.99998 31.5603 7.72798C31.5603 7.92798 31.6043 8.09198 31.6923 8.21998C31.7883 8.34798 31.9443 8.41198 32.1603 8.41198C32.2243 8.41198 32.2803 8.40398 32.3283 8.38798C32.3843 8.37198 32.4403 8.36398 32.4963 8.36398C32.5843 8.36398 32.6283 8.40398 32.6283 8.48398Z" fill="#8A7268"/>
</svg>
