<svg width="12" height="17" viewBox="0 0 12 17" fill="none" xmlns="http://www.w3.org/2000/svg">
<path d="M11.224 13.225C11.224 13.2557 11.1933 13.34 11.132 13.478C11.086 13.6007 11.0554 13.685 11.04 13.731C10.9787 13.8844 10.9173 14.0377 10.856 14.191C10.81 14.3444 10.764 14.4977 10.718 14.651C10.6413 14.9424 10.5723 15.2337 10.511 15.525C10.4497 15.8164 10.3807 16.1 10.304 16.376C10.2273 16.5907 10.097 16.698 9.91302 16.698C9.48368 16.698 8.97768 16.6827 8.39502 16.652C7.81235 16.6214 7.31402 16.606 6.90002 16.606C6.08735 16.606 5.32835 16.6137 4.62302 16.629C3.93302 16.629 3.23535 16.6367 2.53002 16.652C2.17735 16.652 1.81702 16.6674 1.44902 16.698C1.09635 16.7134 0.743683 16.721 0.391016 16.721C0.31435 16.721 0.230016 16.698 0.138016 16.652C0.0460161 16.606 1.6138e-05 16.5294 1.6138e-05 16.422C1.6138e-05 15.8547 0.13035 15.3104 0.391016 14.789C0.63635 14.3137 0.989016 13.7847 1.44902 13.202C1.92435 12.6194 2.44568 12.029 3.01302 11.431C3.58035 10.833 4.13235 10.2657 4.66902 9.72903C5.22102 9.19236 5.69635 8.73236 6.09502 8.34903C6.64702 7.81236 7.12235 7.16836 7.52102 6.41703C7.91968 5.65036 8.11902 4.87603 8.11902 4.09403C8.11902 3.51136 8.04235 2.96703 7.88902 2.46103C7.75102 1.93969 7.49802 1.51803 7.13002 1.19603C6.76202 0.874028 6.24068 0.713028 5.56602 0.713028C4.98335 0.713028 4.46202 0.812695 4.00202 1.01203C3.55735 1.19603 3.16635 1.54869 2.82902 2.07003C2.61435 2.40736 2.47635 2.80603 2.41502 3.26603C2.36902 3.71069 2.33068 4.13236 2.30002 4.53103C2.28468 5.05236 1.99335 5.31303 1.42602 5.31303C0.61335 5.31303 0.207016 4.92969 0.207016 4.16303C0.207016 3.44236 0.391016 2.82136 0.759016 2.30003C1.14235 1.77869 1.62535 1.34936 2.20802 1.01203C2.80602 0.674695 3.44235 0.421695 4.11702 0.253028C4.79168 0.0843612 5.42802 2.80738e-05 6.02602 2.80738e-05C6.77735 2.80738e-05 7.49802 0.161028 8.18802 0.483029C8.89335 0.805028 9.46835 1.26503 9.91302 1.86303C10.3577 2.4457 10.58 3.14336 10.58 3.95603C10.58 4.96803 10.3883 5.83436 10.005 6.55503C9.62168 7.27569 9.11568 7.91203 8.48702 8.46403C7.87368 9.01603 7.20668 9.5297 6.48602 10.005C5.76535 10.465 5.06002 10.948 4.37002 11.454C3.89468 11.8067 3.43468 12.213 2.99002 12.673C2.56068 13.1177 2.15435 13.57 1.77102 14.03C1.70968 14.122 1.61002 14.26 1.47202 14.444C1.34935 14.628 1.28802 14.7814 1.28802 14.904C1.28802 15.0267 1.34935 15.088 1.47202 15.088C2.39202 15.088 3.31202 15.0727 4.23202 15.042C5.15202 14.996 6.07968 14.9654 7.01502 14.95C7.87368 14.9347 8.58668 14.8044 9.15402 14.559C9.73668 14.3137 10.2887 13.8384 10.81 13.133C10.856 13.0717 10.9097 13.041 10.971 13.041C11.017 13.041 11.0707 13.064 11.132 13.11C11.1933 13.1407 11.224 13.179 11.224 13.225Z" fill="#E3E4EB"/>
</svg>
