<svg width="12" height="17" viewBox="0 0 12 17" fill="none" xmlns="http://www.w3.org/2000/svg">
<path d="M11.132 11.247C11.132 12.2284 10.948 13.0794 10.58 13.8C10.212 14.5054 9.70603 15.088 9.06203 15.548C8.43336 16.008 7.71269 16.353 6.90003 16.583C6.10269 16.7977 5.26703 16.905 4.39303 16.905C3.90236 16.905 3.38869 16.859 2.85203 16.767C2.33069 16.675 1.84003 16.5064 1.38003 16.261C0.93536 16.0157 0.582693 15.663 0.322026 15.203C0.10736 14.8504 2.64309e-05 14.4594 2.64309e-05 14.03C2.64309e-05 13.6774 0.0996931 13.4167 0.299026 13.248C0.513693 13.064 0.789693 12.972 1.12703 12.972C1.58703 12.972 1.84003 13.179 1.88603 13.593C1.94736 14.0224 2.06236 14.444 2.23103 14.858C2.41503 15.2567 2.66803 15.5864 2.99003 15.847C3.32736 16.1077 3.74136 16.238 4.23203 16.238C5.82669 16.238 6.96136 15.847 7.63603 15.065C8.32603 14.2677 8.67103 13.0947 8.67103 11.546C8.67103 10.5187 8.39503 9.67535 7.84303 9.01602C7.30636 8.34135 6.50903 8.00402 5.45103 8.00402C5.25169 8.00402 5.03703 8.01935 4.80703 8.05002C4.57703 8.06535 4.36236 8.09602 4.16303 8.14202C4.05569 8.15735 3.94069 8.19569 3.81803 8.25702C3.69536 8.30302 3.57269 8.32602 3.45003 8.32602C3.34269 8.32602 3.27369 8.28002 3.24303 8.18802C3.22769 8.09602 3.22003 8.01169 3.22003 7.93502C3.22003 7.82769 3.23536 7.71269 3.26603 7.59002C3.29669 7.46735 3.38103 7.40602 3.51903 7.40602C3.56503 7.40602 3.61103 7.41369 3.65703 7.42902C3.71836 7.42902 3.77969 7.42902 3.84103 7.42902C4.14769 7.42902 4.45436 7.42902 4.76103 7.42902C5.08303 7.41369 5.38969 7.36769 5.68103 7.29102C6.53969 7.04569 7.14536 6.64702 7.49803 6.09502C7.86603 5.52768 8.05003 4.80702 8.05003 3.93302C8.05003 3.33502 7.96569 2.79068 7.79703 2.30002C7.64369 1.80935 7.37536 1.41835 6.99203 1.12702C6.60869 0.835684 6.07969 0.690018 5.40503 0.690018C4.39303 0.690018 3.62636 1.00435 3.10503 1.63302C2.59903 2.24635 2.34603 3.03602 2.34603 4.00202C2.34603 4.33935 2.16203 4.50802 1.79403 4.50802C1.44136 4.50802 1.14236 4.41602 0.897026 4.23202C0.667026 4.04802 0.552026 3.76435 0.552026 3.38102C0.552026 3.21235 0.61336 2.97468 0.736026 2.66802C0.874027 2.36135 0.996693 2.13902 1.10403 2.00102C1.68669 1.24968 2.42269 0.728352 3.31203 0.437018C4.21669 0.145685 5.12136 1.84178e-05 6.02603 1.84178e-05C6.73136 1.84178e-05 7.41369 0.138018 8.07303 0.414019C8.73236 0.690019 9.27669 1.09635 9.70603 1.63302C10.1354 2.15435 10.35 2.80602 10.35 3.58802C10.35 4.15535 10.189 4.69969 9.86703 5.22102C9.56036 5.74235 9.20003 6.17935 8.78603 6.53202C8.46403 6.82335 8.10369 7.05335 7.70503 7.22202C7.30636 7.39069 6.90769 7.52869 6.50903 7.63602C6.80036 7.65135 7.15303 7.68202 7.56703 7.72802C7.99636 7.77402 8.34136 7.85069 8.60203 7.95802C9.32269 8.20335 9.92069 8.61735 10.396 9.20002C10.8867 9.76735 11.132 10.4497 11.132 11.247Z" fill="#E3E4EB"/>
</svg>
