<svg width="82" height="18" viewBox="0 0 82 18" fill="none" xmlns="http://www.w3.org/2000/svg">
<path d="M8.87301 4.80699C8.87301 3.69232 8.58167 2.93232 7.99901 2.52699C7.42901 2.10899 6.62467 1.89999 5.58601 1.89999H4.95901C4.83234 1.89999 4.67401 1.91266 4.48401 1.93799C4.30667 1.95066 4.14201 1.99499 3.99001 2.07099C3.85067 2.13432 3.78101 2.25466 3.78101 2.43199V7.71399C3.92034 7.76466 4.07867 7.79632 4.25601 7.80899C4.43334 7.82166 4.59801 7.82799 4.75001 7.82799C5.25667 7.82799 5.75067 7.78366 6.23201 7.69499C6.72601 7.60632 7.16934 7.45432 7.56201 7.23899C7.96734 7.02366 8.28401 6.71966 8.51201 6.32699C8.75267 5.93432 8.87301 5.42766 8.87301 4.80699ZM13.034 15.048C13.034 15.1367 12.9453 15.2063 12.768 15.257C12.5907 15.3077 12.3817 15.3393 12.141 15.352C11.9003 15.3773 11.6723 15.39 11.457 15.39C11.2543 15.39 11.115 15.39 11.039 15.39C10.5323 15.39 10.127 15.3393 9.82301 15.238C9.51901 15.124 9.22134 14.839 8.93001 14.383C8.30934 13.3823 7.70767 12.369 7.12501 11.343C6.55501 10.317 5.98501 9.28466 5.41501 8.24599L3.78101 8.30299V14.326C3.78101 14.516 3.85701 14.6427 4.00901 14.706C4.16101 14.7693 4.31301 14.801 4.46501 14.801C4.64234 14.801 4.81334 14.7947 4.97801 14.782C5.14267 14.7693 5.30734 14.763 5.47201 14.763C5.56067 14.763 5.61134 14.801 5.62401 14.877C5.64934 14.953 5.66201 15.0227 5.66201 15.086C5.66201 15.1873 5.63034 15.257 5.56701 15.295C5.51634 15.3203 5.44667 15.333 5.35801 15.333C4.80067 15.333 4.23701 15.3267 3.66701 15.314C3.09701 15.2887 2.53334 15.276 1.97601 15.276C1.67201 15.276 1.36801 15.2887 1.06401 15.314C0.772673 15.3267 0.475006 15.333 0.171006 15.333C0.0950064 15.333 0.0443397 15.3013 0.0190064 15.238C0.00633969 15.162 6.35162e-06 15.0987 6.35162e-06 15.048C6.35162e-06 14.8833 0.069673 14.801 0.209006 14.801C0.323006 14.801 0.430673 14.8073 0.532006 14.82C0.646006 14.82 0.753673 14.82 0.855006 14.82C1.04501 14.82 1.24767 14.801 1.46301 14.763C1.69101 14.7123 1.81767 14.5667 1.84301 14.326C1.86834 14.0093 1.87467 13.642 1.86201 13.224C1.86201 12.7933 1.86201 12.4197 1.86201 12.103C1.86201 11.685 1.86201 11.267 1.86201 10.849C1.86201 10.4183 1.86201 9.99399 1.86201 9.57599C1.86201 8.70199 1.86201 7.82799 1.86201 6.95399C1.87467 6.07999 1.88101 5.20599 1.88101 4.33199C1.88101 4.01532 1.88101 3.69866 1.88101 3.38199C1.88101 3.05266 1.86834 2.73599 1.84301 2.43199C1.81767 2.17866 1.68467 2.03932 1.44401 2.01399C1.21601 1.97599 1.00701 1.95699 0.817006 1.95699C0.741006 1.95699 0.665006 1.96332 0.589006 1.97599C0.513006 1.97599 0.437006 1.97599 0.361006 1.97599C0.171006 1.97599 0.0760064 1.86832 0.0760064 1.65299C0.0760064 1.51366 0.13934 1.44399 0.266006 1.44399C0.696673 1.44399 1.12101 1.45666 1.53901 1.48199C1.96967 1.50732 2.40034 1.51999 2.83101 1.51999C3.42634 1.51999 4.01534 1.49466 4.59801 1.44399C5.18067 1.39332 5.76334 1.36799 6.34601 1.36799C6.82734 1.36799 7.33401 1.41866 7.86601 1.51999C8.41067 1.62132 8.91734 1.78599 9.38601 2.01399C9.85467 2.24199 10.2347 2.55866 10.526 2.96399C10.83 3.35666 10.982 3.85699 10.982 4.46499C10.982 5.22499 10.7667 5.88366 10.336 6.44099C9.91801 6.98566 9.37334 7.40999 8.70201 7.71399C8.46134 7.82799 8.21434 7.91666 7.96101 7.97999C7.70767 8.03066 7.45434 8.08132 7.20101 8.13199C7.78367 9.11999 8.39167 10.0953 9.02501 11.058C9.67101 12.0207 10.3233 12.9707 10.982 13.908C11.172 14.174 11.3683 14.3893 11.571 14.554C11.7863 14.706 12.0523 14.8137 12.369 14.877C12.445 14.8897 12.5717 14.896 12.749 14.896C12.939 14.896 13.034 14.9467 13.034 15.048ZM22.3256 11.989C22.3256 11.457 22.2053 11.0137 21.9646 10.659C21.7239 10.3043 21.4136 10.0003 21.0336 9.74699C20.6663 9.48099 20.2799 9.23399 19.8746 9.00599V14.82C20.6219 14.5667 21.2173 14.2437 21.6606 13.851C22.1039 13.4583 22.3256 12.8377 22.3256 11.989ZM19.1906 1.67199C18.4686 1.82399 17.8923 2.07732 17.4616 2.43199C17.0436 2.78666 16.8346 3.36299 16.8346 4.16099C16.8346 4.61699 16.9549 5.01599 17.1956 5.35799C17.4489 5.69999 17.7529 5.99766 18.1076 6.25099C18.4749 6.50432 18.8359 6.73866 19.1906 6.95399V1.67199ZM24.2446 11.704C24.2446 12.3373 24.1179 12.8757 23.8646 13.319C23.6239 13.7497 23.2883 14.1107 22.8576 14.402C22.4396 14.6807 21.9709 14.896 21.4516 15.048C20.9323 15.2 20.4066 15.3077 19.8746 15.371V16.796H19.1906V15.409C18.8106 15.3963 18.4433 15.371 18.0886 15.333C17.7339 15.2823 17.3793 15.1937 17.0246 15.067C16.7586 14.9657 16.4989 14.8517 16.2456 14.725C16.0049 14.5857 15.7389 14.4907 15.4476 14.44C15.3843 13.9967 15.2956 13.5153 15.1816 12.996C15.0676 12.464 15.0106 11.9827 15.0106 11.552C15.0106 11.362 15.1246 11.267 15.3526 11.267C15.5173 11.267 15.6249 11.3113 15.6756 11.4C15.7389 11.476 15.7833 11.5837 15.8086 11.723C15.8339 11.8877 15.8593 12.046 15.8846 12.198C15.9226 12.35 15.9669 12.5083 16.0176 12.673C16.2583 13.4457 16.6509 13.984 17.1956 14.288C17.7529 14.5793 18.4179 14.7567 19.1906 14.82V8.66399C18.7093 8.42332 18.2216 8.18899 17.7276 7.96099C17.3349 7.77099 16.9359 7.52399 16.5306 7.21999C16.1379 6.91599 15.8086 6.56132 15.5426 6.15599C15.2893 5.75066 15.1626 5.30732 15.1626 4.82599C15.1626 4.05332 15.3526 3.41999 15.7326 2.92599C16.1253 2.41932 16.6256 2.03299 17.2336 1.76699C17.8543 1.50099 18.5066 1.34266 19.1906 1.29199V-1.07884e-05H19.8746V1.31099C20.2293 1.32366 20.5586 1.37432 20.8626 1.46299C21.1793 1.55166 21.4959 1.67199 21.8126 1.82399C22.0026 1.91266 22.2243 1.97599 22.4776 2.01399C22.7309 2.05199 22.9589 2.08366 23.1616 2.10899C23.1743 2.29899 23.1933 2.53966 23.2186 2.83099C23.2439 3.10966 23.2756 3.39466 23.3136 3.68599C23.3516 3.96466 23.3896 4.19266 23.4276 4.36999C23.4656 4.45866 23.4846 4.55999 23.4846 4.67399C23.4846 4.86399 23.4339 4.99066 23.3326 5.05399C23.2313 5.10466 23.0983 5.12999 22.9336 5.12999C22.8323 5.12999 22.7563 5.11732 22.7056 5.09199C22.6676 5.06666 22.6359 5.00966 22.6106 4.92099C22.5726 4.74366 22.5409 4.56632 22.5156 4.38899C22.4903 4.21166 22.4523 4.04066 22.4016 3.87599C22.2369 3.29332 21.9139 2.81199 21.4326 2.43199C20.9639 2.05199 20.4446 1.79866 19.8746 1.67199V7.25799C20.3813 7.48599 20.8879 7.72666 21.3946 7.97999C21.9139 8.22066 22.3889 8.50566 22.8196 8.83499C23.2503 9.16432 23.5923 9.56332 23.8456 10.032C24.1116 10.488 24.2446 11.0453 24.2446 11.704ZM37.4913 5.43399C37.4913 5.11732 37.485 4.80066 37.4723 4.48399C37.4723 4.16732 37.4723 3.85066 37.4723 3.53399L32.5893 10.583H37.4723C37.4723 9.72166 37.4723 8.86032 37.4723 7.99899C37.485 7.13766 37.4913 6.28266 37.4913 5.43399ZM41.8233 9.95599C41.8233 9.98132 41.8043 10.0573 41.7663 10.184C41.741 10.298 41.722 10.3803 41.7093 10.431C41.6713 10.5703 41.627 10.7223 41.5763 10.887C41.5383 11.0517 41.5066 11.2037 41.4813 11.343C41.4686 11.4317 41.4306 11.4823 41.3673 11.495C41.304 11.495 41.2343 11.495 41.1583 11.495H39.2963C39.2963 11.8497 39.2963 12.2043 39.2963 12.559C39.309 12.9137 39.3153 13.2747 39.3153 13.642V14.326C39.3153 14.516 39.385 14.6427 39.5243 14.706C39.6763 14.7693 39.8473 14.8073 40.0373 14.82C40.2273 14.82 40.3793 14.82 40.4933 14.82C40.582 14.82 40.6706 14.8137 40.7593 14.801C40.8606 14.7883 40.9556 14.782 41.0443 14.782C41.133 14.782 41.1836 14.82 41.1963 14.896C41.209 14.9593 41.2153 15.0227 41.2153 15.086C41.2153 15.1367 41.2026 15.2 41.1773 15.276C41.1646 15.3393 41.1266 15.371 41.0633 15.371C41.0126 15.371 40.9556 15.371 40.8923 15.371C40.8416 15.371 40.7846 15.3647 40.7213 15.352C40.3413 15.3267 39.955 15.3077 39.5623 15.295C39.1823 15.2823 38.8086 15.276 38.4413 15.276C38.112 15.276 37.7763 15.2823 37.4343 15.295C37.105 15.3077 36.7756 15.3203 36.4463 15.333C36.3323 15.3457 36.2183 15.352 36.1043 15.352C35.9903 15.3647 35.8826 15.371 35.7813 15.371C35.68 15.371 35.6166 15.3457 35.5913 15.295C35.566 15.2317 35.5533 15.1557 35.5533 15.067C35.5533 15.0037 35.5596 14.9467 35.5723 14.896C35.5976 14.8327 35.6546 14.801 35.7433 14.801C35.8066 14.801 35.87 14.8073 35.9333 14.82C36.0093 14.82 36.079 14.82 36.1423 14.82C36.2816 14.82 36.4526 14.82 36.6553 14.82C36.8706 14.82 37.0543 14.7883 37.2063 14.725C37.371 14.649 37.4533 14.516 37.4533 14.326V11.495H31.7913C31.7026 11.495 31.6203 11.476 31.5443 11.438C31.481 11.3873 31.4493 11.3177 31.4493 11.229C31.4493 11.1277 31.4746 11.039 31.5253 10.963C31.538 10.9377 31.5506 10.9123 31.5633 10.887C31.576 10.8617 31.5886 10.8427 31.6013 10.83C32.6526 9.30999 33.7103 7.78366 34.7743 6.25099C35.851 4.71832 36.896 3.17932 37.9093 1.63399C37.9473 1.55799 37.9916 1.49466 38.0423 1.44399C38.0803 1.38066 38.1373 1.34899 38.2133 1.34899H39.2203C39.2456 1.34899 39.2836 1.35532 39.3343 1.36799C39.385 1.36799 39.404 1.38699 39.3913 1.42499L39.3153 1.63399V10.583H40.4743C40.639 10.583 40.8036 10.5577 40.9683 10.507C41.1456 10.4437 41.285 10.3487 41.3863 10.222C41.4116 10.1967 41.437 10.1523 41.4623 10.089C41.5003 10.013 41.5256 9.96232 41.5383 9.93699C41.5763 9.87366 41.6206 9.84199 41.6713 9.84199C41.7726 9.84199 41.8233 9.87999 41.8233 9.95599ZM52.4793 10.431C52.4793 11.0263 52.359 11.6597 52.1183 12.331C51.8777 13.0023 51.5293 13.5407 51.0733 13.946C50.5667 14.3893 49.9587 14.7313 49.2493 14.972C48.54 15.2127 47.8497 15.333 47.1783 15.333C46.8617 15.333 46.4817 15.295 46.0383 15.219C45.595 15.1303 45.158 15.0037 44.7273 14.839C44.2967 14.6617 43.9357 14.4337 43.6443 14.155C43.353 13.8637 43.2073 13.5153 43.2073 13.11C43.2073 12.8313 43.3023 12.616 43.4923 12.464C43.6823 12.2993 43.9103 12.217 44.1763 12.217C44.4043 12.217 44.607 12.274 44.7843 12.388C44.9617 12.502 45.0567 12.6857 45.0693 12.939C45.12 13.5217 45.2847 13.9713 45.5633 14.288C45.8547 14.6047 46.3107 14.763 46.9313 14.763C47.8053 14.763 48.5147 14.5603 49.0593 14.155C49.604 13.737 50.0093 13.11 50.2753 12.274C50.364 11.9827 50.4147 11.685 50.4273 11.381C50.4527 11.0643 50.4653 10.754 50.4653 10.45C50.4653 10.032 50.4147 9.58232 50.3133 9.10099C50.2247 8.60699 50.0537 8.18899 49.8003 7.84699C49.585 7.55566 49.3063 7.35932 48.9643 7.25799C48.635 7.15666 48.293 7.10599 47.9383 7.10599C47.6597 7.10599 47.3557 7.15666 47.0263 7.25799C46.697 7.34666 46.4247 7.47966 46.2093 7.65699C45.994 7.83432 45.7977 8.06232 45.6203 8.34099C45.443 8.60699 45.3417 8.88566 45.3163 9.17699C45.3037 9.25299 45.291 9.34799 45.2783 9.46199C45.2657 9.57599 45.2023 9.63299 45.0883 9.63299C45.025 9.63299 44.892 9.60766 44.6893 9.55699C44.4993 9.49366 44.3157 9.42399 44.1383 9.34799C43.9737 9.25932 43.8913 9.18332 43.8913 9.11999C43.8913 9.08199 43.8977 9.04399 43.9103 9.00599C43.923 8.96799 43.9357 8.92999 43.9483 8.89199C44.037 8.60066 44.1067 8.23966 44.1573 7.80899C44.2207 7.36566 44.265 6.90332 44.2903 6.42199C44.3157 5.92799 44.3347 5.45299 44.3473 4.99699C44.36 4.54099 44.3663 4.15466 44.3663 3.83799C44.3663 3.09066 44.3283 2.33699 44.2523 1.57699C44.645 1.62766 45.0313 1.66566 45.4113 1.69099C45.804 1.71632 46.1967 1.72899 46.5893 1.72899H49.3063C49.6357 1.72899 50.0157 1.70999 50.4463 1.67199C50.8897 1.63399 51.257 1.53266 51.5483 1.36799C51.6117 1.32999 51.6813 1.29199 51.7573 1.25399C51.846 1.20332 51.922 1.17799 51.9853 1.17799C52.0233 1.17799 52.0803 1.18432 52.1563 1.19699C52.2323 1.19699 52.2703 1.22866 52.2703 1.29199C52.2703 1.35532 52.226 1.48832 52.1373 1.69099C52.0487 1.88099 51.9537 2.07732 51.8523 2.27999C51.751 2.48266 51.6813 2.61566 51.6433 2.67899C51.5927 2.76766 51.5293 2.82466 51.4533 2.84999C51.3773 2.87532 51.2887 2.88799 51.1873 2.88799C51.0227 2.88799 50.8517 2.88799 50.6743 2.88799C50.5097 2.87532 50.3387 2.86266 50.1613 2.84999C49.946 2.82466 49.7243 2.81832 49.4963 2.83099C49.2683 2.83099 49.0467 2.83099 48.8313 2.83099C48.4767 2.83099 48.122 2.83099 47.7673 2.83099C47.4127 2.81832 47.0517 2.81199 46.6843 2.81199C46.469 2.81199 46.2473 2.81199 46.0193 2.81199C45.804 2.81199 45.5887 2.81832 45.3733 2.83099C45.3607 3.62899 45.329 4.43332 45.2783 5.24399C45.2403 6.04199 45.2023 6.83999 45.1643 7.63799C45.747 7.23266 46.2853 6.93499 46.7793 6.74499C47.286 6.54232 47.894 6.44099 48.6033 6.44099C49.0847 6.44099 49.547 6.51066 49.9903 6.64999C50.4463 6.78932 50.8517 7.02366 51.2063 7.35299C51.6117 7.73299 51.922 8.20166 52.1373 8.75899C52.3653 9.31632 52.4793 9.87366 52.4793 10.431ZM58.1384 14.383C58.1384 14.7377 58.0624 15.1367 57.9104 15.58C57.7584 16.036 57.562 16.4667 57.3214 16.872C57.0934 17.2773 56.8464 17.6067 56.5804 17.86L56.2384 17.746C56.4537 17.3913 56.6374 16.9417 56.7894 16.397C56.9414 15.8523 57.0174 15.371 57.0174 14.953V14.877C56.7894 15.067 56.536 15.162 56.2574 15.162C56.042 15.162 55.8457 15.048 55.6684 14.82C55.491 14.5793 55.4024 14.3577 55.4024 14.155C55.4024 13.737 55.5227 13.3823 55.7634 13.091C56.004 12.7997 56.3397 12.654 56.7704 12.654C57.2897 12.654 57.6444 12.8313 57.8344 13.186C58.037 13.528 58.1384 13.927 58.1384 14.383ZM68.41 6.25099C68.41 6.11166 68.41 5.97232 68.41 5.83299C68.41 5.68099 68.4036 5.53532 68.391 5.39599C68.3656 4.87666 68.2516 4.35732 68.049 3.83799C67.8463 3.30599 67.5486 2.86266 67.156 2.50799C66.7633 2.14066 66.2693 1.95699 65.674 1.95699C65.0026 1.95699 64.4706 2.14066 64.078 2.50799C63.6853 2.87532 63.4003 3.33766 63.223 3.89499C63.0583 4.45232 62.976 5.01599 62.976 5.58599C62.976 6.01666 63.0013 6.45999 63.052 6.91599C63.1026 7.35932 63.2103 7.77732 63.375 8.16999C63.5396 8.54999 63.7866 8.86032 64.116 9.10099C64.4453 9.32899 64.8823 9.44299 65.427 9.44299C65.7056 9.44299 66.0223 9.39232 66.377 9.29099C66.7443 9.18966 67.0863 9.04399 67.403 8.85399C67.7196 8.66399 67.954 8.44232 68.106 8.18899C68.2833 7.89766 68.3783 7.58732 68.391 7.25799C68.4036 6.91599 68.41 6.58032 68.41 6.25099ZM70.253 7.14399C70.253 7.57466 70.196 8.03699 70.082 8.53099C69.9806 9.01232 69.854 9.45566 69.702 9.86099C69.056 11.5963 68.0996 12.9833 66.833 14.022C65.5663 15.0607 64.0463 15.8207 62.273 16.302C62.2603 16.302 62.2476 16.302 62.235 16.302C62.235 16.302 62.2286 16.302 62.216 16.302C62.102 16.302 62.045 16.2513 62.045 16.15C62.045 16.0867 62.0703 16.0423 62.121 16.017C62.1716 15.9917 62.2223 15.9727 62.273 15.96C62.8556 15.7067 63.432 15.4343 64.002 15.143C64.572 14.8517 65.0786 14.478 65.522 14.022C65.9273 13.6167 66.3136 13.1417 66.681 12.597C67.061 12.0523 67.384 11.4823 67.65 10.887C67.916 10.279 68.0743 9.68999 68.125 9.11999C67.6816 9.41132 67.2066 9.65199 66.7 9.84199C66.1933 10.032 65.6676 10.127 65.123 10.127C64.2996 10.127 63.584 9.96232 62.976 9.63299C62.368 9.29099 61.893 8.81599 61.551 8.20799C61.2216 7.58732 61.057 6.86532 61.057 6.04199C61.057 5.04132 61.266 4.19899 61.684 3.51499C62.102 2.83099 62.6783 2.31166 63.413 1.95699C64.1603 1.60232 65.009 1.42499 65.959 1.42499C66.643 1.42499 67.27 1.59599 67.84 1.93799C68.41 2.27999 68.8913 2.72966 69.284 3.28699C69.6766 3.83166 69.9426 4.42066 70.082 5.05399C70.158 5.39599 70.2023 5.74432 70.215 6.09899C70.2403 6.44099 70.253 6.78932 70.253 7.14399ZM79.56 8.47399C79.56 8.10666 79.5473 7.65699 79.522 7.12499C79.5093 6.58032 79.465 6.01032 79.389 5.41499C79.313 4.81966 79.18 4.26232 78.99 3.74299C78.8 3.22366 78.5403 2.80566 78.211 2.48899C77.8817 2.15966 77.451 1.99499 76.919 1.99499C76.4376 1.99499 76.0323 2.16599 75.703 2.50799C75.3736 2.83732 75.1076 3.27432 74.905 3.81899C74.7023 4.35099 74.544 4.92099 74.43 5.52899C74.3286 6.12432 74.259 6.70066 74.221 7.25799C74.183 7.80266 74.164 8.24599 74.164 8.58799C74.164 8.92999 74.1766 9.36066 74.202 9.87999C74.24 10.3867 74.3033 10.925 74.392 11.495C74.4806 12.0523 74.62 12.578 74.81 13.072C75.0126 13.566 75.2723 13.9713 75.589 14.288C75.9056 14.592 76.3046 14.744 76.786 14.744C77.2926 14.744 77.7107 14.592 78.04 14.288C78.3693 13.9713 78.6353 13.566 78.838 13.072C79.0406 12.5653 79.1927 12.027 79.294 11.457C79.408 10.8743 79.4776 10.3233 79.503 9.80399C79.541 9.27199 79.56 8.82866 79.56 8.47399ZM81.536 8.22699C81.536 8.80966 81.479 9.42399 81.365 10.07C81.2636 10.716 81.099 11.3493 80.871 11.97C80.643 12.5907 80.339 13.1543 79.959 13.661C79.5916 14.1677 79.142 14.573 78.61 14.877C78.078 15.1683 77.4573 15.314 76.748 15.314C75.8993 15.314 75.1836 15.105 74.601 14.687C74.031 14.2563 73.575 13.7053 73.233 13.034C72.891 12.3627 72.644 11.647 72.492 10.887C72.34 10.1143 72.264 9.38599 72.264 8.70199C72.264 8.11932 72.3146 7.49866 72.416 6.83999C72.5173 6.16866 72.682 5.51632 72.91 4.88299C73.138 4.24966 73.4356 3.67332 73.803 3.15399C74.183 2.63466 74.639 2.22299 75.171 1.91899C75.7156 1.60232 76.349 1.44399 77.071 1.44399C77.755 1.44399 78.344 1.58966 78.838 1.88099C79.3446 2.17232 79.769 2.55866 80.111 3.03999C80.4656 3.52132 80.7443 4.05966 80.947 4.65499C81.1497 5.25032 81.2953 5.85832 81.384 6.47899C81.4853 7.08699 81.536 7.66966 81.536 8.22699Z" fill="#E3E4EB"/>
</svg>
