<svg width="82" height="18" viewBox="0 0 82 18" fill="none" xmlns="http://www.w3.org/2000/svg">
<path d="M8.87301 4.80699C8.87301 3.69232 8.58167 2.93232 7.99901 2.52699C7.42901 2.10899 6.62467 1.89999 5.58601 1.89999H4.95901C4.83234 1.89999 4.67401 1.91266 4.48401 1.93799C4.30667 1.95066 4.14201 1.99499 3.99001 2.07099C3.85067 2.13432 3.78101 2.25466 3.78101 2.43199V7.71399C3.92034 7.76466 4.07867 7.79632 4.25601 7.80899C4.43334 7.82166 4.59801 7.82799 4.75001 7.82799C5.25667 7.82799 5.75067 7.78366 6.23201 7.69499C6.72601 7.60632 7.16934 7.45432 7.56201 7.23899C7.96734 7.02366 8.28401 6.71966 8.51201 6.32699C8.75267 5.93432 8.87301 5.42766 8.87301 4.80699ZM13.034 15.048C13.034 15.1367 12.9453 15.2063 12.768 15.257C12.5907 15.3077 12.3817 15.3393 12.141 15.352C11.9003 15.3773 11.6723 15.39 11.457 15.39C11.2543 15.39 11.115 15.39 11.039 15.39C10.5323 15.39 10.127 15.3393 9.82301 15.238C9.51901 15.124 9.22134 14.839 8.93001 14.383C8.30934 13.3823 7.70767 12.369 7.12501 11.343C6.55501 10.317 5.98501 9.28466 5.41501 8.24599L3.78101 8.30299V14.326C3.78101 14.516 3.85701 14.6427 4.00901 14.706C4.16101 14.7693 4.31301 14.801 4.46501 14.801C4.64234 14.801 4.81334 14.7947 4.97801 14.782C5.14267 14.7693 5.30734 14.763 5.47201 14.763C5.56067 14.763 5.61134 14.801 5.62401 14.877C5.64934 14.953 5.66201 15.0227 5.66201 15.086C5.66201 15.1873 5.63034 15.257 5.56701 15.295C5.51634 15.3203 5.44667 15.333 5.35801 15.333C4.80067 15.333 4.23701 15.3267 3.66701 15.314C3.09701 15.2887 2.53334 15.276 1.97601 15.276C1.67201 15.276 1.36801 15.2887 1.06401 15.314C0.772673 15.3267 0.475006 15.333 0.171006 15.333C0.0950064 15.333 0.0443397 15.3013 0.0190064 15.238C0.00633969 15.162 6.35162e-06 15.0987 6.35162e-06 15.048C6.35162e-06 14.8833 0.069673 14.801 0.209006 14.801C0.323006 14.801 0.430673 14.8073 0.532006 14.82C0.646006 14.82 0.753673 14.82 0.855006 14.82C1.04501 14.82 1.24767 14.801 1.46301 14.763C1.69101 14.7123 1.81767 14.5667 1.84301 14.326C1.86834 14.0093 1.87467 13.642 1.86201 13.224C1.86201 12.7933 1.86201 12.4197 1.86201 12.103C1.86201 11.685 1.86201 11.267 1.86201 10.849C1.86201 10.4183 1.86201 9.99399 1.86201 9.57599C1.86201 8.70199 1.86201 7.82799 1.86201 6.95399C1.87467 6.07999 1.88101 5.20599 1.88101 4.33199C1.88101 4.01532 1.88101 3.69866 1.88101 3.38199C1.88101 3.05266 1.86834 2.73599 1.84301 2.43199C1.81767 2.17866 1.68467 2.03932 1.44401 2.01399C1.21601 1.97599 1.00701 1.95699 0.817006 1.95699C0.741006 1.95699 0.665006 1.96332 0.589006 1.97599C0.513006 1.97599 0.437006 1.97599 0.361006 1.97599C0.171006 1.97599 0.0760064 1.86832 0.0760064 1.65299C0.0760064 1.51366 0.13934 1.44399 0.266006 1.44399C0.696673 1.44399 1.12101 1.45666 1.53901 1.48199C1.96967 1.50732 2.40034 1.51999 2.83101 1.51999C3.42634 1.51999 4.01534 1.49466 4.59801 1.44399C5.18067 1.39332 5.76334 1.36799 6.34601 1.36799C6.82734 1.36799 7.33401 1.41866 7.86601 1.51999C8.41067 1.62132 8.91734 1.78599 9.38601 2.01399C9.85467 2.24199 10.2347 2.55866 10.526 2.96399C10.83 3.35666 10.982 3.85699 10.982 4.46499C10.982 5.22499 10.7667 5.88366 10.336 6.44099C9.91801 6.98566 9.37334 7.40999 8.70201 7.71399C8.46134 7.82799 8.21434 7.91666 7.96101 7.97999C7.70767 8.03066 7.45434 8.08132 7.20101 8.13199C7.78367 9.11999 8.39167 10.0953 9.02501 11.058C9.67101 12.0207 10.3233 12.9707 10.982 13.908C11.172 14.174 11.3683 14.3893 11.571 14.554C11.7863 14.706 12.0523 14.8137 12.369 14.877C12.445 14.8897 12.5717 14.896 12.749 14.896C12.939 14.896 13.034 14.9467 13.034 15.048ZM22.3256 11.989C22.3256 11.457 22.2053 11.0137 21.9646 10.659C21.7239 10.3043 21.4136 10.0003 21.0336 9.74699C20.6663 9.48099 20.2799 9.23399 19.8746 9.00599V14.82C20.6219 14.5667 21.2173 14.2437 21.6606 13.851C22.1039 13.4583 22.3256 12.8377 22.3256 11.989ZM19.1906 1.67199C18.4686 1.82399 17.8923 2.07732 17.4616 2.43199C17.0436 2.78666 16.8346 3.36299 16.8346 4.16099C16.8346 4.61699 16.9549 5.01599 17.1956 5.35799C17.4489 5.69999 17.7529 5.99766 18.1076 6.25099C18.4749 6.50432 18.8359 6.73866 19.1906 6.95399V1.67199ZM24.2446 11.704C24.2446 12.3373 24.1179 12.8757 23.8646 13.319C23.6239 13.7497 23.2883 14.1107 22.8576 14.402C22.4396 14.6807 21.9709 14.896 21.4516 15.048C20.9323 15.2 20.4066 15.3077 19.8746 15.371V16.796H19.1906V15.409C18.8106 15.3963 18.4433 15.371 18.0886 15.333C17.7339 15.2823 17.3793 15.1937 17.0246 15.067C16.7586 14.9657 16.4989 14.8517 16.2456 14.725C16.0049 14.5857 15.7389 14.4907 15.4476 14.44C15.3843 13.9967 15.2956 13.5153 15.1816 12.996C15.0676 12.464 15.0106 11.9827 15.0106 11.552C15.0106 11.362 15.1246 11.267 15.3526 11.267C15.5173 11.267 15.6249 11.3113 15.6756 11.4C15.7389 11.476 15.7833 11.5837 15.8086 11.723C15.8339 11.8877 15.8593 12.046 15.8846 12.198C15.9226 12.35 15.9669 12.5083 16.0176 12.673C16.2583 13.4457 16.6509 13.984 17.1956 14.288C17.7529 14.5793 18.4179 14.7567 19.1906 14.82V8.66399C18.7093 8.42332 18.2216 8.18899 17.7276 7.96099C17.3349 7.77099 16.9359 7.52399 16.5306 7.21999C16.1379 6.91599 15.8086 6.56132 15.5426 6.15599C15.2893 5.75066 15.1626 5.30732 15.1626 4.82599C15.1626 4.05332 15.3526 3.41999 15.7326 2.92599C16.1253 2.41932 16.6256 2.03299 17.2336 1.76699C17.8543 1.50099 18.5066 1.34266 19.1906 1.29199V-1.07884e-05H19.8746V1.31099C20.2293 1.32366 20.5586 1.37432 20.8626 1.46299C21.1793 1.55166 21.4959 1.67199 21.8126 1.82399C22.0026 1.91266 22.2243 1.97599 22.4776 2.01399C22.7309 2.05199 22.9589 2.08366 23.1616 2.10899C23.1743 2.29899 23.1933 2.53966 23.2186 2.83099C23.2439 3.10966 23.2756 3.39466 23.3136 3.68599C23.3516 3.96466 23.3896 4.19266 23.4276 4.36999C23.4656 4.45866 23.4846 4.55999 23.4846 4.67399C23.4846 4.86399 23.4339 4.99066 23.3326 5.05399C23.2313 5.10466 23.0983 5.12999 22.9336 5.12999C22.8323 5.12999 22.7563 5.11732 22.7056 5.09199C22.6676 5.06666 22.6359 5.00966 22.6106 4.92099C22.5726 4.74366 22.5409 4.56632 22.5156 4.38899C22.4903 4.21166 22.4523 4.04066 22.4016 3.87599C22.2369 3.29332 21.9139 2.81199 21.4326 2.43199C20.9639 2.05199 20.4446 1.79866 19.8746 1.67199V7.25799C20.3813 7.48599 20.8879 7.72666 21.3946 7.97999C21.9139 8.22066 22.3889 8.50566 22.8196 8.83499C23.2503 9.16432 23.5923 9.56332 23.8456 10.032C24.1116 10.488 24.2446 11.0453 24.2446 11.704ZM41.2723 10.431C41.2723 11.0263 41.152 11.6597 40.9113 12.331C40.6706 13.0023 40.3223 13.5407 39.8663 13.946C39.3596 14.3893 38.7516 14.7313 38.0423 14.972C37.333 15.2127 36.6426 15.333 35.9713 15.333C35.6546 15.333 35.2746 15.295 34.8313 15.219C34.388 15.1303 33.951 15.0037 33.5203 14.839C33.0896 14.6617 32.7286 14.4337 32.4373 14.155C32.146 13.8637 32.0003 13.5153 32.0003 13.11C32.0003 12.8313 32.0953 12.616 32.2853 12.464C32.4753 12.2993 32.7033 12.217 32.9693 12.217C33.1973 12.217 33.4 12.274 33.5773 12.388C33.7546 12.502 33.8496 12.6857 33.8623 12.939C33.913 13.5217 34.0776 13.9713 34.3563 14.288C34.6476 14.6047 35.1036 14.763 35.7243 14.763C36.5983 14.763 37.3076 14.5603 37.8523 14.155C38.397 13.737 38.8023 13.11 39.0683 12.274C39.157 11.9827 39.2076 11.685 39.2203 11.381C39.2456 11.0643 39.2583 10.754 39.2583 10.45C39.2583 10.032 39.2076 9.58232 39.1063 9.10099C39.0176 8.60699 38.8466 8.18899 38.5933 7.84699C38.378 7.55566 38.0993 7.35932 37.7573 7.25799C37.428 7.15666 37.086 7.10599 36.7313 7.10599C36.4526 7.10599 36.1486 7.15666 35.8193 7.25799C35.49 7.34666 35.2176 7.47966 35.0023 7.65699C34.787 7.83432 34.5906 8.06232 34.4133 8.34099C34.236 8.60699 34.1346 8.88566 34.1093 9.17699C34.0966 9.25299 34.084 9.34799 34.0713 9.46199C34.0586 9.57599 33.9953 9.63299 33.8813 9.63299C33.818 9.63299 33.685 9.60766 33.4823 9.55699C33.2923 9.49366 33.1086 9.42399 32.9313 9.34799C32.7666 9.25932 32.6843 9.18332 32.6843 9.11999C32.6843 9.08199 32.6906 9.04399 32.7033 9.00599C32.716 8.96799 32.7286 8.92999 32.7413 8.89199C32.83 8.60066 32.8996 8.23966 32.9503 7.80899C33.0136 7.36566 33.058 6.90332 33.0833 6.42199C33.1086 5.92799 33.1276 5.45299 33.1403 4.99699C33.153 4.54099 33.1593 4.15466 33.1593 3.83799C33.1593 3.09066 33.1213 2.33699 33.0453 1.57699C33.438 1.62766 33.8243 1.66566 34.2043 1.69099C34.597 1.71632 34.9896 1.72899 35.3823 1.72899H38.0993C38.4286 1.72899 38.8086 1.70999 39.2393 1.67199C39.6826 1.63399 40.05 1.53266 40.3413 1.36799C40.4046 1.32999 40.4743 1.29199 40.5503 1.25399C40.639 1.20332 40.715 1.17799 40.7783 1.17799C40.8163 1.17799 40.8733 1.18432 40.9493 1.19699C41.0253 1.19699 41.0633 1.22866 41.0633 1.29199C41.0633 1.35532 41.019 1.48832 40.9303 1.69099C40.8416 1.88099 40.7466 2.07732 40.6453 2.27999C40.544 2.48266 40.4743 2.61566 40.4363 2.67899C40.3856 2.76766 40.3223 2.82466 40.2463 2.84999C40.1703 2.87532 40.0816 2.88799 39.9803 2.88799C39.8156 2.88799 39.6446 2.88799 39.4673 2.88799C39.3026 2.87532 39.1316 2.86266 38.9543 2.84999C38.739 2.82466 38.5173 2.81832 38.2893 2.83099C38.0613 2.83099 37.8396 2.83099 37.6243 2.83099C37.2696 2.83099 36.915 2.83099 36.5603 2.83099C36.2056 2.81832 35.8446 2.81199 35.4773 2.81199C35.262 2.81199 35.0403 2.81199 34.8123 2.81199C34.597 2.81199 34.3816 2.81832 34.1663 2.83099C34.1536 3.62899 34.122 4.43332 34.0713 5.24399C34.0333 6.04199 33.9953 6.83999 33.9573 7.63799C34.54 7.23266 35.0783 6.93499 35.5723 6.74499C36.079 6.54232 36.687 6.44099 37.3963 6.44099C37.8776 6.44099 38.34 6.51066 38.7833 6.64999C39.2393 6.78932 39.6446 7.02366 39.9993 7.35299C40.4046 7.73299 40.715 8.20166 40.9303 8.75899C41.1583 9.31632 41.2723 9.87366 41.2723 10.431ZM50.5603 6.25099C50.5603 6.11166 50.5603 5.97232 50.5603 5.83299C50.5603 5.68099 50.554 5.53532 50.5413 5.39599C50.516 4.87666 50.402 4.35732 50.1993 3.83799C49.9967 3.30599 49.699 2.86266 49.3063 2.50799C48.9137 2.14066 48.4197 1.95699 47.8243 1.95699C47.153 1.95699 46.621 2.14066 46.2283 2.50799C45.8357 2.87532 45.5507 3.33766 45.3733 3.89499C45.2087 4.45232 45.1263 5.01599 45.1263 5.58599C45.1263 6.01666 45.1517 6.45999 45.2023 6.91599C45.253 7.35932 45.3607 7.77732 45.5253 8.16999C45.69 8.54999 45.937 8.86032 46.2663 9.10099C46.5957 9.32899 47.0327 9.44299 47.5773 9.44299C47.856 9.44299 48.1727 9.39232 48.5273 9.29099C48.8947 9.18966 49.2367 9.04399 49.5533 8.85399C49.87 8.66399 50.1043 8.44232 50.2563 8.18899C50.4337 7.89766 50.5287 7.58732 50.5413 7.25799C50.554 6.91599 50.5603 6.58032 50.5603 6.25099ZM52.4033 7.14399C52.4033 7.57466 52.3463 8.03699 52.2323 8.53099C52.131 9.01232 52.0043 9.45566 51.8523 9.86099C51.2063 11.5963 50.25 12.9833 48.9833 14.022C47.7167 15.0607 46.1967 15.8207 44.4233 16.302C44.4107 16.302 44.398 16.302 44.3853 16.302C44.3853 16.302 44.379 16.302 44.3663 16.302C44.2523 16.302 44.1953 16.2513 44.1953 16.15C44.1953 16.0867 44.2207 16.0423 44.2713 16.017C44.322 15.9917 44.3727 15.9727 44.4233 15.96C45.006 15.7067 45.5823 15.4343 46.1523 15.143C46.7223 14.8517 47.229 14.478 47.6723 14.022C48.0777 13.6167 48.464 13.1417 48.8313 12.597C49.2113 12.0523 49.5343 11.4823 49.8003 10.887C50.0663 10.279 50.2247 9.68999 50.2753 9.11999C49.832 9.41132 49.357 9.65199 48.8503 9.84199C48.3437 10.032 47.818 10.127 47.2733 10.127C46.45 10.127 45.7343 9.96232 45.1263 9.63299C44.5183 9.29099 44.0433 8.81599 43.7013 8.20799C43.372 7.58732 43.2073 6.86532 43.2073 6.04199C43.2073 5.04132 43.4163 4.19899 43.8343 3.51499C44.2523 2.83099 44.8287 2.31166 45.5633 1.95699C46.3107 1.60232 47.1593 1.42499 48.1093 1.42499C48.7933 1.42499 49.4203 1.59599 49.9903 1.93799C50.5603 2.27999 51.0417 2.72966 51.4343 3.28699C51.827 3.83166 52.093 4.42066 52.2323 5.05399C52.3083 5.39599 52.3527 5.74432 52.3653 6.09899C52.3907 6.44099 52.4033 6.78932 52.4033 7.14399ZM58.1384 14.383C58.1384 14.7377 58.0624 15.1367 57.9104 15.58C57.7584 16.036 57.562 16.4667 57.3214 16.872C57.0934 17.2773 56.8464 17.6067 56.5804 17.86L56.2384 17.746C56.4537 17.3913 56.6374 16.9417 56.7894 16.397C56.9414 15.8523 57.0174 15.371 57.0174 14.953V14.877C56.7894 15.067 56.536 15.162 56.2574 15.162C56.042 15.162 55.8457 15.048 55.6684 14.82C55.491 14.5793 55.4024 14.3577 55.4024 14.155C55.4024 13.737 55.5227 13.3823 55.7634 13.091C56.004 12.7997 56.3397 12.654 56.7704 12.654C57.2897 12.654 57.6444 12.8313 57.8344 13.186C58.037 13.528 58.1384 13.927 58.1384 14.383ZM68.41 6.25099C68.41 6.11166 68.41 5.97232 68.41 5.83299C68.41 5.68099 68.4036 5.53532 68.391 5.39599C68.3656 4.87666 68.2516 4.35732 68.049 3.83799C67.8463 3.30599 67.5486 2.86266 67.156 2.50799C66.7633 2.14066 66.2693 1.95699 65.674 1.95699C65.0026 1.95699 64.4706 2.14066 64.078 2.50799C63.6853 2.87532 63.4003 3.33766 63.223 3.89499C63.0583 4.45232 62.976 5.01599 62.976 5.58599C62.976 6.01666 63.0013 6.45999 63.052 6.91599C63.1026 7.35932 63.2103 7.77732 63.375 8.16999C63.5396 8.54999 63.7866 8.86032 64.116 9.10099C64.4453 9.32899 64.8823 9.44299 65.427 9.44299C65.7056 9.44299 66.0223 9.39232 66.377 9.29099C66.7443 9.18966 67.0863 9.04399 67.403 8.85399C67.7196 8.66399 67.954 8.44232 68.106 8.18899C68.2833 7.89766 68.3783 7.58732 68.391 7.25799C68.4036 6.91599 68.41 6.58032 68.41 6.25099ZM70.253 7.14399C70.253 7.57466 70.196 8.03699 70.082 8.53099C69.9806 9.01232 69.854 9.45566 69.702 9.86099C69.056 11.5963 68.0996 12.9833 66.833 14.022C65.5663 15.0607 64.0463 15.8207 62.273 16.302C62.2603 16.302 62.2476 16.302 62.235 16.302C62.235 16.302 62.2286 16.302 62.216 16.302C62.102 16.302 62.045 16.2513 62.045 16.15C62.045 16.0867 62.0703 16.0423 62.121 16.017C62.1716 15.9917 62.2223 15.9727 62.273 15.96C62.8556 15.7067 63.432 15.4343 64.002 15.143C64.572 14.8517 65.0786 14.478 65.522 14.022C65.9273 13.6167 66.3136 13.1417 66.681 12.597C67.061 12.0523 67.384 11.4823 67.65 10.887C67.916 10.279 68.0743 9.68999 68.125 9.11999C67.6816 9.41132 67.2066 9.65199 66.7 9.84199C66.1933 10.032 65.6676 10.127 65.123 10.127C64.2996 10.127 63.584 9.96232 62.976 9.63299C62.368 9.29099 61.893 8.81599 61.551 8.20799C61.2216 7.58732 61.057 6.86532 61.057 6.04199C61.057 5.04132 61.266 4.19899 61.684 3.51499C62.102 2.83099 62.6783 2.31166 63.413 1.95699C64.1603 1.60232 65.009 1.42499 65.959 1.42499C66.643 1.42499 67.27 1.59599 67.84 1.93799C68.41 2.27999 68.8913 2.72966 69.284 3.28699C69.6766 3.83166 69.9426 4.42066 70.082 5.05399C70.158 5.39599 70.2023 5.74432 70.215 6.09899C70.2403 6.44099 70.253 6.78932 70.253 7.14399ZM79.617 6.25099C79.617 6.11166 79.617 5.97232 79.617 5.83299C79.617 5.68099 79.6106 5.53532 79.598 5.39599C79.5727 4.87666 79.4587 4.35732 79.256 3.83799C79.0533 3.30599 78.7556 2.86266 78.363 2.50799C77.9703 2.14066 77.4763 1.95699 76.881 1.95699C76.2096 1.95699 75.6776 2.14066 75.285 2.50799C74.8923 2.87532 74.6073 3.33766 74.43 3.89499C74.2653 4.45232 74.183 5.01599 74.183 5.58599C74.183 6.01666 74.2083 6.45999 74.259 6.91599C74.3096 7.35932 74.4173 7.77732 74.582 8.16999C74.7466 8.54999 74.9936 8.86032 75.323 9.10099C75.6523 9.32899 76.0893 9.44299 76.634 9.44299C76.9126 9.44299 77.2293 9.39232 77.584 9.29099C77.9513 9.18966 78.2933 9.04399 78.61 8.85399C78.9267 8.66399 79.161 8.44232 79.313 8.18899C79.4903 7.89766 79.5853 7.58732 79.598 7.25799C79.6106 6.91599 79.617 6.58032 79.617 6.25099ZM81.46 7.14399C81.46 7.57466 81.403 8.03699 81.289 8.53099C81.1876 9.01232 81.061 9.45566 80.909 9.86099C80.263 11.5963 79.3066 12.9833 78.04 14.022C76.7733 15.0607 75.2533 15.8207 73.48 16.302C73.4673 16.302 73.4546 16.302 73.442 16.302C73.442 16.302 73.4356 16.302 73.423 16.302C73.309 16.302 73.252 16.2513 73.252 16.15C73.252 16.0867 73.2773 16.0423 73.328 16.017C73.3786 15.9917 73.4293 15.9727 73.48 15.96C74.0626 15.7067 74.639 15.4343 75.209 15.143C75.779 14.8517 76.2856 14.478 76.729 14.022C77.1343 13.6167 77.5206 13.1417 77.888 12.597C78.268 12.0523 78.591 11.4823 78.857 10.887C79.123 10.279 79.2813 9.68999 79.332 9.11999C78.8886 9.41132 78.4136 9.65199 77.907 9.84199C77.4003 10.032 76.8747 10.127 76.33 10.127C75.5066 10.127 74.791 9.96232 74.183 9.63299C73.575 9.29099 73.1 8.81599 72.758 8.20799C72.4286 7.58732 72.264 6.86532 72.264 6.04199C72.264 5.04132 72.473 4.19899 72.891 3.51499C73.309 2.83099 73.8853 2.31166 74.62 1.95699C75.3673 1.60232 76.216 1.42499 77.166 1.42499C77.85 1.42499 78.477 1.59599 79.047 1.93799C79.617 2.27999 80.0983 2.72966 80.491 3.28699C80.8837 3.83166 81.1497 4.42066 81.289 5.05399C81.365 5.39599 81.4093 5.74432 81.422 6.09899C81.4473 6.44099 81.46 6.78932 81.46 7.14399Z" fill="#E3E4EB"/>
</svg>
