<svg width="101" height="36" viewBox="0 0 101 36" fill="none" xmlns="http://www.w3.org/2000/svg">
<path d="M7.472 3.12C7.472 2.18133 7.22666 1.54133 6.736 1.2C6.256 0.848 5.57866 0.672 4.704 0.672H4.176C4.06933 0.672 3.936 0.682666 3.776 0.704C3.62666 0.714666 3.488 0.751999 3.36 0.815999C3.24266 0.869333 3.184 0.970667 3.184 1.12V5.568C3.30133 5.61067 3.43466 5.63733 3.584 5.648C3.73333 5.65867 3.872 5.664 4 5.664C4.42666 5.664 4.84266 5.62667 5.248 5.552C5.664 5.47733 6.03733 5.34933 6.368 5.168C6.70933 4.98667 6.976 4.73067 7.168 4.4C7.37066 4.06933 7.472 3.64267 7.472 3.12ZM10.976 11.744C10.976 11.8187 10.9013 11.8773 10.752 11.92C10.6027 11.9627 10.4267 11.9893 10.224 12C10.0213 12.0213 9.82933 12.032 9.648 12.032C9.47733 12.032 9.36 12.032 9.296 12.032C8.86933 12.032 8.528 11.9893 8.272 11.904C8.016 11.808 7.76533 11.568 7.52 11.184C6.99733 10.3413 6.49066 9.488 6 8.624C5.52 7.76 5.04 6.89067 4.56 6.016L3.184 6.064V11.136C3.184 11.296 3.248 11.4027 3.376 11.456C3.504 11.5093 3.632 11.536 3.76 11.536C3.90933 11.536 4.05333 11.5307 4.192 11.52C4.33066 11.5093 4.46933 11.504 4.608 11.504C4.68266 11.504 4.72533 11.536 4.736 11.6C4.75733 11.664 4.768 11.7227 4.768 11.776C4.768 11.8613 4.74133 11.92 4.688 11.952C4.64533 11.9733 4.58666 11.984 4.512 11.984C4.04266 11.984 3.568 11.9787 3.088 11.968C2.608 11.9467 2.13333 11.936 1.664 11.936C1.408 11.936 1.152 11.9467 0.895997 11.968C0.650664 11.9787 0.399997 11.984 0.143997 11.984C0.0799973 11.984 0.0373307 11.9573 0.0159973 11.904C0.00533065 11.84 -2.68221e-06 11.7867 -2.68221e-06 11.744C-2.68221e-06 11.6053 0.058664 11.536 0.175997 11.536C0.271997 11.536 0.362664 11.5413 0.447997 11.552C0.543997 11.552 0.634664 11.552 0.719997 11.552C0.879997 11.552 1.05066 11.536 1.232 11.504C1.424 11.4613 1.53066 11.3387 1.552 11.136C1.57333 10.8693 1.57866 10.56 1.568 10.208C1.568 9.84533 1.568 9.53067 1.568 9.264C1.568 8.912 1.568 8.56 1.568 8.208C1.568 7.84533 1.568 7.488 1.568 7.136C1.568 6.4 1.568 5.664 1.568 4.928C1.57866 4.192 1.584 3.456 1.584 2.72C1.584 2.45333 1.584 2.18667 1.584 1.92C1.584 1.64267 1.57333 1.376 1.552 1.12C1.53066 0.906666 1.41866 0.789333 1.216 0.768C1.024 0.735999 0.847997 0.719999 0.687997 0.719999C0.623997 0.719999 0.559997 0.725333 0.495997 0.735999C0.431997 0.735999 0.367997 0.735999 0.303997 0.735999C0.143997 0.735999 0.0639973 0.645333 0.0639973 0.464C0.0639973 0.346666 0.117331 0.287999 0.223997 0.287999C0.586664 0.287999 0.943997 0.298666 1.296 0.32C1.65866 0.341333 2.02133 0.351999 2.384 0.351999C2.88533 0.351999 3.38133 0.330666 3.872 0.287999C4.36266 0.245332 4.85333 0.223999 5.344 0.223999C5.74933 0.223999 6.176 0.266666 6.624 0.351999C7.08266 0.437333 7.50933 0.576 7.904 0.768C8.29866 0.96 8.61866 1.22667 8.864 1.568C9.12 1.89867 9.248 2.32 9.248 2.832C9.248 3.472 9.06666 4.02667 8.704 4.496C8.352 4.95467 7.89333 5.312 7.328 5.568C7.12533 5.664 6.91733 5.73867 6.704 5.792C6.49066 5.83467 6.27733 5.87733 6.064 5.92C6.55466 6.752 7.06666 7.57333 7.6 8.384C8.144 9.19467 8.69333 9.99467 9.248 10.784C9.408 11.008 9.57333 11.1893 9.744 11.328C9.92533 11.456 10.1493 11.5467 10.416 11.6C10.48 11.6107 10.5867 11.616 10.736 11.616C10.896 11.616 10.976 11.6587 10.976 11.744ZM16.7205 10.128C16.6778 9.648 16.6512 9.168 16.6405 8.688C16.6405 8.19733 16.6352 7.70667 16.6245 7.216H16.4005C16.0698 7.216 15.7018 7.26933 15.2965 7.376C14.9018 7.472 14.5232 7.62133 14.1605 7.824C13.7978 8.02667 13.4992 8.28267 13.2645 8.592C13.0405 8.89067 12.9285 9.23733 12.9285 9.632C12.9285 10.144 13.0725 10.5333 13.3605 10.8C13.6485 11.056 14.0378 11.184 14.5285 11.184C14.7632 11.184 15.0192 11.1307 15.2965 11.024C15.5738 10.9067 15.8405 10.768 16.0965 10.608C16.3525 10.448 16.5605 10.288 16.7205 10.128ZM19.5205 11.152C19.5205 11.1947 19.5152 11.2267 19.5045 11.248C19.3978 11.4827 19.2165 11.664 18.9605 11.792C18.7152 11.9093 18.4698 11.968 18.2245 11.968C17.7765 11.968 17.4512 11.84 17.2485 11.584C17.0565 11.3173 16.9018 10.992 16.7845 10.608C16.3792 10.9813 15.9312 11.296 15.4405 11.552C14.9498 11.7973 14.4218 11.92 13.8565 11.92C13.4618 11.92 13.0885 11.8453 12.7365 11.696C12.3952 11.536 12.1178 11.3067 11.9045 11.008C11.6912 10.7093 11.5845 10.3467 11.5845 9.92C11.5845 9.472 11.6965 9.088 11.9205 8.768C12.1552 8.43733 12.4485 8.16 12.8005 7.936C13.1632 7.70133 13.5472 7.51467 13.9525 7.376C14.3685 7.22667 14.7578 7.11467 15.1205 7.04C15.3658 6.98667 15.6165 6.93867 15.8725 6.896C16.1285 6.85333 16.3792 6.81067 16.6245 6.768C16.6245 6.46933 16.6085 6.12267 16.5765 5.728C16.5552 5.33333 16.4752 5.008 16.3365 4.752C16.1978 4.50667 16.0112 4.288 15.7765 4.096C15.5418 3.904 15.2805 3.808 14.9925 3.808C14.5018 3.808 14.1178 3.936 13.8405 4.192C13.5632 4.448 13.3658 4.81067 13.2485 5.28C13.2378 5.33333 13.2272 5.392 13.2165 5.456C13.2165 5.50933 13.2112 5.56267 13.2005 5.616C13.1898 5.68 13.1472 5.73867 13.0725 5.792C13.0085 5.83467 12.9392 5.856 12.8645 5.856C12.6618 5.856 12.4752 5.808 12.3045 5.712C12.1445 5.616 12.0645 5.456 12.0645 5.232C12.0645 5.104 12.0858 4.992 12.1285 4.896C12.2672 4.56533 12.4912 4.29333 12.8005 4.08C13.1098 3.856 13.4512 3.68533 13.8245 3.568C14.2085 3.45067 14.5658 3.392 14.8965 3.392C15.4725 3.392 15.9952 3.49867 16.4645 3.712C16.9338 3.92533 17.3072 4.24 17.5845 4.656C17.8725 5.06133 18.0165 5.57333 18.0165 6.192C18.0165 6.88533 18.0112 7.584 18.0005 8.288C18.0005 8.992 18.0218 9.696 18.0645 10.4C18.0752 10.6347 18.1232 10.8427 18.2085 11.024C18.2938 11.1947 18.4698 11.28 18.7365 11.28C18.8752 11.28 19.0192 11.248 19.1685 11.184C19.3285 11.1093 19.4298 11.072 19.4725 11.072C19.5045 11.072 19.5205 11.0987 19.5205 11.152ZM27.9676 10.048C27.9676 10.0907 27.957 10.128 27.9356 10.16C27.701 10.512 27.3916 10.8267 27.0076 11.104C26.6236 11.3813 26.2076 11.6053 25.7596 11.776C25.3223 11.936 24.8956 12.016 24.4796 12.016C24.405 12.016 24.3356 12.0107 24.2716 12C24.2076 12 24.1436 12 24.0796 12C23.973 12.1707 23.861 12.3307 23.7436 12.48C23.637 12.6293 23.5303 12.784 23.4236 12.944C23.5943 12.9227 23.7596 12.9067 23.9196 12.896C24.0903 12.8853 24.261 12.88 24.4316 12.88C24.6343 12.88 24.853 12.896 25.0876 12.928C25.333 12.9707 25.541 13.0507 25.7116 13.168C25.893 13.296 25.9836 13.488 25.9836 13.744C25.9836 14.0213 25.9036 14.24 25.7436 14.4C25.5943 14.56 25.4023 14.6773 25.1676 14.752C24.933 14.8373 24.6876 14.8907 24.4316 14.912C24.1756 14.9333 23.9463 14.944 23.7436 14.944C23.541 14.944 23.317 14.9067 23.0716 14.832C22.837 14.768 22.6236 14.688 22.4316 14.592C22.3676 14.56 22.2556 14.496 22.0956 14.4C21.9463 14.304 21.8716 14.2187 21.8716 14.144C21.8716 14.0587 21.909 14.016 21.9836 14.016C22.0156 14.016 22.0903 14.0373 22.2076 14.08C22.325 14.1333 22.405 14.1707 22.4476 14.192C22.6503 14.256 22.8583 14.2987 23.0716 14.32C23.2956 14.352 23.509 14.368 23.7116 14.368C23.829 14.368 23.9943 14.3467 24.2076 14.304C24.421 14.272 24.613 14.2133 24.7836 14.128C24.965 14.0427 25.0556 13.92 25.0556 13.76C25.0556 13.6213 24.9916 13.5147 24.8636 13.44C24.7463 13.3653 24.613 13.3067 24.4636 13.264C24.3143 13.232 24.1863 13.216 24.0796 13.216C23.8556 13.216 23.637 13.2427 23.4236 13.296C23.221 13.3493 23.013 13.4133 22.7996 13.488C22.917 13.2107 23.0396 12.944 23.1676 12.688C23.3063 12.432 23.4343 12.1707 23.5516 11.904C22.8903 11.7653 22.325 11.504 21.8556 11.12C21.3863 10.736 21.029 10.2613 20.7836 9.696C20.5383 9.13067 20.4156 8.51733 20.4156 7.856C20.4156 7.06667 20.5756 6.32533 20.8956 5.632C21.2156 4.93867 21.717 4.37867 22.3996 3.952C22.6983 3.77067 23.029 3.62667 23.3916 3.52C23.7543 3.41333 24.1063 3.36 24.4476 3.36C24.853 3.36 25.253 3.44533 25.6476 3.616C25.829 3.69067 26.021 3.776 26.2236 3.872C26.4263 3.95733 26.6236 4 26.8156 4C26.901 4 26.981 3.98933 27.0556 3.968C27.1303 3.94667 27.205 3.93067 27.2796 3.92C27.301 4.25067 27.3223 4.58667 27.3436 4.928C27.365 5.26933 27.381 5.61067 27.3916 5.952V6C27.3916 6.128 27.3756 6.21867 27.3436 6.272C27.3223 6.31467 27.237 6.336 27.0876 6.336C27.013 6.336 26.965 6.29867 26.9436 6.224C26.9223 6.14933 26.901 6.08 26.8796 6.016C26.805 5.70667 26.6876 5.38667 26.5276 5.056C26.3783 4.71467 26.181 4.43733 25.9356 4.224C25.7756 4.07467 25.5783 3.952 25.3436 3.856C25.109 3.76 24.885 3.712 24.6716 3.712C24.1596 3.712 23.7276 3.84533 23.3756 4.112C23.0236 4.368 22.7356 4.704 22.5116 5.12C22.2983 5.52533 22.1436 5.96267 22.0476 6.432C21.9516 6.90133 21.9036 7.344 21.9036 7.76C21.9036 8.176 21.9516 8.59733 22.0476 9.024C22.1436 9.45067 22.293 9.85067 22.4956 10.224C22.709 10.5867 22.9863 10.88 23.3276 11.104C23.669 11.328 24.085 11.44 24.5756 11.44C25.2156 11.44 25.7543 11.3333 26.1916 11.12C26.6396 10.896 27.0716 10.5493 27.4876 10.08C27.5196 10.0587 27.541 10.0267 27.5516 9.984C27.573 9.94133 27.605 9.90933 27.6476 9.888C27.669 9.86667 27.7116 9.856 27.7756 9.856C27.9036 9.856 27.9676 9.92 27.9676 10.048ZM34.0642 10.128C34.0216 9.648 33.9949 9.168 33.9842 8.688C33.9842 8.19733 33.9789 7.70667 33.9682 7.216H33.7442C33.4136 7.216 33.0456 7.26933 32.6402 7.376C32.2456 7.472 31.8669 7.62133 31.5042 7.824C31.1416 8.02667 30.8429 8.28267 30.6082 8.592C30.3842 8.89067 30.2722 9.23733 30.2722 9.632C30.2722 10.144 30.4162 10.5333 30.7042 10.8C30.9922 11.056 31.3816 11.184 31.8722 11.184C32.1069 11.184 32.3629 11.1307 32.6402 11.024C32.9176 10.9067 33.1842 10.768 33.4402 10.608C33.6962 10.448 33.9042 10.288 34.0642 10.128ZM36.8642 11.152C36.8642 11.1947 36.8589 11.2267 36.8482 11.248C36.7416 11.4827 36.5602 11.664 36.3042 11.792C36.0589 11.9093 35.8136 11.968 35.5682 11.968C35.1202 11.968 34.7949 11.84 34.5922 11.584C34.4002 11.3173 34.2456 10.992 34.1282 10.608C33.7229 10.9813 33.2749 11.296 32.7842 11.552C32.2936 11.7973 31.7656 11.92 31.2002 11.92C30.8056 11.92 30.4322 11.8453 30.0802 11.696C29.7389 11.536 29.4616 11.3067 29.2482 11.008C29.0349 10.7093 28.9282 10.3467 28.9282 9.92C28.9282 9.472 29.0402 9.088 29.2642 8.768C29.4989 8.43733 29.7922 8.16 30.1442 7.936C30.5069 7.70133 30.8909 7.51467 31.2962 7.376C31.7122 7.22667 32.1016 7.11467 32.4642 7.04C32.7096 6.98667 32.9602 6.93867 33.2162 6.896C33.4722 6.85333 33.7229 6.81067 33.9682 6.768C33.9682 6.46933 33.9522 6.12267 33.9202 5.728C33.8989 5.33333 33.8189 5.008 33.6802 4.752C33.5416 4.50667 33.3549 4.288 33.1202 4.096C32.8856 3.904 32.6242 3.808 32.3362 3.808C31.8456 3.808 31.4616 3.936 31.1842 4.192C30.9069 4.448 30.7096 4.81067 30.5922 5.28C30.5816 5.33333 30.5709 5.392 30.5602 5.456C30.5602 5.50933 30.5549 5.56267 30.5442 5.616C30.5336 5.68 30.4909 5.73867 30.4162 5.792C30.3522 5.83467 30.2829 5.856 30.2082 5.856C30.0056 5.856 29.8189 5.808 29.6482 5.712C29.4882 5.616 29.4082 5.456 29.4082 5.232C29.4082 5.104 29.4296 4.992 29.4722 4.896C29.6109 4.56533 29.8349 4.29333 30.1442 4.08C30.4536 3.856 30.7949 3.68533 31.1682 3.568C31.5522 3.45067 31.9096 3.392 32.2402 3.392C32.8162 3.392 33.3389 3.49867 33.8082 3.712C34.2776 3.92533 34.6509 4.24 34.9282 4.656C35.2162 5.06133 35.3602 5.57333 35.3602 6.192C35.3602 6.88533 35.3549 7.584 35.3442 8.288C35.3442 8.992 35.3656 9.696 35.4082 10.4C35.4189 10.6347 35.4669 10.8427 35.5522 11.024C35.6376 11.1947 35.8136 11.28 36.0802 11.28C36.2189 11.28 36.3629 11.248 36.5122 11.184C36.6722 11.1093 36.7736 11.072 36.8162 11.072C36.8482 11.072 36.8642 11.0987 36.8642 11.152ZM35.1042 0.464C34.9549 0.613333 34.8109 0.773333 34.6722 0.943999C34.5336 1.11467 34.3789 1.25867 34.2082 1.376C34.0482 1.48267 33.8456 1.536 33.6002 1.536C33.3442 1.536 33.1042 1.47733 32.8802 1.36C32.6562 1.24267 32.4376 1.12533 32.2242 1.008C32.0216 0.890666 31.7976 0.832 31.5522 0.832C31.3176 0.832 31.1149 0.906666 30.9442 1.056C30.7736 1.20533 30.6189 1.36 30.4802 1.52L30.1442 1.312C30.2829 1.12 30.4269 0.922666 30.5762 0.719999C30.7362 0.517333 30.9122 0.346666 31.1042 0.207999C31.3069 0.0693324 31.5416 -9.53674e-07 31.8082 -9.53674e-07C32.0642 -9.53674e-07 32.2989 0.0586659 32.5122 0.176C32.7362 0.282666 32.9549 0.394666 33.1682 0.511999C33.3922 0.629333 33.6269 0.688 33.8722 0.688C34.0536 0.688 34.2242 0.629333 34.3842 0.511999C34.5442 0.394666 34.6776 0.266666 34.7842 0.127999L35.1042 0.464ZM44.5114 7.776C44.5114 7.31733 44.474 6.85867 44.3994 6.4C44.3354 5.93067 44.2074 5.49867 44.0154 5.104C43.834 4.70933 43.5674 4.39467 43.2154 4.16C42.8634 3.91467 42.4047 3.792 41.8394 3.792C41.306 3.792 40.8687 3.92 40.5274 4.176C40.1967 4.432 39.9354 4.76267 39.7434 5.168C39.562 5.57333 39.434 6.01067 39.3594 6.48C39.2954 6.94933 39.2634 7.392 39.2634 7.808C39.2634 8.26667 39.2954 8.72533 39.3594 9.184C39.434 9.64267 39.5674 10.0587 39.7594 10.432C39.9514 10.7947 40.2234 11.088 40.5754 11.312C40.938 11.536 41.402 11.648 41.9674 11.648C42.522 11.648 42.9647 11.5307 43.2954 11.296C43.6367 11.0613 43.8927 10.752 44.0634 10.368C44.2447 9.984 44.362 9.568 44.4154 9.12C44.4794 8.66133 44.5114 8.21333 44.5114 7.776ZM46.1594 7.824C46.1594 8.624 45.9674 9.344 45.5834 9.984C45.21 10.624 44.698 11.1307 44.0474 11.504C43.4074 11.8773 42.6874 12.064 41.8874 12.064C41.1087 12.064 40.4047 11.8773 39.7754 11.504C39.146 11.12 38.6447 10.6133 38.2714 9.984C37.898 9.344 37.7114 8.63467 37.7114 7.856C37.7114 7.056 37.8927 6.32 38.2554 5.648C38.618 4.96533 39.114 4.416 39.7434 4C40.3834 3.584 41.1194 3.376 41.9514 3.376C42.8474 3.376 43.61 3.568 44.2394 3.952C44.8687 4.32533 45.3434 4.848 45.6634 5.52C45.994 6.18133 46.1594 6.94933 46.1594 7.824ZM59.6972 8.736C59.6972 7.88267 59.5212 7.22133 59.1692 6.752C58.8279 6.28267 58.2039 6.03733 57.2972 6.016C57.1266 6.016 56.9559 6.016 56.7852 6.016C56.6146 6.00533 56.4439 6 56.2732 6C56.0066 6 55.7346 6.00533 55.4572 6.016C55.1906 6.02667 54.9186 6.032 54.6412 6.032V11.04C54.6412 11.232 54.6946 11.3707 54.8012 11.456C54.9186 11.5413 55.0572 11.5947 55.2172 11.616C55.3772 11.6267 55.5266 11.632 55.6652 11.632C55.8466 11.632 56.0279 11.632 56.2092 11.632C56.4012 11.6213 56.5879 11.6107 56.7692 11.6C57.6546 11.5467 58.3639 11.2907 58.8972 10.832C59.4306 10.3733 59.6972 9.67467 59.6972 8.736ZM58.8812 3.056C58.8812 2.23467 58.6572 1.648 58.2092 1.296C57.7612 0.933333 57.1426 0.752 56.3532 0.752C56.0652 0.752 55.7772 0.757333 55.4892 0.768C55.2119 0.768 54.9292 0.778666 54.6412 0.799999V5.584C54.7906 5.584 54.9346 5.58933 55.0732 5.6C55.2119 5.6 55.3506 5.6 55.4892 5.6C55.7559 5.6 56.0492 5.58933 56.3692 5.568C56.6999 5.54667 57.0146 5.49333 57.3132 5.408C57.6226 5.32267 57.8786 5.184 58.0812 4.992C58.3266 4.74667 58.5186 4.45333 58.6572 4.112C58.8066 3.76 58.8812 3.408 58.8812 3.056ZM61.4092 8.48C61.4092 9.22667 61.2332 9.87733 60.8812 10.432C60.5292 10.976 60.0012 11.3867 59.2972 11.664C58.9239 11.8133 58.5132 11.9147 58.0652 11.968C57.6279 12.0107 57.2066 12.032 56.8012 12.032C56.7266 12.032 56.6466 12.032 56.5612 12.032C56.4866 12.032 56.4119 12.0267 56.3372 12.016C55.8252 11.9947 55.3132 11.9787 54.8012 11.968C54.2999 11.9467 53.7932 11.936 53.2812 11.936C52.9932 11.936 52.7052 11.9573 52.4172 12C52.1399 12.032 51.8572 12.048 51.5692 12.048C51.4839 12.048 51.4359 12.016 51.4252 11.952C51.4146 11.8773 51.4092 11.808 51.4092 11.744C51.4092 11.6267 51.4572 11.568 51.5532 11.568C51.7026 11.568 51.8572 11.568 52.0172 11.568C52.1879 11.5573 52.3479 11.5413 52.4972 11.52C52.7212 11.488 52.8652 11.4027 52.9292 11.264C53.0039 11.1147 53.0466 10.9387 53.0572 10.736C53.0786 10.5227 53.0839 10.3147 53.0732 10.112C53.0626 9.90933 53.0572 9.70667 53.0572 9.504C53.0572 9.10933 53.0572 8.71467 53.0572 8.32C53.0679 7.91467 53.0732 7.51467 53.0732 7.12V5.376C53.0732 4.8 53.0679 4.224 53.0572 3.648C53.0572 3.072 53.0572 2.496 53.0572 1.92C53.0572 1.81333 53.0519 1.712 53.0412 1.616C53.0412 1.50933 53.0252 1.408 52.9932 1.312C52.9186 1.09867 52.7852 0.970666 52.5932 0.927999C52.4119 0.874666 52.2252 0.848 52.0332 0.848C51.9586 0.848 51.8786 0.853333 51.7932 0.863999C51.7186 0.863999 51.6386 0.863999 51.5532 0.863999C51.4786 0.863999 51.4306 0.826666 51.4092 0.752C51.3986 0.677333 51.3932 0.618666 51.3932 0.575999C51.3932 0.533333 51.3986 0.490666 51.4092 0.447999C51.4306 0.394666 51.4679 0.367999 51.5212 0.367999C51.7666 0.367999 52.0066 0.378666 52.2412 0.4C52.4759 0.410666 52.7106 0.415999 52.9452 0.415999C53.5746 0.415999 54.1932 0.399999 54.8012 0.367999C55.4199 0.325333 56.0386 0.282667 56.6572 0.24C56.7426 0.229333 56.8226 0.223999 56.8972 0.223999C56.9719 0.223999 57.0466 0.223999 57.1212 0.223999C57.7186 0.223999 58.2786 0.303999 58.8012 0.464C59.3346 0.613333 59.7666 0.88 60.0972 1.264C60.4279 1.648 60.5932 2.18667 60.5932 2.88C60.5932 3.31733 60.4759 3.712 60.2412 4.064C60.0172 4.40533 59.7239 4.704 59.3612 4.96C59.0092 5.20533 58.6466 5.40267 58.2732 5.552V5.632C58.7852 5.71733 59.2812 5.872 59.7612 6.096C60.2412 6.30933 60.6359 6.61333 60.9452 7.008C61.2546 7.392 61.4092 7.88267 61.4092 8.48ZM68.5346 6.384C68.524 5.94667 68.4866 5.53067 68.4226 5.136C68.3586 4.73067 68.204 4.4 67.9586 4.144C67.7133 3.87733 67.3133 3.744 66.7586 3.744C66.2573 3.744 65.8466 3.88267 65.5266 4.16C65.2173 4.42667 64.9773 4.768 64.8066 5.184C64.636 5.58933 64.508 6.00533 64.4226 6.432C64.6893 6.44267 64.9506 6.45333 65.2066 6.464C65.4626 6.464 65.7186 6.464 65.9746 6.464C66.4013 6.464 66.828 6.45867 67.2546 6.448C67.6813 6.42667 68.108 6.40533 68.5346 6.384ZM70.3746 10.048C70.3746 10.1013 70.364 10.1333 70.3426 10.144C70.3106 10.2507 70.2306 10.3787 70.1026 10.528C69.9853 10.6773 69.852 10.8213 69.7026 10.96C69.5533 11.088 69.4306 11.184 69.3346 11.248C68.9826 11.4933 68.5826 11.6907 68.1346 11.84C67.6973 11.9893 67.26 12.064 66.8226 12.064C66.46 12.064 66.0546 12.0053 65.6066 11.888C65.1693 11.7707 64.796 11.6107 64.4866 11.408C63.8893 11.0133 63.452 10.496 63.1746 9.856C62.8973 9.216 62.7586 8.54933 62.7586 7.856C62.7586 7.06667 62.9133 6.336 63.2226 5.664C63.532 4.992 64.028 4.448 64.7106 4.032C65.02 3.85067 65.3666 3.70133 65.7506 3.584C66.1346 3.456 66.5026 3.392 66.8546 3.392C67.484 3.392 68.0386 3.52 68.5186 3.776C68.9986 4.032 69.372 4.39467 69.6386 4.864C69.916 5.32267 70.0546 5.872 70.0546 6.512C70.0546 6.69333 70.012 6.81067 69.9266 6.864C69.852 6.91733 69.7346 6.944 69.5746 6.944C69.3613 6.944 69.148 6.93867 68.9346 6.928C68.7213 6.91733 68.508 6.90667 68.2946 6.896C67.996 6.87467 67.6973 6.864 67.3986 6.864C67.1106 6.864 66.8173 6.864 66.5186 6.864C66.156 6.864 65.7933 6.864 65.4306 6.864C65.068 6.864 64.7053 6.87467 64.3426 6.896C64.332 7.06667 64.3213 7.232 64.3106 7.392C64.3 7.552 64.2946 7.71733 64.2946 7.888C64.2946 8.28267 64.3426 8.69333 64.4386 9.12C64.5346 9.536 64.6893 9.92533 64.9026 10.288C65.116 10.64 65.388 10.928 65.7186 11.152C66.0493 11.3653 66.4493 11.472 66.9186 11.472C67.3986 11.472 67.8573 11.3973 68.2946 11.248C68.732 11.0987 69.132 10.8587 69.4946 10.528C69.5906 10.432 69.676 10.3307 69.7506 10.224C69.836 10.1067 69.9266 10.0053 70.0226 9.92C70.076 9.86667 70.1346 9.84 70.1986 9.84C70.252 9.84 70.2946 9.86133 70.3266 9.904C70.3586 9.94667 70.3746 9.99467 70.3746 10.048ZM77.3494 9.712C77.3494 10.192 77.2427 10.5867 77.0294 10.896C76.816 11.1947 76.5387 11.424 76.1974 11.584C75.856 11.744 75.4827 11.856 75.0774 11.92C74.672 11.984 74.2774 12.016 73.8934 12.016C73.5414 12.016 73.1894 11.9787 72.8374 11.904C72.496 11.8293 72.1494 11.776 71.7974 11.744C71.7227 11.456 71.648 11.168 71.5734 10.88C71.5094 10.592 71.4347 10.3093 71.3494 10.032C71.3387 10 71.312 9.92533 71.2694 9.808C71.2374 9.69067 71.2214 9.62667 71.2214 9.616C71.2214 9.53067 71.248 9.472 71.3014 9.44C71.3547 9.39733 71.4187 9.376 71.4934 9.376C71.568 9.376 71.6214 9.40267 71.6534 9.456C71.7174 9.53067 71.7707 9.632 71.8134 9.76C71.8667 9.888 71.9147 10 71.9574 10.096C72.0427 10.2667 72.1174 10.4 72.1814 10.496C72.2454 10.5813 72.3467 10.6933 72.4854 10.832C72.9014 11.2693 73.4187 11.488 74.0374 11.488C74.3787 11.488 74.688 11.4507 74.9654 11.376C75.2534 11.3013 75.4827 11.1627 75.6534 10.96C75.824 10.7467 75.9094 10.4427 75.9094 10.048C75.9094 9.70667 75.8027 9.424 75.5894 9.2C75.376 8.96533 75.0987 8.75733 74.7574 8.576C74.4267 8.39467 74.0747 8.21867 73.7014 8.048C73.328 7.87733 72.9707 7.69067 72.6294 7.488C72.2987 7.27467 72.0267 7.01867 71.8134 6.72C71.6 6.42133 71.4934 6.05867 71.4934 5.632C71.4934 5.10933 71.6267 4.68267 71.8934 4.352C72.1707 4.02133 72.5227 3.776 72.9494 3.616C73.376 3.44533 73.8187 3.36 74.2774 3.36C74.576 3.36 74.8427 3.39733 75.0774 3.472C75.3227 3.54667 75.5787 3.632 75.8454 3.728C75.9307 3.76 76.016 3.78133 76.1014 3.792C76.1867 3.80267 76.272 3.808 76.3574 3.808C76.4107 3.808 76.4587 3.808 76.5014 3.808C76.544 3.808 76.5867 3.80267 76.6294 3.792C76.6614 3.984 76.688 4.18133 76.7094 4.384C76.7414 4.576 76.768 4.77333 76.7894 4.976C76.8 5.05067 76.8107 5.14133 76.8214 5.248C76.8427 5.344 76.8534 5.43467 76.8534 5.52C76.8534 5.59467 76.8374 5.67467 76.8054 5.76C76.7734 5.83467 76.7094 5.872 76.6134 5.872C76.5387 5.872 76.4747 5.86667 76.4214 5.856C76.3787 5.83467 76.3414 5.78667 76.3094 5.712C76.256 5.60533 76.208 5.49333 76.1654 5.376C76.1334 5.248 76.096 5.13067 76.0534 5.024C75.9147 4.65067 75.6747 4.352 75.3334 4.128C74.992 3.89333 74.624 3.776 74.2294 3.776C73.728 3.776 73.3494 3.92533 73.0934 4.224C72.8374 4.512 72.7094 4.90133 72.7094 5.392C72.7094 5.56267 72.752 5.728 72.8374 5.888C72.9334 6.048 73.04 6.18667 73.1574 6.304C73.3814 6.51733 73.6427 6.68267 73.9414 6.8C74.2507 6.91733 74.544 7.03467 74.8214 7.152C75.184 7.312 75.5574 7.504 75.9414 7.728C76.336 7.952 76.6667 8.224 76.9334 8.544C77.2107 8.864 77.3494 9.25333 77.3494 9.712ZM84.49 9.712C84.49 10.192 84.3833 10.5867 84.17 10.896C83.9567 11.1947 83.6793 11.424 83.338 11.584C82.9967 11.744 82.6233 11.856 82.218 11.92C81.8127 11.984 81.418 12.016 81.034 12.016C80.682 12.016 80.33 11.9787 79.978 11.904C79.6367 11.8293 79.29 11.776 78.938 11.744C78.8633 11.456 78.7887 11.168 78.714 10.88C78.65 10.592 78.5753 10.3093 78.49 10.032C78.4793 10 78.4527 9.92533 78.41 9.808C78.378 9.69067 78.362 9.62667 78.362 9.616C78.362 9.53067 78.3887 9.472 78.442 9.44C78.4953 9.39733 78.5593 9.376 78.634 9.376C78.7087 9.376 78.762 9.40267 78.794 9.456C78.858 9.53067 78.9113 9.632 78.954 9.76C79.0073 9.888 79.0553 10 79.098 10.096C79.1833 10.2667 79.258 10.4 79.322 10.496C79.386 10.5813 79.4873 10.6933 79.626 10.832C80.042 11.2693 80.5593 11.488 81.178 11.488C81.5193 11.488 81.8287 11.4507 82.106 11.376C82.394 11.3013 82.6233 11.1627 82.794 10.96C82.9647 10.7467 83.05 10.4427 83.05 10.048C83.05 9.70667 82.9433 9.424 82.73 9.2C82.5167 8.96533 82.2393 8.75733 81.898 8.576C81.5673 8.39467 81.2153 8.21867 80.842 8.048C80.4687 7.87733 80.1113 7.69067 79.77 7.488C79.4393 7.27467 79.1673 7.01867 78.954 6.72C78.7407 6.42133 78.634 6.05867 78.634 5.632C78.634 5.10933 78.7673 4.68267 79.034 4.352C79.3113 4.02133 79.6633 3.776 80.09 3.616C80.5167 3.44533 80.9593 3.36 81.418 3.36C81.7167 3.36 81.9833 3.39733 82.218 3.472C82.4633 3.54667 82.7193 3.632 82.986 3.728C83.0713 3.76 83.1567 3.78133 83.242 3.792C83.3273 3.80267 83.4127 3.808 83.498 3.808C83.5513 3.808 83.5993 3.808 83.642 3.808C83.6847 3.808 83.7273 3.80267 83.77 3.792C83.802 3.984 83.8287 4.18133 83.85 4.384C83.882 4.576 83.9087 4.77333 83.93 4.976C83.9407 5.05067 83.9513 5.14133 83.962 5.248C83.9833 5.344 83.994 5.43467 83.994 5.52C83.994 5.59467 83.978 5.67467 83.946 5.76C83.914 5.83467 83.85 5.872 83.754 5.872C83.6793 5.872 83.6153 5.86667 83.562 5.856C83.5193 5.83467 83.482 5.78667 83.45 5.712C83.3967 5.60533 83.3487 5.49333 83.306 5.376C83.274 5.248 83.2367 5.13067 83.194 5.024C83.0553 4.65067 82.8153 4.352 82.474 4.128C82.1327 3.89333 81.7647 3.776 81.37 3.776C80.8687 3.776 80.49 3.92533 80.234 4.224C79.978 4.512 79.85 4.90133 79.85 5.392C79.85 5.56267 79.8927 5.728 79.978 5.888C80.074 6.048 80.1807 6.18667 80.298 6.304C80.522 6.51733 80.7833 6.68267 81.082 6.8C81.3913 6.91733 81.6847 7.03467 81.962 7.152C82.3247 7.312 82.698 7.504 83.082 7.728C83.4767 7.952 83.8073 8.224 84.074 8.544C84.3513 8.864 84.49 9.25333 84.49 9.712ZM91.5346 6.384C91.524 5.94667 91.4866 5.53067 91.4226 5.136C91.3586 4.73067 91.204 4.4 90.9586 4.144C90.7133 3.87733 90.3133 3.744 89.7586 3.744C89.2573 3.744 88.8466 3.88267 88.5266 4.16C88.2173 4.42667 87.9773 4.768 87.8066 5.184C87.636 5.58933 87.508 6.00533 87.4226 6.432C87.6893 6.44267 87.9506 6.45333 88.2066 6.464C88.4626 6.464 88.7186 6.464 88.9746 6.464C89.4013 6.464 89.828 6.45867 90.2546 6.448C90.6813 6.42667 91.108 6.40533 91.5346 6.384ZM93.3746 10.048C93.3746 10.1013 93.364 10.1333 93.3426 10.144C93.3106 10.2507 93.2306 10.3787 93.1026 10.528C92.9853 10.6773 92.852 10.8213 92.7026 10.96C92.5533 11.088 92.4306 11.184 92.3346 11.248C91.9826 11.4933 91.5826 11.6907 91.1346 11.84C90.6973 11.9893 90.26 12.064 89.8226 12.064C89.46 12.064 89.0546 12.0053 88.6066 11.888C88.1693 11.7707 87.796 11.6107 87.4866 11.408C86.8893 11.0133 86.452 10.496 86.1746 9.856C85.8973 9.216 85.7586 8.54933 85.7586 7.856C85.7586 7.06667 85.9133 6.336 86.2226 5.664C86.532 4.992 87.028 4.448 87.7106 4.032C88.02 3.85067 88.3666 3.70133 88.7506 3.584C89.1346 3.456 89.5026 3.392 89.8546 3.392C90.484 3.392 91.0386 3.52 91.5186 3.776C91.9986 4.032 92.372 4.39467 92.6386 4.864C92.916 5.32267 93.0546 5.872 93.0546 6.512C93.0546 6.69333 93.012 6.81067 92.9266 6.864C92.852 6.91733 92.7346 6.944 92.5746 6.944C92.3613 6.944 92.148 6.93867 91.9346 6.928C91.7213 6.91733 91.508 6.90667 91.2946 6.896C90.996 6.87467 90.6973 6.864 90.3986 6.864C90.1106 6.864 89.8173 6.864 89.5186 6.864C89.156 6.864 88.7933 6.864 88.4306 6.864C88.068 6.864 87.7053 6.87467 87.3426 6.896C87.332 7.06667 87.3213 7.232 87.3106 7.392C87.3 7.552 87.2946 7.71733 87.2946 7.888C87.2946 8.28267 87.3426 8.69333 87.4386 9.12C87.5346 9.536 87.6893 9.92533 87.9026 10.288C88.116 10.64 88.388 10.928 88.7186 11.152C89.0493 11.3653 89.4493 11.472 89.9186 11.472C90.3986 11.472 90.8573 11.3973 91.2946 11.248C91.732 11.0987 92.132 10.8587 92.4946 10.528C92.5906 10.432 92.676 10.3307 92.7506 10.224C92.836 10.1067 92.9266 10.0053 93.0226 9.92C93.076 9.86667 93.1346 9.84 93.1986 9.84C93.252 9.84 93.2946 9.86133 93.3266 9.904C93.3586 9.94667 93.3746 9.99467 93.3746 10.048ZM100.685 4.88C100.685 4.98667 100.643 5.088 100.557 5.184C100.483 5.26933 100.387 5.312 100.269 5.312C100.109 5.312 99.992 5.25867 99.9174 5.152C99.8534 5.04533 99.7947 4.92267 99.7414 4.784C99.6987 4.64533 99.6294 4.52267 99.5334 4.416C99.4374 4.30933 99.2774 4.256 99.0534 4.256C99.0107 4.256 98.968 4.256 98.9254 4.256C98.8934 4.256 98.856 4.26133 98.8134 4.272C98.632 4.304 98.4347 4.416 98.2214 4.608C98.008 4.8 97.8 5.02933 97.5974 5.296C97.4054 5.552 97.2454 5.808 97.1174 6.064C96.9894 6.32 96.92 6.53333 96.9094 6.704C96.8987 6.87467 96.8934 7.04533 96.8934 7.216C96.8934 7.376 96.8934 7.536 96.8934 7.696C96.8934 8.272 96.8934 8.848 96.8934 9.424C96.904 10 96.9094 10.5707 96.9094 11.136C96.9094 11.296 96.9734 11.4133 97.1014 11.488C97.24 11.552 97.3787 11.584 97.5174 11.584C97.624 11.584 97.7307 11.5787 97.8374 11.568C97.944 11.5573 98.0507 11.552 98.1574 11.552C98.2107 11.552 98.248 11.5787 98.2694 11.632C98.2907 11.6747 98.3014 11.7173 98.3014 11.76C98.3014 11.9307 98.216 12.016 98.0454 12.016C97.7254 12.016 97.4054 12.0107 97.0854 12C96.7654 11.9787 96.4454 11.968 96.1254 11.968C95.7947 11.968 95.4587 11.9787 95.1174 12C94.7867 12.0213 94.4507 12.032 94.1094 12.032C94.0667 12.032 94.0347 12 94.0134 11.936C94.0027 11.872 93.9974 11.8187 93.9974 11.776C93.9974 11.6693 94.04 11.6107 94.1254 11.6C94.2427 11.5787 94.3654 11.5733 94.4934 11.584C94.6214 11.5947 94.7387 11.6 94.8454 11.6C95.0054 11.6 95.1334 11.568 95.2294 11.504C95.336 11.4293 95.3947 11.3067 95.4054 11.136C95.4267 10.7947 95.4374 10.448 95.4374 10.096C95.448 9.744 95.4534 9.392 95.4534 9.04V7.488C95.4427 7.02933 95.4374 6.576 95.4374 6.128C95.448 5.66933 95.432 5.216 95.3894 4.768C95.3787 4.55467 95.32 4.40533 95.2134 4.32C95.1067 4.224 94.9467 4.176 94.7334 4.176C94.648 4.176 94.5574 4.18667 94.4614 4.208C94.376 4.21867 94.2854 4.224 94.1894 4.224C94.104 4.224 94.0614 4.16 94.0614 4.032C94.0614 3.95733 94.0987 3.904 94.1734 3.872C94.28 3.84 94.392 3.81867 94.5094 3.808C94.6267 3.78667 94.7387 3.77067 94.8454 3.76C95.1334 3.70667 95.4214 3.65333 95.7094 3.6C95.9974 3.54667 96.2854 3.48267 96.5734 3.408C96.6694 3.44 96.7387 3.49867 96.7814 3.584C96.8027 3.62667 96.8187 3.744 96.8294 3.936C96.84 4.128 96.8454 4.352 96.8454 4.608C96.8454 4.85333 96.8454 5.088 96.8454 5.312C96.8454 5.52533 96.8454 5.67467 96.8454 5.76C97.08 5.38667 97.3467 5.01333 97.6454 4.64C97.944 4.26667 98.2854 3.95733 98.6694 3.712C99.0534 3.46667 99.4854 3.344 99.9654 3.344C100.221 3.344 100.387 3.424 100.461 3.584C100.536 3.744 100.584 3.93067 100.605 4.144C100.627 4.26133 100.643 4.384 100.653 4.512C100.675 4.64 100.685 4.76267 100.685 4.88ZM29.8291 34.76C29.8291 34.9307 29.7491 35.016 29.5891 35.016C29.5145 35.016 29.4345 35.0107 29.3491 35C29.2638 34.9893 29.1785 34.984 29.0931 34.984C28.9971 34.984 28.8958 34.984 28.7891 34.984C28.6931 34.9733 28.5918 34.968 28.4851 34.968C28.2505 34.9573 28.0105 34.9573 27.7651 34.968C27.5305 34.968 27.2958 34.968 27.0611 34.968C26.7411 34.968 26.4265 34.968 26.1171 34.968C25.8078 34.968 25.4931 34.9733 25.1731 34.984C25.0985 34.9947 25.0025 35 24.8851 35C24.7785 35 24.6931 35 24.6291 35C24.5011 35 24.4371 34.92 24.4371 34.76C24.4371 34.7067 24.4425 34.6587 24.4531 34.616C24.4745 34.5627 24.5171 34.536 24.5811 34.536C24.6451 34.536 24.7038 34.5413 24.7571 34.552C24.8211 34.552 24.8851 34.552 24.9491 34.552C25.0558 34.552 25.2105 34.552 25.4131 34.552C25.6265 34.5413 25.8238 34.5093 26.0051 34.456C26.1865 34.392 26.2771 34.2853 26.2771 34.136C26.2771 33.272 26.2825 32.408 26.2931 31.544C26.3038 30.6693 26.3091 29.8 26.3091 28.936C26.3091 28.2 26.3091 27.464 26.3091 26.728C26.3091 25.992 26.3091 25.2507 26.3091 24.504C26.3091 24.3653 26.2398 24.296 26.1011 24.296C26.0371 24.296 25.9038 24.3333 25.7011 24.408C25.5091 24.4827 25.2905 24.568 25.0451 24.664C24.7998 24.76 24.5758 24.8453 24.3731 24.92C24.1811 24.9947 24.0585 25.032 24.0051 25.032C23.9091 25.032 23.8398 24.9893 23.7971 24.904C23.7651 24.8187 23.7491 24.7387 23.7491 24.664C23.7491 24.6 23.7811 24.5467 23.8451 24.504C23.9091 24.4507 23.9678 24.4187 24.0211 24.408C24.3198 24.3333 24.6025 24.248 24.8691 24.152C25.1358 24.0453 25.4131 23.944 25.7011 23.848C25.9251 23.7733 26.1598 23.6933 26.4051 23.608C26.6505 23.512 26.8798 23.4213 27.0931 23.336C27.1358 23.3147 27.2105 23.288 27.3171 23.256C27.4238 23.224 27.5305 23.192 27.6371 23.16C27.7545 23.128 27.8238 23.112 27.8451 23.112C27.9091 23.112 27.9571 23.1227 27.9891 23.144C28.0211 23.1547 28.0371 23.208 28.0371 23.304C28.0371 23.5387 28.0318 23.7733 28.0211 24.008C28.0211 24.232 28.0158 24.4613 28.0051 24.696C27.9945 25.3467 27.9838 26.0347 27.9731 26.76C27.9731 27.4853 27.9678 28.2 27.9571 28.904C27.9571 29.6827 27.9571 30.456 27.9571 31.224C27.9571 31.992 27.9571 32.7653 27.9571 33.544C27.9571 33.64 27.9571 33.7413 27.9571 33.848C27.9678 33.944 27.9731 34.04 27.9731 34.136C27.9838 34.2853 28.0691 34.392 28.2291 34.456C28.3998 34.5093 28.5811 34.536 28.7731 34.536C28.9758 34.536 29.1198 34.536 29.2051 34.536C29.2905 34.536 29.3705 34.5307 29.4451 34.52C29.5198 34.5093 29.5945 34.504 29.6691 34.504C29.7331 34.504 29.7758 34.536 29.7971 34.6C29.8185 34.6533 29.8291 34.7067 29.8291 34.76ZM40.1306 30.856C40.1306 31.3573 40.0293 31.8907 39.8266 32.456C39.624 33.0213 39.3306 33.4747 38.9466 33.816C38.52 34.1893 38.008 34.4773 37.4106 34.68C36.8133 34.8827 36.232 34.984 35.6666 34.984C35.4 34.984 35.08 34.952 34.7066 34.888C34.3333 34.8133 33.9653 34.7067 33.6026 34.568C33.24 34.4187 32.936 34.2267 32.6906 33.992C32.4453 33.7467 32.3226 33.4533 32.3226 33.112C32.3226 32.8773 32.4026 32.696 32.5626 32.568C32.7226 32.4293 32.9146 32.36 33.1386 32.36C33.3306 32.36 33.5013 32.408 33.6506 32.504C33.8 32.6 33.88 32.7547 33.8906 32.968C33.9333 33.4587 34.072 33.8373 34.3066 34.104C34.552 34.3707 34.936 34.504 35.4586 34.504C36.1946 34.504 36.792 34.3333 37.2506 33.992C37.7093 33.64 38.0506 33.112 38.2746 32.408C38.3493 32.1627 38.392 31.912 38.4026 31.656C38.424 31.3893 38.4346 31.128 38.4346 30.872C38.4346 30.52 38.392 30.1413 38.3066 29.736C38.232 29.32 38.088 28.968 37.8746 28.68C37.6933 28.4347 37.4586 28.2693 37.1706 28.184C36.8933 28.0987 36.6053 28.056 36.3066 28.056C36.072 28.056 35.816 28.0987 35.5386 28.184C35.2613 28.2587 35.032 28.3707 34.8506 28.52C34.6693 28.6693 34.504 28.8613 34.3546 29.096C34.2053 29.32 34.12 29.5547 34.0986 29.8C34.088 29.864 34.0773 29.944 34.0666 30.04C34.056 30.136 34.0026 30.184 33.9066 30.184C33.8533 30.184 33.7413 30.1627 33.5706 30.12C33.4106 30.0667 33.256 30.008 33.1066 29.944C32.968 29.8693 32.8986 29.8053 32.8986 29.752C32.8986 29.72 32.904 29.688 32.9146 29.656C32.9253 29.624 32.936 29.592 32.9466 29.56C33.0213 29.3147 33.08 29.0107 33.1226 28.648C33.176 28.2747 33.2133 27.8853 33.2346 27.48C33.256 27.064 33.272 26.664 33.2826 26.28C33.2933 25.896 33.2986 25.5707 33.2986 25.304C33.2986 24.6747 33.2666 24.04 33.2026 23.4C33.5333 23.4427 33.8586 23.4747 34.1786 23.496C34.5093 23.5173 34.84 23.528 35.1706 23.528H37.4586C37.736 23.528 38.056 23.512 38.4186 23.48C38.792 23.448 39.1013 23.3627 39.3466 23.224C39.4 23.192 39.4586 23.16 39.5226 23.128C39.5973 23.0853 39.6613 23.064 39.7146 23.064C39.7466 23.064 39.7946 23.0693 39.8586 23.08C39.9226 23.08 39.9546 23.1067 39.9546 23.16C39.9546 23.2133 39.9173 23.3253 39.8426 23.496C39.768 23.656 39.688 23.8213 39.6026 23.992C39.5173 24.1627 39.4586 24.2747 39.4266 24.328C39.384 24.4027 39.3306 24.4507 39.2666 24.472C39.2026 24.4933 39.128 24.504 39.0426 24.504C38.904 24.504 38.76 24.504 38.6106 24.504C38.472 24.4933 38.328 24.4827 38.1786 24.472C37.9973 24.4507 37.8106 24.4453 37.6186 24.456C37.4266 24.456 37.24 24.456 37.0586 24.456C36.76 24.456 36.4613 24.456 36.1626 24.456C35.864 24.4453 35.56 24.44 35.2506 24.44C35.0693 24.44 34.8826 24.44 34.6906 24.44C34.5093 24.44 34.328 24.4453 34.1466 24.456C34.136 25.128 34.1093 25.8053 34.0666 26.488C34.0346 27.16 34.0026 27.832 33.9706 28.504C34.4613 28.1627 34.9146 27.912 35.3306 27.752C35.7573 27.5813 36.2693 27.496 36.8666 27.496C37.272 27.496 37.6613 27.5547 38.0346 27.672C38.4186 27.7893 38.76 27.9867 39.0586 28.264C39.4 28.584 39.6613 28.9787 39.8426 29.448C40.0346 29.9173 40.1306 30.3867 40.1306 30.856ZM52.4961 34.744C52.4961 34.7867 52.4855 34.8347 52.4641 34.888C52.4428 34.9413 52.4055 34.968 52.3521 34.968C52.0215 34.968 51.6855 34.9733 51.3441 34.984C51.0135 34.984 50.6775 34.984 50.3361 34.984C50.1655 34.984 50.0001 34.9787 49.8401 34.968C49.6908 34.9467 49.5521 34.8773 49.4241 34.76C49.3815 34.728 49.3441 34.6907 49.3121 34.648C49.2801 34.6053 49.2481 34.5627 49.2161 34.52C47.8935 32.6747 46.5068 30.856 45.0561 29.064L44.4961 29.528V34.152C44.4961 34.3333 44.5815 34.4507 44.7521 34.504C44.9228 34.5573 45.1148 34.584 45.3281 34.584C45.5415 34.5733 45.7015 34.568 45.8081 34.568C45.9468 34.568 46.0161 34.6373 46.0161 34.776C46.0161 34.9147 45.9575 34.984 45.8401 34.984C45.4775 34.984 45.1201 34.9733 44.7681 34.952C44.4161 34.9307 44.0588 34.92 43.6961 34.92C43.3441 34.92 42.9868 34.9253 42.6241 34.936C42.2721 34.9467 41.9201 34.9627 41.5681 34.984C41.4828 34.9307 41.4401 34.856 41.4401 34.76C41.4401 34.6853 41.4455 34.6373 41.4561 34.616C41.4775 34.5947 41.5255 34.5787 41.6001 34.568C41.6641 34.5573 41.7281 34.5573 41.7921 34.568C41.8561 34.568 41.9201 34.568 41.9841 34.568C42.0801 34.568 42.1975 34.5627 42.3361 34.552C42.4855 34.5413 42.6135 34.5093 42.7201 34.456C42.8375 34.392 42.8961 34.2907 42.8961 34.152V24.104C42.8961 23.9973 42.8215 23.9013 42.6721 23.816C42.5335 23.7307 42.4215 23.688 42.3361 23.688H41.9841C41.9095 23.688 41.8401 23.6933 41.7761 23.704C41.7121 23.704 41.6428 23.704 41.5681 23.704C41.4615 23.704 41.4028 23.672 41.3921 23.608C41.3815 23.544 41.3761 23.4747 41.3761 23.4C41.3761 23.3147 41.4135 23.272 41.4881 23.272C41.8615 23.272 42.2295 23.2827 42.5921 23.304C42.9655 23.3253 43.3335 23.336 43.6961 23.336C44.0375 23.336 44.3735 23.3253 44.7041 23.304C45.0455 23.2827 45.3815 23.272 45.7121 23.272C45.8401 23.272 45.9041 23.3467 45.9041 23.496C45.9041 23.5387 45.8881 23.5867 45.8561 23.64C45.8348 23.6827 45.7975 23.704 45.7441 23.704C45.6268 23.704 45.5095 23.704 45.3921 23.704C45.2748 23.6933 45.1575 23.688 45.0401 23.688C44.9228 23.688 44.8001 23.7253 44.6721 23.8C44.5548 23.8747 44.4961 23.976 44.4961 24.104V26.536C44.4961 26.952 44.4961 27.368 44.4961 27.784C44.4961 28.2 44.4908 28.616 44.4801 29.032C45.5468 28.0293 46.5921 27 47.6161 25.944C48.0001 25.5387 48.3735 25.1387 48.7361 24.744C49.0988 24.3387 49.4455 23.9173 49.7761 23.48C49.8508 23.3733 49.9361 23.32 50.0321 23.32C50.1921 23.32 50.3521 23.3253 50.5121 23.336C50.6721 23.336 50.8321 23.336 50.9921 23.336C51.1308 23.336 51.2641 23.336 51.3921 23.336C51.5308 23.3253 51.6695 23.32 51.8081 23.32C51.8615 23.32 51.8935 23.3467 51.9041 23.4C51.9255 23.4427 51.9361 23.4853 51.9361 23.528C51.9361 23.5707 51.9201 23.6187 51.8881 23.672C51.8668 23.7147 51.8295 23.736 51.7761 23.736C51.4775 23.736 51.1948 23.7787 50.9281 23.864C50.6615 23.9493 50.4161 24.0987 50.1921 24.312L46.2241 28.088C47.0241 29.112 47.8348 30.136 48.6561 31.16C49.4881 32.1733 50.3415 33.1653 51.2161 34.136C51.3761 34.3067 51.5521 34.4133 51.7441 34.456C51.9468 34.4987 52.1228 34.5307 52.2721 34.552C52.4215 34.5733 52.4961 34.6373 52.4961 34.744ZM64.699 30.072C64.699 30.136 64.683 30.1947 64.651 30.248C64.619 30.3013 64.5657 30.328 64.491 30.328H63.499V33.752C62.7523 34.008 62.011 34.2907 61.275 34.6C60.923 34.7493 60.5497 34.8453 60.155 34.888C59.771 34.9307 59.3923 34.952 59.019 34.952C58.699 34.952 58.3417 34.9147 57.947 34.84C57.5523 34.7653 57.1683 34.6587 56.795 34.52C56.4323 34.3813 56.1123 34.2213 55.835 34.04C55.0243 33.496 54.4217 32.792 54.027 31.928C53.643 31.064 53.451 30.1467 53.451 29.176C53.451 28.3547 53.579 27.5813 53.835 26.856C54.1017 26.1307 54.4803 25.4907 54.971 24.936C55.4617 24.3813 56.0483 23.9493 56.731 23.64C57.4243 23.32 58.1977 23.16 59.051 23.16C59.6803 23.16 60.283 23.2453 60.859 23.416C60.955 23.448 61.1097 23.496 61.323 23.56C61.5363 23.624 61.7497 23.688 61.963 23.752C62.1763 23.8053 62.3203 23.832 62.395 23.832C62.619 23.832 62.7737 23.8053 62.859 23.752C62.9443 23.688 63.0083 23.6187 63.051 23.544C63.1043 23.4693 63.179 23.4107 63.275 23.368H63.403C63.4883 23.368 63.5363 23.416 63.547 23.512C63.5683 23.6187 63.5737 23.7307 63.563 23.848C63.563 23.9653 63.563 24.0827 63.563 24.2C63.563 24.5307 63.5683 24.8613 63.579 25.192C63.6003 25.5227 63.611 25.8587 63.611 26.2C63.611 26.328 63.6057 26.4773 63.595 26.648C63.595 26.8187 63.499 26.904 63.307 26.904C63.243 26.904 63.1843 26.8987 63.131 26.888C63.0883 26.8667 63.0457 26.8293 63.003 26.776C62.9923 26.7547 62.9657 26.696 62.923 26.6C62.8803 26.4933 62.8377 26.3867 62.795 26.28C62.7523 26.1627 62.7203 26.0827 62.699 26.04C62.411 25.3893 61.9897 24.8453 61.435 24.408C61.147 24.1733 60.779 23.9867 60.331 23.848C59.8937 23.7093 59.4883 23.64 59.115 23.64C58.4003 23.64 57.7923 23.816 57.291 24.168C56.7897 24.5093 56.3843 24.9573 56.075 25.512C55.7657 26.0667 55.5417 26.664 55.403 27.304C55.2643 27.944 55.195 28.5627 55.195 29.16C55.195 29.7893 55.2697 30.408 55.419 31.016C55.5683 31.624 55.7977 32.1733 56.107 32.664C56.427 33.1547 56.843 33.5493 57.355 33.848C57.867 34.136 58.4803 34.28 59.195 34.28C59.4083 34.28 59.6643 34.2587 59.963 34.216C60.2617 34.1733 60.5603 34.0987 60.859 33.992C61.1577 33.8853 61.403 33.7413 61.595 33.56C61.7977 33.3787 61.899 33.1493 61.899 32.872V30.76C61.899 30.5893 61.8137 30.4827 61.643 30.44C61.483 30.3867 61.3443 30.36 61.227 30.36C61.067 30.36 60.907 30.3707 60.747 30.392C60.587 30.4027 60.427 30.408 60.267 30.408C60.1817 30.408 60.123 30.3813 60.091 30.328C60.0697 30.2747 60.059 30.2107 60.059 30.136C60.059 30.072 60.0697 30.0133 60.091 29.96C60.1123 29.896 60.1657 29.864 60.251 29.864C60.4217 29.864 60.587 29.8693 60.747 29.88C60.907 29.88 61.0723 29.88 61.243 29.88H62.379C62.5603 29.88 62.7417 29.88 62.923 29.88C63.1043 29.88 63.2857 29.8747 63.467 29.864C63.6483 29.864 63.8243 29.8587 63.995 29.848C64.1657 29.8267 64.3363 29.816 64.507 29.816C64.571 29.816 64.619 29.848 64.651 29.912C64.683 29.9653 64.699 30.0187 64.699 30.072ZM78.063 23.464C78.063 23.5387 78.047 23.5973 78.015 23.64C77.9937 23.672 77.9403 23.688 77.855 23.688C77.7483 23.688 77.6417 23.688 77.535 23.688C77.4283 23.6773 77.3217 23.672 77.215 23.672C77.0977 23.672 76.9643 23.704 76.815 23.768C76.6657 23.832 76.591 23.9387 76.591 24.088V34.184C76.591 34.3333 76.6657 34.44 76.815 34.504C76.9643 34.568 77.0977 34.6 77.215 34.6C77.3323 34.6 77.4443 34.5947 77.551 34.584C77.6683 34.5733 77.7803 34.568 77.887 34.568C77.983 34.568 78.031 34.6213 78.031 34.728C78.031 34.76 78.031 34.792 78.031 34.824C78.031 34.8453 78.031 34.872 78.031 34.904C78.031 34.9787 77.9937 35.016 77.919 35.016C77.5457 35.016 77.167 35.0053 76.783 34.984C76.4097 34.9627 76.031 34.952 75.647 34.952C75.4337 34.952 75.215 34.9573 74.991 34.968C74.7777 34.9787 74.5643 34.9893 74.351 35C74.2123 35.0107 74.0737 35.0213 73.935 35.032C73.807 35.0427 73.6737 35.048 73.535 35.048C73.471 35.048 73.439 34.9947 73.439 34.888C73.439 34.8453 73.4443 34.7867 73.455 34.712C73.4657 34.6267 73.4977 34.584 73.551 34.584C73.6683 34.584 73.791 34.5893 73.919 34.6C74.047 34.6 74.1697 34.6 74.287 34.6C74.4043 34.6 74.543 34.568 74.703 34.504C74.863 34.44 74.943 34.3333 74.943 34.184V29.112H68.495V34.184C68.495 34.3333 68.5697 34.44 68.719 34.504C68.8683 34.568 69.0017 34.6 69.119 34.6C69.2363 34.6 69.3483 34.5947 69.455 34.584C69.5723 34.5733 69.6897 34.568 69.807 34.568C69.8817 34.568 69.9243 34.5947 69.935 34.648C69.9457 34.6587 69.951 34.6907 69.951 34.744C69.951 34.7867 69.951 34.8187 69.951 34.84C69.951 34.872 69.9403 34.92 69.919 34.984C69.8763 35.0053 69.8443 35.016 69.823 35.016C69.4497 35.016 69.0763 35.0053 68.703 34.984C68.3403 34.9627 67.9723 34.952 67.599 34.952C67.375 34.952 67.151 34.9573 66.927 34.968C66.7137 34.9787 66.5003 34.9893 66.287 35C66.1483 35.0107 66.015 35.0213 65.887 35.032C65.759 35.0427 65.6257 35.048 65.487 35.048C65.4123 35.048 65.3857 35.0213 65.407 34.968C65.3857 34.904 65.375 34.8667 65.375 34.856C65.375 34.8133 65.3803 34.76 65.391 34.696C65.4017 34.6213 65.439 34.584 65.503 34.584C65.6203 34.584 65.7377 34.5893 65.855 34.6C65.983 34.6 66.1057 34.6 66.223 34.6C66.351 34.6 66.4897 34.568 66.639 34.504C66.799 34.44 66.879 34.3333 66.879 34.184C66.879 33.2667 66.879 32.3493 66.879 31.432C66.8897 30.5147 66.895 29.6027 66.895 28.696C66.895 27.9387 66.8897 27.176 66.879 26.408C66.879 25.64 66.879 24.8773 66.879 24.12C66.879 23.9707 66.799 23.864 66.639 23.8C66.4897 23.736 66.351 23.704 66.223 23.704C66.1057 23.704 65.983 23.7093 65.855 23.72C65.7377 23.72 65.6203 23.72 65.503 23.72C65.4283 23.72 65.3857 23.6773 65.375 23.592C65.3643 23.5067 65.359 23.4427 65.359 23.4C65.359 23.304 65.4017 23.256 65.487 23.256C65.6257 23.256 65.759 23.2613 65.887 23.272C66.015 23.2827 66.1483 23.2933 66.287 23.304C66.5003 23.3147 66.7137 23.3253 66.927 23.336C67.151 23.3467 67.375 23.352 67.599 23.352C67.9723 23.352 68.3457 23.3413 68.719 23.32C69.103 23.2987 69.4817 23.288 69.855 23.288C69.9297 23.288 69.967 23.32 69.967 23.384C69.967 23.448 69.967 23.5067 69.967 23.56C69.967 23.6773 69.9137 23.736 69.807 23.736C69.6897 23.736 69.5723 23.7307 69.455 23.72C69.3483 23.7093 69.2363 23.704 69.119 23.704C69.0017 23.704 68.8683 23.736 68.719 23.8C68.5697 23.864 68.495 23.9707 68.495 24.12V28.584H74.943V24.248C74.943 24.0347 74.8843 23.8907 74.767 23.816C74.6497 23.7413 74.4897 23.704 74.287 23.704C74.1697 23.704 74.047 23.7093 73.919 23.72C73.791 23.72 73.6683 23.72 73.551 23.72C73.487 23.72 73.4497 23.688 73.439 23.624C73.439 23.5493 73.439 23.4907 73.439 23.448C73.439 23.32 73.4817 23.256 73.567 23.256C73.823 23.256 74.0843 23.2667 74.351 23.288C74.6283 23.3093 74.9003 23.32 75.167 23.32H75.647C76.031 23.32 76.4097 23.3093 76.783 23.288C77.167 23.2667 77.5457 23.256 77.919 23.256C77.9723 23.256 78.0097 23.2773 78.031 23.32C78.0523 23.3627 78.063 23.4107 78.063 23.464Z" fill="white"/>
</svg>
