<svg width="173" height="16" viewBox="0 0 173 16" fill="none" xmlns="http://www.w3.org/2000/svg">
<path d="M7.47203 3.39197C7.47203 2.45331 7.22669 1.81331 6.73603 1.47197C6.25603 1.11997 5.57869 0.943973 4.70403 0.943973H4.17603C4.06936 0.943973 3.93603 0.954639 3.77603 0.975972C3.62669 0.986639 3.48803 1.02397 3.36003 1.08797C3.24269 1.14131 3.18403 1.24264 3.18403 1.39197V5.83997C3.30136 5.88264 3.43469 5.90931 3.58403 5.91997C3.73336 5.93064 3.87203 5.93597 4.00003 5.93597C4.42669 5.93597 4.84269 5.89864 5.24803 5.82397C5.66403 5.74931 6.03736 5.62131 6.36803 5.43997C6.70936 5.25864 6.97603 5.00264 7.16803 4.67197C7.37069 4.34131 7.47203 3.91464 7.47203 3.39197ZM10.976 12.016C10.976 12.0906 10.9014 12.1493 10.752 12.192C10.6027 12.2346 10.4267 12.2613 10.224 12.272C10.0214 12.2933 9.82936 12.304 9.64803 12.304C9.47736 12.304 9.36003 12.304 9.29603 12.304C8.86936 12.304 8.52803 12.2613 8.27203 12.176C8.01603 12.08 7.76536 11.84 7.52003 11.456C6.99736 10.6133 6.49069 9.75997 6.00003 8.89597C5.52003 8.03197 5.04003 7.16264 4.56003 6.28797L3.18403 6.33597V11.408C3.18403 11.568 3.24803 11.6746 3.37603 11.728C3.50403 11.7813 3.63203 11.808 3.76003 11.808C3.90936 11.808 4.05336 11.8026 4.19203 11.792C4.33069 11.7813 4.46936 11.776 4.60803 11.776C4.68269 11.776 4.72536 11.808 4.73603 11.872C4.75736 11.936 4.76803 11.9946 4.76803 12.048C4.76803 12.1333 4.74136 12.192 4.68803 12.224C4.64536 12.2453 4.58669 12.256 4.51203 12.256C4.04269 12.256 3.56803 12.2506 3.08803 12.24C2.60803 12.2186 2.13336 12.208 1.66403 12.208C1.40803 12.208 1.15203 12.2186 0.896028 12.24C0.650695 12.2506 0.400028 12.256 0.144028 12.256C0.0800278 12.256 0.0373612 12.2293 0.0160278 12.176C0.00536117 12.112 2.78354e-05 12.0586 2.78354e-05 12.016C2.78354e-05 11.8773 0.0586945 11.808 0.176028 11.808C0.272028 11.808 0.362695 11.8133 0.448028 11.824C0.544028 11.824 0.634695 11.824 0.720028 11.824C0.880028 11.824 1.05069 11.808 1.23203 11.776C1.42403 11.7333 1.53069 11.6106 1.55203 11.408C1.57336 11.1413 1.57869 10.832 1.56803 10.48C1.56803 10.1173 1.56803 9.80264 1.56803 9.53597C1.56803 9.18397 1.56803 8.83197 1.56803 8.47997C1.56803 8.11731 1.56803 7.75997 1.56803 7.40797C1.56803 6.67197 1.56803 5.93597 1.56803 5.19997C1.57869 4.46397 1.58403 3.72797 1.58403 2.99197C1.58403 2.72531 1.58403 2.45864 1.58403 2.19197C1.58403 1.91464 1.57336 1.64797 1.55203 1.39197C1.53069 1.17864 1.41869 1.06131 1.21603 1.03997C1.02403 1.00797 0.848028 0.991972 0.688028 0.991972C0.624028 0.991972 0.560028 0.997305 0.496028 1.00797C0.432028 1.00797 0.368028 1.00797 0.304028 1.00797C0.144028 1.00797 0.0640278 0.917305 0.0640278 0.735972C0.0640278 0.618639 0.117361 0.559972 0.224028 0.559972C0.586695 0.559972 0.944028 0.570639 1.29603 0.591972C1.65869 0.613305 2.02136 0.623972 2.38403 0.623972C2.88536 0.623972 3.38136 0.602639 3.87203 0.559972C4.36269 0.517305 4.85336 0.495972 5.34403 0.495972C5.74936 0.495972 6.17603 0.538638 6.62403 0.623972C7.0827 0.709305 7.50936 0.847972 7.90403 1.03997C8.29869 1.23197 8.61869 1.49864 8.86403 1.83997C9.12003 2.17064 9.24803 2.59197 9.24803 3.10397C9.24803 3.74397 9.0667 4.29864 8.70403 4.76797C8.35203 5.22664 7.89336 5.58397 7.32803 5.83997C7.12536 5.93597 6.91736 6.01064 6.70403 6.06397C6.49069 6.10664 6.27736 6.14931 6.06403 6.19197C6.55469 7.02397 7.06669 7.84531 7.60003 8.65597C8.14403 9.46664 8.69336 10.2666 9.24803 11.056C9.40803 11.28 9.57336 11.4613 9.74403 11.6C9.92536 11.728 10.1494 11.8186 10.416 11.872C10.48 11.8826 10.5867 11.888 10.736 11.888C10.896 11.888 10.976 11.9306 10.976 12.016ZM16.7205 10.4C16.6779 9.91997 16.6512 9.43997 16.6405 8.95997C16.6405 8.46931 16.6352 7.97864 16.6245 7.48797H16.4005C16.0699 7.48797 15.7019 7.54131 15.2965 7.64797C14.9019 7.74397 14.5232 7.89331 14.1605 8.09597C13.7979 8.29864 13.4992 8.55464 13.2645 8.86397C13.0405 9.16264 12.9285 9.50931 12.9285 9.90397C12.9285 10.416 13.0725 10.8053 13.3605 11.072C13.6485 11.328 14.0379 11.456 14.5285 11.456C14.7632 11.456 15.0192 11.4026 15.2965 11.296C15.5739 11.1786 15.8405 11.04 16.0965 10.88C16.3525 10.72 16.5605 10.56 16.7205 10.4ZM19.5205 11.424C19.5205 11.4666 19.5152 11.4986 19.5045 11.52C19.3979 11.7546 19.2165 11.936 18.9605 12.064C18.7152 12.1813 18.4699 12.24 18.2245 12.24C17.7765 12.24 17.4512 12.112 17.2485 11.856C17.0565 11.5893 16.9019 11.264 16.7845 10.88C16.3792 11.2533 15.9312 11.568 15.4405 11.824C14.9499 12.0693 14.4219 12.192 13.8565 12.192C13.4619 12.192 13.0885 12.1173 12.7365 11.968C12.3952 11.808 12.1179 11.5786 11.9045 11.28C11.6912 10.9813 11.5845 10.6186 11.5845 10.192C11.5845 9.74397 11.6965 9.35997 11.9205 9.03997C12.1552 8.70931 12.4485 8.43197 12.8005 8.20797C13.1632 7.97331 13.5472 7.78664 13.9525 7.64797C14.3685 7.49864 14.7579 7.38664 15.1205 7.31197C15.3659 7.25864 15.6165 7.21064 15.8725 7.16797C16.1285 7.12531 16.3792 7.08264 16.6245 7.03997C16.6245 6.74131 16.6085 6.39464 16.5765 5.99997C16.5552 5.60531 16.4752 5.27997 16.3365 5.02397C16.1979 4.77864 16.0112 4.55997 15.7765 4.36797C15.5419 4.17597 15.2805 4.07997 14.9925 4.07997C14.5019 4.07997 14.1179 4.20797 13.8405 4.46397C13.5632 4.71997 13.3659 5.08264 13.2485 5.55197C13.2379 5.60531 13.2272 5.66397 13.2165 5.72797C13.2165 5.78131 13.2112 5.83464 13.2005 5.88797C13.1899 5.95197 13.1472 6.01064 13.0725 6.06397C13.0085 6.10664 12.9392 6.12797 12.8645 6.12797C12.6619 6.12797 12.4752 6.07997 12.3045 5.98397C12.1445 5.88797 12.0645 5.72797 12.0645 5.50397C12.0645 5.37597 12.0859 5.26397 12.1285 5.16797C12.2672 4.83731 12.4912 4.56531 12.8005 4.35197C13.1099 4.12797 13.4512 3.95731 13.8245 3.83997C14.2085 3.72264 14.5659 3.66397 14.8965 3.66397C15.4725 3.66397 15.9952 3.77064 16.4645 3.98397C16.9339 4.19731 17.3072 4.51197 17.5845 4.92797C17.8725 5.33331 18.0165 5.84531 18.0165 6.46397C18.0165 7.15731 18.0112 7.85597 18.0005 8.55997C18.0005 9.26397 18.0219 9.96797 18.0645 10.672C18.0752 10.9066 18.1232 11.1146 18.2085 11.296C18.2939 11.4666 18.4699 11.552 18.7365 11.552C18.8752 11.552 19.0192 11.52 19.1685 11.456C19.3285 11.3813 19.4299 11.344 19.4725 11.344C19.5045 11.344 19.5205 11.3706 19.5205 11.424ZM27.9677 10.32C27.9677 10.3626 27.957 10.4 27.9357 10.432C27.701 10.784 27.3917 11.0986 27.0077 11.376C26.6237 11.6533 26.2077 11.8773 25.7597 12.048C25.3223 12.208 24.8957 12.288 24.4797 12.288C24.405 12.288 24.3357 12.2826 24.2717 12.272C24.2077 12.272 24.1437 12.272 24.0797 12.272C23.973 12.4426 23.861 12.6026 23.7437 12.752C23.637 12.9013 23.5303 13.056 23.4237 13.216C23.5943 13.1946 23.7597 13.1786 23.9197 13.168C24.0903 13.1573 24.261 13.152 24.4317 13.152C24.6343 13.152 24.853 13.168 25.0877 13.2C25.333 13.2426 25.541 13.3226 25.7117 13.44C25.893 13.568 25.9837 13.76 25.9837 14.016C25.9837 14.2933 25.9037 14.512 25.7437 14.672C25.5943 14.832 25.4023 14.9493 25.1677 15.024C24.933 15.1093 24.6877 15.1626 24.4317 15.184C24.1757 15.2053 23.9463 15.216 23.7437 15.216C23.541 15.216 23.317 15.1786 23.0717 15.104C22.837 15.04 22.6237 14.96 22.4317 14.864C22.3677 14.832 22.2557 14.768 22.0957 14.672C21.9463 14.576 21.8717 14.4906 21.8717 14.416C21.8717 14.3306 21.909 14.288 21.9837 14.288C22.0157 14.288 22.0903 14.3093 22.2077 14.352C22.325 14.4053 22.405 14.4426 22.4477 14.464C22.6503 14.528 22.8583 14.5706 23.0717 14.592C23.2957 14.624 23.509 14.64 23.7117 14.64C23.829 14.64 23.9943 14.6186 24.2077 14.576C24.421 14.544 24.613 14.4853 24.7837 14.4C24.965 14.3146 25.0557 14.192 25.0557 14.032C25.0557 13.8933 24.9917 13.7866 24.8637 13.712C24.7463 13.6373 24.613 13.5786 24.4637 13.536C24.3143 13.504 24.1863 13.488 24.0797 13.488C23.8557 13.488 23.637 13.5146 23.4237 13.568C23.221 13.6213 23.013 13.6853 22.7997 13.76C22.917 13.4826 23.0397 13.216 23.1677 12.96C23.3063 12.704 23.4343 12.4426 23.5517 12.176C22.8903 12.0373 22.325 11.776 21.8557 11.392C21.3863 11.008 21.029 10.5333 20.7837 9.96797C20.5383 9.40264 20.4157 8.78931 20.4157 8.12797C20.4157 7.33864 20.5757 6.59731 20.8957 5.90397C21.2157 5.21064 21.717 4.65064 22.3997 4.22397C22.6983 4.04264 23.029 3.89864 23.3917 3.79197C23.7543 3.68531 24.1063 3.63197 24.4477 3.63197C24.853 3.63197 25.253 3.71731 25.6477 3.88797C25.829 3.96264 26.021 4.04797 26.2237 4.14397C26.4263 4.22931 26.6237 4.27197 26.8157 4.27197C26.901 4.27197 26.981 4.26131 27.0557 4.23997C27.1303 4.21864 27.205 4.20264 27.2797 4.19197C27.301 4.52264 27.3223 4.85864 27.3437 5.19997C27.365 5.54131 27.381 5.88264 27.3917 6.22397V6.27197C27.3917 6.39997 27.3757 6.49064 27.3437 6.54397C27.3223 6.58664 27.237 6.60797 27.0877 6.60797C27.013 6.60797 26.965 6.57064 26.9437 6.49597C26.9223 6.42131 26.901 6.35197 26.8797 6.28797C26.805 5.97864 26.6877 5.65864 26.5277 5.32797C26.3783 4.98664 26.181 4.70931 25.9357 4.49597C25.7757 4.34664 25.5783 4.22397 25.3437 4.12797C25.109 4.03197 24.885 3.98397 24.6717 3.98397C24.1597 3.98397 23.7277 4.11731 23.3757 4.38397C23.0237 4.63997 22.7357 4.97597 22.5117 5.39197C22.2983 5.79731 22.1437 6.23464 22.0477 6.70397C21.9517 7.17331 21.9037 7.61597 21.9037 8.03197C21.9037 8.44797 21.9517 8.86931 22.0477 9.29597C22.1437 9.72264 22.293 10.1226 22.4957 10.496C22.709 10.8586 22.9863 11.152 23.3277 11.376C23.669 11.6 24.085 11.712 24.5757 11.712C25.2157 11.712 25.7543 11.6053 26.1917 11.392C26.6397 11.168 27.0717 10.8213 27.4877 10.352C27.5197 10.3306 27.541 10.2986 27.5517 10.256C27.573 10.2133 27.605 10.1813 27.6477 10.16C27.669 10.1386 27.7117 10.128 27.7757 10.128C27.9037 10.128 27.9677 10.192 27.9677 10.32ZM34.0643 10.4C34.0216 9.91997 33.9949 9.43997 33.9843 8.95997C33.9843 8.46931 33.9789 7.97864 33.9683 7.48797H33.7443C33.4136 7.48797 33.0456 7.54131 32.6403 7.64797C32.2456 7.74397 31.8669 7.89331 31.5043 8.09597C31.1416 8.29864 30.8429 8.55464 30.6083 8.86397C30.3843 9.16264 30.2723 9.50931 30.2723 9.90397C30.2723 10.416 30.4163 10.8053 30.7043 11.072C30.9923 11.328 31.3816 11.456 31.8723 11.456C32.1069 11.456 32.3629 11.4026 32.6403 11.296C32.9176 11.1786 33.1843 11.04 33.4403 10.88C33.6963 10.72 33.9043 10.56 34.0643 10.4ZM36.8643 11.424C36.8643 11.4666 36.8589 11.4986 36.8483 11.52C36.7416 11.7546 36.5603 11.936 36.3043 12.064C36.0589 12.1813 35.8136 12.24 35.5683 12.24C35.1203 12.24 34.7949 12.112 34.5923 11.856C34.4003 11.5893 34.2456 11.264 34.1283 10.88C33.7229 11.2533 33.2749 11.568 32.7843 11.824C32.2936 12.0693 31.7656 12.192 31.2003 12.192C30.8056 12.192 30.4323 12.1173 30.0803 11.968C29.7389 11.808 29.4616 11.5786 29.2483 11.28C29.0349 10.9813 28.9283 10.6186 28.9283 10.192C28.9283 9.74397 29.0403 9.35997 29.2643 9.03997C29.4989 8.70931 29.7923 8.43197 30.1443 8.20797C30.5069 7.97331 30.8909 7.78664 31.2963 7.64797C31.7123 7.49864 32.1016 7.38664 32.4643 7.31197C32.7096 7.25864 32.9603 7.21064 33.2163 7.16797C33.4723 7.12531 33.7229 7.08264 33.9683 7.03997C33.9683 6.74131 33.9523 6.39464 33.9203 5.99997C33.8989 5.60531 33.8189 5.27997 33.6803 5.02397C33.5416 4.77864 33.3549 4.55997 33.1203 4.36797C32.8856 4.17597 32.6243 4.07997 32.3363 4.07997C31.8456 4.07997 31.4616 4.20797 31.1843 4.46397C30.9069 4.71997 30.7096 5.08264 30.5923 5.55197C30.5816 5.60531 30.5709 5.66397 30.5603 5.72797C30.5603 5.78131 30.5549 5.83464 30.5443 5.88797C30.5336 5.95197 30.4909 6.01064 30.4163 6.06397C30.3523 6.10664 30.2829 6.12797 30.2083 6.12797C30.0056 6.12797 29.8189 6.07997 29.6483 5.98397C29.4883 5.88797 29.4083 5.72797 29.4083 5.50397C29.4083 5.37597 29.4296 5.26397 29.4723 5.16797C29.6109 4.83731 29.8349 4.56531 30.1443 4.35197C30.4536 4.12797 30.7949 3.95731 31.1683 3.83997C31.5523 3.72264 31.9096 3.66397 32.2403 3.66397C32.8163 3.66397 33.3389 3.77064 33.8083 3.98397C34.2776 4.19731 34.6509 4.51197 34.9283 4.92797C35.2163 5.33331 35.3603 5.84531 35.3603 6.46397C35.3603 7.15731 35.3549 7.85597 35.3443 8.55997C35.3443 9.26397 35.3656 9.96797 35.4083 10.672C35.4189 10.9066 35.4669 11.1146 35.5523 11.296C35.6376 11.4666 35.8136 11.552 36.0803 11.552C36.2189 11.552 36.3629 11.52 36.5123 11.456C36.6723 11.3813 36.7736 11.344 36.8163 11.344C36.8483 11.344 36.8643 11.3706 36.8643 11.424ZM35.1043 0.735972C34.9549 0.885306 34.8109 1.04531 34.6723 1.21597C34.5336 1.38664 34.3789 1.53064 34.2083 1.64797C34.0483 1.75464 33.8456 1.80797 33.6003 1.80797C33.3443 1.80797 33.1043 1.74931 32.8803 1.63197C32.6563 1.51464 32.4376 1.39731 32.2243 1.27997C32.0216 1.16264 31.7976 1.10397 31.5523 1.10397C31.3176 1.10397 31.1149 1.17864 30.9443 1.32797C30.7736 1.47731 30.6189 1.63197 30.4803 1.79197L30.1443 1.58397C30.2829 1.39197 30.4269 1.19464 30.5763 0.991972C30.7363 0.789305 30.9123 0.618639 31.1043 0.479972C31.3069 0.341305 31.5416 0.271972 31.8083 0.271972C32.0643 0.271972 32.2989 0.330639 32.5123 0.447972C32.7363 0.554639 32.9549 0.666639 33.1683 0.783972C33.3923 0.901306 33.6269 0.959972 33.8723 0.959972C34.0536 0.959972 34.2243 0.901306 34.3843 0.783972C34.5443 0.666639 34.6776 0.538639 34.7843 0.399972L35.1043 0.735972ZM44.5114 8.04797C44.5114 7.58931 44.4741 7.13064 44.3994 6.67197C44.3354 6.20264 44.2074 5.77064 44.0154 5.37597C43.8341 4.98131 43.5674 4.66664 43.2154 4.43197C42.8634 4.18664 42.4047 4.06397 41.8394 4.06397C41.3061 4.06397 40.8687 4.19197 40.5274 4.44797C40.1967 4.70397 39.9354 5.03464 39.7434 5.43997C39.5621 5.84531 39.4341 6.28264 39.3594 6.75197C39.2954 7.22131 39.2634 7.66397 39.2634 8.07997C39.2634 8.53864 39.2954 8.99731 39.3594 9.45597C39.4341 9.91464 39.5674 10.3306 39.7594 10.704C39.9514 11.0666 40.2234 11.36 40.5754 11.584C40.9381 11.808 41.4021 11.92 41.9674 11.92C42.5221 11.92 42.9647 11.8026 43.2954 11.568C43.6367 11.3333 43.8927 11.024 44.0634 10.64C44.2447 10.256 44.3621 9.83997 44.4154 9.39197C44.4794 8.93331 44.5114 8.48531 44.5114 8.04797ZM46.1594 8.09597C46.1594 8.89597 45.9674 9.61597 45.5834 10.256C45.2101 10.896 44.6981 11.4026 44.0474 11.776C43.4074 12.1493 42.6874 12.336 41.8874 12.336C41.1087 12.336 40.4047 12.1493 39.7754 11.776C39.1461 11.392 38.6447 10.8853 38.2714 10.256C37.8981 9.61597 37.7114 8.90664 37.7114 8.12797C37.7114 7.32797 37.8927 6.59197 38.2554 5.91997C38.6181 5.23731 39.1141 4.68797 39.7434 4.27197C40.3834 3.85597 41.1194 3.64797 41.9514 3.64797C42.8474 3.64797 43.6101 3.83997 44.2394 4.22397C44.8687 4.59731 45.3434 5.11997 45.6634 5.79197C45.9941 6.45331 46.1594 7.22131 46.1594 8.09597ZM63.1053 7.34397C63.1053 7.40797 63.0893 7.46664 63.0573 7.51997C63.0253 7.57331 62.9719 7.59997 62.8973 7.59997H61.9053V11.024C61.1586 11.28 60.4173 11.5626 59.6813 11.872C59.3293 12.0213 58.9559 12.1173 58.5613 12.16C58.1773 12.2026 57.7986 12.224 57.4253 12.224C57.1053 12.224 56.7479 12.1866 56.3533 12.112C55.9586 12.0373 55.5746 11.9306 55.2013 11.792C54.8386 11.6533 54.5186 11.4933 54.2413 11.312C53.4306 10.768 52.8279 10.064 52.4333 9.19997C52.0493 8.33597 51.8573 7.41864 51.8573 6.44797C51.8573 5.62664 51.9853 4.85331 52.2413 4.12797C52.5079 3.40264 52.8866 2.76264 53.3773 2.20797C53.8679 1.65331 54.4546 1.22131 55.1373 0.911972C55.8306 0.591972 56.6039 0.431973 57.4573 0.431973C58.0866 0.431973 58.6893 0.517306 59.2653 0.687972C59.3613 0.719972 59.5159 0.767972 59.7293 0.831972C59.9426 0.895972 60.1559 0.959972 60.3693 1.02397C60.5826 1.07731 60.7266 1.10397 60.8013 1.10397C61.0253 1.10397 61.1799 1.07731 61.2653 1.02397C61.3506 0.959972 61.4146 0.890639 61.4573 0.815972C61.5106 0.741305 61.5853 0.682638 61.6813 0.639972H61.8093C61.8946 0.639972 61.9426 0.687972 61.9533 0.783972C61.9746 0.890639 61.9799 1.00264 61.9693 1.11997C61.9693 1.23731 61.9693 1.35464 61.9693 1.47197C61.9693 1.80264 61.9746 2.13331 61.9853 2.46397C62.0066 2.79464 62.0173 3.13064 62.0173 3.47197C62.0173 3.59997 62.0119 3.74931 62.0013 3.91997C62.0013 4.09064 61.9053 4.17597 61.7133 4.17597C61.6493 4.17597 61.5906 4.17064 61.5373 4.15997C61.4946 4.13864 61.4519 4.10131 61.4093 4.04797C61.3986 4.02664 61.3719 3.96797 61.3293 3.87197C61.2866 3.76531 61.2439 3.65864 61.2013 3.55197C61.1586 3.43464 61.1266 3.35464 61.1053 3.31197C60.8173 2.66131 60.3959 2.11731 59.8413 1.67997C59.5533 1.44531 59.1853 1.25864 58.7373 1.11997C58.2999 0.981305 57.8946 0.911972 57.5213 0.911972C56.8066 0.911972 56.1986 1.08797 55.6973 1.43997C55.1959 1.78131 54.7906 2.22931 54.4813 2.78397C54.1719 3.33864 53.9479 3.93597 53.8093 4.57597C53.6706 5.21597 53.6013 5.83464 53.6013 6.43197C53.6013 7.06131 53.6759 7.67997 53.8253 8.28797C53.9746 8.89597 54.2039 9.44531 54.5133 9.93597C54.8333 10.4266 55.2493 10.8213 55.7613 11.12C56.2733 11.408 56.8866 11.552 57.6013 11.552C57.8146 11.552 58.0706 11.5306 58.3693 11.488C58.6679 11.4453 58.9666 11.3706 59.2653 11.264C59.5639 11.1573 59.8093 11.0133 60.0013 10.832C60.2039 10.6506 60.3053 10.4213 60.3053 10.144V8.03197C60.3053 7.86131 60.2199 7.75464 60.0493 7.71197C59.8893 7.65864 59.7506 7.63197 59.6333 7.63197C59.4733 7.63197 59.3133 7.64264 59.1533 7.66397C58.9933 7.67464 58.8333 7.67997 58.6733 7.67997C58.5879 7.67997 58.5293 7.65331 58.4973 7.59997C58.4759 7.54664 58.4653 7.48264 58.4653 7.40797C58.4653 7.34397 58.4759 7.28531 58.4973 7.23197C58.5186 7.16797 58.5719 7.13597 58.6573 7.13597C58.8279 7.13597 58.9933 7.14131 59.1533 7.15197C59.3133 7.15197 59.4786 7.15197 59.6493 7.15197H60.7853C60.9666 7.15197 61.1479 7.15197 61.3293 7.15197C61.5106 7.15197 61.6919 7.14664 61.8733 7.13597C62.0546 7.13597 62.2306 7.13064 62.4013 7.11997C62.5719 7.09864 62.7426 7.08797 62.9133 7.08797C62.9773 7.08797 63.0253 7.11997 63.0573 7.18397C63.0893 7.23731 63.1053 7.29064 63.1053 7.34397ZM70.3573 5.15197C70.3573 5.25864 70.3146 5.35997 70.2293 5.45597C70.1546 5.54131 70.0586 5.58397 69.9413 5.58397C69.7813 5.58397 69.6639 5.53064 69.5893 5.42397C69.5253 5.31731 69.4666 5.19464 69.4133 5.05597C69.3706 4.91731 69.3013 4.79464 69.2053 4.68797C69.1093 4.58131 68.9493 4.52797 68.7253 4.52797C68.6826 4.52797 68.6399 4.52797 68.5973 4.52797C68.5653 4.52797 68.5279 4.53331 68.4853 4.54397C68.3039 4.57597 68.1066 4.68797 67.8933 4.87997C67.6799 5.07197 67.4719 5.30131 67.2693 5.56797C67.0773 5.82397 66.9173 6.07997 66.7893 6.33597C66.6613 6.59197 66.5919 6.80531 66.5813 6.97597C66.5706 7.14664 66.5653 7.31731 66.5653 7.48797C66.5653 7.64797 66.5653 7.80797 66.5653 7.96797C66.5653 8.54397 66.5653 9.11997 66.5653 9.69597C66.5759 10.272 66.5813 10.8426 66.5813 11.408C66.5813 11.568 66.6453 11.6853 66.7733 11.76C66.9119 11.824 67.0506 11.856 67.1893 11.856C67.2959 11.856 67.4026 11.8506 67.5093 11.84C67.6159 11.8293 67.7226 11.824 67.8293 11.824C67.8826 11.824 67.9199 11.8506 67.9413 11.904C67.9626 11.9466 67.9733 11.9893 67.9733 12.032C67.9733 12.2026 67.8879 12.288 67.7173 12.288C67.3973 12.288 67.0773 12.2826 66.7573 12.272C66.4373 12.2506 66.1173 12.24 65.7973 12.24C65.4666 12.24 65.1306 12.2506 64.7893 12.272C64.4586 12.2933 64.1226 12.304 63.7813 12.304C63.7386 12.304 63.7066 12.272 63.6853 12.208C63.6746 12.144 63.6693 12.0906 63.6693 12.048C63.6693 11.9413 63.7119 11.8826 63.7973 11.872C63.9146 11.8506 64.0373 11.8453 64.1653 11.856C64.2933 11.8666 64.4106 11.872 64.5173 11.872C64.6773 11.872 64.8053 11.84 64.9013 11.776C65.0079 11.7013 65.0666 11.5786 65.0773 11.408C65.0986 11.0666 65.1093 10.72 65.1093 10.368C65.1199 10.016 65.1253 9.66397 65.1253 9.31197V7.75997C65.1146 7.30131 65.1093 6.84797 65.1093 6.39997C65.1199 5.94131 65.1039 5.48797 65.0613 5.03997C65.0506 4.82664 64.9919 4.67731 64.8853 4.59197C64.7786 4.49597 64.6186 4.44797 64.4053 4.44797C64.3199 4.44797 64.2293 4.45864 64.1333 4.47997C64.0479 4.49064 63.9573 4.49597 63.8613 4.49597C63.7759 4.49597 63.7333 4.43197 63.7333 4.30397C63.7333 4.22931 63.7706 4.17597 63.8453 4.14397C63.9519 4.11197 64.0639 4.09064 64.1813 4.07997C64.2986 4.05864 64.4106 4.04264 64.5173 4.03197C64.8053 3.97864 65.0933 3.92531 65.3813 3.87197C65.6693 3.81864 65.9573 3.75464 66.2453 3.67997C66.3413 3.71197 66.4106 3.77064 66.4533 3.85597C66.4746 3.89864 66.4906 4.01597 66.5013 4.20797C66.5119 4.39997 66.5173 4.62397 66.5173 4.87997C66.5173 5.12531 66.5173 5.35997 66.5173 5.58397C66.5173 5.79731 66.5173 5.94664 66.5173 6.03197C66.7519 5.65864 67.0186 5.28531 67.3173 4.91197C67.6159 4.53864 67.9573 4.22931 68.3413 3.98397C68.7253 3.73864 69.1573 3.61597 69.6373 3.61597C69.8933 3.61597 70.0586 3.69597 70.1333 3.85597C70.2079 4.01597 70.2559 4.20264 70.2773 4.41597C70.2986 4.53331 70.3146 4.65597 70.3253 4.78397C70.3466 4.91197 70.3573 5.03464 70.3573 5.15197ZM76.2987 10.4C76.256 9.91997 76.2293 9.43997 76.2187 8.95997C76.2187 8.46931 76.2133 7.97864 76.2027 7.48797H75.9787C75.648 7.48797 75.28 7.54131 74.8747 7.64797C74.48 7.74397 74.1013 7.89331 73.7387 8.09597C73.376 8.29864 73.0773 8.55464 72.8427 8.86397C72.6187 9.16264 72.5067 9.50931 72.5067 9.90397C72.5067 10.416 72.6507 10.8053 72.9387 11.072C73.2267 11.328 73.616 11.456 74.1067 11.456C74.3413 11.456 74.5973 11.4026 74.8747 11.296C75.152 11.1786 75.4187 11.04 75.6747 10.88C75.9307 10.72 76.1387 10.56 76.2987 10.4ZM79.0987 11.424C79.0987 11.4666 79.0933 11.4986 79.0827 11.52C78.976 11.7546 78.7947 11.936 78.5387 12.064C78.2933 12.1813 78.048 12.24 77.8027 12.24C77.3547 12.24 77.0293 12.112 76.8267 11.856C76.6347 11.5893 76.48 11.264 76.3627 10.88C75.9573 11.2533 75.5093 11.568 75.0187 11.824C74.528 12.0693 74 12.192 73.4347 12.192C73.04 12.192 72.6667 12.1173 72.3147 11.968C71.9733 11.808 71.696 11.5786 71.4827 11.28C71.2693 10.9813 71.1627 10.6186 71.1627 10.192C71.1627 9.74397 71.2747 9.35997 71.4987 9.03997C71.7333 8.70931 72.0267 8.43197 72.3787 8.20797C72.7413 7.97331 73.1253 7.78664 73.5307 7.64797C73.9467 7.49864 74.336 7.38664 74.6987 7.31197C74.944 7.25864 75.1947 7.21064 75.4507 7.16797C75.7067 7.12531 75.9573 7.08264 76.2027 7.03997C76.2027 6.74131 76.1867 6.39464 76.1547 5.99997C76.1333 5.60531 76.0533 5.27997 75.9147 5.02397C75.776 4.77864 75.5893 4.55997 75.3547 4.36797C75.12 4.17597 74.8587 4.07997 74.5707 4.07997C74.08 4.07997 73.696 4.20797 73.4187 4.46397C73.1413 4.71997 72.944 5.08264 72.8267 5.55197C72.816 5.60531 72.8053 5.66397 72.7947 5.72797C72.7947 5.78131 72.7893 5.83464 72.7787 5.88797C72.768 5.95197 72.7253 6.01064 72.6507 6.06397C72.5867 6.10664 72.5173 6.12797 72.4427 6.12797C72.24 6.12797 72.0533 6.07997 71.8827 5.98397C71.7227 5.88797 71.6427 5.72797 71.6427 5.50397C71.6427 5.37597 71.664 5.26397 71.7067 5.16797C71.8453 4.83731 72.0693 4.56531 72.3787 4.35197C72.688 4.12797 73.0293 3.95731 73.4027 3.83997C73.7867 3.72264 74.144 3.66397 74.4747 3.66397C75.0507 3.66397 75.5733 3.77064 76.0427 3.98397C76.512 4.19731 76.8853 4.51197 77.1627 4.92797C77.4507 5.33331 77.5947 5.84531 77.5947 6.46397C77.5947 7.15731 77.5893 7.85597 77.5787 8.55997C77.5787 9.26397 77.6 9.96797 77.6427 10.672C77.6533 10.9066 77.7013 11.1146 77.7867 11.296C77.872 11.4666 78.048 11.552 78.3147 11.552C78.4533 11.552 78.5973 11.52 78.7467 11.456C78.9067 11.3813 79.008 11.344 79.0507 11.344C79.0827 11.344 79.0987 11.3706 79.0987 11.424ZM89.0818 12.032C89.0818 12.1706 89.0018 12.24 88.8418 12.24C88.6071 12.24 88.3671 12.2346 88.1218 12.224C87.8764 12.2026 87.6311 12.192 87.3858 12.192C87.0231 12.192 86.6498 12.2026 86.2658 12.224C85.8924 12.2346 85.5191 12.24 85.1458 12.24C85.1031 12.24 85.0764 12.208 85.0658 12.144C85.0551 12.0693 85.0498 12.0106 85.0498 11.968C85.0498 11.8826 85.1031 11.84 85.2098 11.84C85.3164 11.84 85.4018 11.84 85.4658 11.84C85.5191 11.84 85.5724 11.8453 85.6258 11.856C85.6898 11.856 85.7484 11.856 85.8018 11.856C86.1111 11.856 86.2818 11.7013 86.3138 11.392C86.3458 10.7626 86.3564 10.128 86.3458 9.48797C86.3458 8.84797 86.3458 8.21331 86.3458 7.58397C86.3458 7.46664 86.3458 7.34931 86.3458 7.23197C86.3458 7.10397 86.3458 6.98131 86.3458 6.86397C86.3351 6.61864 86.3191 6.31997 86.2978 5.96797C86.2764 5.60531 86.2284 5.31197 86.1538 5.08797C85.9831 4.53331 85.6098 4.25597 85.0338 4.25597C84.5111 4.25597 84.0311 4.38931 83.5938 4.65597C83.1564 4.92264 82.7778 5.25864 82.4578 5.66397C82.4471 6.44264 82.4418 7.21597 82.4418 7.98397C82.4418 8.75197 82.4418 9.51997 82.4418 10.288V11.392C82.4418 11.552 82.5111 11.6693 82.6498 11.744C82.7884 11.8186 82.9271 11.856 83.0658 11.856C83.1511 11.856 83.2311 11.8506 83.3058 11.84C83.3911 11.8186 83.4711 11.808 83.5458 11.808C83.5884 11.808 83.6151 11.8346 83.6258 11.888C83.6364 11.9413 83.6418 11.984 83.6418 12.016C83.6418 12.0586 83.6258 12.1066 83.5938 12.16C83.5724 12.2133 83.5298 12.24 83.4658 12.24C83.2311 12.24 82.9964 12.2346 82.7618 12.224C82.5378 12.2026 82.3084 12.192 82.0738 12.192C81.7111 12.192 81.3484 12.2026 80.9858 12.224C80.6231 12.2346 80.2551 12.24 79.8818 12.24C79.8284 12.24 79.7964 12.208 79.7858 12.144C79.7858 12.0693 79.7858 12.0106 79.7858 11.968C79.7858 11.8826 79.8338 11.84 79.9298 11.84C80.0258 11.84 80.1004 11.84 80.1538 11.84C80.2071 11.84 80.2604 11.8453 80.3138 11.856C80.3671 11.856 80.4204 11.856 80.4738 11.856C80.7831 11.856 80.9538 11.7013 80.9858 11.392C80.9964 11.2426 81.0018 11.0933 81.0018 10.944C81.0018 10.7946 81.0018 10.6453 81.0018 10.496C81.0018 9.57864 81.0018 8.66131 81.0018 7.74397C81.0018 6.81597 80.9964 5.89331 80.9858 4.97597C80.9858 4.82664 80.9538 4.67731 80.8898 4.52797C80.8258 4.37864 80.7031 4.30397 80.5218 4.30397C80.3831 4.30397 80.2498 4.32531 80.1218 4.36797C79.9938 4.41064 79.8604 4.43197 79.7218 4.43197C79.6471 4.43197 79.6098 4.37864 79.6098 4.27197C79.6098 4.25064 79.6098 4.22931 79.6098 4.20797C79.6204 4.17597 79.6311 4.15464 79.6418 4.14397C79.6524 4.13331 79.6684 4.12797 79.6898 4.12797C79.7111 4.11731 79.7271 4.10664 79.7378 4.09597C79.9298 4.04264 80.1271 4.00531 80.3298 3.98397C80.5431 3.96264 80.7458 3.93064 80.9378 3.88797C81.1191 3.85597 81.2951 3.81331 81.4658 3.75997C81.6364 3.69597 81.8071 3.66397 81.9778 3.66397C82.0524 3.66397 82.1111 3.70131 82.1538 3.77597C82.2071 3.87197 82.2498 4.01064 82.2818 4.19197C82.3138 4.36264 82.3351 4.53864 82.3458 4.71997C82.3671 4.90131 82.3778 5.05064 82.3778 5.16797C82.6124 4.93331 82.8898 4.70397 83.2098 4.47997C83.5404 4.24531 83.8818 4.05331 84.2338 3.90397C84.5964 3.74397 84.9484 3.66397 85.2898 3.66397C86.2711 3.66397 86.9324 3.88264 87.2738 4.31997C87.6258 4.74664 87.8018 5.42397 87.8018 6.35197C87.8018 7.18397 87.7964 8.01597 87.7858 8.84797C87.7858 9.67997 87.7858 10.512 87.7858 11.344C87.7858 11.5466 87.8444 11.6853 87.9618 11.76C88.0898 11.824 88.2391 11.856 88.4098 11.856C88.4951 11.856 88.5804 11.8506 88.6658 11.84C88.7511 11.8186 88.8311 11.808 88.9058 11.808C88.9698 11.808 89.0124 11.8346 89.0338 11.888C89.0658 11.9306 89.0818 11.9786 89.0818 12.032ZM101.415 3.43997C101.415 2.58664 101.148 1.96797 100.615 1.58397C100.092 1.18931 99.4365 0.991972 98.6472 0.991972C98.4338 0.991972 98.2152 0.997305 97.9912 1.00797C97.7672 1.00797 97.5432 1.00797 97.3192 1.00797C97.2125 1.00797 97.1058 1.03997 96.9992 1.10397C96.8925 1.16797 96.8392 1.25864 96.8392 1.37597V5.91997C97.0738 6.09064 97.3618 6.19197 97.7032 6.22397C98.0445 6.25597 98.3485 6.27197 98.6152 6.27197C99.5325 6.27197 100.226 6.02664 100.695 5.53597C101.175 5.04531 101.415 4.34664 101.415 3.43997ZM103.175 3.39197C103.175 4.08531 103.042 4.65064 102.775 5.08797C102.519 5.52531 102.172 5.86664 101.735 6.11197C101.298 6.35731 100.802 6.52797 100.247 6.62397C99.7032 6.70931 99.1432 6.75197 98.5672 6.75197C98.2792 6.75197 97.9912 6.73597 97.7032 6.70397C97.4152 6.67197 97.1325 6.63464 96.8552 6.59197V11.376C96.8552 11.536 96.9245 11.6426 97.0632 11.696C97.2018 11.7493 97.3565 11.776 97.5272 11.776C97.6978 11.776 97.8365 11.776 97.9432 11.776C98.0072 11.776 98.0712 11.776 98.1352 11.776C98.2098 11.7653 98.2792 11.76 98.3432 11.76C98.4392 11.76 98.4872 11.8026 98.4872 11.888C98.4872 12.0266 98.4765 12.1226 98.4552 12.176C98.4338 12.2186 98.3485 12.24 98.1992 12.24C97.8365 12.24 97.4792 12.2293 97.1272 12.208C96.7752 12.1866 96.4232 12.176 96.0712 12.176C95.7085 12.176 95.3405 12.192 94.9672 12.224C94.6045 12.2453 94.2418 12.256 93.8792 12.256C93.7725 12.256 93.7192 12.1866 93.7192 12.048C93.7192 11.984 93.7298 11.9253 93.7512 11.872C93.7725 11.8186 93.8258 11.792 93.9112 11.792C94.0392 11.792 94.1672 11.7973 94.2952 11.808C94.4232 11.808 94.5512 11.808 94.6792 11.808C94.8072 11.808 94.9192 11.776 95.0152 11.712C95.1218 11.648 95.1805 11.5466 95.1912 11.408C95.2125 11.216 95.2178 11.024 95.2072 10.832C95.2072 10.6293 95.2072 10.432 95.2072 10.24C95.2072 9.85597 95.2072 9.47197 95.2072 9.08797C95.2072 8.69331 95.2072 8.30397 95.2072 7.91997V5.11997C95.2072 4.49064 95.2018 3.86664 95.1912 3.24797C95.1912 2.61864 95.1912 1.99464 95.1912 1.37597C95.1912 1.18397 95.0952 1.07197 94.9032 1.03997C94.7218 0.997306 94.5618 0.975972 94.4232 0.975972C94.3272 0.975972 94.2312 0.981305 94.1352 0.991972C94.0392 0.991972 93.9485 0.991972 93.8632 0.991972C93.7885 0.991972 93.7458 0.959972 93.7352 0.895972C93.7352 0.821305 93.7352 0.762638 93.7352 0.719972C93.7352 0.677306 93.7458 0.639972 93.7672 0.607972C93.7885 0.565305 93.8205 0.543972 93.8632 0.543972C94.2152 0.543972 94.5672 0.554639 94.9192 0.575973C95.2712 0.597306 95.6285 0.607972 95.9912 0.607972C96.5458 0.607972 97.1005 0.597306 97.6552 0.575973C98.2098 0.554639 98.7645 0.543972 99.3192 0.543972C99.7672 0.543972 100.215 0.591972 100.663 0.687972C101.122 0.783972 101.538 0.943972 101.911 1.16797C102.295 1.39197 102.599 1.68531 102.823 2.04797C103.058 2.41064 103.175 2.85864 103.175 3.39197ZM108.344 12.064C108.344 12.1173 108.328 12.1706 108.296 12.224C108.274 12.2666 108.232 12.288 108.168 12.288C107.837 12.288 107.501 12.2826 107.16 12.272C106.818 12.2506 106.477 12.24 106.136 12.24H105.576C105.352 12.24 105.128 12.2506 104.904 12.272C104.68 12.2826 104.456 12.288 104.232 12.288C104.189 12.288 104.157 12.272 104.136 12.24C104.125 12.1973 104.12 12.16 104.12 12.128C104.12 12.096 104.12 12.064 104.12 12.032C104.12 12 104.125 11.968 104.136 11.936C104.157 11.8933 104.216 11.872 104.312 11.872C104.418 11.8613 104.525 11.8613 104.632 11.872C104.749 11.872 104.824 11.872 104.856 11.872C105.005 11.872 105.138 11.84 105.256 11.776C105.373 11.7013 105.432 11.5786 105.432 11.408C105.432 10.5866 105.437 9.77064 105.448 8.95997C105.458 8.13864 105.464 7.32264 105.464 6.51197C105.464 5.67997 105.458 4.84797 105.448 4.01597C105.448 3.17331 105.448 2.33597 105.448 1.50397C105.448 1.42931 105.442 1.34931 105.432 1.26397C105.421 1.16797 105.389 1.09331 105.336 1.03997C105.293 0.986639 105.25 0.959972 105.208 0.959972C105.165 0.949306 105.112 0.943973 105.048 0.943973C104.856 0.943973 104.664 0.975972 104.472 1.03997C104.29 1.10397 104.109 1.13597 103.928 1.13597C103.81 1.13597 103.752 1.06664 103.752 0.927972C103.752 0.842639 103.816 0.783972 103.944 0.751972C104.082 0.719972 104.189 0.698639 104.264 0.687972C104.637 0.602639 105.042 0.506639 105.48 0.399972C105.917 0.293305 106.312 0.170639 106.664 0.0319719C106.685 0.0319719 106.706 0.0266387 106.728 0.0159721C106.749 0.00530561 106.765 -2.76566e-05 106.776 -2.76566e-05C106.84 -2.76566e-05 106.877 0.0213057 106.888 0.0639725C106.909 0.106639 106.92 0.154639 106.92 0.207973C106.92 0.506639 106.914 0.805306 106.904 1.10397C106.904 1.39197 106.904 1.68531 106.904 1.98397V6.46397C106.904 7.28531 106.909 8.11197 106.92 8.94397C106.93 9.76531 106.936 10.5866 106.936 11.408C106.936 11.5786 107.005 11.7013 107.144 11.776C107.293 11.84 107.437 11.872 107.576 11.872C107.693 11.872 107.805 11.8666 107.912 11.856C108.018 11.8453 108.125 11.84 108.232 11.84C108.285 11.84 108.317 11.872 108.328 11.936C108.338 11.9893 108.344 12.032 108.344 12.064ZM118.723 11.84C118.723 11.968 118.627 12.064 118.435 12.128C118.253 12.192 118.051 12.2346 117.827 12.256C117.603 12.2773 117.443 12.288 117.347 12.288C116.984 12.288 116.696 12.144 116.483 11.856C116.269 11.568 116.109 11.2693 116.003 10.96C115.64 11.4186 115.187 11.76 114.643 11.984C114.099 12.208 113.533 12.32 112.947 12.32C111.987 12.32 111.32 12.0746 110.947 11.584C110.584 11.0826 110.403 10.3786 110.403 9.47197C110.403 8.67197 110.403 7.87197 110.403 7.07197C110.413 6.26131 110.424 5.45597 110.435 4.65597C110.435 4.33597 110.28 4.17597 109.971 4.17597C109.885 4.17597 109.8 4.18131 109.715 4.19197C109.629 4.20264 109.544 4.20797 109.459 4.20797C109.427 4.20797 109.4 4.19197 109.379 4.15997C109.368 4.11731 109.363 4.08531 109.363 4.06397C109.363 3.94664 109.416 3.88264 109.523 3.87197C109.896 3.82931 110.269 3.80264 110.643 3.79197C111.027 3.77064 111.405 3.73864 111.779 3.69597C111.864 3.78131 111.907 3.88797 111.907 4.01597C111.907 4.28264 111.901 4.55464 111.891 4.83197C111.88 5.10931 111.875 5.38664 111.875 5.66397C111.864 6.31464 111.853 6.97064 111.843 7.63197C111.843 8.28264 111.843 8.93864 111.843 9.59997C111.843 9.80264 111.848 10.0213 111.859 10.256C111.869 10.48 111.912 10.688 111.987 10.88C112.104 11.1786 112.323 11.392 112.643 11.52C112.973 11.6373 113.288 11.696 113.587 11.696C113.917 11.696 114.248 11.6373 114.579 11.52C114.92 11.392 115.208 11.2106 115.443 10.976C115.688 10.7306 115.827 10.4266 115.859 10.064C115.88 9.88264 115.891 9.70131 115.891 9.51997C115.901 9.32797 115.907 9.14131 115.907 8.95997L115.891 4.60797C115.891 4.46931 115.843 4.36797 115.747 4.30397C115.661 4.23997 115.56 4.20797 115.443 4.20797C115.336 4.20797 115.229 4.21331 115.123 4.22397C115.027 4.23464 114.925 4.23997 114.819 4.23997C114.723 4.23997 114.675 4.18664 114.675 4.07997C114.675 3.97331 114.723 3.91464 114.819 3.90397C114.947 3.88264 115.08 3.87197 115.219 3.87197C115.357 3.86131 115.496 3.85064 115.635 3.83997L116.739 3.72797C116.813 3.71731 116.888 3.70664 116.963 3.69597C117.048 3.68531 117.128 3.67997 117.203 3.67997C117.256 3.67997 117.293 3.71197 117.315 3.77597C117.336 3.82931 117.347 3.87197 117.347 3.90397C117.315 6.21864 117.299 8.52797 117.299 10.832C117.299 11.0986 117.357 11.3173 117.475 11.488C117.603 11.6586 117.811 11.744 118.099 11.744C118.184 11.744 118.259 11.7333 118.323 11.712C118.397 11.6906 118.472 11.68 118.547 11.68C118.664 11.68 118.723 11.7333 118.723 11.84ZM125.506 9.98397C125.506 10.464 125.399 10.8586 125.186 11.168C124.972 11.4666 124.695 11.696 124.354 11.856C124.012 12.016 123.639 12.128 123.234 12.192C122.828 12.256 122.434 12.288 122.05 12.288C121.698 12.288 121.346 12.2506 120.994 12.176C120.652 12.1013 120.306 12.048 119.954 12.016C119.879 11.728 119.804 11.44 119.73 11.152C119.666 10.864 119.591 10.5813 119.506 10.304C119.495 10.272 119.468 10.1973 119.426 10.08C119.394 9.96264 119.378 9.89864 119.378 9.88797C119.378 9.80264 119.404 9.74397 119.458 9.71197C119.511 9.66931 119.575 9.64797 119.65 9.64797C119.724 9.64797 119.778 9.67464 119.81 9.72797C119.874 9.80264 119.927 9.90397 119.97 10.032C120.023 10.16 120.071 10.272 120.114 10.368C120.199 10.5386 120.274 10.672 120.338 10.768C120.402 10.8533 120.503 10.9653 120.642 11.104C121.058 11.5413 121.575 11.76 122.194 11.76C122.535 11.76 122.844 11.7226 123.122 11.648C123.41 11.5733 123.639 11.4346 123.81 11.232C123.98 11.0186 124.066 10.7146 124.066 10.32C124.066 9.97864 123.959 9.69597 123.746 9.47197C123.532 9.23731 123.255 9.02931 122.914 8.84797C122.583 8.66664 122.231 8.49064 121.858 8.31997C121.484 8.14931 121.127 7.96264 120.786 7.75997C120.455 7.54664 120.183 7.29064 119.97 6.99197C119.756 6.69331 119.65 6.33064 119.65 5.90397C119.65 5.38131 119.783 4.95464 120.05 4.62397C120.327 4.29331 120.679 4.04797 121.106 3.88797C121.532 3.71731 121.975 3.63197 122.434 3.63197C122.732 3.63197 122.999 3.66931 123.234 3.74397C123.479 3.81864 123.735 3.90397 124.002 3.99997C124.087 4.03197 124.172 4.05331 124.258 4.06397C124.343 4.07464 124.428 4.07997 124.514 4.07997C124.567 4.07997 124.615 4.07997 124.658 4.07997C124.7 4.07997 124.743 4.07464 124.786 4.06397C124.818 4.25597 124.844 4.45331 124.866 4.65597C124.898 4.84797 124.924 5.04531 124.946 5.24797C124.956 5.32264 124.967 5.41331 124.978 5.51997C124.999 5.61597 125.01 5.70664 125.01 5.79197C125.01 5.86664 124.994 5.94664 124.962 6.03197C124.93 6.10664 124.866 6.14397 124.77 6.14397C124.695 6.14397 124.631 6.13864 124.578 6.12797C124.535 6.10664 124.498 6.05864 124.466 5.98397C124.412 5.87731 124.364 5.76531 124.322 5.64797C124.29 5.51997 124.252 5.40264 124.21 5.29597C124.071 4.92264 123.831 4.62397 123.49 4.39997C123.148 4.16531 122.78 4.04797 122.386 4.04797C121.884 4.04797 121.506 4.19731 121.25 4.49597C120.994 4.78397 120.866 5.17331 120.866 5.66397C120.866 5.83464 120.908 5.99997 120.994 6.15997C121.09 6.31997 121.196 6.45864 121.314 6.57597C121.538 6.78931 121.799 6.95464 122.098 7.07197C122.407 7.18931 122.7 7.30664 122.978 7.42397C123.34 7.58397 123.714 7.77597 124.098 7.99997C124.492 8.22397 124.823 8.49597 125.09 8.81597C125.367 9.13597 125.506 9.52531 125.506 9.98397ZM137.782 12.032C137.782 12.2026 137.702 12.288 137.542 12.288C137.468 12.288 137.388 12.2826 137.302 12.272C137.217 12.2613 137.132 12.256 137.046 12.256C136.95 12.256 136.849 12.256 136.742 12.256C136.646 12.2453 136.545 12.24 136.438 12.24C136.204 12.2293 135.964 12.2293 135.718 12.24C135.484 12.24 135.249 12.24 135.014 12.24C134.694 12.24 134.38 12.24 134.07 12.24C133.761 12.24 133.446 12.2453 133.126 12.256C133.052 12.2666 132.956 12.272 132.838 12.272C132.732 12.272 132.646 12.272 132.582 12.272C132.454 12.272 132.39 12.192 132.39 12.032C132.39 11.9786 132.396 11.9306 132.406 11.888C132.428 11.8346 132.47 11.808 132.534 11.808C132.598 11.808 132.657 11.8133 132.71 11.824C132.774 11.824 132.838 11.824 132.902 11.824C133.009 11.824 133.164 11.824 133.366 11.824C133.58 11.8133 133.777 11.7813 133.958 11.728C134.14 11.664 134.23 11.5573 134.23 11.408C134.23 10.544 134.236 9.67997 134.246 8.81597C134.257 7.94131 134.262 7.07197 134.262 6.20797C134.262 5.47197 134.262 4.73597 134.262 3.99997C134.262 3.26397 134.262 2.52264 134.262 1.77597C134.262 1.63731 134.193 1.56797 134.054 1.56797C133.99 1.56797 133.857 1.60531 133.654 1.67997C133.462 1.75464 133.244 1.83997 132.998 1.93597C132.753 2.03197 132.529 2.11731 132.326 2.19197C132.134 2.26664 132.012 2.30397 131.958 2.30397C131.862 2.30397 131.793 2.26131 131.75 2.17597C131.718 2.09064 131.702 2.01064 131.702 1.93597C131.702 1.87197 131.734 1.81864 131.798 1.77597C131.862 1.72264 131.921 1.69064 131.974 1.67997C132.273 1.60531 132.556 1.51997 132.822 1.42397C133.089 1.31731 133.366 1.21597 133.654 1.11997C133.878 1.04531 134.113 0.965305 134.358 0.879972C134.604 0.783972 134.833 0.693306 135.046 0.607972C135.089 0.586639 135.164 0.559972 135.27 0.527972C135.377 0.495972 135.484 0.463972 135.59 0.431973C135.708 0.399972 135.777 0.383972 135.798 0.383972C135.862 0.383972 135.91 0.394639 135.942 0.415972C135.974 0.426639 135.99 0.479973 135.99 0.575973C135.99 0.810639 135.985 1.04531 135.974 1.27997C135.974 1.50397 135.969 1.73331 135.958 1.96797C135.948 2.61864 135.937 3.30664 135.926 4.03197C135.926 4.75731 135.921 5.47197 135.91 6.17597C135.91 6.95464 135.91 7.72797 135.91 8.49597C135.91 9.26397 135.91 10.0373 135.91 10.816C135.91 10.912 135.91 11.0133 135.91 11.12C135.921 11.216 135.926 11.312 135.926 11.408C135.937 11.5573 136.022 11.664 136.182 11.728C136.353 11.7813 136.534 11.808 136.726 11.808C136.929 11.808 137.073 11.808 137.158 11.808C137.244 11.808 137.324 11.8026 137.398 11.792C137.473 11.7813 137.548 11.776 137.622 11.776C137.686 11.776 137.729 11.808 137.75 11.872C137.772 11.9253 137.782 11.9786 137.782 12.032ZM148.084 8.12797C148.084 8.62931 147.982 9.16264 147.78 9.72797C147.577 10.2933 147.284 10.7466 146.9 11.088C146.473 11.4613 145.961 11.7493 145.364 11.952C144.766 12.1546 144.185 12.256 143.62 12.256C143.353 12.256 143.033 12.224 142.66 12.16C142.286 12.0853 141.918 11.9786 141.556 11.84C141.193 11.6906 140.889 11.4986 140.644 11.264C140.398 11.0186 140.276 10.7253 140.276 10.384C140.276 10.1493 140.356 9.96797 140.516 9.83997C140.676 9.70131 140.868 9.63197 141.092 9.63197C141.284 9.63197 141.454 9.67997 141.604 9.77597C141.753 9.87197 141.833 10.0266 141.844 10.24C141.886 10.7306 142.025 11.1093 142.26 11.376C142.505 11.6426 142.889 11.776 143.412 11.776C144.148 11.776 144.745 11.6053 145.204 11.264C145.662 10.912 146.004 10.384 146.228 9.67997C146.302 9.43464 146.345 9.18397 146.356 8.92797C146.377 8.66131 146.388 8.39997 146.388 8.14397C146.388 7.79197 146.345 7.41331 146.26 7.00797C146.185 6.59197 146.041 6.23997 145.828 5.95197C145.646 5.70664 145.412 5.54131 145.124 5.45597C144.846 5.37064 144.558 5.32797 144.26 5.32797C144.025 5.32797 143.769 5.37064 143.492 5.45597C143.214 5.53064 142.985 5.64264 142.804 5.79197C142.622 5.94131 142.457 6.13331 142.308 6.36797C142.158 6.59197 142.073 6.82664 142.052 7.07197C142.041 7.13597 142.03 7.21597 142.02 7.31197C142.009 7.40797 141.956 7.45597 141.86 7.45597C141.806 7.45597 141.694 7.43464 141.524 7.39197C141.364 7.33864 141.209 7.27997 141.06 7.21597C140.921 7.14131 140.852 7.07731 140.852 7.02397C140.852 6.99197 140.857 6.95997 140.868 6.92797C140.878 6.89597 140.889 6.86397 140.9 6.83197C140.974 6.58664 141.033 6.28264 141.076 5.91997C141.129 5.54664 141.166 5.15731 141.188 4.75197C141.209 4.33597 141.225 3.93597 141.236 3.55197C141.246 3.16797 141.252 2.84264 141.252 2.57597C141.252 1.94664 141.22 1.31197 141.156 0.671972C141.486 0.714639 141.812 0.746639 142.132 0.767972C142.462 0.789306 142.793 0.799973 143.124 0.799973H145.412C145.689 0.799973 146.009 0.783972 146.372 0.751972C146.745 0.719972 147.054 0.634638 147.3 0.495972C147.353 0.463972 147.412 0.431972 147.476 0.399972C147.55 0.357305 147.614 0.335972 147.668 0.335972C147.7 0.335972 147.748 0.341305 147.812 0.351972C147.876 0.351972 147.908 0.378639 147.908 0.431973C147.908 0.485306 147.87 0.597306 147.796 0.767972C147.721 0.927972 147.641 1.09331 147.556 1.26397C147.47 1.43464 147.412 1.54664 147.38 1.59997C147.337 1.67464 147.284 1.72264 147.22 1.74397C147.156 1.76531 147.081 1.77597 146.996 1.77597C146.857 1.77597 146.713 1.77597 146.564 1.77597C146.425 1.76531 146.281 1.75464 146.132 1.74397C145.95 1.72264 145.764 1.71731 145.572 1.72797C145.38 1.72797 145.193 1.72797 145.012 1.72797C144.713 1.72797 144.414 1.72797 144.116 1.72797C143.817 1.71731 143.513 1.71197 143.204 1.71197C143.022 1.71197 142.836 1.71197 142.644 1.71197C142.462 1.71197 142.281 1.71731 142.1 1.72797C142.089 2.39997 142.062 3.07731 142.02 3.75997C141.988 4.43197 141.956 5.10397 141.924 5.77597C142.414 5.43464 142.868 5.18397 143.284 5.02397C143.71 4.85331 144.222 4.76797 144.82 4.76797C145.225 4.76797 145.614 4.82664 145.988 4.94397C146.372 5.06131 146.713 5.25864 147.012 5.53597C147.353 5.85597 147.614 6.25064 147.796 6.71997C147.988 7.18931 148.084 7.65864 148.084 8.12797ZM160.449 12.016C160.449 12.0586 160.439 12.1066 160.417 12.16C160.396 12.2133 160.359 12.24 160.305 12.24C159.975 12.24 159.639 12.2453 159.297 12.256C158.967 12.256 158.631 12.256 158.289 12.256C158.119 12.256 157.953 12.2506 157.793 12.24C157.644 12.2186 157.505 12.1493 157.377 12.032C157.335 12 157.297 11.9626 157.265 11.92C157.233 11.8773 157.201 11.8346 157.169 11.792C155.847 9.94664 154.46 8.12797 153.009 6.33597L152.449 6.79997V11.424C152.449 11.6053 152.535 11.7226 152.705 11.776C152.876 11.8293 153.068 11.856 153.281 11.856C153.495 11.8453 153.655 11.84 153.761 11.84C153.9 11.84 153.969 11.9093 153.969 12.048C153.969 12.1866 153.911 12.256 153.793 12.256C153.431 12.256 153.073 12.2453 152.721 12.224C152.369 12.2026 152.012 12.192 151.649 12.192C151.297 12.192 150.94 12.1973 150.577 12.208C150.225 12.2186 149.873 12.2346 149.521 12.256C149.436 12.2026 149.393 12.128 149.393 12.032C149.393 11.9573 149.399 11.9093 149.409 11.888C149.431 11.8666 149.479 11.8506 149.553 11.84C149.617 11.8293 149.681 11.8293 149.745 11.84C149.809 11.84 149.873 11.84 149.937 11.84C150.033 11.84 150.151 11.8346 150.289 11.824C150.439 11.8133 150.567 11.7813 150.673 11.728C150.791 11.664 150.849 11.5626 150.849 11.424V1.37597C150.849 1.26931 150.775 1.17331 150.625 1.08797C150.487 1.00264 150.375 0.959972 150.289 0.959972H149.937C149.863 0.959972 149.793 0.965306 149.729 0.975972C149.665 0.975972 149.596 0.975972 149.521 0.975972C149.415 0.975972 149.356 0.943972 149.345 0.879972C149.335 0.815972 149.329 0.746639 149.329 0.671972C149.329 0.586639 149.367 0.543972 149.441 0.543972C149.815 0.543972 150.183 0.554639 150.545 0.575973C150.919 0.597306 151.287 0.607972 151.649 0.607972C151.991 0.607972 152.327 0.597306 152.657 0.575973C152.999 0.554639 153.335 0.543972 153.665 0.543972C153.793 0.543972 153.857 0.618639 153.857 0.767972C153.857 0.810639 153.841 0.858639 153.809 0.911972C153.788 0.954639 153.751 0.975972 153.697 0.975972C153.58 0.975972 153.463 0.975972 153.345 0.975972C153.228 0.965306 153.111 0.959972 152.993 0.959972C152.876 0.959972 152.753 0.997306 152.625 1.07197C152.508 1.14664 152.449 1.24797 152.449 1.37597V3.80797C152.449 4.22397 152.449 4.63997 152.449 5.05597C152.449 5.47197 152.444 5.88797 152.433 6.30397C153.5 5.30131 154.545 4.27197 155.569 3.21597C155.953 2.81064 156.327 2.41064 156.689 2.01597C157.052 1.61064 157.399 1.18931 157.729 0.751972C157.804 0.645306 157.889 0.591972 157.985 0.591972C158.145 0.591972 158.305 0.597306 158.465 0.607972C158.625 0.607972 158.785 0.607972 158.945 0.607972C159.084 0.607972 159.217 0.607972 159.345 0.607972C159.484 0.597306 159.623 0.591972 159.761 0.591972C159.815 0.591972 159.847 0.618639 159.857 0.671972C159.879 0.714639 159.889 0.757306 159.889 0.799973C159.889 0.842639 159.873 0.890639 159.841 0.943973C159.82 0.986639 159.783 1.00797 159.729 1.00797C159.431 1.00797 159.148 1.05064 158.881 1.13597C158.615 1.22131 158.369 1.37064 158.145 1.58397L154.177 5.35997C154.977 6.38397 155.788 7.40797 156.609 8.43197C157.441 9.44531 158.295 10.4373 159.169 11.408C159.329 11.5786 159.505 11.6853 159.697 11.728C159.9 11.7706 160.076 11.8026 160.225 11.824C160.375 11.8453 160.449 11.9093 160.449 12.016ZM172.652 7.34397C172.652 7.40797 172.636 7.46664 172.604 7.51997C172.572 7.57331 172.519 7.59997 172.444 7.59997H171.452V11.024C170.705 11.28 169.964 11.5626 169.228 11.872C168.876 12.0213 168.503 12.1173 168.108 12.16C167.724 12.2026 167.345 12.224 166.972 12.224C166.652 12.224 166.295 12.1866 165.9 12.112C165.505 12.0373 165.121 11.9306 164.748 11.792C164.385 11.6533 164.065 11.4933 163.788 11.312C162.977 10.768 162.375 10.064 161.98 9.19997C161.596 8.33597 161.404 7.41864 161.404 6.44797C161.404 5.62664 161.532 4.85331 161.788 4.12797C162.055 3.40264 162.433 2.76264 162.924 2.20797C163.415 1.65331 164.001 1.22131 164.684 0.911972C165.377 0.591972 166.151 0.431973 167.004 0.431973C167.633 0.431973 168.236 0.517306 168.812 0.687972C168.908 0.719972 169.063 0.767972 169.276 0.831972C169.489 0.895972 169.703 0.959972 169.916 1.02397C170.129 1.07731 170.273 1.10397 170.348 1.10397C170.572 1.10397 170.727 1.07731 170.812 1.02397C170.897 0.959972 170.961 0.890639 171.004 0.815972C171.057 0.741305 171.132 0.682638 171.228 0.639972H171.356C171.441 0.639972 171.489 0.687972 171.5 0.783972C171.521 0.890639 171.527 1.00264 171.516 1.11997C171.516 1.23731 171.516 1.35464 171.516 1.47197C171.516 1.80264 171.521 2.13331 171.532 2.46397C171.553 2.79464 171.564 3.13064 171.564 3.47197C171.564 3.59997 171.559 3.74931 171.548 3.91997C171.548 4.09064 171.452 4.17597 171.26 4.17597C171.196 4.17597 171.137 4.17064 171.084 4.15997C171.041 4.13864 170.999 4.10131 170.956 4.04797C170.945 4.02664 170.919 3.96797 170.876 3.87197C170.833 3.76531 170.791 3.65864 170.748 3.55197C170.705 3.43464 170.673 3.35464 170.652 3.31197C170.364 2.66131 169.943 2.11731 169.388 1.67997C169.1 1.44531 168.732 1.25864 168.284 1.11997C167.847 0.981305 167.441 0.911972 167.068 0.911972C166.353 0.911972 165.745 1.08797 165.244 1.43997C164.743 1.78131 164.337 2.22931 164.028 2.78397C163.719 3.33864 163.495 3.93597 163.356 4.57597C163.217 5.21597 163.148 5.83464 163.148 6.43197C163.148 7.06131 163.223 7.67997 163.372 8.28797C163.521 8.89597 163.751 9.44531 164.06 9.93597C164.38 10.4266 164.796 10.8213 165.308 11.12C165.82 11.408 166.433 11.552 167.148 11.552C167.361 11.552 167.617 11.5306 167.916 11.488C168.215 11.4453 168.513 11.3706 168.812 11.264C169.111 11.1573 169.356 11.0133 169.548 10.832C169.751 10.6506 169.852 10.4213 169.852 10.144V8.03197C169.852 7.86131 169.767 7.75464 169.596 7.71197C169.436 7.65864 169.297 7.63197 169.18 7.63197C169.02 7.63197 168.86 7.64264 168.7 7.66397C168.54 7.67464 168.38 7.67997 168.22 7.67997C168.135 7.67997 168.076 7.65331 168.044 7.59997C168.023 7.54664 168.012 7.48264 168.012 7.40797C168.012 7.34397 168.023 7.28531 168.044 7.23197C168.065 7.16797 168.119 7.13597 168.204 7.13597C168.375 7.13597 168.54 7.14131 168.7 7.15197C168.86 7.15197 169.025 7.15197 169.196 7.15197H170.332C170.513 7.15197 170.695 7.15197 170.876 7.15197C171.057 7.15197 171.239 7.14664 171.42 7.13597C171.601 7.13597 171.777 7.13064 171.948 7.11997C172.119 7.09864 172.289 7.08797 172.46 7.08797C172.524 7.08797 172.572 7.11997 172.604 7.18397C172.636 7.23731 172.652 7.29064 172.652 7.34397Z" fill="black"/>
</svg>
