<svg width="52" height="10" viewBox="0 0 52 10" fill="none" xmlns="http://www.w3.org/2000/svg">
<path d="M7.6201 4.73995C7.6201 4.40395 7.5841 4.05195 7.5121 3.68395C7.4481 3.30795 7.3441 2.94795 7.2001 2.60395C7.0561 2.25995 6.8641 1.96795 6.6241 1.72795C6.4001 1.50395 6.1361 1.31595 5.8321 1.16395C5.5361 1.00395 5.2281 0.907953 4.9081 0.875953C4.8121 0.859953 4.7121 0.851953 4.6081 0.851953C4.5121 0.851953 4.4161 0.851953 4.3201 0.851953C4.0081 0.851953 3.6961 0.855953 3.3841 0.863952C3.0801 0.871953 2.7721 0.879953 2.4601 0.887953V8.26795C2.4601 8.50795 2.5401 8.66395 2.7001 8.73595C2.8601 8.80795 3.0401 8.84395 3.2401 8.84395C3.5601 8.84395 3.8881 8.83195 4.2241 8.80795C4.5681 8.78395 4.9001 8.72795 5.2201 8.63995C5.5481 8.54395 5.8481 8.39595 6.1201 8.19595C6.6721 7.78795 7.0601 7.27595 7.2841 6.65995C7.5081 6.03595 7.6201 5.39595 7.6201 4.73995ZM8.9521 4.55995C8.9521 5.35195 8.7841 6.10395 8.4481 6.81595C8.1201 7.52795 7.6121 8.09595 6.9241 8.51995C6.6441 8.68795 6.3201 8.82795 5.9521 8.93995C5.5921 9.04395 5.2241 9.11995 4.8481 9.16795C4.4721 9.21595 4.1201 9.23995 3.7921 9.23995C3.5041 9.23995 3.2121 9.23195 2.9161 9.21595C2.6281 9.19995 2.3361 9.19195 2.0401 9.19195C1.8081 9.19195 1.5721 9.19595 1.3321 9.20395C1.0921 9.20395 0.8561 9.21195 0.6241 9.22795C0.5841 9.23595 0.5441 9.23995 0.5041 9.23995C0.4641 9.23995 0.4241 9.23995 0.3841 9.23995C0.3361 9.23995 0.3081 9.21995 0.3001 9.17995C0.2921 9.13995 0.2881 9.10395 0.2881 9.07195C0.2881 9.01595 0.3281 8.97595 0.4081 8.95195C0.4961 8.92795 0.5881 8.90795 0.6841 8.89195C0.7881 8.87595 0.8601 8.85595 0.9001 8.83195C1.0361 8.75995 1.1241 8.65595 1.1641 8.51995C1.2121 8.37595 1.2361 8.23195 1.2361 8.08795C1.2361 7.64795 1.2361 7.21195 1.2361 6.77995C1.2441 6.33995 1.2481 5.89995 1.2481 5.45995V4.35595C1.2481 3.91595 1.2481 3.47995 1.2481 3.04795C1.2481 2.61595 1.2481 2.17995 1.2481 1.73995C1.2481 1.43595 1.2121 1.21995 1.1401 1.09195C1.0681 0.963953 0.8681 0.899953 0.5401 0.899953C0.4841 0.899953 0.4281 0.903953 0.3721 0.911952C0.3241 0.911952 0.2721 0.911952 0.2161 0.911952C0.1601 0.911952 0.1081 0.895952 0.0600996 0.863952C0.0200996 0.823952 9.96217e-05 0.775953 9.96217e-05 0.719953C9.96217e-05 0.591953 0.0640996 0.527952 0.1921 0.527952C0.3761 0.527952 0.5601 0.535953 0.7441 0.551953C0.9281 0.559953 1.1081 0.563953 1.2841 0.563953C1.8761 0.563953 2.4681 0.547953 3.0601 0.515953C3.6601 0.475953 4.2561 0.455953 4.8481 0.455953C5.7041 0.455953 6.4361 0.619953 7.0441 0.947953C7.6601 1.27595 8.1321 1.74795 8.4601 2.36395C8.7881 2.97195 8.9521 3.70395 8.9521 4.55995ZM13.3116 9.07195C13.3116 9.11195 13.2996 9.15195 13.2756 9.19195C13.2516 9.22395 13.2196 9.23995 13.1796 9.23995C12.9556 9.23995 12.7316 9.23595 12.5076 9.22795C12.2916 9.21195 12.0676 9.20395 11.8356 9.20395H11.5116C11.2716 9.20395 11.0316 9.21195 10.7916 9.22795C10.5596 9.23595 10.3276 9.23995 10.0956 9.23995C10.0636 9.23995 10.0396 9.21995 10.0236 9.17995C10.0156 9.13995 10.0116 9.10795 10.0116 9.08395C10.0116 9.04395 10.0156 9.01595 10.0236 8.99995C10.0316 8.97595 10.0556 8.95995 10.0956 8.95195C10.1356 8.93595 10.1796 8.93195 10.2276 8.93995C10.2836 8.93995 10.3356 8.93995 10.3836 8.93995C10.4396 8.93995 10.4916 8.94395 10.5396 8.95195C10.5876 8.95195 10.6396 8.95195 10.6956 8.95195C10.8076 8.95195 10.9076 8.92795 10.9956 8.87995C11.0916 8.82395 11.1396 8.73195 11.1396 8.60395V3.80395C11.1396 3.66795 11.1156 3.56395 11.0676 3.49195C11.0196 3.41195 10.9196 3.37195 10.7676 3.37195C10.6556 3.37195 10.5396 3.37995 10.4196 3.39595C10.3076 3.40395 10.1956 3.41595 10.0836 3.43195C10.0196 3.43195 9.98757 3.39595 9.98757 3.32395C9.98757 3.24395 10.0196 3.19195 10.0836 3.16795C10.1796 3.13595 10.2796 3.11595 10.3836 3.10795C10.4956 3.09195 10.5996 3.07595 10.6956 3.05995C10.9196 3.01995 11.1436 2.97595 11.3676 2.92795C11.5916 2.87995 11.8116 2.82795 12.0276 2.77195C12.0516 2.76395 12.0836 2.75995 12.1236 2.75995C12.2116 2.75995 12.2556 2.80795 12.2556 2.90395C12.2556 3.84795 12.2516 4.79595 12.2436 5.74795C12.2436 6.69995 12.2436 7.65195 12.2436 8.60395C12.2436 8.73195 12.2996 8.82395 12.4116 8.87995C12.5316 8.92795 12.6436 8.95195 12.7476 8.95195C12.8276 8.95195 12.9076 8.94795 12.9876 8.93995C13.0756 8.93195 13.1596 8.92795 13.2396 8.92795C13.2716 8.92795 13.2916 8.94795 13.2996 8.98795C13.3076 9.02795 13.3116 9.05595 13.3116 9.07195ZM12.3396 0.767953C12.3396 0.967953 12.2676 1.13995 12.1236 1.28395C11.9796 1.41995 11.8076 1.48795 11.6076 1.48795C11.4076 1.48795 11.2356 1.41995 11.0916 1.28395C10.9476 1.13995 10.8756 0.967953 10.8756 0.767953C10.8756 0.567953 10.9476 0.399953 11.0916 0.263953C11.2356 0.119953 11.4076 0.0479529 11.6076 0.0479529C11.8076 0.0479529 11.9796 0.119953 12.1236 0.263953C12.2676 0.399953 12.3396 0.567953 12.3396 0.767953ZM21.0366 9.07195C21.0366 9.17595 20.9766 9.22795 20.8566 9.22795C20.6806 9.22795 20.5006 9.22395 20.3166 9.21595C20.1326 9.19995 19.9486 9.19195 19.7646 9.19195C19.4926 9.19195 19.2126 9.19995 18.9246 9.21595C18.6446 9.22395 18.3646 9.22795 18.0846 9.22795C18.0526 9.22795 18.0326 9.20395 18.0246 9.15595C18.0166 9.09995 18.0126 9.05595 18.0126 9.02395C18.0126 8.95995 18.0526 8.92795 18.1326 8.92795C18.2126 8.92795 18.2766 8.92795 18.3246 8.92795C18.3646 8.92795 18.4046 8.93195 18.4446 8.93995C18.4926 8.93995 18.5366 8.93995 18.5766 8.93995C18.8086 8.93995 18.9366 8.82395 18.9606 8.59195C18.9846 8.11995 18.9926 7.64395 18.9846 7.16395C18.9846 6.68395 18.9846 6.20795 18.9846 5.73595C18.9846 5.64795 18.9846 5.55995 18.9846 5.47195C18.9846 5.37595 18.9846 5.28395 18.9846 5.19595C18.9766 5.01195 18.9646 4.78795 18.9486 4.52395C18.9326 4.25195 18.8966 4.03195 18.8406 3.86395C18.7126 3.44795 18.4326 3.23995 18.0006 3.23995C17.6086 3.23995 17.2486 3.33995 16.9206 3.53995C16.5926 3.73995 16.3086 3.99195 16.0686 4.29595C16.0606 4.87995 16.0566 5.45995 16.0566 6.03595C16.0566 6.61195 16.0566 7.18795 16.0566 7.76395V8.59195C16.0566 8.71195 16.1086 8.79995 16.2126 8.85595C16.3166 8.91195 16.4206 8.93995 16.5246 8.93995C16.5886 8.93995 16.6486 8.93595 16.7046 8.92795C16.7686 8.91195 16.8286 8.90395 16.8846 8.90395C16.9166 8.90395 16.9366 8.92395 16.9446 8.96395C16.9526 9.00395 16.9566 9.03595 16.9566 9.05995C16.9566 9.09195 16.9446 9.12795 16.9206 9.16795C16.9046 9.20795 16.8726 9.22795 16.8246 9.22795C16.6486 9.22795 16.4726 9.22395 16.2966 9.21595C16.1286 9.19995 15.9566 9.19195 15.7806 9.19195C15.5086 9.19195 15.2366 9.19995 14.9646 9.21595C14.6926 9.22395 14.4166 9.22795 14.1366 9.22795C14.0966 9.22795 14.0726 9.20395 14.0646 9.15595C14.0646 9.09995 14.0646 9.05595 14.0646 9.02395C14.0646 8.95995 14.1006 8.92795 14.1726 8.92795C14.2446 8.92795 14.3006 8.92795 14.3406 8.92795C14.3806 8.92795 14.4206 8.93195 14.4606 8.93995C14.5006 8.93995 14.5406 8.93995 14.5806 8.93995C14.8126 8.93995 14.9406 8.82395 14.9646 8.59195C14.9726 8.47995 14.9766 8.36795 14.9766 8.25595C14.9766 8.14395 14.9766 8.03195 14.9766 7.91995C14.9766 7.23195 14.9766 6.54395 14.9766 5.85595C14.9766 5.15995 14.9726 4.46795 14.9646 3.77995C14.9646 3.66795 14.9406 3.55595 14.8926 3.44395C14.8446 3.33195 14.7526 3.27595 14.6166 3.27595C14.5126 3.27595 14.4126 3.29195 14.3166 3.32395C14.2206 3.35595 14.1206 3.37195 14.0166 3.37195C13.9606 3.37195 13.9326 3.33195 13.9326 3.25195C13.9326 3.23595 13.9326 3.21995 13.9326 3.20395C13.9406 3.17995 13.9486 3.16395 13.9566 3.15595C13.9646 3.14795 13.9766 3.14395 13.9926 3.14395C14.0086 3.13595 14.0206 3.12795 14.0286 3.11995C14.1726 3.07995 14.3206 3.05195 14.4726 3.03595C14.6326 3.01995 14.7846 2.99595 14.9286 2.96395C15.0646 2.93995 15.1966 2.90795 15.3246 2.86795C15.4526 2.81995 15.5806 2.79595 15.7086 2.79595C15.7646 2.79595 15.8086 2.82395 15.8406 2.87995C15.8806 2.95195 15.9126 3.05595 15.9366 3.19195C15.9606 3.31995 15.9766 3.45195 15.9846 3.58795C16.0006 3.72395 16.0086 3.83595 16.0086 3.92395C16.1846 3.74795 16.3926 3.57595 16.6326 3.40795C16.8806 3.23195 17.1366 3.08795 17.4006 2.97595C17.6726 2.85595 17.9366 2.79595 18.1926 2.79595C18.9286 2.79595 19.4246 2.95995 19.6806 3.28795C19.9446 3.60795 20.0766 4.11595 20.0766 4.81195C20.0766 5.43595 20.0726 6.05995 20.0646 6.68395C20.0646 7.30795 20.0646 7.93195 20.0646 8.55595C20.0646 8.70795 20.1086 8.81195 20.1966 8.86795C20.2926 8.91595 20.4046 8.93995 20.5326 8.93995C20.5966 8.93995 20.6606 8.93595 20.7246 8.92795C20.7886 8.91195 20.8486 8.90395 20.9046 8.90395C20.9526 8.90395 20.9846 8.92395 21.0006 8.96395C21.0246 8.99595 21.0366 9.03195 21.0366 9.07195ZM28.7266 9.11995C28.7266 9.15995 28.7066 9.19195 28.6666 9.21595C28.6266 9.23195 28.5866 9.23995 28.5466 9.23995C28.3466 9.23995 28.1426 9.23595 27.9346 9.22795C27.7346 9.21195 27.5306 9.20395 27.3226 9.20395C27.0906 9.20395 26.8546 9.21195 26.6146 9.22795C26.3826 9.24395 26.1506 9.25195 25.9186 9.25195C25.8786 9.25195 25.8506 9.22795 25.8346 9.17995C25.8266 9.12395 25.8226 9.07995 25.8226 9.04795C25.8226 8.99195 25.8506 8.96395 25.9066 8.96395C25.9946 8.96395 26.0786 8.96795 26.1586 8.97595C26.2466 8.97595 26.3306 8.97595 26.4106 8.97595C26.5146 8.97595 26.5946 8.94395 26.6506 8.87995C26.7146 8.80795 26.7506 8.72395 26.7586 8.62795C26.7746 8.42795 26.7786 8.22795 26.7706 8.02795C26.7706 7.82795 26.7706 7.63195 26.7706 7.43995C26.7706 7.19995 26.7706 6.96395 26.7706 6.73195C26.7706 6.49195 26.7706 6.25195 26.7706 6.01195C26.7706 5.77195 26.7706 5.53195 26.7706 5.29195C26.7706 5.05195 26.7626 4.81195 26.7466 4.57195C26.7386 4.46795 26.7266 4.36795 26.7106 4.27195C26.7026 4.16795 26.6826 4.06795 26.6506 3.97195C26.5706 3.75595 26.4386 3.59195 26.2546 3.47995C26.0786 3.35995 25.8746 3.29995 25.6426 3.29995C25.3706 3.29995 25.1026 3.37195 24.8386 3.51595C24.5746 3.65195 24.3546 3.82395 24.1786 4.03195C23.9866 4.25595 23.8466 4.45195 23.7586 4.61995C23.6706 4.78795 23.6146 4.96395 23.5906 5.14795C23.5746 5.33195 23.5666 5.57195 23.5666 5.86795V7.97995C23.5666 8.06795 23.5626 8.19195 23.5546 8.35195C23.5546 8.51195 23.5746 8.65595 23.6146 8.78395C23.6626 8.91195 23.7546 8.97595 23.8906 8.97595C23.9706 8.97595 24.0466 8.97195 24.1186 8.96395C24.1906 8.95595 24.2666 8.95195 24.3466 8.95195C24.4186 8.95195 24.4546 8.99195 24.4546 9.07195C24.4546 9.11195 24.4466 9.15195 24.4306 9.19195C24.4226 9.22395 24.3946 9.23995 24.3466 9.23995C24.0746 9.23995 23.7946 9.23595 23.5066 9.22795C23.2266 9.21195 22.9466 9.20395 22.6666 9.20395C22.4106 9.20395 22.1506 9.21595 21.8866 9.23995C21.8546 9.23995 21.8266 9.24395 21.8026 9.25195C21.7786 9.25195 21.7506 9.25195 21.7186 9.25195C21.6786 9.25195 21.6466 9.23195 21.6226 9.19195C21.6066 9.14395 21.5986 9.10395 21.5986 9.07195C21.5986 8.98395 21.6426 8.93995 21.7306 8.93995C21.7786 8.93995 21.8266 8.94395 21.8746 8.95195C21.9226 8.95195 21.9746 8.95195 22.0306 8.95195C22.1426 8.95195 22.2586 8.93595 22.3786 8.90395C22.5066 8.86395 22.5746 8.77195 22.5826 8.62795C22.5986 8.36395 22.6026 8.09995 22.5946 7.83595C22.5946 7.57195 22.5946 7.31195 22.5946 7.05595C22.5946 6.55995 22.5946 6.06795 22.5946 5.57995C22.6026 5.09195 22.6066 4.60395 22.6066 4.11595C22.6066 3.60395 22.6026 3.09595 22.5946 2.59195C22.5866 2.07995 22.5786 1.56795 22.5706 1.05595C22.5706 0.967953 22.5546 0.871953 22.5226 0.767953C22.4906 0.655953 22.4186 0.599953 22.3066 0.599953C22.1946 0.599953 22.0786 0.607953 21.9586 0.623953C21.8386 0.639953 21.7186 0.647953 21.5986 0.647953C21.5266 0.647953 21.4906 0.615953 21.4906 0.551953C21.4906 0.479953 21.5266 0.431953 21.5986 0.407953C21.7586 0.367953 21.9146 0.335953 22.0666 0.311952C22.2266 0.287953 22.3826 0.259953 22.5346 0.227953C22.6706 0.195953 22.8306 0.151953 23.0146 0.095953C23.2066 0.0319529 23.3666 -4.72069e-05 23.4946 -4.72069e-05C23.5426 -4.72069e-05 23.5706 0.0159528 23.5786 0.0479529C23.5866 0.0719526 23.5906 0.103952 23.5906 0.143952C23.5906 0.799953 23.5906 1.45595 23.5906 2.11195C23.5906 2.76795 23.5826 3.42395 23.5666 4.07995C23.7426 3.89595 23.9546 3.71195 24.2026 3.52795C24.4586 3.34395 24.7306 3.19195 25.0186 3.07195C25.3066 2.94395 25.5786 2.87995 25.8346 2.87995C26.3546 2.87995 26.7626 2.95595 27.0586 3.10795C27.3546 3.25995 27.5626 3.49595 27.6826 3.81595C27.8026 4.12795 27.8626 4.53595 27.8626 5.03995C27.8626 5.63995 27.8586 6.23995 27.8506 6.83995C27.8506 7.43195 27.8506 8.02795 27.8506 8.62795C27.8506 8.75595 27.8826 8.84795 27.9466 8.90395C28.0186 8.95195 28.1186 8.97595 28.2466 8.97595C28.3026 8.97595 28.3546 8.97195 28.4026 8.96395C28.4586 8.95595 28.5146 8.95195 28.5706 8.95195C28.6106 8.95195 28.6466 8.97195 28.6786 9.01195C28.7106 9.04395 28.7266 9.07995 28.7266 9.11995ZM33.7395 5.03995C33.7315 4.71195 33.7035 4.39995 33.6555 4.10395C33.6075 3.79995 33.4915 3.55195 33.3075 3.35995C33.1235 3.15995 32.8235 3.05995 32.4075 3.05995C32.0315 3.05995 31.7235 3.16395 31.4835 3.37195C31.2515 3.57195 31.0715 3.82795 30.9435 4.13995C30.8155 4.44395 30.7195 4.75595 30.6555 5.07595C30.8555 5.08395 31.0515 5.09195 31.2435 5.09995C31.4355 5.09995 31.6275 5.09995 31.8195 5.09995C32.1395 5.09995 32.4595 5.09595 32.7795 5.08795C33.0995 5.07195 33.4195 5.05595 33.7395 5.03995ZM35.1195 7.78795C35.1195 7.82795 35.1115 7.85195 35.0955 7.85995C35.0715 7.93995 35.0115 8.03595 34.9155 8.14795C34.8275 8.25995 34.7275 8.36795 34.6155 8.47195C34.5035 8.56795 34.4115 8.63995 34.3395 8.68795C34.0755 8.87195 33.7755 9.01995 33.4395 9.13195C33.1115 9.24395 32.7835 9.29995 32.4555 9.29995C32.1835 9.29995 31.8795 9.25595 31.5435 9.16795C31.2155 9.07995 30.9355 8.95995 30.7035 8.80795C30.2555 8.51195 29.9275 8.12395 29.7195 7.64395C29.5115 7.16395 29.4075 6.66395 29.4075 6.14395C29.4075 5.55195 29.5235 5.00395 29.7555 4.49995C29.9875 3.99595 30.3595 3.58795 30.8715 3.27595C31.1035 3.13995 31.3635 3.02795 31.6515 2.93995C31.9395 2.84395 32.2155 2.79595 32.4795 2.79595C32.9515 2.79595 33.3675 2.89195 33.7275 3.08395C34.0875 3.27595 34.3675 3.54795 34.5675 3.89995C34.7755 4.24395 34.8795 4.65595 34.8795 5.13595C34.8795 5.27195 34.8475 5.35995 34.7835 5.39995C34.7275 5.43995 34.6395 5.45995 34.5195 5.45995C34.3595 5.45995 34.1995 5.45595 34.0395 5.44795C33.8795 5.43995 33.7195 5.43195 33.5595 5.42395C33.3355 5.40795 33.1115 5.39995 32.8875 5.39995C32.6715 5.39995 32.4515 5.39995 32.2275 5.39995C31.9555 5.39995 31.6835 5.39995 31.4115 5.39995C31.1395 5.39995 30.8675 5.40795 30.5955 5.42395C30.5875 5.55195 30.5795 5.67595 30.5715 5.79595C30.5635 5.91595 30.5595 6.03995 30.5595 6.16795C30.5595 6.46395 30.5955 6.77195 30.6675 7.09195C30.7395 7.40395 30.8555 7.69595 31.0155 7.96795C31.1755 8.23195 31.3795 8.44795 31.6275 8.61595C31.8755 8.77595 32.1755 8.85595 32.5275 8.85595C32.8875 8.85595 33.2315 8.79995 33.5595 8.68795C33.8875 8.57595 34.1875 8.39595 34.4595 8.14795C34.5315 8.07595 34.5955 7.99995 34.6515 7.91995C34.7155 7.83195 34.7835 7.75595 34.8555 7.69195C34.8955 7.65195 34.9395 7.63195 34.9875 7.63195C35.0275 7.63195 35.0595 7.64795 35.0835 7.67995C35.1075 7.71195 35.1195 7.74795 35.1195 7.78795ZM39.1866 9.07195C39.1866 9.11195 39.1746 9.15195 39.1506 9.19195C39.1266 9.22395 39.0946 9.23995 39.0546 9.23995C38.8306 9.23995 38.6066 9.23595 38.3826 9.22795C38.1666 9.21195 37.9426 9.20395 37.7106 9.20395H37.3866C37.1466 9.20395 36.9066 9.21195 36.6666 9.22795C36.4346 9.23595 36.2026 9.23995 35.9706 9.23995C35.9386 9.23995 35.9146 9.21995 35.8986 9.17995C35.8906 9.13995 35.8866 9.10795 35.8866 9.08395C35.8866 9.04395 35.8906 9.01595 35.8986 8.99995C35.9066 8.97595 35.9306 8.95995 35.9706 8.95195C36.0106 8.93595 36.0546 8.93195 36.1026 8.93995C36.1586 8.93995 36.2106 8.93995 36.2586 8.93995C36.3146 8.93995 36.3666 8.94395 36.4146 8.95195C36.4626 8.95195 36.5146 8.95195 36.5706 8.95195C36.6826 8.95195 36.7826 8.92795 36.8706 8.87995C36.9666 8.82395 37.0146 8.73195 37.0146 8.60395V3.80395C37.0146 3.66795 36.9906 3.56395 36.9426 3.49195C36.8946 3.41195 36.7946 3.37195 36.6426 3.37195C36.5306 3.37195 36.4146 3.37995 36.2946 3.39595C36.1826 3.40395 36.0706 3.41595 35.9586 3.43195C35.8946 3.43195 35.8626 3.39595 35.8626 3.32395C35.8626 3.24395 35.8946 3.19195 35.9586 3.16795C36.0546 3.13595 36.1546 3.11595 36.2586 3.10795C36.3706 3.09195 36.4746 3.07595 36.5706 3.05995C36.7946 3.01995 37.0186 2.97595 37.2426 2.92795C37.4666 2.87995 37.6866 2.82795 37.9026 2.77195C37.9266 2.76395 37.9586 2.75995 37.9986 2.75995C38.0866 2.75995 38.1306 2.80795 38.1306 2.90395C38.1306 3.84795 38.1266 4.79595 38.1186 5.74795C38.1186 6.69995 38.1186 7.65195 38.1186 8.60395C38.1186 8.73195 38.1746 8.82395 38.2866 8.87995C38.4066 8.92795 38.5186 8.95195 38.6226 8.95195C38.7026 8.95195 38.7826 8.94795 38.8626 8.93995C38.9506 8.93195 39.0346 8.92795 39.1146 8.92795C39.1466 8.92795 39.1666 8.94795 39.1746 8.98795C39.1826 9.02795 39.1866 9.05595 39.1866 9.07195ZM38.2146 0.767953C38.2146 0.967953 38.1426 1.13995 37.9986 1.28395C37.8546 1.41995 37.6826 1.48795 37.4826 1.48795C37.2826 1.48795 37.1106 1.41995 36.9666 1.28395C36.8226 1.13995 36.7506 0.967953 36.7506 0.767953C36.7506 0.567953 36.8226 0.399953 36.9666 0.263953C37.1106 0.119953 37.2826 0.0479529 37.4826 0.0479529C37.6826 0.0479529 37.8546 0.119953 37.9986 0.263953C38.1426 0.399953 38.2146 0.567953 38.2146 0.767953ZM44.7276 3.91195C44.7276 3.99195 44.6956 4.06795 44.6316 4.13995C44.5756 4.20395 44.5036 4.23595 44.4156 4.23595C44.2956 4.23595 44.2076 4.19595 44.1516 4.11595C44.1036 4.03595 44.0596 3.94395 44.0196 3.83995C43.9876 3.73595 43.9356 3.64395 43.8636 3.56395C43.7916 3.48395 43.6716 3.44395 43.5036 3.44395C43.4716 3.44395 43.4396 3.44395 43.4076 3.44395C43.3836 3.44395 43.3556 3.44795 43.3236 3.45595C43.1876 3.47995 43.0396 3.56395 42.8796 3.70795C42.7196 3.85195 42.5636 4.02395 42.4116 4.22395C42.2676 4.41595 42.1476 4.60795 42.0516 4.79995C41.9556 4.99195 41.9036 5.15195 41.8956 5.27995C41.8876 5.40795 41.8836 5.53595 41.8836 5.66395C41.8836 5.78395 41.8836 5.90395 41.8836 6.02395C41.8836 6.45595 41.8836 6.88795 41.8836 7.31995C41.8916 7.75195 41.8956 8.17995 41.8956 8.60395C41.8956 8.72395 41.9436 8.81195 42.0396 8.86795C42.1436 8.91595 42.2476 8.93995 42.3516 8.93995C42.4316 8.93995 42.5116 8.93595 42.5916 8.92795C42.6716 8.91995 42.7516 8.91595 42.8316 8.91595C42.8716 8.91595 42.8996 8.93595 42.9156 8.97595C42.9316 9.00795 42.9396 9.03995 42.9396 9.07195C42.9396 9.19995 42.8756 9.26395 42.7476 9.26395C42.5076 9.26395 42.2676 9.25995 42.0276 9.25195C41.7876 9.23595 41.5476 9.22795 41.3076 9.22795C41.0596 9.22795 40.8076 9.23595 40.5516 9.25195C40.3036 9.26795 40.0516 9.27595 39.7956 9.27595C39.7636 9.27595 39.7396 9.25195 39.7236 9.20395C39.7156 9.15595 39.7116 9.11595 39.7116 9.08395C39.7116 9.00395 39.7436 8.95995 39.8076 8.95195C39.8956 8.93595 39.9876 8.93195 40.0836 8.93995C40.1796 8.94795 40.2676 8.95195 40.3476 8.95195C40.4676 8.95195 40.5636 8.92795 40.6356 8.87995C40.7156 8.82395 40.7596 8.73195 40.7676 8.60395C40.7836 8.34795 40.7916 8.08795 40.7916 7.82395C40.7996 7.55995 40.8036 7.29595 40.8036 7.03195V5.86795C40.7956 5.52395 40.7916 5.18395 40.7916 4.84795C40.7996 4.50395 40.7876 4.16395 40.7556 3.82795C40.7476 3.66795 40.7036 3.55595 40.6236 3.49195C40.5436 3.41995 40.4236 3.38395 40.2636 3.38395C40.1996 3.38395 40.1316 3.39195 40.0596 3.40795C39.9956 3.41595 39.9276 3.41995 39.8556 3.41995C39.7916 3.41995 39.7596 3.37195 39.7596 3.27595C39.7596 3.21995 39.7876 3.17995 39.8436 3.15595C39.9236 3.13195 40.0076 3.11595 40.0956 3.10795C40.1836 3.09195 40.2676 3.07995 40.3476 3.07195C40.5636 3.03195 40.7796 2.99195 40.9956 2.95195C41.2116 2.91195 41.4276 2.86395 41.6436 2.80795C41.7156 2.83195 41.7676 2.87595 41.7996 2.93995C41.8156 2.97195 41.8276 3.05995 41.8356 3.20395C41.8436 3.34795 41.8476 3.51595 41.8476 3.70795C41.8476 3.89195 41.8476 4.06795 41.8476 4.23595C41.8476 4.39595 41.8476 4.50795 41.8476 4.57195C42.0236 4.29195 42.2236 4.01195 42.4476 3.73195C42.6716 3.45195 42.9276 3.21995 43.2156 3.03595C43.5036 2.85195 43.8276 2.75995 44.1876 2.75995C44.3796 2.75995 44.5036 2.81995 44.5596 2.93995C44.6156 3.05995 44.6516 3.19995 44.6676 3.35995C44.6836 3.44795 44.6956 3.53995 44.7036 3.63595C44.7196 3.73195 44.7276 3.82395 44.7276 3.91195ZM50.4916 6.08395C50.4916 5.73995 50.4636 5.39595 50.4076 5.05195C50.3596 4.69995 50.2636 4.37595 50.1196 4.07995C49.9836 3.78395 49.7836 3.54795 49.5196 3.37195C49.2556 3.18795 48.9116 3.09595 48.4876 3.09595C48.0876 3.09595 47.7596 3.19195 47.5036 3.38395C47.2556 3.57595 47.0596 3.82395 46.9156 4.12795C46.7796 4.43195 46.6836 4.75995 46.6276 5.11195C46.5796 5.46395 46.5556 5.79595 46.5556 6.10795C46.5556 6.45195 46.5796 6.79595 46.6276 7.13995C46.6836 7.48395 46.7836 7.79595 46.9276 8.07595C47.0716 8.34795 47.2756 8.56795 47.5396 8.73595C47.8116 8.90395 48.1596 8.98795 48.5836 8.98795C48.9996 8.98795 49.3316 8.89995 49.5796 8.72395C49.8356 8.54795 50.0276 8.31595 50.1556 8.02795C50.2916 7.73995 50.3796 7.42795 50.4196 7.09195C50.4676 6.74795 50.4916 6.41195 50.4916 6.08395ZM51.7276 6.11995C51.7276 6.71995 51.5836 7.25995 51.2956 7.73995C51.0156 8.21995 50.6316 8.59995 50.1436 8.87995C49.6636 9.15995 49.1236 9.29995 48.5236 9.29995C47.9396 9.29995 47.4116 9.15995 46.9396 8.87995C46.4676 8.59195 46.0916 8.21195 45.8116 7.73995C45.5316 7.25995 45.3916 6.72795 45.3916 6.14395C45.3916 5.54395 45.5276 4.99195 45.7996 4.48795C46.0716 3.97595 46.4436 3.56395 46.9156 3.25195C47.3956 2.93995 47.9476 2.78395 48.5716 2.78395C49.2436 2.78395 49.8156 2.92795 50.2876 3.21595C50.7596 3.49595 51.1156 3.88795 51.3556 4.39195C51.6036 4.88795 51.7276 5.46395 51.7276 6.11995Z" fill="#2A7420"/>
</svg>
