<svg width="70" height="15" viewBox="0 0 70 15" fill="none" xmlns="http://www.w3.org/2000/svg">
<path d="M7.00489 3.79512C7.00489 2.91512 6.77489 2.31512 6.31489 1.99512C5.86489 1.66512 5.22989 1.50012 4.40989 1.50012H3.91489C3.81489 1.50012 3.68989 1.51012 3.53989 1.53012C3.39989 1.54012 3.26989 1.57512 3.14989 1.63512C3.03989 1.68512 2.98489 1.78012 2.98489 1.92012V6.09012C3.09489 6.13012 3.21989 6.15512 3.35989 6.16512C3.49989 6.17512 3.62989 6.18012 3.74989 6.18012C4.14989 6.18012 4.53989 6.14512 4.91989 6.07512C5.30989 6.00512 5.65989 5.88512 5.96989 5.71512C6.28989 5.54512 6.53989 5.30512 6.71989 4.99512C6.90989 4.68512 7.00489 4.28512 7.00489 3.79512ZM10.2899 11.8801C10.2899 11.9501 10.2199 12.0051 10.0799 12.0451C9.93989 12.0851 9.77489 12.1101 9.58489 12.1201C9.39489 12.1401 9.21489 12.1501 9.04489 12.1501C8.88489 12.1501 8.77489 12.1501 8.71489 12.1501C8.31489 12.1501 7.99489 12.1101 7.75489 12.0301C7.51489 11.9401 7.27989 11.7151 7.04989 11.3551C6.55989 10.5651 6.08489 9.76512 5.62489 8.95512C5.17489 8.14512 4.72489 7.33012 4.27489 6.51012L2.98489 6.55512V11.3101C2.98489 11.4601 3.04489 11.5601 3.16489 11.6101C3.28489 11.6601 3.40489 11.6851 3.52489 11.6851C3.66489 11.6851 3.79989 11.6801 3.92989 11.6701C4.05989 11.6601 4.18989 11.6551 4.31989 11.6551C4.38989 11.6551 4.42989 11.6851 4.43989 11.7451C4.45989 11.8051 4.46989 11.8601 4.46989 11.9101C4.46989 11.9901 4.44489 12.0451 4.39489 12.0751C4.35489 12.0951 4.29989 12.1051 4.22989 12.1051C3.78989 12.1051 3.34489 12.1001 2.89489 12.0901C2.44489 12.0701 1.99989 12.0601 1.55989 12.0601C1.31989 12.0601 1.07989 12.0701 0.839893 12.0901C0.609893 12.1001 0.374893 12.1051 0.134893 12.1051C0.0748926 12.1051 0.0348926 12.0801 0.0148926 12.0301C0.00489258 11.9701 -0.000107419 11.9201 -0.000107419 11.8801C-0.000107419 11.7501 0.0548926 11.6851 0.164893 11.6851C0.254893 11.6851 0.339893 11.6901 0.419893 11.7001C0.509893 11.7001 0.594893 11.7001 0.674893 11.7001C0.824893 11.7001 0.984893 11.6851 1.15489 11.6551C1.33489 11.6151 1.43489 11.5001 1.45489 11.3101C1.47489 11.0601 1.47989 10.7701 1.46989 10.4401C1.46989 10.1001 1.46989 9.80512 1.46989 9.55512C1.46989 9.22512 1.46989 8.89512 1.46989 8.56512C1.46989 8.22512 1.46989 7.89012 1.46989 7.56012C1.46989 6.87012 1.46989 6.18012 1.46989 5.49012C1.47989 4.80012 1.48489 4.11012 1.48489 3.42012C1.48489 3.17012 1.48489 2.92012 1.48489 2.67012C1.48489 2.41012 1.47489 2.16012 1.45489 1.92012C1.43489 1.72012 1.32989 1.61012 1.13989 1.59012C0.959893 1.56012 0.794893 1.54512 0.644893 1.54512C0.584893 1.54512 0.524893 1.55012 0.464893 1.56012C0.404893 1.56012 0.344893 1.56012 0.284893 1.56012C0.134893 1.56012 0.0598926 1.47512 0.0598926 1.30512C0.0598926 1.19512 0.109893 1.14012 0.209893 1.14012C0.549893 1.14012 0.884893 1.15012 1.21489 1.17012C1.55489 1.19012 1.89489 1.20012 2.23489 1.20012C2.70489 1.20012 3.16989 1.18012 3.62989 1.14012C4.08989 1.10012 4.54989 1.08012 5.00989 1.08012C5.38989 1.08012 5.78989 1.12012 6.20989 1.20012C6.63989 1.28012 7.03989 1.41012 7.40989 1.59012C7.77989 1.77012 8.07989 2.02012 8.30989 2.34012C8.54989 2.65012 8.66989 3.04512 8.66989 3.52512C8.66989 4.12512 8.49989 4.64512 8.15989 5.08512C7.82989 5.51512 7.39989 5.85012 6.86989 6.09012C6.67989 6.18012 6.48489 6.25012 6.28489 6.30012C6.08489 6.34012 5.88489 6.38012 5.68489 6.42012C6.14489 7.20012 6.62489 7.97012 7.12489 8.73012C7.63489 9.49012 8.14989 10.2401 8.66989 10.9801C8.81989 11.1901 8.97489 11.3601 9.13489 11.4901C9.30489 11.6101 9.51489 11.6951 9.76489 11.7451C9.82489 11.7551 9.92489 11.7601 10.0649 11.7601C10.2149 11.7601 10.2899 11.8001 10.2899 11.8801ZM17.6254 9.46512C17.6254 9.04512 17.5304 8.69512 17.3404 8.41512C17.1504 8.13512 16.9054 7.89512 16.6054 7.69512C16.3154 7.48512 16.0104 7.29012 15.6904 7.11012V11.7001C16.2804 11.5001 16.7504 11.2451 17.1004 10.9351C17.4504 10.6251 17.6254 10.1351 17.6254 9.46512ZM15.1504 1.32012C14.5804 1.44012 14.1254 1.64012 13.7854 1.92012C13.4554 2.20012 13.2904 2.65512 13.2904 3.28512C13.2904 3.64512 13.3854 3.96012 13.5754 4.23012C13.7754 4.50012 14.0154 4.73512 14.2954 4.93512C14.5854 5.13512 14.8704 5.32012 15.1504 5.49012V1.32012ZM19.1404 9.24012C19.1404 9.74012 19.0404 10.1651 18.8404 10.5151C18.6504 10.8551 18.3854 11.1401 18.0454 11.3701C17.7154 11.5901 17.3454 11.7601 16.9354 11.8801C16.5254 12.0001 16.1104 12.0851 15.6904 12.1351V13.2601H15.1504V12.1651C14.8504 12.1551 14.5604 12.1351 14.2804 12.1051C14.0004 12.0651 13.7204 11.9951 13.4404 11.8951C13.2304 11.8151 13.0254 11.7251 12.8254 11.6251C12.6354 11.5151 12.4254 11.4401 12.1954 11.4001C12.1454 11.0501 12.0754 10.6701 11.9854 10.2601C11.8954 9.84012 11.8504 9.46012 11.8504 9.12012C11.8504 8.97012 11.9404 8.89512 12.1204 8.89512C12.2504 8.89512 12.3354 8.93012 12.3754 9.00012C12.4254 9.06012 12.4604 9.14512 12.4804 9.25512C12.5004 9.38512 12.5204 9.51012 12.5404 9.63012C12.5704 9.75012 12.6054 9.87512 12.6454 10.0051C12.8354 10.6151 13.1454 11.0401 13.5754 11.2801C14.0154 11.5101 14.5404 11.6501 15.1504 11.7001V6.84012C14.7704 6.65012 14.3854 6.46512 13.9954 6.28512C13.6854 6.13512 13.3704 5.94012 13.0504 5.70012C12.7404 5.46012 12.4804 5.18012 12.2704 4.86012C12.0704 4.54012 11.9704 4.19012 11.9704 3.81012C11.9704 3.20012 12.1204 2.70012 12.4204 2.31012C12.7304 1.91012 13.1254 1.60512 13.6054 1.39512C14.0954 1.18512 14.6104 1.06012 15.1504 1.02012V0.000116765H15.6904V1.03512C15.9704 1.04512 16.2304 1.08512 16.4704 1.15512C16.7204 1.22512 16.9704 1.32012 17.2204 1.44012C17.3704 1.51012 17.5454 1.56012 17.7454 1.59012C17.9454 1.62012 18.1254 1.64512 18.2854 1.66512C18.2954 1.81512 18.3104 2.00512 18.3304 2.23512C18.3504 2.45512 18.3754 2.68012 18.4054 2.91012C18.4354 3.13012 18.4654 3.31012 18.4954 3.45012C18.5254 3.52012 18.5404 3.60012 18.5404 3.69012C18.5404 3.84012 18.5004 3.94012 18.4204 3.99012C18.3404 4.03012 18.2354 4.05012 18.1054 4.05012C18.0254 4.05012 17.9654 4.04012 17.9254 4.02012C17.8954 4.00012 17.8704 3.95512 17.8504 3.88512C17.8204 3.74512 17.7954 3.60512 17.7754 3.46512C17.7554 3.32512 17.7254 3.19012 17.6854 3.06012C17.5554 2.60012 17.3004 2.22012 16.9204 1.92012C16.5504 1.62012 16.1404 1.42012 15.6904 1.32012V5.73012C16.0904 5.91012 16.4904 6.10012 16.8904 6.30012C17.3004 6.49012 17.6754 6.71512 18.0154 6.97512C18.3554 7.23512 18.6254 7.55012 18.8254 7.92012C19.0354 8.28012 19.1404 8.72012 19.1404 9.24012ZM28.0233 11.8951C28.0233 12.0551 27.9483 12.1351 27.7983 12.1351C27.7283 12.1351 27.6533 12.1301 27.5733 12.1201C27.4933 12.1101 27.4133 12.1051 27.3333 12.1051C27.2433 12.1051 27.1483 12.1051 27.0483 12.1051C26.9583 12.0951 26.8633 12.0901 26.7633 12.0901C26.5433 12.0801 26.3183 12.0801 26.0883 12.0901C25.8683 12.0901 25.6483 12.0901 25.4283 12.0901C25.1283 12.0901 24.8333 12.0901 24.5433 12.0901C24.2533 12.0901 23.9583 12.0951 23.6583 12.1051C23.5883 12.1151 23.4983 12.1201 23.3883 12.1201C23.2883 12.1201 23.2083 12.1201 23.1483 12.1201C23.0283 12.1201 22.9683 12.0451 22.9683 11.8951C22.9683 11.8451 22.9733 11.8001 22.9833 11.7601C23.0033 11.7101 23.0433 11.6851 23.1033 11.6851C23.1633 11.6851 23.2183 11.6901 23.2683 11.7001C23.3283 11.7001 23.3883 11.7001 23.4483 11.7001C23.5483 11.7001 23.6933 11.7001 23.8833 11.7001C24.0833 11.6901 24.2683 11.6601 24.4383 11.6101C24.6083 11.5501 24.6933 11.4501 24.6933 11.3101C24.6933 10.5001 24.6983 9.69012 24.7083 8.88012C24.7183 8.06012 24.7233 7.24512 24.7233 6.43512C24.7233 5.74512 24.7233 5.05512 24.7233 4.36512C24.7233 3.67512 24.7233 2.98012 24.7233 2.28012C24.7233 2.15012 24.6583 2.08512 24.5283 2.08512C24.4683 2.08512 24.3433 2.12012 24.1533 2.19012C23.9733 2.26012 23.7683 2.34012 23.5383 2.43012C23.3083 2.52012 23.0983 2.60012 22.9083 2.67012C22.7283 2.74012 22.6133 2.77512 22.5633 2.77512C22.4733 2.77512 22.4083 2.73512 22.3683 2.65512C22.3383 2.57512 22.3233 2.50012 22.3233 2.43012C22.3233 2.37012 22.3533 2.32012 22.4133 2.28012C22.4733 2.23012 22.5283 2.20012 22.5783 2.19012C22.8583 2.12012 23.1233 2.04012 23.3733 1.95012C23.6233 1.85012 23.8833 1.75512 24.1533 1.66512C24.3633 1.59512 24.5833 1.52012 24.8133 1.44012C25.0433 1.35012 25.2583 1.26512 25.4583 1.18512C25.4983 1.16512 25.5683 1.14012 25.6683 1.11012C25.7683 1.08012 25.8683 1.05012 25.9683 1.02012C26.0783 0.990117 26.1433 0.975117 26.1633 0.975117C26.2233 0.975117 26.2683 0.985117 26.2983 1.00512C26.3283 1.01512 26.3433 1.06512 26.3433 1.15512C26.3433 1.37512 26.3383 1.59512 26.3283 1.81512C26.3283 2.02512 26.3233 2.24012 26.3133 2.46012C26.3033 3.07012 26.2933 3.71512 26.2833 4.39512C26.2833 5.07512 26.2783 5.74512 26.2683 6.40512C26.2683 7.13512 26.2683 7.86012 26.2683 8.58012C26.2683 9.30012 26.2683 10.0251 26.2683 10.7551C26.2683 10.8451 26.2683 10.9401 26.2683 11.0401C26.2783 11.1301 26.2833 11.2201 26.2833 11.3101C26.2933 11.4501 26.3733 11.5501 26.5233 11.6101C26.6833 11.6601 26.8533 11.6851 27.0333 11.6851C27.2233 11.6851 27.3583 11.6851 27.4383 11.6851C27.5183 11.6851 27.5933 11.6801 27.6633 11.6701C27.7333 11.6601 27.8033 11.6551 27.8733 11.6551C27.9333 11.6551 27.9733 11.6851 27.9933 11.7451C28.0133 11.7951 28.0233 11.8451 28.0233 11.8951ZM37.6809 8.23512C37.6809 8.70512 37.5859 9.20512 37.3959 9.73512C37.2059 10.2651 36.9309 10.6901 36.5709 11.0101C36.1709 11.3601 35.6909 11.6301 35.1309 11.8201C34.5709 12.0101 34.0259 12.1051 33.4959 12.1051C33.2459 12.1051 32.9459 12.0751 32.5959 12.0151C32.2459 11.9451 31.9009 11.8451 31.5609 11.7151C31.2209 11.5751 30.9359 11.3951 30.7059 11.1751C30.4759 10.9451 30.3609 10.6701 30.3609 10.3501C30.3609 10.1301 30.4359 9.96012 30.5859 9.84012C30.7359 9.71012 30.9159 9.64512 31.1259 9.64512C31.3059 9.64512 31.4659 9.69012 31.6059 9.78012C31.7459 9.87012 31.8209 10.0151 31.8309 10.2151C31.8709 10.6751 32.0009 11.0301 32.2209 11.2801C32.4509 11.5301 32.8109 11.6551 33.3009 11.6551C33.9909 11.6551 34.5509 11.4951 34.9809 11.1751C35.4109 10.8451 35.7309 10.3501 35.9409 9.69012C36.0109 9.46012 36.0509 9.22512 36.0609 8.98512C36.0809 8.73512 36.0909 8.49012 36.0909 8.25012C36.0909 7.92012 36.0509 7.56512 35.9709 7.18512C35.9009 6.79512 35.7659 6.46512 35.5659 6.19512C35.3959 5.96512 35.1759 5.81012 34.9059 5.73012C34.6459 5.65012 34.3759 5.61012 34.0959 5.61012C33.8759 5.61012 33.6359 5.65012 33.3759 5.73012C33.1159 5.80012 32.9009 5.90512 32.7309 6.04512C32.5609 6.18512 32.4059 6.36512 32.2659 6.58512C32.1259 6.79512 32.0459 7.01512 32.0259 7.24512C32.0159 7.30512 32.0059 7.38012 31.9959 7.47012C31.9859 7.56012 31.9359 7.60512 31.8459 7.60512C31.7959 7.60512 31.6909 7.58512 31.5309 7.54512C31.3809 7.49512 31.2359 7.44012 31.0959 7.38012C30.9659 7.31012 30.9009 7.25012 30.9009 7.20012C30.9009 7.17012 30.9059 7.14012 30.9159 7.11012C30.9259 7.08012 30.9359 7.05012 30.9459 7.02012C31.0159 6.79012 31.0709 6.50512 31.1109 6.16512C31.1609 5.81512 31.1959 5.45012 31.2159 5.07012C31.2359 4.68012 31.2509 4.30512 31.2609 3.94512C31.2709 3.58512 31.2759 3.28012 31.2759 3.03012C31.2759 2.44012 31.2459 1.84512 31.1859 1.24512C31.4959 1.28512 31.8009 1.31512 32.1009 1.33512C32.4109 1.35512 32.7209 1.36512 33.0309 1.36512H35.1759C35.4359 1.36512 35.7359 1.35012 36.0759 1.32012C36.4259 1.29012 36.7159 1.21012 36.9459 1.08012C36.9959 1.05012 37.0509 1.02012 37.1109 0.990117C37.1809 0.950116 37.2409 0.930116 37.2909 0.930116C37.3209 0.930116 37.3659 0.935116 37.4259 0.945116C37.4859 0.945116 37.5159 0.970116 37.5159 1.02012C37.5159 1.07012 37.4809 1.17512 37.4109 1.33512C37.3409 1.48512 37.2659 1.64012 37.1859 1.80012C37.1059 1.96012 37.0509 2.06512 37.0209 2.11512C36.9809 2.18512 36.9309 2.23012 36.8709 2.25012C36.8109 2.27012 36.7409 2.28012 36.6609 2.28012C36.5309 2.28012 36.3959 2.28012 36.2559 2.28012C36.1259 2.27012 35.9909 2.26012 35.8509 2.25012C35.6809 2.23012 35.5059 2.22512 35.3259 2.23512C35.1459 2.23512 34.9709 2.23512 34.8009 2.23512C34.5209 2.23512 34.2409 2.23512 33.9609 2.23512C33.6809 2.22512 33.3959 2.22012 33.1059 2.22012C32.9359 2.22012 32.7609 2.22012 32.5809 2.22012C32.4109 2.22012 32.2409 2.22512 32.0709 2.23512C32.0609 2.86512 32.0359 3.50012 31.9959 4.14012C31.9659 4.77012 31.9359 5.40012 31.9059 6.03012C32.3659 5.71012 32.7909 5.47512 33.1809 5.32512C33.5809 5.16512 34.0609 5.08512 34.6209 5.08512C35.0009 5.08512 35.3659 5.14012 35.7159 5.25012C36.0759 5.36012 36.3959 5.54512 36.6759 5.80512C36.9959 6.10512 37.2409 6.47512 37.4109 6.91512C37.5909 7.35512 37.6809 7.79512 37.6809 8.23512ZM44.9686 6.69012C44.9686 6.40012 44.9586 6.04512 44.9386 5.62512C44.9286 5.19512 44.8936 4.74512 44.8336 4.27512C44.7736 3.80512 44.6686 3.36512 44.5186 2.95512C44.3686 2.54512 44.1636 2.21512 43.9036 1.96512C43.6436 1.70512 43.3036 1.57512 42.8836 1.57512C42.5036 1.57512 42.1836 1.71012 41.9236 1.98012C41.6636 2.24012 41.4536 2.58512 41.2936 3.01512C41.1336 3.43512 41.0086 3.88512 40.9186 4.36512C40.8386 4.83512 40.7836 5.29012 40.7536 5.73012C40.7236 6.16012 40.7086 6.51012 40.7086 6.78012C40.7086 7.05012 40.7186 7.39012 40.7386 7.80012C40.7686 8.20012 40.8186 8.62512 40.8886 9.07512C40.9586 9.51512 41.0686 9.93012 41.2186 10.3201C41.3786 10.7101 41.5836 11.0301 41.8336 11.2801C42.0836 11.5201 42.3986 11.6401 42.7786 11.6401C43.1786 11.6401 43.5086 11.5201 43.7686 11.2801C44.0286 11.0301 44.2386 10.7101 44.3986 10.3201C44.5586 9.92012 44.6786 9.49512 44.7586 9.04512C44.8486 8.58512 44.9036 8.15012 44.9236 7.74012C44.9536 7.32012 44.9686 6.97012 44.9686 6.69012ZM46.5286 6.49512C46.5286 6.95512 46.4836 7.44012 46.3936 7.95012C46.3136 8.46012 46.1836 8.96012 46.0036 9.45012C45.8236 9.94012 45.5836 10.3851 45.2836 10.7851C44.9936 11.1851 44.6386 11.5051 44.2186 11.7451C43.7986 11.9751 43.3086 12.0901 42.7486 12.0901C42.0786 12.0901 41.5136 11.9251 41.0536 11.5951C40.6036 11.2551 40.2436 10.8201 39.9736 10.2901C39.7036 9.76012 39.5086 9.19512 39.3886 8.59512C39.2686 7.98512 39.2086 7.41012 39.2086 6.87012C39.2086 6.41012 39.2486 5.92012 39.3286 5.40012C39.4086 4.87012 39.5386 4.35512 39.7186 3.85512C39.8986 3.35512 40.1336 2.90012 40.4236 2.49012C40.7236 2.08012 41.0836 1.75512 41.5036 1.51512C41.9336 1.26512 42.4336 1.14012 43.0036 1.14012C43.5436 1.14012 44.0086 1.25512 44.3986 1.48512C44.7986 1.71512 45.1336 2.02012 45.4036 2.40012C45.6836 2.78012 45.9036 3.20512 46.0636 3.67512C46.2236 4.14512 46.3386 4.62512 46.4086 5.11512C46.4886 5.59512 46.5286 6.05512 46.5286 6.49512ZM50.9963 11.3551C50.9963 11.6351 50.9363 11.9501 50.8163 12.3001C50.6963 12.6601 50.5413 13.0001 50.3513 13.3201C50.1713 13.6401 49.9763 13.9001 49.7663 14.1001L49.4963 14.0101C49.6663 13.7301 49.8113 13.3751 49.9313 12.9451C50.0513 12.5151 50.1113 12.1351 50.1113 11.8051V11.7451C49.9313 11.8951 49.7313 11.9701 49.5113 11.9701C49.3413 11.9701 49.1863 11.8801 49.0463 11.7001C48.9063 11.5101 48.8363 11.3351 48.8363 11.1751C48.8363 10.8451 48.9313 10.5651 49.1213 10.3351C49.3113 10.1051 49.5763 9.99012 49.9163 9.99012C50.3263 9.99012 50.6063 10.1301 50.7563 10.4101C50.9163 10.6801 50.9963 10.9951 50.9963 11.3551ZM59.0604 6.69012C59.0604 6.40012 59.0504 6.04512 59.0304 5.62512C59.0204 5.19512 58.9854 4.74512 58.9254 4.27512C58.8654 3.80512 58.7604 3.36512 58.6104 2.95512C58.4604 2.54512 58.2554 2.21512 57.9954 1.96512C57.7354 1.70512 57.3954 1.57512 56.9754 1.57512C56.5954 1.57512 56.2754 1.71012 56.0154 1.98012C55.7554 2.24012 55.5454 2.58512 55.3854 3.01512C55.2254 3.43512 55.1004 3.88512 55.0104 4.36512C54.9304 4.83512 54.8754 5.29012 54.8454 5.73012C54.8154 6.16012 54.8004 6.51012 54.8004 6.78012C54.8004 7.05012 54.8104 7.39012 54.8304 7.80012C54.8604 8.20012 54.9104 8.62512 54.9804 9.07512C55.0504 9.51512 55.1604 9.93012 55.3104 10.3201C55.4704 10.7101 55.6754 11.0301 55.9254 11.2801C56.1754 11.5201 56.4904 11.6401 56.8704 11.6401C57.2704 11.6401 57.6004 11.5201 57.8604 11.2801C58.1204 11.0301 58.3304 10.7101 58.4904 10.3201C58.6504 9.92012 58.7704 9.49512 58.8504 9.04512C58.9404 8.58512 58.9954 8.15012 59.0154 7.74012C59.0454 7.32012 59.0604 6.97012 59.0604 6.69012ZM60.6204 6.49512C60.6204 6.95512 60.5754 7.44012 60.4854 7.95012C60.4054 8.46012 60.2754 8.96012 60.0954 9.45012C59.9154 9.94012 59.6754 10.3851 59.3754 10.7851C59.0854 11.1851 58.7304 11.5051 58.3104 11.7451C57.8904 11.9751 57.4004 12.0901 56.8404 12.0901C56.1704 12.0901 55.6054 11.9251 55.1454 11.5951C54.6954 11.2551 54.3354 10.8201 54.0654 10.2901C53.7954 9.76012 53.6004 9.19512 53.4804 8.59512C53.3604 7.98512 53.3004 7.41012 53.3004 6.87012C53.3004 6.41012 53.3404 5.92012 53.4204 5.40012C53.5004 4.87012 53.6304 4.35512 53.8104 3.85512C53.9904 3.35512 54.2254 2.90012 54.5154 2.49012C54.8154 2.08012 55.1754 1.75512 55.5954 1.51512C56.0254 1.26512 56.5254 1.14012 57.0954 1.14012C57.6354 1.14012 58.1004 1.25512 58.4904 1.48512C58.8904 1.71512 59.2254 2.02012 59.4954 2.40012C59.7754 2.78012 59.9954 3.20512 60.1554 3.67512C60.3154 4.14512 60.4304 4.62512 60.5004 5.11512C60.5804 5.59512 60.6204 6.05512 60.6204 6.49512ZM67.9081 6.69012C67.9081 6.40012 67.8981 6.04512 67.8781 5.62512C67.8681 5.19512 67.8331 4.74512 67.7731 4.27512C67.7131 3.80512 67.6081 3.36512 67.4581 2.95512C67.3081 2.54512 67.1031 2.21512 66.8431 1.96512C66.5831 1.70512 66.2431 1.57512 65.8231 1.57512C65.4431 1.57512 65.1231 1.71012 64.8631 1.98012C64.6031 2.24012 64.3931 2.58512 64.2331 3.01512C64.0731 3.43512 63.9481 3.88512 63.8581 4.36512C63.7781 4.83512 63.7231 5.29012 63.6931 5.73012C63.6631 6.16012 63.6481 6.51012 63.6481 6.78012C63.6481 7.05012 63.6581 7.39012 63.6781 7.80012C63.7081 8.20012 63.7581 8.62512 63.8281 9.07512C63.8981 9.51512 64.0081 9.93012 64.1581 10.3201C64.3181 10.7101 64.5231 11.0301 64.7731 11.2801C65.0231 11.5201 65.3381 11.6401 65.7181 11.6401C66.1181 11.6401 66.4481 11.5201 66.7081 11.2801C66.9681 11.0301 67.1781 10.7101 67.3381 10.3201C67.4981 9.92012 67.6181 9.49512 67.6981 9.04512C67.7881 8.58512 67.8431 8.15012 67.8631 7.74012C67.8931 7.32012 67.9081 6.97012 67.9081 6.69012ZM69.4681 6.49512C69.4681 6.95512 69.4231 7.44012 69.3331 7.95012C69.2531 8.46012 69.1231 8.96012 68.9431 9.45012C68.7631 9.94012 68.5231 10.3851 68.2231 10.7851C67.9331 11.1851 67.5781 11.5051 67.1581 11.7451C66.7381 11.9751 66.2481 12.0901 65.6881 12.0901C65.0181 12.0901 64.4531 11.9251 63.9931 11.5951C63.5431 11.2551 63.1831 10.8201 62.9131 10.2901C62.6431 9.76012 62.4481 9.19512 62.3281 8.59512C62.2081 7.98512 62.1481 7.41012 62.1481 6.87012C62.1481 6.41012 62.1881 5.92012 62.2681 5.40012C62.3481 4.87012 62.4781 4.35512 62.6581 3.85512C62.8381 3.35512 63.0731 2.90012 63.3631 2.49012C63.6631 2.08012 64.0231 1.75512 64.4431 1.51512C64.8731 1.26512 65.3731 1.14012 65.9431 1.14012C66.4831 1.14012 66.9481 1.25512 67.3381 1.48512C67.7381 1.71512 68.0731 2.02012 68.3431 2.40012C68.6231 2.78012 68.8431 3.20512 69.0031 3.67512C69.1631 4.14512 69.2781 4.62512 69.3481 5.11512C69.4281 5.59512 69.4681 6.05512 69.4681 6.49512Z" fill="#3CA67B"/>
</svg>
