<svg width="107" height="14" viewBox="0 0 107 14" fill="none" xmlns="http://www.w3.org/2000/svg">
<path d="M8.88999 5.47404C8.88999 5.08204 8.84799 4.67137 8.76399 4.24204C8.68933 3.80337 8.56799 3.38337 8.39999 2.98204C8.23199 2.5807 8.00799 2.24004 7.72799 1.96004C7.46666 1.6987 7.15866 1.47937 6.80399 1.30204C6.45866 1.11537 6.09933 1.00337 5.72599 0.966037C5.61399 0.94737 5.49733 0.938036 5.37599 0.938036C5.26399 0.938036 5.15199 0.938036 5.03999 0.938036C4.67599 0.938036 4.31199 0.942703 3.94799 0.952036C3.59333 0.96137 3.23399 0.970704 2.86999 0.980037V9.59004C2.86999 9.87004 2.96333 10.052 3.14999 10.136C3.33666 10.22 3.54666 10.262 3.77999 10.262C4.15333 10.262 4.53599 10.248 4.92799 10.22C5.32933 10.192 5.71666 10.1267 6.08999 10.024C6.47266 9.91204 6.82266 9.73937 7.13999 9.50604C7.78399 9.03004 8.23666 8.4327 8.49799 7.71404C8.75933 6.98604 8.88999 6.23937 8.88999 5.47404ZM10.444 5.26404C10.444 6.18804 10.248 7.06537 9.85599 7.89604C9.47333 8.7267 8.88066 9.38937 8.07799 9.88404C7.75133 10.08 7.37333 10.2434 6.94399 10.374C6.52399 10.4954 6.09466 10.584 5.65599 10.64C5.21733 10.696 4.80666 10.724 4.42399 10.724C4.08799 10.724 3.74733 10.7147 3.40199 10.696C3.06599 10.6774 2.72533 10.668 2.37999 10.668C2.10933 10.668 1.83399 10.6727 1.55399 10.682C1.27399 10.682 0.998661 10.6914 0.727994 10.71C0.681328 10.7194 0.634661 10.724 0.587994 10.724C0.541327 10.724 0.494661 10.724 0.447994 10.724C0.391994 10.724 0.359328 10.7007 0.349994 10.654C0.340661 10.6074 0.335994 10.5654 0.335994 10.528C0.335994 10.4627 0.382661 10.416 0.475994 10.388C0.578661 10.36 0.685994 10.3367 0.797994 10.318C0.919328 10.2994 1.00333 10.276 1.04999 10.248C1.20866 10.164 1.31133 10.0427 1.35799 9.88404C1.41399 9.71604 1.44199 9.54804 1.44199 9.38004C1.44199 8.8667 1.44199 8.35804 1.44199 7.85404C1.45133 7.3407 1.45599 6.82737 1.45599 6.31404V5.02604C1.45599 4.5127 1.45599 4.00404 1.45599 3.50004C1.45599 2.99604 1.45599 2.48737 1.45599 1.97404C1.45599 1.61937 1.41399 1.36737 1.32999 1.21804C1.24599 1.0687 1.01266 0.994037 0.629994 0.994037C0.564661 0.994037 0.499328 0.998703 0.433994 1.00804C0.377994 1.00804 0.317327 1.00804 0.251994 1.00804C0.186661 1.00804 0.125994 0.98937 0.0699942 0.952036C0.0233275 0.90537 -5.84498e-06 0.84937 -5.84498e-06 0.784037C-5.84498e-06 0.634703 0.0746608 0.560036 0.223994 0.560036C0.438661 0.560036 0.653328 0.56937 0.867994 0.588037C1.08266 0.59737 1.29266 0.602037 1.49799 0.602037C2.18866 0.602037 2.87933 0.58337 3.56999 0.546036C4.26999 0.49937 4.96533 0.476037 5.65599 0.476037C6.65466 0.476037 7.50866 0.66737 8.21799 1.05004C8.93666 1.4327 9.48733 1.98337 9.86999 2.70204C10.2527 3.41137 10.444 4.26537 10.444 5.26404ZM15.53 10.528C15.53 10.5747 15.516 10.6214 15.488 10.668C15.46 10.7054 15.4227 10.724 15.376 10.724C15.1147 10.724 14.8534 10.7194 14.592 10.71C14.34 10.6914 14.0787 10.682 13.808 10.682H13.43C13.15 10.682 12.87 10.6914 12.59 10.71C12.3194 10.7194 12.0487 10.724 11.778 10.724C11.7407 10.724 11.7127 10.7007 11.694 10.654C11.6847 10.6074 11.68 10.57 11.68 10.542C11.68 10.4954 11.6847 10.4627 11.694 10.444C11.7034 10.416 11.7314 10.3974 11.778 10.388C11.8247 10.3694 11.876 10.3647 11.932 10.374C11.9974 10.374 12.058 10.374 12.114 10.374C12.1794 10.374 12.24 10.3787 12.296 10.388C12.352 10.388 12.4127 10.388 12.478 10.388C12.6087 10.388 12.7254 10.36 12.828 10.304C12.94 10.2387 12.996 10.1314 12.996 9.98204V4.38204C12.996 4.22337 12.968 4.10204 12.912 4.01804C12.856 3.9247 12.7394 3.87804 12.562 3.87804C12.4314 3.87804 12.296 3.88737 12.156 3.90604C12.0254 3.91537 11.8947 3.92937 11.764 3.94804C11.6894 3.94804 11.652 3.90604 11.652 3.82204C11.652 3.7287 11.6894 3.66804 11.764 3.64004C11.876 3.6027 11.9927 3.57937 12.114 3.57004C12.2447 3.55137 12.366 3.5327 12.478 3.51404C12.7394 3.46737 13.0007 3.41604 13.262 3.36004C13.5234 3.30404 13.78 3.24337 14.032 3.17804C14.06 3.1687 14.0974 3.16404 14.144 3.16404C14.2467 3.16404 14.298 3.22004 14.298 3.33204C14.298 4.43337 14.2934 5.53937 14.284 6.65004C14.284 7.7607 14.284 8.87137 14.284 9.98204C14.284 10.1314 14.3494 10.2387 14.48 10.304C14.62 10.36 14.7507 10.388 14.872 10.388C14.9654 10.388 15.0587 10.3834 15.152 10.374C15.2547 10.3647 15.3527 10.36 15.446 10.36C15.4834 10.36 15.5067 10.3834 15.516 10.43C15.5254 10.4767 15.53 10.5094 15.53 10.528ZM14.396 0.840037C14.396 1.07337 14.312 1.27404 14.144 1.44204C13.976 1.6007 13.7754 1.68004 13.542 1.68004C13.3087 1.68004 13.108 1.6007 12.94 1.44204C12.772 1.27404 12.688 1.07337 12.688 0.840037C12.688 0.606703 12.772 0.410703 12.94 0.252037C13.108 0.0840369 13.3087 3.68357e-05 13.542 3.68357e-05C13.7754 3.68357e-05 13.976 0.0840369 14.144 0.252037C14.312 0.410703 14.396 0.606703 14.396 0.840037ZM21.6865 11.186C21.6865 10.8127 21.5792 10.5467 21.3645 10.388C21.1592 10.22 20.9072 10.1127 20.6085 10.066C20.3099 10.01 20.0205 9.96804 19.7405 9.94004L18.1725 9.78604C17.9672 10.01 17.8132 10.234 17.7105 10.458C17.6172 10.6727 17.5705 10.934 17.5705 11.242C17.5705 11.69 17.6779 12.012 17.8925 12.208C18.1165 12.4134 18.3965 12.544 18.7325 12.6C19.0685 12.656 19.4092 12.684 19.7545 12.684C20.0905 12.684 20.4032 12.6374 20.6925 12.544C20.9912 12.4507 21.2292 12.292 21.4065 12.068C21.5932 11.8534 21.6865 11.5594 21.6865 11.186ZM21.0005 5.58604C21.0005 5.2967 20.9679 4.9887 20.9025 4.66204C20.8372 4.33537 20.7065 4.05537 20.5105 3.82204C20.3239 3.5887 20.0485 3.47204 19.6845 3.47204C19.2739 3.47204 18.9565 3.57937 18.7325 3.79404C18.5085 3.99937 18.3545 4.26537 18.2705 4.59204C18.1959 4.90937 18.1585 5.2407 18.1585 5.58604C18.1585 5.95004 18.1912 6.29537 18.2565 6.62204C18.3312 6.93937 18.4759 7.2007 18.6905 7.40604C18.9145 7.61137 19.2459 7.71404 19.6845 7.71404C19.9552 7.71404 20.1745 7.64404 20.3425 7.50404C20.5199 7.36404 20.6552 7.1867 20.7485 6.97204C20.8419 6.74804 20.9072 6.5147 20.9445 6.27204C20.9819 6.02937 21.0005 5.8007 21.0005 5.58604ZM23.4925 3.29004C23.4925 3.48604 23.4505 3.62137 23.3665 3.69604C23.2919 3.76137 23.1892 3.7987 23.0585 3.80804C22.9372 3.80804 22.8065 3.80804 22.6665 3.80804C22.4612 3.80804 22.2512 3.80804 22.0365 3.80804C21.8312 3.7987 21.6212 3.78937 21.4065 3.78004C21.7052 4.01337 21.9245 4.29337 22.0645 4.62004C22.2139 4.9467 22.2885 5.2967 22.2885 5.67004C22.2885 6.12737 22.1579 6.53337 21.8965 6.88804C21.6445 7.23337 21.3179 7.50404 20.9165 7.70004C20.5152 7.89604 20.0999 7.99404 19.6705 7.99404C19.5212 7.99404 19.3765 7.98937 19.2365 7.98004C19.0965 7.96137 18.9519 7.94737 18.8025 7.93804C18.6812 8.05004 18.5412 8.17137 18.3825 8.30204C18.2332 8.4327 18.1585 8.59137 18.1585 8.77804C18.1585 8.92737 18.2285 9.03937 18.3685 9.11404C18.5179 9.17937 18.6812 9.22604 18.8585 9.25404C19.0359 9.28204 19.1759 9.3007 19.2785 9.31004L21.0565 9.43604C21.3739 9.46404 21.6819 9.53404 21.9805 9.64604C22.2885 9.7487 22.5452 9.91204 22.7505 10.136C22.9559 10.3507 23.0585 10.6447 23.0585 11.018C23.0585 11.41 22.9419 11.7367 22.7085 11.998C22.4845 12.2594 22.1905 12.4694 21.8265 12.628C21.4719 12.7867 21.1032 12.8987 20.7205 12.964C20.3379 13.0294 19.9925 13.062 19.6845 13.062C19.4419 13.062 19.1385 13.048 18.7745 13.02C18.4105 13.0014 18.0512 12.9454 17.6965 12.852C17.3419 12.7587 17.0432 12.6094 16.8005 12.404C16.5672 12.208 16.4505 11.9374 16.4505 11.592C16.4505 11.34 16.5112 11.102 16.6325 10.878C16.7539 10.6634 16.9032 10.4627 17.0805 10.276C17.2672 10.0894 17.4492 9.92604 17.6265 9.78604C17.5239 9.73937 17.3839 9.66937 17.2065 9.57604C17.0385 9.47337 16.9545 9.3567 16.9545 9.22604C16.9545 9.06737 17.0385 8.89004 17.2065 8.69404C17.3839 8.49804 17.5752 8.31137 17.7805 8.13404C17.9859 7.94737 18.1445 7.8027 18.2565 7.70004C17.7805 7.47604 17.4259 7.19137 17.1925 6.84604C16.9685 6.49137 16.8565 6.0527 16.8565 5.53004C16.8565 5.0447 16.9919 4.62937 17.2625 4.28404C17.5425 3.92937 17.8925 3.6587 18.3125 3.47204C18.7419 3.27604 19.1759 3.17804 19.6145 3.17804C19.7732 3.17804 19.9319 3.19204 20.0905 3.22004C20.2492 3.2387 20.4032 3.27137 20.5525 3.31804C20.6272 3.3367 20.7065 3.3647 20.7905 3.40204C20.8839 3.43004 20.9679 3.4487 21.0425 3.45804C21.1079 3.46737 21.1685 3.47204 21.2245 3.47204C21.2899 3.47204 21.3552 3.47204 21.4205 3.47204C21.7565 3.47204 22.0785 3.4487 22.3865 3.40204C22.6945 3.34604 22.9699 3.18737 23.2125 2.92604C23.2685 2.87004 23.3152 2.84204 23.3525 2.84204C23.4272 2.84204 23.4692 2.90737 23.4785 3.03804C23.4879 3.15937 23.4925 3.24337 23.4925 3.29004ZM28.0672 10.528C28.0672 10.5747 28.0532 10.6214 28.0252 10.668C27.9972 10.7054 27.9598 10.724 27.9132 10.724C27.6518 10.724 27.3905 10.7194 27.1292 10.71C26.8772 10.6914 26.6158 10.682 26.3452 10.682H25.9672C25.6872 10.682 25.4072 10.6914 25.1272 10.71C24.8565 10.7194 24.5858 10.724 24.3152 10.724C24.2778 10.724 24.2498 10.7007 24.2312 10.654C24.2218 10.6074 24.2172 10.57 24.2172 10.542C24.2172 10.4954 24.2218 10.4627 24.2312 10.444C24.2405 10.416 24.2685 10.3974 24.3152 10.388C24.3618 10.3694 24.4132 10.3647 24.4692 10.374C24.5345 10.374 24.5952 10.374 24.6512 10.374C24.7165 10.374 24.7772 10.3787 24.8332 10.388C24.8892 10.388 24.9498 10.388 25.0152 10.388C25.1458 10.388 25.2625 10.36 25.3652 10.304C25.4772 10.2387 25.5332 10.1314 25.5332 9.98204V4.38204C25.5332 4.22337 25.5052 4.10204 25.4492 4.01804C25.3932 3.9247 25.2765 3.87804 25.0992 3.87804C24.9685 3.87804 24.8332 3.88737 24.6932 3.90604C24.5625 3.91537 24.4318 3.92937 24.3012 3.94804C24.2265 3.94804 24.1892 3.90604 24.1892 3.82204C24.1892 3.7287 24.2265 3.66804 24.3012 3.64004C24.4132 3.6027 24.5298 3.57937 24.6512 3.57004C24.7818 3.55137 24.9032 3.5327 25.0152 3.51404C25.2765 3.46737 25.5378 3.41604 25.7992 3.36004C26.0605 3.30404 26.3172 3.24337 26.5692 3.17804C26.5972 3.1687 26.6345 3.16404 26.6812 3.16404C26.7838 3.16404 26.8352 3.22004 26.8352 3.33204C26.8352 4.43337 26.8305 5.53937 26.8212 6.65004C26.8212 7.7607 26.8212 8.87137 26.8212 9.98204C26.8212 10.1314 26.8865 10.2387 27.0172 10.304C27.1572 10.36 27.2878 10.388 27.4092 10.388C27.5025 10.388 27.5958 10.3834 27.6892 10.374C27.7918 10.3647 27.8898 10.36 27.9832 10.36C28.0205 10.36 28.0438 10.3834 28.0532 10.43C28.0625 10.4767 28.0672 10.5094 28.0672 10.528ZM26.9332 0.840037C26.9332 1.07337 26.8492 1.27404 26.6812 1.44204C26.5132 1.6007 26.3125 1.68004 26.0792 1.68004C25.8458 1.68004 25.6452 1.6007 25.4772 1.44204C25.3092 1.27404 25.2252 1.07337 25.2252 0.840037C25.2252 0.606703 25.3092 0.410703 25.4772 0.252037C25.6452 0.0840369 25.8458 3.68357e-05 26.0792 3.68357e-05C26.3125 3.68357e-05 26.5132 0.0840369 26.6812 0.252037C26.8492 0.410703 26.9332 0.606703 26.9332 0.840037ZM33.5377 10.094C33.5377 10.178 33.4723 10.262 33.3417 10.346C33.2203 10.43 33.071 10.5047 32.8937 10.57C32.7163 10.6354 32.5437 10.6867 32.3757 10.724C32.217 10.7614 32.1003 10.78 32.0257 10.78C31.5403 10.78 31.1623 10.7194 30.8917 10.598C30.6303 10.4767 30.4437 10.276 30.3317 9.99604C30.229 9.71604 30.1777 9.33804 30.1777 8.86204C30.1777 8.08737 30.1777 7.3127 30.1777 6.53804C30.187 5.75404 30.1963 4.9747 30.2057 4.20004H29.1977C29.1323 4.20004 29.0763 4.2187 29.0297 4.25604C28.9923 4.28404 28.9503 4.29804 28.9037 4.29804C28.857 4.29804 28.8337 4.26537 28.8337 4.20004C28.8337 4.1627 28.857 4.08804 28.9037 3.97604C28.9597 3.86404 28.997 3.78937 29.0157 3.75204C29.0437 3.76137 29.0857 3.76604 29.1417 3.76604H30.2337L30.2477 1.98804C30.4623 1.84804 30.6583 1.69404 30.8357 1.52604C31.013 1.3487 31.1903 1.17137 31.3677 0.994037C31.3863 0.97537 31.405 0.96137 31.4237 0.952036C31.4423 0.93337 31.461 0.924037 31.4797 0.924037C31.5637 0.924037 31.6057 0.956703 31.6057 1.02204L31.5217 3.75204C31.8203 3.75204 32.1143 3.74737 32.4037 3.73804C32.7023 3.7287 32.9963 3.72404 33.2857 3.72404C33.407 3.72404 33.4677 3.79404 33.4677 3.93404C33.4677 4.11137 33.3883 4.20004 33.2297 4.20004H31.5217C31.5217 4.90937 31.517 5.62337 31.5077 6.34204C31.5077 7.05137 31.5077 7.76537 31.5077 8.48404V9.56204C31.5077 9.79537 31.6057 9.9587 31.8017 10.052C31.9977 10.136 32.189 10.178 32.3757 10.178C32.637 10.178 32.8937 10.136 33.1457 10.052C33.1737 10.0334 33.2157 10.0147 33.2717 9.99604C33.3277 9.97737 33.3697 9.96804 33.3977 9.96804C33.491 9.96804 33.5377 10.01 33.5377 10.094ZM39.3626 5.82404C39.3533 5.44137 39.3206 5.07737 39.2646 4.73204C39.2086 4.37737 39.0733 4.08804 38.8586 3.86404C38.644 3.6307 38.294 3.51404 37.8086 3.51404C37.37 3.51404 37.0106 3.63537 36.7306 3.87804C36.46 4.11137 36.25 4.41004 36.1006 4.77404C35.9513 5.1287 35.8393 5.4927 35.7646 5.86604C35.998 5.87537 36.2266 5.8847 36.4506 5.89404C36.6746 5.89404 36.8986 5.89404 37.1226 5.89404C37.496 5.89404 37.8693 5.88937 38.2426 5.88004C38.616 5.86137 38.9893 5.8427 39.3626 5.82404ZM40.9726 9.03004C40.9726 9.0767 40.9633 9.1047 40.9446 9.11404C40.9166 9.20737 40.8466 9.31937 40.7346 9.45004C40.632 9.5807 40.5153 9.7067 40.3846 9.82804C40.254 9.94004 40.1466 10.024 40.0626 10.08C39.7546 10.2947 39.4046 10.4674 39.0126 10.598C38.63 10.7287 38.2473 10.794 37.8646 10.794C37.5473 10.794 37.1926 10.7427 36.8006 10.64C36.418 10.5374 36.0913 10.3974 35.8206 10.22C35.298 9.8747 34.9153 9.42204 34.6726 8.86204C34.43 8.30204 34.3086 7.7187 34.3086 7.11204C34.3086 6.42137 34.444 5.78204 34.7146 5.19404C34.9853 4.60604 35.4193 4.13004 36.0166 3.76604C36.2873 3.60737 36.5906 3.4767 36.9266 3.37404C37.2626 3.26204 37.5846 3.20604 37.8926 3.20604C38.4433 3.20604 38.9286 3.31804 39.3486 3.54204C39.7686 3.76604 40.0953 4.08337 40.3286 4.49404C40.5713 4.89537 40.6926 5.37604 40.6926 5.93604C40.6926 6.0947 40.6553 6.19737 40.5806 6.24404C40.5153 6.2907 40.4126 6.31404 40.2726 6.31404C40.086 6.31404 39.8993 6.30937 39.7126 6.30004C39.526 6.2907 39.3393 6.28137 39.1526 6.27204C38.8913 6.25337 38.63 6.24404 38.3686 6.24404C38.1166 6.24404 37.86 6.24404 37.5986 6.24404C37.2813 6.24404 36.964 6.24404 36.6466 6.24404C36.3293 6.24404 36.012 6.25337 35.6946 6.27204C35.6853 6.42137 35.676 6.56604 35.6666 6.70604C35.6573 6.84604 35.6526 6.9907 35.6526 7.14004C35.6526 7.48537 35.6946 7.8447 35.7786 8.21804C35.8626 8.58204 35.998 8.9227 36.1846 9.24004C36.3713 9.54804 36.6093 9.80004 36.8986 9.99604C37.188 10.1827 37.538 10.276 37.9486 10.276C38.3686 10.276 38.77 10.2107 39.1526 10.08C39.5353 9.94937 39.8853 9.73937 40.2026 9.45004C40.2866 9.36604 40.3613 9.27737 40.4266 9.18404C40.5013 9.08137 40.5806 8.9927 40.6646 8.91804C40.7113 8.87137 40.7626 8.84804 40.8186 8.84804C40.8653 8.84804 40.9026 8.8667 40.9306 8.90404C40.9586 8.94137 40.9726 8.98337 40.9726 9.03004ZM50.5755 8.73604C50.5755 9.15604 50.4822 9.50137 50.2955 9.77204C50.1089 10.0334 49.8662 10.234 49.5675 10.374C49.2689 10.514 48.9422 10.612 48.5875 10.668C48.2329 10.724 47.8875 10.752 47.5515 10.752C47.2435 10.752 46.9355 10.7194 46.6275 10.654C46.3289 10.5887 46.0255 10.542 45.7175 10.514C45.6522 10.262 45.5869 10.01 45.5215 9.75804C45.4655 9.50604 45.4002 9.2587 45.3255 9.01604C45.3162 8.98804 45.2929 8.9227 45.2555 8.82004C45.2275 8.71737 45.2135 8.66137 45.2135 8.65204C45.2135 8.57737 45.2369 8.52604 45.2835 8.49804C45.3302 8.4607 45.3862 8.44204 45.4515 8.44204C45.5169 8.44204 45.5635 8.46537 45.5915 8.51204C45.6475 8.57737 45.6942 8.66604 45.7315 8.77804C45.7782 8.89004 45.8202 8.98804 45.8575 9.07204C45.9322 9.22137 45.9975 9.33804 46.0535 9.42204C46.1095 9.4967 46.1982 9.5947 46.3195 9.71604C46.6835 10.0987 47.1362 10.29 47.6775 10.29C47.9762 10.29 48.2469 10.2574 48.4895 10.192C48.7415 10.1267 48.9422 10.0054 49.0915 9.82804C49.2409 9.64137 49.3155 9.37537 49.3155 9.03004C49.3155 8.73137 49.2222 8.48404 49.0355 8.28804C48.8489 8.0827 48.6062 7.9007 48.3075 7.74204C48.0182 7.58337 47.7102 7.42937 47.3835 7.28004C47.0569 7.1307 46.7442 6.96737 46.4455 6.79004C46.1562 6.60337 45.9182 6.37937 45.7315 6.11804C45.5449 5.8567 45.4515 5.53937 45.4515 5.16604C45.4515 4.7087 45.5682 4.33537 45.8015 4.04604C46.0442 3.7567 46.3522 3.54204 46.7255 3.40204C47.0989 3.2527 47.4862 3.17804 47.8875 3.17804C48.1489 3.17804 48.3822 3.2107 48.5875 3.27604C48.8022 3.34137 49.0262 3.41604 49.2595 3.50004C49.3342 3.52804 49.4089 3.5467 49.4835 3.55604C49.5582 3.56537 49.6329 3.57004 49.7075 3.57004C49.7542 3.57004 49.7962 3.57004 49.8335 3.57004C49.8709 3.57004 49.9082 3.56537 49.9455 3.55604C49.9735 3.72404 49.9969 3.8967 50.0155 4.07404C50.0435 4.24204 50.0669 4.4147 50.0855 4.59204C50.0949 4.65737 50.1042 4.7367 50.1135 4.83004C50.1322 4.91404 50.1415 4.99337 50.1415 5.06804C50.1415 5.13337 50.1275 5.20337 50.0995 5.27804C50.0715 5.34337 50.0155 5.37604 49.9315 5.37604C49.8662 5.37604 49.8102 5.37137 49.7635 5.36204C49.7262 5.34337 49.6935 5.30137 49.6655 5.23604C49.6189 5.1427 49.5769 5.0447 49.5395 4.94204C49.5115 4.83004 49.4789 4.72737 49.4415 4.63404C49.3202 4.30737 49.1102 4.04604 48.8115 3.85004C48.5129 3.6447 48.1909 3.54204 47.8455 3.54204C47.4069 3.54204 47.0755 3.6727 46.8515 3.93404C46.6275 4.18604 46.5155 4.5267 46.5155 4.95604C46.5155 5.10537 46.5529 5.25004 46.6275 5.39004C46.7115 5.53004 46.8049 5.65137 46.9075 5.75404C47.1035 5.9407 47.3322 6.08537 47.5935 6.18804C47.8642 6.2907 48.1209 6.39337 48.3635 6.49604C48.6809 6.63604 49.0075 6.80404 49.3435 7.00004C49.6889 7.19604 49.9782 7.43404 50.2115 7.71404C50.4542 7.99404 50.5755 8.3347 50.5755 8.73604ZM59.6796 10.36C59.6796 10.472 59.5956 10.556 59.4276 10.612C59.2689 10.668 59.0916 10.7054 58.8956 10.724C58.6996 10.7427 58.5596 10.752 58.4756 10.752C58.1583 10.752 57.9063 10.626 57.7196 10.374C57.5329 10.122 57.3929 9.8607 57.2996 9.59004C56.9823 9.99137 56.5856 10.29 56.1096 10.486C55.6336 10.682 55.1389 10.78 54.6256 10.78C53.7856 10.78 53.2023 10.5654 52.8756 10.136C52.5583 9.69737 52.3996 9.08137 52.3996 8.28804C52.3996 7.58804 52.3996 6.88804 52.3996 6.18804C52.4089 5.4787 52.4183 4.77404 52.4276 4.07404C52.4276 3.79404 52.2923 3.65404 52.0216 3.65404C51.9469 3.65404 51.8723 3.6587 51.7976 3.66804C51.7229 3.67737 51.6483 3.68204 51.5736 3.68204C51.5456 3.68204 51.5223 3.66804 51.5036 3.64004C51.4943 3.6027 51.4896 3.5747 51.4896 3.55604C51.4896 3.45337 51.5363 3.39737 51.6296 3.38804C51.9563 3.3507 52.2829 3.32737 52.6096 3.31804C52.9456 3.29937 53.2769 3.27137 53.6036 3.23404C53.6783 3.3087 53.7156 3.40204 53.7156 3.51404C53.7156 3.74737 53.7109 3.98537 53.7016 4.22804C53.6923 4.4707 53.6876 4.71337 53.6876 4.95604C53.6783 5.52537 53.6689 6.09937 53.6596 6.67804C53.6596 7.24737 53.6596 7.82137 53.6596 8.40004C53.6596 8.57737 53.6643 8.7687 53.6736 8.97404C53.6829 9.17004 53.7203 9.35204 53.7856 9.52004C53.8883 9.78137 54.0796 9.96804 54.3596 10.08C54.6489 10.1827 54.9243 10.234 55.1856 10.234C55.4749 10.234 55.7643 10.1827 56.0536 10.08C56.3523 9.96804 56.6043 9.80937 56.8096 9.60404C57.0243 9.38937 57.1456 9.12337 57.1736 8.80604C57.1923 8.64737 57.2016 8.4887 57.2016 8.33004C57.2109 8.16204 57.2156 7.9987 57.2156 7.84004L57.2016 4.03204C57.2016 3.9107 57.1596 3.82204 57.0756 3.76604C57.0009 3.71004 56.9123 3.68204 56.8096 3.68204C56.7163 3.68204 56.6229 3.6867 56.5296 3.69604C56.4456 3.70537 56.3569 3.71004 56.2636 3.71004C56.1796 3.71004 56.1376 3.66337 56.1376 3.57004C56.1376 3.4767 56.1796 3.42537 56.2636 3.41604C56.3756 3.39737 56.4923 3.38804 56.6136 3.38804C56.7349 3.3787 56.8563 3.36937 56.9776 3.36004L57.9436 3.26204C58.0089 3.2527 58.0743 3.24337 58.1396 3.23404C58.2143 3.2247 58.2843 3.22004 58.3496 3.22004C58.3963 3.22004 58.4289 3.24804 58.4476 3.30404C58.4663 3.3507 58.4756 3.38804 58.4756 3.41604C58.4476 5.44137 58.4336 7.46204 58.4336 9.47804C58.4336 9.71137 58.4849 9.9027 58.5876 10.052C58.6996 10.2014 58.8816 10.276 59.1336 10.276C59.2083 10.276 59.2736 10.2667 59.3296 10.248C59.3949 10.2294 59.4603 10.22 59.5256 10.22C59.6283 10.22 59.6796 10.2667 59.6796 10.36ZM64.8866 9.10004C64.8493 8.68004 64.8259 8.26004 64.8166 7.84004C64.8166 7.4107 64.8119 6.98137 64.8026 6.55204H64.6066C64.3173 6.55204 63.9953 6.5987 63.6406 6.69204C63.2953 6.77604 62.9639 6.9067 62.6466 7.08404C62.3293 7.26137 62.0679 7.48537 61.8626 7.75604C61.6666 8.01737 61.5686 8.3207 61.5686 8.66604C61.5686 9.11404 61.6946 9.4547 61.9466 9.68804C62.1986 9.91204 62.5393 10.024 62.9686 10.024C63.1739 10.024 63.3979 9.97737 63.6406 9.88404C63.8833 9.78137 64.1166 9.66004 64.3406 9.52004C64.5646 9.38004 64.7466 9.24004 64.8866 9.10004ZM67.3366 9.99604C67.3366 10.0334 67.3319 10.0614 67.3226 10.08C67.2293 10.2854 67.0706 10.444 66.8466 10.556C66.6319 10.6587 66.4173 10.71 66.2026 10.71C65.8106 10.71 65.5259 10.598 65.3486 10.374C65.1806 10.1407 65.0453 9.85604 64.9426 9.52004C64.5879 9.8467 64.1959 10.122 63.7666 10.346C63.3373 10.5607 62.8753 10.668 62.3806 10.668C62.0353 10.668 61.7086 10.6027 61.4006 10.472C61.1019 10.332 60.8593 10.1314 60.6726 9.87004C60.4859 9.6087 60.3926 9.29137 60.3926 8.91804C60.3926 8.52604 60.4906 8.19004 60.6866 7.91004C60.8919 7.6207 61.1486 7.37804 61.4566 7.18204C61.7739 6.9767 62.1099 6.81337 62.4646 6.69204C62.8286 6.56137 63.1693 6.46337 63.4866 6.39804C63.7013 6.35137 63.9206 6.30937 64.1446 6.27204C64.3686 6.2347 64.5879 6.19737 64.8026 6.16004C64.8026 5.8987 64.7886 5.59537 64.7606 5.25004C64.7419 4.9047 64.6719 4.62004 64.5506 4.39604C64.4293 4.18137 64.2659 3.99004 64.0606 3.82204C63.8553 3.65404 63.6266 3.57004 63.3746 3.57004C62.9453 3.57004 62.6093 3.68204 62.3666 3.90604C62.1239 4.13004 61.9513 4.44737 61.8486 4.85804C61.8393 4.9047 61.8299 4.95604 61.8206 5.01204C61.8206 5.0587 61.8159 5.10537 61.8066 5.15204C61.7973 5.20804 61.7599 5.25937 61.6946 5.30604C61.6386 5.34337 61.5779 5.36204 61.5126 5.36204C61.3353 5.36204 61.1719 5.32004 61.0226 5.23604C60.8826 5.15204 60.8126 5.01204 60.8126 4.81604C60.8126 4.70404 60.8313 4.60604 60.8686 4.52204C60.9899 4.2327 61.1859 3.9947 61.4566 3.80804C61.7273 3.61204 62.0259 3.4627 62.3526 3.36004C62.6886 3.25737 63.0013 3.20604 63.2906 3.20604C63.7946 3.20604 64.2519 3.29937 64.6626 3.48604C65.0733 3.6727 65.3999 3.94804 65.6426 4.31204C65.8946 4.6667 66.0206 5.1147 66.0206 5.65604C66.0206 6.2627 66.0159 6.87404 66.0066 7.49004C66.0066 8.10604 66.0253 8.72204 66.0626 9.33804C66.0719 9.54337 66.1139 9.72537 66.1886 9.88404C66.2633 10.0334 66.4173 10.108 66.6506 10.108C66.7719 10.108 66.8979 10.08 67.0286 10.024C67.1686 9.9587 67.2573 9.92604 67.2946 9.92604C67.3226 9.92604 67.3366 9.94937 67.3366 9.99604ZM77.0238 4.50804C77.0238 4.60137 76.9865 4.69004 76.9118 4.77404C76.8465 4.8487 76.7625 4.88604 76.6598 4.88604C76.5198 4.88604 76.4172 4.83937 76.3518 4.74604C76.2958 4.6527 76.2445 4.54537 76.1978 4.42404C76.1605 4.3027 76.0998 4.19537 76.0158 4.10204C75.9318 4.0087 75.7918 3.96204 75.5958 3.96204C75.5585 3.96204 75.5212 3.96204 75.4838 3.96204C75.4558 3.96204 75.4232 3.9667 75.3858 3.97604C75.2272 4.00404 75.0545 4.10204 74.8678 4.27004C74.6812 4.43804 74.4992 4.6387 74.3218 4.87204C74.1538 5.09604 74.0138 5.32004 73.9018 5.54404C73.7898 5.76804 73.7292 5.9547 73.7198 6.10404C73.7105 6.25337 73.7058 6.4027 73.7058 6.55204C73.7058 6.69204 73.7058 6.83204 73.7058 6.97204C73.7058 7.47604 73.7058 7.98004 73.7058 8.48404C73.7152 8.98804 73.7198 9.48737 73.7198 9.98204C73.7198 10.122 73.7758 10.2247 73.8878 10.29C74.0092 10.346 74.1305 10.374 74.2518 10.374C74.3452 10.374 74.4385 10.3694 74.5318 10.36C74.6252 10.3507 74.7185 10.346 74.8118 10.346C74.8585 10.346 74.8912 10.3694 74.9098 10.416C74.9285 10.4534 74.9378 10.4907 74.9378 10.528C74.9378 10.6774 74.8632 10.752 74.7138 10.752C74.4338 10.752 74.1538 10.7474 73.8738 10.738C73.5938 10.7194 73.3138 10.71 73.0338 10.71C72.7445 10.71 72.4505 10.7194 72.1518 10.738C71.8625 10.7567 71.5685 10.766 71.2698 10.766C71.2325 10.766 71.2045 10.738 71.1858 10.682C71.1765 10.626 71.1718 10.5794 71.1718 10.542C71.1718 10.4487 71.2092 10.3974 71.2838 10.388C71.3865 10.3694 71.4938 10.3647 71.6058 10.374C71.7178 10.3834 71.8205 10.388 71.9138 10.388C72.0538 10.388 72.1658 10.36 72.2498 10.304C72.3432 10.2387 72.3945 10.1314 72.4038 9.98204C72.4225 9.68337 72.4318 9.38004 72.4318 9.07204C72.4412 8.76404 72.4458 8.45604 72.4458 8.14804V6.79004C72.4365 6.3887 72.4318 5.99204 72.4318 5.60004C72.4412 5.1987 72.4272 4.80204 72.3898 4.41004C72.3805 4.22337 72.3292 4.0927 72.2358 4.01804C72.1425 3.93404 72.0025 3.89204 71.8158 3.89204C71.7412 3.89204 71.6618 3.90137 71.5778 3.92004C71.5032 3.92937 71.4238 3.93404 71.3398 3.93404C71.2652 3.93404 71.2278 3.87804 71.2278 3.76604C71.2278 3.7007 71.2605 3.65404 71.3258 3.62604C71.4192 3.59804 71.5172 3.57937 71.6198 3.57004C71.7225 3.55137 71.8205 3.53737 71.9138 3.52804C72.1658 3.48137 72.4178 3.4347 72.6698 3.38804C72.9218 3.34137 73.1738 3.28537 73.4258 3.22004C73.5098 3.24804 73.5705 3.29937 73.6078 3.37404C73.6265 3.41137 73.6405 3.51404 73.6498 3.68204C73.6592 3.85004 73.6638 4.04604 73.6638 4.27004C73.6638 4.4847 73.6638 4.69004 73.6638 4.88604C73.6638 5.0727 73.6638 5.20337 73.6638 5.27804C73.8692 4.95137 74.1025 4.6247 74.3638 4.29804C74.6252 3.97137 74.9238 3.7007 75.2598 3.48604C75.5958 3.27137 75.9738 3.16404 76.3938 3.16404C76.6178 3.16404 76.7625 3.23404 76.8278 3.37404C76.8932 3.51404 76.9352 3.67737 76.9538 3.86404C76.9725 3.9667 76.9865 4.07404 76.9958 4.18604C77.0145 4.29804 77.0238 4.40537 77.0238 4.50804ZM85.8065 10.36C85.8065 10.472 85.7225 10.556 85.5545 10.612C85.3959 10.668 85.2185 10.7054 85.0225 10.724C84.8265 10.7427 84.6865 10.752 84.6025 10.752C84.2852 10.752 84.0332 10.626 83.8465 10.374C83.6599 10.122 83.5199 9.8607 83.4265 9.59004C83.1092 9.99137 82.7125 10.29 82.2365 10.486C81.7605 10.682 81.2659 10.78 80.7525 10.78C79.9125 10.78 79.3292 10.5654 79.0025 10.136C78.6852 9.69737 78.5265 9.08137 78.5265 8.28804C78.5265 7.58804 78.5265 6.88804 78.5265 6.18804C78.5359 5.4787 78.5452 4.77404 78.5545 4.07404C78.5545 3.79404 78.4192 3.65404 78.1485 3.65404C78.0739 3.65404 77.9992 3.6587 77.9245 3.66804C77.8499 3.67737 77.7752 3.68204 77.7005 3.68204C77.6725 3.68204 77.6492 3.66804 77.6305 3.64004C77.6212 3.6027 77.6165 3.5747 77.6165 3.55604C77.6165 3.45337 77.6632 3.39737 77.7565 3.38804C78.0832 3.3507 78.4099 3.32737 78.7365 3.31804C79.0725 3.29937 79.4039 3.27137 79.7305 3.23404C79.8052 3.3087 79.8425 3.40204 79.8425 3.51404C79.8425 3.74737 79.8379 3.98537 79.8285 4.22804C79.8192 4.4707 79.8145 4.71337 79.8145 4.95604C79.8052 5.52537 79.7959 6.09937 79.7865 6.67804C79.7865 7.24737 79.7865 7.82137 79.7865 8.40004C79.7865 8.57737 79.7912 8.7687 79.8005 8.97404C79.8099 9.17004 79.8472 9.35204 79.9125 9.52004C80.0152 9.78137 80.2065 9.96804 80.4865 10.08C80.7759 10.1827 81.0512 10.234 81.3125 10.234C81.6019 10.234 81.8912 10.1827 82.1805 10.08C82.4792 9.96804 82.7312 9.80937 82.9365 9.60404C83.1512 9.38937 83.2725 9.12337 83.3005 8.80604C83.3192 8.64737 83.3285 8.4887 83.3285 8.33004C83.3379 8.16204 83.3425 7.9987 83.3425 7.84004L83.3285 4.03204C83.3285 3.9107 83.2865 3.82204 83.2025 3.76604C83.1279 3.71004 83.0392 3.68204 82.9365 3.68204C82.8432 3.68204 82.7499 3.6867 82.6565 3.69604C82.5725 3.70537 82.4839 3.71004 82.3905 3.71004C82.3065 3.71004 82.2645 3.66337 82.2645 3.57004C82.2645 3.4767 82.3065 3.42537 82.3905 3.41604C82.5025 3.39737 82.6192 3.38804 82.7405 3.38804C82.8619 3.3787 82.9832 3.36937 83.1045 3.36004L84.0705 3.26204C84.1359 3.2527 84.2012 3.24337 84.2665 3.23404C84.3412 3.2247 84.4112 3.22004 84.4765 3.22004C84.5232 3.22004 84.5559 3.24804 84.5745 3.30404C84.5932 3.3507 84.6025 3.38804 84.6025 3.41604C84.5745 5.44137 84.5605 7.46204 84.5605 9.47804C84.5605 9.71137 84.6119 9.9027 84.7145 10.052C84.8265 10.2014 85.0085 10.276 85.2605 10.276C85.3352 10.276 85.4005 10.2667 85.4565 10.248C85.5219 10.2294 85.5872 10.22 85.6525 10.22C85.7552 10.22 85.8065 10.2667 85.8065 10.36ZM91.0136 9.10004C90.9762 8.68004 90.9529 8.26004 90.9436 7.84004C90.9436 7.4107 90.9389 6.98137 90.9296 6.55204H90.7336C90.4442 6.55204 90.1222 6.5987 89.7676 6.69204C89.4222 6.77604 89.0909 6.9067 88.7736 7.08404C88.4562 7.26137 88.1949 7.48537 87.9896 7.75604C87.7936 8.01737 87.6956 8.3207 87.6956 8.66604C87.6956 9.11404 87.8216 9.4547 88.0736 9.68804C88.3256 9.91204 88.6662 10.024 89.0956 10.024C89.3009 10.024 89.5249 9.97737 89.7676 9.88404C90.0102 9.78137 90.2436 9.66004 90.4676 9.52004C90.6916 9.38004 90.8736 9.24004 91.0136 9.10004ZM93.4636 9.99604C93.4636 10.0334 93.4589 10.0614 93.4496 10.08C93.3562 10.2854 93.1976 10.444 92.9736 10.556C92.7589 10.6587 92.5442 10.71 92.3296 10.71C91.9376 10.71 91.6529 10.598 91.4756 10.374C91.3076 10.1407 91.1722 9.85604 91.0696 9.52004C90.7149 9.8467 90.3229 10.122 89.8936 10.346C89.4642 10.5607 89.0022 10.668 88.5076 10.668C88.1622 10.668 87.8356 10.6027 87.5276 10.472C87.2289 10.332 86.9862 10.1314 86.7996 9.87004C86.6129 9.6087 86.5196 9.29137 86.5196 8.91804C86.5196 8.52604 86.6176 8.19004 86.8136 7.91004C87.0189 7.6207 87.2756 7.37804 87.5836 7.18204C87.9009 6.9767 88.2369 6.81337 88.5916 6.69204C88.9556 6.56137 89.2962 6.46337 89.6136 6.39804C89.8282 6.35137 90.0476 6.30937 90.2716 6.27204C90.4956 6.2347 90.7149 6.19737 90.9296 6.16004C90.9296 5.8987 90.9156 5.59537 90.8876 5.25004C90.8689 4.9047 90.7989 4.62004 90.6776 4.39604C90.5562 4.18137 90.3929 3.99004 90.1876 3.82204C89.9822 3.65404 89.7536 3.57004 89.5016 3.57004C89.0722 3.57004 88.7362 3.68204 88.4936 3.90604C88.2509 4.13004 88.0782 4.44737 87.9756 4.85804C87.9662 4.9047 87.9569 4.95604 87.9476 5.01204C87.9476 5.0587 87.9429 5.10537 87.9336 5.15204C87.9242 5.20804 87.8869 5.25937 87.8216 5.30604C87.7656 5.34337 87.7049 5.36204 87.6396 5.36204C87.4622 5.36204 87.2989 5.32004 87.1496 5.23604C87.0096 5.15204 86.9396 5.01204 86.9396 4.81604C86.9396 4.70404 86.9582 4.60604 86.9956 4.52204C87.1169 4.2327 87.3129 3.9947 87.5836 3.80804C87.8542 3.61204 88.1529 3.4627 88.4796 3.36004C88.8156 3.25737 89.1282 3.20604 89.4176 3.20604C89.9216 3.20604 90.3789 3.29937 90.7896 3.48604C91.2002 3.6727 91.5269 3.94804 91.7696 4.31204C92.0216 4.6667 92.1476 5.1147 92.1476 5.65604C92.1476 6.2627 92.1429 6.87404 92.1336 7.49004C92.1336 8.10604 92.1522 8.72204 92.1896 9.33804C92.1989 9.54337 92.2409 9.72537 92.3156 9.88404C92.3902 10.0334 92.5442 10.108 92.7776 10.108C92.8989 10.108 93.0249 10.08 93.1556 10.024C93.2956 9.9587 93.3842 9.92604 93.4216 9.92604C93.4496 9.92604 93.4636 9.94937 93.4636 9.99604ZM96.9908 9.71604C96.9908 9.97737 96.8928 10.1967 96.6968 10.374C96.5008 10.5514 96.2721 10.64 96.0108 10.64C95.7495 10.64 95.5208 10.5514 95.3248 10.374C95.1288 10.1967 95.0308 9.97737 95.0308 9.71604C95.0308 9.44537 95.1288 9.22137 95.3248 9.04404C95.5208 8.8667 95.7495 8.77804 96.0108 8.77804C96.2721 8.77804 96.5008 8.8667 96.6968 9.04404C96.8928 9.22137 96.9908 9.44537 96.9908 9.71604ZM101.885 9.71604C101.885 9.97737 101.787 10.1967 101.591 10.374C101.395 10.5514 101.167 10.64 100.905 10.64C100.644 10.64 100.415 10.5514 100.219 10.374C100.023 10.1967 99.9253 9.97737 99.9253 9.71604C99.9253 9.44537 100.023 9.22137 100.219 9.04404C100.415 8.8667 100.644 8.77804 100.905 8.77804C101.167 8.77804 101.395 8.8667 101.591 9.04404C101.787 9.22137 101.885 9.44537 101.885 9.71604ZM106.78 9.71604C106.78 9.97737 106.682 10.1967 106.486 10.374C106.29 10.5514 106.061 10.64 105.8 10.64C105.539 10.64 105.31 10.5514 105.114 10.374C104.918 10.1967 104.82 9.97737 104.82 9.71604C104.82 9.44537 104.918 9.22137 105.114 9.04404C105.31 8.8667 105.539 8.77804 105.8 8.77804C106.061 8.77804 106.29 8.8667 106.486 9.04404C106.682 9.22137 106.78 9.44537 106.78 9.71604Z" fill="#767676"/>
</svg>
