<svg width="30" height="12" viewBox="0 0 30 12" fill="none" xmlns="http://www.w3.org/2000/svg">
<path d="M7.47197 2.89588C7.47197 1.95721 7.22663 1.31721 6.73597 0.975879C6.25597 0.623879 5.57863 0.447879 4.70397 0.447879H4.17597C4.0693 0.447879 3.93597 0.458545 3.77597 0.479878C3.62663 0.490545 3.48797 0.527878 3.35997 0.591878C3.24263 0.645212 3.18397 0.746545 3.18397 0.895879V5.34388C3.3013 5.38655 3.43463 5.41321 3.58397 5.42388C3.7333 5.43455 3.87197 5.43988 3.99997 5.43988C4.42663 5.43988 4.84263 5.40255 5.24797 5.32788C5.66397 5.25321 6.0373 5.12521 6.36797 4.94388C6.7093 4.76255 6.97597 4.50655 7.16797 4.17588C7.37063 3.84521 7.47197 3.41855 7.47197 2.89588ZM10.976 11.5199C10.976 11.5945 10.9013 11.6532 10.752 11.6959C10.6026 11.7385 10.4266 11.7652 10.224 11.7759C10.0213 11.7972 9.8293 11.8079 9.64797 11.8079C9.4773 11.8079 9.35997 11.8079 9.29597 11.8079C8.8693 11.8079 8.52797 11.7652 8.27197 11.6799C8.01597 11.5839 7.7653 11.3439 7.51997 10.9599C6.9973 10.1172 6.49063 9.26388 5.99997 8.39988C5.51997 7.53588 5.03997 6.66655 4.55997 5.79188L3.18397 5.83988V10.9119C3.18397 11.0719 3.24797 11.1785 3.37597 11.2319C3.50397 11.2852 3.63197 11.3119 3.75997 11.3119C3.9093 11.3119 4.0533 11.3065 4.19197 11.2959C4.33063 11.2852 4.4693 11.2799 4.60797 11.2799C4.68263 11.2799 4.7253 11.3119 4.73597 11.3759C4.7573 11.4399 4.76797 11.4985 4.76797 11.5519C4.76797 11.6372 4.7413 11.6959 4.68797 11.7279C4.6453 11.7492 4.58663 11.7599 4.51197 11.7599C4.04263 11.7599 3.56797 11.7545 3.08797 11.7439C2.60797 11.7225 2.1333 11.7119 1.66397 11.7119C1.40797 11.7119 1.15197 11.7225 0.895967 11.7439C0.650634 11.7545 0.399967 11.7599 0.143967 11.7599C0.0799668 11.7599 0.0373001 11.7332 0.0159668 11.6799C0.00530013 11.6159 -3.31998e-05 11.5625 -3.31998e-05 11.5199C-3.31998e-05 11.3812 0.0586335 11.3119 0.175967 11.3119C0.271967 11.3119 0.362634 11.3172 0.447967 11.3279C0.543967 11.3279 0.634634 11.3279 0.719967 11.3279C0.879967 11.3279 1.05063 11.3119 1.23197 11.2799C1.42397 11.2372 1.53063 11.1145 1.55197 10.9119C1.5733 10.6452 1.57863 10.3359 1.56797 9.98388C1.56797 9.62121 1.56797 9.30655 1.56797 9.03988C1.56797 8.68788 1.56797 8.33588 1.56797 7.98388C1.56797 7.62121 1.56797 7.26388 1.56797 6.91188C1.56797 6.17588 1.56797 5.43988 1.56797 4.70388C1.57863 3.96788 1.58397 3.23188 1.58397 2.49588C1.58397 2.22921 1.58397 1.96255 1.58397 1.69588C1.58397 1.41855 1.5733 1.15188 1.55197 0.895879C1.53063 0.682545 1.41863 0.565212 1.21597 0.543879C1.02397 0.511878 0.847967 0.495878 0.687967 0.495878C0.623967 0.495878 0.559967 0.501211 0.495967 0.511878C0.431967 0.511878 0.367967 0.511878 0.303967 0.511878C0.143967 0.511878 0.0639668 0.421212 0.0639668 0.239879C0.0639668 0.122545 0.1173 0.0638781 0.223967 0.0638781C0.586634 0.0638781 0.943967 0.0745449 1.29597 0.0958786C1.65863 0.117212 2.0213 0.127878 2.38397 0.127878C2.8853 0.127878 3.3813 0.106545 3.87197 0.0638781C4.36263 0.0212113 4.8533 -0.00012207 5.34397 -0.00012207C5.7493 -0.00012207 6.17597 0.0425447 6.62397 0.127878C7.08263 0.213212 7.5093 0.351878 7.90397 0.543879C8.29863 0.735879 8.61863 1.00255 8.86397 1.34388C9.11997 1.67454 9.24797 2.09588 9.24797 2.60788C9.24797 3.24788 9.06663 3.80255 8.70397 4.27188C8.35197 4.73055 7.8933 5.08788 7.32797 5.34388C7.1253 5.43988 6.9173 5.51455 6.70397 5.56788C6.49063 5.61055 6.2773 5.65321 6.06397 5.69588C6.55463 6.52788 7.06663 7.34921 7.59997 8.15988C8.14397 8.97055 8.6933 9.77055 9.24797 10.5599C9.40797 10.7839 9.5733 10.9652 9.74397 11.1039C9.9253 11.2319 10.1493 11.3225 10.416 11.3759C10.48 11.3865 10.5866 11.3919 10.736 11.3919C10.896 11.3919 10.976 11.4345 10.976 11.5199ZM20.8165 11.3439C20.8165 11.4719 20.7205 11.5679 20.5285 11.6319C20.3471 11.6959 20.1445 11.7385 19.9205 11.7599C19.6965 11.7812 19.5365 11.7919 19.4405 11.7919C19.0778 11.7919 18.7898 11.6479 18.5765 11.3599C18.3631 11.0719 18.2031 10.7732 18.0965 10.4639C17.7338 10.9225 17.2805 11.2639 16.7365 11.4879C16.1925 11.7119 15.6271 11.8239 15.0405 11.8239C14.0805 11.8239 13.4138 11.5785 13.0405 11.0879C12.6778 10.5865 12.4965 9.88255 12.4965 8.97588C12.4965 8.17588 12.4965 7.37588 12.4965 6.57588C12.5071 5.76521 12.5178 4.95988 12.5285 4.15988C12.5285 3.83988 12.3738 3.67988 12.0645 3.67988C11.9791 3.67988 11.8938 3.68521 11.8085 3.69588C11.7231 3.70655 11.6378 3.71188 11.5525 3.71188C11.5205 3.71188 11.4938 3.69588 11.4725 3.66388C11.4618 3.62121 11.4565 3.58921 11.4565 3.56788C11.4565 3.45054 11.5098 3.38654 11.6165 3.37588C11.9898 3.33321 12.3631 3.30654 12.7365 3.29588C13.1205 3.27455 13.4991 3.24255 13.8725 3.19988C13.9578 3.28521 14.0005 3.39188 14.0005 3.51988C14.0005 3.78655 13.9951 4.05855 13.9845 4.33588C13.9738 4.61321 13.9685 4.89055 13.9685 5.16788C13.9578 5.81855 13.9471 6.47455 13.9365 7.13588C13.9365 7.78655 13.9365 8.44255 13.9365 9.10388C13.9365 9.30655 13.9418 9.52521 13.9525 9.75988C13.9631 9.98388 14.0058 10.1919 14.0805 10.3839C14.1978 10.6825 14.4165 10.8959 14.7365 11.0239C15.0671 11.1412 15.3818 11.1999 15.6805 11.1999C16.0111 11.1999 16.3418 11.1412 16.6725 11.0239C17.0138 10.8959 17.3018 10.7145 17.5365 10.4799C17.7818 10.2345 17.9205 9.93055 17.9525 9.56788C17.9738 9.38655 17.9845 9.20521 17.9845 9.02388C17.9951 8.83188 18.0005 8.64521 18.0005 8.46388L17.9845 4.11188C17.9845 3.97321 17.9365 3.87188 17.8405 3.80788C17.7551 3.74388 17.6538 3.71188 17.5365 3.71188C17.4298 3.71188 17.3231 3.71721 17.2165 3.72788C17.1205 3.73855 17.0191 3.74388 16.9125 3.74388C16.8165 3.74388 16.7685 3.69055 16.7685 3.58388C16.7685 3.47721 16.8165 3.41855 16.9125 3.40788C17.0405 3.38655 17.1738 3.37588 17.3125 3.37588C17.4511 3.36521 17.5898 3.35455 17.7285 3.34388L18.8325 3.23188C18.9071 3.22121 18.9818 3.21055 19.0565 3.19988C19.1418 3.18921 19.2218 3.18388 19.2965 3.18388C19.3498 3.18388 19.3871 3.21588 19.4085 3.27988C19.4298 3.33321 19.4405 3.37588 19.4405 3.40788C19.4085 5.72255 19.3925 8.03188 19.3925 10.3359C19.3925 10.6025 19.4511 10.8212 19.5685 10.9919C19.6965 11.1625 19.9045 11.2479 20.1925 11.2479C20.2778 11.2479 20.3525 11.2372 20.4165 11.2159C20.4911 11.1945 20.5658 11.1839 20.6405 11.1839C20.7578 11.1839 20.8165 11.2372 20.8165 11.3439ZM26.7673 9.90388C26.7247 9.42388 26.698 8.94388 26.6873 8.46388C26.6873 7.97321 26.682 7.48255 26.6713 6.99188H26.4473C26.1167 6.99188 25.7487 7.04521 25.3433 7.15188C24.9487 7.24788 24.57 7.39721 24.2073 7.59988C23.8447 7.80255 23.546 8.05855 23.3113 8.36788C23.0873 8.66655 22.9753 9.01321 22.9753 9.40788C22.9753 9.91988 23.1193 10.3092 23.4073 10.5759C23.6953 10.8319 24.0847 10.9599 24.5753 10.9599C24.81 10.9599 25.066 10.9065 25.3433 10.7999C25.6207 10.6825 25.8873 10.5439 26.1433 10.3839C26.3993 10.2239 26.6073 10.0639 26.7673 9.90388ZM29.5673 10.9279C29.5673 10.9705 29.562 11.0025 29.5513 11.0239C29.4447 11.2585 29.2633 11.4399 29.0073 11.5679C28.762 11.6852 28.5167 11.7439 28.2713 11.7439C27.8233 11.7439 27.498 11.6159 27.2953 11.3599C27.1033 11.0932 26.9487 10.7679 26.8313 10.3839C26.426 10.7572 25.978 11.0719 25.4873 11.3279C24.9967 11.5732 24.4687 11.6959 23.9033 11.6959C23.5087 11.6959 23.1353 11.6212 22.7833 11.4719C22.442 11.3119 22.1647 11.0825 21.9513 10.7839C21.738 10.4852 21.6313 10.1225 21.6313 9.69588C21.6313 9.24788 21.7433 8.86388 21.9673 8.54388C22.202 8.21321 22.4953 7.93588 22.8473 7.71188C23.21 7.47721 23.594 7.29055 23.9993 7.15188C24.4153 7.00255 24.8047 6.89055 25.1673 6.81588C25.4127 6.76255 25.6633 6.71455 25.9193 6.67188C26.1753 6.62921 26.426 6.58655 26.6713 6.54388C26.6713 6.24521 26.6553 5.89855 26.6233 5.50388C26.602 5.10921 26.522 4.78388 26.3833 4.52788C26.2447 4.28255 26.058 4.06388 25.8233 3.87188C25.5887 3.67988 25.3273 3.58388 25.0393 3.58388C24.5487 3.58388 24.1647 3.71188 23.8873 3.96788C23.61 4.22388 23.4127 4.58655 23.2953 5.05588C23.2847 5.10921 23.274 5.16788 23.2633 5.23188C23.2633 5.28521 23.258 5.33855 23.2473 5.39188C23.2367 5.45588 23.194 5.51455 23.1193 5.56788C23.0553 5.61055 22.986 5.63188 22.9113 5.63188C22.7087 5.63188 22.522 5.58388 22.3513 5.48788C22.1913 5.39188 22.1113 5.23188 22.1113 5.00788C22.1113 4.87988 22.1327 4.76788 22.1753 4.67188C22.314 4.34121 22.538 4.06921 22.8473 3.85588C23.1567 3.63188 23.498 3.46121 23.8713 3.34388C24.2553 3.22655 24.6127 3.16788 24.9433 3.16788C25.5193 3.16788 26.042 3.27455 26.5113 3.48788C26.9807 3.70121 27.354 4.01588 27.6313 4.43188C27.9193 4.83721 28.0633 5.34921 28.0633 5.96788C28.0633 6.66121 28.058 7.35988 28.0473 8.06388C28.0473 8.76788 28.0687 9.47188 28.1113 10.1759C28.122 10.4105 28.17 10.6185 28.2553 10.7999C28.3407 10.9705 28.5167 11.0559 28.7833 11.0559C28.922 11.0559 29.066 11.0239 29.2153 10.9599C29.3753 10.8852 29.4767 10.8479 29.5193 10.8479C29.5513 10.8479 29.5673 10.8745 29.5673 10.9279Z" fill="white"/>
</svg>
