<svg width="33" height="14" viewBox="0 0 33 14" fill="none" xmlns="http://www.w3.org/2000/svg">
<path d="M8.65805 3.25803C8.65805 2.29803 8.35805 1.60203 7.75805 1.17003C7.17005 0.72603 6.43205 0.50403 5.54405 0.50403C5.30405 0.50403 5.05805 0.51003 4.80605 0.52203C4.55405 0.52203 4.30205 0.52203 4.05005 0.52203C3.93005 0.52203 3.81005 0.55803 3.69005 0.630031C3.57005 0.70203 3.51005 0.80403 3.51005 0.93603V6.04803C3.77405 6.24003 4.09805 6.35403 4.48205 6.39003C4.86605 6.42603 5.20805 6.44403 5.50805 6.44403C6.54005 6.44403 7.32005 6.16803 7.84805 5.61603C8.38805 5.06403 8.65805 4.27803 8.65805 3.25803ZM10.638 3.20403C10.638 3.98403 10.488 4.62003 10.188 5.11203C9.90005 5.60403 9.51005 5.98803 9.01805 6.26403C8.52605 6.54003 7.96805 6.73203 7.34405 6.84003C6.73205 6.93603 6.10205 6.98403 5.45405 6.98403C5.13005 6.98403 4.80605 6.96603 4.48205 6.93003C4.15805 6.89403 3.84005 6.85203 3.52805 6.80403V12.186C3.52805 12.366 3.60605 12.486 3.76205 12.546C3.91805 12.606 4.09205 12.636 4.28405 12.636C4.47605 12.636 4.63205 12.636 4.75205 12.636C4.82405 12.636 4.89605 12.636 4.96805 12.636C5.05205 12.624 5.13005 12.618 5.20205 12.618C5.31005 12.618 5.36405 12.666 5.36405 12.762C5.36405 12.918 5.35205 13.026 5.32805 13.086C5.30405 13.134 5.20805 13.158 5.04005 13.158C4.63205 13.158 4.23005 13.146 3.83405 13.122C3.43805 13.098 3.04205 13.086 2.64605 13.086C2.23805 13.086 1.82405 13.104 1.40405 13.14C0.996049 13.164 0.588049 13.176 0.180049 13.176C0.0600488 13.176 4.88348e-05 13.098 4.88348e-05 12.942C4.88348e-05 12.87 0.0120488 12.804 0.0360488 12.744C0.0600488 12.684 0.120049 12.654 0.216049 12.654C0.360049 12.654 0.504049 12.66 0.648049 12.672C0.792049 12.672 0.936049 12.672 1.08005 12.672C1.22405 12.672 1.35005 12.636 1.45805 12.564C1.57805 12.492 1.64405 12.378 1.65605 12.222C1.68005 12.006 1.68605 11.79 1.67405 11.574C1.67405 11.346 1.67405 11.124 1.67405 10.908C1.67405 10.476 1.67405 10.044 1.67405 9.61203C1.67405 9.16803 1.67405 8.73003 1.67405 8.29803V5.14803C1.67405 4.44003 1.66805 3.73803 1.65605 3.04203C1.65605 2.33403 1.65605 1.63203 1.65605 0.93603C1.65605 0.72003 1.54805 0.59403 1.33205 0.55803C1.12805 0.51003 0.948049 0.48603 0.792049 0.48603C0.684049 0.48603 0.576049 0.49203 0.468049 0.50403C0.360049 0.50403 0.258049 0.50403 0.162049 0.50403C0.0780488 0.50403 0.0300488 0.46803 0.0180488 0.39603C0.0180488 0.31203 0.0180488 0.24603 0.0180488 0.19803C0.0180488 0.15003 0.0300488 0.10803 0.0540488 0.0720302C0.0780488 0.0240301 0.114049 3.00407e-05 0.162049 3.00407e-05C0.558049 3.00407e-05 0.954049 0.0120302 1.35005 0.0360307C1.74605 0.0600303 2.14805 0.0720302 2.55605 0.0720302C3.18005 0.0720302 3.80405 0.0600303 4.42805 0.0360307C5.05205 0.0120302 5.67605 3.00407e-05 6.30005 3.00407e-05C6.80405 3.00407e-05 7.30805 0.0540301 7.81205 0.16203C8.32805 0.27003 8.79605 0.45003 9.21605 0.702031C9.64805 0.95403 9.99005 1.28403 10.242 1.69203C10.506 2.10003 10.638 2.60403 10.638 3.20403ZM17.1365 12.87C17.1365 12.918 17.1305 12.984 17.1185 13.068C17.1065 13.14 17.0645 13.176 16.9925 13.176C16.8485 13.176 16.7045 13.17 16.5605 13.158C16.4285 13.146 16.2905 13.14 16.1465 13.14C15.5585 13.104 14.9585 13.086 14.3465 13.086C14.0825 13.086 13.8185 13.092 13.5545 13.104C13.2905 13.116 13.0265 13.128 12.7625 13.14C12.6425 13.152 12.5165 13.164 12.3845 13.176C12.2645 13.188 12.1385 13.194 12.0065 13.194C11.9105 13.194 11.8625 13.134 11.8625 13.014C11.8625 12.93 11.8685 12.852 11.8805 12.78C11.8925 12.708 11.9525 12.672 12.0605 12.672C12.1805 12.672 12.2945 12.678 12.4025 12.69C12.5105 12.69 12.6245 12.69 12.7445 12.69C12.8885 12.69 13.0565 12.654 13.2485 12.582C13.4525 12.51 13.5545 12.39 13.5545 12.222V1.04403C13.5545 0.84003 13.4765 0.70803 13.3205 0.64803C13.1645 0.57603 12.9785 0.540031 12.7625 0.540031C12.5585 0.540031 12.3665 0.546031 12.1865 0.55803C12.0185 0.55803 11.9225 0.52803 11.8985 0.46803C11.8865 0.44403 11.8805 0.39003 11.8805 0.30603C11.8805 0.25803 11.8865 0.20403 11.8985 0.14403C11.9105 0.0720305 11.9465 0.0360307 12.0065 0.0360307C12.4025 0.0360307 12.7985 0.0480305 13.1945 0.0720302C13.6025 0.0960299 14.0045 0.10803 14.4005 0.10803H15.2105C15.4025 0.10803 15.5945 0.10803 15.7865 0.10803C15.9905 0.10803 16.1885 0.10203 16.3805 0.09003C16.4765 0.0780301 16.5665 0.0720302 16.6505 0.0720302C16.7465 0.0600303 16.8365 0.0540304 16.9205 0.0540304C17.0525 0.0540304 17.1185 0.12003 17.1185 0.25203C17.1185 0.32403 17.1125 0.39003 17.1005 0.450031C17.0885 0.510031 17.0345 0.540031 16.9385 0.540031C16.7945 0.540031 16.6505 0.540031 16.5065 0.540031C16.3745 0.52803 16.2365 0.52203 16.0925 0.52203C15.9485 0.52203 15.7925 0.57003 15.6245 0.66603C15.4685 0.75003 15.3905 0.876031 15.3905 1.04403V12.222C15.3905 12.378 15.4625 12.492 15.6065 12.564C15.7505 12.636 15.8945 12.672 16.0385 12.672C16.1945 12.672 16.3445 12.672 16.4885 12.672C16.6445 12.66 16.8005 12.654 16.9565 12.654C17.0765 12.654 17.1365 12.726 17.1365 12.87ZM32.042 12.942C32.042 13.038 32.006 13.11 31.934 13.158C31.874 13.206 31.796 13.23 31.7 13.23C31.52 13.23 31.334 13.224 31.142 13.212C30.962 13.212 30.782 13.206 30.602 13.194C30.266 13.182 29.924 13.182 29.576 13.194C29.24 13.194 28.898 13.194 28.55 13.194C28.358 13.194 28.214 13.098 28.118 12.906C27.638 11.934 27.122 11.028 26.57 10.188C26.03 9.34803 25.472 8.47203 24.896 7.56003C24.824 7.68003 24.674 7.90803 24.446 8.24403C24.23 8.58003 23.978 8.96403 23.69 9.39603C23.402 9.82803 23.12 10.254 22.844 10.674C22.58 11.094 22.358 11.454 22.178 11.754C22.01 12.042 21.926 12.21 21.926 12.258C21.926 12.438 22.004 12.558 22.16 12.618C22.328 12.678 22.514 12.714 22.718 12.726C22.934 12.726 23.12 12.732 23.276 12.744C23.444 12.744 23.528 12.792 23.528 12.888C23.528 13.08 23.438 13.176 23.258 13.176C23.162 13.176 23.066 13.182 22.97 13.194C22.874 13.194 22.778 13.194 22.682 13.194C22.442 13.194 22.202 13.188 21.962 13.176C21.734 13.152 21.5 13.14 21.26 13.14C20.84 13.14 20.414 13.152 19.982 13.176C19.562 13.2 19.142 13.212 18.722 13.212C18.566 13.212 18.488 13.128 18.488 12.96C18.488 12.804 18.548 12.72 18.668 12.708C18.728 12.696 18.788 12.696 18.848 12.708C18.92 12.708 18.986 12.708 19.046 12.708C19.346 12.708 19.61 12.684 19.838 12.636C20.066 12.588 20.294 12.468 20.522 12.276C20.726 12.096 20.924 11.904 21.116 11.7C21.32 11.496 21.5 11.286 21.656 11.07C22.16 10.434 22.658 9.79203 23.15 9.14403C23.654 8.48403 24.128 7.81803 24.572 7.14603C23.912 6.15003 23.264 5.15403 22.628 4.15803C22.004 3.16203 21.356 2.17803 20.684 1.20603C20.564 1.03803 20.45 0.930031 20.342 0.88203C20.246 0.822031 20.096 0.792031 19.892 0.792031C19.772 0.792031 19.64 0.79803 19.496 0.81003C19.364 0.82203 19.232 0.82803 19.1 0.82803C19.04 0.82803 18.974 0.81603 18.902 0.792031C18.83 0.75603 18.794 0.69603 18.794 0.61203C18.794 0.52803 18.8 0.45603 18.812 0.39603C18.824 0.324031 18.872 0.27603 18.956 0.25203C19.208 0.19203 19.532 0.15603 19.928 0.14403C20.336 0.13203 20.678 0.12003 20.954 0.10803C21.122 0.0960299 21.284 0.08403 21.44 0.0720302C21.608 0.0600303 21.77 0.0540304 21.926 0.0540304C22.07 0.0540304 22.19 0.12003 22.286 0.25203C22.346 0.30003 22.388 0.35403 22.412 0.41403C22.448 0.47403 22.49 0.53403 22.538 0.59403C23.054 1.44603 23.57 2.30403 24.086 3.16803C24.602 4.02003 25.106 4.88403 25.598 5.76003C25.706 5.59203 25.874 5.34003 26.102 5.00403C26.33 4.65603 26.576 4.27203 26.84 3.85203C27.116 3.42003 27.38 2.99403 27.632 2.57403C27.896 2.15403 28.106 1.78203 28.262 1.45803C28.43 1.12203 28.514 0.88803 28.514 0.75603C28.514 0.63603 28.448 0.57003 28.316 0.55803C28.196 0.53403 28.094 0.52203 28.01 0.52203C27.878 0.52203 27.74 0.52803 27.596 0.540031C27.464 0.55203 27.326 0.55803 27.182 0.55803C27.086 0.55803 27.026 0.54003 27.002 0.50403C26.978 0.45603 26.966 0.39003 26.966 0.30603C26.966 0.16203 27.044 0.09003 27.2 0.09003C27.356 0.09003 27.512 0.0960299 27.668 0.10803C27.824 0.12003 27.98 0.126031 28.136 0.126031C28.472 0.126031 28.808 0.126031 29.144 0.126031C29.492 0.11403 29.834 0.10203 30.17 0.09003C30.338 0.0780301 30.5 0.0660303 30.656 0.0540304C30.824 0.0420306 30.992 0.0360307 31.16 0.0360307C31.328 0.0360307 31.412 0.120031 31.412 0.288031C31.412 0.456031 31.316 0.55203 31.124 0.57603C30.944 0.60003 30.728 0.61803 30.476 0.630031C30.236 0.630031 30.032 0.684031 29.864 0.792031C29.768 0.852031 29.66 0.94203 29.54 1.06203C29.432 1.18203 29.342 1.29003 29.27 1.38603C28.73 2.19003 28.178 2.98803 27.614 3.78003C27.05 4.56003 26.474 5.34003 25.886 6.12003C26.306 6.74403 26.726 7.36803 27.146 7.99203C27.578 8.60403 28.004 9.21603 28.424 9.82803C28.712 10.248 29.006 10.668 29.306 11.088C29.606 11.508 29.918 11.916 30.242 12.312C30.374 12.468 30.536 12.57 30.728 12.618C30.932 12.654 31.13 12.672 31.322 12.672C31.406 12.672 31.484 12.666 31.556 12.654C31.64 12.642 31.724 12.636 31.808 12.636C31.904 12.636 31.964 12.672 31.988 12.744C32.024 12.804 32.042 12.87 32.042 12.942Z" fill="#3CA67B"/>
</svg>
