<svg width="42" height="12" viewBox="0 0 42 12" fill="none" xmlns="http://www.w3.org/2000/svg">
<path d="M7.18788 4.45204C7.18788 3.98804 7.13588 3.51604 7.03188 3.03604C6.93588 2.55604 6.77588 2.11204 6.55188 1.70404C6.32788 1.29604 6.02788 0.968042 5.65188 0.720042C5.27588 0.464042 4.81188 0.336042 4.25988 0.336042C3.72388 0.336042 3.26788 0.468042 2.89188 0.732042C2.51588 0.996042 2.21188 1.34004 1.97988 1.76404C1.74788 2.18004 1.57588 2.63204 1.46388 3.12004C1.35988 3.60004 1.30788 4.06404 1.30788 4.51204C1.30788 4.98404 1.35588 5.46004 1.45188 5.94004C1.54788 6.41204 1.70788 6.84804 1.93188 7.24804C2.15588 7.64004 2.45588 7.95604 2.83188 8.19604C3.21588 8.43604 3.69188 8.55604 4.25988 8.55604C4.82788 8.55604 5.29988 8.43204 5.67588 8.18404C6.05188 7.93604 6.34788 7.61204 6.56388 7.21204C6.78788 6.80404 6.94788 6.36004 7.04388 5.88004C7.13988 5.40004 7.18788 4.92404 7.18788 4.45204ZM8.49588 4.41604C8.49588 5.30404 8.33188 6.08804 8.00388 6.76804C7.68388 7.44004 7.20788 7.96404 6.57588 8.34004C5.95188 8.71604 5.17988 8.90404 4.25988 8.90404C3.36388 8.90404 2.59588 8.72404 1.95588 8.36404C1.32388 7.99604 0.839881 7.48404 0.503881 6.82804C0.167881 6.16404 -0.00011912 5.39204 -0.00011912 4.51204C-0.00011912 3.89604 0.0998809 3.31604 0.299881 2.77204C0.499881 2.22804 0.787881 1.74804 1.16388 1.33204C1.53988 0.916042 1.98788 0.592042 2.50788 0.360041C3.03588 0.120042 3.61988 4.17233e-05 4.25988 4.17233e-05C5.15588 4.17233e-05 5.91588 0.188042 6.53988 0.564042C7.17188 0.932042 7.65588 1.44804 7.99188 2.11204C8.32788 2.76804 8.49588 3.53604 8.49588 4.41604ZM14.7756 5.43604C14.7756 5.16404 14.7596 4.88004 14.7276 4.58404C14.6956 4.28004 14.6276 3.99604 14.5236 3.73204C14.4196 3.46804 14.2636 3.25604 14.0556 3.09604C13.8476 2.92804 13.5636 2.84404 13.2036 2.84404C12.9876 2.84404 12.7556 2.90004 12.5076 3.01204C12.2676 3.11604 12.0556 3.26004 11.8716 3.44404C11.6956 3.62804 11.5956 3.84004 11.5716 4.08004C11.5556 4.32804 11.5476 4.58004 11.5476 4.83604C11.5476 5.09204 11.5476 5.34804 11.5476 5.60404C11.5476 5.82804 11.5476 6.05604 11.5476 6.28804C11.5556 6.51204 11.5636 6.74004 11.5716 6.97204C11.5956 7.38004 11.7276 7.72804 11.9676 8.01604C12.2076 8.29604 12.5476 8.43604 12.9876 8.43604C13.4036 8.43604 13.7316 8.34404 13.9716 8.16004C14.2116 7.96804 14.3876 7.72004 14.4996 7.41604C14.6196 7.11204 14.6956 6.78804 14.7276 6.44404C14.7596 6.09204 14.7756 5.75604 14.7756 5.43604ZM16.0116 5.44804C16.0116 6.07204 15.8996 6.63604 15.6756 7.14004C15.4516 7.64404 15.1156 8.04404 14.6676 8.34004C14.2276 8.62804 13.6756 8.77204 13.0116 8.77204C12.7556 8.77204 12.4916 8.70804 12.2196 8.58004C11.9556 8.44404 11.7316 8.28804 11.5476 8.11204V10.668C11.5476 10.78 11.5916 10.844 11.6796 10.86C11.7756 10.876 11.8636 10.884 11.9436 10.884C12.0156 10.884 12.0876 10.88 12.1596 10.872C12.2316 10.864 12.3036 10.86 12.3756 10.86C12.4796 10.86 12.5316 10.912 12.5316 11.016C12.5316 11.136 12.4716 11.196 12.3516 11.196C12.1036 11.196 11.8556 11.188 11.6076 11.172C11.3596 11.156 11.1116 11.148 10.8636 11.148C10.6556 11.148 10.4476 11.156 10.2396 11.172C10.0396 11.188 9.83563 11.196 9.62763 11.196C9.57163 11.196 9.53563 11.176 9.51963 11.136C9.51163 11.096 9.50763 11.06 9.50763 11.028C9.50763 10.916 9.56363 10.86 9.67563 10.86C9.73963 10.86 9.80363 10.86 9.86763 10.86C9.93163 10.868 9.99563 10.872 10.0596 10.872C10.1156 10.872 10.1956 10.864 10.2996 10.848C10.4116 10.832 10.4676 10.784 10.4676 10.704C10.4676 9.87204 10.4676 9.03604 10.4676 8.19604C10.4756 7.35604 10.4796 6.52004 10.4796 5.68804C10.4796 5.31204 10.4756 4.94004 10.4676 4.57204C10.4676 4.20404 10.4636 3.83604 10.4556 3.46804C10.4476 3.29204 10.4156 3.17204 10.3596 3.10804C10.3036 3.03604 10.1836 3.00004 9.99963 3.00004C9.91963 3.00004 9.83963 3.01204 9.75963 3.03604C9.67963 3.05204 9.59963 3.06004 9.51963 3.06004C9.43163 3.06004 9.38763 3.02004 9.38763 2.94004C9.38763 2.86804 9.42363 2.82004 9.49563 2.79604C9.51163 2.78804 9.58363 2.77204 9.71163 2.74804C9.83963 2.72404 9.99163 2.69604 10.1676 2.66404C10.3516 2.62404 10.5316 2.58804 10.7076 2.55604C10.8836 2.52404 11.0316 2.49604 11.1516 2.47204C11.2716 2.44804 11.3356 2.43604 11.3436 2.43604C11.4076 2.43604 11.4516 2.47604 11.4756 2.55604C11.4916 2.60404 11.4996 2.69204 11.4996 2.82004C11.5076 2.94004 11.5116 3.06404 11.5116 3.19204C11.5116 3.31204 11.5116 3.40404 11.5116 3.46804C11.7356 3.17204 12.0196 2.92804 12.3636 2.73604C12.7156 2.53604 13.0796 2.43604 13.4556 2.43604C14.0076 2.43604 14.4716 2.58404 14.8476 2.88004C15.2316 3.16804 15.5196 3.54404 15.7116 4.00804C15.9116 4.46404 16.0116 4.94404 16.0116 5.44804ZM22.7244 7.40404C22.7244 7.43604 22.7164 7.46404 22.7004 7.48804C22.5244 7.75204 22.2924 7.98804 22.0044 8.19604C21.7164 8.40404 21.4044 8.57204 21.0684 8.70004C20.7404 8.82004 20.4204 8.88004 20.1084 8.88004C20.0524 8.88004 20.0004 8.87604 19.9524 8.86804C19.9044 8.86804 19.8564 8.86804 19.8084 8.86804C19.7284 8.99604 19.6444 9.11604 19.5564 9.22804C19.4764 9.34004 19.3964 9.45604 19.3164 9.57604C19.4444 9.56004 19.5684 9.54804 19.6884 9.54004C19.8164 9.53204 19.9444 9.52804 20.0724 9.52804C20.2244 9.52804 20.3884 9.54004 20.5644 9.56404C20.7484 9.59604 20.9044 9.65604 21.0324 9.74404C21.1684 9.84004 21.2364 9.98404 21.2364 10.176C21.2364 10.384 21.1764 10.548 21.0564 10.668C20.9444 10.788 20.8004 10.876 20.6244 10.932C20.4484 10.996 20.2644 11.036 20.0724 11.052C19.8804 11.068 19.7084 11.076 19.5564 11.076C19.4044 11.076 19.2364 11.048 19.0524 10.992C18.8764 10.944 18.7164 10.884 18.5724 10.812C18.5244 10.788 18.4404 10.74 18.3204 10.668C18.2084 10.596 18.1524 10.532 18.1524 10.476C18.1524 10.412 18.1804 10.38 18.2364 10.38C18.2604 10.38 18.3164 10.396 18.4044 10.428C18.4924 10.468 18.5524 10.496 18.5844 10.512C18.7364 10.56 18.8924 10.592 19.0524 10.608C19.2204 10.632 19.3804 10.644 19.5324 10.644C19.6204 10.644 19.7444 10.628 19.9044 10.596C20.0644 10.572 20.2084 10.528 20.3364 10.464C20.4724 10.4 20.5404 10.308 20.5404 10.188C20.5404 10.084 20.4924 10.004 20.3964 9.94804C20.3084 9.89204 20.2084 9.84804 20.0964 9.81604C19.9844 9.79204 19.8884 9.78004 19.8084 9.78004C19.6404 9.78004 19.4764 9.80004 19.3164 9.84004C19.1644 9.88004 19.0084 9.92804 18.8484 9.98404C18.9364 9.77604 19.0284 9.57604 19.1244 9.38404C19.2284 9.19204 19.3244 8.99604 19.4124 8.79604C18.9164 8.69204 18.4924 8.49604 18.1404 8.20804C17.7884 7.92004 17.5204 7.56404 17.3364 7.14004C17.1524 6.71604 17.0604 6.25604 17.0604 5.76004C17.0604 5.16804 17.1804 4.61204 17.4204 4.09204C17.6604 3.57204 18.0364 3.15204 18.5484 2.83204C18.7724 2.69604 19.0204 2.58804 19.2924 2.50804C19.5644 2.42804 19.8284 2.38804 20.0844 2.38804C20.3884 2.38804 20.6884 2.45204 20.9844 2.58004C21.1204 2.63604 21.2644 2.70004 21.4164 2.77204C21.5684 2.83604 21.7164 2.86804 21.8604 2.86804C21.9244 2.86804 21.9844 2.86004 22.0404 2.84404C22.0964 2.82804 22.1524 2.81604 22.2084 2.80804C22.2244 3.05604 22.2404 3.30804 22.2564 3.56404C22.2724 3.82004 22.2844 4.07604 22.2924 4.33204V4.36804C22.2924 4.46404 22.2804 4.53204 22.2564 4.57204C22.2404 4.60404 22.1764 4.62004 22.0644 4.62004C22.0084 4.62004 21.9724 4.59204 21.9564 4.53604C21.9404 4.48004 21.9244 4.42804 21.9084 4.38004C21.8524 4.14804 21.7644 3.90804 21.6444 3.66004C21.5324 3.40404 21.3844 3.19604 21.2004 3.03604C21.0804 2.92404 20.9324 2.83204 20.7564 2.76004C20.5804 2.68804 20.4124 2.65204 20.2524 2.65204C19.8684 2.65204 19.5444 2.75204 19.2804 2.95204C19.0164 3.14404 18.8004 3.39604 18.6324 3.70804C18.4724 4.01204 18.3564 4.34004 18.2844 4.69204C18.2124 5.04404 18.1764 5.37604 18.1764 5.68804C18.1764 6.00004 18.2124 6.31604 18.2844 6.63604C18.3564 6.95604 18.4684 7.25604 18.6204 7.53604C18.7804 7.80804 18.9884 8.02804 19.2444 8.19604C19.5004 8.36404 19.8124 8.44804 20.1804 8.44804C20.6604 8.44804 21.0644 8.36804 21.3924 8.20804C21.7284 8.04004 22.0524 7.78004 22.3644 7.42804C22.3884 7.41204 22.4044 7.38804 22.4124 7.35604C22.4284 7.32404 22.4524 7.30004 22.4844 7.28404C22.5004 7.26804 22.5324 7.26004 22.5804 7.26004C22.6764 7.26004 22.7244 7.30804 22.7244 7.40404ZM28.6049 5.70004C28.6049 5.35604 28.5769 5.01204 28.5209 4.66804C28.4729 4.31604 28.3769 3.99204 28.2329 3.69604C28.0969 3.40004 27.8969 3.16404 27.6329 2.98804C27.3689 2.80404 27.0249 2.71204 26.6009 2.71204C26.2009 2.71204 25.8729 2.80804 25.6169 3.00004C25.3689 3.19204 25.1729 3.44004 25.0289 3.74404C24.8929 4.04804 24.7969 4.37604 24.7409 4.72804C24.6929 5.08004 24.6689 5.41204 24.6689 5.72404C24.6689 6.06804 24.6929 6.41204 24.7409 6.75604C24.7969 7.10004 24.8969 7.41204 25.0409 7.69204C25.1849 7.96404 25.3889 8.18404 25.6529 8.35204C25.9249 8.52004 26.2729 8.60404 26.6969 8.60404C27.1129 8.60404 27.4449 8.51604 27.6929 8.34004C27.9489 8.16404 28.1409 7.93204 28.2689 7.64404C28.4049 7.35604 28.4929 7.04404 28.5329 6.70804C28.5809 6.36404 28.6049 6.02804 28.6049 5.70004ZM29.8409 5.73604C29.8409 6.33604 29.6969 6.87604 29.4089 7.35604C29.1289 7.83604 28.7449 8.21604 28.2569 8.49604C27.7769 8.77604 27.2369 8.91604 26.6369 8.91604C26.0529 8.91604 25.5249 8.77604 25.0529 8.49604C24.5809 8.20804 24.2049 7.82804 23.9249 7.35604C23.6449 6.87604 23.5049 6.34404 23.5049 5.76004C23.5049 5.16004 23.6409 4.60804 23.9129 4.10404C24.1849 3.59204 24.5569 3.18004 25.0289 2.86804C25.5089 2.55604 26.0609 2.40004 26.6849 2.40004C27.3569 2.40004 27.9289 2.54404 28.4009 2.83204C28.8729 3.11204 29.2289 3.50404 29.4689 4.00804C29.7169 4.50404 29.8409 5.08004 29.8409 5.73604ZM28.5329 0.444042C28.3889 0.620042 28.2249 0.800042 28.0409 0.984042C27.8569 1.16004 27.6409 1.24804 27.3929 1.24804C27.2009 1.24804 27.0209 1.20404 26.8529 1.11604C26.6849 1.02804 26.5209 0.940042 26.3609 0.852041C26.2009 0.764042 26.0369 0.720042 25.8689 0.720042C25.7009 0.720042 25.5489 0.780042 25.4129 0.900042C25.2849 1.01204 25.1689 1.12404 25.0649 1.23604L24.8129 1.08004C24.9169 0.936041 25.0249 0.788041 25.1369 0.636041C25.2569 0.484041 25.3929 0.356041 25.5449 0.252041C25.6969 0.148042 25.8729 0.0960419 26.0729 0.0960419C26.2569 0.0960419 26.4289 0.140042 26.5889 0.228042C26.7489 0.308042 26.9129 0.392041 27.0809 0.480041C27.2489 0.568042 27.4289 0.612042 27.6209 0.612042C27.7729 0.612042 27.8969 0.572042 27.9929 0.492042C28.0969 0.404042 28.2009 0.308041 28.3049 0.204041L28.5329 0.444042ZM35.2903 4.65604C35.2823 4.32804 35.2543 4.01604 35.2063 3.72004C35.1583 3.41604 35.0423 3.16804 34.8583 2.97604C34.6743 2.77604 34.3743 2.67604 33.9583 2.67604C33.5823 2.67604 33.2743 2.78004 33.0343 2.98804C32.8023 3.18804 32.6223 3.44404 32.4943 3.75604C32.3663 4.06004 32.2703 4.37204 32.2063 4.69204C32.4063 4.70004 32.6023 4.70804 32.7943 4.71604C32.9863 4.71604 33.1783 4.71604 33.3703 4.71604C33.6903 4.71604 34.0103 4.71204 34.3303 4.70404C34.6503 4.68804 34.9703 4.67204 35.2903 4.65604ZM36.6703 7.40404C36.6703 7.44404 36.6623 7.46804 36.6463 7.47604C36.6223 7.55604 36.5623 7.65204 36.4663 7.76404C36.3783 7.87604 36.2783 7.98404 36.1663 8.08804C36.0543 8.18404 35.9623 8.25604 35.8903 8.30404C35.6263 8.48804 35.3263 8.63604 34.9903 8.74804C34.6623 8.86004 34.3343 8.91604 34.0063 8.91604C33.7343 8.91604 33.4303 8.87204 33.0943 8.78404C32.7663 8.69604 32.4863 8.57604 32.2543 8.42404C31.8063 8.12804 31.4783 7.74004 31.2703 7.26004C31.0623 6.78004 30.9583 6.28004 30.9583 5.76004C30.9583 5.16804 31.0743 4.62004 31.3063 4.11604C31.5383 3.61204 31.9103 3.20404 32.4223 2.89204C32.6543 2.75604 32.9143 2.64404 33.2023 2.55604C33.4903 2.46004 33.7663 2.41204 34.0303 2.41204C34.5023 2.41204 34.9183 2.50804 35.2783 2.70004C35.6383 2.89204 35.9183 3.16404 36.1183 3.51604C36.3263 3.86004 36.4303 4.27204 36.4303 4.75204C36.4303 4.88804 36.3983 4.97604 36.3343 5.01604C36.2783 5.05604 36.1903 5.07604 36.0703 5.07604C35.9103 5.07604 35.7503 5.07204 35.5903 5.06404C35.4303 5.05604 35.2703 5.04804 35.1103 5.04004C34.8863 5.02404 34.6623 5.01604 34.4383 5.01604C34.2223 5.01604 34.0023 5.01604 33.7783 5.01604C33.5063 5.01604 33.2343 5.01604 32.9623 5.01604C32.6903 5.01604 32.4183 5.02404 32.1463 5.04004C32.1383 5.16804 32.1303 5.29204 32.1223 5.41204C32.1143 5.53204 32.1103 5.65604 32.1103 5.78404C32.1103 6.08004 32.1463 6.38804 32.2183 6.70804C32.2903 7.02004 32.4063 7.31204 32.5663 7.58404C32.7263 7.84804 32.9303 8.06404 33.1783 8.23204C33.4263 8.39204 33.7263 8.47204 34.0783 8.47204C34.4383 8.47204 34.7823 8.41604 35.1103 8.30404C35.4383 8.19204 35.7383 8.01204 36.0103 7.76404C36.0823 7.69204 36.1463 7.61604 36.2023 7.53604C36.2663 7.44804 36.3343 7.37204 36.4063 7.30804C36.4463 7.26804 36.4903 7.24804 36.5383 7.24804C36.5783 7.24804 36.6103 7.26404 36.6343 7.29604C36.6583 7.32804 36.6703 7.36404 36.6703 7.40404ZM41.9014 7.15204C41.9014 7.51204 41.8213 7.80804 41.6613 8.04004C41.5013 8.26404 41.2933 8.43604 41.0373 8.55604C40.7813 8.67604 40.5013 8.76004 40.1973 8.80804C39.8933 8.85604 39.5973 8.88004 39.3093 8.88004C39.0453 8.88004 38.7813 8.85204 38.5173 8.79604C38.2613 8.74004 38.0013 8.70004 37.7373 8.67604C37.6813 8.46004 37.6253 8.24404 37.5693 8.02804C37.5213 7.81204 37.4653 7.60004 37.4013 7.39204C37.3933 7.36804 37.3733 7.31204 37.3413 7.22404C37.3173 7.13604 37.3053 7.08804 37.3053 7.08004C37.3053 7.01604 37.3253 6.97204 37.3653 6.94804C37.4053 6.91604 37.4533 6.90004 37.5093 6.90004C37.5653 6.90004 37.6053 6.92004 37.6293 6.96004C37.6773 7.01604 37.7173 7.09204 37.7493 7.18804C37.7893 7.28404 37.8253 7.36804 37.8573 7.44004C37.9213 7.56804 37.9773 7.66804 38.0253 7.74004C38.0733 7.80404 38.1493 7.88804 38.2533 7.99204C38.5653 8.32004 38.9533 8.48404 39.4173 8.48404C39.6733 8.48404 39.9053 8.45604 40.1133 8.40004C40.3293 8.34404 40.5013 8.24004 40.6293 8.08804C40.7573 7.92804 40.8213 7.70004 40.8213 7.40404C40.8213 7.14804 40.7413 6.93604 40.5813 6.76804C40.4213 6.59204 40.2133 6.43604 39.9573 6.30004C39.7093 6.16404 39.4453 6.03204 39.1653 5.90404C38.8853 5.77604 38.6173 5.63604 38.3613 5.48404C38.1133 5.32404 37.9093 5.13204 37.7493 4.90804C37.5893 4.68404 37.5093 4.41204 37.5093 4.09204C37.5093 3.70004 37.6093 3.38004 37.8093 3.13204C38.0173 2.88404 38.2813 2.70004 38.6013 2.58004C38.9213 2.45204 39.2533 2.38804 39.5973 2.38804C39.8213 2.38804 40.0213 2.41604 40.1973 2.47204C40.3813 2.52804 40.5733 2.59204 40.7733 2.66404C40.8373 2.68804 40.9013 2.70404 40.9653 2.71204C41.0293 2.72004 41.0933 2.72404 41.1573 2.72404C41.1973 2.72404 41.2333 2.72404 41.2653 2.72404C41.2973 2.72404 41.3293 2.72004 41.3613 2.71204C41.3853 2.85604 41.4053 3.00404 41.4213 3.15604C41.4453 3.30004 41.4653 3.44804 41.4813 3.60004C41.4893 3.65604 41.4973 3.72404 41.5053 3.80404C41.5213 3.87604 41.5293 3.94404 41.5293 4.00804C41.5293 4.06404 41.5173 4.12404 41.4933 4.18804C41.4693 4.24404 41.4213 4.27204 41.3493 4.27204C41.2933 4.27204 41.2453 4.26804 41.2053 4.26004C41.1733 4.24404 41.1453 4.20804 41.1213 4.15204C41.0813 4.07204 41.0453 3.98804 41.0133 3.90004C40.9893 3.80404 40.9613 3.71604 40.9293 3.63604C40.8253 3.35604 40.6453 3.13204 40.3893 2.96404C40.1333 2.78804 39.8573 2.70004 39.5613 2.70004C39.1853 2.70004 38.9013 2.81204 38.7093 3.03604C38.5173 3.25204 38.4213 3.54404 38.4213 3.91204C38.4213 4.04004 38.4533 4.16404 38.5173 4.28404C38.5893 4.40404 38.6693 4.50804 38.7573 4.59604C38.9253 4.75604 39.1213 4.88004 39.3453 4.96804C39.5773 5.05604 39.7973 5.14404 40.0053 5.23204C40.2773 5.35204 40.5573 5.49604 40.8453 5.66404C41.1413 5.83204 41.3893 6.03604 41.5893 6.27604C41.7973 6.51604 41.9014 6.80804 41.9014 7.15204Z" fill="#8A7268"/>
</svg>
