<svg width="152" height="12" viewBox="0 0 152 12" fill="none" xmlns="http://www.w3.org/2000/svg">
<path d="M12.446 10.556C12.446 10.6867 12.3947 10.752 12.292 10.752C12.0307 10.752 11.7647 10.7427 11.494 10.724C11.2234 10.7054 10.9527 10.696 10.682 10.696C10.4114 10.696 10.136 10.7054 9.85602 10.724C9.58535 10.7427 9.31468 10.752 9.04402 10.752C9.00668 10.752 8.97868 10.7287 8.96002 10.682C8.95068 10.6354 8.94602 10.598 8.94602 10.57C8.94602 10.486 8.98802 10.4347 9.07202 10.416C9.16535 10.3974 9.26335 10.3927 9.36602 10.402C9.47802 10.4114 9.56202 10.416 9.61802 10.416C9.74868 10.416 9.85602 10.3834 9.94002 10.318C10.024 10.2527 10.066 10.1547 10.066 10.024C10.066 9.3987 10.0707 8.77804 10.08 8.16204C10.0987 7.54604 10.108 6.93004 10.108 6.31404C10.108 6.21137 10.108 6.1087 10.108 6.00604C10.108 5.90337 10.1034 5.8007 10.094 5.69804C10.0847 5.47404 10.0707 5.24537 10.052 5.01204C10.0427 4.76937 10.0054 4.54537 9.94002 4.34004C9.87468 4.12537 9.76268 3.9527 9.60402 3.82204C9.44535 3.69137 9.21668 3.62604 8.91802 3.62604C8.70335 3.62604 8.46535 3.69137 8.20402 3.82204C7.95202 3.94337 7.70935 4.08804 7.47602 4.25604C7.24268 4.42404 7.04668 4.5827 6.88802 4.73204C6.90668 4.8627 6.91602 4.99804 6.91602 5.13804C6.91602 5.2687 6.91602 5.39937 6.91602 5.53004C6.91602 5.8007 6.91602 6.07604 6.91602 6.35604C6.92535 6.6267 6.93002 6.89737 6.93002 7.16804C6.93002 7.64404 6.92535 8.12004 6.91602 8.59604C6.91602 9.07204 6.91602 9.54804 6.91602 10.024C6.91602 10.164 6.97668 10.262 7.09802 10.318C7.21935 10.374 7.34068 10.402 7.46202 10.402C7.53668 10.402 7.61135 10.3974 7.68602 10.388C7.77002 10.3787 7.84468 10.374 7.91002 10.374C7.95668 10.374 7.98468 10.3974 7.99402 10.444C8.01268 10.4907 8.02202 10.528 8.02202 10.556C8.02202 10.6027 8.00802 10.6494 7.98002 10.696C7.95202 10.7334 7.91002 10.752 7.85402 10.752C7.59268 10.752 7.32668 10.7427 7.05602 10.724C6.79468 10.7054 6.52868 10.696 6.25802 10.696C5.99668 10.696 5.73068 10.7054 5.46002 10.724C5.18935 10.7427 4.91868 10.752 4.64802 10.752C4.61068 10.752 4.58268 10.7287 4.56402 10.682C4.54535 10.6354 4.53602 10.598 4.53602 10.57C4.53602 10.4954 4.57335 10.444 4.64802 10.416C4.72268 10.3974 4.81135 10.3927 4.91402 10.402C5.02602 10.4114 5.11935 10.416 5.19402 10.416C5.32468 10.416 5.43202 10.388 5.51602 10.332C5.60935 10.2667 5.65602 10.164 5.65602 10.024V6.45404C5.65602 6.25804 5.65135 6.01537 5.64202 5.72604C5.64202 5.4367 5.62335 5.15204 5.58602 4.87204C5.55802 4.5827 5.50668 4.35404 5.43202 4.18604C5.36668 4.01804 5.25468 3.88737 5.09602 3.79404C4.94668 3.7007 4.77868 3.65404 4.59202 3.65404C4.34935 3.65404 4.10202 3.7147 3.85002 3.83604C3.59802 3.95737 3.36002 4.1067 3.13602 4.28404C2.91202 4.46137 2.72068 4.6387 2.56202 4.81604V10.01C2.56202 10.15 2.61335 10.2527 2.71602 10.318C2.81868 10.374 2.93068 10.402 3.05202 10.402C3.12668 10.402 3.20135 10.3974 3.27602 10.388C3.35068 10.3694 3.42068 10.36 3.48602 10.36C3.52335 10.36 3.54668 10.388 3.55602 10.444C3.56535 10.4907 3.57002 10.5234 3.57002 10.542C3.57002 10.5887 3.55602 10.6354 3.52802 10.682C3.50935 10.7194 3.47202 10.738 3.41602 10.738C3.23868 10.738 3.06135 10.7334 2.88402 10.724C2.70668 10.7054 2.52935 10.696 2.35202 10.696C1.99735 10.696 1.64268 10.7054 1.28802 10.724C0.93335 10.7334 0.578683 10.738 0.224017 10.738C0.186683 10.738 0.158683 10.7147 0.140017 10.668C0.12135 10.6214 0.112017 10.584 0.112017 10.556C0.112017 10.444 0.158683 10.388 0.252017 10.388C0.354683 10.388 0.452683 10.3927 0.546017 10.402C0.63935 10.402 0.732683 10.402 0.826017 10.402C0.956683 10.402 1.06868 10.374 1.16202 10.318C1.25535 10.2527 1.30202 10.15 1.30202 10.01C1.30202 9.06737 1.29735 8.1247 1.28802 7.18204C1.28802 6.23004 1.28802 5.2827 1.28802 4.34004C1.28802 4.23737 1.27868 4.1347 1.26002 4.03204C1.24135 3.92937 1.18068 3.85937 1.07802 3.82204C1.01268 3.79404 0.942683 3.78004 0.868017 3.78004C0.746683 3.78004 0.62535 3.7987 0.504017 3.83604C0.382683 3.86404 0.256683 3.87804 0.126017 3.87804C0.0420166 3.87804 1.6626e-05 3.82204 1.6626e-05 3.71004C1.6626e-05 3.63537 0.0280166 3.5887 0.0840166 3.57004C0.130683 3.55137 0.182017 3.54204 0.238017 3.54204C0.30335 3.5327 0.364017 3.52337 0.420017 3.51404C0.634683 3.48604 0.84935 3.45337 1.06402 3.41604C1.28802 3.36937 1.50268 3.3227 1.70802 3.27604C1.78268 3.25737 1.86202 3.2387 1.94602 3.22004C2.03002 3.20137 2.11402 3.19204 2.19802 3.19204C2.31002 3.19204 2.38468 3.27604 2.42202 3.44404C2.46868 3.6027 2.49202 3.77537 2.49202 3.96204C2.50135 4.1487 2.50602 4.28404 2.50602 4.36804C2.70202 4.20004 2.92135 4.02737 3.16402 3.85004C3.40668 3.66337 3.66335 3.5047 3.93402 3.37404C4.20468 3.24337 4.47535 3.17804 4.74602 3.17804C5.22202 3.17804 5.62335 3.25737 5.95002 3.41604C6.27668 3.5747 6.55668 3.87337 6.79002 4.31204C6.99535 4.1347 7.22868 3.95737 7.49002 3.78004C7.75135 3.59337 8.02202 3.43937 8.30202 3.31804C8.59135 3.18737 8.87602 3.12204 9.15602 3.12204C9.77202 3.12204 10.2387 3.2107 10.556 3.38804C10.8827 3.56537 11.102 3.8407 11.214 4.21404C11.3354 4.57804 11.396 5.04937 11.396 5.62804C11.396 6.35604 11.3914 7.0887 11.382 7.82604C11.3727 8.55404 11.368 9.2867 11.368 10.024C11.368 10.164 11.4287 10.262 11.55 10.318C11.6807 10.374 11.8067 10.402 11.928 10.402C12.0027 10.402 12.0727 10.3974 12.138 10.388C12.2127 10.3787 12.2827 10.374 12.348 10.374C12.3854 10.374 12.4087 10.3974 12.418 10.444C12.4367 10.4907 12.446 10.528 12.446 10.556ZM18.2829 5.82404C18.2736 5.44137 18.2409 5.07737 18.1849 4.73204C18.1289 4.37737 17.9936 4.08804 17.7789 3.86404C17.5643 3.6307 17.2143 3.51404 16.7289 3.51404C16.2903 3.51404 15.9309 3.63537 15.6509 3.87804C15.3803 4.11137 15.1703 4.41004 15.0209 4.77404C14.8716 5.1287 14.7596 5.4927 14.6849 5.86604C14.9183 5.87537 15.1469 5.8847 15.3709 5.89404C15.5949 5.89404 15.8189 5.89404 16.0429 5.89404C16.4163 5.89404 16.7896 5.88937 17.1629 5.88004C17.5363 5.86137 17.9096 5.8427 18.2829 5.82404ZM19.8929 9.03004C19.8929 9.0767 19.8836 9.1047 19.8649 9.11404C19.8369 9.20737 19.7669 9.31937 19.6549 9.45004C19.5523 9.5807 19.4356 9.7067 19.3049 9.82804C19.1743 9.94004 19.0669 10.024 18.9829 10.08C18.6749 10.2947 18.3249 10.4674 17.9329 10.598C17.5503 10.7287 17.1676 10.794 16.7849 10.794C16.4676 10.794 16.1129 10.7427 15.7209 10.64C15.3383 10.5374 15.0116 10.3974 14.7409 10.22C14.2183 9.8747 13.8356 9.42204 13.5929 8.86204C13.3503 8.30204 13.2289 7.7187 13.2289 7.11204C13.2289 6.42137 13.3643 5.78204 13.6349 5.19404C13.9056 4.60604 14.3396 4.13004 14.9369 3.76604C15.2076 3.60737 15.5109 3.4767 15.8469 3.37404C16.1829 3.26204 16.5049 3.20604 16.8129 3.20604C17.3636 3.20604 17.8489 3.31804 18.2689 3.54204C18.6889 3.76604 19.0156 4.08337 19.2489 4.49404C19.4916 4.89537 19.6129 5.37604 19.6129 5.93604C19.6129 6.0947 19.5756 6.19737 19.5009 6.24404C19.4356 6.2907 19.3329 6.31404 19.1929 6.31404C19.0063 6.31404 18.8196 6.30937 18.6329 6.30004C18.4463 6.2907 18.2596 6.28137 18.0729 6.27204C17.8116 6.25337 17.5503 6.24404 17.2889 6.24404C17.0369 6.24404 16.7803 6.24404 16.5189 6.24404C16.2016 6.24404 15.8843 6.24404 15.5669 6.24404C15.2496 6.24404 14.9323 6.25337 14.6149 6.27204C14.6056 6.42137 14.5963 6.56604 14.5869 6.70604C14.5776 6.84604 14.5729 6.9907 14.5729 7.14004C14.5729 7.48537 14.6149 7.8447 14.6989 8.21804C14.7829 8.58204 14.9183 8.9227 15.1049 9.24004C15.2916 9.54804 15.5296 9.80004 15.8189 9.99604C16.1083 10.1827 16.4583 10.276 16.8689 10.276C17.2889 10.276 17.6903 10.2107 18.0729 10.08C18.4556 9.94937 18.8056 9.73937 19.1229 9.45004C19.2069 9.36604 19.2816 9.27737 19.3469 9.18404C19.4216 9.08137 19.5009 8.9927 19.5849 8.91804C19.6316 8.87137 19.6829 8.84804 19.7389 8.84804C19.7856 8.84804 19.8229 8.8667 19.8509 8.90404C19.8789 8.94137 19.8929 8.98337 19.8929 9.03004ZM28.8518 10.36C28.8518 10.472 28.7678 10.556 28.5998 10.612C28.4412 10.668 28.2638 10.7054 28.0678 10.724C27.8718 10.7427 27.7318 10.752 27.6478 10.752C27.3305 10.752 27.0785 10.626 26.8918 10.374C26.7052 10.122 26.5652 9.8607 26.4718 9.59004C26.1545 9.99137 25.7578 10.29 25.2818 10.486C24.8058 10.682 24.3112 10.78 23.7978 10.78C22.9578 10.78 22.3745 10.5654 22.0478 10.136C21.7305 9.69737 21.5718 9.08137 21.5718 8.28804C21.5718 7.58804 21.5718 6.88804 21.5718 6.18804C21.5812 5.4787 21.5905 4.77404 21.5998 4.07404C21.5998 3.79404 21.4645 3.65404 21.1938 3.65404C21.1192 3.65404 21.0445 3.6587 20.9698 3.66804C20.8952 3.67737 20.8205 3.68204 20.7458 3.68204C20.7178 3.68204 20.6945 3.66804 20.6758 3.64004C20.6665 3.6027 20.6618 3.5747 20.6618 3.55604C20.6618 3.45337 20.7085 3.39737 20.8018 3.38804C21.1285 3.3507 21.4552 3.32737 21.7818 3.31804C22.1178 3.29937 22.4492 3.27137 22.7758 3.23404C22.8505 3.3087 22.8878 3.40204 22.8878 3.51404C22.8878 3.74737 22.8832 3.98537 22.8738 4.22804C22.8645 4.4707 22.8598 4.71337 22.8598 4.95604C22.8505 5.52537 22.8412 6.09937 22.8318 6.67804C22.8318 7.24737 22.8318 7.82137 22.8318 8.40004C22.8318 8.57737 22.8365 8.7687 22.8458 8.97404C22.8552 9.17004 22.8925 9.35204 22.9578 9.52004C23.0605 9.78137 23.2518 9.96804 23.5318 10.08C23.8212 10.1827 24.0965 10.234 24.3578 10.234C24.6472 10.234 24.9365 10.1827 25.2258 10.08C25.5245 9.96804 25.7765 9.80937 25.9818 9.60404C26.1965 9.38937 26.3178 9.12337 26.3458 8.80604C26.3645 8.64737 26.3738 8.4887 26.3738 8.33004C26.3832 8.16204 26.3878 7.9987 26.3878 7.84004L26.3738 4.03204C26.3738 3.9107 26.3318 3.82204 26.2478 3.76604C26.1732 3.71004 26.0845 3.68204 25.9818 3.68204C25.8885 3.68204 25.7952 3.6867 25.7018 3.69604C25.6178 3.70537 25.5292 3.71004 25.4358 3.71004C25.3518 3.71004 25.3098 3.66337 25.3098 3.57004C25.3098 3.4767 25.3518 3.42537 25.4358 3.41604C25.5478 3.39737 25.6645 3.38804 25.7858 3.38804C25.9072 3.3787 26.0285 3.36937 26.1498 3.36004L27.1158 3.26204C27.1812 3.2527 27.2465 3.24337 27.3118 3.23404C27.3865 3.2247 27.4565 3.22004 27.5218 3.22004C27.5685 3.22004 27.6012 3.24804 27.6198 3.30404C27.6385 3.3507 27.6478 3.38804 27.6478 3.41604C27.6198 5.44137 27.6058 7.46204 27.6058 9.47804C27.6058 9.71137 27.6572 9.9027 27.7598 10.052C27.8718 10.2014 28.0538 10.276 28.3058 10.276C28.3805 10.276 28.4458 10.2667 28.5018 10.248C28.5672 10.2294 28.6325 10.22 28.6978 10.22C28.8005 10.22 28.8518 10.2667 28.8518 10.36ZM34.7028 5.82404C34.6935 5.44137 34.6608 5.07737 34.6048 4.73204C34.5488 4.37737 34.4135 4.08804 34.1988 3.86404C33.9842 3.6307 33.6342 3.51404 33.1488 3.51404C32.7102 3.51404 32.3508 3.63537 32.0708 3.87804C31.8002 4.11137 31.5902 4.41004 31.4408 4.77404C31.2915 5.1287 31.1795 5.4927 31.1048 5.86604C31.3382 5.87537 31.5668 5.8847 31.7908 5.89404C32.0148 5.89404 32.2388 5.89404 32.4628 5.89404C32.8362 5.89404 33.2095 5.88937 33.5828 5.88004C33.9562 5.86137 34.3295 5.8427 34.7028 5.82404ZM36.3128 9.03004C36.3128 9.0767 36.3035 9.1047 36.2848 9.11404C36.2568 9.20737 36.1868 9.31937 36.0748 9.45004C35.9722 9.5807 35.8555 9.7067 35.7248 9.82804C35.5942 9.94004 35.4868 10.024 35.4028 10.08C35.0948 10.2947 34.7448 10.4674 34.3528 10.598C33.9702 10.7287 33.5875 10.794 33.2048 10.794C32.8875 10.794 32.5328 10.7427 32.1408 10.64C31.7582 10.5374 31.4315 10.3974 31.1608 10.22C30.6382 9.8747 30.2555 9.42204 30.0128 8.86204C29.7702 8.30204 29.6488 7.7187 29.6488 7.11204C29.6488 6.42137 29.7842 5.78204 30.0548 5.19404C30.3255 4.60604 30.7595 4.13004 31.3568 3.76604C31.6275 3.60737 31.9308 3.4767 32.2668 3.37404C32.6028 3.26204 32.9248 3.20604 33.2328 3.20604C33.7835 3.20604 34.2688 3.31804 34.6888 3.54204C35.1088 3.76604 35.4355 4.08337 35.6688 4.49404C35.9115 4.89537 36.0328 5.37604 36.0328 5.93604C36.0328 6.0947 35.9955 6.19737 35.9208 6.24404C35.8555 6.2907 35.7528 6.31404 35.6128 6.31404C35.4262 6.31404 35.2395 6.30937 35.0528 6.30004C34.8662 6.2907 34.6795 6.28137 34.4928 6.27204C34.2315 6.25337 33.9702 6.24404 33.7088 6.24404C33.4568 6.24404 33.2002 6.24404 32.9388 6.24404C32.6215 6.24404 32.3042 6.24404 31.9868 6.24404C31.6695 6.24404 31.3522 6.25337 31.0348 6.27204C31.0255 6.42137 31.0162 6.56604 31.0068 6.70604C30.9975 6.84604 30.9928 6.9907 30.9928 7.14004C30.9928 7.48537 31.0348 7.8447 31.1188 8.21804C31.2028 8.58204 31.3382 8.9227 31.5248 9.24004C31.7115 9.54804 31.9495 9.80004 32.2388 9.99604C32.5282 10.1827 32.8782 10.276 33.2888 10.276C33.7088 10.276 34.1102 10.2107 34.4928 10.08C34.8755 9.94937 35.2255 9.73937 35.5428 9.45004C35.6268 9.36604 35.7015 9.27737 35.7668 9.18404C35.8415 9.08137 35.9208 8.9927 36.0048 8.91804C36.0515 8.87137 36.1028 8.84804 36.1588 8.84804C36.2055 8.84804 36.2428 8.8667 36.2708 8.90404C36.2988 8.94137 36.3128 8.98337 36.3128 9.03004ZM49.3738 10.556C49.3738 10.6867 49.3224 10.752 49.2198 10.752C48.9584 10.752 48.6924 10.7427 48.4218 10.724C48.1511 10.7054 47.8804 10.696 47.6098 10.696C47.3391 10.696 47.0638 10.7054 46.7838 10.724C46.5131 10.7427 46.2424 10.752 45.9718 10.752C45.9344 10.752 45.9064 10.7287 45.8878 10.682C45.8784 10.6354 45.8738 10.598 45.8738 10.57C45.8738 10.486 45.9158 10.4347 45.9998 10.416C46.0931 10.3974 46.1911 10.3927 46.2938 10.402C46.4058 10.4114 46.4898 10.416 46.5458 10.416C46.6764 10.416 46.7838 10.3834 46.8678 10.318C46.9518 10.2527 46.9938 10.1547 46.9938 10.024C46.9938 9.3987 46.9984 8.77804 47.0078 8.16204C47.0264 7.54604 47.0358 6.93004 47.0358 6.31404C47.0358 6.21137 47.0358 6.1087 47.0358 6.00604C47.0358 5.90337 47.0311 5.8007 47.0218 5.69804C47.0124 5.47404 46.9984 5.24537 46.9798 5.01204C46.9704 4.76937 46.9331 4.54537 46.8678 4.34004C46.8024 4.12537 46.6904 3.9527 46.5318 3.82204C46.3731 3.69137 46.1444 3.62604 45.8458 3.62604C45.6311 3.62604 45.3931 3.69137 45.1318 3.82204C44.8798 3.94337 44.6371 4.08804 44.4038 4.25604C44.1704 4.42404 43.9744 4.5827 43.8158 4.73204C43.8344 4.8627 43.8438 4.99804 43.8438 5.13804C43.8438 5.2687 43.8438 5.39937 43.8438 5.53004C43.8438 5.8007 43.8438 6.07604 43.8438 6.35604C43.8531 6.6267 43.8578 6.89737 43.8578 7.16804C43.8578 7.64404 43.8531 8.12004 43.8438 8.59604C43.8438 9.07204 43.8438 9.54804 43.8438 10.024C43.8438 10.164 43.9044 10.262 44.0258 10.318C44.1471 10.374 44.2684 10.402 44.3898 10.402C44.4644 10.402 44.5391 10.3974 44.6138 10.388C44.6978 10.3787 44.7724 10.374 44.8378 10.374C44.8844 10.374 44.9124 10.3974 44.9218 10.444C44.9404 10.4907 44.9498 10.528 44.9498 10.556C44.9498 10.6027 44.9358 10.6494 44.9078 10.696C44.8798 10.7334 44.8378 10.752 44.7818 10.752C44.5204 10.752 44.2544 10.7427 43.9838 10.724C43.7224 10.7054 43.4564 10.696 43.1858 10.696C42.9244 10.696 42.6584 10.7054 42.3878 10.724C42.1171 10.7427 41.8464 10.752 41.5758 10.752C41.5384 10.752 41.5104 10.7287 41.4918 10.682C41.4731 10.6354 41.4638 10.598 41.4638 10.57C41.4638 10.4954 41.5011 10.444 41.5758 10.416C41.6504 10.3974 41.7391 10.3927 41.8418 10.402C41.9538 10.4114 42.0471 10.416 42.1218 10.416C42.2524 10.416 42.3598 10.388 42.4438 10.332C42.5371 10.2667 42.5838 10.164 42.5838 10.024V6.45404C42.5838 6.25804 42.5791 6.01537 42.5698 5.72604C42.5698 5.4367 42.5511 5.15204 42.5138 4.87204C42.4858 4.5827 42.4344 4.35404 42.3598 4.18604C42.2944 4.01804 42.1824 3.88737 42.0238 3.79404C41.8744 3.7007 41.7064 3.65404 41.5198 3.65404C41.2771 3.65404 41.0298 3.7147 40.7778 3.83604C40.5258 3.95737 40.2878 4.1067 40.0638 4.28404C39.8398 4.46137 39.6484 4.6387 39.4898 4.81604V10.01C39.4898 10.15 39.5411 10.2527 39.6438 10.318C39.7464 10.374 39.8584 10.402 39.9798 10.402C40.0544 10.402 40.1291 10.3974 40.2038 10.388C40.2784 10.3694 40.3484 10.36 40.4138 10.36C40.4511 10.36 40.4744 10.388 40.4838 10.444C40.4931 10.4907 40.4978 10.5234 40.4978 10.542C40.4978 10.5887 40.4838 10.6354 40.4558 10.682C40.4371 10.7194 40.3998 10.738 40.3438 10.738C40.1664 10.738 39.9891 10.7334 39.8118 10.724C39.6344 10.7054 39.4571 10.696 39.2798 10.696C38.9251 10.696 38.5704 10.7054 38.2158 10.724C37.8611 10.7334 37.5064 10.738 37.1518 10.738C37.1144 10.738 37.0864 10.7147 37.0678 10.668C37.0491 10.6214 37.0398 10.584 37.0398 10.556C37.0398 10.444 37.0864 10.388 37.1798 10.388C37.2824 10.388 37.3804 10.3927 37.4738 10.402C37.5671 10.402 37.6604 10.402 37.7538 10.402C37.8844 10.402 37.9964 10.374 38.0898 10.318C38.1831 10.2527 38.2298 10.15 38.2298 10.01C38.2298 9.06737 38.2251 8.1247 38.2158 7.18204C38.2158 6.23004 38.2158 5.2827 38.2158 4.34004C38.2158 4.23737 38.2064 4.1347 38.1878 4.03204C38.1691 3.92937 38.1084 3.85937 38.0058 3.82204C37.9404 3.79404 37.8704 3.78004 37.7958 3.78004C37.6744 3.78004 37.5531 3.7987 37.4318 3.83604C37.3104 3.86404 37.1844 3.87804 37.0538 3.87804C36.9698 3.87804 36.9278 3.82204 36.9278 3.71004C36.9278 3.63537 36.9558 3.5887 37.0118 3.57004C37.0584 3.55137 37.1098 3.54204 37.1658 3.54204C37.2311 3.5327 37.2918 3.52337 37.3478 3.51404C37.5624 3.48604 37.7771 3.45337 37.9918 3.41604C38.2158 3.36937 38.4304 3.3227 38.6358 3.27604C38.7104 3.25737 38.7898 3.2387 38.8738 3.22004C38.9578 3.20137 39.0418 3.19204 39.1258 3.19204C39.2378 3.19204 39.3124 3.27604 39.3498 3.44404C39.3964 3.6027 39.4198 3.77537 39.4198 3.96204C39.4291 4.1487 39.4338 4.28404 39.4338 4.36804C39.6298 4.20004 39.8491 4.02737 40.0918 3.85004C40.3344 3.66337 40.5911 3.5047 40.8618 3.37404C41.1324 3.24337 41.4031 3.17804 41.6738 3.17804C42.1498 3.17804 42.5511 3.25737 42.8778 3.41604C43.2044 3.5747 43.4844 3.87337 43.7178 4.31204C43.9231 4.1347 44.1564 3.95737 44.4178 3.78004C44.6791 3.59337 44.9498 3.43937 45.2298 3.31804C45.5191 3.18737 45.8038 3.12204 46.0838 3.12204C46.6998 3.12204 47.1664 3.2107 47.4838 3.38804C47.8104 3.56537 48.0298 3.8407 48.1418 4.21404C48.2631 4.57804 48.3238 5.04937 48.3238 5.62804C48.3238 6.35604 48.3191 7.0887 48.3098 7.82604C48.3004 8.55404 48.2958 9.2867 48.2958 10.024C48.2958 10.164 48.3564 10.262 48.4778 10.318C48.6084 10.374 48.7344 10.402 48.8558 10.402C48.9304 10.402 49.0004 10.3974 49.0658 10.388C49.1404 10.3787 49.2104 10.374 49.2758 10.374C49.3131 10.374 49.3364 10.3974 49.3458 10.444C49.3644 10.4907 49.3738 10.528 49.3738 10.556ZM54.5667 9.10004C54.5293 8.68004 54.506 8.26004 54.4967 7.84004C54.4967 7.4107 54.492 6.98137 54.4827 6.55204H54.2867C53.9973 6.55204 53.6753 6.5987 53.3207 6.69204C52.9753 6.77604 52.644 6.9067 52.3267 7.08404C52.0093 7.26137 51.748 7.48537 51.5427 7.75604C51.3467 8.01737 51.2487 8.3207 51.2487 8.66604C51.2487 9.11404 51.3747 9.4547 51.6267 9.68804C51.8787 9.91204 52.2193 10.024 52.6487 10.024C52.854 10.024 53.078 9.97737 53.3207 9.88404C53.5633 9.78137 53.7967 9.66004 54.0207 9.52004C54.2447 9.38004 54.4267 9.24004 54.5667 9.10004ZM57.0167 9.99604C57.0167 10.0334 57.012 10.0614 57.0027 10.08C56.9093 10.2854 56.7507 10.444 56.5267 10.556C56.312 10.6587 56.0973 10.71 55.8827 10.71C55.4907 10.71 55.206 10.598 55.0287 10.374C54.8607 10.1407 54.7253 9.85604 54.6227 9.52004C54.268 9.8467 53.876 10.122 53.4467 10.346C53.0173 10.5607 52.5553 10.668 52.0607 10.668C51.7153 10.668 51.3887 10.6027 51.0807 10.472C50.782 10.332 50.5393 10.1314 50.3527 9.87004C50.166 9.6087 50.0727 9.29137 50.0727 8.91804C50.0727 8.52604 50.1707 8.19004 50.3667 7.91004C50.572 7.6207 50.8287 7.37804 51.1367 7.18204C51.454 6.9767 51.79 6.81337 52.1447 6.69204C52.5087 6.56137 52.8493 6.46337 53.1667 6.39804C53.3813 6.35137 53.6007 6.30937 53.8247 6.27204C54.0487 6.2347 54.268 6.19737 54.4827 6.16004C54.4827 5.8987 54.4687 5.59537 54.4407 5.25004C54.422 4.9047 54.352 4.62004 54.2307 4.39604C54.1093 4.18137 53.946 3.99004 53.7407 3.82204C53.5353 3.65404 53.3067 3.57004 53.0547 3.57004C52.6253 3.57004 52.2893 3.68204 52.0467 3.90604C51.804 4.13004 51.6313 4.44737 51.5287 4.85804C51.5193 4.9047 51.51 4.95604 51.5007 5.01204C51.5007 5.0587 51.496 5.10537 51.4867 5.15204C51.4773 5.20804 51.44 5.25937 51.3747 5.30604C51.3187 5.34337 51.258 5.36204 51.1927 5.36204C51.0153 5.36204 50.852 5.32004 50.7027 5.23604C50.5627 5.15204 50.4927 5.01204 50.4927 4.81604C50.4927 4.70404 50.5113 4.60604 50.5487 4.52204C50.67 4.2327 50.866 3.9947 51.1367 3.80804C51.4073 3.61204 51.706 3.4627 52.0327 3.36004C52.3687 3.25737 52.6813 3.20604 52.9707 3.20604C53.4747 3.20604 53.932 3.29937 54.3427 3.48604C54.7533 3.6727 55.08 3.94804 55.3227 4.31204C55.5747 4.6667 55.7007 5.1147 55.7007 5.65604C55.7007 6.2627 55.696 6.87404 55.6867 7.49004C55.6867 8.10604 55.7053 8.72204 55.7427 9.33804C55.752 9.54337 55.794 9.72537 55.8687 9.88404C55.9433 10.0334 56.0973 10.108 56.3307 10.108C56.452 10.108 56.578 10.08 56.7087 10.024C56.8487 9.9587 56.9373 9.92604 56.9747 9.92604C57.0027 9.92604 57.0167 9.94937 57.0167 9.99604ZM61.5519 10.528C61.5519 10.5747 61.5379 10.6214 61.5099 10.668C61.4819 10.7054 61.4446 10.724 61.3979 10.724C61.1366 10.724 60.8752 10.7194 60.6139 10.71C60.3619 10.6914 60.1006 10.682 59.8299 10.682H59.4519C59.1719 10.682 58.8919 10.6914 58.6119 10.71C58.3412 10.7194 58.0706 10.724 57.7999 10.724C57.7626 10.724 57.7346 10.7007 57.7159 10.654C57.7066 10.6074 57.7019 10.57 57.7019 10.542C57.7019 10.4954 57.7066 10.4627 57.7159 10.444C57.7252 10.416 57.7532 10.3974 57.7999 10.388C57.8466 10.3694 57.8979 10.3647 57.9539 10.374C58.0192 10.374 58.0799 10.374 58.1359 10.374C58.2012 10.374 58.2619 10.3787 58.3179 10.388C58.3739 10.388 58.4346 10.388 58.4999 10.388C58.6306 10.388 58.7472 10.36 58.8499 10.304C58.9619 10.2387 59.0179 10.1314 59.0179 9.98204V4.38204C59.0179 4.22337 58.9899 4.10204 58.9339 4.01804C58.8779 3.9247 58.7612 3.87804 58.5839 3.87804C58.4532 3.87804 58.3179 3.88737 58.1779 3.90604C58.0472 3.91537 57.9166 3.92937 57.7859 3.94804C57.7112 3.94804 57.6739 3.90604 57.6739 3.82204C57.6739 3.7287 57.7112 3.66804 57.7859 3.64004C57.8979 3.6027 58.0146 3.57937 58.1359 3.57004C58.2666 3.55137 58.3879 3.5327 58.4999 3.51404C58.7612 3.46737 59.0226 3.41604 59.2839 3.36004C59.5452 3.30404 59.8019 3.24337 60.0539 3.17804C60.0819 3.1687 60.1192 3.16404 60.1659 3.16404C60.2686 3.16404 60.3199 3.22004 60.3199 3.33204C60.3199 4.43337 60.3152 5.53937 60.3059 6.65004C60.3059 7.7607 60.3059 8.87137 60.3059 9.98204C60.3059 10.1314 60.3712 10.2387 60.5019 10.304C60.6419 10.36 60.7726 10.388 60.8939 10.388C60.9872 10.388 61.0806 10.3834 61.1739 10.374C61.2766 10.3647 61.3746 10.36 61.4679 10.36C61.5052 10.36 61.5286 10.3834 61.5379 10.43C61.5472 10.4767 61.5519 10.5094 61.5519 10.528ZM60.4179 0.840037C60.4179 1.07337 60.3339 1.27404 60.1659 1.44204C59.9979 1.6007 59.7972 1.68004 59.5639 1.68004C59.3306 1.68004 59.1299 1.6007 58.9619 1.44204C58.7939 1.27404 58.7099 1.07337 58.7099 0.840037C58.7099 0.606703 58.7939 0.410703 58.9619 0.252037C59.1299 0.0840369 59.3306 3.68357e-05 59.5639 3.68357e-05C59.7972 3.68357e-05 59.9979 0.0840369 60.1659 0.252037C60.3339 0.410703 60.4179 0.606703 60.4179 0.840037ZM66.3364 10.556C66.3364 10.6027 66.3224 10.6494 66.2944 10.696C66.2757 10.7334 66.2384 10.752 66.1824 10.752C65.8931 10.752 65.5991 10.7474 65.3004 10.738C65.0017 10.7194 64.7031 10.71 64.4044 10.71H63.9144C63.7184 10.71 63.5224 10.7194 63.3264 10.738C63.1304 10.7474 62.9344 10.752 62.7384 10.752C62.7011 10.752 62.6731 10.738 62.6544 10.71C62.6451 10.6727 62.6404 10.64 62.6404 10.612C62.6404 10.584 62.6404 10.556 62.6404 10.528C62.6404 10.5 62.6451 10.472 62.6544 10.444C62.6731 10.4067 62.7244 10.388 62.8084 10.388C62.9017 10.3787 62.9951 10.3787 63.0884 10.388C63.1911 10.388 63.2564 10.388 63.2844 10.388C63.4151 10.388 63.5317 10.36 63.6344 10.304C63.7371 10.2387 63.7884 10.1314 63.7884 9.98204C63.7884 9.26337 63.7931 8.54937 63.8024 7.84004C63.8117 7.12137 63.8164 6.40737 63.8164 5.69804C63.8164 4.97004 63.8117 4.24204 63.8024 3.51404C63.8024 2.7767 63.8024 2.04404 63.8024 1.31604C63.8024 1.2507 63.7977 1.1807 63.7884 1.10604C63.7791 1.02204 63.7511 0.956703 63.7044 0.910037C63.6671 0.86337 63.6297 0.840037 63.5924 0.840037C63.5551 0.830704 63.5084 0.826037 63.4524 0.826037C63.2844 0.826037 63.1164 0.854037 62.9484 0.910037C62.7897 0.966037 62.6311 0.994037 62.4724 0.994037C62.3697 0.994037 62.3184 0.93337 62.3184 0.812036C62.3184 0.73737 62.3744 0.686037 62.4864 0.658037C62.6077 0.630037 62.7011 0.61137 62.7664 0.602037C63.0931 0.52737 63.4477 0.44337 63.8304 0.350037C64.2131 0.256703 64.5584 0.14937 64.8664 0.0280365C64.8851 0.0280365 64.9037 0.0233699 64.9224 0.0140367C64.9411 0.00470344 64.9551 3.68357e-05 64.9644 3.68357e-05C65.0204 3.68357e-05 65.0531 0.0187035 65.0624 0.0560369C65.0811 0.0933698 65.0904 0.13537 65.0904 0.182037C65.0904 0.44337 65.0857 0.704704 65.0764 0.966037C65.0764 1.21804 65.0764 1.4747 65.0764 1.73604V5.65604C65.0764 6.3747 65.0811 7.09804 65.0904 7.82604C65.0997 8.5447 65.1044 9.26337 65.1044 9.98204C65.1044 10.1314 65.1651 10.2387 65.2864 10.304C65.4171 10.36 65.5431 10.388 65.6644 10.388C65.7671 10.388 65.8651 10.3834 65.9584 10.374C66.0517 10.3647 66.1451 10.36 66.2384 10.36C66.2851 10.36 66.3131 10.388 66.3224 10.444C66.3317 10.4907 66.3364 10.528 66.3364 10.556ZM74.6202 4.50804C74.6202 4.23737 74.5456 4.02737 74.3962 3.87804C74.2469 3.7287 74.0369 3.65404 73.7662 3.65404C73.4209 3.65404 73.1269 3.7567 72.8842 3.96204C72.6509 4.15804 72.4596 4.4147 72.3102 4.73204C72.1702 5.04004 72.0676 5.36204 72.0022 5.69804C71.9369 6.03404 71.9042 6.34204 71.9042 6.62204C71.9042 6.87404 71.9276 7.12137 71.9742 7.36404C72.0302 7.59737 72.1329 7.79337 72.2822 7.95204C72.4409 8.1107 72.6742 8.19004 72.9822 8.19004C73.1876 8.19004 73.3509 8.14804 73.4722 8.06404C73.6029 7.9707 73.7196 7.84004 73.8222 7.67204C73.9062 7.54137 73.9902 7.33604 74.0742 7.05604C74.1676 6.77604 74.2562 6.46804 74.3402 6.13204C74.4242 5.79604 74.4896 5.48337 74.5362 5.19404C74.5922 4.89537 74.6202 4.6667 74.6202 4.50804ZM78.3162 5.33404C78.3162 5.75404 78.2509 6.17404 78.1202 6.59404C77.9989 7.0047 77.8216 7.38737 77.5882 7.74204C77.1029 8.5167 76.3936 8.90404 75.4602 8.90404C75.1056 8.90404 74.8256 8.80137 74.6202 8.59604C74.4149 8.3907 74.2749 8.12937 74.2002 7.81204C73.9762 8.15737 73.7289 8.42337 73.4582 8.61004C73.1876 8.7967 72.8376 8.89004 72.4082 8.89004C72.1562 8.89004 71.9276 8.8107 71.7222 8.65204C71.5169 8.48404 71.3489 8.29737 71.2182 8.09204C71.0876 7.86804 70.9989 7.63004 70.9522 7.37804C70.9149 7.1167 70.8962 6.86004 70.8962 6.60804C70.8962 6.33737 70.9382 6.0527 71.0222 5.75404C71.1062 5.44604 71.2136 5.15204 71.3442 4.87204C71.4842 4.5827 71.6382 4.33537 71.8062 4.13004C72.0396 3.83137 72.3056 3.6027 72.6042 3.44404C72.9122 3.28537 73.2576 3.20604 73.6402 3.20604C73.9016 3.20604 74.1396 3.2807 74.3542 3.43004C74.5782 3.57004 74.7649 3.74737 74.9142 3.96204C74.9702 3.85937 75.0262 3.75204 75.0822 3.64004C75.1382 3.52804 75.1989 3.4207 75.2642 3.31804C75.4042 3.34604 75.5396 3.36937 75.6702 3.38804C75.8102 3.4067 75.9456 3.4347 76.0762 3.47204C76.0109 3.67737 75.9176 3.9667 75.7962 4.34004C75.6749 4.70404 75.5536 5.09604 75.4322 5.51604C75.3109 5.93604 75.2082 6.32804 75.1242 6.69204C75.0402 7.05604 74.9982 7.33137 74.9982 7.51804C74.9982 7.69537 75.0542 7.87737 75.1662 8.06404C75.2782 8.2507 75.4322 8.34404 75.6282 8.34404C76.0296 8.34404 76.3609 8.23204 76.6222 8.00804C76.8929 7.7747 77.1076 7.48537 77.2662 7.14004C77.4249 6.78537 77.5369 6.4167 77.6022 6.03404C77.6676 5.64204 77.7002 5.28737 77.7002 4.97004C77.7002 4.61537 77.6582 4.25137 77.5742 3.87804C77.4996 3.5047 77.3689 3.1687 77.1822 2.87004C76.9396 2.4687 76.6222 2.14204 76.2302 1.89004C75.8476 1.6287 75.4276 1.43737 74.9702 1.31604C74.5222 1.18537 74.0742 1.12004 73.6262 1.12004C72.8796 1.12004 72.2216 1.2647 71.6522 1.55404C71.0829 1.84337 70.6069 2.24004 70.2242 2.74404C69.8416 3.24804 69.5522 3.81737 69.3562 4.45204C69.1602 5.07737 69.0622 5.73537 69.0622 6.42604C69.0622 7.0327 69.1556 7.61137 69.3422 8.16204C69.5382 8.7127 69.8182 9.20737 70.1822 9.64604C70.5462 10.0754 70.9802 10.416 71.4842 10.668C71.9976 10.9107 72.5762 11.032 73.2202 11.032C73.9389 11.032 74.6202 10.9154 75.2642 10.682C75.9176 10.4487 76.5429 10.1454 77.1402 9.77204C77.1589 9.75337 77.1822 9.7487 77.2102 9.75804C77.2476 9.76737 77.2662 9.78604 77.2662 9.81404C77.2662 9.87937 77.2336 9.9447 77.1682 10.01C77.1122 10.066 77.0609 10.1174 77.0142 10.164C76.7342 10.416 76.3656 10.6447 75.9082 10.85C75.4602 11.0647 74.9936 11.2327 74.5082 11.354C74.0229 11.4847 73.5889 11.55 73.2062 11.55C72.0769 11.55 71.0689 11.2887 70.1822 10.766C69.3049 10.2527 68.6469 9.45937 68.2082 8.38604C68.0869 8.0967 67.9889 7.7887 67.9142 7.46204C67.8489 7.13537 67.8162 6.81804 67.8162 6.51004C67.8162 5.70737 67.9656 4.95604 68.2642 4.25604C68.5722 3.55604 68.9922 2.94004 69.5242 2.40804C70.0562 1.87604 70.6722 1.4607 71.3722 1.16204C72.0816 0.86337 72.8376 0.714037 73.6402 0.714037C75.1149 0.714037 76.2629 1.1107 77.0842 1.90404C77.9056 2.69737 78.3162 3.8407 78.3162 5.33404ZM85.0837 5.82404C85.0744 5.44137 85.0417 5.07737 84.9857 4.73204C84.9297 4.37737 84.7944 4.08804 84.5797 3.86404C84.365 3.6307 84.015 3.51404 83.5297 3.51404C83.091 3.51404 82.7317 3.63537 82.4517 3.87804C82.181 4.11137 81.971 4.41004 81.8217 4.77404C81.6724 5.1287 81.5604 5.4927 81.4857 5.86604C81.719 5.87537 81.9477 5.8847 82.1717 5.89404C82.3957 5.89404 82.6197 5.89404 82.8437 5.89404C83.217 5.89404 83.5904 5.88937 83.9637 5.88004C84.337 5.86137 84.7104 5.8427 85.0837 5.82404ZM86.6937 9.03004C86.6937 9.0767 86.6844 9.1047 86.6657 9.11404C86.6377 9.20737 86.5677 9.31937 86.4557 9.45004C86.353 9.5807 86.2364 9.7067 86.1057 9.82804C85.975 9.94004 85.8677 10.024 85.7837 10.08C85.4757 10.2947 85.1257 10.4674 84.7337 10.598C84.351 10.7287 83.9684 10.794 83.5857 10.794C83.2684 10.794 82.9137 10.7427 82.5217 10.64C82.139 10.5374 81.8124 10.3974 81.5417 10.22C81.019 9.8747 80.6364 9.42204 80.3937 8.86204C80.151 8.30204 80.0297 7.7187 80.0297 7.11204C80.0297 6.42137 80.165 5.78204 80.4357 5.19404C80.7064 4.60604 81.1404 4.13004 81.7377 3.76604C82.0084 3.60737 82.3117 3.4767 82.6477 3.37404C82.9837 3.26204 83.3057 3.20604 83.6137 3.20604C84.1644 3.20604 84.6497 3.31804 85.0697 3.54204C85.4897 3.76604 85.8164 4.08337 86.0497 4.49404C86.2924 4.89537 86.4137 5.37604 86.4137 5.93604C86.4137 6.0947 86.3764 6.19737 86.3017 6.24404C86.2364 6.2907 86.1337 6.31404 85.9937 6.31404C85.807 6.31404 85.6204 6.30937 85.4337 6.30004C85.247 6.2907 85.0604 6.28137 84.8737 6.27204C84.6124 6.25337 84.351 6.24404 84.0897 6.24404C83.8377 6.24404 83.581 6.24404 83.3197 6.24404C83.0024 6.24404 82.685 6.24404 82.3677 6.24404C82.0504 6.24404 81.733 6.25337 81.4157 6.27204C81.4064 6.42137 81.397 6.56604 81.3877 6.70604C81.3784 6.84604 81.3737 6.9907 81.3737 7.14004C81.3737 7.48537 81.4157 7.8447 81.4997 8.21804C81.5837 8.58204 81.719 8.9227 81.9057 9.24004C82.0924 9.54804 82.3304 9.80004 82.6197 9.99604C82.909 10.1827 83.259 10.276 83.6697 10.276C84.0897 10.276 84.491 10.2107 84.8737 10.08C85.2564 9.94937 85.6064 9.73937 85.9237 9.45004C86.0077 9.36604 86.0824 9.27737 86.1477 9.18404C86.2224 9.08137 86.3017 8.9927 86.3857 8.91804C86.4324 8.87137 86.4837 8.84804 86.5397 8.84804C86.5864 8.84804 86.6237 8.8667 86.6517 8.90404C86.6797 8.94137 86.6937 8.98337 86.6937 9.03004ZM99.7546 10.556C99.7546 10.6867 99.7033 10.752 99.6006 10.752C99.3393 10.752 99.0733 10.7427 98.8026 10.724C98.5319 10.7054 98.2613 10.696 97.9906 10.696C97.7199 10.696 97.4446 10.7054 97.1646 10.724C96.8939 10.7427 96.6233 10.752 96.3526 10.752C96.3153 10.752 96.2873 10.7287 96.2686 10.682C96.2593 10.6354 96.2546 10.598 96.2546 10.57C96.2546 10.486 96.2966 10.4347 96.3806 10.416C96.4739 10.3974 96.5719 10.3927 96.6746 10.402C96.7866 10.4114 96.8706 10.416 96.9266 10.416C97.0573 10.416 97.1646 10.3834 97.2486 10.318C97.3326 10.2527 97.3746 10.1547 97.3746 10.024C97.3746 9.3987 97.3793 8.77804 97.3886 8.16204C97.4073 7.54604 97.4166 6.93004 97.4166 6.31404C97.4166 6.21137 97.4166 6.1087 97.4166 6.00604C97.4166 5.90337 97.4119 5.8007 97.4026 5.69804C97.3933 5.47404 97.3793 5.24537 97.3606 5.01204C97.3513 4.76937 97.3139 4.54537 97.2486 4.34004C97.1833 4.12537 97.0713 3.9527 96.9126 3.82204C96.7539 3.69137 96.5253 3.62604 96.2266 3.62604C96.0119 3.62604 95.7739 3.69137 95.5126 3.82204C95.2606 3.94337 95.0179 4.08804 94.7846 4.25604C94.5513 4.42404 94.3553 4.5827 94.1966 4.73204C94.2153 4.8627 94.2246 4.99804 94.2246 5.13804C94.2246 5.2687 94.2246 5.39937 94.2246 5.53004C94.2246 5.8007 94.2246 6.07604 94.2246 6.35604C94.2339 6.6267 94.2386 6.89737 94.2386 7.16804C94.2386 7.64404 94.2339 8.12004 94.2246 8.59604C94.2246 9.07204 94.2246 9.54804 94.2246 10.024C94.2246 10.164 94.2853 10.262 94.4066 10.318C94.5279 10.374 94.6493 10.402 94.7706 10.402C94.8453 10.402 94.9199 10.3974 94.9946 10.388C95.0786 10.3787 95.1533 10.374 95.2186 10.374C95.2653 10.374 95.2933 10.3974 95.3026 10.444C95.3213 10.4907 95.3306 10.528 95.3306 10.556C95.3306 10.6027 95.3166 10.6494 95.2886 10.696C95.2606 10.7334 95.2186 10.752 95.1626 10.752C94.9013 10.752 94.6353 10.7427 94.3646 10.724C94.1033 10.7054 93.8373 10.696 93.5666 10.696C93.3053 10.696 93.0393 10.7054 92.7686 10.724C92.4979 10.7427 92.2273 10.752 91.9566 10.752C91.9193 10.752 91.8913 10.7287 91.8726 10.682C91.8539 10.6354 91.8446 10.598 91.8446 10.57C91.8446 10.4954 91.8819 10.444 91.9566 10.416C92.0313 10.3974 92.1199 10.3927 92.2226 10.402C92.3346 10.4114 92.4279 10.416 92.5026 10.416C92.6333 10.416 92.7406 10.388 92.8246 10.332C92.9179 10.2667 92.9646 10.164 92.9646 10.024V6.45404C92.9646 6.25804 92.9599 6.01537 92.9506 5.72604C92.9506 5.4367 92.9319 5.15204 92.8946 4.87204C92.8666 4.5827 92.8153 4.35404 92.7406 4.18604C92.6753 4.01804 92.5633 3.88737 92.4046 3.79404C92.2553 3.7007 92.0873 3.65404 91.9006 3.65404C91.6579 3.65404 91.4106 3.7147 91.1586 3.83604C90.9066 3.95737 90.6686 4.1067 90.4446 4.28404C90.2206 4.46137 90.0293 4.6387 89.8706 4.81604V10.01C89.8706 10.15 89.9219 10.2527 90.0246 10.318C90.1273 10.374 90.2393 10.402 90.3606 10.402C90.4353 10.402 90.5099 10.3974 90.5846 10.388C90.6593 10.3694 90.7293 10.36 90.7946 10.36C90.8319 10.36 90.8553 10.388 90.8646 10.444C90.8739 10.4907 90.8786 10.5234 90.8786 10.542C90.8786 10.5887 90.8646 10.6354 90.8366 10.682C90.8179 10.7194 90.7806 10.738 90.7246 10.738C90.5473 10.738 90.3699 10.7334 90.1926 10.724C90.0153 10.7054 89.8379 10.696 89.6606 10.696C89.3059 10.696 88.9513 10.7054 88.5966 10.724C88.2419 10.7334 87.8873 10.738 87.5326 10.738C87.4953 10.738 87.4673 10.7147 87.4486 10.668C87.4299 10.6214 87.4206 10.584 87.4206 10.556C87.4206 10.444 87.4673 10.388 87.5606 10.388C87.6633 10.388 87.7613 10.3927 87.8546 10.402C87.9479 10.402 88.0413 10.402 88.1346 10.402C88.2653 10.402 88.3773 10.374 88.4706 10.318C88.5639 10.2527 88.6106 10.15 88.6106 10.01C88.6106 9.06737 88.6059 8.1247 88.5966 7.18204C88.5966 6.23004 88.5966 5.2827 88.5966 4.34004C88.5966 4.23737 88.5873 4.1347 88.5686 4.03204C88.5499 3.92937 88.4893 3.85937 88.3866 3.82204C88.3213 3.79404 88.2513 3.78004 88.1766 3.78004C88.0553 3.78004 87.9339 3.7987 87.8126 3.83604C87.6913 3.86404 87.5653 3.87804 87.4346 3.87804C87.3506 3.87804 87.3086 3.82204 87.3086 3.71004C87.3086 3.63537 87.3366 3.5887 87.3926 3.57004C87.4393 3.55137 87.4906 3.54204 87.5466 3.54204C87.6119 3.5327 87.6726 3.52337 87.7286 3.51404C87.9433 3.48604 88.1579 3.45337 88.3726 3.41604C88.5966 3.36937 88.8113 3.3227 89.0166 3.27604C89.0913 3.25737 89.1706 3.2387 89.2546 3.22004C89.3386 3.20137 89.4226 3.19204 89.5066 3.19204C89.6186 3.19204 89.6933 3.27604 89.7306 3.44404C89.7773 3.6027 89.8006 3.77537 89.8006 3.96204C89.8099 4.1487 89.8146 4.28404 89.8146 4.36804C90.0106 4.20004 90.2299 4.02737 90.4726 3.85004C90.7153 3.66337 90.9719 3.5047 91.2426 3.37404C91.5133 3.24337 91.7839 3.17804 92.0546 3.17804C92.5306 3.17804 92.9319 3.25737 93.2586 3.41604C93.5853 3.5747 93.8653 3.87337 94.0986 4.31204C94.3039 4.1347 94.5373 3.95737 94.7986 3.78004C95.0599 3.59337 95.3306 3.43937 95.6106 3.31804C95.8999 3.18737 96.1846 3.12204 96.4646 3.12204C97.0806 3.12204 97.5473 3.2107 97.8646 3.38804C98.1913 3.56537 98.4106 3.8407 98.5226 4.21404C98.6439 4.57804 98.7046 5.04937 98.7046 5.62804C98.7046 6.35604 98.6999 7.0887 98.6906 7.82604C98.6813 8.55404 98.6766 9.2867 98.6766 10.024C98.6766 10.164 98.7373 10.262 98.8586 10.318C98.9893 10.374 99.1153 10.402 99.2366 10.402C99.3113 10.402 99.3813 10.3974 99.4466 10.388C99.5213 10.3787 99.5913 10.374 99.6566 10.374C99.6939 10.374 99.7173 10.3974 99.7266 10.444C99.7453 10.4907 99.7546 10.528 99.7546 10.556ZM104.948 9.10004C104.91 8.68004 104.887 8.26004 104.878 7.84004C104.878 7.4107 104.873 6.98137 104.864 6.55204H104.668C104.378 6.55204 104.056 6.5987 103.702 6.69204C103.356 6.77604 103.025 6.9067 102.708 7.08404C102.39 7.26137 102.129 7.48537 101.924 7.75604C101.728 8.01737 101.63 8.3207 101.63 8.66604C101.63 9.11404 101.756 9.4547 102.008 9.68804C102.26 9.91204 102.6 10.024 103.03 10.024C103.235 10.024 103.459 9.97737 103.702 9.88404C103.944 9.78137 104.178 9.66004 104.402 9.52004C104.626 9.38004 104.808 9.24004 104.948 9.10004ZM107.398 9.99604C107.398 10.0334 107.393 10.0614 107.384 10.08C107.29 10.2854 107.132 10.444 106.908 10.556C106.693 10.6587 106.478 10.71 106.264 10.71C105.872 10.71 105.587 10.598 105.41 10.374C105.242 10.1407 105.106 9.85604 105.004 9.52004C104.649 9.8467 104.257 10.122 103.828 10.346C103.398 10.5607 102.936 10.668 102.442 10.668C102.096 10.668 101.77 10.6027 101.462 10.472C101.163 10.332 100.92 10.1314 100.734 9.87004C100.547 9.6087 100.454 9.29137 100.454 8.91804C100.454 8.52604 100.552 8.19004 100.748 7.91004C100.953 7.6207 101.21 7.37804 101.518 7.18204C101.835 6.9767 102.171 6.81337 102.526 6.69204C102.89 6.56137 103.23 6.46337 103.548 6.39804C103.762 6.35137 103.982 6.30937 104.206 6.27204C104.43 6.2347 104.649 6.19737 104.864 6.16004C104.864 5.8987 104.85 5.59537 104.822 5.25004C104.803 4.9047 104.733 4.62004 104.612 4.39604C104.49 4.18137 104.327 3.99004 104.122 3.82204C103.916 3.65404 103.688 3.57004 103.436 3.57004C103.006 3.57004 102.67 3.68204 102.428 3.90604C102.185 4.13004 102.012 4.44737 101.91 4.85804C101.9 4.9047 101.891 4.95604 101.882 5.01204C101.882 5.0587 101.877 5.10537 101.868 5.15204C101.858 5.20804 101.821 5.25937 101.756 5.30604C101.7 5.34337 101.639 5.36204 101.574 5.36204C101.396 5.36204 101.233 5.32004 101.084 5.23604C100.944 5.15204 100.874 5.01204 100.874 4.81604C100.874 4.70404 100.892 4.60604 100.93 4.52204C101.051 4.2327 101.247 3.9947 101.518 3.80804C101.788 3.61204 102.087 3.4627 102.414 3.36004C102.75 3.25737 103.062 3.20604 103.352 3.20604C103.856 3.20604 104.313 3.29937 104.724 3.48604C105.134 3.6727 105.461 3.94804 105.704 4.31204C105.956 4.6667 106.082 5.1147 106.082 5.65604C106.082 6.2627 106.077 6.87404 106.068 7.49004C106.068 8.10604 106.086 8.72204 106.124 9.33804C106.133 9.54337 106.175 9.72537 106.25 9.88404C106.324 10.0334 106.478 10.108 106.712 10.108C106.833 10.108 106.959 10.08 107.09 10.024C107.23 9.9587 107.318 9.92604 107.356 9.92604C107.384 9.92604 107.398 9.94937 107.398 9.99604ZM111.933 10.528C111.933 10.5747 111.919 10.6214 111.891 10.668C111.863 10.7054 111.825 10.724 111.779 10.724C111.517 10.724 111.256 10.7194 110.995 10.71C110.743 10.6914 110.481 10.682 110.211 10.682H109.833C109.553 10.682 109.273 10.6914 108.993 10.71C108.722 10.7194 108.451 10.724 108.181 10.724C108.143 10.724 108.115 10.7007 108.097 10.654C108.087 10.6074 108.083 10.57 108.083 10.542C108.083 10.4954 108.087 10.4627 108.097 10.444C108.106 10.416 108.134 10.3974 108.181 10.388C108.227 10.3694 108.279 10.3647 108.335 10.374C108.4 10.374 108.461 10.374 108.517 10.374C108.582 10.374 108.643 10.3787 108.699 10.388C108.755 10.388 108.815 10.388 108.881 10.388C109.011 10.388 109.128 10.36 109.231 10.304C109.343 10.2387 109.399 10.1314 109.399 9.98204V4.38204C109.399 4.22337 109.371 4.10204 109.315 4.01804C109.259 3.9247 109.142 3.87804 108.965 3.87804C108.834 3.87804 108.699 3.88737 108.559 3.90604C108.428 3.91537 108.297 3.92937 108.167 3.94804C108.092 3.94804 108.055 3.90604 108.055 3.82204C108.055 3.7287 108.092 3.66804 108.167 3.64004C108.279 3.6027 108.395 3.57937 108.517 3.57004C108.647 3.55137 108.769 3.5327 108.881 3.51404C109.142 3.46737 109.403 3.41604 109.665 3.36004C109.926 3.30404 110.183 3.24337 110.435 3.17804C110.463 3.1687 110.5 3.16404 110.547 3.16404C110.649 3.16404 110.701 3.22004 110.701 3.33204C110.701 4.43337 110.696 5.53937 110.687 6.65004C110.687 7.7607 110.687 8.87137 110.687 9.98204C110.687 10.1314 110.752 10.2387 110.883 10.304C111.023 10.36 111.153 10.388 111.275 10.388C111.368 10.388 111.461 10.3834 111.555 10.374C111.657 10.3647 111.755 10.36 111.849 10.36C111.886 10.36 111.909 10.3834 111.919 10.43C111.928 10.4767 111.933 10.5094 111.933 10.528ZM110.799 0.840037C110.799 1.07337 110.715 1.27404 110.547 1.44204C110.379 1.6007 110.178 1.68004 109.945 1.68004C109.711 1.68004 109.511 1.6007 109.343 1.44204C109.175 1.27404 109.091 1.07337 109.091 0.840037C109.091 0.606703 109.175 0.410703 109.343 0.252037C109.511 0.0840369 109.711 3.68357e-05 109.945 3.68357e-05C110.178 3.68357e-05 110.379 0.0840369 110.547 0.252037C110.715 0.410703 110.799 0.606703 110.799 0.840037ZM116.717 10.556C116.717 10.6027 116.703 10.6494 116.675 10.696C116.657 10.7334 116.619 10.752 116.563 10.752C116.274 10.752 115.98 10.7474 115.681 10.738C115.383 10.7194 115.084 10.71 114.785 10.71H114.295C114.099 10.71 113.903 10.7194 113.707 10.738C113.511 10.7474 113.315 10.752 113.119 10.752C113.082 10.752 113.054 10.738 113.035 10.71C113.026 10.6727 113.021 10.64 113.021 10.612C113.021 10.584 113.021 10.556 113.021 10.528C113.021 10.5 113.026 10.472 113.035 10.444C113.054 10.4067 113.105 10.388 113.189 10.388C113.283 10.3787 113.376 10.3787 113.469 10.388C113.572 10.388 113.637 10.388 113.665 10.388C113.796 10.388 113.913 10.36 114.015 10.304C114.118 10.2387 114.169 10.1314 114.169 9.98204C114.169 9.26337 114.174 8.54937 114.183 7.84004C114.193 7.12137 114.197 6.40737 114.197 5.69804C114.197 4.97004 114.193 4.24204 114.183 3.51404C114.183 2.7767 114.183 2.04404 114.183 1.31604C114.183 1.2507 114.179 1.1807 114.169 1.10604C114.16 1.02204 114.132 0.956703 114.085 0.910037C114.048 0.86337 114.011 0.840037 113.973 0.840037C113.936 0.830704 113.889 0.826037 113.833 0.826037C113.665 0.826037 113.497 0.854037 113.329 0.910037C113.171 0.966037 113.012 0.994037 112.853 0.994037C112.751 0.994037 112.699 0.93337 112.699 0.812036C112.699 0.73737 112.755 0.686037 112.867 0.658037C112.989 0.630037 113.082 0.61137 113.147 0.602037C113.474 0.52737 113.829 0.44337 114.211 0.350037C114.594 0.256703 114.939 0.14937 115.247 0.0280365C115.266 0.0280365 115.285 0.0233699 115.303 0.0140367C115.322 0.00470344 115.336 3.68357e-05 115.345 3.68357e-05C115.401 3.68357e-05 115.434 0.0187035 115.443 0.0560369C115.462 0.0933698 115.471 0.13537 115.471 0.182037C115.471 0.44337 115.467 0.704704 115.457 0.966037C115.457 1.21804 115.457 1.4747 115.457 1.73604V5.65604C115.457 6.3747 115.462 7.09804 115.471 7.82604C115.481 8.5447 115.485 9.26337 115.485 9.98204C115.485 10.1314 115.546 10.2387 115.667 10.304C115.798 10.36 115.924 10.388 116.045 10.388C116.148 10.388 116.246 10.3834 116.339 10.374C116.433 10.3647 116.526 10.36 116.619 10.36C116.666 10.36 116.694 10.388 116.703 10.444C116.713 10.4907 116.717 10.528 116.717 10.556ZM120.577 9.71604C120.577 9.97737 120.479 10.1967 120.283 10.374C120.087 10.5514 119.858 10.64 119.597 10.64C119.336 10.64 119.107 10.5514 118.911 10.374C118.715 10.1967 118.617 9.97737 118.617 9.71604C118.617 9.44537 118.715 9.22137 118.911 9.04404C119.107 8.8667 119.336 8.77804 119.597 8.77804C119.858 8.77804 120.087 8.8667 120.283 9.04404C120.479 9.22137 120.577 9.44537 120.577 9.71604ZM129.392 9.00204C129.392 9.06737 129.34 9.1607 129.238 9.28204C129.135 9.39404 129.06 9.47337 129.014 9.52004C128.93 9.60404 128.846 9.68804 128.762 9.77204C128.678 9.85604 128.584 9.93537 128.482 10.01C128.192 10.2154 127.847 10.3927 127.446 10.542C127.044 10.682 126.666 10.752 126.312 10.752C125.602 10.752 124.977 10.598 124.436 10.29C123.904 9.9727 123.484 9.54337 123.176 9.00204C122.877 8.45137 122.728 7.82604 122.728 7.12604C122.728 6.43537 122.868 5.7867 123.148 5.18004C123.428 4.57337 123.871 4.08337 124.478 3.71004C124.739 3.55137 125.028 3.42537 125.346 3.33204C125.672 3.2387 125.985 3.19204 126.284 3.19204C126.517 3.19204 126.741 3.22004 126.956 3.27604C127.18 3.33204 127.394 3.4067 127.6 3.50004C127.721 3.55604 127.838 3.61204 127.95 3.66804C128.062 3.72404 128.183 3.75204 128.314 3.75204C128.426 3.75204 128.514 3.71937 128.58 3.65404C128.654 3.57937 128.71 3.54204 128.748 3.54204C128.776 3.54204 128.79 3.5607 128.79 3.59804C128.808 3.71004 128.813 3.82204 128.804 3.93404C128.804 4.04604 128.808 4.15337 128.818 4.25604C128.827 4.46137 128.836 4.6667 128.846 4.87204C128.855 5.07737 128.864 5.2827 128.874 5.48804V5.53004C128.883 5.6327 128.874 5.71204 128.846 5.76804C128.818 5.82404 128.743 5.85204 128.622 5.85204C128.556 5.85204 128.51 5.8147 128.482 5.74004C128.463 5.66537 128.444 5.60004 128.426 5.54404C128.36 5.27337 128.262 4.98404 128.132 4.67604C128.001 4.36804 127.824 4.1207 127.6 3.93404C127.46 3.80337 127.282 3.69604 127.068 3.61204C126.862 3.52804 126.666 3.48604 126.48 3.48604C126.032 3.48604 125.649 3.6027 125.332 3.83604C125.024 4.06004 124.776 4.35404 124.59 4.71804C124.403 5.0727 124.263 5.45537 124.17 5.86604C124.086 6.2767 124.044 6.66404 124.044 7.02804C124.044 7.39204 124.086 7.76537 124.17 8.14804C124.254 8.52137 124.384 8.87137 124.562 9.19804C124.748 9.5247 124.991 9.78604 125.29 9.98204C125.598 10.178 125.966 10.276 126.396 10.276C126.993 10.276 127.492 10.1687 127.894 9.95404C128.295 9.73004 128.682 9.38937 129.056 8.93204C129.093 8.8667 129.144 8.83404 129.21 8.83404C129.331 8.83404 129.392 8.89004 129.392 9.00204ZM136.196 7.04204C136.196 6.6407 136.164 6.23937 136.098 5.83804C136.042 5.42737 135.93 5.04937 135.762 4.70404C135.604 4.3587 135.37 4.08337 135.062 3.87804C134.754 3.66337 134.353 3.55604 133.858 3.55604C133.392 3.55604 133.009 3.66804 132.71 3.89204C132.421 4.11604 132.192 4.40537 132.024 4.76004C131.866 5.1147 131.754 5.49737 131.688 5.90804C131.632 6.3187 131.604 6.70604 131.604 7.07004C131.604 7.47137 131.632 7.8727 131.688 8.27404C131.754 8.67537 131.87 9.03937 132.038 9.36604C132.206 9.68337 132.444 9.94004 132.752 10.136C133.07 10.332 133.476 10.43 133.97 10.43C134.456 10.43 134.843 10.3274 135.132 10.122C135.431 9.9167 135.655 9.64604 135.804 9.31004C135.963 8.97404 136.066 8.61004 136.112 8.21804C136.168 7.8167 136.196 7.4247 136.196 7.04204ZM137.638 7.08404C137.638 7.78404 137.47 8.41404 137.134 8.97404C136.808 9.53404 136.36 9.97737 135.79 10.304C135.23 10.6307 134.6 10.794 133.9 10.794C133.219 10.794 132.603 10.6307 132.052 10.304C131.502 9.96804 131.063 9.5247 130.736 8.97404C130.41 8.41404 130.246 7.79337 130.246 7.11204C130.246 6.41204 130.405 5.76804 130.722 5.18004C131.04 4.5827 131.474 4.10204 132.024 3.73804C132.584 3.37404 133.228 3.19204 133.956 3.19204C134.74 3.19204 135.408 3.36004 135.958 3.69604C136.509 4.0227 136.924 4.48004 137.204 5.06804C137.494 5.6467 137.638 6.3187 137.638 7.08404ZM151.038 10.556C151.038 10.6867 150.986 10.752 150.884 10.752C150.622 10.752 150.356 10.7427 150.086 10.724C149.815 10.7054 149.544 10.696 149.274 10.696C149.003 10.696 148.728 10.7054 148.448 10.724C148.177 10.7427 147.906 10.752 147.636 10.752C147.598 10.752 147.57 10.7287 147.552 10.682C147.542 10.6354 147.538 10.598 147.538 10.57C147.538 10.486 147.58 10.4347 147.664 10.416C147.757 10.3974 147.855 10.3927 147.958 10.402C148.07 10.4114 148.154 10.416 148.21 10.416C148.34 10.416 148.448 10.3834 148.532 10.318C148.616 10.2527 148.658 10.1547 148.658 10.024C148.658 9.3987 148.662 8.77804 148.672 8.16204C148.69 7.54604 148.7 6.93004 148.7 6.31404C148.7 6.21137 148.7 6.1087 148.7 6.00604C148.7 5.90337 148.695 5.8007 148.686 5.69804C148.676 5.47404 148.662 5.24537 148.644 5.01204C148.634 4.76937 148.597 4.54537 148.532 4.34004C148.466 4.12537 148.354 3.9527 148.196 3.82204C148.037 3.69137 147.808 3.62604 147.51 3.62604C147.295 3.62604 147.057 3.69137 146.796 3.82204C146.544 3.94337 146.301 4.08804 146.068 4.25604C145.834 4.42404 145.638 4.5827 145.48 4.73204C145.498 4.8627 145.508 4.99804 145.508 5.13804C145.508 5.2687 145.508 5.39937 145.508 5.53004C145.508 5.8007 145.508 6.07604 145.508 6.35604C145.517 6.6267 145.522 6.89737 145.522 7.16804C145.522 7.64404 145.517 8.12004 145.508 8.59604C145.508 9.07204 145.508 9.54804 145.508 10.024C145.508 10.164 145.568 10.262 145.69 10.318C145.811 10.374 145.932 10.402 146.054 10.402C146.128 10.402 146.203 10.3974 146.278 10.388C146.362 10.3787 146.436 10.374 146.502 10.374C146.548 10.374 146.576 10.3974 146.586 10.444C146.604 10.4907 146.614 10.528 146.614 10.556C146.614 10.6027 146.6 10.6494 146.572 10.696C146.544 10.7334 146.502 10.752 146.446 10.752C146.184 10.752 145.918 10.7427 145.648 10.724C145.386 10.7054 145.12 10.696 144.85 10.696C144.588 10.696 144.322 10.7054 144.052 10.724C143.781 10.7427 143.51 10.752 143.24 10.752C143.202 10.752 143.174 10.7287 143.156 10.682C143.137 10.6354 143.128 10.598 143.128 10.57C143.128 10.4954 143.165 10.444 143.24 10.416C143.314 10.3974 143.403 10.3927 143.506 10.402C143.618 10.4114 143.711 10.416 143.786 10.416C143.916 10.416 144.024 10.388 144.108 10.332C144.201 10.2667 144.248 10.164 144.248 10.024V6.45404C144.248 6.25804 144.243 6.01537 144.234 5.72604C144.234 5.4367 144.215 5.15204 144.178 4.87204C144.15 4.5827 144.098 4.35404 144.024 4.18604C143.958 4.01804 143.846 3.88737 143.688 3.79404C143.538 3.7007 143.37 3.65404 143.184 3.65404C142.941 3.65404 142.694 3.7147 142.442 3.83604C142.19 3.95737 141.952 4.1067 141.728 4.28404C141.504 4.46137 141.312 4.6387 141.154 4.81604V10.01C141.154 10.15 141.205 10.2527 141.308 10.318C141.41 10.374 141.522 10.402 141.644 10.402C141.718 10.402 141.793 10.3974 141.868 10.388C141.942 10.3694 142.012 10.36 142.078 10.36C142.115 10.36 142.138 10.388 142.148 10.444C142.157 10.4907 142.162 10.5234 142.162 10.542C142.162 10.5887 142.148 10.6354 142.12 10.682C142.101 10.7194 142.064 10.738 142.008 10.738C141.83 10.738 141.653 10.7334 141.476 10.724C141.298 10.7054 141.121 10.696 140.944 10.696C140.589 10.696 140.234 10.7054 139.88 10.724C139.525 10.7334 139.17 10.738 138.816 10.738C138.778 10.738 138.75 10.7147 138.732 10.668C138.713 10.6214 138.704 10.584 138.704 10.556C138.704 10.444 138.75 10.388 138.844 10.388C138.946 10.388 139.044 10.3927 139.138 10.402C139.231 10.402 139.324 10.402 139.418 10.402C139.548 10.402 139.66 10.374 139.754 10.318C139.847 10.2527 139.894 10.15 139.894 10.01C139.894 9.06737 139.889 8.1247 139.88 7.18204C139.88 6.23004 139.88 5.2827 139.88 4.34004C139.88 4.23737 139.87 4.1347 139.852 4.03204C139.833 3.92937 139.772 3.85937 139.67 3.82204C139.604 3.79404 139.534 3.78004 139.46 3.78004C139.338 3.78004 139.217 3.7987 139.096 3.83604C138.974 3.86404 138.848 3.87804 138.718 3.87804C138.634 3.87804 138.592 3.82204 138.592 3.71004C138.592 3.63537 138.62 3.5887 138.676 3.57004C138.722 3.55137 138.774 3.54204 138.83 3.54204C138.895 3.5327 138.956 3.52337 139.012 3.51404C139.226 3.48604 139.441 3.45337 139.656 3.41604C139.88 3.36937 140.094 3.3227 140.3 3.27604C140.374 3.25737 140.454 3.2387 140.538 3.22004C140.622 3.20137 140.706 3.19204 140.79 3.19204C140.902 3.19204 140.976 3.27604 141.014 3.44404C141.06 3.6027 141.084 3.77537 141.084 3.96204C141.093 4.1487 141.098 4.28404 141.098 4.36804C141.294 4.20004 141.513 4.02737 141.756 3.85004C141.998 3.66337 142.255 3.5047 142.526 3.37404C142.796 3.24337 143.067 3.17804 143.338 3.17804C143.814 3.17804 144.215 3.25737 144.542 3.41604C144.868 3.5747 145.148 3.87337 145.382 4.31204C145.587 4.1347 145.82 3.95737 146.082 3.78004C146.343 3.59337 146.614 3.43937 146.894 3.31804C147.183 3.18737 147.468 3.12204 147.748 3.12204C148.364 3.12204 148.83 3.2107 149.148 3.38804C149.474 3.56537 149.694 3.8407 149.806 4.21404C149.927 4.57804 149.988 5.04937 149.988 5.62804C149.988 6.35604 149.983 7.0887 149.974 7.82604C149.964 8.55404 149.96 9.2867 149.96 10.024C149.96 10.164 150.02 10.262 150.142 10.318C150.272 10.374 150.398 10.402 150.52 10.402C150.594 10.402 150.664 10.3974 150.73 10.388C150.804 10.3787 150.874 10.374 150.94 10.374C150.977 10.374 151 10.3974 151.01 10.444C151.028 10.4907 151.038 10.528 151.038 10.556Z" fill="#767676"/>
</svg>
