<svg width="18" height="12" viewBox="0 0 18 12" fill="none" xmlns="http://www.w3.org/2000/svg">
<path d="M7.74408 7.8239C7.74408 8.50656 7.61608 9.09856 7.36008 9.5999C7.10408 10.0906 6.75208 10.4959 6.30408 10.8159C5.86675 11.1359 5.36542 11.3759 4.80008 11.5359C4.24542 11.6852 3.66408 11.7599 3.05608 11.7599C2.71475 11.7599 2.35742 11.7279 1.98408 11.6639C1.62142 11.5999 1.28008 11.4826 0.960082 11.3119C0.650749 11.1412 0.405415 10.8959 0.224082 10.5759C0.0747488 10.3306 8.20756e-05 10.0586 8.20756e-05 9.7599C8.20756e-05 9.51456 0.0694154 9.33323 0.208082 9.2159C0.357415 9.0879 0.549415 9.0239 0.784082 9.0239C1.10408 9.0239 1.28008 9.1679 1.31208 9.4559C1.35475 9.75456 1.43475 10.0479 1.55208 10.3359C1.68008 10.6132 1.85608 10.8426 2.08008 11.0239C2.31475 11.2052 2.60275 11.2959 2.94408 11.2959C4.05342 11.2959 4.84275 11.0239 5.31208 10.4799C5.79208 9.92523 6.03208 9.10923 6.03208 8.0319C6.03208 7.31723 5.84008 6.73056 5.45608 6.2719C5.08275 5.80256 4.52808 5.5679 3.79208 5.5679C3.65342 5.5679 3.50408 5.57856 3.34408 5.5999C3.18408 5.61056 3.03475 5.6319 2.89608 5.6639C2.82142 5.67456 2.74142 5.70123 2.65608 5.7439C2.57075 5.7759 2.48542 5.7919 2.40008 5.7919C2.32542 5.7919 2.27742 5.7599 2.25608 5.6959C2.24542 5.6319 2.24008 5.57323 2.24008 5.5199C2.24008 5.44523 2.25075 5.36523 2.27208 5.2799C2.29342 5.19456 2.35208 5.1519 2.44808 5.1519C2.48008 5.1519 2.51208 5.15723 2.54408 5.1679C2.58675 5.1679 2.62942 5.1679 2.67208 5.1679C2.88542 5.1679 3.09875 5.1679 3.31208 5.1679C3.53608 5.15723 3.74942 5.12523 3.95208 5.0719C4.54942 4.90123 4.97075 4.6239 5.21608 4.2399C5.47208 3.84523 5.60008 3.3439 5.60008 2.7359C5.60008 2.3199 5.54142 1.94123 5.42408 1.5999C5.31742 1.25856 5.13075 0.986563 4.86408 0.783895C4.59742 0.581229 4.22942 0.479896 3.76008 0.479896C3.05608 0.479896 2.52275 0.698562 2.16008 1.1359C1.80808 1.56256 1.63208 2.1119 1.63208 2.7839C1.63208 3.01856 1.50408 3.1359 1.24808 3.1359C1.00275 3.1359 0.794749 3.0719 0.624082 2.9439C0.464082 2.8159 0.384082 2.61856 0.384082 2.3519C0.384082 2.23456 0.426749 2.06923 0.512082 1.8559C0.608082 1.64256 0.693415 1.4879 0.768082 1.3919C1.17342 0.869229 1.68542 0.506563 2.30408 0.303896C2.93342 0.101229 3.56275 -0.000103951 4.19208 -0.000103951C4.68275 -0.000103951 5.15742 0.0958961 5.61608 0.287896C6.07475 0.479896 6.45342 0.762563 6.75208 1.1359C7.05075 1.49856 7.20008 1.9519 7.20008 2.4959C7.20008 2.89056 7.08808 3.26923 6.86408 3.6319C6.65075 3.99456 6.40008 4.29856 6.11208 4.5439C5.88808 4.74656 5.63742 4.90656 5.36008 5.0239C5.08275 5.14123 4.80542 5.23723 4.52808 5.3119C4.73075 5.32256 4.97608 5.3439 5.26408 5.3759C5.56275 5.4079 5.80275 5.46123 5.98408 5.5359C6.48542 5.70656 6.90142 5.99456 7.23208 6.3999C7.57342 6.79456 7.74408 7.26923 7.74408 7.8239ZM17.2616 9.2799C17.2616 9.30123 17.2402 9.3599 17.1976 9.4559C17.1656 9.54123 17.1442 9.5999 17.1336 9.6319C17.0909 9.73856 17.0482 9.84523 17.0056 9.9519C16.9736 10.0586 16.9416 10.1652 16.9096 10.2719C16.8562 10.4746 16.8082 10.6772 16.7656 10.8799C16.7229 11.0826 16.6749 11.2799 16.6216 11.4719C16.5682 11.6212 16.4776 11.6959 16.3496 11.6959C16.0509 11.6959 15.6989 11.6852 15.2936 11.6639C14.8882 11.6426 14.5416 11.6319 14.2536 11.6319C13.6882 11.6319 13.1602 11.6372 12.6696 11.6479C12.1896 11.6479 11.7042 11.6532 11.2136 11.6639C10.9682 11.6639 10.7176 11.6746 10.4616 11.6959C10.2162 11.7066 9.97092 11.7119 9.72558 11.7119C9.67225 11.7119 9.61358 11.6959 9.54958 11.6639C9.48558 11.6319 9.45358 11.5786 9.45358 11.5039C9.45358 11.1092 9.54425 10.7306 9.72558 10.3679C9.89625 10.0372 10.1416 9.66923 10.4616 9.2639C10.7922 8.85856 11.1549 8.4479 11.5496 8.0319C11.9442 7.6159 12.3282 7.22123 12.7016 6.8479C13.0856 6.47456 13.4162 6.15456 13.6936 5.8879C14.0776 5.51456 14.4082 5.06656 14.6856 4.5439C14.9629 4.01056 15.1016 3.4719 15.1016 2.9279C15.1016 2.52256 15.0482 2.1439 14.9416 1.7919C14.8456 1.42923 14.6696 1.1359 14.4136 0.911896C14.1576 0.687896 13.7949 0.575896 13.3256 0.575896C12.9202 0.575896 12.5576 0.645229 12.2376 0.783895C11.9282 0.911896 11.6562 1.15723 11.4216 1.5199C11.2722 1.75456 11.1762 2.0319 11.1336 2.3519C11.1016 2.66123 11.0749 2.95456 11.0536 3.2319C11.0429 3.59456 10.8402 3.7759 10.4456 3.7759C9.88025 3.7759 9.59758 3.50923 9.59758 2.9759C9.59758 2.47456 9.72558 2.04256 9.98158 1.6799C10.2482 1.31723 10.5842 1.01856 10.9896 0.783895C11.4056 0.549229 11.8482 0.373229 12.3176 0.255896C12.7869 0.138563 13.2296 0.079896 13.6456 0.079896C14.1682 0.079896 14.6696 0.191896 15.1496 0.415896C15.6402 0.639896 16.0402 0.959896 16.3496 1.3759C16.6589 1.78123 16.8136 2.26656 16.8136 2.8319C16.8136 3.5359 16.6802 4.13856 16.4136 4.6399C16.1469 5.14123 15.7949 5.5839 15.3576 5.9679C14.9309 6.3519 14.4669 6.70923 13.9656 7.0399C13.4642 7.3599 12.9736 7.6959 12.4936 8.0479C12.1629 8.29323 11.8429 8.5759 11.5336 8.8959C11.2349 9.20523 10.9522 9.5199 10.6856 9.8399C10.6429 9.9039 10.5736 9.9999 10.4776 10.1279C10.3922 10.2559 10.3496 10.3626 10.3496 10.4479C10.3496 10.5332 10.3922 10.5759 10.4776 10.5759C11.1176 10.5759 11.7576 10.5652 12.3976 10.5439C13.0376 10.5119 13.6829 10.4906 14.3336 10.4799C14.9309 10.4692 15.4269 10.3786 15.8216 10.2079C16.2269 10.0372 16.6109 9.70656 16.9736 9.2159C17.0056 9.17323 17.0429 9.1519 17.0856 9.1519C17.1176 9.1519 17.1549 9.1679 17.1976 9.1999C17.2402 9.22123 17.2616 9.2479 17.2616 9.2799Z" fill="#1C2434"/>
</svg>
