<svg width="95" height="18" viewBox="0 0 95 18" fill="none" xmlns="http://www.w3.org/2000/svg">
<mask id="path-1-outside-1_41_602" maskUnits="userSpaceOnUse" x="-0.197144" y="-0.756836" width="95" height="18" fill="black">
<rect fill="white" x="-0.197144" y="-0.756836" width="95" height="18"/>
<path d="M10.104 0.879527V13.2432H8.65513L1.91791 3.53578H1.79717V13.2432H0.300016V0.879527H1.74888L8.51024 10.6111H8.63098V0.879527H10.104ZM16.6737 13.4363C15.8366 13.4363 15.1021 13.2371 14.4702 12.8387C13.8424 12.4403 13.3514 11.8828 12.9972 11.1665C12.6471 10.4501 12.472 9.61296 12.472 8.6551C12.472 7.68919 12.6471 6.84603 12.9972 6.12562C13.3514 5.40521 13.8424 4.84579 14.4702 4.44735C15.1021 4.04892 15.8366 3.8497 16.6737 3.8497C17.5108 3.8497 18.2433 4.04892 18.8711 4.44735C19.503 4.84579 19.994 5.40521 20.3441 6.12562C20.6983 6.84603 20.8754 7.68919 20.8754 8.6551C20.8754 9.61296 20.6983 10.4501 20.3441 11.1665C19.994 11.8828 19.503 12.4403 18.8711 12.8387C18.2433 13.2371 17.5108 13.4363 16.6737 13.4363ZM16.6737 12.1565C17.3096 12.1565 17.8328 11.9935 18.2433 11.6675C18.6538 11.3415 18.9577 10.9129 19.1549 10.3817C19.3521 9.85041 19.4507 9.27489 19.4507 8.6551C19.4507 8.0353 19.3521 7.45777 19.1549 6.9225C18.9577 6.38722 18.6538 5.95457 18.2433 5.62456C17.8328 5.29454 17.3096 5.12953 16.6737 5.12953C16.0378 5.12953 15.5146 5.29454 15.1041 5.62456C14.6936 5.95457 14.3897 6.38722 14.1925 6.9225C13.9953 7.45777 13.8967 8.0353 13.8967 8.6551C13.8967 9.27489 13.9953 9.85041 14.1925 10.3817C14.3897 10.9129 14.6936 11.3415 15.1041 11.6675C15.5146 11.9935 16.0378 12.1565 16.6737 12.1565ZM27.0829 3.97044V5.17782H22.2775V3.97044H27.0829ZM23.678 1.74885H25.1028V10.5869C25.1028 10.9894 25.1611 11.2912 25.2778 11.4925C25.3986 11.6897 25.5515 11.8225 25.7366 11.8909C25.9258 11.9553 26.125 11.9875 26.3343 11.9875C26.4912 11.9875 26.62 11.9794 26.7206 11.9633C26.8213 11.9432 26.9018 11.9271 26.9621 11.915L27.2519 13.1949C27.1553 13.2311 27.0205 13.2673 26.8474 13.3035C26.6744 13.3438 26.455 13.3639 26.1894 13.3639C25.7869 13.3639 25.3925 13.2774 25.0062 13.1043C24.6238 12.9313 24.3059 12.6676 24.0523 12.3135C23.8028 11.9593 23.678 11.5126 23.678 10.9733V1.74885ZM29.226 13.2432V3.97044H30.6507V13.2432H29.226ZM29.9504 2.42498C29.6727 2.42498 29.4332 2.3304 29.232 2.14125C29.0348 1.95209 28.9362 1.7247 28.9362 1.45907C28.9362 1.19345 29.0348 0.966057 29.232 0.776899C29.4332 0.587743 29.6727 0.493164 29.9504 0.493164C30.2281 0.493164 30.4656 0.587743 30.6628 0.776899C30.864 0.966057 30.9646 1.19345 30.9646 1.45907C30.9646 1.7247 30.864 1.95209 30.6628 2.14125C30.4656 2.3304 30.2281 2.42498 29.9504 2.42498ZM37.3894 3.97044V5.17782H32.3908V3.97044H37.3894ZM33.888 13.2432V2.69061C33.888 2.15936 34.0128 1.71665 34.2623 1.36248C34.5118 1.00831 34.8358 0.74269 35.2342 0.565606C35.6327 0.388523 36.0532 0.299981 36.4959 0.299981C36.8461 0.299981 37.1318 0.328154 37.3532 0.384499C37.5745 0.440843 37.7396 0.493163 37.8482 0.541459L37.4377 1.77299C37.3653 1.74885 37.2647 1.71866 37.1359 1.68244C37.0111 1.64622 36.8461 1.62811 36.6408 1.62811C36.17 1.62811 35.8299 1.74683 35.6206 1.98429C35.4153 2.22174 35.3127 2.56987 35.3127 3.02867V13.2432H33.888ZM39.3861 13.2432V3.97044H40.8108V13.2432H39.3861ZM40.1106 2.42498C39.8329 2.42498 39.5934 2.3304 39.3922 2.14125C39.195 1.95209 39.0964 1.7247 39.0964 1.45907C39.0964 1.19345 39.195 0.966057 39.3922 0.776899C39.5934 0.587743 39.8329 0.493164 40.1106 0.493164C40.3883 0.493164 40.6257 0.587743 40.8229 0.776899C41.0242 0.966057 41.1248 1.19345 41.1248 1.45907C41.1248 1.7247 41.0242 1.95209 40.8229 2.14125C40.6257 2.3304 40.3883 2.42498 40.1106 2.42498ZM47.1874 13.4363C46.318 13.4363 45.5695 13.2311 44.9416 12.8206C44.3138 12.4101 43.8308 11.8446 43.4928 11.1242C43.1547 10.4038 42.9857 9.58076 42.9857 8.6551C42.9857 7.71333 43.1587 6.88225 43.5048 6.16184C43.855 5.43741 44.3419 4.87195 44.9658 4.46546C45.5936 4.05495 46.3261 3.8497 47.1632 3.8497C47.8152 3.8497 48.4028 3.97044 48.926 4.21191C49.4492 4.45339 49.8778 4.79146 50.2119 5.22612C50.5459 5.66078 50.7532 6.16788 50.8337 6.74743H49.4089C49.3003 6.32484 49.0588 5.95055 48.6845 5.62456C48.3142 5.29454 47.8152 5.12953 47.1874 5.12953C46.632 5.12953 46.145 5.27441 45.7264 5.56419C45.3119 5.84993 44.9879 6.25441 44.7545 6.77761C44.5251 7.29679 44.4104 7.90652 44.4104 8.6068C44.4104 9.32318 44.5231 9.947 44.7484 10.4782C44.9778 11.0095 45.2998 11.422 45.7143 11.7158C46.1329 12.0096 46.6239 12.1565 47.1874 12.1565C47.5576 12.1565 47.8937 12.0921 48.1955 11.9633C48.4974 11.8345 48.7529 11.6494 48.9622 11.4079C49.1715 11.1665 49.3204 10.8767 49.4089 10.5386H50.8337C50.7532 11.086 50.554 11.579 50.236 12.0177C49.9221 12.4523 49.5055 12.7984 48.9864 13.056C48.4712 13.3096 47.8715 13.4363 47.1874 13.4363ZM55.6451 13.4605C55.0575 13.4605 54.5242 13.3498 54.0453 13.1285C53.5664 12.9031 53.1861 12.5791 52.9043 12.1565C52.6226 11.7299 52.4817 11.2148 52.4817 10.6111C52.4817 10.0798 52.5864 9.64918 52.7957 9.31916C53.0049 8.98511 53.2847 8.72351 53.6348 8.53436C53.9849 8.3452 54.3713 8.20434 54.7939 8.11177C55.2205 8.01518 55.6491 7.93871 56.0798 7.88237C56.6432 7.80993 57.1 7.75559 57.4501 7.71937C57.8043 7.67912 58.0619 7.61272 58.2229 7.52015C58.3879 7.42759 58.4704 7.2666 58.4704 7.0372V6.9889C58.4704 6.39326 58.3074 5.93043 57.9814 5.60041C57.6594 5.27039 57.1704 5.10538 56.5144 5.10538C55.8343 5.10538 55.301 5.25429 54.9146 5.55211C54.5283 5.84993 54.2566 6.16788 54.0996 6.50595L52.7474 6.02299C52.9888 5.45955 53.3108 5.02086 53.7133 4.70694C54.1198 4.389 54.5625 4.16764 55.0414 4.04288C55.5244 3.91409 55.9993 3.8497 56.4661 3.8497C56.7639 3.8497 57.106 3.88592 57.4924 3.95836C57.8828 4.02678 58.2591 4.16965 58.6213 4.38698C58.9875 4.60431 59.2914 4.93232 59.5329 5.371C59.7744 5.80969 59.8951 6.39728 59.8951 7.13379V13.2432H58.4704V11.9875H58.3979C58.3013 12.1887 58.1404 12.404 57.915 12.6334C57.6896 12.8628 57.3898 13.058 57.0155 13.219C56.6412 13.38 56.1844 13.4605 55.6451 13.4605ZM55.8624 12.1807C56.4259 12.1807 56.9008 12.07 57.2871 11.8486C57.6775 11.6273 57.9713 11.3415 58.1685 10.9914C58.3698 10.6412 58.4704 10.273 58.4704 9.88663V8.58265C58.41 8.6551 58.2772 8.7215 58.0719 8.78187C57.8707 8.83822 57.6373 8.88852 57.3717 8.93279C57.1101 8.97304 56.8545 9.00926 56.605 9.04146C56.3595 9.06963 56.1602 9.09378 56.0073 9.1139C55.637 9.1622 55.2909 9.24068 54.969 9.34934C54.651 9.45398 54.3934 9.61296 54.1962 9.82626C54.0031 10.0355 53.9065 10.3213 53.9065 10.6835C53.9065 11.1785 54.0896 11.5528 54.4558 11.8064C54.8261 12.0559 55.295 12.1807 55.8624 12.1807ZM66.2626 13.4363C65.3932 13.4363 64.6447 13.2311 64.0168 12.8206C63.389 12.4101 62.906 11.8446 62.5679 11.1242C62.2299 10.4038 62.0608 9.58076 62.0608 8.6551C62.0608 7.71333 62.2339 6.88225 62.58 6.16184C62.9302 5.43741 63.4171 4.87195 64.041 4.46546C64.6688 4.05495 65.4013 3.8497 66.2384 3.8497C66.8904 3.8497 67.478 3.97044 68.0012 4.21191C68.5244 4.45339 68.953 4.79146 69.2871 5.22612C69.6211 5.66078 69.8284 6.16788 69.9089 6.74743H68.4841C68.3755 6.32484 68.134 5.95055 67.7597 5.62456C67.3894 5.29454 66.8904 5.12953 66.2626 5.12953C65.7072 5.12953 65.2202 5.27441 64.8016 5.56419C64.3871 5.84993 64.0631 6.25441 63.8297 6.77761C63.6003 7.29679 63.4856 7.90652 63.4856 8.6068C63.4856 9.32318 63.5983 9.947 63.8236 10.4782C64.053 11.0095 64.375 11.422 64.7895 11.7158C65.2081 12.0096 65.6991 12.1565 66.2626 12.1565C66.6328 12.1565 66.9689 12.0921 67.2707 11.9633C67.5726 11.8345 67.8281 11.6494 68.0374 11.4079C68.2467 11.1665 68.3956 10.8767 68.4841 10.5386H69.9089C69.8284 11.086 69.6291 11.579 69.3112 12.0177C68.9973 12.4523 68.5807 12.7984 68.0616 13.056C67.5464 13.3096 66.9467 13.4363 66.2626 13.4363ZM65.5864 13.1949H66.7697L66.6731 13.6778C66.987 13.7261 67.2747 13.8569 67.5363 14.0702C67.7979 14.2876 67.9287 14.6317 67.9287 15.1025C67.9287 15.6217 67.7134 16.0443 67.2828 16.3703C66.8562 16.7003 66.2263 16.8653 65.3932 16.8653L65.3449 15.9236C65.7192 15.9236 66.0291 15.8632 66.2746 15.7425C66.5242 15.6257 66.6489 15.4285 66.6489 15.1508C66.6489 14.8731 66.5463 14.684 66.341 14.5834C66.1358 14.4827 65.8037 14.4143 65.3449 14.3781L65.5864 13.1949ZM74.7203 13.4605C74.1327 13.4605 73.5994 13.3498 73.1205 13.1285C72.6416 12.9031 72.2612 12.5791 71.9795 12.1565C71.6978 11.7299 71.5569 11.2148 71.5569 10.6111C71.5569 10.0798 71.6616 9.64918 71.8709 9.31916C72.0801 8.98511 72.3599 8.72351 72.71 8.53436C73.0601 8.3452 73.4465 8.20434 73.8691 8.11177C74.2957 8.01518 74.7243 7.93871 75.155 7.88237C75.7184 7.80993 76.1752 7.75559 76.5253 7.71937C76.8795 7.67912 77.1371 7.61272 77.2981 7.52015C77.4631 7.42759 77.5456 7.2666 77.5456 7.0372V6.9889C77.5456 6.39326 77.3826 5.93043 77.0566 5.60041C76.7346 5.27039 76.2456 5.10538 75.5896 5.10538C74.9094 5.10538 74.3762 5.25429 73.9898 5.55211C73.6035 5.84993 73.3318 6.16788 73.1748 6.50595L71.8226 6.02299C72.064 5.45955 72.386 5.02086 72.7885 4.70694C73.195 4.389 73.6377 4.16764 74.1166 4.04288C74.5996 3.91409 75.0745 3.8497 75.5413 3.8497C75.8391 3.8497 76.1812 3.88592 76.5676 3.95836C76.958 4.02678 77.3343 4.16965 77.6965 4.38698C78.0627 4.60431 78.3666 4.93232 78.6081 5.371C78.8496 5.80969 78.9703 6.39728 78.9703 7.13379V13.2432H77.5456V11.9875H77.4731C77.3765 12.1887 77.2156 12.404 76.9902 12.6334C76.7648 12.8628 76.465 13.058 76.0907 13.219C75.7164 13.38 75.2596 13.4605 74.7203 13.4605ZM74.9376 12.1807C75.5011 12.1807 75.976 12.07 76.3623 11.8486C76.7527 11.6273 77.0465 11.3415 77.2437 10.9914C77.445 10.6412 77.5456 10.273 77.5456 9.88663V8.58265C77.4852 8.6551 77.3524 8.7215 77.1471 8.78187C76.9459 8.83822 76.7125 8.88852 76.4469 8.93279C76.1853 8.97304 75.9297 9.00926 75.6802 9.04146C75.4347 9.06963 75.2354 9.09378 75.0825 9.1139C74.7122 9.1622 74.3661 9.24068 74.0442 9.34934C73.7262 9.45398 73.4686 9.61296 73.2714 9.82626C73.0782 10.0355 72.9817 10.3213 72.9817 10.6835C72.9817 11.1785 73.1648 11.5528 73.531 11.8064C73.9013 12.0559 74.3702 12.1807 74.9376 12.1807ZM73.7785 2.85964L72.6677 2.81135C72.6677 2.19558 72.8428 1.6925 73.1929 1.30211C73.5471 0.9077 73.9838 0.710493 74.503 0.710493C74.7324 0.710493 74.9356 0.750739 75.1127 0.831231C75.2898 0.9077 75.4588 0.996241 75.6198 1.09686C75.7808 1.19747 75.9458 1.28803 76.1148 1.36852C76.2879 1.44499 76.4831 1.48322 76.7004 1.48322C76.9298 1.48322 77.123 1.39468 77.28 1.2176C77.4409 1.03649 77.5214 0.819158 77.5214 0.565606L78.6081 0.662198C78.6081 1.29004 78.431 1.78909 78.0768 2.15936C77.7267 2.52962 77.292 2.71475 76.7728 2.71475C76.4952 2.71475 76.2657 2.67652 76.0846 2.60005C75.9035 2.51956 75.7425 2.42901 75.6017 2.32839C75.4608 2.22778 75.3119 2.13923 75.155 2.06277C74.998 1.98227 74.8048 1.94203 74.5754 1.94203C74.346 1.94203 74.1548 2.03258 74.0019 2.21369C73.853 2.39077 73.7785 2.60609 73.7785 2.85964ZM85.3377 13.4363C84.5006 13.4363 83.7661 13.2371 83.1343 12.8387C82.5064 12.4403 82.0154 11.8828 81.6613 11.1665C81.3111 10.4501 81.136 9.61296 81.136 8.6551C81.136 7.68919 81.3111 6.84603 81.6613 6.12562C82.0154 5.40521 82.5064 4.84579 83.1343 4.44735C83.7661 4.04892 84.5006 3.8497 85.3377 3.8497C86.1749 3.8497 86.9073 4.04892 87.5352 4.44735C88.1671 4.84579 88.6581 5.40521 89.0082 6.12562C89.3624 6.84603 89.5395 7.68919 89.5395 8.6551C89.5395 9.61296 89.3624 10.4501 89.0082 11.1665C88.6581 11.8828 88.1671 12.4403 87.5352 12.8387C86.9073 13.2371 86.1749 13.4363 85.3377 13.4363ZM85.3377 12.1565C85.9736 12.1565 86.4968 11.9935 86.9073 11.6675C87.3179 11.3415 87.6217 10.9129 87.8189 10.3817C88.0161 9.85041 88.1147 9.27489 88.1147 8.6551C88.1147 8.0353 88.0161 7.45777 87.8189 6.9225C87.6217 6.38722 87.3179 5.95457 86.9073 5.62456C86.4968 5.29454 85.9736 5.12953 85.3377 5.12953C84.7019 5.12953 84.1787 5.29454 83.7681 5.62456C83.3576 5.95457 83.0538 6.38722 82.8566 6.9225C82.6594 7.45777 82.5608 8.0353 82.5608 8.6551C82.5608 9.27489 82.6594 9.85041 82.8566 10.3817C83.0538 10.9129 83.3576 11.3415 83.7681 11.6675C84.1787 11.9935 84.7019 12.1565 85.3377 12.1565ZM92.7526 13.3398C92.4548 13.3398 92.1992 13.2331 91.9859 13.0198C91.7726 12.8065 91.666 12.5509 91.666 12.2531C91.666 11.9553 91.7726 11.6997 91.9859 11.4864C92.1992 11.2731 92.4548 11.1665 92.7526 11.1665C93.0504 11.1665 93.306 11.2731 93.5193 11.4864C93.7326 11.6997 93.8393 11.9553 93.8393 12.2531C93.8393 12.4503 93.7889 12.6314 93.6883 12.7964C93.5917 12.9614 93.4609 13.0943 93.2959 13.1949C93.1349 13.2915 92.9538 13.3398 92.7526 13.3398ZM92.7526 6.45765C92.4548 6.45765 92.1992 6.351 91.9859 6.1377C91.7726 5.92439 91.666 5.66883 91.666 5.371C91.666 5.07318 91.7726 4.81762 91.9859 4.60431C92.1992 4.39101 92.4548 4.28436 92.7526 4.28436C93.0504 4.28436 93.306 4.39101 93.5193 4.60431C93.7326 4.81762 93.8393 5.07318 93.8393 5.371C93.8393 5.56821 93.7889 5.74932 93.6883 5.91433C93.5917 6.07934 93.4609 6.21215 93.2959 6.31277C93.1349 6.40936 92.9538 6.45765 92.7526 6.45765Z"/>
</mask>
<path d="M10.104 0.879527V13.2432H8.65513L1.91791 3.53578H1.79717V13.2432H0.300016V0.879527H1.74888L8.51024 10.6111H8.63098V0.879527H10.104ZM16.6737 13.4363C15.8366 13.4363 15.1021 13.2371 14.4702 12.8387C13.8424 12.4403 13.3514 11.8828 12.9972 11.1665C12.6471 10.4501 12.472 9.61296 12.472 8.6551C12.472 7.68919 12.6471 6.84603 12.9972 6.12562C13.3514 5.40521 13.8424 4.84579 14.4702 4.44735C15.1021 4.04892 15.8366 3.8497 16.6737 3.8497C17.5108 3.8497 18.2433 4.04892 18.8711 4.44735C19.503 4.84579 19.994 5.40521 20.3441 6.12562C20.6983 6.84603 20.8754 7.68919 20.8754 8.6551C20.8754 9.61296 20.6983 10.4501 20.3441 11.1665C19.994 11.8828 19.503 12.4403 18.8711 12.8387C18.2433 13.2371 17.5108 13.4363 16.6737 13.4363ZM16.6737 12.1565C17.3096 12.1565 17.8328 11.9935 18.2433 11.6675C18.6538 11.3415 18.9577 10.9129 19.1549 10.3817C19.3521 9.85041 19.4507 9.27489 19.4507 8.6551C19.4507 8.0353 19.3521 7.45777 19.1549 6.9225C18.9577 6.38722 18.6538 5.95457 18.2433 5.62456C17.8328 5.29454 17.3096 5.12953 16.6737 5.12953C16.0378 5.12953 15.5146 5.29454 15.1041 5.62456C14.6936 5.95457 14.3897 6.38722 14.1925 6.9225C13.9953 7.45777 13.8967 8.0353 13.8967 8.6551C13.8967 9.27489 13.9953 9.85041 14.1925 10.3817C14.3897 10.9129 14.6936 11.3415 15.1041 11.6675C15.5146 11.9935 16.0378 12.1565 16.6737 12.1565ZM27.0829 3.97044V5.17782H22.2775V3.97044H27.0829ZM23.678 1.74885H25.1028V10.5869C25.1028 10.9894 25.1611 11.2912 25.2778 11.4925C25.3986 11.6897 25.5515 11.8225 25.7366 11.8909C25.9258 11.9553 26.125 11.9875 26.3343 11.9875C26.4912 11.9875 26.62 11.9794 26.7206 11.9633C26.8213 11.9432 26.9018 11.9271 26.9621 11.915L27.2519 13.1949C27.1553 13.2311 27.0205 13.2673 26.8474 13.3035C26.6744 13.3438 26.455 13.3639 26.1894 13.3639C25.7869 13.3639 25.3925 13.2774 25.0062 13.1043C24.6238 12.9313 24.3059 12.6676 24.0523 12.3135C23.8028 11.9593 23.678 11.5126 23.678 10.9733V1.74885ZM29.226 13.2432V3.97044H30.6507V13.2432H29.226ZM29.9504 2.42498C29.6727 2.42498 29.4332 2.3304 29.232 2.14125C29.0348 1.95209 28.9362 1.7247 28.9362 1.45907C28.9362 1.19345 29.0348 0.966057 29.232 0.776899C29.4332 0.587743 29.6727 0.493164 29.9504 0.493164C30.2281 0.493164 30.4656 0.587743 30.6628 0.776899C30.864 0.966057 30.9646 1.19345 30.9646 1.45907C30.9646 1.7247 30.864 1.95209 30.6628 2.14125C30.4656 2.3304 30.2281 2.42498 29.9504 2.42498ZM37.3894 3.97044V5.17782H32.3908V3.97044H37.3894ZM33.888 13.2432V2.69061C33.888 2.15936 34.0128 1.71665 34.2623 1.36248C34.5118 1.00831 34.8358 0.74269 35.2342 0.565606C35.6327 0.388523 36.0532 0.299981 36.4959 0.299981C36.8461 0.299981 37.1318 0.328154 37.3532 0.384499C37.5745 0.440843 37.7396 0.493163 37.8482 0.541459L37.4377 1.77299C37.3653 1.74885 37.2647 1.71866 37.1359 1.68244C37.0111 1.64622 36.8461 1.62811 36.6408 1.62811C36.17 1.62811 35.8299 1.74683 35.6206 1.98429C35.4153 2.22174 35.3127 2.56987 35.3127 3.02867V13.2432H33.888ZM39.3861 13.2432V3.97044H40.8108V13.2432H39.3861ZM40.1106 2.42498C39.8329 2.42498 39.5934 2.3304 39.3922 2.14125C39.195 1.95209 39.0964 1.7247 39.0964 1.45907C39.0964 1.19345 39.195 0.966057 39.3922 0.776899C39.5934 0.587743 39.8329 0.493164 40.1106 0.493164C40.3883 0.493164 40.6257 0.587743 40.8229 0.776899C41.0242 0.966057 41.1248 1.19345 41.1248 1.45907C41.1248 1.7247 41.0242 1.95209 40.8229 2.14125C40.6257 2.3304 40.3883 2.42498 40.1106 2.42498ZM47.1874 13.4363C46.318 13.4363 45.5695 13.2311 44.9416 12.8206C44.3138 12.4101 43.8308 11.8446 43.4928 11.1242C43.1547 10.4038 42.9857 9.58076 42.9857 8.6551C42.9857 7.71333 43.1587 6.88225 43.5048 6.16184C43.855 5.43741 44.3419 4.87195 44.9658 4.46546C45.5936 4.05495 46.3261 3.8497 47.1632 3.8497C47.8152 3.8497 48.4028 3.97044 48.926 4.21191C49.4492 4.45339 49.8778 4.79146 50.2119 5.22612C50.5459 5.66078 50.7532 6.16788 50.8337 6.74743H49.4089C49.3003 6.32484 49.0588 5.95055 48.6845 5.62456C48.3142 5.29454 47.8152 5.12953 47.1874 5.12953C46.632 5.12953 46.145 5.27441 45.7264 5.56419C45.3119 5.84993 44.9879 6.25441 44.7545 6.77761C44.5251 7.29679 44.4104 7.90652 44.4104 8.6068C44.4104 9.32318 44.5231 9.947 44.7484 10.4782C44.9778 11.0095 45.2998 11.422 45.7143 11.7158C46.1329 12.0096 46.6239 12.1565 47.1874 12.1565C47.5576 12.1565 47.8937 12.0921 48.1955 11.9633C48.4974 11.8345 48.7529 11.6494 48.9622 11.4079C49.1715 11.1665 49.3204 10.8767 49.4089 10.5386H50.8337C50.7532 11.086 50.554 11.579 50.236 12.0177C49.9221 12.4523 49.5055 12.7984 48.9864 13.056C48.4712 13.3096 47.8715 13.4363 47.1874 13.4363ZM55.6451 13.4605C55.0575 13.4605 54.5242 13.3498 54.0453 13.1285C53.5664 12.9031 53.1861 12.5791 52.9043 12.1565C52.6226 11.7299 52.4817 11.2148 52.4817 10.6111C52.4817 10.0798 52.5864 9.64918 52.7957 9.31916C53.0049 8.98511 53.2847 8.72351 53.6348 8.53436C53.9849 8.3452 54.3713 8.20434 54.7939 8.11177C55.2205 8.01518 55.6491 7.93871 56.0798 7.88237C56.6432 7.80993 57.1 7.75559 57.4501 7.71937C57.8043 7.67912 58.0619 7.61272 58.2229 7.52015C58.3879 7.42759 58.4704 7.2666 58.4704 7.0372V6.9889C58.4704 6.39326 58.3074 5.93043 57.9814 5.60041C57.6594 5.27039 57.1704 5.10538 56.5144 5.10538C55.8343 5.10538 55.301 5.25429 54.9146 5.55211C54.5283 5.84993 54.2566 6.16788 54.0996 6.50595L52.7474 6.02299C52.9888 5.45955 53.3108 5.02086 53.7133 4.70694C54.1198 4.389 54.5625 4.16764 55.0414 4.04288C55.5244 3.91409 55.9993 3.8497 56.4661 3.8497C56.7639 3.8497 57.106 3.88592 57.4924 3.95836C57.8828 4.02678 58.2591 4.16965 58.6213 4.38698C58.9875 4.60431 59.2914 4.93232 59.5329 5.371C59.7744 5.80969 59.8951 6.39728 59.8951 7.13379V13.2432H58.4704V11.9875H58.3979C58.3013 12.1887 58.1404 12.404 57.915 12.6334C57.6896 12.8628 57.3898 13.058 57.0155 13.219C56.6412 13.38 56.1844 13.4605 55.6451 13.4605ZM55.8624 12.1807C56.4259 12.1807 56.9008 12.07 57.2871 11.8486C57.6775 11.6273 57.9713 11.3415 58.1685 10.9914C58.3698 10.6412 58.4704 10.273 58.4704 9.88663V8.58265C58.41 8.6551 58.2772 8.7215 58.0719 8.78187C57.8707 8.83822 57.6373 8.88852 57.3717 8.93279C57.1101 8.97304 56.8545 9.00926 56.605 9.04146C56.3595 9.06963 56.1602 9.09378 56.0073 9.1139C55.637 9.1622 55.2909 9.24068 54.969 9.34934C54.651 9.45398 54.3934 9.61296 54.1962 9.82626C54.0031 10.0355 53.9065 10.3213 53.9065 10.6835C53.9065 11.1785 54.0896 11.5528 54.4558 11.8064C54.8261 12.0559 55.295 12.1807 55.8624 12.1807ZM66.2626 13.4363C65.3932 13.4363 64.6447 13.2311 64.0168 12.8206C63.389 12.4101 62.906 11.8446 62.5679 11.1242C62.2299 10.4038 62.0608 9.58076 62.0608 8.6551C62.0608 7.71333 62.2339 6.88225 62.58 6.16184C62.9302 5.43741 63.4171 4.87195 64.041 4.46546C64.6688 4.05495 65.4013 3.8497 66.2384 3.8497C66.8904 3.8497 67.478 3.97044 68.0012 4.21191C68.5244 4.45339 68.953 4.79146 69.2871 5.22612C69.6211 5.66078 69.8284 6.16788 69.9089 6.74743H68.4841C68.3755 6.32484 68.134 5.95055 67.7597 5.62456C67.3894 5.29454 66.8904 5.12953 66.2626 5.12953C65.7072 5.12953 65.2202 5.27441 64.8016 5.56419C64.3871 5.84993 64.0631 6.25441 63.8297 6.77761C63.6003 7.29679 63.4856 7.90652 63.4856 8.6068C63.4856 9.32318 63.5983 9.947 63.8236 10.4782C64.053 11.0095 64.375 11.422 64.7895 11.7158C65.2081 12.0096 65.6991 12.1565 66.2626 12.1565C66.6328 12.1565 66.9689 12.0921 67.2707 11.9633C67.5726 11.8345 67.8281 11.6494 68.0374 11.4079C68.2467 11.1665 68.3956 10.8767 68.4841 10.5386H69.9089C69.8284 11.086 69.6291 11.579 69.3112 12.0177C68.9973 12.4523 68.5807 12.7984 68.0616 13.056C67.5464 13.3096 66.9467 13.4363 66.2626 13.4363ZM65.5864 13.1949H66.7697L66.6731 13.6778C66.987 13.7261 67.2747 13.8569 67.5363 14.0702C67.7979 14.2876 67.9287 14.6317 67.9287 15.1025C67.9287 15.6217 67.7134 16.0443 67.2828 16.3703C66.8562 16.7003 66.2263 16.8653 65.3932 16.8653L65.3449 15.9236C65.7192 15.9236 66.0291 15.8632 66.2746 15.7425C66.5242 15.6257 66.6489 15.4285 66.6489 15.1508C66.6489 14.8731 66.5463 14.684 66.341 14.5834C66.1358 14.4827 65.8037 14.4143 65.3449 14.3781L65.5864 13.1949ZM74.7203 13.4605C74.1327 13.4605 73.5994 13.3498 73.1205 13.1285C72.6416 12.9031 72.2612 12.5791 71.9795 12.1565C71.6978 11.7299 71.5569 11.2148 71.5569 10.6111C71.5569 10.0798 71.6616 9.64918 71.8709 9.31916C72.0801 8.98511 72.3599 8.72351 72.71 8.53436C73.0601 8.3452 73.4465 8.20434 73.8691 8.11177C74.2957 8.01518 74.7243 7.93871 75.155 7.88237C75.7184 7.80993 76.1752 7.75559 76.5253 7.71937C76.8795 7.67912 77.1371 7.61272 77.2981 7.52015C77.4631 7.42759 77.5456 7.2666 77.5456 7.0372V6.9889C77.5456 6.39326 77.3826 5.93043 77.0566 5.60041C76.7346 5.27039 76.2456 5.10538 75.5896 5.10538C74.9094 5.10538 74.3762 5.25429 73.9898 5.55211C73.6035 5.84993 73.3318 6.16788 73.1748 6.50595L71.8226 6.02299C72.064 5.45955 72.386 5.02086 72.7885 4.70694C73.195 4.389 73.6377 4.16764 74.1166 4.04288C74.5996 3.91409 75.0745 3.8497 75.5413 3.8497C75.8391 3.8497 76.1812 3.88592 76.5676 3.95836C76.958 4.02678 77.3343 4.16965 77.6965 4.38698C78.0627 4.60431 78.3666 4.93232 78.6081 5.371C78.8496 5.80969 78.9703 6.39728 78.9703 7.13379V13.2432H77.5456V11.9875H77.4731C77.3765 12.1887 77.2156 12.404 76.9902 12.6334C76.7648 12.8628 76.465 13.058 76.0907 13.219C75.7164 13.38 75.2596 13.4605 74.7203 13.4605ZM74.9376 12.1807C75.5011 12.1807 75.976 12.07 76.3623 11.8486C76.7527 11.6273 77.0465 11.3415 77.2437 10.9914C77.445 10.6412 77.5456 10.273 77.5456 9.88663V8.58265C77.4852 8.6551 77.3524 8.7215 77.1471 8.78187C76.9459 8.83822 76.7125 8.88852 76.4469 8.93279C76.1853 8.97304 75.9297 9.00926 75.6802 9.04146C75.4347 9.06963 75.2354 9.09378 75.0825 9.1139C74.7122 9.1622 74.3661 9.24068 74.0442 9.34934C73.7262 9.45398 73.4686 9.61296 73.2714 9.82626C73.0782 10.0355 72.9817 10.3213 72.9817 10.6835C72.9817 11.1785 73.1648 11.5528 73.531 11.8064C73.9013 12.0559 74.3702 12.1807 74.9376 12.1807ZM73.7785 2.85964L72.6677 2.81135C72.6677 2.19558 72.8428 1.6925 73.1929 1.30211C73.5471 0.9077 73.9838 0.710493 74.503 0.710493C74.7324 0.710493 74.9356 0.750739 75.1127 0.831231C75.2898 0.9077 75.4588 0.996241 75.6198 1.09686C75.7808 1.19747 75.9458 1.28803 76.1148 1.36852C76.2879 1.44499 76.4831 1.48322 76.7004 1.48322C76.9298 1.48322 77.123 1.39468 77.28 1.2176C77.4409 1.03649 77.5214 0.819158 77.5214 0.565606L78.6081 0.662198C78.6081 1.29004 78.431 1.78909 78.0768 2.15936C77.7267 2.52962 77.292 2.71475 76.7728 2.71475C76.4952 2.71475 76.2657 2.67652 76.0846 2.60005C75.9035 2.51956 75.7425 2.42901 75.6017 2.32839C75.4608 2.22778 75.3119 2.13923 75.155 2.06277C74.998 1.98227 74.8048 1.94203 74.5754 1.94203C74.346 1.94203 74.1548 2.03258 74.0019 2.21369C73.853 2.39077 73.7785 2.60609 73.7785 2.85964ZM85.3377 13.4363C84.5006 13.4363 83.7661 13.2371 83.1343 12.8387C82.5064 12.4403 82.0154 11.8828 81.6613 11.1665C81.3111 10.4501 81.136 9.61296 81.136 8.6551C81.136 7.68919 81.3111 6.84603 81.6613 6.12562C82.0154 5.40521 82.5064 4.84579 83.1343 4.44735C83.7661 4.04892 84.5006 3.8497 85.3377 3.8497C86.1749 3.8497 86.9073 4.04892 87.5352 4.44735C88.1671 4.84579 88.6581 5.40521 89.0082 6.12562C89.3624 6.84603 89.5395 7.68919 89.5395 8.6551C89.5395 9.61296 89.3624 10.4501 89.0082 11.1665C88.6581 11.8828 88.1671 12.4403 87.5352 12.8387C86.9073 13.2371 86.1749 13.4363 85.3377 13.4363ZM85.3377 12.1565C85.9736 12.1565 86.4968 11.9935 86.9073 11.6675C87.3179 11.3415 87.6217 10.9129 87.8189 10.3817C88.0161 9.85041 88.1147 9.27489 88.1147 8.6551C88.1147 8.0353 88.0161 7.45777 87.8189 6.9225C87.6217 6.38722 87.3179 5.95457 86.9073 5.62456C86.4968 5.29454 85.9736 5.12953 85.3377 5.12953C84.7019 5.12953 84.1787 5.29454 83.7681 5.62456C83.3576 5.95457 83.0538 6.38722 82.8566 6.9225C82.6594 7.45777 82.5608 8.0353 82.5608 8.6551C82.5608 9.27489 82.6594 9.85041 82.8566 10.3817C83.0538 10.9129 83.3576 11.3415 83.7681 11.6675C84.1787 11.9935 84.7019 12.1565 85.3377 12.1565ZM92.7526 13.3398C92.4548 13.3398 92.1992 13.2331 91.9859 13.0198C91.7726 12.8065 91.666 12.5509 91.666 12.2531C91.666 11.9553 91.7726 11.6997 91.9859 11.4864C92.1992 11.2731 92.4548 11.1665 92.7526 11.1665C93.0504 11.1665 93.306 11.2731 93.5193 11.4864C93.7326 11.6997 93.8393 11.9553 93.8393 12.2531C93.8393 12.4503 93.7889 12.6314 93.6883 12.7964C93.5917 12.9614 93.4609 13.0943 93.2959 13.1949C93.1349 13.2915 92.9538 13.3398 92.7526 13.3398ZM92.7526 6.45765C92.4548 6.45765 92.1992 6.351 91.9859 6.1377C91.7726 5.92439 91.666 5.66883 91.666 5.371C91.666 5.07318 91.7726 4.81762 91.9859 4.60431C92.1992 4.39101 92.4548 4.28436 92.7526 4.28436C93.0504 4.28436 93.306 4.39101 93.5193 4.60431C93.7326 4.81762 93.8393 5.07318 93.8393 5.371C93.8393 5.56821 93.7889 5.74932 93.6883 5.91433C93.5917 6.07934 93.4609 6.21215 93.2959 6.31277C93.1349 6.40936 92.9538 6.45765 92.7526 6.45765Z" fill="#E3E4EB"/>
<path d="M10.104 0.879527H10.404V0.579527H10.104V0.879527ZM10.104 13.2432V13.5432H10.404V13.2432H10.104ZM8.65513 13.2432L8.40867 13.4142L8.49817 13.5432H8.65513V13.2432ZM1.91791 3.53578L2.16437 3.36473L2.07488 3.23578H1.91791V3.53578ZM1.79717 3.53578V3.23578H1.49717V3.53578H1.79717ZM1.79717 13.2432V13.5432H2.09717V13.2432H1.79717ZM0.300016 13.2432H1.56164e-05V13.5432H0.300016V13.2432ZM0.300016 0.879527V0.579527H1.56164e-05V0.879527H0.300016ZM1.74888 0.879527L1.99525 0.708351L1.90574 0.579527H1.74888V0.879527ZM8.51024 10.6111L8.26387 10.7822L8.35338 10.9111H8.51024V10.6111ZM8.63098 10.6111V10.9111H8.93098V10.6111H8.63098ZM8.63098 0.879527V0.579527H8.33098V0.879527H8.63098ZM10.104 0.879527H9.80399V13.2432H10.104H10.404V0.879527H10.104ZM10.104 13.2432V12.9432H8.65513V13.2432V13.5432H10.104V13.2432ZM8.65513 13.2432L8.90159 13.0721L2.16437 3.36473L1.91791 3.53578L1.67145 3.70683L8.40867 13.4142L8.65513 13.2432ZM1.91791 3.53578V3.23578H1.79717V3.53578V3.83578H1.91791V3.53578ZM1.79717 3.53578H1.49717V13.2432H1.79717H2.09717V3.53578H1.79717ZM1.79717 13.2432V12.9432H0.300016V13.2432V13.5432H1.79717V13.2432ZM0.300016 13.2432H0.600016V0.879527H0.300016H1.56164e-05V13.2432H0.300016ZM0.300016 0.879527V1.17953H1.74888V0.879527V0.579527H0.300016V0.879527ZM1.74888 0.879527L1.50251 1.0507L8.26387 10.7822L8.51024 10.6111L8.75661 10.4399L1.99525 0.708351L1.74888 0.879527ZM8.51024 10.6111V10.9111H8.63098V10.6111V10.3111H8.51024V10.6111ZM8.63098 10.6111H8.93098V0.879527H8.63098H8.33098V10.6111H8.63098ZM8.63098 0.879527V1.17953H10.104V0.879527V0.579527H8.63098V0.879527ZM14.4702 12.8387L14.3095 13.092L14.3102 13.0925L14.4702 12.8387ZM12.9972 11.1665L12.7277 11.2982L12.7283 11.2994L12.9972 11.1665ZM12.9972 6.12562L12.728 5.99326L12.7274 5.99448L12.9972 6.12562ZM14.4702 4.44735L14.3102 4.19359L14.3095 4.19406L14.4702 4.44735ZM18.8711 4.44735L18.7104 4.70065L18.7111 4.70112L18.8711 4.44735ZM20.3441 6.12562L20.0743 6.25676L20.0749 6.25798L20.3441 6.12562ZM20.3441 11.1665L20.0752 11.0335L20.0746 11.0347L20.3441 11.1665ZM18.8711 12.8387L18.7111 12.5849L18.7104 12.5854L18.8711 12.8387ZM18.2433 11.6675L18.0567 11.4326V11.4326L18.2433 11.6675ZM19.1549 10.3817L19.4361 10.4861V10.4861L19.1549 10.3817ZM19.1549 6.9225L19.4364 6.81878V6.81878L19.1549 6.9225ZM18.2433 5.62456L18.4313 5.39074V5.39074L18.2433 5.62456ZM15.1041 5.62456L14.9161 5.39074V5.39074L15.1041 5.62456ZM14.1925 6.9225L13.911 6.81878V6.81878L14.1925 6.9225ZM14.1925 10.3817L13.9113 10.4861V10.4861L14.1925 10.3817ZM15.1041 11.6675L15.2906 11.4326V11.4326L15.1041 11.6675ZM16.6737 13.4363V13.1363C15.8862 13.1363 15.2086 12.9496 14.6302 12.5849L14.4702 12.8387L14.3102 13.0925C14.9956 13.5246 15.787 13.7363 16.6737 13.7363V13.4363ZM14.4702 12.8387L14.631 12.5854C14.053 12.2186 13.5978 11.7044 13.2661 11.0335L12.9972 11.1665L12.7283 11.2994C13.1049 12.0612 13.6317 12.6619 14.3095 13.092L14.4702 12.8387ZM12.9972 11.1665L13.2667 11.0347C12.9403 10.3668 12.772 9.57638 12.772 8.6551H12.472H12.172C12.172 9.64954 12.3538 10.5333 12.7277 11.2982L12.9972 11.1665ZM12.472 8.6551H12.772C12.772 7.7254 12.9404 6.92875 13.267 6.25676L12.9972 6.12562L12.7274 5.99448C12.3537 6.76331 12.172 7.65298 12.172 8.6551H12.472ZM12.9972 6.12562L13.2664 6.25798C13.5982 5.583 14.0534 5.06717 14.631 4.70065L14.4702 4.44735L14.3095 4.19406C13.6313 4.62441 13.1045 5.22742 12.728 5.99327L12.9972 6.12562ZM14.4702 4.44735L14.6302 4.70112C15.2086 4.33643 15.8862 4.1497 16.6737 4.1497V3.8497V3.5497C15.787 3.5497 14.9956 3.7614 14.3102 4.19359L14.4702 4.44735ZM16.6737 3.8497V4.1497C17.4612 4.1497 18.1365 4.33644 18.7104 4.70065L18.8711 4.44735L19.0319 4.19406C18.3501 3.76139 17.5604 3.5497 16.6737 3.5497V3.8497ZM18.8711 4.44735L18.7111 4.70112C19.2922 5.06755 19.7468 5.58288 20.0743 6.25676L20.3441 6.12562L20.614 5.99448C20.2412 5.22755 19.7138 4.62404 19.0311 4.19359L18.8711 4.44735ZM20.3441 6.12562L20.0749 6.25798C20.4051 6.92966 20.5754 7.72587 20.5754 8.6551H20.8754H21.1754C21.1754 7.65251 20.9915 6.76239 20.6134 5.99327L20.3441 6.12562ZM20.8754 8.6551H20.5754C20.5754 9.5759 20.4053 10.3659 20.0752 11.0335L20.3441 11.1665L20.6131 11.2994C20.9913 10.5343 21.1754 9.65001 21.1754 8.6551H20.8754ZM20.3441 11.1665L20.0746 11.0347C19.7472 11.7046 19.2926 12.2182 18.7111 12.5849L18.8711 12.8387L19.0311 13.0925C19.7133 12.6623 20.2408 12.0611 20.6137 11.2982L20.3441 11.1665ZM18.8711 12.8387L18.7104 12.5854C18.1365 12.9496 17.4612 13.1363 16.6737 13.1363V13.4363V13.7363C17.5604 13.7363 18.3501 13.5247 19.0319 13.092L18.8711 12.8387ZM16.6737 12.1565V12.4565C17.3624 12.4565 17.9557 12.279 18.4299 11.9025L18.2433 11.6675L18.0567 11.4326C17.7099 11.708 17.2567 11.8565 16.6737 11.8565V12.1565ZM18.2433 11.6675L18.4299 11.9025C18.8867 11.5397 19.2214 11.0643 19.4361 10.4861L19.1549 10.3817L18.8736 10.2773C18.6939 10.7615 18.4209 11.1434 18.0567 11.4326L18.2433 11.6675ZM19.1549 10.3817L19.4361 10.4861C19.6468 9.9184 19.7507 9.30718 19.7507 8.6551H19.4507H19.1507C19.1507 9.24259 19.0573 9.78241 18.8736 10.2773L19.1549 10.3817ZM19.4507 8.6551H19.7507C19.7507 8.00298 19.6468 7.39003 19.4364 6.81878L19.1549 6.9225L18.8734 7.02621C19.0573 7.52551 19.1507 8.06763 19.1507 8.6551H19.4507ZM19.1549 6.9225L19.4364 6.81878C19.222 6.23685 18.8877 5.75766 18.4313 5.39074L18.2433 5.62456L18.0553 5.85837C18.4199 6.15149 18.6933 6.53759 18.8734 7.02621L19.1549 6.9225ZM18.2433 5.62456L18.4313 5.39074C17.957 5.00952 17.3633 4.82953 16.6737 4.82953V5.12953V5.42953C17.2559 5.42953 17.7085 5.57955 18.0553 5.85837L18.2433 5.62456ZM16.6737 5.12953V4.82953C15.9841 4.82953 15.3903 5.00952 14.9161 5.39074L15.1041 5.62456L15.292 5.85837C15.6389 5.57955 16.0915 5.42953 16.6737 5.42953V5.12953ZM15.1041 5.62456L14.9161 5.39074C14.4597 5.75766 14.1254 6.23685 13.911 6.81878L14.1925 6.9225L14.474 7.02621C14.654 6.53759 14.9274 6.15149 15.292 5.85837L15.1041 5.62456ZM14.1925 6.9225L13.911 6.81878C13.7005 7.39003 13.5967 8.00298 13.5967 8.6551H13.8967H14.1967C14.1967 8.06763 14.2901 7.52551 14.474 7.02621L14.1925 6.9225ZM13.8967 8.6551H13.5967C13.5967 9.30718 13.7005 9.9184 13.9113 10.4861L14.1925 10.3817L14.4738 10.2773C14.2901 9.78241 14.1967 9.24259 14.1967 8.6551H13.8967ZM14.1925 10.3817L13.9113 10.4861C14.1259 11.0643 14.4607 11.5397 14.9175 11.9025L15.1041 11.6675L15.2906 11.4326C14.9265 11.1434 14.6535 10.7615 14.4738 10.2773L14.1925 10.3817ZM15.1041 11.6675L14.9175 11.9025C15.3917 12.279 15.9849 12.4565 16.6737 12.4565V12.1565V11.8565C16.0906 11.8565 15.6375 11.708 15.2906 11.4326L15.1041 11.6675ZM27.0829 3.97044H27.3829V3.67044H27.0829V3.97044ZM27.0829 5.17782V5.47782H27.3829V5.17782H27.0829ZM22.2775 5.17782H21.9775V5.47782H22.2775V5.17782ZM22.2775 3.97044V3.67044H21.9775V3.97044H22.2775ZM23.678 1.74885V1.44885H23.378V1.74885H23.678ZM25.1028 1.74885H25.4028V1.44885H25.1028V1.74885ZM25.2778 11.4925L25.0182 11.643L25.022 11.6491L25.2778 11.4925ZM25.7366 11.8909L25.6326 12.1724L25.6399 12.1749L25.7366 11.8909ZM26.7206 11.9633L26.7681 12.2598L26.7795 12.2575L26.7206 11.9633ZM26.9621 11.915L27.2547 11.8488L27.1901 11.5635L26.9033 11.6209L26.9621 11.915ZM27.2519 13.1949L27.3572 13.4758L27.6023 13.3839L27.5445 13.1286L27.2519 13.1949ZM26.8474 13.3035L26.7859 13.0098L26.7795 13.0113L26.8474 13.3035ZM25.0062 13.1043L24.8825 13.3776L24.8835 13.3781L25.0062 13.1043ZM24.0523 12.3135L23.8071 12.4863L23.8084 12.4881L24.0523 12.3135ZM27.0829 3.97044H26.7829V5.17782H27.0829H27.3829V3.97044H27.0829ZM27.0829 5.17782V4.87782H22.2775V5.17782V5.47782H27.0829V5.17782ZM22.2775 5.17782H22.5775V3.97044H22.2775H21.9775V5.17782H22.2775ZM22.2775 3.97044V4.27044H27.0829V3.97044V3.67044H22.2775V3.97044ZM23.678 1.74885V2.04885H25.1028V1.74885V1.44885H23.678V1.74885ZM25.1028 1.74885H24.8027V10.5869H25.1028H25.4028V1.74885H25.1028ZM25.1028 10.5869H24.8027C24.8027 11.0085 24.8622 11.3737 25.0183 11.643L25.2778 11.4925L25.5373 11.3419C25.4601 11.2087 25.4028 10.9702 25.4028 10.5869H25.1028ZM25.2778 11.4925L25.022 11.6491C25.1716 11.8935 25.3739 12.0767 25.6326 12.1723L25.7366 11.8909L25.8406 11.6095C25.7291 11.5683 25.6255 11.4858 25.5337 11.3358L25.2778 11.4925ZM25.7366 11.8909L25.6399 12.1749C25.8617 12.2504 26.0937 12.2875 26.3343 12.2875V11.9875V11.6875C26.1563 11.6875 25.9899 11.6602 25.8333 11.6069L25.7366 11.8909ZM26.3343 11.9875V12.2875C26.4996 12.2875 26.6458 12.2791 26.768 12.2596L26.7206 11.9633L26.6733 11.6671C26.5943 11.6797 26.4829 11.6875 26.3343 11.6875V11.9875ZM26.7206 11.9633L26.7795 12.2575C26.8801 12.2374 26.9606 12.2213 27.021 12.2092L26.9621 11.915L26.9033 11.6209C26.8429 11.6329 26.7624 11.649 26.6618 11.6692L26.7206 11.9633ZM26.9621 11.915L26.6695 11.9813L26.9593 13.2611L27.2519 13.1949L27.5445 13.1286L27.2547 11.8488L26.9621 11.915ZM27.2519 13.1949L27.1466 12.914C27.0708 12.9424 26.953 12.9749 26.786 13.0099L26.8474 13.3035L26.9089 13.5972C27.0879 13.5597 27.2398 13.5198 27.3572 13.4758L27.2519 13.1949ZM26.8474 13.3035L26.7795 13.0113C26.6367 13.0445 26.4422 13.0639 26.1894 13.0639V13.3639V13.6639C26.4678 13.6639 26.712 13.643 26.9154 13.5957L26.8474 13.3035ZM26.1894 13.3639V13.0639C25.8314 13.0639 25.4786 12.9872 25.1288 12.8305L25.0062 13.1043L24.8835 13.3781C25.3064 13.5675 25.7425 13.6639 26.1894 13.6639V13.3639ZM25.0062 13.1043L25.1299 12.831C24.7974 12.6805 24.5203 12.4518 24.2963 12.1388L24.0523 12.3135L23.8084 12.4881C24.0914 12.8835 24.4502 13.182 24.8825 13.3776L25.0062 13.1043ZM24.0523 12.3135L24.2976 12.1407C24.0916 11.8483 23.978 11.466 23.978 10.9733H23.678H23.378C23.378 11.5592 23.514 12.0703 23.8071 12.4863L24.0523 12.3135ZM23.678 10.9733H23.978V1.74885H23.678H23.378V10.9733H23.678ZM29.226 13.2432H28.926V13.5432H29.226V13.2432ZM29.226 3.97044V3.67044H28.926V3.97044H29.226ZM30.6507 3.97044H30.9507V3.67044H30.6507V3.97044ZM30.6507 13.2432V13.5432H30.9507V13.2432H30.6507ZM29.232 2.14125L29.0243 2.35776L29.0265 2.35983L29.232 2.14125ZM29.232 0.776899L29.0265 0.5583L29.0243 0.560395L29.232 0.776899ZM30.6628 0.776899L30.4551 0.993415L30.4573 0.995487L30.6628 0.776899ZM30.6628 2.14125L30.4573 1.92265L30.4551 1.92474L30.6628 2.14125ZM29.226 13.2432H29.526V3.97044H29.226H28.926V13.2432H29.226ZM29.226 3.97044V4.27044H30.6507V3.97044V3.67044H29.226V3.97044ZM30.6507 3.97044H30.3507V13.2432H30.6507H30.9507V3.97044H30.6507ZM30.6507 13.2432V12.9432H29.226V13.2432V13.5432H30.6507V13.2432ZM29.9504 2.42498V2.12498C29.7486 2.12498 29.5827 2.0592 29.4375 1.92266L29.232 2.14125L29.0265 2.35983C29.2837 2.60161 29.5968 2.72498 29.9504 2.72498V2.42498ZM29.232 2.14125L29.4397 1.92474C29.2995 1.79033 29.2362 1.64036 29.2362 1.45907H28.9362H28.6362C28.6362 1.80904 28.7701 2.11385 29.0243 2.35775L29.232 2.14125ZM28.9362 1.45907H29.2362C29.2362 1.27779 29.2995 1.12782 29.4397 0.993403L29.232 0.776899L29.0243 0.560395C28.7701 0.804298 28.6362 1.10911 28.6362 1.45907H28.9362ZM29.232 0.776899L29.4375 0.995488C29.5827 0.858948 29.7486 0.793164 29.9504 0.793164V0.493164V0.193164C29.5968 0.193164 29.2837 0.316537 29.0265 0.558311L29.232 0.776899ZM29.9504 0.493164V0.793164C30.1521 0.793164 30.3148 0.858789 30.4551 0.993404L30.6628 0.776899L30.8704 0.560395C30.6164 0.316695 30.3041 0.193164 29.9504 0.193164V0.493164ZM30.6628 0.776899L30.4573 0.995487C30.6009 1.13048 30.6646 1.27987 30.6646 1.45907H30.9646H31.2646C31.2646 1.10703 31.1271 0.80163 30.8682 0.558311L30.6628 0.776899ZM30.9646 1.45907H30.6646C30.6646 1.63828 30.6009 1.78766 30.4573 1.92266L30.6628 2.14125L30.8682 2.35983C31.1271 2.11652 31.2646 1.81112 31.2646 1.45907H30.9646ZM30.6628 2.14125L30.4551 1.92474C30.3148 2.05936 30.1521 2.12498 29.9504 2.12498V2.42498V2.72498C30.3041 2.72498 30.6164 2.60145 30.8704 2.35775L30.6628 2.14125ZM37.3894 3.97044H37.6894V3.67044H37.3894V3.97044ZM37.3894 5.17782V5.47782H37.6894V5.17782H37.3894ZM32.3908 5.17782H32.0908V5.47782H32.3908V5.17782ZM32.3908 3.97044V3.67044H32.0908V3.97044H32.3908ZM33.888 13.2432H33.588V13.5432H33.888V13.2432ZM34.2623 1.36248L34.017 1.1897V1.1897L34.2623 1.36248ZM35.2342 0.565606L35.1124 0.291463V0.291463L35.2342 0.565606ZM37.3532 0.384499L37.2792 0.675228V0.675228L37.3532 0.384499ZM37.8482 0.541459L38.1328 0.636327L38.219 0.377935L37.9701 0.267316L37.8482 0.541459ZM37.4377 1.77299L37.3428 2.0576L37.6274 2.15247L37.7223 1.86786L37.4377 1.77299ZM37.1359 1.68244L37.0522 1.97055L37.0546 1.97124L37.1359 1.68244ZM35.6206 1.98429L35.3955 1.78592L35.3936 1.7881L35.6206 1.98429ZM35.3127 13.2432V13.5432H35.6127V13.2432H35.3127ZM37.3894 3.97044H37.0894V5.17782H37.3894H37.6894V3.97044H37.3894ZM37.3894 5.17782V4.87782H32.3908V5.17782V5.47782H37.3894V5.17782ZM32.3908 5.17782H32.6908V3.97044H32.3908H32.0908V5.17782H32.3908ZM32.3908 3.97044V4.27044H37.3894V3.97044V3.67044H32.3908V3.97044ZM33.888 13.2432H34.188V2.69061H33.888H33.588V13.2432H33.888ZM33.888 2.69061H34.188C34.188 2.20703 34.301 1.82838 34.5075 1.53527L34.2623 1.36248L34.017 1.1897C33.7245 1.60491 33.588 2.11168 33.588 2.69061H33.888ZM34.2623 1.36248L34.5075 1.53527C34.7256 1.22571 35.0068 0.994966 35.3561 0.83975L35.2342 0.565606L35.1124 0.291463C34.6647 0.490414 34.298 0.790915 34.017 1.1897L34.2623 1.36248ZM35.2342 0.565606L35.3561 0.83975C35.7155 0.679982 36.0946 0.599981 36.4959 0.599981V0.299981V-1.90735e-05C36.0119 -1.90735e-05 35.5498 0.097064 35.1124 0.291463L35.2342 0.565606ZM36.4959 0.299981V0.599981C36.8329 0.599981 37.0912 0.627384 37.2792 0.675228L37.3532 0.384499L37.4272 0.09377C37.1724 0.028924 36.8593 -1.90735e-05 36.4959 -1.90735e-05V0.299981ZM37.3532 0.384499L37.2792 0.675228C37.4962 0.730461 37.6414 0.777839 37.7264 0.815602L37.8482 0.541459L37.9701 0.267316C37.8377 0.208488 37.6529 0.151225 37.4272 0.09377L37.3532 0.384499ZM37.8482 0.541459L37.5636 0.44659L37.1531 1.67812L37.4377 1.77299L37.7223 1.86786L38.1328 0.636327L37.8482 0.541459ZM37.4377 1.77299L37.5326 1.48839C37.4535 1.46203 37.3476 1.43035 37.2171 1.39364L37.1359 1.68244L37.0546 1.97124C37.1817 2.00697 37.277 2.03567 37.3428 2.0576L37.4377 1.77299ZM37.1359 1.68244L37.2195 1.39434C37.0566 1.34703 36.86 1.32811 36.6408 1.32811V1.62811V1.92811C36.8321 1.92811 36.9656 1.94541 37.0522 1.97054L37.1359 1.68244ZM36.6408 1.62811V1.32811C36.1263 1.32811 35.6849 1.45766 35.3955 1.78593L35.6206 1.98429L35.8457 2.18265C35.9749 2.03601 36.2136 1.92811 36.6408 1.92811V1.62811ZM35.6206 1.98429L35.3936 1.7881C35.1236 2.10044 35.0127 2.53034 35.0127 3.02868H35.3127H35.6127C35.6127 2.60939 35.707 2.34303 35.8476 2.18047L35.6206 1.98429ZM35.3127 3.02868H35.0127V13.2432H35.3127H35.6127V3.02868H35.3127ZM35.3127 13.2432V12.9432H33.888V13.2432V13.5432H35.3127V13.2432ZM39.3861 13.2432H39.0861V13.5432H39.3861V13.2432ZM39.3861 3.97044V3.67044H39.0861V3.97044H39.3861ZM40.8108 3.97044H41.1108V3.67044H40.8108V3.97044ZM40.8108 13.2432V13.5432H41.1108V13.2432H40.8108ZM39.3922 2.14125L39.1845 2.35776L39.1867 2.35983L39.3922 2.14125ZM39.3922 0.776899L39.1867 0.5583L39.1845 0.560395L39.3922 0.776899ZM40.8229 0.776899L40.6152 0.993415L40.6174 0.995487L40.8229 0.776899ZM40.8229 2.14125L40.6174 1.92265L40.6153 1.92474L40.8229 2.14125ZM39.3861 13.2432H39.6861V3.97044H39.3861H39.0861V13.2432H39.3861ZM39.3861 3.97044V4.27044H40.8108V3.97044V3.67044H39.3861V3.97044ZM40.8108 3.97044H40.5108V13.2432H40.8108H41.1108V3.97044H40.8108ZM40.8108 13.2432V12.9432H39.3861V13.2432V13.5432H40.8108V13.2432ZM40.1106 2.42498V2.12498C39.9088 2.12498 39.7429 2.0592 39.5976 1.92266L39.3922 2.14125L39.1867 2.35983C39.4439 2.60161 39.757 2.72498 40.1106 2.72498V2.42498ZM39.3922 2.14125L39.5998 1.92474C39.4597 1.79033 39.3964 1.64036 39.3964 1.45907H39.0964H38.7964C38.7964 1.80904 38.9302 2.11385 39.1845 2.35775L39.3922 2.14125ZM39.0964 1.45907H39.3964C39.3964 1.27779 39.4597 1.12782 39.5998 0.993403L39.3922 0.776899L39.1845 0.560395C38.9302 0.804298 38.7964 1.10911 38.7964 1.45907H39.0964ZM39.3922 0.776899L39.5976 0.995488C39.7429 0.858948 39.9087 0.793164 40.1106 0.793164V0.493164V0.193164C39.757 0.193164 39.4439 0.316537 39.1867 0.558311L39.3922 0.776899ZM40.1106 0.493164V0.793164C40.3123 0.793164 40.4749 0.858789 40.6153 0.993404L40.8229 0.776899L41.0306 0.560395C40.7765 0.316695 40.4643 0.193164 40.1106 0.193164V0.493164ZM40.8229 0.776899L40.6174 0.995487C40.7611 1.13048 40.8248 1.27987 40.8248 1.45907H41.1248H41.4248C41.4248 1.10703 41.2872 0.80163 41.0284 0.558311L40.8229 0.776899ZM41.1248 1.45907H40.8248C40.8248 1.63828 40.7611 1.78766 40.6174 1.92266L40.8229 2.14125L41.0284 2.35983C41.2872 2.11652 41.4248 1.81112 41.4248 1.45907H41.1248ZM40.8229 2.14125L40.6153 1.92474C40.4749 2.05936 40.3123 2.12498 40.1106 2.12498V2.42498V2.72498C40.4643 2.72498 40.7765 2.60145 41.0306 2.35775L40.8229 2.14125ZM44.9416 12.8206L44.7774 13.0717V13.0717L44.9416 12.8206ZM43.5048 6.16184L43.2347 6.03129L43.2344 6.03193L43.5048 6.16184ZM44.9658 4.46546L45.1295 4.71681L45.1299 4.71656L44.9658 4.46546ZM50.2119 5.22612L50.4497 5.04331V5.04331L50.2119 5.22612ZM50.8337 6.74743V7.04743H51.1782L51.1308 6.70615L50.8337 6.74743ZM49.4089 6.74743L49.1184 6.82214L49.1763 7.04743H49.4089V6.74743ZM48.6845 5.62456L48.4849 5.84852L48.4875 5.85078L48.6845 5.62456ZM45.7264 5.56419L45.8967 5.81119L45.8972 5.81084L45.7264 5.56419ZM44.7545 6.77761L44.4805 6.65538L44.4801 6.65636L44.7545 6.77761ZM44.7484 10.4782L44.4723 10.5954L44.473 10.5972L44.7484 10.4782ZM45.7143 11.7158L45.5409 11.9606L45.542 11.9614L45.7143 11.7158ZM48.1955 11.9633L48.0778 11.6874V11.6874L48.1955 11.9633ZM48.9622 11.4079L49.1889 11.6044V11.6044L48.9622 11.4079ZM49.4089 10.5386V10.2386H49.1774L49.1187 10.4626L49.4089 10.5386ZM50.8337 10.5386L51.1305 10.5823L51.181 10.2386H50.8337V10.5386ZM50.236 12.0177L49.9931 11.8416L49.9928 11.842L50.236 12.0177ZM48.9864 13.056L49.1188 13.3252L49.1197 13.3248L48.9864 13.056ZM47.1874 13.4363V13.1363C46.3669 13.1363 45.6774 12.9433 45.1058 12.5695L44.9416 12.8206L44.7774 13.0717C45.4615 13.5189 46.2692 13.7363 47.1874 13.7363V13.4363ZM44.9416 12.8206L45.1058 12.5695C44.5274 12.1913 44.0803 11.67 43.7643 10.9968L43.4928 11.1242L43.2212 11.2516C43.5814 12.0192 44.1002 12.6288 44.7774 13.0717L44.9416 12.8206ZM43.4928 11.1242L43.7643 10.9968C43.4478 10.3222 43.2857 9.54386 43.2857 8.6551H42.9857H42.6856C42.6856 9.61766 42.8616 10.4854 43.2212 11.2516L43.4928 11.1242ZM42.9857 8.6551H43.2857C43.2857 7.75035 43.4518 6.96502 43.7752 6.29176L43.5048 6.16184L43.2344 6.03193C42.8656 6.79948 42.6856 7.67632 42.6856 8.6551H42.9857ZM43.5048 6.16184L43.7749 6.29239C44.1033 5.61305 44.5552 5.09107 45.1295 4.71681L44.9658 4.46546L44.802 4.21412C44.1287 4.65283 43.6067 5.26178 43.2347 6.03129L43.5048 6.16184ZM44.9658 4.46546L45.1299 4.71656C45.7034 4.34158 46.3774 4.1497 47.1632 4.1497V3.8497V3.5497C46.2748 3.5497 45.4838 3.76832 44.8016 4.21437L44.9658 4.46546ZM47.1632 3.8497V4.1497C47.7775 4.1497 48.3214 4.26327 48.8003 4.4843L48.926 4.21191L49.0517 3.93953C48.4842 3.6776 47.8529 3.5497 47.1632 3.5497V3.8497ZM48.926 4.21191L48.8003 4.4843C49.2817 4.70651 49.6711 5.01474 49.974 5.40893L50.2119 5.22612L50.4497 5.04331C50.0846 4.56817 49.6167 4.20027 49.0517 3.93953L48.926 4.21191ZM50.2119 5.22612L49.974 5.40892C50.2742 5.79956 50.4627 6.25708 50.5365 6.7887L50.8337 6.74743L51.1308 6.70615C51.0437 6.07868 50.8176 5.52199 50.4497 5.04331L50.2119 5.22612ZM50.8337 6.74743V6.44743H49.4089V6.74743V7.04743H50.8337V6.74743ZM49.4089 6.74743L49.6995 6.67271C49.5737 6.18348 49.2951 5.75853 48.8815 5.39833L48.6845 5.62456L48.4875 5.85078C48.8225 6.14257 49.0269 6.46621 49.1184 6.82214L49.4089 6.74743ZM48.6845 5.62456L48.8841 5.4006C48.4455 5.00963 47.8686 4.82953 47.1874 4.82953V5.12953V5.42953C47.7618 5.42953 48.183 5.57944 48.4849 5.84851L48.6845 5.62456ZM47.1874 5.12953V4.82953C46.5768 4.82953 46.029 4.98985 45.5557 5.31753L45.7264 5.56419L45.8972 5.81084C46.261 5.55898 46.6872 5.42953 47.1874 5.42953V5.12953ZM45.7264 5.56419L45.5562 5.31718C45.0902 5.63834 44.7332 6.08895 44.4805 6.65538L44.7545 6.77761L45.0284 6.89984C45.2426 6.41987 45.5335 6.06153 45.8967 5.81119L45.7264 5.56419ZM44.7545 6.77761L44.4801 6.65636C44.2303 7.22156 44.1104 7.87426 44.1104 8.6068H44.4104H44.7104C44.7104 7.93877 44.8198 7.37201 45.0289 6.89886L44.7545 6.77761ZM44.4104 8.6068H44.1104C44.1104 9.35402 44.2279 10.0193 44.4723 10.5954L44.7484 10.4782L45.0246 10.3611C44.8183 9.87468 44.7104 9.29234 44.7104 8.6068H44.4104ZM44.7484 10.4782L44.473 10.5972C44.7211 11.1718 45.0755 11.6307 45.5409 11.9606L45.7143 11.7158L45.8878 11.4711C45.5241 11.2133 45.2345 10.8472 45.0239 10.3593L44.7484 10.4782ZM45.7143 11.7158L45.542 11.9614C46.0162 12.2942 46.5688 12.4565 47.1874 12.4565V12.1565V11.8565C46.679 11.8565 46.2496 11.725 45.8867 11.4703L45.7143 11.7158ZM47.1874 12.1565V12.4565C47.5929 12.4565 47.9697 12.3859 48.3133 12.2393L48.1955 11.9633L48.0778 11.6874C47.8176 11.7984 47.5223 11.8565 47.1874 11.8565V12.1565ZM48.1955 11.9633L48.3133 12.2393C48.6558 12.0931 48.949 11.8813 49.1889 11.6044L48.9622 11.4079L48.7355 11.2115C48.5569 11.4176 48.3389 11.576 48.0778 11.6874L48.1955 11.9633ZM48.9622 11.4079L49.1889 11.6044C49.4311 11.325 49.6001 10.993 49.6992 10.6146L49.4089 10.5386L49.1187 10.4626C49.0407 10.7604 48.9119 11.0079 48.7355 11.2115L48.9622 11.4079ZM49.4089 10.5386V10.8386H50.8337V10.5386V10.2386H49.4089V10.5386ZM50.8337 10.5386L50.5369 10.495C50.4632 10.9955 50.2821 11.4429 49.9931 11.8416L50.236 12.0177L50.4789 12.1937C50.8259 11.715 51.0431 11.1764 51.1305 10.5823L50.8337 10.5386ZM50.236 12.0177L49.9928 11.842C49.7097 12.234 49.3322 12.5496 48.853 12.7873L48.9864 13.056L49.1197 13.3248C49.6789 13.0473 50.1345 12.6706 50.4792 12.1933L50.236 12.0177ZM48.9864 13.056L48.8539 12.7869C48.3871 13.0166 47.8343 13.1363 47.1874 13.1363V13.4363V13.7363C47.9088 13.7363 48.5553 13.6025 49.1188 13.3252L48.9864 13.056ZM54.0453 13.1285L53.9176 13.3999L53.9194 13.4008L54.0453 13.1285ZM52.9043 12.1565L52.654 12.3218L52.6547 12.3229L52.9043 12.1565ZM52.7957 9.31916L53.049 9.47982L53.0499 9.47843L52.7957 9.31916ZM54.7939 8.11177L54.8581 8.40483L54.8601 8.40437L54.7939 8.11177ZM56.0798 7.88237L56.0415 7.58482L56.0408 7.5849L56.0798 7.88237ZM57.4501 7.71937L57.481 8.01779L57.484 8.01745L57.4501 7.71937ZM58.2229 7.52015L58.0761 7.25849L58.0733 7.26008L58.2229 7.52015ZM57.9814 5.60041L57.7667 5.80991L57.768 5.81124L57.9814 5.60041ZM54.9146 5.55211L55.0978 5.78972V5.78972L54.9146 5.55211ZM54.0996 6.50595L53.9987 6.78847L54.2565 6.88052L54.3717 6.63228L54.0996 6.50595ZM52.7474 6.02299L52.4716 5.90482L52.3459 6.19817L52.6465 6.30552L52.7474 6.02299ZM53.7133 4.70694L53.8978 4.94349L53.8981 4.94324L53.7133 4.70694ZM55.0414 4.04288L55.117 4.3332L55.1187 4.33275L55.0414 4.04288ZM57.4924 3.95836L57.4371 4.25324L57.4406 4.25386L57.4924 3.95836ZM58.6213 4.38698L58.467 4.64424L58.4682 4.64498L58.6213 4.38698ZM59.5329 5.37101L59.2701 5.51567V5.51567L59.5329 5.37101ZM59.8951 13.2432V13.5432H60.1951V13.2432H59.8951ZM58.4704 13.2432H58.1704V13.5432H58.4704V13.2432ZM58.4704 11.9875H58.7704V11.6875H58.4704V11.9875ZM58.3979 11.9875V11.6875H58.2092L58.1275 11.8577L58.3979 11.9875ZM57.915 12.6334L58.129 12.8437V12.8437L57.915 12.6334ZM57.0155 13.219L56.8969 12.9434V12.9434L57.0155 13.219ZM57.2871 11.8486L57.1392 11.5877L57.138 11.5883L57.2871 11.8486ZM58.1685 10.9914L57.9084 10.8419L57.9071 10.8442L58.1685 10.9914ZM58.4704 8.58265H58.7704V7.75403L58.2399 8.3906L58.4704 8.58265ZM58.0719 8.78187L58.1528 9.07079L58.1566 9.06968L58.0719 8.78187ZM57.3717 8.93279L57.4173 9.22933L57.421 9.22871L57.3717 8.93279ZM56.605 9.04146L56.6392 9.33953L56.6434 9.33899L56.605 9.04146ZM56.0073 9.1139L56.0461 9.41138L56.0464 9.41134L56.0073 9.1139ZM54.969 9.34934L55.0627 9.63431L55.0649 9.63359L54.969 9.34934ZM54.1962 9.82626L53.976 9.6226L53.9758 9.62278L54.1962 9.82626ZM54.4558 11.8064L54.285 12.0531L54.2882 12.0552L54.4558 11.8064ZM55.6451 13.4605V13.1605C55.096 13.1605 54.6064 13.0573 54.1712 12.8561L54.0453 13.1285L53.9194 13.4008C54.4421 13.6423 55.019 13.7605 55.6451 13.7605V13.4605ZM54.0453 13.1285L54.173 12.857C53.7414 12.6539 53.4041 12.3653 53.1539 11.9901L52.9043 12.1565L52.6547 12.3229C52.9681 12.7929 53.3914 13.1523 53.9176 13.3999L54.0453 13.1285ZM52.9043 12.1565L53.1547 11.9912C52.9108 11.622 52.7817 11.1668 52.7817 10.6111H52.4817H52.1817C52.1817 11.2627 52.3344 11.8379 52.654 12.3218L52.9043 12.1565ZM52.4817 10.6111H52.7817C52.7817 10.1169 52.8793 9.74743 53.049 9.47982L52.7957 9.31916L52.5423 9.15849C52.2935 9.55092 52.1817 10.0427 52.1817 10.6111H52.4817ZM52.7957 9.31916L53.0499 9.47843C53.2314 9.18878 53.4724 8.96306 53.7774 8.7983L53.6348 8.53436L53.4922 8.27041C53.0969 8.48397 52.7785 8.78144 52.5414 9.15988L52.7957 9.31916ZM53.6348 8.53436L53.7774 8.7983C54.1008 8.62356 54.4605 8.49191 54.8581 8.40482L54.7939 8.11177L54.7297 7.81872C54.2821 7.91676 53.869 8.06684 53.4922 8.27041L53.6348 8.53436ZM54.7939 8.11177L54.8601 8.40437C55.2778 8.3098 55.6973 8.23497 56.1187 8.17983L56.0798 7.88237L56.0408 7.5849C55.601 7.64246 55.1632 7.72056 54.7276 7.81918L54.7939 8.11177ZM56.0798 7.88237L56.118 8.17992C56.6803 8.10763 57.1344 8.05364 57.481 8.01778L57.4501 7.71937L57.4193 7.42096C57.0656 7.45755 56.6061 7.51222 56.0415 7.58482L56.0798 7.88237ZM57.4501 7.71937L57.484 8.01745C57.8483 7.97605 58.1564 7.90441 58.3724 7.78022L58.2229 7.52015L58.0733 7.26008C57.9673 7.32103 57.7603 7.3822 57.4163 7.42129L57.4501 7.71937ZM58.2229 7.52015L58.3696 7.7818C58.6509 7.62402 58.7704 7.34783 58.7704 7.0372H58.4704H58.1704C58.1704 7.18538 58.1249 7.23115 58.0761 7.25851L58.2229 7.52015ZM58.4704 7.0372H58.7704V6.9889H58.4704H58.1704V7.0372H58.4704ZM58.4704 6.9889H58.7704C58.7704 6.33775 58.5908 5.79047 58.1948 5.38958L57.9814 5.60041L57.768 5.81124C58.024 6.07039 58.1704 6.44876 58.1704 6.9889H58.4704ZM57.9814 5.60041L58.1961 5.39091C57.7974 4.98222 57.2167 4.80538 56.5144 4.80538V5.10538V5.40538C57.1242 5.40538 57.5214 5.55856 57.7667 5.80991L57.9814 5.60041ZM56.5144 5.10538V4.80538C55.7936 4.80538 55.1875 4.96297 54.7315 5.31451L54.9146 5.55211L55.0978 5.78972C55.4145 5.54561 55.8749 5.40538 56.5144 5.40538V5.10538ZM54.9146 5.55211L54.7315 5.31451C54.3183 5.63298 54.0101 5.98647 53.8275 6.37961L54.0996 6.50595L54.3717 6.63228C54.5031 6.34929 54.7382 6.06689 55.0978 5.78972L54.9146 5.55211ZM54.0996 6.50595L54.2005 6.22342L52.8483 5.74047L52.7474 6.02299L52.6465 6.30552L53.9987 6.78847L54.0996 6.50595ZM52.7474 6.02299L53.0231 6.14117C53.2486 5.61492 53.5425 5.22059 53.8978 4.94349L53.7133 4.70694L53.5288 4.47039C53.0791 4.82113 52.729 5.30417 52.4716 5.90482L52.7474 6.02299ZM53.7133 4.70694L53.8981 4.94324C54.2737 4.64948 54.6795 4.44717 55.117 4.33319L55.0414 4.04288L54.9658 3.75257C54.4454 3.88812 53.9659 4.12852 53.5285 4.47064L53.7133 4.70694ZM55.0414 4.04288L55.1187 4.33275C55.5782 4.21021 56.0271 4.1497 56.4661 4.1497V3.8497V3.5497C55.9714 3.5497 55.4705 3.61797 54.9641 3.75301L55.0414 4.04288ZM56.4661 3.8497V4.1497C56.7406 4.1497 57.0636 4.18319 57.4371 4.25322L57.4924 3.95836L57.5477 3.6635C57.1485 3.58865 56.7873 3.5497 56.4661 3.5497V3.8497ZM57.4924 3.95836L57.4406 4.25386C57.7924 4.31552 58.1342 4.44458 58.467 4.64423L58.6213 4.38698L58.7757 4.12974C58.384 3.89473 57.9731 3.73804 57.5442 3.66287L57.4924 3.95836ZM58.6213 4.38698L58.4682 4.64498C58.7809 4.83053 59.0498 5.11556 59.2701 5.51567L59.5329 5.37101L59.7957 5.22634C59.533 4.74909 59.1942 4.3781 58.7744 4.12899L58.6213 4.38698ZM59.5329 5.37101L59.2701 5.51567C59.4783 5.89403 59.5951 6.42574 59.5951 7.13379H59.8951H60.1951C60.1951 6.36882 60.0704 5.72535 59.7957 5.22634L59.5329 5.37101ZM59.8951 7.13379H59.5951V13.2432H59.8951H60.1951V7.13379H59.8951ZM59.8951 13.2432V12.9432H58.4704V13.2432V13.5432H59.8951V13.2432ZM58.4704 13.2432H58.7704V11.9875H58.4704H58.1704V13.2432H58.4704ZM58.4704 11.9875V11.6875H58.3979V11.9875V12.2875H58.4704V11.9875ZM58.3979 11.9875L58.1275 11.8577C58.0499 12.0192 57.9125 12.2079 57.701 12.4232L57.915 12.6334L58.129 12.8437C58.3682 12.6002 58.5527 12.3582 58.6684 12.1173L58.3979 11.9875ZM57.915 12.6334L57.701 12.4232C57.5091 12.6185 57.2447 12.7939 56.8969 12.9434L57.0155 13.219L57.134 13.4946C57.5349 13.3222 57.8701 13.1072 58.129 12.8437L57.915 12.6334ZM57.0155 13.219L56.8969 12.9434C56.5701 13.084 56.1562 13.1605 55.6451 13.1605V13.4605V13.7605C56.2126 13.7605 56.7123 13.676 57.134 13.4946L57.0155 13.219ZM55.8624 12.1807V12.4807C56.4645 12.4807 56.994 12.3623 57.4363 12.1089L57.2871 11.8486L57.138 11.5883C56.8076 11.7776 56.3872 11.8807 55.8624 11.8807V12.1807ZM57.2871 11.8486L57.4351 12.1096C57.8673 11.8646 58.2029 11.5417 58.4299 11.1386L58.1685 10.9914L57.9071 10.8442C57.7397 11.1414 57.4878 11.39 57.1392 11.5877L57.2871 11.8486ZM58.1685 10.9914L58.4286 11.1409C58.6548 10.7474 58.7704 10.3279 58.7704 9.88663H58.4704H58.1704C58.1704 10.2181 58.0848 10.5351 57.9084 10.8419L58.1685 10.9914ZM58.4704 9.88663H58.7704V8.58265H58.4704H58.1704V9.88663H58.4704ZM58.4704 8.58265L58.2399 8.3906C58.2471 8.38202 58.2397 8.39429 58.1913 8.41846C58.1461 8.44109 58.0796 8.4669 57.9873 8.49406L58.0719 8.78187L58.1566 9.06968C58.2695 9.03647 58.3721 8.9989 58.4597 8.95512C58.5441 8.91288 58.6333 8.85573 58.7008 8.77471L58.4704 8.58265ZM58.0719 8.78187L57.9911 8.49298C57.8027 8.54573 57.5802 8.5939 57.3223 8.63688L57.3717 8.93279L57.421 9.22871C57.6944 9.18314 57.9388 9.1307 58.1528 9.07076L58.0719 8.78187ZM57.3717 8.93279L57.326 8.63628C57.0667 8.67618 56.8136 8.71206 56.5666 8.74393L56.605 9.04146L56.6434 9.33899C56.8954 9.30647 57.1534 9.2699 57.4173 9.22931L57.3717 8.93279ZM56.605 9.04146L56.5708 8.74342C56.3245 8.77168 56.1234 8.79604 55.9682 8.81647L56.0073 9.1139L56.0464 9.41134C56.1971 9.39152 56.3945 9.36758 56.6392 9.3395L56.605 9.04146ZM56.0073 9.1139L55.9685 8.81642C55.5807 8.86701 55.2153 8.94958 54.873 9.0651L54.969 9.34934L55.0649 9.63359C55.3666 9.53177 55.6934 9.45739 56.0461 9.41138L56.0073 9.1139ZM54.969 9.34934L54.8752 9.06438C54.5163 9.1825 54.2127 9.36654 53.976 9.6226L54.1962 9.82626L54.4165 10.0299C54.5742 9.85937 54.7857 9.72547 55.0627 9.63431L54.969 9.34934ZM54.1962 9.82626L53.9758 9.62278C53.7187 9.90134 53.6065 10.2671 53.6065 10.6835H53.9065H54.2065C54.2065 10.3754 54.2874 10.1697 54.4167 10.0297L54.1962 9.82626ZM53.9065 10.6835H53.6065C53.6065 11.2642 53.8279 11.7365 54.2851 12.053L54.4558 11.8064L54.6266 11.5597C54.3513 11.3691 54.2065 11.0929 54.2065 10.6835H53.9065ZM54.4558 11.8064L54.2882 12.0552C54.7198 12.3461 55.2514 12.4807 55.8624 12.4807V12.1807V11.8807C55.3386 11.8807 54.9323 11.7657 54.6235 11.5576L54.4558 11.8064ZM64.0168 12.8206L63.8526 13.0717V13.0717L64.0168 12.8206ZM62.58 6.16184L62.3099 6.03129L62.3096 6.03193L62.58 6.16184ZM64.041 4.46546L64.2047 4.71681L64.2051 4.71656L64.041 4.46546ZM69.2871 5.22612L69.5249 5.04331V5.04331L69.2871 5.22612ZM69.9089 6.74743V7.04743H70.2534L70.206 6.70615L69.9089 6.74743ZM68.4841 6.74743L68.1936 6.82214L68.2515 7.04743H68.4841V6.74743ZM67.7597 5.62456L67.5601 5.84852L67.5627 5.85078L67.7597 5.62456ZM64.8016 5.56419L64.9719 5.81119L64.9724 5.81084L64.8016 5.56419ZM63.8297 6.77761L63.5557 6.65538L63.5553 6.65636L63.8297 6.77761ZM63.8236 10.4782L63.5474 10.5954L63.5482 10.5972L63.8236 10.4782ZM64.7895 11.7158L64.6161 11.9606L64.6172 11.9614L64.7895 11.7158ZM67.2707 11.9633L67.153 11.6874V11.6874L67.2707 11.9633ZM68.0374 11.4079L68.2641 11.6044V11.6044L68.0374 11.4079ZM68.4841 10.5386V10.2386H68.2526L68.1939 10.4626L68.4841 10.5386ZM69.9089 10.5386L70.2057 10.5823L70.2562 10.2386H69.9089V10.5386ZM69.3112 12.0177L69.0683 11.8416L69.068 11.842L69.3112 12.0177ZM68.0616 13.056L68.194 13.3252L68.1949 13.3248L68.0616 13.056ZM65.5864 13.1949V12.8949H65.3415L65.2925 13.1349L65.5864 13.1949ZM66.7697 13.1949L67.0638 13.2537L67.1356 12.8949H66.7697V13.1949ZM66.6731 13.6778L66.3789 13.619L66.3174 13.9266L66.6274 13.9743L66.6731 13.6778ZM67.5363 14.0702L67.7281 13.8395L67.7259 13.8377L67.5363 14.0702ZM67.2828 16.3703L67.1017 16.1311L67.0992 16.133L67.2828 16.3703ZM65.3932 16.8653L65.0936 16.8807L65.1082 17.1653H65.3932V16.8653ZM65.3449 15.9236V15.6236H65.0292L65.0453 15.9389L65.3449 15.9236ZM66.2746 15.7425L66.1475 15.4707L66.1422 15.4732L66.2746 15.7425ZM66.341 14.5834L66.209 14.8527V14.8527L66.341 14.5834ZM65.3449 14.3781L65.051 14.3181L64.9832 14.6505L65.3213 14.6772L65.3449 14.3781ZM66.2626 13.4363V13.1363C65.4421 13.1363 64.7526 12.9433 64.181 12.5695L64.0168 12.8206L63.8526 13.0717C64.5367 13.5189 65.3444 13.7363 66.2626 13.7363V13.4363ZM64.0168 12.8206L64.181 12.5695C63.6026 12.1913 63.1555 11.67 62.8395 10.9968L62.5679 11.1242L62.2964 11.2516C62.6566 12.0192 63.1753 12.6288 63.8526 13.0717L64.0168 12.8206ZM62.5679 11.1242L62.8395 10.9968C62.523 10.3222 62.3608 9.54386 62.3608 8.6551H62.0608H61.7608C61.7608 9.61766 61.9368 10.4854 62.2964 11.2516L62.5679 11.1242ZM62.0608 8.6551H62.3608C62.3608 7.75035 62.527 6.96502 62.8504 6.29176L62.58 6.16184L62.3096 6.03193C61.9408 6.79948 61.7608 7.67632 61.7608 8.6551H62.0608ZM62.58 6.16184L62.8501 6.29239C63.1785 5.61305 63.6304 5.09107 64.2047 4.71681L64.041 4.46546L63.8772 4.21412C63.2039 4.65283 62.6819 5.26178 62.3099 6.03129L62.58 6.16184ZM64.041 4.46546L64.2051 4.71656C64.7786 4.34158 65.4526 4.1497 66.2384 4.1497V3.8497V3.5497C65.35 3.5497 64.559 3.76832 63.8768 4.21437L64.041 4.46546ZM66.2384 3.8497V4.1497C66.8527 4.1497 67.3966 4.26327 67.8755 4.4843L68.0012 4.21191L68.1269 3.93953C67.5594 3.6776 66.9281 3.5497 66.2384 3.5497V3.8497ZM68.0012 4.21191L67.8755 4.4843C68.3569 4.70651 68.7462 5.01474 69.0492 5.40893L69.2871 5.22612L69.5249 5.04331C69.1598 4.56817 68.6919 4.20027 68.1269 3.93953L68.0012 4.21191ZM69.2871 5.22612L69.0492 5.40892C69.3494 5.79956 69.5379 6.25708 69.6117 6.7887L69.9089 6.74743L70.206 6.70615C70.1189 6.07868 69.8928 5.52199 69.5249 5.04331L69.2871 5.22612ZM69.9089 6.74743V6.44743H68.4841V6.74743V7.04743H69.9089V6.74743ZM68.4841 6.74743L68.7747 6.67271C68.6489 6.18348 68.3703 5.75853 67.9567 5.39833L67.7597 5.62456L67.5627 5.85078C67.8977 6.14257 68.1021 6.46621 68.1936 6.82214L68.4841 6.74743ZM67.7597 5.62456L67.9593 5.4006C67.5207 5.00963 66.9438 4.82953 66.2626 4.82953V5.12953V5.42953C66.837 5.42953 67.2582 5.57944 67.5601 5.84851L67.7597 5.62456ZM66.2626 5.12953V4.82953C65.652 4.82953 65.1042 4.98985 64.6309 5.31753L64.8016 5.56419L64.9724 5.81084C65.3362 5.55898 65.7624 5.42953 66.2626 5.42953V5.12953ZM64.8016 5.56419L64.6313 5.31718C64.1654 5.63834 63.8084 6.08895 63.5557 6.65538L63.8297 6.77761L64.1036 6.89984C64.3178 6.41987 64.6087 6.06153 64.9719 5.81119L64.8016 5.56419ZM63.8297 6.77761L63.5553 6.65636C63.3055 7.22156 63.1856 7.87426 63.1856 8.6068H63.4856H63.7856C63.7856 7.93877 63.895 7.37201 64.1041 6.89886L63.8297 6.77761ZM63.4856 8.6068H63.1856C63.1856 9.35402 63.3031 10.0193 63.5475 10.5954L63.8236 10.4782L64.0998 10.3611C63.8934 9.87468 63.7856 9.29234 63.7856 8.6068H63.4856ZM63.8236 10.4782L63.5482 10.5972C63.7963 11.1718 64.1507 11.6307 64.6161 11.9606L64.7895 11.7158L64.963 11.4711C64.5993 11.2133 64.3097 10.8472 64.0991 10.3593L63.8236 10.4782ZM64.7895 11.7158L64.6172 11.9614C65.0914 12.2942 65.644 12.4565 66.2626 12.4565V12.1565V11.8565C65.7542 11.8565 65.3248 11.725 64.9619 11.4703L64.7895 11.7158ZM66.2626 12.1565V12.4565C66.6681 12.4565 67.0449 12.3859 67.3885 12.2393L67.2707 11.9633L67.153 11.6874C66.8928 11.7984 66.5975 11.8565 66.2626 11.8565V12.1565ZM67.2707 11.9633L67.3885 12.2393C67.731 12.0931 68.0242 11.8813 68.2641 11.6044L68.0374 11.4079L67.8107 11.2115C67.6321 11.4176 67.4141 11.576 67.153 11.6874L67.2707 11.9633ZM68.0374 11.4079L68.2641 11.6044C68.5063 11.325 68.6753 10.993 68.7744 10.6146L68.4841 10.5386L68.1939 10.4626C68.1159 10.7604 67.9871 11.0079 67.8107 11.2115L68.0374 11.4079ZM68.4841 10.5386V10.8386H69.9089V10.5386V10.2386H68.4841V10.5386ZM69.9089 10.5386L69.6121 10.495C69.5384 10.9955 69.3572 11.4429 69.0683 11.8416L69.3112 12.0177L69.5541 12.1937C69.901 11.715 70.1183 11.1764 70.2057 10.5823L69.9089 10.5386ZM69.3112 12.0177L69.068 11.842C68.7849 12.234 68.4074 12.5496 67.9282 12.7873L68.0616 13.056L68.1949 13.3248C68.7541 13.0473 69.2097 12.6706 69.5544 12.1933L69.3112 12.0177ZM68.0616 13.056L67.9291 12.7869C67.4623 13.0166 66.9095 13.1363 66.2626 13.1363V13.4363V13.7363C66.984 13.7363 67.6305 13.6025 68.194 13.3252L68.0616 13.056ZM65.5864 13.1949V13.4949H66.7697V13.1949V12.8949H65.5864V13.1949ZM66.7697 13.1949L66.4755 13.136L66.3789 13.619L66.6731 13.6778L66.9672 13.7367L67.0638 13.2537L66.7697 13.1949ZM66.6731 13.6778L66.6274 13.9743C66.8852 14.014 67.1239 14.121 67.3468 14.3027L67.5363 14.0702L67.7259 13.8377C67.4256 13.5928 67.0888 13.4382 66.7187 13.3813L66.6731 13.6778ZM67.5363 14.0702L67.3446 14.301C67.514 14.4417 67.6287 14.6848 67.6287 15.1025H67.9287H68.2287C68.2287 14.5785 68.0818 14.1334 67.7281 13.8395L67.5363 14.0702ZM67.9287 15.1025H67.6287C67.6287 15.5234 67.461 15.8591 67.1017 16.1311L67.2828 16.3703L67.4639 16.6095C67.9659 16.2295 68.2287 15.72 68.2287 15.1025H67.9287ZM67.2828 16.3703L67.0992 16.133C66.7469 16.4055 66.194 16.5653 65.3932 16.5653V16.8653V17.1653C66.2587 17.1653 66.9654 16.9951 67.4664 16.6076L67.2828 16.3703ZM65.3932 16.8653L65.6928 16.85L65.6445 15.9082L65.3449 15.9236L65.0453 15.9389L65.0936 16.8807L65.3932 16.8653ZM65.3449 15.9236V16.2236C65.7491 16.2236 66.108 16.1587 66.407 16.0117L66.2746 15.7425L66.1422 15.4732C65.9502 15.5677 65.6893 15.6236 65.3449 15.6236V15.9236ZM66.2746 15.7425L66.4017 16.0142C66.5689 15.936 66.7107 15.8226 66.8089 15.6674C66.907 15.5124 66.9489 15.3355 66.9489 15.1508H66.6489H66.3489C66.3489 15.2438 66.3285 15.3045 66.3018 15.3466C66.2752 15.3886 66.2299 15.4322 66.1475 15.4707L66.2746 15.7425ZM66.6489 15.1508H66.9489C66.9489 14.9761 66.9167 14.8071 66.8356 14.6576C66.7527 14.5048 66.628 14.3899 66.4731 14.314L66.341 14.5834L66.209 14.8527C66.2594 14.8774 66.2885 14.9074 66.3083 14.9438C66.3298 14.9835 66.3489 15.0478 66.3489 15.1508H66.6489ZM66.341 14.5834L66.4731 14.314C66.2144 14.1872 65.8347 14.1158 65.3685 14.079L65.3449 14.3781L65.3213 14.6772C65.7728 14.7128 66.0572 14.7783 66.209 14.8527L66.341 14.5834ZM65.3449 14.3781L65.6389 14.4381L65.8804 13.2549L65.5864 13.1949L65.2925 13.1349L65.051 14.3181L65.3449 14.3781ZM73.1205 13.1285L72.9928 13.3999L72.9946 13.4008L73.1205 13.1285ZM71.9795 12.1565L71.7292 12.3218L71.7299 12.3229L71.9795 12.1565ZM71.8709 9.31916L72.1242 9.47982L72.1251 9.47843L71.8709 9.31916ZM73.8691 8.11177L73.9333 8.40483L73.9353 8.40437L73.8691 8.11177ZM75.155 7.88237L75.1167 7.58482L75.116 7.5849L75.155 7.88237ZM76.5253 7.71937L76.5562 8.01779L76.5592 8.01745L76.5253 7.71937ZM77.2981 7.52015L77.1513 7.25849L77.1485 7.26008L77.2981 7.52015ZM77.0566 5.60041L76.8419 5.80991L76.8432 5.81124L77.0566 5.60041ZM73.9898 5.55211L74.173 5.78972V5.78972L73.9898 5.55211ZM73.1748 6.50595L73.0739 6.78847L73.3317 6.88052L73.4469 6.63228L73.1748 6.50595ZM71.8226 6.02299L71.5468 5.90482L71.4211 6.19817L71.7217 6.30552L71.8226 6.02299ZM72.7885 4.70694L72.973 4.94349L72.9733 4.94324L72.7885 4.70694ZM74.1166 4.04288L74.1922 4.3332L74.1939 4.33275L74.1166 4.04288ZM76.5676 3.95836L76.5123 4.25324L76.5158 4.25386L76.5676 3.95836ZM77.6965 4.38698L77.5422 4.64424L77.5434 4.64498L77.6965 4.38698ZM78.6081 5.37101L78.3453 5.51567V5.51567L78.6081 5.37101ZM78.9703 13.2432V13.5432H79.2703V13.2432H78.9703ZM77.5456 13.2432H77.2456V13.5432H77.5456V13.2432ZM77.5456 11.9875H77.8456V11.6875H77.5456V11.9875ZM77.4731 11.9875V11.6875H77.2844L77.2027 11.8577L77.4731 11.9875ZM76.9902 12.6334L77.2042 12.8437V12.8437L76.9902 12.6334ZM76.0907 13.219L75.9721 12.9434V12.9434L76.0907 13.219ZM76.3623 11.8486L76.2144 11.5877L76.2132 11.5883L76.3623 11.8486ZM77.2437 10.9914L76.9836 10.8419L76.9823 10.8442L77.2437 10.9914ZM77.5456 8.58265H77.8456V7.75403L77.3151 8.3906L77.5456 8.58265ZM77.1471 8.78187L77.228 9.07079L77.2318 9.06968L77.1471 8.78187ZM76.4469 8.93279L76.4925 9.22933L76.4962 9.22871L76.4469 8.93279ZM75.6802 9.04146L75.7144 9.33953L75.7186 9.33899L75.6802 9.04146ZM75.0825 9.1139L75.1213 9.41138L75.1216 9.41134L75.0825 9.1139ZM74.0442 9.34934L74.1379 9.63431L74.1401 9.63359L74.0442 9.34934ZM73.2714 9.82626L73.0511 9.6226L73.051 9.62278L73.2714 9.82626ZM73.531 11.8064L73.3602 12.0531L73.3634 12.0552L73.531 11.8064ZM73.7785 2.85964L73.7655 3.15936L74.0785 3.17297V2.85964H73.7785ZM72.6677 2.81135H72.3677V3.09859L72.6547 3.11106L72.6677 2.81135ZM73.1929 1.30211L72.9697 1.10167L72.9696 1.1018L73.1929 1.30211ZM75.1127 0.831231L74.9885 1.10439L74.9938 1.10665L75.1127 0.831231ZM75.6198 1.09686L75.7788 0.842457V0.842457L75.6198 1.09686ZM76.1148 1.36852L75.9858 1.63949L75.9936 1.64292L76.1148 1.36852ZM77.28 1.2176L77.0557 1.01829L77.0555 1.0186L77.28 1.2176ZM77.5214 0.565606L77.548 0.266785L77.2214 0.237757V0.565606H77.5214ZM78.6081 0.662198H78.9081V0.387682L78.6346 0.363377L78.6081 0.662198ZM78.0768 2.15936L77.86 1.95199L77.8589 1.95323L78.0768 2.15936ZM76.0846 2.60005L75.9628 2.87424L75.9679 2.87643L76.0846 2.60005ZM75.6017 2.32839L75.7761 2.08427V2.08427L75.6017 2.32839ZM75.155 2.06277L75.018 2.32977L75.0236 2.33246L75.155 2.06277ZM74.0019 2.21369L73.7727 2.02013L73.7723 2.02061L74.0019 2.21369ZM74.7203 13.4605V13.1605C74.1712 13.1605 73.6816 13.0573 73.2464 12.8561L73.1205 13.1285L72.9946 13.4008C73.5173 13.6423 74.0942 13.7605 74.7203 13.7605V13.4605ZM73.1205 13.1285L73.2482 12.857C72.8166 12.6539 72.4792 12.3653 72.2291 11.9901L71.9795 12.1565L71.7299 12.3229C72.0433 12.7929 72.4666 13.1523 72.9928 13.3999L73.1205 13.1285ZM71.9795 12.1565L72.2299 11.9912C71.986 11.622 71.8569 11.1668 71.8569 10.6111H71.5569H71.2569C71.2569 11.2627 71.4096 11.8379 71.7292 12.3218L71.9795 12.1565ZM71.5569 10.6111H71.8569C71.8569 10.1169 71.9545 9.74743 72.1242 9.47982L71.8709 9.31916L71.6175 9.15849C71.3687 9.55092 71.2569 10.0427 71.2569 10.6111H71.5569ZM71.8709 9.31916L72.1251 9.47843C72.3066 9.18878 72.5476 8.96306 72.8526 8.7983L72.71 8.53436L72.5674 8.27041C72.1721 8.48397 71.8537 8.78144 71.6166 9.15988L71.8709 9.31916ZM72.71 8.53436L72.8526 8.7983C73.176 8.62356 73.5357 8.49191 73.9333 8.40482L73.8691 8.11177L73.8049 7.81872C73.3573 7.91676 72.9442 8.06684 72.5674 8.27041L72.71 8.53436ZM73.8691 8.11177L73.9353 8.40437C74.353 8.3098 74.7725 8.23497 75.1939 8.17983L75.155 7.88237L75.116 7.5849C74.6762 7.64246 74.2384 7.72056 73.8028 7.81918L73.8691 8.11177ZM75.155 7.88237L75.1932 8.17992C75.7555 8.10763 76.2095 8.05364 76.5562 8.01778L76.5253 7.71937L76.4945 7.42096C76.1408 7.45755 75.6813 7.51222 75.1167 7.58482L75.155 7.88237ZM76.5253 7.71937L76.5592 8.01745C76.9235 7.97605 77.2316 7.90441 77.4476 7.78022L77.2981 7.52015L77.1485 7.26008C77.0425 7.32103 76.8355 7.3822 76.4915 7.42129L76.5253 7.71937ZM77.2981 7.52015L77.4448 7.7818C77.7261 7.62402 77.8456 7.34783 77.8456 7.0372H77.5456H77.2456C77.2456 7.18538 77.2001 7.23115 77.1513 7.25851L77.2981 7.52015ZM77.5456 7.0372H77.8456V6.9889H77.5456H77.2456V7.0372H77.5456ZM77.5456 6.9889H77.8456C77.8456 6.33775 77.666 5.79047 77.27 5.38958L77.0566 5.60041L76.8432 5.81124C77.0992 6.07039 77.2456 6.44876 77.2456 6.9889H77.5456ZM77.0566 5.60041L77.2713 5.39091C76.8726 4.98222 76.2919 4.80538 75.5896 4.80538V5.10538V5.40538C76.1994 5.40538 76.5966 5.55856 76.8419 5.80991L77.0566 5.60041ZM75.5896 5.10538V4.80538C74.8688 4.80538 74.2627 4.96297 73.8067 5.31451L73.9898 5.55211L74.173 5.78972C74.4897 5.54561 74.9501 5.40538 75.5896 5.40538V5.10538ZM73.9898 5.55211L73.8067 5.31451C73.3935 5.63298 73.0853 5.98647 72.9027 6.37961L73.1748 6.50595L73.4469 6.63228C73.5783 6.34929 73.8134 6.06689 74.173 5.78972L73.9898 5.55211ZM73.1748 6.50595L73.2757 6.22342L71.9235 5.74047L71.8226 6.02299L71.7217 6.30552L73.0739 6.78847L73.1748 6.50595ZM71.8226 6.02299L72.0983 6.14117C72.3238 5.61492 72.6177 5.22059 72.973 4.94349L72.7885 4.70694L72.604 4.47039C72.1543 4.82113 71.8042 5.30417 71.5468 5.90482L71.8226 6.02299ZM72.7885 4.70694L72.9733 4.94324C73.3489 4.64948 73.7547 4.44717 74.1922 4.33319L74.1166 4.04288L74.041 3.75257C73.5206 3.88812 73.041 4.12852 72.6036 4.47064L72.7885 4.70694ZM74.1166 4.04288L74.1939 4.33275C74.6534 4.21021 75.1023 4.1497 75.5413 4.1497V3.8497V3.5497C75.0466 3.5497 74.5457 3.61797 74.0393 3.75301L74.1166 4.04288ZM75.5413 3.8497V4.1497C75.8158 4.1497 76.1388 4.18319 76.5123 4.25322L76.5676 3.95836L76.6229 3.6635C76.2237 3.58865 75.8625 3.5497 75.5413 3.5497V3.8497ZM76.5676 3.95836L76.5158 4.25386C76.8676 4.31552 77.2094 4.44458 77.5422 4.64423L77.6965 4.38698L77.8508 4.12974C77.4592 3.89473 77.0483 3.73804 76.6194 3.66287L76.5676 3.95836ZM77.6965 4.38698L77.5434 4.64498C77.8561 4.83053 78.125 5.11556 78.3453 5.51567L78.6081 5.37101L78.8709 5.22634C78.6082 4.74909 78.2694 4.3781 77.8496 4.12899L77.6965 4.38698ZM78.6081 5.37101L78.3453 5.51567C78.5535 5.89403 78.6703 6.42574 78.6703 7.13379H78.9703H79.2703C79.2703 6.36882 79.1456 5.72535 78.8709 5.22634L78.6081 5.37101ZM78.9703 7.13379H78.6703V13.2432H78.9703H79.2703V7.13379H78.9703ZM78.9703 13.2432V12.9432H77.5456V13.2432V13.5432H78.9703V13.2432ZM77.5456 13.2432H77.8456V11.9875H77.5456H77.2456V13.2432H77.5456ZM77.5456 11.9875V11.6875H77.4731V11.9875V12.2875H77.5456V11.9875ZM77.4731 11.9875L77.2027 11.8577C77.1251 12.0192 76.9877 12.2079 76.7762 12.4232L76.9902 12.6334L77.2042 12.8437C77.4434 12.6002 77.6279 12.3582 77.7436 12.1173L77.4731 11.9875ZM76.9902 12.6334L76.7762 12.4232C76.5843 12.6185 76.3198 12.7939 75.9721 12.9434L76.0907 13.219L76.2092 13.4946C76.6101 13.3222 76.9453 13.1072 77.2042 12.8437L76.9902 12.6334ZM76.0907 13.219L75.9721 12.9434C75.6453 13.084 75.2314 13.1605 74.7203 13.1605V13.4605V13.7605C75.2878 13.7605 75.7875 13.676 76.2092 13.4946L76.0907 13.219ZM74.9376 12.1807V12.4807C75.5397 12.4807 76.0692 12.3623 76.5115 12.1089L76.3623 11.8486L76.2132 11.5883C75.8828 11.7776 75.4624 11.8807 74.9376 11.8807V12.1807ZM76.3623 11.8486L76.5103 12.1096C76.9425 11.8646 77.2781 11.5417 77.5051 11.1386L77.2437 10.9914L76.9823 10.8442C76.8149 11.1414 76.563 11.39 76.2144 11.5877L76.3623 11.8486ZM77.2437 10.9914L77.5038 11.1409C77.73 10.7474 77.8456 10.3279 77.8456 9.88663H77.5456H77.2456C77.2456 10.2181 77.16 10.5351 76.9836 10.8419L77.2437 10.9914ZM77.5456 9.88663H77.8456V8.58265H77.5456H77.2456V9.88663H77.5456ZM77.5456 8.58265L77.3151 8.3906C77.3223 8.38202 77.3149 8.39429 77.2665 8.41846C77.2213 8.44109 77.1548 8.4669 77.0625 8.49406L77.1471 8.78187L77.2318 9.06968C77.3447 9.03647 77.4473 8.9989 77.5349 8.95512C77.6193 8.91288 77.7085 8.85573 77.776 8.77471L77.5456 8.58265ZM77.1471 8.78187L77.0663 8.49298C76.8779 8.54573 76.6554 8.5939 76.3975 8.63688L76.4469 8.93279L76.4962 9.22871C76.7696 9.18314 77.0139 9.1307 77.228 9.07076L77.1471 8.78187ZM76.4469 8.93279L76.4012 8.63628C76.1419 8.67618 75.8888 8.71206 75.6418 8.74393L75.6802 9.04146L75.7186 9.33899C75.9706 9.30647 76.2286 9.2699 76.4925 9.22931L76.4469 8.93279ZM75.6802 9.04146L75.646 8.74342C75.3997 8.77168 75.1986 8.79604 75.0434 8.81647L75.0825 9.1139L75.1216 9.41134C75.2723 9.39152 75.4697 9.36758 75.7144 9.3395L75.6802 9.04146ZM75.0825 9.1139L75.0437 8.81642C74.6559 8.86701 74.2905 8.94958 73.9482 9.0651L74.0442 9.34934L74.1401 9.63359C74.4418 9.53177 74.7686 9.45739 75.1213 9.41138L75.0825 9.1139ZM74.0442 9.34934L73.9504 9.06438C73.5915 9.1825 73.2879 9.36654 73.0511 9.6226L73.2714 9.82626L73.4917 10.0299C73.6494 9.85937 73.8609 9.72547 74.1379 9.63431L74.0442 9.34934ZM73.2714 9.82626L73.051 9.62278C72.7939 9.90134 72.6817 10.2671 72.6817 10.6835H72.9817H73.2817C73.2817 10.3754 73.3626 10.1697 73.4919 10.0297L73.2714 9.82626ZM72.9817 10.6835H72.6817C72.6817 11.2642 72.9031 11.7365 73.3603 12.053L73.531 11.8064L73.7018 11.5597C73.4265 11.3691 73.2817 11.0929 73.2817 10.6835H72.9817ZM73.531 11.8064L73.3634 12.0552C73.795 12.3461 74.3266 12.4807 74.9376 12.4807V12.1807V11.8807C74.4137 11.8807 74.0075 11.7657 73.6987 11.5576L73.531 11.8064ZM73.7785 2.85964L73.7916 2.55992L72.6808 2.51163L72.6677 2.81135L72.6547 3.11106L73.7655 3.15936L73.7785 2.85964ZM72.6677 2.81135H72.9677C72.9677 2.25586 73.1239 1.82839 73.4163 1.50242L73.1929 1.30211L72.9696 1.1018C72.5617 1.55662 72.3677 2.1353 72.3677 2.81135H72.6677ZM73.1929 1.30211L73.4162 1.50255C73.7148 1.16998 74.071 1.01049 74.503 1.01049V0.710493V0.410493C73.8966 0.410493 73.3794 0.645415 72.9697 1.10168L73.1929 1.30211ZM74.503 0.710493V1.01049C74.6971 1.01049 74.8568 1.04447 74.9886 1.10434L75.1127 0.831231L75.2368 0.558122C75.0144 0.457014 74.7676 0.410493 74.503 0.410493V0.710493ZM75.1127 0.831231L74.9938 1.10665C75.1572 1.17723 75.3128 1.25877 75.4608 1.35126L75.6198 1.09686L75.7788 0.842457C75.6048 0.733709 75.4223 0.638172 75.2316 0.555813L75.1127 0.831231ZM75.6198 1.09686L75.4608 1.35126C75.6313 1.45784 75.8064 1.55391 75.9858 1.63938L76.1148 1.36852L76.2438 1.09766C76.0852 1.02215 75.9302 0.937104 75.7788 0.842457L75.6198 1.09686ZM76.1148 1.36852L75.9936 1.64292C76.2101 1.7386 76.4475 1.78322 76.7004 1.78322V1.48322V1.18322C76.5187 1.18322 76.3657 1.15137 76.2361 1.09411L76.1148 1.36852ZM76.7004 1.48322V1.78322C77.0187 1.78322 77.2926 1.6556 77.5045 1.41659L77.28 1.2176L77.0555 1.0186C76.9534 1.13376 76.8409 1.18322 76.7004 1.18322V1.48322ZM77.28 1.2176L77.5042 1.4169C77.7164 1.17816 77.8214 0.888904 77.8214 0.565606H77.5214H77.2214C77.2214 0.749413 77.1655 0.894818 77.0557 1.01829L77.28 1.2176ZM77.5214 0.565606L77.4949 0.864429L78.5815 0.96102L78.6081 0.662198L78.6346 0.363377L77.548 0.266785L77.5214 0.565606ZM78.6081 0.662198H78.3081C78.3081 1.23116 78.1493 1.64956 77.86 1.95199L78.0768 2.15936L78.2936 2.36672C78.7127 1.92862 78.9081 1.34891 78.9081 0.662198H78.6081ZM78.0768 2.15936L77.8589 1.95323C77.5666 2.26231 77.2113 2.41475 76.7729 2.41475V2.71476V3.01476C77.3727 3.01476 77.8868 2.79693 78.2948 2.36548L78.0768 2.15936ZM76.7729 2.71476V2.41475C76.5199 2.41475 76.3336 2.37953 76.2013 2.32368L76.0846 2.60005L75.9679 2.87643C76.1979 2.97351 76.4704 3.01476 76.7729 3.01476V2.71476ZM76.0846 2.60005L76.2065 2.32591C76.0413 2.25247 75.8983 2.17159 75.7761 2.08427L75.6017 2.32839L75.4273 2.57251C75.5868 2.68643 75.7658 2.78665 75.9628 2.8742L76.0846 2.60005ZM75.6017 2.32839L75.7761 2.08427C75.6215 1.97386 75.4582 1.87679 75.2863 1.79307L75.155 2.06277L75.0236 2.33246C75.1656 2.40168 75.3002 2.48169 75.4273 2.57251L75.6017 2.32839ZM75.155 2.06277L75.2918 1.79582C75.0817 1.68807 74.8386 1.64203 74.5754 1.64203V1.94203V2.24203C74.771 2.24203 74.9142 2.27648 75.0181 2.32971L75.155 2.06277ZM74.5754 1.94203V1.64203C74.2543 1.64203 73.9804 1.77411 73.7727 2.02013L74.0019 2.21369L74.2311 2.40724C74.3292 2.29105 74.4377 2.24203 74.5754 2.24203V1.94203ZM74.0019 2.21369L73.7723 2.02061C73.5734 2.25707 73.4785 2.54271 73.4785 2.85964H73.7785H74.0785C74.0785 2.66947 74.1325 2.52448 74.2315 2.40677L74.0019 2.21369ZM83.1343 12.8387L82.9735 13.092L82.9743 13.0925L83.1343 12.8387ZM81.6613 11.1665L81.3917 11.2982L81.3923 11.2994L81.6613 11.1665ZM81.6613 6.12562L81.392 5.99326L81.3914 5.99448L81.6613 6.12562ZM83.1343 4.44735L82.9743 4.19359L82.9735 4.19406L83.1343 4.44735ZM87.5352 4.44735L87.3744 4.70065L87.3752 4.70112L87.5352 4.44735ZM89.0082 6.12562L88.7384 6.25676L88.739 6.25798L89.0082 6.12562ZM89.0082 11.1665L88.7393 11.0335L88.7387 11.0347L89.0082 11.1665ZM87.5352 12.8387L87.3752 12.5849L87.3744 12.5854L87.5352 12.8387ZM86.9073 11.6675L86.7208 11.4326V11.4326L86.9073 11.6675ZM87.8189 10.3817L88.1002 10.4861V10.4861L87.8189 10.3817ZM87.8189 6.9225L88.1004 6.81878V6.81878L87.8189 6.9225ZM86.9073 5.62456L87.0953 5.39074V5.39074L86.9073 5.62456ZM83.7681 5.62456L83.5802 5.39074V5.39074L83.7681 5.62456ZM82.8566 6.9225L82.5751 6.81878V6.81878L82.8566 6.9225ZM82.8566 10.3817L82.5753 10.4861V10.4861L82.8566 10.3817ZM83.7681 11.6675L83.9547 11.4326V11.4326L83.7681 11.6675ZM85.3377 13.4363V13.1363C84.5502 13.1363 83.8726 12.9496 83.2943 12.5849L83.1343 12.8387L82.9743 13.0925C83.6596 13.5246 84.451 13.7363 85.3377 13.7363V13.4363ZM83.1343 12.8387L83.295 12.5854C82.717 12.2186 82.2619 11.7044 81.9302 11.0335L81.6613 11.1665L81.3923 11.2994C81.769 12.0612 82.2958 12.6619 82.9735 13.092L83.1343 12.8387ZM81.6613 11.1665L81.9308 11.0347C81.6043 10.3668 81.436 9.57638 81.436 8.6551H81.136H80.836C80.836 9.64954 81.0179 10.5333 81.3917 11.2982L81.6613 11.1665ZM81.136 8.6551H81.436C81.436 7.7254 81.6045 6.92875 81.9311 6.25676L81.6613 6.12562L81.3914 5.99448C81.0178 6.76331 80.836 7.65298 80.836 8.6551H81.136ZM81.6613 6.12562L81.9305 6.25798C82.2623 5.583 82.7175 5.06717 83.295 4.70065L83.1343 4.44735L82.9735 4.19406C82.2954 4.62441 81.7685 5.22742 81.392 5.99327L81.6613 6.12562ZM83.1343 4.44735L83.2943 4.70112C83.8726 4.33643 84.5502 4.1497 85.3377 4.1497V3.8497V3.5497C84.451 3.5497 83.6596 3.7614 82.9743 4.19359L83.1343 4.44735ZM85.3377 3.8497V4.1497C86.1253 4.1497 86.8005 4.33644 87.3744 4.70065L87.5352 4.44735L87.6959 4.19406C87.0142 3.76139 86.2244 3.5497 85.3377 3.5497V3.8497ZM87.5352 4.44735L87.3752 4.70112C87.9563 5.06755 88.4109 5.58288 88.7384 6.25676L89.0082 6.12562L89.278 5.99448C88.9053 5.22755 88.3778 4.62404 87.6952 4.19359L87.5352 4.44735ZM89.0082 6.12562L88.739 6.25798C89.0692 6.92966 89.2394 7.72587 89.2394 8.6551H89.5395H89.8394C89.8394 7.65251 89.6555 6.76239 89.2774 5.99327L89.0082 6.12562ZM89.5395 8.6551H89.2394C89.2394 9.5759 89.0693 10.3659 88.7393 11.0335L89.0082 11.1665L89.2771 11.2994C89.6554 10.5343 89.8394 9.65001 89.8394 8.6551H89.5395ZM89.0082 11.1665L88.7387 11.0347C88.4113 11.7046 87.9567 12.2182 87.3752 12.5849L87.5352 12.8387L87.6952 13.0925C88.3774 12.6623 88.9048 12.0611 89.2777 11.2982L89.0082 11.1665ZM87.5352 12.8387L87.3744 12.5854C86.8005 12.9496 86.1253 13.1363 85.3377 13.1363V13.4363V13.7363C86.2244 13.7363 87.0142 13.5247 87.6959 13.092L87.5352 12.8387ZM85.3377 12.1565V12.4565C86.0265 12.4565 86.6198 12.279 87.0939 11.9025L86.9073 11.6675L86.7208 11.4326C86.3739 11.708 85.9208 11.8565 85.3377 11.8565V12.1565ZM86.9073 11.6675L87.0939 11.9025C87.5508 11.5397 87.8855 11.0643 88.1002 10.4861L87.8189 10.3817L87.5377 10.2773C87.3579 10.7615 87.0849 11.1434 86.7208 11.4326L86.9073 11.6675ZM87.8189 10.3817L88.1002 10.4861C88.3109 9.9184 88.4147 9.30718 88.4147 8.6551H88.1147H87.8147C87.8147 9.24259 87.7214 9.78241 87.5377 10.2773L87.8189 10.3817ZM88.1147 8.6551H88.4147C88.4147 8.00298 88.3109 7.39003 88.1004 6.81878L87.8189 6.9225L87.5374 7.02621C87.7214 7.52551 87.8147 8.06763 87.8147 8.6551H88.1147ZM87.8189 6.9225L88.1004 6.81878C87.886 6.23685 87.5517 5.75766 87.0953 5.39074L86.9073 5.62456L86.7194 5.85837C87.084 6.15149 87.3574 6.53759 87.5374 7.02621L87.8189 6.9225ZM86.9073 5.62456L87.0953 5.39074C86.6211 5.00952 86.0273 4.82953 85.3377 4.82953V5.12953V5.42953C85.9199 5.42953 86.3726 5.57955 86.7194 5.85837L86.9073 5.62456ZM85.3377 5.12953V4.82953C84.6482 4.82953 84.0544 5.00952 83.5802 5.39074L83.7681 5.62456L83.9561 5.85837C84.3029 5.57955 84.7556 5.42953 85.3377 5.42953V5.12953ZM83.7681 5.62456L83.5802 5.39074C83.1238 5.75766 82.7895 6.23685 82.5751 6.81878L82.8566 6.9225L83.1381 7.02621C83.3181 6.53759 83.5915 6.15149 83.9561 5.85837L83.7681 5.62456ZM82.8566 6.9225L82.5751 6.81878C82.3646 7.39003 82.2608 8.00298 82.2608 8.6551H82.5608H82.8608C82.8608 8.06763 82.9541 7.52551 83.1381 7.02621L82.8566 6.9225ZM82.5608 8.6551H82.2608C82.2608 9.30718 82.3646 9.9184 82.5753 10.4861L82.8566 10.3817L83.1378 10.2773C82.9541 9.78241 82.8608 9.24259 82.8608 8.6551H82.5608ZM82.8566 10.3817L82.5753 10.4861C82.79 11.0643 83.1247 11.5397 83.5816 11.9025L83.7681 11.6675L83.9547 11.4326C83.5905 11.1434 83.3176 10.7615 83.1378 10.2773L82.8566 10.3817ZM83.7681 11.6675L83.5816 11.9025C84.0557 12.279 84.649 12.4565 85.3377 12.4565V12.1565V11.8565C84.7547 11.8565 84.3016 11.708 83.9547 11.4326L83.7681 11.6675ZM91.9859 13.0198L92.1981 12.8077V12.8077L91.9859 13.0198ZM93.5193 11.4864L93.7314 11.2743V11.2743L93.5193 11.4864ZM93.6883 12.7964L93.4322 12.6402L93.4294 12.6449L93.6883 12.7964ZM93.2959 13.1949L93.4503 13.4521L93.4521 13.451L93.2959 13.1949ZM91.9859 6.1377L91.7738 6.34983V6.34983L91.9859 6.1377ZM91.9859 4.60431L91.7738 4.39218V4.39218L91.9859 4.60431ZM93.5193 4.60431L93.7314 4.39218V4.39218L93.5193 4.60431ZM93.6883 5.91433L93.4322 5.75812L93.4294 5.76278L93.6883 5.91433ZM93.2959 6.31277L93.4503 6.57002L93.4521 6.5689L93.2959 6.31277ZM92.7526 13.3398V13.0398C92.5355 13.0398 92.3559 12.9655 92.1981 12.8077L91.9859 13.0198L91.7738 13.2319C92.0425 13.5007 92.3741 13.6398 92.7526 13.6398V13.3398ZM91.9859 13.0198L92.1981 12.8077C92.0402 12.6498 91.966 12.4702 91.966 12.2531H91.666H91.366C91.366 12.6316 91.505 12.9632 91.7738 13.2319L91.9859 13.0198ZM91.666 12.2531H91.966C91.966 12.036 92.0402 11.8564 92.1981 11.6985L91.9859 11.4864L91.7738 11.2743C91.505 11.543 91.366 11.8746 91.366 12.2531H91.666ZM91.9859 11.4864L92.1981 11.6985C92.3559 11.5407 92.5355 11.4665 92.7526 11.4665V11.1665V10.8665C92.3741 10.8665 92.0425 11.0055 91.7738 11.2743L91.9859 11.4864ZM92.7526 11.1665V11.4665C92.9697 11.4665 93.1493 11.5407 93.3072 11.6985L93.5193 11.4864L93.7314 11.2743C93.4627 11.0055 93.1311 10.8665 92.7526 10.8665V11.1665ZM93.5193 11.4864L93.3072 11.6985C93.465 11.8564 93.5393 12.036 93.5393 12.2531H93.8393H94.1393C94.1393 11.8746 94.0002 11.543 93.7314 11.2743L93.5193 11.4864ZM93.8393 12.2531H93.5393C93.5393 12.3964 93.5035 12.5233 93.4322 12.6402L93.6883 12.7964L93.9445 12.9526C94.0744 12.7396 94.1393 12.5042 94.1393 12.2531H93.8393ZM93.6883 12.7964L93.4294 12.6449C93.3582 12.7666 93.2629 12.8637 93.1397 12.9387L93.2959 13.1949L93.4521 13.451C93.659 13.3249 93.8253 13.1563 93.9472 12.948L93.6883 12.7964ZM93.2959 13.1949L93.1416 12.9376C93.0306 13.0042 92.9035 13.0398 92.7526 13.0398V13.3398V13.6398C93.0042 13.6398 93.2393 13.5787 93.4503 13.4521L93.2959 13.1949ZM92.7526 6.45765V6.15765C92.5355 6.15765 92.3559 6.08342 92.1981 5.92556L91.9859 6.1377L91.7738 6.34983C92.0425 6.61858 92.3741 6.75765 92.7526 6.75765V6.45765ZM91.9859 6.1377L92.1981 5.92556C92.0402 5.7677 91.966 5.58812 91.966 5.37101H91.666H91.366C91.366 5.74954 91.505 6.08108 91.7738 6.34983L91.9859 6.1377ZM91.666 5.37101H91.966C91.966 5.15389 92.0402 4.97431 92.1981 4.81645L91.9859 4.60431L91.7738 4.39218C91.505 4.66093 91.366 4.99247 91.366 5.37101H91.666ZM91.9859 4.60431L92.1981 4.81645C92.3559 4.65859 92.5355 4.58436 92.7526 4.58436V4.28436V3.98436C92.3741 3.98436 92.0425 4.12343 91.7738 4.39218L91.9859 4.60431ZM92.7526 4.28436V4.58436C92.9697 4.58436 93.1493 4.65859 93.3072 4.81645L93.5193 4.60431L93.7314 4.39218C93.4627 4.12343 93.1311 3.98436 92.7526 3.98436V4.28436ZM93.5193 4.60431L93.3072 4.81645C93.465 4.97431 93.5393 5.15389 93.5393 5.37101H93.8393H94.1393C94.1393 4.99247 94.0002 4.66093 93.7314 4.39218L93.5193 4.60431ZM93.8393 5.37101H93.5393C93.5393 5.51429 93.5035 5.64118 93.4322 5.75815L93.6883 5.91433L93.9445 6.07051C94.0744 5.85746 94.1393 5.62213 94.1393 5.37101H93.8393ZM93.6883 5.91433L93.4294 5.76278C93.3582 5.88448 93.2629 5.98155 93.1397 6.05663L93.2959 6.31277L93.4521 6.5689C93.659 6.44275 93.8253 6.27419 93.9472 6.06588L93.6883 5.91433ZM93.2959 6.31277L93.1416 6.05552C93.0306 6.12212 92.9035 6.15765 92.7526 6.15765V6.45765V6.75765C93.0042 6.75765 93.2393 6.6966 93.4503 6.57001L93.2959 6.31277Z" fill="#E3E4EB" mask="url(#path-1-outside-1_41_602)"/>
</svg>
