<svg width="65" height="14" viewBox="0 0 65 14" fill="none" xmlns="http://www.w3.org/2000/svg">
<path d="M-5.126e-06 11.4545V1.27273H3.44034C4.23579 1.27273 4.88873 1.40862 5.39914 1.6804C5.90956 1.94886 6.2874 2.31842 6.53267 2.78906C6.77793 3.25971 6.90056 3.79498 6.90056 4.39488C6.90056 4.99479 6.77793 5.52675 6.53267 5.99077C6.2874 6.45478 5.91122 6.81936 5.40411 7.08452C4.89701 7.34635 4.24905 7.47727 3.46022 7.47727H0.676131V6.36363H3.42045C3.96401 6.36363 4.40151 6.28409 4.73295 6.125C5.0677 5.96591 5.30965 5.74053 5.4588 5.44886C5.61126 5.15388 5.68749 4.80256 5.68749 4.39488C5.68749 3.98721 5.61126 3.63092 5.4588 3.32599C5.30634 3.02107 5.06273 2.78575 4.72798 2.62003C4.39322 2.45099 3.95075 2.36648 3.40056 2.36648H1.23295V11.4545H-5.126e-06ZM4.79261 6.88068L7.29829 11.4545H5.86647L3.40056 6.88068H4.79261ZM11.7789 12.7273V-2.14577e-06H12.5943V12.7273H11.7789ZM14.5233 3.81818C14.4636 3.31439 14.2216 2.92329 13.7974 2.64488C13.3732 2.36648 12.8528 2.22727 12.2363 2.22727C11.7856 2.22727 11.3912 2.30019 11.0531 2.44602C10.7183 2.59185 10.4565 2.79238 10.2676 3.04758C10.082 3.30279 9.98916 3.5928 9.98916 3.91761C9.98916 4.18939 10.0538 4.42306 10.1831 4.61861C10.3156 4.81084 10.4847 4.97159 10.6902 5.10085C10.8957 5.2268 11.1111 5.3312 11.3365 5.41406C11.5618 5.49361 11.769 5.55824 11.9579 5.60795L12.992 5.88636C13.2572 5.95596 13.5521 6.05208 13.8769 6.17471C14.2051 6.29735 14.5183 6.46472 14.8166 6.67685C15.1182 6.88565 15.3668 7.15412 15.5623 7.48224C15.7579 7.81037 15.8556 8.21307 15.8556 8.69034C15.8556 9.24053 15.7115 9.73769 15.4231 10.1818C15.1381 10.6259 14.7205 10.9789 14.1703 11.2408C13.6234 11.5026 12.9589 11.6335 12.1767 11.6335C11.4475 11.6335 10.8161 11.5159 10.2825 11.2805C9.75218 11.0452 9.33457 10.7171 9.02965 10.2962C8.72804 9.87524 8.55735 9.38636 8.51757 8.82954H9.7903C9.82344 9.21401 9.95271 9.5322 10.1781 9.78409C10.4068 10.0327 10.6951 10.2183 11.0431 10.3409C11.3945 10.4602 11.7723 10.5199 12.1767 10.5199C12.6473 10.5199 13.0699 10.4437 13.4444 10.2912C13.8189 10.1354 14.1156 9.91998 14.3343 9.64488C14.5531 9.36648 14.6625 9.04167 14.6625 8.67045C14.6625 8.33238 14.568 8.05729 14.3791 7.84517C14.1902 7.63305 13.9416 7.4607 13.6333 7.32812C13.3251 7.19555 12.992 7.07954 12.6341 6.98011L11.3812 6.62216C10.5858 6.39346 9.95602 6.067 9.492 5.64275C9.02799 5.21851 8.79598 4.66335 8.79598 3.97727C8.79598 3.4072 8.9501 2.91004 9.25834 2.48579C9.56989 2.05824 9.98751 1.7268 10.5112 1.49148C11.0382 1.25284 11.6265 1.13352 12.2761 1.13352C12.9323 1.13352 13.5157 1.25118 14.0261 1.4865C14.5365 1.71851 14.9409 2.03669 15.2392 2.44105C15.5408 2.84541 15.6999 3.30445 15.7164 3.81818H14.5233ZM25.2209 1.27273V11.4545H23.9879V2.56534H23.9283L21.4425 4.21591V2.96307L23.9879 1.27273H25.2209ZM31.4702 11.5937C30.7211 11.5937 30.0831 11.3899 29.5561 10.9822C29.0291 10.5713 28.6264 9.97632 28.348 9.19744C28.0696 8.41524 27.9304 7.47064 27.9304 6.36363C27.9304 5.26326 28.0696 4.32363 28.348 3.54474C28.6297 2.76255 29.0341 2.16595 29.5611 1.75497C30.0914 1.34067 30.7277 1.13352 31.4702 1.13352C32.2126 1.13352 32.8473 1.34067 33.3743 1.75497C33.9046 2.16595 34.3089 2.76255 34.5874 3.54474C34.8691 4.32363 35.0099 5.26326 35.0099 6.36363C35.0099 7.47064 34.8707 8.41524 34.5923 9.19744C34.3139 9.97632 33.9112 10.5713 33.3842 10.9822C32.8572 11.3899 32.2192 11.5937 31.4702 11.5937ZM31.4702 10.5C32.2126 10.5 32.7893 10.142 33.2003 9.42613C33.6113 8.71023 33.8168 7.68939 33.8168 6.36363C33.8168 5.48201 33.7223 4.7313 33.5334 4.1115C33.3478 3.49171 33.0793 3.01941 32.728 2.6946C32.38 2.36979 31.9607 2.20738 31.4702 2.20738C30.7344 2.20738 30.1593 2.57031 29.745 3.29616C29.3307 4.0187 29.1236 5.04119 29.1236 6.36363C29.1236 7.24526 29.2164 7.99432 29.402 8.61079C29.5876 9.22727 29.8544 9.69626 30.2024 10.0178C30.5537 10.3393 30.9763 10.5 31.4702 10.5ZM40.1406 1.13352C40.5582 1.13684 40.9758 1.21638 41.3935 1.37216C41.8111 1.52793 42.1922 1.78646 42.5369 2.14773C42.8816 2.50568 43.1584 2.99455 43.3672 3.61434C43.576 4.23414 43.6804 5.01136 43.6804 5.94602C43.6804 6.85085 43.5942 7.65459 43.4219 8.35724C43.2528 9.05658 43.0076 9.64654 42.6861 10.1271C42.3679 10.6077 41.9801 10.9723 41.5227 11.2209C41.0687 11.4695 40.5549 11.5937 39.9815 11.5937C39.4115 11.5937 38.9027 11.4811 38.4553 11.2557C38.0111 11.027 37.6465 10.7105 37.3615 10.3061C37.0798 9.89844 36.8991 9.42613 36.8196 8.8892H38.0327C38.142 9.35653 38.3591 9.74266 38.6839 10.0476C39.0121 10.3492 39.4446 10.5 39.9815 10.5C40.767 10.5 41.3868 10.157 41.8409 9.47088C42.2983 8.7848 42.527 7.81534 42.527 6.5625H42.4474C42.2618 6.84091 42.0414 7.0812 41.7862 7.28338C41.531 7.48556 41.2476 7.64133 40.9361 7.75071C40.6245 7.86008 40.2931 7.91477 39.9418 7.91477C39.3584 7.91477 38.8231 7.7706 38.3359 7.48224C37.852 7.19058 37.4642 6.79119 37.1726 6.28409C36.8842 5.77367 36.7401 5.19034 36.7401 4.53409C36.7401 3.91098 36.8793 3.34091 37.1577 2.82386C37.4394 2.3035 37.8338 1.8892 38.3409 1.58096C38.8513 1.27273 39.4512 1.12358 40.1406 1.13352ZM40.1406 2.22727C39.723 2.22727 39.3468 2.33167 39.0121 2.54048C38.6806 2.74597 38.4171 3.02438 38.2216 3.37571C38.0294 3.72372 37.9332 4.10985 37.9332 4.53409C37.9332 4.95833 38.026 5.34446 38.2116 5.69247C38.4006 6.03717 38.6574 6.31226 38.9822 6.51775C39.3104 6.71993 39.6832 6.82102 40.1008 6.82102C40.4157 6.82102 40.709 6.75971 40.9808 6.63707C41.2526 6.51113 41.4896 6.34043 41.6918 6.125C41.8972 5.90625 42.058 5.65933 42.174 5.38423C42.29 5.10582 42.348 4.81581 42.348 4.5142C42.348 4.11648 42.2519 3.74361 42.0597 3.39559C41.8707 3.04758 41.6089 2.76586 41.2741 2.55042C40.9427 2.33499 40.5649 2.22727 40.1406 2.22727ZM47.0499 10.0625L46.9703 10.5994C46.914 10.9773 46.8278 11.3816 46.7118 11.8125C46.5991 12.2434 46.4815 12.6494 46.3588 13.0305C46.2362 13.4117 46.1351 13.715 46.0556 13.9403H45.1607C45.2038 13.7282 45.2601 13.4482 45.3297 13.1001C45.3993 12.7521 45.4689 12.3627 45.5385 11.9318C45.6114 11.5043 45.6711 11.0668 45.7175 10.6193L45.7772 10.0625H47.0499ZM52.3496 1.13352C52.7672 1.13684 53.1848 1.21638 53.6024 1.37216C54.0201 1.52793 54.4012 1.78646 54.7459 2.14773C55.0906 2.50568 55.3674 2.99455 55.5762 3.61434C55.785 4.23414 55.8894 5.01136 55.8894 5.94602C55.8894 6.85085 55.8032 7.65459 55.6309 8.35724C55.4618 9.05658 55.2166 9.64654 54.8951 10.1271C54.5769 10.6077 54.1891 10.9723 53.7317 11.2209C53.2776 11.4695 52.7639 11.5937 52.1905 11.5937C51.6204 11.5937 51.1117 11.4811 50.6642 11.2557C50.2201 11.027 49.8555 10.7105 49.5705 10.3061C49.2888 9.89844 49.1081 9.42613 49.0286 8.8892H50.2416C50.351 9.35653 50.5681 9.74266 50.8929 10.0476C51.2211 10.3492 51.6536 10.5 52.1905 10.5C52.976 10.5 53.5958 10.157 54.0499 9.47088C54.5073 8.7848 54.736 7.81534 54.736 6.5625H54.6564C54.4708 6.84091 54.2504 7.0812 53.9952 7.28338C53.74 7.48556 53.4566 7.64133 53.1451 7.75071C52.8335 7.86008 52.5021 7.91477 52.1507 7.91477C51.5674 7.91477 51.0321 7.7706 50.5449 7.48224C50.061 7.19058 49.6732 6.79119 49.3816 6.28409C49.0932 5.77367 48.949 5.19034 48.949 4.53409C48.949 3.91098 49.0882 3.34091 49.3666 2.82386C49.6484 2.3035 50.0428 1.8892 50.5499 1.58096C51.0603 1.27273 51.6602 1.12358 52.3496 1.13352ZM52.3496 2.22727C51.932 2.22727 51.5558 2.33167 51.2211 2.54048C50.8896 2.74597 50.6261 3.02438 50.4306 3.37571C50.2383 3.72372 50.1422 4.10985 50.1422 4.53409C50.1422 4.95833 50.235 5.34446 50.4206 5.69247C50.6095 6.03717 50.8664 6.31226 51.1912 6.51775C51.5193 6.71993 51.8922 6.82102 52.3098 6.82102C52.6247 6.82102 52.918 6.75971 53.1898 6.63707C53.4616 6.51113 53.6986 6.34043 53.9007 6.125C54.1062 5.90625 54.267 5.65933 54.383 5.38423C54.499 5.10582 54.557 4.81581 54.557 4.5142C54.557 4.11648 54.4609 3.74361 54.2686 3.39559C54.0797 3.04758 53.8179 2.76586 53.4831 2.55042C53.1517 2.33499 52.7738 2.22727 52.3496 2.22727ZM61.1655 11.5937C60.4164 11.5937 59.7784 11.3899 59.2514 10.9822C58.7244 10.5713 58.3217 9.97632 58.0433 9.19744C57.7649 8.41524 57.6257 7.47064 57.6257 6.36363C57.6257 5.26326 57.7649 4.32363 58.0433 3.54474C58.325 2.76255 58.7294 2.16595 59.2564 1.75497C59.7867 1.34067 60.4231 1.13352 61.1655 1.13352C61.9079 1.13352 62.5426 1.34067 63.0696 1.75497C63.5999 2.16595 64.0043 2.76255 64.2827 3.54474C64.5644 4.32363 64.7053 5.26326 64.7053 6.36363C64.7053 7.47064 64.566 8.41524 64.2876 9.19744C64.0092 9.97632 63.6065 10.5713 63.0795 10.9822C62.5526 11.3899 61.9145 11.5937 61.1655 11.5937ZM61.1655 10.5C61.9079 10.5 62.4846 10.142 62.8956 9.42613C63.3066 8.71023 63.5121 7.68939 63.5121 6.36363C63.5121 5.48201 63.4176 4.7313 63.2287 4.1115C63.0431 3.49171 62.7746 3.01941 62.4233 2.6946C62.0753 2.36979 61.656 2.20738 61.1655 2.20738C60.4297 2.20738 59.8546 2.57031 59.4403 3.29616C59.026 4.0187 58.8189 5.04119 58.8189 6.36363C58.8189 7.24526 58.9117 7.99432 59.0973 8.61079C59.2829 9.22727 59.5497 9.69626 59.8977 10.0178C60.249 10.3393 60.6716 10.5 61.1655 10.5Z" fill="#1C2434"/>
</svg>
