<svg width="113" height="13" viewBox="0 0 113 13" fill="none" xmlns="http://www.w3.org/2000/svg">
<path d="M1.56957 -7.15256e-07L5.24002 10.4077H5.38491L9.05536 -7.15256e-07H10.625L6.08519 12.3636H4.53974L-3.32631e-05 -7.15256e-07H1.56957ZM14.223 12.581C13.6354 12.581 13.1021 12.4703 12.6232 12.2489C12.1443 12.0236 11.7639 11.6996 11.4822 11.277C11.2005 10.8504 11.0596 10.3352 11.0596 9.73153C11.0596 9.20028 11.1643 8.76965 11.3735 8.43963C11.5828 8.10559 11.8625 7.84399 12.2127 7.65483C12.5628 7.46567 12.9492 7.32481 13.3718 7.23224C13.7984 7.13565 14.227 7.05919 14.6576 7.00284C15.2211 6.9304 15.6779 6.87606 16.028 6.83984C16.3822 6.7996 16.6398 6.73319 16.8007 6.64062C16.9658 6.54806 17.0483 6.38707 17.0483 6.15767V6.10937C17.0483 5.51373 16.8853 5.0509 16.5593 4.72088C16.2373 4.39086 15.7483 4.22585 15.0923 4.22585C14.4121 4.22585 13.8789 4.37476 13.4925 4.67258C13.1061 4.97041 12.8345 5.28835 12.6775 5.62642L11.3253 5.14347C11.5667 4.58002 11.8887 4.14133 12.2912 3.82741C12.6976 3.50947 13.1404 3.28811 13.6193 3.16335C14.1022 3.03456 14.5771 2.97017 15.044 2.97017C15.3418 2.97017 15.6839 3.00639 16.0703 3.07883C16.4607 3.14725 16.837 3.29013 17.1992 3.50746C17.5654 3.72479 17.8693 4.05279 18.1108 4.49148C18.3522 4.93016 18.473 5.51776 18.473 6.25426V12.3636H17.0483V11.108H16.9758C16.8792 11.3092 16.7182 11.5245 16.4929 11.7539C16.2675 11.9833 15.9677 12.1785 15.5934 12.3395C15.2191 12.5005 14.7623 12.581 14.223 12.581ZM14.4403 11.3011C15.0038 11.3011 15.4787 11.1905 15.865 10.9691C16.2554 10.7478 16.5492 10.462 16.7464 10.1119C16.9476 9.76172 17.0483 9.39347 17.0483 9.0071V7.70312C16.9879 7.77557 16.8551 7.84197 16.6498 7.90234C16.4486 7.95869 16.2152 8.009 15.9495 8.05327C15.6879 8.09351 15.4324 8.12973 15.1829 8.16193C14.9373 8.1901 14.7381 8.21425 14.5852 8.23437C14.2149 8.28267 13.8688 8.36115 13.5468 8.46981C13.2289 8.57446 12.9713 8.73343 12.7741 8.94673C12.5809 9.15601 12.4843 9.44176 12.4843 9.80398C12.4843 10.299 12.6675 10.6733 13.0337 10.9268C13.404 11.1764 13.8728 11.3011 14.4403 11.3011ZM21.0734 12.3636V3.09091H22.4498V4.49148H22.5464C22.7154 4.03267 23.0213 3.66039 23.464 3.37464C23.9067 3.0889 24.4058 2.94602 24.9612 2.94602C25.0658 2.94602 25.1966 2.94803 25.3536 2.95206C25.5105 2.95608 25.6293 2.96212 25.7098 2.97017V4.41903C25.6615 4.40696 25.5508 4.38885 25.3777 4.3647C25.2087 4.33653 25.0296 4.32244 24.8404 4.32244C24.3897 4.32244 23.9872 4.41702 23.633 4.60618C23.2829 4.79131 23.0052 5.04889 22.7999 5.37891C22.5987 5.7049 22.4981 6.07718 22.4981 6.49574V12.3636H21.0734ZM30.1273 12.581C29.5397 12.581 29.0064 12.4703 28.5275 12.2489C28.0486 12.0236 27.6682 11.6996 27.3865 11.277C27.1048 10.8504 26.9639 10.3352 26.9639 9.73153C26.9639 9.20028 27.0686 8.76965 27.2778 8.43963C27.4871 8.10559 27.7668 7.84399 28.117 7.65483C28.4671 7.46567 28.8535 7.32481 29.2761 7.23224C29.7027 7.13565 30.1313 7.05919 30.5619 7.00284C31.1254 6.9304 31.5822 6.87606 31.9323 6.83984C32.2865 6.7996 32.5441 6.73319 32.705 6.64062C32.8701 6.54806 32.9526 6.38707 32.9526 6.15767V6.10937C32.9526 5.51373 32.7896 5.0509 32.4636 4.72088C32.1416 4.39086 31.6526 4.22585 30.9966 4.22585C30.3164 4.22585 29.7832 4.37476 29.3968 4.67258C29.0104 4.97041 28.7388 5.28835 28.5818 5.62642L27.2295 5.14347C27.471 4.58002 27.793 4.14133 28.1955 3.82741C28.6019 3.50947 29.0447 3.28811 29.5236 3.16335C30.0065 3.03456 30.4814 2.97017 30.9483 2.97017C31.2461 2.97017 31.5882 3.00639 31.9746 3.07883C32.365 3.14725 32.7413 3.29013 33.1035 3.50746C33.4697 3.72479 33.7736 4.05279 34.0151 4.49148C34.2565 4.93016 34.3773 5.51776 34.3773 6.25426V12.3636H32.9526V11.108H32.8801C32.7835 11.3092 32.6225 11.5245 32.3972 11.7539C32.1718 11.9833 31.8719 12.1785 31.4977 12.3395C31.1234 12.5005 30.6666 12.581 30.1273 12.581ZM30.3446 11.3011C30.9081 11.3011 31.383 11.1905 31.7693 10.9691C32.1597 10.7478 32.4535 10.462 32.6507 10.1119C32.8519 9.76172 32.9526 9.39347 32.9526 9.0071V7.70312C32.8922 7.77557 32.7594 7.84197 32.5541 7.90234C32.3529 7.95869 32.1195 8.009 31.8538 8.05327C31.5922 8.09351 31.3367 8.12973 31.0871 8.16193C30.8416 8.1901 30.6424 8.21425 30.4895 8.23437C30.1192 8.28267 29.7731 8.36115 29.4511 8.46981C29.1332 8.57446 28.8756 8.73343 28.6784 8.94673C28.4852 9.15601 28.3886 9.44176 28.3886 9.80398C28.3886 10.299 28.5718 10.6733 28.938 10.9268C29.3083 11.1764 29.7771 11.3011 30.3446 11.3011ZM45.2604 12.5568C44.4876 12.5568 43.8055 12.3616 43.2138 11.9712C42.6222 11.5768 42.1594 11.0214 41.8253 10.305C41.4913 9.58464 41.3243 8.73343 41.3243 7.75142C41.3243 6.77746 41.4913 5.93229 41.8253 5.21591C42.1594 4.49953 42.6242 3.94614 43.2199 3.55575C43.8155 3.16536 44.5037 2.97017 45.2845 2.97017C45.8882 2.97017 46.3651 3.07079 46.7153 3.27202C47.0694 3.46922 47.3391 3.6946 47.5242 3.94815C47.7134 4.19768 47.8603 4.40293 47.9649 4.56392H48.0856V-7.15256e-07H49.5104V12.3636H48.1339V10.9389H47.9649C47.8603 11.108 47.7113 11.3213 47.5182 11.5788C47.325 11.8324 47.0493 12.0598 46.6911 12.261C46.3329 12.4582 45.856 12.5568 45.2604 12.5568ZM45.4535 11.277C46.025 11.277 46.508 11.1281 46.9024 10.8303C47.2968 10.5284 47.5966 10.1119 47.8019 9.58061C48.0072 9.04534 48.1098 8.42756 48.1098 7.72727C48.1098 7.03504 48.0092 6.42933 47.8079 5.91016C47.6067 5.38696 47.3089 4.98047 46.9145 4.6907C46.5201 4.3969 46.0331 4.25 45.4535 4.25C44.8498 4.25 44.3468 4.40495 43.9443 4.71484C43.5459 5.02071 43.246 5.43726 43.0448 5.96449C42.8476 6.48769 42.749 7.07528 42.749 7.72727C42.749 8.38731 42.8496 8.98698 43.0508 9.52628C43.2561 10.0616 43.5579 10.4882 43.9564 10.8061C44.3588 11.12 44.8579 11.277 45.4535 11.277ZM56.2053 12.5568C55.3118 12.5568 54.5411 12.3596 53.8932 11.9652C53.2492 11.5668 52.7522 11.0114 52.402 10.299C52.0559 9.58262 51.8829 8.74953 51.8829 7.79972C51.8829 6.8499 52.0559 6.01278 52.402 5.28835C52.7522 4.5599 53.2392 3.99242 53.863 3.58594C54.4908 3.17543 55.2233 2.97017 56.0604 2.97017C56.5434 2.97017 57.0203 3.05066 57.4912 3.21165C57.9621 3.37263 58.3907 3.63423 58.777 3.99645C59.1634 4.35464 59.4713 4.82954 59.7007 5.42116C59.9301 6.01278 60.0448 6.74124 60.0448 7.60653V8.21023H52.8971V6.97869H58.5959C58.5959 6.45549 58.4913 5.98864 58.282 5.57812C58.0768 5.16761 57.783 4.84363 57.4006 4.60618C57.0223 4.36873 56.5756 4.25 56.0604 4.25C55.493 4.25 55.0019 4.39086 54.5874 4.67258C54.1769 4.95028 53.861 5.3125 53.6396 5.75923C53.4183 6.20597 53.3076 6.6849 53.3076 7.19602V8.01705C53.3076 8.71733 53.4283 9.31096 53.6698 9.79794C53.9153 10.2809 54.2554 10.6491 54.69 10.9027C55.1247 11.1522 55.6298 11.277 56.2053 11.277C56.5796 11.277 56.9177 11.2247 57.2195 11.12C57.5254 11.0114 57.789 10.8504 58.0104 10.6371C58.2317 10.4197 58.4028 10.1501 58.5235 9.82812L59.8999 10.2145C59.755 10.6813 59.5115 11.0919 59.1694 11.446C58.8274 11.7962 58.4048 12.0698 57.9017 12.267C57.3986 12.4602 56.8332 12.5568 56.2053 12.5568ZM67.1865 12.3636V-7.15256e-07H71.364C72.334 -7.15256e-07 73.1268 0.17507 73.7426 0.525212C74.3624 0.87133 74.8212 1.3402 75.119 1.93182C75.4168 2.52344 75.5658 3.18347 75.5658 3.91193C75.5658 4.64039 75.4168 5.30244 75.119 5.89808C74.8252 6.49373 74.3704 6.96863 73.7547 7.3228C73.1389 7.67294 72.3501 7.84801 71.3882 7.84801H68.3939V6.51989H71.3399C72.004 6.51989 72.5372 6.40518 72.9397 6.17578C73.3421 5.94638 73.6339 5.63648 73.815 5.24609C74.0002 4.85168 74.0927 4.40696 74.0927 3.91193C74.0927 3.4169 74.0002 2.97419 73.815 2.58381C73.6339 2.19342 73.3401 1.88755 72.9336 1.66619C72.5272 1.44081 71.9879 1.32812 71.3158 1.32812H68.6836V12.3636H67.1865ZM81.5725 12.5568C80.679 12.5568 79.9083 12.3596 79.2604 11.9652C78.6164 11.5668 78.1194 11.0114 77.7692 10.299C77.4231 9.58262 77.2501 8.74953 77.2501 7.79972C77.2501 6.8499 77.4231 6.01278 77.7692 5.28835C78.1194 4.5599 78.6064 3.99242 79.2302 3.58594C79.858 3.17543 80.5905 2.97017 81.4276 2.97017C81.9106 2.97017 82.3875 3.05066 82.8584 3.21165C83.3292 3.37263 83.7579 3.63423 84.1442 3.99645C84.5306 4.35464 84.8385 4.82954 85.0679 5.42116C85.2973 6.01278 85.412 6.74124 85.412 7.60653V8.21023H78.2643V6.97869H83.9631C83.9631 6.45549 83.8585 5.98864 83.6492 5.57812C83.4439 5.16761 83.1502 4.84363 82.7678 4.60618C82.3895 4.36873 81.9428 4.25 81.4276 4.25C80.8601 4.25 80.3691 4.39086 79.9546 4.67258C79.5441 4.95028 79.2282 5.3125 79.0068 5.75923C78.7854 6.20597 78.6748 6.6849 78.6748 7.19602V8.01705C78.6748 8.71733 78.7955 9.31096 79.037 9.79794C79.2825 10.2809 79.6226 10.6491 80.0572 10.9027C80.4919 11.1522 80.997 11.277 81.5725 11.277C81.9468 11.277 82.2849 11.2247 82.5867 11.12C82.8926 11.0114 83.1562 10.8504 83.3775 10.6371C83.5989 10.4197 83.7699 10.1501 83.8907 9.82812L85.2671 10.2145C85.1222 10.6813 84.8787 11.0919 84.5366 11.446C84.1945 11.7962 83.772 12.0698 83.2689 12.267C82.7658 12.4602 82.2003 12.5568 81.5725 12.5568ZM94.1474 5.16761L92.8676 5.52983C92.7871 5.31652 92.6684 5.10926 92.5114 4.90803C92.3585 4.70277 92.1492 4.53374 91.8836 4.40092C91.618 4.26811 91.2779 4.2017 90.8633 4.2017C90.2959 4.2017 89.823 4.3325 89.4447 4.5941C89.0704 4.85168 88.8832 5.17969 88.8832 5.57812C88.8832 5.93229 89.012 6.212 89.2696 6.41726C89.5272 6.62251 89.9296 6.79356 90.477 6.9304L91.8534 7.26847C92.6825 7.4697 93.3002 7.77758 93.7067 8.19212C94.1132 8.60263 94.3165 9.13187 94.3165 9.77983C94.3165 10.3111 94.1635 10.786 93.8577 11.2045C93.5558 11.6231 93.1332 11.9531 92.5899 12.1946C92.0466 12.4361 91.4147 12.5568 90.6943 12.5568C89.7485 12.5568 88.9657 12.3516 88.3459 11.9411C87.7261 11.5305 87.3337 10.9309 87.1687 10.142L88.521 9.80398C88.6498 10.303 88.8933 10.6773 89.2515 10.9268C89.6137 11.1764 90.0866 11.3011 90.6702 11.3011C91.3342 11.3011 91.8614 11.1603 92.2518 10.8786C92.6462 10.5928 92.8435 10.2507 92.8435 9.85227C92.8435 9.5303 92.7308 9.26065 92.5054 9.04332C92.28 8.82197 91.9339 8.65696 91.467 8.54829L89.9216 8.18608C89.0724 7.98485 88.4486 7.67294 88.0501 7.25035C87.6557 6.82374 87.4585 6.29048 87.4585 5.65057C87.4585 5.12737 87.6054 4.66454 87.8992 4.26207C88.197 3.85961 88.6015 3.54368 89.1126 3.31427C89.6278 3.08487 90.2113 2.97017 90.8633 2.97017C91.781 2.97017 92.5014 3.1714 93.0246 3.57386C93.5518 3.97633 93.9261 4.50758 94.1474 5.16761ZM100.228 12.5568C99.3588 12.5568 98.6102 12.3516 97.9824 11.9411C97.3545 11.5305 96.8716 10.9651 96.5335 10.2447C96.1955 9.52427 96.0264 8.70123 96.0264 7.77557C96.0264 6.83381 96.1995 6.00272 96.5456 5.28231C96.8957 4.55788 97.3827 3.99242 98.0065 3.58594C98.6344 3.17543 99.3669 2.97017 100.204 2.97017C100.856 2.97017 101.444 3.09091 101.967 3.33239C102.49 3.57386 102.919 3.91193 103.253 4.34659C103.587 4.78125 103.794 5.28835 103.874 5.8679H102.45C102.341 5.44531 102.1 5.07102 101.725 4.74503C101.355 4.41501 100.856 4.25 100.228 4.25C99.6727 4.25 99.1858 4.39489 98.7672 4.68466C98.3527 4.97041 98.0287 5.37488 97.7952 5.89808C97.5658 6.41726 97.4511 7.02699 97.4511 7.72727C97.4511 8.44365 97.5638 9.06747 97.7892 9.59872C98.0186 10.13 98.3406 10.5425 98.7551 10.8363C99.1737 11.1301 99.6647 11.277 100.228 11.277C100.598 11.277 100.934 11.2126 101.236 11.0838C101.538 10.955 101.794 10.7699 102.003 10.5284C102.212 10.2869 102.361 9.99716 102.45 9.65909H103.874C103.794 10.2064 103.595 10.6995 103.277 11.1381C102.963 11.5728 102.546 11.9189 102.027 12.1765C101.512 12.43 100.912 12.5568 100.228 12.5568ZM108.686 12.581C108.098 12.581 107.565 12.4703 107.086 12.2489C106.607 12.0236 106.227 11.6996 105.945 11.277C105.663 10.8504 105.523 10.3352 105.523 9.73153C105.523 9.20028 105.627 8.76965 105.836 8.43963C106.046 8.10559 106.325 7.84399 106.676 7.65483C107.026 7.46567 107.412 7.32481 107.835 7.23224C108.261 7.13565 108.69 7.05919 109.121 7.00284C109.684 6.9304 110.141 6.87606 110.491 6.83984C110.845 6.7996 111.103 6.73319 111.264 6.64062C111.429 6.54806 111.511 6.38707 111.511 6.15767V6.10937C111.511 5.51373 111.348 5.0509 111.022 4.72088C110.7 4.39086 110.211 4.22585 109.555 4.22585C108.875 4.22585 108.342 4.37476 107.955 4.67258C107.569 4.97041 107.297 5.28835 107.14 5.62642L105.788 5.14347C106.03 4.58002 106.352 4.14133 106.754 3.82741C107.161 3.50947 107.603 3.28811 108.082 3.16335C108.565 3.03456 109.04 2.97017 109.507 2.97017C109.805 2.97017 110.147 3.00639 110.533 3.07883C110.924 3.14725 111.3 3.29013 111.662 3.50746C112.028 3.72479 112.332 4.05279 112.574 4.49148C112.815 4.93016 112.936 5.51776 112.936 6.25426V12.3636H111.511V11.108H111.439C111.342 11.3092 111.181 11.5245 110.956 11.7539C110.73 11.9833 110.431 12.1785 110.056 12.3395C109.682 12.5005 109.225 12.581 108.686 12.581ZM108.903 11.3011C109.467 11.3011 109.942 11.1905 110.328 10.9691C110.718 10.7478 111.012 10.462 111.209 10.1119C111.411 9.76172 111.511 9.39347 111.511 9.0071V7.70312C111.451 7.77557 111.318 7.84197 111.113 7.90234C110.911 7.95869 110.678 8.009 110.412 8.05327C110.151 8.09351 109.895 8.12973 109.646 8.16193C109.4 8.1901 109.201 8.21425 109.048 8.23437C108.678 8.28267 108.332 8.36115 108.01 8.46981C107.692 8.57446 107.434 8.73343 107.237 8.94673C107.044 9.15601 106.947 9.44176 106.947 9.80398C106.947 10.299 107.13 10.6733 107.497 10.9268C107.867 11.1764 108.336 11.3011 108.903 11.3011Z" fill="#1C2434"/>
</svg>
