<svg width="39" height="8" viewBox="0 0 39 8" fill="none" xmlns="http://www.w3.org/2000/svg">
<mask id="path-1-outside-1_22_544" maskUnits="userSpaceOnUse" x="-0.123657" y="-0.527275" width="39" height="9" fill="black">
<rect fill="white" x="-0.123657" y="-0.527275" width="39" height="9"/>
<path d="M1.20985 0.199997L3.36894 6.32216H3.45416L5.61325 0.199997H6.53655L3.8661 7.47272H2.95701L0.28655 0.199997H1.20985ZM9.33485 7.58636C8.80928 7.58636 8.35592 7.47036 7.97476 7.23835C7.59597 7.00397 7.3036 6.67727 7.09763 6.25824C6.89403 5.83683 6.79223 5.34678 6.79223 4.78807C6.79223 4.22935 6.89403 3.73693 7.09763 3.31079C7.3036 2.88229 7.59005 2.54848 7.957 2.30937C8.32632 2.0679 8.75719 1.94716 9.24962 1.94716C9.53371 1.94716 9.81425 1.99451 10.0912 2.0892C10.3682 2.1839 10.6204 2.33778 10.8476 2.55085C11.0749 2.76155 11.256 3.04091 11.391 3.38892C11.5259 3.73693 11.5934 4.16543 11.5934 4.67443V5.02954H7.38882V4.30511H10.7411C10.7411 3.99735 10.6795 3.72272 10.5564 3.48125C10.4357 3.23977 10.2629 3.04919 10.038 2.90951C9.81543 2.76984 9.55265 2.7 9.24962 2.7C8.91581 2.7 8.62699 2.78286 8.38314 2.94858C8.14166 3.11193 7.95582 3.325 7.82561 3.58778C7.6954 3.85057 7.6303 4.13229 7.6303 4.43295V4.91591C7.6303 5.32784 7.70132 5.67703 7.84337 5.96349C7.98778 6.24758 8.18783 6.4642 8.44351 6.61335C8.69919 6.76013 8.9963 6.83352 9.33485 6.83352C9.55502 6.83352 9.75388 6.80274 9.93144 6.74119C10.1114 6.67727 10.2664 6.58257 10.3966 6.4571C10.5268 6.32926 10.6275 6.17064 10.6985 5.98125L11.5081 6.20852C11.4229 6.48314 11.2797 6.72462 11.0785 6.93295C10.8772 7.13892 10.6286 7.2999 10.3327 7.41591C10.0368 7.52954 9.70416 7.58636 9.33485 7.58636ZM12.8682 7.47272V2.01818H13.6779V2.84204H13.7347C13.8341 2.57216 14.0141 2.35317 14.2745 2.18508C14.5349 2.017 14.8285 1.93295 15.1552 1.93295C15.2167 1.93295 15.2937 1.93414 15.386 1.9365C15.4783 1.93887 15.5482 1.94242 15.5955 1.94716V2.79943C15.5671 2.79233 15.502 2.78167 15.4002 2.76747C15.3008 2.7509 15.1954 2.74261 15.0841 2.74261C14.819 2.74261 14.5822 2.79825 14.3739 2.90951C14.1679 3.01842 14.0046 3.16993 13.8839 3.36406C13.7655 3.55582 13.7063 3.77481 13.7063 4.02102V7.47272H12.8682ZM20.3957 0.199997V7.47272H19.5151V0.199997H20.3957ZM24.4201 2.01818V2.72841H21.5934V2.01818H24.4201ZM22.4172 0.711361H23.2553V5.91022C23.2553 6.14697 23.2896 6.32452 23.3583 6.4429C23.4293 6.5589 23.5193 6.63702 23.6282 6.67727C23.7394 6.71515 23.8566 6.73409 23.9797 6.73409C24.0721 6.73409 24.1478 6.72935 24.207 6.71988C24.2662 6.70805 24.3135 6.69858 24.3491 6.69147L24.5195 7.44432C24.4627 7.46562 24.3834 7.48693 24.2816 7.50824C24.1798 7.53191 24.0508 7.54375 23.8945 7.54375C23.6578 7.54375 23.4258 7.49285 23.1985 7.39105C22.9736 7.28925 22.7866 7.13418 22.6374 6.92585C22.4906 6.71752 22.4172 6.45473 22.4172 6.1375V0.711361ZM27.9091 7.58636C27.3835 7.58636 26.9301 7.47036 26.549 7.23835C26.1702 7.00397 25.8778 6.67727 25.6718 6.25824C25.4683 5.83683 25.3665 5.34678 25.3665 4.78807C25.3665 4.22935 25.4683 3.73693 25.6718 3.31079C25.8778 2.88229 26.1643 2.54848 26.5312 2.30937C26.9005 2.0679 27.3314 1.94716 27.8238 1.94716C28.1079 1.94716 28.3885 1.99451 28.6655 2.0892C28.9424 2.1839 29.1946 2.33778 29.4218 2.55085C29.6491 2.76155 29.8302 3.04091 29.9652 3.38892C30.1001 3.73693 30.1676 4.16543 30.1676 4.67443V5.02954H25.963V4.30511H29.3153C29.3153 3.99735 29.2538 3.72272 29.1307 3.48125C29.0099 3.23977 28.8371 3.04919 28.6122 2.90951C28.3897 2.76984 28.1269 2.7 27.8238 2.7C27.49 2.7 27.2012 2.78286 26.9574 2.94858C26.7159 3.11193 26.53 3.325 26.3998 3.58778C26.2696 3.85057 26.2045 4.13229 26.2045 4.43295V4.91591C26.2045 5.32784 26.2755 5.67703 26.4176 5.96349C26.562 6.24758 26.762 6.4642 27.0177 6.61335C27.2734 6.76013 27.5705 6.83352 27.9091 6.83352C28.1292 6.83352 28.3281 6.80274 28.5057 6.74119C28.6856 6.67727 28.8406 6.58257 28.9709 6.4571C29.1011 6.32926 29.2017 6.17064 29.2727 5.98125L30.0824 6.20852C29.9971 6.48314 29.8539 6.72462 29.6527 6.93295C29.4514 7.13892 29.2029 7.2999 28.9069 7.41591C28.611 7.52954 28.2784 7.58636 27.9091 7.58636ZM31.4424 7.47272V2.01818H32.2521V2.87045H32.3231C32.4368 2.57926 32.6202 2.35317 32.8736 2.19218C33.1269 2.02883 33.4311 1.94716 33.7862 1.94716C34.146 1.94716 34.4455 2.02883 34.6846 2.19218C34.9261 2.35317 35.1143 2.57926 35.2493 2.87045H35.3061C35.4458 2.58873 35.6553 2.36501 35.9346 2.19929C36.214 2.0312 36.549 1.94716 36.9396 1.94716C37.4273 1.94716 37.8262 2.09986 38.1363 2.40525C38.4465 2.70828 38.6015 3.18058 38.6015 3.82216V7.47272H37.7635V3.82216C37.7635 3.41969 37.6534 3.13205 37.4332 2.95923C37.213 2.78641 36.9538 2.7 36.6555 2.7C36.272 2.7 35.9749 2.816 35.7642 3.04801C35.5535 3.27765 35.4481 3.56884 35.4481 3.92159V7.47272H34.5959V3.73693C34.5959 3.4268 34.4952 3.17703 34.294 2.98764C34.0928 2.79588 33.8335 2.7 33.5163 2.7C33.2985 2.7 33.0949 2.758 32.9055 2.874C32.7185 2.99001 32.567 3.15099 32.451 3.35696C32.3373 3.56056 32.2805 3.79612 32.2805 4.06363V7.47272H31.4424Z"/>
</mask>
<path d="M1.20985 0.199997L3.36894 6.32216H3.45416L5.61325 0.199997H6.53655L3.8661 7.47272H2.95701L0.28655 0.199997H1.20985ZM9.33485 7.58636C8.80928 7.58636 8.35592 7.47036 7.97476 7.23835C7.59597 7.00397 7.3036 6.67727 7.09763 6.25824C6.89403 5.83683 6.79223 5.34678 6.79223 4.78807C6.79223 4.22935 6.89403 3.73693 7.09763 3.31079C7.3036 2.88229 7.59005 2.54848 7.957 2.30937C8.32632 2.0679 8.75719 1.94716 9.24962 1.94716C9.53371 1.94716 9.81425 1.99451 10.0912 2.0892C10.3682 2.1839 10.6204 2.33778 10.8476 2.55085C11.0749 2.76155 11.256 3.04091 11.391 3.38892C11.5259 3.73693 11.5934 4.16543 11.5934 4.67443V5.02954H7.38882V4.30511H10.7411C10.7411 3.99735 10.6795 3.72272 10.5564 3.48125C10.4357 3.23977 10.2629 3.04919 10.038 2.90951C9.81543 2.76984 9.55265 2.7 9.24962 2.7C8.91581 2.7 8.62699 2.78286 8.38314 2.94858C8.14166 3.11193 7.95582 3.325 7.82561 3.58778C7.6954 3.85057 7.6303 4.13229 7.6303 4.43295V4.91591C7.6303 5.32784 7.70132 5.67703 7.84337 5.96349C7.98778 6.24758 8.18783 6.4642 8.44351 6.61335C8.69919 6.76013 8.9963 6.83352 9.33485 6.83352C9.55502 6.83352 9.75388 6.80274 9.93144 6.74119C10.1114 6.67727 10.2664 6.58257 10.3966 6.4571C10.5268 6.32926 10.6275 6.17064 10.6985 5.98125L11.5081 6.20852C11.4229 6.48314 11.2797 6.72462 11.0785 6.93295C10.8772 7.13892 10.6286 7.2999 10.3327 7.41591C10.0368 7.52954 9.70416 7.58636 9.33485 7.58636ZM12.8682 7.47272V2.01818H13.6779V2.84204H13.7347C13.8341 2.57216 14.0141 2.35317 14.2745 2.18508C14.5349 2.017 14.8285 1.93295 15.1552 1.93295C15.2167 1.93295 15.2937 1.93414 15.386 1.9365C15.4783 1.93887 15.5482 1.94242 15.5955 1.94716V2.79943C15.5671 2.79233 15.502 2.78167 15.4002 2.76747C15.3008 2.7509 15.1954 2.74261 15.0841 2.74261C14.819 2.74261 14.5822 2.79825 14.3739 2.90951C14.1679 3.01842 14.0046 3.16993 13.8839 3.36406C13.7655 3.55582 13.7063 3.77481 13.7063 4.02102V7.47272H12.8682ZM20.3957 0.199997V7.47272H19.5151V0.199997H20.3957ZM24.4201 2.01818V2.72841H21.5934V2.01818H24.4201ZM22.4172 0.711361H23.2553V5.91022C23.2553 6.14697 23.2896 6.32452 23.3583 6.4429C23.4293 6.5589 23.5193 6.63702 23.6282 6.67727C23.7394 6.71515 23.8566 6.73409 23.9797 6.73409C24.0721 6.73409 24.1478 6.72935 24.207 6.71988C24.2662 6.70805 24.3135 6.69858 24.3491 6.69147L24.5195 7.44432C24.4627 7.46562 24.3834 7.48693 24.2816 7.50824C24.1798 7.53191 24.0508 7.54375 23.8945 7.54375C23.6578 7.54375 23.4258 7.49285 23.1985 7.39105C22.9736 7.28925 22.7866 7.13418 22.6374 6.92585C22.4906 6.71752 22.4172 6.45473 22.4172 6.1375V0.711361ZM27.9091 7.58636C27.3835 7.58636 26.9301 7.47036 26.549 7.23835C26.1702 7.00397 25.8778 6.67727 25.6718 6.25824C25.4683 5.83683 25.3665 5.34678 25.3665 4.78807C25.3665 4.22935 25.4683 3.73693 25.6718 3.31079C25.8778 2.88229 26.1643 2.54848 26.5312 2.30937C26.9005 2.0679 27.3314 1.94716 27.8238 1.94716C28.1079 1.94716 28.3885 1.99451 28.6655 2.0892C28.9424 2.1839 29.1946 2.33778 29.4218 2.55085C29.6491 2.76155 29.8302 3.04091 29.9652 3.38892C30.1001 3.73693 30.1676 4.16543 30.1676 4.67443V5.02954H25.963V4.30511H29.3153C29.3153 3.99735 29.2538 3.72272 29.1307 3.48125C29.0099 3.23977 28.8371 3.04919 28.6122 2.90951C28.3897 2.76984 28.1269 2.7 27.8238 2.7C27.49 2.7 27.2012 2.78286 26.9574 2.94858C26.7159 3.11193 26.53 3.325 26.3998 3.58778C26.2696 3.85057 26.2045 4.13229 26.2045 4.43295V4.91591C26.2045 5.32784 26.2755 5.67703 26.4176 5.96349C26.562 6.24758 26.762 6.4642 27.0177 6.61335C27.2734 6.76013 27.5705 6.83352 27.9091 6.83352C28.1292 6.83352 28.3281 6.80274 28.5057 6.74119C28.6856 6.67727 28.8406 6.58257 28.9709 6.4571C29.1011 6.32926 29.2017 6.17064 29.2727 5.98125L30.0824 6.20852C29.9971 6.48314 29.8539 6.72462 29.6527 6.93295C29.4514 7.13892 29.2029 7.2999 28.9069 7.41591C28.611 7.52954 28.2784 7.58636 27.9091 7.58636ZM31.4424 7.47272V2.01818H32.2521V2.87045H32.3231C32.4368 2.57926 32.6202 2.35317 32.8736 2.19218C33.1269 2.02883 33.4311 1.94716 33.7862 1.94716C34.146 1.94716 34.4455 2.02883 34.6846 2.19218C34.9261 2.35317 35.1143 2.57926 35.2493 2.87045H35.3061C35.4458 2.58873 35.6553 2.36501 35.9346 2.19929C36.214 2.0312 36.549 1.94716 36.9396 1.94716C37.4273 1.94716 37.8262 2.09986 38.1363 2.40525C38.4465 2.70828 38.6015 3.18058 38.6015 3.82216V7.47272H37.7635V3.82216C37.7635 3.41969 37.6534 3.13205 37.4332 2.95923C37.213 2.78641 36.9538 2.7 36.6555 2.7C36.272 2.7 35.9749 2.816 35.7642 3.04801C35.5535 3.27765 35.4481 3.56884 35.4481 3.92159V7.47272H34.5959V3.73693C34.5959 3.4268 34.4952 3.17703 34.294 2.98764C34.0928 2.79588 33.8335 2.7 33.5163 2.7C33.2985 2.7 33.0949 2.758 32.9055 2.874C32.7185 2.99001 32.567 3.15099 32.451 3.35696C32.3373 3.56056 32.2805 3.79612 32.2805 4.06363V7.47272H31.4424Z" fill="#1C2434"/>
<path d="M1.20985 0.199997L1.39846 0.133479L1.35139 -2.38419e-06H1.20985V0.199997ZM3.36894 6.32216L3.18032 6.38867L3.2274 6.52216H3.36894V6.32216ZM3.45416 6.32216V6.52216H3.5957L3.64278 6.38867L3.45416 6.32216ZM5.61325 0.199997V-2.38419e-06H5.47172L5.42464 0.133479L5.61325 0.199997ZM6.53655 0.199997L6.72429 0.268935L6.82304 -2.38419e-06H6.53655V0.199997ZM3.8661 7.47272V7.67272H4.00572L4.05384 7.54166L3.8661 7.47272ZM2.957 7.47272L2.76926 7.54166L2.81739 7.67272H2.957V7.47272ZM0.286551 0.199997V-2.38419e-06H5.62668e-05L0.0988064 0.268935L0.286551 0.199997ZM1.20985 0.199997L1.02123 0.266516L3.18032 6.38867L3.36894 6.32216L3.55755 6.25564L1.39846 0.133479L1.20985 0.199997ZM3.36894 6.32216V6.52216H3.45416V6.32216V6.12216H3.36894V6.32216ZM3.45416 6.32216L3.64278 6.38867L5.80187 0.266516L5.61325 0.199997L5.42464 0.133479L3.26555 6.25564L3.45416 6.32216ZM5.61325 0.199997V0.399997H6.53655V0.199997V-2.38419e-06H5.61325V0.199997ZM6.53655 0.199997L6.34881 0.13106L3.67835 7.40379L3.8661 7.47272L4.05384 7.54166L6.72429 0.268935L6.53655 0.199997ZM3.8661 7.47272V7.27273H2.957V7.47272V7.67272H3.8661V7.47272ZM2.957 7.47272L3.14475 7.40379L0.474294 0.13106L0.286551 0.199997L0.0988064 0.268935L2.76926 7.54166L2.957 7.47272ZM0.286551 0.199997V0.399997H1.20985V0.199997V-2.38419e-06H0.286551V0.199997ZM7.97476 7.23835L7.86952 7.40843L7.87077 7.40919L7.97476 7.23835ZM7.09763 6.25824L6.91754 6.34524L6.91814 6.34646L7.09763 6.25824ZM7.09763 3.31079L6.91737 3.22415L6.91717 3.22457L7.09763 3.31079ZM7.957 2.30937L8.06619 2.47694L8.06645 2.47677L7.957 2.30937ZM10.0912 2.0892L10.1559 1.89996V1.89996L10.0912 2.0892ZM10.8476 2.55085L10.7108 2.69676L10.7117 2.69752L10.8476 2.55085ZM11.391 3.38892L11.5774 3.31661V3.31661L11.391 3.38892ZM11.5934 5.02954V5.22954H11.7934V5.02954H11.5934ZM7.38882 5.02954H7.18882V5.22954H7.38882V5.02954ZM7.38882 4.30511V4.10511H7.18882V4.30511H7.38882ZM10.7411 4.30511V4.50511H10.9411V4.30511H10.7411ZM10.5564 3.48125L10.3775 3.57069L10.3783 3.57208L10.5564 3.48125ZM10.038 2.90951L9.93165 3.07891L9.93245 3.07941L10.038 2.90951ZM8.38314 2.94858L8.4952 3.11423L8.49556 3.11399L8.38314 2.94858ZM7.82561 3.58778L7.64641 3.49899V3.49899L7.82561 3.58778ZM7.84337 5.96349L7.66418 6.05235L7.66508 6.05412L7.84337 5.96349ZM8.44351 6.61335L8.34273 6.78611L8.34394 6.7868L8.44351 6.61335ZM9.93144 6.74119L9.99695 6.93016L9.99839 6.92965L9.93144 6.74119ZM10.3966 6.4571L10.5354 6.60112L10.5368 6.59981L10.3966 6.4571ZM10.6985 5.98125L10.7525 5.78869L10.5757 5.73905L10.5112 5.91102L10.6985 5.98125ZM11.5081 6.20852L11.6992 6.2678L11.7601 6.07151L11.5622 6.01596L11.5081 6.20852ZM11.0785 6.93295L11.2215 7.07272L11.2223 7.0719L11.0785 6.93295ZM10.3327 7.41591L10.4044 7.60262L10.4057 7.60211L10.3327 7.41591ZM9.33485 7.58636V7.38636C8.83936 7.38636 8.42338 7.27728 8.07875 7.06751L7.97476 7.23835L7.87077 7.40919C8.28845 7.66343 8.7792 7.78636 9.33485 7.78636V7.58636ZM7.97476 7.23835L8.07999 7.06827C7.73473 6.85464 7.46735 6.55704 7.27712 6.17001L7.09763 6.25824L6.91814 6.34646C7.13984 6.79751 7.45721 7.15331 7.86953 7.40843L7.97476 7.23835ZM7.09763 6.25824L7.27771 6.17123C7.08952 5.78172 6.99223 5.32242 6.99223 4.78807H6.79223H6.59223C6.59223 5.37113 6.69854 5.89195 6.91755 6.34524L7.09763 6.25824ZM6.79223 4.78807H6.99223C6.99223 4.25378 7.0895 3.79174 7.27809 3.39701L7.09763 3.31079L6.91717 3.22457C6.69856 3.68212 6.59223 4.20493 6.59223 4.78807H6.79223ZM7.09763 3.31079L7.27789 3.39744C7.46941 2.99898 7.73249 2.69438 8.06619 2.47694L7.957 2.30937L7.84782 2.14181C7.44762 2.40258 7.13778 2.7656 6.91737 3.22415L7.09763 3.31079ZM7.957 2.30937L8.06645 2.47677C8.39954 2.25898 8.7914 2.14716 9.24962 2.14716V1.94716V1.74716C8.72298 1.74716 8.25311 1.87681 7.84756 2.14198L7.957 2.30937ZM9.24962 1.94716V2.14716C9.51103 2.14716 9.76974 2.19065 10.0265 2.27845L10.0912 2.0892L10.1559 1.89996C9.85876 1.79836 9.55639 1.74716 9.24962 1.74716V1.94716ZM10.0912 2.0892L10.0265 2.27845C10.275 2.36339 10.5029 2.50181 10.7108 2.69676L10.8476 2.55085L10.9844 2.40494C10.7378 2.17375 10.4615 2.00441 10.1559 1.89996L10.0912 2.0892ZM10.8476 2.55085L10.7117 2.69752C10.9126 2.88379 11.0783 3.1358 11.2045 3.46122L11.391 3.38892L11.5774 3.31661C11.4337 2.94601 11.2372 2.63931 10.9836 2.40418L10.8476 2.55085ZM11.391 3.38892L11.2045 3.46122C11.3279 3.77946 11.3934 4.18176 11.3934 4.67443H11.5934H11.7934C11.7934 4.14911 11.7239 3.6944 11.5774 3.31661L11.391 3.38892ZM11.5934 4.67443H11.3934V5.02954H11.5934H11.7934V4.67443H11.5934ZM11.5934 5.02954V4.82954H7.38882V5.02954V5.22954H11.5934V5.02954ZM7.38882 5.02954H7.58882V4.30511H7.38882H7.18882V5.02954H7.38882ZM7.38882 4.30511V4.50511H10.7411V4.30511V4.10511H7.38882V4.30511ZM10.7411 4.30511H10.9411C10.9411 3.97008 10.8739 3.66362 10.7346 3.39041L10.5564 3.48125L10.3783 3.57208C10.4852 3.78183 10.5411 4.02461 10.5411 4.30511H10.7411ZM10.5564 3.48125L10.7353 3.3918C10.5984 3.11793 10.4005 2.89921 10.1435 2.73961L10.038 2.90951L9.93245 3.07941C10.1253 3.19917 10.273 3.36161 10.3776 3.57069L10.5564 3.48125ZM10.038 2.90951L10.1443 2.74012C9.88525 2.57753 9.58437 2.5 9.24962 2.5V2.7V2.9C9.52092 2.9 9.74561 2.96214 9.93165 3.07891L10.038 2.90951ZM9.24962 2.7V2.5C8.88121 2.5 8.55199 2.59201 8.27072 2.78316L8.38314 2.94858L8.49556 3.11399C8.70198 2.97371 8.95042 2.9 9.24962 2.9V2.7ZM8.38314 2.94858L8.27108 2.78292C8.00077 2.96578 7.79188 3.2054 7.64641 3.49899L7.82561 3.58778L8.00482 3.67658C8.11977 3.4446 8.28256 3.25808 8.4952 3.11423L8.38314 2.94858ZM7.82561 3.58778L7.64641 3.49899C7.50217 3.79008 7.4303 4.10229 7.4303 4.43295H7.6303H7.8303C7.8303 4.16229 7.88864 3.91105 8.00482 3.67658L7.82561 3.58778ZM7.6303 4.43295H7.4303V4.91591H7.6303H7.8303V4.43295H7.6303ZM7.6303 4.91591H7.4303C7.4303 5.35007 7.50508 5.73148 7.66419 6.05234L7.84337 5.96349L8.02255 5.87464C7.89756 5.62259 7.8303 5.3056 7.8303 4.91591H7.6303ZM7.84337 5.96349L7.66508 6.05412C7.82551 6.36972 8.0513 6.6161 8.34274 6.78611L8.44351 6.61335L8.54428 6.44059C8.32435 6.3123 8.15005 6.12544 8.02166 5.87286L7.84337 5.96349ZM8.44351 6.61335L8.34394 6.7868C8.63417 6.95342 8.96662 7.03352 9.33485 7.03352V6.83352V6.63352C9.02599 6.63352 8.76421 6.56684 8.54308 6.4399L8.44351 6.61335ZM9.33485 6.83352V7.03352C9.57357 7.03352 9.79506 7.00015 9.99695 6.93016L9.93144 6.74119L9.86593 6.55222C9.71271 6.60534 9.53646 6.63352 9.33485 6.63352V6.83352ZM9.93144 6.74119L9.99839 6.92965C10.2036 6.85674 10.3836 6.74745 10.5354 6.60112L10.3966 6.4571L10.2579 6.31308C10.1493 6.4177 10.0191 6.4978 9.86448 6.55273L9.93144 6.74119ZM10.3966 6.4571L10.5368 6.59981C10.6899 6.44941 10.8056 6.26519 10.8857 6.05147L10.6985 5.98125L10.5112 5.91102C10.4493 6.07609 10.3637 6.20911 10.2565 6.31439L10.3966 6.4571ZM10.6985 5.98125L10.6444 6.17381L11.4541 6.40108L11.5081 6.20852L11.5622 6.01596L10.7525 5.78869L10.6985 5.98125ZM11.5081 6.20852L11.3171 6.14924C11.2412 6.39376 11.1143 6.608 10.9346 6.794L11.0785 6.93295L11.2223 7.0719C11.4451 6.84124 11.6046 6.57253 11.6992 6.2678L11.5081 6.20852ZM11.0785 6.93295L10.9354 6.79318C10.7559 6.97686 10.532 7.12296 10.2597 7.2297L10.3327 7.41591L10.4057 7.60211C10.7253 7.47685 10.9985 7.30097 11.2215 7.07272L11.0785 6.93295ZM10.3327 7.41591L10.261 7.2292C9.99142 7.33273 9.68363 7.38636 9.33485 7.38636V7.58636V7.78636C9.7247 7.78636 10.0822 7.72636 10.4044 7.60261L10.3327 7.41591ZM12.8682 7.47272H12.6682V7.67272H12.8682V7.47272ZM12.8682 2.01818V1.81818H12.6682V2.01818H12.8682ZM13.6779 2.01818H13.8779V1.81818H13.6779V2.01818ZM13.6779 2.84204H13.4779V3.04204H13.6779V2.84204ZM13.7347 2.84204V3.04204H13.8742L13.9224 2.91118L13.7347 2.84204ZM14.2745 2.18508L14.166 2.01705V2.01705L14.2745 2.18508ZM15.5955 1.94716H15.7955V1.76616L15.6154 1.74815L15.5955 1.94716ZM15.5955 2.79943L15.547 2.99346L15.7955 3.05558V2.79943H15.5955ZM15.4002 2.76747L15.3673 2.96482L15.3725 2.96555L15.4002 2.76747ZM14.3739 2.90951L14.4674 3.08632L14.4681 3.08593L14.3739 2.90951ZM13.8839 3.36406L13.714 3.25843L13.7137 3.25901L13.8839 3.36406ZM13.7063 7.47272V7.67272H13.9063V7.47272H13.7063ZM12.8682 7.47272H13.0682V2.01818H12.8682H12.6682V7.47272H12.8682ZM12.8682 2.01818V2.21818H13.6779V2.01818V1.81818H12.8682V2.01818ZM13.6779 2.01818H13.4779V2.84204H13.6779H13.8779V2.01818H13.6779ZM13.6779 2.84204V3.04204H13.7347V2.84204V2.64204H13.6779V2.84204ZM13.7347 2.84204L13.9224 2.91118C14.0056 2.68521 14.1559 2.49964 14.3829 2.35312L14.2745 2.18508L14.166 2.01705C13.8722 2.2067 13.6626 2.45911 13.547 2.7729L13.7347 2.84204ZM14.2745 2.18508L14.3829 2.35312C14.6092 2.20705 14.8647 2.13295 15.1552 2.13295V1.93295V1.73295C14.7922 1.73295 14.4605 1.82694 14.166 2.01705L14.2745 2.18508ZM15.1552 1.93295V2.13295C15.2144 2.13295 15.2895 2.13409 15.3809 2.13644L15.386 1.9365L15.3911 1.73657C15.2978 1.73418 15.219 1.73295 15.1552 1.73295V1.93295ZM15.386 1.9365L15.3809 2.13644C15.4719 2.13877 15.5358 2.14218 15.5756 2.14616L15.5955 1.94716L15.6154 1.74815C15.5605 1.74266 15.4847 1.73897 15.3911 1.73657L15.386 1.9365ZM15.5955 1.94716H15.3955V2.79943H15.5955H15.7955V1.94716H15.5955ZM15.5955 2.79943L15.644 2.6054C15.6032 2.59519 15.5266 2.58318 15.4278 2.56939L15.4002 2.76747L15.3725 2.96555C15.4773 2.98017 15.531 2.98946 15.547 2.99346L15.5955 2.79943ZM15.4002 2.76747L15.4331 2.57019C15.3217 2.55163 15.2053 2.54261 15.0841 2.54261V2.74261V2.94261C15.1855 2.94261 15.2798 2.95016 15.3673 2.96475L15.4002 2.76747ZM15.0841 2.74261V2.54261C14.7902 2.54261 14.5204 2.60453 14.2797 2.7331L14.3739 2.90951L14.4681 3.08593C14.6441 2.99196 14.8478 2.94261 15.0841 2.94261V2.74261ZM14.3739 2.90951L14.2804 2.73271C14.0438 2.85783 13.8538 3.03364 13.714 3.25843L13.8839 3.36406L14.0537 3.46969C14.1553 3.30622 14.2921 3.17901 14.4674 3.08632L14.3739 2.90951ZM13.8839 3.36406L13.7137 3.25901C13.574 3.48524 13.5063 3.74126 13.5063 4.02102H13.7063H13.9063C13.9063 3.80836 13.9569 3.62641 14.054 3.46911L13.8839 3.36406ZM13.7063 4.02102H13.5063V7.47272H13.7063H13.9063V4.02102H13.7063ZM13.7063 7.47272V7.27273H12.8682V7.47272V7.67272H13.7063V7.47272ZM20.3957 0.199997H20.5957V-2.38419e-06H20.3957V0.199997ZM20.3957 7.47272V7.67272H20.5957V7.47272H20.3957ZM19.5151 7.47272H19.3151V7.67272H19.5151V7.47272ZM19.5151 0.199997V-2.38419e-06H19.3151V0.199997H19.5151ZM20.3957 0.199997H20.1957V7.47272H20.3957H20.5957V0.199997H20.3957ZM20.3957 7.47272V7.27273H19.5151V7.47272V7.67272H20.3957V7.47272ZM19.5151 7.47272H19.7151V0.199997H19.5151H19.3151V7.47272H19.5151ZM19.5151 0.199997V0.399997H20.3957V0.199997V-2.38419e-06H19.5151V0.199997ZM24.4201 2.01818H24.6201V1.81818H24.4201V2.01818ZM24.4201 2.72841V2.92841H24.6201V2.72841H24.4201ZM21.5934 2.72841H21.3934V2.92841H21.5934V2.72841ZM21.5934 2.01818V1.81818H21.3934V2.01818H21.5934ZM22.4172 0.711361V0.511361H22.2172V0.711361H22.4172ZM23.2553 0.711361H23.4553V0.511361H23.2553V0.711361ZM23.3583 6.44289L23.1852 6.54327L23.1877 6.54733L23.3583 6.44289ZM23.6282 6.67727L23.5588 6.86493L23.5637 6.8666L23.6282 6.67727ZM24.207 6.71988L24.2386 6.91752L24.2462 6.916L24.207 6.71988ZM24.3491 6.69147L24.5441 6.64731L24.501 6.45711L24.3098 6.49536L24.3491 6.69147ZM24.5195 7.44432L24.5897 7.63158L24.7531 7.57032L24.7146 7.40015L24.5195 7.44432ZM24.2816 7.50824L24.2406 7.31243L24.2363 7.31343L24.2816 7.50824ZM23.1985 7.39105L23.116 7.57325L23.1167 7.57358L23.1985 7.39105ZM22.6374 6.92585L22.4739 7.04104L22.4748 7.04227L22.6374 6.92585ZM24.4201 2.01818H24.2201V2.72841H24.4201H24.6201V2.01818H24.4201ZM24.4201 2.72841V2.52841H21.5934V2.72841V2.92841H24.4201V2.72841ZM21.5934 2.72841H21.7934V2.01818H21.5934H21.3934V2.72841H21.5934ZM21.5934 2.01818V2.21818H24.4201V2.01818V1.81818H21.5934V2.01818ZM22.4172 0.711361V0.911361H23.2553V0.711361V0.511361H22.4172V0.711361ZM23.2553 0.711361H23.0553V5.91022H23.2553H23.4553V0.711361H23.2553ZM23.2553 5.91022H23.0553C23.0553 6.15975 23.0903 6.37953 23.1853 6.54324L23.3583 6.44289L23.5313 6.34255C23.4889 6.26952 23.4553 6.13419 23.4553 5.91022H23.2553ZM23.3583 6.44289L23.1877 6.54733C23.278 6.69478 23.4008 6.80648 23.5588 6.86487L23.6282 6.67727L23.6975 6.48967C23.6377 6.46757 23.5806 6.42302 23.5289 6.33846L23.3583 6.44289ZM23.6282 6.67727L23.5637 6.8666C23.6967 6.91187 23.8358 6.93409 23.9797 6.93409V6.73409V6.53409C23.8775 6.53409 23.7822 6.51842 23.6926 6.48794L23.6282 6.67727ZM23.9797 6.73409V6.93409C24.0776 6.93409 24.165 6.92915 24.2386 6.91737L24.207 6.71988L24.1754 6.5224C24.1307 6.52956 24.0665 6.53409 23.9797 6.53409V6.73409ZM24.207 6.71988L24.2462 6.916C24.3054 6.90416 24.3528 6.89469 24.3883 6.88759L24.3491 6.69147L24.3098 6.49536C24.2743 6.50246 24.227 6.51193 24.1678 6.52377L24.207 6.71988ZM24.3491 6.69147L24.154 6.73564L24.3244 7.48848L24.5195 7.44432L24.7146 7.40015L24.5441 6.64731L24.3491 6.69147ZM24.5195 7.44432L24.4493 7.25705C24.4063 7.27315 24.3384 7.29201 24.2406 7.31248L24.2816 7.50824L24.3226 7.70399C24.4284 7.68185 24.519 7.6581 24.5897 7.63158L24.5195 7.44432ZM24.2816 7.50824L24.2363 7.31343C24.1547 7.33241 24.0422 7.34375 23.8945 7.34375V7.54375V7.74375C24.0593 7.74375 24.2049 7.73141 24.3269 7.70304L24.2816 7.50824ZM23.8945 7.54375V7.34375C23.6874 7.34375 23.4832 7.29941 23.2802 7.20852L23.1985 7.39105L23.1167 7.57358C23.3684 7.68628 23.6281 7.74375 23.8945 7.74375V7.54375ZM23.1985 7.39105L23.281 7.20884C23.0893 7.12211 22.9295 6.9903 22.8 6.80943L22.6374 6.92585L22.4748 7.04227C22.6436 7.27807 22.8578 7.45639 23.116 7.57325L23.1985 7.39105ZM22.6374 6.92585L22.8009 6.81066C22.6831 6.64351 22.6172 6.42368 22.6172 6.1375H22.4172H22.2172C22.2172 6.48579 22.2981 6.79152 22.4739 7.04104L22.6374 6.92585ZM22.4172 6.1375H22.6172V0.711361H22.4172H22.2172V6.1375H22.4172ZM26.549 7.23835L26.4437 7.40843L26.445 7.40919L26.549 7.23835ZM25.6718 6.25824L25.4918 6.34524L25.4924 6.34646L25.6718 6.25824ZM25.6718 3.31079L25.4916 3.22415L25.4914 3.22457L25.6718 3.31079ZM26.5312 2.30937L26.6404 2.47694L26.6407 2.47677L26.5312 2.30937ZM28.6655 2.0892L28.7302 1.89996V1.89996L28.6655 2.0892ZM29.4218 2.55085L29.2851 2.69676L29.2859 2.69752L29.4218 2.55085ZM29.9652 3.38892L30.1516 3.31661V3.31661L29.9652 3.38892ZM30.1676 5.02954V5.22954H30.3676V5.02954H30.1676ZM25.963 5.02954H25.763V5.22954H25.963V5.02954ZM25.963 4.30511V4.10511H25.763V4.30511H25.963ZM29.3153 4.30511V4.50511H29.5153V4.30511H29.3153ZM29.1307 3.48125L28.9518 3.57069L28.9525 3.57208L29.1307 3.48125ZM28.6122 2.90951L28.5059 3.07891L28.5067 3.07941L28.6122 2.90951ZM26.9574 2.94858L27.0694 3.11423L27.0698 3.11399L26.9574 2.94858ZM26.3998 3.58778L26.2206 3.49899V3.49899L26.3998 3.58778ZM26.4176 5.96349L26.2384 6.05235L26.2393 6.05412L26.4176 5.96349ZM27.0177 6.61335L26.917 6.78611L26.9182 6.7868L27.0177 6.61335ZM28.5057 6.74119L28.5712 6.93016L28.5726 6.92965L28.5057 6.74119ZM28.9709 6.4571L29.1096 6.60112L29.111 6.59981L28.9709 6.4571ZM29.2727 5.98125L29.3268 5.78869L29.1499 5.73905L29.0854 5.91102L29.2727 5.98125ZM30.0824 6.20852L30.2734 6.2678L30.3343 6.07151L30.1364 6.01596L30.0824 6.20852ZM29.6527 6.93295L29.7957 7.07272L29.7965 7.0719L29.6527 6.93295ZM28.9069 7.41591L28.9786 7.60262L28.9799 7.60211L28.9069 7.41591ZM27.9091 7.58636V7.38636C27.4136 7.38636 26.9976 7.27728 26.653 7.06751L26.549 7.23835L26.445 7.40919C26.8627 7.66343 27.3534 7.78636 27.9091 7.78636V7.58636ZM26.549 7.23835L26.6542 7.06827C26.309 6.85464 26.0416 6.55704 25.8513 6.17001L25.6718 6.25824L25.4924 6.34646C25.7141 6.79751 26.0314 7.15331 26.4437 7.40843L26.549 7.23835ZM25.6718 6.25824L25.8519 6.17123C25.6637 5.78172 25.5665 5.32242 25.5665 4.78807H25.3665H25.1665C25.1665 5.37113 25.2728 5.89195 25.4918 6.34524L25.6718 6.25824ZM25.3665 4.78807H25.5665C25.5665 4.25378 25.6637 3.79174 25.8523 3.39701L25.6718 3.31079L25.4914 3.22457C25.2728 3.68212 25.1665 4.20493 25.1665 4.78807H25.3665ZM25.6718 3.31079L25.8521 3.39744C26.0436 2.99898 26.3067 2.69438 26.6404 2.47694L26.5312 2.30937L26.422 2.14181C26.0218 2.40258 25.712 2.7656 25.4916 3.22415L25.6718 3.31079ZM26.5312 2.30937L26.6407 2.47677C26.9738 2.25898 27.3656 2.14716 27.8238 2.14716V1.94716V1.74716C27.2972 1.74716 26.8273 1.87681 26.4218 2.14198L26.5312 2.30937ZM27.8238 1.94716V2.14716C28.0853 2.14716 28.344 2.19065 28.6008 2.27845L28.6655 2.0892L28.7302 1.89996C28.433 1.79836 28.1306 1.74716 27.8238 1.74716V1.94716ZM28.6655 2.0892L28.6008 2.27845C28.8492 2.36339 29.0771 2.50181 29.2851 2.69676L29.4218 2.55085L29.5586 2.40494C29.312 2.17375 29.0357 2.00441 28.7302 1.89996L28.6655 2.0892ZM29.4218 2.55085L29.2859 2.69752C29.4868 2.88379 29.6525 3.1358 29.7787 3.46122L29.9652 3.38892L30.1516 3.31661C30.0079 2.94601 29.8114 2.63931 29.5578 2.40418L29.4218 2.55085ZM29.9652 3.38892L29.7787 3.46122C29.9021 3.77946 29.9676 4.18176 29.9676 4.67443H30.1676H30.3676C30.3676 4.14911 30.2981 3.6944 30.1516 3.31661L29.9652 3.38892ZM30.1676 4.67443H29.9676V5.02954H30.1676H30.3676V4.67443H30.1676ZM30.1676 5.02954V4.82954H25.963V5.02954V5.22954H30.1676V5.02954ZM25.963 5.02954H26.163V4.30511H25.963H25.763V5.02954H25.963ZM25.963 4.30511V4.50511H29.3153V4.30511V4.10511H25.963V4.30511ZM29.3153 4.30511H29.5153C29.5153 3.97008 29.4481 3.66362 29.3088 3.39041L29.1307 3.48125L28.9525 3.57208C29.0594 3.78183 29.1153 4.02461 29.1153 4.30511H29.3153ZM29.1307 3.48125L29.3095 3.3918C29.1726 3.11793 28.9747 2.89921 28.7177 2.73961L28.6122 2.90951L28.5067 3.07941C28.6995 3.19917 28.8472 3.36161 28.9518 3.57069L29.1307 3.48125ZM28.6122 2.90951L28.7185 2.74012C28.4595 2.57753 28.1586 2.5 27.8238 2.5V2.7V2.9C28.0951 2.9 28.3198 2.96214 28.5059 3.07891L28.6122 2.90951ZM27.8238 2.7V2.5C27.4554 2.5 27.1262 2.59201 26.8449 2.78316L26.9574 2.94858L27.0698 3.11399C27.2762 2.97371 27.5246 2.9 27.8238 2.9V2.7ZM26.9574 2.94858L26.8453 2.78292C26.575 2.96578 26.3661 3.2054 26.2206 3.49899L26.3998 3.58778L26.579 3.67658C26.694 3.4446 26.8568 3.25808 27.0694 3.11423L26.9574 2.94858ZM26.3998 3.58778L26.2206 3.49899C26.0764 3.79008 26.0045 4.10229 26.0045 4.43295H26.2045H26.4045C26.4045 4.16229 26.4629 3.91105 26.579 3.67658L26.3998 3.58778ZM26.2045 4.43295H26.0045V4.91591H26.2045H26.4045V4.43295H26.2045ZM26.2045 4.91591H26.0045C26.0045 5.35007 26.0793 5.73148 26.2384 6.05234L26.4176 5.96349L26.5968 5.87464C26.4718 5.62259 26.4045 5.3056 26.4045 4.91591H26.2045ZM26.4176 5.96349L26.2393 6.05412C26.3997 6.36972 26.6255 6.6161 26.917 6.78611L27.0177 6.61335L27.1185 6.44059C26.8986 6.3123 26.7243 6.12544 26.5959 5.87286L26.4176 5.96349ZM27.0177 6.61335L26.9182 6.7868C27.2084 6.95342 27.5408 7.03352 27.9091 7.03352V6.83352V6.63352C27.6002 6.63352 27.3384 6.56684 27.1173 6.4399L27.0177 6.61335ZM27.9091 6.83352V7.03352C28.1478 7.03352 28.3693 7.00015 28.5712 6.93016L28.5057 6.74119L28.4401 6.55222C28.2869 6.60534 28.1107 6.63352 27.9091 6.63352V6.83352ZM28.5057 6.74119L28.5726 6.92965C28.7778 6.85674 28.9578 6.74745 29.1096 6.60112L28.9709 6.4571L28.8321 6.31308C28.7235 6.4177 28.5933 6.4978 28.4387 6.55273L28.5057 6.74119ZM28.9709 6.4571L29.111 6.59981C29.2642 6.44941 29.3798 6.26519 29.46 6.05147L29.2727 5.98125L29.0854 5.91102C29.0235 6.07609 28.938 6.20911 28.8307 6.31439L28.9709 6.4571ZM29.2727 5.98125L29.2187 6.17381L30.0283 6.40108L30.0824 6.20852L30.1364 6.01596L29.3268 5.78869L29.2727 5.98125ZM30.0824 6.20852L29.8913 6.14924C29.8155 6.39376 29.6885 6.608 29.5088 6.794L29.6527 6.93295L29.7965 7.0719C30.0193 6.84124 30.1788 6.57253 30.2734 6.2678L30.0824 6.20852ZM29.6527 6.93295L29.5096 6.79318C29.3302 6.97686 29.1063 7.12296 28.8339 7.2297L28.9069 7.41591L28.9799 7.60211C29.2995 7.47685 29.5727 7.30097 29.7957 7.07272L29.6527 6.93295ZM28.9069 7.41591L28.8352 7.2292C28.5656 7.33273 28.2579 7.38636 27.9091 7.38636V7.58636V7.78636C28.2989 7.78636 28.6564 7.72636 28.9786 7.60261L28.9069 7.41591ZM31.4424 7.47272H31.2424V7.67272H31.4424V7.47272ZM31.4424 2.01818V1.81818H31.2424V2.01818H31.4424ZM32.2521 2.01818H32.4521V1.81818H32.2521V2.01818ZM32.2521 2.87045H32.0521V3.07045H32.2521V2.87045ZM32.3231 2.87045V3.07045H32.4598L32.5094 2.94316L32.3231 2.87045ZM32.8736 2.19218L32.9808 2.36099L32.9819 2.36027L32.8736 2.19218ZM34.6846 2.19218L34.5718 2.35734L34.5737 2.35859L34.6846 2.19218ZM35.2493 2.87045L35.0678 2.95454L35.1215 3.07045H35.2493V2.87045ZM35.3061 2.87045V3.07045H35.4302L35.4853 2.95929L35.3061 2.87045ZM35.9346 2.19929L36.0367 2.3713L36.0377 2.37066L35.9346 2.19929ZM38.1363 2.40525L37.996 2.54776L37.9966 2.5483L38.1363 2.40525ZM38.6015 7.47272V7.67272H38.8015V7.47272H38.6015ZM37.7635 7.47272H37.5635V7.67272H37.7635V7.47272ZM37.4332 2.95923L37.3097 3.11655V3.11655L37.4332 2.95923ZM35.7642 3.04801L35.9115 3.18322L35.9122 3.18247L35.7642 3.04801ZM35.4481 7.47272V7.67272H35.6481V7.47272H35.4481ZM34.5959 7.47272H34.3959V7.67272H34.5959V7.47272ZM34.294 2.98764L34.156 3.13243L34.1569 3.13328L34.294 2.98764ZM32.9055 2.874L32.801 2.70345L32.8001 2.70404L32.9055 2.874ZM32.451 3.35696L32.2767 3.25881L32.2763 3.25948L32.451 3.35696ZM32.2805 7.47272V7.67272H32.4805V7.47272H32.2805ZM31.4424 7.47272H31.6424V2.01818H31.4424H31.2424V7.47272H31.4424ZM31.4424 2.01818V2.21818H32.2521V2.01818V1.81818H31.4424V2.01818ZM32.2521 2.01818H32.0521V2.87045H32.2521H32.4521V2.01818H32.2521ZM32.2521 2.87045V3.07045H32.3231V2.87045V2.67045H32.2521V2.87045ZM32.3231 2.87045L32.5094 2.94316C32.6083 2.68983 32.765 2.49817 32.9808 2.36098L32.8736 2.19218L32.7663 2.02339C32.4755 2.20817 32.2652 2.46869 32.1368 2.79774L32.3231 2.87045ZM32.8736 2.19218L32.9819 2.36027C33.1976 2.22123 33.4626 2.14716 33.7862 2.14716V1.94716V1.74716C33.3996 1.74716 33.0562 1.83644 32.7652 2.0241L32.8736 2.19218ZM33.7862 1.94716V2.14716C34.1156 2.14716 34.3732 2.22166 34.5718 2.35733L34.6846 2.19218L34.7975 2.02704C34.5178 1.83601 34.1765 1.74716 33.7862 1.74716V1.94716ZM34.6846 2.19218L34.5737 2.35859C34.7814 2.49704 34.9467 2.69311 35.0678 2.95454L35.2493 2.87045L35.4307 2.78636C35.282 2.4654 35.0709 2.2093 34.7956 2.02577L34.6846 2.19218ZM35.2493 2.87045V3.07045H35.3061V2.87045V2.67045H35.2493V2.87045ZM35.3061 2.87045L35.4853 2.95929C35.6072 2.71334 35.7894 2.51801 36.0367 2.3713L35.9346 2.19929L35.8326 2.02728C35.5212 2.21201 35.2843 2.46412 35.1269 2.78161L35.3061 2.87045ZM35.9346 2.19929L36.0377 2.37066C36.2803 2.22471 36.5781 2.14716 36.9396 2.14716V1.94716V1.74716C36.5199 1.74716 36.1477 1.83769 35.8315 2.02792L35.9346 2.19929ZM36.9396 1.94716V2.14716C37.3817 2.14716 37.7279 2.28378 37.996 2.54776L38.1363 2.40525L38.2767 2.26275C37.9245 1.91594 37.4729 1.74716 36.9396 1.74716V1.94716ZM38.1363 2.40525L37.9966 2.5483C38.253 2.79887 38.4015 3.20868 38.4015 3.82216H38.6015H38.8015C38.8015 3.15249 38.6399 2.61769 38.2761 2.2622L38.1363 2.40525ZM38.6015 3.82216H38.4015V7.47272H38.6015H38.8015V3.82216H38.6015ZM38.6015 7.47272V7.27273H37.7635V7.47272V7.67272H38.6015V7.47272ZM37.7635 7.47272H37.9635V3.82216H37.7635H37.5635V7.47272H37.7635ZM37.7635 3.82216H37.9635C37.9635 3.38641 37.8437 3.02715 37.5567 2.80191L37.4332 2.95923L37.3097 3.11655C37.4631 3.23696 37.5635 3.45298 37.5635 3.82216H37.7635ZM37.4332 2.95923L37.5567 2.80191C37.2989 2.59955 36.9954 2.5 36.6555 2.5V2.7V2.9C36.9122 2.9 37.1272 2.97327 37.3097 3.11655L37.4332 2.95923ZM36.6555 2.7V2.5C36.2292 2.5 35.873 2.63068 35.6161 2.91355L35.7642 3.04801L35.9122 3.18247C36.0767 3.00132 36.3147 2.9 36.6555 2.9V2.7ZM35.7642 3.04801L35.6168 2.9128C35.3677 3.18425 35.2481 3.52587 35.2481 3.92159H35.4481H35.6481C35.6481 3.61181 35.7392 3.37105 35.9115 3.18322L35.7642 3.04801ZM35.4481 3.92159H35.2481V7.47272H35.4481H35.6481V3.92159H35.4481ZM35.4481 7.47272V7.27273H34.5959V7.47272V7.67272H35.4481V7.47272ZM34.5959 7.47272H34.7959V3.73693H34.5959H34.3959V7.47272H34.5959ZM34.5959 3.73693H34.7959C34.7959 3.37909 34.6776 3.074 34.4311 2.842L34.294 2.98764L34.1569 3.13328C34.3129 3.28007 34.3959 3.4745 34.3959 3.73693H34.5959ZM34.294 2.98764L34.432 2.84285C34.1883 2.61059 33.8771 2.5 33.5163 2.5V2.7V2.9C33.79 2.9 33.9973 2.98116 34.156 3.13243L34.294 2.98764ZM33.5163 2.7V2.5C33.2609 2.5 33.0212 2.56859 32.8011 2.70345L32.9055 2.874L33.01 3.04455C33.1686 2.94741 33.3361 2.9 33.5163 2.9V2.7ZM32.9055 2.874L32.8001 2.70404C32.5823 2.83911 32.408 3.02573 32.2767 3.25881L32.451 3.35696L32.6252 3.45511C32.726 3.27625 32.8546 3.1409 33.0109 3.04396L32.9055 2.874ZM32.451 3.35696L32.2763 3.25948C32.1437 3.49703 32.0805 3.76708 32.0805 4.06363H32.2805H32.4805C32.4805 3.82515 32.5309 3.62409 32.6256 3.45443L32.451 3.35696ZM32.2805 4.06363H32.0805V7.47272H32.2805H32.4805V4.06363H32.2805ZM32.2805 7.47272V7.27273H31.4424V7.47272V7.67272H32.2805V7.47272Z" fill="#1C2434" mask="url(#path-1-outside-1_22_544)"/>
</svg>
