<svg width="49" height="13" viewBox="0 0 49 13" fill="none" xmlns="http://www.w3.org/2000/svg">
<path d="M8.30403 9.00797C8.30403 8.15464 8.12803 7.49331 7.77603 7.02397C7.4347 6.55464 6.8107 6.30931 5.90403 6.28797C5.73336 6.28797 5.5627 6.28797 5.39203 6.28797C5.22136 6.27731 5.0507 6.27197 4.88003 6.27197C4.61336 6.27197 4.34136 6.27731 4.06403 6.28797C3.79736 6.29864 3.52536 6.30397 3.24803 6.30397V11.312C3.24803 11.504 3.30136 11.6426 3.40803 11.728C3.52536 11.8133 3.66403 11.8666 3.82403 11.888C3.98403 11.8986 4.13336 11.904 4.27203 11.904C4.45336 11.904 4.6347 11.904 4.81603 11.904C5.00803 11.8933 5.1947 11.8826 5.37603 11.872C6.26136 11.8186 6.9707 11.5626 7.50403 11.104C8.03736 10.6453 8.30403 9.94664 8.30403 9.00797ZM7.48803 3.32797C7.48803 2.50664 7.26403 1.91997 6.81603 1.56797C6.36803 1.20531 5.74936 1.02397 4.96003 1.02397C4.67203 1.02397 4.38403 1.02931 4.09603 1.03997C3.8187 1.03997 3.53603 1.05064 3.24803 1.07197V5.85597C3.39736 5.85597 3.54136 5.86131 3.68003 5.87197C3.8187 5.87197 3.95736 5.87197 4.09603 5.87197C4.3627 5.87197 4.65603 5.86131 4.97603 5.83997C5.3067 5.81864 5.62136 5.76531 5.92003 5.67997C6.22936 5.59464 6.48536 5.45597 6.68803 5.26397C6.93336 5.01864 7.12536 4.72531 7.26403 4.38397C7.41336 4.03197 7.48803 3.67997 7.48803 3.32797ZM10.016 8.75197C10.016 9.49864 9.84003 10.1493 9.48803 10.704C9.13603 11.248 8.60803 11.6586 7.90403 11.936C7.5307 12.0853 7.12003 12.1866 6.67203 12.24C6.2347 12.2826 5.81336 12.304 5.40803 12.304C5.33336 12.304 5.25336 12.304 5.16803 12.304C5.09336 12.304 5.0187 12.2986 4.94403 12.288C4.43203 12.2666 3.92003 12.2506 3.40803 12.24C2.9067 12.2186 2.40003 12.208 1.88803 12.208C1.60003 12.208 1.31203 12.2293 1.02403 12.272C0.746695 12.304 0.464028 12.32 0.176028 12.32C0.090695 12.32 0.042695 12.288 0.0320283 12.224C0.0213617 12.1493 0.0160283 12.08 0.0160283 12.016C0.0160283 11.8986 0.0640283 11.84 0.160028 11.84C0.309362 11.84 0.464028 11.84 0.624028 11.84C0.794695 11.8293 0.954695 11.8133 1.10403 11.792C1.32803 11.76 1.47203 11.6746 1.53603 11.536C1.6107 11.3866 1.65336 11.2106 1.66403 11.008C1.68536 10.7946 1.6907 10.5866 1.68003 10.384C1.66936 10.1813 1.66403 9.97864 1.66403 9.77597C1.66403 9.38131 1.66403 8.98664 1.66403 8.59197C1.6747 8.18664 1.68003 7.78664 1.68003 7.39197V5.64797C1.68003 5.07197 1.6747 4.49597 1.66403 3.91997C1.66403 3.34397 1.66403 2.76797 1.66403 2.19197C1.66403 2.08531 1.6587 1.98397 1.64803 1.88797C1.64803 1.78131 1.63203 1.67997 1.60003 1.58397C1.52536 1.37064 1.39203 1.24264 1.20003 1.19997C1.0187 1.14664 0.832028 1.11997 0.640028 1.11997C0.565362 1.11997 0.485362 1.12531 0.400028 1.13597C0.325362 1.13597 0.245362 1.13597 0.160028 1.13597C0.0853617 1.13597 0.0373617 1.09864 0.0160283 1.02397C0.00536168 0.949306 2.8342e-05 0.890639 2.8342e-05 0.847972C2.8342e-05 0.805305 0.00536168 0.762638 0.0160283 0.719972C0.0373617 0.666638 0.074695 0.639972 0.128028 0.639972C0.373362 0.639972 0.613362 0.650639 0.848028 0.671972C1.0827 0.682639 1.31736 0.687972 1.55203 0.687972C2.18136 0.687972 2.80003 0.671972 3.40803 0.639972C4.0267 0.597306 4.64536 0.554639 5.26403 0.511972C5.34936 0.501305 5.42936 0.495972 5.50403 0.495972C5.5787 0.495972 5.65336 0.495972 5.72803 0.495972C6.32536 0.495972 6.88536 0.575972 7.40803 0.735972C7.94136 0.885306 8.37336 1.15197 8.70403 1.53597C9.0347 1.91997 9.20003 2.45864 9.20003 3.15197C9.20003 3.58931 9.0827 3.98397 8.84803 4.33597C8.62403 4.67731 8.3307 4.97597 7.96803 5.23197C7.61603 5.47731 7.25336 5.67464 6.88003 5.82397V5.90397C7.39203 5.98931 7.88803 6.14397 8.36803 6.36797C8.84803 6.58131 9.2427 6.88531 9.55203 7.27997C9.86136 7.66397 10.016 8.15464 10.016 8.75197ZM16.4054 10.4C16.3627 9.91997 16.3361 9.43997 16.3254 8.95997C16.3254 8.46931 16.3201 7.97864 16.3094 7.48797H16.0854C15.7547 7.48797 15.3867 7.54131 14.9814 7.64797C14.5867 7.74397 14.2081 7.89331 13.8454 8.09597C13.4827 8.29864 13.1841 8.55464 12.9494 8.86397C12.7254 9.16264 12.6134 9.50931 12.6134 9.90397C12.6134 10.416 12.7574 10.8053 13.0454 11.072C13.3334 11.328 13.7227 11.456 14.2134 11.456C14.4481 11.456 14.7041 11.4026 14.9814 11.296C15.2587 11.1786 15.5254 11.04 15.7814 10.88C16.0374 10.72 16.2454 10.56 16.4054 10.4ZM19.2054 11.424C19.2054 11.4666 19.2001 11.4986 19.1894 11.52C19.0827 11.7546 18.9014 11.936 18.6454 12.064C18.4001 12.1813 18.1547 12.24 17.9094 12.24C17.4614 12.24 17.1361 12.112 16.9334 11.856C16.7414 11.5893 16.5867 11.264 16.4694 10.88C16.0641 11.2533 15.6161 11.568 15.1254 11.824C14.6347 12.0693 14.1067 12.192 13.5414 12.192C13.1467 12.192 12.7734 12.1173 12.4214 11.968C12.0801 11.808 11.8027 11.5786 11.5894 11.28C11.3761 10.9813 11.2694 10.6186 11.2694 10.192C11.2694 9.74397 11.3814 9.35997 11.6054 9.03997C11.8401 8.70931 12.1334 8.43197 12.4854 8.20797C12.8481 7.97331 13.2321 7.78664 13.6374 7.64797C14.0534 7.49864 14.4427 7.38664 14.8054 7.31197C15.0507 7.25864 15.3014 7.21064 15.5574 7.16797C15.8134 7.12531 16.0641 7.08264 16.3094 7.03997C16.3094 6.74131 16.2934 6.39464 16.2614 5.99997C16.2401 5.60531 16.1601 5.27997 16.0214 5.02397C15.8827 4.77864 15.6961 4.55997 15.4614 4.36797C15.2267 4.17597 14.9654 4.07997 14.6774 4.07997C14.1867 4.07997 13.8027 4.20797 13.5254 4.46397C13.2481 4.71997 13.0507 5.08264 12.9334 5.55197C12.9227 5.60531 12.9121 5.66397 12.9014 5.72797C12.9014 5.78131 12.8961 5.83464 12.8854 5.88797C12.8747 5.95197 12.8321 6.01064 12.7574 6.06397C12.6934 6.10664 12.6241 6.12797 12.5494 6.12797C12.3467 6.12797 12.1601 6.07997 11.9894 5.98397C11.8294 5.88797 11.7494 5.72797 11.7494 5.50397C11.7494 5.37597 11.7707 5.26397 11.8134 5.16797C11.9521 4.83731 12.1761 4.56531 12.4854 4.35197C12.7947 4.12797 13.1361 3.95731 13.5094 3.83997C13.8934 3.72264 14.2507 3.66397 14.5814 3.66397C15.1574 3.66397 15.6801 3.77064 16.1494 3.98397C16.6187 4.19731 16.9921 4.51197 17.2694 4.92797C17.5574 5.33331 17.7014 5.84531 17.7014 6.46397C17.7014 7.15731 17.6961 7.85597 17.6854 8.55997C17.6854 9.26397 17.7067 9.96797 17.7494 10.672C17.7601 10.9066 17.8081 11.1146 17.8934 11.296C17.9787 11.4666 18.1547 11.552 18.4214 11.552C18.5601 11.552 18.7041 11.52 18.8534 11.456C19.0134 11.3813 19.1147 11.344 19.1574 11.344C19.1894 11.344 19.2054 11.3706 19.2054 11.424ZM24.3885 12.032C24.3885 12.0853 24.3725 12.1386 24.3405 12.192C24.3085 12.2346 24.2659 12.256 24.2125 12.256C23.9139 12.256 23.6152 12.2506 23.3165 12.24C23.0285 12.2186 22.7299 12.208 22.4205 12.208H21.9885C21.6685 12.208 21.3485 12.2186 21.0285 12.24C20.7192 12.2506 20.4099 12.256 20.1005 12.256C20.0579 12.256 20.0259 12.2293 20.0045 12.176C19.9939 12.1226 19.9885 12.08 19.9885 12.048C19.9885 11.9946 19.9939 11.9573 20.0045 11.936C20.0152 11.904 20.0472 11.8826 20.1005 11.872C20.1539 11.8506 20.2125 11.8453 20.2765 11.856C20.3512 11.856 20.4205 11.856 20.4845 11.856C20.5592 11.856 20.6285 11.8613 20.6925 11.872C20.7565 11.872 20.8259 11.872 20.9005 11.872C21.0499 11.872 21.1832 11.84 21.3005 11.776C21.4285 11.7013 21.4925 11.5786 21.4925 11.408V5.00797C21.4925 4.82664 21.4605 4.68797 21.3965 4.59197C21.3325 4.48531 21.1992 4.43197 20.9965 4.43197C20.8472 4.43197 20.6925 4.44264 20.5325 4.46397C20.3832 4.47464 20.2339 4.49064 20.0845 4.51197C19.9992 4.51197 19.9565 4.46397 19.9565 4.36797C19.9565 4.26131 19.9992 4.19197 20.0845 4.15997C20.2125 4.11731 20.3459 4.09064 20.4845 4.07997C20.6339 4.05864 20.7725 4.03731 20.9005 4.01597C21.1992 3.96264 21.4979 3.90397 21.7965 3.83997C22.0952 3.77597 22.3885 3.70664 22.6765 3.63197C22.7085 3.62131 22.7512 3.61597 22.8045 3.61597C22.9219 3.61597 22.9805 3.67997 22.9805 3.80797C22.9805 5.06664 22.9752 6.33064 22.9645 7.59997C22.9645 8.86931 22.9645 10.1386 22.9645 11.408C22.9645 11.5786 23.0392 11.7013 23.1885 11.776C23.3485 11.84 23.4979 11.872 23.6365 11.872C23.7432 11.872 23.8499 11.8666 23.9565 11.856C24.0739 11.8453 24.1859 11.84 24.2925 11.84C24.3352 11.84 24.3619 11.8666 24.3725 11.92C24.3832 11.9733 24.3885 12.0106 24.3885 12.032ZM23.0925 0.959972C23.0925 1.22664 22.9965 1.45597 22.8045 1.64797C22.6125 1.82931 22.3832 1.91997 22.1165 1.91997C21.8499 1.91997 21.6205 1.82931 21.4285 1.64797C21.2365 1.45597 21.1405 1.22664 21.1405 0.959972C21.1405 0.693305 21.2365 0.469305 21.4285 0.287972C21.6205 0.0959724 21.8499 -2.76566e-05 22.1165 -2.76566e-05C22.3832 -2.76566e-05 22.6125 0.0959724 22.8045 0.287972C22.9965 0.469305 23.0925 0.693305 23.0925 0.959972ZM31.7765 5.15197C31.7765 5.25864 31.7339 5.35997 31.6485 5.45597C31.5739 5.54131 31.4779 5.58397 31.3605 5.58397C31.2005 5.58397 31.0832 5.53064 31.0085 5.42397C30.9445 5.31731 30.8859 5.19464 30.8325 5.05597C30.7899 4.91731 30.7205 4.79464 30.6245 4.68797C30.5285 4.58131 30.3685 4.52797 30.1445 4.52797C30.1019 4.52797 30.0592 4.52797 30.0165 4.52797C29.9845 4.52797 29.9472 4.53331 29.9045 4.54397C29.7232 4.57597 29.5259 4.68797 29.3125 4.87997C29.0992 5.07197 28.8912 5.30131 28.6885 5.56797C28.4965 5.82397 28.3365 6.07997 28.2085 6.33597C28.0805 6.59197 28.0112 6.80531 28.0005 6.97597C27.9899 7.14664 27.9845 7.31731 27.9845 7.48797C27.9845 7.64797 27.9845 7.80797 27.9845 7.96797C27.9845 8.54397 27.9845 9.11997 27.9845 9.69597C27.9952 10.272 28.0005 10.8426 28.0005 11.408C28.0005 11.568 28.0645 11.6853 28.1925 11.76C28.3312 11.824 28.4699 11.856 28.6085 11.856C28.7152 11.856 28.8219 11.8506 28.9285 11.84C29.0352 11.8293 29.1419 11.824 29.2485 11.824C29.3019 11.824 29.3392 11.8506 29.3605 11.904C29.3819 11.9466 29.3925 11.9893 29.3925 12.032C29.3925 12.2026 29.3072 12.288 29.1365 12.288C28.8165 12.288 28.4965 12.2826 28.1765 12.272C27.8565 12.2506 27.5365 12.24 27.2165 12.24C26.8859 12.24 26.5499 12.2506 26.2085 12.272C25.8779 12.2933 25.5419 12.304 25.2005 12.304C25.1579 12.304 25.1259 12.272 25.1045 12.208C25.0939 12.144 25.0885 12.0906 25.0885 12.048C25.0885 11.9413 25.1312 11.8826 25.2165 11.872C25.3339 11.8506 25.4565 11.8453 25.5845 11.856C25.7125 11.8666 25.8299 11.872 25.9365 11.872C26.0965 11.872 26.2245 11.84 26.3205 11.776C26.4272 11.7013 26.4859 11.5786 26.4965 11.408C26.5179 11.0666 26.5285 10.72 26.5285 10.368C26.5392 10.016 26.5445 9.66397 26.5445 9.31197V7.75997C26.5339 7.30131 26.5285 6.84797 26.5285 6.39997C26.5392 5.94131 26.5232 5.48797 26.4805 5.03997C26.4699 4.82664 26.4112 4.67731 26.3045 4.59197C26.1979 4.49597 26.0379 4.44797 25.8245 4.44797C25.7392 4.44797 25.6485 4.45864 25.5525 4.47997C25.4672 4.49064 25.3765 4.49597 25.2805 4.49597C25.1952 4.49597 25.1525 4.43197 25.1525 4.30397C25.1525 4.22931 25.1899 4.17597 25.2645 4.14397C25.3712 4.11197 25.4832 4.09064 25.6005 4.07997C25.7179 4.05864 25.8299 4.04264 25.9365 4.03197C26.2245 3.97864 26.5125 3.92531 26.8005 3.87197C27.0885 3.81864 27.3765 3.75464 27.6645 3.67997C27.7605 3.71197 27.8299 3.77064 27.8725 3.85597C27.8939 3.89864 27.9099 4.01597 27.9205 4.20797C27.9312 4.39997 27.9365 4.62397 27.9365 4.87997C27.9365 5.12531 27.9365 5.35997 27.9365 5.58397C27.9365 5.79731 27.9365 5.94664 27.9365 6.03197C28.1712 5.65864 28.4379 5.28531 28.7365 4.91197C29.0352 4.53864 29.3765 4.22931 29.7605 3.98397C30.1445 3.73864 30.5765 3.61597 31.0565 3.61597C31.3125 3.61597 31.4779 3.69597 31.5525 3.85597C31.6272 4.01597 31.6752 4.20264 31.6965 4.41597C31.7179 4.53331 31.7339 4.65597 31.7445 4.78397C31.7659 4.91197 31.7765 5.03464 31.7765 5.15197ZM38.8859 5.15197C38.8859 5.25864 38.8432 5.35997 38.7579 5.45597C38.6832 5.54131 38.5872 5.58397 38.4699 5.58397C38.3099 5.58397 38.1926 5.53064 38.1179 5.42397C38.0539 5.31731 37.9952 5.19464 37.9419 5.05597C37.8992 4.91731 37.8299 4.79464 37.7339 4.68797C37.6379 4.58131 37.4779 4.52797 37.2539 4.52797C37.2112 4.52797 37.1686 4.52797 37.1259 4.52797C37.0939 4.52797 37.0566 4.53331 37.0139 4.54397C36.8326 4.57597 36.6352 4.68797 36.4219 4.87997C36.2086 5.07197 36.0006 5.30131 35.7979 5.56797C35.6059 5.82397 35.4459 6.07997 35.3179 6.33597C35.1899 6.59197 35.1206 6.80531 35.1099 6.97597C35.0992 7.14664 35.0939 7.31731 35.0939 7.48797C35.0939 7.64797 35.0939 7.80797 35.0939 7.96797C35.0939 8.54397 35.0939 9.11997 35.0939 9.69597C35.1046 10.272 35.1099 10.8426 35.1099 11.408C35.1099 11.568 35.1739 11.6853 35.3019 11.76C35.4406 11.824 35.5792 11.856 35.7179 11.856C35.8246 11.856 35.9312 11.8506 36.0379 11.84C36.1446 11.8293 36.2512 11.824 36.3579 11.824C36.4112 11.824 36.4486 11.8506 36.4699 11.904C36.4912 11.9466 36.5019 11.9893 36.5019 12.032C36.5019 12.2026 36.4166 12.288 36.2459 12.288C35.9259 12.288 35.6059 12.2826 35.2859 12.272C34.9659 12.2506 34.6459 12.24 34.3259 12.24C33.9952 12.24 33.6592 12.2506 33.3179 12.272C32.9872 12.2933 32.6512 12.304 32.3099 12.304C32.2672 12.304 32.2352 12.272 32.2139 12.208C32.2032 12.144 32.1979 12.0906 32.1979 12.048C32.1979 11.9413 32.2406 11.8826 32.3259 11.872C32.4432 11.8506 32.5659 11.8453 32.6939 11.856C32.8219 11.8666 32.9392 11.872 33.0459 11.872C33.2059 11.872 33.3339 11.84 33.4299 11.776C33.5366 11.7013 33.5952 11.5786 33.6059 11.408C33.6272 11.0666 33.6379 10.72 33.6379 10.368C33.6486 10.016 33.6539 9.66397 33.6539 9.31197V7.75997C33.6432 7.30131 33.6379 6.84797 33.6379 6.39997C33.6486 5.94131 33.6326 5.48797 33.5899 5.03997C33.5792 4.82664 33.5206 4.67731 33.4139 4.59197C33.3072 4.49597 33.1472 4.44797 32.9339 4.44797C32.8486 4.44797 32.7579 4.45864 32.6619 4.47997C32.5766 4.49064 32.4859 4.49597 32.3899 4.49597C32.3046 4.49597 32.2619 4.43197 32.2619 4.30397C32.2619 4.22931 32.2992 4.17597 32.3739 4.14397C32.4806 4.11197 32.5926 4.09064 32.7099 4.07997C32.8272 4.05864 32.9392 4.04264 33.0459 4.03197C33.3339 3.97864 33.6219 3.92531 33.9099 3.87197C34.1979 3.81864 34.4859 3.75464 34.7739 3.67997C34.8699 3.71197 34.9392 3.77064 34.9819 3.85597C35.0032 3.89864 35.0192 4.01597 35.0299 4.20797C35.0406 4.39997 35.0459 4.62397 35.0459 4.87997C35.0459 5.12531 35.0459 5.35997 35.0459 5.58397C35.0459 5.79731 35.0459 5.94664 35.0459 6.03197C35.2806 5.65864 35.5472 5.28531 35.8459 4.91197C36.1446 4.53864 36.4859 4.22931 36.8699 3.98397C37.2539 3.73864 37.6859 3.61597 38.1659 3.61597C38.4219 3.61597 38.5872 3.69597 38.6619 3.85597C38.7366 4.01597 38.7846 4.20264 38.8059 4.41597C38.8272 4.53331 38.8432 4.65597 38.8539 4.78397C38.8752 4.91197 38.8859 5.03464 38.8859 5.15197ZM46.5713 8.04797C46.5713 7.58931 46.5339 7.13064 46.4593 6.67197C46.3953 6.20264 46.2673 5.77064 46.0753 5.37597C45.8939 4.98131 45.6273 4.66664 45.2753 4.43197C44.9233 4.18664 44.4646 4.06397 43.8993 4.06397C43.3659 4.06397 42.9286 4.19197 42.5873 4.44797C42.2566 4.70397 41.9953 5.03464 41.8033 5.43997C41.6219 5.84531 41.4939 6.28264 41.4193 6.75197C41.3553 7.22131 41.3233 7.66397 41.3233 8.07997C41.3233 8.53864 41.3553 8.99731 41.4193 9.45597C41.4939 9.91464 41.6273 10.3306 41.8193 10.704C42.0113 11.0666 42.2833 11.36 42.6353 11.584C42.9979 11.808 43.4619 11.92 44.0273 11.92C44.5819 11.92 45.0246 11.8026 45.3553 11.568C45.6966 11.3333 45.9526 11.024 46.1233 10.64C46.3046 10.256 46.4219 9.83997 46.4753 9.39197C46.5393 8.93331 46.5713 8.48531 46.5713 8.04797ZM48.2193 8.09597C48.2193 8.89597 48.0273 9.61597 47.6433 10.256C47.2699 10.896 46.7579 11.4026 46.1073 11.776C45.4673 12.1493 44.7473 12.336 43.9473 12.336C43.1686 12.336 42.4646 12.1493 41.8353 11.776C41.2059 11.392 40.7046 10.8853 40.3313 10.256C39.9579 9.61597 39.7713 8.90664 39.7713 8.12797C39.7713 7.32797 39.9526 6.59197 40.3153 5.91997C40.6779 5.23731 41.1739 4.68797 41.8033 4.27197C42.4433 3.85597 43.1793 3.64797 44.0113 3.64797C44.9073 3.64797 45.6699 3.83997 46.2993 4.22397C46.9286 4.59731 47.4033 5.11997 47.7233 5.79197C48.0539 6.45331 48.2193 7.22131 48.2193 8.09597Z" fill="white"/>
</svg>
