<svg width="127" height="14" viewBox="0 0 127 14" fill="none" xmlns="http://www.w3.org/2000/svg">
<path d="M8.88999 5.50211C8.88999 5.11011 8.84799 4.69945 8.76399 4.27011C8.68933 3.83145 8.56799 3.41145 8.39999 3.01011C8.23199 2.60878 8.00799 2.26811 7.72799 1.98811C7.46666 1.72678 7.15866 1.50745 6.80399 1.33011C6.45866 1.14345 6.09933 1.03145 5.72599 0.994113C5.61399 0.975446 5.49733 0.966113 5.37599 0.966113C5.26399 0.966113 5.15199 0.966113 5.03999 0.966113C4.67599 0.966113 4.31199 0.970779 3.94799 0.980112C3.59333 0.989446 3.23399 0.99878 2.86999 1.00811V9.61811C2.86999 9.89811 2.96333 10.0801 3.14999 10.1641C3.33666 10.2481 3.54666 10.2901 3.77999 10.2901C4.15333 10.2901 4.53599 10.2761 4.92799 10.2481C5.32933 10.2201 5.71666 10.1548 6.08999 10.0521C6.47266 9.94011 6.82266 9.76745 7.13999 9.53411C7.78399 9.05811 8.23666 8.46078 8.49799 7.74211C8.75933 7.01411 8.88999 6.26745 8.88999 5.50211ZM10.444 5.29211C10.444 6.21611 10.248 7.09345 9.85599 7.92411C9.47333 8.75478 8.88066 9.41745 8.07799 9.91211C7.75133 10.1081 7.37333 10.2714 6.94399 10.4021C6.52399 10.5234 6.09466 10.6121 5.65599 10.6681C5.21733 10.7241 4.80666 10.7521 4.42399 10.7521C4.08799 10.7521 3.74733 10.7428 3.40199 10.7241C3.06599 10.7054 2.72533 10.6961 2.37999 10.6961C2.10933 10.6961 1.83399 10.7008 1.55399 10.7101C1.27399 10.7101 0.998661 10.7194 0.727994 10.7381C0.681328 10.7474 0.634661 10.7521 0.587994 10.7521C0.541327 10.7521 0.494661 10.7521 0.447994 10.7521C0.391994 10.7521 0.359328 10.7288 0.349994 10.6821C0.340661 10.6354 0.335994 10.5934 0.335994 10.5561C0.335994 10.4908 0.382661 10.4441 0.475994 10.4161C0.578661 10.3881 0.685994 10.3648 0.797994 10.3461C0.919328 10.3274 1.00333 10.3041 1.04999 10.2761C1.20866 10.1921 1.31133 10.0708 1.35799 9.91211C1.41399 9.74411 1.44199 9.57611 1.44199 9.40811C1.44199 8.89478 1.44199 8.38611 1.44199 7.88211C1.45133 7.36878 1.45599 6.85545 1.45599 6.34211V5.05411C1.45599 4.54078 1.45599 4.03211 1.45599 3.52811C1.45599 3.02411 1.45599 2.51545 1.45599 2.00211C1.45599 1.64745 1.41399 1.39545 1.32999 1.24611C1.24599 1.09678 1.01266 1.02211 0.629994 1.02211C0.564661 1.02211 0.499328 1.02678 0.433994 1.03611C0.377994 1.03611 0.317327 1.03611 0.251994 1.03611C0.186661 1.03611 0.125994 1.01745 0.0699942 0.980112C0.0233275 0.933446 -5.84498e-06 0.877446 -5.84498e-06 0.812113C-5.84498e-06 0.662779 0.0746608 0.588112 0.223994 0.588112C0.438661 0.588112 0.653328 0.597446 0.867994 0.616113C1.08266 0.625446 1.29266 0.630113 1.49799 0.630113C2.18866 0.630113 2.87933 0.611446 3.56999 0.574113C4.26999 0.527446 4.96533 0.504113 5.65599 0.504113C6.65466 0.504113 7.50866 0.695446 8.21799 1.07811C8.93666 1.46078 9.48733 2.01145 9.86999 2.73011C10.2527 3.43945 10.444 4.29345 10.444 5.29211ZM15.53 10.5561C15.53 10.6028 15.516 10.6494 15.488 10.6961C15.46 10.7334 15.4227 10.7521 15.376 10.7521C15.1147 10.7521 14.8534 10.7474 14.592 10.7381C14.34 10.7194 14.0787 10.7101 13.808 10.7101H13.43C13.15 10.7101 12.87 10.7194 12.59 10.7381C12.3194 10.7474 12.0487 10.7521 11.778 10.7521C11.7407 10.7521 11.7127 10.7288 11.694 10.6821C11.6847 10.6354 11.68 10.5981 11.68 10.5701C11.68 10.5234 11.6847 10.4908 11.694 10.4721C11.7034 10.4441 11.7314 10.4254 11.778 10.4161C11.8247 10.3974 11.876 10.3928 11.932 10.4021C11.9974 10.4021 12.058 10.4021 12.114 10.4021C12.1794 10.4021 12.24 10.4068 12.296 10.4161C12.352 10.4161 12.4127 10.4161 12.478 10.4161C12.6087 10.4161 12.7254 10.3881 12.828 10.3321C12.94 10.2668 12.996 10.1594 12.996 10.0101V4.41011C12.996 4.25145 12.968 4.13011 12.912 4.04611C12.856 3.95278 12.7394 3.90611 12.562 3.90611C12.4314 3.90611 12.296 3.91545 12.156 3.93411C12.0254 3.94345 11.8947 3.95745 11.764 3.97611C11.6894 3.97611 11.652 3.93411 11.652 3.85011C11.652 3.75678 11.6894 3.69611 11.764 3.66811C11.876 3.63078 11.9927 3.60745 12.114 3.59811C12.2447 3.57945 12.366 3.56078 12.478 3.54211C12.7394 3.49545 13.0007 3.44411 13.262 3.38811C13.5234 3.33211 13.78 3.27145 14.032 3.20611C14.06 3.19678 14.0974 3.19211 14.144 3.19211C14.2467 3.19211 14.298 3.24811 14.298 3.36011C14.298 4.46145 14.2934 5.56745 14.284 6.67811C14.284 7.78878 14.284 8.89945 14.284 10.0101C14.284 10.1594 14.3494 10.2668 14.48 10.3321C14.62 10.3881 14.7507 10.4161 14.872 10.4161C14.9654 10.4161 15.0587 10.4114 15.152 10.4021C15.2547 10.3928 15.3527 10.3881 15.446 10.3881C15.4834 10.3881 15.5067 10.4114 15.516 10.4581C15.5254 10.5048 15.53 10.5374 15.53 10.5561ZM14.396 0.868113C14.396 1.10145 14.312 1.30211 14.144 1.47011C13.976 1.62878 13.7754 1.70811 13.542 1.70811C13.3087 1.70811 13.108 1.62878 12.94 1.47011C12.772 1.30211 12.688 1.10145 12.688 0.868113C12.688 0.634779 12.772 0.438779 12.94 0.280113C13.108 0.112113 13.3087 0.028113 13.542 0.028113C13.7754 0.028113 13.976 0.112113 14.144 0.280113C14.312 0.438779 14.396 0.634779 14.396 0.868113ZM21.6865 11.2141C21.6865 10.8408 21.5792 10.5748 21.3645 10.4161C21.1592 10.2481 20.9072 10.1408 20.6085 10.0941C20.3099 10.0381 20.0205 9.99611 19.7405 9.96811L18.1725 9.81411C17.9672 10.0381 17.8132 10.2621 17.7105 10.4861C17.6172 10.7008 17.5705 10.9621 17.5705 11.2701C17.5705 11.7181 17.6779 12.0401 17.8925 12.2361C18.1165 12.4414 18.3965 12.5721 18.7325 12.6281C19.0685 12.6841 19.4092 12.7121 19.7545 12.7121C20.0905 12.7121 20.4032 12.6654 20.6925 12.5721C20.9912 12.4788 21.2292 12.3201 21.4065 12.0961C21.5932 11.8814 21.6865 11.5874 21.6865 11.2141ZM21.0005 5.61411C21.0005 5.32478 20.9679 5.01678 20.9025 4.69011C20.8372 4.36345 20.7065 4.08345 20.5105 3.85011C20.3239 3.61678 20.0485 3.50011 19.6845 3.50011C19.2739 3.50011 18.9565 3.60745 18.7325 3.82211C18.5085 4.02745 18.3545 4.29345 18.2705 4.62011C18.1959 4.93745 18.1585 5.26878 18.1585 5.61411C18.1585 5.97811 18.1912 6.32345 18.2565 6.65011C18.3312 6.96745 18.4759 7.22878 18.6905 7.43411C18.9145 7.63945 19.2459 7.74211 19.6845 7.74211C19.9552 7.74211 20.1745 7.67211 20.3425 7.53211C20.5199 7.39211 20.6552 7.21478 20.7485 7.00011C20.8419 6.77611 20.9072 6.54278 20.9445 6.30011C20.9819 6.05745 21.0005 5.82878 21.0005 5.61411ZM23.4925 3.31811C23.4925 3.51411 23.4505 3.64945 23.3665 3.72411C23.2919 3.78945 23.1892 3.82678 23.0585 3.83611C22.9372 3.83611 22.8065 3.83611 22.6665 3.83611C22.4612 3.83611 22.2512 3.83611 22.0365 3.83611C21.8312 3.82678 21.6212 3.81745 21.4065 3.80811C21.7052 4.04145 21.9245 4.32145 22.0645 4.64811C22.2139 4.97478 22.2885 5.32478 22.2885 5.69811C22.2885 6.15545 22.1579 6.56145 21.8965 6.91611C21.6445 7.26145 21.3179 7.53211 20.9165 7.72811C20.5152 7.92411 20.0999 8.02211 19.6705 8.02211C19.5212 8.02211 19.3765 8.01745 19.2365 8.00811C19.0965 7.98945 18.9519 7.97545 18.8025 7.96611C18.6812 8.07811 18.5412 8.19945 18.3825 8.33011C18.2332 8.46078 18.1585 8.61945 18.1585 8.80611C18.1585 8.95545 18.2285 9.06745 18.3685 9.14211C18.5179 9.20745 18.6812 9.25411 18.8585 9.28211C19.0359 9.31011 19.1759 9.32878 19.2785 9.33811L21.0565 9.46411C21.3739 9.49211 21.6819 9.56211 21.9805 9.67411C22.2885 9.77678 22.5452 9.94011 22.7505 10.1641C22.9559 10.3788 23.0585 10.6728 23.0585 11.0461C23.0585 11.4381 22.9419 11.7648 22.7085 12.0261C22.4845 12.2874 22.1905 12.4974 21.8265 12.6561C21.4719 12.8148 21.1032 12.9268 20.7205 12.9921C20.3379 13.0574 19.9925 13.0901 19.6845 13.0901C19.4419 13.0901 19.1385 13.0761 18.7745 13.0481C18.4105 13.0294 18.0512 12.9734 17.6965 12.8801C17.3419 12.7868 17.0432 12.6374 16.8005 12.4321C16.5672 12.2361 16.4505 11.9654 16.4505 11.6201C16.4505 11.3681 16.5112 11.1301 16.6325 10.9061C16.7539 10.6914 16.9032 10.4908 17.0805 10.3041C17.2672 10.1174 17.4492 9.95411 17.6265 9.81411C17.5239 9.76745 17.3839 9.69745 17.2065 9.60411C17.0385 9.50145 16.9545 9.38478 16.9545 9.25411C16.9545 9.09545 17.0385 8.91811 17.2065 8.72211C17.3839 8.52611 17.5752 8.33945 17.7805 8.16211C17.9859 7.97545 18.1445 7.83078 18.2565 7.72811C17.7805 7.50411 17.4259 7.21945 17.1925 6.87411C16.9685 6.51945 16.8565 6.08078 16.8565 5.55811C16.8565 5.07278 16.9919 4.65745 17.2625 4.31211C17.5425 3.95745 17.8925 3.68678 18.3125 3.50011C18.7419 3.30411 19.1759 3.20611 19.6145 3.20611C19.7732 3.20611 19.9319 3.22011 20.0905 3.24811C20.2492 3.26678 20.4032 3.29945 20.5525 3.34611C20.6272 3.36478 20.7065 3.39278 20.7905 3.43011C20.8839 3.45811 20.9679 3.47678 21.0425 3.48611C21.1079 3.49545 21.1685 3.50011 21.2245 3.50011C21.2899 3.50011 21.3552 3.50011 21.4205 3.50011C21.7565 3.50011 22.0785 3.47678 22.3865 3.43011C22.6945 3.37411 22.9699 3.21545 23.2125 2.95411C23.2685 2.89811 23.3152 2.87011 23.3525 2.87011C23.4272 2.87011 23.4692 2.93545 23.4785 3.06611C23.4879 3.18745 23.4925 3.27145 23.4925 3.31811ZM28.0672 10.5561C28.0672 10.6028 28.0532 10.6494 28.0252 10.6961C27.9972 10.7334 27.9598 10.7521 27.9132 10.7521C27.6518 10.7521 27.3905 10.7474 27.1292 10.7381C26.8772 10.7194 26.6158 10.7101 26.3452 10.7101H25.9672C25.6872 10.7101 25.4072 10.7194 25.1272 10.7381C24.8565 10.7474 24.5858 10.7521 24.3152 10.7521C24.2778 10.7521 24.2498 10.7288 24.2312 10.6821C24.2218 10.6354 24.2172 10.5981 24.2172 10.5701C24.2172 10.5234 24.2218 10.4908 24.2312 10.4721C24.2405 10.4441 24.2685 10.4254 24.3152 10.4161C24.3618 10.3974 24.4132 10.3928 24.4692 10.4021C24.5345 10.4021 24.5952 10.4021 24.6512 10.4021C24.7165 10.4021 24.7772 10.4068 24.8332 10.4161C24.8892 10.4161 24.9498 10.4161 25.0152 10.4161C25.1458 10.4161 25.2625 10.3881 25.3652 10.3321C25.4772 10.2668 25.5332 10.1594 25.5332 10.0101V4.41011C25.5332 4.25145 25.5052 4.13011 25.4492 4.04611C25.3932 3.95278 25.2765 3.90611 25.0992 3.90611C24.9685 3.90611 24.8332 3.91545 24.6932 3.93411C24.5625 3.94345 24.4318 3.95745 24.3012 3.97611C24.2265 3.97611 24.1892 3.93411 24.1892 3.85011C24.1892 3.75678 24.2265 3.69611 24.3012 3.66811C24.4132 3.63078 24.5298 3.60745 24.6512 3.59811C24.7818 3.57945 24.9032 3.56078 25.0152 3.54211C25.2765 3.49545 25.5378 3.44411 25.7992 3.38811C26.0605 3.33211 26.3172 3.27145 26.5692 3.20611C26.5972 3.19678 26.6345 3.19211 26.6812 3.19211C26.7838 3.19211 26.8352 3.24811 26.8352 3.36011C26.8352 4.46145 26.8305 5.56745 26.8212 6.67811C26.8212 7.78878 26.8212 8.89945 26.8212 10.0101C26.8212 10.1594 26.8865 10.2668 27.0172 10.3321C27.1572 10.3881 27.2878 10.4161 27.4092 10.4161C27.5025 10.4161 27.5958 10.4114 27.6892 10.4021C27.7918 10.3928 27.8898 10.3881 27.9832 10.3881C28.0205 10.3881 28.0438 10.4114 28.0532 10.4581C28.0625 10.5048 28.0672 10.5374 28.0672 10.5561ZM26.9332 0.868113C26.9332 1.10145 26.8492 1.30211 26.6812 1.47011C26.5132 1.62878 26.3125 1.70811 26.0792 1.70811C25.8458 1.70811 25.6452 1.62878 25.4772 1.47011C25.3092 1.30211 25.2252 1.10145 25.2252 0.868113C25.2252 0.634779 25.3092 0.438779 25.4772 0.280113C25.6452 0.112113 25.8458 0.028113 26.0792 0.028113C26.3125 0.028113 26.5132 0.112113 26.6812 0.280113C26.8492 0.438779 26.9332 0.634779 26.9332 0.868113ZM33.5377 10.1221C33.5377 10.2061 33.4723 10.2901 33.3417 10.3741C33.2203 10.4581 33.071 10.5328 32.8937 10.5981C32.7163 10.6634 32.5437 10.7148 32.3757 10.7521C32.217 10.7894 32.1003 10.8081 32.0257 10.8081C31.5403 10.8081 31.1623 10.7474 30.8917 10.6261C30.6303 10.5048 30.4437 10.3041 30.3317 10.0241C30.229 9.74411 30.1777 9.36611 30.1777 8.89011C30.1777 8.11545 30.1777 7.34078 30.1777 6.56611C30.187 5.78211 30.1963 5.00278 30.2057 4.22811H29.1977C29.1323 4.22811 29.0763 4.24678 29.0297 4.28411C28.9923 4.31211 28.9503 4.32611 28.9037 4.32611C28.857 4.32611 28.8337 4.29345 28.8337 4.22811C28.8337 4.19078 28.857 4.11611 28.9037 4.00411C28.9597 3.89211 28.997 3.81745 29.0157 3.78011C29.0437 3.78945 29.0857 3.79411 29.1417 3.79411H30.2337L30.2477 2.01611C30.4623 1.87611 30.6583 1.72211 30.8357 1.55411C31.013 1.37678 31.1903 1.19945 31.3677 1.02211C31.3863 1.00345 31.405 0.989446 31.4237 0.980112C31.4423 0.961446 31.461 0.952113 31.4797 0.952113C31.5637 0.952113 31.6057 0.98478 31.6057 1.05011L31.5217 3.78011C31.8203 3.78011 32.1143 3.77545 32.4037 3.76611C32.7023 3.75678 32.9963 3.75211 33.2857 3.75211C33.407 3.75211 33.4677 3.82211 33.4677 3.96211C33.4677 4.13945 33.3883 4.22811 33.2297 4.22811H31.5217C31.5217 4.93745 31.517 5.65145 31.5077 6.37011C31.5077 7.07945 31.5077 7.79345 31.5077 8.51211V9.59011C31.5077 9.82345 31.6057 9.98678 31.8017 10.0801C31.9977 10.1641 32.189 10.2061 32.3757 10.2061C32.637 10.2061 32.8937 10.1641 33.1457 10.0801C33.1737 10.0614 33.2157 10.0428 33.2717 10.0241C33.3277 10.0054 33.3697 9.99611 33.3977 9.99611C33.491 9.99611 33.5377 10.0381 33.5377 10.1221ZM39.3626 5.85211C39.3533 5.46945 39.3206 5.10545 39.2646 4.76011C39.2086 4.40545 39.0733 4.11611 38.8586 3.89211C38.644 3.65878 38.294 3.54211 37.8086 3.54211C37.37 3.54211 37.0106 3.66345 36.7306 3.90611C36.46 4.13945 36.25 4.43811 36.1006 4.80211C35.9513 5.15678 35.8393 5.52078 35.7646 5.89411C35.998 5.90345 36.2266 5.91278 36.4506 5.92211C36.6746 5.92211 36.8986 5.92211 37.1226 5.92211C37.496 5.92211 37.8693 5.91745 38.2426 5.90811C38.616 5.88945 38.9893 5.87078 39.3626 5.85211ZM40.9726 9.05811C40.9726 9.10478 40.9633 9.13278 40.9446 9.14211C40.9166 9.23545 40.8466 9.34745 40.7346 9.47811C40.632 9.60878 40.5153 9.73478 40.3846 9.85611C40.254 9.96811 40.1466 10.0521 40.0626 10.1081C39.7546 10.3228 39.4046 10.4954 39.0126 10.6261C38.63 10.7568 38.2473 10.8221 37.8646 10.8221C37.5473 10.8221 37.1926 10.7708 36.8006 10.6681C36.418 10.5654 36.0913 10.4254 35.8206 10.2481C35.298 9.90278 34.9153 9.45011 34.6726 8.89011C34.43 8.33011 34.3086 7.74678 34.3086 7.14011C34.3086 6.44945 34.444 5.81011 34.7146 5.22211C34.9853 4.63411 35.4193 4.15811 36.0166 3.79411C36.2873 3.63545 36.5906 3.50478 36.9266 3.40211C37.2626 3.29011 37.5846 3.23411 37.8926 3.23411C38.4433 3.23411 38.9286 3.34611 39.3486 3.57011C39.7686 3.79411 40.0953 4.11145 40.3286 4.52211C40.5713 4.92345 40.6926 5.40411 40.6926 5.96411C40.6926 6.12278 40.6553 6.22545 40.5806 6.27211C40.5153 6.31878 40.4126 6.34211 40.2726 6.34211C40.086 6.34211 39.8993 6.33745 39.7126 6.32811C39.526 6.31878 39.3393 6.30945 39.1526 6.30011C38.8913 6.28145 38.63 6.27211 38.3686 6.27211C38.1166 6.27211 37.86 6.27211 37.5986 6.27211C37.2813 6.27211 36.964 6.27211 36.6466 6.27211C36.3293 6.27211 36.012 6.28145 35.6946 6.30011C35.6853 6.44945 35.676 6.59411 35.6666 6.73411C35.6573 6.87411 35.6526 7.01878 35.6526 7.16811C35.6526 7.51345 35.6946 7.87278 35.7786 8.24611C35.8626 8.61011 35.998 8.95078 36.1846 9.26811C36.3713 9.57611 36.6093 9.82811 36.8986 10.0241C37.188 10.2108 37.538 10.3041 37.9486 10.3041C38.3686 10.3041 38.77 10.2388 39.1526 10.1081C39.5353 9.97745 39.8853 9.76745 40.2026 9.47811C40.2866 9.39411 40.3613 9.30545 40.4266 9.21211C40.5013 9.10945 40.5806 9.02078 40.6646 8.94611C40.7113 8.89945 40.7626 8.87611 40.8186 8.87611C40.8653 8.87611 40.9026 8.89478 40.9306 8.93211C40.9586 8.96945 40.9726 9.01145 40.9726 9.05811ZM50.5755 8.76411C50.5755 9.18411 50.4822 9.52945 50.2955 9.80011C50.1089 10.0614 49.8662 10.2621 49.5675 10.4021C49.2689 10.5421 48.9422 10.6401 48.5875 10.6961C48.2329 10.7521 47.8875 10.7801 47.5515 10.7801C47.2435 10.7801 46.9355 10.7474 46.6275 10.6821C46.3289 10.6168 46.0255 10.5701 45.7175 10.5421C45.6522 10.2901 45.5869 10.0381 45.5215 9.78611C45.4655 9.53411 45.4002 9.28678 45.3255 9.04411C45.3162 9.01611 45.2929 8.95078 45.2555 8.84811C45.2275 8.74545 45.2135 8.68945 45.2135 8.68011C45.2135 8.60545 45.2369 8.55411 45.2835 8.52611C45.3302 8.48878 45.3862 8.47011 45.4515 8.47011C45.5169 8.47011 45.5635 8.49345 45.5915 8.54011C45.6475 8.60545 45.6942 8.69411 45.7315 8.80611C45.7782 8.91811 45.8202 9.01611 45.8575 9.10011C45.9322 9.24945 45.9975 9.36611 46.0535 9.45011C46.1095 9.52478 46.1982 9.62278 46.3195 9.74411C46.6835 10.1268 47.1362 10.3181 47.6775 10.3181C47.9762 10.3181 48.2469 10.2854 48.4895 10.2201C48.7415 10.1548 48.9422 10.0334 49.0915 9.85611C49.2409 9.66945 49.3155 9.40345 49.3155 9.05811C49.3155 8.75945 49.2222 8.51211 49.0355 8.31611C48.8489 8.11078 48.6062 7.92878 48.3075 7.77011C48.0182 7.61145 47.7102 7.45745 47.3835 7.30811C47.0569 7.15878 46.7442 6.99545 46.4455 6.81811C46.1562 6.63145 45.9182 6.40745 45.7315 6.14611C45.5449 5.88478 45.4515 5.56745 45.4515 5.19411C45.4515 4.73678 45.5682 4.36345 45.8015 4.07411C46.0442 3.78478 46.3522 3.57011 46.7255 3.43011C47.0989 3.28078 47.4862 3.20611 47.8875 3.20611C48.1489 3.20611 48.3822 3.23878 48.5875 3.30411C48.8022 3.36945 49.0262 3.44411 49.2595 3.52811C49.3342 3.55611 49.4089 3.57478 49.4835 3.58411C49.5582 3.59345 49.6329 3.59811 49.7075 3.59811C49.7542 3.59811 49.7962 3.59811 49.8335 3.59811C49.8709 3.59811 49.9082 3.59345 49.9455 3.58411C49.9735 3.75211 49.9969 3.92478 50.0155 4.10211C50.0435 4.27011 50.0669 4.44278 50.0855 4.62011C50.0949 4.68545 50.1042 4.76478 50.1135 4.85811C50.1322 4.94211 50.1415 5.02145 50.1415 5.09611C50.1415 5.16145 50.1275 5.23145 50.0995 5.30611C50.0715 5.37145 50.0155 5.40411 49.9315 5.40411C49.8662 5.40411 49.8102 5.39945 49.7635 5.39011C49.7262 5.37145 49.6935 5.32945 49.6655 5.26411C49.6189 5.17078 49.5769 5.07278 49.5395 4.97011C49.5115 4.85811 49.4789 4.75545 49.4415 4.66211C49.3202 4.33545 49.1102 4.07411 48.8115 3.87811C48.5129 3.67278 48.1909 3.57011 47.8455 3.57011C47.4069 3.57011 47.0755 3.70078 46.8515 3.96211C46.6275 4.21411 46.5155 4.55478 46.5155 4.98411C46.5155 5.13345 46.5529 5.27811 46.6275 5.41811C46.7115 5.55811 46.8049 5.67945 46.9075 5.78211C47.1035 5.96878 47.3322 6.11345 47.5935 6.21611C47.8642 6.31878 48.1209 6.42145 48.3635 6.52411C48.6809 6.66411 49.0075 6.83211 49.3435 7.02811C49.6889 7.22411 49.9782 7.46211 50.2115 7.74211C50.4542 8.02211 50.5755 8.36278 50.5755 8.76411ZM56.7396 5.85211C56.7303 5.46945 56.6976 5.10545 56.6416 4.76011C56.5856 4.40545 56.4503 4.11611 56.2356 3.89211C56.0209 3.65878 55.6709 3.54211 55.1856 3.54211C54.7469 3.54211 54.3876 3.66345 54.1076 3.90611C53.8369 4.13945 53.6269 4.43811 53.4776 4.80211C53.3283 5.15678 53.2163 5.52078 53.1416 5.89411C53.3749 5.90345 53.6036 5.91278 53.8276 5.92211C54.0516 5.92211 54.2756 5.92211 54.4996 5.92211C54.8729 5.92211 55.2463 5.91745 55.6196 5.90811C55.9929 5.88945 56.3663 5.87078 56.7396 5.85211ZM58.3496 9.05811C58.3496 9.10478 58.3403 9.13278 58.3216 9.14211C58.2936 9.23545 58.2236 9.34745 58.1116 9.47811C58.0089 9.60878 57.8923 9.73478 57.7616 9.85611C57.6309 9.96811 57.5236 10.0521 57.4396 10.1081C57.1316 10.3228 56.7816 10.4954 56.3896 10.6261C56.0069 10.7568 55.6243 10.8221 55.2416 10.8221C54.9243 10.8221 54.5696 10.7708 54.1776 10.6681C53.7949 10.5654 53.4683 10.4254 53.1976 10.2481C52.6749 9.90278 52.2923 9.45011 52.0496 8.89011C51.8069 8.33011 51.6856 7.74678 51.6856 7.14011C51.6856 6.44945 51.8209 5.81011 52.0916 5.22211C52.3623 4.63411 52.7963 4.15811 53.3936 3.79411C53.6643 3.63545 53.9676 3.50478 54.3036 3.40211C54.6396 3.29011 54.9616 3.23411 55.2696 3.23411C55.8203 3.23411 56.3056 3.34611 56.7256 3.57011C57.1456 3.79411 57.4723 4.11145 57.7056 4.52211C57.9483 4.92345 58.0696 5.40411 58.0696 5.96411C58.0696 6.12278 58.0323 6.22545 57.9576 6.27211C57.8923 6.31878 57.7896 6.34211 57.6496 6.34211C57.4629 6.34211 57.2763 6.33745 57.0896 6.32811C56.9029 6.31878 56.7163 6.30945 56.5296 6.30011C56.2683 6.28145 56.0069 6.27211 55.7456 6.27211C55.4936 6.27211 55.2369 6.27211 54.9756 6.27211C54.6583 6.27211 54.3409 6.27211 54.0236 6.27211C53.7063 6.27211 53.3889 6.28145 53.0716 6.30011C53.0623 6.44945 53.0529 6.59411 53.0436 6.73411C53.0343 6.87411 53.0296 7.01878 53.0296 7.16811C53.0296 7.51345 53.0716 7.87278 53.1556 8.24611C53.2396 8.61011 53.3749 8.95078 53.5616 9.26811C53.7483 9.57611 53.9863 9.82811 54.2756 10.0241C54.5649 10.2108 54.9149 10.3041 55.3256 10.3041C55.7456 10.3041 56.1469 10.2388 56.5296 10.1081C56.9123 9.97745 57.2623 9.76745 57.5796 9.47811C57.6636 9.39411 57.7383 9.30545 57.8036 9.21211C57.8783 9.10945 57.9576 9.02078 58.0416 8.94611C58.0883 8.89945 58.1396 8.87611 58.1956 8.87611C58.2423 8.87611 58.2796 8.89478 58.3076 8.93211C58.3356 8.96945 58.3496 9.01145 58.3496 9.05811ZM67.3085 10.3881C67.3085 10.5001 67.2245 10.5841 67.0565 10.6401C66.8978 10.6961 66.7205 10.7334 66.5245 10.7521C66.3285 10.7708 66.1885 10.7801 66.1045 10.7801C65.7872 10.7801 65.5352 10.6541 65.3485 10.4021C65.1618 10.1501 65.0218 9.88878 64.9285 9.61811C64.6112 10.0194 64.2145 10.3181 63.7385 10.5141C63.2625 10.7101 62.7678 10.8081 62.2545 10.8081C61.4145 10.8081 60.8312 10.5934 60.5045 10.1641C60.1872 9.72545 60.0285 9.10945 60.0285 8.31611C60.0285 7.61611 60.0285 6.91611 60.0285 6.21611C60.0378 5.50678 60.0472 4.80211 60.0565 4.10211C60.0565 3.82211 59.9212 3.68211 59.6505 3.68211C59.5758 3.68211 59.5012 3.68678 59.4265 3.69611C59.3518 3.70545 59.2772 3.71011 59.2025 3.71011C59.1745 3.71011 59.1512 3.69611 59.1325 3.66811C59.1232 3.63078 59.1185 3.60278 59.1185 3.58411C59.1185 3.48145 59.1652 3.42545 59.2585 3.41611C59.5852 3.37878 59.9118 3.35545 60.2385 3.34611C60.5745 3.32745 60.9058 3.29945 61.2325 3.26211C61.3072 3.33678 61.3445 3.43011 61.3445 3.54211C61.3445 3.77545 61.3398 4.01345 61.3305 4.25611C61.3212 4.49878 61.3165 4.74145 61.3165 4.98411C61.3072 5.55345 61.2978 6.12745 61.2885 6.70611C61.2885 7.27545 61.2885 7.84945 61.2885 8.42811C61.2885 8.60545 61.2932 8.79678 61.3025 9.00211C61.3118 9.19811 61.3492 9.38011 61.4145 9.54811C61.5172 9.80945 61.7085 9.99611 61.9885 10.1081C62.2778 10.2108 62.5532 10.2621 62.8145 10.2621C63.1038 10.2621 63.3932 10.2108 63.6825 10.1081C63.9812 9.99611 64.2332 9.83745 64.4385 9.63211C64.6532 9.41745 64.7745 9.15145 64.8025 8.83411C64.8212 8.67545 64.8305 8.51678 64.8305 8.35811C64.8398 8.19011 64.8445 8.02678 64.8445 7.86811L64.8305 4.06011C64.8305 3.93878 64.7885 3.85011 64.7045 3.79411C64.6298 3.73811 64.5412 3.71011 64.4385 3.71011C64.3452 3.71011 64.2518 3.71478 64.1585 3.72411C64.0745 3.73345 63.9858 3.73811 63.8925 3.73811C63.8085 3.73811 63.7665 3.69145 63.7665 3.59811C63.7665 3.50478 63.8085 3.45345 63.8925 3.44411C64.0045 3.42545 64.1212 3.41611 64.2425 3.41611C64.3638 3.40678 64.4852 3.39745 64.6065 3.38811L65.5725 3.29011C65.6378 3.28078 65.7032 3.27145 65.7685 3.26211C65.8432 3.25278 65.9132 3.24811 65.9785 3.24811C66.0252 3.24811 66.0578 3.27611 66.0765 3.33211C66.0952 3.37878 66.1045 3.41611 66.1045 3.44411C66.0765 5.46945 66.0625 7.49011 66.0625 9.50611C66.0625 9.73945 66.1138 9.93078 66.2165 10.0801C66.3285 10.2294 66.5105 10.3041 66.7625 10.3041C66.8372 10.3041 66.9025 10.2948 66.9585 10.2761C67.0238 10.2574 67.0892 10.2481 67.1545 10.2481C67.2572 10.2481 67.3085 10.2948 67.3085 10.3881ZM77.6535 6.81811C77.6535 6.48211 77.6208 6.14145 77.5555 5.79611C77.4902 5.45078 77.3828 5.13811 77.2335 4.85811C77.0842 4.56878 76.8742 4.33545 76.6035 4.15811C76.3422 3.98078 76.0062 3.89211 75.5955 3.89211C75.4182 3.89211 75.2035 3.94345 74.9515 4.04611C74.7088 4.13945 74.5222 4.25145 74.3915 4.38211C74.2142 4.55011 74.0788 4.73211 73.9855 4.92811C73.8922 5.12411 73.8408 5.34811 73.8315 5.60011L73.8175 7.95211C73.8175 8.21345 73.8175 8.47945 73.8175 8.75011C73.8175 9.01145 73.8175 9.27745 73.8175 9.54811C73.8175 9.61345 73.8222 9.70211 73.8315 9.81411C73.8502 9.91678 73.8688 9.99145 73.8875 10.0381C73.9622 10.1874 74.1068 10.2854 74.3215 10.3321C74.5455 10.3694 74.7275 10.3881 74.8675 10.3881C75.3715 10.3881 75.8008 10.2854 76.1555 10.0801C76.5102 9.87478 76.7948 9.59945 77.0095 9.25411C77.2335 8.90878 77.3968 8.52611 77.4995 8.10611C77.6022 7.67678 77.6535 7.24745 77.6535 6.81811ZM79.0535 6.83211C79.0535 7.57878 78.8855 8.25078 78.5495 8.84811C78.2228 9.44545 77.7655 9.91678 77.1775 10.2621C76.5988 10.5981 75.9268 10.7661 75.1615 10.7661C74.8255 10.7661 74.4895 10.7194 74.1535 10.6261C73.8175 10.5328 73.5002 10.4861 73.2015 10.4861C73.1362 10.4861 73.0662 10.4908 72.9915 10.5001C72.9168 10.5094 72.8422 10.5141 72.7675 10.5141C72.6088 10.5141 72.5295 10.4301 72.5295 10.2621C72.5295 10.2061 72.5388 10.1408 72.5575 10.0661C72.5762 9.88878 72.5855 9.71145 72.5855 9.53411C72.5855 9.35678 72.5902 9.17945 72.5995 9.00211C72.5995 8.79678 72.5995 8.59611 72.5995 8.40011C72.6088 8.19478 72.6135 7.98945 72.6135 7.78411C72.6135 6.66411 72.6042 5.54411 72.5855 4.42411C72.5762 3.30411 72.5715 2.18411 72.5715 1.06411C72.5715 0.933446 72.5295 0.849446 72.4455 0.812113C72.3615 0.77478 72.2635 0.756113 72.1515 0.756113C72.0302 0.756113 71.9042 0.765446 71.7735 0.784112C71.6428 0.793446 71.5122 0.798113 71.3815 0.798113C71.3442 0.798113 71.3022 0.784113 71.2555 0.756113C71.2182 0.718779 71.1995 0.676779 71.1995 0.630113C71.1995 0.574113 71.2275 0.53678 71.2835 0.518113C71.3395 0.490113 71.3862 0.471446 71.4235 0.462112C71.7502 0.396779 72.0768 0.34078 72.4035 0.294113C72.7395 0.247446 73.0662 0.182113 73.3835 0.0981129C73.4395 0.079446 73.4955 0.0607793 73.5515 0.0421128C73.6168 0.0141126 73.6775 0.000112534 73.7335 0.000112534C73.7988 0.000112534 73.8268 0.0421125 73.8175 0.126113C73.8175 0.210113 73.8175 0.275446 73.8175 0.322113V4.22811C74.1162 3.97611 74.4615 3.76611 74.8535 3.59811C75.2548 3.43011 75.6515 3.34611 76.0435 3.34611C76.7062 3.34611 77.2615 3.50945 77.7095 3.83611C78.1575 4.16278 78.4935 4.59211 78.7175 5.12411C78.9415 5.64678 79.0535 6.21611 79.0535 6.83211ZM84.5604 9.12811C84.5231 8.70811 84.4998 8.28811 84.4904 7.86811C84.4904 7.43878 84.4858 7.00945 84.4764 6.58011H84.2804C83.9911 6.58011 83.6691 6.62678 83.3144 6.72011C82.9691 6.80411 82.6378 6.93478 82.3204 7.11211C82.0031 7.28945 81.7418 7.51345 81.5364 7.78411C81.3404 8.04545 81.2424 8.34878 81.2424 8.69411C81.2424 9.14211 81.3684 9.48278 81.6204 9.71611C81.8724 9.94011 82.2131 10.0521 82.6424 10.0521C82.8478 10.0521 83.0718 10.0054 83.3144 9.91211C83.5571 9.80945 83.7904 9.68811 84.0144 9.54811C84.2384 9.40811 84.4204 9.26811 84.5604 9.12811ZM87.0104 10.0241C87.0104 10.0614 87.0058 10.0894 86.9964 10.1081C86.9031 10.3134 86.7444 10.4721 86.5204 10.5841C86.3058 10.6868 86.0911 10.7381 85.8764 10.7381C85.4844 10.7381 85.1998 10.6261 85.0224 10.4021C84.8544 10.1688 84.7191 9.88411 84.6164 9.54811C84.2618 9.87478 83.8698 10.1501 83.4404 10.3741C83.0111 10.5888 82.5491 10.6961 82.0544 10.6961C81.7091 10.6961 81.3824 10.6308 81.0744 10.5001C80.7758 10.3601 80.5331 10.1594 80.3464 9.89811C80.1598 9.63678 80.0664 9.31945 80.0664 8.94611C80.0664 8.55411 80.1644 8.21811 80.3604 7.93811C80.5658 7.64878 80.8224 7.40611 81.1304 7.21011C81.4478 7.00478 81.7838 6.84145 82.1384 6.72011C82.5024 6.58945 82.8431 6.49145 83.1604 6.42611C83.3751 6.37945 83.5944 6.33745 83.8184 6.30011C84.0424 6.26278 84.2618 6.22545 84.4764 6.18811C84.4764 5.92678 84.4624 5.62345 84.4344 5.27811C84.4158 4.93278 84.3458 4.64811 84.2244 4.42411C84.1031 4.20945 83.9398 4.01811 83.7344 3.85011C83.5291 3.68211 83.3004 3.59811 83.0484 3.59811C82.6191 3.59811 82.2831 3.71011 82.0404 3.93411C81.7978 4.15811 81.6251 4.47545 81.5224 4.88611C81.5131 4.93278 81.5038 4.98411 81.4944 5.04011C81.4944 5.08678 81.4898 5.13345 81.4804 5.18011C81.4711 5.23611 81.4338 5.28745 81.3684 5.33411C81.3124 5.37145 81.2518 5.39011 81.1864 5.39011C81.0091 5.39011 80.8458 5.34811 80.6964 5.26411C80.5564 5.18011 80.4864 5.04011 80.4864 4.84411C80.4864 4.73211 80.5051 4.63411 80.5424 4.55011C80.6638 4.26078 80.8598 4.02278 81.1304 3.83611C81.4011 3.64011 81.6998 3.49078 82.0264 3.38811C82.3624 3.28545 82.6751 3.23411 82.9644 3.23411C83.4684 3.23411 83.9258 3.32745 84.3364 3.51411C84.7471 3.70078 85.0738 3.97611 85.3164 4.34011C85.5684 4.69478 85.6944 5.14278 85.6944 5.68411C85.6944 6.29078 85.6898 6.90211 85.6804 7.51811C85.6804 8.13411 85.6991 8.75011 85.7364 9.36611C85.7458 9.57145 85.7878 9.75345 85.8624 9.91211C85.9371 10.0614 86.0911 10.1361 86.3244 10.1361C86.4458 10.1361 86.5718 10.1081 86.7024 10.0521C86.8424 9.98678 86.9311 9.95411 86.9684 9.95411C86.9964 9.95411 87.0104 9.97745 87.0104 10.0241ZM91.5457 10.5561C91.5457 10.6028 91.5317 10.6494 91.5037 10.6961C91.4757 10.7334 91.4383 10.7521 91.3917 10.7521C91.1303 10.7521 90.869 10.7474 90.6077 10.7381C90.3557 10.7194 90.0943 10.7101 89.8237 10.7101H89.4457C89.1657 10.7101 88.8857 10.7194 88.6057 10.7381C88.335 10.7474 88.0643 10.7521 87.7937 10.7521C87.7563 10.7521 87.7283 10.7288 87.7097 10.6821C87.7003 10.6354 87.6957 10.5981 87.6957 10.5701C87.6957 10.5234 87.7003 10.4908 87.7097 10.4721C87.719 10.4441 87.747 10.4254 87.7937 10.4161C87.8403 10.3974 87.8917 10.3928 87.9477 10.4021C88.013 10.4021 88.0737 10.4021 88.1297 10.4021C88.195 10.4021 88.2557 10.4068 88.3117 10.4161C88.3677 10.4161 88.4283 10.4161 88.4937 10.4161C88.6243 10.4161 88.741 10.3881 88.8437 10.3321C88.9557 10.2668 89.0117 10.1594 89.0117 10.0101V4.41011C89.0117 4.25145 88.9837 4.13011 88.9277 4.04611C88.8717 3.95278 88.755 3.90611 88.5777 3.90611C88.447 3.90611 88.3117 3.91545 88.1717 3.93411C88.041 3.94345 87.9103 3.95745 87.7797 3.97611C87.705 3.97611 87.6677 3.93411 87.6677 3.85011C87.6677 3.75678 87.705 3.69611 87.7797 3.66811C87.8917 3.63078 88.0083 3.60745 88.1297 3.59811C88.2603 3.57945 88.3817 3.56078 88.4937 3.54211C88.755 3.49545 89.0163 3.44411 89.2777 3.38811C89.539 3.33211 89.7957 3.27145 90.0477 3.20611C90.0757 3.19678 90.113 3.19211 90.1597 3.19211C90.2623 3.19211 90.3137 3.24811 90.3137 3.36011C90.3137 4.46145 90.309 5.56745 90.2997 6.67811C90.2997 7.78878 90.2997 8.89945 90.2997 10.0101C90.2997 10.1594 90.365 10.2668 90.4957 10.3321C90.6357 10.3881 90.7663 10.4161 90.8877 10.4161C90.981 10.4161 91.0743 10.4114 91.1677 10.4021C91.2703 10.3928 91.3683 10.3881 91.4617 10.3881C91.499 10.3881 91.5223 10.4114 91.5317 10.4581C91.541 10.5048 91.5457 10.5374 91.5457 10.5561ZM90.4117 0.868113C90.4117 1.10145 90.3277 1.30211 90.1597 1.47011C89.9917 1.62878 89.791 1.70811 89.5577 1.70811C89.3243 1.70811 89.1237 1.62878 88.9557 1.47011C88.7877 1.30211 88.7037 1.10145 88.7037 0.868113C88.7037 0.634779 88.7877 0.438779 88.9557 0.280113C89.1237 0.112113 89.3243 0.028113 89.5577 0.028113C89.791 0.028113 89.9917 0.112113 90.1597 0.280113C90.3277 0.438779 90.4117 0.634779 90.4117 0.868113ZM98.0102 4.53611C98.0102 4.62945 97.9728 4.71811 97.8982 4.80211C97.8328 4.87678 97.7488 4.91411 97.6462 4.91411C97.5062 4.91411 97.4035 4.86745 97.3382 4.77411C97.2822 4.68078 97.2308 4.57345 97.1842 4.45211C97.1468 4.33078 97.0862 4.22345 97.0022 4.13011C96.9182 4.03678 96.7782 3.99011 96.5822 3.99011C96.5448 3.99011 96.5075 3.99011 96.4702 3.99011C96.4422 3.99011 96.4095 3.99478 96.3722 4.00411C96.2135 4.03211 96.0408 4.13011 95.8542 4.29811C95.6675 4.46611 95.4855 4.66678 95.3082 4.90011C95.1402 5.12411 95.0002 5.34811 94.8882 5.57211C94.7762 5.79611 94.7155 5.98278 94.7062 6.13211C94.6968 6.28145 94.6922 6.43078 94.6922 6.58011C94.6922 6.72011 94.6922 6.86011 94.6922 7.00011C94.6922 7.50411 94.6922 8.00811 94.6922 8.51211C94.7015 9.01611 94.7062 9.51545 94.7062 10.0101C94.7062 10.1501 94.7622 10.2528 94.8742 10.3181C94.9955 10.3741 95.1168 10.4021 95.2382 10.4021C95.3315 10.4021 95.4248 10.3974 95.5182 10.3881C95.6115 10.3788 95.7048 10.3741 95.7982 10.3741C95.8448 10.3741 95.8775 10.3974 95.8962 10.4441C95.9148 10.4814 95.9242 10.5188 95.9242 10.5561C95.9242 10.7054 95.8495 10.7801 95.7002 10.7801C95.4202 10.7801 95.1402 10.7754 94.8602 10.7661C94.5802 10.7474 94.3002 10.7381 94.0202 10.7381C93.7308 10.7381 93.4368 10.7474 93.1382 10.7661C92.8488 10.7848 92.5548 10.7941 92.2562 10.7941C92.2188 10.7941 92.1908 10.7661 92.1722 10.7101C92.1628 10.6541 92.1582 10.6074 92.1582 10.5701C92.1582 10.4768 92.1955 10.4254 92.2702 10.4161C92.3728 10.3974 92.4802 10.3928 92.5922 10.4021C92.7042 10.4114 92.8068 10.4161 92.9002 10.4161C93.0402 10.4161 93.1522 10.3881 93.2362 10.3321C93.3295 10.2668 93.3808 10.1594 93.3902 10.0101C93.4088 9.71145 93.4182 9.40811 93.4182 9.10011C93.4275 8.79211 93.4322 8.48411 93.4322 8.17611V6.81811C93.4228 6.41678 93.4182 6.02011 93.4182 5.62811C93.4275 5.22678 93.4135 4.83011 93.3762 4.43811C93.3668 4.25145 93.3155 4.12078 93.2222 4.04611C93.1288 3.96211 92.9888 3.92011 92.8022 3.92011C92.7275 3.92011 92.6482 3.92945 92.5642 3.94811C92.4895 3.95745 92.4102 3.96211 92.3262 3.96211C92.2515 3.96211 92.2142 3.90611 92.2142 3.79411C92.2142 3.72878 92.2468 3.68211 92.3122 3.65411C92.4055 3.62611 92.5035 3.60745 92.6062 3.59811C92.7088 3.57945 92.8068 3.56545 92.9002 3.55611C93.1522 3.50945 93.4042 3.46278 93.6562 3.41611C93.9082 3.36945 94.1602 3.31345 94.4122 3.24811C94.4962 3.27611 94.5568 3.32745 94.5942 3.40211C94.6128 3.43945 94.6268 3.54211 94.6362 3.71011C94.6455 3.87811 94.6502 4.07411 94.6502 4.29811C94.6502 4.51278 94.6502 4.71811 94.6502 4.91411C94.6502 5.10078 94.6502 5.23145 94.6502 5.30611C94.8555 4.97945 95.0888 4.65278 95.3502 4.32611C95.6115 3.99945 95.9102 3.72878 96.2462 3.51411C96.5822 3.29945 96.9602 3.19211 97.3802 3.19211C97.6042 3.19211 97.7488 3.26211 97.8142 3.40211C97.8795 3.54211 97.9215 3.70545 97.9402 3.89211C97.9588 3.99478 97.9728 4.10211 97.9822 4.21411C98.0008 4.32611 98.0102 4.43345 98.0102 4.53611ZM104.231 4.53611C104.231 4.62945 104.194 4.71811 104.119 4.80211C104.054 4.87678 103.97 4.91411 103.867 4.91411C103.727 4.91411 103.624 4.86745 103.559 4.77411C103.503 4.68078 103.452 4.57345 103.405 4.45211C103.368 4.33078 103.307 4.22345 103.223 4.13011C103.139 4.03678 102.999 3.99011 102.803 3.99011C102.766 3.99011 102.728 3.99011 102.691 3.99011C102.663 3.99011 102.63 3.99478 102.593 4.00411C102.434 4.03211 102.262 4.13011 102.075 4.29811C101.888 4.46611 101.706 4.66678 101.529 4.90011C101.361 5.12411 101.221 5.34811 101.109 5.57211C100.997 5.79611 100.936 5.98278 100.927 6.13211C100.918 6.28145 100.913 6.43078 100.913 6.58011C100.913 6.72011 100.913 6.86011 100.913 7.00011C100.913 7.50411 100.913 8.00811 100.913 8.51211C100.922 9.01611 100.927 9.51545 100.927 10.0101C100.927 10.1501 100.983 10.2528 101.095 10.3181C101.216 10.3741 101.338 10.4021 101.459 10.4021C101.552 10.4021 101.646 10.3974 101.739 10.3881C101.832 10.3788 101.926 10.3741 102.019 10.3741C102.066 10.3741 102.098 10.3974 102.117 10.4441C102.136 10.4814 102.145 10.5188 102.145 10.5561C102.145 10.7054 102.07 10.7801 101.921 10.7801C101.641 10.7801 101.361 10.7754 101.081 10.7661C100.801 10.7474 100.521 10.7381 100.241 10.7381C99.9515 10.7381 99.6575 10.7474 99.3589 10.7661C99.0695 10.7848 98.7755 10.7941 98.4769 10.7941C98.4395 10.7941 98.4115 10.7661 98.3929 10.7101C98.3835 10.6541 98.3789 10.6074 98.3789 10.5701C98.3789 10.4768 98.4162 10.4254 98.4909 10.4161C98.5935 10.3974 98.7009 10.3928 98.8129 10.4021C98.9249 10.4114 99.0275 10.4161 99.1209 10.4161C99.2609 10.4161 99.3729 10.3881 99.4569 10.3321C99.5502 10.2668 99.6015 10.1594 99.6109 10.0101C99.6295 9.71145 99.6389 9.40811 99.6389 9.10011C99.6482 8.79211 99.6529 8.48411 99.6529 8.17611V6.81811C99.6435 6.41678 99.6389 6.02011 99.6389 5.62811C99.6482 5.22678 99.6342 4.83011 99.5969 4.43811C99.5875 4.25145 99.5362 4.12078 99.4429 4.04611C99.3495 3.96211 99.2095 3.92011 99.0229 3.92011C98.9482 3.92011 98.8689 3.92945 98.7849 3.94811C98.7102 3.95745 98.6309 3.96211 98.5469 3.96211C98.4722 3.96211 98.4349 3.90611 98.4349 3.79411C98.4349 3.72878 98.4675 3.68211 98.5329 3.65411C98.6262 3.62611 98.7242 3.60745 98.8269 3.59811C98.9295 3.57945 99.0275 3.56545 99.1209 3.55611C99.3729 3.50945 99.6249 3.46278 99.8769 3.41611C100.129 3.36945 100.381 3.31345 100.633 3.24811C100.717 3.27611 100.778 3.32745 100.815 3.40211C100.834 3.43945 100.848 3.54211 100.857 3.71011C100.866 3.87811 100.871 4.07411 100.871 4.29811C100.871 4.51278 100.871 4.71811 100.871 4.91411C100.871 5.10078 100.871 5.23145 100.871 5.30611C101.076 4.97945 101.31 4.65278 101.571 4.32611C101.832 3.99945 102.131 3.72878 102.467 3.51411C102.803 3.29945 103.181 3.19211 103.601 3.19211C103.825 3.19211 103.97 3.26211 104.035 3.40211C104.1 3.54211 104.142 3.70545 104.161 3.89211C104.18 3.99478 104.194 4.10211 104.203 4.21411C104.222 4.32611 104.231 4.43345 104.231 4.53611ZM110.956 7.07011C110.956 6.66878 110.923 6.26745 110.858 5.86611C110.802 5.45545 110.69 5.07745 110.522 4.73211C110.363 4.38678 110.13 4.11145 109.822 3.90611C109.514 3.69145 109.112 3.58411 108.618 3.58411C108.151 3.58411 107.768 3.69611 107.47 3.92011C107.18 4.14411 106.952 4.43345 106.784 4.78811C106.625 5.14278 106.513 5.52545 106.448 5.93611C106.392 6.34678 106.364 6.73411 106.364 7.09811C106.364 7.49945 106.392 7.90078 106.448 8.30211C106.513 8.70345 106.63 9.06745 106.798 9.39411C106.966 9.71145 107.204 9.96811 107.512 10.1641C107.829 10.3601 108.235 10.4581 108.73 10.4581C109.215 10.4581 109.602 10.3554 109.892 10.1501C110.19 9.94478 110.414 9.67411 110.564 9.33811C110.722 9.00211 110.825 8.63811 110.872 8.24611C110.928 7.84478 110.956 7.45278 110.956 7.07011ZM112.398 7.11211C112.398 7.81211 112.23 8.44211 111.894 9.00211C111.567 9.56211 111.119 10.0054 110.55 10.3321C109.99 10.6588 109.36 10.8221 108.66 10.8221C107.978 10.8221 107.362 10.6588 106.812 10.3321C106.261 9.99611 105.822 9.55278 105.496 9.00211C105.169 8.44211 105.006 7.82145 105.006 7.14011C105.006 6.44011 105.164 5.79611 105.482 5.20811C105.799 4.61078 106.233 4.13011 106.784 3.76611C107.344 3.40211 107.988 3.22011 108.716 3.22011C109.5 3.22011 110.167 3.38811 110.718 3.72411C111.268 4.05078 111.684 4.50811 111.964 5.09611C112.253 5.67478 112.398 6.34678 112.398 7.11211ZM116.473 9.74411C116.473 10.0054 116.375 10.2248 116.179 10.4021C115.983 10.5794 115.755 10.6681 115.493 10.6681C115.232 10.6681 115.003 10.5794 114.807 10.4021C114.611 10.2248 114.513 10.0054 114.513 9.74411C114.513 9.47345 114.611 9.24945 114.807 9.07211C115.003 8.89478 115.232 8.80611 115.493 8.80611C115.755 8.80611 115.983 8.89478 116.179 9.07211C116.375 9.24945 116.473 9.47345 116.473 9.74411ZM121.368 9.74411C121.368 10.0054 121.27 10.2248 121.074 10.4021C120.878 10.5794 120.649 10.6681 120.388 10.6681C120.126 10.6681 119.898 10.5794 119.702 10.4021C119.506 10.2248 119.408 10.0054 119.408 9.74411C119.408 9.47345 119.506 9.24945 119.702 9.07211C119.898 8.89478 120.126 8.80611 120.388 8.80611C120.649 8.80611 120.878 8.89478 121.074 9.07211C121.27 9.24945 121.368 9.47345 121.368 9.74411ZM126.262 9.74411C126.262 10.0054 126.164 10.2248 125.968 10.4021C125.772 10.5794 125.544 10.6681 125.282 10.6681C125.021 10.6681 124.792 10.5794 124.596 10.4021C124.4 10.2248 124.302 10.0054 124.302 9.74411C124.302 9.47345 124.4 9.24945 124.596 9.07211C124.792 8.89478 125.021 8.80611 125.282 8.80611C125.544 8.80611 125.772 8.89478 125.968 9.07211C126.164 9.24945 126.262 9.47345 126.262 9.74411Z" fill="#767676"/>
</svg>
