<svg width="86" height="14" viewBox="0 0 86 14" fill="none" xmlns="http://www.w3.org/2000/svg">
<mask id="path-1-outside-1_41_652" maskUnits="userSpaceOnUse" x="-0.197144" y="-0.949951" width="86" height="15" fill="black">
<rect fill="white" x="-0.197144" y="-0.949951" width="86" height="15"/>
<path d="M0.300016 13.05V0.686412H4.47757C5.44751 0.686412 6.24036 0.861483 6.85612 1.21162C7.47592 1.55774 7.93472 2.02661 8.23254 2.61823C8.53037 3.20985 8.67928 3.86989 8.67928 4.59834C8.67928 5.3268 8.53037 5.98885 8.23254 6.58449C7.93875 7.18014 7.48397 7.65504 6.8682 8.00921C6.25243 8.35935 5.4636 8.53442 4.50172 8.53442H1.5074V7.2063H4.45342C5.11749 7.2063 5.65075 7.0916 6.05321 6.86219C6.45567 6.63279 6.74746 6.32289 6.92857 5.93251C7.1137 5.53809 7.20627 5.09337 7.20627 4.59834C7.20627 4.10332 7.1137 3.66061 6.92857 3.27022C6.74746 2.87983 6.45366 2.57396 6.04717 2.35261C5.64069 2.12723 5.10139 2.01454 4.42928 2.01454H1.79717V13.05H0.300016ZM14.686 13.2432C13.7926 13.2432 13.0218 13.046 12.3739 12.6516C11.7299 12.2532 11.2329 11.6978 10.8828 10.9854C10.5366 10.269 10.3636 9.43594 10.3636 8.48613C10.3636 7.53632 10.5366 6.6992 10.8828 5.97476C11.2329 5.24631 11.7199 4.67884 12.3437 4.27235C12.9715 3.86184 13.704 3.65658 14.5411 3.65658C15.0241 3.65658 15.501 3.73708 15.9719 3.89806C16.4428 4.05904 16.8714 4.32065 17.2578 4.68286C17.6441 5.04105 17.952 5.51596 18.1814 6.10758C18.4108 6.6992 18.5255 7.42765 18.5255 8.29295V8.89664H11.3778V7.66511H17.0766C17.0766 7.1419 16.972 6.67505 16.7627 6.26454C16.5575 5.85403 16.2637 5.53004 15.8813 5.29259C15.503 5.05514 15.0563 4.93641 14.5411 4.93641C13.9737 4.93641 13.4827 5.07727 13.0681 5.359C12.6576 5.6367 12.3417 5.99891 12.1203 6.44565C11.899 6.89238 11.7883 7.37131 11.7883 7.88244V8.70346C11.7883 9.40374 11.909 9.99737 12.1505 10.4844C12.396 10.9673 12.7361 11.3356 13.1708 11.5891C13.6054 11.8386 14.1105 11.9634 14.686 11.9634C15.0603 11.9634 15.3984 11.9111 15.7002 11.8064C16.0061 11.6978 16.2697 11.5368 16.4911 11.3235C16.7124 11.1062 16.8835 10.8365 17.0042 10.5145L18.3806 10.9009C18.2357 11.3678 17.9923 11.7783 17.6502 12.1324C17.3081 12.4826 16.8855 12.7563 16.3824 12.9535C15.8793 13.1466 15.3139 13.2432 14.686 13.2432ZM20.6928 13.05V3.77732H22.0692V5.17789H22.1658C22.3348 4.71908 22.6407 4.34681 23.0834 4.06106C23.5261 3.77531 24.0252 3.63243 24.5806 3.63243C24.6852 3.63243 24.816 3.63445 24.973 3.63847C25.1299 3.6425 25.2486 3.64853 25.3291 3.65658V5.10545C25.2808 5.09337 25.1702 5.07526 24.9971 5.05111C24.8281 5.02294 24.649 5.00886 24.4598 5.00886C24.0091 5.00886 23.6066 5.10343 23.2524 5.29259C22.9023 5.47772 22.6246 5.7353 22.4193 6.06532C22.2181 6.39131 22.1175 6.76359 22.1175 7.18215V13.05H20.6928ZM27.018 13.05V3.77732H28.3944V5.22619H28.5151C28.7083 4.73116 29.0202 4.34681 29.4509 4.07313C29.8815 3.79543 30.3986 3.65658 31.0023 3.65658C31.6141 3.65658 32.1232 3.79543 32.5297 4.07313C32.9402 4.34681 33.2602 4.73116 33.4896 5.22619H33.5861C33.8236 4.74726 34.1798 4.36693 34.6547 4.08521C35.1296 3.79946 35.6991 3.65658 36.3631 3.65658C37.1922 3.65658 37.8704 3.91617 38.3976 4.43535C38.9248 4.9505 39.1884 5.75341 39.1884 6.84408V13.05H37.7637V6.84408C37.7637 6.1599 37.5766 5.67091 37.2023 5.37711C36.828 5.08331 36.3873 4.93641 35.8802 4.93641C35.2282 4.93641 34.7231 5.13362 34.3649 5.52803C34.0067 5.91842 33.8276 6.41345 33.8276 7.01312V13.05H32.3788V6.6992C32.3788 6.17197 32.2077 5.74737 31.8656 5.4254C31.5235 5.09941 31.0828 4.93641 30.5435 4.93641C30.1733 4.93641 29.8272 5.03502 29.5052 5.23222C29.1872 5.42943 28.9297 5.7031 28.7325 6.05324C28.5393 6.39936 28.4427 6.79981 28.4427 7.25459V13.05H27.018ZM41.7934 13.05V3.77732H43.2181V13.05H41.7934ZM42.5178 2.23187C42.2401 2.23187 42.0006 2.13729 41.7994 1.94813C41.6022 1.75897 41.5036 1.53158 41.5036 1.26596C41.5036 1.00033 41.6022 0.772942 41.7994 0.583784C42.0006 0.394627 42.2401 0.300049 42.5178 0.300049C42.7955 0.300049 43.0329 0.394627 43.2301 0.583784C43.4314 0.772942 43.532 1.00033 43.532 1.26596C43.532 1.53158 43.4314 1.75897 43.2301 1.94813C43.0329 2.13729 42.7955 2.23187 42.5178 2.23187ZM52.3957 5.85403L51.1159 6.21624C51.0354 6.00294 50.9167 5.79567 50.7597 5.59444C50.6068 5.38918 50.3975 5.22015 50.1319 5.08734C49.8662 4.95452 49.5262 4.88812 49.1116 4.88812C48.5442 4.88812 48.0713 5.01892 47.6929 5.28052C47.3187 5.53809 47.1315 5.8661 47.1315 6.26454C47.1315 6.6187 47.2603 6.89842 47.5179 7.10367C47.7755 7.30893 48.1779 7.47997 48.7253 7.61681L50.1017 7.95488C50.9308 8.15611 51.5485 8.46399 51.955 8.87853C52.3615 9.28904 52.5648 9.81828 52.5648 10.4662C52.5648 10.9975 52.4118 11.4724 52.1059 11.891C51.8041 12.3095 51.3815 12.6395 50.8382 12.881C50.2949 13.1225 49.663 13.2432 48.9426 13.2432C47.9968 13.2432 47.214 13.038 46.5942 12.6275C45.9744 12.217 45.582 11.6173 45.417 10.8285L46.7693 10.4904C46.8981 10.9894 47.1416 11.3637 47.4998 11.6133C47.862 11.8628 48.3349 11.9875 48.9184 11.9875C49.5825 11.9875 50.1097 11.8467 50.5001 11.565C50.8945 11.2792 51.0917 10.9371 51.0917 10.5387C51.0917 10.2167 50.9791 9.94707 50.7537 9.72974C50.5283 9.50838 50.1822 9.34337 49.7153 9.23471L48.1699 8.87249C47.3207 8.67126 46.6969 8.35935 46.2984 7.93677C45.904 7.51016 45.7068 6.9769 45.7068 6.33698C45.7068 5.81378 45.8537 5.35095 46.1475 4.94849C46.4453 4.54602 46.8498 4.23009 47.3609 4.00069C47.8761 3.77128 48.4596 3.65658 49.1116 3.65658C50.0292 3.65658 50.7496 3.85781 51.2728 4.26028C51.8001 4.66274 52.1744 5.19399 52.3957 5.85403ZM61.2776 5.85403L59.9977 6.21624C59.9172 6.00294 59.7985 5.79567 59.6415 5.59444C59.4886 5.38918 59.2793 5.22015 59.0137 5.08734C58.7481 4.95452 58.408 4.88812 57.9935 4.88812C57.426 4.88812 56.9531 5.01892 56.5748 5.28052C56.2005 5.53809 56.0134 5.8661 56.0134 6.26454C56.0134 6.6187 56.1421 6.89842 56.3997 7.10367C56.6573 7.30893 57.0598 7.47997 57.6071 7.61681L58.9835 7.95488C59.8126 8.15611 60.4304 8.46399 60.8369 8.87853C61.2433 9.28904 61.4466 9.81828 61.4466 10.4662C61.4466 10.9975 61.2937 11.4724 60.9878 11.891C60.6859 12.3095 60.2634 12.6395 59.72 12.881C59.1767 13.1225 58.5448 13.2432 57.8244 13.2432C56.8786 13.2432 56.0959 13.038 55.4761 12.6275C54.8563 12.217 54.4639 11.6173 54.2989 10.8285L55.6511 10.4904C55.7799 10.9894 56.0234 11.3637 56.3816 11.6133C56.7438 11.8628 57.2167 11.9875 57.8003 11.9875C58.4643 11.9875 58.9916 11.8467 59.382 11.565C59.7764 11.2792 59.9736 10.9371 59.9736 10.5387C59.9736 10.2167 59.8609 9.94707 59.6355 9.72974C59.4101 9.50838 59.064 9.34337 58.5972 9.23471L57.0517 8.87249C56.2025 8.67126 55.5787 8.35935 55.1803 7.93677C54.7858 7.51016 54.5886 6.9769 54.5886 6.33698C54.5886 5.81378 54.7355 5.35095 55.0293 4.94849C55.3272 4.54602 55.7316 4.23009 56.2428 4.00069C56.7579 3.77128 57.3415 3.65658 57.9935 3.65658C58.9111 3.65658 59.6315 3.85781 60.1547 4.26028C60.6819 4.66274 61.0562 5.19399 61.2776 5.85403ZM66.3199 13.2674C65.7323 13.2674 65.199 13.1567 64.7201 12.9353C64.2412 12.71 63.8609 12.386 63.5791 11.9634C63.2974 11.5368 63.1565 11.0216 63.1565 10.4179C63.1565 9.8867 63.2612 9.45606 63.4705 9.12604C63.6798 8.792 63.9595 8.5304 64.3096 8.34124C64.6597 8.15208 65.0461 8.01122 65.4687 7.91866C65.8953 7.82207 66.3239 7.7456 66.7546 7.68925C67.318 7.61681 67.7748 7.56248 68.1249 7.52626C68.4791 7.48601 68.7367 7.4196 68.8977 7.32704C69.0627 7.23447 69.1452 7.07349 69.1452 6.84408V6.79579C69.1452 6.20014 68.9822 5.73731 68.6562 5.40729C68.3342 5.07727 67.8452 4.91226 67.1892 4.91226C66.5091 4.91226 65.9758 5.06118 65.5894 5.359C65.2031 5.65682 64.9314 5.97476 64.7744 6.31283L63.4222 5.82988C63.6637 5.26643 63.9856 4.82775 64.3881 4.51383C64.7946 4.19588 65.2373 3.97453 65.7162 3.84976C66.1992 3.72098 66.6741 3.65658 67.1409 3.65658C67.4387 3.65658 67.7808 3.6928 68.1672 3.76525C68.5576 3.83367 68.9339 3.97654 69.2961 4.19387C69.6623 4.4112 69.9662 4.73921 70.2077 5.17789C70.4492 5.61657 70.5699 6.20417 70.5699 6.94067V13.05H69.1452V11.7944H69.0727C68.9762 11.9956 68.8152 12.2109 68.5898 12.4403C68.3644 12.6697 68.0646 12.8649 67.6903 13.0259C67.316 13.1869 66.8592 13.2674 66.3199 13.2674ZM66.5372 11.9875C67.1007 11.9875 67.5756 11.8769 67.9619 11.6555C68.3523 11.4342 68.6461 11.1484 68.8433 10.7983C69.0446 10.4481 69.1452 10.0799 69.1452 9.69351V8.38954C69.0848 8.46198 68.952 8.52839 68.7467 8.58876C68.5455 8.6451 68.3121 8.69541 68.0465 8.73968C67.7849 8.77993 67.5293 8.81615 67.2798 8.84834C67.0343 8.87652 66.8351 8.90066 66.6821 8.92079C66.3119 8.96908 65.9657 9.04756 65.6438 9.15623C65.3258 9.26087 65.0682 9.41984 64.871 9.63315C64.6779 9.84243 64.5813 10.1282 64.5813 10.4904C64.5813 10.9854 64.7644 11.3597 65.1306 11.6133C65.5009 11.8628 65.9698 11.9875 66.5372 11.9875ZM65.3781 2.66653L64.2673 2.61823C64.2673 2.00246 64.4424 1.49939 64.7926 1.109C65.1467 0.714584 65.5834 0.517378 66.1026 0.517378C66.332 0.517378 66.5352 0.557624 66.7123 0.638116C66.8894 0.714584 67.0584 0.803126 67.2194 0.903741C67.3804 1.00436 67.5454 1.09491 67.7144 1.1754C67.8875 1.25187 68.0827 1.29011 68.3 1.29011C68.5294 1.29011 68.7226 1.20156 68.8796 1.02448C69.0405 0.843372 69.121 0.626043 69.121 0.372491L70.2077 0.469083C70.2077 1.09692 70.0306 1.59598 69.6764 1.96624C69.3263 2.33651 68.8916 2.52164 68.3725 2.52164C68.0948 2.52164 67.8654 2.48341 67.6842 2.40694C67.5031 2.32645 67.3422 2.23589 67.2013 2.13528C67.0604 2.03466 66.9115 1.94612 66.7546 1.86965C66.5976 1.78916 66.4044 1.74891 66.175 1.74891C65.9456 1.74891 65.7544 1.83947 65.6015 2.02057C65.4526 2.19766 65.3781 2.41297 65.3781 2.66653ZM76.9374 13.2432C76.1002 13.2432 75.3657 13.044 74.7339 12.6456C74.106 12.2471 73.615 11.6897 73.2609 10.9733C72.9107 10.257 72.7357 9.41984 72.7357 8.46198C72.7357 7.49607 72.9107 6.65291 73.2609 5.93251C73.615 5.2121 74.106 4.65268 74.7339 4.25424C75.3657 3.8558 76.1002 3.65658 76.9374 3.65658C77.7745 3.65658 78.507 3.8558 79.1348 4.25424C79.7667 4.65268 80.2577 5.2121 80.6078 5.93251C80.962 6.65291 81.1391 7.49607 81.1391 8.46198C81.1391 9.41984 80.962 10.257 80.6078 10.9733C80.2577 11.6897 79.7667 12.2471 79.1348 12.6456C78.507 13.044 77.7745 13.2432 76.9374 13.2432ZM76.9374 11.9634C77.5732 11.9634 78.0964 11.8004 78.507 11.4744C78.9175 11.1484 79.2213 10.7198 79.4185 10.1885C79.6157 9.65729 79.7143 9.08177 79.7143 8.46198C79.7143 7.84219 79.6157 7.26466 79.4185 6.72938C79.2213 6.19411 78.9175 5.76146 78.507 5.43144C78.0964 5.10142 77.5732 4.93641 76.9374 4.93641C76.3015 4.93641 75.7783 5.10142 75.3678 5.43144C74.9572 5.76146 74.6534 6.19411 74.4562 6.72938C74.259 7.26466 74.1604 7.84219 74.1604 8.46198C74.1604 9.08177 74.259 9.65729 74.4562 10.1885C74.6534 10.7198 74.9572 11.1484 75.3678 11.4744C75.7783 11.8004 76.3015 11.9634 76.9374 11.9634ZM84.3522 13.1466C84.0544 13.1466 83.7988 13.04 83.5855 12.8267C83.3722 12.6134 83.2656 12.3578 83.2656 12.06C83.2656 11.7622 83.3722 11.5066 83.5855 11.2933C83.7988 11.08 84.0544 10.9733 84.3522 10.9733C84.65 10.9733 84.9056 11.08 85.1189 11.2933C85.3322 11.5066 85.4389 11.7622 85.4389 12.06C85.4389 12.2572 85.3886 12.4383 85.2879 12.6033C85.1914 12.7683 85.0606 12.9011 84.8955 13.0018C84.7346 13.0983 84.5534 13.1466 84.3522 13.1466ZM84.3522 6.26454C84.0544 6.26454 83.7988 6.15788 83.5855 5.94458C83.3722 5.73128 83.2656 5.47571 83.2656 5.17789C83.2656 4.88007 83.3722 4.6245 83.5855 4.4112C83.7988 4.19789 84.0544 4.09124 84.3522 4.09124C84.65 4.09124 84.9056 4.19789 85.1189 4.4112C85.3322 4.6245 85.4389 4.88007 85.4389 5.17789C85.4389 5.3751 85.3886 5.5562 85.2879 5.72121C85.1914 5.88622 85.0606 6.01904 84.8955 6.11965C84.7346 6.21624 84.5534 6.26454 84.3522 6.26454Z"/>
</mask>
<path d="M0.300016 13.05V0.686412H4.47757C5.44751 0.686412 6.24036 0.861483 6.85612 1.21162C7.47592 1.55774 7.93472 2.02661 8.23254 2.61823C8.53037 3.20985 8.67928 3.86989 8.67928 4.59834C8.67928 5.3268 8.53037 5.98885 8.23254 6.58449C7.93875 7.18014 7.48397 7.65504 6.8682 8.00921C6.25243 8.35935 5.4636 8.53442 4.50172 8.53442H1.5074V7.2063H4.45342C5.11749 7.2063 5.65075 7.0916 6.05321 6.86219C6.45567 6.63279 6.74746 6.32289 6.92857 5.93251C7.1137 5.53809 7.20627 5.09337 7.20627 4.59834C7.20627 4.10332 7.1137 3.66061 6.92857 3.27022C6.74746 2.87983 6.45366 2.57396 6.04717 2.35261C5.64069 2.12723 5.10139 2.01454 4.42928 2.01454H1.79717V13.05H0.300016ZM14.686 13.2432C13.7926 13.2432 13.0218 13.046 12.3739 12.6516C11.7299 12.2532 11.2329 11.6978 10.8828 10.9854C10.5366 10.269 10.3636 9.43594 10.3636 8.48613C10.3636 7.53632 10.5366 6.6992 10.8828 5.97476C11.2329 5.24631 11.7199 4.67884 12.3437 4.27235C12.9715 3.86184 13.704 3.65658 14.5411 3.65658C15.0241 3.65658 15.501 3.73708 15.9719 3.89806C16.4428 4.05904 16.8714 4.32065 17.2578 4.68286C17.6441 5.04105 17.952 5.51596 18.1814 6.10758C18.4108 6.6992 18.5255 7.42765 18.5255 8.29295V8.89664H11.3778V7.66511H17.0766C17.0766 7.1419 16.972 6.67505 16.7627 6.26454C16.5575 5.85403 16.2637 5.53004 15.8813 5.29259C15.503 5.05514 15.0563 4.93641 14.5411 4.93641C13.9737 4.93641 13.4827 5.07727 13.0681 5.359C12.6576 5.6367 12.3417 5.99891 12.1203 6.44565C11.899 6.89238 11.7883 7.37131 11.7883 7.88244V8.70346C11.7883 9.40374 11.909 9.99737 12.1505 10.4844C12.396 10.9673 12.7361 11.3356 13.1708 11.5891C13.6054 11.8386 14.1105 11.9634 14.686 11.9634C15.0603 11.9634 15.3984 11.9111 15.7002 11.8064C16.0061 11.6978 16.2697 11.5368 16.4911 11.3235C16.7124 11.1062 16.8835 10.8365 17.0042 10.5145L18.3806 10.9009C18.2357 11.3678 17.9923 11.7783 17.6502 12.1324C17.3081 12.4826 16.8855 12.7563 16.3824 12.9535C15.8793 13.1466 15.3139 13.2432 14.686 13.2432ZM20.6928 13.05V3.77732H22.0692V5.17789H22.1658C22.3348 4.71908 22.6407 4.34681 23.0834 4.06106C23.5261 3.77531 24.0252 3.63243 24.5806 3.63243C24.6852 3.63243 24.816 3.63445 24.973 3.63847C25.1299 3.6425 25.2486 3.64853 25.3291 3.65658V5.10545C25.2808 5.09337 25.1702 5.07526 24.9971 5.05111C24.8281 5.02294 24.649 5.00886 24.4598 5.00886C24.0091 5.00886 23.6066 5.10343 23.2524 5.29259C22.9023 5.47772 22.6246 5.7353 22.4193 6.06532C22.2181 6.39131 22.1175 6.76359 22.1175 7.18215V13.05H20.6928ZM27.018 13.05V3.77732H28.3944V5.22619H28.5151C28.7083 4.73116 29.0202 4.34681 29.4509 4.07313C29.8815 3.79543 30.3986 3.65658 31.0023 3.65658C31.6141 3.65658 32.1232 3.79543 32.5297 4.07313C32.9402 4.34681 33.2602 4.73116 33.4896 5.22619H33.5861C33.8236 4.74726 34.1798 4.36693 34.6547 4.08521C35.1296 3.79946 35.6991 3.65658 36.3631 3.65658C37.1922 3.65658 37.8704 3.91617 38.3976 4.43535C38.9248 4.9505 39.1884 5.75341 39.1884 6.84408V13.05H37.7637V6.84408C37.7637 6.1599 37.5766 5.67091 37.2023 5.37711C36.828 5.08331 36.3873 4.93641 35.8802 4.93641C35.2282 4.93641 34.7231 5.13362 34.3649 5.52803C34.0067 5.91842 33.8276 6.41345 33.8276 7.01312V13.05H32.3788V6.6992C32.3788 6.17197 32.2077 5.74737 31.8656 5.4254C31.5235 5.09941 31.0828 4.93641 30.5435 4.93641C30.1733 4.93641 29.8272 5.03502 29.5052 5.23222C29.1872 5.42943 28.9297 5.7031 28.7325 6.05324C28.5393 6.39936 28.4427 6.79981 28.4427 7.25459V13.05H27.018ZM41.7934 13.05V3.77732H43.2181V13.05H41.7934ZM42.5178 2.23187C42.2401 2.23187 42.0006 2.13729 41.7994 1.94813C41.6022 1.75897 41.5036 1.53158 41.5036 1.26596C41.5036 1.00033 41.6022 0.772942 41.7994 0.583784C42.0006 0.394627 42.2401 0.300049 42.5178 0.300049C42.7955 0.300049 43.0329 0.394627 43.2301 0.583784C43.4314 0.772942 43.532 1.00033 43.532 1.26596C43.532 1.53158 43.4314 1.75897 43.2301 1.94813C43.0329 2.13729 42.7955 2.23187 42.5178 2.23187ZM52.3957 5.85403L51.1159 6.21624C51.0354 6.00294 50.9167 5.79567 50.7597 5.59444C50.6068 5.38918 50.3975 5.22015 50.1319 5.08734C49.8662 4.95452 49.5262 4.88812 49.1116 4.88812C48.5442 4.88812 48.0713 5.01892 47.6929 5.28052C47.3187 5.53809 47.1315 5.8661 47.1315 6.26454C47.1315 6.6187 47.2603 6.89842 47.5179 7.10367C47.7755 7.30893 48.1779 7.47997 48.7253 7.61681L50.1017 7.95488C50.9308 8.15611 51.5485 8.46399 51.955 8.87853C52.3615 9.28904 52.5648 9.81828 52.5648 10.4662C52.5648 10.9975 52.4118 11.4724 52.1059 11.891C51.8041 12.3095 51.3815 12.6395 50.8382 12.881C50.2949 13.1225 49.663 13.2432 48.9426 13.2432C47.9968 13.2432 47.214 13.038 46.5942 12.6275C45.9744 12.217 45.582 11.6173 45.417 10.8285L46.7693 10.4904C46.8981 10.9894 47.1416 11.3637 47.4998 11.6133C47.862 11.8628 48.3349 11.9875 48.9184 11.9875C49.5825 11.9875 50.1097 11.8467 50.5001 11.565C50.8945 11.2792 51.0917 10.9371 51.0917 10.5387C51.0917 10.2167 50.9791 9.94707 50.7537 9.72974C50.5283 9.50838 50.1822 9.34337 49.7153 9.23471L48.1699 8.87249C47.3207 8.67126 46.6969 8.35935 46.2984 7.93677C45.904 7.51016 45.7068 6.9769 45.7068 6.33698C45.7068 5.81378 45.8537 5.35095 46.1475 4.94849C46.4453 4.54602 46.8498 4.23009 47.3609 4.00069C47.8761 3.77128 48.4596 3.65658 49.1116 3.65658C50.0292 3.65658 50.7496 3.85781 51.2728 4.26028C51.8001 4.66274 52.1744 5.19399 52.3957 5.85403ZM61.2776 5.85403L59.9977 6.21624C59.9172 6.00294 59.7985 5.79567 59.6415 5.59444C59.4886 5.38918 59.2793 5.22015 59.0137 5.08734C58.7481 4.95452 58.408 4.88812 57.9935 4.88812C57.426 4.88812 56.9531 5.01892 56.5748 5.28052C56.2005 5.53809 56.0134 5.8661 56.0134 6.26454C56.0134 6.6187 56.1421 6.89842 56.3997 7.10367C56.6573 7.30893 57.0598 7.47997 57.6071 7.61681L58.9835 7.95488C59.8126 8.15611 60.4304 8.46399 60.8369 8.87853C61.2433 9.28904 61.4466 9.81828 61.4466 10.4662C61.4466 10.9975 61.2937 11.4724 60.9878 11.891C60.6859 12.3095 60.2634 12.6395 59.72 12.881C59.1767 13.1225 58.5448 13.2432 57.8244 13.2432C56.8786 13.2432 56.0959 13.038 55.4761 12.6275C54.8563 12.217 54.4639 11.6173 54.2989 10.8285L55.6511 10.4904C55.7799 10.9894 56.0234 11.3637 56.3816 11.6133C56.7438 11.8628 57.2167 11.9875 57.8003 11.9875C58.4643 11.9875 58.9916 11.8467 59.382 11.565C59.7764 11.2792 59.9736 10.9371 59.9736 10.5387C59.9736 10.2167 59.8609 9.94707 59.6355 9.72974C59.4101 9.50838 59.064 9.34337 58.5972 9.23471L57.0517 8.87249C56.2025 8.67126 55.5787 8.35935 55.1803 7.93677C54.7858 7.51016 54.5886 6.9769 54.5886 6.33698C54.5886 5.81378 54.7355 5.35095 55.0293 4.94849C55.3272 4.54602 55.7316 4.23009 56.2428 4.00069C56.7579 3.77128 57.3415 3.65658 57.9935 3.65658C58.9111 3.65658 59.6315 3.85781 60.1547 4.26028C60.6819 4.66274 61.0562 5.19399 61.2776 5.85403ZM66.3199 13.2674C65.7323 13.2674 65.199 13.1567 64.7201 12.9353C64.2412 12.71 63.8609 12.386 63.5791 11.9634C63.2974 11.5368 63.1565 11.0216 63.1565 10.4179C63.1565 9.8867 63.2612 9.45606 63.4705 9.12604C63.6798 8.792 63.9595 8.5304 64.3096 8.34124C64.6597 8.15208 65.0461 8.01122 65.4687 7.91866C65.8953 7.82207 66.3239 7.7456 66.7546 7.68925C67.318 7.61681 67.7748 7.56248 68.1249 7.52626C68.4791 7.48601 68.7367 7.4196 68.8977 7.32704C69.0627 7.23447 69.1452 7.07349 69.1452 6.84408V6.79579C69.1452 6.20014 68.9822 5.73731 68.6562 5.40729C68.3342 5.07727 67.8452 4.91226 67.1892 4.91226C66.5091 4.91226 65.9758 5.06118 65.5894 5.359C65.2031 5.65682 64.9314 5.97476 64.7744 6.31283L63.4222 5.82988C63.6637 5.26643 63.9856 4.82775 64.3881 4.51383C64.7946 4.19588 65.2373 3.97453 65.7162 3.84976C66.1992 3.72098 66.6741 3.65658 67.1409 3.65658C67.4387 3.65658 67.7808 3.6928 68.1672 3.76525C68.5576 3.83367 68.9339 3.97654 69.2961 4.19387C69.6623 4.4112 69.9662 4.73921 70.2077 5.17789C70.4492 5.61657 70.5699 6.20417 70.5699 6.94067V13.05H69.1452V11.7944H69.0727C68.9762 11.9956 68.8152 12.2109 68.5898 12.4403C68.3644 12.6697 68.0646 12.8649 67.6903 13.0259C67.316 13.1869 66.8592 13.2674 66.3199 13.2674ZM66.5372 11.9875C67.1007 11.9875 67.5756 11.8769 67.9619 11.6555C68.3523 11.4342 68.6461 11.1484 68.8433 10.7983C69.0446 10.4481 69.1452 10.0799 69.1452 9.69351V8.38954C69.0848 8.46198 68.952 8.52839 68.7467 8.58876C68.5455 8.6451 68.3121 8.69541 68.0465 8.73968C67.7849 8.77993 67.5293 8.81615 67.2798 8.84834C67.0343 8.87652 66.8351 8.90066 66.6821 8.92079C66.3119 8.96908 65.9657 9.04756 65.6438 9.15623C65.3258 9.26087 65.0682 9.41984 64.871 9.63315C64.6779 9.84243 64.5813 10.1282 64.5813 10.4904C64.5813 10.9854 64.7644 11.3597 65.1306 11.6133C65.5009 11.8628 65.9698 11.9875 66.5372 11.9875ZM65.3781 2.66653L64.2673 2.61823C64.2673 2.00246 64.4424 1.49939 64.7926 1.109C65.1467 0.714584 65.5834 0.517378 66.1026 0.517378C66.332 0.517378 66.5352 0.557624 66.7123 0.638116C66.8894 0.714584 67.0584 0.803126 67.2194 0.903741C67.3804 1.00436 67.5454 1.09491 67.7144 1.1754C67.8875 1.25187 68.0827 1.29011 68.3 1.29011C68.5294 1.29011 68.7226 1.20156 68.8796 1.02448C69.0405 0.843372 69.121 0.626043 69.121 0.372491L70.2077 0.469083C70.2077 1.09692 70.0306 1.59598 69.6764 1.96624C69.3263 2.33651 68.8916 2.52164 68.3725 2.52164C68.0948 2.52164 67.8654 2.48341 67.6842 2.40694C67.5031 2.32645 67.3422 2.23589 67.2013 2.13528C67.0604 2.03466 66.9115 1.94612 66.7546 1.86965C66.5976 1.78916 66.4044 1.74891 66.175 1.74891C65.9456 1.74891 65.7544 1.83947 65.6015 2.02057C65.4526 2.19766 65.3781 2.41297 65.3781 2.66653ZM76.9374 13.2432C76.1002 13.2432 75.3657 13.044 74.7339 12.6456C74.106 12.2471 73.615 11.6897 73.2609 10.9733C72.9107 10.257 72.7357 9.41984 72.7357 8.46198C72.7357 7.49607 72.9107 6.65291 73.2609 5.93251C73.615 5.2121 74.106 4.65268 74.7339 4.25424C75.3657 3.8558 76.1002 3.65658 76.9374 3.65658C77.7745 3.65658 78.507 3.8558 79.1348 4.25424C79.7667 4.65268 80.2577 5.2121 80.6078 5.93251C80.962 6.65291 81.1391 7.49607 81.1391 8.46198C81.1391 9.41984 80.962 10.257 80.6078 10.9733C80.2577 11.6897 79.7667 12.2471 79.1348 12.6456C78.507 13.044 77.7745 13.2432 76.9374 13.2432ZM76.9374 11.9634C77.5732 11.9634 78.0964 11.8004 78.507 11.4744C78.9175 11.1484 79.2213 10.7198 79.4185 10.1885C79.6157 9.65729 79.7143 9.08177 79.7143 8.46198C79.7143 7.84219 79.6157 7.26466 79.4185 6.72938C79.2213 6.19411 78.9175 5.76146 78.507 5.43144C78.0964 5.10142 77.5732 4.93641 76.9374 4.93641C76.3015 4.93641 75.7783 5.10142 75.3678 5.43144C74.9572 5.76146 74.6534 6.19411 74.4562 6.72938C74.259 7.26466 74.1604 7.84219 74.1604 8.46198C74.1604 9.08177 74.259 9.65729 74.4562 10.1885C74.6534 10.7198 74.9572 11.1484 75.3678 11.4744C75.7783 11.8004 76.3015 11.9634 76.9374 11.9634ZM84.3522 13.1466C84.0544 13.1466 83.7988 13.04 83.5855 12.8267C83.3722 12.6134 83.2656 12.3578 83.2656 12.06C83.2656 11.7622 83.3722 11.5066 83.5855 11.2933C83.7988 11.08 84.0544 10.9733 84.3522 10.9733C84.65 10.9733 84.9056 11.08 85.1189 11.2933C85.3322 11.5066 85.4389 11.7622 85.4389 12.06C85.4389 12.2572 85.3886 12.4383 85.2879 12.6033C85.1914 12.7683 85.0606 12.9011 84.8955 13.0018C84.7346 13.0983 84.5534 13.1466 84.3522 13.1466ZM84.3522 6.26454C84.0544 6.26454 83.7988 6.15788 83.5855 5.94458C83.3722 5.73128 83.2656 5.47571 83.2656 5.17789C83.2656 4.88007 83.3722 4.6245 83.5855 4.4112C83.7988 4.19789 84.0544 4.09124 84.3522 4.09124C84.65 4.09124 84.9056 4.19789 85.1189 4.4112C85.3322 4.6245 85.4389 4.88007 85.4389 5.17789C85.4389 5.3751 85.3886 5.5562 85.2879 5.72121C85.1914 5.88622 85.0606 6.01904 84.8955 6.11965C84.7346 6.21624 84.5534 6.26454 84.3522 6.26454Z" fill="#E3E4EB"/>
<path d="M0.300016 13.05H1.56164e-05V13.35H0.300016V13.05ZM0.300016 0.686412V0.386412H1.56164e-05V0.686412H0.300016ZM6.85612 1.21163L6.70783 1.47242L6.70985 1.47355L6.85612 1.21163ZM8.23254 2.61823L7.96458 2.75312V2.75312L8.23254 2.61823ZM8.23254 6.58449L7.96421 6.45033L7.96349 6.45179L8.23254 6.58449ZM6.8682 8.00921L7.01649 8.27L7.01777 8.26926L6.8682 8.00921ZM1.5074 8.53442H1.2074V8.83442H1.5074V8.53442ZM1.5074 7.2063V6.9063H1.2074V7.2063H1.5074ZM6.05321 6.86219L5.90465 6.60156H5.90465L6.05321 6.86219ZM6.92857 5.93251L6.65699 5.80503L6.65643 5.80626L6.92857 5.93251ZM6.92857 3.27022L6.65642 3.39647L6.6575 3.39876L6.92857 3.27022ZM6.04717 2.35261L5.9017 2.61498L5.9037 2.61607L6.04717 2.35261ZM1.79717 2.01454V1.71454H1.49717V2.01454H1.79717ZM1.79717 13.05V13.35H2.09717V13.05H1.79717ZM0.300016 13.05H0.600016V0.686412H0.300016H1.56164e-05V13.05H0.300016ZM0.300016 0.686412V0.986412H4.47757V0.686412V0.386412H0.300016V0.686412ZM4.47757 0.686412V0.986412C5.41388 0.986412 6.15092 1.15574 6.70783 1.47241L6.85612 1.21163L7.00441 0.950838C6.32979 0.56723 5.48113 0.386412 4.47757 0.386412V0.686412ZM6.85612 1.21163L6.70985 1.47355C7.28125 1.79264 7.69568 2.21896 7.96458 2.75312L8.23254 2.61823L8.50051 2.48334C8.17376 1.83426 7.67058 1.32285 7.00239 0.949699L6.85612 1.21163ZM8.23254 2.61823L7.96458 2.75312C8.2393 3.29885 8.37928 3.91199 8.37928 4.59834H8.67928H8.97928C8.97928 3.82779 8.82143 3.12085 8.50051 2.48334L8.23254 2.61823ZM8.67928 4.59834H8.37928C8.37928 5.28467 8.23931 5.90015 7.96422 6.45033L8.23254 6.58449L8.50087 6.71866C8.82142 6.07756 8.97928 5.36893 8.97928 4.59834H8.67928ZM8.23254 6.58449L7.96349 6.45179C7.69787 6.9903 7.28659 7.42249 6.71862 7.74916L6.8682 8.00921L7.01777 8.26926C7.68134 7.8876 8.17962 7.36997 8.5016 6.7172L8.23254 6.58449ZM6.8682 8.00921L6.71991 7.74842C6.16267 8.06528 5.42946 8.23442 4.50172 8.23442V8.53442V8.83442C5.49775 8.83442 6.34219 8.65342 7.01649 8.27L6.8682 8.00921ZM4.50172 8.53442V8.23442H1.5074V8.53442V8.83442H4.50172V8.53442ZM1.5074 8.53442H1.8074V7.2063H1.5074H1.2074V8.53442H1.5074ZM1.5074 7.2063V7.5063H4.45342V7.2063V6.9063H1.5074V7.2063ZM4.45342 7.2063V7.5063C5.14834 7.5063 5.73861 7.38683 6.20177 7.12283L6.05321 6.86219L5.90465 6.60156C5.56289 6.79636 5.08664 6.9063 4.45342 6.9063V7.2063ZM6.05321 6.86219L6.20177 7.12283C6.65402 6.86505 6.99133 6.51009 7.20071 6.05876L6.92857 5.93251L6.65643 5.80626C6.50359 6.1357 6.25733 6.40053 5.90465 6.60156L6.05321 6.86219ZM6.92857 5.93251L7.20014 6.05998C7.40639 5.62057 7.50627 5.13142 7.50627 4.59834H7.20627H6.90627C6.90627 5.05532 6.82101 5.45561 6.657 5.80503L6.92857 5.93251ZM7.20627 4.59834H7.50627C7.50627 4.06533 7.40641 3.57771 7.19963 3.14167L6.92857 3.27022L6.6575 3.39876C6.82099 3.74351 6.90627 4.1413 6.90627 4.59834H7.20627ZM6.92857 3.27022L7.20071 3.14397C6.99044 2.69072 6.6491 2.33879 6.19065 2.08914L6.04717 2.35261L5.9037 2.61607C6.25822 2.80913 6.50448 3.06894 6.65643 3.39647L6.92857 3.27022ZM6.04717 2.35261L6.19265 2.09024C5.72617 1.8316 5.13104 1.71454 4.42928 1.71454V2.01454V2.31454C5.07173 2.31454 5.5552 2.42286 5.9017 2.61497L6.04717 2.35261ZM4.42928 2.01454V1.71454H1.79717V2.01454V2.31454H4.42928V2.01454ZM1.79717 2.01454H1.49717V13.05H1.79717H2.09717V2.01454H1.79717ZM1.79717 13.05V12.75H0.300016V13.05V13.35H1.79717V13.05ZM12.3739 12.6516L12.216 12.9067L12.2179 12.9079L12.3739 12.6516ZM10.8828 10.9854L10.6126 11.1159L10.6135 11.1178L10.8828 10.9854ZM10.8828 5.97476L10.6124 5.8448L10.6121 5.84543L10.8828 5.97476ZM12.3437 4.27235L12.5075 4.5237L12.5079 4.52344L12.3437 4.27235ZM15.9719 3.89806L16.0689 3.61419V3.61419L15.9719 3.89806ZM17.2578 4.68286L17.0526 4.90173L17.0538 4.90286L17.2578 4.68286ZM18.1814 6.10758L18.4611 5.99912V5.99912L18.1814 6.10758ZM18.5255 8.89664V9.19664H18.8255V8.89664H18.5255ZM11.3778 8.89664H11.0778V9.19664H11.3778V8.89664ZM11.3778 7.66511V7.36511H11.0778V7.66511H11.3778ZM17.0766 7.66511V7.96511H17.3766V7.66511H17.0766ZM16.7627 6.26454L16.4944 6.39871L16.4955 6.40079L16.7627 6.26454ZM15.8813 5.29259L15.7218 5.54669L15.7231 5.54744L15.8813 5.29259ZM13.0681 5.359L13.2362 5.60748L13.2368 5.60712L13.0681 5.359ZM12.1203 6.44564L11.8515 6.31245V6.31245L12.1203 6.44564ZM12.1505 10.4844L11.8817 10.6176L11.8831 10.6203L12.1505 10.4844ZM13.1708 11.5891L13.0196 11.8483L13.0214 11.8493L13.1708 11.5891ZM15.7002 11.8064L15.7985 12.0899L15.8007 12.0891L15.7002 11.8064ZM16.4911 11.3235L16.6992 11.5395L16.7012 11.5376L16.4911 11.3235ZM17.0042 10.5145L17.0853 10.2257L16.82 10.1512L16.7233 10.4092L17.0042 10.5145ZM18.3806 10.9009L18.6671 10.9898L18.7585 10.6954L18.4617 10.6121L18.3806 10.9009ZM17.6502 12.1324L17.8647 12.3421L17.8659 12.3409L17.6502 12.1324ZM16.3824 12.9535L16.4899 13.2335L16.4919 13.2328L16.3824 12.9535ZM14.686 13.2432V12.9432C13.8377 12.9432 13.123 12.7564 12.5299 12.3954L12.3739 12.6516L12.2179 12.9079C12.9207 13.3356 13.7474 13.5432 14.686 13.5432V13.2432ZM12.3739 12.6516L12.5317 12.3965C11.9381 12.0292 11.4785 11.5174 11.152 10.8531L10.8828 10.9854L10.6135 11.1178C10.9873 11.8781 11.5218 12.4772 12.216 12.9067L12.3739 12.6516ZM10.8828 10.9854L11.1529 10.8549C10.8299 10.1864 10.6636 9.3994 10.6636 8.48613H10.3636H10.0636C10.0636 9.47247 10.2434 10.3517 10.6126 11.1159L10.8828 10.9854ZM10.3636 8.48613H10.6636C10.6636 7.57296 10.8298 6.78141 11.1534 6.1041L10.8828 5.97476L10.6121 5.84543C10.2434 6.61699 10.0636 7.49968 10.0636 8.48613H10.3636ZM10.8828 5.97476L11.1531 6.10473C11.4816 5.42134 11.9335 4.89769 12.5075 4.5237L12.3437 4.27235L12.1799 4.021C11.5062 4.45999 10.9842 5.07127 10.6124 5.8448L10.8828 5.97476ZM12.3437 4.27235L12.5079 4.52344C13.0814 4.14847 13.7553 3.95658 14.5411 3.95658V3.65658V3.35658C13.6527 3.35658 12.8617 3.57521 12.1795 4.02126L12.3437 4.27235ZM14.5411 3.65658V3.95658C14.9901 3.95658 15.4342 4.0313 15.8748 4.18193L15.9719 3.89806L16.0689 3.61419C15.5678 3.44285 15.0581 3.35658 14.5411 3.35658V3.65658ZM15.9719 3.89806L15.8748 4.18193C16.3029 4.32828 16.6952 4.56669 17.0526 4.90172L17.2578 4.68286L17.4629 4.464C17.0476 4.0746 16.5826 3.78981 16.0689 3.61419L15.9719 3.89806ZM17.2578 4.68286L17.0538 4.90286C17.4006 5.22441 17.6854 5.6583 17.9017 6.21604L18.1814 6.10758L18.4611 5.99912C18.2186 5.37361 17.8876 4.85769 17.4617 4.46286L17.2578 4.68286ZM18.1814 6.10758L17.9017 6.21604C18.1138 6.76299 18.2255 7.45214 18.2255 8.29295H18.5255H18.8255C18.8255 7.40317 18.7078 6.6354 18.4611 5.99912L18.1814 6.10758ZM18.5255 8.29295H18.2255V8.89664H18.5255H18.8255V8.29295H18.5255ZM18.5255 8.89664V8.59664H11.3778V8.89664V9.19664H18.5255V8.89664ZM11.3778 8.89664H11.6778V7.66511H11.3778H11.0778V8.89664H11.3778ZM11.3778 7.66511V7.96511H17.0766V7.66511V7.36511H11.3778V7.66511ZM17.0766 7.66511H17.3766C17.3766 7.10101 17.2635 6.5864 17.03 6.12828L16.7627 6.26454L16.4955 6.40079C16.6805 6.7637 16.7766 7.1828 16.7766 7.66511H17.0766ZM16.7627 6.26454L17.0311 6.13037C16.8015 5.67126 16.4701 5.30507 16.0396 5.03774L15.8813 5.29259L15.7231 5.54744C16.0573 5.75501 16.3134 6.03679 16.4944 6.3987L16.7627 6.26454ZM15.8813 5.29259L16.0408 5.0385C15.6078 4.76668 15.1039 4.63641 14.5411 4.63641V4.93641V5.23641C15.0087 5.23641 15.3983 5.3436 15.7219 5.54669L15.8813 5.29259ZM14.5411 4.93641V4.63641C13.9218 4.63641 13.3702 4.791 12.8995 5.11087L13.0681 5.359L13.2368 5.60712C13.5952 5.36355 14.0256 5.23641 14.5411 5.23641V4.93641ZM13.0681 5.359L12.9 5.11051C12.4463 5.41747 12.0958 5.81952 11.8515 6.31245L12.1203 6.44564L12.3891 6.57884C12.5876 6.17831 12.869 5.85593 13.2362 5.60748L13.0681 5.359ZM12.1203 6.44564L11.8515 6.31245C11.6091 6.80165 11.4883 7.3263 11.4883 7.88243H11.7883H12.0883C12.0883 7.41631 12.1888 6.9831 12.3891 6.57884L12.1203 6.44564ZM11.7883 7.88243H11.4883V8.70346H11.7883H12.0883V7.88243H11.7883ZM11.7883 8.70346H11.4883C11.4883 9.43709 11.6147 10.079 11.8817 10.6176L12.1505 10.4844L12.4193 10.3511C12.2034 9.9157 12.0883 9.37039 12.0883 8.70346H11.7883ZM12.1505 10.4844L11.8831 10.6203C12.1526 11.1505 12.5313 11.5634 13.0196 11.8482L13.1708 11.5891L13.3219 11.33C12.9409 11.1077 12.6394 10.7841 12.4179 10.3484L12.1505 10.4844ZM13.1708 11.5891L13.0214 11.8493C13.5079 12.1286 14.066 12.2634 14.686 12.2634V11.9634V11.6634C14.155 11.6634 13.7029 11.5487 13.3201 11.3289L13.1708 11.5891ZM14.686 11.9634V12.2634C15.0882 12.2634 15.4601 12.2072 15.7985 12.0899L15.7002 11.8064L15.602 11.523C15.3366 11.615 15.0325 11.6634 14.686 11.6634V11.9634ZM15.7002 11.8064L15.8007 12.0891C16.1445 11.967 16.4454 11.7841 16.6992 11.5395L16.4911 11.3235L16.2829 11.1075C16.094 11.2895 15.8677 11.4286 15.5998 11.5238L15.7002 11.8064ZM16.4911 11.3235L16.7012 11.5376C16.9571 11.2864 17.1507 10.9783 17.2851 10.6199L17.0042 10.5145L16.7233 10.4092C16.6163 10.6947 16.4678 10.9259 16.2809 11.1094L16.4911 11.3235ZM17.0042 10.5145L16.9231 10.8034L18.2995 11.1897L18.3806 10.9009L18.4617 10.6121L17.0853 10.2257L17.0042 10.5145ZM18.3806 10.9009L18.0941 10.812C17.9632 11.2337 17.7441 11.6033 17.4344 11.924L17.6502 12.1324L17.8659 12.3409C18.2404 11.9532 18.5082 11.5018 18.6671 10.9898L18.3806 10.9009ZM17.6502 12.1324L17.4356 11.9228C17.1261 12.2395 16.7406 12.4908 16.2729 12.6742L16.3824 12.9535L16.4919 13.2328C17.0304 13.0217 17.49 12.7257 17.8647 12.3421L17.6502 12.1324ZM16.3824 12.9535L16.2749 12.6734C15.8113 12.8514 15.2831 12.9432 14.686 12.9432V13.2432V13.5432C15.3447 13.5432 15.9474 13.4419 16.4899 13.2335L16.3824 12.9535ZM20.6928 13.05H20.3928V13.35H20.6928V13.05ZM20.6928 3.77732V3.47732H20.3928V3.77732H20.6928ZM22.0692 3.77732H22.3692V3.47732H22.0692V3.77732ZM22.0692 5.17789H21.7692V5.47789H22.0692V5.17789ZM22.1658 5.17789V5.47789H22.375L22.4473 5.2816L22.1658 5.17789ZM23.0834 4.06106L22.9207 3.809V3.809L23.0834 4.06106ZM25.3291 3.65658H25.6291V3.38509L25.359 3.35807L25.3291 3.65658ZM25.3291 5.10545L25.2564 5.39649L25.6291 5.48968V5.10545H25.3291ZM24.9971 5.05111L24.9478 5.34714L24.9556 5.34824L24.9971 5.05111ZM23.2524 5.29259L23.3927 5.5578L23.3938 5.55721L23.2524 5.29259ZM22.4193 6.06532L22.1646 5.90688L22.1641 5.90774L22.4193 6.06532ZM22.1175 13.05V13.35H22.4175V13.05H22.1175ZM20.6928 13.05H20.9928V3.77732H20.6928H20.3928V13.05H20.6928ZM20.6928 3.77732V4.07732H22.0692V3.77732V3.47732H20.6928V3.77732ZM22.0692 3.77732H21.7692V5.17789H22.0692H22.3692V3.77732H22.0692ZM22.0692 5.17789V5.47789H22.1658V5.17789V4.87789H22.0692V5.17789ZM22.1658 5.17789L22.4473 5.2816C22.5921 4.88866 22.8535 4.5665 23.2461 4.31311L23.0834 4.06106L22.9207 3.809C22.4279 4.12711 22.0776 4.54951 21.8843 5.07418L22.1658 5.17789ZM23.0834 4.06106L23.2461 4.31311C23.6376 4.06039 24.0796 3.93243 24.5806 3.93243V3.63243V3.33243C23.9707 3.33243 23.4146 3.49022 22.9207 3.809L23.0834 4.06106ZM24.5806 3.63243V3.93243C24.6817 3.93243 24.8097 3.93439 24.9653 3.93837L24.973 3.63847L24.9806 3.33857C24.8223 3.33451 24.6887 3.33243 24.5806 3.33243V3.63243ZM24.973 3.63847L24.9653 3.93837C25.1203 3.94235 25.2301 3.94818 25.2993 3.95509L25.3291 3.65658L25.359 3.35807C25.2672 3.34889 25.1395 3.34264 24.9806 3.33857L24.973 3.63847ZM25.3291 3.65658H25.0291V5.10545H25.3291H25.6291V3.65658H25.3291ZM25.3291 5.10545L25.4019 4.8144C25.335 4.79767 25.2071 4.77752 25.0386 4.75399L24.9971 5.05111L24.9556 5.34824C25.1332 5.37301 25.2267 5.38907 25.2564 5.39649L25.3291 5.10545ZM24.9971 5.05111L25.0464 4.7552C24.8595 4.72404 24.6638 4.70886 24.4598 4.70886V5.00886V5.30886C24.6341 5.30886 24.7966 5.32184 24.9478 5.34703L24.9971 5.05111ZM24.4598 5.00886V4.70886C23.9659 4.70886 23.5139 4.81286 23.1111 5.02797L23.2524 5.29259L23.3938 5.55721C23.6993 5.39401 24.0522 5.30886 24.4598 5.30886V5.00886ZM23.2524 5.29259L23.1122 5.02738C22.7161 5.23684 22.3984 5.53086 22.1646 5.90688L22.4193 6.06532L22.6741 6.22376C22.8507 5.93974 23.0885 5.71861 23.3927 5.5578L23.2524 5.29259ZM22.4193 6.06532L22.1641 5.90774C21.9309 6.28544 21.8175 6.71327 21.8175 7.18215H22.1175H22.4175C22.4175 6.81391 22.5053 6.49719 22.6746 6.2229L22.4193 6.06532ZM22.1175 7.18215H21.8175V13.05H22.1175H22.4175V7.18215H22.1175ZM22.1175 13.05V12.75H20.6928V13.05V13.35H22.1175V13.05ZM27.018 13.05H26.718V13.35H27.018V13.05ZM27.018 3.77732V3.47732H26.718V3.77732H27.018ZM28.3944 3.77732H28.6944V3.47732H28.3944V3.77732ZM28.3944 5.22618H28.0944V5.52619H28.3944V5.22618ZM28.5151 5.22618V5.52619H28.7201L28.7946 5.33525L28.5151 5.22618ZM29.4508 4.07313L29.6118 4.32633L29.6134 4.32525L29.4508 4.07313ZM32.5297 4.07313L32.3604 4.32086L32.3633 4.32275L32.5297 4.07313ZM33.4896 5.22618L33.2174 5.35232L33.2979 5.52619H33.4896V5.22618ZM33.5861 5.22618V5.52619H33.7723L33.8549 5.35945L33.5861 5.22618ZM34.6547 4.08521L34.8077 4.34323L34.8094 4.34226L34.6547 4.08521ZM38.3976 4.43535L38.1871 4.64911L38.1879 4.64992L38.3976 4.43535ZM39.1884 13.05V13.35H39.4884V13.05H39.1884ZM37.7637 13.05H37.4637V13.35H37.7637V13.05ZM37.2023 5.37711L37.017 5.61309V5.61309L37.2023 5.37711ZM34.3649 5.52803L34.586 5.73085L34.587 5.72972L34.3649 5.52803ZM33.8276 13.05V13.35H34.1276V13.05H33.8276ZM32.3788 13.05H32.0788V13.35H32.3788V13.05ZM31.8656 5.4254L31.6587 5.64259L31.66 5.64386L31.8656 5.4254ZM29.5052 5.23222L29.3485 4.97639L29.3471 4.97728L29.5052 5.23222ZM28.7325 6.05324L28.4711 5.90602L28.4705 5.90703L28.7325 6.05324ZM28.4427 13.05V13.35H28.7427V13.05H28.4427ZM27.018 13.05H27.318V3.77732H27.018H26.718V13.05H27.018ZM27.018 3.77732V4.07732H28.3944V3.77732V3.47732H27.018V3.77732ZM28.3944 3.77732H28.0944V5.22618H28.3944H28.6944V3.77732H28.3944ZM28.3944 5.22618V5.52619H28.5151V5.22618V4.92618H28.3944V5.22618ZM28.5151 5.22618L28.7946 5.33525C28.9656 4.89702 29.2373 4.5643 29.6118 4.32633L29.4508 4.07313L29.2899 3.81993C28.8031 4.12931 28.451 4.5653 28.2357 5.11712L28.5151 5.22618ZM29.4508 4.07313L29.6134 4.32525C29.9875 4.08403 30.4459 3.95658 31.0023 3.95658V3.65658V3.35658C30.3514 3.35658 29.7755 3.50684 29.2883 3.82101L29.4508 4.07313ZM31.0023 3.65658V3.95658C31.5684 3.95658 32.0148 4.08467 32.3605 4.32084L32.5297 4.07313L32.6989 3.82542C32.2316 3.50619 31.6597 3.35658 31.0023 3.35658V3.65658ZM32.5297 4.07313L32.3633 4.32275C32.7231 4.5626 33.0086 4.90194 33.2174 5.35232L33.4896 5.22618L33.7617 5.10005C33.5117 4.56038 33.1573 4.13101 32.6961 3.82352L32.5297 4.07313ZM33.4896 5.22618V5.52619H33.5861V5.22618V4.92618H33.4896V5.22618ZM33.5861 5.22618L33.8549 5.35945C34.0658 4.93417 34.3809 4.59643 34.8077 4.34322L34.6547 4.08521L34.5016 3.82719C33.9786 4.13743 33.5814 4.56034 33.3174 5.09293L33.5861 5.22618ZM34.6547 4.08521L34.8094 4.34226C35.2291 4.08972 35.7427 3.95658 36.3631 3.95658V3.65658V3.35658C35.6554 3.35658 35.0301 3.50919 34.5 3.82815L34.6547 4.08521ZM36.3631 3.65658V3.95658C37.1238 3.95658 37.7229 4.19205 38.1871 4.6491L38.3976 4.43535L38.6081 4.22159C38.0178 3.64029 37.2606 3.35658 36.3631 3.35658V3.65658ZM38.3976 4.43535L38.1879 4.64992C38.6346 5.08638 38.8884 5.79555 38.8884 6.84408H39.1884H39.4884C39.4884 5.71127 39.215 4.81461 38.6072 4.22077L38.3976 4.43535ZM39.1884 6.84408H38.8884V13.05H39.1884H39.4884V6.84408H39.1884ZM39.1884 13.05V12.75H37.7637V13.05V13.35H39.1884V13.05ZM37.7637 13.05H38.0637V6.84408H37.7637H37.4637V13.05H37.7637ZM37.7637 6.84408H38.0637C38.0637 6.10997 37.862 5.51355 37.3875 5.14112L37.2023 5.37711L37.017 5.61309C37.2912 5.82826 37.4637 6.20983 37.4637 6.84408H37.7637ZM37.2023 5.37711L37.3875 5.14112C36.9568 4.80303 36.4497 4.63641 35.8802 4.63641V4.93641V5.23641C36.3248 5.23641 36.6992 5.3636 37.017 5.61309L37.2023 5.37711ZM35.8802 4.93641V4.63641C35.1641 4.63641 34.5703 4.85564 34.1428 5.32634L34.3649 5.52803L34.587 5.72972C34.8759 5.4116 35.2923 5.23641 35.8802 5.23641V4.93641ZM34.3649 5.52803L34.1439 5.32521C33.7281 5.77832 33.5276 6.34899 33.5276 7.01312H33.8276H34.1276C34.1276 6.4779 34.2853 6.05852 34.586 5.73085L34.3649 5.52803ZM33.8276 7.01312H33.5276V13.05H33.8276H34.1276V7.01312H33.8276ZM33.8276 13.05V12.75H32.3788V13.05V13.35H33.8276V13.05ZM32.3788 13.05H32.6788V6.6992H32.3788H32.0788V13.05H32.3788ZM32.3788 6.6992H32.6788C32.6788 6.10041 32.4812 5.59282 32.0712 5.20694L31.8656 5.4254L31.66 5.64386C31.9342 5.90192 32.0788 6.24353 32.0788 6.6992H32.3788ZM31.8656 5.4254L32.0726 5.20822C31.6667 4.82148 31.1482 4.63641 30.5435 4.63641V4.93641V5.23641C31.0175 5.23641 31.3803 5.37734 31.6587 5.64258L31.8656 5.4254ZM30.5435 4.93641V4.63641C30.1168 4.63641 29.7166 4.7509 29.3485 4.9764L29.5052 5.23222L29.6619 5.48805C29.9377 5.31913 30.2297 5.23641 30.5435 5.23641V4.93641ZM29.5052 5.23222L29.3471 4.97728C28.983 5.20308 28.6912 5.51521 28.4711 5.90602L28.7325 6.05324L28.9938 6.20047C29.1681 5.891 29.3915 5.65577 29.6633 5.48716L29.5052 5.23222ZM28.7325 6.05324L28.4705 5.90703C28.2489 6.30407 28.1427 6.75626 28.1427 7.25459H28.4427H28.7427C28.7427 6.84336 28.8297 6.49466 28.9944 6.19945L28.7325 6.05324ZM28.4427 7.25459H28.1427V13.05H28.4427H28.7427V7.25459H28.4427ZM28.4427 13.05V12.75H27.018V13.05V13.35H28.4427V13.05ZM41.7934 13.05H41.4934V13.35H41.7934V13.05ZM41.7934 3.77732V3.47732H41.4934V3.77732H41.7934ZM43.2181 3.77732H43.5181V3.47732H43.2181V3.77732ZM43.2181 13.05V13.35H43.5181V13.05H43.2181ZM41.7994 1.94813L41.5917 2.16465L41.5939 2.16672L41.7994 1.94813ZM41.7994 0.583784L41.5939 0.365185L41.5917 0.36728L41.7994 0.583784ZM43.2301 0.583784L43.0225 0.8003L43.0247 0.802372L43.2301 0.583784ZM43.2301 1.94813L43.0247 1.72953L43.0225 1.73163L43.2301 1.94813ZM41.7934 13.05H42.0934V3.77732H41.7934H41.4934V13.05H41.7934ZM41.7934 3.77732V4.07732H43.2181V3.77732V3.47732H41.7934V3.77732ZM43.2181 3.77732H42.9181V13.05H43.2181H43.5181V3.77732H43.2181ZM43.2181 13.05V12.75H41.7934V13.05V13.35H43.2181V13.05ZM42.5178 2.23187V1.93187C42.316 1.93187 42.1501 1.86608 42.0049 1.72954L41.7994 1.94813L41.5939 2.16672C41.8511 2.40849 42.1642 2.53187 42.5178 2.53187V2.23187ZM41.7994 1.94813L42.0071 1.73163C41.8669 1.59721 41.8036 1.44724 41.8036 1.26596H41.5036H41.2036C41.2036 1.61592 41.3374 1.92073 41.5917 2.16464L41.7994 1.94813ZM41.5036 1.26596H41.8036C41.8036 1.08467 41.8669 0.9347 42.0071 0.800288L41.7994 0.583784L41.5917 0.36728C41.3374 0.611183 41.2036 0.915992 41.2036 1.26596H41.5036ZM41.7994 0.583784L42.0049 0.802373C42.1501 0.665833 42.316 0.600049 42.5178 0.600049V0.300049V4.86374e-05C42.1642 4.86374e-05 41.8511 0.123422 41.5939 0.365195L41.7994 0.583784ZM42.5178 0.300049V0.600049C42.7195 0.600049 42.8821 0.665674 43.0225 0.800289L43.2301 0.583784L43.4378 0.36728C43.1837 0.12358 42.8715 4.86374e-05 42.5178 4.86374e-05V0.300049ZM43.2301 0.583784L43.0247 0.802372C43.1683 0.937368 43.232 1.08675 43.232 1.26596H43.532H43.832C43.832 0.913914 43.6945 0.608515 43.4356 0.365196L43.2301 0.583784ZM43.532 1.26596H43.232C43.232 1.44516 43.1683 1.59455 43.0247 1.72954L43.2301 1.94813L43.4356 2.16672C43.6945 1.9234 43.832 1.618 43.832 1.26596H43.532ZM43.2301 1.94813L43.0225 1.73163C42.8821 1.86624 42.7195 1.93187 42.5178 1.93187V2.23187V2.53187C42.8715 2.53187 43.1837 2.40833 43.4378 2.16463L43.2301 1.94813ZM52.3957 5.85403L52.4774 6.14269L52.7802 6.05699L52.6801 5.75864L52.3957 5.85403ZM51.1159 6.21624L50.8352 6.32216L50.9325 6.57993L51.1976 6.5049L51.1159 6.21624ZM50.7597 5.59444L50.5191 5.77373L50.5232 5.77895L50.7597 5.59444ZM50.1319 5.08734L50.266 4.81901V4.81901L50.1319 5.08734ZM47.6929 5.28052L47.863 5.52765L47.8636 5.52727L47.6929 5.28052ZM47.5179 7.10367L47.3309 7.33829V7.33829L47.5179 7.10367ZM48.7253 7.61681L48.6525 7.90786L48.6537 7.90815L48.7253 7.61681ZM50.1017 7.95488L50.0301 8.24622L50.0309 8.24641L50.1017 7.95488ZM51.955 8.87853L51.7408 9.08857L51.7418 9.08961L51.955 8.87853ZM52.1059 11.891L51.8637 11.7139L51.8626 11.7155L52.1059 11.891ZM46.5942 12.6275L46.7599 12.3773V12.3773L46.5942 12.6275ZM45.417 10.8285L45.3443 10.5374L45.0643 10.6074L45.1234 10.8899L45.417 10.8285ZM46.7693 10.4904L47.0598 10.4154L46.9854 10.1271L46.6965 10.1993L46.7693 10.4904ZM47.4998 11.6133L47.3283 11.8594L47.3296 11.8603L47.4998 11.6133ZM50.5001 11.565L50.6757 11.8082L50.6761 11.8079L50.5001 11.565ZM50.7537 9.72974L50.5435 9.94378L50.5454 9.94569L50.7537 9.72974ZM49.7153 9.23471L49.6469 9.52679L49.6473 9.5269L49.7153 9.23471ZM48.1699 8.87249L48.1007 9.16441L48.1014 9.16458L48.1699 8.87249ZM46.2984 7.93677L46.0781 8.14043L46.0801 8.14257L46.2984 7.93677ZM46.1475 4.94849L45.9063 4.77003L45.9052 4.7716L46.1475 4.94849ZM47.3609 4.00069L47.2389 3.72663L47.2381 3.72699L47.3609 4.00069ZM51.2729 4.26027L51.0899 4.49806L51.0908 4.49874L51.2729 4.26027ZM52.3957 5.85403L52.314 5.56536L51.0342 5.92758L51.1159 6.21624L51.1976 6.5049L52.4774 6.14269L52.3957 5.85403ZM51.1159 6.21624L51.3966 6.11032C51.3042 5.8656 51.1696 5.63218 50.9963 5.40993L50.7597 5.59444L50.5232 5.77895C50.6637 5.95916 50.7666 6.14027 50.8352 6.32216L51.1159 6.21624ZM50.7597 5.59444L51.0003 5.41519C50.8152 5.16674 50.5669 4.96943 50.266 4.81901L50.1319 5.08734L49.9977 5.35566C50.2281 5.47087 50.3984 5.61163 50.5191 5.77368L50.7597 5.59444ZM50.1319 5.08734L50.266 4.81901C49.9456 4.65879 49.5554 4.58812 49.1116 4.58812V4.88812V5.18812C49.4969 5.18812 49.7869 5.25025 49.9977 5.35566L50.1319 5.08734ZM49.1116 4.88812V4.58812C48.4976 4.58812 47.9614 4.73012 47.5223 5.03377L47.6929 5.28052L47.8636 5.52727C48.1811 5.30771 48.5907 5.18812 49.1116 5.18812V4.88812ZM47.6929 5.28052L47.5229 5.03338C47.0805 5.33782 46.8315 5.7523 46.8315 6.26454H47.1315H47.4315C47.4315 5.9799 47.5568 5.73837 47.863 5.52765L47.6929 5.28052ZM47.1315 6.26454H46.8315C46.8315 6.70214 46.9959 7.07136 47.3309 7.33829L47.5179 7.10367L47.7048 6.86905C47.5247 6.72547 47.4315 6.53527 47.4315 6.26454H47.1315ZM47.5179 7.10367L47.3309 7.33829C47.6379 7.58294 48.0891 7.767 48.6525 7.90785L48.7253 7.61681L48.798 7.32577C48.2667 7.19294 47.913 7.03491 47.7048 6.86905L47.5179 7.10367ZM48.7253 7.61681L48.6537 7.90815L50.0301 8.24622L50.1017 7.95488L50.1732 7.66354L48.7968 7.32547L48.7253 7.61681ZM50.1017 7.95488L50.0309 8.24641C50.8295 8.44025 51.3879 8.72866 51.7408 9.08857L51.955 8.87853L52.1692 8.66849C51.7092 8.19932 51.032 7.87197 50.1724 7.66334L50.1017 7.95488ZM51.955 8.87853L51.7418 9.08961C52.0857 9.43691 52.2648 9.88684 52.2648 10.4662H52.5648H52.8648C52.8648 9.74971 52.6373 9.14117 52.1682 8.66744L51.955 8.87853ZM52.5648 10.4662H52.2648C52.2648 10.9355 52.1311 11.3481 51.8637 11.714L52.1059 11.891L52.3482 12.068C52.6926 11.5967 52.8648 11.0594 52.8648 10.4662H52.5648ZM52.1059 11.891L51.8626 11.7155C51.5963 12.0848 51.2186 12.3836 50.7164 12.6069L50.8382 12.881L50.96 13.1552C51.5444 12.8954 52.0119 12.5342 52.3493 12.0664L52.1059 11.891ZM50.8382 12.881L50.7164 12.6069C50.2186 12.8281 49.6297 12.9432 48.9426 12.9432V13.2432V13.5432C49.6963 13.5432 50.3711 13.4169 50.96 13.1552L50.8382 12.881ZM48.9426 13.2432V12.9432C48.0398 12.9432 47.3188 12.7475 46.7599 12.3773L46.5942 12.6275L46.4286 12.8776C47.1093 13.3284 47.9538 13.5432 48.9426 13.5432V13.2432ZM46.5942 12.6275L46.7599 12.3773C46.2118 12.0143 45.861 11.4857 45.7107 10.767L45.417 10.8285L45.1234 10.8899C45.3031 11.7488 45.7371 12.4196 46.4286 12.8776L46.5942 12.6275ZM45.417 10.8285L45.4898 11.1195L46.8421 10.7814L46.7693 10.4904L46.6965 10.1993L45.3443 10.5374L45.417 10.8285ZM46.7693 10.4904L46.4788 10.5654C46.6221 11.1207 46.9009 11.5617 47.3283 11.8594L47.4998 11.6133L47.6712 11.3671C47.3822 11.1657 47.1741 10.8582 47.0598 10.4154L46.7693 10.4904ZM47.4998 11.6133L47.3296 11.8603C47.7558 12.154 48.2937 12.2875 48.9184 12.2875V11.9875V11.6875C48.3761 11.6875 47.9681 11.5716 47.67 11.3662L47.4998 11.6133ZM48.9184 11.9875V12.2875C49.6222 12.2875 50.218 12.1385 50.6757 11.8082L50.5001 11.565L50.3246 11.3217C50.0014 11.5549 49.5428 11.6875 48.9184 11.6875V11.9875ZM50.5001 11.565L50.6761 11.8079C51.1289 11.4798 51.3917 11.0551 51.3917 10.5387H51.0917H50.7917C50.7917 10.8192 50.6601 11.0786 50.3241 11.322L50.5001 11.565ZM51.0917 10.5387H51.3917C51.3917 10.1379 51.2478 9.78943 50.9619 9.51378L50.7537 9.72974L50.5454 9.94569C50.7103 10.1047 50.7917 10.2956 50.7917 10.5387H51.0917ZM50.7537 9.72974L50.9639 9.5157C50.6839 9.24067 50.2781 9.05769 49.7833 8.94252L49.7153 9.23471L49.6473 9.5269C50.0862 9.62905 50.3727 9.77609 50.5435 9.94377L50.7537 9.72974ZM49.7153 9.23471L49.7838 8.94262L48.2383 8.58041L48.1699 8.87249L48.1014 9.16458L49.6469 9.52679L49.7153 9.23471ZM48.1699 8.87249L48.239 8.58058C47.42 8.3865 46.8594 8.09448 46.5167 7.73096L46.2984 7.93677L46.0801 8.14257C46.5343 8.62423 47.2213 8.95602 48.1007 9.16441L48.1699 8.87249ZM46.2984 7.93677L46.5187 7.73311C46.1809 7.36775 46.0068 6.90971 46.0068 6.33698H45.7068H45.4068C45.4068 7.04408 45.6271 7.65257 46.0781 8.14042L46.2984 7.93677ZM45.7068 6.33698H46.0068C46.0068 5.87398 46.1354 5.4738 46.3898 5.12537L46.1475 4.94849L45.9052 4.7716C45.572 5.22809 45.4068 5.75358 45.4068 6.33698H45.7068ZM46.1475 4.94849L46.3886 5.12694C46.6523 4.77059 47.0139 4.48527 47.4838 4.27438L47.3609 4.00069L47.2381 3.72699C46.6857 3.97491 46.2383 4.32145 45.9063 4.77003L46.1475 4.94849ZM47.3609 4.00069L47.483 4.27474C47.9542 4.06491 48.4952 3.95658 49.1116 3.95658V3.65658V3.35658C48.4241 3.35658 47.798 3.47766 47.2389 3.72663L47.3609 4.00069ZM49.1116 3.65658V3.95658C49.9884 3.95658 50.6362 4.14906 51.0899 4.49806L51.2729 4.26027L51.4558 4.02249C50.8631 3.56657 50.0701 3.35658 49.1116 3.35658V3.65658ZM51.2729 4.26027L51.0908 4.49874C51.5679 4.86295 51.908 5.34325 52.1113 5.94941L52.3957 5.85403L52.6801 5.75864C52.4407 5.04472 52.0322 4.46252 51.4549 4.02181L51.2729 4.26027ZM61.2776 5.85403L61.3593 6.14269L61.662 6.05699L61.562 5.75864L61.2776 5.85403ZM59.9977 6.21624L59.717 6.32216L59.8143 6.57993L60.0794 6.5049L59.9977 6.21624ZM59.6415 5.59444L59.4009 5.77373L59.405 5.77895L59.6415 5.59444ZM59.0137 5.08734L59.1479 4.81901V4.81901L59.0137 5.08734ZM56.5748 5.28052L56.7449 5.52765L56.7454 5.52727L56.5748 5.28052ZM56.3997 7.10367L56.2128 7.33829V7.33829L56.3997 7.10367ZM57.6071 7.61681L57.5343 7.90786L57.5355 7.90815L57.6071 7.61681ZM58.9835 7.95488L58.912 8.24622L58.9128 8.24641L58.9835 7.95488ZM60.8369 8.87853L60.6227 9.08857L60.6237 9.08961L60.8369 8.87853ZM60.9878 11.891L60.7456 11.7139L60.7445 11.7155L60.9878 11.891ZM55.4761 12.6275L55.6417 12.3773V12.3773L55.4761 12.6275ZM54.2989 10.8285L54.2261 10.5374L53.9461 10.6074L54.0052 10.8899L54.2989 10.8285ZM55.6511 10.4904L55.9416 10.4154L55.8672 10.1271L55.5784 10.1993L55.6511 10.4904ZM56.3816 11.6133L56.2101 11.8594L56.2114 11.8603L56.3816 11.6133ZM59.382 11.565L59.5575 11.8082L59.558 11.8079L59.382 11.565ZM59.6355 9.72974L59.4253 9.94378L59.4273 9.94569L59.6355 9.72974ZM58.5972 9.23471L58.5287 9.52679L58.5291 9.5269L58.5972 9.23471ZM57.0517 8.87249L56.9825 9.16441L56.9832 9.16458L57.0517 8.87249ZM55.1803 7.93677L54.96 8.14043L54.962 8.14257L55.1803 7.93677ZM55.0293 4.94849L54.7882 4.77003L54.787 4.7716L55.0293 4.94849ZM56.2428 4.00069L56.1207 3.72663L56.1199 3.72699L56.2428 4.00069ZM60.1547 4.26027L59.9718 4.49806L59.9727 4.49874L60.1547 4.26027ZM61.2776 5.85403L61.1959 5.56536L59.916 5.92758L59.9977 6.21624L60.0794 6.5049L61.3593 6.14269L61.2776 5.85403ZM59.9977 6.21624L60.2784 6.11032C60.1861 5.8656 60.0515 5.63218 59.8781 5.40993L59.6415 5.59444L59.405 5.77895C59.5456 5.95916 59.6484 6.14027 59.717 6.32216L59.9977 6.21624ZM59.6415 5.59444L59.8821 5.41519C59.697 5.16674 59.4487 4.96943 59.1479 4.81901L59.0137 5.08734L58.8795 5.35566C59.1099 5.47087 59.2802 5.61163 59.401 5.77368L59.6415 5.59444ZM59.0137 5.08734L59.1479 4.81901C58.8274 4.65879 58.4372 4.58812 57.9935 4.58812V4.88812V5.18812C58.3788 5.18812 58.6687 5.25025 58.8795 5.35566L59.0137 5.08734ZM57.9935 4.88812V4.58812C57.3794 4.58812 56.8433 4.73012 56.4042 5.03377L56.5748 5.28052L56.7454 5.52727C57.0629 5.30771 57.4726 5.18812 57.9935 5.18812V4.88812ZM56.5748 5.28052L56.4047 5.03338C55.9623 5.33782 55.7133 5.7523 55.7133 6.26454H56.0134H56.3134C56.3134 5.9799 56.4387 5.73837 56.7449 5.52765L56.5748 5.28052ZM56.0134 6.26454H55.7133C55.7133 6.70214 55.8778 7.07136 56.2128 7.33829L56.3997 7.10367L56.5867 6.86905C56.4065 6.72547 56.3134 6.53527 56.3134 6.26454H56.0134ZM56.3997 7.10367L56.2128 7.33829C56.5198 7.58294 56.9709 7.767 57.5343 7.90785L57.6071 7.61681L57.6799 7.32577C57.1486 7.19294 56.7948 7.03491 56.5867 6.86905L56.3997 7.10367ZM57.6071 7.61681L57.5355 7.90815L58.912 8.24622L58.9835 7.95488L59.0551 7.66354L57.6787 7.32547L57.6071 7.61681ZM58.9835 7.95488L58.9128 8.24641C59.7114 8.44025 60.2697 8.72866 60.6227 9.08857L60.8369 8.87853L61.0511 8.66849C60.591 8.19932 59.9138 7.87197 59.0543 7.66334L58.9835 7.95488ZM60.8369 8.87853L60.6237 9.08961C60.9676 9.43691 61.1466 9.88684 61.1466 10.4662H61.4466H61.7466C61.7466 9.74971 61.5191 9.14117 61.05 8.66744L60.8369 8.87853ZM61.4466 10.4662H61.1466C61.1466 10.9355 61.0129 11.3481 60.7456 11.714L60.9878 11.891L61.23 12.068C61.5744 11.5967 61.7466 11.0594 61.7466 10.4662H61.4466ZM60.9878 11.891L60.7445 11.7155C60.4781 12.0848 60.1005 12.3836 59.5982 12.6069L59.72 12.881L59.8419 13.1552C60.4262 12.8954 60.8937 12.5342 61.2311 12.0664L60.9878 11.891ZM59.72 12.881L59.5982 12.6069C59.1004 12.8281 58.5116 12.9432 57.8244 12.9432V13.2432V13.5432C58.5781 13.5432 59.253 13.4169 59.8419 13.1552L59.72 12.881ZM57.8244 13.2432V12.9432C56.9216 12.9432 56.2006 12.7475 55.6417 12.3773L55.4761 12.6275L55.3104 12.8776C55.9911 13.3284 56.8357 13.5432 57.8244 13.5432V13.2432ZM55.4761 12.6275L55.6417 12.3773C55.0936 12.0143 54.7428 11.4857 54.5925 10.767L54.2989 10.8285L54.0052 10.8899C54.1849 11.7488 54.6189 12.4196 55.3104 12.8776L55.4761 12.6275ZM54.2989 10.8285L54.3716 11.1195L55.7239 10.7814L55.6511 10.4904L55.5784 10.1993L54.2261 10.5374L54.2989 10.8285ZM55.6511 10.4904L55.3606 10.5654C55.504 11.1207 55.7828 11.5617 56.2101 11.8594L56.3816 11.6133L56.5531 11.3671C56.264 11.1657 56.0559 10.8582 55.9416 10.4154L55.6511 10.4904ZM56.3816 11.6133L56.2114 11.8603C56.6377 12.154 57.1755 12.2875 57.8003 12.2875V11.9875V11.6875C57.2579 11.6875 56.85 11.5716 56.5518 11.3662L56.3816 11.6133ZM57.8003 11.9875V12.2875C58.504 12.2875 59.0999 12.1385 59.5575 11.8082L59.382 11.565L59.2064 11.3217C58.8833 11.5549 58.4247 11.6875 57.8003 11.6875V11.9875ZM59.382 11.565L59.558 11.8079C60.0108 11.4798 60.2736 11.0551 60.2736 10.5387H59.9736H59.6736C59.6736 10.8192 59.542 11.0786 59.2059 11.322L59.382 11.565ZM59.9736 10.5387H60.2736C60.2736 10.1379 60.1296 9.78943 59.8438 9.51378L59.6355 9.72974L59.4273 9.94569C59.5922 10.1047 59.6736 10.2956 59.6736 10.5387H59.9736ZM59.6355 9.72974L59.8457 9.5157C59.5657 9.24067 59.16 9.05769 58.6652 8.94252L58.5972 9.23471L58.5291 9.5269C58.968 9.62905 59.2546 9.77609 59.4253 9.94377L59.6355 9.72974ZM58.5972 9.23471L58.6656 8.94262L57.1202 8.58041L57.0517 8.87249L56.9832 9.16458L58.5287 9.52679L58.5972 9.23471ZM57.0517 8.87249L57.1209 8.58058C56.3019 8.3865 55.7413 8.09448 55.3985 7.73096L55.1803 7.93677L54.962 8.14257C55.4161 8.62423 56.1031 8.95602 56.9825 9.16441L57.0517 8.87249ZM55.1803 7.93677L55.4005 7.73311C55.0627 7.36775 54.8886 6.90971 54.8886 6.33698H54.5886H54.2886C54.2886 7.04408 54.5089 7.65257 54.96 8.14042L55.1803 7.93677ZM54.5886 6.33698H54.8886C54.8886 5.87398 55.0173 5.4738 55.2716 5.12537L55.0293 4.94849L54.787 4.7716C54.4538 5.22809 54.2886 5.75358 54.2886 6.33698H54.5886ZM55.0293 4.94849L55.2705 5.12694C55.5342 4.77059 55.8957 4.48527 56.3656 4.27438L56.2428 4.00069L56.1199 3.72699C55.5675 3.97491 55.1201 4.32145 54.7882 4.77003L55.0293 4.94849ZM56.2428 4.00069L56.3648 4.27474C56.836 4.06491 57.377 3.95658 57.9935 3.95658V3.65658V3.35658C57.306 3.35658 56.6798 3.47766 56.1207 3.72663L56.2428 4.00069ZM57.9935 3.65658V3.95658C58.8702 3.95658 59.5181 4.14906 59.9718 4.49806L60.1547 4.26027L60.3376 4.02249C59.7449 3.56657 58.9519 3.35658 57.9935 3.35658V3.65658ZM60.1547 4.26027L59.9727 4.49874C60.4498 4.86295 60.7898 5.34325 60.9931 5.94941L61.2776 5.85403L61.562 5.75864C61.3226 5.04472 60.914 4.46252 60.3367 4.02181L60.1547 4.26027ZM64.7201 12.9353L64.5924 13.2068L64.5943 13.2077L64.7201 12.9353ZM63.5791 11.9634L63.3288 12.1287L63.3295 12.1298L63.5791 11.9634ZM63.4705 9.12604L63.7238 9.28671L63.7247 9.28532L63.4705 9.12604ZM65.4687 7.91866L65.5329 8.21172L65.5349 8.21125L65.4687 7.91866ZM66.7546 7.68925L66.7163 7.3917L66.7156 7.39179L66.7546 7.68925ZM68.1249 7.52626L68.1558 7.82468L68.1588 7.82434L68.1249 7.52626ZM68.8977 7.32704L68.7509 7.06538L68.7481 7.06697L68.8977 7.32704ZM68.6562 5.40729L68.4415 5.61679L68.4428 5.61812L68.6562 5.40729ZM65.5894 5.359L65.7726 5.5966V5.5966L65.5894 5.359ZM64.7744 6.31283L64.6735 6.59536L64.9313 6.68741L65.0465 6.43917L64.7744 6.31283ZM63.4222 5.82988L63.1464 5.7117L63.0207 6.00506L63.3213 6.1124L63.4222 5.82988ZM64.3881 4.51383L64.5726 4.75038L64.5729 4.75013L64.3881 4.51383ZM65.7162 3.84976L65.7918 4.14008L65.7935 4.13964L65.7162 3.84976ZM68.1672 3.76525L68.1119 4.06013L68.1154 4.06074L68.1672 3.76525ZM69.2961 4.19387L69.1418 4.45112L69.143 4.45186L69.2961 4.19387ZM70.2077 5.17789L69.9449 5.32256V5.32256L70.2077 5.17789ZM70.5699 13.05V13.35H70.8699V13.05H70.5699ZM69.1452 13.05H68.8452V13.35H69.1452V13.05ZM69.1452 11.7944H69.4452V11.4944H69.1452V11.7944ZM69.0727 11.7944V11.4944H68.884L68.8023 11.6645L69.0727 11.7944ZM68.5898 12.4403L68.8038 12.6506V12.6506L68.5898 12.4403ZM67.6903 13.0259L67.5718 12.7503V12.7503L67.6903 13.0259ZM67.9619 11.6555L67.814 11.3945L67.8128 11.3952L67.9619 11.6555ZM68.8433 10.7983L68.5832 10.6488L68.5819 10.6511L68.8433 10.7983ZM69.1452 8.38954H69.4452V7.56092L68.9147 8.19748L69.1452 8.38954ZM68.7467 8.58876L68.8276 8.87767L68.8314 8.87657L68.7467 8.58876ZM68.0465 8.73968L68.0921 9.03621L68.0958 9.0356L68.0465 8.73968ZM67.2798 8.84834L67.314 9.14642L67.3182 9.14588L67.2798 8.84834ZM66.6821 8.92079L66.7209 9.21827L66.7213 9.21822L66.6821 8.92079ZM65.6438 9.15623L65.7376 9.4412L65.7397 9.44048L65.6438 9.15623ZM64.871 9.63315L64.6508 9.42949L64.6506 9.42966L64.871 9.63315ZM65.1306 11.6133L64.9598 11.8599L64.963 11.862L65.1306 11.6133ZM65.3781 2.66652L65.3651 2.96624L65.6781 2.97985V2.66652H65.3781ZM64.2673 2.61823H63.9673V2.90547L64.2543 2.91795L64.2673 2.61823ZM64.7926 1.109L64.5693 0.908559L64.5692 0.908689L64.7926 1.109ZM66.7123 0.638116L66.5881 0.911276L66.5934 0.913535L66.7123 0.638116ZM67.2194 0.903741L67.3784 0.649342V0.649342L67.2194 0.903741ZM67.7144 1.1754L67.5854 1.44637L67.5932 1.44981L67.7144 1.1754ZM68.8796 1.02448L68.6553 0.825171L68.6551 0.825488L68.8796 1.02448ZM69.121 0.372491L69.1476 0.0736694L68.821 0.0446415V0.372491H69.121ZM70.2077 0.469083H70.5077V0.194567L70.2342 0.170261L70.2077 0.469083ZM69.6764 1.96624L69.4596 1.75887L69.4585 1.76012L69.6764 1.96624ZM67.6842 2.40694L67.5624 2.68113L67.5676 2.68331L67.6842 2.40694ZM67.2013 2.13527L67.3757 1.89116V1.89116L67.2013 2.13527ZM66.7546 1.86965L66.6176 2.13665L66.6232 2.13935L66.7546 1.86965ZM65.6015 2.02057L65.3723 1.82702L65.3719 1.82749L65.6015 2.02057ZM66.3199 13.2674V12.9674C65.7708 12.9674 65.2812 12.8642 64.846 12.663L64.7201 12.9353L64.5943 13.2077C65.1169 13.4492 65.6938 13.5674 66.3199 13.5674V13.2674ZM64.7201 12.9353L64.8479 12.6639C64.4162 12.4608 64.0789 12.1722 63.8288 11.797L63.5791 11.9634L63.3295 12.1298C63.6429 12.5998 64.0662 12.9592 64.5924 13.2068L64.7201 12.9353ZM63.5791 11.9634L63.8295 11.7981C63.5856 11.4288 63.4566 10.9737 63.4566 10.4179H63.1565H62.8566C62.8566 11.0696 63.0092 11.6447 63.3288 12.1287L63.5791 11.9634ZM63.1565 10.4179H63.4566C63.4566 9.92378 63.5541 9.55432 63.7238 9.28671L63.4705 9.12604L63.2171 8.96538C62.9683 9.35781 62.8566 9.84961 62.8566 10.4179H63.1565ZM63.4705 9.12604L63.7247 9.28532C63.9062 8.99567 64.1472 8.76994 64.4522 8.60519L64.3096 8.34124L64.167 8.0773C63.7717 8.29086 63.4533 8.58833 63.2162 8.96677L63.4705 9.12604ZM64.3096 8.34124L64.4522 8.60519C64.7757 8.43045 65.1353 8.2988 65.5329 8.21171L65.4687 7.91866L65.4045 7.6256C64.9569 7.72365 64.5438 7.87372 64.167 8.0773L64.3096 8.34124ZM65.4687 7.91866L65.5349 8.21125C65.9526 8.11669 66.3721 8.04185 66.7935 7.98672L66.7546 7.68925L66.7156 7.39179C66.2758 7.44934 65.838 7.52744 65.4025 7.62606L65.4687 7.91866ZM66.7546 7.68925L66.7928 7.9868C67.3551 7.91451 67.8092 7.86052 68.1558 7.82466L68.1249 7.52626L68.0941 7.22785C67.7404 7.26443 67.2809 7.31911 66.7163 7.3917L66.7546 7.68925ZM68.1249 7.52626L68.1588 7.82434C68.5231 7.78294 68.8312 7.71129 69.0472 7.58711L68.8977 7.32704L68.7481 7.06697C68.6421 7.12791 68.4351 7.18908 68.0911 7.22817L68.1249 7.52626ZM68.8977 7.32704L69.0444 7.58868C69.3257 7.4309 69.4452 7.15471 69.4452 6.84408H69.1452H68.8452C68.8452 6.99226 68.7997 7.03804 68.7509 7.06539L68.8977 7.32704ZM69.1452 6.84408H69.4452V6.79579H69.1452H68.8452V6.84408H69.1452ZM69.1452 6.79579H69.4452C69.4452 6.14464 69.2656 5.59735 68.8696 5.19647L68.6562 5.40729L68.4428 5.61812C68.6988 5.87727 68.8452 6.25565 68.8452 6.79579H69.1452ZM68.6562 5.40729L68.8709 5.1978C68.4722 4.7891 67.8915 4.61226 67.1892 4.61226V4.91226V5.21227C67.799 5.21227 68.1963 5.36545 68.4415 5.61679L68.6562 5.40729ZM67.1892 4.91226V4.61226C66.4684 4.61226 65.8623 4.76985 65.4063 5.1214L65.5894 5.359L65.7726 5.5966C66.0893 5.3525 66.5497 5.21227 67.1892 5.21227V4.91226ZM65.5894 5.359L65.4063 5.1214C64.9931 5.43986 64.6849 5.79335 64.5023 6.1865L64.7744 6.31283L65.0465 6.43917C65.1779 6.15618 65.413 5.87378 65.7726 5.5966L65.5894 5.359ZM64.7744 6.31283L64.8754 6.03031L63.5231 5.54736L63.4222 5.82988L63.3213 6.1124L64.6735 6.59536L64.7744 6.31283ZM63.4222 5.82988L63.6979 5.94805C63.9235 5.42181 64.2173 5.02748 64.5726 4.75038L64.3881 4.51383L64.2036 4.27728C63.7539 4.62802 63.4039 5.11105 63.1464 5.7117L63.4222 5.82988ZM64.3881 4.51383L64.5729 4.75013C64.9485 4.45636 65.3543 4.25405 65.7918 4.14008L65.7162 3.84976L65.6406 3.55945C65.1202 3.695 64.6407 3.9354 64.2033 4.27753L64.3881 4.51383ZM65.7162 3.84976L65.7935 4.13964C66.253 4.0171 66.7019 3.95658 67.1409 3.95658V3.65658V3.35658C66.6462 3.35658 66.1453 3.42485 65.6389 3.55989L65.7162 3.84976ZM67.1409 3.65658V3.95658C67.4154 3.95658 67.7384 3.99007 68.1119 4.06011L68.1672 3.76525L68.2225 3.47039C67.8233 3.39554 67.4621 3.35658 67.1409 3.35658V3.65658ZM68.1672 3.76525L68.1154 4.06074C68.4672 4.1224 68.809 4.25146 69.1418 4.45112L69.2961 4.19387L69.4505 3.93662C69.0588 3.70162 68.6479 3.54493 68.219 3.46975L68.1672 3.76525ZM69.2961 4.19387L69.143 4.45186C69.4557 4.63741 69.7246 4.92244 69.9449 5.32256L70.2077 5.17789L70.4705 5.03322C70.2078 4.55597 69.869 4.18499 69.4492 3.93587L69.2961 4.19387ZM70.2077 5.17789L69.9449 5.32256C70.1531 5.70091 70.2699 6.23263 70.2699 6.94067H70.5699H70.8699C70.8699 6.17571 70.7452 5.53224 70.4705 5.03322L70.2077 5.17789ZM70.5699 6.94067H70.2699V13.05H70.5699H70.8699V6.94067H70.5699ZM70.5699 13.05V12.75H69.1452V13.05V13.35H70.5699V13.05ZM69.1452 13.05H69.4452V11.7944H69.1452H68.8452V13.05H69.1452ZM69.1452 11.7944V11.4944H69.0727V11.7944V12.0944H69.1452V11.7944ZM69.0727 11.7944L68.8023 11.6645C68.7247 11.8261 68.5873 12.0147 68.3758 12.2301L68.5898 12.4403L68.8038 12.6506C69.043 12.4071 69.2276 12.1651 69.3432 11.9242L69.0727 11.7944ZM68.5898 12.4403L68.3758 12.2301C68.1839 12.4254 67.9195 12.6008 67.5718 12.7503L67.6903 13.0259L67.8088 13.3015C68.2097 13.1291 68.5449 12.9141 68.8038 12.6506L68.5898 12.4403ZM67.6903 13.0259L67.5718 12.7503C67.2449 12.8909 66.831 12.9674 66.3199 12.9674V13.2674V13.5674C66.8874 13.5674 67.3871 13.4829 67.8088 13.3015L67.6903 13.0259ZM66.5372 11.9875V12.2875C67.1393 12.2875 67.6688 12.1692 68.1111 11.9158L67.9619 11.6555L67.8128 11.3952C67.4824 11.5845 67.062 11.6875 66.5372 11.6875V11.9875ZM67.9619 11.6555L68.1099 11.9165C68.5421 11.6715 68.8777 11.3485 69.1047 10.9455L68.8433 10.7983L68.5819 10.6511C68.4145 10.9483 68.1626 11.1969 67.814 11.3945L67.9619 11.6555ZM68.8433 10.7983L69.1034 10.9478C69.3296 10.5543 69.4452 10.1348 69.4452 9.69351H69.1452H68.8452C68.8452 10.025 68.7596 10.342 68.5832 10.6488L68.8433 10.7983ZM69.1452 9.69351H69.4452V8.38954H69.1452H68.8452V9.69351H69.1452ZM69.1452 8.38954L68.9147 8.19748C68.9219 8.1889 68.9145 8.20118 68.8661 8.22535C68.8209 8.24797 68.7544 8.27379 68.6621 8.30095L68.7467 8.58876L68.8314 8.87657C68.9443 8.84335 69.0469 8.80578 69.1345 8.762C69.2189 8.71976 69.3081 8.66262 69.3757 8.58159L69.1452 8.38954ZM68.7467 8.58876L68.6659 8.29987C68.4775 8.35261 68.255 8.40079 67.9971 8.44376L68.0465 8.73968L68.0958 9.0356C68.3692 8.99003 68.6136 8.93759 68.8276 8.87765L68.7467 8.58876ZM68.0465 8.73968L68.0008 8.44317C67.7415 8.48306 67.4884 8.51894 67.2414 8.55081L67.2798 8.84834L67.3182 9.14588C67.5702 9.11335 67.8282 9.07679 68.0921 9.03619L68.0465 8.73968ZM67.2798 8.84834L67.2456 8.5503C66.9993 8.57856 66.7982 8.60292 66.643 8.62335L66.6821 8.92079L66.7213 9.21822C66.8719 9.19841 67.0693 9.17447 67.314 9.14639L67.2798 8.84834ZM66.6821 8.92079L66.6433 8.62331C66.2555 8.67389 65.8901 8.75647 65.5478 8.87198L65.6438 9.15623L65.7397 9.44048C66.0414 9.33866 66.3682 9.26427 66.7209 9.21827L66.6821 8.92079ZM65.6438 9.15623L65.55 8.87126C65.1911 8.98938 64.8875 9.17342 64.6508 9.42949L64.871 9.63315L65.0913 9.8368C65.249 9.66626 65.4605 9.53236 65.7375 9.44119L65.6438 9.15623ZM64.871 9.63315L64.6506 9.42966C64.3935 9.70822 64.2813 10.074 64.2813 10.4904H64.5813H64.8813C64.8813 10.1823 64.9622 9.97663 65.0915 9.83663L64.871 9.63315ZM64.5813 10.4904H64.2813C64.2813 11.0711 64.5027 11.5434 64.9599 11.8599L65.1306 11.6133L65.3014 11.3666C65.0261 11.176 64.8813 10.8998 64.8813 10.4904H64.5813ZM65.1306 11.6133L64.963 11.862C65.3947 12.153 65.9262 12.2875 66.5372 12.2875V11.9875V11.6875C66.0134 11.6875 65.6071 11.5726 65.2983 11.3645L65.1306 11.6133ZM65.3781 2.66652L65.3912 2.36681L64.2804 2.31851L64.2673 2.61823L64.2543 2.91795L65.3651 2.96624L65.3781 2.66652ZM64.2673 2.61823H64.5673C64.5673 2.06274 64.7235 1.63527 65.0159 1.3093L64.7926 1.109L64.5692 0.908689C64.1613 1.3635 63.9673 1.94218 63.9673 2.61823H64.2673ZM64.7926 1.109L65.0158 1.30943C65.3144 0.976869 65.6706 0.817378 66.1026 0.817378V0.517378V0.217378C65.4962 0.217378 64.979 0.4523 64.5693 0.90856L64.7926 1.109ZM66.1026 0.517378V0.817378C66.2967 0.817378 66.4564 0.85135 66.5882 0.911226L66.7123 0.638116L66.8364 0.365006C66.614 0.263899 66.3672 0.217378 66.1026 0.217378V0.517378ZM66.7123 0.638116L66.5934 0.913535C66.7568 0.984111 66.9124 1.06566 67.0604 1.15814L67.2194 0.903741L67.3784 0.649342C67.2044 0.540594 67.022 0.445057 66.8312 0.362698L66.7123 0.638116ZM67.2194 0.903741L67.0604 1.15814C67.2309 1.26472 67.406 1.36079 67.5854 1.44626L67.7144 1.1754L67.8434 0.904545C67.6848 0.829031 67.5298 0.743989 67.3784 0.649342L67.2194 0.903741ZM67.7144 1.1754L67.5932 1.44981C67.8097 1.54548 68.0471 1.59011 68.3 1.59011V1.29011V0.990106C68.1183 0.990106 67.9653 0.95826 67.8357 0.900997L67.7144 1.1754ZM68.3 1.29011V1.59011C68.6183 1.59011 68.8922 1.46249 69.1041 1.22347L68.8796 1.02448L68.6551 0.825488C68.553 0.940642 68.4405 0.990106 68.3 0.990106V1.29011ZM68.8796 1.02448L69.1038 1.22379C69.316 0.985042 69.421 0.695788 69.421 0.372491H69.121H68.821C68.821 0.556297 68.7651 0.701703 68.6553 0.825171L68.8796 1.02448ZM69.121 0.372491L69.0945 0.671313L70.1811 0.767905L70.2077 0.469083L70.2342 0.170261L69.1476 0.0736694L69.121 0.372491ZM70.2077 0.469083H69.9077C69.9077 1.03805 69.7489 1.45644 69.4596 1.75887L69.6764 1.96624L69.8932 2.17361C70.3123 1.73551 70.5077 1.1558 70.5077 0.469083H70.2077ZM69.6764 1.96624L69.4585 1.76012C69.1662 2.0692 68.8109 2.22164 68.3725 2.22164V2.52164V2.82164C68.9724 2.82164 69.4864 2.60382 69.8944 2.17237L69.6764 1.96624ZM68.3725 2.52164V2.22164C68.1195 2.22164 67.9332 2.18642 67.8009 2.13056L67.6842 2.40694L67.5676 2.68331C67.7975 2.7804 68.07 2.82164 68.3725 2.82164V2.52164ZM67.6842 2.40694L67.8061 2.13279C67.6409 2.05936 67.4979 1.97847 67.3757 1.89116L67.2013 2.13527L67.0269 2.3794C67.1864 2.49331 67.3654 2.59353 67.5624 2.68108L67.6842 2.40694ZM67.2013 2.13527L67.3757 1.89116C67.2211 1.78075 67.0578 1.68367 66.886 1.59995L66.7546 1.86965L66.6232 2.13935C66.7652 2.20856 66.8998 2.28857 67.0269 2.3794L67.2013 2.13527ZM66.7546 1.86965L66.8915 1.60271C66.6813 1.49496 66.4382 1.44891 66.175 1.44891V1.74891V2.04891C66.3706 2.04891 66.5139 2.08336 66.6177 2.1366L66.7546 1.86965ZM66.175 1.74891V1.44891C65.8539 1.44891 65.5801 1.58099 65.3723 1.82702L65.6015 2.02057L65.8307 2.21413C65.9288 2.09794 66.0373 2.04891 66.175 2.04891V1.74891ZM65.6015 2.02057L65.3719 1.82749C65.1731 2.06395 65.0781 2.3496 65.0781 2.66652H65.3781H65.6781C65.6781 2.47635 65.7321 2.33136 65.8311 2.21365L65.6015 2.02057ZM74.7339 12.6456L74.5731 12.8989L74.5739 12.8993L74.7339 12.6456ZM73.2609 10.9733L72.9913 11.1051L72.9919 11.1063L73.2609 10.9733ZM73.2609 5.93251L72.9916 5.80015L72.991 5.80136L73.2609 5.93251ZM74.7339 4.25424L74.5739 4.00048L74.5731 4.00094L74.7339 4.25424ZM79.1348 4.25424L78.9741 4.50754L78.9748 4.508L79.1348 4.25424ZM80.6078 5.93251L80.338 6.06365L80.3386 6.06486L80.6078 5.93251ZM80.6078 10.9733L80.3389 10.8404L80.3383 10.8416L80.6078 10.9733ZM79.1348 12.6456L78.9748 12.3918L78.9741 12.3923L79.1348 12.6456ZM78.507 11.4744L78.3204 11.2395V11.2395L78.507 11.4744ZM79.4185 10.1885L79.6998 10.2929V10.2929L79.4185 10.1885ZM79.4185 6.72938L79.7 6.62567V6.62567L79.4185 6.72938ZM78.507 5.43144L78.6949 5.19763V5.19763L78.507 5.43144ZM75.3678 5.43144L75.1798 5.19763V5.19763L75.3678 5.43144ZM74.4562 6.72938L74.1747 6.62567V6.62567L74.4562 6.72938ZM74.4562 10.1885L74.1749 10.2929V10.2929L74.4562 10.1885ZM75.3678 11.4744L75.5543 11.2395V11.2395L75.3678 11.4744ZM76.9374 13.2432V12.9432C76.1498 12.9432 75.4722 12.7565 74.8939 12.3918L74.7339 12.6456L74.5739 12.8993C75.2593 13.3315 76.0506 13.5432 76.9374 13.5432V13.2432ZM74.7339 12.6456L74.8946 12.3923C74.3167 12.0255 73.8615 11.5113 73.5298 10.8404L73.2609 10.9733L72.9919 11.1063C73.3686 11.8681 73.8954 12.4688 74.5731 12.8989L74.7339 12.6456ZM73.2609 10.9733L73.5304 10.8416C73.2039 10.1737 73.0357 9.38326 73.0357 8.46198H72.7356H72.4357C72.4357 9.45642 72.6175 10.3402 72.9913 11.1051L73.2609 10.9733ZM72.7356 8.46198H73.0357C73.0357 7.53228 73.2041 6.73563 73.5307 6.06365L73.2609 5.93251L72.991 5.80136C72.6174 6.57019 72.4357 7.45986 72.4357 8.46198H72.7356ZM73.2609 5.93251L73.5301 6.06486C73.8619 5.38989 74.3171 4.87406 74.8946 4.50754L74.7339 4.25424L74.5731 4.00094C73.895 4.4313 73.3681 5.03431 72.9916 5.80015L73.2609 5.93251ZM74.7339 4.25424L74.8939 4.508C75.4722 4.14332 76.1498 3.95658 76.9374 3.95658V3.65658V3.35658C76.0506 3.35658 75.2593 3.56829 74.5739 4.00048L74.7339 4.25424ZM76.9374 3.65658V3.95658C77.7249 3.95658 78.4001 4.14333 78.9741 4.50754L79.1348 4.25424L79.2955 4.00094C78.6138 3.56828 77.824 3.35658 76.9374 3.35658V3.65658ZM79.1348 4.25424L78.9748 4.508C79.5559 4.87443 80.0105 5.38976 80.338 6.06365L80.6078 5.93251L80.8776 5.80136C80.5049 5.03443 79.9774 4.43092 79.2948 4.00048L79.1348 4.25424ZM80.6078 5.93251L80.3386 6.06486C80.6688 6.73655 80.8391 7.53275 80.8391 8.46198H81.1391H81.4391C81.4391 7.45939 81.2552 6.56928 80.877 5.80015L80.6078 5.93251ZM81.1391 8.46198H80.8391C80.8391 9.38278 80.6689 10.1728 80.3389 10.8404L80.6078 10.9733L80.8767 11.1063C81.255 10.3412 81.4391 9.4569 81.4391 8.46198H81.1391ZM80.6078 10.9733L80.3383 10.8416C80.0109 11.5115 79.5563 12.0251 78.9748 12.3918L79.1348 12.6456L79.2948 12.8993C79.977 12.4692 80.5045 11.868 80.8773 11.1051L80.6078 10.9733ZM79.1348 12.6456L78.9741 12.3923C78.4001 12.7565 77.7249 12.9432 76.9374 12.9432V13.2432V13.5432C77.824 13.5432 78.6138 13.3315 79.2955 12.8989L79.1348 12.6456ZM76.9374 11.9634V12.2634C77.6261 12.2634 78.2194 12.0859 78.6935 11.7093L78.507 11.4744L78.3204 11.2395C77.9735 11.5149 77.5204 11.6634 76.9374 11.6634V11.9634ZM78.507 11.4744L78.6935 11.7093C79.1504 11.3465 79.4851 10.8712 79.6998 10.2929L79.4185 10.1885L79.1373 10.0841C78.9575 10.5684 78.6846 10.9503 78.3204 11.2395L78.507 11.4744ZM79.4185 10.1885L79.6998 10.2929C79.9105 9.72529 80.0143 9.11407 80.0143 8.46198H79.7143H79.4143C79.4143 9.04947 79.321 9.5893 79.1373 10.0841L79.4185 10.1885ZM79.7143 8.46198H80.0143C80.0143 7.80986 79.9105 7.19691 79.7 6.62567L79.4185 6.72938L79.137 6.83309C79.321 7.3324 79.4143 7.87451 79.4143 8.46198H79.7143ZM79.4185 6.72938L79.7 6.62567C79.4856 6.04374 79.1513 5.56455 78.6949 5.19763L78.507 5.43144L78.319 5.66525C78.6836 5.95837 78.957 6.34448 79.137 6.83309L79.4185 6.72938ZM78.507 5.43144L78.6949 5.19763C78.2207 4.8164 77.6269 4.63641 76.9374 4.63641V4.93641V5.23641C77.5196 5.23641 77.9722 5.38644 78.319 5.66525L78.507 5.43144ZM76.9374 4.93641V4.63641C76.2478 4.63641 75.654 4.8164 75.1798 5.19763L75.3678 5.43144L75.5557 5.66525C75.9025 5.38644 76.3552 5.23641 76.9374 5.23641V4.93641ZM75.3678 5.43144L75.1798 5.19763C74.7234 5.56455 74.3891 6.04374 74.1747 6.62567L74.4562 6.72938L74.7377 6.83309C74.9177 6.34448 75.1911 5.95837 75.5557 5.66525L75.3678 5.43144ZM74.4562 6.72938L74.1747 6.62567C73.9642 7.19691 73.8604 7.80986 73.8604 8.46198H74.1604H74.4604C74.4604 7.87451 74.5537 7.3324 74.7377 6.83309L74.4562 6.72938ZM74.1604 8.46198H73.8604C73.8604 9.11407 73.9642 9.72529 74.1749 10.2929L74.4562 10.1885L74.7374 10.0841C74.5537 9.5893 74.4604 9.04947 74.4604 8.46198H74.1604ZM74.4562 10.1885L74.1749 10.2929C74.3896 10.8712 74.7243 11.3465 75.1812 11.7093L75.3678 11.4744L75.5543 11.2395C75.1902 10.9503 74.9172 10.5684 74.7374 10.0841L74.4562 10.1885ZM75.3678 11.4744L75.1812 11.7093C75.6554 12.0859 76.2486 12.2634 76.9374 12.2634V11.9634V11.6634C76.3543 11.6634 75.9012 11.5149 75.5543 11.2395L75.3678 11.4744ZM83.5855 12.8267L83.7977 12.6145V12.6145L83.5855 12.8267ZM85.1189 11.2933L85.331 11.0812V11.0812L85.1189 11.2933ZM85.2879 12.6033L85.0318 12.4471L85.029 12.4518L85.2879 12.6033ZM84.8955 13.0018L85.0499 13.259L85.0517 13.2579L84.8955 13.0018ZM83.5855 5.94458L83.3734 6.15671V6.15671L83.5855 5.94458ZM83.5855 4.4112L83.3734 4.19907V4.19907L83.5855 4.4112ZM85.1189 4.4112L85.331 4.19907V4.19907L85.1189 4.4112ZM85.2879 5.72121L85.0318 5.56501L85.029 5.56966L85.2879 5.72121ZM84.8955 6.11965L85.0499 6.37691L85.0517 6.37579L84.8955 6.11965ZM84.3522 13.1466V12.8466C84.1351 12.8466 83.9555 12.7724 83.7977 12.6145L83.5855 12.8267L83.3734 13.0388C83.6421 13.3076 83.9737 13.4466 84.3522 13.4466V13.1466ZM83.5855 12.8267L83.7977 12.6145C83.6398 12.4567 83.5656 12.2771 83.5656 12.06H83.2656H82.9656C82.9656 12.4385 83.1046 12.7701 83.3734 13.0388L83.5855 12.8267ZM83.2656 12.06H83.5656C83.5656 11.8429 83.6398 11.6633 83.7977 11.5054L83.5855 11.2933L83.3734 11.0812C83.1046 11.3499 82.9656 11.6815 82.9656 12.06H83.2656ZM83.5855 11.2933L83.7977 11.5054C83.9555 11.3476 84.1351 11.2733 84.3522 11.2733V10.9733V10.6733C83.9737 10.6733 83.6421 10.8124 83.3734 11.0812L83.5855 11.2933ZM84.3522 10.9733V11.2733C84.5693 11.2733 84.7489 11.3476 84.9068 11.5054L85.1189 11.2933L85.331 11.0812C85.0623 10.8124 84.7308 10.6733 84.3522 10.6733V10.9733ZM85.1189 11.2933L84.9068 11.5054C85.0646 11.6633 85.1389 11.8429 85.1389 12.06H85.4389H85.7389C85.7389 11.6815 85.5998 11.3499 85.331 11.0812L85.1189 11.2933ZM85.4389 12.06H85.1389C85.1389 12.2033 85.1031 12.3302 85.0318 12.4471L85.2879 12.6033L85.5441 12.7595C85.674 12.5464 85.7389 12.3111 85.7389 12.06H85.4389ZM85.2879 12.6033L85.029 12.4518C84.9578 12.5735 84.8625 12.6705 84.7394 12.7456L84.8955 13.0018L85.0517 13.2579C85.2586 13.1317 85.4249 12.9632 85.5468 12.7549L85.2879 12.6033ZM84.8955 13.0018L84.7412 12.7445C84.6302 12.8111 84.5031 12.8466 84.3522 12.8466V13.1466V13.4466C84.6038 13.4466 84.8389 13.3856 85.0499 13.259L84.8955 13.0018ZM84.3522 6.26454V5.96454C84.1351 5.96454 83.9555 5.89031 83.7977 5.73245L83.5855 5.94458L83.3734 6.15671C83.6421 6.42546 83.9737 6.56454 84.3522 6.56454V6.26454ZM83.5855 5.94458L83.7977 5.73245C83.6398 5.57459 83.5656 5.395 83.5656 5.17789H83.2656H82.9656C82.9656 5.55642 83.1046 5.88796 83.3734 6.15671L83.5855 5.94458ZM83.2656 5.17789H83.5656C83.5656 4.96078 83.6398 4.78119 83.7977 4.62333L83.5855 4.4112L83.3734 4.19907C83.1046 4.46782 82.9656 4.79936 82.9656 5.17789H83.2656ZM83.5855 4.4112L83.7977 4.62333C83.9555 4.46547 84.1351 4.39124 84.3522 4.39124V4.09124V3.79124C83.9737 3.79124 83.6421 3.93032 83.3734 4.19907L83.5855 4.4112ZM84.3522 4.09124V4.39124C84.5693 4.39124 84.7489 4.46547 84.9068 4.62333L85.1189 4.4112L85.331 4.19907C85.0623 3.93032 84.7308 3.79124 84.3522 3.79124V4.09124ZM85.1189 4.4112L84.9068 4.62333C85.0646 4.78119 85.1389 4.96078 85.1389 5.17789H85.4389H85.7389C85.7389 4.79936 85.5998 4.46782 85.331 4.19907L85.1189 4.4112ZM85.4389 5.17789H85.1389C85.1389 5.32118 85.1031 5.44807 85.0318 5.56503L85.2879 5.72121L85.5441 5.8774C85.674 5.66434 85.7389 5.42901 85.7389 5.17789H85.4389ZM85.2879 5.72121L85.029 5.56966C84.9578 5.69137 84.8625 5.78844 84.7394 5.86351L84.8955 6.11965L85.0517 6.37579C85.2586 6.24963 85.4249 6.08108 85.5468 5.87277L85.2879 5.72121ZM84.8955 6.11965L84.7412 5.8624C84.6302 5.929 84.5031 5.96454 84.3522 5.96454V6.26454V6.56454C84.6038 6.56454 84.8389 6.50348 85.0499 6.3769L84.8955 6.11965Z" fill="#E3E4EB" mask="url(#path-1-outside-1_41_652)"/>
</svg>
