<svg width="244" height="16" viewBox="0 0 244 16" fill="none" xmlns="http://www.w3.org/2000/svg">
<path d="M10.16 6.33605C10.16 5.88805 10.112 5.41872 10.016 4.92805C9.93067 4.42672 9.792 3.94672 9.6 3.48805C9.408 3.02938 9.152 2.64005 8.832 2.32005C8.53333 2.02138 8.18133 1.77072 7.776 1.56805C7.38133 1.35472 6.97067 1.22672 6.544 1.18405C6.416 1.16272 6.28267 1.15205 6.144 1.15205C6.016 1.15205 5.888 1.15205 5.76 1.15205C5.344 1.15205 4.928 1.15738 4.512 1.16805C4.10667 1.17872 3.696 1.18938 3.28 1.20005V11.0401C3.28 11.3601 3.38667 11.5681 3.6 11.6641C3.81333 11.7601 4.05333 11.8081 4.32 11.8081C4.74667 11.8081 5.184 11.7921 5.632 11.7601C6.09067 11.7281 6.53333 11.6534 6.96 11.5361C7.39733 11.4081 7.79733 11.2107 8.16 10.9441C8.896 10.4001 9.41333 9.71738 9.712 8.89605C10.0107 8.06405 10.16 7.21072 10.16 6.33605ZM11.936 6.09605C11.936 7.15205 11.712 8.15472 11.264 9.10405C10.8267 10.0534 10.1493 10.8107 9.232 11.3761C8.85867 11.6001 8.42667 11.7867 7.936 11.9361C7.456 12.0747 6.96533 12.1761 6.464 12.2401C5.96267 12.3041 5.49333 12.3361 5.056 12.3361C4.672 12.3361 4.28267 12.3254 3.888 12.3041C3.504 12.2827 3.11467 12.2721 2.72 12.2721C2.41067 12.2721 2.096 12.2774 1.776 12.2881C1.456 12.2881 1.14133 12.2987 0.832 12.3201C0.778667 12.3307 0.725334 12.3361 0.672 12.3361C0.618667 12.3361 0.565334 12.3361 0.512 12.3361C0.448 12.3361 0.410667 12.3094 0.4 12.2561C0.389334 12.2027 0.384 12.1547 0.384 12.1121C0.384 12.0374 0.437334 11.9841 0.544 11.9521C0.661334 11.9201 0.784 11.8934 0.912 11.8721C1.05067 11.8507 1.14667 11.8241 1.2 11.7921C1.38133 11.6961 1.49867 11.5574 1.552 11.3761C1.616 11.1841 1.648 10.9921 1.648 10.8001C1.648 10.2134 1.648 9.63205 1.648 9.05605C1.65867 8.46938 1.664 7.88272 1.664 7.29605V5.82405C1.664 5.23738 1.664 4.65605 1.664 4.08005C1.664 3.50405 1.664 2.92272 1.664 2.33605C1.664 1.93072 1.616 1.64272 1.52 1.47205C1.424 1.30138 1.15733 1.21605 0.72 1.21605C0.645334 1.21605 0.570667 1.22138 0.496 1.23205C0.432 1.23205 0.362667 1.23205 0.288 1.23205C0.213334 1.23205 0.144 1.21072 0.0800003 1.16805C0.0266669 1.11472 2.68221e-07 1.05072 2.68221e-07 0.97605C2.68221e-07 0.805383 0.0853336 0.72005 0.256 0.72005C0.501334 0.72005 0.746667 0.730717 0.992 0.75205C1.23733 0.762717 1.47733 0.76805 1.712 0.76805C2.50133 0.76805 3.29067 0.746717 4.08 0.70405C4.88 0.650717 5.67467 0.62405 6.464 0.62405C7.60533 0.62405 8.58133 0.842717 9.392 1.28005C10.2133 1.71738 10.8427 2.34672 11.28 3.16805C11.7173 3.97872 11.936 4.95472 11.936 6.09605ZM17.7486 12.1121C17.7486 12.1654 17.7326 12.2187 17.7006 12.2721C17.6686 12.3147 17.626 12.3361 17.5726 12.3361C17.274 12.3361 16.9753 12.3307 16.6766 12.3201C16.3886 12.2987 16.09 12.2881 15.7806 12.2881H15.3486C15.0286 12.2881 14.7086 12.2987 14.3886 12.3201C14.0793 12.3307 13.77 12.3361 13.4606 12.3361C13.418 12.3361 13.386 12.3094 13.3646 12.2561C13.354 12.2027 13.3486 12.1601 13.3486 12.1281C13.3486 12.0747 13.354 12.0374 13.3646 12.0161C13.3753 11.9841 13.4073 11.9627 13.4606 11.9521C13.514 11.9307 13.5726 11.9254 13.6366 11.9361C13.7113 11.9361 13.7806 11.9361 13.8446 11.9361C13.9193 11.9361 13.9886 11.9414 14.0526 11.9521C14.1166 11.9521 14.186 11.9521 14.2606 11.9521C14.41 11.9521 14.5433 11.9201 14.6606 11.8561C14.7886 11.7814 14.8526 11.6587 14.8526 11.4881V5.08805C14.8526 4.90672 14.8206 4.76805 14.7566 4.67205C14.6926 4.56538 14.5593 4.51205 14.3566 4.51205C14.2073 4.51205 14.0526 4.52272 13.8926 4.54405C13.7433 4.55472 13.594 4.57072 13.4446 4.59205C13.3593 4.59205 13.3166 4.54405 13.3166 4.44805C13.3166 4.34138 13.3593 4.27205 13.4446 4.24005C13.5726 4.19738 13.706 4.17072 13.8446 4.16005C13.994 4.13872 14.1326 4.11738 14.2606 4.09605C14.5593 4.04272 14.858 3.98405 15.1566 3.92005C15.4553 3.85605 15.7486 3.78672 16.0366 3.71205C16.0686 3.70138 16.1113 3.69605 16.1646 3.69605C16.282 3.69605 16.3406 3.76005 16.3406 3.88805C16.3406 5.14672 16.3353 6.41072 16.3246 7.68005C16.3246 8.94938 16.3246 10.2187 16.3246 11.4881C16.3246 11.6587 16.3993 11.7814 16.5486 11.8561C16.7086 11.9201 16.858 11.9521 16.9966 11.9521C17.1033 11.9521 17.21 11.9467 17.3166 11.9361C17.434 11.9254 17.546 11.9201 17.6526 11.9201C17.6953 11.9201 17.722 11.9467 17.7326 12.0001C17.7433 12.0534 17.7486 12.0907 17.7486 12.1121ZM16.4526 1.04005C16.4526 1.30672 16.3566 1.53605 16.1646 1.72805C15.9726 1.90938 15.7433 2.00005 15.4766 2.00005C15.21 2.00005 14.9806 1.90938 14.7886 1.72805C14.5966 1.53605 14.5006 1.30672 14.5006 1.04005C14.5006 0.773383 14.5966 0.549383 14.7886 0.368051C14.9806 0.176051 15.21 0.0800505 15.4766 0.0800505C15.7433 0.0800505 15.9726 0.176051 16.1646 0.368051C16.3566 0.549383 16.4526 0.773383 16.4526 1.04005ZM24.7846 12.8641C24.7846 12.4374 24.662 12.1334 24.4166 11.9521C24.182 11.7601 23.894 11.6374 23.5526 11.5841C23.2113 11.5201 22.8806 11.4721 22.5606 11.4401L20.7686 11.2641C20.534 11.5201 20.358 11.7761 20.2406 12.0321C20.134 12.2774 20.0806 12.5761 20.0806 12.9281C20.0806 13.4401 20.2033 13.8081 20.4486 14.0321C20.7046 14.2667 21.0246 14.4161 21.4086 14.4801C21.7926 14.5441 22.182 14.5761 22.5766 14.5761C22.9606 14.5761 23.318 14.5227 23.6486 14.4161C23.99 14.3094 24.262 14.1281 24.4646 13.8721C24.678 13.6267 24.7846 13.2907 24.7846 12.8641ZM24.0006 6.46405C24.0006 6.13338 23.9633 5.78138 23.8886 5.40805C23.814 5.03472 23.6646 4.71472 23.4406 4.44805C23.2273 4.18138 22.9126 4.04805 22.4966 4.04805C22.0273 4.04805 21.6646 4.17072 21.4086 4.41605C21.1526 4.65072 20.9766 4.95472 20.8806 5.32805C20.7953 5.69072 20.7526 6.06938 20.7526 6.46405C20.7526 6.88005 20.79 7.27472 20.8646 7.64805C20.95 8.01072 21.1153 8.30938 21.3606 8.54405C21.6166 8.77872 21.9953 8.89605 22.4966 8.89605C22.806 8.89605 23.0566 8.81605 23.2486 8.65605C23.4513 8.49605 23.606 8.29338 23.7126 8.04805C23.8193 7.79205 23.894 7.52538 23.9366 7.24805C23.9793 6.97072 24.0006 6.70938 24.0006 6.46405ZM26.8486 3.84005C26.8486 4.06405 26.8006 4.21872 26.7046 4.30405C26.6193 4.37872 26.502 4.42138 26.3526 4.43205C26.214 4.43205 26.0646 4.43205 25.9046 4.43205C25.67 4.43205 25.43 4.43205 25.1846 4.43205C24.95 4.42138 24.71 4.41072 24.4646 4.40005C24.806 4.66672 25.0566 4.98672 25.2166 5.36005C25.3873 5.73338 25.4726 6.13338 25.4726 6.56005C25.4726 7.08272 25.3233 7.54672 25.0246 7.95205C24.7366 8.34672 24.3633 8.65605 23.9046 8.88005C23.446 9.10405 22.9713 9.21605 22.4806 9.21605C22.31 9.21605 22.1446 9.21072 21.9846 9.20005C21.8246 9.17872 21.6593 9.16272 21.4886 9.15205C21.35 9.28005 21.19 9.41872 21.0086 9.56805C20.838 9.71738 20.7526 9.89872 20.7526 10.1121C20.7526 10.2827 20.8326 10.4107 20.9926 10.4961C21.1633 10.5707 21.35 10.6241 21.5526 10.6561C21.7553 10.6881 21.9153 10.7094 22.0326 10.7201L24.0646 10.8641C24.4273 10.8961 24.7793 10.9761 25.1206 11.1041C25.4726 11.2214 25.766 11.4081 26.0006 11.6641C26.2353 11.9094 26.3526 12.2454 26.3526 12.6721C26.3526 13.1201 26.2193 13.4934 25.9526 13.7921C25.6966 14.0907 25.3606 14.3307 24.9446 14.5121C24.5393 14.6934 24.118 14.8214 23.6806 14.8961C23.2433 14.9707 22.8486 15.0081 22.4966 15.0081C22.2193 15.0081 21.8726 14.9921 21.4566 14.9601C21.0406 14.9387 20.63 14.8747 20.2246 14.7681C19.8193 14.6614 19.478 14.4907 19.2006 14.2561C18.934 14.0321 18.8006 13.7227 18.8006 13.3281C18.8006 13.0401 18.87 12.7681 19.0086 12.5121C19.1473 12.2667 19.318 12.0374 19.5206 11.8241C19.734 11.6107 19.942 11.4241 20.1446 11.2641C20.0273 11.2107 19.8673 11.1307 19.6646 11.0241C19.4726 10.9067 19.3766 10.7734 19.3766 10.6241C19.3766 10.4427 19.4726 10.2401 19.6646 10.0161C19.8673 9.79205 20.086 9.57872 20.3206 9.37605C20.5553 9.16272 20.7366 8.99738 20.8646 8.88005C20.3206 8.62405 19.9153 8.29872 19.6486 7.90405C19.3926 7.49872 19.2646 6.99738 19.2646 6.40005C19.2646 5.84538 19.4193 5.37072 19.7286 4.97605C20.0486 4.57072 20.4486 4.26138 20.9286 4.04805C21.4193 3.82405 21.9153 3.71205 22.4166 3.71205C22.598 3.71205 22.7793 3.72805 22.9606 3.76005C23.142 3.78138 23.318 3.81872 23.4886 3.87205C23.574 3.89338 23.6646 3.92538 23.7606 3.96805C23.8673 4.00005 23.9633 4.02138 24.0486 4.03205C24.1233 4.04272 24.1926 4.04805 24.2566 4.04805C24.3313 4.04805 24.406 4.04805 24.4806 4.04805C24.8646 4.04805 25.2326 4.02138 25.5846 3.96805C25.9366 3.90405 26.2513 3.72272 26.5286 3.42405C26.5926 3.36005 26.646 3.32805 26.6886 3.32805C26.774 3.32805 26.822 3.40272 26.8326 3.55205C26.8433 3.69072 26.8486 3.78672 26.8486 3.84005ZM32.0768 12.1121C32.0768 12.1654 32.0608 12.2187 32.0288 12.2721C31.9968 12.3147 31.9541 12.3361 31.9008 12.3361C31.6021 12.3361 31.3034 12.3307 31.0048 12.3201C30.7168 12.2987 30.4181 12.2881 30.1088 12.2881H29.6768C29.3568 12.2881 29.0368 12.2987 28.7168 12.3201C28.4074 12.3307 28.0981 12.3361 27.7888 12.3361C27.7461 12.3361 27.7141 12.3094 27.6928 12.2561C27.6821 12.2027 27.6768 12.1601 27.6768 12.1281C27.6768 12.0747 27.6821 12.0374 27.6928 12.0161C27.7034 11.9841 27.7354 11.9627 27.7888 11.9521C27.8421 11.9307 27.9008 11.9254 27.9648 11.9361C28.0394 11.9361 28.1088 11.9361 28.1728 11.9361C28.2474 11.9361 28.3168 11.9414 28.3808 11.9521C28.4448 11.9521 28.5141 11.9521 28.5888 11.9521C28.7381 11.9521 28.8714 11.9201 28.9888 11.8561C29.1168 11.7814 29.1808 11.6587 29.1808 11.4881V5.08805C29.1808 4.90672 29.1488 4.76805 29.0848 4.67205C29.0208 4.56538 28.8874 4.51205 28.6848 4.51205C28.5354 4.51205 28.3808 4.52272 28.2208 4.54405C28.0714 4.55472 27.9221 4.57072 27.7728 4.59205C27.6874 4.59205 27.6448 4.54405 27.6448 4.44805C27.6448 4.34138 27.6874 4.27205 27.7728 4.24005C27.9008 4.19738 28.0341 4.17072 28.1728 4.16005C28.3221 4.13872 28.4608 4.11738 28.5888 4.09605C28.8874 4.04272 29.1861 3.98405 29.4848 3.92005C29.7834 3.85605 30.0768 3.78672 30.3648 3.71205C30.3968 3.70138 30.4394 3.69605 30.4928 3.69605C30.6101 3.69605 30.6688 3.76005 30.6688 3.88805C30.6688 5.14672 30.6634 6.41072 30.6528 7.68005C30.6528 8.94938 30.6528 10.2187 30.6528 11.4881C30.6528 11.6587 30.7274 11.7814 30.8768 11.8561C31.0368 11.9201 31.1861 11.9521 31.3248 11.9521C31.4314 11.9521 31.5381 11.9467 31.6448 11.9361C31.7621 11.9254 31.8741 11.9201 31.9808 11.9201C32.0234 11.9201 32.0501 11.9467 32.0608 12.0001C32.0714 12.0534 32.0768 12.0907 32.0768 12.1121ZM30.7808 1.04005C30.7808 1.30672 30.6848 1.53605 30.4928 1.72805C30.3008 1.90938 30.0714 2.00005 29.8048 2.00005C29.5381 2.00005 29.3088 1.90938 29.1168 1.72805C28.9248 1.53605 28.8288 1.30672 28.8288 1.04005C28.8288 0.773383 28.9248 0.549383 29.1168 0.368051C29.3088 0.176051 29.5381 0.0800505 29.8048 0.0800505C30.0714 0.0800505 30.3008 0.176051 30.4928 0.368051C30.6848 0.549383 30.7808 0.773383 30.7808 1.04005ZM38.3288 11.6161C38.3288 11.7121 38.2541 11.8081 38.1048 11.9041C37.9661 12.0001 37.7954 12.0854 37.5928 12.1601C37.3901 12.2347 37.1928 12.2934 37.0008 12.3361C36.8194 12.3787 36.6861 12.4001 36.6008 12.4001C36.0461 12.4001 35.6141 12.3307 35.3048 12.1921C35.0061 12.0534 34.7928 11.8241 34.6648 11.5041C34.5474 11.1841 34.4888 10.7521 34.4888 10.2081C34.4888 9.32272 34.4888 8.43738 34.4888 7.55205C34.4994 6.65605 34.5101 5.76538 34.5208 4.88005H33.3688C33.2941 4.88005 33.2301 4.90138 33.1768 4.94405C33.1341 4.97605 33.0861 4.99205 33.0328 4.99205C32.9794 4.99205 32.9528 4.95472 32.9528 4.88005C32.9528 4.83738 32.9794 4.75205 33.0328 4.62405C33.0968 4.49605 33.1394 4.41072 33.1608 4.36805C33.1928 4.37872 33.2408 4.38405 33.3048 4.38405H34.5528L34.5688 2.35205C34.8141 2.19205 35.0381 2.01605 35.2408 1.82405C35.4434 1.62138 35.6461 1.41872 35.8488 1.21605C35.8701 1.19472 35.8914 1.17872 35.9128 1.16805C35.9341 1.14672 35.9554 1.13605 35.9768 1.13605C36.0728 1.13605 36.1208 1.17338 36.1208 1.24805L36.0248 4.36805C36.3661 4.36805 36.7021 4.36272 37.0328 4.35205C37.3741 4.34138 37.7101 4.33605 38.0408 4.33605C38.1794 4.33605 38.2488 4.41605 38.2488 4.57605C38.2488 4.77872 38.1581 4.88005 37.9768 4.88005H36.0248C36.0248 5.69072 36.0194 6.50672 36.0088 7.32805C36.0088 8.13872 36.0088 8.95472 36.0088 9.77605V11.0081C36.0088 11.2747 36.1208 11.4614 36.3448 11.5681C36.5688 11.6641 36.7874 11.7121 37.0008 11.7121C37.2994 11.7121 37.5928 11.6641 37.8808 11.5681C37.9128 11.5467 37.9608 11.5254 38.0248 11.5041C38.0888 11.4827 38.1368 11.4721 38.1688 11.4721C38.2754 11.4721 38.3288 11.5201 38.3288 11.6161ZM44.9859 6.73605C44.9752 6.29872 44.9379 5.88272 44.8739 5.48805C44.8099 5.08272 44.6552 4.75205 44.4099 4.49605C44.1645 4.22938 43.7645 4.09605 43.2099 4.09605C42.7085 4.09605 42.2979 4.23472 41.9779 4.51205C41.6685 4.77872 41.4285 5.12005 41.2579 5.53605C41.0872 5.94138 40.9592 6.35738 40.8739 6.78405C41.1405 6.79472 41.4019 6.80538 41.6579 6.81605C41.9139 6.81605 42.1699 6.81605 42.4259 6.81605C42.8525 6.81605 43.2792 6.81072 43.7059 6.80005C44.1325 6.77872 44.5592 6.75738 44.9859 6.73605ZM46.8259 10.4001C46.8259 10.4534 46.8152 10.4854 46.7939 10.4961C46.7619 10.6027 46.6819 10.7307 46.5539 10.8801C46.4365 11.0294 46.3032 11.1734 46.1539 11.3121C46.0045 11.4401 45.8819 11.5361 45.7859 11.6001C45.4339 11.8454 45.0339 12.0427 44.5859 12.1921C44.1485 12.3414 43.7112 12.4161 43.2739 12.4161C42.9112 12.4161 42.5059 12.3574 42.0579 12.2401C41.6205 12.1227 41.2472 11.9627 40.9379 11.7601C40.3405 11.3654 39.9032 10.8481 39.6259 10.2081C39.3485 9.56805 39.2099 8.90138 39.2099 8.20805C39.2099 7.41872 39.3645 6.68805 39.6739 6.01605C39.9832 5.34405 40.4792 4.80005 41.1619 4.38405C41.4712 4.20272 41.8179 4.05338 42.2019 3.93605C42.5859 3.80805 42.9539 3.74405 43.3059 3.74405C43.9352 3.74405 44.4899 3.87205 44.9699 4.12805C45.4499 4.38405 45.8232 4.74672 46.0899 5.21605C46.3672 5.67472 46.5059 6.22405 46.5059 6.86405C46.5059 7.04538 46.4632 7.16272 46.3779 7.21605C46.3032 7.26938 46.1859 7.29605 46.0259 7.29605C45.8125 7.29605 45.5992 7.29072 45.3859 7.28005C45.1725 7.26938 44.9592 7.25872 44.7459 7.24805C44.4472 7.22672 44.1485 7.21605 43.8499 7.21605C43.5619 7.21605 43.2685 7.21605 42.9699 7.21605C42.6072 7.21605 42.2445 7.21605 41.8819 7.21605C41.5192 7.21605 41.1565 7.22672 40.7939 7.24805C40.7832 7.41872 40.7725 7.58405 40.7619 7.74405C40.7512 7.90405 40.7459 8.06938 40.7459 8.24005C40.7459 8.63472 40.7939 9.04538 40.8899 9.47205C40.9859 9.88805 41.1405 10.2774 41.3539 10.6401C41.5672 10.9921 41.8392 11.2801 42.1699 11.5041C42.5005 11.7174 42.9005 11.8241 43.3699 11.8241C43.8499 11.8241 44.3085 11.7494 44.7459 11.6001C45.1832 11.4507 45.5832 11.2107 45.9459 10.8801C46.0419 10.7841 46.1272 10.6827 46.2019 10.5761C46.2872 10.4587 46.3779 10.3574 46.4739 10.2721C46.5272 10.2187 46.5859 10.1921 46.6499 10.1921C46.7032 10.1921 46.7459 10.2134 46.7779 10.2561C46.8099 10.2987 46.8259 10.3467 46.8259 10.4001ZM56.9686 10.4801C56.926 10.0001 56.8993 9.52005 56.8886 9.04005C56.8886 8.54938 56.8833 8.05872 56.8726 7.56805H56.6486C56.318 7.56805 55.95 7.62138 55.5446 7.72805C55.15 7.82405 54.7713 7.97338 54.4086 8.17605C54.046 8.37872 53.7473 8.63472 53.5126 8.94405C53.2886 9.24272 53.1766 9.58938 53.1766 9.98405C53.1766 10.4961 53.3206 10.8854 53.6086 11.1521C53.8966 11.4081 54.286 11.5361 54.7766 11.5361C55.0113 11.5361 55.2673 11.4827 55.5446 11.3761C55.822 11.2587 56.0886 11.1201 56.3446 10.9601C56.6006 10.8001 56.8086 10.6401 56.9686 10.4801ZM59.7686 11.5041C59.7686 11.5467 59.7633 11.5787 59.7526 11.6001C59.646 11.8347 59.4646 12.0161 59.2086 12.1441C58.9633 12.2614 58.718 12.3201 58.4726 12.3201C58.0246 12.3201 57.6993 12.1921 57.4966 11.9361C57.3046 11.6694 57.15 11.3441 57.0326 10.9601C56.6273 11.3334 56.1793 11.6481 55.6886 11.9041C55.198 12.1494 54.67 12.2721 54.1046 12.2721C53.71 12.2721 53.3366 12.1974 52.9846 12.0481C52.6433 11.8881 52.366 11.6587 52.1526 11.3601C51.9393 11.0614 51.8326 10.6987 51.8326 10.2721C51.8326 9.82405 51.9446 9.44005 52.1686 9.12005C52.4033 8.78938 52.6966 8.51205 53.0486 8.28805C53.4113 8.05338 53.7953 7.86672 54.2006 7.72805C54.6166 7.57872 55.006 7.46672 55.3686 7.39205C55.614 7.33872 55.8646 7.29072 56.1206 7.24805C56.3766 7.20538 56.6273 7.16272 56.8726 7.12005C56.8726 6.82138 56.8566 6.47472 56.8246 6.08005C56.8033 5.68538 56.7233 5.36005 56.5846 5.10405C56.446 4.85872 56.2593 4.64005 56.0246 4.44805C55.79 4.25605 55.5286 4.16005 55.2406 4.16005C54.75 4.16005 54.366 4.28805 54.0886 4.54405C53.8113 4.80005 53.614 5.16272 53.4966 5.63205C53.486 5.68538 53.4753 5.74405 53.4646 5.80805C53.4646 5.86138 53.4593 5.91472 53.4486 5.96805C53.438 6.03205 53.3953 6.09072 53.3206 6.14405C53.2566 6.18672 53.1873 6.20805 53.1126 6.20805C52.91 6.20805 52.7233 6.16005 52.5526 6.06405C52.3926 5.96805 52.3126 5.80805 52.3126 5.58405C52.3126 5.45605 52.334 5.34405 52.3766 5.24805C52.5153 4.91738 52.7393 4.64538 53.0486 4.43205C53.358 4.20805 53.6993 4.03738 54.0726 3.92005C54.4566 3.80272 54.814 3.74405 55.1446 3.74405C55.7206 3.74405 56.2433 3.85072 56.7126 4.06405C57.182 4.27738 57.5553 4.59205 57.8326 5.00805C58.1206 5.41338 58.2646 5.92538 58.2646 6.54405C58.2646 7.23738 58.2593 7.93605 58.2486 8.64005C58.2486 9.34405 58.27 10.0481 58.3126 10.7521C58.3233 10.9867 58.3713 11.1947 58.4566 11.3761C58.542 11.5467 58.718 11.6321 58.9846 11.6321C59.1233 11.6321 59.2673 11.6001 59.4166 11.5361C59.5766 11.4614 59.678 11.4241 59.7206 11.4241C59.7526 11.4241 59.7686 11.4507 59.7686 11.5041ZM70.5038 6.48005C70.5038 6.11738 70.4291 5.77605 70.2798 5.45605C70.1304 5.13605 69.9171 4.87472 69.6398 4.67205C69.3624 4.46938 69.0264 4.36805 68.6318 4.36805C68.1198 4.36805 67.6984 4.49072 67.3678 4.73605C67.0478 4.98138 66.7918 5.30138 66.5998 5.69605C66.4184 6.08005 66.2904 6.49605 66.2158 6.94405C66.1518 7.39205 66.1198 7.81872 66.1198 8.22405C66.1198 8.58672 66.1518 8.97605 66.2158 9.39205C66.2798 9.80805 66.3918 10.1974 66.5518 10.5601C66.7224 10.9227 66.9571 11.2214 67.2558 11.4561C67.5544 11.6801 67.9331 11.7921 68.3918 11.7921C68.7758 11.7921 69.1278 11.6747 69.4478 11.4401C69.7678 11.1947 70.0238 10.8907 70.2158 10.5281C70.4078 10.1654 70.5038 9.80805 70.5038 9.45605V6.48005ZM73.4798 11.7121C73.4798 11.7654 73.4531 11.8187 73.3998 11.8721C73.3464 11.9254 73.2984 11.9681 73.2558 12.0001C73.1171 12.1067 72.9144 12.1974 72.6478 12.2721C72.3918 12.3467 72.1731 12.3841 71.9918 12.3841C71.7144 12.3841 71.4851 12.3041 71.3038 12.1441C71.1224 11.9841 70.9731 11.7867 70.8558 11.5521C70.7491 11.3174 70.6531 11.0881 70.5678 10.8641C70.3331 11.2374 70.0131 11.5734 69.6078 11.8721C69.2024 12.1601 68.7704 12.3041 68.3118 12.3041C68.0024 12.3041 67.6824 12.2827 67.3518 12.2401C67.0318 12.1867 66.7331 12.0747 66.4558 11.9041C65.8478 11.5201 65.3838 11.0027 65.0638 10.3521C64.7544 9.69072 64.5998 9.01338 64.5998 8.32005C64.5998 7.48805 64.7491 6.74138 65.0478 6.08005C65.3464 5.40805 65.7891 4.88005 66.3758 4.49605C66.9731 4.10138 67.7091 3.90405 68.5838 3.90405C68.7758 3.90405 68.9891 3.94138 69.2238 4.01605C69.4584 4.09072 69.6878 4.18672 69.9118 4.30405C70.1464 4.41072 70.3331 4.52272 70.4718 4.64005V1.53605C70.4718 1.19472 70.3811 1.00272 70.1998 0.960051C70.0291 0.906717 69.7998 0.880051 69.5118 0.880051C69.4158 0.880051 69.3198 0.885384 69.2238 0.89605C69.1278 0.89605 69.0318 0.89605 68.9358 0.89605C68.8931 0.89605 68.8504 0.88005 68.8078 0.84805C68.7758 0.81605 68.7598 0.778717 68.7598 0.736051C68.7598 0.661384 68.7864 0.613384 68.8398 0.592051C68.8611 0.570717 68.8824 0.56005 68.9038 0.56005C68.9358 0.56005 68.9678 0.554717 68.9998 0.54405C69.2238 0.501383 69.4478 0.469384 69.6718 0.44805C69.9064 0.41605 70.1411 0.378717 70.3758 0.33605C70.6104 0.293383 70.8398 0.250717 71.0638 0.20805C71.2878 0.154716 71.5118 0.0960499 71.7358 0.0320501C71.7464 0.0320501 71.7624 0.0267169 71.7838 0.0160503C71.8158 0.00538381 71.8371 5.05447e-05 71.8478 5.05447e-05C71.9011 5.05447e-05 71.9331 0.0213839 71.9438 0.0640507C71.9544 0.106717 71.9598 0.149383 71.9598 0.19205C71.9598 1.51472 71.9544 2.83205 71.9438 4.14405C71.9331 5.45605 71.9278 6.77338 71.9278 8.09605V10.4801C71.9278 10.6614 71.9491 10.8481 71.9918 11.0401C72.0344 11.2321 72.1144 11.3921 72.2318 11.5201C72.3598 11.6481 72.5358 11.7121 72.7598 11.7121C72.8664 11.7121 72.9678 11.6907 73.0638 11.6481C73.1598 11.6054 73.2611 11.5841 73.3678 11.5841C73.4424 11.5841 73.4798 11.6267 73.4798 11.7121ZM80.1109 6.73605C80.1002 6.29872 80.0629 5.88272 79.9989 5.48805C79.9349 5.08272 79.7802 4.75205 79.5349 4.49605C79.2895 4.22938 78.8895 4.09605 78.3349 4.09605C77.8335 4.09605 77.4229 4.23472 77.1029 4.51205C76.7935 4.77872 76.5535 5.12005 76.3829 5.53605C76.2122 5.94138 76.0842 6.35738 75.9989 6.78405C76.2655 6.79472 76.5269 6.80538 76.7829 6.81605C77.0389 6.81605 77.2949 6.81605 77.5509 6.81605C77.9775 6.81605 78.4042 6.81072 78.8309 6.80005C79.2575 6.77872 79.6842 6.75738 80.1109 6.73605ZM81.9509 10.4001C81.9509 10.4534 81.9402 10.4854 81.9189 10.4961C81.8869 10.6027 81.8069 10.7307 81.6789 10.8801C81.5615 11.0294 81.4282 11.1734 81.2789 11.3121C81.1295 11.4401 81.0069 11.5361 80.9109 11.6001C80.5589 11.8454 80.1589 12.0427 79.7109 12.1921C79.2735 12.3414 78.8362 12.4161 78.3989 12.4161C78.0362 12.4161 77.6309 12.3574 77.1829 12.2401C76.7455 12.1227 76.3722 11.9627 76.0629 11.7601C75.4655 11.3654 75.0282 10.8481 74.7509 10.2081C74.4735 9.56805 74.3349 8.90138 74.3349 8.20805C74.3349 7.41872 74.4895 6.68805 74.7989 6.01605C75.1082 5.34405 75.6042 4.80005 76.2869 4.38405C76.5962 4.20272 76.9429 4.05338 77.3269 3.93605C77.7109 3.80805 78.0789 3.74405 78.4309 3.74405C79.0602 3.74405 79.6149 3.87205 80.0949 4.12805C80.5749 4.38405 80.9482 4.74672 81.2149 5.21605C81.4922 5.67472 81.6309 6.22405 81.6309 6.86405C81.6309 7.04538 81.5882 7.16272 81.5029 7.21605C81.4282 7.26938 81.3109 7.29605 81.1509 7.29605C80.9375 7.29605 80.7242 7.29072 80.5109 7.28005C80.2975 7.26938 80.0842 7.25872 79.8709 7.24805C79.5722 7.22672 79.2735 7.21605 78.9749 7.21605C78.6869 7.21605 78.3935 7.21605 78.0949 7.21605C77.7322 7.21605 77.3695 7.21605 77.0069 7.21605C76.6442 7.21605 76.2815 7.22672 75.9189 7.24805C75.9082 7.41872 75.8975 7.58405 75.8869 7.74405C75.8762 7.90405 75.8709 8.06938 75.8709 8.24005C75.8709 8.63472 75.9189 9.04538 76.0149 9.47205C76.1109 9.88805 76.2655 10.2774 76.4789 10.6401C76.6922 10.9921 76.9642 11.2801 77.2949 11.5041C77.6255 11.7174 78.0255 11.8241 78.4949 11.8241C78.9749 11.8241 79.4335 11.7494 79.8709 11.6001C80.3082 11.4507 80.7082 11.2107 81.0709 10.8801C81.1669 10.7841 81.2522 10.6827 81.3269 10.5761C81.4122 10.4587 81.5029 10.3574 81.5989 10.2721C81.6522 10.2187 81.7109 10.1921 81.7749 10.1921C81.8282 10.1921 81.8709 10.2134 81.9029 10.2561C81.9349 10.2987 81.9509 10.3467 81.9509 10.4001ZM88.9256 10.0641C88.9256 10.5441 88.819 10.9387 88.6056 11.2481C88.3923 11.5467 88.115 11.7761 87.7736 11.9361C87.4323 12.0961 87.059 12.2081 86.6536 12.2721C86.2483 12.3361 85.8536 12.3681 85.4696 12.3681C85.1176 12.3681 84.7656 12.3307 84.4136 12.2561C84.0723 12.1814 83.7256 12.1281 83.3736 12.0961C83.299 11.8081 83.2243 11.5201 83.1496 11.2321C83.0856 10.9441 83.011 10.6614 82.9256 10.3841C82.915 10.3521 82.8883 10.2774 82.8456 10.1601C82.8136 10.0427 82.7976 9.97872 82.7976 9.96805C82.7976 9.88272 82.8243 9.82405 82.8776 9.79205C82.931 9.74938 82.995 9.72805 83.0696 9.72805C83.1443 9.72805 83.1976 9.75472 83.2296 9.80805C83.2936 9.88272 83.347 9.98405 83.3896 10.1121C83.443 10.2401 83.491 10.3521 83.5336 10.4481C83.619 10.6187 83.6936 10.7521 83.7576 10.8481C83.8216 10.9334 83.923 11.0454 84.0616 11.1841C84.4776 11.6214 84.995 11.8401 85.6136 11.8401C85.955 11.8401 86.2643 11.8027 86.5416 11.7281C86.8296 11.6534 87.059 11.5147 87.2296 11.3121C87.4003 11.0987 87.4856 10.7947 87.4856 10.4001C87.4856 10.0587 87.379 9.77605 87.1656 9.55205C86.9523 9.31738 86.675 9.10938 86.3336 8.92805C86.003 8.74672 85.651 8.57072 85.2776 8.40005C84.9043 8.22938 84.547 8.04272 84.2056 7.84005C83.875 7.62672 83.603 7.37072 83.3896 7.07205C83.1763 6.77338 83.0696 6.41072 83.0696 5.98405C83.0696 5.46138 83.203 5.03472 83.4696 4.70405C83.747 4.37338 84.099 4.12805 84.5256 3.96805C84.9523 3.79738 85.395 3.71205 85.8536 3.71205C86.1523 3.71205 86.419 3.74938 86.6536 3.82405C86.899 3.89872 87.155 3.98405 87.4216 4.08005C87.507 4.11205 87.5923 4.13338 87.6776 4.14405C87.763 4.15472 87.8483 4.16005 87.9336 4.16005C87.987 4.16005 88.035 4.16005 88.0776 4.16005C88.1203 4.16005 88.163 4.15472 88.2056 4.14405C88.2376 4.33605 88.2643 4.53338 88.2856 4.73605C88.3176 4.92805 88.3443 5.12538 88.3656 5.32805C88.3763 5.40272 88.387 5.49338 88.3976 5.60005C88.419 5.69605 88.4296 5.78672 88.4296 5.87205C88.4296 5.94672 88.4136 6.02672 88.3816 6.11205C88.3496 6.18672 88.2856 6.22405 88.1896 6.22405C88.115 6.22405 88.051 6.21872 87.9976 6.20805C87.955 6.18672 87.9176 6.13872 87.8856 6.06405C87.8323 5.95738 87.7843 5.84538 87.7416 5.72805C87.7096 5.60005 87.6723 5.48272 87.6296 5.37605C87.491 5.00272 87.251 4.70405 86.9096 4.48005C86.5683 4.24538 86.2003 4.12805 85.8056 4.12805C85.3043 4.12805 84.9256 4.27738 84.6696 4.57605C84.4136 4.86405 84.2856 5.25338 84.2856 5.74405C84.2856 5.91472 84.3283 6.08005 84.4136 6.24005C84.5096 6.40005 84.6163 6.53872 84.7336 6.65605C84.9576 6.86938 85.219 7.03472 85.5176 7.15205C85.827 7.26938 86.1203 7.38672 86.3976 7.50405C86.7603 7.66405 87.1336 7.85605 87.5176 8.08005C87.9123 8.30405 88.243 8.57605 88.5096 8.89605C88.787 9.21605 88.9256 9.60538 88.9256 10.0641ZM97.8423 10.3681C97.8423 10.4427 97.7836 10.5494 97.6663 10.6881C97.5489 10.8161 97.4636 10.9067 97.4103 10.9601C97.3143 11.0561 97.2183 11.1521 97.1223 11.2481C97.0263 11.3441 96.9196 11.4347 96.8023 11.5201C96.4716 11.7547 96.0769 11.9574 95.6183 12.1281C95.1596 12.2881 94.7276 12.3681 94.3223 12.3681C93.5116 12.3681 92.7969 12.1921 92.1783 11.8401C91.5703 11.4774 91.0903 10.9867 90.7383 10.3681C90.3969 9.73872 90.2263 9.02405 90.2263 8.22405C90.2263 7.43472 90.3863 6.69338 90.7063 6.00005C91.0263 5.30672 91.5329 4.74672 92.2263 4.32005C92.5249 4.13872 92.8556 3.99472 93.2183 3.88805C93.5916 3.78138 93.9489 3.72805 94.2903 3.72805C94.5569 3.72805 94.8129 3.76005 95.0583 3.82405C95.3143 3.88805 95.5596 3.97338 95.7943 4.08005C95.9329 4.14405 96.0663 4.20805 96.1943 4.27205C96.3223 4.33605 96.4609 4.36805 96.6103 4.36805C96.7383 4.36805 96.8396 4.33072 96.9143 4.25605C96.9996 4.17072 97.0636 4.12805 97.1063 4.12805C97.1383 4.12805 97.1543 4.14938 97.1543 4.19205C97.1756 4.32005 97.1809 4.44805 97.1703 4.57605C97.1703 4.70405 97.1756 4.82672 97.1863 4.94405C97.1969 5.17872 97.2076 5.41338 97.2183 5.64805C97.2289 5.88272 97.2396 6.11738 97.2503 6.35205V6.40005C97.2609 6.51738 97.2503 6.60805 97.2183 6.67205C97.1863 6.73605 97.1009 6.76805 96.9623 6.76805C96.8876 6.76805 96.8343 6.72538 96.8023 6.64005C96.7809 6.55472 96.7596 6.48005 96.7383 6.41605C96.6636 6.10672 96.5516 5.77605 96.4023 5.42405C96.2529 5.07205 96.0503 4.78938 95.7943 4.57605C95.6343 4.42672 95.4316 4.30405 95.1863 4.20805C94.9516 4.11205 94.7276 4.06405 94.5143 4.06405C94.0023 4.06405 93.5649 4.19738 93.2023 4.46405C92.8503 4.72005 92.5676 5.05605 92.3543 5.47205C92.1409 5.87738 91.9809 6.31472 91.8743 6.78405C91.7783 7.25338 91.7303 7.69605 91.7303 8.11205C91.7303 8.52805 91.7783 8.95472 91.8743 9.39205C91.9703 9.81872 92.1196 10.2187 92.3223 10.5921C92.5356 10.9654 92.8129 11.2641 93.1543 11.4881C93.5063 11.7121 93.9276 11.8241 94.4183 11.8241C95.1009 11.8241 95.6716 11.7014 96.1303 11.4561C96.5889 11.2001 97.0316 10.8107 97.4583 10.2881C97.5009 10.2134 97.5596 10.1761 97.6343 10.1761C97.7729 10.1761 97.8423 10.2401 97.8423 10.3681ZM105.043 5.23205C105.043 5.33872 105 5.44005 104.915 5.53605C104.84 5.62138 104.744 5.66405 104.627 5.66405C104.467 5.66405 104.35 5.61072 104.275 5.50405C104.211 5.39738 104.152 5.27472 104.099 5.13605C104.056 4.99738 103.987 4.87472 103.891 4.76805C103.795 4.66138 103.635 4.60805 103.411 4.60805C103.368 4.60805 103.326 4.60805 103.283 4.60805C103.251 4.60805 103.214 4.61338 103.171 4.62405C102.99 4.65605 102.792 4.76805 102.579 4.96005C102.366 5.15205 102.158 5.38138 101.955 5.64805C101.763 5.90405 101.603 6.16005 101.475 6.41605C101.347 6.67205 101.278 6.88538 101.267 7.05605C101.256 7.22672 101.251 7.39738 101.251 7.56805C101.251 7.72805 101.251 7.88805 101.251 8.04805C101.251 8.62405 101.251 9.20005 101.251 9.77605C101.262 10.3521 101.267 10.9227 101.267 11.4881C101.267 11.6481 101.331 11.7654 101.459 11.8401C101.598 11.9041 101.736 11.9361 101.875 11.9361C101.982 11.9361 102.088 11.9307 102.195 11.9201C102.302 11.9094 102.408 11.9041 102.515 11.9041C102.568 11.9041 102.606 11.9307 102.627 11.9841C102.648 12.0267 102.659 12.0694 102.659 12.1121C102.659 12.2827 102.574 12.3681 102.403 12.3681C102.083 12.3681 101.763 12.3627 101.443 12.3521C101.123 12.3307 100.803 12.3201 100.483 12.3201C100.152 12.3201 99.8162 12.3307 99.4749 12.3521C99.1442 12.3734 98.8082 12.3841 98.4669 12.3841C98.4242 12.3841 98.3922 12.3521 98.3709 12.2881C98.3602 12.2241 98.3549 12.1707 98.3549 12.1281C98.3549 12.0214 98.3975 11.9627 98.4829 11.9521C98.6002 11.9307 98.7229 11.9254 98.8509 11.9361C98.9789 11.9467 99.0962 11.9521 99.2029 11.9521C99.3629 11.9521 99.4909 11.9201 99.5869 11.8561C99.6935 11.7814 99.7522 11.6587 99.7629 11.4881C99.7842 11.1467 99.7949 10.8001 99.7949 10.4481C99.8055 10.0961 99.8109 9.74405 99.8109 9.39205V7.84005C99.8002 7.38138 99.7949 6.92805 99.7949 6.48005C99.8055 6.02138 99.7895 5.56805 99.7469 5.12005C99.7362 4.90672 99.6775 4.75738 99.5709 4.67205C99.4642 4.57605 99.3042 4.52805 99.0909 4.52805C99.0055 4.52805 98.9149 4.53872 98.8189 4.56005C98.7335 4.57072 98.6429 4.57605 98.5469 4.57605C98.4615 4.57605 98.4189 4.51205 98.4189 4.38405C98.4189 4.30938 98.4562 4.25605 98.5309 4.22405C98.6375 4.19205 98.7495 4.17072 98.8669 4.16005C98.9842 4.13872 99.0962 4.12272 99.2029 4.11205C99.4909 4.05872 99.7789 4.00538 100.067 3.95205C100.355 3.89872 100.643 3.83472 100.931 3.76005C101.027 3.79205 101.096 3.85072 101.139 3.93605C101.16 3.97872 101.176 4.09605 101.187 4.28805C101.198 4.48005 101.203 4.70405 101.203 4.96005C101.203 5.20538 101.203 5.44005 101.203 5.66405C101.203 5.87738 101.203 6.02672 101.203 6.11205C101.438 5.73872 101.704 5.36538 102.003 4.99205C102.302 4.61872 102.643 4.30938 103.027 4.06405C103.411 3.81872 103.843 3.69605 104.323 3.69605C104.579 3.69605 104.744 3.77605 104.819 3.93605C104.894 4.09605 104.942 4.28272 104.963 4.49605C104.984 4.61338 105 4.73605 105.011 4.86405C105.032 4.99205 105.043 5.11472 105.043 5.23205ZM110.264 12.1121C110.264 12.1654 110.248 12.2187 110.216 12.2721C110.184 12.3147 110.142 12.3361 110.088 12.3361C109.79 12.3361 109.491 12.3307 109.192 12.3201C108.904 12.2987 108.606 12.2881 108.296 12.2881H107.864C107.544 12.2881 107.224 12.2987 106.904 12.3201C106.595 12.3307 106.286 12.3361 105.976 12.3361C105.934 12.3361 105.902 12.3094 105.88 12.2561C105.87 12.2027 105.864 12.1601 105.864 12.1281C105.864 12.0747 105.87 12.0374 105.88 12.0161C105.891 11.9841 105.923 11.9627 105.976 11.9521C106.03 11.9307 106.088 11.9254 106.152 11.9361C106.227 11.9361 106.296 11.9361 106.36 11.9361C106.435 11.9361 106.504 11.9414 106.568 11.9521C106.632 11.9521 106.702 11.9521 106.776 11.9521C106.926 11.9521 107.059 11.9201 107.176 11.8561C107.304 11.7814 107.368 11.6587 107.368 11.4881V5.08805C107.368 4.90672 107.336 4.76805 107.272 4.67205C107.208 4.56538 107.075 4.51205 106.872 4.51205C106.723 4.51205 106.568 4.52272 106.408 4.54405C106.259 4.55472 106.11 4.57072 105.96 4.59205C105.875 4.59205 105.832 4.54405 105.832 4.44805C105.832 4.34138 105.875 4.27205 105.96 4.24005C106.088 4.19738 106.222 4.17072 106.36 4.16005C106.51 4.13872 106.648 4.11738 106.776 4.09605C107.075 4.04272 107.374 3.98405 107.672 3.92005C107.971 3.85605 108.264 3.78672 108.552 3.71205C108.584 3.70138 108.627 3.69605 108.68 3.69605C108.798 3.69605 108.856 3.76005 108.856 3.88805C108.856 5.14672 108.851 6.41072 108.84 7.68005C108.84 8.94938 108.84 10.2187 108.84 11.4881C108.84 11.6587 108.915 11.7814 109.064 11.8561C109.224 11.9201 109.374 11.9521 109.512 11.9521C109.619 11.9521 109.726 11.9467 109.832 11.9361C109.95 11.9254 110.062 11.9201 110.168 11.9201C110.211 11.9201 110.238 11.9467 110.248 12.0001C110.259 12.0534 110.264 12.0907 110.264 12.1121ZM108.968 1.04005C108.968 1.30672 108.872 1.53605 108.68 1.72805C108.488 1.90938 108.259 2.00005 107.992 2.00005C107.726 2.00005 107.496 1.90938 107.304 1.72805C107.112 1.53605 107.016 1.30672 107.016 1.04005C107.016 0.773383 107.112 0.549383 107.304 0.368051C107.496 0.176051 107.726 0.0800505 107.992 0.0800505C108.259 0.0800505 108.488 0.176051 108.68 0.368051C108.872 0.549383 108.968 0.773383 108.968 1.04005ZM119.028 10.4001C119.028 10.4427 119.018 10.4801 118.996 10.5121C118.762 10.8641 118.452 11.1787 118.068 11.4561C117.684 11.7334 117.268 11.9574 116.82 12.1281C116.383 12.2881 115.956 12.3681 115.54 12.3681C115.466 12.3681 115.396 12.3627 115.332 12.3521C115.268 12.3521 115.204 12.3521 115.14 12.3521C115.034 12.5227 114.922 12.6827 114.804 12.8321C114.698 12.9814 114.591 13.1361 114.484 13.2961C114.655 13.2747 114.82 13.2587 114.98 13.2481C115.151 13.2374 115.322 13.2321 115.492 13.2321C115.695 13.2321 115.914 13.2481 116.148 13.2801C116.394 13.3227 116.602 13.4027 116.772 13.5201C116.954 13.6481 117.044 13.8401 117.044 14.0961C117.044 14.3734 116.964 14.5921 116.804 14.7521C116.655 14.9121 116.463 15.0294 116.228 15.1041C115.994 15.1894 115.748 15.2427 115.492 15.2641C115.236 15.2854 115.007 15.2961 114.804 15.2961C114.602 15.2961 114.378 15.2587 114.132 15.1841C113.898 15.1201 113.684 15.0401 113.492 14.9441C113.428 14.9121 113.316 14.8481 113.156 14.7521C113.007 14.6561 112.932 14.5707 112.932 14.4961C112.932 14.4107 112.97 14.3681 113.044 14.3681C113.076 14.3681 113.151 14.3894 113.268 14.4321C113.386 14.4854 113.466 14.5227 113.508 14.5441C113.711 14.6081 113.919 14.6507 114.132 14.6721C114.356 14.7041 114.57 14.7201 114.772 14.7201C114.89 14.7201 115.055 14.6987 115.268 14.6561C115.482 14.6241 115.674 14.5654 115.844 14.4801C116.026 14.3947 116.116 14.2721 116.116 14.1121C116.116 13.9734 116.052 13.8667 115.924 13.7921C115.807 13.7174 115.674 13.6587 115.524 13.6161C115.375 13.5841 115.247 13.5681 115.14 13.5681C114.916 13.5681 114.698 13.5947 114.484 13.6481C114.282 13.7014 114.074 13.7654 113.86 13.8401C113.978 13.5627 114.1 13.2961 114.228 13.0401C114.367 12.7841 114.495 12.5227 114.612 12.2561C113.951 12.1174 113.386 11.8561 112.916 11.4721C112.447 11.0881 112.09 10.6134 111.844 10.0481C111.599 9.48272 111.476 8.86938 111.476 8.20805C111.476 7.41872 111.636 6.67738 111.956 5.98405C112.276 5.29072 112.778 4.73072 113.46 4.30405C113.759 4.12272 114.09 3.97872 114.452 3.87205C114.815 3.76538 115.167 3.71205 115.508 3.71205C115.914 3.71205 116.314 3.79738 116.708 3.96805C116.89 4.04272 117.082 4.12805 117.284 4.22405C117.487 4.30938 117.684 4.35205 117.876 4.35205C117.962 4.35205 118.042 4.34138 118.116 4.32005C118.191 4.29872 118.266 4.28272 118.34 4.27205C118.362 4.60272 118.383 4.93872 118.404 5.28005C118.426 5.62138 118.442 5.96272 118.452 6.30405V6.35205C118.452 6.48005 118.436 6.57072 118.404 6.62405C118.383 6.66672 118.298 6.68805 118.148 6.68805C118.074 6.68805 118.026 6.65072 118.004 6.57605C117.983 6.50138 117.962 6.43205 117.94 6.36805C117.866 6.05872 117.748 5.73872 117.588 5.40805C117.439 5.06672 117.242 4.78938 116.996 4.57605C116.836 4.42672 116.639 4.30405 116.404 4.20805C116.17 4.11205 115.946 4.06405 115.732 4.06405C115.22 4.06405 114.788 4.19738 114.436 4.46405C114.084 4.72005 113.796 5.05605 113.572 5.47205C113.359 5.87738 113.204 6.31472 113.108 6.78405C113.012 7.25338 112.964 7.69605 112.964 8.11205C112.964 8.52805 113.012 8.94938 113.108 9.37605C113.204 9.80272 113.354 10.2027 113.556 10.5761C113.77 10.9387 114.047 11.2321 114.388 11.4561C114.73 11.6801 115.146 11.7921 115.636 11.7921C116.276 11.7921 116.815 11.6854 117.252 11.4721C117.7 11.2481 118.132 10.9014 118.548 10.4321C118.58 10.4107 118.602 10.3787 118.612 10.3361C118.634 10.2934 118.666 10.2614 118.708 10.2401C118.73 10.2187 118.772 10.2081 118.836 10.2081C118.964 10.2081 119.028 10.2721 119.028 10.4001ZM125.125 10.4801C125.082 10.0001 125.056 9.52005 125.045 9.04005C125.045 8.54938 125.04 8.05872 125.029 7.56805H124.805C124.474 7.56805 124.106 7.62138 123.701 7.72805C123.306 7.82405 122.928 7.97338 122.565 8.17605C122.202 8.37872 121.904 8.63472 121.669 8.94405C121.445 9.24272 121.333 9.58938 121.333 9.98405C121.333 10.4961 121.477 10.8854 121.765 11.1521C122.053 11.4081 122.442 11.5361 122.933 11.5361C123.168 11.5361 123.424 11.4827 123.701 11.3761C123.978 11.2587 124.245 11.1201 124.501 10.9601C124.757 10.8001 124.965 10.6401 125.125 10.4801ZM127.925 11.5041C127.925 11.5467 127.92 11.5787 127.909 11.6001C127.802 11.8347 127.621 12.0161 127.365 12.1441C127.12 12.2614 126.874 12.3201 126.629 12.3201C126.181 12.3201 125.856 12.1921 125.653 11.9361C125.461 11.6694 125.306 11.3441 125.189 10.9601C124.784 11.3334 124.336 11.6481 123.845 11.9041C123.354 12.1494 122.826 12.2721 122.261 12.2721C121.866 12.2721 121.493 12.1974 121.141 12.0481C120.8 11.8881 120.522 11.6587 120.309 11.3601C120.096 11.0614 119.989 10.6987 119.989 10.2721C119.989 9.82405 120.101 9.44005 120.325 9.12005C120.56 8.78938 120.853 8.51205 121.205 8.28805C121.568 8.05338 121.952 7.86672 122.357 7.72805C122.773 7.57872 123.162 7.46672 123.525 7.39205C123.77 7.33872 124.021 7.29072 124.277 7.24805C124.533 7.20538 124.784 7.16272 125.029 7.12005C125.029 6.82138 125.013 6.47472 124.981 6.08005C124.96 5.68538 124.88 5.36005 124.741 5.10405C124.602 4.85872 124.416 4.64005 124.181 4.44805C123.946 4.25605 123.685 4.16005 123.397 4.16005C122.906 4.16005 122.522 4.28805 122.245 4.54405C121.968 4.80005 121.77 5.16272 121.653 5.63205C121.642 5.68538 121.632 5.74405 121.621 5.80805C121.621 5.86138 121.616 5.91472 121.605 5.96805C121.594 6.03205 121.552 6.09072 121.477 6.14405C121.413 6.18672 121.344 6.20805 121.269 6.20805C121.066 6.20805 120.88 6.16005 120.709 6.06405C120.549 5.96805 120.469 5.80805 120.469 5.58405C120.469 5.45605 120.49 5.34405 120.533 5.24805C120.672 4.91738 120.896 4.64538 121.205 4.43205C121.514 4.20805 121.856 4.03738 122.229 3.92005C122.613 3.80272 122.97 3.74405 123.301 3.74405C123.877 3.74405 124.4 3.85072 124.869 4.06405C125.338 4.27738 125.712 4.59205 125.989 5.00805C126.277 5.41338 126.421 5.92538 126.421 6.54405C126.421 7.23738 126.416 7.93605 126.405 8.64005C126.405 9.34405 126.426 10.0481 126.469 10.7521C126.48 10.9867 126.528 11.1947 126.613 11.3761C126.698 11.5467 126.874 11.6321 127.141 11.6321C127.28 11.6321 127.424 11.6001 127.573 11.5361C127.733 11.4614 127.834 11.4241 127.877 11.4241C127.909 11.4241 127.925 11.4507 127.925 11.5041ZM126.165 0.816051C126.016 0.965384 125.872 1.12538 125.733 1.29605C125.594 1.46672 125.44 1.61072 125.269 1.72805C125.109 1.83472 124.906 1.88805 124.661 1.88805C124.405 1.88805 124.165 1.82938 123.941 1.71205C123.717 1.59472 123.498 1.47738 123.285 1.36005C123.082 1.24272 122.858 1.18405 122.613 1.18405C122.378 1.18405 122.176 1.25872 122.005 1.40805C121.834 1.55738 121.68 1.71205 121.541 1.87205L121.205 1.66405C121.344 1.47205 121.488 1.27472 121.637 1.07205C121.797 0.869383 121.973 0.698717 122.165 0.56005C122.368 0.421383 122.602 0.35205 122.869 0.35205C123.125 0.35205 123.36 0.410717 123.573 0.52805C123.797 0.634717 124.016 0.746717 124.229 0.86405C124.453 0.981384 124.688 1.04005 124.933 1.04005C125.114 1.04005 125.285 0.981384 125.445 0.86405C125.605 0.746717 125.738 0.618717 125.845 0.48005L126.165 0.816051ZM135.572 8.12805C135.572 7.66938 135.535 7.21072 135.46 6.75205C135.396 6.28272 135.268 5.85072 135.076 5.45605C134.895 5.06138 134.628 4.74672 134.276 4.51205C133.924 4.26672 133.465 4.14405 132.9 4.14405C132.367 4.14405 131.929 4.27205 131.588 4.52805C131.257 4.78405 130.996 5.11472 130.804 5.52005C130.623 5.92538 130.495 6.36272 130.42 6.83205C130.356 7.30138 130.324 7.74405 130.324 8.16005C130.324 8.61872 130.356 9.07738 130.42 9.53605C130.495 9.99472 130.628 10.4107 130.82 10.7841C131.012 11.1467 131.284 11.4401 131.636 11.6641C131.999 11.8881 132.463 12.0001 133.028 12.0001C133.583 12.0001 134.025 11.8827 134.356 11.6481C134.697 11.4134 134.953 11.1041 135.124 10.7201C135.305 10.3361 135.423 9.92005 135.476 9.47205C135.54 9.01338 135.572 8.56538 135.572 8.12805ZM137.22 8.17605C137.22 8.97605 137.028 9.69605 136.644 10.3361C136.271 10.9761 135.759 11.4827 135.108 11.8561C134.468 12.2294 133.748 12.4161 132.948 12.4161C132.169 12.4161 131.465 12.2294 130.836 11.8561C130.207 11.4721 129.705 10.9654 129.332 10.3361C128.959 9.69605 128.772 8.98672 128.772 8.20805C128.772 7.40805 128.953 6.67205 129.316 6.00005C129.679 5.31738 130.175 4.76805 130.804 4.35205C131.444 3.93605 132.18 3.72805 133.012 3.72805C133.908 3.72805 134.671 3.92005 135.3 4.30405C135.929 4.67738 136.404 5.20005 136.724 5.87205C137.055 6.53338 137.22 7.30138 137.22 8.17605ZM148.582 6.48005C148.582 6.11738 148.507 5.77605 148.358 5.45605C148.209 5.13605 147.995 4.87472 147.718 4.67205C147.441 4.46938 147.105 4.36805 146.71 4.36805C146.198 4.36805 145.777 4.49072 145.446 4.73605C145.126 4.98138 144.87 5.30138 144.678 5.69605C144.497 6.08005 144.369 6.49605 144.294 6.94405C144.23 7.39205 144.198 7.81872 144.198 8.22405C144.198 8.58672 144.23 8.97605 144.294 9.39205C144.358 9.80805 144.47 10.1974 144.63 10.5601C144.801 10.9227 145.035 11.2214 145.334 11.4561C145.633 11.6801 146.011 11.7921 146.47 11.7921C146.854 11.7921 147.206 11.6747 147.526 11.4401C147.846 11.1947 148.102 10.8907 148.294 10.5281C148.486 10.1654 148.582 9.80805 148.582 9.45605V6.48005ZM151.558 11.7121C151.558 11.7654 151.531 11.8187 151.478 11.8721C151.425 11.9254 151.377 11.9681 151.334 12.0001C151.195 12.1067 150.993 12.1974 150.726 12.2721C150.47 12.3467 150.251 12.3841 150.07 12.3841C149.793 12.3841 149.563 12.3041 149.382 12.1441C149.201 11.9841 149.051 11.7867 148.934 11.5521C148.827 11.3174 148.731 11.0881 148.646 10.8641C148.411 11.2374 148.091 11.5734 147.686 11.8721C147.281 12.1601 146.849 12.3041 146.39 12.3041C146.081 12.3041 145.761 12.2827 145.43 12.2401C145.11 12.1867 144.811 12.0747 144.534 11.9041C143.926 11.5201 143.462 11.0027 143.142 10.3521C142.833 9.69072 142.678 9.01338 142.678 8.32005C142.678 7.48805 142.827 6.74138 143.126 6.08005C143.425 5.40805 143.867 4.88005 144.454 4.49605C145.051 4.10138 145.787 3.90405 146.662 3.90405C146.854 3.90405 147.067 3.94138 147.302 4.01605C147.537 4.09072 147.766 4.18672 147.99 4.30405C148.225 4.41072 148.411 4.52272 148.55 4.64005V1.53605C148.55 1.19472 148.459 1.00272 148.278 0.960051C148.107 0.906717 147.878 0.880051 147.59 0.880051C147.494 0.880051 147.398 0.885384 147.302 0.89605C147.206 0.89605 147.11 0.89605 147.014 0.89605C146.971 0.89605 146.929 0.88005 146.886 0.84805C146.854 0.81605 146.838 0.778717 146.838 0.736051C146.838 0.661384 146.865 0.613384 146.918 0.592051C146.939 0.570717 146.961 0.56005 146.982 0.56005C147.014 0.56005 147.046 0.554717 147.078 0.54405C147.302 0.501383 147.526 0.469384 147.75 0.44805C147.985 0.41605 148.219 0.378717 148.454 0.33605C148.689 0.293383 148.918 0.250717 149.142 0.20805C149.366 0.154716 149.59 0.0960499 149.814 0.0320501C149.825 0.0320501 149.841 0.0267169 149.862 0.0160503C149.894 0.00538381 149.915 5.05447e-05 149.926 5.05447e-05C149.979 5.05447e-05 150.011 0.0213839 150.022 0.0640507C150.033 0.106717 150.038 0.149383 150.038 0.19205C150.038 1.51472 150.033 2.83205 150.022 4.14405C150.011 5.45605 150.006 6.77338 150.006 8.09605V10.4801C150.006 10.6614 150.027 10.8481 150.07 11.0401C150.113 11.2321 150.193 11.3921 150.31 11.5201C150.438 11.6481 150.614 11.7121 150.838 11.7121C150.945 11.7121 151.046 11.6907 151.142 11.6481C151.238 11.6054 151.339 11.5841 151.446 11.5841C151.521 11.5841 151.558 11.6267 151.558 11.7121ZM159.197 8.12805C159.197 7.66938 159.16 7.21072 159.085 6.75205C159.021 6.28272 158.893 5.85072 158.701 5.45605C158.52 5.06138 158.253 4.74672 157.901 4.51205C157.549 4.26672 157.09 4.14405 156.525 4.14405C155.992 4.14405 155.554 4.27205 155.213 4.52805C154.882 4.78405 154.621 5.11472 154.429 5.52005C154.248 5.92538 154.12 6.36272 154.045 6.83205C153.981 7.30138 153.949 7.74405 153.949 8.16005C153.949 8.61872 153.981 9.07738 154.045 9.53605C154.12 9.99472 154.253 10.4107 154.445 10.7841C154.637 11.1467 154.909 11.4401 155.261 11.6641C155.624 11.8881 156.088 12.0001 156.653 12.0001C157.208 12.0001 157.65 11.8827 157.981 11.6481C158.322 11.4134 158.578 11.1041 158.749 10.7201C158.93 10.3361 159.048 9.92005 159.101 9.47205C159.165 9.01338 159.197 8.56538 159.197 8.12805ZM160.845 8.17605C160.845 8.97605 160.653 9.69605 160.269 10.3361C159.896 10.9761 159.384 11.4827 158.733 11.8561C158.093 12.2294 157.373 12.4161 156.573 12.4161C155.794 12.4161 155.09 12.2294 154.461 11.8561C153.832 11.4721 153.33 10.9654 152.957 10.3361C152.584 9.69605 152.397 8.98672 152.397 8.20805C152.397 7.40805 152.578 6.67205 152.941 6.00005C153.304 5.31738 153.8 4.76805 154.429 4.35205C155.069 3.93605 155.805 3.72805 156.637 3.72805C157.533 3.72805 158.296 3.92005 158.925 4.30405C159.554 4.67738 160.029 5.20005 160.349 5.87205C160.68 6.53338 160.845 7.30138 160.845 8.17605ZM173.055 7.77605C173.055 7.41338 173.034 7.03472 172.991 6.64005C172.948 6.23472 172.858 5.85605 172.719 5.50405C172.58 5.15205 172.372 4.86938 172.095 4.65605C171.818 4.43205 171.439 4.32005 170.959 4.32005C170.671 4.32005 170.362 4.39472 170.031 4.54405C169.711 4.68272 169.428 4.87472 169.183 5.12005C168.948 5.36538 168.815 5.64805 168.783 5.96805C168.762 6.29872 168.751 6.63472 168.751 6.97605C168.751 7.31738 168.751 7.65872 168.751 8.00005C168.751 8.29872 168.751 8.60272 168.751 8.91205C168.762 9.21072 168.772 9.51472 168.783 9.82405C168.815 10.3681 168.991 10.8321 169.311 11.2161C169.631 11.5894 170.084 11.7761 170.671 11.7761C171.226 11.7761 171.663 11.6534 171.983 11.4081C172.303 11.1521 172.538 10.8214 172.687 10.4161C172.847 10.0107 172.948 9.57872 172.991 9.12005C173.034 8.65072 173.055 8.20272 173.055 7.77605ZM174.703 7.79205C174.703 8.62405 174.554 9.37605 174.255 10.0481C173.956 10.7201 173.508 11.2534 172.911 11.6481C172.324 12.0321 171.588 12.2241 170.703 12.2241C170.362 12.2241 170.01 12.1387 169.647 11.9681C169.295 11.7867 168.996 11.5787 168.751 11.3441V14.7521C168.751 14.9014 168.81 14.9867 168.927 15.0081C169.055 15.0294 169.172 15.0401 169.279 15.0401C169.375 15.0401 169.471 15.0347 169.567 15.0241C169.663 15.0134 169.759 15.0081 169.855 15.0081C169.994 15.0081 170.063 15.0774 170.063 15.2161C170.063 15.3761 169.983 15.4561 169.823 15.4561C169.492 15.4561 169.162 15.4454 168.831 15.4241C168.5 15.4027 168.17 15.3921 167.839 15.3921C167.562 15.3921 167.284 15.4027 167.007 15.4241C166.74 15.4454 166.468 15.4561 166.191 15.4561C166.116 15.4561 166.068 15.4294 166.047 15.3761C166.036 15.3227 166.031 15.2747 166.031 15.2321C166.031 15.0827 166.106 15.0081 166.255 15.0081C166.34 15.0081 166.426 15.0081 166.511 15.0081C166.596 15.0187 166.682 15.0241 166.767 15.0241C166.842 15.0241 166.948 15.0134 167.087 14.9921C167.236 14.9707 167.311 14.9067 167.311 14.8001C167.311 13.6907 167.311 12.5761 167.311 11.4561C167.322 10.3361 167.327 9.22138 167.327 8.11205C167.327 7.61072 167.322 7.11472 167.311 6.62405C167.311 6.13338 167.306 5.64272 167.295 5.15205C167.284 4.91738 167.242 4.75738 167.167 4.67205C167.092 4.57605 166.932 4.52805 166.687 4.52805C166.58 4.52805 166.474 4.54405 166.367 4.57605C166.26 4.59738 166.154 4.60805 166.047 4.60805C165.93 4.60805 165.871 4.55472 165.871 4.44805C165.871 4.35205 165.919 4.28805 166.015 4.25605C166.036 4.24538 166.132 4.22405 166.303 4.19205C166.474 4.16005 166.676 4.12272 166.911 4.08005C167.156 4.02672 167.396 3.97872 167.631 3.93605C167.866 3.89338 168.063 3.85605 168.223 3.82405C168.383 3.79205 168.468 3.77605 168.479 3.77605C168.564 3.77605 168.623 3.82938 168.655 3.93605C168.676 4.00005 168.687 4.11738 168.687 4.28805C168.698 4.44805 168.703 4.61338 168.703 4.78405C168.703 4.94405 168.703 5.06672 168.703 5.15205C169.002 4.75738 169.38 4.43205 169.839 4.17605C170.308 3.90938 170.794 3.77605 171.295 3.77605C172.031 3.77605 172.65 3.97338 173.151 4.36805C173.663 4.75205 174.047 5.25338 174.303 5.87205C174.57 6.48005 174.703 7.12005 174.703 7.79205ZM182.277 5.23205C182.277 5.33872 182.235 5.44005 182.149 5.53605C182.075 5.62138 181.979 5.66405 181.861 5.66405C181.701 5.66405 181.584 5.61072 181.509 5.50405C181.445 5.39738 181.387 5.27472 181.333 5.13605C181.291 4.99738 181.221 4.87472 181.125 4.76805C181.029 4.66138 180.869 4.60805 180.645 4.60805C180.603 4.60805 180.56 4.60805 180.517 4.60805C180.485 4.60805 180.448 4.61338 180.405 4.62405C180.224 4.65605 180.027 4.76805 179.813 4.96005C179.6 5.15205 179.392 5.38138 179.189 5.64805C178.997 5.90405 178.837 6.16005 178.709 6.41605C178.581 6.67205 178.512 6.88538 178.501 7.05605C178.491 7.22672 178.485 7.39738 178.485 7.56805C178.485 7.72805 178.485 7.88805 178.485 8.04805C178.485 8.62405 178.485 9.20005 178.485 9.77605C178.496 10.3521 178.501 10.9227 178.501 11.4881C178.501 11.6481 178.565 11.7654 178.693 11.8401C178.832 11.9041 178.971 11.9361 179.109 11.9361C179.216 11.9361 179.323 11.9307 179.429 11.9201C179.536 11.9094 179.643 11.9041 179.749 11.9041C179.803 11.9041 179.84 11.9307 179.861 11.9841C179.883 12.0267 179.893 12.0694 179.893 12.1121C179.893 12.2827 179.808 12.3681 179.637 12.3681C179.317 12.3681 178.997 12.3627 178.677 12.3521C178.357 12.3307 178.037 12.3201 177.717 12.3201C177.387 12.3201 177.051 12.3307 176.709 12.3521C176.379 12.3734 176.043 12.3841 175.701 12.3841C175.659 12.3841 175.627 12.3521 175.605 12.2881C175.595 12.2241 175.589 12.1707 175.589 12.1281C175.589 12.0214 175.632 11.9627 175.717 11.9521C175.835 11.9307 175.957 11.9254 176.085 11.9361C176.213 11.9467 176.331 11.9521 176.437 11.9521C176.597 11.9521 176.725 11.9201 176.821 11.8561C176.928 11.7814 176.987 11.6587 176.997 11.4881C177.019 11.1467 177.029 10.8001 177.029 10.4481C177.04 10.0961 177.045 9.74405 177.045 9.39205V7.84005C177.035 7.38138 177.029 6.92805 177.029 6.48005C177.04 6.02138 177.024 5.56805 176.981 5.12005C176.971 4.90672 176.912 4.75738 176.805 4.67205C176.699 4.57605 176.539 4.52805 176.325 4.52805C176.24 4.52805 176.149 4.53872 176.053 4.56005C175.968 4.57072 175.877 4.57605 175.781 4.57605C175.696 4.57605 175.653 4.51205 175.653 4.38405C175.653 4.30938 175.691 4.25605 175.765 4.22405C175.872 4.19205 175.984 4.17072 176.101 4.16005C176.219 4.13872 176.331 4.12272 176.437 4.11205C176.725 4.05872 177.013 4.00538 177.301 3.95205C177.589 3.89872 177.877 3.83472 178.165 3.76005C178.261 3.79205 178.331 3.85072 178.373 3.93605C178.395 3.97872 178.411 4.09605 178.421 4.28805C178.432 4.48005 178.437 4.70405 178.437 4.96005C178.437 5.20538 178.437 5.44005 178.437 5.66405C178.437 5.87738 178.437 6.02672 178.437 6.11205C178.672 5.73872 178.939 5.36538 179.237 4.99205C179.536 4.61872 179.877 4.30938 180.261 4.06405C180.645 3.81872 181.077 3.69605 181.557 3.69605C181.813 3.69605 181.979 3.77605 182.053 3.93605C182.128 4.09605 182.176 4.28272 182.197 4.49605C182.219 4.61338 182.235 4.73605 182.245 4.86405C182.267 4.99205 182.277 5.11472 182.277 5.23205ZM189.963 8.12805C189.963 7.66938 189.925 7.21072 189.851 6.75205C189.787 6.28272 189.659 5.85072 189.467 5.45605C189.285 5.06138 189.019 4.74672 188.667 4.51205C188.315 4.26672 187.856 4.14405 187.291 4.14405C186.757 4.14405 186.32 4.27205 185.979 4.52805C185.648 4.78405 185.387 5.11472 185.195 5.52005C185.013 5.92538 184.885 6.36272 184.811 6.83205C184.747 7.30138 184.715 7.74405 184.715 8.16005C184.715 8.61872 184.747 9.07738 184.811 9.53605C184.885 9.99472 185.019 10.4107 185.211 10.7841C185.403 11.1467 185.675 11.4401 186.027 11.6641C186.389 11.8881 186.853 12.0001 187.419 12.0001C187.973 12.0001 188.416 11.8827 188.747 11.6481C189.088 11.4134 189.344 11.1041 189.515 10.7201C189.696 10.3361 189.813 9.92005 189.867 9.47205C189.931 9.01338 189.963 8.56538 189.963 8.12805ZM191.611 8.17605C191.611 8.97605 191.419 9.69605 191.035 10.3361C190.661 10.9761 190.149 11.4827 189.499 11.8561C188.859 12.2294 188.139 12.4161 187.339 12.4161C186.56 12.4161 185.856 12.2294 185.227 11.8561C184.597 11.4721 184.096 10.9654 183.723 10.3361C183.349 9.69605 183.163 8.98672 183.163 8.20805C183.163 7.40805 183.344 6.67205 183.707 6.00005C184.069 5.31738 184.565 4.76805 185.195 4.35205C185.835 3.93605 186.571 3.72805 187.403 3.72805C188.299 3.72805 189.061 3.92005 189.691 4.30405C190.32 4.67738 190.795 5.20005 191.115 5.87205C191.445 6.53338 191.611 7.30138 191.611 8.17605ZM198.973 6.48005C198.973 6.11738 198.898 5.77605 198.749 5.45605C198.599 5.13605 198.386 4.87472 198.109 4.67205C197.831 4.46938 197.495 4.36805 197.101 4.36805C196.589 4.36805 196.167 4.49072 195.837 4.73605C195.517 4.98138 195.261 5.30138 195.069 5.69605C194.887 6.08005 194.759 6.49605 194.685 6.94405C194.621 7.39205 194.589 7.81872 194.589 8.22405C194.589 8.58672 194.621 8.97605 194.685 9.39205C194.749 9.80805 194.861 10.1974 195.021 10.5601C195.191 10.9227 195.426 11.2214 195.725 11.4561C196.023 11.6801 196.402 11.7921 196.861 11.7921C197.245 11.7921 197.597 11.6747 197.917 11.4401C198.237 11.1947 198.493 10.8907 198.685 10.5281C198.877 10.1654 198.973 9.80805 198.973 9.45605V6.48005ZM201.949 11.7121C201.949 11.7654 201.922 11.8187 201.869 11.8721C201.815 11.9254 201.767 11.9681 201.725 12.0001C201.586 12.1067 201.383 12.1974 201.117 12.2721C200.861 12.3467 200.642 12.3841 200.461 12.3841C200.183 12.3841 199.954 12.3041 199.773 12.1441C199.591 11.9841 199.442 11.7867 199.325 11.5521C199.218 11.3174 199.122 11.0881 199.037 10.8641C198.802 11.2374 198.482 11.5734 198.077 11.8721C197.671 12.1601 197.239 12.3041 196.781 12.3041C196.471 12.3041 196.151 12.2827 195.821 12.2401C195.501 12.1867 195.202 12.0747 194.925 11.9041C194.317 11.5201 193.853 11.0027 193.533 10.3521C193.223 9.69072 193.069 9.01338 193.069 8.32005C193.069 7.48805 193.218 6.74138 193.517 6.08005C193.815 5.40805 194.258 4.88005 194.845 4.49605C195.442 4.10138 196.178 3.90405 197.053 3.90405C197.245 3.90405 197.458 3.94138 197.693 4.01605C197.927 4.09072 198.157 4.18672 198.381 4.30405C198.615 4.41072 198.802 4.52272 198.941 4.64005V1.53605C198.941 1.19472 198.85 1.00272 198.669 0.960051C198.498 0.906717 198.269 0.880051 197.981 0.880051C197.885 0.880051 197.789 0.885384 197.693 0.89605C197.597 0.89605 197.501 0.89605 197.405 0.89605C197.362 0.89605 197.319 0.88005 197.277 0.84805C197.245 0.81605 197.229 0.778717 197.229 0.736051C197.229 0.661384 197.255 0.613384 197.309 0.592051C197.33 0.570717 197.351 0.56005 197.373 0.56005C197.405 0.56005 197.437 0.554717 197.469 0.54405C197.693 0.501383 197.917 0.469384 198.141 0.44805C198.375 0.41605 198.61 0.378717 198.845 0.33605C199.079 0.293383 199.309 0.250717 199.533 0.20805C199.757 0.154716 199.981 0.0960499 200.205 0.0320501C200.215 0.0320501 200.231 0.0267169 200.253 0.0160503C200.285 0.00538381 200.306 5.05447e-05 200.317 5.05447e-05C200.37 5.05447e-05 200.402 0.0213839 200.413 0.0640507C200.423 0.106717 200.429 0.149383 200.429 0.19205C200.429 1.51472 200.423 2.83205 200.413 4.14405C200.402 5.45605 200.397 6.77338 200.397 8.09605V10.4801C200.397 10.6614 200.418 10.8481 200.461 11.0401C200.503 11.2321 200.583 11.3921 200.701 11.5201C200.829 11.6481 201.005 11.7121 201.229 11.7121C201.335 11.7121 201.437 11.6907 201.533 11.6481C201.629 11.6054 201.73 11.5841 201.837 11.5841C201.911 11.5841 201.949 11.6267 201.949 11.7121ZM211.94 11.9201C211.94 12.0481 211.844 12.1441 211.652 12.2081C211.47 12.2721 211.268 12.3147 211.044 12.3361C210.82 12.3574 210.66 12.3681 210.564 12.3681C210.201 12.3681 209.913 12.2241 209.7 11.9361C209.486 11.6481 209.326 11.3494 209.22 11.0401C208.857 11.4987 208.404 11.8401 207.86 12.0641C207.316 12.2881 206.75 12.4001 206.164 12.4001C205.204 12.4001 204.537 12.1547 204.164 11.6641C203.801 11.1627 203.62 10.4587 203.62 9.55205C203.62 8.75205 203.62 7.95205 203.62 7.15205C203.63 6.34138 203.641 5.53605 203.652 4.73605C203.652 4.41605 203.497 4.25605 203.188 4.25605C203.102 4.25605 203.017 4.26138 202.932 4.27205C202.846 4.28272 202.761 4.28805 202.676 4.28805C202.644 4.28805 202.617 4.27205 202.596 4.24005C202.585 4.19738 202.58 4.16538 202.58 4.14405C202.58 4.02672 202.633 3.96272 202.74 3.95205C203.113 3.90938 203.486 3.88272 203.86 3.87205C204.244 3.85072 204.622 3.81872 204.996 3.77605C205.081 3.86138 205.124 3.96805 205.124 4.09605C205.124 4.36272 205.118 4.63472 205.108 4.91205C205.097 5.18938 205.092 5.46672 205.092 5.74405C205.081 6.39472 205.07 7.05072 205.06 7.71205C205.06 8.36272 205.06 9.01872 205.06 9.68005C205.06 9.88272 205.065 10.1014 205.076 10.3361C205.086 10.5601 205.129 10.7681 205.204 10.9601C205.321 11.2587 205.54 11.4721 205.86 11.6001C206.19 11.7174 206.505 11.7761 206.804 11.7761C207.134 11.7761 207.465 11.7174 207.796 11.6001C208.137 11.4721 208.425 11.2907 208.66 11.0561C208.905 10.8107 209.044 10.5067 209.076 10.1441C209.097 9.96272 209.108 9.78138 209.108 9.60005C209.118 9.40805 209.124 9.22138 209.124 9.04005L209.108 4.68805C209.108 4.54938 209.06 4.44805 208.964 4.38405C208.878 4.32005 208.777 4.28805 208.66 4.28805C208.553 4.28805 208.446 4.29338 208.34 4.30405C208.244 4.31472 208.142 4.32005 208.036 4.32005C207.94 4.32005 207.892 4.26672 207.892 4.16005C207.892 4.05338 207.94 3.99472 208.036 3.98405C208.164 3.96272 208.297 3.95205 208.436 3.95205C208.574 3.94138 208.713 3.93072 208.852 3.92005L209.956 3.80805C210.03 3.79738 210.105 3.78672 210.18 3.77605C210.265 3.76538 210.345 3.76005 210.42 3.76005C210.473 3.76005 210.51 3.79205 210.532 3.85605C210.553 3.90938 210.564 3.95205 210.564 3.98405C210.532 6.29872 210.516 8.60805 210.516 10.9121C210.516 11.1787 210.574 11.3974 210.692 11.5681C210.82 11.7387 211.028 11.8241 211.316 11.8241C211.401 11.8241 211.476 11.8134 211.54 11.7921C211.614 11.7707 211.689 11.7601 211.764 11.7601C211.881 11.7601 211.94 11.8134 211.94 11.9201ZM217.923 11.6161C217.923 11.7121 217.848 11.8081 217.699 11.9041C217.56 12.0001 217.389 12.0854 217.187 12.1601C216.984 12.2347 216.787 12.2934 216.595 12.3361C216.413 12.3787 216.28 12.4001 216.195 12.4001C215.64 12.4001 215.208 12.3307 214.899 12.1921C214.6 12.0534 214.387 11.8241 214.259 11.5041C214.141 11.1841 214.083 10.7521 214.083 10.2081C214.083 9.32272 214.083 8.43738 214.083 7.55205C214.093 6.65605 214.104 5.76538 214.115 4.88005H212.963C212.888 4.88005 212.824 4.90138 212.771 4.94405C212.728 4.97605 212.68 4.99205 212.627 4.99205C212.573 4.99205 212.547 4.95472 212.547 4.88005C212.547 4.83738 212.573 4.75205 212.627 4.62405C212.691 4.49605 212.733 4.41072 212.755 4.36805C212.787 4.37872 212.835 4.38405 212.899 4.38405H214.147L214.163 2.35205C214.408 2.19205 214.632 2.01605 214.835 1.82405C215.037 1.62138 215.24 1.41872 215.443 1.21605C215.464 1.19472 215.485 1.17872 215.507 1.16805C215.528 1.14672 215.549 1.13605 215.571 1.13605C215.667 1.13605 215.715 1.17338 215.715 1.24805L215.619 4.36805C215.96 4.36805 216.296 4.36272 216.627 4.35205C216.968 4.34138 217.304 4.33605 217.635 4.33605C217.773 4.33605 217.843 4.41605 217.843 4.57605C217.843 4.77872 217.752 4.88005 217.571 4.88005H215.619C215.619 5.69072 215.613 6.50672 215.603 7.32805C215.603 8.13872 215.603 8.95472 215.603 9.77605V11.0081C215.603 11.2747 215.715 11.4614 215.939 11.5681C216.163 11.6641 216.381 11.7121 216.595 11.7121C216.893 11.7121 217.187 11.6641 217.475 11.5681C217.507 11.5467 217.555 11.5254 217.619 11.5041C217.683 11.4827 217.731 11.4721 217.763 11.4721C217.869 11.4721 217.923 11.5201 217.923 11.6161ZM225.588 8.12805C225.588 7.66938 225.55 7.21072 225.476 6.75205C225.412 6.28272 225.284 5.85072 225.092 5.45605C224.91 5.06138 224.644 4.74672 224.292 4.51205C223.94 4.26672 223.481 4.14405 222.916 4.14405C222.382 4.14405 221.945 4.27205 221.604 4.52805C221.273 4.78405 221.012 5.11472 220.82 5.52005C220.638 5.92538 220.51 6.36272 220.436 6.83205C220.372 7.30138 220.34 7.74405 220.34 8.16005C220.34 8.61872 220.372 9.07738 220.436 9.53605C220.51 9.99472 220.644 10.4107 220.836 10.7841C221.028 11.1467 221.3 11.4401 221.652 11.6641C222.014 11.8881 222.478 12.0001 223.044 12.0001C223.598 12.0001 224.041 11.8827 224.372 11.6481C224.713 11.4134 224.969 11.1041 225.14 10.7201C225.321 10.3361 225.438 9.92005 225.492 9.47205C225.556 9.01338 225.588 8.56538 225.588 8.12805ZM227.236 8.17605C227.236 8.97605 227.044 9.69605 226.66 10.3361C226.286 10.9761 225.774 11.4827 225.124 11.8561C224.484 12.2294 223.764 12.4161 222.964 12.4161C222.185 12.4161 221.481 12.2294 220.852 11.8561C220.222 11.4721 219.721 10.9654 219.348 10.3361C218.974 9.69605 218.788 8.98672 218.788 8.20805C218.788 7.40805 218.969 6.67205 219.332 6.00005C219.694 5.31738 220.19 4.76805 220.82 4.35205C221.46 3.93605 222.196 3.72805 223.028 3.72805C223.924 3.72805 224.686 3.92005 225.316 4.30405C225.945 4.67738 226.42 5.20005 226.74 5.87205C227.07 6.53338 227.236 7.30138 227.236 8.17605ZM231.894 11.1841C231.894 11.4827 231.782 11.7334 231.558 11.9361C231.334 12.1387 231.072 12.2401 230.774 12.2401C230.475 12.2401 230.214 12.1387 229.99 11.9361C229.766 11.7334 229.654 11.4827 229.654 11.1841C229.654 10.8747 229.766 10.6187 229.99 10.4161C230.214 10.2134 230.475 10.1121 230.774 10.1121C231.072 10.1121 231.334 10.2134 231.558 10.4161C231.782 10.6187 231.894 10.8747 231.894 11.1841ZM237.487 11.1841C237.487 11.4827 237.375 11.7334 237.151 11.9361C236.927 12.1387 236.666 12.2401 236.367 12.2401C236.069 12.2401 235.807 12.1387 235.583 11.9361C235.359 11.7334 235.247 11.4827 235.247 11.1841C235.247 10.8747 235.359 10.6187 235.583 10.4161C235.807 10.2134 236.069 10.1121 236.367 10.1121C236.666 10.1121 236.927 10.2134 237.151 10.4161C237.375 10.6187 237.487 10.8747 237.487 11.1841ZM243.081 11.1841C243.081 11.4827 242.969 11.7334 242.745 11.9361C242.521 12.1387 242.26 12.2401 241.961 12.2401C241.662 12.2401 241.401 12.1387 241.177 11.9361C240.953 11.7334 240.841 11.4827 240.841 11.1841C240.841 10.8747 240.953 10.6187 241.177 10.4161C241.401 10.2134 241.662 10.1121 241.961 10.1121C242.26 10.1121 242.521 10.2134 242.745 10.4161C242.969 10.6187 243.081 10.8747 243.081 11.1841Z" fill="#919191"/>
</svg>
