<svg width="50" height="12" viewBox="0 0 50 12" fill="none" xmlns="http://www.w3.org/2000/svg">
<path d="M1.47731 11.6365H3.3319e-05L4.27276 0.000110626H5.72731L10 11.6365H8.52276L5.04549 1.84102H4.95458L1.47731 11.6365ZM2.02276 7.09102H7.97731V8.34102H2.02276V7.09102ZM12.9716 0.000110626V11.6365H11.6307V0.000110626H12.9716ZM19.223 2.9092V4.04557H14.7003V2.9092H19.223ZM16.0185 0.818293H17.3594V9.13647C17.3594 9.51526 17.4143 9.79935 17.5242 9.98875C17.6378 10.1744 17.7818 10.2994 17.956 10.3637C18.134 10.4244 18.3215 10.4547 18.5185 10.4547C18.6662 10.4547 18.7874 10.4471 18.8821 10.4319C18.9768 10.413 19.0526 10.3978 19.1094 10.3865L19.3821 11.591C19.2912 11.6251 19.1643 11.6592 19.0015 11.6933C18.8386 11.7312 18.6321 11.7501 18.3821 11.7501C18.0033 11.7501 17.6321 11.6687 17.2685 11.5058C16.9087 11.3429 16.6094 11.0948 16.3708 10.7615C16.1359 10.4281 16.0185 10.0077 16.0185 9.50011V0.818293ZM24.8054 11.8183C23.9645 11.8183 23.2391 11.6327 22.6293 11.2615C22.0232 10.8865 21.5554 10.3637 21.2259 9.69329C20.9001 9.01905 20.7372 8.23496 20.7372 7.34102C20.7372 6.44708 20.9001 5.6592 21.2259 4.97738C21.5554 4.29178 22.0138 3.75769 22.6009 3.37511C23.1918 2.98875 23.8812 2.79557 24.6691 2.79557C25.1236 2.79557 25.5725 2.87132 26.0157 3.02284C26.4588 3.17435 26.8622 3.42057 27.2259 3.76147C27.5895 4.0986 27.8793 4.54557 28.0952 5.10238C28.3111 5.6592 28.4191 6.34481 28.4191 7.1592V7.72738H21.6918V6.56829H27.0554C27.0554 6.07587 26.9569 5.63647 26.76 5.25011C26.5668 4.86375 26.2903 4.55882 25.9304 4.33534C25.5744 4.11185 25.1539 4.00011 24.6691 4.00011C24.135 4.00011 23.6729 4.13269 23.2827 4.39784C22.8963 4.6592 22.599 5.00011 22.3907 5.42057C22.1823 5.84102 22.0782 6.29178 22.0782 6.77284V7.54557C22.0782 8.20466 22.1918 8.76337 22.4191 9.2217C22.6501 9.67625 22.9702 10.0228 23.3793 10.2615C23.7884 10.4963 24.2638 10.6137 24.8054 10.6137C25.1577 10.6137 25.4759 10.5645 25.76 10.466C26.0479 10.3637 26.296 10.2122 26.5043 10.0115C26.7126 9.80693 26.8736 9.55314 26.9872 9.25011L28.2827 9.61375C28.1463 10.0531 27.9172 10.4395 27.5952 10.7728C27.2732 11.1024 26.8755 11.36 26.402 11.5456C25.9285 11.7274 25.3963 11.8183 24.8054 11.8183ZM30.4588 11.6365V2.9092H31.7543V4.22738H31.8452C32.0043 3.79557 32.2922 3.44519 32.7088 3.17625C33.1255 2.90731 33.5952 2.77284 34.1179 2.77284C34.2164 2.77284 34.3395 2.77473 34.4872 2.77852C34.635 2.78231 34.7467 2.78799 34.8225 2.79557V4.1592C34.777 4.14784 34.6729 4.13079 34.51 4.10807C34.3509 4.08155 34.1823 4.06829 34.0043 4.06829C33.5801 4.06829 33.2013 4.15731 32.8679 4.33534C32.5384 4.50958 32.277 4.752 32.0838 5.06261C31.8944 5.36943 31.7997 5.71981 31.7997 6.11375V11.6365H30.4588ZM38.9801 11.841C38.4271 11.841 37.9252 11.7369 37.4745 11.5285C37.0237 11.3164 36.6658 11.0115 36.4006 10.6137C36.1355 10.2122 36.0029 9.72738 36.0029 9.1592C36.0029 8.6592 36.1014 8.2539 36.2983 7.94329C36.4953 7.6289 36.7586 7.38269 37.0881 7.20466C37.4176 7.02663 37.7813 6.89405 38.179 6.80693C38.5805 6.71602 38.9839 6.64405 39.3892 6.59102C39.9195 6.52284 40.3495 6.4717 40.679 6.43761C41.0123 6.39973 41.2548 6.33723 41.4063 6.25011C41.5616 6.16299 41.6392 6.01147 41.6392 5.79557V5.75011C41.6392 5.1895 41.4858 4.7539 41.179 4.44329C40.876 4.13269 40.4158 3.97738 39.7983 3.97738C39.1582 3.97738 38.6563 4.11754 38.2926 4.39784C37.929 4.67814 37.6733 4.97738 37.5256 5.29557L36.2529 4.84102C36.4801 4.31072 36.7832 3.89784 37.162 3.60238C37.5445 3.30314 37.9612 3.09481 38.412 2.97738C38.8665 2.85617 39.3135 2.79557 39.7529 2.79557C40.0332 2.79557 40.3551 2.82966 40.7188 2.89784C41.0862 2.96223 41.4404 3.0967 41.7813 3.30125C42.126 3.50579 42.412 3.8145 42.6392 4.22738C42.8665 4.64026 42.9801 5.19329 42.9801 5.88647V11.6365H41.6392V10.4547H41.5711C41.4801 10.6441 41.3286 10.8467 41.1165 11.0626C40.9044 11.2785 40.6222 11.4622 40.2699 11.6137C39.9176 11.7653 39.4877 11.841 38.9801 11.841ZM39.1847 10.6365C39.715 10.6365 40.162 10.5323 40.5256 10.324C40.893 10.1156 41.1695 9.8467 41.3551 9.51716C41.5445 9.18761 41.6392 8.84102 41.6392 8.47738V7.25011C41.5824 7.31829 41.4574 7.38079 41.2642 7.43761C41.0748 7.49064 40.8551 7.53799 40.6051 7.57966C40.3589 7.61754 40.1184 7.65163 39.8836 7.68193C39.6525 7.70844 39.465 7.73117 39.3211 7.75011C38.9726 7.79557 38.6468 7.86943 38.3438 7.9717C38.0445 8.07019 37.8021 8.21981 37.6165 8.42057C37.4347 8.61754 37.3438 8.88647 37.3438 9.22738C37.3438 9.69329 37.5161 10.0456 37.8608 10.2842C38.2093 10.5191 38.6506 10.6365 39.1847 10.6365ZM45.4276 11.6365V2.9092H46.723V4.22738H46.814C46.973 3.79557 47.2609 3.44519 47.6776 3.17625C48.0943 2.90731 48.564 2.77284 49.0867 2.77284C49.1852 2.77284 49.3083 2.77473 49.456 2.77852C49.6037 2.78231 49.7155 2.78799 49.7912 2.79557V4.1592C49.7458 4.14784 49.6416 4.13079 49.4787 4.10807C49.3196 4.08155 49.1511 4.06829 48.973 4.06829C48.5488 4.06829 48.17 4.15731 47.8367 4.33534C47.5071 4.50958 47.2458 4.752 47.0526 5.06261C46.8632 5.36943 46.7685 5.71981 46.7685 6.11375V11.6365H45.4276Z" fill="#042A7D"/>
</svg>
