<svg width="48" height="13" viewBox="0 0 48 13" fill="none" xmlns="http://www.w3.org/2000/svg">
<path d="M-3.31998e-05 12.75V0.386363H7.46161V1.71449H1.49713V5.89205H7.07525V7.22017H1.49713V11.4219H7.55821V12.75H-3.31998e-05ZM15.2794 6.78551V8.11364H9.87035V6.78551H15.2794ZM17.7863 12.75V3.47727H19.1627V4.92614H19.2834C19.4766 4.43111 19.7885 4.04676 20.2192 3.77308C20.6498 3.49538 21.167 3.35653 21.7707 3.35653C22.3824 3.35653 22.8915 3.49538 23.298 3.77308C23.7085 4.04676 24.0285 4.43111 24.2579 4.92614H24.3545C24.5919 4.44721 24.9481 4.06688 25.423 3.78516C25.8979 3.49941 26.4674 3.35653 27.1314 3.35653C27.9605 3.35653 28.6387 3.61612 29.1659 4.1353C29.6931 4.65045 29.9567 5.45336 29.9567 6.54403V12.75H28.532V6.54403C28.532 5.85985 28.3449 5.37086 27.9706 5.07706C27.5963 4.78326 27.1556 4.63636 26.6485 4.63636C25.9965 4.63636 25.4914 4.83357 25.1332 5.22798C24.775 5.61837 24.5959 6.1134 24.5959 6.71307V12.75H23.1471V6.39915C23.1471 5.87192 22.976 5.44732 22.6339 5.12535C22.2918 4.79936 21.8511 4.63636 21.3118 4.63636C20.9416 4.63636 20.5955 4.73497 20.2735 4.93217C19.9555 5.12938 19.698 5.40305 19.5008 5.7532C19.3076 6.09931 19.211 6.49976 19.211 6.95455V12.75H17.7863ZM35.2904 12.9673C34.7028 12.9673 34.1695 12.8567 33.6906 12.6353C33.2116 12.4099 32.8313 12.0859 32.5496 11.6634C32.2679 11.2367 32.127 10.7216 32.127 10.1179C32.127 9.58665 32.2316 9.15601 32.4409 8.82599C32.6502 8.49195 32.9299 8.23035 33.2801 8.04119C33.6302 7.85204 34.0166 7.71117 34.4392 7.61861C34.8658 7.52202 35.2944 7.44555 35.725 7.3892C36.2885 7.31676 36.7453 7.26243 37.0954 7.22621C37.4496 7.18596 37.7071 7.11955 37.8681 7.02699C38.0331 6.93442 38.1156 6.77344 38.1156 6.54403V6.49574C38.1156 5.90009 37.9526 5.43726 37.6267 5.10724C37.3047 4.77723 36.8157 4.61222 36.1597 4.61222C35.4795 4.61222 34.9463 4.76113 34.5599 5.05895C34.1735 5.35677 33.9019 5.67472 33.7449 6.01278L32.3926 5.52983C32.6341 4.96638 32.9561 4.5277 33.3585 4.21378C33.765 3.89583 34.2077 3.67448 34.6867 3.54972C35.1696 3.42093 35.6445 3.35653 36.1114 3.35653C36.4092 3.35653 36.7513 3.39276 37.1377 3.4652C37.5281 3.53362 37.9044 3.67649 38.2666 3.89382C38.6328 4.11115 38.9367 4.43916 39.1781 4.87784C39.4196 5.31652 39.5404 5.90412 39.5404 6.64062V12.75H38.1156V11.4943H38.0432C37.9466 11.6955 37.7856 11.9109 37.5602 12.1403C37.3349 12.3697 37.035 12.5649 36.6607 12.7259C36.2865 12.8868 35.8297 12.9673 35.2904 12.9673ZM35.5077 11.6875C36.0711 11.6875 36.546 11.5768 36.9324 11.3555C37.3228 11.1341 37.6166 10.8484 37.8138 10.4982C38.015 10.1481 38.1156 9.77983 38.1156 9.39347V8.08949C38.0553 8.16193 37.9225 8.22834 37.7172 8.28871C37.516 8.34505 37.2825 8.39536 37.0169 8.43963C36.7553 8.47988 36.4998 8.5161 36.2502 8.5483C36.0047 8.57647 35.8055 8.60062 35.6526 8.62074C35.2823 8.66903 34.9362 8.74751 34.6142 8.85618C34.2963 8.96082 34.0387 9.11979 33.8415 9.3331C33.6483 9.54238 33.5517 9.82812 33.5517 10.1903C33.5517 10.6854 33.7348 11.0597 34.1011 11.3132C34.4714 11.5627 34.9402 11.6875 35.5077 11.6875ZM42.1408 12.75V3.47727H43.5655V12.75H42.1408ZM42.8652 1.93182C42.5875 1.93182 42.348 1.83724 42.1468 1.64808C41.9496 1.45893 41.851 1.23153 41.851 0.965909C41.851 0.700284 41.9496 0.472893 42.1468 0.283735C42.348 0.0945784 42.5875 0 42.8652 0C43.1429 0 43.3804 0.0945784 43.5776 0.283735C43.7788 0.472893 43.8794 0.700284 43.8794 0.965909C43.8794 1.23153 43.7788 1.45893 43.5776 1.64808C43.3804 1.83724 43.1429 1.93182 42.8652 1.93182ZM47.5997 0.386363V12.75H46.1749V0.386363H47.5997Z" fill="white"/>
</svg>
