<svg width="42" height="12" viewBox="0 0 42 12" fill="none" xmlns="http://www.w3.org/2000/svg">
<path d="M7.188 4.45204C7.188 3.98804 7.136 3.51604 7.032 3.03604C6.936 2.55604 6.776 2.11204 6.552 1.70404C6.328 1.29604 6.028 0.968042 5.652 0.720042C5.276 0.464042 4.812 0.336042 4.26 0.336042C3.724 0.336042 3.268 0.468042 2.892 0.732042C2.516 0.996042 2.212 1.34004 1.98 1.76404C1.748 2.18004 1.576 2.63204 1.464 3.12004C1.36 3.60004 1.308 4.06404 1.308 4.51204C1.308 4.98404 1.356 5.46004 1.452 5.94004C1.548 6.41204 1.708 6.84804 1.932 7.24804C2.156 7.64004 2.456 7.95604 2.832 8.19604C3.216 8.43604 3.692 8.55604 4.26 8.55604C4.828 8.55604 5.3 8.43204 5.676 8.18404C6.052 7.93604 6.348 7.61204 6.564 7.21204C6.788 6.80404 6.948 6.36004 7.044 5.88004C7.14 5.40004 7.188 4.92404 7.188 4.45204ZM8.496 4.41604C8.496 5.30404 8.332 6.08804 8.004 6.76804C7.684 7.44004 7.208 7.96404 6.576 8.34004C5.952 8.71604 5.18 8.90404 4.26 8.90404C3.364 8.90404 2.596 8.72404 1.956 8.36404C1.324 7.99604 0.840003 7.48404 0.504003 6.82804C0.168003 6.16404 2.95043e-06 5.39204 2.95043e-06 4.51204C2.95043e-06 3.89604 0.100003 3.31604 0.300003 2.77204C0.500003 2.22804 0.788003 1.74804 1.164 1.33204C1.54 0.916042 1.988 0.592042 2.508 0.360041C3.036 0.120042 3.62 4.17233e-05 4.26 4.17233e-05C5.156 4.17233e-05 5.916 0.188042 6.54 0.564042C7.172 0.932042 7.656 1.44804 7.992 2.11204C8.328 2.76804 8.496 3.53604 8.496 4.41604ZM14.7758 5.43604C14.7758 5.16404 14.7598 4.88004 14.7278 4.58404C14.6958 4.28004 14.6278 3.99604 14.5238 3.73204C14.4198 3.46804 14.2638 3.25604 14.0558 3.09604C13.8478 2.92804 13.5638 2.84404 13.2038 2.84404C12.9878 2.84404 12.7558 2.90004 12.5078 3.01204C12.2678 3.11604 12.0558 3.26004 11.8718 3.44404C11.6958 3.62804 11.5958 3.84004 11.5718 4.08004C11.5558 4.32804 11.5478 4.58004 11.5478 4.83604C11.5478 5.09204 11.5478 5.34804 11.5478 5.60404C11.5478 5.82804 11.5478 6.05604 11.5478 6.28804C11.5558 6.51204 11.5638 6.74004 11.5718 6.97204C11.5958 7.38004 11.7278 7.72804 11.9678 8.01604C12.2078 8.29604 12.5478 8.43604 12.9878 8.43604C13.4038 8.43604 13.7318 8.34404 13.9718 8.16004C14.2118 7.96804 14.3878 7.72004 14.4998 7.41604C14.6198 7.11204 14.6958 6.78804 14.7278 6.44404C14.7598 6.09204 14.7758 5.75604 14.7758 5.43604ZM16.0118 5.44804C16.0118 6.07204 15.8998 6.63604 15.6758 7.14004C15.4518 7.64404 15.1158 8.04404 14.6678 8.34004C14.2278 8.62804 13.6758 8.77204 13.0118 8.77204C12.7558 8.77204 12.4918 8.70804 12.2198 8.58004C11.9558 8.44404 11.7318 8.28804 11.5478 8.11204V10.668C11.5478 10.78 11.5918 10.844 11.6798 10.86C11.7758 10.876 11.8638 10.884 11.9438 10.884C12.0158 10.884 12.0878 10.88 12.1598 10.872C12.2318 10.864 12.3038 10.86 12.3758 10.86C12.4798 10.86 12.5318 10.912 12.5318 11.016C12.5318 11.136 12.4718 11.196 12.3518 11.196C12.1038 11.196 11.8558 11.188 11.6078 11.172C11.3598 11.156 11.1118 11.148 10.8638 11.148C10.6558 11.148 10.4478 11.156 10.2398 11.172C10.0398 11.188 9.83575 11.196 9.62775 11.196C9.57175 11.196 9.53575 11.176 9.51975 11.136C9.51175 11.096 9.50775 11.06 9.50775 11.028C9.50775 10.916 9.56375 10.86 9.67575 10.86C9.73975 10.86 9.80375 10.86 9.86775 10.86C9.93175 10.868 9.99575 10.872 10.0598 10.872C10.1158 10.872 10.1958 10.864 10.2998 10.848C10.4118 10.832 10.4678 10.784 10.4678 10.704C10.4678 9.87204 10.4678 9.03604 10.4678 8.19604C10.4758 7.35604 10.4798 6.52004 10.4798 5.68804C10.4798 5.31204 10.4758 4.94004 10.4678 4.57204C10.4678 4.20404 10.4638 3.83604 10.4558 3.46804C10.4478 3.29204 10.4158 3.17204 10.3598 3.10804C10.3038 3.03604 10.1838 3.00004 9.99975 3.00004C9.91975 3.00004 9.83975 3.01204 9.75975 3.03604C9.67975 3.05204 9.59975 3.06004 9.51975 3.06004C9.43175 3.06004 9.38775 3.02004 9.38775 2.94004C9.38775 2.86804 9.42375 2.82004 9.49575 2.79604C9.51175 2.78804 9.58375 2.77204 9.71175 2.74804C9.83975 2.72404 9.99175 2.69604 10.1678 2.66404C10.3518 2.62404 10.5318 2.58804 10.7078 2.55604C10.8838 2.52404 11.0318 2.49604 11.1518 2.47204C11.2718 2.44804 11.3358 2.43604 11.3438 2.43604C11.4078 2.43604 11.4518 2.47604 11.4758 2.55604C11.4918 2.60404 11.4998 2.69204 11.4998 2.82004C11.5078 2.94004 11.5118 3.06404 11.5118 3.19204C11.5118 3.31204 11.5118 3.40404 11.5118 3.46804C11.7358 3.17204 12.0198 2.92804 12.3638 2.73604C12.7158 2.53604 13.0798 2.43604 13.4558 2.43604C14.0078 2.43604 14.4718 2.58404 14.8478 2.88004C15.2318 3.16804 15.5198 3.54404 15.7118 4.00804C15.9118 4.46404 16.0118 4.94404 16.0118 5.44804ZM22.7245 7.40404C22.7245 7.43604 22.7165 7.46404 22.7005 7.48804C22.5245 7.75204 22.2925 7.98804 22.0045 8.19604C21.7165 8.40404 21.4045 8.57204 21.0685 8.70004C20.7405 8.82004 20.4205 8.88004 20.1085 8.88004C20.0525 8.88004 20.0005 8.87604 19.9525 8.86804C19.9045 8.86804 19.8565 8.86804 19.8085 8.86804C19.7285 8.99604 19.6445 9.11604 19.5565 9.22804C19.4765 9.34004 19.3965 9.45604 19.3165 9.57604C19.4445 9.56004 19.5685 9.54804 19.6885 9.54004C19.8165 9.53204 19.9445 9.52804 20.0725 9.52804C20.2245 9.52804 20.3885 9.54004 20.5645 9.56404C20.7485 9.59604 20.9045 9.65604 21.0325 9.74404C21.1685 9.84004 21.2365 9.98404 21.2365 10.176C21.2365 10.384 21.1765 10.548 21.0565 10.668C20.9445 10.788 20.8005 10.876 20.6245 10.932C20.4485 10.996 20.2645 11.036 20.0725 11.052C19.8805 11.068 19.7085 11.076 19.5565 11.076C19.4045 11.076 19.2365 11.048 19.0525 10.992C18.8765 10.944 18.7165 10.884 18.5725 10.812C18.5245 10.788 18.4405 10.74 18.3205 10.668C18.2085 10.596 18.1525 10.532 18.1525 10.476C18.1525 10.412 18.1805 10.38 18.2365 10.38C18.2605 10.38 18.3165 10.396 18.4045 10.428C18.4925 10.468 18.5525 10.496 18.5845 10.512C18.7365 10.56 18.8925 10.592 19.0525 10.608C19.2205 10.632 19.3805 10.644 19.5325 10.644C19.6205 10.644 19.7445 10.628 19.9045 10.596C20.0645 10.572 20.2085 10.528 20.3365 10.464C20.4725 10.4 20.5405 10.308 20.5405 10.188C20.5405 10.084 20.4925 10.004 20.3965 9.94804C20.3085 9.89204 20.2085 9.84804 20.0965 9.81604C19.9845 9.79204 19.8885 9.78004 19.8085 9.78004C19.6405 9.78004 19.4765 9.80004 19.3165 9.84004C19.1645 9.88004 19.0085 9.92804 18.8485 9.98404C18.9365 9.77604 19.0285 9.57604 19.1245 9.38404C19.2285 9.19204 19.3245 8.99604 19.4125 8.79604C18.9165 8.69204 18.4925 8.49604 18.1405 8.20804C17.7885 7.92004 17.5205 7.56404 17.3365 7.14004C17.1525 6.71604 17.0605 6.25604 17.0605 5.76004C17.0605 5.16804 17.1805 4.61204 17.4205 4.09204C17.6605 3.57204 18.0365 3.15204 18.5485 2.83204C18.7725 2.69604 19.0205 2.58804 19.2925 2.50804C19.5645 2.42804 19.8285 2.38804 20.0845 2.38804C20.3885 2.38804 20.6885 2.45204 20.9845 2.58004C21.1205 2.63604 21.2645 2.70004 21.4165 2.77204C21.5685 2.83604 21.7165 2.86804 21.8605 2.86804C21.9245 2.86804 21.9845 2.86004 22.0405 2.84404C22.0965 2.82804 22.1525 2.81604 22.2085 2.80804C22.2245 3.05604 22.2405 3.30804 22.2565 3.56404C22.2725 3.82004 22.2845 4.07604 22.2925 4.33204V4.36804C22.2925 4.46404 22.2805 4.53204 22.2565 4.57204C22.2405 4.60404 22.1765 4.62004 22.0645 4.62004C22.0085 4.62004 21.9725 4.59204 21.9565 4.53604C21.9405 4.48004 21.9245 4.42804 21.9085 4.38004C21.8525 4.14804 21.7645 3.90804 21.6445 3.66004C21.5325 3.40404 21.3845 3.19604 21.2005 3.03604C21.0805 2.92404 20.9325 2.83204 20.7565 2.76004C20.5805 2.68804 20.4125 2.65204 20.2525 2.65204C19.8685 2.65204 19.5445 2.75204 19.2805 2.95204C19.0165 3.14404 18.8005 3.39604 18.6325 3.70804C18.4725 4.01204 18.3565 4.34004 18.2845 4.69204C18.2125 5.04404 18.1765 5.37604 18.1765 5.68804C18.1765 6.00004 18.2125 6.31604 18.2845 6.63604C18.3565 6.95604 18.4685 7.25604 18.6205 7.53604C18.7805 7.80804 18.9885 8.02804 19.2445 8.19604C19.5005 8.36404 19.8125 8.44804 20.1805 8.44804C20.6605 8.44804 21.0645 8.36804 21.3925 8.20804C21.7285 8.04004 22.0525 7.78004 22.3645 7.42804C22.3885 7.41204 22.4045 7.38804 22.4125 7.35604C22.4285 7.32404 22.4525 7.30004 22.4845 7.28404C22.5005 7.26804 22.5325 7.26004 22.5805 7.26004C22.6765 7.26004 22.7245 7.30804 22.7245 7.40404ZM28.605 5.70004C28.605 5.35604 28.577 5.01204 28.521 4.66804C28.473 4.31604 28.377 3.99204 28.233 3.69604C28.097 3.40004 27.897 3.16404 27.633 2.98804C27.369 2.80404 27.025 2.71204 26.601 2.71204C26.201 2.71204 25.873 2.80804 25.617 3.00004C25.369 3.19204 25.173 3.44004 25.029 3.74404C24.893 4.04804 24.797 4.37604 24.741 4.72804C24.693 5.08004 24.669 5.41204 24.669 5.72404C24.669 6.06804 24.693 6.41204 24.741 6.75604C24.797 7.10004 24.897 7.41204 25.041 7.69204C25.185 7.96404 25.389 8.18404 25.653 8.35204C25.925 8.52004 26.273 8.60404 26.697 8.60404C27.113 8.60404 27.445 8.51604 27.693 8.34004C27.949 8.16404 28.141 7.93204 28.269 7.64404C28.405 7.35604 28.493 7.04404 28.533 6.70804C28.581 6.36404 28.605 6.02804 28.605 5.70004ZM29.841 5.73604C29.841 6.33604 29.697 6.87604 29.409 7.35604C29.129 7.83604 28.745 8.21604 28.257 8.49604C27.777 8.77604 27.237 8.91604 26.637 8.91604C26.053 8.91604 25.525 8.77604 25.053 8.49604C24.581 8.20804 24.205 7.82804 23.925 7.35604C23.645 6.87604 23.505 6.34404 23.505 5.76004C23.505 5.16004 23.641 4.60804 23.913 4.10404C24.185 3.59204 24.557 3.18004 25.029 2.86804C25.509 2.55604 26.061 2.40004 26.685 2.40004C27.357 2.40004 27.929 2.54404 28.401 2.83204C28.873 3.11204 29.229 3.50404 29.469 4.00804C29.717 4.50404 29.841 5.08004 29.841 5.73604ZM28.533 0.444042C28.389 0.620042 28.225 0.800042 28.041 0.984042C27.857 1.16004 27.641 1.24804 27.393 1.24804C27.201 1.24804 27.021 1.20404 26.853 1.11604C26.685 1.02804 26.521 0.940042 26.361 0.852041C26.201 0.764042 26.037 0.720042 25.869 0.720042C25.701 0.720042 25.549 0.780042 25.413 0.900042C25.285 1.01204 25.169 1.12404 25.065 1.23604L24.813 1.08004C24.917 0.936041 25.025 0.788041 25.137 0.636041C25.257 0.484041 25.393 0.356041 25.545 0.252041C25.697 0.148042 25.873 0.0960419 26.073 0.0960419C26.257 0.0960419 26.429 0.140042 26.589 0.228042C26.749 0.308042 26.913 0.392041 27.081 0.480041C27.249 0.568042 27.429 0.612042 27.621 0.612042C27.773 0.612042 27.897 0.572042 27.993 0.492042C28.097 0.404042 28.201 0.308041 28.305 0.204041L28.533 0.444042ZM35.2904 4.65604C35.2824 4.32804 35.2544 4.01604 35.2064 3.72004C35.1584 3.41604 35.0424 3.16804 34.8584 2.97604C34.6744 2.77604 34.3744 2.67604 33.9584 2.67604C33.5824 2.67604 33.2744 2.78004 33.0344 2.98804C32.8024 3.18804 32.6224 3.44404 32.4944 3.75604C32.3664 4.06004 32.2704 4.37204 32.2064 4.69204C32.4064 4.70004 32.6024 4.70804 32.7944 4.71604C32.9864 4.71604 33.1784 4.71604 33.3704 4.71604C33.6904 4.71604 34.0104 4.71204 34.3304 4.70404C34.6504 4.68804 34.9704 4.67204 35.2904 4.65604ZM36.6704 7.40404C36.6704 7.44404 36.6624 7.46804 36.6464 7.47604C36.6224 7.55604 36.5624 7.65204 36.4664 7.76404C36.3784 7.87604 36.2784 7.98404 36.1664 8.08804C36.0544 8.18404 35.9624 8.25604 35.8904 8.30404C35.6264 8.48804 35.3264 8.63604 34.9904 8.74804C34.6624 8.86004 34.3344 8.91604 34.0064 8.91604C33.7344 8.91604 33.4304 8.87204 33.0944 8.78404C32.7664 8.69604 32.4864 8.57604 32.2544 8.42404C31.8064 8.12804 31.4784 7.74004 31.2704 7.26004C31.0624 6.78004 30.9584 6.28004 30.9584 5.76004C30.9584 5.16804 31.0744 4.62004 31.3064 4.11604C31.5384 3.61204 31.9104 3.20404 32.4224 2.89204C32.6544 2.75604 32.9144 2.64404 33.2024 2.55604C33.4904 2.46004 33.7664 2.41204 34.0304 2.41204C34.5024 2.41204 34.9184 2.50804 35.2784 2.70004C35.6384 2.89204 35.9184 3.16404 36.1184 3.51604C36.3264 3.86004 36.4304 4.27204 36.4304 4.75204C36.4304 4.88804 36.3984 4.97604 36.3344 5.01604C36.2784 5.05604 36.1904 5.07604 36.0704 5.07604C35.9104 5.07604 35.7504 5.07204 35.5904 5.06404C35.4304 5.05604 35.2704 5.04804 35.1104 5.04004C34.8864 5.02404 34.6624 5.01604 34.4384 5.01604C34.2224 5.01604 34.0024 5.01604 33.7784 5.01604C33.5064 5.01604 33.2344 5.01604 32.9624 5.01604C32.6904 5.01604 32.4184 5.02404 32.1464 5.04004C32.1384 5.16804 32.1304 5.29204 32.1224 5.41204C32.1144 5.53204 32.1104 5.65604 32.1104 5.78404C32.1104 6.08004 32.1464 6.38804 32.2184 6.70804C32.2904 7.02004 32.4064 7.31204 32.5664 7.58404C32.7264 7.84804 32.9304 8.06404 33.1784 8.23204C33.4264 8.39204 33.7264 8.47204 34.0784 8.47204C34.4384 8.47204 34.7824 8.41604 35.1104 8.30404C35.4384 8.19204 35.7384 8.01204 36.0104 7.76404C36.0824 7.69204 36.1464 7.61604 36.2024 7.53604C36.2664 7.44804 36.3344 7.37204 36.4064 7.30804C36.4464 7.26804 36.4904 7.24804 36.5384 7.24804C36.5784 7.24804 36.6104 7.26404 36.6344 7.29604C36.6584 7.32804 36.6704 7.36404 36.6704 7.40404ZM41.9015 7.15204C41.9015 7.51204 41.8215 7.80804 41.6615 8.04004C41.5015 8.26404 41.2935 8.43604 41.0375 8.55604C40.7815 8.67604 40.5015 8.76004 40.1975 8.80804C39.8935 8.85604 39.5975 8.88004 39.3095 8.88004C39.0455 8.88004 38.7815 8.85204 38.5175 8.79604C38.2615 8.74004 38.0015 8.70004 37.7375 8.67604C37.6815 8.46004 37.6255 8.24404 37.5695 8.02804C37.5215 7.81204 37.4655 7.60004 37.4015 7.39204C37.3935 7.36804 37.3735 7.31204 37.3415 7.22404C37.3175 7.13604 37.3055 7.08804 37.3055 7.08004C37.3055 7.01604 37.3255 6.97204 37.3655 6.94804C37.4055 6.91604 37.4535 6.90004 37.5095 6.90004C37.5655 6.90004 37.6055 6.92004 37.6295 6.96004C37.6775 7.01604 37.7175 7.09204 37.7495 7.18804C37.7895 7.28404 37.8255 7.36804 37.8575 7.44004C37.9215 7.56804 37.9775 7.66804 38.0255 7.74004C38.0735 7.80404 38.1495 7.88804 38.2535 7.99204C38.5655 8.32004 38.9535 8.48404 39.4175 8.48404C39.6735 8.48404 39.9055 8.45604 40.1135 8.40004C40.3295 8.34404 40.5015 8.24004 40.6295 8.08804C40.7575 7.92804 40.8215 7.70004 40.8215 7.40404C40.8215 7.14804 40.7415 6.93604 40.5815 6.76804C40.4215 6.59204 40.2135 6.43604 39.9575 6.30004C39.7095 6.16404 39.4455 6.03204 39.1655 5.90404C38.8855 5.77604 38.6175 5.63604 38.3615 5.48404C38.1135 5.32404 37.9095 5.13204 37.7495 4.90804C37.5895 4.68404 37.5095 4.41204 37.5095 4.09204C37.5095 3.70004 37.6095 3.38004 37.8095 3.13204C38.0175 2.88404 38.2815 2.70004 38.6015 2.58004C38.9215 2.45204 39.2535 2.38804 39.5975 2.38804C39.8215 2.38804 40.0215 2.41604 40.1975 2.47204C40.3815 2.52804 40.5735 2.59204 40.7735 2.66404C40.8375 2.68804 40.9015 2.70404 40.9655 2.71204C41.0295 2.72004 41.0935 2.72404 41.1575 2.72404C41.1975 2.72404 41.2335 2.72404 41.2655 2.72404C41.2975 2.72404 41.3295 2.72004 41.3615 2.71204C41.3855 2.85604 41.4055 3.00404 41.4215 3.15604C41.4455 3.30004 41.4655 3.44804 41.4815 3.60004C41.4895 3.65604 41.4975 3.72404 41.5055 3.80404C41.5215 3.87604 41.5295 3.94404 41.5295 4.00804C41.5295 4.06404 41.5175 4.12404 41.4935 4.18804C41.4695 4.24404 41.4215 4.27204 41.3495 4.27204C41.2935 4.27204 41.2455 4.26804 41.2055 4.26004C41.1735 4.24404 41.1455 4.20804 41.1215 4.15204C41.0815 4.07204 41.0455 3.98804 41.0135 3.90004C40.9895 3.80404 40.9615 3.71604 40.9295 3.63604C40.8255 3.35604 40.6455 3.13204 40.3895 2.96404C40.1335 2.78804 39.8575 2.70004 39.5615 2.70004C39.1855 2.70004 38.9015 2.81204 38.7095 3.03604C38.5175 3.25204 38.4215 3.54404 38.4215 3.91204C38.4215 4.04004 38.4535 4.16404 38.5175 4.28404C38.5895 4.40404 38.6695 4.50804 38.7575 4.59604C38.9255 4.75604 39.1215 4.88004 39.3455 4.96804C39.5775 5.05604 39.7975 5.14404 40.0055 5.23204C40.2775 5.35204 40.5575 5.49604 40.8455 5.66404C41.1415 5.83204 41.3895 6.03604 41.5895 6.27604C41.7975 6.51604 41.9015 6.80804 41.9015 7.15204Z" fill="#8A7268"/>
</svg>
