<svg width="209" height="14" viewBox="0 0 209 14" fill="none" xmlns="http://www.w3.org/2000/svg">
<path d="M8.88999 5.54398C8.88999 5.15198 8.84799 4.74132 8.76399 4.31198C8.68933 3.87332 8.56799 3.45332 8.39999 3.05198C8.23199 2.65065 8.00799 2.30998 7.72799 2.02998C7.46666 1.76865 7.15866 1.54932 6.80399 1.37198C6.45866 1.18532 6.09933 1.07332 5.72599 1.03598C5.61399 1.01732 5.49733 1.00798 5.37599 1.00798C5.26399 1.00798 5.15199 1.00798 5.03999 1.00798C4.67599 1.00798 4.31199 1.01265 3.94799 1.02198C3.59333 1.03132 3.23399 1.04065 2.86999 1.04998V9.65998C2.86999 9.93998 2.96333 10.122 3.14999 10.206C3.33666 10.29 3.54666 10.332 3.77999 10.332C4.15333 10.332 4.53599 10.318 4.92799 10.29C5.32933 10.262 5.71666 10.1967 6.08999 10.094C6.47266 9.98198 6.82266 9.80932 7.13999 9.57598C7.78399 9.09998 8.23666 8.50265 8.49799 7.78398C8.75933 7.05598 8.88999 6.30932 8.88999 5.54398ZM10.444 5.33398C10.444 6.25798 10.248 7.13532 9.85599 7.96598C9.47333 8.79665 8.88066 9.45932 8.07799 9.95398C7.75133 10.15 7.37333 10.3133 6.94399 10.444C6.52399 10.5653 6.09466 10.654 5.65599 10.71C5.21733 10.766 4.80666 10.794 4.42399 10.794C4.08799 10.794 3.74733 10.7847 3.40199 10.766C3.06599 10.7473 2.72533 10.738 2.37999 10.738C2.10933 10.738 1.83399 10.7427 1.55399 10.752C1.27399 10.752 0.998661 10.7613 0.727994 10.78C0.681328 10.7893 0.634661 10.794 0.587994 10.794C0.541327 10.794 0.494661 10.794 0.447994 10.794C0.391994 10.794 0.359328 10.7707 0.349994 10.724C0.340661 10.6773 0.335994 10.6353 0.335994 10.598C0.335994 10.5327 0.382661 10.486 0.475994 10.458C0.578661 10.43 0.685994 10.4067 0.797994 10.388C0.919328 10.3693 1.00333 10.346 1.04999 10.318C1.20866 10.234 1.31133 10.1127 1.35799 9.95398C1.41399 9.78598 1.44199 9.61798 1.44199 9.44998C1.44199 8.93665 1.44199 8.42798 1.44199 7.92398C1.45133 7.41065 1.45599 6.89732 1.45599 6.38398V5.09598C1.45599 4.58265 1.45599 4.07398 1.45599 3.56998C1.45599 3.06598 1.45599 2.55732 1.45599 2.04398C1.45599 1.68932 1.41399 1.43732 1.32999 1.28798C1.24599 1.13865 1.01266 1.06398 0.629994 1.06398C0.564661 1.06398 0.499328 1.06865 0.433994 1.07798C0.377994 1.07798 0.317327 1.07798 0.251994 1.07798C0.186661 1.07798 0.125994 1.05932 0.0699942 1.02198C0.0233275 0.975316 -5.84498e-06 0.919316 -5.84498e-06 0.853983C-5.84498e-06 0.704649 0.0746608 0.629983 0.223994 0.629983C0.438661 0.629983 0.653328 0.639316 0.867994 0.657983C1.08266 0.667316 1.29266 0.671983 1.49799 0.671983C2.18866 0.671983 2.87933 0.653316 3.56999 0.615983C4.26999 0.569316 4.96533 0.545983 5.65599 0.545983C6.65466 0.545983 7.50866 0.737316 8.21799 1.11998C8.93666 1.50265 9.48733 2.05332 9.86999 2.77198C10.2527 3.48132 10.444 4.33532 10.444 5.33398ZM15.53 10.598C15.53 10.6447 15.516 10.6913 15.488 10.738C15.46 10.7753 15.4227 10.794 15.376 10.794C15.1147 10.794 14.8534 10.7893 14.592 10.78C14.34 10.7613 14.0787 10.752 13.808 10.752H13.43C13.15 10.752 12.87 10.7613 12.59 10.78C12.3194 10.7893 12.0487 10.794 11.778 10.794C11.7407 10.794 11.7127 10.7707 11.694 10.724C11.6847 10.6773 11.68 10.64 11.68 10.612C11.68 10.5653 11.6847 10.5327 11.694 10.514C11.7034 10.486 11.7314 10.4673 11.778 10.458C11.8247 10.4393 11.876 10.4347 11.932 10.444C11.9974 10.444 12.058 10.444 12.114 10.444C12.1794 10.444 12.24 10.4487 12.296 10.458C12.352 10.458 12.4127 10.458 12.478 10.458C12.6087 10.458 12.7254 10.43 12.828 10.374C12.94 10.3087 12.996 10.2013 12.996 10.052V4.45198C12.996 4.29332 12.968 4.17198 12.912 4.08798C12.856 3.99465 12.7394 3.94798 12.562 3.94798C12.4314 3.94798 12.296 3.95732 12.156 3.97598C12.0254 3.98532 11.8947 3.99932 11.764 4.01798C11.6894 4.01798 11.652 3.97598 11.652 3.89198C11.652 3.79865 11.6894 3.73798 11.764 3.70998C11.876 3.67265 11.9927 3.64932 12.114 3.63998C12.2447 3.62132 12.366 3.60265 12.478 3.58398C12.7394 3.53732 13.0007 3.48598 13.262 3.42998C13.5234 3.37398 13.78 3.31332 14.032 3.24798C14.06 3.23865 14.0974 3.23398 14.144 3.23398C14.2467 3.23398 14.298 3.28998 14.298 3.40198C14.298 4.50332 14.2934 5.60932 14.284 6.71998C14.284 7.83065 14.284 8.94132 14.284 10.052C14.284 10.2013 14.3494 10.3087 14.48 10.374C14.62 10.43 14.7507 10.458 14.872 10.458C14.9654 10.458 15.0587 10.4533 15.152 10.444C15.2547 10.4347 15.3527 10.43 15.446 10.43C15.4834 10.43 15.5067 10.4533 15.516 10.5C15.5254 10.5467 15.53 10.5793 15.53 10.598ZM14.396 0.909983C14.396 1.14332 14.312 1.34398 14.144 1.51198C13.976 1.67065 13.7754 1.74998 13.542 1.74998C13.3087 1.74998 13.108 1.67065 12.94 1.51198C12.772 1.34398 12.688 1.14332 12.688 0.909983C12.688 0.676649 12.772 0.48065 12.94 0.321983C13.108 0.153983 13.3087 0.0699831 13.542 0.0699831C13.7754 0.0699831 13.976 0.153983 14.144 0.321983C14.312 0.48065 14.396 0.676649 14.396 0.909983ZM21.6865 11.256C21.6865 10.8827 21.5792 10.6167 21.3645 10.458C21.1592 10.29 20.9072 10.1827 20.6085 10.136C20.3099 10.08 20.0205 10.038 19.7405 10.01L18.1725 9.85598C17.9672 10.08 17.8132 10.304 17.7105 10.528C17.6172 10.7427 17.5705 11.004 17.5705 11.312C17.5705 11.76 17.6779 12.082 17.8925 12.278C18.1165 12.4833 18.3965 12.614 18.7325 12.67C19.0685 12.726 19.4092 12.754 19.7545 12.754C20.0905 12.754 20.4032 12.7073 20.6925 12.614C20.9912 12.5207 21.2292 12.362 21.4065 12.138C21.5932 11.9233 21.6865 11.6293 21.6865 11.256ZM21.0005 5.65598C21.0005 5.36665 20.9679 5.05865 20.9025 4.73198C20.8372 4.40532 20.7065 4.12532 20.5105 3.89198C20.3239 3.65865 20.0485 3.54198 19.6845 3.54198C19.2739 3.54198 18.9565 3.64932 18.7325 3.86398C18.5085 4.06932 18.3545 4.33532 18.2705 4.66198C18.1959 4.97932 18.1585 5.31065 18.1585 5.65598C18.1585 6.01998 18.1912 6.36532 18.2565 6.69198C18.3312 7.00932 18.4759 7.27065 18.6905 7.47598C18.9145 7.68132 19.2459 7.78398 19.6845 7.78398C19.9552 7.78398 20.1745 7.71398 20.3425 7.57398C20.5199 7.43398 20.6552 7.25665 20.7485 7.04198C20.8419 6.81798 20.9072 6.58465 20.9445 6.34198C20.9819 6.09932 21.0005 5.87065 21.0005 5.65598ZM23.4925 3.35998C23.4925 3.55598 23.4505 3.69132 23.3665 3.76598C23.2919 3.83132 23.1892 3.86865 23.0585 3.87798C22.9372 3.87798 22.8065 3.87798 22.6665 3.87798C22.4612 3.87798 22.2512 3.87798 22.0365 3.87798C21.8312 3.86865 21.6212 3.85932 21.4065 3.84998C21.7052 4.08332 21.9245 4.36332 22.0645 4.68998C22.2139 5.01665 22.2885 5.36665 22.2885 5.73998C22.2885 6.19732 22.1579 6.60332 21.8965 6.95798C21.6445 7.30332 21.3179 7.57398 20.9165 7.76998C20.5152 7.96598 20.0999 8.06398 19.6705 8.06398C19.5212 8.06398 19.3765 8.05932 19.2365 8.04998C19.0965 8.03132 18.9519 8.01732 18.8025 8.00798C18.6812 8.11998 18.5412 8.24132 18.3825 8.37198C18.2332 8.50265 18.1585 8.66132 18.1585 8.84798C18.1585 8.99732 18.2285 9.10932 18.3685 9.18398C18.5179 9.24932 18.6812 9.29598 18.8585 9.32398C19.0359 9.35198 19.1759 9.37065 19.2785 9.37998L21.0565 9.50598C21.3739 9.53398 21.6819 9.60398 21.9805 9.71598C22.2885 9.81865 22.5452 9.98198 22.7505 10.206C22.9559 10.4207 23.0585 10.7147 23.0585 11.088C23.0585 11.48 22.9419 11.8067 22.7085 12.068C22.4845 12.3293 22.1905 12.5393 21.8265 12.698C21.4719 12.8567 21.1032 12.9687 20.7205 13.034C20.3379 13.0993 19.9925 13.132 19.6845 13.132C19.4419 13.132 19.1385 13.118 18.7745 13.09C18.4105 13.0713 18.0512 13.0153 17.6965 12.922C17.3419 12.8287 17.0432 12.6793 16.8005 12.474C16.5672 12.278 16.4505 12.0073 16.4505 11.662C16.4505 11.41 16.5112 11.172 16.6325 10.948C16.7539 10.7333 16.9032 10.5327 17.0805 10.346C17.2672 10.1593 17.4492 9.99598 17.6265 9.85598C17.5239 9.80932 17.3839 9.73932 17.2065 9.64598C17.0385 9.54332 16.9545 9.42665 16.9545 9.29598C16.9545 9.13732 17.0385 8.95998 17.2065 8.76398C17.3839 8.56798 17.5752 8.38132 17.7805 8.20398C17.9859 8.01732 18.1445 7.87265 18.2565 7.76998C17.7805 7.54598 17.4259 7.26132 17.1925 6.91598C16.9685 6.56132 16.8565 6.12265 16.8565 5.59998C16.8565 5.11465 16.9919 4.69932 17.2625 4.35398C17.5425 3.99932 17.8925 3.72865 18.3125 3.54198C18.7419 3.34598 19.1759 3.24798 19.6145 3.24798C19.7732 3.24798 19.9319 3.26198 20.0905 3.28998C20.2492 3.30865 20.4032 3.34132 20.5525 3.38798C20.6272 3.40665 20.7065 3.43465 20.7905 3.47198C20.8839 3.49998 20.9679 3.51865 21.0425 3.52798C21.1079 3.53732 21.1685 3.54198 21.2245 3.54198C21.2899 3.54198 21.3552 3.54198 21.4205 3.54198C21.7565 3.54198 22.0785 3.51865 22.3865 3.47198C22.6945 3.41598 22.9699 3.25732 23.2125 2.99598C23.2685 2.93998 23.3152 2.91198 23.3525 2.91198C23.4272 2.91198 23.4692 2.97732 23.4785 3.10798C23.4879 3.22932 23.4925 3.31332 23.4925 3.35998ZM28.0672 10.598C28.0672 10.6447 28.0532 10.6913 28.0252 10.738C27.9972 10.7753 27.9598 10.794 27.9132 10.794C27.6518 10.794 27.3905 10.7893 27.1292 10.78C26.8772 10.7613 26.6158 10.752 26.3452 10.752H25.9672C25.6872 10.752 25.4072 10.7613 25.1272 10.78C24.8565 10.7893 24.5858 10.794 24.3152 10.794C24.2778 10.794 24.2498 10.7707 24.2312 10.724C24.2218 10.6773 24.2172 10.64 24.2172 10.612C24.2172 10.5653 24.2218 10.5327 24.2312 10.514C24.2405 10.486 24.2685 10.4673 24.3152 10.458C24.3618 10.4393 24.4132 10.4347 24.4692 10.444C24.5345 10.444 24.5952 10.444 24.6512 10.444C24.7165 10.444 24.7772 10.4487 24.8332 10.458C24.8892 10.458 24.9498 10.458 25.0152 10.458C25.1458 10.458 25.2625 10.43 25.3652 10.374C25.4772 10.3087 25.5332 10.2013 25.5332 10.052V4.45198C25.5332 4.29332 25.5052 4.17198 25.4492 4.08798C25.3932 3.99465 25.2765 3.94798 25.0992 3.94798C24.9685 3.94798 24.8332 3.95732 24.6932 3.97598C24.5625 3.98532 24.4318 3.99932 24.3012 4.01798C24.2265 4.01798 24.1892 3.97598 24.1892 3.89198C24.1892 3.79865 24.2265 3.73798 24.3012 3.70998C24.4132 3.67265 24.5298 3.64932 24.6512 3.63998C24.7818 3.62132 24.9032 3.60265 25.0152 3.58398C25.2765 3.53732 25.5378 3.48598 25.7992 3.42998C26.0605 3.37398 26.3172 3.31332 26.5692 3.24798C26.5972 3.23865 26.6345 3.23398 26.6812 3.23398C26.7838 3.23398 26.8352 3.28998 26.8352 3.40198C26.8352 4.50332 26.8305 5.60932 26.8212 6.71998C26.8212 7.83065 26.8212 8.94132 26.8212 10.052C26.8212 10.2013 26.8865 10.3087 27.0172 10.374C27.1572 10.43 27.2878 10.458 27.4092 10.458C27.5025 10.458 27.5958 10.4533 27.6892 10.444C27.7918 10.4347 27.8898 10.43 27.9832 10.43C28.0205 10.43 28.0438 10.4533 28.0532 10.5C28.0625 10.5467 28.0672 10.5793 28.0672 10.598ZM26.9332 0.909983C26.9332 1.14332 26.8492 1.34398 26.6812 1.51198C26.5132 1.67065 26.3125 1.74998 26.0792 1.74998C25.8458 1.74998 25.6452 1.67065 25.4772 1.51198C25.3092 1.34398 25.2252 1.14332 25.2252 0.909983C25.2252 0.676649 25.3092 0.48065 25.4772 0.321983C25.6452 0.153983 25.8458 0.0699831 26.0792 0.0699831C26.3125 0.0699831 26.5132 0.153983 26.6812 0.321983C26.8492 0.48065 26.9332 0.676649 26.9332 0.909983ZM33.5377 10.164C33.5377 10.248 33.4723 10.332 33.3417 10.416C33.2203 10.5 33.071 10.5747 32.8937 10.64C32.7163 10.7053 32.5437 10.7567 32.3757 10.794C32.217 10.8313 32.1003 10.85 32.0257 10.85C31.5403 10.85 31.1623 10.7893 30.8917 10.668C30.6303 10.5467 30.4437 10.346 30.3317 10.066C30.229 9.78598 30.1777 9.40798 30.1777 8.93198C30.1777 8.15732 30.1777 7.38265 30.1777 6.60798C30.187 5.82398 30.1963 5.04465 30.2057 4.26998H29.1977C29.1323 4.26998 29.0763 4.28865 29.0297 4.32598C28.9923 4.35398 28.9503 4.36798 28.9037 4.36798C28.857 4.36798 28.8337 4.33532 28.8337 4.26998C28.8337 4.23265 28.857 4.15798 28.9037 4.04598C28.9597 3.93398 28.997 3.85932 29.0157 3.82198C29.0437 3.83132 29.0857 3.83598 29.1417 3.83598H30.2337L30.2477 2.05798C30.4623 1.91798 30.6583 1.76398 30.8357 1.59598C31.013 1.41865 31.1903 1.24132 31.3677 1.06398C31.3863 1.04532 31.405 1.03132 31.4237 1.02198C31.4423 1.00332 31.461 0.993983 31.4797 0.993983C31.5637 0.993983 31.6057 1.02665 31.6057 1.09198L31.5217 3.82198C31.8203 3.82198 32.1143 3.81732 32.4037 3.80798C32.7023 3.79865 32.9963 3.79398 33.2857 3.79398C33.407 3.79398 33.4677 3.86398 33.4677 4.00398C33.4677 4.18132 33.3883 4.26998 33.2297 4.26998H31.5217C31.5217 4.97932 31.517 5.69332 31.5077 6.41198C31.5077 7.12132 31.5077 7.83532 31.5077 8.55398V9.63198C31.5077 9.86532 31.6057 10.0287 31.8017 10.122C31.9977 10.206 32.189 10.248 32.3757 10.248C32.637 10.248 32.8937 10.206 33.1457 10.122C33.1737 10.1033 33.2157 10.0847 33.2717 10.066C33.3277 10.0473 33.3697 10.038 33.3977 10.038C33.491 10.038 33.5377 10.08 33.5377 10.164ZM39.3626 5.89398C39.3533 5.51132 39.3206 5.14732 39.2646 4.80198C39.2086 4.44732 39.0733 4.15798 38.8586 3.93398C38.644 3.70065 38.294 3.58398 37.8086 3.58398C37.37 3.58398 37.0106 3.70532 36.7306 3.94798C36.46 4.18132 36.25 4.47998 36.1006 4.84398C35.9513 5.19865 35.8393 5.56265 35.7646 5.93598C35.998 5.94532 36.2266 5.95465 36.4506 5.96398C36.6746 5.96398 36.8986 5.96398 37.1226 5.96398C37.496 5.96398 37.8693 5.95932 38.2426 5.94998C38.616 5.93132 38.9893 5.91265 39.3626 5.89398ZM40.9726 9.09998C40.9726 9.14665 40.9633 9.17465 40.9446 9.18398C40.9166 9.27732 40.8466 9.38932 40.7346 9.51998C40.632 9.65065 40.5153 9.77665 40.3846 9.89798C40.254 10.01 40.1466 10.094 40.0626 10.15C39.7546 10.3647 39.4046 10.5373 39.0126 10.668C38.63 10.7987 38.2473 10.864 37.8646 10.864C37.5473 10.864 37.1926 10.8127 36.8006 10.71C36.418 10.6073 36.0913 10.4673 35.8206 10.29C35.298 9.94465 34.9153 9.49198 34.6726 8.93198C34.43 8.37198 34.3086 7.78865 34.3086 7.18198C34.3086 6.49132 34.444 5.85198 34.7146 5.26398C34.9853 4.67598 35.4193 4.19998 36.0166 3.83598C36.2873 3.67732 36.5906 3.54665 36.9266 3.44398C37.2626 3.33198 37.5846 3.27598 37.8926 3.27598C38.4433 3.27598 38.9286 3.38798 39.3486 3.61198C39.7686 3.83598 40.0953 4.15332 40.3286 4.56398C40.5713 4.96532 40.6926 5.44598 40.6926 6.00598C40.6926 6.16465 40.6553 6.26732 40.5806 6.31398C40.5153 6.36065 40.4126 6.38398 40.2726 6.38398C40.086 6.38398 39.8993 6.37932 39.7126 6.36998C39.526 6.36065 39.3393 6.35132 39.1526 6.34198C38.8913 6.32332 38.63 6.31398 38.3686 6.31398C38.1166 6.31398 37.86 6.31398 37.5986 6.31398C37.2813 6.31398 36.964 6.31398 36.6466 6.31398C36.3293 6.31398 36.012 6.32332 35.6946 6.34198C35.6853 6.49132 35.676 6.63598 35.6666 6.77598C35.6573 6.91598 35.6526 7.06065 35.6526 7.20998C35.6526 7.55532 35.6946 7.91465 35.7786 8.28798C35.8626 8.65198 35.998 8.99265 36.1846 9.30998C36.3713 9.61798 36.6093 9.86998 36.8986 10.066C37.188 10.2527 37.538 10.346 37.9486 10.346C38.3686 10.346 38.77 10.2807 39.1526 10.15C39.5353 10.0193 39.8853 9.80932 40.2026 9.51998C40.2866 9.43598 40.3613 9.34732 40.4266 9.25398C40.5013 9.15132 40.5806 9.06265 40.6646 8.98798C40.7113 8.94132 40.7626 8.91798 40.8186 8.91798C40.8653 8.91798 40.9026 8.93665 40.9306 8.97398C40.9586 9.01132 40.9726 9.05332 40.9726 9.09998ZM51.3735 7.11198C51.3735 6.71065 51.3409 6.30932 51.2755 5.90798C51.2195 5.49732 51.1075 5.11932 50.9395 4.77398C50.7809 4.42865 50.5475 4.15332 50.2395 3.94798C49.9315 3.73332 49.5302 3.62598 49.0355 3.62598C48.5689 3.62598 48.1862 3.73798 47.8875 3.96198C47.5982 4.18598 47.3695 4.47532 47.2015 4.82998C47.0429 5.18465 46.9309 5.56732 46.8655 5.97798C46.8095 6.38865 46.7815 6.77598 46.7815 7.13998C46.7815 7.54132 46.8095 7.94265 46.8655 8.34398C46.9309 8.74532 47.0475 9.10932 47.2155 9.43598C47.3835 9.75332 47.6215 10.01 47.9295 10.206C48.2469 10.402 48.6529 10.5 49.1475 10.5C49.6329 10.5 50.0202 10.3973 50.3095 10.192C50.6082 9.98665 50.8322 9.71598 50.9815 9.37998C51.1402 9.04398 51.2429 8.67998 51.2895 8.28798C51.3455 7.88665 51.3735 7.49465 51.3735 7.11198ZM52.8155 7.15398C52.8155 7.85398 52.6475 8.48398 52.3115 9.04398C51.9849 9.60398 51.5369 10.0473 50.9675 10.374C50.4075 10.7007 49.7775 10.864 49.0775 10.864C48.3962 10.864 47.7802 10.7007 47.2295 10.374C46.6789 10.038 46.2402 9.59465 45.9135 9.04398C45.5869 8.48398 45.4235 7.86332 45.4235 7.18198C45.4235 6.48198 45.5822 5.83798 45.8995 5.24998C46.2169 4.65265 46.6509 4.17198 47.2015 3.80798C47.7615 3.44398 48.4055 3.26198 49.1335 3.26198C49.9175 3.26198 50.5849 3.42998 51.1355 3.76598C51.6862 4.09265 52.1015 4.54998 52.3815 5.13798C52.6709 5.71665 52.8155 6.38865 52.8155 7.15398ZM62.7572 8.80598C62.7572 9.22598 62.6638 9.57132 62.4772 9.84198C62.2905 10.1033 62.0478 10.304 61.7492 10.444C61.4505 10.584 61.1238 10.682 60.7692 10.738C60.4145 10.794 60.0692 10.822 59.7332 10.822C59.4252 10.822 59.1172 10.7893 58.8092 10.724C58.5105 10.6587 58.2072 10.612 57.8992 10.584C57.8338 10.332 57.7685 10.08 57.7032 9.82798C57.6472 9.57598 57.5818 9.32865 57.5072 9.08598C57.4978 9.05798 57.4745 8.99265 57.4372 8.88998C57.4092 8.78732 57.3952 8.73132 57.3952 8.72198C57.3952 8.64732 57.4185 8.59598 57.4652 8.56798C57.5118 8.53065 57.5678 8.51198 57.6332 8.51198C57.6985 8.51198 57.7452 8.53532 57.7732 8.58198C57.8292 8.64732 57.8758 8.73598 57.9132 8.84798C57.9598 8.95998 58.0018 9.05798 58.0392 9.14198C58.1138 9.29132 58.1792 9.40798 58.2352 9.49198C58.2912 9.56665 58.3798 9.66465 58.5012 9.78598C58.8652 10.1687 59.3178 10.36 59.8592 10.36C60.1578 10.36 60.4285 10.3273 60.6712 10.262C60.9232 10.1967 61.1238 10.0753 61.2732 9.89798C61.4225 9.71132 61.4972 9.44532 61.4972 9.09998C61.4972 8.80132 61.4038 8.55398 61.2172 8.35798C61.0305 8.15265 60.7878 7.97065 60.4892 7.81198C60.1998 7.65332 59.8918 7.49932 59.5652 7.34998C59.2385 7.20065 58.9258 7.03732 58.6272 6.85998C58.3378 6.67332 58.0998 6.44932 57.9132 6.18798C57.7265 5.92665 57.6332 5.60932 57.6332 5.23598C57.6332 4.77865 57.7498 4.40532 57.9832 4.11598C58.2258 3.82665 58.5338 3.61198 58.9072 3.47198C59.2805 3.32265 59.6678 3.24798 60.0692 3.24798C60.3305 3.24798 60.5638 3.28065 60.7692 3.34598C60.9838 3.41132 61.2078 3.48598 61.4412 3.56998C61.5158 3.59798 61.5905 3.61665 61.6652 3.62598C61.7398 3.63532 61.8145 3.63998 61.8892 3.63998C61.9358 3.63998 61.9778 3.63998 62.0152 3.63998C62.0525 3.63998 62.0898 3.63532 62.1272 3.62598C62.1552 3.79398 62.1785 3.96665 62.1972 4.14398C62.2252 4.31198 62.2485 4.48465 62.2672 4.66198C62.2765 4.72732 62.2858 4.80665 62.2952 4.89998C62.3138 4.98398 62.3232 5.06332 62.3232 5.13798C62.3232 5.20332 62.3092 5.27332 62.2812 5.34798C62.2532 5.41332 62.1972 5.44598 62.1132 5.44598C62.0478 5.44598 61.9918 5.44132 61.9452 5.43198C61.9078 5.41332 61.8752 5.37132 61.8472 5.30598C61.8005 5.21265 61.7585 5.11465 61.7212 5.01198C61.6932 4.89998 61.6605 4.79732 61.6232 4.70398C61.5018 4.37732 61.2918 4.11598 60.9932 3.91998C60.6945 3.71465 60.3725 3.61198 60.0272 3.61198C59.5885 3.61198 59.2572 3.74265 59.0332 4.00398C58.8092 4.25598 58.6972 4.59665 58.6972 5.02598C58.6972 5.17532 58.7345 5.31998 58.8092 5.45998C58.8932 5.59998 58.9865 5.72132 59.0892 5.82398C59.2852 6.01065 59.5138 6.15532 59.7752 6.25798C60.0458 6.36065 60.3025 6.46332 60.5452 6.56598C60.8625 6.70598 61.1892 6.87398 61.5252 7.06998C61.8705 7.26598 62.1598 7.50398 62.3932 7.78398C62.6358 8.06398 62.7572 8.40465 62.7572 8.80598ZM68.9212 5.89398C68.9119 5.51132 68.8792 5.14732 68.8232 4.80198C68.7672 4.44732 68.6319 4.15798 68.4172 3.93398C68.2026 3.70065 67.8526 3.58398 67.3672 3.58398C66.9286 3.58398 66.5692 3.70532 66.2892 3.94798C66.0186 4.18132 65.8086 4.47998 65.6592 4.84398C65.5099 5.19865 65.3979 5.56265 65.3232 5.93598C65.5566 5.94532 65.7852 5.95465 66.0092 5.96398C66.2332 5.96398 66.4572 5.96398 66.6812 5.96398C67.0546 5.96398 67.4279 5.95932 67.8012 5.94998C68.1746 5.93132 68.5479 5.91265 68.9212 5.89398ZM70.5312 9.09998C70.5312 9.14665 70.5219 9.17465 70.5032 9.18398C70.4752 9.27732 70.4052 9.38932 70.2932 9.51998C70.1906 9.65065 70.0739 9.77665 69.9432 9.89798C69.8126 10.01 69.7052 10.094 69.6212 10.15C69.3132 10.3647 68.9632 10.5373 68.5712 10.668C68.1886 10.7987 67.8059 10.864 67.4232 10.864C67.1059 10.864 66.7512 10.8127 66.3592 10.71C65.9766 10.6073 65.6499 10.4673 65.3792 10.29C64.8566 9.94465 64.4739 9.49198 64.2312 8.93198C63.9886 8.37198 63.8672 7.78865 63.8672 7.18198C63.8672 6.49132 64.0026 5.85198 64.2732 5.26398C64.5439 4.67598 64.9779 4.19998 65.5752 3.83598C65.8459 3.67732 66.1492 3.54665 66.4852 3.44398C66.8212 3.33198 67.1432 3.27598 67.4512 3.27598C68.0019 3.27598 68.4872 3.38798 68.9072 3.61198C69.3272 3.83598 69.6539 4.15332 69.8872 4.56398C70.1299 4.96532 70.2512 5.44598 70.2512 6.00598C70.2512 6.16465 70.2139 6.26732 70.1392 6.31398C70.0739 6.36065 69.9712 6.38398 69.8312 6.38398C69.6446 6.38398 69.4579 6.37932 69.2712 6.36998C69.0846 6.36065 68.8979 6.35132 68.7112 6.34198C68.4499 6.32332 68.1886 6.31398 67.9272 6.31398C67.6752 6.31398 67.4186 6.31398 67.1572 6.31398C66.8399 6.31398 66.5226 6.31398 66.2052 6.31398C65.8879 6.31398 65.5706 6.32332 65.2532 6.34198C65.2439 6.49132 65.2346 6.63598 65.2252 6.77598C65.2159 6.91598 65.2112 7.06065 65.2112 7.20998C65.2112 7.55532 65.2532 7.91465 65.3372 8.28798C65.4212 8.65198 65.5566 8.99265 65.7432 9.30998C65.9299 9.61798 66.1679 9.86998 66.4572 10.066C66.7466 10.2527 67.0966 10.346 67.5072 10.346C67.9272 10.346 68.3286 10.2807 68.7112 10.15C69.0939 10.0193 69.4439 9.80932 69.7612 9.51998C69.8452 9.43598 69.9199 9.34732 69.9852 9.25398C70.0599 9.15132 70.1392 9.06265 70.2232 8.98798C70.2699 8.94132 70.3212 8.91798 70.3772 8.91798C70.4239 8.91798 70.4612 8.93665 70.4892 8.97398C70.5172 9.01132 70.5312 9.05332 70.5312 9.09998ZM79.4901 10.43C79.4901 10.542 79.4061 10.626 79.2381 10.682C79.0795 10.738 78.9021 10.7753 78.7061 10.794C78.5101 10.8127 78.3701 10.822 78.2861 10.822C77.9688 10.822 77.7168 10.696 77.5301 10.444C77.3435 10.192 77.2035 9.93065 77.1101 9.65998C76.7928 10.0613 76.3961 10.36 75.9201 10.556C75.4441 10.752 74.9495 10.85 74.4361 10.85C73.5961 10.85 73.0128 10.6353 72.6861 10.206C72.3688 9.76732 72.2101 9.15132 72.2101 8.35798C72.2101 7.65798 72.2101 6.95798 72.2101 6.25798C72.2195 5.54865 72.2288 4.84398 72.2381 4.14398C72.2381 3.86398 72.1028 3.72398 71.8321 3.72398C71.7575 3.72398 71.6828 3.72865 71.6081 3.73798C71.5335 3.74732 71.4588 3.75198 71.3841 3.75198C71.3561 3.75198 71.3328 3.73798 71.3141 3.70998C71.3048 3.67265 71.3001 3.64465 71.3001 3.62598C71.3001 3.52332 71.3468 3.46732 71.4401 3.45798C71.7668 3.42065 72.0935 3.39732 72.4201 3.38798C72.7561 3.36932 73.0875 3.34132 73.4141 3.30398C73.4888 3.37865 73.5261 3.47198 73.5261 3.58398C73.5261 3.81732 73.5215 4.05532 73.5121 4.29798C73.5028 4.54065 73.4981 4.78332 73.4981 5.02598C73.4888 5.59532 73.4795 6.16932 73.4701 6.74798C73.4701 7.31732 73.4701 7.89132 73.4701 8.46998C73.4701 8.64732 73.4748 8.83865 73.4841 9.04398C73.4935 9.23998 73.5308 9.42198 73.5961 9.58998C73.6988 9.85132 73.8901 10.038 74.1701 10.15C74.4595 10.2527 74.7348 10.304 74.9961 10.304C75.2855 10.304 75.5748 10.2527 75.8641 10.15C76.1628 10.038 76.4148 9.87932 76.6201 9.67398C76.8348 9.45932 76.9561 9.19332 76.9841 8.87598C77.0028 8.71732 77.0121 8.55865 77.0121 8.39998C77.0215 8.23198 77.0261 8.06865 77.0261 7.90998L77.0121 4.10198C77.0121 3.98065 76.9701 3.89198 76.8861 3.83598C76.8115 3.77998 76.7228 3.75198 76.6201 3.75198C76.5268 3.75198 76.4335 3.75665 76.3401 3.76598C76.2561 3.77532 76.1675 3.77998 76.0741 3.77998C75.9901 3.77998 75.9481 3.73332 75.9481 3.63998C75.9481 3.54665 75.9901 3.49532 76.0741 3.48598C76.1861 3.46732 76.3028 3.45798 76.4241 3.45798C76.5455 3.44865 76.6668 3.43932 76.7881 3.42998L77.7541 3.33198C77.8195 3.32265 77.8848 3.31332 77.9501 3.30398C78.0248 3.29465 78.0948 3.28998 78.1601 3.28998C78.2068 3.28998 78.2395 3.31798 78.2581 3.37398C78.2768 3.42065 78.2861 3.45798 78.2861 3.48598C78.2581 5.51132 78.2441 7.53198 78.2441 9.54798C78.2441 9.78132 78.2955 9.97265 78.3981 10.122C78.5101 10.2713 78.6921 10.346 78.9441 10.346C79.0188 10.346 79.0841 10.3367 79.1401 10.318C79.2055 10.2993 79.2708 10.29 79.3361 10.29C79.4388 10.29 79.4901 10.3367 79.4901 10.43ZM91.7672 10.598C91.7672 10.7193 91.6972 10.78 91.5572 10.78C91.3518 10.78 91.1418 10.7753 90.9272 10.766C90.7125 10.7473 90.4978 10.738 90.2832 10.738C89.9658 10.738 89.6392 10.7473 89.3032 10.766C88.9765 10.7753 88.6498 10.78 88.3232 10.78C88.2858 10.78 88.2625 10.752 88.2532 10.696C88.2438 10.6307 88.2392 10.5793 88.2392 10.542C88.2392 10.4673 88.2858 10.43 88.3792 10.43C88.4725 10.43 88.5472 10.43 88.6032 10.43C88.6498 10.43 88.6965 10.4347 88.7432 10.444C88.7992 10.444 88.8505 10.444 88.8972 10.444C89.1678 10.444 89.3172 10.3087 89.3452 10.038C89.3732 9.48732 89.3825 8.93198 89.3732 8.37198C89.3732 7.81198 89.3732 7.25665 89.3732 6.70598C89.3732 6.60332 89.3732 6.50065 89.3732 6.39798C89.3732 6.28598 89.3732 6.17865 89.3732 6.07598C89.3638 5.86132 89.3498 5.59998 89.3312 5.29198C89.3125 4.97465 89.2705 4.71798 89.2052 4.52198C89.0558 4.03665 88.7292 3.79398 88.2252 3.79398C87.7678 3.79398 87.3478 3.91065 86.9652 4.14398C86.5825 4.37732 86.2512 4.67132 85.9712 5.02598C85.9618 5.70732 85.9572 6.38398 85.9572 7.05598C85.9572 7.72798 85.9572 8.39998 85.9572 9.07198V10.038C85.9572 10.178 86.0178 10.2807 86.1392 10.346C86.2605 10.4113 86.3818 10.444 86.5032 10.444C86.5778 10.444 86.6478 10.4393 86.7132 10.43C86.7878 10.4113 86.8578 10.402 86.9232 10.402C86.9605 10.402 86.9838 10.4253 86.9932 10.472C87.0025 10.5187 87.0072 10.556 87.0072 10.584C87.0072 10.6213 86.9932 10.6633 86.9652 10.71C86.9465 10.7567 86.9092 10.78 86.8532 10.78C86.6478 10.78 86.4425 10.7753 86.2372 10.766C86.0412 10.7473 85.8405 10.738 85.6352 10.738C85.3178 10.738 85.0005 10.7473 84.6832 10.766C84.3658 10.7753 84.0438 10.78 83.7172 10.78C83.6705 10.78 83.6425 10.752 83.6332 10.696C83.6332 10.6307 83.6332 10.5793 83.6332 10.542C83.6332 10.4673 83.6752 10.43 83.7592 10.43C83.8432 10.43 83.9085 10.43 83.9552 10.43C84.0018 10.43 84.0485 10.4347 84.0952 10.444C84.1418 10.444 84.1885 10.444 84.2352 10.444C84.5058 10.444 84.6552 10.3087 84.6832 10.038C84.6925 9.90732 84.6972 9.77665 84.6972 9.64598C84.6972 9.51532 84.6972 9.38465 84.6972 9.25398C84.6972 8.45132 84.6972 7.64865 84.6972 6.84598C84.6972 6.03398 84.6925 5.22665 84.6832 4.42398C84.6832 4.29332 84.6552 4.16265 84.5992 4.03198C84.5432 3.90132 84.4358 3.83598 84.2772 3.83598C84.1558 3.83598 84.0392 3.85465 83.9272 3.89198C83.8152 3.92932 83.6985 3.94798 83.5772 3.94798C83.5118 3.94798 83.4792 3.90132 83.4792 3.80798C83.4792 3.78932 83.4792 3.77065 83.4792 3.75198C83.4885 3.72398 83.4978 3.70532 83.5072 3.69598C83.5165 3.68665 83.5305 3.68198 83.5492 3.68198C83.5678 3.67265 83.5818 3.66332 83.5912 3.65398C83.7592 3.60732 83.9318 3.57465 84.1092 3.55598C84.2958 3.53732 84.4732 3.50932 84.6412 3.47198C84.7998 3.44398 84.9538 3.40665 85.1032 3.35998C85.2525 3.30398 85.4018 3.27598 85.5512 3.27598C85.6165 3.27598 85.6678 3.30865 85.7052 3.37398C85.7518 3.45798 85.7892 3.57932 85.8172 3.73798C85.8452 3.88732 85.8638 4.04132 85.8732 4.19998C85.8918 4.35865 85.9012 4.48932 85.9012 4.59198C86.1065 4.38665 86.3492 4.18598 86.6292 3.98998C86.9185 3.78465 87.2172 3.61665 87.5252 3.48598C87.8425 3.34598 88.1505 3.27598 88.4492 3.27598C89.3078 3.27598 89.8865 3.46732 90.1852 3.84998C90.4932 4.22332 90.6472 4.81598 90.6472 5.62798C90.6472 6.35598 90.6425 7.08398 90.6332 7.81198C90.6332 8.53998 90.6332 9.26798 90.6332 9.99598C90.6332 10.1733 90.6845 10.2947 90.7872 10.36C90.8992 10.416 91.0298 10.444 91.1792 10.444C91.2538 10.444 91.3285 10.4393 91.4032 10.43C91.4778 10.4113 91.5478 10.402 91.6132 10.402C91.6692 10.402 91.7065 10.4253 91.7252 10.472C91.7532 10.5093 91.7672 10.5513 91.7672 10.598ZM98.5689 7.11198C98.5689 6.71065 98.5362 6.30932 98.4709 5.90798C98.4149 5.49732 98.3029 5.11932 98.1349 4.77398C97.9762 4.42865 97.7429 4.15332 97.4349 3.94798C97.1269 3.73332 96.7255 3.62598 96.2309 3.62598C95.7642 3.62598 95.3815 3.73798 95.0829 3.96198C94.7935 4.18598 94.5649 4.47532 94.3969 4.82998C94.2382 5.18465 94.1262 5.56732 94.0609 5.97798C94.0049 6.38865 93.9769 6.77598 93.9769 7.13998C93.9769 7.54132 94.0049 7.94265 94.0609 8.34398C94.1262 8.74532 94.2429 9.10932 94.4109 9.43598C94.5789 9.75332 94.8169 10.01 95.1249 10.206C95.4422 10.402 95.8482 10.5 96.3429 10.5C96.8282 10.5 97.2155 10.3973 97.5049 10.192C97.8035 9.98665 98.0275 9.71598 98.1769 9.37998C98.3355 9.04398 98.4382 8.67998 98.4849 8.28798C98.5409 7.88665 98.5689 7.49465 98.5689 7.11198ZM100.011 7.15398C100.011 7.85398 99.8429 8.48398 99.5069 9.04398C99.1802 9.60398 98.7322 10.0473 98.1629 10.374C97.6029 10.7007 96.9729 10.864 96.2729 10.864C95.5915 10.864 94.9755 10.7007 94.4249 10.374C93.8742 10.038 93.4355 9.59465 93.1089 9.04398C92.7822 8.48398 92.6189 7.86332 92.6189 7.18198C92.6189 6.48198 92.7775 5.83798 93.0949 5.24998C93.4122 4.65265 93.8462 4.17198 94.3969 3.80798C94.9569 3.44398 95.6009 3.26198 96.3289 3.26198C97.1129 3.26198 97.7802 3.42998 98.3309 3.76598C98.8815 4.09265 99.2969 4.54998 99.5769 5.13798C99.8662 5.71665 100.011 6.38865 100.011 7.15398ZM113.41 10.626C113.41 10.7567 113.359 10.822 113.256 10.822C112.995 10.822 112.729 10.8127 112.458 10.794C112.188 10.7753 111.917 10.766 111.646 10.766C111.376 10.766 111.1 10.7753 110.82 10.794C110.55 10.8127 110.279 10.822 110.008 10.822C109.971 10.822 109.943 10.7987 109.924 10.752C109.915 10.7053 109.91 10.668 109.91 10.64C109.91 10.556 109.952 10.5047 110.036 10.486C110.13 10.4673 110.228 10.4627 110.33 10.472C110.442 10.4813 110.526 10.486 110.582 10.486C110.713 10.486 110.82 10.4533 110.904 10.388C110.988 10.3227 111.03 10.2247 111.03 10.094C111.03 9.46865 111.035 8.84798 111.044 8.23198C111.063 7.61598 111.072 6.99998 111.072 6.38398C111.072 6.28132 111.072 6.17865 111.072 6.07598C111.072 5.97332 111.068 5.87065 111.058 5.76798C111.049 5.54398 111.035 5.31532 111.016 5.08198C111.007 4.83932 110.97 4.61532 110.904 4.40998C110.839 4.19532 110.727 4.02265 110.568 3.89198C110.41 3.76132 110.181 3.69598 109.882 3.69598C109.668 3.69598 109.43 3.76132 109.168 3.89198C108.916 4.01332 108.674 4.15798 108.44 4.32598C108.207 4.49398 108.011 4.65265 107.852 4.80198C107.871 4.93265 107.88 5.06798 107.88 5.20798C107.88 5.33865 107.88 5.46932 107.88 5.59998C107.88 5.87065 107.88 6.14598 107.88 6.42598C107.89 6.69665 107.894 6.96732 107.894 7.23798C107.894 7.71398 107.89 8.18998 107.88 8.66598C107.88 9.14198 107.88 9.61798 107.88 10.094C107.88 10.234 107.941 10.332 108.062 10.388C108.184 10.444 108.305 10.472 108.426 10.472C108.501 10.472 108.576 10.4673 108.65 10.458C108.734 10.4487 108.809 10.444 108.874 10.444C108.921 10.444 108.949 10.4673 108.958 10.514C108.977 10.5607 108.986 10.598 108.986 10.626C108.986 10.6727 108.972 10.7193 108.944 10.766C108.916 10.8033 108.874 10.822 108.818 10.822C108.557 10.822 108.291 10.8127 108.02 10.794C107.759 10.7753 107.493 10.766 107.222 10.766C106.961 10.766 106.695 10.7753 106.424 10.794C106.154 10.8127 105.883 10.822 105.612 10.822C105.575 10.822 105.547 10.7987 105.528 10.752C105.51 10.7053 105.5 10.668 105.5 10.64C105.5 10.5653 105.538 10.514 105.612 10.486C105.687 10.4673 105.776 10.4627 105.878 10.472C105.99 10.4813 106.084 10.486 106.158 10.486C106.289 10.486 106.396 10.458 106.48 10.402C106.574 10.3367 106.62 10.234 106.62 10.094V6.52398C106.62 6.32798 106.616 6.08532 106.606 5.79598C106.606 5.50665 106.588 5.22198 106.55 4.94198C106.522 4.65265 106.471 4.42398 106.396 4.25598C106.331 4.08798 106.219 3.95732 106.06 3.86398C105.911 3.77065 105.743 3.72398 105.556 3.72398C105.314 3.72398 105.066 3.78465 104.814 3.90598C104.562 4.02732 104.324 4.17665 104.1 4.35398C103.876 4.53132 103.685 4.70865 103.526 4.88598V10.08C103.526 10.22 103.578 10.3227 103.68 10.388C103.783 10.444 103.895 10.472 104.016 10.472C104.091 10.472 104.166 10.4673 104.24 10.458C104.315 10.4393 104.385 10.43 104.45 10.43C104.488 10.43 104.511 10.458 104.52 10.514C104.53 10.5607 104.534 10.5933 104.534 10.612C104.534 10.6587 104.52 10.7053 104.492 10.752C104.474 10.7893 104.436 10.808 104.38 10.808C104.203 10.808 104.026 10.8033 103.848 10.794C103.671 10.7753 103.494 10.766 103.316 10.766C102.962 10.766 102.607 10.7753 102.252 10.794C101.898 10.8033 101.543 10.808 101.188 10.808C101.151 10.808 101.123 10.7847 101.104 10.738C101.086 10.6913 101.076 10.654 101.076 10.626C101.076 10.514 101.123 10.458 101.216 10.458C101.319 10.458 101.417 10.4627 101.51 10.472C101.604 10.472 101.697 10.472 101.79 10.472C101.921 10.472 102.033 10.444 102.126 10.388C102.22 10.3227 102.266 10.22 102.266 10.08C102.266 9.13732 102.262 8.19465 102.252 7.25198C102.252 6.29998 102.252 5.35265 102.252 4.40998C102.252 4.30732 102.243 4.20465 102.224 4.10198C102.206 3.99932 102.145 3.92932 102.042 3.89198C101.977 3.86398 101.907 3.84998 101.832 3.84998C101.711 3.84998 101.59 3.86865 101.468 3.90598C101.347 3.93398 101.221 3.94798 101.09 3.94798C101.006 3.94798 100.964 3.89198 100.964 3.77998C100.964 3.70532 100.992 3.65865 101.048 3.63998C101.095 3.62132 101.146 3.61198 101.202 3.61198C101.268 3.60265 101.328 3.59332 101.384 3.58398C101.599 3.55598 101.814 3.52332 102.028 3.48598C102.252 3.43932 102.467 3.39265 102.672 3.34598C102.747 3.32732 102.826 3.30865 102.91 3.28998C102.994 3.27132 103.078 3.26198 103.162 3.26198C103.274 3.26198 103.349 3.34598 103.386 3.51398C103.433 3.67265 103.456 3.84532 103.456 4.03198C103.466 4.21865 103.47 4.35398 103.47 4.43798C103.666 4.26998 103.886 4.09732 104.128 3.91998C104.371 3.73332 104.628 3.57465 104.898 3.44398C105.169 3.31332 105.44 3.24798 105.71 3.24798C106.186 3.24798 106.588 3.32732 106.914 3.48598C107.241 3.64465 107.521 3.94332 107.754 4.38198C107.96 4.20465 108.193 4.02732 108.454 3.84998C108.716 3.66332 108.986 3.50932 109.266 3.38798C109.556 3.25732 109.84 3.19198 110.12 3.19198C110.736 3.19198 111.203 3.28065 111.52 3.45798C111.847 3.63532 112.066 3.91065 112.178 4.28398C112.3 4.64798 112.36 5.11932 112.36 5.69798C112.36 6.42598 112.356 7.15865 112.346 7.89598C112.337 8.62398 112.332 9.35665 112.332 10.094C112.332 10.234 112.393 10.332 112.514 10.388C112.645 10.444 112.771 10.472 112.892 10.472C112.967 10.472 113.037 10.4673 113.102 10.458C113.177 10.4487 113.247 10.444 113.312 10.444C113.35 10.444 113.373 10.4673 113.382 10.514C113.401 10.5607 113.41 10.598 113.41 10.626ZM119.247 5.89398C119.238 5.51132 119.205 5.14732 119.149 4.80198C119.093 4.44732 118.958 4.15798 118.743 3.93398C118.529 3.70065 118.179 3.58398 117.693 3.58398C117.255 3.58398 116.895 3.70532 116.615 3.94798C116.345 4.18132 116.135 4.47998 115.985 4.84398C115.836 5.19865 115.724 5.56265 115.649 5.93598C115.883 5.94532 116.111 5.95465 116.335 5.96398C116.559 5.96398 116.783 5.96398 117.007 5.96398C117.381 5.96398 117.754 5.95932 118.127 5.94998C118.501 5.93132 118.874 5.91265 119.247 5.89398ZM120.857 9.09998C120.857 9.14665 120.848 9.17465 120.829 9.18398C120.801 9.27732 120.731 9.38932 120.619 9.51998C120.517 9.65065 120.4 9.77665 120.269 9.89798C120.139 10.01 120.031 10.094 119.947 10.15C119.639 10.3647 119.289 10.5373 118.897 10.668C118.515 10.7987 118.132 10.864 117.749 10.864C117.432 10.864 117.077 10.8127 116.685 10.71C116.303 10.6073 115.976 10.4673 115.705 10.29C115.183 9.94465 114.8 9.49198 114.557 8.93198C114.315 8.37198 114.193 7.78865 114.193 7.18198C114.193 6.49132 114.329 5.85198 114.599 5.26398C114.87 4.67598 115.304 4.19998 115.901 3.83598C116.172 3.67732 116.475 3.54665 116.811 3.44398C117.147 3.33198 117.469 3.27598 117.777 3.27598C118.328 3.27598 118.813 3.38798 119.233 3.61198C119.653 3.83598 119.98 4.15332 120.213 4.56398C120.456 4.96532 120.577 5.44598 120.577 6.00598C120.577 6.16465 120.54 6.26732 120.465 6.31398C120.4 6.36065 120.297 6.38398 120.157 6.38398C119.971 6.38398 119.784 6.37932 119.597 6.36998C119.411 6.36065 119.224 6.35132 119.037 6.34198C118.776 6.32332 118.515 6.31398 118.253 6.31398C118.001 6.31398 117.745 6.31398 117.483 6.31398C117.166 6.31398 116.849 6.31398 116.531 6.31398C116.214 6.31398 115.897 6.32332 115.579 6.34198C115.57 6.49132 115.561 6.63598 115.551 6.77598C115.542 6.91598 115.537 7.06065 115.537 7.20998C115.537 7.55532 115.579 7.91465 115.663 8.28798C115.747 8.65198 115.883 8.99265 116.069 9.30998C116.256 9.61798 116.494 9.86998 116.783 10.066C117.073 10.2527 117.423 10.346 117.833 10.346C118.253 10.346 118.655 10.2807 119.037 10.15C119.42 10.0193 119.77 9.80932 120.087 9.51998C120.171 9.43598 120.246 9.34732 120.311 9.25398C120.386 9.15132 120.465 9.06265 120.549 8.98798C120.596 8.94132 120.647 8.91798 120.703 8.91798C120.75 8.91798 120.787 8.93665 120.815 8.97398C120.843 9.01132 120.857 9.05332 120.857 9.09998ZM130.46 5.66998C130.46 5.35265 130.395 5.05398 130.264 4.77398C130.134 4.49398 129.947 4.26532 129.704 4.08798C129.462 3.91065 129.168 3.82198 128.822 3.82198C128.374 3.82198 128.006 3.92932 127.716 4.14398C127.436 4.35865 127.212 4.63865 127.044 4.98398C126.886 5.31998 126.774 5.68398 126.708 6.07598C126.652 6.46798 126.624 6.84132 126.624 7.19598C126.624 7.51332 126.652 7.85398 126.708 8.21798C126.764 8.58198 126.862 8.92265 127.002 9.23998C127.152 9.55732 127.357 9.81865 127.618 10.024C127.88 10.22 128.211 10.318 128.612 10.318C128.948 10.318 129.256 10.2153 129.536 10.01C129.816 9.79532 130.04 9.52932 130.208 9.21198C130.376 8.89465 130.46 8.58198 130.46 8.27398V5.66998ZM133.064 10.248C133.064 10.2947 133.041 10.3413 132.994 10.388C132.948 10.4347 132.906 10.472 132.868 10.5C132.747 10.5933 132.57 10.6727 132.336 10.738C132.112 10.8033 131.921 10.836 131.762 10.836C131.52 10.836 131.319 10.766 131.16 10.626C131.002 10.486 130.871 10.3133 130.768 10.108C130.675 9.90265 130.591 9.70198 130.516 9.50598C130.311 9.83265 130.031 10.1267 129.676 10.388C129.322 10.64 128.944 10.766 128.542 10.766C128.272 10.766 127.992 10.7473 127.702 10.71C127.422 10.6633 127.161 10.5653 126.918 10.416C126.386 10.08 125.98 9.62732 125.7 9.05798C125.43 8.47932 125.294 7.88665 125.294 7.27998C125.294 6.55198 125.425 5.89865 125.686 5.31998C125.948 4.73198 126.335 4.26998 126.848 3.93398C127.371 3.58865 128.015 3.41598 128.78 3.41598C128.948 3.41598 129.135 3.44865 129.34 3.51398C129.546 3.57932 129.746 3.66332 129.942 3.76598C130.148 3.85932 130.311 3.95732 130.432 4.05998V1.34398C130.432 1.04532 130.353 0.877317 130.194 0.839983C130.045 0.793317 129.844 0.769983 129.592 0.769983C129.508 0.769983 129.424 0.77465 129.34 0.783983C129.256 0.783983 129.172 0.783983 129.088 0.783983C129.051 0.783983 129.014 0.769983 128.976 0.741983C128.948 0.713983 128.934 0.681316 128.934 0.643983C128.934 0.57865 128.958 0.53665 129.004 0.517983C129.023 0.499316 129.042 0.489983 129.06 0.489983C129.088 0.489983 129.116 0.485316 129.144 0.475983C129.34 0.438649 129.536 0.41065 129.732 0.391983C129.938 0.363983 130.143 0.331316 130.348 0.293983C130.554 0.256649 130.754 0.219316 130.95 0.181983C131.146 0.135316 131.342 0.0839827 131.538 0.0279828C131.548 0.0279828 131.562 0.0233162 131.58 0.013983C131.608 0.0046498 131.627 -1.68085e-05 131.636 -1.68085e-05C131.683 -1.68085e-05 131.711 0.0186499 131.72 0.0559833C131.73 0.0933162 131.734 0.130649 131.734 0.167983C131.734 1.32532 131.73 2.47798 131.72 3.62598C131.711 4.77398 131.706 5.92665 131.706 7.08398V9.16998C131.706 9.32865 131.725 9.49198 131.762 9.65998C131.8 9.82798 131.87 9.96798 131.972 10.08C132.084 10.192 132.238 10.248 132.434 10.248C132.528 10.248 132.616 10.2293 132.7 10.192C132.784 10.1547 132.873 10.136 132.966 10.136C133.032 10.136 133.064 10.1733 133.064 10.248ZM138.867 5.89398C138.857 5.51132 138.825 5.14732 138.769 4.80198C138.713 4.44732 138.577 4.15798 138.363 3.93398C138.148 3.70065 137.798 3.58398 137.313 3.58398C136.874 3.58398 136.515 3.70532 136.235 3.94798C135.964 4.18132 135.754 4.47998 135.605 4.84398C135.455 5.19865 135.343 5.56265 135.269 5.93598C135.502 5.94532 135.731 5.95465 135.955 5.96398C136.179 5.96398 136.403 5.96398 136.627 5.96398C137 5.96398 137.373 5.95932 137.747 5.94998C138.12 5.93132 138.493 5.91265 138.867 5.89398ZM140.477 9.09998C140.477 9.14665 140.467 9.17465 140.449 9.18398C140.421 9.27732 140.351 9.38932 140.239 9.51998C140.136 9.65065 140.019 9.77665 139.889 9.89798C139.758 10.01 139.651 10.094 139.567 10.15C139.259 10.3647 138.909 10.5373 138.517 10.668C138.134 10.7987 137.751 10.864 137.369 10.864C137.051 10.864 136.697 10.8127 136.305 10.71C135.922 10.6073 135.595 10.4673 135.325 10.29C134.802 9.94465 134.419 9.49198 134.177 8.93198C133.934 8.37198 133.813 7.78865 133.813 7.18198C133.813 6.49132 133.948 5.85198 134.219 5.26398C134.489 4.67598 134.923 4.19998 135.521 3.83598C135.791 3.67732 136.095 3.54665 136.431 3.44398C136.767 3.33198 137.089 3.27598 137.397 3.27598C137.947 3.27598 138.433 3.38798 138.853 3.61198C139.273 3.83598 139.599 4.15332 139.833 4.56398C140.075 4.96532 140.197 5.44598 140.197 6.00598C140.197 6.16465 140.159 6.26732 140.085 6.31398C140.019 6.36065 139.917 6.38398 139.777 6.38398C139.59 6.38398 139.403 6.37932 139.217 6.36998C139.03 6.36065 138.843 6.35132 138.657 6.34198C138.395 6.32332 138.134 6.31398 137.873 6.31398C137.621 6.31398 137.364 6.31398 137.103 6.31398C136.785 6.31398 136.468 6.31398 136.151 6.31398C135.833 6.31398 135.516 6.32332 135.199 6.34198C135.189 6.49132 135.18 6.63598 135.171 6.77598C135.161 6.91598 135.157 7.06065 135.157 7.20998C135.157 7.55532 135.199 7.91465 135.283 8.28798C135.367 8.65198 135.502 8.99265 135.689 9.30998C135.875 9.61798 136.113 9.86998 136.403 10.066C136.692 10.2527 137.042 10.346 137.453 10.346C137.873 10.346 138.274 10.2807 138.657 10.15C139.039 10.0193 139.389 9.80932 139.707 9.51998C139.791 9.43598 139.865 9.34732 139.931 9.25398C140.005 9.15132 140.085 9.06265 140.169 8.98798C140.215 8.94132 140.267 8.91798 140.323 8.91798C140.369 8.91798 140.407 8.93665 140.435 8.97398C140.463 9.01132 140.477 9.05332 140.477 9.09998ZM152.935 10.43C152.935 10.542 152.851 10.626 152.683 10.682C152.525 10.738 152.347 10.7753 152.151 10.794C151.955 10.8127 151.815 10.822 151.731 10.822C151.414 10.822 151.162 10.696 150.975 10.444C150.789 10.192 150.649 9.93065 150.555 9.65998C150.238 10.0613 149.841 10.36 149.365 10.556C148.889 10.752 148.395 10.85 147.881 10.85C147.041 10.85 146.458 10.6353 146.131 10.206C145.814 9.76732 145.655 9.15132 145.655 8.35798C145.655 7.65798 145.655 6.95798 145.655 6.25798C145.665 5.54865 145.674 4.84398 145.683 4.14398C145.683 3.86398 145.548 3.72398 145.277 3.72398C145.203 3.72398 145.128 3.72865 145.053 3.73798C144.979 3.74732 144.904 3.75198 144.829 3.75198C144.801 3.75198 144.778 3.73798 144.759 3.70998C144.75 3.67265 144.745 3.64465 144.745 3.62598C144.745 3.52332 144.792 3.46732 144.885 3.45798C145.212 3.42065 145.539 3.39732 145.865 3.38798C146.201 3.36932 146.533 3.34132 146.859 3.30398C146.934 3.37865 146.971 3.47198 146.971 3.58398C146.971 3.81732 146.967 4.05532 146.957 4.29798C146.948 4.54065 146.943 4.78332 146.943 5.02598C146.934 5.59532 146.925 6.16932 146.915 6.74798C146.915 7.31732 146.915 7.89132 146.915 8.46998C146.915 8.64732 146.92 8.83865 146.929 9.04398C146.939 9.23998 146.976 9.42198 147.041 9.58998C147.144 9.85132 147.335 10.038 147.615 10.15C147.905 10.2527 148.18 10.304 148.441 10.304C148.731 10.304 149.02 10.2527 149.309 10.15C149.608 10.038 149.86 9.87932 150.065 9.67398C150.28 9.45932 150.401 9.19332 150.429 8.87598C150.448 8.71732 150.457 8.55865 150.457 8.39998C150.467 8.23198 150.471 8.06865 150.471 7.90998L150.457 4.10198C150.457 3.98065 150.415 3.89198 150.331 3.83598C150.257 3.77998 150.168 3.75198 150.065 3.75198C149.972 3.75198 149.879 3.75665 149.785 3.76598C149.701 3.77532 149.613 3.77998 149.519 3.77998C149.435 3.77998 149.393 3.73332 149.393 3.63998C149.393 3.54665 149.435 3.49532 149.519 3.48598C149.631 3.46732 149.748 3.45798 149.869 3.45798C149.991 3.44865 150.112 3.43932 150.233 3.42998L151.199 3.33198C151.265 3.32265 151.33 3.31332 151.395 3.30398C151.47 3.29465 151.54 3.28998 151.605 3.28998C151.652 3.28998 151.685 3.31798 151.703 3.37398C151.722 3.42065 151.731 3.45798 151.731 3.48598C151.703 5.51132 151.689 7.53198 151.689 9.54798C151.689 9.78132 151.741 9.97265 151.843 10.122C151.955 10.2713 152.137 10.346 152.389 10.346C152.464 10.346 152.529 10.3367 152.585 10.318C152.651 10.2993 152.716 10.29 152.781 10.29C152.884 10.29 152.935 10.3367 152.935 10.43ZM158.87 8.80598C158.87 9.22598 158.777 9.57132 158.59 9.84198C158.404 10.1033 158.161 10.304 157.862 10.444C157.564 10.584 157.237 10.682 156.882 10.738C156.528 10.794 156.182 10.822 155.846 10.822C155.538 10.822 155.23 10.7893 154.922 10.724C154.624 10.6587 154.32 10.612 154.012 10.584C153.947 10.332 153.882 10.08 153.816 9.82798C153.76 9.57598 153.695 9.32865 153.62 9.08598C153.611 9.05798 153.588 8.99265 153.55 8.88998C153.522 8.78732 153.508 8.73132 153.508 8.72198C153.508 8.64732 153.532 8.59598 153.578 8.56798C153.625 8.53065 153.681 8.51198 153.746 8.51198C153.812 8.51198 153.858 8.53532 153.886 8.58198C153.942 8.64732 153.989 8.73598 154.026 8.84798C154.073 8.95998 154.115 9.05798 154.152 9.14198C154.227 9.29132 154.292 9.40798 154.348 9.49198C154.404 9.56665 154.493 9.66465 154.614 9.78598C154.978 10.1687 155.431 10.36 155.972 10.36C156.271 10.36 156.542 10.3273 156.784 10.262C157.036 10.1967 157.237 10.0753 157.386 9.89798C157.536 9.71132 157.61 9.44532 157.61 9.09998C157.61 8.80132 157.517 8.55398 157.33 8.35798C157.144 8.15265 156.901 7.97065 156.602 7.81198C156.313 7.65332 156.005 7.49932 155.678 7.34998C155.352 7.20065 155.039 7.03732 154.74 6.85998C154.451 6.67332 154.213 6.44932 154.026 6.18798C153.84 5.92665 153.746 5.60932 153.746 5.23598C153.746 4.77865 153.863 4.40532 154.096 4.11598C154.339 3.82665 154.647 3.61198 155.02 3.47198C155.394 3.32265 155.781 3.24798 156.182 3.24798C156.444 3.24798 156.677 3.28065 156.882 3.34598C157.097 3.41132 157.321 3.48598 157.554 3.56998C157.629 3.59798 157.704 3.61665 157.778 3.62598C157.853 3.63532 157.928 3.63998 158.002 3.63998C158.049 3.63998 158.091 3.63998 158.128 3.63998C158.166 3.63998 158.203 3.63532 158.24 3.62598C158.268 3.79398 158.292 3.96665 158.31 4.14398C158.338 4.31198 158.362 4.48465 158.38 4.66198C158.39 4.72732 158.399 4.80665 158.408 4.89998C158.427 4.98398 158.436 5.06332 158.436 5.13798C158.436 5.20332 158.422 5.27332 158.394 5.34798C158.366 5.41332 158.31 5.44598 158.226 5.44598C158.161 5.44598 158.105 5.44132 158.058 5.43198C158.021 5.41332 157.988 5.37132 157.96 5.30598C157.914 5.21265 157.872 5.11465 157.834 5.01198C157.806 4.89998 157.774 4.79732 157.736 4.70398C157.615 4.37732 157.405 4.11598 157.106 3.91998C156.808 3.71465 156.486 3.61198 156.14 3.61198C155.702 3.61198 155.37 3.74265 155.146 4.00398C154.922 4.25598 154.81 4.59665 154.81 5.02598C154.81 5.17532 154.848 5.31998 154.922 5.45998C155.006 5.59998 155.1 5.72132 155.202 5.82398C155.398 6.01065 155.627 6.15532 155.888 6.25798C156.159 6.36065 156.416 6.46332 156.658 6.56598C156.976 6.70598 157.302 6.87398 157.638 7.06998C157.984 7.26598 158.273 7.50398 158.506 7.78398C158.749 8.06398 158.87 8.40465 158.87 8.80598ZM167.975 10.43C167.975 10.542 167.891 10.626 167.723 10.682C167.564 10.738 167.387 10.7753 167.191 10.794C166.995 10.8127 166.855 10.822 166.771 10.822C166.453 10.822 166.201 10.696 166.015 10.444C165.828 10.192 165.688 9.93065 165.595 9.65998C165.277 10.0613 164.881 10.36 164.405 10.556C163.929 10.752 163.434 10.85 162.921 10.85C162.081 10.85 161.497 10.6353 161.171 10.206C160.853 9.76732 160.695 9.15132 160.695 8.35798C160.695 7.65798 160.695 6.95798 160.695 6.25798C160.704 5.54865 160.713 4.84398 160.723 4.14398C160.723 3.86398 160.587 3.72398 160.317 3.72398C160.242 3.72398 160.167 3.72865 160.093 3.73798C160.018 3.74732 159.943 3.75198 159.869 3.75198C159.841 3.75198 159.817 3.73798 159.799 3.70998C159.789 3.67265 159.785 3.64465 159.785 3.62598C159.785 3.52332 159.831 3.46732 159.925 3.45798C160.251 3.42065 160.578 3.39732 160.905 3.38798C161.241 3.36932 161.572 3.34132 161.899 3.30398C161.973 3.37865 162.011 3.47198 162.011 3.58398C162.011 3.81732 162.006 4.05532 161.997 4.29798C161.987 4.54065 161.983 4.78332 161.983 5.02598C161.973 5.59532 161.964 6.16932 161.955 6.74798C161.955 7.31732 161.955 7.89132 161.955 8.46998C161.955 8.64732 161.959 8.83865 161.969 9.04398C161.978 9.23998 162.015 9.42198 162.081 9.58998C162.183 9.85132 162.375 10.038 162.655 10.15C162.944 10.2527 163.219 10.304 163.481 10.304C163.77 10.304 164.059 10.2527 164.349 10.15C164.647 10.038 164.899 9.87932 165.105 9.67398C165.319 9.45932 165.441 9.19332 165.469 8.87598C165.487 8.71732 165.497 8.55865 165.497 8.39998C165.506 8.23198 165.511 8.06865 165.511 7.90998L165.497 4.10198C165.497 3.98065 165.455 3.89198 165.371 3.83598C165.296 3.77998 165.207 3.75198 165.105 3.75198C165.011 3.75198 164.918 3.75665 164.825 3.76598C164.741 3.77532 164.652 3.77998 164.559 3.77998C164.475 3.77998 164.433 3.73332 164.433 3.63998C164.433 3.54665 164.475 3.49532 164.559 3.48598C164.671 3.46732 164.787 3.45798 164.909 3.45798C165.03 3.44865 165.151 3.43932 165.273 3.42998L166.239 3.33198C166.304 3.32265 166.369 3.31332 166.435 3.30398C166.509 3.29465 166.579 3.28998 166.645 3.28998C166.691 3.28998 166.724 3.31798 166.743 3.37398C166.761 3.42065 166.771 3.45798 166.771 3.48598C166.743 5.51132 166.729 7.53198 166.729 9.54798C166.729 9.78132 166.78 9.97265 166.883 10.122C166.995 10.2713 167.177 10.346 167.429 10.346C167.503 10.346 167.569 10.3367 167.625 10.318C167.69 10.2993 167.755 10.29 167.821 10.29C167.923 10.29 167.975 10.3367 167.975 10.43ZM173.182 9.16998C173.144 8.74998 173.121 8.32998 173.112 7.90998C173.112 7.48065 173.107 7.05132 173.098 6.62198H172.902C172.612 6.62198 172.29 6.66865 171.936 6.76198C171.59 6.84598 171.259 6.97665 170.942 7.15398C170.624 7.33132 170.363 7.55532 170.158 7.82598C169.962 8.08732 169.864 8.39065 169.864 8.73598C169.864 9.18398 169.99 9.52465 170.242 9.75798C170.494 9.98198 170.834 10.094 171.264 10.094C171.469 10.094 171.693 10.0473 171.936 9.95398C172.178 9.85132 172.412 9.72998 172.636 9.58998C172.86 9.44998 173.042 9.30998 173.182 9.16998ZM175.632 10.066C175.632 10.1033 175.627 10.1313 175.618 10.15C175.524 10.3553 175.366 10.514 175.142 10.626C174.927 10.7287 174.712 10.78 174.498 10.78C174.106 10.78 173.821 10.668 173.644 10.444C173.476 10.2107 173.34 9.92598 173.238 9.58998C172.883 9.91665 172.491 10.192 172.062 10.416C171.632 10.6307 171.17 10.738 170.676 10.738C170.33 10.738 170.004 10.6727 169.696 10.542C169.397 10.402 169.154 10.2013 168.968 9.93998C168.781 9.67865 168.688 9.36132 168.688 8.98798C168.688 8.59598 168.786 8.25998 168.982 7.97998C169.187 7.69065 169.444 7.44798 169.752 7.25198C170.069 7.04665 170.405 6.88332 170.76 6.76198C171.124 6.63132 171.464 6.53332 171.782 6.46798C171.996 6.42132 172.216 6.37932 172.44 6.34198C172.664 6.30465 172.883 6.26732 173.098 6.22998C173.098 5.96865 173.084 5.66532 173.056 5.31998C173.037 4.97465 172.967 4.68998 172.846 4.46598C172.724 4.25132 172.561 4.05998 172.356 3.89198C172.15 3.72398 171.922 3.63998 171.67 3.63998C171.24 3.63998 170.904 3.75198 170.662 3.97598C170.419 4.19998 170.246 4.51732 170.144 4.92798C170.134 4.97465 170.125 5.02598 170.116 5.08198C170.116 5.12865 170.111 5.17532 170.102 5.22198C170.092 5.27798 170.055 5.32932 169.99 5.37598C169.934 5.41332 169.873 5.43198 169.808 5.43198C169.63 5.43198 169.467 5.38998 169.318 5.30598C169.178 5.22198 169.108 5.08198 169.108 4.88598C169.108 4.77398 169.126 4.67598 169.164 4.59198C169.285 4.30265 169.481 4.06465 169.752 3.87798C170.022 3.68198 170.321 3.53265 170.648 3.42998C170.984 3.32732 171.296 3.27598 171.586 3.27598C172.09 3.27598 172.547 3.36932 172.958 3.55598C173.368 3.74265 173.695 4.01798 173.938 4.38198C174.19 4.73665 174.316 5.18465 174.316 5.72598C174.316 6.33265 174.311 6.94398 174.302 7.55998C174.302 8.17598 174.32 8.79198 174.358 9.40798C174.367 9.61332 174.409 9.79532 174.484 9.95398C174.558 10.1033 174.712 10.178 174.946 10.178C175.067 10.178 175.193 10.15 175.324 10.094C175.464 10.0287 175.552 9.99598 175.59 9.99598C175.618 9.99598 175.632 10.0193 175.632 10.066ZM173.784 1.20398L170.228 1.91798L170.06 1.28798L173.56 0.279983L173.784 1.20398ZM181.819 4.57798C181.819 4.67132 181.781 4.75998 181.707 4.84398C181.641 4.91865 181.557 4.95598 181.455 4.95598C181.315 4.95598 181.212 4.90932 181.147 4.81598C181.091 4.72265 181.039 4.61532 180.993 4.49398C180.955 4.37265 180.895 4.26532 180.811 4.17198C180.727 4.07865 180.587 4.03198 180.391 4.03198C180.353 4.03198 180.316 4.03198 180.279 4.03198C180.251 4.03198 180.218 4.03665 180.181 4.04598C180.022 4.07398 179.849 4.17198 179.663 4.33998C179.476 4.50798 179.294 4.70865 179.117 4.94198C178.949 5.16598 178.809 5.38998 178.697 5.61398C178.585 5.83798 178.524 6.02465 178.515 6.17398C178.505 6.32332 178.501 6.47265 178.501 6.62198C178.501 6.76198 178.501 6.90198 178.501 7.04198C178.501 7.54598 178.501 8.04998 178.501 8.55398C178.51 9.05798 178.515 9.55732 178.515 10.052C178.515 10.192 178.571 10.2947 178.683 10.36C178.804 10.416 178.925 10.444 179.047 10.444C179.14 10.444 179.233 10.4393 179.327 10.43C179.42 10.4207 179.513 10.416 179.607 10.416C179.653 10.416 179.686 10.4393 179.705 10.486C179.723 10.5233 179.733 10.5607 179.733 10.598C179.733 10.7473 179.658 10.822 179.509 10.822C179.229 10.822 178.949 10.8173 178.669 10.808C178.389 10.7893 178.109 10.78 177.829 10.78C177.539 10.78 177.245 10.7893 176.947 10.808C176.657 10.8267 176.363 10.836 176.065 10.836C176.027 10.836 175.999 10.808 175.981 10.752C175.971 10.696 175.967 10.6493 175.967 10.612C175.967 10.5187 176.004 10.4673 176.079 10.458C176.181 10.4393 176.289 10.4347 176.401 10.444C176.513 10.4533 176.615 10.458 176.709 10.458C176.849 10.458 176.961 10.43 177.045 10.374C177.138 10.3087 177.189 10.2013 177.199 10.052C177.217 9.75332 177.227 9.44998 177.227 9.14198C177.236 8.83398 177.241 8.52598 177.241 8.21798V6.85998C177.231 6.45865 177.227 6.06198 177.227 5.66998C177.236 5.26865 177.222 4.87198 177.185 4.47998C177.175 4.29332 177.124 4.16265 177.031 4.08798C176.937 4.00398 176.797 3.96198 176.611 3.96198C176.536 3.96198 176.457 3.97132 176.373 3.98998C176.298 3.99932 176.219 4.00398 176.135 4.00398C176.06 4.00398 176.023 3.94798 176.023 3.83598C176.023 3.77065 176.055 3.72398 176.121 3.69598C176.214 3.66798 176.312 3.64932 176.415 3.63998C176.517 3.62132 176.615 3.60732 176.709 3.59798C176.961 3.55132 177.213 3.50465 177.465 3.45798C177.717 3.41132 177.969 3.35532 178.221 3.28998C178.305 3.31798 178.365 3.36932 178.403 3.44398C178.421 3.48132 178.435 3.58398 178.445 3.75198C178.454 3.91998 178.459 4.11598 178.459 4.33998C178.459 4.55465 178.459 4.75998 178.459 4.95598C178.459 5.14265 178.459 5.27332 178.459 5.34798C178.664 5.02132 178.897 4.69465 179.159 4.36798C179.42 4.04132 179.719 3.77065 180.055 3.55598C180.391 3.34132 180.769 3.23398 181.189 3.23398C181.413 3.23398 181.557 3.30398 181.623 3.44398C181.688 3.58398 181.73 3.74732 181.749 3.93398C181.767 4.03665 181.781 4.14398 181.791 4.25598C181.809 4.36798 181.819 4.47532 181.819 4.57798ZM186.387 10.598C186.387 10.6447 186.373 10.6913 186.345 10.738C186.317 10.7753 186.28 10.794 186.233 10.794C185.972 10.794 185.711 10.7893 185.449 10.78C185.197 10.7613 184.936 10.752 184.665 10.752H184.287C184.007 10.752 183.727 10.7613 183.447 10.78C183.177 10.7893 182.906 10.794 182.635 10.794C182.598 10.794 182.57 10.7707 182.551 10.724C182.542 10.6773 182.537 10.64 182.537 10.612C182.537 10.5653 182.542 10.5327 182.551 10.514C182.561 10.486 182.589 10.4673 182.635 10.458C182.682 10.4393 182.733 10.4347 182.789 10.444C182.855 10.444 182.915 10.444 182.971 10.444C183.037 10.444 183.097 10.4487 183.153 10.458C183.209 10.458 183.27 10.458 183.335 10.458C183.466 10.458 183.583 10.43 183.685 10.374C183.797 10.3087 183.853 10.2013 183.853 10.052V4.45198C183.853 4.29332 183.825 4.17198 183.769 4.08798C183.713 3.99465 183.597 3.94798 183.419 3.94798C183.289 3.94798 183.153 3.95732 183.013 3.97598C182.883 3.98532 182.752 3.99932 182.621 4.01798C182.547 4.01798 182.509 3.97598 182.509 3.89198C182.509 3.79865 182.547 3.73798 182.621 3.70998C182.733 3.67265 182.85 3.64932 182.971 3.63998C183.102 3.62132 183.223 3.60265 183.335 3.58398C183.597 3.53732 183.858 3.48598 184.119 3.42998C184.381 3.37398 184.637 3.31332 184.889 3.24798C184.917 3.23865 184.955 3.23398 185.001 3.23398C185.104 3.23398 185.155 3.28998 185.155 3.40198C185.155 4.50332 185.151 5.60932 185.141 6.71998C185.141 7.83065 185.141 8.94132 185.141 10.052C185.141 10.2013 185.207 10.3087 185.337 10.374C185.477 10.43 185.608 10.458 185.729 10.458C185.823 10.458 185.916 10.4533 186.009 10.444C186.112 10.4347 186.21 10.43 186.303 10.43C186.341 10.43 186.364 10.4533 186.373 10.5C186.383 10.5467 186.387 10.5793 186.387 10.598ZM185.253 0.909983C185.253 1.14332 185.169 1.34398 185.001 1.51198C184.833 1.67065 184.633 1.74998 184.399 1.74998C184.166 1.74998 183.965 1.67065 183.797 1.51198C183.629 1.34398 183.545 1.14332 183.545 0.909983C183.545 0.676649 183.629 0.48065 183.797 0.321983C183.965 0.153983 184.166 0.0699831 184.399 0.0699831C184.633 0.0699831 184.833 0.153983 185.001 0.321983C185.169 0.48065 185.253 0.676649 185.253 0.909983ZM193.356 7.11198C193.356 6.71065 193.323 6.30932 193.258 5.90798C193.202 5.49732 193.09 5.11932 192.922 4.77398C192.763 4.42865 192.53 4.15332 192.222 3.94798C191.914 3.73332 191.513 3.62598 191.018 3.62598C190.551 3.62598 190.169 3.73798 189.87 3.96198C189.581 4.18598 189.352 4.47532 189.184 4.82998C189.025 5.18465 188.913 5.56732 188.848 5.97798C188.792 6.38865 188.764 6.77598 188.764 7.13998C188.764 7.54132 188.792 7.94265 188.848 8.34398C188.913 8.74532 189.03 9.10932 189.198 9.43598C189.366 9.75332 189.604 10.01 189.912 10.206C190.229 10.402 190.635 10.5 191.13 10.5C191.615 10.5 192.003 10.3973 192.292 10.192C192.591 9.98665 192.815 9.71598 192.964 9.37998C193.123 9.04398 193.225 8.67998 193.272 8.28798C193.328 7.88665 193.356 7.49465 193.356 7.11198ZM194.798 7.15398C194.798 7.85398 194.63 8.48398 194.294 9.04398C193.967 9.60398 193.519 10.0473 192.95 10.374C192.39 10.7007 191.76 10.864 191.06 10.864C190.379 10.864 189.763 10.7007 189.212 10.374C188.661 10.038 188.223 9.59465 187.896 9.04398C187.569 8.48398 187.406 7.86332 187.406 7.18198C187.406 6.48198 187.565 5.83798 187.882 5.24998C188.199 4.65265 188.633 4.17198 189.184 3.80798C189.744 3.44398 190.388 3.26198 191.116 3.26198C191.9 3.26198 192.567 3.42998 193.118 3.76598C193.669 4.09265 194.084 4.54998 194.364 5.13798C194.653 5.71665 194.798 6.38865 194.798 7.15398ZM198.874 9.78598C198.874 10.0473 198.776 10.2667 198.58 10.444C198.384 10.6213 198.155 10.71 197.894 10.71C197.632 10.71 197.404 10.6213 197.208 10.444C197.012 10.2667 196.914 10.0473 196.914 9.78598C196.914 9.51532 197.012 9.29132 197.208 9.11398C197.404 8.93665 197.632 8.84798 197.894 8.84798C198.155 8.84798 198.384 8.93665 198.58 9.11398C198.776 9.29132 198.874 9.51532 198.874 9.78598ZM203.768 9.78598C203.768 10.0473 203.67 10.2667 203.474 10.444C203.278 10.6213 203.049 10.71 202.788 10.71C202.527 10.71 202.298 10.6213 202.102 10.444C201.906 10.2667 201.808 10.0473 201.808 9.78598C201.808 9.51532 201.906 9.29132 202.102 9.11398C202.298 8.93665 202.527 8.84798 202.788 8.84798C203.049 8.84798 203.278 8.93665 203.474 9.11398C203.67 9.29132 203.768 9.51532 203.768 9.78598ZM208.663 9.78598C208.663 10.0473 208.565 10.2667 208.369 10.444C208.173 10.6213 207.944 10.71 207.683 10.71C207.421 10.71 207.193 10.6213 206.997 10.444C206.801 10.2667 206.703 10.0473 206.703 9.78598C206.703 9.51532 206.801 9.29132 206.997 9.11398C207.193 8.93665 207.421 8.84798 207.683 8.84798C207.944 8.84798 208.173 8.93665 208.369 9.11398C208.565 9.29132 208.663 9.51532 208.663 9.78598Z" fill="#767676"/>
</svg>
