<svg width="168" height="14" viewBox="0 0 168 14" fill="none" xmlns="http://www.w3.org/2000/svg">
<path d="M8.88999 5.47404C8.88999 5.08204 8.84799 4.67137 8.76399 4.24204C8.68933 3.80337 8.56799 3.38337 8.39999 2.98204C8.23199 2.5807 8.00799 2.24004 7.72799 1.96004C7.46666 1.6987 7.15866 1.47937 6.80399 1.30204C6.45866 1.11537 6.09933 1.00337 5.72599 0.966037C5.61399 0.94737 5.49733 0.938036 5.37599 0.938036C5.26399 0.938036 5.15199 0.938036 5.03999 0.938036C4.67599 0.938036 4.31199 0.942703 3.94799 0.952036C3.59333 0.96137 3.23399 0.970704 2.86999 0.980037V9.59004C2.86999 9.87004 2.96333 10.052 3.14999 10.136C3.33666 10.22 3.54666 10.262 3.77999 10.262C4.15333 10.262 4.53599 10.248 4.92799 10.22C5.32933 10.192 5.71666 10.1267 6.08999 10.024C6.47266 9.91204 6.82266 9.73937 7.13999 9.50604C7.78399 9.03004 8.23666 8.4327 8.49799 7.71404C8.75933 6.98604 8.88999 6.23937 8.88999 5.47404ZM10.444 5.26404C10.444 6.18804 10.248 7.06537 9.85599 7.89604C9.47333 8.7267 8.88066 9.38937 8.07799 9.88404C7.75133 10.08 7.37333 10.2434 6.94399 10.374C6.52399 10.4954 6.09466 10.584 5.65599 10.64C5.21733 10.696 4.80666 10.724 4.42399 10.724C4.08799 10.724 3.74733 10.7147 3.40199 10.696C3.06599 10.6774 2.72533 10.668 2.37999 10.668C2.10933 10.668 1.83399 10.6727 1.55399 10.682C1.27399 10.682 0.998661 10.6914 0.727994 10.71C0.681328 10.7194 0.634661 10.724 0.587994 10.724C0.541327 10.724 0.494661 10.724 0.447994 10.724C0.391994 10.724 0.359328 10.7007 0.349994 10.654C0.340661 10.6074 0.335994 10.5654 0.335994 10.528C0.335994 10.4627 0.382661 10.416 0.475994 10.388C0.578661 10.36 0.685994 10.3367 0.797994 10.318C0.919328 10.2994 1.00333 10.276 1.04999 10.248C1.20866 10.164 1.31133 10.0427 1.35799 9.88404C1.41399 9.71604 1.44199 9.54804 1.44199 9.38004C1.44199 8.8667 1.44199 8.35804 1.44199 7.85404C1.45133 7.3407 1.45599 6.82737 1.45599 6.31404V5.02604C1.45599 4.5127 1.45599 4.00404 1.45599 3.50004C1.45599 2.99604 1.45599 2.48737 1.45599 1.97404C1.45599 1.61937 1.41399 1.36737 1.32999 1.21804C1.24599 1.0687 1.01266 0.994037 0.629994 0.994037C0.564661 0.994037 0.499328 0.998703 0.433994 1.00804C0.377994 1.00804 0.317327 1.00804 0.251994 1.00804C0.186661 1.00804 0.125994 0.98937 0.0699942 0.952036C0.0233275 0.90537 -5.84498e-06 0.84937 -5.84498e-06 0.784037C-5.84498e-06 0.634703 0.0746608 0.560036 0.223994 0.560036C0.438661 0.560036 0.653328 0.56937 0.867994 0.588037C1.08266 0.59737 1.29266 0.602037 1.49799 0.602037C2.18866 0.602037 2.87933 0.58337 3.56999 0.546036C4.26999 0.49937 4.96533 0.476037 5.65599 0.476037C6.65466 0.476037 7.50866 0.66737 8.21799 1.05004C8.93666 1.4327 9.48733 1.98337 9.86999 2.70204C10.2527 3.41137 10.444 4.26537 10.444 5.26404ZM15.53 10.528C15.53 10.5747 15.516 10.6214 15.488 10.668C15.46 10.7054 15.4227 10.724 15.376 10.724C15.1147 10.724 14.8534 10.7194 14.592 10.71C14.34 10.6914 14.0787 10.682 13.808 10.682H13.43C13.15 10.682 12.87 10.6914 12.59 10.71C12.3194 10.7194 12.0487 10.724 11.778 10.724C11.7407 10.724 11.7127 10.7007 11.694 10.654C11.6847 10.6074 11.68 10.57 11.68 10.542C11.68 10.4954 11.6847 10.4627 11.694 10.444C11.7034 10.416 11.7314 10.3974 11.778 10.388C11.8247 10.3694 11.876 10.3647 11.932 10.374C11.9974 10.374 12.058 10.374 12.114 10.374C12.1794 10.374 12.24 10.3787 12.296 10.388C12.352 10.388 12.4127 10.388 12.478 10.388C12.6087 10.388 12.7254 10.36 12.828 10.304C12.94 10.2387 12.996 10.1314 12.996 9.98204V4.38204C12.996 4.22337 12.968 4.10204 12.912 4.01804C12.856 3.9247 12.7394 3.87804 12.562 3.87804C12.4314 3.87804 12.296 3.88737 12.156 3.90604C12.0254 3.91537 11.8947 3.92937 11.764 3.94804C11.6894 3.94804 11.652 3.90604 11.652 3.82204C11.652 3.7287 11.6894 3.66804 11.764 3.64004C11.876 3.6027 11.9927 3.57937 12.114 3.57004C12.2447 3.55137 12.366 3.5327 12.478 3.51404C12.7394 3.46737 13.0007 3.41604 13.262 3.36004C13.5234 3.30404 13.78 3.24337 14.032 3.17804C14.06 3.1687 14.0974 3.16404 14.144 3.16404C14.2467 3.16404 14.298 3.22004 14.298 3.33204C14.298 4.43337 14.2934 5.53937 14.284 6.65004C14.284 7.7607 14.284 8.87137 14.284 9.98204C14.284 10.1314 14.3494 10.2387 14.48 10.304C14.62 10.36 14.7507 10.388 14.872 10.388C14.9654 10.388 15.0587 10.3834 15.152 10.374C15.2547 10.3647 15.3527 10.36 15.446 10.36C15.4834 10.36 15.5067 10.3834 15.516 10.43C15.5254 10.4767 15.53 10.5094 15.53 10.528ZM14.396 0.840037C14.396 1.07337 14.312 1.27404 14.144 1.44204C13.976 1.6007 13.7754 1.68004 13.542 1.68004C13.3087 1.68004 13.108 1.6007 12.94 1.44204C12.772 1.27404 12.688 1.07337 12.688 0.840037C12.688 0.606703 12.772 0.410703 12.94 0.252037C13.108 0.0840369 13.3087 3.68357e-05 13.542 3.68357e-05C13.7754 3.68357e-05 13.976 0.0840369 14.144 0.252037C14.312 0.410703 14.396 0.606703 14.396 0.840037ZM21.6865 11.186C21.6865 10.8127 21.5792 10.5467 21.3645 10.388C21.1592 10.22 20.9072 10.1127 20.6085 10.066C20.3099 10.01 20.0205 9.96804 19.7405 9.94004L18.1725 9.78604C17.9672 10.01 17.8132 10.234 17.7105 10.458C17.6172 10.6727 17.5705 10.934 17.5705 11.242C17.5705 11.69 17.6779 12.012 17.8925 12.208C18.1165 12.4134 18.3965 12.544 18.7325 12.6C19.0685 12.656 19.4092 12.684 19.7545 12.684C20.0905 12.684 20.4032 12.6374 20.6925 12.544C20.9912 12.4507 21.2292 12.292 21.4065 12.068C21.5932 11.8534 21.6865 11.5594 21.6865 11.186ZM21.0005 5.58604C21.0005 5.2967 20.9679 4.9887 20.9025 4.66204C20.8372 4.33537 20.7065 4.05537 20.5105 3.82204C20.3239 3.5887 20.0485 3.47204 19.6845 3.47204C19.2739 3.47204 18.9565 3.57937 18.7325 3.79404C18.5085 3.99937 18.3545 4.26537 18.2705 4.59204C18.1959 4.90937 18.1585 5.2407 18.1585 5.58604C18.1585 5.95004 18.1912 6.29537 18.2565 6.62204C18.3312 6.93937 18.4759 7.2007 18.6905 7.40604C18.9145 7.61137 19.2459 7.71404 19.6845 7.71404C19.9552 7.71404 20.1745 7.64404 20.3425 7.50404C20.5199 7.36404 20.6552 7.1867 20.7485 6.97204C20.8419 6.74804 20.9072 6.5147 20.9445 6.27204C20.9819 6.02937 21.0005 5.8007 21.0005 5.58604ZM23.4925 3.29004C23.4925 3.48604 23.4505 3.62137 23.3665 3.69604C23.2919 3.76137 23.1892 3.7987 23.0585 3.80804C22.9372 3.80804 22.8065 3.80804 22.6665 3.80804C22.4612 3.80804 22.2512 3.80804 22.0365 3.80804C21.8312 3.7987 21.6212 3.78937 21.4065 3.78004C21.7052 4.01337 21.9245 4.29337 22.0645 4.62004C22.2139 4.9467 22.2885 5.2967 22.2885 5.67004C22.2885 6.12737 22.1579 6.53337 21.8965 6.88804C21.6445 7.23337 21.3179 7.50404 20.9165 7.70004C20.5152 7.89604 20.0999 7.99404 19.6705 7.99404C19.5212 7.99404 19.3765 7.98937 19.2365 7.98004C19.0965 7.96137 18.9519 7.94737 18.8025 7.93804C18.6812 8.05004 18.5412 8.17137 18.3825 8.30204C18.2332 8.4327 18.1585 8.59137 18.1585 8.77804C18.1585 8.92737 18.2285 9.03937 18.3685 9.11404C18.5179 9.17937 18.6812 9.22604 18.8585 9.25404C19.0359 9.28204 19.1759 9.3007 19.2785 9.31004L21.0565 9.43604C21.3739 9.46404 21.6819 9.53404 21.9805 9.64604C22.2885 9.7487 22.5452 9.91204 22.7505 10.136C22.9559 10.3507 23.0585 10.6447 23.0585 11.018C23.0585 11.41 22.9419 11.7367 22.7085 11.998C22.4845 12.2594 22.1905 12.4694 21.8265 12.628C21.4719 12.7867 21.1032 12.8987 20.7205 12.964C20.3379 13.0294 19.9925 13.062 19.6845 13.062C19.4419 13.062 19.1385 13.048 18.7745 13.02C18.4105 13.0014 18.0512 12.9454 17.6965 12.852C17.3419 12.7587 17.0432 12.6094 16.8005 12.404C16.5672 12.208 16.4505 11.9374 16.4505 11.592C16.4505 11.34 16.5112 11.102 16.6325 10.878C16.7539 10.6634 16.9032 10.4627 17.0805 10.276C17.2672 10.0894 17.4492 9.92604 17.6265 9.78604C17.5239 9.73937 17.3839 9.66937 17.2065 9.57604C17.0385 9.47337 16.9545 9.3567 16.9545 9.22604C16.9545 9.06737 17.0385 8.89004 17.2065 8.69404C17.3839 8.49804 17.5752 8.31137 17.7805 8.13404C17.9859 7.94737 18.1445 7.8027 18.2565 7.70004C17.7805 7.47604 17.4259 7.19137 17.1925 6.84604C16.9685 6.49137 16.8565 6.0527 16.8565 5.53004C16.8565 5.0447 16.9919 4.62937 17.2625 4.28404C17.5425 3.92937 17.8925 3.6587 18.3125 3.47204C18.7419 3.27604 19.1759 3.17804 19.6145 3.17804C19.7732 3.17804 19.9319 3.19204 20.0905 3.22004C20.2492 3.2387 20.4032 3.27137 20.5525 3.31804C20.6272 3.3367 20.7065 3.3647 20.7905 3.40204C20.8839 3.43004 20.9679 3.4487 21.0425 3.45804C21.1079 3.46737 21.1685 3.47204 21.2245 3.47204C21.2899 3.47204 21.3552 3.47204 21.4205 3.47204C21.7565 3.47204 22.0785 3.4487 22.3865 3.40204C22.6945 3.34604 22.9699 3.18737 23.2125 2.92604C23.2685 2.87004 23.3152 2.84204 23.3525 2.84204C23.4272 2.84204 23.4692 2.90737 23.4785 3.03804C23.4879 3.15937 23.4925 3.24337 23.4925 3.29004ZM28.0672 10.528C28.0672 10.5747 28.0532 10.6214 28.0252 10.668C27.9972 10.7054 27.9598 10.724 27.9132 10.724C27.6518 10.724 27.3905 10.7194 27.1292 10.71C26.8772 10.6914 26.6158 10.682 26.3452 10.682H25.9672C25.6872 10.682 25.4072 10.6914 25.1272 10.71C24.8565 10.7194 24.5858 10.724 24.3152 10.724C24.2778 10.724 24.2498 10.7007 24.2312 10.654C24.2218 10.6074 24.2172 10.57 24.2172 10.542C24.2172 10.4954 24.2218 10.4627 24.2312 10.444C24.2405 10.416 24.2685 10.3974 24.3152 10.388C24.3618 10.3694 24.4132 10.3647 24.4692 10.374C24.5345 10.374 24.5952 10.374 24.6512 10.374C24.7165 10.374 24.7772 10.3787 24.8332 10.388C24.8892 10.388 24.9498 10.388 25.0152 10.388C25.1458 10.388 25.2625 10.36 25.3652 10.304C25.4772 10.2387 25.5332 10.1314 25.5332 9.98204V4.38204C25.5332 4.22337 25.5052 4.10204 25.4492 4.01804C25.3932 3.9247 25.2765 3.87804 25.0992 3.87804C24.9685 3.87804 24.8332 3.88737 24.6932 3.90604C24.5625 3.91537 24.4318 3.92937 24.3012 3.94804C24.2265 3.94804 24.1892 3.90604 24.1892 3.82204C24.1892 3.7287 24.2265 3.66804 24.3012 3.64004C24.4132 3.6027 24.5298 3.57937 24.6512 3.57004C24.7818 3.55137 24.9032 3.5327 25.0152 3.51404C25.2765 3.46737 25.5378 3.41604 25.7992 3.36004C26.0605 3.30404 26.3172 3.24337 26.5692 3.17804C26.5972 3.1687 26.6345 3.16404 26.6812 3.16404C26.7838 3.16404 26.8352 3.22004 26.8352 3.33204C26.8352 4.43337 26.8305 5.53937 26.8212 6.65004C26.8212 7.7607 26.8212 8.87137 26.8212 9.98204C26.8212 10.1314 26.8865 10.2387 27.0172 10.304C27.1572 10.36 27.2878 10.388 27.4092 10.388C27.5025 10.388 27.5958 10.3834 27.6892 10.374C27.7918 10.3647 27.8898 10.36 27.9832 10.36C28.0205 10.36 28.0438 10.3834 28.0532 10.43C28.0625 10.4767 28.0672 10.5094 28.0672 10.528ZM26.9332 0.840037C26.9332 1.07337 26.8492 1.27404 26.6812 1.44204C26.5132 1.6007 26.3125 1.68004 26.0792 1.68004C25.8458 1.68004 25.6452 1.6007 25.4772 1.44204C25.3092 1.27404 25.2252 1.07337 25.2252 0.840037C25.2252 0.606703 25.3092 0.410703 25.4772 0.252037C25.6452 0.0840369 25.8458 3.68357e-05 26.0792 3.68357e-05C26.3125 3.68357e-05 26.5132 0.0840369 26.6812 0.252037C26.8492 0.410703 26.9332 0.606703 26.9332 0.840037ZM33.5377 10.094C33.5377 10.178 33.4723 10.262 33.3417 10.346C33.2203 10.43 33.071 10.5047 32.8937 10.57C32.7163 10.6354 32.5437 10.6867 32.3757 10.724C32.217 10.7614 32.1003 10.78 32.0257 10.78C31.5403 10.78 31.1623 10.7194 30.8917 10.598C30.6303 10.4767 30.4437 10.276 30.3317 9.99604C30.229 9.71604 30.1777 9.33804 30.1777 8.86204C30.1777 8.08737 30.1777 7.3127 30.1777 6.53804C30.187 5.75404 30.1963 4.9747 30.2057 4.20004H29.1977C29.1323 4.20004 29.0763 4.2187 29.0297 4.25604C28.9923 4.28404 28.9503 4.29804 28.9037 4.29804C28.857 4.29804 28.8337 4.26537 28.8337 4.20004C28.8337 4.1627 28.857 4.08804 28.9037 3.97604C28.9597 3.86404 28.997 3.78937 29.0157 3.75204C29.0437 3.76137 29.0857 3.76604 29.1417 3.76604H30.2337L30.2477 1.98804C30.4623 1.84804 30.6583 1.69404 30.8357 1.52604C31.013 1.3487 31.1903 1.17137 31.3677 0.994037C31.3863 0.97537 31.405 0.96137 31.4237 0.952036C31.4423 0.93337 31.461 0.924037 31.4797 0.924037C31.5637 0.924037 31.6057 0.956703 31.6057 1.02204L31.5217 3.75204C31.8203 3.75204 32.1143 3.74737 32.4037 3.73804C32.7023 3.7287 32.9963 3.72404 33.2857 3.72404C33.407 3.72404 33.4677 3.79404 33.4677 3.93404C33.4677 4.11137 33.3883 4.20004 33.2297 4.20004H31.5217C31.5217 4.90937 31.517 5.62337 31.5077 6.34204C31.5077 7.05137 31.5077 7.76537 31.5077 8.48404V9.56204C31.5077 9.79537 31.6057 9.9587 31.8017 10.052C31.9977 10.136 32.189 10.178 32.3757 10.178C32.637 10.178 32.8937 10.136 33.1457 10.052C33.1737 10.0334 33.2157 10.0147 33.2717 9.99604C33.3277 9.97737 33.3697 9.96804 33.3977 9.96804C33.491 9.96804 33.5377 10.01 33.5377 10.094ZM39.3626 5.82404C39.3533 5.44137 39.3206 5.07737 39.2646 4.73204C39.2086 4.37737 39.0733 4.08804 38.8586 3.86404C38.644 3.6307 38.294 3.51404 37.8086 3.51404C37.37 3.51404 37.0106 3.63537 36.7306 3.87804C36.46 4.11137 36.25 4.41004 36.1006 4.77404C35.9513 5.1287 35.8393 5.4927 35.7646 5.86604C35.998 5.87537 36.2266 5.8847 36.4506 5.89404C36.6746 5.89404 36.8986 5.89404 37.1226 5.89404C37.496 5.89404 37.8693 5.88937 38.2426 5.88004C38.616 5.86137 38.9893 5.8427 39.3626 5.82404ZM40.9726 9.03004C40.9726 9.0767 40.9633 9.1047 40.9446 9.11404C40.9166 9.20737 40.8466 9.31937 40.7346 9.45004C40.632 9.5807 40.5153 9.7067 40.3846 9.82804C40.254 9.94004 40.1466 10.024 40.0626 10.08C39.7546 10.2947 39.4046 10.4674 39.0126 10.598C38.63 10.7287 38.2473 10.794 37.8646 10.794C37.5473 10.794 37.1926 10.7427 36.8006 10.64C36.418 10.5374 36.0913 10.3974 35.8206 10.22C35.298 9.8747 34.9153 9.42204 34.6726 8.86204C34.43 8.30204 34.3086 7.7187 34.3086 7.11204C34.3086 6.42137 34.444 5.78204 34.7146 5.19404C34.9853 4.60604 35.4193 4.13004 36.0166 3.76604C36.2873 3.60737 36.5906 3.4767 36.9266 3.37404C37.2626 3.26204 37.5846 3.20604 37.8926 3.20604C38.4433 3.20604 38.9286 3.31804 39.3486 3.54204C39.7686 3.76604 40.0953 4.08337 40.3286 4.49404C40.5713 4.89537 40.6926 5.37604 40.6926 5.93604C40.6926 6.0947 40.6553 6.19737 40.5806 6.24404C40.5153 6.2907 40.4126 6.31404 40.2726 6.31404C40.086 6.31404 39.8993 6.30937 39.7126 6.30004C39.526 6.2907 39.3393 6.28137 39.1526 6.27204C38.8913 6.25337 38.63 6.24404 38.3686 6.24404C38.1166 6.24404 37.86 6.24404 37.5986 6.24404C37.2813 6.24404 36.964 6.24404 36.6466 6.24404C36.3293 6.24404 36.012 6.25337 35.6946 6.27204C35.6853 6.42137 35.676 6.56604 35.6666 6.70604C35.6573 6.84604 35.6526 6.9907 35.6526 7.14004C35.6526 7.48537 35.6946 7.8447 35.7786 8.21804C35.8626 8.58204 35.998 8.9227 36.1846 9.24004C36.3713 9.54804 36.6093 9.80004 36.8986 9.99604C37.188 10.1827 37.538 10.276 37.9486 10.276C38.3686 10.276 38.77 10.2107 39.1526 10.08C39.5353 9.94937 39.8853 9.73937 40.2026 9.45004C40.2866 9.36604 40.3613 9.27737 40.4266 9.18404C40.5013 9.08137 40.5806 8.9927 40.6646 8.91804C40.7113 8.87137 40.7626 8.84804 40.8186 8.84804C40.8653 8.84804 40.9026 8.8667 40.9306 8.90404C40.9586 8.94137 40.9726 8.98337 40.9726 9.03004ZM51.3735 7.04204C51.3735 6.6407 51.3409 6.23937 51.2755 5.83804C51.2195 5.42737 51.1075 5.04937 50.9395 4.70404C50.7809 4.3587 50.5475 4.08337 50.2395 3.87804C49.9315 3.66337 49.5302 3.55604 49.0355 3.55604C48.5689 3.55604 48.1862 3.66804 47.8875 3.89204C47.5982 4.11604 47.3695 4.40537 47.2015 4.76004C47.0429 5.1147 46.9309 5.49737 46.8655 5.90804C46.8095 6.3187 46.7815 6.70604 46.7815 7.07004C46.7815 7.47137 46.8095 7.8727 46.8655 8.27404C46.9309 8.67537 47.0475 9.03937 47.2155 9.36604C47.3835 9.68337 47.6215 9.94004 47.9295 10.136C48.2469 10.332 48.6529 10.43 49.1475 10.43C49.6329 10.43 50.0202 10.3274 50.3095 10.122C50.6082 9.9167 50.8322 9.64604 50.9815 9.31004C51.1402 8.97404 51.2429 8.61004 51.2895 8.21804C51.3455 7.8167 51.3735 7.4247 51.3735 7.04204ZM52.8155 7.08404C52.8155 7.78404 52.6475 8.41404 52.3115 8.97404C51.9849 9.53404 51.5369 9.97737 50.9675 10.304C50.4075 10.6307 49.7775 10.794 49.0775 10.794C48.3962 10.794 47.7802 10.6307 47.2295 10.304C46.6789 9.96804 46.2402 9.5247 45.9135 8.97404C45.5869 8.41404 45.4235 7.79337 45.4235 7.11204C45.4235 6.41204 45.5822 5.76804 45.8995 5.18004C46.2169 4.5827 46.6509 4.10204 47.2015 3.73804C47.7615 3.37404 48.4055 3.19204 49.1335 3.19204C49.9175 3.19204 50.5849 3.36004 51.1355 3.69604C51.6862 4.0227 52.1015 4.48004 52.3815 5.06804C52.6709 5.6467 52.8155 6.3187 52.8155 7.08404ZM62.7572 8.73604C62.7572 9.15604 62.6638 9.50137 62.4772 9.77204C62.2905 10.0334 62.0478 10.234 61.7492 10.374C61.4505 10.514 61.1238 10.612 60.7692 10.668C60.4145 10.724 60.0692 10.752 59.7332 10.752C59.4252 10.752 59.1172 10.7194 58.8092 10.654C58.5105 10.5887 58.2072 10.542 57.8992 10.514C57.8338 10.262 57.7685 10.01 57.7032 9.75804C57.6472 9.50604 57.5818 9.2587 57.5072 9.01604C57.4978 8.98804 57.4745 8.9227 57.4372 8.82004C57.4092 8.71737 57.3952 8.66137 57.3952 8.65204C57.3952 8.57737 57.4185 8.52604 57.4652 8.49804C57.5118 8.4607 57.5678 8.44204 57.6332 8.44204C57.6985 8.44204 57.7452 8.46537 57.7732 8.51204C57.8292 8.57737 57.8758 8.66604 57.9132 8.77804C57.9598 8.89004 58.0018 8.98804 58.0392 9.07204C58.1138 9.22137 58.1792 9.33804 58.2352 9.42204C58.2912 9.4967 58.3798 9.5947 58.5012 9.71604C58.8652 10.0987 59.3178 10.29 59.8592 10.29C60.1578 10.29 60.4285 10.2574 60.6712 10.192C60.9232 10.1267 61.1238 10.0054 61.2732 9.82804C61.4225 9.64137 61.4972 9.37537 61.4972 9.03004C61.4972 8.73137 61.4038 8.48404 61.2172 8.28804C61.0305 8.0827 60.7878 7.9007 60.4892 7.74204C60.1998 7.58337 59.8918 7.42937 59.5652 7.28004C59.2385 7.1307 58.9258 6.96737 58.6272 6.79004C58.3378 6.60337 58.0998 6.37937 57.9132 6.11804C57.7265 5.8567 57.6332 5.53937 57.6332 5.16604C57.6332 4.7087 57.7498 4.33537 57.9832 4.04604C58.2258 3.7567 58.5338 3.54204 58.9072 3.40204C59.2805 3.2527 59.6678 3.17804 60.0692 3.17804C60.3305 3.17804 60.5638 3.2107 60.7692 3.27604C60.9838 3.34137 61.2078 3.41604 61.4412 3.50004C61.5158 3.52804 61.5905 3.5467 61.6652 3.55604C61.7398 3.56537 61.8145 3.57004 61.8892 3.57004C61.9358 3.57004 61.9778 3.57004 62.0152 3.57004C62.0525 3.57004 62.0898 3.56537 62.1272 3.55604C62.1552 3.72404 62.1785 3.8967 62.1972 4.07404C62.2252 4.24204 62.2485 4.4147 62.2672 4.59204C62.2765 4.65737 62.2858 4.7367 62.2952 4.83004C62.3138 4.91404 62.3232 4.99337 62.3232 5.06804C62.3232 5.13337 62.3092 5.20337 62.2812 5.27804C62.2532 5.34337 62.1972 5.37604 62.1132 5.37604C62.0478 5.37604 61.9918 5.37137 61.9452 5.36204C61.9078 5.34337 61.8752 5.30137 61.8472 5.23604C61.8005 5.1427 61.7585 5.0447 61.7212 4.94204C61.6932 4.83004 61.6605 4.72737 61.6232 4.63404C61.5018 4.30737 61.2918 4.04604 60.9932 3.85004C60.6945 3.6447 60.3725 3.54204 60.0272 3.54204C59.5885 3.54204 59.2572 3.6727 59.0332 3.93404C58.8092 4.18604 58.6972 4.5267 58.6972 4.95604C58.6972 5.10537 58.7345 5.25004 58.8092 5.39004C58.8932 5.53004 58.9865 5.65137 59.0892 5.75404C59.2852 5.9407 59.5138 6.08537 59.7752 6.18804C60.0458 6.2907 60.3025 6.39337 60.5452 6.49604C60.8625 6.63604 61.1892 6.80404 61.5252 7.00004C61.8705 7.19604 62.1598 7.43404 62.3932 7.71404C62.6358 7.99404 62.7572 8.3347 62.7572 8.73604ZM68.9212 5.82404C68.9119 5.44137 68.8792 5.07737 68.8232 4.73204C68.7672 4.37737 68.6319 4.08804 68.4172 3.86404C68.2026 3.6307 67.8526 3.51404 67.3672 3.51404C66.9286 3.51404 66.5692 3.63537 66.2892 3.87804C66.0186 4.11137 65.8086 4.41004 65.6592 4.77404C65.5099 5.1287 65.3979 5.4927 65.3232 5.86604C65.5566 5.87537 65.7852 5.8847 66.0092 5.89404C66.2332 5.89404 66.4572 5.89404 66.6812 5.89404C67.0546 5.89404 67.4279 5.88937 67.8012 5.88004C68.1746 5.86137 68.5479 5.8427 68.9212 5.82404ZM70.5312 9.03004C70.5312 9.0767 70.5219 9.1047 70.5032 9.11404C70.4752 9.20737 70.4052 9.31937 70.2932 9.45004C70.1906 9.5807 70.0739 9.7067 69.9432 9.82804C69.8126 9.94004 69.7052 10.024 69.6212 10.08C69.3132 10.2947 68.9632 10.4674 68.5712 10.598C68.1886 10.7287 67.8059 10.794 67.4232 10.794C67.1059 10.794 66.7512 10.7427 66.3592 10.64C65.9766 10.5374 65.6499 10.3974 65.3792 10.22C64.8566 9.8747 64.4739 9.42204 64.2312 8.86204C63.9886 8.30204 63.8672 7.7187 63.8672 7.11204C63.8672 6.42137 64.0026 5.78204 64.2732 5.19404C64.5439 4.60604 64.9779 4.13004 65.5752 3.76604C65.8459 3.60737 66.1492 3.4767 66.4852 3.37404C66.8212 3.26204 67.1432 3.20604 67.4512 3.20604C68.0019 3.20604 68.4872 3.31804 68.9072 3.54204C69.3272 3.76604 69.6539 4.08337 69.8872 4.49404C70.1299 4.89537 70.2512 5.37604 70.2512 5.93604C70.2512 6.0947 70.2139 6.19737 70.1392 6.24404C70.0739 6.2907 69.9712 6.31404 69.8312 6.31404C69.6446 6.31404 69.4579 6.30937 69.2712 6.30004C69.0846 6.2907 68.8979 6.28137 68.7112 6.27204C68.4499 6.25337 68.1886 6.24404 67.9272 6.24404C67.6752 6.24404 67.4186 6.24404 67.1572 6.24404C66.8399 6.24404 66.5226 6.24404 66.2052 6.24404C65.8879 6.24404 65.5706 6.25337 65.2532 6.27204C65.2439 6.42137 65.2346 6.56604 65.2252 6.70604C65.2159 6.84604 65.2112 6.9907 65.2112 7.14004C65.2112 7.48537 65.2532 7.8447 65.3372 8.21804C65.4212 8.58204 65.5566 8.9227 65.7432 9.24004C65.9299 9.54804 66.1679 9.80004 66.4572 9.99604C66.7466 10.1827 67.0966 10.276 67.5072 10.276C67.9272 10.276 68.3286 10.2107 68.7112 10.08C69.0939 9.94937 69.4439 9.73937 69.7612 9.45004C69.8452 9.36604 69.9199 9.27737 69.9852 9.18404C70.0599 9.08137 70.1392 8.9927 70.2232 8.91804C70.2699 8.87137 70.3212 8.84804 70.3772 8.84804C70.4239 8.84804 70.4612 8.8667 70.4892 8.90404C70.5172 8.94137 70.5312 8.98337 70.5312 9.03004ZM79.4901 10.36C79.4901 10.472 79.4061 10.556 79.2381 10.612C79.0795 10.668 78.9021 10.7054 78.7061 10.724C78.5101 10.7427 78.3701 10.752 78.2861 10.752C77.9688 10.752 77.7168 10.626 77.5301 10.374C77.3435 10.122 77.2035 9.8607 77.1101 9.59004C76.7928 9.99137 76.3961 10.29 75.9201 10.486C75.4441 10.682 74.9495 10.78 74.4361 10.78C73.5961 10.78 73.0128 10.5654 72.6861 10.136C72.3688 9.69737 72.2101 9.08137 72.2101 8.28804C72.2101 7.58804 72.2101 6.88804 72.2101 6.18804C72.2195 5.4787 72.2288 4.77404 72.2381 4.07404C72.2381 3.79404 72.1028 3.65404 71.8321 3.65404C71.7575 3.65404 71.6828 3.6587 71.6081 3.66804C71.5335 3.67737 71.4588 3.68204 71.3841 3.68204C71.3561 3.68204 71.3328 3.66804 71.3141 3.64004C71.3048 3.6027 71.3001 3.5747 71.3001 3.55604C71.3001 3.45337 71.3468 3.39737 71.4401 3.38804C71.7668 3.3507 72.0935 3.32737 72.4201 3.31804C72.7561 3.29937 73.0875 3.27137 73.4141 3.23404C73.4888 3.3087 73.5261 3.40204 73.5261 3.51404C73.5261 3.74737 73.5215 3.98537 73.5121 4.22804C73.5028 4.4707 73.4981 4.71337 73.4981 4.95604C73.4888 5.52537 73.4795 6.09937 73.4701 6.67804C73.4701 7.24737 73.4701 7.82137 73.4701 8.40004C73.4701 8.57737 73.4748 8.7687 73.4841 8.97404C73.4935 9.17004 73.5308 9.35204 73.5961 9.52004C73.6988 9.78137 73.8901 9.96804 74.1701 10.08C74.4595 10.1827 74.7348 10.234 74.9961 10.234C75.2855 10.234 75.5748 10.1827 75.8641 10.08C76.1628 9.96804 76.4148 9.80937 76.6201 9.60404C76.8348 9.38937 76.9561 9.12337 76.9841 8.80604C77.0028 8.64737 77.0121 8.4887 77.0121 8.33004C77.0215 8.16204 77.0261 7.9987 77.0261 7.84004L77.0121 4.03204C77.0121 3.9107 76.9701 3.82204 76.8861 3.76604C76.8115 3.71004 76.7228 3.68204 76.6201 3.68204C76.5268 3.68204 76.4335 3.6867 76.3401 3.69604C76.2561 3.70537 76.1675 3.71004 76.0741 3.71004C75.9901 3.71004 75.9481 3.66337 75.9481 3.57004C75.9481 3.4767 75.9901 3.42537 76.0741 3.41604C76.1861 3.39737 76.3028 3.38804 76.4241 3.38804C76.5455 3.3787 76.6668 3.36937 76.7881 3.36004L77.7541 3.26204C77.8195 3.2527 77.8848 3.24337 77.9501 3.23404C78.0248 3.2247 78.0948 3.22004 78.1601 3.22004C78.2068 3.22004 78.2395 3.24804 78.2581 3.30404C78.2768 3.3507 78.2861 3.38804 78.2861 3.41604C78.2581 5.44137 78.2441 7.46204 78.2441 9.47804C78.2441 9.71137 78.2955 9.9027 78.3981 10.052C78.5101 10.2014 78.6921 10.276 78.9441 10.276C79.0188 10.276 79.0841 10.2667 79.1401 10.248C79.2055 10.2294 79.2708 10.22 79.3361 10.22C79.4388 10.22 79.4901 10.2667 79.4901 10.36ZM91.7672 10.528C91.7672 10.6494 91.6972 10.71 91.5572 10.71C91.3518 10.71 91.1418 10.7054 90.9272 10.696C90.7125 10.6774 90.4978 10.668 90.2832 10.668C89.9658 10.668 89.6392 10.6774 89.3032 10.696C88.9765 10.7054 88.6498 10.71 88.3232 10.71C88.2858 10.71 88.2625 10.682 88.2532 10.626C88.2438 10.5607 88.2392 10.5094 88.2392 10.472C88.2392 10.3974 88.2858 10.36 88.3792 10.36C88.4725 10.36 88.5472 10.36 88.6032 10.36C88.6498 10.36 88.6965 10.3647 88.7432 10.374C88.7992 10.374 88.8505 10.374 88.8972 10.374C89.1678 10.374 89.3172 10.2387 89.3452 9.96804C89.3732 9.41737 89.3825 8.86204 89.3732 8.30204C89.3732 7.74204 89.3732 7.1867 89.3732 6.63604C89.3732 6.53337 89.3732 6.4307 89.3732 6.32804C89.3732 6.21604 89.3732 6.1087 89.3732 6.00604C89.3638 5.79137 89.3498 5.53004 89.3312 5.22204C89.3125 4.9047 89.2705 4.64804 89.2052 4.45204C89.0558 3.9667 88.7292 3.72404 88.2252 3.72404C87.7678 3.72404 87.3478 3.8407 86.9652 4.07404C86.5825 4.30737 86.2512 4.60137 85.9712 4.95604C85.9618 5.63737 85.9572 6.31404 85.9572 6.98604C85.9572 7.65804 85.9572 8.33004 85.9572 9.00204V9.96804C85.9572 10.108 86.0178 10.2107 86.1392 10.276C86.2605 10.3414 86.3818 10.374 86.5032 10.374C86.5778 10.374 86.6478 10.3694 86.7132 10.36C86.7878 10.3414 86.8578 10.332 86.9232 10.332C86.9605 10.332 86.9838 10.3554 86.9932 10.402C87.0025 10.4487 87.0072 10.486 87.0072 10.514C87.0072 10.5514 86.9932 10.5934 86.9652 10.64C86.9465 10.6867 86.9092 10.71 86.8532 10.71C86.6478 10.71 86.4425 10.7054 86.2372 10.696C86.0412 10.6774 85.8405 10.668 85.6352 10.668C85.3178 10.668 85.0005 10.6774 84.6832 10.696C84.3658 10.7054 84.0438 10.71 83.7172 10.71C83.6705 10.71 83.6425 10.682 83.6332 10.626C83.6332 10.5607 83.6332 10.5094 83.6332 10.472C83.6332 10.3974 83.6752 10.36 83.7592 10.36C83.8432 10.36 83.9085 10.36 83.9552 10.36C84.0018 10.36 84.0485 10.3647 84.0952 10.374C84.1418 10.374 84.1885 10.374 84.2352 10.374C84.5058 10.374 84.6552 10.2387 84.6832 9.96804C84.6925 9.83737 84.6972 9.7067 84.6972 9.57604C84.6972 9.44537 84.6972 9.3147 84.6972 9.18404C84.6972 8.38137 84.6972 7.5787 84.6972 6.77604C84.6972 5.96404 84.6925 5.1567 84.6832 4.35404C84.6832 4.22337 84.6552 4.0927 84.5992 3.96204C84.5432 3.83137 84.4358 3.76604 84.2772 3.76604C84.1558 3.76604 84.0392 3.7847 83.9272 3.82204C83.8152 3.85937 83.6985 3.87804 83.5772 3.87804C83.5118 3.87804 83.4792 3.83137 83.4792 3.73804C83.4792 3.71937 83.4792 3.7007 83.4792 3.68204C83.4885 3.65404 83.4978 3.63537 83.5072 3.62604C83.5165 3.6167 83.5305 3.61204 83.5492 3.61204C83.5678 3.6027 83.5818 3.59337 83.5912 3.58404C83.7592 3.53737 83.9318 3.5047 84.1092 3.48604C84.2958 3.46737 84.4732 3.43937 84.6412 3.40204C84.7998 3.37404 84.9538 3.3367 85.1032 3.29004C85.2525 3.23404 85.4018 3.20604 85.5512 3.20604C85.6165 3.20604 85.6678 3.2387 85.7052 3.30404C85.7518 3.38804 85.7892 3.50937 85.8172 3.66804C85.8452 3.81737 85.8638 3.97137 85.8732 4.13004C85.8918 4.2887 85.9012 4.41937 85.9012 4.52204C86.1065 4.3167 86.3492 4.11604 86.6292 3.92004C86.9185 3.7147 87.2172 3.5467 87.5252 3.41604C87.8425 3.27604 88.1505 3.20604 88.4492 3.20604C89.3078 3.20604 89.8865 3.39737 90.1852 3.78004C90.4932 4.15337 90.6472 4.74604 90.6472 5.55804C90.6472 6.28604 90.6425 7.01404 90.6332 7.74204C90.6332 8.47004 90.6332 9.19804 90.6332 9.92604C90.6332 10.1034 90.6845 10.2247 90.7872 10.29C90.8992 10.346 91.0298 10.374 91.1792 10.374C91.2538 10.374 91.3285 10.3694 91.4032 10.36C91.4778 10.3414 91.5478 10.332 91.6132 10.332C91.6692 10.332 91.7065 10.3554 91.7252 10.402C91.7532 10.4394 91.7672 10.4814 91.7672 10.528ZM98.5689 7.04204C98.5689 6.6407 98.5362 6.23937 98.4709 5.83804C98.4149 5.42737 98.3029 5.04937 98.1349 4.70404C97.9762 4.3587 97.7429 4.08337 97.4349 3.87804C97.1269 3.66337 96.7255 3.55604 96.2309 3.55604C95.7642 3.55604 95.3815 3.66804 95.0829 3.89204C94.7935 4.11604 94.5649 4.40537 94.3969 4.76004C94.2382 5.1147 94.1262 5.49737 94.0609 5.90804C94.0049 6.3187 93.9769 6.70604 93.9769 7.07004C93.9769 7.47137 94.0049 7.8727 94.0609 8.27404C94.1262 8.67537 94.2429 9.03937 94.4109 9.36604C94.5789 9.68337 94.8169 9.94004 95.1249 10.136C95.4422 10.332 95.8482 10.43 96.3429 10.43C96.8282 10.43 97.2155 10.3274 97.5049 10.122C97.8035 9.9167 98.0275 9.64604 98.1769 9.31004C98.3355 8.97404 98.4382 8.61004 98.4849 8.21804C98.5409 7.8167 98.5689 7.4247 98.5689 7.04204ZM100.011 7.08404C100.011 7.78404 99.8429 8.41404 99.5069 8.97404C99.1802 9.53404 98.7322 9.97737 98.1629 10.304C97.6029 10.6307 96.9729 10.794 96.2729 10.794C95.5915 10.794 94.9755 10.6307 94.4249 10.304C93.8742 9.96804 93.4355 9.5247 93.1089 8.97404C92.7822 8.41404 92.6189 7.79337 92.6189 7.11204C92.6189 6.41204 92.7775 5.76804 93.0949 5.18004C93.4122 4.5827 93.8462 4.10204 94.3969 3.73804C94.9569 3.37404 95.6009 3.19204 96.3289 3.19204C97.1129 3.19204 97.7802 3.36004 98.3309 3.69604C98.8815 4.0227 99.2969 4.48004 99.5769 5.06804C99.8662 5.6467 100.011 6.3187 100.011 7.08404ZM113.41 10.556C113.41 10.6867 113.359 10.752 113.256 10.752C112.995 10.752 112.729 10.7427 112.458 10.724C112.188 10.7054 111.917 10.696 111.646 10.696C111.376 10.696 111.1 10.7054 110.82 10.724C110.55 10.7427 110.279 10.752 110.008 10.752C109.971 10.752 109.943 10.7287 109.924 10.682C109.915 10.6354 109.91 10.598 109.91 10.57C109.91 10.486 109.952 10.4347 110.036 10.416C110.13 10.3974 110.228 10.3927 110.33 10.402C110.442 10.4114 110.526 10.416 110.582 10.416C110.713 10.416 110.82 10.3834 110.904 10.318C110.988 10.2527 111.03 10.1547 111.03 10.024C111.03 9.3987 111.035 8.77804 111.044 8.16204C111.063 7.54604 111.072 6.93004 111.072 6.31404C111.072 6.21137 111.072 6.1087 111.072 6.00604C111.072 5.90337 111.068 5.8007 111.058 5.69804C111.049 5.47404 111.035 5.24537 111.016 5.01204C111.007 4.76937 110.97 4.54537 110.904 4.34004C110.839 4.12537 110.727 3.9527 110.568 3.82204C110.41 3.69137 110.181 3.62604 109.882 3.62604C109.668 3.62604 109.43 3.69137 109.168 3.82204C108.916 3.94337 108.674 4.08804 108.44 4.25604C108.207 4.42404 108.011 4.5827 107.852 4.73204C107.871 4.8627 107.88 4.99804 107.88 5.13804C107.88 5.2687 107.88 5.39937 107.88 5.53004C107.88 5.8007 107.88 6.07604 107.88 6.35604C107.89 6.6267 107.894 6.89737 107.894 7.16804C107.894 7.64404 107.89 8.12004 107.88 8.59604C107.88 9.07204 107.88 9.54804 107.88 10.024C107.88 10.164 107.941 10.262 108.062 10.318C108.184 10.374 108.305 10.402 108.426 10.402C108.501 10.402 108.576 10.3974 108.65 10.388C108.734 10.3787 108.809 10.374 108.874 10.374C108.921 10.374 108.949 10.3974 108.958 10.444C108.977 10.4907 108.986 10.528 108.986 10.556C108.986 10.6027 108.972 10.6494 108.944 10.696C108.916 10.7334 108.874 10.752 108.818 10.752C108.557 10.752 108.291 10.7427 108.02 10.724C107.759 10.7054 107.493 10.696 107.222 10.696C106.961 10.696 106.695 10.7054 106.424 10.724C106.154 10.7427 105.883 10.752 105.612 10.752C105.575 10.752 105.547 10.7287 105.528 10.682C105.51 10.6354 105.5 10.598 105.5 10.57C105.5 10.4954 105.538 10.444 105.612 10.416C105.687 10.3974 105.776 10.3927 105.878 10.402C105.99 10.4114 106.084 10.416 106.158 10.416C106.289 10.416 106.396 10.388 106.48 10.332C106.574 10.2667 106.62 10.164 106.62 10.024V6.45404C106.62 6.25804 106.616 6.01537 106.606 5.72604C106.606 5.4367 106.588 5.15204 106.55 4.87204C106.522 4.5827 106.471 4.35404 106.396 4.18604C106.331 4.01804 106.219 3.88737 106.06 3.79404C105.911 3.7007 105.743 3.65404 105.556 3.65404C105.314 3.65404 105.066 3.7147 104.814 3.83604C104.562 3.95737 104.324 4.1067 104.1 4.28404C103.876 4.46137 103.685 4.6387 103.526 4.81604V10.01C103.526 10.15 103.578 10.2527 103.68 10.318C103.783 10.374 103.895 10.402 104.016 10.402C104.091 10.402 104.166 10.3974 104.24 10.388C104.315 10.3694 104.385 10.36 104.45 10.36C104.488 10.36 104.511 10.388 104.52 10.444C104.53 10.4907 104.534 10.5234 104.534 10.542C104.534 10.5887 104.52 10.6354 104.492 10.682C104.474 10.7194 104.436 10.738 104.38 10.738C104.203 10.738 104.026 10.7334 103.848 10.724C103.671 10.7054 103.494 10.696 103.316 10.696C102.962 10.696 102.607 10.7054 102.252 10.724C101.898 10.7334 101.543 10.738 101.188 10.738C101.151 10.738 101.123 10.7147 101.104 10.668C101.086 10.6214 101.076 10.584 101.076 10.556C101.076 10.444 101.123 10.388 101.216 10.388C101.319 10.388 101.417 10.3927 101.51 10.402C101.604 10.402 101.697 10.402 101.79 10.402C101.921 10.402 102.033 10.374 102.126 10.318C102.22 10.2527 102.266 10.15 102.266 10.01C102.266 9.06737 102.262 8.1247 102.252 7.18204C102.252 6.23004 102.252 5.2827 102.252 4.34004C102.252 4.23737 102.243 4.1347 102.224 4.03204C102.206 3.92937 102.145 3.85937 102.042 3.82204C101.977 3.79404 101.907 3.78004 101.832 3.78004C101.711 3.78004 101.59 3.7987 101.468 3.83604C101.347 3.86404 101.221 3.87804 101.09 3.87804C101.006 3.87804 100.964 3.82204 100.964 3.71004C100.964 3.63537 100.992 3.5887 101.048 3.57004C101.095 3.55137 101.146 3.54204 101.202 3.54204C101.268 3.5327 101.328 3.52337 101.384 3.51404C101.599 3.48604 101.814 3.45337 102.028 3.41604C102.252 3.36937 102.467 3.3227 102.672 3.27604C102.747 3.25737 102.826 3.2387 102.91 3.22004C102.994 3.20137 103.078 3.19204 103.162 3.19204C103.274 3.19204 103.349 3.27604 103.386 3.44404C103.433 3.6027 103.456 3.77537 103.456 3.96204C103.466 4.1487 103.47 4.28404 103.47 4.36804C103.666 4.20004 103.886 4.02737 104.128 3.85004C104.371 3.66337 104.628 3.5047 104.898 3.37404C105.169 3.24337 105.44 3.17804 105.71 3.17804C106.186 3.17804 106.588 3.25737 106.914 3.41604C107.241 3.5747 107.521 3.87337 107.754 4.31204C107.96 4.1347 108.193 3.95737 108.454 3.78004C108.716 3.59337 108.986 3.43937 109.266 3.31804C109.556 3.18737 109.84 3.12204 110.12 3.12204C110.736 3.12204 111.203 3.2107 111.52 3.38804C111.847 3.56537 112.066 3.8407 112.178 4.21404C112.3 4.57804 112.36 5.04937 112.36 5.62804C112.36 6.35604 112.356 7.0887 112.346 7.82604C112.337 8.55404 112.332 9.2867 112.332 10.024C112.332 10.164 112.393 10.262 112.514 10.318C112.645 10.374 112.771 10.402 112.892 10.402C112.967 10.402 113.037 10.3974 113.102 10.388C113.177 10.3787 113.247 10.374 113.312 10.374C113.35 10.374 113.373 10.3974 113.382 10.444C113.401 10.4907 113.41 10.528 113.41 10.556ZM119.247 5.82404C119.238 5.44137 119.205 5.07737 119.149 4.73204C119.093 4.37737 118.958 4.08804 118.743 3.86404C118.529 3.6307 118.179 3.51404 117.693 3.51404C117.255 3.51404 116.895 3.63537 116.615 3.87804C116.345 4.11137 116.135 4.41004 115.985 4.77404C115.836 5.1287 115.724 5.4927 115.649 5.86604C115.883 5.87537 116.111 5.8847 116.335 5.89404C116.559 5.89404 116.783 5.89404 117.007 5.89404C117.381 5.89404 117.754 5.88937 118.127 5.88004C118.501 5.86137 118.874 5.8427 119.247 5.82404ZM120.857 9.03004C120.857 9.0767 120.848 9.1047 120.829 9.11404C120.801 9.20737 120.731 9.31937 120.619 9.45004C120.517 9.5807 120.4 9.7067 120.269 9.82804C120.139 9.94004 120.031 10.024 119.947 10.08C119.639 10.2947 119.289 10.4674 118.897 10.598C118.515 10.7287 118.132 10.794 117.749 10.794C117.432 10.794 117.077 10.7427 116.685 10.64C116.303 10.5374 115.976 10.3974 115.705 10.22C115.183 9.8747 114.8 9.42204 114.557 8.86204C114.315 8.30204 114.193 7.7187 114.193 7.11204C114.193 6.42137 114.329 5.78204 114.599 5.19404C114.87 4.60604 115.304 4.13004 115.901 3.76604C116.172 3.60737 116.475 3.4767 116.811 3.37404C117.147 3.26204 117.469 3.20604 117.777 3.20604C118.328 3.20604 118.813 3.31804 119.233 3.54204C119.653 3.76604 119.98 4.08337 120.213 4.49404C120.456 4.89537 120.577 5.37604 120.577 5.93604C120.577 6.0947 120.54 6.19737 120.465 6.24404C120.4 6.2907 120.297 6.31404 120.157 6.31404C119.971 6.31404 119.784 6.30937 119.597 6.30004C119.411 6.2907 119.224 6.28137 119.037 6.27204C118.776 6.25337 118.515 6.24404 118.253 6.24404C118.001 6.24404 117.745 6.24404 117.483 6.24404C117.166 6.24404 116.849 6.24404 116.531 6.24404C116.214 6.24404 115.897 6.25337 115.579 6.27204C115.57 6.42137 115.561 6.56604 115.551 6.70604C115.542 6.84604 115.537 6.9907 115.537 7.14004C115.537 7.48537 115.579 7.8447 115.663 8.21804C115.747 8.58204 115.883 8.9227 116.069 9.24004C116.256 9.54804 116.494 9.80004 116.783 9.99604C117.073 10.1827 117.423 10.276 117.833 10.276C118.253 10.276 118.655 10.2107 119.037 10.08C119.42 9.94937 119.77 9.73937 120.087 9.45004C120.171 9.36604 120.246 9.27737 120.311 9.18404C120.386 9.08137 120.465 8.9927 120.549 8.91804C120.596 8.87137 120.647 8.84804 120.703 8.84804C120.75 8.84804 120.787 8.8667 120.815 8.90404C120.843 8.94137 120.857 8.98337 120.857 9.03004ZM129.732 9.10004C129.695 8.68004 129.672 8.26004 129.662 7.84004C129.662 7.4107 129.658 6.98137 129.648 6.55204H129.452C129.163 6.55204 128.841 6.5987 128.486 6.69204C128.141 6.77604 127.81 6.9067 127.492 7.08404C127.175 7.26137 126.914 7.48537 126.708 7.75604C126.512 8.01737 126.414 8.3207 126.414 8.66604C126.414 9.11404 126.54 9.4547 126.792 9.68804C127.044 9.91204 127.385 10.024 127.814 10.024C128.02 10.024 128.244 9.97737 128.486 9.88404C128.729 9.78137 128.962 9.66004 129.186 9.52004C129.41 9.38004 129.592 9.24004 129.732 9.10004ZM132.182 9.99604C132.182 10.0334 132.178 10.0614 132.168 10.08C132.075 10.2854 131.916 10.444 131.692 10.556C131.478 10.6587 131.263 10.71 131.048 10.71C130.656 10.71 130.372 10.598 130.194 10.374C130.026 10.1407 129.891 9.85604 129.788 9.52004C129.434 9.8467 129.042 10.122 128.612 10.346C128.183 10.5607 127.721 10.668 127.226 10.668C126.881 10.668 126.554 10.6027 126.246 10.472C125.948 10.332 125.705 10.1314 125.518 9.87004C125.332 9.6087 125.238 9.29137 125.238 8.91804C125.238 8.52604 125.336 8.19004 125.532 7.91004C125.738 7.6207 125.994 7.37804 126.302 7.18204C126.62 6.9767 126.956 6.81337 127.31 6.69204C127.674 6.56137 128.015 6.46337 128.332 6.39804C128.547 6.35137 128.766 6.30937 128.99 6.27204C129.214 6.2347 129.434 6.19737 129.648 6.16004C129.648 5.8987 129.634 5.59537 129.606 5.25004C129.588 4.9047 129.518 4.62004 129.396 4.39604C129.275 4.18137 129.112 3.99004 128.906 3.82204C128.701 3.65404 128.472 3.57004 128.22 3.57004C127.791 3.57004 127.455 3.68204 127.212 3.90604C126.97 4.13004 126.797 4.44737 126.694 4.85804C126.685 4.9047 126.676 4.95604 126.666 5.01204C126.666 5.0587 126.662 5.10537 126.652 5.15204C126.643 5.20804 126.606 5.25937 126.54 5.30604C126.484 5.34337 126.424 5.36204 126.358 5.36204C126.181 5.36204 126.018 5.32004 125.868 5.23604C125.728 5.15204 125.658 5.01204 125.658 4.81604C125.658 4.70404 125.677 4.60604 125.714 4.52204C125.836 4.2327 126.032 3.9947 126.302 3.80804C126.573 3.61204 126.872 3.4627 127.198 3.36004C127.534 3.25737 127.847 3.20604 128.136 3.20604C128.64 3.20604 129.098 3.29937 129.508 3.48604C129.919 3.6727 130.246 3.94804 130.488 4.31204C130.74 4.6667 130.866 5.1147 130.866 5.65604C130.866 6.2627 130.862 6.87404 130.852 7.49004C130.852 8.10604 130.871 8.72204 130.908 9.33804C130.918 9.54337 130.96 9.72537 131.034 9.88404C131.109 10.0334 131.263 10.108 131.496 10.108C131.618 10.108 131.744 10.08 131.874 10.024C132.014 9.9587 132.103 9.92604 132.14 9.92604C132.168 9.92604 132.182 9.94937 132.182 9.99604ZM138.272 6.83204C138.272 6.6267 138.272 6.42604 138.272 6.23004C138.272 6.03404 138.267 5.83804 138.258 5.64204C138.23 5.0727 138.052 4.59204 137.726 4.20004C137.408 3.7987 136.946 3.59804 136.34 3.59804C135.901 3.59804 135.542 3.7147 135.262 3.94804C134.991 4.17204 134.781 4.46604 134.632 4.83004C134.482 5.19404 134.38 5.5767 134.324 5.97804C134.268 6.37004 134.24 6.73404 134.24 7.07004C134.24 7.38737 134.268 7.72804 134.324 8.09204C134.389 8.4467 134.496 8.7827 134.646 9.10004C134.795 9.40804 134.996 9.6647 135.248 9.87004C135.509 10.066 135.84 10.164 136.242 10.164C136.559 10.164 136.867 10.0987 137.166 9.96804C137.474 9.83737 137.726 9.65537 137.922 9.42204C138.127 9.17937 138.239 8.88537 138.258 8.54004C138.276 8.2507 138.281 7.96604 138.272 7.68604C138.272 7.3967 138.272 7.11204 138.272 6.83204ZM140.68 13.188C140.68 13.2254 140.666 13.2674 140.638 13.314C140.619 13.3607 140.586 13.384 140.54 13.384C140.269 13.384 139.994 13.3747 139.714 13.356C139.443 13.3374 139.168 13.328 138.888 13.328C138.598 13.328 138.309 13.3374 138.02 13.356C137.73 13.3747 137.436 13.384 137.138 13.384C137.091 13.384 137.063 13.3514 137.054 13.286C137.044 13.23 137.04 13.1834 137.04 13.146C137.04 13.0714 137.096 13.034 137.208 13.034C137.32 13.034 137.399 13.034 137.446 13.034C137.502 13.034 137.558 13.034 137.614 13.034C137.67 13.0434 137.726 13.048 137.782 13.048C137.912 13.048 138.029 13.0154 138.132 12.95C138.234 12.894 138.286 12.7914 138.286 12.642V9.74404C138.052 9.97737 137.74 10.1827 137.348 10.36C136.965 10.528 136.601 10.612 136.256 10.612C135.966 10.612 135.668 10.5887 135.36 10.542C135.052 10.486 134.767 10.3787 134.506 10.22C133.983 9.89337 133.582 9.4547 133.302 8.90404C133.031 8.35337 132.896 7.7747 132.896 7.16804C132.896 6.41204 133.036 5.7447 133.316 5.16604C133.596 4.57804 134.006 4.1207 134.548 3.79404C135.089 3.45804 135.747 3.29004 136.522 3.29004C136.904 3.29004 137.278 3.37404 137.642 3.54204C138.015 3.71004 138.314 3.94337 138.538 4.24204C138.584 4.15804 138.659 4.04137 138.762 3.89204C138.874 3.7427 138.99 3.60737 139.112 3.48604C139.233 3.3647 139.336 3.30404 139.42 3.30404C139.494 3.30404 139.541 3.31804 139.56 3.34604C139.578 3.37404 139.588 3.41604 139.588 3.47204C139.588 3.66804 139.583 3.86404 139.574 4.06004C139.564 4.2467 139.56 4.43337 139.56 4.62004V12.642C139.56 12.7914 139.611 12.894 139.714 12.95C139.826 13.0154 139.942 13.048 140.064 13.048C140.157 13.048 140.246 13.0387 140.33 13.02C140.414 13.0107 140.502 13.006 140.596 13.006C140.642 13.006 140.666 13.0294 140.666 13.076C140.675 13.1227 140.68 13.16 140.68 13.188ZM149.449 10.36C149.449 10.472 149.365 10.556 149.197 10.612C149.038 10.668 148.861 10.7054 148.665 10.724C148.469 10.7427 148.329 10.752 148.245 10.752C147.928 10.752 147.676 10.626 147.489 10.374C147.302 10.122 147.162 9.8607 147.069 9.59004C146.752 9.99137 146.355 10.29 145.879 10.486C145.403 10.682 144.908 10.78 144.395 10.78C143.555 10.78 142.972 10.5654 142.645 10.136C142.328 9.69737 142.169 9.08137 142.169 8.28804C142.169 7.58804 142.169 6.88804 142.169 6.18804C142.178 5.4787 142.188 4.77404 142.197 4.07404C142.197 3.79404 142.062 3.65404 141.791 3.65404C141.716 3.65404 141.642 3.6587 141.567 3.66804C141.492 3.67737 141.418 3.68204 141.343 3.68204C141.315 3.68204 141.292 3.66804 141.273 3.64004C141.264 3.6027 141.259 3.5747 141.259 3.55604C141.259 3.45337 141.306 3.39737 141.399 3.38804C141.726 3.3507 142.052 3.32737 142.379 3.31804C142.715 3.29937 143.046 3.27137 143.373 3.23404C143.448 3.3087 143.485 3.40204 143.485 3.51404C143.485 3.74737 143.48 3.98537 143.471 4.22804C143.462 4.4707 143.457 4.71337 143.457 4.95604C143.448 5.52537 143.438 6.09937 143.429 6.67804C143.429 7.24737 143.429 7.82137 143.429 8.40004C143.429 8.57737 143.434 8.7687 143.443 8.97404C143.452 9.17004 143.49 9.35204 143.555 9.52004C143.658 9.78137 143.849 9.96804 144.129 10.08C144.418 10.1827 144.694 10.234 144.955 10.234C145.244 10.234 145.534 10.1827 145.823 10.08C146.122 9.96804 146.374 9.80937 146.579 9.60404C146.794 9.38937 146.915 9.12337 146.943 8.80604C146.962 8.64737 146.971 8.4887 146.971 8.33004C146.98 8.16204 146.985 7.9987 146.985 7.84004L146.971 4.03204C146.971 3.9107 146.929 3.82204 146.845 3.76604C146.77 3.71004 146.682 3.68204 146.579 3.68204C146.486 3.68204 146.392 3.6867 146.299 3.69604C146.215 3.70537 146.126 3.71004 146.033 3.71004C145.949 3.71004 145.907 3.66337 145.907 3.57004C145.907 3.4767 145.949 3.42537 146.033 3.41604C146.145 3.39737 146.262 3.38804 146.383 3.38804C146.504 3.3787 146.626 3.36937 146.747 3.36004L147.713 3.26204C147.778 3.2527 147.844 3.24337 147.909 3.23404C147.984 3.2247 148.054 3.22004 148.119 3.22004C148.166 3.22004 148.198 3.24804 148.217 3.30404C148.236 3.3507 148.245 3.38804 148.245 3.41604C148.217 5.44137 148.203 7.46204 148.203 9.47804C148.203 9.71137 148.254 9.9027 148.357 10.052C148.469 10.2014 148.651 10.276 148.903 10.276C148.978 10.276 149.043 10.2667 149.099 10.248C149.164 10.2294 149.23 10.22 149.295 10.22C149.398 10.22 149.449 10.2667 149.449 10.36ZM154.026 10.528C154.026 10.5747 154.012 10.6214 153.984 10.668C153.956 10.7054 153.919 10.724 153.872 10.724C153.611 10.724 153.349 10.7194 153.088 10.71C152.836 10.6914 152.575 10.682 152.304 10.682H151.926C151.646 10.682 151.366 10.6914 151.086 10.71C150.815 10.7194 150.545 10.724 150.274 10.724C150.237 10.724 150.209 10.7007 150.19 10.654C150.181 10.6074 150.176 10.57 150.176 10.542C150.176 10.4954 150.181 10.4627 150.19 10.444C150.199 10.416 150.227 10.3974 150.274 10.388C150.321 10.3694 150.372 10.3647 150.428 10.374C150.493 10.374 150.554 10.374 150.61 10.374C150.675 10.374 150.736 10.3787 150.792 10.388C150.848 10.388 150.909 10.388 150.974 10.388C151.105 10.388 151.221 10.36 151.324 10.304C151.436 10.2387 151.492 10.1314 151.492 9.98204V4.38204C151.492 4.22337 151.464 4.10204 151.408 4.01804C151.352 3.9247 151.235 3.87804 151.058 3.87804C150.927 3.87804 150.792 3.88737 150.652 3.90604C150.521 3.91537 150.391 3.92937 150.26 3.94804C150.185 3.94804 150.148 3.90604 150.148 3.82204C150.148 3.7287 150.185 3.66804 150.26 3.64004C150.372 3.6027 150.489 3.57937 150.61 3.57004C150.741 3.55137 150.862 3.5327 150.974 3.51404C151.235 3.46737 151.497 3.41604 151.758 3.36004C152.019 3.30404 152.276 3.24337 152.528 3.17804C152.556 3.1687 152.593 3.16404 152.64 3.16404C152.743 3.16404 152.794 3.22004 152.794 3.33204C152.794 4.43337 152.789 5.53937 152.78 6.65004C152.78 7.7607 152.78 8.87137 152.78 9.98204C152.78 10.1314 152.845 10.2387 152.976 10.304C153.116 10.36 153.247 10.388 153.368 10.388C153.461 10.388 153.555 10.3834 153.648 10.374C153.751 10.3647 153.849 10.36 153.942 10.36C153.979 10.36 154.003 10.3834 154.012 10.43C154.021 10.4767 154.026 10.5094 154.026 10.528ZM152.892 0.840037C152.892 1.07337 152.808 1.27404 152.64 1.44204C152.472 1.6007 152.271 1.68004 152.038 1.68004C151.805 1.68004 151.604 1.6007 151.436 1.44204C151.268 1.27404 151.184 1.07337 151.184 0.840037C151.184 0.606703 151.268 0.410703 151.436 0.252037C151.604 0.0840369 151.805 3.68357e-05 152.038 3.68357e-05C152.271 3.68357e-05 152.472 0.0840369 152.64 0.252037C152.808 0.410703 152.892 0.606703 152.892 0.840037ZM157.831 9.71604C157.831 9.97737 157.733 10.1967 157.537 10.374C157.341 10.5514 157.112 10.64 156.851 10.64C156.589 10.64 156.361 10.5514 156.165 10.374C155.969 10.1967 155.871 9.97737 155.871 9.71604C155.871 9.44537 155.969 9.22137 156.165 9.04404C156.361 8.8667 156.589 8.77804 156.851 8.77804C157.112 8.77804 157.341 8.8667 157.537 9.04404C157.733 9.22137 157.831 9.44537 157.831 9.71604ZM162.725 9.71604C162.725 9.97737 162.627 10.1967 162.431 10.374C162.235 10.5514 162.006 10.64 161.745 10.64C161.484 10.64 161.255 10.5514 161.059 10.374C160.863 10.1967 160.765 9.97737 160.765 9.71604C160.765 9.44537 160.863 9.22137 161.059 9.04404C161.255 8.8667 161.484 8.77804 161.745 8.77804C162.006 8.77804 162.235 8.8667 162.431 9.04404C162.627 9.22137 162.725 9.44537 162.725 9.71604ZM167.62 9.71604C167.62 9.97737 167.522 10.1967 167.326 10.374C167.13 10.5514 166.901 10.64 166.64 10.64C166.378 10.64 166.15 10.5514 165.954 10.374C165.758 10.1967 165.66 9.97737 165.66 9.71604C165.66 9.44537 165.758 9.22137 165.954 9.04404C166.15 8.8667 166.378 8.77804 166.64 8.77804C166.901 8.77804 167.13 8.8667 167.326 9.04404C167.522 9.22137 167.62 9.44537 167.62 9.71604Z" fill="#767676"/>
</svg>
