<svg width="61" height="11" viewBox="0 0 61 11" fill="none" xmlns="http://www.w3.org/2000/svg">
<path d="M8.88999 5.52995C8.88999 5.13795 8.84799 4.72728 8.76399 4.29795C8.68933 3.85928 8.56799 3.43928 8.39999 3.03795C8.23199 2.63661 8.00799 2.29595 7.72799 2.01594C7.46666 1.75461 7.15866 1.53528 6.80399 1.35794C6.45866 1.17128 6.09933 1.05928 5.72599 1.02195C5.61399 1.00328 5.49733 0.993945 5.37599 0.993945C5.26399 0.993945 5.15199 0.993945 5.03999 0.993945C4.67599 0.993945 4.31199 0.998611 3.94799 1.00794C3.59333 1.01728 3.23399 1.02661 2.86999 1.03594V9.64595C2.86999 9.92595 2.96333 10.1079 3.14999 10.1919C3.33666 10.2759 3.54666 10.3179 3.77999 10.3179C4.15333 10.3179 4.53599 10.3039 4.92799 10.2759C5.32933 10.2479 5.71666 10.1826 6.08999 10.0799C6.47266 9.96795 6.82266 9.79528 7.13999 9.56195C7.78399 9.08595 8.23666 8.48861 8.49799 7.76995C8.75933 7.04195 8.88999 6.29528 8.88999 5.52995ZM10.444 5.31994C10.444 6.24394 10.248 7.12128 9.85599 7.95195C9.47333 8.78261 8.88066 9.44528 8.07799 9.93995C7.75133 10.1359 7.37333 10.2993 6.94399 10.4299C6.52399 10.5513 6.09466 10.6399 5.65599 10.6959C5.21733 10.7519 4.80666 10.7799 4.42399 10.7799C4.08799 10.7799 3.74733 10.7706 3.40199 10.7519C3.06599 10.7333 2.72533 10.7239 2.37999 10.7239C2.10933 10.7239 1.83399 10.7286 1.55399 10.7379C1.27399 10.7379 0.998661 10.7473 0.727994 10.7659C0.681328 10.7753 0.634661 10.7799 0.587994 10.7799C0.541327 10.7799 0.494661 10.7799 0.447994 10.7799C0.391994 10.7799 0.359328 10.7566 0.349994 10.7099C0.340661 10.6633 0.335994 10.6213 0.335994 10.5839C0.335994 10.5186 0.382661 10.4719 0.475994 10.4439C0.578661 10.4159 0.685994 10.3926 0.797994 10.3739C0.919328 10.3553 1.00333 10.3319 1.04999 10.3039C1.20866 10.2199 1.31133 10.0986 1.35799 9.93995C1.41399 9.77195 1.44199 9.60395 1.44199 9.43595C1.44199 8.92261 1.44199 8.41395 1.44199 7.90995C1.45133 7.39661 1.45599 6.88328 1.45599 6.36995V5.08195C1.45599 4.56861 1.45599 4.05994 1.45599 3.55595C1.45599 3.05194 1.45599 2.54328 1.45599 2.02994C1.45599 1.67528 1.41399 1.42328 1.32999 1.27395C1.24599 1.12461 1.01266 1.04994 0.629994 1.04994C0.564661 1.04994 0.499328 1.05461 0.433994 1.06394C0.377994 1.06394 0.317327 1.06394 0.251994 1.06394C0.186661 1.06394 0.125994 1.04528 0.0699942 1.00794C0.0233275 0.961278 -5.84498e-06 0.905278 -5.84498e-06 0.839945C-5.84498e-06 0.690611 0.0746608 0.615945 0.223994 0.615945C0.438661 0.615945 0.653328 0.625278 0.867994 0.643945C1.08266 0.653278 1.29266 0.657945 1.49799 0.657945C2.18866 0.657945 2.87933 0.639278 3.56999 0.601945C4.26999 0.555278 4.96533 0.531945 5.65599 0.531945C6.65466 0.531945 7.50866 0.723278 8.21799 1.10594C8.93666 1.48861 9.48733 2.03928 9.86999 2.75795C10.2527 3.46728 10.444 4.32128 10.444 5.31994ZM15.53 10.5839C15.53 10.6306 15.516 10.6773 15.488 10.7239C15.46 10.7613 15.4227 10.7799 15.376 10.7799C15.1147 10.7799 14.8534 10.7753 14.592 10.7659C14.34 10.7473 14.0787 10.7379 13.808 10.7379H13.43C13.15 10.7379 12.87 10.7473 12.59 10.7659C12.3194 10.7753 12.0487 10.7799 11.778 10.7799C11.7407 10.7799 11.7127 10.7566 11.694 10.7099C11.6847 10.6633 11.68 10.6259 11.68 10.5979C11.68 10.5513 11.6847 10.5186 11.694 10.4999C11.7034 10.4719 11.7314 10.4533 11.778 10.4439C11.8247 10.4253 11.876 10.4206 11.932 10.4299C11.9974 10.4299 12.058 10.4299 12.114 10.4299C12.1794 10.4299 12.24 10.4346 12.296 10.4439C12.352 10.4439 12.4127 10.4439 12.478 10.4439C12.6087 10.4439 12.7254 10.4159 12.828 10.3599C12.94 10.2946 12.996 10.1873 12.996 10.0379V4.43794C12.996 4.27928 12.968 4.15795 12.912 4.07395C12.856 3.98061 12.7394 3.93395 12.562 3.93395C12.4314 3.93395 12.296 3.94328 12.156 3.96194C12.0254 3.97128 11.8947 3.98528 11.764 4.00395C11.6894 4.00395 11.652 3.96195 11.652 3.87795C11.652 3.78461 11.6894 3.72395 11.764 3.69594C11.876 3.65861 11.9927 3.63528 12.114 3.62594C12.2447 3.60728 12.366 3.58861 12.478 3.56994C12.7394 3.52328 13.0007 3.47195 13.262 3.41595C13.5234 3.35994 13.78 3.29928 14.032 3.23395C14.06 3.22461 14.0974 3.21995 14.144 3.21995C14.2467 3.21995 14.298 3.27595 14.298 3.38794C14.298 4.48928 14.2934 5.59528 14.284 6.70594C14.284 7.81661 14.284 8.92728 14.284 10.0379C14.284 10.1873 14.3494 10.2946 14.48 10.3599C14.62 10.4159 14.7507 10.4439 14.872 10.4439C14.9654 10.4439 15.0587 10.4393 15.152 10.4299C15.2547 10.4206 15.3527 10.4159 15.446 10.4159C15.4834 10.4159 15.5067 10.4393 15.516 10.4859C15.5254 10.5326 15.53 10.5653 15.53 10.5839ZM14.396 0.895945C14.396 1.12928 14.312 1.32994 14.144 1.49794C13.976 1.65661 13.7754 1.73595 13.542 1.73595C13.3087 1.73595 13.108 1.65661 12.94 1.49794C12.772 1.32994 12.688 1.12928 12.688 0.895945C12.688 0.662611 12.772 0.466611 12.94 0.307945C13.108 0.139945 13.3087 0.055945 13.542 0.055945C13.7754 0.055945 13.976 0.139945 14.144 0.307945C14.312 0.466611 14.396 0.662611 14.396 0.895945ZM24.5425 10.5839C24.5425 10.7053 24.4725 10.7659 24.3325 10.7659C24.1272 10.7659 23.9172 10.7613 23.7025 10.7519C23.4879 10.7333 23.2732 10.7239 23.0585 10.7239C22.7412 10.7239 22.4145 10.7333 22.0785 10.7519C21.7519 10.7613 21.4252 10.7659 21.0985 10.7659C21.0612 10.7659 21.0379 10.7379 21.0285 10.6819C21.0192 10.6166 21.0145 10.5653 21.0145 10.5279C21.0145 10.4533 21.0612 10.4159 21.1545 10.4159C21.2479 10.4159 21.3225 10.4159 21.3785 10.4159C21.4252 10.4159 21.4719 10.4206 21.5185 10.4299C21.5745 10.4299 21.6259 10.4299 21.6725 10.4299C21.9432 10.4299 22.0925 10.2946 22.1205 10.0239C22.1485 9.47328 22.1579 8.91795 22.1485 8.35795C22.1485 7.79795 22.1485 7.24261 22.1485 6.69195C22.1485 6.58928 22.1485 6.48661 22.1485 6.38394C22.1485 6.27194 22.1485 6.16461 22.1485 6.06194C22.1392 5.84728 22.1252 5.58594 22.1065 5.27794C22.0879 4.96061 22.0459 4.70394 21.9805 4.50794C21.8312 4.02261 21.5045 3.77994 21.0005 3.77994C20.5432 3.77994 20.1232 3.89661 19.7405 4.12995C19.3579 4.36328 19.0265 4.65728 18.7465 5.01195C18.7372 5.69328 18.7325 6.36995 18.7325 7.04195C18.7325 7.71395 18.7325 8.38595 18.7325 9.05795V10.0239C18.7325 10.1639 18.7932 10.2666 18.9145 10.3319C19.0359 10.3973 19.1572 10.4299 19.2785 10.4299C19.3532 10.4299 19.4232 10.4253 19.4885 10.4159C19.5632 10.3973 19.6332 10.3879 19.6985 10.3879C19.7359 10.3879 19.7592 10.4113 19.7685 10.4579C19.7779 10.5046 19.7825 10.5419 19.7825 10.5699C19.7825 10.6073 19.7685 10.6493 19.7405 10.6959C19.7219 10.7426 19.6845 10.7659 19.6285 10.7659C19.4232 10.7659 19.2179 10.7613 19.0125 10.7519C18.8165 10.7333 18.6159 10.7239 18.4105 10.7239C18.0932 10.7239 17.7759 10.7333 17.4585 10.7519C17.1412 10.7613 16.8192 10.7659 16.4925 10.7659C16.4459 10.7659 16.4179 10.7379 16.4085 10.6819C16.4085 10.6166 16.4085 10.5653 16.4085 10.5279C16.4085 10.4533 16.4505 10.4159 16.5345 10.4159C16.6185 10.4159 16.6839 10.4159 16.7305 10.4159C16.7772 10.4159 16.8239 10.4206 16.8705 10.4299C16.9172 10.4299 16.9639 10.4299 17.0105 10.4299C17.2812 10.4299 17.4305 10.2946 17.4585 10.0239C17.4679 9.89328 17.4725 9.76261 17.4725 9.63195C17.4725 9.50128 17.4725 9.37061 17.4725 9.23995C17.4725 8.43728 17.4725 7.63461 17.4725 6.83195C17.4725 6.01995 17.4679 5.21261 17.4585 4.40994C17.4585 4.27928 17.4305 4.14861 17.3745 4.01794C17.3185 3.88728 17.2112 3.82194 17.0525 3.82194C16.9312 3.82194 16.8145 3.84061 16.7025 3.87795C16.5905 3.91528 16.4739 3.93395 16.3525 3.93395C16.2872 3.93395 16.2545 3.88728 16.2545 3.79395C16.2545 3.77528 16.2545 3.75661 16.2545 3.73795C16.2639 3.70995 16.2732 3.69128 16.2825 3.68195C16.2919 3.67261 16.3059 3.66795 16.3245 3.66795C16.3432 3.65861 16.3572 3.64928 16.3665 3.63994C16.5345 3.59328 16.7072 3.56061 16.8845 3.54195C17.0712 3.52328 17.2485 3.49528 17.4165 3.45794C17.5752 3.42994 17.7292 3.39261 17.8785 3.34595C18.0279 3.28994 18.1772 3.26194 18.3265 3.26194C18.3919 3.26194 18.4432 3.29461 18.4805 3.35995C18.5272 3.44395 18.5645 3.56528 18.5925 3.72395C18.6205 3.87328 18.6392 4.02728 18.6485 4.18594C18.6672 4.34461 18.6765 4.47528 18.6765 4.57794C18.8819 4.37261 19.1245 4.17195 19.4045 3.97595C19.6939 3.77061 19.9925 3.60261 20.3005 3.47195C20.6179 3.33194 20.9259 3.26194 21.2245 3.26194C22.0832 3.26194 22.6619 3.45328 22.9605 3.83595C23.2685 4.20928 23.4225 4.80195 23.4225 5.61395C23.4225 6.34195 23.4179 7.06994 23.4085 7.79795C23.4085 8.52595 23.4085 9.25395 23.4085 9.98195C23.4085 10.1593 23.4599 10.2806 23.5625 10.3459C23.6745 10.4019 23.8052 10.4299 23.9545 10.4299C24.0292 10.4299 24.1039 10.4253 24.1785 10.4159C24.2532 10.3973 24.3232 10.3879 24.3885 10.3879C24.4445 10.3879 24.4819 10.4113 24.5005 10.4579C24.5285 10.4953 24.5425 10.5373 24.5425 10.5839ZM33.5142 10.6399C33.5142 10.6866 33.4909 10.7239 33.4442 10.7519C33.3976 10.7706 33.3509 10.7799 33.3042 10.7799C33.0709 10.7799 32.8329 10.7753 32.5902 10.7659C32.3569 10.7473 32.1189 10.7379 31.8762 10.7379C31.6056 10.7379 31.3302 10.7473 31.0502 10.7659C30.7796 10.7846 30.5089 10.7939 30.2382 10.7939C30.1916 10.7939 30.1589 10.7659 30.1402 10.7099C30.1309 10.6446 30.1262 10.5933 30.1262 10.5559C30.1262 10.4906 30.1589 10.4579 30.2242 10.4579C30.3269 10.4579 30.4249 10.4626 30.5182 10.4719C30.6209 10.4719 30.7189 10.4719 30.8122 10.4719C30.9336 10.4719 31.0269 10.4346 31.0922 10.3599C31.1669 10.2759 31.2089 10.1779 31.2182 10.0659C31.2369 9.83261 31.2416 9.59928 31.2322 9.36595C31.2322 9.13261 31.2322 8.90395 31.2322 8.67995C31.2322 8.39995 31.2322 8.12461 31.2322 7.85395C31.2322 7.57395 31.2322 7.29395 31.2322 7.01395C31.2322 6.73395 31.2322 6.45395 31.2322 6.17395C31.2322 5.89395 31.2229 5.61395 31.2042 5.33395C31.1949 5.21261 31.1809 5.09594 31.1622 4.98395C31.1529 4.86261 31.1296 4.74594 31.0922 4.63394C30.9989 4.38195 30.8449 4.19061 30.6302 4.05994C30.4249 3.91994 30.1869 3.84995 29.9162 3.84995C29.5989 3.84995 29.2862 3.93395 28.9782 4.10195C28.6702 4.26061 28.4136 4.46128 28.2082 4.70394C27.9842 4.96528 27.8209 5.19395 27.7182 5.38995C27.6156 5.58595 27.5502 5.79128 27.5222 6.00595C27.5036 6.22061 27.4942 6.50061 27.4942 6.84595V9.30995C27.4942 9.41261 27.4896 9.55728 27.4802 9.74395C27.4802 9.93061 27.5036 10.0986 27.5502 10.2479C27.6062 10.3973 27.7136 10.4719 27.8722 10.4719C27.9656 10.4719 28.0542 10.4673 28.1382 10.4579C28.2222 10.4486 28.3109 10.4439 28.4042 10.4439C28.4882 10.4439 28.5302 10.4906 28.5302 10.5839C28.5302 10.6306 28.5209 10.6773 28.5022 10.7239C28.4929 10.7613 28.4602 10.7799 28.4042 10.7799C28.0869 10.7799 27.7602 10.7753 27.4242 10.7659C27.0976 10.7473 26.7709 10.7379 26.4442 10.7379C26.1456 10.7379 25.8422 10.7519 25.5342 10.7799C25.4969 10.7799 25.4642 10.7846 25.4362 10.7939C25.4082 10.7939 25.3756 10.7939 25.3382 10.7939C25.2916 10.7939 25.2542 10.7706 25.2262 10.7239C25.2076 10.6679 25.1982 10.6213 25.1982 10.5839C25.1982 10.4813 25.2496 10.4299 25.3522 10.4299C25.4082 10.4299 25.4642 10.4346 25.5202 10.4439C25.5762 10.4439 25.6369 10.4439 25.7022 10.4439C25.8329 10.4439 25.9682 10.4253 26.1082 10.3879C26.2576 10.3413 26.3369 10.2339 26.3462 10.0659C26.3649 9.75795 26.3696 9.44995 26.3602 9.14195C26.3602 8.83395 26.3602 8.53061 26.3602 8.23195C26.3602 7.65328 26.3602 7.07928 26.3602 6.50994C26.3696 5.94061 26.3742 5.37128 26.3742 4.80194C26.3742 4.20461 26.3696 3.61195 26.3602 3.02395C26.3509 2.42661 26.3416 1.82928 26.3322 1.23194C26.3322 1.12928 26.3136 1.01728 26.2762 0.895945C26.2389 0.765278 26.1549 0.699945 26.0242 0.699945C25.8936 0.699945 25.7582 0.709278 25.6182 0.727945C25.4782 0.746612 25.3382 0.755945 25.1982 0.755945C25.1142 0.755945 25.0722 0.718612 25.0722 0.643945C25.0722 0.559945 25.1142 0.503945 25.1982 0.475945C25.3849 0.429278 25.5669 0.391945 25.7442 0.363944C25.9309 0.335945 26.1129 0.303278 26.2902 0.265945C26.4489 0.228611 26.6356 0.177278 26.8502 0.111945C27.0742 0.0372783 27.2609 -5.50747e-05 27.4102 -5.50747e-05C27.4662 -5.50747e-05 27.4989 0.0186116 27.5082 0.055945C27.5176 0.0839447 27.5222 0.121278 27.5222 0.167944C27.5222 0.933278 27.5222 1.69861 27.5222 2.46394C27.5222 3.22928 27.5129 3.99461 27.4942 4.75994C27.6996 4.54528 27.9469 4.33061 28.2362 4.11594C28.5349 3.90128 28.8522 3.72395 29.1882 3.58394C29.5242 3.43461 29.8416 3.35995 30.1402 3.35995C30.7469 3.35995 31.2229 3.44861 31.5682 3.62594C31.9136 3.80328 32.1562 4.07861 32.2962 4.45195C32.4362 4.81594 32.5062 5.29194 32.5062 5.87995C32.5062 6.57995 32.5016 7.27995 32.4922 7.97995C32.4922 8.67061 32.4922 9.36595 32.4922 10.0659C32.4922 10.2153 32.5296 10.3226 32.6042 10.3879C32.6882 10.4439 32.8049 10.4719 32.9542 10.4719C33.0196 10.4719 33.0802 10.4673 33.1362 10.4579C33.2016 10.4486 33.2669 10.4439 33.3322 10.4439C33.3789 10.4439 33.4209 10.4673 33.4582 10.5139C33.4956 10.5513 33.5142 10.5933 33.5142 10.6399ZM39.3626 5.87995C39.3533 5.49728 39.3206 5.13328 39.2646 4.78795C39.2086 4.43328 39.0733 4.14395 38.8586 3.91994C38.644 3.68661 38.294 3.56994 37.8086 3.56994C37.37 3.56994 37.0106 3.69128 36.7306 3.93395C36.46 4.16728 36.25 4.46594 36.1006 4.82994C35.9513 5.18461 35.8393 5.54861 35.7646 5.92195C35.998 5.93128 36.2266 5.94061 36.4506 5.94995C36.6746 5.94995 36.8986 5.94995 37.1226 5.94995C37.496 5.94995 37.8693 5.94528 38.2426 5.93595C38.616 5.91728 38.9893 5.89861 39.3626 5.87995ZM40.9726 9.08595C40.9726 9.13261 40.9633 9.16061 40.9446 9.16995C40.9166 9.26328 40.8466 9.37528 40.7346 9.50595C40.632 9.63661 40.5153 9.76261 40.3846 9.88395C40.254 9.99595 40.1466 10.0799 40.0626 10.1359C39.7546 10.3506 39.4046 10.5233 39.0126 10.6539C38.63 10.7846 38.2473 10.8499 37.8646 10.8499C37.5473 10.8499 37.1926 10.7986 36.8006 10.6959C36.418 10.5933 36.0913 10.4533 35.8206 10.2759C35.298 9.93061 34.9153 9.47795 34.6726 8.91795C34.43 8.35795 34.3086 7.77461 34.3086 7.16795C34.3086 6.47728 34.444 5.83795 34.7146 5.24994C34.9853 4.66194 35.4193 4.18594 36.0166 3.82194C36.2873 3.66328 36.5906 3.53261 36.9266 3.42994C37.2626 3.31794 37.5846 3.26194 37.8926 3.26194C38.4433 3.26194 38.9286 3.37394 39.3486 3.59795C39.7686 3.82195 40.0953 4.13928 40.3286 4.54995C40.5713 4.95128 40.6926 5.43194 40.6926 5.99194C40.6926 6.15061 40.6553 6.25328 40.5806 6.29995C40.5153 6.34661 40.4126 6.36995 40.2726 6.36995C40.086 6.36995 39.8993 6.36528 39.7126 6.35595C39.526 6.34661 39.3393 6.33728 39.1526 6.32795C38.8913 6.30928 38.63 6.29995 38.3686 6.29995C38.1166 6.29995 37.86 6.29995 37.5986 6.29995C37.2813 6.29995 36.964 6.29995 36.6466 6.29995C36.3293 6.29995 36.012 6.30928 35.6946 6.32795C35.6853 6.47728 35.676 6.62195 35.6666 6.76195C35.6573 6.90195 35.6526 7.04661 35.6526 7.19595C35.6526 7.54128 35.6946 7.90061 35.7786 8.27395C35.8626 8.63795 35.998 8.97861 36.1846 9.29595C36.3713 9.60395 36.6093 9.85595 36.8986 10.0519C37.188 10.2386 37.538 10.3319 37.9486 10.3319C38.3686 10.3319 38.77 10.2666 39.1526 10.1359C39.5353 10.0053 39.8853 9.79528 40.2026 9.50595C40.2866 9.42195 40.3613 9.33328 40.4266 9.23995C40.5013 9.13728 40.5806 9.04861 40.6646 8.97395C40.7113 8.92728 40.7626 8.90395 40.8186 8.90395C40.8653 8.90395 40.9026 8.92261 40.9306 8.95995C40.9586 8.99728 40.9726 9.03928 40.9726 9.08595ZM45.7175 10.5839C45.7175 10.6306 45.7035 10.6773 45.6755 10.7239C45.6475 10.7613 45.6102 10.7799 45.5635 10.7799C45.3022 10.7799 45.0409 10.7753 44.7795 10.7659C44.5275 10.7473 44.2662 10.7379 43.9955 10.7379H43.6175C43.3375 10.7379 43.0575 10.7473 42.7775 10.7659C42.5069 10.7753 42.2362 10.7799 41.9655 10.7799C41.9282 10.7799 41.9002 10.7566 41.8815 10.7099C41.8722 10.6633 41.8675 10.6259 41.8675 10.5979C41.8675 10.5513 41.8722 10.5186 41.8815 10.4999C41.8909 10.4719 41.9189 10.4533 41.9655 10.4439C42.0122 10.4253 42.0635 10.4206 42.1195 10.4299C42.1849 10.4299 42.2455 10.4299 42.3015 10.4299C42.3669 10.4299 42.4275 10.4346 42.4835 10.4439C42.5395 10.4439 42.6002 10.4439 42.6655 10.4439C42.7962 10.4439 42.9129 10.4159 43.0155 10.3599C43.1275 10.2946 43.1835 10.1873 43.1835 10.0379V4.43794C43.1835 4.27928 43.1555 4.15795 43.0995 4.07395C43.0435 3.98061 42.9269 3.93395 42.7495 3.93395C42.6189 3.93395 42.4835 3.94328 42.3435 3.96194C42.2129 3.97128 42.0822 3.98528 41.9515 4.00395C41.8769 4.00395 41.8395 3.96195 41.8395 3.87795C41.8395 3.78461 41.8769 3.72395 41.9515 3.69594C42.0635 3.65861 42.1802 3.63528 42.3015 3.62594C42.4322 3.60728 42.5535 3.58861 42.6655 3.56994C42.9269 3.52328 43.1882 3.47195 43.4495 3.41595C43.7109 3.35994 43.9675 3.29928 44.2195 3.23395C44.2475 3.22461 44.2849 3.21995 44.3315 3.21995C44.4342 3.21995 44.4855 3.27595 44.4855 3.38794C44.4855 4.48928 44.4809 5.59528 44.4715 6.70594C44.4715 7.81661 44.4715 8.92728 44.4715 10.0379C44.4715 10.1873 44.5369 10.2946 44.6675 10.3599C44.8075 10.4159 44.9382 10.4439 45.0595 10.4439C45.1529 10.4439 45.2462 10.4393 45.3395 10.4299C45.4422 10.4206 45.5402 10.4159 45.6335 10.4159C45.6709 10.4159 45.6942 10.4393 45.7035 10.4859C45.7129 10.5326 45.7175 10.5653 45.7175 10.5839ZM44.5835 0.895945C44.5835 1.12928 44.4995 1.32994 44.3315 1.49794C44.1635 1.65661 43.9629 1.73595 43.7295 1.73595C43.4962 1.73595 43.2955 1.65661 43.1275 1.49794C42.9595 1.32994 42.8755 1.12928 42.8755 0.895945C42.8755 0.662611 42.9595 0.466611 43.1275 0.307945C43.2955 0.139945 43.4962 0.055945 43.7295 0.055945C43.9629 0.055945 44.1635 0.139945 44.3315 0.307945C44.4995 0.466611 44.5835 0.662611 44.5835 0.895945ZM52.182 4.56394C52.182 4.65728 52.1447 4.74594 52.07 4.82994C52.0047 4.90461 51.9207 4.94195 51.818 4.94195C51.678 4.94195 51.5754 4.89528 51.51 4.80194C51.454 4.70861 51.4027 4.60128 51.356 4.47994C51.3187 4.35861 51.258 4.25128 51.174 4.15794C51.09 4.06461 50.95 4.01794 50.754 4.01794C50.7167 4.01794 50.6794 4.01794 50.642 4.01794C50.614 4.01794 50.5814 4.02261 50.544 4.03195C50.3854 4.05995 50.2127 4.15795 50.026 4.32595C49.8394 4.49394 49.6574 4.69461 49.48 4.92794C49.312 5.15195 49.172 5.37595 49.06 5.59995C48.948 5.82395 48.8874 6.01061 48.878 6.15994C48.8687 6.30928 48.864 6.45861 48.864 6.60794C48.864 6.74795 48.864 6.88795 48.864 7.02794C48.864 7.53195 48.864 8.03595 48.864 8.53995C48.8734 9.04395 48.878 9.54328 48.878 10.0379C48.878 10.1779 48.934 10.2806 49.046 10.3459C49.1674 10.4019 49.2887 10.4299 49.41 10.4299C49.5034 10.4299 49.5967 10.4253 49.69 10.4159C49.7834 10.4066 49.8767 10.4019 49.97 10.4019C50.0167 10.4019 50.0494 10.4253 50.068 10.4719C50.0867 10.5093 50.096 10.5466 50.096 10.5839C50.096 10.7333 50.0214 10.8079 49.872 10.8079C49.592 10.8079 49.312 10.8033 49.032 10.7939C48.752 10.7753 48.472 10.7659 48.192 10.7659C47.9027 10.7659 47.6087 10.7753 47.31 10.7939C47.0207 10.8126 46.7267 10.8219 46.428 10.8219C46.3907 10.8219 46.3627 10.7939 46.344 10.7379C46.3347 10.6819 46.33 10.6353 46.33 10.5979C46.33 10.5046 46.3674 10.4533 46.442 10.4439C46.5447 10.4253 46.652 10.4206 46.764 10.4299C46.876 10.4393 46.9787 10.4439 47.072 10.4439C47.212 10.4439 47.324 10.4159 47.408 10.3599C47.5014 10.2946 47.5527 10.1873 47.562 10.0379C47.5807 9.73928 47.59 9.43595 47.59 9.12795C47.5994 8.81995 47.604 8.51195 47.604 8.20395V6.84595C47.5947 6.44461 47.59 6.04795 47.59 5.65595C47.5994 5.25461 47.5854 4.85794 47.548 4.46595C47.5387 4.27928 47.4874 4.14861 47.394 4.07395C47.3007 3.98995 47.1607 3.94794 46.974 3.94794C46.8994 3.94794 46.82 3.95728 46.736 3.97595C46.6614 3.98528 46.582 3.98994 46.498 3.98994C46.4234 3.98994 46.386 3.93394 46.386 3.82194C46.386 3.75661 46.4187 3.70995 46.484 3.68195C46.5774 3.65394 46.6754 3.63528 46.778 3.62594C46.8807 3.60728 46.9787 3.59328 47.072 3.58394C47.324 3.53728 47.576 3.49061 47.828 3.44394C48.08 3.39728 48.332 3.34128 48.584 3.27595C48.668 3.30394 48.7287 3.35528 48.766 3.42994C48.7847 3.46728 48.7987 3.56995 48.808 3.73795C48.8174 3.90594 48.822 4.10194 48.822 4.32595C48.822 4.54061 48.822 4.74595 48.822 4.94195C48.822 5.12861 48.822 5.25928 48.822 5.33395C49.0274 5.00728 49.2607 4.68061 49.522 4.35395C49.7834 4.02728 50.082 3.75661 50.418 3.54195C50.754 3.32728 51.132 3.21995 51.552 3.21995C51.776 3.21995 51.9207 3.28995 51.986 3.42994C52.0514 3.56994 52.0934 3.73328 52.112 3.91994C52.1307 4.02261 52.1447 4.12995 52.154 4.24194C52.1727 4.35394 52.182 4.46128 52.182 4.56394ZM58.9067 7.09795C58.9067 6.69661 58.8741 6.29528 58.8087 5.89394C58.7527 5.48328 58.6407 5.10528 58.4727 4.75994C58.3141 4.41461 58.0807 4.13928 57.7727 3.93395C57.4647 3.71928 57.0634 3.61195 56.5687 3.61195C56.1021 3.61195 55.7194 3.72395 55.4207 3.94794C55.1314 4.17194 54.9027 4.46128 54.7347 4.81595C54.5761 5.17061 54.4641 5.55328 54.3987 5.96394C54.3427 6.37461 54.3147 6.76194 54.3147 7.12594C54.3147 7.52728 54.3427 7.92861 54.3987 8.32995C54.4641 8.73128 54.5807 9.09528 54.7487 9.42195C54.9167 9.73928 55.1547 9.99595 55.4627 10.1919C55.7801 10.3879 56.1861 10.4859 56.6807 10.4859C57.1661 10.4859 57.5534 10.3833 57.8427 10.1779C58.1414 9.97261 58.3654 9.70195 58.5147 9.36595C58.6734 9.02995 58.7761 8.66595 58.8227 8.27395C58.8787 7.87261 58.9067 7.48061 58.9067 7.09795ZM60.3487 7.13995C60.3487 7.83995 60.1807 8.46995 59.8447 9.02995C59.5181 9.58995 59.0701 10.0333 58.5007 10.3599C57.9407 10.6866 57.3107 10.8499 56.6107 10.8499C55.9294 10.8499 55.3134 10.6866 54.7627 10.3599C54.2121 10.0239 53.7734 9.58061 53.4467 9.02995C53.1201 8.46995 52.9567 7.84928 52.9567 7.16795C52.9567 6.46795 53.1154 5.82395 53.4327 5.23595C53.7501 4.63861 54.1841 4.15795 54.7347 3.79395C55.2947 3.42994 55.9387 3.24794 56.6667 3.24794C57.4507 3.24794 58.1181 3.41594 58.6687 3.75195C59.2194 4.07861 59.6347 4.53594 59.9147 5.12394C60.2041 5.70261 60.3487 6.37461 60.3487 7.13995Z" fill="#164610"/>
</svg>
