<svg width="84" height="18" viewBox="0 0 84 18" fill="none" xmlns="http://www.w3.org/2000/svg">
<path d="M14.376 8.90408C14.376 7.97608 14.272 7.03208 14.064 6.07208C13.872 5.11208 13.552 4.22408 13.104 3.40808C12.656 2.59208 12.056 1.93608 11.304 1.44008C10.552 0.928083 9.62401 0.672083 8.52001 0.672083C7.44801 0.672083 6.53601 0.936083 5.78401 1.46408C5.03201 1.99208 4.42401 2.68008 3.96001 3.52808C3.49601 4.36008 3.15201 5.26408 2.92801 6.24008C2.72001 7.20008 2.61601 8.12808 2.61601 9.02408C2.61601 9.96808 2.71201 10.9201 2.90401 11.8801C3.09601 12.8241 3.41601 13.6961 3.86401 14.4961C4.31201 15.2801 4.91201 15.9121 5.66401 16.3921C6.43201 16.8721 7.38401 17.1121 8.52001 17.1121C9.65601 17.1121 10.6 16.8641 11.352 16.3681C12.104 15.8721 12.696 15.2241 13.128 14.4241C13.576 13.6081 13.896 12.7201 14.088 11.7601C14.28 10.8001 14.376 9.84808 14.376 8.90408ZM16.992 8.83208C16.992 10.6081 16.664 12.1761 16.008 13.5361C15.368 14.8801 14.416 15.9281 13.152 16.6801C11.904 17.4321 10.36 17.8081 8.52001 17.8081C6.72801 17.8081 5.19201 17.4481 3.91201 16.7281C2.64801 15.9921 1.68001 14.9681 1.00801 13.6561C0.336006 12.3281 5.90086e-06 10.7841 5.90086e-06 9.02408C5.90086e-06 7.79208 0.200006 6.63208 0.600006 5.54408C1.00001 4.45608 1.57601 3.49608 2.32801 2.66408C3.08001 1.83208 3.97601 1.18408 5.01601 0.720083C6.07201 0.240083 7.24001 8.34465e-05 8.52001 8.34465e-05C10.312 8.34465e-05 11.832 0.376083 13.08 1.12808C14.344 1.86408 15.312 2.89608 15.984 4.22408C16.656 5.53608 16.992 7.07208 16.992 8.83208ZM33.1515 17.3761C33.1515 17.5841 33.0315 17.6881 32.7915 17.6881C32.4395 17.6881 32.0795 17.6801 31.7115 17.6641C31.3435 17.6321 30.9755 17.6161 30.6075 17.6161C30.0635 17.6161 29.5035 17.6321 28.9275 17.6641C28.3675 17.6801 27.8075 17.6881 27.2475 17.6881C27.1835 17.6881 27.1435 17.6401 27.1275 17.5441C27.1115 17.4321 27.1035 17.3441 27.1035 17.2801C27.1035 17.1521 27.1835 17.0881 27.3435 17.0881C27.5035 17.0881 27.6315 17.0881 27.7275 17.0881C27.8075 17.0881 27.8875 17.0961 27.9675 17.1121C28.0635 17.1121 28.1515 17.1121 28.2315 17.1121C28.6955 17.1121 28.9515 16.8801 28.9995 16.4161C29.0475 15.4721 29.0635 14.5201 29.0475 13.5601C29.0475 12.6001 29.0475 11.6481 29.0475 10.7041C29.0475 10.5281 29.0475 10.3521 29.0475 10.1761C29.0475 9.98408 29.0475 9.80008 29.0475 9.62408C29.0315 9.25608 29.0075 8.80808 28.9755 8.28008C28.9435 7.73608 28.8715 7.29608 28.7595 6.96008C28.5035 6.12808 27.9435 5.71208 27.0795 5.71208C26.2955 5.71208 25.5755 5.91208 24.9195 6.31208C24.2635 6.71208 23.6955 7.21608 23.2155 7.82408C23.1995 8.99208 23.1915 10.1521 23.1915 11.3041C23.1915 12.4561 23.1915 13.6081 23.1915 14.7601V16.4161C23.1915 16.6561 23.2955 16.8321 23.5035 16.9441C23.7115 17.0561 23.9195 17.1121 24.1275 17.1121C24.2555 17.1121 24.3755 17.1041 24.4875 17.0881C24.6155 17.0561 24.7355 17.0401 24.8475 17.0401C24.9115 17.0401 24.9515 17.0801 24.9675 17.1601C24.9835 17.2401 24.9915 17.3041 24.9915 17.3521C24.9915 17.4161 24.9675 17.4881 24.9195 17.5681C24.8875 17.6481 24.8235 17.6881 24.7275 17.6881C24.3755 17.6881 24.0235 17.6801 23.6715 17.6641C23.3355 17.6321 22.9915 17.6161 22.6395 17.6161C22.0955 17.6161 21.5515 17.6321 21.0075 17.6641C20.4635 17.6801 19.9115 17.6881 19.3515 17.6881C19.2715 17.6881 19.2235 17.6401 19.2075 17.5441C19.2075 17.4321 19.2075 17.3441 19.2075 17.2801C19.2075 17.1521 19.2795 17.0881 19.4235 17.0881C19.5675 17.0881 19.6795 17.0881 19.7595 17.0881C19.8395 17.0881 19.9195 17.0961 19.9995 17.1121C20.0795 17.1121 20.1595 17.1121 20.2395 17.1121C20.7035 17.1121 20.9595 16.8801 21.0075 16.4161C21.0235 16.1921 21.0315 15.9681 21.0315 15.7441C21.0315 15.5201 21.0315 15.2961 21.0315 15.0721C21.0315 13.6961 21.0315 12.3201 21.0315 10.9441C21.0315 9.55208 21.0235 8.16808 21.0075 6.79208C21.0075 6.56808 20.9595 6.34408 20.8635 6.12008C20.7675 5.89608 20.5835 5.78408 20.3115 5.78408C20.1035 5.78408 19.9035 5.81608 19.7115 5.88008C19.5195 5.94408 19.3195 5.97608 19.1115 5.97608C18.9995 5.97608 18.9435 5.89608 18.9435 5.73608C18.9435 5.70408 18.9435 5.67208 18.9435 5.64008C18.9595 5.59208 18.9755 5.56008 18.9915 5.54408C19.0075 5.52808 19.0315 5.52008 19.0635 5.52008C19.0955 5.50408 19.1195 5.48808 19.1355 5.47208C19.4235 5.39208 19.7195 5.33608 20.0235 5.30408C20.3435 5.27208 20.6475 5.22408 20.9355 5.16008C21.2075 5.11208 21.4715 5.04808 21.7275 4.96808C21.9835 4.87208 22.2395 4.82408 22.4955 4.82408C22.6075 4.82408 22.6955 4.88008 22.7595 4.99208C22.8395 5.13608 22.9035 5.34408 22.9515 5.61608C22.9995 5.87208 23.0315 6.13608 23.0475 6.40808C23.0795 6.68008 23.0955 6.90408 23.0955 7.08008C23.4475 6.72808 23.8635 6.38408 24.3435 6.04808C24.8395 5.69608 25.3515 5.40808 25.8795 5.18408C26.4235 4.94408 26.9515 4.82408 27.4635 4.82408C28.9355 4.82408 29.9275 5.15208 30.4395 5.80808C30.9675 6.44808 31.2315 7.46408 31.2315 8.85608C31.2315 10.1041 31.2235 11.3521 31.2075 12.6001C31.2075 13.8481 31.2075 15.0961 31.2075 16.3441C31.2075 16.6481 31.2955 16.8561 31.4715 16.9681C31.6635 17.0641 31.8875 17.1121 32.1435 17.1121C32.2715 17.1121 32.3995 17.1041 32.5275 17.0881C32.6555 17.0561 32.7755 17.0401 32.8875 17.0401C32.9835 17.0401 33.0475 17.0801 33.0795 17.1601C33.1275 17.2241 33.1515 17.2961 33.1515 17.3761ZM42.2436 16.6321C42.2436 16.7761 42.1316 16.9201 41.9076 17.0641C41.6996 17.2081 41.4436 17.3361 41.1396 17.4481C40.8356 17.5601 40.5396 17.6481 40.2516 17.7121C39.9796 17.7761 39.7796 17.8081 39.6516 17.8081C38.8196 17.8081 38.1716 17.7041 37.7076 17.4961C37.2596 17.2881 36.9396 16.9441 36.7476 16.4641C36.5716 15.9841 36.4836 15.3361 36.4836 14.5201C36.4836 13.1921 36.4836 11.8641 36.4836 10.5361C36.4996 9.19208 36.5156 7.85608 36.5316 6.52808H34.8036C34.6916 6.52808 34.5956 6.56008 34.5156 6.62408C34.4516 6.67208 34.3796 6.69608 34.2996 6.69608C34.2196 6.69608 34.1796 6.64008 34.1796 6.52808C34.1796 6.46408 34.2196 6.33608 34.2996 6.14408C34.3956 5.95208 34.4596 5.82408 34.4916 5.76008C34.5396 5.77608 34.6116 5.78408 34.7076 5.78408H36.5796L36.6036 2.73608C36.9716 2.49608 37.3076 2.23208 37.6116 1.94408C37.9156 1.64008 38.2196 1.33608 38.5236 1.03208C38.5556 1.00008 38.5876 0.976083 38.6196 0.960083C38.6516 0.928083 38.6836 0.912083 38.7156 0.912083C38.8596 0.912083 38.9316 0.968083 38.9316 1.08008L38.7876 5.76008C39.2996 5.76008 39.8036 5.75208 40.2996 5.73608C40.8116 5.72008 41.3156 5.71208 41.8116 5.71208C42.0196 5.71208 42.1236 5.83208 42.1236 6.07208C42.1236 6.37608 41.9876 6.52808 41.7156 6.52808H38.7876C38.7876 7.74408 38.7796 8.96808 38.7636 10.2001C38.7636 11.4161 38.7636 12.6401 38.7636 13.8721V15.7201C38.7636 16.1201 38.9316 16.4001 39.2676 16.5601C39.6036 16.7041 39.9316 16.7761 40.2516 16.7761C40.6996 16.7761 41.1396 16.7041 41.5716 16.5601C41.6196 16.5281 41.6916 16.4961 41.7876 16.4641C41.8836 16.4321 41.9556 16.4161 42.0036 16.4161C42.1636 16.4161 42.2436 16.4881 42.2436 16.6321ZM52.2293 9.31208C52.2133 8.65608 52.1573 8.03208 52.0613 7.44008C51.9653 6.83208 51.7333 6.33608 51.3653 5.95208C50.9973 5.55208 50.3973 5.35208 49.5653 5.35208C48.8133 5.35208 48.1973 5.56008 47.7173 5.97608C47.2533 6.37608 46.8933 6.88808 46.6373 7.51208C46.3813 8.12008 46.1893 8.74408 46.0613 9.38408C46.4613 9.40008 46.8533 9.41608 47.2373 9.43208C47.6213 9.43208 48.0053 9.43208 48.3893 9.43208C49.0293 9.43208 49.6693 9.42408 50.3093 9.40808C50.9493 9.37608 51.5893 9.34408 52.2293 9.31208ZM54.9893 14.8081C54.9893 14.8881 54.9733 14.9361 54.9413 14.9521C54.8933 15.1121 54.7733 15.3041 54.5813 15.5281C54.4053 15.7521 54.2053 15.9681 53.9813 16.1761C53.7573 16.3681 53.5733 16.5121 53.4293 16.6081C52.9013 16.9761 52.3013 17.2721 51.6293 17.4961C50.9733 17.7201 50.3173 17.8321 49.6613 17.8321C49.1173 17.8321 48.5093 17.7441 47.8373 17.5681C47.1813 17.3921 46.6213 17.1521 46.1573 16.8481C45.2613 16.2561 44.6053 15.4801 44.1893 14.5201C43.7733 13.5601 43.5653 12.5601 43.5653 11.5201C43.5653 10.3361 43.7973 9.24008 44.2613 8.23208C44.7253 7.22408 45.4693 6.40808 46.4933 5.78408C46.9573 5.51208 47.4773 5.28808 48.0533 5.11208C48.6293 4.92008 49.1813 4.82408 49.7093 4.82408C50.6533 4.82408 51.4853 5.01608 52.2053 5.40008C52.9253 5.78408 53.4853 6.32808 53.8853 7.03208C54.3013 7.72008 54.5093 8.54408 54.5093 9.50408C54.5093 9.77608 54.4453 9.95208 54.3173 10.0321C54.2053 10.1121 54.0293 10.1521 53.7893 10.1521C53.4693 10.1521 53.1493 10.1441 52.8293 10.1281C52.5093 10.1121 52.1893 10.0961 51.8693 10.0801C51.4213 10.0481 50.9733 10.0321 50.5253 10.0321C50.0933 10.0321 49.6533 10.0321 49.2053 10.0321C48.6613 10.0321 48.1173 10.0321 47.5733 10.0321C47.0293 10.0321 46.4853 10.0481 45.9413 10.0801C45.9253 10.3361 45.9093 10.5841 45.8933 10.8241C45.8773 11.0641 45.8693 11.3121 45.8693 11.5681C45.8693 12.1601 45.9413 12.7761 46.0853 13.4161C46.2293 14.0401 46.4613 14.6241 46.7813 15.1681C47.1013 15.6961 47.5093 16.1281 48.0053 16.4641C48.5013 16.7841 49.1013 16.9441 49.8053 16.9441C50.5253 16.9441 51.2133 16.8321 51.8693 16.6081C52.5253 16.3841 53.1253 16.0241 53.6693 15.5281C53.8133 15.3841 53.9413 15.2321 54.0533 15.0721C54.1813 14.8961 54.3173 14.7441 54.4613 14.6161C54.5413 14.5361 54.6293 14.4961 54.7253 14.4961C54.8053 14.4961 54.8693 14.5281 54.9173 14.5921C54.9653 14.6561 54.9893 14.7281 54.9893 14.8081ZM77.3794 17.4241C77.3794 17.6481 77.2914 17.7601 77.1154 17.7601C76.6674 17.7601 76.2114 17.7441 75.7474 17.7121C75.2834 17.6801 74.8194 17.6641 74.3554 17.6641C73.8914 17.6641 73.4194 17.6801 72.9394 17.7121C72.4754 17.7441 72.0114 17.7601 71.5474 17.7601C71.4834 17.7601 71.4354 17.7201 71.4034 17.6401C71.3874 17.5601 71.3794 17.4961 71.3794 17.4481C71.3794 17.3041 71.4514 17.2161 71.5954 17.1841C71.7554 17.1521 71.9234 17.1441 72.0994 17.1601C72.2914 17.1761 72.4354 17.1841 72.5314 17.1841C72.7554 17.1841 72.9394 17.1281 73.0834 17.0161C73.2274 16.9041 73.2994 16.7361 73.2994 16.5121C73.2994 15.4401 73.3074 14.3761 73.3234 13.3201C73.3554 12.2641 73.3714 11.2081 73.3714 10.1521C73.3714 9.97608 73.3714 9.80008 73.3714 9.62408C73.3714 9.44808 73.3634 9.27208 73.3474 9.09608C73.3314 8.71208 73.3074 8.32008 73.2754 7.92008C73.2594 7.50408 73.1954 7.12008 73.0834 6.76808C72.9714 6.40008 72.7794 6.10408 72.5074 5.88008C72.2354 5.65608 71.8434 5.54408 71.3314 5.54408C70.9634 5.54408 70.5554 5.65608 70.1074 5.88008C69.6754 6.08808 69.2594 6.33608 68.8594 6.62408C68.4594 6.91208 68.1234 7.18408 67.8514 7.44008C67.8834 7.66408 67.8994 7.89608 67.8994 8.13608C67.8994 8.36008 67.8994 8.58408 67.8994 8.80808C67.8994 9.27208 67.8994 9.74408 67.8994 10.2241C67.9154 10.6881 67.9234 11.1521 67.9234 11.6161C67.9234 12.4321 67.9154 13.2481 67.8994 14.0641C67.8994 14.8801 67.8994 15.6961 67.8994 16.5121C67.8994 16.7521 68.0034 16.9201 68.2114 17.0161C68.4194 17.1121 68.6274 17.1601 68.8354 17.1601C68.9634 17.1601 69.0914 17.1521 69.2194 17.1361C69.3634 17.1201 69.4914 17.1121 69.6034 17.1121C69.6834 17.1121 69.7314 17.1521 69.7474 17.2321C69.7794 17.3121 69.7954 17.3761 69.7954 17.4241C69.7954 17.5041 69.7714 17.5841 69.7234 17.6641C69.6754 17.7281 69.6034 17.7601 69.5074 17.7601C69.0594 17.7601 68.6034 17.7441 68.1394 17.7121C67.6914 17.6801 67.2354 17.6641 66.7714 17.6641C66.3234 17.6641 65.8674 17.6801 65.4034 17.7121C64.9394 17.7441 64.4754 17.7601 64.0114 17.7601C63.9474 17.7601 63.8994 17.7201 63.8674 17.6401C63.8354 17.5601 63.8194 17.4961 63.8194 17.4481C63.8194 17.3201 63.8834 17.2321 64.0114 17.1841C64.1394 17.1521 64.2914 17.1441 64.4674 17.1601C64.6594 17.1761 64.8194 17.1841 64.9474 17.1841C65.1714 17.1841 65.3554 17.1361 65.4994 17.0401C65.6594 16.9281 65.7394 16.7521 65.7394 16.5121V10.3921C65.7394 10.0561 65.7314 9.64008 65.7154 9.14408C65.7154 8.64808 65.6834 8.16008 65.6194 7.68008C65.5714 7.18408 65.4834 6.79208 65.3554 6.50408C65.2434 6.21608 65.0514 5.99208 64.7794 5.83208C64.5234 5.67208 64.2354 5.59208 63.9154 5.59208C63.4994 5.59208 63.0754 5.69608 62.6434 5.90408C62.2114 6.11208 61.8034 6.36808 61.4194 6.67208C61.0354 6.97608 60.7074 7.28008 60.4354 7.58408V16.4881C60.4354 16.7281 60.5234 16.9041 60.6994 17.0161C60.8754 17.1121 61.0674 17.1601 61.2754 17.1601C61.4034 17.1601 61.5314 17.1521 61.6594 17.1361C61.7874 17.1041 61.9074 17.0881 62.0194 17.0881C62.0834 17.0881 62.1234 17.1361 62.1394 17.2321C62.1554 17.3121 62.1634 17.3681 62.1634 17.4001C62.1634 17.4801 62.1394 17.5601 62.0914 17.6401C62.0594 17.7041 61.9954 17.7361 61.8994 17.7361C61.5954 17.7361 61.2914 17.7281 60.9874 17.7121C60.6834 17.6801 60.3794 17.6641 60.0754 17.6641C59.4674 17.6641 58.8594 17.6801 58.2514 17.7121C57.6434 17.7281 57.0354 17.7361 56.4274 17.7361C56.3634 17.7361 56.3154 17.6961 56.2834 17.6161C56.2514 17.5361 56.2354 17.4721 56.2354 17.4241C56.2354 17.2321 56.3154 17.1361 56.4754 17.1361C56.6514 17.1361 56.8194 17.1441 56.9794 17.1601C57.1394 17.1601 57.2994 17.1601 57.4594 17.1601C57.6834 17.1601 57.8754 17.1121 58.0354 17.0161C58.1954 16.9041 58.2754 16.7281 58.2754 16.4881C58.2754 14.8721 58.2674 13.2561 58.2514 11.6401C58.2514 10.0081 58.2514 8.38408 58.2514 6.76808C58.2514 6.59208 58.2354 6.41608 58.2034 6.24008C58.1714 6.06408 58.0674 5.94408 57.8914 5.88008C57.7794 5.83208 57.6594 5.80808 57.5314 5.80808C57.3234 5.80808 57.1154 5.84008 56.9074 5.90408C56.6994 5.95208 56.4834 5.97608 56.2594 5.97608C56.1154 5.97608 56.0434 5.88008 56.0434 5.68808C56.0434 5.56008 56.0914 5.48008 56.1874 5.44808C56.2674 5.41608 56.3554 5.40008 56.4514 5.40008C56.5634 5.38408 56.6674 5.36808 56.7634 5.35208C57.1314 5.30408 57.4994 5.24808 57.8674 5.18408C58.2514 5.10408 58.6194 5.02408 58.9714 4.94408C59.0994 4.91208 59.2354 4.88008 59.3794 4.84808C59.5234 4.81608 59.6674 4.80008 59.8114 4.80008C60.0034 4.80008 60.1314 4.94408 60.1954 5.23208C60.2754 5.50408 60.3154 5.80008 60.3154 6.12008C60.3314 6.44008 60.3394 6.67208 60.3394 6.81608C60.6754 6.52808 61.0514 6.23208 61.4674 5.92808C61.8834 5.60808 62.3234 5.33608 62.7874 5.11208C63.2514 4.88808 63.7154 4.77608 64.1794 4.77608C64.9954 4.77608 65.6834 4.91208 66.2434 5.18408C66.8034 5.45608 67.2834 5.96808 67.6834 6.72008C68.0354 6.41608 68.4354 6.11208 68.8834 5.80808C69.3314 5.48808 69.7954 5.22408 70.2754 5.01608C70.7714 4.79208 71.2594 4.68008 71.7394 4.68008C72.7954 4.68008 73.5954 4.83208 74.1394 5.13608C74.6994 5.44008 75.0754 5.91208 75.2674 6.55208C75.4754 7.17608 75.5794 7.98408 75.5794 8.97608C75.5794 10.2241 75.5714 11.4801 75.5554 12.7441C75.5394 13.9921 75.5314 15.2481 75.5314 16.5121C75.5314 16.7521 75.6354 16.9201 75.8434 17.0161C76.0674 17.1121 76.2834 17.1601 76.4914 17.1601C76.6194 17.1601 76.7394 17.1521 76.8514 17.1361C76.9794 17.1201 77.0994 17.1121 77.2114 17.1121C77.2754 17.1121 77.3154 17.1521 77.3314 17.2321C77.3634 17.3121 77.3794 17.3761 77.3794 17.4241ZM83.9295 15.9361C83.9295 16.3841 83.7615 16.7601 83.4255 17.0641C83.0895 17.3521 82.7055 17.4961 82.2735 17.4961C81.8415 17.4961 81.4575 17.3521 81.1215 17.0641C80.7855 16.7601 80.6175 16.3841 80.6175 15.9361C80.6175 15.4721 80.7775 15.0961 81.0975 14.8081C81.4335 14.5041 81.8255 14.3521 82.2735 14.3521C82.7215 14.3521 83.1055 14.5041 83.4255 14.8081C83.7615 15.0961 83.9295 15.4721 83.9295 15.9361ZM83.9295 7.34408C83.9295 7.79208 83.7615 8.16808 83.4255 8.47208C83.1055 8.77608 82.7215 8.92808 82.2735 8.92808C81.8255 8.92808 81.4335 8.77608 81.0975 8.47208C80.7775 8.16808 80.6175 7.79208 80.6175 7.34408C80.6175 6.89608 80.7855 6.52808 81.1215 6.24008C81.4575 5.93608 81.8415 5.78408 82.2735 5.78408C82.7055 5.78408 83.0895 5.93608 83.4255 6.24008C83.7615 6.52808 83.9295 6.89608 83.9295 7.34408Z" fill="black"/>
</svg>
