<svg width="93" height="18" viewBox="0 0 93 18" fill="none" xmlns="http://www.w3.org/2000/svg">
<path d="M8.87301 4.80705C8.87301 3.69238 8.58167 2.93238 7.99901 2.52705C7.42901 2.10905 6.62467 1.90005 5.58601 1.90005H4.95901C4.83234 1.90005 4.67401 1.91272 4.48401 1.93805C4.30667 1.95072 4.14201 1.99505 3.99001 2.07105C3.85067 2.13438 3.78101 2.25472 3.78101 2.43205V7.71405C3.92034 7.76472 4.07867 7.79638 4.25601 7.80905C4.43334 7.82172 4.59801 7.82805 4.75001 7.82805C5.25667 7.82805 5.75067 7.78372 6.23201 7.69505C6.72601 7.60638 7.16934 7.45438 7.56201 7.23905C7.96734 7.02372 8.28401 6.71972 8.51201 6.32705C8.75267 5.93438 8.87301 5.42772 8.87301 4.80705ZM13.034 15.0481C13.034 15.1367 12.9453 15.2064 12.768 15.2571C12.5907 15.3077 12.3817 15.3394 12.141 15.3521C11.9003 15.3774 11.6723 15.3901 11.457 15.3901C11.2543 15.3901 11.115 15.3901 11.039 15.3901C10.5323 15.3901 10.127 15.3394 9.82301 15.2381C9.51901 15.1241 9.22134 14.8391 8.93001 14.3831C8.30934 13.3824 7.70767 12.3691 7.12501 11.3431C6.55501 10.3171 5.98501 9.28472 5.41501 8.24605L3.78101 8.30305V14.3261C3.78101 14.5161 3.85701 14.6427 4.00901 14.7061C4.16101 14.7694 4.31301 14.8011 4.46501 14.8011C4.64234 14.8011 4.81334 14.7947 4.97801 14.7821C5.14267 14.7694 5.30734 14.7631 5.47201 14.7631C5.56067 14.7631 5.61134 14.8011 5.62401 14.8771C5.64934 14.9531 5.66201 15.0227 5.66201 15.0861C5.66201 15.1874 5.63034 15.2571 5.56701 15.2951C5.51634 15.3204 5.44667 15.3331 5.35801 15.3331C4.80067 15.3331 4.23701 15.3267 3.66701 15.3141C3.09701 15.2887 2.53334 15.2761 1.97601 15.2761C1.67201 15.2761 1.36801 15.2887 1.06401 15.3141C0.772673 15.3267 0.475006 15.3331 0.171006 15.3331C0.0950064 15.3331 0.0443397 15.3014 0.0190064 15.2381C0.00633969 15.1621 6.35162e-06 15.0987 6.35162e-06 15.0481C6.35162e-06 14.8834 0.069673 14.8011 0.209006 14.8011C0.323006 14.8011 0.430673 14.8074 0.532006 14.8201C0.646006 14.8201 0.753673 14.8201 0.855006 14.8201C1.04501 14.8201 1.24767 14.8011 1.46301 14.7631C1.69101 14.7124 1.81767 14.5667 1.84301 14.3261C1.86834 14.0094 1.87467 13.6421 1.86201 13.2241C1.86201 12.7934 1.86201 12.4197 1.86201 12.1031C1.86201 11.6851 1.86201 11.2671 1.86201 10.8491C1.86201 10.4184 1.86201 9.99405 1.86201 9.57605C1.86201 8.70205 1.86201 7.82805 1.86201 6.95405C1.87467 6.08005 1.88101 5.20605 1.88101 4.33205C1.88101 4.01538 1.88101 3.69872 1.88101 3.38205C1.88101 3.05272 1.86834 2.73605 1.84301 2.43205C1.81767 2.17872 1.68467 2.03938 1.44401 2.01405C1.21601 1.97605 1.00701 1.95705 0.817006 1.95705C0.741006 1.95705 0.665006 1.96338 0.589006 1.97605C0.513006 1.97605 0.437006 1.97605 0.361006 1.97605C0.171006 1.97605 0.0760064 1.86838 0.0760064 1.65305C0.0760064 1.51372 0.13934 1.44405 0.266006 1.44405C0.696673 1.44405 1.12101 1.45672 1.53901 1.48205C1.96967 1.50738 2.40034 1.52005 2.83101 1.52005C3.42634 1.52005 4.01534 1.49472 4.59801 1.44405C5.18067 1.39338 5.76334 1.36805 6.34601 1.36805C6.82734 1.36805 7.33401 1.41872 7.86601 1.52005C8.41067 1.62138 8.91734 1.78605 9.38601 2.01405C9.85467 2.24205 10.2347 2.55872 10.526 2.96405C10.83 3.35672 10.982 3.85705 10.982 4.46505C10.982 5.22505 10.7667 5.88372 10.336 6.44105C9.91801 6.98572 9.37334 7.41005 8.70201 7.71405C8.46134 7.82805 8.21434 7.91672 7.96101 7.98005C7.70767 8.03072 7.45434 8.08138 7.20101 8.13205C7.78367 9.12005 8.39167 10.0954 9.02501 11.0581C9.67101 12.0207 10.3233 12.9707 10.982 13.9081C11.172 14.1741 11.3683 14.3894 11.571 14.5541C11.7863 14.7061 12.0523 14.8137 12.369 14.8771C12.445 14.8897 12.5717 14.8961 12.749 14.8961C12.939 14.8961 13.034 14.9467 13.034 15.0481ZM22.3256 11.9891C22.3256 11.4571 22.2053 11.0137 21.9646 10.6591C21.7239 10.3044 21.4136 10.0004 21.0336 9.74705C20.6663 9.48105 20.2799 9.23405 19.8746 9.00605V14.8201C20.6219 14.5667 21.2173 14.2437 21.6606 13.8511C22.1039 13.4584 22.3256 12.8377 22.3256 11.9891ZM19.1906 1.67205C18.4686 1.82405 17.8923 2.07738 17.4616 2.43205C17.0436 2.78672 16.8346 3.36305 16.8346 4.16105C16.8346 4.61705 16.9549 5.01605 17.1956 5.35805C17.4489 5.70005 17.7529 5.99772 18.1076 6.25105C18.4749 6.50438 18.8359 6.73872 19.1906 6.95405V1.67205ZM24.2446 11.7041C24.2446 12.3374 24.1179 12.8757 23.8646 13.3191C23.6239 13.7497 23.2883 14.1107 22.8576 14.4021C22.4396 14.6807 21.9709 14.8961 21.4516 15.0481C20.9323 15.2001 20.4066 15.3077 19.8746 15.3711V16.7961H19.1906V15.4091C18.8106 15.3964 18.4433 15.3711 18.0886 15.3331C17.7339 15.2824 17.3793 15.1937 17.0246 15.0671C16.7586 14.9657 16.4989 14.8517 16.2456 14.7251C16.0049 14.5857 15.7389 14.4907 15.4476 14.4401C15.3843 13.9967 15.2956 13.5154 15.1816 12.9961C15.0676 12.4641 15.0106 11.9827 15.0106 11.5521C15.0106 11.3621 15.1246 11.2671 15.3526 11.2671C15.5173 11.2671 15.6249 11.3114 15.6756 11.4001C15.7389 11.4761 15.7833 11.5837 15.8086 11.7231C15.8339 11.8877 15.8593 12.0461 15.8846 12.1981C15.9226 12.3501 15.9669 12.5084 16.0176 12.6731C16.2583 13.4457 16.6509 13.9841 17.1956 14.2881C17.7529 14.5794 18.4179 14.7567 19.1906 14.8201V8.66405C18.7093 8.42338 18.2216 8.18905 17.7276 7.96105C17.3349 7.77105 16.9359 7.52405 16.5306 7.22005C16.1379 6.91605 15.8086 6.56138 15.5426 6.15605C15.2893 5.75072 15.1626 5.30738 15.1626 4.82605C15.1626 4.05338 15.3526 3.42005 15.7326 2.92605C16.1253 2.41938 16.6256 2.03305 17.2336 1.76705C17.8543 1.50105 18.5066 1.34272 19.1906 1.29205V5.02467e-05H19.8746V1.31105C20.2293 1.32372 20.5586 1.37438 20.8626 1.46305C21.1793 1.55172 21.4959 1.67205 21.8126 1.82405C22.0026 1.91272 22.2243 1.97605 22.4776 2.01405C22.7309 2.05205 22.9589 2.08372 23.1616 2.10905C23.1743 2.29905 23.1933 2.53972 23.2186 2.83105C23.2439 3.10972 23.2756 3.39472 23.3136 3.68605C23.3516 3.96472 23.3896 4.19272 23.4276 4.37005C23.4656 4.45872 23.4846 4.56005 23.4846 4.67405C23.4846 4.86405 23.4339 4.99072 23.3326 5.05405C23.2313 5.10472 23.0983 5.13005 22.9336 5.13005C22.8323 5.13005 22.7563 5.11738 22.7056 5.09205C22.6676 5.06672 22.6359 5.00972 22.6106 4.92105C22.5726 4.74372 22.5409 4.56638 22.5156 4.38905C22.4903 4.21172 22.4523 4.04072 22.4016 3.87605C22.2369 3.29338 21.9139 2.81205 21.4326 2.43205C20.9639 2.05205 20.4446 1.79872 19.8746 1.67205V7.25805C20.3813 7.48605 20.8879 7.72672 21.3946 7.98005C21.9139 8.22072 22.3889 8.50572 22.8196 8.83505C23.2503 9.16438 23.5923 9.56338 23.8456 10.0321C24.1116 10.4881 24.2446 11.0454 24.2446 11.7041ZM41.2913 12.4261C41.2913 12.4514 41.266 12.5211 41.2153 12.6351C41.1773 12.7364 41.152 12.8061 41.1393 12.8441C41.0886 12.9707 41.038 13.0974 40.9873 13.2241C40.9493 13.3507 40.9113 13.4774 40.8733 13.6041C40.81 13.8447 40.753 14.0854 40.7023 14.3261C40.6516 14.5667 40.5946 14.8011 40.5313 15.0291C40.468 15.2064 40.3603 15.2951 40.2083 15.2951C39.8536 15.2951 39.4356 15.2824 38.9543 15.2571C38.473 15.2317 38.0613 15.2191 37.7193 15.2191C37.048 15.2191 36.421 15.2254 35.8383 15.2381C35.2683 15.2381 34.692 15.2444 34.1093 15.2571C33.818 15.2571 33.5203 15.2697 33.2163 15.2951C32.925 15.3077 32.6336 15.3141 32.3423 15.3141C32.279 15.3141 32.2093 15.2951 32.1333 15.2571C32.0573 15.2191 32.0193 15.1557 32.0193 15.0671C32.0193 14.5984 32.127 14.1487 32.3423 13.7181C32.545 13.3254 32.8363 12.8884 33.2163 12.4071C33.609 11.9257 34.0396 11.4381 34.5083 10.9441C34.977 10.4501 35.433 9.98138 35.8763 9.53805C36.3323 9.09472 36.725 8.71472 37.0543 8.39805C37.5103 7.95472 37.903 7.42272 38.2323 6.80205C38.5616 6.16872 38.7263 5.52905 38.7263 4.88305C38.7263 4.40172 38.663 3.95205 38.5363 3.53405C38.4223 3.10338 38.2133 2.75505 37.9093 2.48905C37.6053 2.22305 37.1746 2.09005 36.6173 2.09005C36.136 2.09005 35.7053 2.17238 35.3253 2.33705C34.958 2.48905 34.635 2.78038 34.3563 3.21105C34.179 3.48972 34.065 3.81905 34.0143 4.19905C33.9763 4.56638 33.9446 4.91472 33.9193 5.24405C33.9066 5.67472 33.666 5.89005 33.1973 5.89005C32.526 5.89005 32.1903 5.57338 32.1903 4.94005C32.1903 4.34472 32.3423 3.83172 32.6463 3.40105C32.963 2.97038 33.362 2.61572 33.8433 2.33705C34.3373 2.05838 34.863 1.84938 35.4203 1.71005C35.9776 1.57072 36.5033 1.50105 36.9973 1.50105C37.618 1.50105 38.2133 1.63405 38.7833 1.90005C39.366 2.16605 39.841 2.54605 40.2083 3.04005C40.5756 3.52138 40.7593 4.09772 40.7593 4.76905C40.7593 5.60505 40.601 6.32072 40.2843 6.91605C39.9676 7.51138 39.5496 8.03705 39.0303 8.49305C38.5236 8.94905 37.9726 9.37338 37.3773 9.76605C36.782 10.1461 36.1993 10.5451 35.6293 10.9631C35.2366 11.2544 34.8566 11.5901 34.4893 11.9701C34.1346 12.3374 33.799 12.7111 33.4823 13.0911C33.4316 13.1671 33.3493 13.2811 33.2353 13.4331C33.134 13.5851 33.0833 13.7117 33.0833 13.8131C33.0833 13.9144 33.134 13.9651 33.2353 13.9651C33.9953 13.9651 34.7553 13.9524 35.5153 13.9271C36.2753 13.8891 37.0416 13.8637 37.8143 13.8511C38.5236 13.8384 39.1126 13.7307 39.5813 13.5281C40.0626 13.3254 40.5186 12.9327 40.9493 12.3501C40.9873 12.2994 41.0316 12.2741 41.0823 12.2741C41.1203 12.2741 41.1646 12.2931 41.2153 12.3311C41.266 12.3564 41.2913 12.3881 41.2913 12.4261ZM52.4793 10.4311C52.4793 11.0264 52.359 11.6597 52.1183 12.3311C51.8777 13.0024 51.5293 13.5407 51.0733 13.9461C50.5667 14.3894 49.9587 14.7314 49.2493 14.9721C48.54 15.2127 47.8497 15.3331 47.1783 15.3331C46.8617 15.3331 46.4817 15.2951 46.0383 15.2191C45.595 15.1304 45.158 15.0037 44.7273 14.8391C44.2967 14.6617 43.9357 14.4337 43.6443 14.1551C43.353 13.8637 43.2073 13.5154 43.2073 13.1101C43.2073 12.8314 43.3023 12.6161 43.4923 12.4641C43.6823 12.2994 43.9103 12.2171 44.1763 12.2171C44.4043 12.2171 44.607 12.2741 44.7843 12.3881C44.9617 12.5021 45.0567 12.6857 45.0693 12.9391C45.12 13.5217 45.2847 13.9714 45.5633 14.2881C45.8547 14.6047 46.3107 14.7631 46.9313 14.7631C47.8053 14.7631 48.5147 14.5604 49.0593 14.1551C49.604 13.7371 50.0093 13.1101 50.2753 12.2741C50.364 11.9827 50.4147 11.6851 50.4273 11.3811C50.4527 11.0644 50.4653 10.7541 50.4653 10.4501C50.4653 10.0321 50.4147 9.58238 50.3133 9.10105C50.2247 8.60705 50.0537 8.18905 49.8003 7.84705C49.585 7.55572 49.3063 7.35938 48.9643 7.25805C48.635 7.15672 48.293 7.10605 47.9383 7.10605C47.6597 7.10605 47.3557 7.15672 47.0263 7.25805C46.697 7.34672 46.4247 7.47972 46.2093 7.65705C45.994 7.83438 45.7977 8.06238 45.6203 8.34105C45.443 8.60705 45.3417 8.88572 45.3163 9.17705C45.3037 9.25305 45.291 9.34805 45.2783 9.46205C45.2657 9.57605 45.2023 9.63305 45.0883 9.63305C45.025 9.63305 44.892 9.60772 44.6893 9.55705C44.4993 9.49372 44.3157 9.42405 44.1383 9.34805C43.9737 9.25938 43.8913 9.18338 43.8913 9.12005C43.8913 9.08205 43.8977 9.04405 43.9103 9.00605C43.923 8.96805 43.9357 8.93005 43.9483 8.89205C44.037 8.60072 44.1067 8.23972 44.1573 7.80905C44.2207 7.36572 44.265 6.90338 44.2903 6.42205C44.3157 5.92805 44.3347 5.45305 44.3473 4.99705C44.36 4.54105 44.3663 4.15472 44.3663 3.83805C44.3663 3.09072 44.3283 2.33705 44.2523 1.57705C44.645 1.62772 45.0313 1.66572 45.4113 1.69105C45.804 1.71638 46.1967 1.72905 46.5893 1.72905H49.3063C49.6357 1.72905 50.0157 1.71005 50.4463 1.67205C50.8897 1.63405 51.257 1.53272 51.5483 1.36805C51.6117 1.33005 51.6813 1.29205 51.7573 1.25405C51.846 1.20338 51.922 1.17805 51.9853 1.17805C52.0233 1.17805 52.0803 1.18438 52.1563 1.19705C52.2323 1.19705 52.2703 1.22872 52.2703 1.29205C52.2703 1.35538 52.226 1.48838 52.1373 1.69105C52.0487 1.88105 51.9537 2.07738 51.8523 2.28005C51.751 2.48272 51.6813 2.61572 51.6433 2.67905C51.5927 2.76772 51.5293 2.82472 51.4533 2.85005C51.3773 2.87538 51.2887 2.88805 51.1873 2.88805C51.0227 2.88805 50.8517 2.88805 50.6743 2.88805C50.5097 2.87538 50.3387 2.86272 50.1613 2.85005C49.946 2.82472 49.7243 2.81838 49.4963 2.83105C49.2683 2.83105 49.0467 2.83105 48.8313 2.83105C48.4767 2.83105 48.122 2.83105 47.7673 2.83105C47.4127 2.81838 47.0517 2.81205 46.6843 2.81205C46.469 2.81205 46.2473 2.81205 46.0193 2.81205C45.804 2.81205 45.5887 2.81838 45.3733 2.83105C45.3607 3.62905 45.329 4.43338 45.2783 5.24405C45.2403 6.04205 45.2023 6.84005 45.1643 7.63805C45.747 7.23272 46.2853 6.93505 46.7793 6.74505C47.286 6.54238 47.894 6.44105 48.6033 6.44105C49.0847 6.44105 49.547 6.51072 49.9903 6.65005C50.4463 6.78938 50.8517 7.02372 51.2063 7.35305C51.6117 7.73305 51.922 8.20172 52.1373 8.75905C52.3653 9.31638 52.4793 9.87372 52.4793 10.4311ZM63.6484 2.05205C63.281 2.43205 62.9327 2.89438 62.6034 3.43905C62.2867 3.98372 61.9954 4.54738 61.7294 5.13005C61.4634 5.70005 61.2354 6.23838 61.0454 6.74505C60.602 7.91038 60.26 9.10738 60.0194 10.3361C59.7787 11.5647 59.6077 12.7997 59.5064 14.0411C59.4684 14.5224 59.386 14.9087 59.2594 15.2001C59.1327 15.4787 58.7907 15.6181 58.2334 15.6181C57.8914 15.6181 57.6634 15.4977 57.5494 15.2571C57.448 15.0037 57.3974 14.7377 57.3974 14.4591C57.3974 13.9271 57.4797 13.3254 57.6444 12.6541C57.809 11.9701 58.0117 11.2671 58.2524 10.5451C58.5057 9.82305 58.7654 9.13272 59.0314 8.47405C59.2974 7.80272 59.538 7.22005 59.7534 6.72605C60.0954 5.96605 60.4944 5.21238 60.9504 4.46505C61.419 3.71772 61.9067 3.01472 62.4134 2.35605C61.1214 2.36872 59.8167 2.40672 58.4994 2.47005C58.17 2.48272 57.828 2.50172 57.4734 2.52705C57.1187 2.53972 56.7767 2.58405 56.4474 2.66005C55.9787 2.76138 55.624 3.00205 55.3834 3.38205C55.1554 3.76205 54.9717 4.16738 54.8324 4.59805C54.807 4.61072 54.769 4.61705 54.7184 4.61705C54.617 4.61705 54.5284 4.59805 54.4524 4.56005C54.5157 4.10405 54.5664 3.64805 54.6044 3.19205C54.655 2.72338 54.7057 2.26105 54.7564 1.80505C54.7817 1.72905 54.7944 1.67838 54.7944 1.65305C54.807 1.61505 54.8514 1.58338 54.9274 1.55805C55.0287 1.53272 55.1364 1.52005 55.2504 1.52005C56.0357 1.52005 56.821 1.52638 57.6064 1.53905C58.4044 1.55172 59.2024 1.55805 60.0004 1.55805C60.6084 1.55805 61.2164 1.55172 61.8244 1.53905C62.4324 1.52638 63.0404 1.50738 63.6484 1.48205V2.05205ZM69.3454 14.3831C69.3454 14.7377 69.2694 15.1367 69.1174 15.5801C68.9654 16.0361 68.7691 16.4667 68.5284 16.8721C68.3004 17.2774 68.0534 17.6067 67.7874 17.8601L67.4454 17.7461C67.6607 17.3914 67.8444 16.9417 67.9964 16.3971C68.1484 15.8524 68.2244 15.3711 68.2244 14.9531V14.8771C67.9964 15.0671 67.7431 15.1621 67.4644 15.1621C67.2491 15.1621 67.0527 15.0481 66.8754 14.8201C66.6981 14.5794 66.6094 14.3577 66.6094 14.1551C66.6094 13.7371 66.7297 13.3824 66.9704 13.0911C67.2111 12.7997 67.5467 12.6541 67.9774 12.6541C68.4967 12.6541 68.8514 12.8314 69.0414 13.1861C69.2441 13.5281 69.3454 13.9271 69.3454 14.3831ZM79.617 6.25105C79.617 6.11172 79.617 5.97238 79.617 5.83305C79.617 5.68105 79.6106 5.53538 79.598 5.39605C79.5727 4.87672 79.4587 4.35738 79.256 3.83805C79.0533 3.30605 78.7556 2.86272 78.363 2.50805C77.9703 2.14072 77.4763 1.95705 76.881 1.95705C76.2096 1.95705 75.6776 2.14072 75.285 2.50805C74.8923 2.87538 74.6073 3.33772 74.43 3.89505C74.2653 4.45238 74.183 5.01605 74.183 5.58605C74.183 6.01672 74.2083 6.46005 74.259 6.91605C74.3096 7.35938 74.4173 7.77738 74.582 8.17005C74.7466 8.55005 74.9936 8.86038 75.323 9.10105C75.6523 9.32905 76.0893 9.44305 76.634 9.44305C76.9126 9.44305 77.2293 9.39238 77.584 9.29105C77.9513 9.18972 78.2933 9.04405 78.61 8.85405C78.9267 8.66405 79.161 8.44238 79.313 8.18905C79.4903 7.89772 79.5853 7.58738 79.598 7.25805C79.6106 6.91605 79.617 6.58038 79.617 6.25105ZM81.46 7.14405C81.46 7.57472 81.403 8.03705 81.289 8.53105C81.1876 9.01238 81.061 9.45572 80.909 9.86105C80.263 11.5964 79.3066 12.9834 78.04 14.0221C76.7733 15.0607 75.2533 15.8207 73.48 16.3021C73.4673 16.3021 73.4546 16.3021 73.442 16.3021C73.442 16.3021 73.4356 16.3021 73.423 16.3021C73.309 16.3021 73.252 16.2514 73.252 16.1501C73.252 16.0867 73.2773 16.0424 73.328 16.0171C73.3786 15.9917 73.4293 15.9727 73.48 15.9601C74.0626 15.7067 74.639 15.4344 75.209 15.1431C75.779 14.8517 76.2856 14.4781 76.729 14.0221C77.1343 13.6167 77.5206 13.1417 77.888 12.5971C78.268 12.0524 78.591 11.4824 78.857 10.8871C79.123 10.2791 79.2813 9.69005 79.332 9.12005C78.8886 9.41138 78.4136 9.65205 77.907 9.84205C77.4003 10.0321 76.8747 10.1271 76.33 10.1271C75.5066 10.1271 74.791 9.96238 74.183 9.63305C73.575 9.29105 73.1 8.81605 72.758 8.20805C72.4286 7.58738 72.264 6.86538 72.264 6.04205C72.264 5.04138 72.473 4.19905 72.891 3.51505C73.309 2.83105 73.8853 2.31172 74.62 1.95705C75.3673 1.60238 76.216 1.42505 77.166 1.42505C77.85 1.42505 78.477 1.59605 79.047 1.93805C79.617 2.28005 80.0983 2.72972 80.491 3.28705C80.8837 3.83172 81.1497 4.42072 81.289 5.05405C81.365 5.39605 81.4093 5.74438 81.422 6.09905C81.4473 6.44105 81.46 6.78938 81.46 7.14405ZM92.743 10.4311C92.743 11.0264 92.6227 11.6597 92.382 12.3311C92.1413 13.0024 91.793 13.5407 91.337 13.9461C90.8303 14.3894 90.2223 14.7314 89.513 14.9721C88.8037 15.2127 88.1133 15.3331 87.442 15.3331C87.1253 15.3331 86.7453 15.2951 86.302 15.2191C85.8587 15.1304 85.4217 15.0037 84.991 14.8391C84.5603 14.6617 84.1993 14.4337 83.908 14.1551C83.6167 13.8637 83.471 13.5154 83.471 13.1101C83.471 12.8314 83.566 12.6161 83.756 12.4641C83.946 12.2994 84.174 12.2171 84.44 12.2171C84.668 12.2171 84.8707 12.2741 85.048 12.3881C85.2253 12.5021 85.3203 12.6857 85.333 12.9391C85.3837 13.5217 85.5483 13.9714 85.827 14.2881C86.1183 14.6047 86.5743 14.7631 87.195 14.7631C88.069 14.7631 88.7783 14.5604 89.323 14.1551C89.8677 13.7371 90.273 13.1101 90.539 12.2741C90.6277 11.9827 90.6783 11.6851 90.691 11.3811C90.7163 11.0644 90.729 10.7541 90.729 10.4501C90.729 10.0321 90.6783 9.58238 90.577 9.10105C90.4883 8.60705 90.3173 8.18905 90.064 7.84705C89.8487 7.55572 89.57 7.35938 89.228 7.25805C88.8987 7.15672 88.5567 7.10605 88.202 7.10605C87.9233 7.10605 87.6193 7.15672 87.29 7.25805C86.9607 7.34672 86.6883 7.47972 86.473 7.65705C86.2577 7.83438 86.0613 8.06238 85.884 8.34105C85.7067 8.60705 85.6053 8.88572 85.58 9.17705C85.5673 9.25305 85.5547 9.34805 85.542 9.46205C85.5293 9.57605 85.466 9.63305 85.352 9.63305C85.2887 9.63305 85.1557 9.60772 84.953 9.55705C84.763 9.49372 84.5793 9.42405 84.402 9.34805C84.2373 9.25938 84.155 9.18338 84.155 9.12005C84.155 9.08205 84.1613 9.04405 84.174 9.00605C84.1867 8.96805 84.1993 8.93005 84.212 8.89205C84.3007 8.60072 84.3703 8.23972 84.421 7.80905C84.4843 7.36572 84.5287 6.90338 84.554 6.42205C84.5793 5.92805 84.5983 5.45305 84.611 4.99705C84.6237 4.54105 84.63 4.15472 84.63 3.83805C84.63 3.09072 84.592 2.33705 84.516 1.57705C84.9087 1.62772 85.295 1.66572 85.675 1.69105C86.0677 1.71638 86.4603 1.72905 86.853 1.72905H89.57C89.8993 1.72905 90.2793 1.71005 90.71 1.67205C91.1533 1.63405 91.5207 1.53272 91.812 1.36805C91.8753 1.33005 91.945 1.29205 92.021 1.25405C92.1097 1.20338 92.1857 1.17805 92.249 1.17805C92.287 1.17805 92.344 1.18438 92.42 1.19705C92.496 1.19705 92.534 1.22872 92.534 1.29205C92.534 1.35538 92.4897 1.48838 92.401 1.69105C92.3123 1.88105 92.2173 2.07738 92.116 2.28005C92.0147 2.48272 91.945 2.61572 91.907 2.67905C91.8563 2.76772 91.793 2.82472 91.717 2.85005C91.641 2.87538 91.5523 2.88805 91.451 2.88805C91.2863 2.88805 91.1153 2.88805 90.938 2.88805C90.7733 2.87538 90.6023 2.86272 90.425 2.85005C90.2097 2.82472 89.988 2.81838 89.76 2.83105C89.532 2.83105 89.3103 2.83105 89.095 2.83105C88.7403 2.83105 88.3857 2.83105 88.031 2.83105C87.6763 2.81838 87.3153 2.81205 86.948 2.81205C86.7327 2.81205 86.511 2.81205 86.283 2.81205C86.0677 2.81205 85.8523 2.81838 85.637 2.83105C85.6243 3.62905 85.5927 4.43338 85.542 5.24405C85.504 6.04205 85.466 6.84005 85.428 7.63805C86.0107 7.23272 86.549 6.93505 87.043 6.74505C87.5497 6.54238 88.1577 6.44105 88.867 6.44105C89.3483 6.44105 89.8107 6.51072 90.254 6.65005C90.71 6.78938 91.1153 7.02372 91.47 7.35305C91.8753 7.73305 92.1857 8.20172 92.401 8.75905C92.629 9.31638 92.743 9.87372 92.743 10.4311Z" fill="#E3E4EB"/>
</svg>
