<svg width="90" height="36" viewBox="0 0 90 36" fill="none" xmlns="http://www.w3.org/2000/svg">
<path d="M7.472 3.12C7.472 2.18133 7.22666 1.54133 6.736 1.2C6.256 0.848 5.57866 0.672 4.704 0.672H4.176C4.06933 0.672 3.936 0.682666 3.776 0.704C3.62666 0.714666 3.488 0.751999 3.36 0.815999C3.24266 0.869333 3.184 0.970667 3.184 1.12V5.568C3.30133 5.61067 3.43466 5.63733 3.584 5.648C3.73333 5.65867 3.872 5.664 4 5.664C4.42666 5.664 4.84266 5.62667 5.248 5.552C5.664 5.47733 6.03733 5.34933 6.368 5.168C6.70933 4.98667 6.976 4.73067 7.168 4.4C7.37066 4.06933 7.472 3.64267 7.472 3.12ZM10.976 11.744C10.976 11.8187 10.9013 11.8773 10.752 11.92C10.6027 11.9627 10.4267 11.9893 10.224 12C10.0213 12.0213 9.82933 12.032 9.648 12.032C9.47733 12.032 9.36 12.032 9.296 12.032C8.86933 12.032 8.528 11.9893 8.272 11.904C8.016 11.808 7.76533 11.568 7.52 11.184C6.99733 10.3413 6.49066 9.488 6 8.624C5.52 7.76 5.04 6.89067 4.56 6.016L3.184 6.064V11.136C3.184 11.296 3.248 11.4027 3.376 11.456C3.504 11.5093 3.632 11.536 3.76 11.536C3.90933 11.536 4.05333 11.5307 4.192 11.52C4.33066 11.5093 4.46933 11.504 4.608 11.504C4.68266 11.504 4.72533 11.536 4.736 11.6C4.75733 11.664 4.768 11.7227 4.768 11.776C4.768 11.8613 4.74133 11.92 4.688 11.952C4.64533 11.9733 4.58666 11.984 4.512 11.984C4.04266 11.984 3.568 11.9787 3.088 11.968C2.608 11.9467 2.13333 11.936 1.664 11.936C1.408 11.936 1.152 11.9467 0.895997 11.968C0.650664 11.9787 0.399997 11.984 0.143997 11.984C0.0799973 11.984 0.0373307 11.9573 0.0159973 11.904C0.00533065 11.84 -2.68221e-06 11.7867 -2.68221e-06 11.744C-2.68221e-06 11.6053 0.058664 11.536 0.175997 11.536C0.271997 11.536 0.362664 11.5413 0.447997 11.552C0.543997 11.552 0.634664 11.552 0.719997 11.552C0.879997 11.552 1.05066 11.536 1.232 11.504C1.424 11.4613 1.53066 11.3387 1.552 11.136C1.57333 10.8693 1.57866 10.56 1.568 10.208C1.568 9.84533 1.568 9.53067 1.568 9.264C1.568 8.912 1.568 8.56 1.568 8.208C1.568 7.84533 1.568 7.488 1.568 7.136C1.568 6.4 1.568 5.664 1.568 4.928C1.57866 4.192 1.584 3.456 1.584 2.72C1.584 2.45333 1.584 2.18667 1.584 1.92C1.584 1.64267 1.57333 1.376 1.552 1.12C1.53066 0.906666 1.41866 0.789333 1.216 0.768C1.024 0.735999 0.847997 0.719999 0.687997 0.719999C0.623997 0.719999 0.559997 0.725333 0.495997 0.735999C0.431997 0.735999 0.367997 0.735999 0.303997 0.735999C0.143997 0.735999 0.0639973 0.645333 0.0639973 0.464C0.0639973 0.346666 0.117331 0.287999 0.223997 0.287999C0.586664 0.287999 0.943997 0.298666 1.296 0.32C1.65866 0.341333 2.02133 0.351999 2.384 0.351999C2.88533 0.351999 3.38133 0.330666 3.872 0.287999C4.36266 0.245332 4.85333 0.223999 5.344 0.223999C5.74933 0.223999 6.176 0.266666 6.624 0.351999C7.08266 0.437333 7.50933 0.576 7.904 0.768C8.29866 0.96 8.61866 1.22667 8.864 1.568C9.12 1.89867 9.248 2.32 9.248 2.832C9.248 3.472 9.06666 4.02667 8.704 4.496C8.352 4.95467 7.89333 5.312 7.328 5.568C7.12533 5.664 6.91733 5.73867 6.704 5.792C6.49066 5.83467 6.27733 5.87733 6.064 5.92C6.55466 6.752 7.06666 7.57333 7.6 8.384C8.144 9.19467 8.69333 9.99467 9.248 10.784C9.408 11.008 9.57333 11.1893 9.744 11.328C9.92533 11.456 10.1493 11.5467 10.416 11.6C10.48 11.6107 10.5867 11.616 10.736 11.616C10.896 11.616 10.976 11.6587 10.976 11.744ZM16.7205 10.128C16.6778 9.648 16.6512 9.168 16.6405 8.688C16.6405 8.19733 16.6352 7.70667 16.6245 7.216H16.4005C16.0698 7.216 15.7018 7.26933 15.2965 7.376C14.9018 7.472 14.5232 7.62133 14.1605 7.824C13.7978 8.02667 13.4992 8.28267 13.2645 8.592C13.0405 8.89067 12.9285 9.23733 12.9285 9.632C12.9285 10.144 13.0725 10.5333 13.3605 10.8C13.6485 11.056 14.0378 11.184 14.5285 11.184C14.7632 11.184 15.0192 11.1307 15.2965 11.024C15.5738 10.9067 15.8405 10.768 16.0965 10.608C16.3525 10.448 16.5605 10.288 16.7205 10.128ZM19.5205 11.152C19.5205 11.1947 19.5152 11.2267 19.5045 11.248C19.3978 11.4827 19.2165 11.664 18.9605 11.792C18.7152 11.9093 18.4698 11.968 18.2245 11.968C17.7765 11.968 17.4512 11.84 17.2485 11.584C17.0565 11.3173 16.9018 10.992 16.7845 10.608C16.3792 10.9813 15.9312 11.296 15.4405 11.552C14.9498 11.7973 14.4218 11.92 13.8565 11.92C13.4618 11.92 13.0885 11.8453 12.7365 11.696C12.3952 11.536 12.1178 11.3067 11.9045 11.008C11.6912 10.7093 11.5845 10.3467 11.5845 9.92C11.5845 9.472 11.6965 9.088 11.9205 8.768C12.1552 8.43733 12.4485 8.16 12.8005 7.936C13.1632 7.70133 13.5472 7.51467 13.9525 7.376C14.3685 7.22667 14.7578 7.11467 15.1205 7.04C15.3658 6.98667 15.6165 6.93867 15.8725 6.896C16.1285 6.85333 16.3792 6.81067 16.6245 6.768C16.6245 6.46933 16.6085 6.12267 16.5765 5.728C16.5552 5.33333 16.4752 5.008 16.3365 4.752C16.1978 4.50667 16.0112 4.288 15.7765 4.096C15.5418 3.904 15.2805 3.808 14.9925 3.808C14.5018 3.808 14.1178 3.936 13.8405 4.192C13.5632 4.448 13.3658 4.81067 13.2485 5.28C13.2378 5.33333 13.2272 5.392 13.2165 5.456C13.2165 5.50933 13.2112 5.56267 13.2005 5.616C13.1898 5.68 13.1472 5.73867 13.0725 5.792C13.0085 5.83467 12.9392 5.856 12.8645 5.856C12.6618 5.856 12.4752 5.808 12.3045 5.712C12.1445 5.616 12.0645 5.456 12.0645 5.232C12.0645 5.104 12.0858 4.992 12.1285 4.896C12.2672 4.56533 12.4912 4.29333 12.8005 4.08C13.1098 3.856 13.4512 3.68533 13.8245 3.568C14.2085 3.45067 14.5658 3.392 14.8965 3.392C15.4725 3.392 15.9952 3.49867 16.4645 3.712C16.9338 3.92533 17.3072 4.24 17.5845 4.656C17.8725 5.06133 18.0165 5.57333 18.0165 6.192C18.0165 6.88533 18.0112 7.584 18.0005 8.288C18.0005 8.992 18.0218 9.696 18.0645 10.4C18.0752 10.6347 18.1232 10.8427 18.2085 11.024C18.2938 11.1947 18.4698 11.28 18.7365 11.28C18.8752 11.28 19.0192 11.248 19.1685 11.184C19.3285 11.1093 19.4298 11.072 19.4725 11.072C19.5045 11.072 19.5205 11.0987 19.5205 11.152ZM27.9676 10.048C27.9676 10.0907 27.957 10.128 27.9356 10.16C27.701 10.512 27.3916 10.8267 27.0076 11.104C26.6236 11.3813 26.2076 11.6053 25.7596 11.776C25.3223 11.936 24.8956 12.016 24.4796 12.016C24.405 12.016 24.3356 12.0107 24.2716 12C24.2076 12 24.1436 12 24.0796 12C23.973 12.1707 23.861 12.3307 23.7436 12.48C23.637 12.6293 23.5303 12.784 23.4236 12.944C23.5943 12.9227 23.7596 12.9067 23.9196 12.896C24.0903 12.8853 24.261 12.88 24.4316 12.88C24.6343 12.88 24.853 12.896 25.0876 12.928C25.333 12.9707 25.541 13.0507 25.7116 13.168C25.893 13.296 25.9836 13.488 25.9836 13.744C25.9836 14.0213 25.9036 14.24 25.7436 14.4C25.5943 14.56 25.4023 14.6773 25.1676 14.752C24.933 14.8373 24.6876 14.8907 24.4316 14.912C24.1756 14.9333 23.9463 14.944 23.7436 14.944C23.541 14.944 23.317 14.9067 23.0716 14.832C22.837 14.768 22.6236 14.688 22.4316 14.592C22.3676 14.56 22.2556 14.496 22.0956 14.4C21.9463 14.304 21.8716 14.2187 21.8716 14.144C21.8716 14.0587 21.909 14.016 21.9836 14.016C22.0156 14.016 22.0903 14.0373 22.2076 14.08C22.325 14.1333 22.405 14.1707 22.4476 14.192C22.6503 14.256 22.8583 14.2987 23.0716 14.32C23.2956 14.352 23.509 14.368 23.7116 14.368C23.829 14.368 23.9943 14.3467 24.2076 14.304C24.421 14.272 24.613 14.2133 24.7836 14.128C24.965 14.0427 25.0556 13.92 25.0556 13.76C25.0556 13.6213 24.9916 13.5147 24.8636 13.44C24.7463 13.3653 24.613 13.3067 24.4636 13.264C24.3143 13.232 24.1863 13.216 24.0796 13.216C23.8556 13.216 23.637 13.2427 23.4236 13.296C23.221 13.3493 23.013 13.4133 22.7996 13.488C22.917 13.2107 23.0396 12.944 23.1676 12.688C23.3063 12.432 23.4343 12.1707 23.5516 11.904C22.8903 11.7653 22.325 11.504 21.8556 11.12C21.3863 10.736 21.029 10.2613 20.7836 9.696C20.5383 9.13067 20.4156 8.51733 20.4156 7.856C20.4156 7.06667 20.5756 6.32533 20.8956 5.632C21.2156 4.93867 21.717 4.37867 22.3996 3.952C22.6983 3.77067 23.029 3.62667 23.3916 3.52C23.7543 3.41333 24.1063 3.36 24.4476 3.36C24.853 3.36 25.253 3.44533 25.6476 3.616C25.829 3.69067 26.021 3.776 26.2236 3.872C26.4263 3.95733 26.6236 4 26.8156 4C26.901 4 26.981 3.98933 27.0556 3.968C27.1303 3.94667 27.205 3.93067 27.2796 3.92C27.301 4.25067 27.3223 4.58667 27.3436 4.928C27.365 5.26933 27.381 5.61067 27.3916 5.952V6C27.3916 6.128 27.3756 6.21867 27.3436 6.272C27.3223 6.31467 27.237 6.336 27.0876 6.336C27.013 6.336 26.965 6.29867 26.9436 6.224C26.9223 6.14933 26.901 6.08 26.8796 6.016C26.805 5.70667 26.6876 5.38667 26.5276 5.056C26.3783 4.71467 26.181 4.43733 25.9356 4.224C25.7756 4.07467 25.5783 3.952 25.3436 3.856C25.109 3.76 24.885 3.712 24.6716 3.712C24.1596 3.712 23.7276 3.84533 23.3756 4.112C23.0236 4.368 22.7356 4.704 22.5116 5.12C22.2983 5.52533 22.1436 5.96267 22.0476 6.432C21.9516 6.90133 21.9036 7.344 21.9036 7.76C21.9036 8.176 21.9516 8.59733 22.0476 9.024C22.1436 9.45067 22.293 9.85067 22.4956 10.224C22.709 10.5867 22.9863 10.88 23.3276 11.104C23.669 11.328 24.085 11.44 24.5756 11.44C25.2156 11.44 25.7543 11.3333 26.1916 11.12C26.6396 10.896 27.0716 10.5493 27.4876 10.08C27.5196 10.0587 27.541 10.0267 27.5516 9.984C27.573 9.94133 27.605 9.90933 27.6476 9.888C27.669 9.86667 27.7116 9.856 27.7756 9.856C27.9036 9.856 27.9676 9.92 27.9676 10.048ZM34.0642 10.128C34.0216 9.648 33.9949 9.168 33.9842 8.688C33.9842 8.19733 33.9789 7.70667 33.9682 7.216H33.7442C33.4136 7.216 33.0456 7.26933 32.6402 7.376C32.2456 7.472 31.8669 7.62133 31.5042 7.824C31.1416 8.02667 30.8429 8.28267 30.6082 8.592C30.3842 8.89067 30.2722 9.23733 30.2722 9.632C30.2722 10.144 30.4162 10.5333 30.7042 10.8C30.9922 11.056 31.3816 11.184 31.8722 11.184C32.1069 11.184 32.3629 11.1307 32.6402 11.024C32.9176 10.9067 33.1842 10.768 33.4402 10.608C33.6962 10.448 33.9042 10.288 34.0642 10.128ZM36.8642 11.152C36.8642 11.1947 36.8589 11.2267 36.8482 11.248C36.7416 11.4827 36.5602 11.664 36.3042 11.792C36.0589 11.9093 35.8136 11.968 35.5682 11.968C35.1202 11.968 34.7949 11.84 34.5922 11.584C34.4002 11.3173 34.2456 10.992 34.1282 10.608C33.7229 10.9813 33.2749 11.296 32.7842 11.552C32.2936 11.7973 31.7656 11.92 31.2002 11.92C30.8056 11.92 30.4322 11.8453 30.0802 11.696C29.7389 11.536 29.4616 11.3067 29.2482 11.008C29.0349 10.7093 28.9282 10.3467 28.9282 9.92C28.9282 9.472 29.0402 9.088 29.2642 8.768C29.4989 8.43733 29.7922 8.16 30.1442 7.936C30.5069 7.70133 30.8909 7.51467 31.2962 7.376C31.7122 7.22667 32.1016 7.11467 32.4642 7.04C32.7096 6.98667 32.9602 6.93867 33.2162 6.896C33.4722 6.85333 33.7229 6.81067 33.9682 6.768C33.9682 6.46933 33.9522 6.12267 33.9202 5.728C33.8989 5.33333 33.8189 5.008 33.6802 4.752C33.5416 4.50667 33.3549 4.288 33.1202 4.096C32.8856 3.904 32.6242 3.808 32.3362 3.808C31.8456 3.808 31.4616 3.936 31.1842 4.192C30.9069 4.448 30.7096 4.81067 30.5922 5.28C30.5816 5.33333 30.5709 5.392 30.5602 5.456C30.5602 5.50933 30.5549 5.56267 30.5442 5.616C30.5336 5.68 30.4909 5.73867 30.4162 5.792C30.3522 5.83467 30.2829 5.856 30.2082 5.856C30.0056 5.856 29.8189 5.808 29.6482 5.712C29.4882 5.616 29.4082 5.456 29.4082 5.232C29.4082 5.104 29.4296 4.992 29.4722 4.896C29.6109 4.56533 29.8349 4.29333 30.1442 4.08C30.4536 3.856 30.7949 3.68533 31.1682 3.568C31.5522 3.45067 31.9096 3.392 32.2402 3.392C32.8162 3.392 33.3389 3.49867 33.8082 3.712C34.2776 3.92533 34.6509 4.24 34.9282 4.656C35.2162 5.06133 35.3602 5.57333 35.3602 6.192C35.3602 6.88533 35.3549 7.584 35.3442 8.288C35.3442 8.992 35.3656 9.696 35.4082 10.4C35.4189 10.6347 35.4669 10.8427 35.5522 11.024C35.6376 11.1947 35.8136 11.28 36.0802 11.28C36.2189 11.28 36.3629 11.248 36.5122 11.184C36.6722 11.1093 36.7736 11.072 36.8162 11.072C36.8482 11.072 36.8642 11.0987 36.8642 11.152ZM35.1042 0.464C34.9549 0.613333 34.8109 0.773333 34.6722 0.943999C34.5336 1.11467 34.3789 1.25867 34.2082 1.376C34.0482 1.48267 33.8456 1.536 33.6002 1.536C33.3442 1.536 33.1042 1.47733 32.8802 1.36C32.6562 1.24267 32.4376 1.12533 32.2242 1.008C32.0216 0.890666 31.7976 0.832 31.5522 0.832C31.3176 0.832 31.1149 0.906666 30.9442 1.056C30.7736 1.20533 30.6189 1.36 30.4802 1.52L30.1442 1.312C30.2829 1.12 30.4269 0.922666 30.5762 0.719999C30.7362 0.517333 30.9122 0.346666 31.1042 0.207999C31.3069 0.0693324 31.5416 -9.53674e-07 31.8082 -9.53674e-07C32.0642 -9.53674e-07 32.2989 0.0586659 32.5122 0.176C32.7362 0.282666 32.9549 0.394666 33.1682 0.511999C33.3922 0.629333 33.6269 0.688 33.8722 0.688C34.0536 0.688 34.2242 0.629333 34.3842 0.511999C34.5442 0.394666 34.6776 0.266666 34.7842 0.127999L35.1042 0.464ZM44.5114 7.776C44.5114 7.31733 44.474 6.85867 44.3994 6.4C44.3354 5.93067 44.2074 5.49867 44.0154 5.104C43.834 4.70933 43.5674 4.39467 43.2154 4.16C42.8634 3.91467 42.4047 3.792 41.8394 3.792C41.306 3.792 40.8687 3.92 40.5274 4.176C40.1967 4.432 39.9354 4.76267 39.7434 5.168C39.562 5.57333 39.434 6.01067 39.3594 6.48C39.2954 6.94933 39.2634 7.392 39.2634 7.808C39.2634 8.26667 39.2954 8.72533 39.3594 9.184C39.434 9.64267 39.5674 10.0587 39.7594 10.432C39.9514 10.7947 40.2234 11.088 40.5754 11.312C40.938 11.536 41.402 11.648 41.9674 11.648C42.522 11.648 42.9647 11.5307 43.2954 11.296C43.6367 11.0613 43.8927 10.752 44.0634 10.368C44.2447 9.984 44.362 9.568 44.4154 9.12C44.4794 8.66133 44.5114 8.21333 44.5114 7.776ZM46.1594 7.824C46.1594 8.624 45.9674 9.344 45.5834 9.984C45.21 10.624 44.698 11.1307 44.0474 11.504C43.4074 11.8773 42.6874 12.064 41.8874 12.064C41.1087 12.064 40.4047 11.8773 39.7754 11.504C39.146 11.12 38.6447 10.6133 38.2714 9.984C37.898 9.344 37.7114 8.63467 37.7114 7.856C37.7114 7.056 37.8927 6.32 38.2554 5.648C38.618 4.96533 39.114 4.416 39.7434 4C40.3834 3.584 41.1194 3.376 41.9514 3.376C42.8474 3.376 43.61 3.568 44.2394 3.952C44.8687 4.32533 45.3434 4.848 45.6634 5.52C45.994 6.18133 46.1594 6.94933 46.1594 7.824ZM63.1052 7.072C63.1052 7.136 63.0892 7.19467 63.0572 7.248C63.0252 7.30133 62.9719 7.328 62.8972 7.328H61.9052V10.752C61.1586 11.008 60.4172 11.2907 59.6812 11.6C59.3292 11.7493 58.9559 11.8453 58.5612 11.888C58.1772 11.9307 57.7986 11.952 57.4252 11.952C57.1052 11.952 56.7479 11.9147 56.3532 11.84C55.9586 11.7653 55.5746 11.6587 55.2012 11.52C54.8386 11.3813 54.5186 11.2213 54.2412 11.04C53.4306 10.496 52.8279 9.792 52.4332 8.928C52.0492 8.064 51.8572 7.14667 51.8572 6.176C51.8572 5.35467 51.9852 4.58133 52.2412 3.856C52.5079 3.13067 52.8866 2.49067 53.3772 1.936C53.8679 1.38133 54.4546 0.949333 55.1372 0.639999C55.8306 0.32 56.6039 0.16 57.4572 0.16C58.0866 0.16 58.6892 0.245333 59.2652 0.415999C59.3612 0.448 59.5159 0.496 59.7292 0.559999C59.9426 0.623999 60.1559 0.687999 60.3692 0.752C60.5826 0.805333 60.7266 0.832 60.8012 0.832C61.0252 0.832 61.1799 0.805333 61.2652 0.752C61.3506 0.687999 61.4146 0.618666 61.4572 0.544C61.5106 0.469333 61.5852 0.410666 61.6812 0.367999H61.8092C61.8946 0.367999 61.9426 0.415999 61.9532 0.511999C61.9746 0.618666 61.9799 0.730666 61.9692 0.848C61.9692 0.965333 61.9692 1.08267 61.9692 1.2C61.9692 1.53067 61.9746 1.86133 61.9852 2.192C62.0066 2.52267 62.0172 2.85867 62.0172 3.2C62.0172 3.328 62.0119 3.47733 62.0012 3.648C62.0012 3.81867 61.9052 3.904 61.7132 3.904C61.6492 3.904 61.5906 3.89867 61.5372 3.888C61.4946 3.86667 61.4519 3.82933 61.4092 3.776C61.3986 3.75467 61.3719 3.696 61.3292 3.6C61.2866 3.49333 61.2439 3.38667 61.2012 3.28C61.1586 3.16267 61.1266 3.08267 61.1052 3.04C60.8172 2.38933 60.3959 1.84533 59.8412 1.408C59.5532 1.17333 59.1852 0.986666 58.7372 0.848C58.2999 0.709333 57.8946 0.639999 57.5212 0.639999C56.8066 0.639999 56.1986 0.815999 55.6972 1.168C55.1959 1.50933 54.7906 1.95733 54.4812 2.512C54.1719 3.06667 53.9479 3.664 53.8092 4.304C53.6706 4.944 53.6012 5.56267 53.6012 6.16C53.6012 6.78933 53.6759 7.408 53.8252 8.016C53.9746 8.624 54.2039 9.17333 54.5132 9.664C54.8332 10.1547 55.2492 10.5493 55.7612 10.848C56.2732 11.136 56.8866 11.28 57.6012 11.28C57.8146 11.28 58.0706 11.2587 58.3692 11.216C58.6679 11.1733 58.9666 11.0987 59.2652 10.992C59.5639 10.8853 59.8092 10.7413 60.0012 10.56C60.2039 10.3787 60.3052 10.1493 60.3052 9.872V7.76C60.3052 7.58933 60.2199 7.48267 60.0492 7.44C59.8892 7.38667 59.7506 7.36 59.6332 7.36C59.4732 7.36 59.3132 7.37067 59.1532 7.392C58.9932 7.40267 58.8332 7.408 58.6732 7.408C58.5879 7.408 58.5292 7.38133 58.4972 7.328C58.4759 7.27467 58.4652 7.21067 58.4652 7.136C58.4652 7.072 58.4759 7.01333 58.4972 6.96C58.5186 6.896 58.5719 6.864 58.6572 6.864C58.8279 6.864 58.9932 6.86933 59.1532 6.88C59.3132 6.88 59.4786 6.88 59.6492 6.88H60.7852C60.9666 6.88 61.1479 6.88 61.3292 6.88C61.5106 6.88 61.6919 6.87467 61.8732 6.864C62.0546 6.864 62.2306 6.85867 62.4012 6.848C62.5719 6.82667 62.7426 6.816 62.9132 6.816C62.9772 6.816 63.0252 6.848 63.0572 6.912C63.0892 6.96533 63.1052 7.01867 63.1052 7.072ZM70.3572 4.88C70.3572 4.98667 70.3146 5.088 70.2292 5.184C70.1546 5.26933 70.0586 5.312 69.9412 5.312C69.7812 5.312 69.6639 5.25867 69.5892 5.152C69.5252 5.04533 69.4666 4.92267 69.4132 4.784C69.3706 4.64533 69.3012 4.52267 69.2052 4.416C69.1092 4.30933 68.9492 4.256 68.7252 4.256C68.6826 4.256 68.6399 4.256 68.5972 4.256C68.5652 4.256 68.5279 4.26133 68.4852 4.272C68.3039 4.304 68.1066 4.416 67.8932 4.608C67.6799 4.8 67.4719 5.02933 67.2692 5.296C67.0772 5.552 66.9172 5.808 66.7892 6.064C66.6612 6.32 66.5919 6.53333 66.5812 6.704C66.5706 6.87467 66.5652 7.04533 66.5652 7.216C66.5652 7.376 66.5652 7.536 66.5652 7.696C66.5652 8.272 66.5652 8.848 66.5652 9.424C66.5759 10 66.5812 10.5707 66.5812 11.136C66.5812 11.296 66.6452 11.4133 66.7732 11.488C66.9119 11.552 67.0506 11.584 67.1892 11.584C67.2959 11.584 67.4026 11.5787 67.5092 11.568C67.6159 11.5573 67.7226 11.552 67.8292 11.552C67.8826 11.552 67.9199 11.5787 67.9412 11.632C67.9626 11.6747 67.9732 11.7173 67.9732 11.76C67.9732 11.9307 67.8879 12.016 67.7172 12.016C67.3972 12.016 67.0772 12.0107 66.7572 12C66.4372 11.9787 66.1172 11.968 65.7972 11.968C65.4666 11.968 65.1306 11.9787 64.7892 12C64.4586 12.0213 64.1226 12.032 63.7812 12.032C63.7386 12.032 63.7066 12 63.6852 11.936C63.6746 11.872 63.6692 11.8187 63.6692 11.776C63.6692 11.6693 63.7119 11.6107 63.7972 11.6C63.9146 11.5787 64.0372 11.5733 64.1652 11.584C64.2932 11.5947 64.4106 11.6 64.5172 11.6C64.6772 11.6 64.8052 11.568 64.9012 11.504C65.0079 11.4293 65.0666 11.3067 65.0772 11.136C65.0986 10.7947 65.1092 10.448 65.1092 10.096C65.1199 9.744 65.1252 9.392 65.1252 9.04V7.488C65.1146 7.02933 65.1092 6.576 65.1092 6.128C65.1199 5.66933 65.1039 5.216 65.0612 4.768C65.0506 4.55467 64.9919 4.40533 64.8852 4.32C64.7786 4.224 64.6186 4.176 64.4052 4.176C64.3199 4.176 64.2292 4.18667 64.1332 4.208C64.0479 4.21867 63.9572 4.224 63.8612 4.224C63.7759 4.224 63.7332 4.16 63.7332 4.032C63.7332 3.95733 63.7706 3.904 63.8452 3.872C63.9519 3.84 64.0639 3.81867 64.1812 3.808C64.2986 3.78667 64.4106 3.77067 64.5172 3.76C64.8052 3.70667 65.0932 3.65333 65.3812 3.6C65.6692 3.54667 65.9572 3.48267 66.2452 3.408C66.3412 3.44 66.4106 3.49867 66.4532 3.584C66.4746 3.62667 66.4906 3.744 66.5012 3.936C66.5119 4.128 66.5172 4.352 66.5172 4.608C66.5172 4.85333 66.5172 5.088 66.5172 5.312C66.5172 5.52533 66.5172 5.67467 66.5172 5.76C66.7519 5.38667 67.0186 5.01333 67.3172 4.64C67.6159 4.26667 67.9572 3.95733 68.3412 3.712C68.7252 3.46667 69.1572 3.344 69.6372 3.344C69.8932 3.344 70.0586 3.424 70.1332 3.584C70.2079 3.744 70.2559 3.93067 70.2772 4.144C70.2986 4.26133 70.3146 4.384 70.3252 4.512C70.3466 4.64 70.3572 4.76267 70.3572 4.88ZM76.2986 10.128C76.256 9.648 76.2293 9.168 76.2186 8.688C76.2186 8.19733 76.2133 7.70667 76.2026 7.216H75.9786C75.648 7.216 75.28 7.26933 74.8746 7.376C74.48 7.472 74.1013 7.62133 73.7386 7.824C73.376 8.02667 73.0773 8.28267 72.8426 8.592C72.6186 8.89067 72.5066 9.23733 72.5066 9.632C72.5066 10.144 72.6506 10.5333 72.9386 10.8C73.2266 11.056 73.616 11.184 74.1066 11.184C74.3413 11.184 74.5973 11.1307 74.8746 11.024C75.152 10.9067 75.4186 10.768 75.6746 10.608C75.9306 10.448 76.1386 10.288 76.2986 10.128ZM79.0986 11.152C79.0986 11.1947 79.0933 11.2267 79.0826 11.248C78.976 11.4827 78.7946 11.664 78.5386 11.792C78.2933 11.9093 78.048 11.968 77.8026 11.968C77.3546 11.968 77.0293 11.84 76.8266 11.584C76.6346 11.3173 76.48 10.992 76.3626 10.608C75.9573 10.9813 75.5093 11.296 75.0186 11.552C74.528 11.7973 74 11.92 73.4346 11.92C73.04 11.92 72.6666 11.8453 72.3146 11.696C71.9733 11.536 71.696 11.3067 71.4826 11.008C71.2693 10.7093 71.1626 10.3467 71.1626 9.92C71.1626 9.472 71.2746 9.088 71.4986 8.768C71.7333 8.43733 72.0266 8.16 72.3786 7.936C72.7413 7.70133 73.1253 7.51467 73.5306 7.376C73.9466 7.22667 74.336 7.11467 74.6986 7.04C74.944 6.98667 75.1946 6.93867 75.4506 6.896C75.7066 6.85333 75.9573 6.81067 76.2026 6.768C76.2026 6.46933 76.1866 6.12267 76.1546 5.728C76.1333 5.33333 76.0533 5.008 75.9146 4.752C75.776 4.50667 75.5893 4.288 75.3546 4.096C75.12 3.904 74.8586 3.808 74.5706 3.808C74.08 3.808 73.696 3.936 73.4186 4.192C73.1413 4.448 72.944 4.81067 72.8266 5.28C72.816 5.33333 72.8053 5.392 72.7946 5.456C72.7946 5.50933 72.7893 5.56267 72.7786 5.616C72.768 5.68 72.7253 5.73867 72.6506 5.792C72.5866 5.83467 72.5173 5.856 72.4426 5.856C72.24 5.856 72.0533 5.808 71.8826 5.712C71.7226 5.616 71.6426 5.456 71.6426 5.232C71.6426 5.104 71.664 4.992 71.7066 4.896C71.8453 4.56533 72.0693 4.29333 72.3786 4.08C72.688 3.856 73.0293 3.68533 73.4026 3.568C73.7866 3.45067 74.144 3.392 74.4746 3.392C75.0506 3.392 75.5733 3.49867 76.0426 3.712C76.512 3.92533 76.8853 4.24 77.1626 4.656C77.4506 5.06133 77.5946 5.57333 77.5946 6.192C77.5946 6.88533 77.5893 7.584 77.5786 8.288C77.5786 8.992 77.6 9.696 77.6426 10.4C77.6533 10.6347 77.7013 10.8427 77.7866 11.024C77.872 11.1947 78.048 11.28 78.3146 11.28C78.4533 11.28 78.5973 11.248 78.7466 11.184C78.9066 11.1093 79.008 11.072 79.0506 11.072C79.0826 11.072 79.0986 11.0987 79.0986 11.152ZM89.0817 11.76C89.0817 11.8987 89.0017 11.968 88.8417 11.968C88.6071 11.968 88.3671 11.9627 88.1217 11.952C87.8764 11.9307 87.6311 11.92 87.3857 11.92C87.0231 11.92 86.6497 11.9307 86.2657 11.952C85.8924 11.9627 85.5191 11.968 85.1457 11.968C85.1031 11.968 85.0764 11.936 85.0657 11.872C85.0551 11.7973 85.0497 11.7387 85.0497 11.696C85.0497 11.6107 85.1031 11.568 85.2097 11.568C85.3164 11.568 85.4017 11.568 85.4657 11.568C85.5191 11.568 85.5724 11.5733 85.6257 11.584C85.6897 11.584 85.7484 11.584 85.8017 11.584C86.1111 11.584 86.2817 11.4293 86.3137 11.12C86.3457 10.4907 86.3564 9.856 86.3457 9.216C86.3457 8.576 86.3457 7.94133 86.3457 7.312C86.3457 7.19467 86.3457 7.07733 86.3457 6.96C86.3457 6.832 86.3457 6.70933 86.3457 6.592C86.3351 6.34667 86.3191 6.048 86.2977 5.696C86.2764 5.33333 86.2284 5.04 86.1537 4.816C85.9831 4.26133 85.6097 3.984 85.0337 3.984C84.5111 3.984 84.0311 4.11733 83.5937 4.384C83.1564 4.65067 82.7777 4.98667 82.4577 5.392C82.4471 6.17067 82.4417 6.944 82.4417 7.712C82.4417 8.48 82.4417 9.248 82.4417 10.016V11.12C82.4417 11.28 82.5111 11.3973 82.6497 11.472C82.7884 11.5467 82.9271 11.584 83.0657 11.584C83.1511 11.584 83.2311 11.5787 83.3057 11.568C83.3911 11.5467 83.4711 11.536 83.5457 11.536C83.5884 11.536 83.6151 11.5627 83.6257 11.616C83.6364 11.6693 83.6417 11.712 83.6417 11.744C83.6417 11.7867 83.6257 11.8347 83.5937 11.888C83.5724 11.9413 83.5297 11.968 83.4657 11.968C83.2311 11.968 82.9964 11.9627 82.7617 11.952C82.5377 11.9307 82.3084 11.92 82.0737 11.92C81.7111 11.92 81.3484 11.9307 80.9857 11.952C80.6231 11.9627 80.2551 11.968 79.8817 11.968C79.8284 11.968 79.7964 11.936 79.7857 11.872C79.7857 11.7973 79.7857 11.7387 79.7857 11.696C79.7857 11.6107 79.8337 11.568 79.9297 11.568C80.0257 11.568 80.1004 11.568 80.1537 11.568C80.2071 11.568 80.2604 11.5733 80.3137 11.584C80.3671 11.584 80.4204 11.584 80.4737 11.584C80.7831 11.584 80.9537 11.4293 80.9857 11.12C80.9964 10.9707 81.0017 10.8213 81.0017 10.672C81.0017 10.5227 81.0017 10.3733 81.0017 10.224C81.0017 9.30667 81.0017 8.38933 81.0017 7.472C81.0017 6.544 80.9964 5.62133 80.9857 4.704C80.9857 4.55467 80.9537 4.40533 80.8897 4.256C80.8257 4.10667 80.7031 4.032 80.5217 4.032C80.3831 4.032 80.2497 4.05333 80.1217 4.096C79.9937 4.13867 79.8604 4.16 79.7217 4.16C79.6471 4.16 79.6097 4.10667 79.6097 4C79.6097 3.97867 79.6097 3.95733 79.6097 3.936C79.6204 3.904 79.6311 3.88267 79.6417 3.872C79.6524 3.86133 79.6684 3.856 79.6897 3.856C79.7111 3.84533 79.7271 3.83467 79.7377 3.824C79.9297 3.77067 80.1271 3.73333 80.3297 3.712C80.5431 3.69067 80.7457 3.65867 80.9377 3.616C81.1191 3.584 81.2951 3.54133 81.4657 3.488C81.6364 3.424 81.8071 3.392 81.9777 3.392C82.0524 3.392 82.1111 3.42933 82.1537 3.504C82.2071 3.6 82.2497 3.73867 82.2817 3.92C82.3137 4.09067 82.3351 4.26667 82.3457 4.448C82.3671 4.62933 82.3777 4.77867 82.3777 4.896C82.6124 4.66133 82.8897 4.432 83.2097 4.208C83.5404 3.97333 83.8817 3.78133 84.2337 3.632C84.5964 3.472 84.9484 3.392 85.2897 3.392C86.2711 3.392 86.9324 3.61067 87.2737 4.048C87.6257 4.47467 87.8017 5.152 87.8017 6.08C87.8017 6.912 87.7964 7.744 87.7857 8.576C87.7857 9.408 87.7857 10.24 87.7857 11.072C87.7857 11.2747 87.8444 11.4133 87.9617 11.488C88.0897 11.552 88.2391 11.584 88.4097 11.584C88.4951 11.584 88.5804 11.5787 88.6657 11.568C88.7511 11.5467 88.8311 11.536 88.9057 11.536C88.9697 11.536 89.0124 11.5627 89.0337 11.616C89.0657 11.6587 89.0817 11.7067 89.0817 11.76ZM12.7511 26.168C12.7511 25.3147 12.4844 24.696 11.9511 24.312C11.4284 23.9173 10.7724 23.72 9.98306 23.72C9.76973 23.72 9.55106 23.7253 9.32706 23.736C9.10306 23.736 8.87906 23.736 8.65506 23.736C8.54839 23.736 8.44173 23.768 8.33506 23.832C8.22839 23.896 8.17506 23.9867 8.17506 24.104V28.648C8.40973 28.8187 8.69773 28.92 9.03906 28.952C9.38039 28.984 9.68439 29 9.95106 29C10.8684 29 11.5617 28.7547 12.0311 28.264C12.5111 27.7733 12.7511 27.0747 12.7511 26.168ZM14.5111 26.12C14.5111 26.8133 14.3777 27.3787 14.1111 27.816C13.8551 28.2533 13.5084 28.5947 13.0711 28.84C12.6337 29.0853 12.1377 29.256 11.5831 29.352C11.0391 29.4373 10.4791 29.48 9.90306 29.48C9.61506 29.48 9.32706 29.464 9.03906 29.432C8.75106 29.4 8.46839 29.3627 8.19106 29.32V34.104C8.19106 34.264 8.26039 34.3707 8.39906 34.424C8.53773 34.4773 8.69239 34.504 8.86306 34.504C9.03373 34.504 9.17239 34.504 9.27906 34.504C9.34306 34.504 9.40706 34.504 9.47106 34.504C9.54573 34.4933 9.61506 34.488 9.67906 34.488C9.77506 34.488 9.82306 34.5307 9.82306 34.616C9.82306 34.7547 9.81239 34.8507 9.79106 34.904C9.76973 34.9467 9.68439 34.968 9.53506 34.968C9.17239 34.968 8.81506 34.9573 8.46306 34.936C8.11106 34.9147 7.75906 34.904 7.40706 34.904C7.04439 34.904 6.67639 34.92 6.30306 34.952C5.94039 34.9733 5.57773 34.984 5.21506 34.984C5.10839 34.984 5.05506 34.9147 5.05506 34.776C5.05506 34.712 5.06573 34.6533 5.08706 34.6C5.10839 34.5467 5.16173 34.52 5.24706 34.52C5.37506 34.52 5.50306 34.5253 5.63106 34.536C5.75906 34.536 5.88706 34.536 6.01506 34.536C6.14306 34.536 6.25506 34.504 6.35106 34.44C6.45773 34.376 6.51639 34.2747 6.52706 34.136C6.54839 33.944 6.55373 33.752 6.54306 33.56C6.54306 33.3573 6.54306 33.16 6.54306 32.968C6.54306 32.584 6.54306 32.2 6.54306 31.816C6.54306 31.4213 6.54306 31.032 6.54306 30.648V27.848C6.54306 27.2187 6.53773 26.5947 6.52706 25.976C6.52706 25.3467 6.52706 24.7227 6.52706 24.104C6.52706 23.912 6.43106 23.8 6.23906 23.768C6.05773 23.7253 5.89773 23.704 5.75906 23.704C5.66306 23.704 5.56706 23.7093 5.47106 23.72C5.37506 23.72 5.28439 23.72 5.19906 23.72C5.12439 23.72 5.08173 23.688 5.07106 23.624C5.07106 23.5493 5.07106 23.4907 5.07106 23.448C5.07106 23.4053 5.08173 23.368 5.10306 23.336C5.12439 23.2933 5.15639 23.272 5.19906 23.272C5.55106 23.272 5.90306 23.2827 6.25506 23.304C6.60706 23.3253 6.96439 23.336 7.32706 23.336C7.88173 23.336 8.43639 23.3253 8.99106 23.304C9.54573 23.2827 10.1004 23.272 10.6551 23.272C11.1031 23.272 11.5511 23.32 11.9991 23.416C12.4577 23.512 12.8737 23.672 13.2471 23.896C13.6311 24.12 13.9351 24.4133 14.1591 24.776C14.3937 25.1387 14.5111 25.5867 14.5111 26.12ZM19.6794 34.792C19.6794 34.8453 19.6634 34.8987 19.6314 34.952C19.6101 34.9947 19.5674 35.016 19.5034 35.016C19.1728 35.016 18.8368 35.0107 18.4954 35C18.1541 34.9787 17.8128 34.968 17.4714 34.968H16.9114C16.6874 34.968 16.4634 34.9787 16.2394 35C16.0154 35.0107 15.7914 35.016 15.5674 35.016C15.5248 35.016 15.4928 35 15.4714 34.968C15.4608 34.9253 15.4554 34.888 15.4554 34.856C15.4554 34.824 15.4554 34.792 15.4554 34.76C15.4554 34.728 15.4608 34.696 15.4714 34.664C15.4928 34.6213 15.5514 34.6 15.6474 34.6C15.7541 34.5893 15.8608 34.5893 15.9674 34.6C16.0848 34.6 16.1594 34.6 16.1914 34.6C16.3408 34.6 16.4741 34.568 16.5914 34.504C16.7088 34.4293 16.7674 34.3067 16.7674 34.136C16.7674 33.3147 16.7728 32.4987 16.7834 31.688C16.7941 30.8667 16.7994 30.0507 16.7994 29.24C16.7994 28.408 16.7941 27.576 16.7834 26.744C16.7834 25.9013 16.7834 25.064 16.7834 24.232C16.7834 24.1573 16.7781 24.0773 16.7674 23.992C16.7568 23.896 16.7248 23.8213 16.6714 23.768C16.6288 23.7147 16.5861 23.688 16.5434 23.688C16.5008 23.6773 16.4474 23.672 16.3834 23.672C16.1914 23.672 15.9994 23.704 15.8074 23.768C15.6261 23.832 15.4448 23.864 15.2634 23.864C15.1461 23.864 15.0874 23.7947 15.0874 23.656C15.0874 23.5707 15.1514 23.512 15.2794 23.48C15.4181 23.448 15.5248 23.4267 15.5994 23.416C15.9728 23.3307 16.3781 23.2347 16.8154 23.128C17.2528 23.0213 17.6474 22.8987 17.9994 22.76C18.0208 22.76 18.0421 22.7547 18.0634 22.744C18.0848 22.7333 18.1008 22.728 18.1114 22.728C18.1754 22.728 18.2128 22.7493 18.2234 22.792C18.2448 22.8347 18.2554 22.8827 18.2554 22.936C18.2554 23.2347 18.2501 23.5333 18.2394 23.832C18.2394 24.12 18.2394 24.4133 18.2394 24.712V29.192C18.2394 30.0133 18.2448 30.84 18.2554 31.672C18.2661 32.4933 18.2714 33.3147 18.2714 34.136C18.2714 34.3067 18.3408 34.4293 18.4794 34.504C18.6288 34.568 18.7728 34.6 18.9114 34.6C19.0288 34.6 19.1408 34.5947 19.2474 34.584C19.3541 34.5733 19.4608 34.568 19.5674 34.568C19.6208 34.568 19.6528 34.6 19.6634 34.664C19.6741 34.7173 19.6794 34.76 19.6794 34.792ZM30.0587 34.568C30.0587 34.696 29.9627 34.792 29.7707 34.856C29.5894 34.92 29.3867 34.9627 29.1627 34.984C28.9387 35.0053 28.7787 35.016 28.6827 35.016C28.32 35.016 28.032 34.872 27.8187 34.584C27.6054 34.296 27.4454 33.9973 27.3387 33.688C26.976 34.1467 26.5227 34.488 25.9787 34.712C25.4347 34.936 24.8694 35.048 24.2827 35.048C23.3227 35.048 22.656 34.8027 22.2827 34.312C21.92 33.8107 21.7387 33.1067 21.7387 32.2C21.7387 31.4 21.7387 30.6 21.7387 29.8C21.7494 28.9893 21.76 28.184 21.7707 27.384C21.7707 27.064 21.616 26.904 21.3067 26.904C21.2214 26.904 21.136 26.9093 21.0507 26.92C20.9654 26.9307 20.88 26.936 20.7947 26.936C20.7627 26.936 20.736 26.92 20.7147 26.888C20.704 26.8453 20.6987 26.8133 20.6987 26.792C20.6987 26.6747 20.752 26.6107 20.8587 26.6C21.232 26.5573 21.6054 26.5307 21.9787 26.52C22.3627 26.4987 22.7414 26.4667 23.1147 26.424C23.2 26.5093 23.2427 26.616 23.2427 26.744C23.2427 27.0107 23.2374 27.2827 23.2267 27.56C23.216 27.8373 23.2107 28.1147 23.2107 28.392C23.2 29.0427 23.1894 29.6987 23.1787 30.36C23.1787 31.0107 23.1787 31.6667 23.1787 32.328C23.1787 32.5307 23.184 32.7493 23.1947 32.984C23.2054 33.208 23.248 33.416 23.3227 33.608C23.44 33.9067 23.6587 34.12 23.9787 34.248C24.3094 34.3653 24.624 34.424 24.9227 34.424C25.2534 34.424 25.584 34.3653 25.9147 34.248C26.256 34.12 26.544 33.9387 26.7787 33.704C27.024 33.4587 27.1627 33.1547 27.1947 32.792C27.216 32.6107 27.2267 32.4293 27.2267 32.248C27.2374 32.056 27.2427 31.8693 27.2427 31.688L27.2267 27.336C27.2267 27.1973 27.1787 27.096 27.0827 27.032C26.9974 26.968 26.896 26.936 26.7787 26.936C26.672 26.936 26.5654 26.9413 26.4587 26.952C26.3627 26.9627 26.2614 26.968 26.1547 26.968C26.0587 26.968 26.0107 26.9147 26.0107 26.808C26.0107 26.7013 26.0587 26.6427 26.1547 26.632C26.2827 26.6107 26.416 26.6 26.5547 26.6C26.6934 26.5893 26.832 26.5787 26.9707 26.568L28.0747 26.456C28.1494 26.4453 28.224 26.4347 28.2987 26.424C28.384 26.4133 28.464 26.408 28.5387 26.408C28.592 26.408 28.6294 26.44 28.6507 26.504C28.672 26.5573 28.6827 26.6 28.6827 26.632C28.6507 28.9467 28.6347 31.256 28.6347 33.56C28.6347 33.8267 28.6934 34.0453 28.8107 34.216C28.9387 34.3867 29.1467 34.472 29.4347 34.472C29.52 34.472 29.5947 34.4613 29.6587 34.44C29.7334 34.4187 29.808 34.408 29.8827 34.408C30 34.408 30.0587 34.4613 30.0587 34.568ZM36.8416 32.712C36.8416 33.192 36.7349 33.5867 36.5216 33.896C36.3082 34.1947 36.0309 34.424 35.6896 34.584C35.3482 34.744 34.9749 34.856 34.5696 34.92C34.1642 34.984 33.7696 35.016 33.3856 35.016C33.0336 35.016 32.6816 34.9787 32.3296 34.904C31.9882 34.8293 31.6416 34.776 31.2896 34.744C31.2149 34.456 31.1402 34.168 31.0656 33.88C31.0016 33.592 30.9269 33.3093 30.8416 33.032C30.8309 33 30.8042 32.9253 30.7616 32.808C30.7296 32.6907 30.7136 32.6267 30.7136 32.616C30.7136 32.5307 30.7402 32.472 30.7936 32.44C30.8469 32.3973 30.9109 32.376 30.9856 32.376C31.0602 32.376 31.1136 32.4027 31.1456 32.456C31.2096 32.5307 31.2629 32.632 31.3056 32.76C31.3589 32.888 31.4069 33 31.4496 33.096C31.5349 33.2667 31.6096 33.4 31.6736 33.496C31.7376 33.5813 31.8389 33.6933 31.9776 33.832C32.3936 34.2693 32.9109 34.488 33.5296 34.488C33.8709 34.488 34.1802 34.4507 34.4576 34.376C34.7456 34.3013 34.9749 34.1627 35.1456 33.96C35.3162 33.7467 35.4016 33.4427 35.4016 33.048C35.4016 32.7067 35.2949 32.424 35.0816 32.2C34.8682 31.9653 34.5909 31.7573 34.2496 31.576C33.9189 31.3947 33.5669 31.2187 33.1936 31.048C32.8202 30.8773 32.4629 30.6907 32.1216 30.488C31.7909 30.2747 31.5189 30.0187 31.3056 29.72C31.0922 29.4213 30.9856 29.0587 30.9856 28.632C30.9856 28.1093 31.1189 27.6827 31.3856 27.352C31.6629 27.0213 32.0149 26.776 32.4416 26.616C32.8682 26.4453 33.3109 26.36 33.7696 26.36C34.0682 26.36 34.3349 26.3973 34.5696 26.472C34.8149 26.5467 35.0709 26.632 35.3376 26.728C35.4229 26.76 35.5082 26.7813 35.5936 26.792C35.6789 26.8027 35.7642 26.808 35.8496 26.808C35.9029 26.808 35.9509 26.808 35.9936 26.808C36.0362 26.808 36.0789 26.8027 36.1216 26.792C36.1536 26.984 36.1802 27.1813 36.2016 27.384C36.2336 27.576 36.2602 27.7733 36.2816 27.976C36.2922 28.0507 36.3029 28.1413 36.3136 28.248C36.3349 28.344 36.3456 28.4347 36.3456 28.52C36.3456 28.5947 36.3296 28.6747 36.2976 28.76C36.2656 28.8347 36.2016 28.872 36.1056 28.872C36.0309 28.872 35.9669 28.8667 35.9136 28.856C35.8709 28.8347 35.8336 28.7867 35.8016 28.712C35.7482 28.6053 35.7002 28.4933 35.6576 28.376C35.6256 28.248 35.5882 28.1307 35.5456 28.024C35.4069 27.6507 35.1669 27.352 34.8256 27.128C34.4842 26.8933 34.1162 26.776 33.7216 26.776C33.2202 26.776 32.8416 26.9253 32.5856 27.224C32.3296 27.512 32.2016 27.9013 32.2016 28.392C32.2016 28.5627 32.2442 28.728 32.3296 28.888C32.4256 29.048 32.5322 29.1867 32.6496 29.304C32.8736 29.5173 33.1349 29.6827 33.4336 29.8C33.7429 29.9173 34.0362 30.0347 34.3136 30.152C34.6762 30.312 35.0496 30.504 35.4336 30.728C35.8282 30.952 36.1589 31.224 36.4256 31.544C36.7029 31.864 36.8416 32.2533 36.8416 32.712ZM49.1182 34.76C49.1182 34.9307 49.0382 35.016 48.8782 35.016C48.8035 35.016 48.7235 35.0107 48.6382 35C48.5529 34.9893 48.4675 34.984 48.3822 34.984C48.2862 34.984 48.1849 34.984 48.0782 34.984C47.9822 34.9733 47.8809 34.968 47.7742 34.968C47.5395 34.9573 47.2995 34.9573 47.0542 34.968C46.8195 34.968 46.5849 34.968 46.3502 34.968C46.0302 34.968 45.7155 34.968 45.4062 34.968C45.0969 34.968 44.7822 34.9733 44.4622 34.984C44.3875 34.9947 44.2915 35 44.1742 35C44.0675 35 43.9822 35 43.9182 35C43.7902 35 43.7262 34.92 43.7262 34.76C43.7262 34.7067 43.7315 34.6587 43.7422 34.616C43.7635 34.5627 43.8062 34.536 43.8702 34.536C43.9342 34.536 43.9929 34.5413 44.0462 34.552C44.1102 34.552 44.1742 34.552 44.2382 34.552C44.3449 34.552 44.4995 34.552 44.7022 34.552C44.9155 34.5413 45.1129 34.5093 45.2942 34.456C45.4755 34.392 45.5662 34.2853 45.5662 34.136C45.5662 33.272 45.5715 32.408 45.5822 31.544C45.5929 30.6693 45.5982 29.8 45.5982 28.936C45.5982 28.2 45.5982 27.464 45.5982 26.728C45.5982 25.992 45.5982 25.2507 45.5982 24.504C45.5982 24.3653 45.5289 24.296 45.3902 24.296C45.3262 24.296 45.1929 24.3333 44.9902 24.408C44.7982 24.4827 44.5795 24.568 44.3342 24.664C44.0889 24.76 43.8649 24.8453 43.6622 24.92C43.4702 24.9947 43.3475 25.032 43.2942 25.032C43.1982 25.032 43.1289 24.9893 43.0862 24.904C43.0542 24.8187 43.0382 24.7387 43.0382 24.664C43.0382 24.6 43.0702 24.5467 43.1342 24.504C43.1982 24.4507 43.2569 24.4187 43.3102 24.408C43.6089 24.3333 43.8915 24.248 44.1582 24.152C44.4249 24.0453 44.7022 23.944 44.9902 23.848C45.2142 23.7733 45.4489 23.6933 45.6942 23.608C45.9395 23.512 46.1689 23.4213 46.3822 23.336C46.4249 23.3147 46.4995 23.288 46.6062 23.256C46.7129 23.224 46.8195 23.192 46.9262 23.16C47.0435 23.128 47.1129 23.112 47.1342 23.112C47.1982 23.112 47.2462 23.1227 47.2782 23.144C47.3102 23.1547 47.3262 23.208 47.3262 23.304C47.3262 23.5387 47.3209 23.7733 47.3102 24.008C47.3102 24.232 47.3049 24.4613 47.2942 24.696C47.2835 25.3467 47.2729 26.0347 47.2622 26.76C47.2622 27.4853 47.2569 28.2 47.2462 28.904C47.2462 29.6827 47.2462 30.456 47.2462 31.224C47.2462 31.992 47.2462 32.7653 47.2462 33.544C47.2462 33.64 47.2462 33.7413 47.2462 33.848C47.2569 33.944 47.2622 34.04 47.2622 34.136C47.2729 34.2853 47.3582 34.392 47.5182 34.456C47.6889 34.5093 47.8702 34.536 48.0622 34.536C48.2649 34.536 48.4089 34.536 48.4942 34.536C48.5795 34.536 48.6595 34.5307 48.7342 34.52C48.8089 34.5093 48.8835 34.504 48.9582 34.504C49.0222 34.504 49.0649 34.536 49.0862 34.6C49.1075 34.6533 49.1182 34.7067 49.1182 34.76ZM59.4197 30.856C59.4197 31.3573 59.3184 31.8907 59.1157 32.456C58.913 33.0213 58.6197 33.4747 58.2357 33.816C57.809 34.1893 57.297 34.4773 56.6997 34.68C56.1024 34.8827 55.521 34.984 54.9557 34.984C54.689 34.984 54.369 34.952 53.9957 34.888C53.6224 34.8133 53.2544 34.7067 52.8917 34.568C52.529 34.4187 52.225 34.2267 51.9797 33.992C51.7344 33.7467 51.6117 33.4533 51.6117 33.112C51.6117 32.8773 51.6917 32.696 51.8517 32.568C52.0117 32.4293 52.2037 32.36 52.4277 32.36C52.6197 32.36 52.7904 32.408 52.9397 32.504C53.089 32.6 53.169 32.7547 53.1797 32.968C53.2224 33.4587 53.361 33.8373 53.5957 34.104C53.841 34.3707 54.225 34.504 54.7477 34.504C55.4837 34.504 56.081 34.3333 56.5397 33.992C56.9984 33.64 57.3397 33.112 57.5637 32.408C57.6384 32.1627 57.681 31.912 57.6917 31.656C57.713 31.3893 57.7237 31.128 57.7237 30.872C57.7237 30.52 57.681 30.1413 57.5957 29.736C57.521 29.32 57.377 28.968 57.1637 28.68C56.9824 28.4347 56.7477 28.2693 56.4597 28.184C56.1824 28.0987 55.8944 28.056 55.5957 28.056C55.361 28.056 55.105 28.0987 54.8277 28.184C54.5504 28.2587 54.321 28.3707 54.1397 28.52C53.9584 28.6693 53.793 28.8613 53.6437 29.096C53.4944 29.32 53.409 29.5547 53.3877 29.8C53.377 29.864 53.3664 29.944 53.3557 30.04C53.345 30.136 53.2917 30.184 53.1957 30.184C53.1424 30.184 53.0304 30.1627 52.8597 30.12C52.6997 30.0667 52.545 30.008 52.3957 29.944C52.257 29.8693 52.1877 29.8053 52.1877 29.752C52.1877 29.72 52.193 29.688 52.2037 29.656C52.2144 29.624 52.225 29.592 52.2357 29.56C52.3104 29.3147 52.369 29.0107 52.4117 28.648C52.465 28.2747 52.5024 27.8853 52.5237 27.48C52.545 27.064 52.561 26.664 52.5717 26.28C52.5824 25.896 52.5877 25.5707 52.5877 25.304C52.5877 24.6747 52.5557 24.04 52.4917 23.4C52.8224 23.4427 53.1477 23.4747 53.4677 23.496C53.7984 23.5173 54.129 23.528 54.4597 23.528H56.7477C57.025 23.528 57.345 23.512 57.7077 23.48C58.081 23.448 58.3904 23.3627 58.6357 23.224C58.689 23.192 58.7477 23.16 58.8117 23.128C58.8864 23.0853 58.9504 23.064 59.0037 23.064C59.0357 23.064 59.0837 23.0693 59.1477 23.08C59.2117 23.08 59.2437 23.1067 59.2437 23.16C59.2437 23.2133 59.2064 23.3253 59.1317 23.496C59.057 23.656 58.977 23.8213 58.8917 23.992C58.8064 24.1627 58.7477 24.2747 58.7157 24.328C58.673 24.4027 58.6197 24.4507 58.5557 24.472C58.4917 24.4933 58.417 24.504 58.3317 24.504C58.193 24.504 58.049 24.504 57.8997 24.504C57.761 24.4933 57.617 24.4827 57.4677 24.472C57.2864 24.4507 57.0997 24.4453 56.9077 24.456C56.7157 24.456 56.529 24.456 56.3477 24.456C56.049 24.456 55.7504 24.456 55.4517 24.456C55.153 24.4453 54.849 24.44 54.5397 24.44C54.3584 24.44 54.1717 24.44 53.9797 24.44C53.7984 24.44 53.617 24.4453 53.4357 24.456C53.425 25.128 53.3984 25.8053 53.3557 26.488C53.3237 27.16 53.2917 27.832 53.2597 28.504C53.7504 28.1627 54.2037 27.912 54.6197 27.752C55.0464 27.5813 55.5584 27.496 56.1557 27.496C56.561 27.496 56.9504 27.5547 57.3237 27.672C57.7077 27.7893 58.049 27.9867 58.3477 28.264C58.689 28.584 58.9504 28.9787 59.1317 29.448C59.3237 29.9173 59.4197 30.3867 59.4197 30.856ZM71.7852 34.744C71.7852 34.7867 71.7745 34.8347 71.7532 34.888C71.7319 34.9413 71.6945 34.968 71.6412 34.968C71.3105 34.968 70.9745 34.9733 70.6332 34.984C70.3025 34.984 69.9665 34.984 69.6252 34.984C69.4545 34.984 69.2892 34.9787 69.1292 34.968C68.9799 34.9467 68.8412 34.8773 68.7132 34.76C68.6705 34.728 68.6332 34.6907 68.6012 34.648C68.5692 34.6053 68.5372 34.5627 68.5052 34.52C67.1825 32.6747 65.7959 30.856 64.3452 29.064L63.7852 29.528V34.152C63.7852 34.3333 63.8705 34.4507 64.0412 34.504C64.2119 34.5573 64.4039 34.584 64.6172 34.584C64.8305 34.5733 64.9905 34.568 65.0972 34.568C65.2359 34.568 65.3052 34.6373 65.3052 34.776C65.3052 34.9147 65.2465 34.984 65.1292 34.984C64.7665 34.984 64.4092 34.9733 64.0572 34.952C63.7052 34.9307 63.3479 34.92 62.9852 34.92C62.6332 34.92 62.2759 34.9253 61.9132 34.936C61.5612 34.9467 61.2092 34.9627 60.8572 34.984C60.7719 34.9307 60.7292 34.856 60.7292 34.76C60.7292 34.6853 60.7345 34.6373 60.7452 34.616C60.7665 34.5947 60.8145 34.5787 60.8892 34.568C60.9532 34.5573 61.0172 34.5573 61.0812 34.568C61.1452 34.568 61.2092 34.568 61.2732 34.568C61.3692 34.568 61.4865 34.5627 61.6252 34.552C61.7745 34.5413 61.9025 34.5093 62.0092 34.456C62.1265 34.392 62.1852 34.2907 62.1852 34.152V24.104C62.1852 23.9973 62.1105 23.9013 61.9612 23.816C61.8225 23.7307 61.7105 23.688 61.6252 23.688H61.2732C61.1985 23.688 61.1292 23.6933 61.0652 23.704C61.0012 23.704 60.9319 23.704 60.8572 23.704C60.7505 23.704 60.6919 23.672 60.6812 23.608C60.6705 23.544 60.6652 23.4747 60.6652 23.4C60.6652 23.3147 60.7025 23.272 60.7772 23.272C61.1505 23.272 61.5185 23.2827 61.8812 23.304C62.2545 23.3253 62.6225 23.336 62.9852 23.336C63.3265 23.336 63.6625 23.3253 63.9932 23.304C64.3345 23.2827 64.6705 23.272 65.0012 23.272C65.1292 23.272 65.1932 23.3467 65.1932 23.496C65.1932 23.5387 65.1772 23.5867 65.1452 23.64C65.1239 23.6827 65.0865 23.704 65.0332 23.704C64.9159 23.704 64.7985 23.704 64.6812 23.704C64.5639 23.6933 64.4465 23.688 64.3292 23.688C64.2119 23.688 64.0892 23.7253 63.9612 23.8C63.8439 23.8747 63.7852 23.976 63.7852 24.104V26.536C63.7852 26.952 63.7852 27.368 63.7852 27.784C63.7852 28.2 63.7799 28.616 63.7692 29.032C64.8359 28.0293 65.8812 27 66.9052 25.944C67.2892 25.5387 67.6625 25.1387 68.0252 24.744C68.3879 24.3387 68.7345 23.9173 69.0652 23.48C69.1399 23.3733 69.2252 23.32 69.3212 23.32C69.4812 23.32 69.6412 23.3253 69.8012 23.336C69.9612 23.336 70.1212 23.336 70.2812 23.336C70.4199 23.336 70.5532 23.336 70.6812 23.336C70.8199 23.3253 70.9585 23.32 71.0972 23.32C71.1505 23.32 71.1825 23.3467 71.1932 23.4C71.2145 23.4427 71.2252 23.4853 71.2252 23.528C71.2252 23.5707 71.2092 23.6187 71.1772 23.672C71.1559 23.7147 71.1185 23.736 71.0652 23.736C70.7665 23.736 70.4839 23.7787 70.2172 23.864C69.9505 23.9493 69.7052 24.0987 69.4812 24.312L65.5132 28.088C66.3132 29.112 67.1239 30.136 67.9452 31.16C68.7772 32.1733 69.6305 33.1653 70.5052 34.136C70.6652 34.3067 70.8412 34.4133 71.0332 34.456C71.2359 34.4987 71.4119 34.5307 71.5612 34.552C71.7105 34.5733 71.7852 34.6373 71.7852 34.744ZM83.9881 30.072C83.9881 30.136 83.9721 30.1947 83.9401 30.248C83.9081 30.3013 83.8547 30.328 83.7801 30.328H82.7881V33.752C82.0414 34.008 81.3001 34.2907 80.5641 34.6C80.2121 34.7493 79.8387 34.8453 79.4441 34.888C79.0601 34.9307 78.6814 34.952 78.3081 34.952C77.9881 34.952 77.6307 34.9147 77.2361 34.84C76.8414 34.7653 76.4574 34.6587 76.0841 34.52C75.7214 34.3813 75.4014 34.2213 75.1241 34.04C74.3134 33.496 73.7107 32.792 73.3161 31.928C72.9321 31.064 72.7401 30.1467 72.7401 29.176C72.7401 28.3547 72.8681 27.5813 73.1241 26.856C73.3907 26.1307 73.7694 25.4907 74.2601 24.936C74.7507 24.3813 75.3374 23.9493 76.0201 23.64C76.7134 23.32 77.4867 23.16 78.3401 23.16C78.9694 23.16 79.5721 23.2453 80.1481 23.416C80.2441 23.448 80.3987 23.496 80.6121 23.56C80.8254 23.624 81.0387 23.688 81.2521 23.752C81.4654 23.8053 81.6094 23.832 81.6841 23.832C81.9081 23.832 82.0627 23.8053 82.1481 23.752C82.2334 23.688 82.2974 23.6187 82.3401 23.544C82.3934 23.4693 82.4681 23.4107 82.5641 23.368H82.6921C82.7774 23.368 82.8254 23.416 82.8361 23.512C82.8574 23.6187 82.8627 23.7307 82.8521 23.848C82.8521 23.9653 82.8521 24.0827 82.8521 24.2C82.8521 24.5307 82.8574 24.8613 82.8681 25.192C82.8894 25.5227 82.9001 25.8587 82.9001 26.2C82.9001 26.328 82.8947 26.4773 82.8841 26.648C82.8841 26.8187 82.7881 26.904 82.5961 26.904C82.5321 26.904 82.4734 26.8987 82.4201 26.888C82.3774 26.8667 82.3347 26.8293 82.2921 26.776C82.2814 26.7547 82.2547 26.696 82.2121 26.6C82.1694 26.4933 82.1267 26.3867 82.0841 26.28C82.0414 26.1627 82.0094 26.0827 81.9881 26.04C81.7001 25.3893 81.2787 24.8453 80.7241 24.408C80.4361 24.1733 80.0681 23.9867 79.6201 23.848C79.1827 23.7093 78.7774 23.64 78.4041 23.64C77.6894 23.64 77.0814 23.816 76.5801 24.168C76.0787 24.5093 75.6734 24.9573 75.3641 25.512C75.0547 26.0667 74.8307 26.664 74.6921 27.304C74.5534 27.944 74.4841 28.5627 74.4841 29.16C74.4841 29.7893 74.5587 30.408 74.7081 31.016C74.8574 31.624 75.0867 32.1733 75.3961 32.664C75.7161 33.1547 76.1321 33.5493 76.6441 33.848C77.1561 34.136 77.7694 34.28 78.4841 34.28C78.6974 34.28 78.9534 34.2587 79.2521 34.216C79.5507 34.1733 79.8494 34.0987 80.1481 33.992C80.4467 33.8853 80.6921 33.7413 80.8841 33.56C81.0867 33.3787 81.1881 33.1493 81.1881 32.872V30.76C81.1881 30.5893 81.1027 30.4827 80.9321 30.44C80.7721 30.3867 80.6334 30.36 80.5161 30.36C80.3561 30.36 80.1961 30.3707 80.0361 30.392C79.8761 30.4027 79.7161 30.408 79.5561 30.408C79.4707 30.408 79.4121 30.3813 79.3801 30.328C79.3587 30.2747 79.3481 30.2107 79.3481 30.136C79.3481 30.072 79.3587 30.0133 79.3801 29.96C79.4014 29.896 79.4547 29.864 79.5401 29.864C79.7107 29.864 79.8761 29.8693 80.0361 29.88C80.1961 29.88 80.3614 29.88 80.5321 29.88H81.6681C81.8494 29.88 82.0307 29.88 82.2121 29.88C82.3934 29.88 82.5747 29.8747 82.7561 29.864C82.9374 29.864 83.1134 29.8587 83.2841 29.848C83.4547 29.8267 83.6254 29.816 83.7961 29.816C83.8601 29.816 83.9081 29.848 83.9401 29.912C83.9721 29.9653 83.9881 30.0187 83.9881 30.072Z" fill="white"/>
</svg>
