<svg width="74" height="11" viewBox="0 0 74 11" fill="none" xmlns="http://www.w3.org/2000/svg">
<path d="M3.80403 6.79545H5.05971L6.11227 8.1804L6.38926 8.54972L7.95886 10.6364H6.70318L5.66909 9.25142L5.41056 8.90057L3.80403 6.79545ZM8.34664 5.02273C8.34664 6.01989 8.1666 6.88163 7.80651 7.60795C7.44643 8.33428 6.95247 8.89441 6.32463 9.28835C5.69678 9.68229 4.97969 9.87926 4.17335 9.87926C3.367 9.87926 2.64991 9.68229 2.02207 9.28835C1.39423 8.89441 0.900265 8.33428 0.54018 7.60795C0.180094 6.88163 5.1707e-05 6.01989 5.1707e-05 5.02273C5.1707e-05 4.02557 0.180094 3.16383 0.54018 2.4375C0.900265 1.71117 1.39423 1.15104 2.02207 0.757102C2.64991 0.363163 3.367 0.166193 4.17335 0.166193C4.97969 0.166193 5.69678 0.363163 6.32463 0.757102C6.95247 1.15104 7.44643 1.71117 7.80651 2.4375C8.1666 3.16383 8.34664 4.02557 8.34664 5.02273ZM7.23869 5.02273C7.23869 4.20407 7.10173 3.51314 6.82782 2.94993C6.55699 2.38672 6.18921 1.96046 5.72448 1.67116C5.26284 1.38187 4.74579 1.23722 4.17335 1.23722C3.6009 1.23722 3.08232 1.38187 2.61759 1.67116C2.15595 1.96046 1.78817 2.38672 1.51426 2.94993C1.24342 3.51314 1.10801 4.20407 1.10801 5.02273C1.10801 5.84138 1.24342 6.53232 1.51426 7.09553C1.78817 7.65874 2.15595 8.08499 2.61759 8.37429C3.08232 8.66359 3.6009 8.80824 4.17335 8.80824C4.74579 8.80824 5.26284 8.66359 5.72448 8.37429C6.18921 8.08499 6.55699 7.65874 6.82782 7.09553C7.10173 6.53232 7.23869 5.84138 7.23869 5.02273ZM14.5927 6.85085V2.65909H15.6822V9.75H14.5927V8.54972H14.5189C14.3527 8.9098 14.0942 9.21603 13.7433 9.46839C13.3925 9.71768 12.9493 9.84233 12.4138 9.84233C11.9706 9.84233 11.5766 9.74538 11.2319 9.55149C10.8872 9.35452 10.6164 9.05907 10.4194 8.66513C10.2225 8.26811 10.124 7.76799 10.124 7.16477V2.65909H11.2135V7.09091C11.2135 7.60795 11.3581 8.02036 11.6474 8.32812C11.9398 8.63589 12.3122 8.78977 12.7646 8.78977C13.0354 8.78977 13.3109 8.72053 13.591 8.58203C13.8741 8.44354 14.1111 8.23118 14.3019 7.94496C14.4958 7.65874 14.5927 7.29403 14.5927 6.85085ZM19.7643 9.91619C19.315 9.91619 18.9072 9.83156 18.541 9.66229C18.1747 9.48994 17.8839 9.24219 17.6685 8.91903C17.453 8.5928 17.3453 8.19886 17.3453 7.73722C17.3453 7.33097 17.4253 7.00166 17.5854 6.74929C17.7454 6.49384 17.9593 6.2938 18.2271 6.14915C18.4948 6.0045 18.7903 5.89678 19.1134 5.82599C19.4397 5.75213 19.7674 5.69366 20.0967 5.65057C20.5276 5.59517 20.8769 5.55362 21.1447 5.52592C21.4155 5.49515 21.6125 5.44437 21.7356 5.37358C21.8618 5.30279 21.9249 5.17969 21.9249 5.00426V4.96733C21.9249 4.51184 21.8002 4.15791 21.5509 3.90554C21.3047 3.65317 20.9308 3.52699 20.4291 3.52699C19.909 3.52699 19.5012 3.64086 19.2058 3.86861C18.9103 4.09635 18.7026 4.33949 18.5825 4.59801L17.5484 4.22869C17.7331 3.79782 17.9793 3.46236 18.2871 3.2223C18.5979 2.97917 18.9365 2.8099 19.3027 2.71449C19.672 2.616 20.0352 2.56676 20.3922 2.56676C20.6199 2.56676 20.8815 2.59446 21.177 2.64986C21.4755 2.70218 21.7633 2.81143 22.0403 2.97763C22.3203 3.14382 22.5527 3.39465 22.7374 3.73011C22.922 4.06558 23.0143 4.51491 23.0143 5.07812V9.75H21.9249V8.78977H21.8695C21.7956 8.94366 21.6725 9.10831 21.5001 9.28374C21.3278 9.45916 21.0985 9.60843 20.8123 9.73153C20.5261 9.85464 20.1768 9.91619 19.7643 9.91619ZM19.9305 8.9375C20.3614 8.9375 20.7246 8.85286 21.02 8.68359C21.3186 8.51432 21.5432 8.29581 21.694 8.02805C21.8479 7.7603 21.9249 7.47869 21.9249 7.18324V6.18608C21.8787 6.24148 21.7771 6.29226 21.6202 6.33842C21.4663 6.38151 21.2878 6.41998 21.0847 6.45383C20.8846 6.48461 20.6892 6.51231 20.4984 6.53693C20.3106 6.55848 20.1583 6.57694 20.0413 6.59233C19.7582 6.62926 19.4935 6.68928 19.2473 6.77237C19.0042 6.85239 18.8072 6.97396 18.6564 7.13707C18.5087 7.29711 18.4348 7.51562 18.4348 7.79261C18.4348 8.17116 18.5748 8.45739 18.8549 8.65128C19.138 8.84209 19.4966 8.9375 19.9305 8.9375ZM26.0924 5.48438V9.75H25.0029V2.65909H26.0554V3.76705H26.1478C26.314 3.40696 26.5663 3.11766 26.9049 2.89915C27.2434 2.67756 27.6804 2.56676 28.216 2.56676C28.6961 2.56676 29.1162 2.66525 29.4763 2.86222C29.8363 3.05611 30.1164 3.35156 30.3165 3.74858C30.5165 4.14252 30.6165 4.6411 30.6165 5.24432V9.75H29.527V5.31818C29.527 4.76113 29.3824 4.32718 29.0931 4.01633C28.8038 3.70241 28.4068 3.54545 27.902 3.54545C27.5543 3.54545 27.2434 3.62086 26.9695 3.77166C26.6987 3.92247 26.4848 4.14252 26.3278 4.43182C26.1709 4.72112 26.0924 5.07197 26.0924 5.48438ZM35.6912 2.65909V3.58239H32.0165V2.65909H35.6912ZM33.0875 0.960227H34.177V7.71875C34.177 8.02652 34.2216 8.25734 34.3109 8.41122C34.4032 8.56203 34.5201 8.66359 34.6617 8.71591C34.8064 8.76515 34.9587 8.78977 35.1187 8.78977C35.2388 8.78977 35.3373 8.78362 35.4142 8.77131C35.4911 8.75592 35.5527 8.74361 35.5989 8.73438L35.8205 9.71307C35.7466 9.74077 35.6435 9.76847 35.5111 9.79616C35.3788 9.82694 35.2111 9.84233 35.008 9.84233C34.7002 9.84233 34.3986 9.77616 34.1031 9.64382C33.8107 9.51148 33.5676 9.3099 33.3737 9.03906C33.1829 8.76823 33.0875 8.42661 33.0875 8.0142V0.960227ZM37.33 9.75V2.65909H38.4195V9.75H37.33ZM37.884 1.47727C37.6717 1.47727 37.4885 1.40495 37.3347 1.2603C37.1839 1.11565 37.1085 0.941761 37.1085 0.738636C37.1085 0.535511 37.1839 0.361624 37.3347 0.216974C37.4885 0.0723247 37.6717 0 37.884 0C38.0964 0 38.278 0.0723247 38.4288 0.216974C38.5826 0.361624 38.6596 0.535511 38.6596 0.738636C38.6596 0.941761 38.5826 1.11565 38.4288 1.2603C38.278 1.40495 38.0964 1.47727 37.884 1.47727ZM43.0926 9.89773C42.5016 9.89773 41.98 9.74846 41.5276 9.44993C41.0752 9.14832 40.7212 8.7236 40.4658 8.17578C40.2103 7.62488 40.0826 6.97396 40.0826 6.22301C40.0826 5.47822 40.2103 4.83191 40.4658 4.28409C40.7212 3.73627 41.0767 3.31309 41.5322 3.01456C41.9877 2.71603 42.514 2.56676 43.111 2.56676C43.5727 2.56676 43.9374 2.6437 44.2051 2.79759C44.476 2.94839 44.6822 3.12074 44.8237 3.31463C44.9684 3.50544 45.0807 3.66241 45.1607 3.78551H45.2531V0.295454H46.3426V9.75H45.29V8.66051H45.1607C45.0807 8.78977 44.9668 8.95289 44.8191 9.14986C44.6714 9.34375 44.4606 9.51764 44.1867 9.67152C43.9128 9.82232 43.5481 9.89773 43.0926 9.89773ZM43.2403 8.91903C43.6773 8.91903 44.0466 8.80516 44.3482 8.57741C44.6499 8.34659 44.8791 8.02805 45.0361 7.6218C45.1931 7.21248 45.2715 6.74006 45.2715 6.20455C45.2715 5.67519 45.1946 5.212 45.0407 4.81499C44.8868 4.41489 44.6591 4.10405 44.3575 3.88246C44.0559 3.65779 43.6835 3.54545 43.2403 3.54545C42.7786 3.54545 42.3939 3.66394 42.0862 3.90092C41.7815 4.13482 41.5522 4.45336 41.3983 4.85653C41.2475 5.25663 41.1721 5.70597 41.1721 6.20455C41.1721 6.70928 41.249 7.16785 41.4029 7.58026C41.5599 7.98958 41.7907 8.31581 42.0954 8.55895C42.4032 8.79901 42.7848 8.91903 43.2403 8.91903ZM50.5759 9.91619C50.1265 9.91619 49.7187 9.83156 49.3525 9.66229C48.9863 9.48994 48.6954 9.24219 48.48 8.91903C48.2646 8.5928 48.1568 8.19886 48.1568 7.73722C48.1568 7.33097 48.2369 7.00166 48.3969 6.74929C48.5569 6.49384 48.7708 6.2938 49.0386 6.14915C49.3063 6.0045 49.6018 5.89678 49.9249 5.82599C50.2512 5.75213 50.5789 5.69366 50.9083 5.65057C51.3391 5.59517 51.6884 5.55362 51.9562 5.52592C52.227 5.49515 52.424 5.44437 52.5471 5.37358C52.6733 5.30279 52.7364 5.17969 52.7364 5.00426V4.96733C52.7364 4.51184 52.6117 4.15791 52.3624 3.90554C52.1162 3.65317 51.7423 3.52699 51.2406 3.52699C50.7205 3.52699 50.3127 3.64086 50.0173 3.86861C49.7218 4.09635 49.5141 4.33949 49.3941 4.59801L48.36 4.22869C48.5446 3.79782 48.7908 3.46236 49.0986 3.2223C49.4094 2.97917 49.748 2.8099 50.1142 2.71449C50.4835 2.616 50.8467 2.56676 51.2037 2.56676C51.4315 2.56676 51.6931 2.59446 51.9885 2.64986C52.287 2.70218 52.5748 2.81143 52.8518 2.97763C53.1319 3.14382 53.3642 3.39465 53.5489 3.73011C53.7335 4.06558 53.8259 4.51491 53.8259 5.07812V9.75H52.7364V8.78977H52.681C52.6071 8.94366 52.484 9.10831 52.3117 9.28374C52.1393 9.45916 51.91 9.60843 51.6238 9.73153C51.3376 9.85464 50.9883 9.91619 50.5759 9.91619ZM50.7421 8.9375C51.1729 8.9375 51.5361 8.85286 51.8316 8.68359C52.1301 8.51432 52.3548 8.29581 52.5056 8.02805C52.6594 7.7603 52.7364 7.47869 52.7364 7.18324V6.18608C52.6902 6.24148 52.5887 6.29226 52.4317 6.33842C52.2778 6.38151 52.0993 6.41998 51.8962 6.45383C51.6961 6.48461 51.5007 6.51231 51.3099 6.53693C51.1222 6.55848 50.9698 6.57694 50.8529 6.59233C50.5697 6.62926 50.305 6.68928 50.0588 6.77237C49.8157 6.85239 49.6187 6.97396 49.4679 7.13707C49.3202 7.29711 49.2463 7.51562 49.2463 7.79261C49.2463 8.17116 49.3864 8.45739 49.6664 8.65128C49.9496 8.84209 50.3081 8.9375 50.7421 8.9375ZM58.492 9.89773C57.9011 9.89773 57.3794 9.74846 56.927 9.44993C56.4746 9.14832 56.1206 8.7236 55.8652 8.17578C55.6098 7.62488 55.482 6.97396 55.482 6.22301C55.482 5.47822 55.6098 4.83191 55.8652 4.28409C56.1206 3.73627 56.4761 3.31309 56.9316 3.01456C57.3871 2.71603 57.9134 2.56676 58.5104 2.56676C58.9721 2.56676 59.3368 2.6437 59.6045 2.79759C59.8754 2.94839 60.0816 3.12074 60.2232 3.31463C60.3678 3.50544 60.4801 3.66241 60.5602 3.78551H60.6525V0.295454H61.742V9.75H60.6894V8.66051H60.5602C60.4801 8.78977 60.3663 8.95289 60.2185 9.14986C60.0708 9.34375 59.86 9.51764 59.5861 9.67152C59.3122 9.82232 58.9475 9.89773 58.492 9.89773ZM58.6397 8.91903C59.0767 8.91903 59.446 8.80516 59.7477 8.57741C60.0493 8.34659 60.2785 8.02805 60.4355 7.6218C60.5925 7.21248 60.671 6.74006 60.671 6.20455C60.671 5.67519 60.594 5.212 60.4401 4.81499C60.2862 4.41489 60.0585 4.10405 59.7569 3.88246C59.4553 3.65779 59.0829 3.54545 58.6397 3.54545C58.1781 3.54545 57.7933 3.66394 57.4856 3.90092C57.1809 4.13482 56.9516 4.45336 56.7977 4.85653C56.6469 5.25663 56.5715 5.70597 56.5715 6.20455C56.5715 6.70928 56.6485 7.16785 56.8023 7.58026C56.9593 7.98958 57.1901 8.31581 57.4948 8.55895C57.8026 8.79901 58.1842 8.91903 58.6397 8.91903ZM66.8617 9.89773C66.1784 9.89773 65.589 9.74692 65.0935 9.44531C64.6011 9.14062 64.221 8.71591 63.9533 8.17116C63.6886 7.62334 63.5563 6.98627 63.5563 6.25994C63.5563 5.53362 63.6886 4.89347 63.9533 4.33949C64.221 3.78243 64.5934 3.34848 65.0705 3.03764C65.5506 2.72372 66.1107 2.56676 66.7509 2.56676C67.1202 2.56676 67.4849 2.62831 67.845 2.75142C68.205 2.87453 68.5328 3.07457 68.8283 3.35156C69.1237 3.62547 69.3592 3.98864 69.5346 4.44105C69.71 4.89347 69.7977 5.45052 69.7977 6.11222V6.57386H64.3318V5.6321H68.6898C68.6898 5.23201 68.6098 4.875 68.4497 4.56108C68.2928 4.24716 68.0681 3.99941 67.7757 3.81783C67.4864 3.63625 67.1448 3.54545 66.7509 3.54545C66.3169 3.54545 65.9414 3.65317 65.6244 3.86861C65.3105 4.08097 65.0689 4.35795 64.8996 4.69957C64.7304 5.04119 64.6457 5.40743 64.6457 5.7983V6.42614C64.6457 6.96165 64.7381 7.4156 64.9227 7.788C65.1105 8.15732 65.3705 8.43892 65.7029 8.63281C66.0353 8.82363 66.4215 8.91903 66.8617 8.91903C67.1479 8.91903 67.4064 8.87902 67.6372 8.79901C67.8711 8.71591 68.0727 8.5928 68.242 8.42969C68.4112 8.26349 68.542 8.05729 68.6344 7.81108L69.6869 8.10653C69.5761 8.46354 69.3899 8.77746 69.1283 9.0483C68.8667 9.31605 68.5436 9.52533 68.1589 9.67614C67.7742 9.82386 67.3418 9.89773 66.8617 9.89773ZM72.2491 9.82386C72.0213 9.82386 71.8259 9.74231 71.6628 9.57919C71.4997 9.41607 71.4181 9.22064 71.4181 8.9929C71.4181 8.76515 71.4997 8.56972 71.6628 8.40661C71.8259 8.24349 72.0213 8.16193 72.2491 8.16193C72.4768 8.16193 72.6723 8.24349 72.8354 8.40661C72.9985 8.56972 73.08 8.76515 73.08 8.9929C73.08 9.1437 73.0416 9.2822 72.9646 9.40838C72.8908 9.53456 72.7907 9.63613 72.6646 9.71307C72.5415 9.78693 72.403 9.82386 72.2491 9.82386ZM72.2491 4.56108C72.0213 4.56108 71.8259 4.47952 71.6628 4.31641C71.4997 4.15329 71.4181 3.95786 71.4181 3.73011C71.4181 3.50237 71.4997 3.30694 71.6628 3.14382C71.8259 2.98071 72.0213 2.89915 72.2491 2.89915C72.4768 2.89915 72.6723 2.98071 72.8354 3.14382C72.9985 3.30694 73.08 3.50237 73.08 3.73011C73.08 3.88092 73.0416 4.01941 72.9646 4.1456C72.8908 4.27178 72.7907 4.37334 72.6646 4.45028C72.5415 4.52415 72.403 4.56108 72.2491 4.56108Z" fill="white"/>
</svg>
