<svg width="99" height="10" viewBox="0 0 99 10" fill="none" xmlns="http://www.w3.org/2000/svg">
<path d="M6.6638e-05 7.5V0.227273H2.45745C3.02563 0.227273 3.49202 0.324337 3.8566 0.518466C4.22118 0.710227 4.49107 0.974195 4.66626 1.31037C4.84145 1.64654 4.92904 2.02888 4.92904 2.45739C4.92904 2.88589 4.84145 3.26586 4.66626 3.5973C4.49107 3.92874 4.22237 4.18916 3.86015 4.37855C3.49794 4.56558 3.0351 4.65909 2.47166 4.65909H0.483021V3.86364H2.44325C2.83151 3.86364 3.14401 3.80682 3.38075 3.69318C3.61986 3.57955 3.79268 3.41856 3.89921 3.21023C4.00812 2.99953 4.06257 2.74858 4.06257 2.45739C4.06257 2.16619 4.00812 1.91169 3.89921 1.69389C3.79031 1.47609 3.61631 1.308 3.3772 1.18963C3.13809 1.06889 2.82204 1.00852 2.42904 1.00852H0.880749V7.5H6.6638e-05ZM3.42336 4.23295L5.21313 7.5H4.19041L2.42904 4.23295H3.42336ZM7.88803 7.62784C7.54238 7.62784 7.2287 7.56274 6.94698 7.43253C6.66525 7.29995 6.44153 7.10938 6.27581 6.8608C6.11009 6.60985 6.02723 6.30682 6.02723 5.9517C6.02723 5.6392 6.08879 5.38589 6.21189 5.19176C6.335 4.99527 6.49953 4.84138 6.7055 4.73011C6.91147 4.61884 7.13874 4.53598 7.38732 4.48153C7.63827 4.42472 7.8904 4.37973 8.14371 4.34659C8.47515 4.30398 8.74385 4.27202 8.94982 4.25071C9.15815 4.22704 9.30967 4.18797 9.40436 4.13352C9.50143 4.07907 9.54996 3.98437 9.54996 3.84943V3.82102C9.54996 3.47064 9.45408 3.19839 9.26232 3.00426C9.07292 2.81013 8.78528 2.71307 8.39939 2.71307C7.9993 2.71307 7.68561 2.80066 7.45834 2.97585C7.23107 3.15104 7.07127 3.33807 6.97894 3.53693L6.18348 3.25284C6.32553 2.9214 6.51492 2.66335 6.75166 2.47869C6.99077 2.29167 7.25119 2.16146 7.53291 2.08807C7.81701 2.01231 8.09636 1.97443 8.37098 1.97443C8.54617 1.97443 8.7474 1.99574 8.97468 2.03835C9.20432 2.0786 9.42567 2.16264 9.63874 2.29048C9.85417 2.41832 10.0329 2.61127 10.175 2.86932C10.317 3.12737 10.388 3.47301 10.388 3.90625V7.5H9.54996V6.76136H9.50735C9.45053 6.87973 9.35583 7.00639 9.22326 7.14134C9.09068 7.27628 8.91431 7.3911 8.69414 7.4858C8.47397 7.58049 8.20526 7.62784 7.88803 7.62784ZM8.01587 6.875C8.34731 6.875 8.62666 6.8099 8.85394 6.67969C9.08358 6.54948 9.2564 6.38139 9.3724 6.17543C9.49077 5.96946 9.54996 5.75284 9.54996 5.52557V4.75852C9.51445 4.80114 9.43632 4.8402 9.31559 4.87571C9.19721 4.90885 9.0599 4.93845 8.90365 4.96449C8.74977 4.98816 8.59944 5.00947 8.45266 5.02841C8.30825 5.04498 8.19106 5.05919 8.1011 5.07102C7.88329 5.09943 7.67969 5.1456 7.4903 5.20952C7.30327 5.27107 7.15176 5.36458 7.03576 5.49006C6.92212 5.61316 6.8653 5.78125 6.8653 5.99432C6.8653 6.28551 6.97302 6.50568 7.18845 6.65483C7.40626 6.80161 7.68206 6.875 8.01587 6.875ZM14.1336 7.61364C13.6222 7.61364 13.1819 7.4929 12.8126 7.25142C12.4432 7.00994 12.1592 6.67732 11.9603 6.25355C11.7614 5.82978 11.662 5.34564 11.662 4.80114C11.662 4.24716 11.7638 3.75829 11.9674 3.33452C12.1734 2.90838 12.4598 2.57576 12.8268 2.33665C13.1961 2.09517 13.627 1.97443 14.1194 1.97443C14.5029 1.97443 14.8486 2.04545 15.1563 2.1875C15.4641 2.32955 15.7162 2.52841 15.9127 2.78409C16.1092 3.03977 16.2311 3.33807 16.2785 3.67898H15.4404C15.3765 3.4304 15.2344 3.21023 15.0143 3.01847C14.7965 2.82434 14.5029 2.72727 14.1336 2.72727C13.8069 2.72727 13.5204 2.8125 13.2742 2.98295C13.0304 3.15104 12.8398 3.38897 12.7025 3.69673C12.5675 4.00213 12.5001 4.3608 12.5001 4.77273C12.5001 5.19413 12.5664 5.56108 12.6989 5.87358C12.8339 6.18608 13.0233 6.42874 13.2671 6.60156C13.5133 6.77438 13.8021 6.8608 14.1336 6.8608C14.3514 6.8608 14.5491 6.82292 14.7266 6.74716C14.9042 6.6714 15.0545 6.5625 15.1776 6.42045C15.3007 6.27841 15.3883 6.10795 15.4404 5.90909H16.2785C16.2311 6.23106 16.1139 6.52107 15.9269 6.77912C15.7423 7.0348 15.4972 7.2384 15.1918 7.38991C14.8888 7.53906 14.5361 7.61364 14.1336 7.61364ZM13.7359 7.47159H14.4319L14.3751 7.75568C14.5597 7.78409 14.729 7.86103 14.8829 7.98651C15.0368 8.11435 15.1137 8.31676 15.1137 8.59375C15.1137 8.89915 14.987 9.14773 14.7337 9.33949C14.4828 9.53362 14.1123 9.63068 13.6222 9.63068L13.5938 9.0767C13.814 9.0767 13.9963 9.04119 14.1407 8.97017C14.2875 8.90152 14.3609 8.78551 14.3609 8.62216C14.3609 8.45881 14.3005 8.34754 14.1798 8.28835C14.059 8.22917 13.8637 8.18892 13.5938 8.16761L13.7359 7.47159ZM19.1087 7.62784C18.7631 7.62784 18.4494 7.56274 18.1677 7.43253C17.886 7.29995 17.6622 7.10938 17.4965 6.8608C17.3308 6.60985 17.2479 6.30682 17.2479 5.9517C17.2479 5.6392 17.3095 5.38589 17.4326 5.19176C17.5557 4.99527 17.7202 4.84138 17.9262 4.73011C18.1322 4.61884 18.3594 4.53598 18.608 4.48153C18.859 4.42472 19.1111 4.37973 19.3644 4.34659C19.6959 4.30398 19.9646 4.27202 20.1705 4.25071C20.3789 4.22704 20.5304 4.18797 20.6251 4.13352C20.7221 4.07907 20.7707 3.98437 20.7707 3.84943V3.82102C20.7707 3.47064 20.6748 3.19839 20.483 3.00426C20.2936 2.81013 20.006 2.71307 19.6201 2.71307C19.22 2.71307 18.9063 2.80066 18.679 2.97585C18.4518 3.15104 18.292 3.33807 18.1996 3.53693L17.4042 3.25284C17.5462 2.9214 17.7356 2.66335 17.9724 2.47869C18.2115 2.29167 18.4719 2.16146 18.7536 2.08807C19.0377 2.01231 19.3171 1.97443 19.5917 1.97443C19.7669 1.97443 19.9681 1.99574 20.1954 2.03835C20.425 2.0786 20.6464 2.16264 20.8594 2.29048C21.0749 2.41832 21.2536 2.61127 21.3957 2.86932C21.5377 3.12737 21.6087 3.47301 21.6087 3.90625V7.5H20.7707V6.76136H20.728C20.6712 6.87973 20.5765 7.00639 20.444 7.14134C20.3114 7.27628 20.135 7.3911 19.9148 7.4858C19.6947 7.58049 19.426 7.62784 19.1087 7.62784ZM19.2366 6.875C19.568 6.875 19.8474 6.8099 20.0746 6.67969C20.3043 6.54948 20.4771 6.38139 20.5931 6.17543C20.7115 5.96946 20.7707 5.75284 20.7707 5.52557V4.75852C20.7352 4.80114 20.657 4.8402 20.5363 4.87571C20.4179 4.90885 20.2806 4.93845 20.1244 4.96449C19.9705 4.98816 19.8201 5.00947 19.6734 5.02841C19.5289 5.04498 19.4118 5.05919 19.3218 5.07102C19.104 5.09943 18.9004 5.1456 18.711 5.20952C18.524 5.27107 18.3725 5.36458 18.2565 5.49006C18.1428 5.61316 18.086 5.78125 18.086 5.99432C18.086 6.28551 18.1937 6.50568 18.4092 6.65483C18.627 6.80161 18.9028 6.875 19.2366 6.875ZM18.5548 1.39205L17.9013 1.36364C17.9013 1.00142 18.0043 0.705492 18.2103 0.475852C18.4186 0.243844 18.6755 0.127841 18.9809 0.127841C19.1158 0.127841 19.2354 0.151515 19.3396 0.198863C19.4437 0.243844 19.5432 0.295928 19.6379 0.355113C19.7325 0.414299 19.8296 0.467566 19.929 0.514914C20.0308 0.559896 20.1457 0.582386 20.2735 0.582386C20.4084 0.582386 20.5221 0.530303 20.6144 0.426136C20.7091 0.319602 20.7565 0.191761 20.7565 0.0426131L21.3957 0.0994319C21.3957 0.46875 21.2915 0.76231 21.0832 0.980113C20.8772 1.19792 20.6215 1.30682 20.3161 1.30682C20.1528 1.30682 20.0178 1.28433 19.9113 1.23935C19.8048 1.192 19.7101 1.13873 19.6272 1.07955C19.5443 1.02036 19.4567 0.968276 19.3644 0.923295C19.2721 0.875947 19.1584 0.852273 19.0235 0.852273C18.8886 0.852273 18.7761 0.90554 18.6861 1.01207C18.5986 1.11624 18.5548 1.2429 18.5548 1.39205ZM25.3543 7.61364C24.8619 7.61364 24.4298 7.49645 24.0581 7.26207C23.6888 7.0277 23.4 6.69981 23.1917 6.27841C22.9857 5.85701 22.8827 5.36458 22.8827 4.80114C22.8827 4.23295 22.9857 3.73698 23.1917 3.31321C23.4 2.88944 23.6888 2.56037 24.0581 2.32599C24.4298 2.09162 24.8619 1.97443 25.3543 1.97443C25.8467 1.97443 26.2776 2.09162 26.6469 2.32599C27.0186 2.56037 27.3074 2.88944 27.5134 3.31321C27.7217 3.73698 27.8259 4.23295 27.8259 4.80114C27.8259 5.36458 27.7217 5.85701 27.5134 6.27841C27.3074 6.69981 27.0186 7.0277 26.6469 7.26207C26.2776 7.49645 25.8467 7.61364 25.3543 7.61364ZM25.3543 6.8608C25.7283 6.8608 26.0361 6.76491 26.2776 6.57315C26.5191 6.38139 26.6978 6.12926 26.8138 5.81676C26.9298 5.50426 26.9878 5.16572 26.9878 4.80114C26.9878 4.43655 26.9298 4.09683 26.8138 3.78196C26.6978 3.46709 26.5191 3.21259 26.2776 3.01847C26.0361 2.82434 25.7283 2.72727 25.3543 2.72727C24.9802 2.72727 24.6725 2.82434 24.431 3.01847C24.1895 3.21259 24.0108 3.46709 23.8948 3.78196C23.7788 4.09683 23.7208 4.43655 23.7208 4.80114C23.7208 5.16572 23.7788 5.50426 23.8948 5.81676C24.0108 6.12926 24.1895 6.38139 24.431 6.57315C24.6725 6.76491 24.9802 6.8608 25.3543 6.8608ZM32.0313 7.5V0.227273H34.4887C35.0593 0.227273 35.5256 0.330255 35.8879 0.536221C36.2524 0.73982 36.5223 1.01562 36.6975 1.36364C36.8727 1.71165 36.9603 2.09991 36.9603 2.52841C36.9603 2.95691 36.8727 3.34635 36.6975 3.69673C36.5247 4.04711 36.2572 4.32647 35.895 4.5348C35.5327 4.74077 35.0687 4.84375 34.5029 4.84375H32.7415V4.0625H34.4745C34.8651 4.0625 35.1788 3.99503 35.4155 3.86009C35.6523 3.72514 35.8239 3.54285 35.9305 3.31321C36.0394 3.0812 36.0938 2.8196 36.0938 2.52841C36.0938 2.23722 36.0394 1.9768 35.9305 1.74716C35.8239 1.51752 35.6511 1.33759 35.412 1.20739C35.1729 1.07481 34.8557 1.00852 34.4603 1.00852H32.912V7.5H32.0313ZM40.4937 7.61364C39.9681 7.61364 39.5147 7.49763 39.1336 7.26562C38.7548 7.03125 38.4624 6.70455 38.2565 6.28551C38.0529 5.86411 37.9511 5.37405 37.9511 4.81534C37.9511 4.25663 38.0529 3.7642 38.2565 3.33807C38.4624 2.90956 38.7489 2.57576 39.1158 2.33665C39.4852 2.09517 39.916 1.97443 40.4084 1.97443C40.6925 1.97443 40.9731 2.02178 41.2501 2.11648C41.5271 2.21117 41.7792 2.36506 42.0065 2.57812C42.2337 2.78883 42.4148 3.06818 42.5498 3.41619C42.6847 3.7642 42.7522 4.19271 42.7522 4.7017V5.05682H38.5477V4.33239H41.8999C41.8999 4.02462 41.8384 3.75 41.7153 3.50852C41.5945 3.26705 41.4217 3.07647 41.1968 2.93679C40.9743 2.79711 40.7115 2.72727 40.4084 2.72727C40.0746 2.72727 39.7858 2.81013 39.542 2.97585C39.3005 3.1392 39.1146 3.35227 38.9844 3.61506C38.8542 3.87784 38.7891 4.15956 38.7891 4.46023V4.94318C38.7891 5.35511 38.8602 5.70431 39.0022 5.99077C39.1466 6.27486 39.3467 6.49148 39.6023 6.64062C39.858 6.78741 40.1551 6.8608 40.4937 6.8608C40.7138 6.8608 40.9127 6.83002 41.0903 6.76847C41.2702 6.70455 41.4253 6.60985 41.5555 6.48438C41.6857 6.35653 41.7863 6.19792 41.8573 6.00852L42.667 6.2358C42.5817 6.51042 42.4385 6.75189 42.2373 6.96023C42.0361 7.16619 41.7875 7.32718 41.4915 7.44318C41.1956 7.55682 40.863 7.61364 40.4937 7.61364ZM46.0867 7.61364C45.6322 7.61364 45.2309 7.49882 44.8829 7.26918C44.5349 7.03717 44.2626 6.71046 44.0661 6.28906C43.8696 5.86529 43.7714 5.36458 43.7714 4.78693C43.7714 4.21402 43.8696 3.71686 44.0661 3.29545C44.2626 2.87405 44.5361 2.54853 44.8864 2.31889C45.2368 2.08925 45.6416 1.97443 46.1009 1.97443C46.456 1.97443 46.7366 2.03362 46.9425 2.15199C47.1509 2.26799 47.3095 2.40057 47.4184 2.54972C47.5297 2.6965 47.6161 2.81723 47.6776 2.91193H47.7486V0.227273H48.5867V7.5H47.7771V6.66193H47.6776C47.6161 6.76136 47.5285 6.88684 47.4148 7.03835C47.3012 7.1875 47.139 7.32126 46.9283 7.43963C46.7176 7.55563 46.4371 7.61364 46.0867 7.61364ZM46.2004 6.8608C46.5365 6.8608 46.8206 6.7732 47.0526 6.59801C47.2846 6.42045 47.461 6.17543 47.5817 5.86293C47.7025 5.54806 47.7629 5.18466 47.7629 4.77273C47.7629 4.36553 47.7037 4.00923 47.5853 3.70384C47.4669 3.39607 47.2917 3.15696 47.0597 2.98651C46.8277 2.81368 46.5413 2.72727 46.2004 2.72727C45.8452 2.72727 45.5493 2.81842 45.3126 3.00071C45.0782 3.18063 44.9018 3.42566 44.7834 3.7358C44.6674 4.04356 44.6094 4.3892 44.6094 4.77273C44.6094 5.16098 44.6686 5.51373 44.787 5.83097C44.9077 6.14583 45.0853 6.39678 45.3197 6.58381C45.5564 6.76847 45.85 6.8608 46.2004 6.8608ZM50.238 7.5V2.04545H51.0761V7.5H50.238ZM50.6641 1.13636C50.5008 1.13636 50.3599 1.08073 50.2415 0.96946C50.1255 0.858191 50.0675 0.724432 50.0675 0.568182C50.0675 0.411932 50.1255 0.278172 50.2415 0.166903C50.3599 0.0556344 50.5008 0 50.6641 0C50.8275 0 50.9672 0.0556344 51.0832 0.166903C51.2015 0.278172 51.2607 0.411932 51.2607 0.568182C51.2607 0.724432 51.2015 0.858191 51.0832 0.96946C50.9672 1.08073 50.8275 1.13636 50.6641 1.13636ZM54.8127 9.65909C54.4079 9.65909 54.0599 9.60701 53.7687 9.50284C53.4775 9.40104 53.2349 9.2661 53.0407 9.09801C52.849 8.93229 52.6963 8.75473 52.5826 8.56534L53.2502 8.09659C53.326 8.19602 53.4219 8.30966 53.5379 8.4375C53.6539 8.56771 53.8125 8.68016 54.0137 8.77486C54.2173 8.87192 54.4837 8.92045 54.8127 8.92045C55.2531 8.92045 55.6165 8.81392 55.9029 8.60085C56.1894 8.38778 56.3326 8.05398 56.3326 7.59943V6.49148H56.2616C56.2001 6.59091 56.1125 6.71402 55.9988 6.8608C55.8876 7.00521 55.7266 7.13423 55.5159 7.24787C55.3075 7.35914 55.0258 7.41477 54.6707 7.41477C54.2304 7.41477 53.835 7.31061 53.4846 7.10227C53.1366 6.89394 52.8608 6.59091 52.6572 6.19318C52.456 5.79545 52.3554 5.3125 52.3554 4.74432C52.3554 4.18561 52.4536 3.6991 52.6501 3.2848C52.8466 2.86813 53.12 2.54616 53.4704 2.31889C53.8208 2.08925 54.2256 1.97443 54.6849 1.97443C55.04 1.97443 55.3217 2.03362 55.5301 2.15199C55.7408 2.26799 55.9018 2.40057 56.013 2.54972C56.1267 2.6965 56.2143 2.81723 56.2758 2.91193H56.361V2.04545H57.1707V7.65625C57.1707 8.125 57.0642 8.50616 56.8511 8.79972C56.6404 9.09564 56.3563 9.31226 55.9988 9.44957C55.6437 9.58925 55.2484 9.65909 54.8127 9.65909ZM54.7843 6.66193C55.1205 6.66193 55.4046 6.58499 55.6366 6.43111C55.8686 6.27723 56.045 6.05587 56.1657 5.76705C56.2865 5.47822 56.3468 5.13258 56.3468 4.73011C56.3468 4.33712 56.2876 3.99029 56.1693 3.68963C56.0509 3.38897 55.8757 3.15341 55.6437 2.98295C55.4117 2.8125 55.1252 2.72727 54.7843 2.72727C54.4292 2.72727 54.1333 2.81723 53.8966 2.99716C53.6622 3.17708 53.4858 3.41856 53.3674 3.72159C53.2514 4.02462 53.1934 4.3608 53.1934 4.73011C53.1934 5.1089 53.2526 5.44389 53.371 5.73509C53.4917 6.02391 53.6693 6.25118 53.9037 6.4169C54.1404 6.58026 54.434 6.66193 54.7843 6.66193ZM58.7048 7.5V2.04545H59.5144V2.86932H59.5713C59.6707 2.59943 59.8506 2.38045 60.111 2.21236C60.3715 2.04427 60.665 1.96023 60.9917 1.96023C61.0533 1.96023 61.1302 1.96141 61.2225 1.96378C61.3149 1.96615 61.3847 1.9697 61.4321 1.97443V2.8267C61.4037 2.8196 61.3385 2.80895 61.2368 2.79474C61.1373 2.77817 61.032 2.76989 60.9207 2.76989C60.6555 2.76989 60.4188 2.82552 60.2105 2.93679C60.0045 3.04569 59.8412 3.19721 59.7204 3.39134C59.602 3.5831 59.5429 3.80208 59.5429 4.0483V7.5H58.7048ZM64.5464 7.61364C64.0208 7.61364 63.5675 7.49763 63.1863 7.26562C62.8075 7.03125 62.5152 6.70455 62.3092 6.28551C62.1056 5.86411 62.0038 5.37405 62.0038 4.81534C62.0038 4.25663 62.1056 3.7642 62.3092 3.33807C62.5152 2.90956 62.8016 2.57576 63.1686 2.33665C63.5379 2.09517 63.9688 1.97443 64.4612 1.97443C64.7453 1.97443 65.0258 2.02178 65.3028 2.11648C65.5798 2.21117 65.8319 2.36506 66.0592 2.57812C66.2865 2.78883 66.4676 3.06818 66.6025 3.41619C66.7375 3.7642 66.8049 4.19271 66.8049 4.7017V5.05682H62.6004V4.33239H65.9527C65.9527 4.02462 65.8911 3.75 65.768 3.50852C65.6473 3.26705 65.4744 3.07647 65.2495 2.93679C65.027 2.79711 64.7642 2.72727 64.4612 2.72727C64.1274 2.72727 63.8385 2.81013 63.5947 2.97585C63.3532 3.1392 63.1674 3.35227 63.0372 3.61506C62.907 3.87784 62.8419 4.15956 62.8419 4.46023V4.94318C62.8419 5.35511 62.9129 5.70431 63.0549 5.99077C63.1993 6.27486 63.3994 6.49148 63.6551 6.64062C63.9108 6.78741 64.2079 6.8608 64.5464 6.8608C64.7666 6.8608 64.9654 6.83002 65.143 6.76847C65.3229 6.70455 65.478 6.60985 65.6082 6.48438C65.7384 6.35653 65.839 6.19792 65.91 6.00852L66.7197 6.2358C66.6345 6.51042 66.4912 6.75189 66.29 6.96023C66.0888 7.16619 65.8402 7.32718 65.5443 7.44318C65.2484 7.55682 64.9157 7.61364 64.5464 7.61364ZM70.3667 7.61364C69.8412 7.61364 69.3878 7.49763 69.0066 7.26562C68.6278 7.03125 68.3355 6.70455 68.1295 6.28551C67.9259 5.86411 67.8241 5.37405 67.8241 4.81534C67.8241 4.25663 67.9259 3.7642 68.1295 3.33807C68.3355 2.90956 68.6219 2.57576 68.9889 2.33665C69.3582 2.09517 69.7891 1.97443 70.2815 1.97443C70.5656 1.97443 70.8461 2.02178 71.1231 2.11648C71.4001 2.21117 71.6522 2.36506 71.8795 2.57812C72.1068 2.78883 72.2879 3.06818 72.4228 3.41619C72.5578 3.7642 72.6252 4.19271 72.6252 4.7017V5.05682H68.4207V4.33239H71.773C71.773 4.02462 71.7114 3.75 71.5883 3.50852C71.4676 3.26705 71.2948 3.07647 71.0698 2.93679C70.8473 2.79711 70.5845 2.72727 70.2815 2.72727C69.9477 2.72727 69.6589 2.81013 69.415 2.97585C69.1735 3.1392 68.9877 3.35227 68.8575 3.61506C68.7273 3.87784 68.6622 4.15956 68.6622 4.46023V4.94318C68.6622 5.35511 68.7332 5.70431 68.8752 5.99077C69.0197 6.27486 69.2197 6.49148 69.4754 6.64062C69.7311 6.78741 70.0282 6.8608 70.3667 6.8608C70.5869 6.8608 70.7858 6.83002 70.9633 6.76847C71.1432 6.70455 71.2983 6.60985 71.4285 6.48438C71.5587 6.35653 71.6593 6.19792 71.7304 6.00852L72.54 6.2358C72.4548 6.51042 72.3116 6.75189 72.1103 6.96023C71.9091 7.16619 71.6605 7.32718 71.3646 7.44318C71.0687 7.55682 70.736 7.61364 70.3667 7.61364ZM79.2552 0.227273V7.5H78.3745V1.15057H78.3319L76.5564 2.32955V1.43466L78.3745 0.227273H79.2552ZM83.6196 7.59943C83.2029 7.59943 82.8277 7.51657 82.4939 7.35085C82.16 7.18513 81.8925 6.95786 81.6913 6.66903C81.4901 6.38021 81.38 6.05114 81.361 5.68182H82.2133C82.2465 6.01089 82.3956 6.28314 82.6608 6.49858C82.9283 6.71165 83.2479 6.81818 83.6196 6.81818C83.9179 6.81818 84.183 6.74834 84.415 6.60866C84.6494 6.46899 84.8329 6.27723 84.9654 6.03338C85.1004 5.78717 85.1679 5.509 85.1679 5.19886C85.1679 4.88163 85.098 4.59872 84.9583 4.35014C84.821 4.0992 84.6316 3.90152 84.3902 3.7571C84.1487 3.61269 83.8729 3.5393 83.5627 3.53693C83.3402 3.53456 83.1117 3.56889 82.8774 3.63991C82.643 3.70857 82.4501 3.79735 82.2985 3.90625L81.4747 3.80682L81.915 0.227273H85.6934V1.00852H82.6537L82.398 3.15341H82.4406C82.5897 3.03504 82.7768 2.93679 83.0017 2.85866C83.2266 2.78054 83.4609 2.74148 83.7048 2.74148C84.1499 2.74148 84.5464 2.84801 84.8944 3.06108C85.2448 3.27178 85.5194 3.56061 85.7183 3.92756C85.9195 4.29451 86.0201 4.71354 86.0201 5.18466C86.0201 5.64867 85.916 6.06297 85.7076 6.42756C85.5017 6.78977 85.2176 7.07623 84.8554 7.28693C84.4931 7.49527 84.0812 7.59943 83.6196 7.59943ZM87.5587 7.5V0.227273H88.4393V3.83523H88.5246L91.7916 0.227273H92.9422L89.8882 3.50852L92.9422 7.5H91.8768L89.3484 4.11932L88.4393 5.14205V7.5H87.5587ZM95.7698 9.65909C95.3649 9.65909 95.0169 9.60701 94.7257 9.50284C94.4345 9.40104 94.1919 9.2661 93.9978 9.09801C93.806 8.93229 93.6533 8.75473 93.5397 8.56534L94.2073 8.09659C94.283 8.19602 94.3789 8.30966 94.4949 8.4375C94.6109 8.56771 94.7695 8.68016 94.9708 8.77486C95.1744 8.87192 95.4407 8.92045 95.7698 8.92045C96.2101 8.92045 96.5735 8.81392 96.86 8.60085C97.1464 8.38778 97.2897 8.05398 97.2897 7.59943V6.49148H97.2186C97.1571 6.59091 97.0695 6.71402 96.9559 6.8608C96.8446 7.00521 96.6836 7.13423 96.4729 7.24787C96.2646 7.35914 95.9828 7.41477 95.6277 7.41477C95.1874 7.41477 94.792 7.31061 94.4417 7.10227C94.0936 6.89394 93.8178 6.59091 93.6142 6.19318C93.413 5.79545 93.3124 5.3125 93.3124 4.74432C93.3124 4.18561 93.4106 3.6991 93.6071 3.2848C93.8036 2.86813 94.0771 2.54616 94.4274 2.31889C94.7778 2.08925 95.1827 1.97443 95.6419 1.97443C95.997 1.97443 96.2788 2.03362 96.4871 2.15199C96.6978 2.26799 96.8588 2.40057 96.9701 2.54972C97.0837 2.6965 97.1713 2.81723 97.2328 2.91193H97.3181V2.04545H98.1277V7.65625C98.1277 8.125 98.0212 8.50616 97.8081 8.79972C97.5974 9.09564 97.3133 9.31226 96.9559 9.44957C96.6007 9.58925 96.2054 9.65909 95.7698 9.65909ZM95.7414 6.66193C96.0775 6.66193 96.3616 6.58499 96.5936 6.43111C96.8256 6.27723 97.002 6.05587 97.1228 5.76705C97.2435 5.47822 97.3039 5.13258 97.3039 4.73011C97.3039 4.33712 97.2447 3.99029 97.1263 3.68963C97.0079 3.38897 96.8327 3.15341 96.6007 2.98295C96.3687 2.8125 96.0823 2.72727 95.7414 2.72727C95.3863 2.72727 95.0903 2.81723 94.8536 2.99716C94.6192 3.17708 94.4428 3.41856 94.3245 3.72159C94.2085 4.02462 94.1505 4.3608 94.1505 4.73011C94.1505 5.1089 94.2096 5.44389 94.328 5.73509C94.4488 6.02391 94.6263 6.25118 94.8607 6.4169C95.0974 6.58026 95.391 6.66193 95.7414 6.66193Z" fill="#1C2434"/>
</svg>
