<svg width="214" height="16" viewBox="0 0 214 16" fill="none" xmlns="http://www.w3.org/2000/svg">
<path d="M10.16 6.33605C10.16 5.88805 10.112 5.41872 10.016 4.92805C9.93067 4.42672 9.792 3.94672 9.6 3.48805C9.408 3.02938 9.152 2.64005 8.832 2.32005C8.53333 2.02138 8.18133 1.77072 7.776 1.56805C7.38133 1.35472 6.97067 1.22672 6.544 1.18405C6.416 1.16272 6.28267 1.15205 6.144 1.15205C6.016 1.15205 5.888 1.15205 5.76 1.15205C5.344 1.15205 4.928 1.15738 4.512 1.16805C4.10667 1.17872 3.696 1.18938 3.28 1.20005V11.0401C3.28 11.3601 3.38667 11.5681 3.6 11.6641C3.81333 11.7601 4.05333 11.8081 4.32 11.8081C4.74667 11.8081 5.184 11.7921 5.632 11.7601C6.09067 11.7281 6.53333 11.6534 6.96 11.5361C7.39733 11.4081 7.79733 11.2107 8.16 10.9441C8.896 10.4001 9.41333 9.71738 9.712 8.89605C10.0107 8.06405 10.16 7.21072 10.16 6.33605ZM11.936 6.09605C11.936 7.15205 11.712 8.15472 11.264 9.10405C10.8267 10.0534 10.1493 10.8107 9.232 11.3761C8.85867 11.6001 8.42667 11.7867 7.936 11.9361C7.456 12.0747 6.96533 12.1761 6.464 12.2401C5.96267 12.3041 5.49333 12.3361 5.056 12.3361C4.672 12.3361 4.28267 12.3254 3.888 12.3041C3.504 12.2827 3.11467 12.2721 2.72 12.2721C2.41067 12.2721 2.096 12.2774 1.776 12.2881C1.456 12.2881 1.14133 12.2987 0.832 12.3201C0.778667 12.3307 0.725334 12.3361 0.672 12.3361C0.618667 12.3361 0.565334 12.3361 0.512 12.3361C0.448 12.3361 0.410667 12.3094 0.4 12.2561C0.389334 12.2027 0.384 12.1547 0.384 12.1121C0.384 12.0374 0.437334 11.9841 0.544 11.9521C0.661334 11.9201 0.784 11.8934 0.912 11.8721C1.05067 11.8507 1.14667 11.8241 1.2 11.7921C1.38133 11.6961 1.49867 11.5574 1.552 11.3761C1.616 11.1841 1.648 10.9921 1.648 10.8001C1.648 10.2134 1.648 9.63205 1.648 9.05605C1.65867 8.46938 1.664 7.88272 1.664 7.29605V5.82405C1.664 5.23738 1.664 4.65605 1.664 4.08005C1.664 3.50405 1.664 2.92272 1.664 2.33605C1.664 1.93072 1.616 1.64272 1.52 1.47205C1.424 1.30138 1.15733 1.21605 0.72 1.21605C0.645334 1.21605 0.570667 1.22138 0.496 1.23205C0.432 1.23205 0.362667 1.23205 0.288 1.23205C0.213334 1.23205 0.144 1.21072 0.0800003 1.16805C0.0266669 1.11472 2.68221e-07 1.05072 2.68221e-07 0.97605C2.68221e-07 0.805383 0.0853336 0.72005 0.256 0.72005C0.501334 0.72005 0.746667 0.730717 0.992 0.75205C1.23733 0.762717 1.47733 0.76805 1.712 0.76805C2.50133 0.76805 3.29067 0.746717 4.08 0.70405C4.88 0.650717 5.67467 0.62405 6.464 0.62405C7.60533 0.62405 8.58133 0.842717 9.392 1.28005C10.2133 1.71738 10.8427 2.34672 11.28 3.16805C11.7173 3.97872 11.936 4.95472 11.936 6.09605ZM17.7486 12.1121C17.7486 12.1654 17.7326 12.2187 17.7006 12.2721C17.6686 12.3147 17.626 12.3361 17.5726 12.3361C17.274 12.3361 16.9753 12.3307 16.6766 12.3201C16.3886 12.2987 16.09 12.2881 15.7806 12.2881H15.3486C15.0286 12.2881 14.7086 12.2987 14.3886 12.3201C14.0793 12.3307 13.77 12.3361 13.4606 12.3361C13.418 12.3361 13.386 12.3094 13.3646 12.2561C13.354 12.2027 13.3486 12.1601 13.3486 12.1281C13.3486 12.0747 13.354 12.0374 13.3646 12.0161C13.3753 11.9841 13.4073 11.9627 13.4606 11.9521C13.514 11.9307 13.5726 11.9254 13.6366 11.9361C13.7113 11.9361 13.7806 11.9361 13.8446 11.9361C13.9193 11.9361 13.9886 11.9414 14.0526 11.9521C14.1166 11.9521 14.186 11.9521 14.2606 11.9521C14.41 11.9521 14.5433 11.9201 14.6606 11.8561C14.7886 11.7814 14.8526 11.6587 14.8526 11.4881V5.08805C14.8526 4.90672 14.8206 4.76805 14.7566 4.67205C14.6926 4.56538 14.5593 4.51205 14.3566 4.51205C14.2073 4.51205 14.0526 4.52272 13.8926 4.54405C13.7433 4.55472 13.594 4.57072 13.4446 4.59205C13.3593 4.59205 13.3166 4.54405 13.3166 4.44805C13.3166 4.34138 13.3593 4.27205 13.4446 4.24005C13.5726 4.19738 13.706 4.17072 13.8446 4.16005C13.994 4.13872 14.1326 4.11738 14.2606 4.09605C14.5593 4.04272 14.858 3.98405 15.1566 3.92005C15.4553 3.85605 15.7486 3.78672 16.0366 3.71205C16.0686 3.70138 16.1113 3.69605 16.1646 3.69605C16.282 3.69605 16.3406 3.76005 16.3406 3.88805C16.3406 5.14672 16.3353 6.41072 16.3246 7.68005C16.3246 8.94938 16.3246 10.2187 16.3246 11.4881C16.3246 11.6587 16.3993 11.7814 16.5486 11.8561C16.7086 11.9201 16.858 11.9521 16.9966 11.9521C17.1033 11.9521 17.21 11.9467 17.3166 11.9361C17.434 11.9254 17.546 11.9201 17.6526 11.9201C17.6953 11.9201 17.722 11.9467 17.7326 12.0001C17.7433 12.0534 17.7486 12.0907 17.7486 12.1121ZM16.4526 1.04005C16.4526 1.30672 16.3566 1.53605 16.1646 1.72805C15.9726 1.90938 15.7433 2.00005 15.4766 2.00005C15.21 2.00005 14.9806 1.90938 14.7886 1.72805C14.5966 1.53605 14.5006 1.30672 14.5006 1.04005C14.5006 0.773383 14.5966 0.549383 14.7886 0.368051C14.9806 0.176051 15.21 0.0800505 15.4766 0.0800505C15.7433 0.0800505 15.9726 0.176051 16.1646 0.368051C16.3566 0.549383 16.4526 0.773383 16.4526 1.04005ZM24.7846 12.8641C24.7846 12.4374 24.662 12.1334 24.4166 11.9521C24.182 11.7601 23.894 11.6374 23.5526 11.5841C23.2113 11.5201 22.8806 11.4721 22.5606 11.4401L20.7686 11.2641C20.534 11.5201 20.358 11.7761 20.2406 12.0321C20.134 12.2774 20.0806 12.5761 20.0806 12.9281C20.0806 13.4401 20.2033 13.8081 20.4486 14.0321C20.7046 14.2667 21.0246 14.4161 21.4086 14.4801C21.7926 14.5441 22.182 14.5761 22.5766 14.5761C22.9606 14.5761 23.318 14.5227 23.6486 14.4161C23.99 14.3094 24.262 14.1281 24.4646 13.8721C24.678 13.6267 24.7846 13.2907 24.7846 12.8641ZM24.0006 6.46405C24.0006 6.13338 23.9633 5.78138 23.8886 5.40805C23.814 5.03472 23.6646 4.71472 23.4406 4.44805C23.2273 4.18138 22.9126 4.04805 22.4966 4.04805C22.0273 4.04805 21.6646 4.17072 21.4086 4.41605C21.1526 4.65072 20.9766 4.95472 20.8806 5.32805C20.7953 5.69072 20.7526 6.06938 20.7526 6.46405C20.7526 6.88005 20.79 7.27472 20.8646 7.64805C20.95 8.01072 21.1153 8.30938 21.3606 8.54405C21.6166 8.77872 21.9953 8.89605 22.4966 8.89605C22.806 8.89605 23.0566 8.81605 23.2486 8.65605C23.4513 8.49605 23.606 8.29338 23.7126 8.04805C23.8193 7.79205 23.894 7.52538 23.9366 7.24805C23.9793 6.97072 24.0006 6.70938 24.0006 6.46405ZM26.8486 3.84005C26.8486 4.06405 26.8006 4.21872 26.7046 4.30405C26.6193 4.37872 26.502 4.42138 26.3526 4.43205C26.214 4.43205 26.0646 4.43205 25.9046 4.43205C25.67 4.43205 25.43 4.43205 25.1846 4.43205C24.95 4.42138 24.71 4.41072 24.4646 4.40005C24.806 4.66672 25.0566 4.98672 25.2166 5.36005C25.3873 5.73338 25.4726 6.13338 25.4726 6.56005C25.4726 7.08272 25.3233 7.54672 25.0246 7.95205C24.7366 8.34672 24.3633 8.65605 23.9046 8.88005C23.446 9.10405 22.9713 9.21605 22.4806 9.21605C22.31 9.21605 22.1446 9.21072 21.9846 9.20005C21.8246 9.17872 21.6593 9.16272 21.4886 9.15205C21.35 9.28005 21.19 9.41872 21.0086 9.56805C20.838 9.71738 20.7526 9.89872 20.7526 10.1121C20.7526 10.2827 20.8326 10.4107 20.9926 10.4961C21.1633 10.5707 21.35 10.6241 21.5526 10.6561C21.7553 10.6881 21.9153 10.7094 22.0326 10.7201L24.0646 10.8641C24.4273 10.8961 24.7793 10.9761 25.1206 11.1041C25.4726 11.2214 25.766 11.4081 26.0006 11.6641C26.2353 11.9094 26.3526 12.2454 26.3526 12.6721C26.3526 13.1201 26.2193 13.4934 25.9526 13.7921C25.6966 14.0907 25.3606 14.3307 24.9446 14.5121C24.5393 14.6934 24.118 14.8214 23.6806 14.8961C23.2433 14.9707 22.8486 15.0081 22.4966 15.0081C22.2193 15.0081 21.8726 14.9921 21.4566 14.9601C21.0406 14.9387 20.63 14.8747 20.2246 14.7681C19.8193 14.6614 19.478 14.4907 19.2006 14.2561C18.934 14.0321 18.8006 13.7227 18.8006 13.3281C18.8006 13.0401 18.87 12.7681 19.0086 12.5121C19.1473 12.2667 19.318 12.0374 19.5206 11.8241C19.734 11.6107 19.942 11.4241 20.1446 11.2641C20.0273 11.2107 19.8673 11.1307 19.6646 11.0241C19.4726 10.9067 19.3766 10.7734 19.3766 10.6241C19.3766 10.4427 19.4726 10.2401 19.6646 10.0161C19.8673 9.79205 20.086 9.57872 20.3206 9.37605C20.5553 9.16272 20.7366 8.99738 20.8646 8.88005C20.3206 8.62405 19.9153 8.29872 19.6486 7.90405C19.3926 7.49872 19.2646 6.99738 19.2646 6.40005C19.2646 5.84538 19.4193 5.37072 19.7286 4.97605C20.0486 4.57072 20.4486 4.26138 20.9286 4.04805C21.4193 3.82405 21.9153 3.71205 22.4166 3.71205C22.598 3.71205 22.7793 3.72805 22.9606 3.76005C23.142 3.78138 23.318 3.81872 23.4886 3.87205C23.574 3.89338 23.6646 3.92538 23.7606 3.96805C23.8673 4.00005 23.9633 4.02138 24.0486 4.03205C24.1233 4.04272 24.1926 4.04805 24.2566 4.04805C24.3313 4.04805 24.406 4.04805 24.4806 4.04805C24.8646 4.04805 25.2326 4.02138 25.5846 3.96805C25.9366 3.90405 26.2513 3.72272 26.5286 3.42405C26.5926 3.36005 26.646 3.32805 26.6886 3.32805C26.774 3.32805 26.822 3.40272 26.8326 3.55205C26.8433 3.69072 26.8486 3.78672 26.8486 3.84005ZM32.0768 12.1121C32.0768 12.1654 32.0608 12.2187 32.0288 12.2721C31.9968 12.3147 31.9541 12.3361 31.9008 12.3361C31.6021 12.3361 31.3034 12.3307 31.0048 12.3201C30.7168 12.2987 30.4181 12.2881 30.1088 12.2881H29.6768C29.3568 12.2881 29.0368 12.2987 28.7168 12.3201C28.4074 12.3307 28.0981 12.3361 27.7888 12.3361C27.7461 12.3361 27.7141 12.3094 27.6928 12.2561C27.6821 12.2027 27.6768 12.1601 27.6768 12.1281C27.6768 12.0747 27.6821 12.0374 27.6928 12.0161C27.7034 11.9841 27.7354 11.9627 27.7888 11.9521C27.8421 11.9307 27.9008 11.9254 27.9648 11.9361C28.0394 11.9361 28.1088 11.9361 28.1728 11.9361C28.2474 11.9361 28.3168 11.9414 28.3808 11.9521C28.4448 11.9521 28.5141 11.9521 28.5888 11.9521C28.7381 11.9521 28.8714 11.9201 28.9888 11.8561C29.1168 11.7814 29.1808 11.6587 29.1808 11.4881V5.08805C29.1808 4.90672 29.1488 4.76805 29.0848 4.67205C29.0208 4.56538 28.8874 4.51205 28.6848 4.51205C28.5354 4.51205 28.3808 4.52272 28.2208 4.54405C28.0714 4.55472 27.9221 4.57072 27.7728 4.59205C27.6874 4.59205 27.6448 4.54405 27.6448 4.44805C27.6448 4.34138 27.6874 4.27205 27.7728 4.24005C27.9008 4.19738 28.0341 4.17072 28.1728 4.16005C28.3221 4.13872 28.4608 4.11738 28.5888 4.09605C28.8874 4.04272 29.1861 3.98405 29.4848 3.92005C29.7834 3.85605 30.0768 3.78672 30.3648 3.71205C30.3968 3.70138 30.4394 3.69605 30.4928 3.69605C30.6101 3.69605 30.6688 3.76005 30.6688 3.88805C30.6688 5.14672 30.6634 6.41072 30.6528 7.68005C30.6528 8.94938 30.6528 10.2187 30.6528 11.4881C30.6528 11.6587 30.7274 11.7814 30.8768 11.8561C31.0368 11.9201 31.1861 11.9521 31.3248 11.9521C31.4314 11.9521 31.5381 11.9467 31.6448 11.9361C31.7621 11.9254 31.8741 11.9201 31.9808 11.9201C32.0234 11.9201 32.0501 11.9467 32.0608 12.0001C32.0714 12.0534 32.0768 12.0907 32.0768 12.1121ZM30.7808 1.04005C30.7808 1.30672 30.6848 1.53605 30.4928 1.72805C30.3008 1.90938 30.0714 2.00005 29.8048 2.00005C29.5381 2.00005 29.3088 1.90938 29.1168 1.72805C28.9248 1.53605 28.8288 1.30672 28.8288 1.04005C28.8288 0.773383 28.9248 0.549383 29.1168 0.368051C29.3088 0.176051 29.5381 0.0800505 29.8048 0.0800505C30.0714 0.0800505 30.3008 0.176051 30.4928 0.368051C30.6848 0.549383 30.7808 0.773383 30.7808 1.04005ZM38.3288 11.6161C38.3288 11.7121 38.2541 11.8081 38.1048 11.9041C37.9661 12.0001 37.7954 12.0854 37.5928 12.1601C37.3901 12.2347 37.1928 12.2934 37.0008 12.3361C36.8194 12.3787 36.6861 12.4001 36.6008 12.4001C36.0461 12.4001 35.6141 12.3307 35.3048 12.1921C35.0061 12.0534 34.7928 11.8241 34.6648 11.5041C34.5474 11.1841 34.4888 10.7521 34.4888 10.2081C34.4888 9.32272 34.4888 8.43738 34.4888 7.55205C34.4994 6.65605 34.5101 5.76538 34.5208 4.88005H33.3688C33.2941 4.88005 33.2301 4.90138 33.1768 4.94405C33.1341 4.97605 33.0861 4.99205 33.0328 4.99205C32.9794 4.99205 32.9528 4.95472 32.9528 4.88005C32.9528 4.83738 32.9794 4.75205 33.0328 4.62405C33.0968 4.49605 33.1394 4.41072 33.1608 4.36805C33.1928 4.37872 33.2408 4.38405 33.3048 4.38405H34.5528L34.5688 2.35205C34.8141 2.19205 35.0381 2.01605 35.2408 1.82405C35.4434 1.62138 35.6461 1.41872 35.8488 1.21605C35.8701 1.19472 35.8914 1.17872 35.9128 1.16805C35.9341 1.14672 35.9554 1.13605 35.9768 1.13605C36.0728 1.13605 36.1208 1.17338 36.1208 1.24805L36.0248 4.36805C36.3661 4.36805 36.7021 4.36272 37.0328 4.35205C37.3741 4.34138 37.7101 4.33605 38.0408 4.33605C38.1794 4.33605 38.2488 4.41605 38.2488 4.57605C38.2488 4.77872 38.1581 4.88005 37.9768 4.88005H36.0248C36.0248 5.69072 36.0194 6.50672 36.0088 7.32805C36.0088 8.13872 36.0088 8.95472 36.0088 9.77605V11.0081C36.0088 11.2747 36.1208 11.4614 36.3448 11.5681C36.5688 11.6641 36.7874 11.7121 37.0008 11.7121C37.2994 11.7121 37.5928 11.6641 37.8808 11.5681C37.9128 11.5467 37.9608 11.5254 38.0248 11.5041C38.0888 11.4827 38.1368 11.4721 38.1688 11.4721C38.2754 11.4721 38.3288 11.5201 38.3288 11.6161ZM44.9859 6.73605C44.9752 6.29872 44.9379 5.88272 44.8739 5.48805C44.8099 5.08272 44.6552 4.75205 44.4099 4.49605C44.1645 4.22938 43.7645 4.09605 43.2099 4.09605C42.7085 4.09605 42.2979 4.23472 41.9779 4.51205C41.6685 4.77872 41.4285 5.12005 41.2579 5.53605C41.0872 5.94138 40.9592 6.35738 40.8739 6.78405C41.1405 6.79472 41.4019 6.80538 41.6579 6.81605C41.9139 6.81605 42.1699 6.81605 42.4259 6.81605C42.8525 6.81605 43.2792 6.81072 43.7059 6.80005C44.1325 6.77872 44.5592 6.75738 44.9859 6.73605ZM46.8259 10.4001C46.8259 10.4534 46.8152 10.4854 46.7939 10.4961C46.7619 10.6027 46.6819 10.7307 46.5539 10.8801C46.4365 11.0294 46.3032 11.1734 46.1539 11.3121C46.0045 11.4401 45.8819 11.5361 45.7859 11.6001C45.4339 11.8454 45.0339 12.0427 44.5859 12.1921C44.1485 12.3414 43.7112 12.4161 43.2739 12.4161C42.9112 12.4161 42.5059 12.3574 42.0579 12.2401C41.6205 12.1227 41.2472 11.9627 40.9379 11.7601C40.3405 11.3654 39.9032 10.8481 39.6259 10.2081C39.3485 9.56805 39.2099 8.90138 39.2099 8.20805C39.2099 7.41872 39.3645 6.68805 39.6739 6.01605C39.9832 5.34405 40.4792 4.80005 41.1619 4.38405C41.4712 4.20272 41.8179 4.05338 42.2019 3.93605C42.5859 3.80805 42.9539 3.74405 43.3059 3.74405C43.9352 3.74405 44.4899 3.87205 44.9699 4.12805C45.4499 4.38405 45.8232 4.74672 46.0899 5.21605C46.3672 5.67472 46.5059 6.22405 46.5059 6.86405C46.5059 7.04538 46.4632 7.16272 46.3779 7.21605C46.3032 7.26938 46.1859 7.29605 46.0259 7.29605C45.8125 7.29605 45.5992 7.29072 45.3859 7.28005C45.1725 7.26938 44.9592 7.25872 44.7459 7.24805C44.4472 7.22672 44.1485 7.21605 43.8499 7.21605C43.5619 7.21605 43.2685 7.21605 42.9699 7.21605C42.6072 7.21605 42.2445 7.21605 41.8819 7.21605C41.5192 7.21605 41.1565 7.22672 40.7939 7.24805C40.7832 7.41872 40.7725 7.58405 40.7619 7.74405C40.7512 7.90405 40.7459 8.06938 40.7459 8.24005C40.7459 8.63472 40.7939 9.04538 40.8899 9.47205C40.9859 9.88805 41.1405 10.2774 41.3539 10.6401C41.5672 10.9921 41.8392 11.2801 42.1699 11.5041C42.5005 11.7174 42.9005 11.8241 43.3699 11.8241C43.8499 11.8241 44.3085 11.7494 44.7459 11.6001C45.1832 11.4507 45.5832 11.2107 45.9459 10.8801C46.0419 10.7841 46.1272 10.6827 46.2019 10.5761C46.2872 10.4587 46.3779 10.3574 46.4739 10.2721C46.5272 10.2187 46.5859 10.1921 46.6499 10.1921C46.7032 10.1921 46.7459 10.2134 46.7779 10.2561C46.8099 10.2987 46.8259 10.3467 46.8259 10.4001ZM58.7126 8.12805C58.7126 7.66938 58.6753 7.21072 58.6006 6.75205C58.5366 6.28272 58.4086 5.85072 58.2166 5.45605C58.0353 5.06138 57.7686 4.74672 57.4166 4.51205C57.0646 4.26672 56.606 4.14405 56.0406 4.14405C55.5073 4.14405 55.07 4.27205 54.7286 4.52805C54.398 4.78405 54.1366 5.11472 53.9446 5.52005C53.7633 5.92538 53.6353 6.36272 53.5606 6.83205C53.4966 7.30138 53.4646 7.74405 53.4646 8.16005C53.4646 8.61872 53.4966 9.07738 53.5606 9.53605C53.6353 9.99472 53.7686 10.4107 53.9606 10.7841C54.1526 11.1467 54.4246 11.4401 54.7766 11.6641C55.1393 11.8881 55.6033 12.0001 56.1686 12.0001C56.7233 12.0001 57.166 11.8827 57.4966 11.6481C57.838 11.4134 58.094 11.1041 58.2646 10.7201C58.446 10.3361 58.5633 9.92005 58.6166 9.47205C58.6806 9.01338 58.7126 8.56538 58.7126 8.12805ZM60.3606 8.17605C60.3606 8.97605 60.1686 9.69605 59.7846 10.3361C59.4113 10.9761 58.8993 11.4827 58.2486 11.8561C57.6086 12.2294 56.8886 12.4161 56.0886 12.4161C55.31 12.4161 54.606 12.2294 53.9766 11.8561C53.3473 11.4721 52.846 10.9654 52.4726 10.3361C52.0993 9.69605 51.9126 8.98672 51.9126 8.20805C51.9126 7.40805 52.094 6.67205 52.4566 6.00005C52.8193 5.31738 53.3153 4.76805 53.9446 4.35205C54.5846 3.93605 55.3206 3.72805 56.1526 3.72805C57.0486 3.72805 57.8113 3.92005 58.4406 4.30405C59.07 4.67738 59.5446 5.20005 59.8646 5.87205C60.1953 6.53338 60.3606 7.30138 60.3606 8.17605ZM74.9705 12.1121C74.9705 12.2507 74.8905 12.3201 74.7305 12.3201C74.4958 12.3201 74.2558 12.3147 74.0105 12.3041C73.7652 12.2827 73.5198 12.2721 73.2745 12.2721C72.9118 12.2721 72.5385 12.2827 72.1545 12.3041C71.7812 12.3147 71.4078 12.3201 71.0345 12.3201C70.9918 12.3201 70.9652 12.2881 70.9545 12.2241C70.9438 12.1494 70.9385 12.0907 70.9385 12.0481C70.9385 11.9627 70.9918 11.9201 71.0985 11.9201C71.2052 11.9201 71.2905 11.9201 71.3545 11.9201C71.4078 11.9201 71.4612 11.9254 71.5145 11.9361C71.5785 11.9361 71.6372 11.9361 71.6905 11.9361C71.9998 11.9361 72.1705 11.7814 72.2025 11.4721C72.2345 10.8427 72.2452 10.2081 72.2345 9.56805C72.2345 8.92805 72.2345 8.29338 72.2345 7.66405C72.2345 7.54672 72.2345 7.42938 72.2345 7.31205C72.2345 7.18405 72.2345 7.06138 72.2345 6.94405C72.2238 6.69872 72.2078 6.40005 72.1865 6.04805C72.1652 5.68538 72.1172 5.39205 72.0425 5.16805C71.8718 4.61338 71.4985 4.33605 70.9225 4.33605C70.3998 4.33605 69.9198 4.46938 69.4825 4.73605C69.0452 5.00272 68.6665 5.33872 68.3465 5.74405C68.3358 6.52272 68.3305 7.29605 68.3305 8.06405C68.3305 8.83205 68.3305 9.60005 68.3305 10.3681V11.4721C68.3305 11.6321 68.3998 11.7494 68.5385 11.8241C68.6772 11.8987 68.8158 11.9361 68.9545 11.9361C69.0398 11.9361 69.1198 11.9307 69.1945 11.9201C69.2798 11.8987 69.3598 11.8881 69.4345 11.8881C69.4772 11.8881 69.5038 11.9147 69.5145 11.9681C69.5252 12.0214 69.5305 12.0641 69.5305 12.0961C69.5305 12.1387 69.5145 12.1867 69.4825 12.2401C69.4612 12.2934 69.4185 12.3201 69.3545 12.3201C69.1198 12.3201 68.8852 12.3147 68.6505 12.3041C68.4265 12.2827 68.1972 12.2721 67.9625 12.2721C67.5998 12.2721 67.2372 12.2827 66.8745 12.3041C66.5118 12.3147 66.1438 12.3201 65.7705 12.3201C65.7172 12.3201 65.6852 12.2881 65.6745 12.2241C65.6745 12.1494 65.6745 12.0907 65.6745 12.0481C65.6745 11.9627 65.7225 11.9201 65.8185 11.9201C65.9145 11.9201 65.9892 11.9201 66.0425 11.9201C66.0958 11.9201 66.1492 11.9254 66.2025 11.9361C66.2558 11.9361 66.3092 11.9361 66.3625 11.9361C66.6718 11.9361 66.8425 11.7814 66.8745 11.4721C66.8852 11.3227 66.8905 11.1734 66.8905 11.0241C66.8905 10.8747 66.8905 10.7254 66.8905 10.5761C66.8905 9.65872 66.8905 8.74138 66.8905 7.82405C66.8905 6.89605 66.8852 5.97338 66.8745 5.05605C66.8745 4.90672 66.8425 4.75738 66.7785 4.60805C66.7145 4.45872 66.5918 4.38405 66.4105 4.38405C66.2718 4.38405 66.1385 4.40538 66.0105 4.44805C65.8825 4.49072 65.7492 4.51205 65.6105 4.51205C65.5358 4.51205 65.4985 4.45872 65.4985 4.35205C65.4985 4.33072 65.4985 4.30938 65.4985 4.28805C65.5092 4.25605 65.5198 4.23472 65.5305 4.22405C65.5412 4.21338 65.5572 4.20805 65.5785 4.20805C65.5998 4.19738 65.6158 4.18672 65.6265 4.17605C65.8185 4.12272 66.0158 4.08538 66.2185 4.06405C66.4318 4.04272 66.6345 4.01072 66.8265 3.96805C67.0078 3.93605 67.1838 3.89338 67.3545 3.84005C67.5252 3.77605 67.6958 3.74405 67.8665 3.74405C67.9412 3.74405 67.9998 3.78138 68.0425 3.85605C68.0958 3.95205 68.1385 4.09072 68.1705 4.27205C68.2025 4.44272 68.2238 4.61872 68.2345 4.80005C68.2558 4.98138 68.2665 5.13072 68.2665 5.24805C68.5012 5.01338 68.7785 4.78405 69.0985 4.56005C69.4292 4.32538 69.7705 4.13338 70.1225 3.98405C70.4852 3.82405 70.8372 3.74405 71.1785 3.74405C72.1598 3.74405 72.8212 3.96272 73.1625 4.40005C73.5145 4.82672 73.6905 5.50405 73.6905 6.43205C73.6905 7.26405 73.6852 8.09605 73.6745 8.92805C73.6745 9.76005 73.6745 10.5921 73.6745 11.4241C73.6745 11.6267 73.7332 11.7654 73.8505 11.8401C73.9785 11.9041 74.1278 11.9361 74.2985 11.9361C74.3838 11.9361 74.4692 11.9307 74.5545 11.9201C74.6398 11.8987 74.7198 11.8881 74.7945 11.8881C74.8585 11.8881 74.9012 11.9147 74.9225 11.9681C74.9545 12.0107 74.9705 12.0587 74.9705 12.1121ZM82.7439 8.12805C82.7439 7.66938 82.7065 7.21072 82.6319 6.75205C82.5679 6.28272 82.4399 5.85072 82.2479 5.45605C82.0665 5.06138 81.7999 4.74672 81.4479 4.51205C81.0959 4.26672 80.6372 4.14405 80.0719 4.14405C79.5385 4.14405 79.1012 4.27205 78.7599 4.52805C78.4292 4.78405 78.1679 5.11472 77.9759 5.52005C77.7945 5.92538 77.6665 6.36272 77.5919 6.83205C77.5279 7.30138 77.4959 7.74405 77.4959 8.16005C77.4959 8.61872 77.5279 9.07738 77.5919 9.53605C77.6665 9.99472 77.7999 10.4107 77.9919 10.7841C78.1839 11.1467 78.4559 11.4401 78.8079 11.6641C79.1705 11.8881 79.6345 12.0001 80.1999 12.0001C80.7545 12.0001 81.1972 11.8827 81.5279 11.6481C81.8692 11.4134 82.1252 11.1041 82.2959 10.7201C82.4772 10.3361 82.5945 9.92005 82.6479 9.47205C82.7119 9.01338 82.7439 8.56538 82.7439 8.12805ZM84.3919 8.17605C84.3919 8.97605 84.1999 9.69605 83.8159 10.3361C83.4425 10.9761 82.9305 11.4827 82.2799 11.8561C81.6399 12.2294 80.9199 12.4161 80.1199 12.4161C79.3412 12.4161 78.6372 12.2294 78.0079 11.8561C77.3785 11.4721 76.8772 10.9654 76.5039 10.3361C76.1305 9.69605 75.9439 8.98672 75.9439 8.20805C75.9439 7.40805 76.1252 6.67205 76.4879 6.00005C76.8505 5.31738 77.3465 4.76805 77.9759 4.35205C78.6159 3.93605 79.3519 3.72805 80.1839 3.72805C81.0799 3.72805 81.8425 3.92005 82.4719 4.30405C83.1012 4.67738 83.5759 5.20005 83.8959 5.87205C84.2265 6.53338 84.3919 7.30138 84.3919 8.17605ZM99.7058 12.1441C99.7058 12.2934 99.6471 12.3681 99.5298 12.3681C99.2311 12.3681 98.9271 12.3574 98.6178 12.3361C98.3084 12.3147 97.9991 12.3041 97.6898 12.3041C97.3804 12.3041 97.0658 12.3147 96.7458 12.3361C96.4364 12.3574 96.1271 12.3681 95.8178 12.3681C95.7751 12.3681 95.7431 12.3414 95.7218 12.2881C95.7111 12.2347 95.7058 12.1921 95.7058 12.1601C95.7058 12.0641 95.7538 12.0054 95.8498 11.9841C95.9564 11.9627 96.0684 11.9574 96.1858 11.9681C96.3138 11.9787 96.4098 11.9841 96.4738 11.9841C96.6231 11.9841 96.7458 11.9467 96.8418 11.8721C96.9378 11.7974 96.9858 11.6854 96.9858 11.5361C96.9858 10.8214 96.9911 10.1121 97.0018 9.40805C97.0231 8.70405 97.0338 8.00005 97.0338 7.29605C97.0338 7.17872 97.0338 7.06138 97.0338 6.94405C97.0338 6.82672 97.0284 6.70938 97.0178 6.59205C97.0071 6.33605 96.9911 6.07472 96.9698 5.80805C96.9591 5.53072 96.9164 5.27472 96.8418 5.04005C96.7671 4.79472 96.6391 4.59738 96.4578 4.44805C96.2764 4.29872 96.0151 4.22405 95.6738 4.22405C95.4284 4.22405 95.1564 4.29872 94.8578 4.44805C94.5698 4.58672 94.2924 4.75205 94.0258 4.94405C93.7591 5.13605 93.5351 5.31738 93.3538 5.48805C93.3751 5.63738 93.3858 5.79205 93.3858 5.95205C93.3858 6.10138 93.3858 6.25072 93.3858 6.40005C93.3858 6.70938 93.3858 7.02405 93.3858 7.34405C93.3964 7.65338 93.4018 7.96272 93.4018 8.27205C93.4018 8.81605 93.3964 9.36005 93.3858 9.90405C93.3858 10.4481 93.3858 10.9921 93.3858 11.5361C93.3858 11.6961 93.4551 11.8081 93.5938 11.8721C93.7324 11.9361 93.8711 11.9681 94.0098 11.9681C94.0951 11.9681 94.1804 11.9627 94.2658 11.9521C94.3618 11.9414 94.4471 11.9361 94.5218 11.9361C94.5751 11.9361 94.6071 11.9627 94.6178 12.0161C94.6391 12.0694 94.6498 12.1121 94.6498 12.1441C94.6498 12.1974 94.6338 12.2507 94.6018 12.3041C94.5698 12.3467 94.5218 12.3681 94.4578 12.3681C94.1591 12.3681 93.8551 12.3574 93.5458 12.3361C93.2471 12.3147 92.9431 12.3041 92.6338 12.3041C92.3351 12.3041 92.0311 12.3147 91.7218 12.3361C91.4124 12.3574 91.1031 12.3681 90.7938 12.3681C90.7511 12.3681 90.7191 12.3414 90.6978 12.2881C90.6764 12.2347 90.6658 12.1921 90.6658 12.1601C90.6658 12.0747 90.7084 12.0161 90.7938 11.9841C90.8791 11.9627 90.9804 11.9574 91.0978 11.9681C91.2258 11.9787 91.3324 11.9841 91.4178 11.9841C91.5671 11.9841 91.6898 11.9521 91.7858 11.8881C91.8924 11.8134 91.9458 11.6961 91.9458 11.5361V7.45605C91.9458 7.23205 91.9404 6.95472 91.9298 6.62405C91.9298 6.29338 91.9084 5.96805 91.8658 5.64805C91.8338 5.31738 91.7751 5.05605 91.6898 4.86405C91.6151 4.67205 91.4871 4.52272 91.3058 4.41605C91.1351 4.30938 90.9431 4.25605 90.7298 4.25605C90.4524 4.25605 90.1698 4.32538 89.8818 4.46405C89.5938 4.60272 89.3218 4.77338 89.0658 4.97605C88.8098 5.17872 88.5911 5.38138 88.4098 5.58405V11.5201C88.4098 11.6801 88.4684 11.7974 88.5858 11.8721C88.7031 11.9361 88.8311 11.9681 88.9698 11.9681C89.0551 11.9681 89.1404 11.9627 89.2258 11.9521C89.3111 11.9307 89.3911 11.9201 89.4658 11.9201C89.5084 11.9201 89.5351 11.9521 89.5458 12.0161C89.5564 12.0694 89.5618 12.1067 89.5618 12.1281C89.5618 12.1814 89.5458 12.2347 89.5138 12.2881C89.4924 12.3307 89.4498 12.3521 89.3858 12.3521C89.1831 12.3521 88.9804 12.3467 88.7778 12.3361C88.5751 12.3147 88.3724 12.3041 88.1698 12.3041C87.7644 12.3041 87.3591 12.3147 86.9538 12.3361C86.5484 12.3467 86.1431 12.3521 85.7378 12.3521C85.6951 12.3521 85.6631 12.3254 85.6418 12.2721C85.6204 12.2187 85.6098 12.1761 85.6098 12.1441C85.6098 12.0161 85.6631 11.9521 85.7698 11.9521C85.8871 11.9521 85.9991 11.9574 86.1058 11.9681C86.2124 11.9681 86.3191 11.9681 86.4258 11.9681C86.5751 11.9681 86.7031 11.9361 86.8098 11.8721C86.9164 11.7974 86.9698 11.6801 86.9698 11.5201C86.9698 10.4427 86.9644 9.36538 86.9538 8.28805C86.9538 7.20005 86.9538 6.11738 86.9538 5.04005C86.9538 4.92272 86.9431 4.80538 86.9218 4.68805C86.9004 4.57072 86.8311 4.49072 86.7138 4.44805C86.6391 4.41605 86.5591 4.40005 86.4738 4.40005C86.3351 4.40005 86.1964 4.42138 86.0578 4.46405C85.9191 4.49605 85.7751 4.51205 85.6258 4.51205C85.5298 4.51205 85.4818 4.44805 85.4818 4.32005C85.4818 4.23472 85.5138 4.18138 85.5778 4.16005C85.6311 4.13872 85.6898 4.12805 85.7538 4.12805C85.8284 4.11738 85.8978 4.10672 85.9618 4.09605C86.2071 4.06405 86.4524 4.02672 86.6978 3.98405C86.9538 3.93072 87.1991 3.87738 87.4338 3.82405C87.5191 3.80272 87.6098 3.78138 87.7058 3.76005C87.8018 3.73872 87.8978 3.72805 87.9938 3.72805C88.1218 3.72805 88.2071 3.82405 88.2498 4.01605C88.3031 4.19738 88.3298 4.39472 88.3298 4.60805C88.3404 4.82138 88.3458 4.97605 88.3458 5.07205C88.5698 4.88005 88.8204 4.68272 89.0978 4.48005C89.3751 4.26672 89.6684 4.08538 89.9778 3.93605C90.2871 3.78672 90.5964 3.71205 90.9058 3.71205C91.4498 3.71205 91.9084 3.80272 92.2818 3.98405C92.6551 4.16538 92.9751 4.50672 93.2418 5.00805C93.4764 4.80538 93.7431 4.60272 94.0418 4.40005C94.3404 4.18672 94.6498 4.01072 94.9698 3.87205C95.3004 3.72272 95.6258 3.64805 95.9458 3.64805C96.6498 3.64805 97.1831 3.74938 97.5458 3.95205C97.9191 4.15472 98.1698 4.46938 98.2978 4.89605C98.4364 5.31205 98.5058 5.85072 98.5058 6.51205C98.5058 7.34405 98.5004 8.18138 98.4898 9.02405C98.4791 9.85605 98.4738 10.6934 98.4738 11.5361C98.4738 11.6961 98.5431 11.8081 98.6818 11.8721C98.8311 11.9361 98.9751 11.9681 99.1138 11.9681C99.1991 11.9681 99.2791 11.9627 99.3538 11.9521C99.4391 11.9414 99.5191 11.9361 99.5938 11.9361C99.6364 11.9361 99.6631 11.9627 99.6738 12.0161C99.6951 12.0694 99.7058 12.1121 99.7058 12.1441ZM106.377 6.73605C106.366 6.29872 106.329 5.88272 106.265 5.48805C106.201 5.08272 106.046 4.75205 105.801 4.49605C105.555 4.22938 105.155 4.09605 104.601 4.09605C104.099 4.09605 103.689 4.23472 103.369 4.51205C103.059 4.77872 102.819 5.12005 102.649 5.53605C102.478 5.94138 102.35 6.35738 102.265 6.78405C102.531 6.79472 102.793 6.80538 103.049 6.81605C103.305 6.81605 103.561 6.81605 103.817 6.81605C104.243 6.81605 104.67 6.81072 105.097 6.80005C105.523 6.77872 105.95 6.75738 106.377 6.73605ZM108.217 10.4001C108.217 10.4534 108.206 10.4854 108.185 10.4961C108.153 10.6027 108.073 10.7307 107.945 10.8801C107.827 11.0294 107.694 11.1734 107.545 11.3121C107.395 11.4401 107.273 11.5361 107.177 11.6001C106.825 11.8454 106.425 12.0427 105.977 12.1921C105.539 12.3414 105.102 12.4161 104.665 12.4161C104.302 12.4161 103.897 12.3574 103.449 12.2401C103.011 12.1227 102.638 11.9627 102.329 11.7601C101.731 11.3654 101.294 10.8481 101.017 10.2081C100.739 9.56805 100.601 8.90138 100.601 8.20805C100.601 7.41872 100.755 6.68805 101.065 6.01605C101.374 5.34405 101.87 4.80005 102.553 4.38405C102.862 4.20272 103.209 4.05338 103.593 3.93605C103.977 3.80805 104.345 3.74405 104.697 3.74405C105.326 3.74405 105.881 3.87205 106.361 4.12805C106.841 4.38405 107.214 4.74672 107.481 5.21605C107.758 5.67472 107.897 6.22405 107.897 6.86405C107.897 7.04538 107.854 7.16272 107.769 7.21605C107.694 7.26938 107.577 7.29605 107.417 7.29605C107.203 7.29605 106.99 7.29072 106.777 7.28005C106.563 7.26938 106.35 7.25872 106.137 7.24805C105.838 7.22672 105.539 7.21605 105.241 7.21605C104.953 7.21605 104.659 7.21605 104.361 7.21605C103.998 7.21605 103.635 7.21605 103.273 7.21605C102.91 7.21605 102.547 7.22672 102.185 7.24805C102.174 7.41872 102.163 7.58405 102.153 7.74405C102.142 7.90405 102.137 8.06938 102.137 8.24005C102.137 8.63472 102.185 9.04538 102.281 9.47205C102.377 9.88805 102.531 10.2774 102.745 10.6401C102.958 10.9921 103.23 11.2801 103.561 11.5041C103.891 11.7174 104.291 11.8241 104.761 11.8241C105.241 11.8241 105.699 11.7494 106.137 11.6001C106.574 11.4507 106.974 11.2107 107.337 10.8801C107.433 10.7841 107.518 10.6827 107.593 10.5761C107.678 10.4587 107.769 10.3574 107.865 10.2721C107.918 10.2187 107.977 10.1921 108.041 10.1921C108.094 10.1921 108.137 10.2134 108.169 10.2561C108.201 10.2987 108.217 10.3467 108.217 10.4001ZM119.191 6.48005C119.191 6.11738 119.117 5.77605 118.967 5.45605C118.818 5.13605 118.605 4.87472 118.327 4.67205C118.05 4.46938 117.714 4.36805 117.319 4.36805C116.807 4.36805 116.386 4.49072 116.055 4.73605C115.735 4.98138 115.479 5.30138 115.287 5.69605C115.106 6.08005 114.978 6.49605 114.903 6.94405C114.839 7.39205 114.807 7.81872 114.807 8.22405C114.807 8.58672 114.839 8.97605 114.903 9.39205C114.967 9.80805 115.079 10.1974 115.239 10.5601C115.41 10.9227 115.645 11.2214 115.943 11.4561C116.242 11.6801 116.621 11.7921 117.079 11.7921C117.463 11.7921 117.815 11.6747 118.135 11.4401C118.455 11.1947 118.711 10.8907 118.903 10.5281C119.095 10.1654 119.191 9.80805 119.191 9.45605V6.48005ZM122.167 11.7121C122.167 11.7654 122.141 11.8187 122.087 11.8721C122.034 11.9254 121.986 11.9681 121.943 12.0001C121.805 12.1067 121.602 12.1974 121.335 12.2721C121.079 12.3467 120.861 12.3841 120.679 12.3841C120.402 12.3841 120.173 12.3041 119.991 12.1441C119.81 11.9841 119.661 11.7867 119.543 11.5521C119.437 11.3174 119.341 11.0881 119.255 10.8641C119.021 11.2374 118.701 11.5734 118.295 11.8721C117.89 12.1601 117.458 12.3041 116.999 12.3041C116.69 12.3041 116.37 12.2827 116.039 12.2401C115.719 12.1867 115.421 12.0747 115.143 11.9041C114.535 11.5201 114.071 11.0027 113.751 10.3521C113.442 9.69072 113.287 9.01338 113.287 8.32005C113.287 7.48805 113.437 6.74138 113.735 6.08005C114.034 5.40805 114.477 4.88005 115.063 4.49605C115.661 4.10138 116.397 3.90405 117.271 3.90405C117.463 3.90405 117.677 3.94138 117.911 4.01605C118.146 4.09072 118.375 4.18672 118.599 4.30405C118.834 4.41072 119.021 4.52272 119.159 4.64005V1.53605C119.159 1.19472 119.069 1.00272 118.887 0.960051C118.717 0.906717 118.487 0.880051 118.199 0.880051C118.103 0.880051 118.007 0.885384 117.911 0.89605C117.815 0.89605 117.719 0.89605 117.623 0.89605C117.581 0.89605 117.538 0.88005 117.495 0.84805C117.463 0.81605 117.447 0.778717 117.447 0.736051C117.447 0.661384 117.474 0.613384 117.527 0.592051C117.549 0.570717 117.57 0.56005 117.591 0.56005C117.623 0.56005 117.655 0.554717 117.687 0.54405C117.911 0.501383 118.135 0.469384 118.359 0.44805C118.594 0.41605 118.829 0.378717 119.063 0.33605C119.298 0.293383 119.527 0.250717 119.751 0.20805C119.975 0.154716 120.199 0.0960499 120.423 0.0320501C120.434 0.0320501 120.45 0.0267169 120.471 0.0160503C120.503 0.00538381 120.525 5.05447e-05 120.535 5.05447e-05C120.589 5.05447e-05 120.621 0.0213839 120.631 0.0640507C120.642 0.106717 120.647 0.149383 120.647 0.19205C120.647 1.51472 120.642 2.83205 120.631 4.14405C120.621 5.45605 120.615 6.77338 120.615 8.09605V10.4801C120.615 10.6614 120.637 10.8481 120.679 11.0401C120.722 11.2321 120.802 11.3921 120.919 11.5201C121.047 11.6481 121.223 11.7121 121.447 11.7121C121.554 11.7121 121.655 11.6907 121.751 11.6481C121.847 11.6054 121.949 11.5841 122.055 11.5841C122.13 11.5841 122.167 11.6267 122.167 11.7121ZM129.806 8.12805C129.806 7.66938 129.769 7.21072 129.694 6.75205C129.63 6.28272 129.502 5.85072 129.31 5.45605C129.129 5.06138 128.862 4.74672 128.51 4.51205C128.158 4.26672 127.7 4.14405 127.134 4.14405C126.601 4.14405 126.164 4.27205 125.822 4.52805C125.492 4.78405 125.23 5.11472 125.038 5.52005C124.857 5.92538 124.729 6.36272 124.654 6.83205C124.59 7.30138 124.558 7.74405 124.558 8.16005C124.558 8.61872 124.59 9.07738 124.654 9.53605C124.729 9.99472 124.862 10.4107 125.054 10.7841C125.246 11.1467 125.518 11.4401 125.87 11.6641C126.233 11.8881 126.697 12.0001 127.262 12.0001C127.817 12.0001 128.26 11.8827 128.59 11.6481C128.932 11.4134 129.188 11.1041 129.358 10.7201C129.54 10.3361 129.657 9.92005 129.71 9.47205C129.774 9.01338 129.806 8.56538 129.806 8.12805ZM131.454 8.17605C131.454 8.97605 131.262 9.69605 130.878 10.3361C130.505 10.9761 129.993 11.4827 129.342 11.8561C128.702 12.2294 127.982 12.4161 127.182 12.4161C126.404 12.4161 125.7 12.2294 125.07 11.8561C124.441 11.4721 123.94 10.9654 123.566 10.3361C123.193 9.69605 123.006 8.98672 123.006 8.20805C123.006 7.40805 123.188 6.67205 123.55 6.00005C123.913 5.31738 124.409 4.76805 125.038 4.35205C125.678 3.93605 126.414 3.72805 127.246 3.72805C128.142 3.72805 128.905 3.92005 129.534 4.30405C130.164 4.67738 130.638 5.20005 130.958 5.87205C131.289 6.53338 131.454 7.30138 131.454 8.17605ZM143.664 7.77605C143.664 7.41338 143.643 7.03472 143.6 6.64005C143.558 6.23472 143.467 5.85605 143.328 5.50405C143.19 5.15205 142.982 4.86938 142.704 4.65605C142.427 4.43205 142.048 4.32005 141.568 4.32005C141.28 4.32005 140.971 4.39472 140.64 4.54405C140.32 4.68272 140.038 4.87472 139.792 5.12005C139.558 5.36538 139.424 5.64805 139.392 5.96805C139.371 6.29872 139.36 6.63472 139.36 6.97605C139.36 7.31738 139.36 7.65872 139.36 8.00005C139.36 8.29872 139.36 8.60272 139.36 8.91205C139.371 9.21072 139.382 9.51472 139.392 9.82405C139.424 10.3681 139.6 10.8321 139.92 11.2161C140.24 11.5894 140.694 11.7761 141.28 11.7761C141.835 11.7761 142.272 11.6534 142.592 11.4081C142.912 11.1521 143.147 10.8214 143.296 10.4161C143.456 10.0107 143.558 9.57872 143.6 9.12005C143.643 8.65072 143.664 8.20272 143.664 7.77605ZM145.312 7.79205C145.312 8.62405 145.163 9.37605 144.864 10.0481C144.566 10.7201 144.118 11.2534 143.52 11.6481C142.934 12.0321 142.198 12.2241 141.312 12.2241C140.971 12.2241 140.619 12.1387 140.256 11.9681C139.904 11.7867 139.606 11.5787 139.36 11.3441V14.7521C139.36 14.9014 139.419 14.9867 139.536 15.0081C139.664 15.0294 139.782 15.0401 139.888 15.0401C139.984 15.0401 140.08 15.0347 140.176 15.0241C140.272 15.0134 140.368 15.0081 140.464 15.0081C140.603 15.0081 140.672 15.0774 140.672 15.2161C140.672 15.3761 140.592 15.4561 140.432 15.4561C140.102 15.4561 139.771 15.4454 139.44 15.4241C139.11 15.4027 138.779 15.3921 138.448 15.3921C138.171 15.3921 137.894 15.4027 137.616 15.4241C137.35 15.4454 137.078 15.4561 136.8 15.4561C136.726 15.4561 136.678 15.4294 136.656 15.3761C136.646 15.3227 136.64 15.2747 136.64 15.2321C136.64 15.0827 136.715 15.0081 136.864 15.0081C136.95 15.0081 137.035 15.0081 137.12 15.0081C137.206 15.0187 137.291 15.0241 137.376 15.0241C137.451 15.0241 137.558 15.0134 137.696 14.9921C137.846 14.9707 137.92 14.9067 137.92 14.8001C137.92 13.6907 137.92 12.5761 137.92 11.4561C137.931 10.3361 137.936 9.22138 137.936 8.11205C137.936 7.61072 137.931 7.11472 137.92 6.62405C137.92 6.13338 137.915 5.64272 137.904 5.15205C137.894 4.91738 137.851 4.75738 137.776 4.67205C137.702 4.57605 137.542 4.52805 137.296 4.52805C137.19 4.52805 137.083 4.54405 136.976 4.57605C136.87 4.59738 136.763 4.60805 136.656 4.60805C136.539 4.60805 136.48 4.55472 136.48 4.44805C136.48 4.35205 136.528 4.28805 136.624 4.25605C136.646 4.24538 136.742 4.22405 136.912 4.19205C137.083 4.16005 137.286 4.12272 137.52 4.08005C137.766 4.02672 138.006 3.97872 138.24 3.93605C138.475 3.89338 138.672 3.85605 138.832 3.82405C138.992 3.79205 139.078 3.77605 139.088 3.77605C139.174 3.77605 139.232 3.82938 139.264 3.93605C139.286 4.00005 139.296 4.11738 139.296 4.28805C139.307 4.44805 139.312 4.61338 139.312 4.78405C139.312 4.94405 139.312 5.06672 139.312 5.15205C139.611 4.75738 139.99 4.43205 140.448 4.17605C140.918 3.90938 141.403 3.77605 141.904 3.77605C142.64 3.77605 143.259 3.97338 143.76 4.36805C144.272 4.75205 144.656 5.25338 144.912 5.87205C145.179 6.48005 145.312 7.12005 145.312 7.79205ZM152.887 5.23205C152.887 5.33872 152.844 5.44005 152.759 5.53605C152.684 5.62138 152.588 5.66405 152.471 5.66405C152.311 5.66405 152.193 5.61072 152.119 5.50405C152.055 5.39738 151.996 5.27472 151.943 5.13605C151.9 4.99738 151.831 4.87472 151.735 4.76805C151.639 4.66138 151.479 4.60805 151.255 4.60805C151.212 4.60805 151.169 4.60805 151.127 4.60805C151.095 4.60805 151.057 4.61338 151.015 4.62405C150.833 4.65605 150.636 4.76805 150.423 4.96005C150.209 5.15205 150.001 5.38138 149.799 5.64805C149.607 5.90405 149.447 6.16005 149.319 6.41605C149.191 6.67205 149.121 6.88538 149.111 7.05605C149.1 7.22672 149.095 7.39738 149.095 7.56805C149.095 7.72805 149.095 7.88805 149.095 8.04805C149.095 8.62405 149.095 9.20005 149.095 9.77605C149.105 10.3521 149.111 10.9227 149.111 11.4881C149.111 11.6481 149.175 11.7654 149.303 11.8401C149.441 11.9041 149.58 11.9361 149.719 11.9361C149.825 11.9361 149.932 11.9307 150.039 11.9201C150.145 11.9094 150.252 11.9041 150.359 11.9041C150.412 11.9041 150.449 11.9307 150.471 11.9841C150.492 12.0267 150.503 12.0694 150.503 12.1121C150.503 12.2827 150.417 12.3681 150.247 12.3681C149.927 12.3681 149.607 12.3627 149.287 12.3521C148.967 12.3307 148.647 12.3201 148.327 12.3201C147.996 12.3201 147.66 12.3307 147.319 12.3521C146.988 12.3734 146.652 12.3841 146.311 12.3841C146.268 12.3841 146.236 12.3521 146.215 12.2881C146.204 12.2241 146.199 12.1707 146.199 12.1281C146.199 12.0214 146.241 11.9627 146.327 11.9521C146.444 11.9307 146.567 11.9254 146.695 11.9361C146.823 11.9467 146.94 11.9521 147.047 11.9521C147.207 11.9521 147.335 11.9201 147.431 11.8561C147.537 11.7814 147.596 11.6587 147.607 11.4881C147.628 11.1467 147.639 10.8001 147.639 10.4481C147.649 10.0961 147.655 9.74405 147.655 9.39205V7.84005C147.644 7.38138 147.639 6.92805 147.639 6.48005C147.649 6.02138 147.633 5.56805 147.591 5.12005C147.58 4.90672 147.521 4.75738 147.415 4.67205C147.308 4.57605 147.148 4.52805 146.935 4.52805C146.849 4.52805 146.759 4.53872 146.663 4.56005C146.577 4.57072 146.487 4.57605 146.391 4.57605C146.305 4.57605 146.263 4.51205 146.263 4.38405C146.263 4.30938 146.3 4.25605 146.375 4.22405C146.481 4.19205 146.593 4.17072 146.711 4.16005C146.828 4.13872 146.94 4.12272 147.047 4.11205C147.335 4.05872 147.623 4.00538 147.911 3.95205C148.199 3.89872 148.487 3.83472 148.775 3.76005C148.871 3.79205 148.94 3.85072 148.983 3.93605C149.004 3.97872 149.02 4.09605 149.031 4.28805C149.041 4.48005 149.047 4.70405 149.047 4.96005C149.047 5.20538 149.047 5.44005 149.047 5.66405C149.047 5.87738 149.047 6.02672 149.047 6.11205C149.281 5.73872 149.548 5.36538 149.847 4.99205C150.145 4.61872 150.487 4.30938 150.871 4.06405C151.255 3.81872 151.687 3.69605 152.167 3.69605C152.423 3.69605 152.588 3.77605 152.663 3.93605C152.737 4.09605 152.785 4.28272 152.807 4.49605C152.828 4.61338 152.844 4.73605 152.855 4.86405C152.876 4.99205 152.887 5.11472 152.887 5.23205ZM160.572 8.12805C160.572 7.66938 160.535 7.21072 160.46 6.75205C160.396 6.28272 160.268 5.85072 160.076 5.45605C159.895 5.06138 159.628 4.74672 159.276 4.51205C158.924 4.26672 158.465 4.14405 157.9 4.14405C157.367 4.14405 156.929 4.27205 156.588 4.52805C156.257 4.78405 155.996 5.11472 155.804 5.52005C155.623 5.92538 155.495 6.36272 155.42 6.83205C155.356 7.30138 155.324 7.74405 155.324 8.16005C155.324 8.61872 155.356 9.07738 155.42 9.53605C155.495 9.99472 155.628 10.4107 155.82 10.7841C156.012 11.1467 156.284 11.4401 156.636 11.6641C156.999 11.8881 157.463 12.0001 158.028 12.0001C158.583 12.0001 159.025 11.8827 159.356 11.6481C159.697 11.4134 159.953 11.1041 160.124 10.7201C160.305 10.3361 160.423 9.92005 160.476 9.47205C160.54 9.01338 160.572 8.56538 160.572 8.12805ZM162.22 8.17605C162.22 8.97605 162.028 9.69605 161.644 10.3361C161.271 10.9761 160.759 11.4827 160.108 11.8561C159.468 12.2294 158.748 12.4161 157.948 12.4161C157.169 12.4161 156.465 12.2294 155.836 11.8561C155.207 11.4721 154.705 10.9654 154.332 10.3361C153.959 9.69605 153.772 8.98672 153.772 8.20805C153.772 7.40805 153.953 6.67205 154.316 6.00005C154.679 5.31738 155.175 4.76805 155.804 4.35205C156.444 3.93605 157.18 3.72805 158.012 3.72805C158.908 3.72805 159.671 3.92005 160.3 4.30405C160.929 4.67738 161.404 5.20005 161.724 5.87205C162.055 6.53338 162.22 7.30138 162.22 8.17605ZM169.582 6.48005C169.582 6.11738 169.507 5.77605 169.358 5.45605C169.209 5.13605 168.995 4.87472 168.718 4.67205C168.441 4.46938 168.105 4.36805 167.71 4.36805C167.198 4.36805 166.777 4.49072 166.446 4.73605C166.126 4.98138 165.87 5.30138 165.678 5.69605C165.497 6.08005 165.369 6.49605 165.294 6.94405C165.23 7.39205 165.198 7.81872 165.198 8.22405C165.198 8.58672 165.23 8.97605 165.294 9.39205C165.358 9.80805 165.47 10.1974 165.63 10.5601C165.801 10.9227 166.035 11.2214 166.334 11.4561C166.633 11.6801 167.011 11.7921 167.47 11.7921C167.854 11.7921 168.206 11.6747 168.526 11.4401C168.846 11.1947 169.102 10.8907 169.294 10.5281C169.486 10.1654 169.582 9.80805 169.582 9.45605V6.48005ZM172.558 11.7121C172.558 11.7654 172.531 11.8187 172.478 11.8721C172.425 11.9254 172.377 11.9681 172.334 12.0001C172.195 12.1067 171.993 12.1974 171.726 12.2721C171.47 12.3467 171.251 12.3841 171.07 12.3841C170.793 12.3841 170.563 12.3041 170.382 12.1441C170.201 11.9841 170.051 11.7867 169.934 11.5521C169.827 11.3174 169.731 11.0881 169.646 10.8641C169.411 11.2374 169.091 11.5734 168.686 11.8721C168.281 12.1601 167.849 12.3041 167.39 12.3041C167.081 12.3041 166.761 12.2827 166.43 12.2401C166.11 12.1867 165.811 12.0747 165.534 11.9041C164.926 11.5201 164.462 11.0027 164.142 10.3521C163.833 9.69072 163.678 9.01338 163.678 8.32005C163.678 7.48805 163.827 6.74138 164.126 6.08005C164.425 5.40805 164.867 4.88005 165.454 4.49605C166.051 4.10138 166.787 3.90405 167.662 3.90405C167.854 3.90405 168.067 3.94138 168.302 4.01605C168.537 4.09072 168.766 4.18672 168.99 4.30405C169.225 4.41072 169.411 4.52272 169.55 4.64005V1.53605C169.55 1.19472 169.459 1.00272 169.278 0.960051C169.107 0.906717 168.878 0.880051 168.59 0.880051C168.494 0.880051 168.398 0.885384 168.302 0.89605C168.206 0.89605 168.11 0.89605 168.014 0.89605C167.971 0.89605 167.929 0.88005 167.886 0.84805C167.854 0.81605 167.838 0.778717 167.838 0.736051C167.838 0.661384 167.865 0.613384 167.918 0.592051C167.939 0.570717 167.961 0.56005 167.982 0.56005C168.014 0.56005 168.046 0.554717 168.078 0.54405C168.302 0.501383 168.526 0.469384 168.75 0.44805C168.985 0.41605 169.219 0.378717 169.454 0.33605C169.689 0.293383 169.918 0.250717 170.142 0.20805C170.366 0.154716 170.59 0.0960499 170.814 0.0320501C170.825 0.0320501 170.841 0.0267169 170.862 0.0160503C170.894 0.00538381 170.915 5.05447e-05 170.926 5.05447e-05C170.979 5.05447e-05 171.011 0.0213839 171.022 0.0640507C171.033 0.106717 171.038 0.149383 171.038 0.19205C171.038 1.51472 171.033 2.83205 171.022 4.14405C171.011 5.45605 171.006 6.77338 171.006 8.09605V10.4801C171.006 10.6614 171.027 10.8481 171.07 11.0401C171.113 11.2321 171.193 11.3921 171.31 11.5201C171.438 11.6481 171.614 11.7121 171.838 11.7121C171.945 11.7121 172.046 11.6907 172.142 11.6481C172.238 11.6054 172.339 11.5841 172.446 11.5841C172.521 11.5841 172.558 11.6267 172.558 11.7121ZM182.549 11.9201C182.549 12.0481 182.453 12.1441 182.261 12.2081C182.08 12.2721 181.877 12.3147 181.653 12.3361C181.429 12.3574 181.269 12.3681 181.173 12.3681C180.81 12.3681 180.522 12.2241 180.309 11.9361C180.096 11.6481 179.936 11.3494 179.829 11.0401C179.466 11.4987 179.013 11.8401 178.469 12.0641C177.925 12.2881 177.36 12.4001 176.773 12.4001C175.813 12.4001 175.146 12.1547 174.773 11.6641C174.41 11.1627 174.229 10.4587 174.229 9.55205C174.229 8.75205 174.229 7.95205 174.229 7.15205C174.24 6.34138 174.25 5.53605 174.261 4.73605C174.261 4.41605 174.106 4.25605 173.797 4.25605C173.712 4.25605 173.626 4.26138 173.541 4.27205C173.456 4.28272 173.37 4.28805 173.285 4.28805C173.253 4.28805 173.226 4.27205 173.205 4.24005C173.194 4.19738 173.189 4.16538 173.189 4.14405C173.189 4.02672 173.242 3.96272 173.349 3.95205C173.722 3.90938 174.096 3.88272 174.469 3.87205C174.853 3.85072 175.232 3.81872 175.605 3.77605C175.69 3.86138 175.733 3.96805 175.733 4.09605C175.733 4.36272 175.728 4.63472 175.717 4.91205C175.706 5.18938 175.701 5.46672 175.701 5.74405C175.69 6.39472 175.68 7.05072 175.669 7.71205C175.669 8.36272 175.669 9.01872 175.669 9.68005C175.669 9.88272 175.674 10.1014 175.685 10.3361C175.696 10.5601 175.738 10.7681 175.813 10.9601C175.93 11.2587 176.149 11.4721 176.469 11.6001C176.8 11.7174 177.114 11.7761 177.413 11.7761C177.744 11.7761 178.074 11.7174 178.405 11.6001C178.746 11.4721 179.034 11.2907 179.269 11.0561C179.514 10.8107 179.653 10.5067 179.685 10.1441C179.706 9.96272 179.717 9.78138 179.717 9.60005C179.728 9.40805 179.733 9.22138 179.733 9.04005L179.717 4.68805C179.717 4.54938 179.669 4.44805 179.573 4.38405C179.488 4.32005 179.386 4.28805 179.269 4.28805C179.162 4.28805 179.056 4.29338 178.949 4.30405C178.853 4.31472 178.752 4.32005 178.645 4.32005C178.549 4.32005 178.501 4.26672 178.501 4.16005C178.501 4.05338 178.549 3.99472 178.645 3.98405C178.773 3.96272 178.906 3.95205 179.045 3.95205C179.184 3.94138 179.322 3.93072 179.461 3.92005L180.565 3.80805C180.64 3.79738 180.714 3.78672 180.789 3.77605C180.874 3.76538 180.954 3.76005 181.029 3.76005C181.082 3.76005 181.12 3.79205 181.141 3.85605C181.162 3.90938 181.173 3.95205 181.173 3.98405C181.141 6.29872 181.125 8.60805 181.125 10.9121C181.125 11.1787 181.184 11.3974 181.301 11.5681C181.429 11.7387 181.637 11.8241 181.925 11.8241C182.01 11.8241 182.085 11.8134 182.149 11.7921C182.224 11.7707 182.298 11.7601 182.373 11.7601C182.49 11.7601 182.549 11.8134 182.549 11.9201ZM188.532 11.6161C188.532 11.7121 188.457 11.8081 188.308 11.9041C188.169 12.0001 187.999 12.0854 187.796 12.1601C187.593 12.2347 187.396 12.2934 187.204 12.3361C187.023 12.3787 186.889 12.4001 186.804 12.4001C186.249 12.4001 185.817 12.3307 185.508 12.1921C185.209 12.0534 184.996 11.8241 184.868 11.5041C184.751 11.1841 184.692 10.7521 184.692 10.2081C184.692 9.32272 184.692 8.43738 184.692 7.55205C184.703 6.65605 184.713 5.76538 184.724 4.88005H183.572C183.497 4.88005 183.433 4.90138 183.38 4.94405C183.337 4.97605 183.289 4.99205 183.236 4.99205C183.183 4.99205 183.156 4.95472 183.156 4.88005C183.156 4.83738 183.183 4.75205 183.236 4.62405C183.3 4.49605 183.343 4.41072 183.364 4.36805C183.396 4.37872 183.444 4.38405 183.508 4.38405H184.756L184.772 2.35205C185.017 2.19205 185.241 2.01605 185.444 1.82405C185.647 1.62138 185.849 1.41872 186.052 1.21605C186.073 1.19472 186.095 1.17872 186.116 1.16805C186.137 1.14672 186.159 1.13605 186.18 1.13605C186.276 1.13605 186.324 1.17338 186.324 1.24805L186.228 4.36805C186.569 4.36805 186.905 4.36272 187.236 4.35205C187.577 4.34138 187.913 4.33605 188.244 4.33605C188.383 4.33605 188.452 4.41605 188.452 4.57605C188.452 4.77872 188.361 4.88005 188.18 4.88005H186.228C186.228 5.69072 186.223 6.50672 186.212 7.32805C186.212 8.13872 186.212 8.95472 186.212 9.77605V11.0081C186.212 11.2747 186.324 11.4614 186.548 11.5681C186.772 11.6641 186.991 11.7121 187.204 11.7121C187.503 11.7121 187.796 11.6641 188.084 11.5681C188.116 11.5467 188.164 11.5254 188.228 11.5041C188.292 11.4827 188.34 11.4721 188.372 11.4721C188.479 11.4721 188.532 11.5201 188.532 11.6161ZM196.197 8.12805C196.197 7.66938 196.16 7.21072 196.085 6.75205C196.021 6.28272 195.893 5.85072 195.701 5.45605C195.52 5.06138 195.253 4.74672 194.901 4.51205C194.549 4.26672 194.09 4.14405 193.525 4.14405C192.992 4.14405 192.554 4.27205 192.213 4.52805C191.882 4.78405 191.621 5.11472 191.429 5.52005C191.248 5.92538 191.12 6.36272 191.045 6.83205C190.981 7.30138 190.949 7.74405 190.949 8.16005C190.949 8.61872 190.981 9.07738 191.045 9.53605C191.12 9.99472 191.253 10.4107 191.445 10.7841C191.637 11.1467 191.909 11.4401 192.261 11.6641C192.624 11.8881 193.088 12.0001 193.653 12.0001C194.208 12.0001 194.65 11.8827 194.981 11.6481C195.322 11.4134 195.578 11.1041 195.749 10.7201C195.93 10.3361 196.048 9.92005 196.101 9.47205C196.165 9.01338 196.197 8.56538 196.197 8.12805ZM197.845 8.17605C197.845 8.97605 197.653 9.69605 197.269 10.3361C196.896 10.9761 196.384 11.4827 195.733 11.8561C195.093 12.2294 194.373 12.4161 193.573 12.4161C192.794 12.4161 192.09 12.2294 191.461 11.8561C190.832 11.4721 190.33 10.9654 189.957 10.3361C189.584 9.69605 189.397 8.98672 189.397 8.20805C189.397 7.40805 189.578 6.67205 189.941 6.00005C190.304 5.31738 190.8 4.76805 191.429 4.35205C192.069 3.93605 192.805 3.72805 193.637 3.72805C194.533 3.72805 195.296 3.92005 195.925 4.30405C196.554 4.67738 197.029 5.20005 197.349 5.87205C197.68 6.53338 197.845 7.30138 197.845 8.17605ZM202.503 11.1841C202.503 11.4827 202.391 11.7334 202.167 11.9361C201.943 12.1387 201.682 12.2401 201.383 12.2401C201.084 12.2401 200.823 12.1387 200.599 11.9361C200.375 11.7334 200.263 11.4827 200.263 11.1841C200.263 10.8747 200.375 10.6187 200.599 10.4161C200.823 10.2134 201.084 10.1121 201.383 10.1121C201.682 10.1121 201.943 10.2134 202.167 10.4161C202.391 10.6187 202.503 10.8747 202.503 11.1841ZM208.097 11.1841C208.097 11.4827 207.985 11.7334 207.761 11.9361C207.537 12.1387 207.275 12.2401 206.977 12.2401C206.678 12.2401 206.417 12.1387 206.193 11.9361C205.969 11.7334 205.857 11.4827 205.857 11.1841C205.857 10.8747 205.969 10.6187 206.193 10.4161C206.417 10.2134 206.678 10.1121 206.977 10.1121C207.275 10.1121 207.537 10.2134 207.761 10.4161C207.985 10.6187 208.097 10.8747 208.097 11.1841ZM213.69 11.1841C213.69 11.4827 213.578 11.7334 213.354 11.9361C213.13 12.1387 212.869 12.2401 212.57 12.2401C212.272 12.2401 212.01 12.1387 211.786 11.9361C211.562 11.7334 211.45 11.4827 211.45 11.1841C211.45 10.8747 211.562 10.6187 211.786 10.4161C212.01 10.2134 212.272 10.1121 212.57 10.1121C212.869 10.1121 213.13 10.2134 213.354 10.4161C213.578 10.6187 213.69 10.8747 213.69 11.1841Z" fill="#919191"/>
</svg>
