<svg width="94" height="11" viewBox="0 0 94 11" fill="none" xmlns="http://www.w3.org/2000/svg">
<path d="M8.10704 0.451012C8.10704 0.561011 8.08871 0.619678 8.05204 0.627011C8.02271 0.634345 7.96038 0.638011 7.86504 0.638011C7.83571 0.638011 7.80638 0.638011 7.77704 0.638011C7.75504 0.630678 7.72938 0.627011 7.70004 0.627011C7.58271 0.627011 7.47638 0.649011 7.38104 0.693011C7.28571 0.737011 7.21604 0.814012 7.17204 0.924011C7.12071 1.05601 7.07304 1.19168 7.02904 1.33101C6.98504 1.46301 6.94104 1.59868 6.89704 1.73801C6.80171 2.01668 6.70271 2.29901 6.60004 2.58501C6.50471 2.87101 6.40571 3.15334 6.30304 3.43201C6.00971 4.27534 5.70538 5.11868 5.39004 5.96201C5.08204 6.79801 4.77771 7.63768 4.47704 8.48101H4.03704C3.88304 8.48101 3.77671 8.41135 3.71804 8.27201C3.67404 8.16935 3.63004 8.06301 3.58604 7.95301C3.54938 7.84301 3.51271 7.73301 3.47604 7.62301C3.39538 7.39568 3.31104 7.17201 3.22304 6.95201C3.14238 6.72468 3.05804 6.49734 2.97004 6.27001C2.67671 5.49268 2.38338 4.71901 2.09004 3.94901C1.79671 3.17901 1.51071 2.40534 1.23204 1.62801C1.18804 1.51068 1.14038 1.39334 1.08904 1.27601C1.03771 1.15134 0.975375 1.04134 0.902042 0.946011C0.814042 0.821345 0.715042 0.744345 0.605042 0.715011C0.502375 0.685678 0.403375 0.674678 0.308042 0.682011C0.220042 0.682011 0.146709 0.678345 0.088042 0.671011C0.0293753 0.656345 4.19933e-05 0.612345 4.19933e-05 0.539011C4.19933e-05 0.487678 0.00737533 0.451011 0.022042 0.429011C0.0367087 0.399678 0.0697087 0.385011 0.121042 0.385011C0.275042 0.385011 0.429042 0.388678 0.583042 0.396012C0.744375 0.403345 0.905709 0.407012 1.06704 0.407012C1.40438 0.407012 1.73804 0.403345 2.06804 0.396012C2.40538 0.381345 2.73904 0.374011 3.06904 0.374011C3.15704 0.374011 3.20104 0.418011 3.20104 0.506012C3.20104 0.608678 3.15704 0.660012 3.06904 0.660012C2.98104 0.660012 2.89304 0.656345 2.80504 0.649012C2.72438 0.634345 2.63638 0.627011 2.54104 0.627011C2.46038 0.627011 2.36871 0.638011 2.26604 0.660012C2.17071 0.682011 2.12304 0.748011 2.12304 0.858012C2.12304 0.858012 2.13404 0.891012 2.15604 0.957012C2.17804 1.01568 2.20004 1.07801 2.22204 1.14401C2.24404 1.21001 2.25504 1.25034 2.25504 1.26501C2.59971 2.29901 2.95904 3.32934 3.33304 4.35601C3.71438 5.38268 4.09204 6.40934 4.46604 7.43601C4.81071 6.41668 5.16271 5.40101 5.52204 4.38901C5.88138 3.36968 6.22604 2.35034 6.55604 1.33101L6.68804 0.924011C6.68804 0.748011 6.62204 0.652678 6.49004 0.638011C6.36538 0.616011 6.24071 0.605012 6.11604 0.605012C6.05738 0.605012 5.99504 0.612345 5.92904 0.627011C5.87038 0.634345 5.80804 0.638011 5.74204 0.638011C5.71271 0.638011 5.69071 0.627011 5.67604 0.605012C5.66138 0.575678 5.65404 0.546345 5.65404 0.517011C5.65404 0.451011 5.67238 0.410678 5.70904 0.396012C5.72371 0.396012 5.73471 0.396012 5.74204 0.396012C5.74938 0.388678 5.75671 0.385011 5.76404 0.385011C5.77871 0.385011 5.79338 0.388678 5.80804 0.396012C5.82271 0.396012 5.83738 0.396012 5.85204 0.396012C6.02071 0.403345 6.19304 0.407012 6.36904 0.407012C6.54504 0.407012 6.71738 0.407012 6.88604 0.407012C7.07671 0.407012 7.26371 0.399678 7.44704 0.385011C7.63771 0.370345 7.82471 0.363011 8.00804 0.363011C8.07404 0.363011 8.10704 0.392345 8.10704 0.451012ZM12.649 4.57601C12.6417 4.27534 12.616 3.98934 12.572 3.71801C12.528 3.43934 12.4217 3.21201 12.253 3.03601C12.0843 2.85268 11.8093 2.76101 11.428 2.76101C11.0833 2.76101 10.801 2.85634 10.581 3.04701C10.3683 3.23034 10.2033 3.46501 10.086 3.75101C9.96868 4.02968 9.88068 4.31568 9.82201 4.60901C10.0053 4.61634 10.185 4.62368 10.361 4.63101C10.537 4.63101 10.713 4.63101 10.889 4.63101C11.1823 4.63101 11.4757 4.62734 11.769 4.62001C12.0623 4.60534 12.3557 4.59068 12.649 4.57601ZM13.914 7.09501C13.914 7.13168 13.9067 7.15368 13.892 7.16101C13.87 7.23434 13.815 7.32234 13.727 7.42501C13.6463 7.52768 13.5547 7.62668 13.452 7.72201C13.3493 7.81001 13.265 7.87601 13.199 7.92001C12.957 8.08868 12.682 8.22435 12.374 8.32701C12.0733 8.42968 11.7727 8.48101 11.472 8.48101C11.2227 8.48101 10.944 8.44068 10.636 8.36001C10.3353 8.27935 10.0787 8.16935 9.86601 8.03001C9.45534 7.75868 9.15468 7.40301 8.96401 6.96301C8.77334 6.52301 8.67801 6.06468 8.67801 5.58801C8.67801 5.04535 8.78434 4.54301 8.99701 4.08101C9.20968 3.61901 9.55068 3.24501 10.02 2.95901C10.2327 2.83434 10.471 2.73168 10.735 2.65101C10.999 2.56301 11.252 2.51901 11.494 2.51901C11.9267 2.51901 12.308 2.60701 12.638 2.78301C12.968 2.95901 13.2247 3.20834 13.408 3.53101C13.5987 3.84634 13.694 4.22401 13.694 4.66401C13.694 4.78868 13.6647 4.86934 13.606 4.90601C13.5547 4.94268 13.474 4.96101 13.364 4.96101C13.2173 4.96101 13.0707 4.95734 12.924 4.95001C12.7773 4.94268 12.6307 4.93534 12.484 4.92801C12.2787 4.91334 12.0733 4.90601 11.868 4.90601C11.67 4.90601 11.4683 4.90601 11.263 4.90601C11.0137 4.90601 10.7643 4.90601 10.515 4.90601C10.2657 4.90601 10.0163 4.91334 9.76701 4.92801C9.75968 5.04535 9.75234 5.15901 9.74501 5.26901C9.73768 5.37901 9.73401 5.49268 9.73401 5.61001C9.73401 5.88134 9.76701 6.16368 9.83301 6.45701C9.89901 6.74301 10.0053 7.01068 10.152 7.26001C10.2987 7.50201 10.4857 7.70001 10.713 7.85401C10.9403 8.00068 11.2153 8.07401 11.538 8.07401C11.868 8.07401 12.1833 8.02268 12.484 7.92001C12.7847 7.81735 13.0597 7.65234 13.309 7.42501C13.375 7.35901 13.4337 7.28934 13.485 7.21601C13.5437 7.13534 13.606 7.06568 13.672 7.00701C13.7087 6.97034 13.749 6.95201 13.793 6.95201C13.8297 6.95201 13.859 6.96668 13.881 6.99601C13.903 7.02534 13.914 7.05834 13.914 7.09501ZM18.9402 3.54201C18.9402 3.61534 18.9108 3.68501 18.8522 3.75101C18.8008 3.80968 18.7348 3.83901 18.6542 3.83901C18.5442 3.83901 18.4635 3.80234 18.4122 3.72901C18.3682 3.65568 18.3278 3.57134 18.2912 3.47601C18.2618 3.38068 18.2142 3.29634 18.1482 3.22301C18.0822 3.14968 17.9722 3.11301 17.8182 3.11301C17.7888 3.11301 17.7595 3.11301 17.7302 3.11301C17.7082 3.11301 17.6825 3.11668 17.6532 3.12401C17.5285 3.14601 17.3928 3.22301 17.2462 3.35501C17.0995 3.48701 16.9565 3.64468 16.8172 3.82801C16.6852 4.00401 16.5752 4.18001 16.4872 4.35601C16.3992 4.53201 16.3515 4.67868 16.3442 4.79601C16.3368 4.91334 16.3332 5.03068 16.3332 5.14801C16.3332 5.25801 16.3332 5.36801 16.3332 5.47801C16.3332 5.87401 16.3332 6.27001 16.3332 6.66601C16.3405 7.06201 16.3442 7.45434 16.3442 7.84301C16.3442 7.95301 16.3882 8.03368 16.4762 8.08501C16.5715 8.12901 16.6668 8.15101 16.7622 8.15101C16.8355 8.15101 16.9088 8.14735 16.9822 8.14001C17.0555 8.13268 17.1288 8.12901 17.2022 8.12901C17.2388 8.12901 17.2645 8.14735 17.2792 8.18401C17.2938 8.21335 17.3012 8.24268 17.3012 8.27201C17.3012 8.38935 17.2425 8.44801 17.1252 8.44801C16.9052 8.44801 16.6852 8.44435 16.4652 8.43701C16.2452 8.42235 16.0252 8.41501 15.8052 8.41501C15.5778 8.41501 15.3468 8.42235 15.1122 8.43701C14.8848 8.45168 14.6538 8.45901 14.4192 8.45901C14.3898 8.45901 14.3678 8.43701 14.3532 8.39301C14.3458 8.34901 14.3422 8.31235 14.3422 8.28301C14.3422 8.20968 14.3715 8.16935 14.4302 8.16201C14.5108 8.14735 14.5952 8.14368 14.6832 8.15101C14.7712 8.15835 14.8518 8.16201 14.9252 8.16201C15.0352 8.16201 15.1232 8.14001 15.1892 8.09601C15.2625 8.04468 15.3028 7.96035 15.3102 7.84301C15.3248 7.60835 15.3322 7.37001 15.3322 7.12801C15.3395 6.88601 15.3432 6.64401 15.3432 6.40201V5.33501C15.3358 5.01968 15.3322 4.70801 15.3322 4.40001C15.3395 4.08468 15.3285 3.77301 15.2992 3.46501C15.2918 3.31834 15.2515 3.21568 15.1782 3.15701C15.1048 3.09101 14.9948 3.05801 14.8482 3.05801C14.7895 3.05801 14.7272 3.06534 14.6612 3.08001C14.6025 3.08734 14.5402 3.09101 14.4742 3.09101C14.4155 3.09101 14.3862 3.04701 14.3862 2.95901C14.3862 2.90768 14.4118 2.87101 14.4632 2.84901C14.5365 2.82701 14.6135 2.81234 14.6942 2.80501C14.7748 2.79034 14.8518 2.77934 14.9252 2.77201C15.1232 2.73534 15.3212 2.69868 15.5192 2.66201C15.7172 2.62534 15.9152 2.58134 16.1132 2.53001C16.1792 2.55201 16.2268 2.59234 16.2562 2.65101C16.2708 2.68034 16.2818 2.76101 16.2892 2.89301C16.2965 3.02501 16.3002 3.17901 16.3002 3.35501C16.3002 3.52368 16.3002 3.68501 16.3002 3.83901C16.3002 3.98568 16.3002 4.08834 16.3002 4.14701C16.4615 3.89034 16.6448 3.63368 16.8502 3.37701C17.0555 3.12034 17.2902 2.90768 17.5542 2.73901C17.8182 2.57034 18.1152 2.48601 18.4452 2.48601C18.6212 2.48601 18.7348 2.54101 18.7862 2.65101C18.8375 2.76101 18.8705 2.88934 18.8852 3.03601C18.8998 3.11668 18.9108 3.20101 18.9182 3.28901C18.9328 3.37701 18.9402 3.46134 18.9402 3.54201ZM29.6798 5.29101C29.6798 5.04168 29.6652 4.78134 29.6358 4.51001C29.6065 4.23134 29.5442 3.97101 29.4488 3.72901C29.3535 3.48701 29.2105 3.29268 29.0198 3.14601C28.8292 2.99201 28.5688 2.91501 28.2388 2.91501C28.0408 2.91501 27.8282 2.96634 27.6008 3.06901C27.3808 3.16434 27.1865 3.29634 27.0178 3.46501C26.8565 3.63368 26.7648 3.82801 26.7428 4.04801C26.7282 4.27534 26.7208 4.50634 26.7208 4.74101C26.7208 4.97568 26.7208 5.21034 26.7208 5.44501C26.7208 5.65034 26.7208 5.85934 26.7208 6.07201C26.7282 6.27734 26.7355 6.48634 26.7428 6.69901C26.7648 7.07301 26.8858 7.39201 27.1058 7.65601C27.3258 7.91268 27.6375 8.04101 28.0408 8.04101C28.4222 8.04101 28.7228 7.95668 28.9428 7.78801C29.1628 7.61201 29.3242 7.38468 29.4268 7.10601C29.5368 6.82734 29.6065 6.53034 29.6358 6.21501C29.6652 5.89234 29.6798 5.58434 29.6798 5.29101ZM30.8128 5.30201C30.8128 5.87401 30.7102 6.39101 30.5048 6.85301C30.2995 7.31501 29.9915 7.68168 29.5808 7.95301C29.1775 8.21701 28.6715 8.34901 28.0628 8.34901C27.8282 8.34901 27.5862 8.29035 27.3368 8.17301C27.0948 8.04835 26.8895 7.90535 26.7208 7.74401V10.087C26.7208 10.1897 26.7612 10.2483 26.8418 10.263C26.9298 10.2777 27.0105 10.285 27.0838 10.285C27.1498 10.285 27.2158 10.2813 27.2818 10.274C27.3478 10.2667 27.4138 10.263 27.4798 10.263C27.5752 10.263 27.6228 10.3107 27.6228 10.406C27.6228 10.516 27.5678 10.571 27.4578 10.571C27.2305 10.571 27.0032 10.5637 26.7758 10.549C26.5485 10.5343 26.3212 10.527 26.0938 10.527C25.9032 10.527 25.7125 10.5343 25.5218 10.549C25.3385 10.5637 25.1515 10.571 24.9608 10.571C24.9095 10.571 24.8765 10.5527 24.8618 10.516C24.8545 10.4793 24.8508 10.4463 24.8508 10.417C24.8508 10.3143 24.9022 10.263 25.0048 10.263C25.0635 10.263 25.1222 10.263 25.1808 10.263C25.2395 10.2703 25.2982 10.274 25.3568 10.274C25.4082 10.274 25.4815 10.2667 25.5768 10.252C25.6795 10.2373 25.7308 10.1933 25.7308 10.12C25.7308 9.35735 25.7308 8.59101 25.7308 7.82101C25.7382 7.05101 25.7418 6.28468 25.7418 5.52201C25.7418 5.17734 25.7382 4.83634 25.7308 4.49901C25.7308 4.16168 25.7272 3.82434 25.7198 3.48701C25.7125 3.32568 25.6832 3.21568 25.6318 3.15701C25.5805 3.09101 25.4705 3.05801 25.3018 3.05801C25.2285 3.05801 25.1552 3.06901 25.0818 3.09101C25.0085 3.10568 24.9352 3.11301 24.8618 3.11301C24.7812 3.11301 24.7408 3.07634 24.7408 3.00301C24.7408 2.93701 24.7738 2.89301 24.8398 2.87101C24.8545 2.86368 24.9205 2.84901 25.0378 2.82701C25.1552 2.80501 25.2945 2.77934 25.4558 2.75001C25.6245 2.71334 25.7895 2.68034 25.9508 2.65101C26.1122 2.62168 26.2478 2.59601 26.3578 2.57401C26.4678 2.55201 26.5265 2.54101 26.5338 2.54101C26.5925 2.54101 26.6328 2.57768 26.6548 2.65101C26.6695 2.69501 26.6768 2.77568 26.6768 2.89301C26.6842 3.00301 26.6878 3.11668 26.6878 3.23401C26.6878 3.34401 26.6878 3.42834 26.6878 3.48701C26.8932 3.21568 27.1535 2.99201 27.4688 2.81601C27.7915 2.63268 28.1252 2.54101 28.4698 2.54101C28.9758 2.54101 29.4012 2.67668 29.7458 2.94801C30.0978 3.21201 30.3618 3.55668 30.5378 3.98201C30.7212 4.40001 30.8128 4.84001 30.8128 5.30201ZM35.7232 4.57601C35.7159 4.27534 35.6902 3.98934 35.6462 3.71801C35.6022 3.43934 35.4959 3.21201 35.3272 3.03601C35.1586 2.85268 34.8836 2.76101 34.5022 2.76101C34.1576 2.76101 33.8752 2.85634 33.6552 3.04701C33.4426 3.23034 33.2776 3.46501 33.1602 3.75101C33.0429 4.02968 32.9549 4.31568 32.8962 4.60901C33.0796 4.61634 33.2592 4.62368 33.4352 4.63101C33.6112 4.63101 33.7872 4.63101 33.9632 4.63101C34.2566 4.63101 34.5499 4.62734 34.8432 4.62001C35.1366 4.60534 35.4299 4.59068 35.7232 4.57601ZM36.9882 7.09501C36.9882 7.13168 36.9809 7.15368 36.9662 7.16101C36.9442 7.23434 36.8892 7.32234 36.8012 7.42501C36.7206 7.52768 36.6289 7.62668 36.5262 7.72201C36.4236 7.81001 36.3392 7.87601 36.2732 7.92001C36.0312 8.08868 35.7562 8.22435 35.4482 8.32701C35.1476 8.42968 34.8469 8.48101 34.5462 8.48101C34.2969 8.48101 34.0182 8.44068 33.7102 8.36001C33.4096 8.27935 33.1529 8.16935 32.9402 8.03001C32.5296 7.75868 32.2289 7.40301 32.0382 6.96301C31.8476 6.52301 31.7522 6.06468 31.7522 5.58801C31.7522 5.04535 31.8586 4.54301 32.0712 4.08101C32.2839 3.61901 32.6249 3.24501 33.0942 2.95901C33.3069 2.83434 33.5452 2.73168 33.8092 2.65101C34.0732 2.56301 34.3262 2.51901 34.5682 2.51901C35.0009 2.51901 35.3822 2.60701 35.7122 2.78301C36.0422 2.95901 36.2989 3.20834 36.4822 3.53101C36.6729 3.84634 36.7682 4.22401 36.7682 4.66401C36.7682 4.78868 36.7389 4.86934 36.6802 4.90601C36.6289 4.94268 36.5482 4.96101 36.4382 4.96101C36.2916 4.96101 36.1449 4.95734 35.9982 4.95001C35.8516 4.94268 35.7049 4.93534 35.5582 4.92801C35.3529 4.91334 35.1476 4.90601 34.9422 4.90601C34.7442 4.90601 34.5426 4.90601 34.3372 4.90601C34.0879 4.90601 33.8386 4.90601 33.5892 4.90601C33.3399 4.90601 33.0906 4.91334 32.8412 4.92801C32.8339 5.04535 32.8266 5.15901 32.8192 5.26901C32.8119 5.37901 32.8082 5.49268 32.8082 5.61001C32.8082 5.88134 32.8412 6.16368 32.9072 6.45701C32.9732 6.74301 33.0796 7.01068 33.2262 7.26001C33.3729 7.50201 33.5599 7.70001 33.7872 7.85401C34.0146 8.00068 34.2896 8.07401 34.6122 8.07401C34.9422 8.07401 35.2576 8.02268 35.5582 7.92001C35.8589 7.81735 36.1339 7.65234 36.3832 7.42501C36.4492 7.35901 36.5079 7.28934 36.5592 7.21601C36.6179 7.13534 36.6802 7.06568 36.7462 7.00701C36.7829 6.97034 36.8232 6.95201 36.8672 6.95201C36.9039 6.95201 36.9332 6.96668 36.9552 6.99601C36.9772 7.02534 36.9882 7.05834 36.9882 7.09501ZM40.6944 8.29401C40.6944 8.33068 40.6834 8.36735 40.6614 8.40401C40.6467 8.43335 40.6174 8.44801 40.5734 8.44801C40.346 8.44801 40.115 8.44435 39.8804 8.43701C39.6457 8.42235 39.411 8.41501 39.1764 8.41501H38.7914C38.6374 8.41501 38.4834 8.42235 38.3294 8.43701C38.1754 8.44435 38.0214 8.44801 37.8674 8.44801C37.838 8.44801 37.816 8.43701 37.8014 8.41501C37.794 8.38568 37.7904 8.36001 37.7904 8.33801C37.7904 8.31601 37.7904 8.29401 37.7904 8.27201C37.7904 8.25001 37.794 8.22801 37.8014 8.20601C37.816 8.17668 37.8564 8.16201 37.9224 8.16201C37.9957 8.15468 38.069 8.15468 38.1424 8.16201C38.223 8.16201 38.2744 8.16201 38.2964 8.16201C38.399 8.16201 38.4907 8.14001 38.5714 8.09601C38.652 8.04468 38.6924 7.96035 38.6924 7.84301C38.6924 7.27834 38.696 6.71734 38.7034 6.16001C38.7107 5.59534 38.7144 5.03434 38.7144 4.47701C38.7144 3.90501 38.7107 3.33301 38.7034 2.76101C38.7034 2.18168 38.7034 1.60601 38.7034 1.03401C38.7034 0.982678 38.6997 0.927678 38.6924 0.869011C38.685 0.803011 38.663 0.751678 38.6264 0.715011C38.597 0.678345 38.5677 0.660012 38.5384 0.660012C38.509 0.652678 38.4724 0.649012 38.4284 0.649012C38.2964 0.649012 38.1644 0.671012 38.0324 0.715011C37.9077 0.759011 37.783 0.781011 37.6584 0.781011C37.5777 0.781011 37.5374 0.733345 37.5374 0.638011C37.5374 0.579345 37.5814 0.539012 37.6694 0.517011C37.7647 0.495011 37.838 0.480345 37.8894 0.473011C38.146 0.414345 38.4247 0.348345 38.7254 0.275011C39.026 0.201678 39.2974 0.117345 39.5394 0.0220112C39.554 0.0220112 39.5687 0.0183446 39.5834 0.0110114C39.598 0.00367812 39.609 1.15037e-05 39.6164 1.15037e-05C39.6604 1.15037e-05 39.686 0.0146782 39.6934 0.0440116C39.708 0.0733445 39.7154 0.106345 39.7154 0.143012C39.7154 0.348345 39.7117 0.553678 39.7044 0.759012C39.7044 0.957012 39.7044 1.15868 39.7044 1.36401V4.44401C39.7044 5.00868 39.708 5.57701 39.7154 6.14901C39.7227 6.71368 39.7264 7.27834 39.7264 7.84301C39.7264 7.96035 39.774 8.04468 39.8694 8.09601C39.972 8.14001 40.071 8.16201 40.1664 8.16201C40.247 8.16201 40.324 8.15835 40.3974 8.15101C40.4707 8.14368 40.544 8.14001 40.6174 8.14001C40.654 8.14001 40.676 8.16201 40.6834 8.20601C40.6907 8.24268 40.6944 8.27201 40.6944 8.29401ZM45.0141 7.15001C44.9848 6.82001 44.9664 6.49001 44.9591 6.16001C44.9591 5.82268 44.9554 5.48534 44.9481 5.14801H44.7941C44.5668 5.14801 44.3138 5.18468 44.0351 5.25801C43.7638 5.32401 43.5034 5.42668 43.2541 5.56601C43.0048 5.70534 42.7994 5.88134 42.6381 6.09401C42.4841 6.29934 42.4071 6.53768 42.4071 6.80901C42.4071 7.16101 42.5061 7.42868 42.7041 7.61201C42.9021 7.78801 43.1698 7.87601 43.5071 7.87601C43.6684 7.87601 43.8444 7.83935 44.0351 7.76601C44.2258 7.68535 44.4091 7.59001 44.5851 7.48001C44.7611 7.37001 44.9041 7.26001 45.0141 7.15001ZM46.9391 7.85401C46.9391 7.88335 46.9354 7.90535 46.9281 7.92001C46.8548 8.08135 46.7301 8.20601 46.5541 8.29401C46.3854 8.37468 46.2168 8.41501 46.0481 8.41501C45.7401 8.41501 45.5164 8.32701 45.3771 8.15101C45.2451 7.96768 45.1388 7.74401 45.0581 7.48001C44.7794 7.73668 44.4714 7.95301 44.1341 8.12901C43.7968 8.29768 43.4338 8.38201 43.0451 8.38201C42.7738 8.38201 42.5171 8.33068 42.2751 8.22801C42.0404 8.11801 41.8498 7.96035 41.7031 7.75501C41.5564 7.54968 41.4831 7.30034 41.4831 7.00701C41.4831 6.69901 41.5601 6.43501 41.7141 6.21501C41.8754 5.98768 42.0771 5.79701 42.3191 5.64301C42.5684 5.48168 42.8324 5.35334 43.1111 5.25801C43.3971 5.15535 43.6648 5.07835 43.9141 5.02701C44.0828 4.99034 44.2551 4.95734 44.4311 4.92801C44.6071 4.89868 44.7794 4.86934 44.9481 4.84001C44.9481 4.63468 44.9371 4.39634 44.9151 4.12501C44.9004 3.85368 44.8454 3.63001 44.7501 3.45401C44.6548 3.28534 44.5264 3.13501 44.3651 3.00301C44.2038 2.87101 44.0241 2.80501 43.8261 2.80501C43.4888 2.80501 43.2248 2.89301 43.0341 3.06901C42.8434 3.24501 42.7078 3.49434 42.6271 3.81701C42.6198 3.85368 42.6124 3.89401 42.6051 3.93801C42.6051 3.97468 42.6014 4.01134 42.5941 4.04801C42.5868 4.09201 42.5574 4.13234 42.5061 4.16901C42.4621 4.19834 42.4144 4.21301 42.3631 4.21301C42.2238 4.21301 42.0954 4.18001 41.9781 4.11401C41.8681 4.04801 41.8131 3.93801 41.8131 3.78401C41.8131 3.69601 41.8278 3.61901 41.8571 3.55301C41.9524 3.32568 42.1064 3.13868 42.3191 2.99201C42.5318 2.83801 42.7664 2.72068 43.0231 2.64001C43.2871 2.55934 43.5328 2.51901 43.7601 2.51901C44.1561 2.51901 44.5154 2.59234 44.8381 2.73901C45.1608 2.88568 45.4174 3.10201 45.6081 3.38801C45.8061 3.66668 45.9051 4.01868 45.9051 4.44401C45.9051 4.92068 45.9014 5.40101 45.8941 5.88501C45.8941 6.36901 45.9088 6.85301 45.9381 7.33701C45.9454 7.49835 45.9784 7.64135 46.0371 7.76601C46.0958 7.88335 46.2168 7.94201 46.4001 7.94201C46.4954 7.94201 46.5944 7.92001 46.6971 7.87601C46.8071 7.82468 46.8768 7.79901 46.9061 7.79901C46.9281 7.79901 46.9391 7.81735 46.9391 7.85401ZM54.3195 6.86401C54.3195 7.19401 54.2462 7.46534 54.0995 7.67801C53.9528 7.88335 53.7622 8.04101 53.5275 8.15101C53.2928 8.26101 53.0362 8.33801 52.7575 8.38201C52.4788 8.42601 52.2075 8.44801 51.9435 8.44801C51.7015 8.44801 51.4595 8.42235 51.2175 8.37101C50.9828 8.31968 50.7445 8.28301 50.5025 8.26101C50.4512 8.06301 50.3998 7.86501 50.3485 7.66701C50.3045 7.46901 50.2532 7.27468 50.1945 7.08401C50.1872 7.06201 50.1688 7.01068 50.1395 6.93001C50.1175 6.84935 50.1065 6.80535 50.1065 6.79801C50.1065 6.73934 50.1248 6.69901 50.1615 6.67701C50.1982 6.64768 50.2422 6.63301 50.2935 6.63301C50.3448 6.63301 50.3815 6.65134 50.4035 6.68801C50.4475 6.73934 50.4842 6.80901 50.5135 6.89701C50.5502 6.98501 50.5832 7.06201 50.6125 7.12801C50.6712 7.24534 50.7225 7.33701 50.7665 7.40301C50.8105 7.46168 50.8802 7.53868 50.9755 7.63401C51.2615 7.93468 51.6172 8.08501 52.0425 8.08501C52.2772 8.08501 52.4898 8.05935 52.6805 8.00801C52.8785 7.95668 53.0362 7.86135 53.1535 7.72201C53.2708 7.57535 53.3295 7.36635 53.3295 7.09501C53.3295 6.86034 53.2562 6.66601 53.1095 6.51201C52.9628 6.35068 52.7722 6.20768 52.5375 6.08301C52.3102 5.95834 52.0682 5.83734 51.8115 5.72001C51.5548 5.60268 51.3092 5.47434 51.0745 5.33501C50.8472 5.18834 50.6602 5.01234 50.5135 4.80701C50.3668 4.60168 50.2935 4.35234 50.2935 4.05901C50.2935 3.69968 50.3852 3.40634 50.5685 3.17901C50.7592 2.95168 51.0012 2.78301 51.2945 2.67301C51.5878 2.55568 51.8922 2.49701 52.2075 2.49701C52.4128 2.49701 52.5962 2.52268 52.7575 2.57401C52.9262 2.62534 53.1022 2.68401 53.2855 2.75001C53.3442 2.77201 53.4028 2.78668 53.4615 2.79401C53.5202 2.80134 53.5788 2.80501 53.6375 2.80501C53.6742 2.80501 53.7072 2.80501 53.7365 2.80501C53.7658 2.80501 53.7952 2.80134 53.8245 2.79401C53.8465 2.92601 53.8648 3.06168 53.8795 3.20101C53.9015 3.33301 53.9198 3.46868 53.9345 3.60801C53.9418 3.65934 53.9492 3.72168 53.9565 3.79501C53.9712 3.86101 53.9785 3.92334 53.9785 3.98201C53.9785 4.03334 53.9675 4.08834 53.9455 4.14701C53.9235 4.19834 53.8795 4.22401 53.8135 4.22401C53.7622 4.22401 53.7182 4.22034 53.6815 4.21301C53.6522 4.19834 53.6265 4.16534 53.6045 4.11401C53.5678 4.04068 53.5348 3.96368 53.5055 3.88301C53.4835 3.79501 53.4578 3.71434 53.4285 3.64101C53.3332 3.38434 53.1682 3.17901 52.9335 3.02501C52.6988 2.86368 52.4458 2.78301 52.1745 2.78301C51.8298 2.78301 51.5695 2.88568 51.3935 3.09101C51.2175 3.28901 51.1295 3.55668 51.1295 3.89401C51.1295 4.01134 51.1588 4.12501 51.2175 4.23501C51.2835 4.34501 51.3568 4.44034 51.4375 4.52101C51.5915 4.66768 51.7712 4.78134 51.9765 4.86201C52.1892 4.94268 52.3908 5.02334 52.5815 5.10401C52.8308 5.21401 53.0875 5.34601 53.3515 5.50001C53.6228 5.65401 53.8502 5.84101 54.0335 6.06101C54.2242 6.28101 54.3195 6.54868 54.3195 6.86401ZM58.1617 8.27201C58.1617 8.30868 58.1507 8.34535 58.1287 8.38201C58.1067 8.41135 58.0773 8.42601 58.0407 8.42601C57.8353 8.42601 57.63 8.42235 57.4247 8.41501C57.2267 8.40035 57.0213 8.39301 56.8087 8.39301H56.5117C56.2917 8.39301 56.0717 8.40035 55.8517 8.41501C55.639 8.42235 55.4263 8.42601 55.2137 8.42601C55.1843 8.42601 55.1623 8.40768 55.1477 8.37101C55.1403 8.33435 55.1367 8.30501 55.1367 8.28301C55.1367 8.24635 55.1403 8.22068 55.1477 8.20601C55.155 8.18401 55.177 8.16935 55.2137 8.16201C55.2503 8.14735 55.2907 8.14368 55.3347 8.15101C55.386 8.15101 55.4337 8.15101 55.4777 8.15101C55.529 8.15101 55.5767 8.15468 55.6207 8.16201C55.6647 8.16201 55.7123 8.16201 55.7637 8.16201C55.8663 8.16201 55.958 8.14001 56.0387 8.09601C56.1267 8.04468 56.1707 7.96035 56.1707 7.84301V3.44301C56.1707 3.31834 56.1487 3.22301 56.1047 3.15701C56.0607 3.08368 55.969 3.04701 55.8297 3.04701C55.727 3.04701 55.6207 3.05434 55.5107 3.06901C55.408 3.07634 55.3053 3.08734 55.2027 3.10201C55.144 3.10201 55.1147 3.06901 55.1147 3.00301C55.1147 2.92968 55.144 2.88201 55.2027 2.86001C55.2907 2.83068 55.3823 2.81234 55.4777 2.80501C55.5803 2.79034 55.6757 2.77568 55.7637 2.76101C55.969 2.72434 56.1743 2.68401 56.3797 2.64001C56.585 2.59601 56.7867 2.54834 56.9847 2.49701C57.0067 2.48968 57.036 2.48601 57.0727 2.48601C57.1533 2.48601 57.1937 2.53001 57.1937 2.61801C57.1937 3.48334 57.19 4.35234 57.1827 5.22501C57.1827 6.09768 57.1827 6.97034 57.1827 7.84301C57.1827 7.96035 57.234 8.04468 57.3367 8.09601C57.4467 8.14001 57.5493 8.16201 57.6447 8.16201C57.718 8.16201 57.7913 8.15835 57.8647 8.15101C57.9453 8.14368 58.0223 8.14001 58.0957 8.14001C58.125 8.14001 58.1433 8.15835 58.1507 8.19501C58.158 8.23168 58.1617 8.25735 58.1617 8.27201ZM57.2707 0.660012C57.2707 0.843345 57.2047 1.00101 57.0727 1.13301C56.9407 1.25768 56.783 1.32001 56.5997 1.32001C56.4163 1.32001 56.2587 1.25768 56.1267 1.13301C55.9947 1.00101 55.9287 0.843345 55.9287 0.660012C55.9287 0.476678 55.9947 0.322678 56.1267 0.198012C56.2587 0.0660115 56.4163 1.15037e-05 56.5997 1.15037e-05C56.783 1.15037e-05 56.9407 0.0660115 57.0727 0.198012C57.2047 0.322678 57.2707 0.476678 57.2707 0.660012ZM62.4599 7.93101C62.4599 7.99701 62.4086 8.06301 62.3059 8.12901C62.2106 8.19501 62.0933 8.25368 61.9539 8.30501C61.8146 8.35635 61.6789 8.39668 61.5469 8.42601C61.4223 8.45535 61.3306 8.47001 61.2719 8.47001C60.8906 8.47001 60.5936 8.42235 60.3809 8.32701C60.1756 8.23168 60.0289 8.07401 59.9409 7.85401C59.8603 7.63401 59.8199 7.33701 59.8199 6.96301C59.8199 6.35434 59.8199 5.74568 59.8199 5.13701C59.8273 4.52101 59.8346 3.90868 59.8419 3.30001H59.0499C58.9986 3.30001 58.9546 3.31468 58.9179 3.34401C58.8886 3.36601 58.8556 3.37701 58.8189 3.37701C58.7823 3.37701 58.7639 3.35134 58.7639 3.30001C58.7639 3.27068 58.7823 3.21201 58.8189 3.12401C58.8629 3.03601 58.8923 2.97734 58.9069 2.94801C58.9289 2.95534 58.9619 2.95901 59.0059 2.95901H59.8639L59.8749 1.56201C60.0436 1.45201 60.1976 1.33101 60.3369 1.19901C60.4763 1.05968 60.6156 0.920345 60.7549 0.781011C60.7696 0.766345 60.7843 0.755345 60.7989 0.748011C60.8136 0.733345 60.8283 0.726011 60.8429 0.726011C60.9089 0.726011 60.9419 0.751678 60.9419 0.803012L60.8759 2.94801C61.1106 2.94801 61.3416 2.94434 61.5689 2.93701C61.8036 2.92968 62.0346 2.92601 62.2619 2.92601C62.3573 2.92601 62.4049 2.98101 62.4049 3.09101C62.4049 3.23034 62.3426 3.30001 62.2179 3.30001H60.8759C60.8759 3.85734 60.8723 4.41834 60.8649 4.98301C60.8649 5.54034 60.8649 6.10134 60.8649 6.66601V7.51301C60.8649 7.69634 60.9419 7.82468 61.0959 7.89801C61.2499 7.96401 61.4003 7.99701 61.5469 7.99701C61.7523 7.99701 61.9539 7.96401 62.1519 7.89801C62.1739 7.88335 62.2069 7.86868 62.2509 7.85401C62.2949 7.83935 62.3279 7.83201 62.3499 7.83201C62.4233 7.83201 62.4599 7.86501 62.4599 7.93101ZM69.3467 8.14001C69.3467 8.22801 69.2807 8.29401 69.1487 8.33801C69.024 8.38201 68.8847 8.41135 68.7307 8.42601C68.5767 8.44068 68.4667 8.44801 68.4007 8.44801C68.1514 8.44801 67.9534 8.34901 67.8067 8.15101C67.66 7.95301 67.55 7.74768 67.4767 7.53501C67.2274 7.85035 66.9157 8.08501 66.5417 8.23901C66.1677 8.39301 65.779 8.47001 65.3757 8.47001C64.7157 8.47001 64.2574 8.30135 64.0007 7.96401C63.7514 7.61935 63.6267 7.13534 63.6267 6.51201C63.6267 5.96201 63.6267 5.41201 63.6267 4.86201C63.634 4.30468 63.6414 3.75101 63.6487 3.20101C63.6487 2.98101 63.5424 2.87101 63.3297 2.87101C63.271 2.87101 63.2124 2.87468 63.1537 2.88201C63.095 2.88935 63.0364 2.89301 62.9777 2.89301C62.9557 2.89301 62.9374 2.88201 62.9227 2.86001C62.9154 2.83068 62.9117 2.80868 62.9117 2.79401C62.9117 2.71334 62.9484 2.66934 63.0217 2.66201C63.2784 2.63268 63.535 2.61434 63.7917 2.60701C64.0557 2.59234 64.316 2.57034 64.5727 2.54101C64.6314 2.59968 64.6607 2.67301 64.6607 2.76101C64.6607 2.94434 64.657 3.13134 64.6497 3.32201C64.6424 3.51268 64.6387 3.70334 64.6387 3.89401C64.6314 4.34134 64.624 4.79234 64.6167 5.24701C64.6167 5.69434 64.6167 6.14534 64.6167 6.60001C64.6167 6.73934 64.6204 6.88968 64.6277 7.05101C64.635 7.20501 64.6644 7.34801 64.7157 7.48001C64.7964 7.68535 64.9467 7.83201 65.1667 7.92001C65.394 8.00068 65.6104 8.04101 65.8157 8.04101C66.043 8.04101 66.2704 8.00068 66.4977 7.92001C66.7324 7.83201 66.9304 7.70735 67.0917 7.54601C67.2604 7.37735 67.3557 7.16834 67.3777 6.91901C67.3924 6.79435 67.3997 6.66968 67.3997 6.54501C67.407 6.41301 67.4107 6.28468 67.4107 6.16001L67.3997 3.16801C67.3997 3.07268 67.3667 3.00301 67.3007 2.95901C67.242 2.91501 67.1724 2.89301 67.0917 2.89301C67.0184 2.89301 66.945 2.89668 66.8717 2.90401C66.8057 2.91134 66.736 2.91501 66.6627 2.91501C66.5967 2.91501 66.5637 2.87834 66.5637 2.80501C66.5637 2.73168 66.5967 2.69134 66.6627 2.68401C66.7507 2.66934 66.8424 2.66201 66.9377 2.66201C67.033 2.65468 67.1284 2.64734 67.2237 2.64001L67.9827 2.56301C68.034 2.55568 68.0854 2.54834 68.1367 2.54101C68.1954 2.53368 68.2504 2.53001 68.3017 2.53001C68.3384 2.53001 68.364 2.55201 68.3787 2.59601C68.3934 2.63268 68.4007 2.66201 68.4007 2.68401C68.3787 4.27534 68.3677 5.86301 68.3677 7.44701C68.3677 7.63035 68.408 7.78068 68.4887 7.89801C68.5767 8.01535 68.7197 8.07401 68.9177 8.07401C68.9764 8.07401 69.0277 8.06668 69.0717 8.05201C69.123 8.03735 69.1744 8.03001 69.2257 8.03001C69.3064 8.03001 69.3467 8.06668 69.3467 8.14001ZM73.4379 7.15001C73.4086 6.82001 73.3903 6.49001 73.3829 6.16001C73.3829 5.82268 73.3793 5.48534 73.3719 5.14801H73.2179C72.9906 5.14801 72.7376 5.18468 72.4589 5.25801C72.1876 5.32401 71.9273 5.42668 71.6779 5.56601C71.4286 5.70534 71.2233 5.88134 71.0619 6.09401C70.9079 6.29934 70.8309 6.53768 70.8309 6.80901C70.8309 7.16101 70.9299 7.42868 71.1279 7.61201C71.3259 7.78801 71.5936 7.87601 71.9309 7.87601C72.0923 7.87601 72.2683 7.83935 72.4589 7.76601C72.6496 7.68535 72.8329 7.59001 73.0089 7.48001C73.1849 7.37001 73.3279 7.26001 73.4379 7.15001ZM75.3629 7.85401C75.3629 7.88335 75.3593 7.90535 75.3519 7.92001C75.2786 8.08135 75.1539 8.20601 74.9779 8.29401C74.8093 8.37468 74.6406 8.41501 74.4719 8.41501C74.1639 8.41501 73.9403 8.32701 73.8009 8.15101C73.6689 7.96768 73.5626 7.74401 73.4819 7.48001C73.2033 7.73668 72.8953 7.95301 72.5579 8.12901C72.2206 8.29768 71.8576 8.38201 71.4689 8.38201C71.1976 8.38201 70.9409 8.33068 70.6989 8.22801C70.4643 8.11801 70.2736 7.96035 70.1269 7.75501C69.9803 7.54968 69.9069 7.30034 69.9069 7.00701C69.9069 6.69901 69.9839 6.43501 70.1379 6.21501C70.2993 5.98768 70.5009 5.79701 70.7429 5.64301C70.9923 5.48168 71.2563 5.35334 71.5349 5.25801C71.8209 5.15535 72.0886 5.07835 72.3379 5.02701C72.5066 4.99034 72.6789 4.95734 72.8549 4.92801C73.0309 4.89868 73.2033 4.86934 73.3719 4.84001C73.3719 4.63468 73.3609 4.39634 73.3389 4.12501C73.3243 3.85368 73.2693 3.63001 73.1739 3.45401C73.0786 3.28534 72.9503 3.13501 72.7889 3.00301C72.6276 2.87101 72.4479 2.80501 72.2499 2.80501C71.9126 2.80501 71.6486 2.89301 71.4579 3.06901C71.2673 3.24501 71.1316 3.49434 71.0509 3.81701C71.0436 3.85368 71.0363 3.89401 71.0289 3.93801C71.0289 3.97468 71.0253 4.01134 71.0179 4.04801C71.0106 4.09201 70.9813 4.13234 70.9299 4.16901C70.8859 4.19834 70.8383 4.21301 70.7869 4.21301C70.6476 4.21301 70.5193 4.18001 70.4019 4.11401C70.2919 4.04801 70.2369 3.93801 70.2369 3.78401C70.2369 3.69601 70.2516 3.61901 70.2809 3.55301C70.3763 3.32568 70.5303 3.13868 70.7429 2.99201C70.9556 2.83801 71.1903 2.72068 71.4469 2.64001C71.7109 2.55934 71.9566 2.51901 72.1839 2.51901C72.5799 2.51901 72.9393 2.59234 73.2619 2.73901C73.5846 2.88568 73.8413 3.10201 74.0319 3.38801C74.2299 3.66668 74.3289 4.01868 74.3289 4.44401C74.3289 4.92068 74.3253 5.40101 74.3179 5.88501C74.3179 6.36901 74.3326 6.85301 74.3619 7.33701C74.3693 7.49835 74.4023 7.64135 74.4609 7.76601C74.5196 7.88335 74.6406 7.94201 74.8239 7.94201C74.9193 7.94201 75.0183 7.92001 75.1209 7.87601C75.2309 7.82468 75.3006 7.79901 75.3299 7.79901C75.3519 7.79901 75.3629 7.81735 75.3629 7.85401ZM81.1703 7.09501C81.1703 7.12434 81.163 7.15001 81.1483 7.17201C80.987 7.41401 80.7743 7.63035 80.5103 7.82101C80.2463 8.01168 79.9603 8.16568 79.6523 8.28301C79.3517 8.39301 79.0583 8.44801 78.7723 8.44801C78.721 8.44801 78.6733 8.44435 78.6293 8.43701C78.5853 8.43701 78.5413 8.43701 78.4973 8.43701C78.424 8.55435 78.347 8.66435 78.2663 8.76701C78.193 8.86968 78.1197 8.97601 78.0463 9.08601C78.1637 9.07135 78.2773 9.06035 78.3873 9.05301C78.5047 9.04568 78.622 9.04201 78.7393 9.04201C78.8787 9.04201 79.029 9.05301 79.1903 9.07501C79.359 9.10435 79.502 9.15935 79.6193 9.24001C79.744 9.32801 79.8063 9.46001 79.8063 9.63601C79.8063 9.82668 79.7513 9.97701 79.6413 10.087C79.5387 10.197 79.4067 10.2777 79.2453 10.329C79.084 10.3877 78.9153 10.4243 78.7393 10.439C78.5633 10.4537 78.4057 10.461 78.2663 10.461C78.127 10.461 77.973 10.4353 77.8043 10.384C77.643 10.34 77.4963 10.285 77.3643 10.219C77.3203 10.197 77.2433 10.153 77.1333 10.087C77.0307 10.021 76.9793 9.96235 76.9793 9.91101C76.9793 9.85235 77.005 9.82301 77.0563 9.82301C77.0783 9.82301 77.1297 9.83768 77.2103 9.86701C77.291 9.90368 77.346 9.92935 77.3753 9.94401C77.5147 9.98801 77.6577 10.0173 77.8043 10.032C77.9583 10.054 78.105 10.065 78.2443 10.065C78.325 10.065 78.4387 10.0503 78.5853 10.021C78.732 9.99901 78.864 9.95868 78.9813 9.90001C79.106 9.84135 79.1683 9.75701 79.1683 9.64701C79.1683 9.55168 79.1243 9.47835 79.0363 9.42701C78.9557 9.37568 78.864 9.33535 78.7613 9.30601C78.6587 9.28401 78.5707 9.27301 78.4973 9.27301C78.3433 9.27301 78.193 9.29135 78.0463 9.32801C77.907 9.36468 77.764 9.40868 77.6173 9.46001C77.698 9.26935 77.7823 9.08601 77.8703 8.91001C77.9657 8.73401 78.0537 8.55435 78.1343 8.37101C77.6797 8.27568 77.291 8.09601 76.9683 7.83201C76.6457 7.56801 76.4 7.24168 76.2313 6.85301C76.0627 6.46434 75.9783 6.04268 75.9783 5.58801C75.9783 5.04535 76.0883 4.53568 76.3083 4.05901C76.5283 3.58234 76.873 3.19734 77.3423 2.90401C77.5477 2.77934 77.775 2.68034 78.0243 2.60701C78.2737 2.53368 78.5157 2.49701 78.7503 2.49701C79.029 2.49701 79.304 2.55568 79.5753 2.67301C79.7 2.72434 79.832 2.78301 79.9713 2.84901C80.1107 2.90768 80.2463 2.93701 80.3783 2.93701C80.437 2.93701 80.492 2.92968 80.5433 2.91501C80.5947 2.90034 80.646 2.88935 80.6973 2.88201C80.712 3.10934 80.7267 3.34034 80.7413 3.57501C80.756 3.80968 80.767 4.04434 80.7743 4.27901V4.31201C80.7743 4.40001 80.7633 4.46234 80.7413 4.49901C80.7267 4.52834 80.668 4.54301 80.5653 4.54301C80.514 4.54301 80.481 4.51734 80.4663 4.46601C80.4517 4.41468 80.437 4.36701 80.4223 4.32301C80.371 4.11034 80.2903 3.89034 80.1803 3.66301C80.0777 3.42834 79.942 3.23768 79.7733 3.09101C79.6633 2.98834 79.5277 2.90401 79.3663 2.83801C79.205 2.77201 79.051 2.73901 78.9043 2.73901C78.5523 2.73901 78.2553 2.83068 78.0133 3.01401C77.7713 3.19001 77.5733 3.42101 77.4193 3.70701C77.2727 3.98568 77.1663 4.28634 77.1003 4.60901C77.0343 4.93168 77.0013 5.23601 77.0013 5.52201C77.0013 5.80801 77.0343 6.09768 77.1003 6.39101C77.1663 6.68434 77.269 6.95934 77.4083 7.21601C77.555 7.46534 77.7457 7.66701 77.9803 7.82101C78.215 7.97501 78.501 8.05201 78.8383 8.05201C79.2783 8.05201 79.6487 7.97868 79.9493 7.83201C80.2573 7.67801 80.5543 7.43968 80.8403 7.11701C80.8623 7.10234 80.877 7.08034 80.8843 7.05101C80.899 7.02168 80.921 6.99968 80.9503 6.98501C80.965 6.97035 80.9943 6.96301 81.0383 6.96301C81.1263 6.96301 81.1703 7.00701 81.1703 7.09501ZM85.3618 7.15001C85.3324 6.82001 85.3141 6.49001 85.3068 6.16001C85.3068 5.82268 85.3031 5.48534 85.2958 5.14801H85.1418C84.9144 5.14801 84.6614 5.18468 84.3828 5.25801C84.1114 5.32401 83.8511 5.42668 83.6018 5.56601C83.3524 5.70534 83.1471 5.88134 82.9858 6.09401C82.8318 6.29934 82.7548 6.53768 82.7548 6.80901C82.7548 7.16101 82.8538 7.42868 83.0518 7.61201C83.2498 7.78801 83.5174 7.87601 83.8548 7.87601C84.0161 7.87601 84.1921 7.83935 84.3828 7.76601C84.5734 7.68535 84.7568 7.59001 84.9328 7.48001C85.1088 7.37001 85.2518 7.26001 85.3618 7.15001ZM87.2868 7.85401C87.2868 7.88335 87.2831 7.90535 87.2758 7.92001C87.2024 8.08135 87.0778 8.20601 86.9018 8.29401C86.7331 8.37468 86.5644 8.41501 86.3958 8.41501C86.0878 8.41501 85.8641 8.32701 85.7248 8.15101C85.5928 7.96768 85.4864 7.74401 85.4058 7.48001C85.1271 7.73668 84.8191 7.95301 84.4818 8.12901C84.1444 8.29768 83.7814 8.38201 83.3928 8.38201C83.1214 8.38201 82.8648 8.33068 82.6228 8.22801C82.3881 8.11801 82.1974 7.96035 82.0508 7.75501C81.9041 7.54968 81.8308 7.30034 81.8308 7.00701C81.8308 6.69901 81.9078 6.43501 82.0618 6.21501C82.2231 5.98768 82.4248 5.79701 82.6668 5.64301C82.9161 5.48168 83.1801 5.35334 83.4588 5.25801C83.7448 5.15535 84.0124 5.07835 84.2618 5.02701C84.4304 4.99034 84.6028 4.95734 84.7788 4.92801C84.9548 4.89868 85.1271 4.86934 85.2958 4.84001C85.2958 4.63468 85.2848 4.39634 85.2628 4.12501C85.2481 3.85368 85.1931 3.63001 85.0978 3.45401C85.0024 3.28534 84.8741 3.13501 84.7128 3.00301C84.5514 2.87101 84.3718 2.80501 84.1738 2.80501C83.8364 2.80501 83.5724 2.89301 83.3818 3.06901C83.1911 3.24501 83.0554 3.49434 82.9748 3.81701C82.9674 3.85368 82.9601 3.89401 82.9528 3.93801C82.9528 3.97468 82.9491 4.01134 82.9418 4.04801C82.9344 4.09201 82.9051 4.13234 82.8538 4.16901C82.8098 4.19834 82.7621 4.21301 82.7108 4.21301C82.5714 4.21301 82.4431 4.18001 82.3258 4.11401C82.2158 4.04801 82.1608 3.93801 82.1608 3.78401C82.1608 3.69601 82.1754 3.61901 82.2048 3.55301C82.3001 3.32568 82.4541 3.13868 82.6668 2.99201C82.8794 2.83801 83.1141 2.72068 83.3708 2.64001C83.6348 2.55934 83.8804 2.51901 84.1078 2.51901C84.5038 2.51901 84.8631 2.59234 85.1858 2.73901C85.5084 2.88568 85.7651 3.10201 85.9558 3.38801C86.1538 3.66668 86.2528 4.01868 86.2528 4.44401C86.2528 4.92068 86.2491 5.40101 86.2418 5.88501C86.2418 6.36901 86.2564 6.85301 86.2858 7.33701C86.2931 7.49835 86.3261 7.64135 86.3848 7.76601C86.4434 7.88335 86.5644 7.94201 86.7478 7.94201C86.8431 7.94201 86.9421 7.92001 87.0448 7.87601C87.1548 7.82468 87.2244 7.79901 87.2538 7.79901C87.2758 7.79901 87.2868 7.81735 87.2868 7.85401ZM86.0768 0.506012C85.9741 0.608678 85.8751 0.718678 85.7798 0.836011C85.6844 0.953345 85.5781 1.05234 85.4608 1.13301C85.3508 1.20634 85.2114 1.24301 85.0428 1.24301C84.8668 1.24301 84.7018 1.20268 84.5478 1.12201C84.3938 1.04134 84.2434 0.960678 84.0968 0.880011C83.9574 0.799345 83.8034 0.759012 83.6348 0.759012C83.4734 0.759012 83.3341 0.810345 83.2168 0.913012C83.0994 1.01568 82.9931 1.12201 82.8978 1.23201L82.6668 1.08901C82.7621 0.957011 82.8611 0.821345 82.9638 0.682011C83.0738 0.542678 83.1948 0.425345 83.3268 0.330011C83.4661 0.234678 83.6274 0.187011 83.8108 0.187011C83.9868 0.187011 84.1481 0.227345 84.2948 0.308011C84.4488 0.381345 84.5991 0.458345 84.7458 0.539011C84.8998 0.619678 85.0611 0.660012 85.2298 0.660012C85.3544 0.660012 85.4718 0.619678 85.5818 0.539011C85.6918 0.458345 85.7834 0.370345 85.8568 0.275011L86.0768 0.506012ZM92.5442 5.53301C92.5442 5.21768 92.5185 4.90234 92.4672 4.58701C92.4232 4.26434 92.3352 3.96734 92.2032 3.69601C92.0785 3.42468 91.8952 3.20834 91.6532 3.04701C91.4112 2.87834 91.0958 2.79401 90.7072 2.79401C90.3405 2.79401 90.0398 2.88201 89.8052 3.05801C89.5778 3.23401 89.3982 3.46134 89.2662 3.74001C89.1415 4.01868 89.0535 4.31934 89.0022 4.64201C88.9582 4.96468 88.9362 5.26901 88.9362 5.55501C88.9362 5.87034 88.9582 6.18568 89.0022 6.50101C89.0535 6.81634 89.1452 7.10235 89.2772 7.35901C89.4092 7.60835 89.5962 7.81001 89.8382 7.96401C90.0875 8.11801 90.4065 8.19501 90.7952 8.19501C91.1765 8.19501 91.4808 8.11435 91.7082 7.95301C91.9428 7.79168 92.1188 7.57901 92.2362 7.31501C92.3608 7.05101 92.4415 6.76501 92.4782 6.45701C92.5222 6.14168 92.5442 5.83368 92.5442 5.53301ZM93.6772 5.56601C93.6772 6.11601 93.5452 6.61101 93.2812 7.05101C93.0245 7.49101 92.6725 7.83935 92.2252 8.09601C91.7852 8.35268 91.2902 8.48101 90.7402 8.48101C90.2048 8.48101 89.7208 8.35268 89.2882 8.09601C88.8555 7.83201 88.5108 7.48368 88.2542 7.05101C87.9975 6.61101 87.8692 6.12335 87.8692 5.58801C87.8692 5.03801 87.9938 4.53201 88.2432 4.07001C88.4925 3.60068 88.8335 3.22301 89.2662 2.93701C89.7062 2.65101 90.2122 2.50801 90.7842 2.50801C91.4002 2.50801 91.9245 2.64001 92.3572 2.90401C92.7898 3.16068 93.1162 3.52001 93.3362 3.98201C93.5635 4.43668 93.6772 4.96468 93.6772 5.56601Z" fill="black"/>
</svg>
