<svg width="77" height="11" viewBox="0 0 77 11" fill="none" xmlns="http://www.w3.org/2000/svg">
<path d="M8.10704 0.451012C8.10704 0.561011 8.08871 0.619678 8.05204 0.627011C8.02271 0.634345 7.96038 0.638011 7.86504 0.638011C7.83571 0.638011 7.80638 0.638011 7.77704 0.638011C7.75504 0.630678 7.72938 0.627011 7.70004 0.627011C7.58271 0.627011 7.47638 0.649011 7.38104 0.693011C7.28571 0.737011 7.21604 0.814012 7.17204 0.924011C7.12071 1.05601 7.07304 1.19168 7.02904 1.33101C6.98504 1.46301 6.94104 1.59868 6.89704 1.73801C6.80171 2.01668 6.70271 2.29901 6.60004 2.58501C6.50471 2.87101 6.40571 3.15334 6.30304 3.43201C6.00971 4.27534 5.70538 5.11868 5.39004 5.96201C5.08204 6.79801 4.77771 7.63768 4.47704 8.48101H4.03704C3.88304 8.48101 3.77671 8.41135 3.71804 8.27201C3.67404 8.16935 3.63004 8.06301 3.58604 7.95301C3.54938 7.84301 3.51271 7.73301 3.47604 7.62301C3.39538 7.39568 3.31104 7.17201 3.22304 6.95201C3.14238 6.72468 3.05804 6.49734 2.97004 6.27001C2.67671 5.49268 2.38338 4.71901 2.09004 3.94901C1.79671 3.17901 1.51071 2.40534 1.23204 1.62801C1.18804 1.51068 1.14038 1.39334 1.08904 1.27601C1.03771 1.15134 0.975375 1.04134 0.902042 0.946011C0.814042 0.821345 0.715042 0.744345 0.605042 0.715011C0.502375 0.685678 0.403375 0.674678 0.308042 0.682011C0.220042 0.682011 0.146709 0.678345 0.088042 0.671011C0.0293753 0.656345 4.19933e-05 0.612345 4.19933e-05 0.539011C4.19933e-05 0.487678 0.00737533 0.451011 0.022042 0.429011C0.0367087 0.399678 0.0697087 0.385011 0.121042 0.385011C0.275042 0.385011 0.429042 0.388678 0.583042 0.396012C0.744375 0.403345 0.905709 0.407012 1.06704 0.407012C1.40438 0.407012 1.73804 0.403345 2.06804 0.396012C2.40538 0.381345 2.73904 0.374011 3.06904 0.374011C3.15704 0.374011 3.20104 0.418011 3.20104 0.506012C3.20104 0.608678 3.15704 0.660012 3.06904 0.660012C2.98104 0.660012 2.89304 0.656345 2.80504 0.649012C2.72438 0.634345 2.63638 0.627011 2.54104 0.627011C2.46038 0.627011 2.36871 0.638011 2.26604 0.660012C2.17071 0.682011 2.12304 0.748011 2.12304 0.858012C2.12304 0.858012 2.13404 0.891012 2.15604 0.957012C2.17804 1.01568 2.20004 1.07801 2.22204 1.14401C2.24404 1.21001 2.25504 1.25034 2.25504 1.26501C2.59971 2.29901 2.95904 3.32934 3.33304 4.35601C3.71438 5.38268 4.09204 6.40934 4.46604 7.43601C4.81071 6.41668 5.16271 5.40101 5.52204 4.38901C5.88138 3.36968 6.22604 2.35034 6.55604 1.33101L6.68804 0.924011C6.68804 0.748011 6.62204 0.652678 6.49004 0.638011C6.36538 0.616011 6.24071 0.605012 6.11604 0.605012C6.05738 0.605012 5.99504 0.612345 5.92904 0.627011C5.87038 0.634345 5.80804 0.638011 5.74204 0.638011C5.71271 0.638011 5.69071 0.627011 5.67604 0.605012C5.66138 0.575678 5.65404 0.546345 5.65404 0.517011C5.65404 0.451011 5.67238 0.410678 5.70904 0.396012C5.72371 0.396012 5.73471 0.396012 5.74204 0.396012C5.74938 0.388678 5.75671 0.385011 5.76404 0.385011C5.77871 0.385011 5.79338 0.388678 5.80804 0.396012C5.82271 0.396012 5.83738 0.396012 5.85204 0.396012C6.02071 0.403345 6.19304 0.407012 6.36904 0.407012C6.54504 0.407012 6.71738 0.407012 6.88604 0.407012C7.07671 0.407012 7.26371 0.399678 7.44704 0.385011C7.63771 0.370345 7.82471 0.363011 8.00804 0.363011C8.07404 0.363011 8.10704 0.392345 8.10704 0.451012ZM12.649 4.57601C12.6417 4.27534 12.616 3.98934 12.572 3.71801C12.528 3.43934 12.4217 3.21201 12.253 3.03601C12.0843 2.85268 11.8093 2.76101 11.428 2.76101C11.0833 2.76101 10.801 2.85634 10.581 3.04701C10.3683 3.23034 10.2033 3.46501 10.086 3.75101C9.96868 4.02968 9.88068 4.31568 9.82201 4.60901C10.0053 4.61634 10.185 4.62368 10.361 4.63101C10.537 4.63101 10.713 4.63101 10.889 4.63101C11.1823 4.63101 11.4757 4.62734 11.769 4.62001C12.0623 4.60534 12.3557 4.59068 12.649 4.57601ZM13.914 7.09501C13.914 7.13168 13.9067 7.15368 13.892 7.16101C13.87 7.23434 13.815 7.32234 13.727 7.42501C13.6463 7.52768 13.5547 7.62668 13.452 7.72201C13.3493 7.81001 13.265 7.87601 13.199 7.92001C12.957 8.08868 12.682 8.22435 12.374 8.32701C12.0733 8.42968 11.7727 8.48101 11.472 8.48101C11.2227 8.48101 10.944 8.44068 10.636 8.36001C10.3353 8.27935 10.0787 8.16935 9.86601 8.03001C9.45534 7.75868 9.15468 7.40301 8.96401 6.96301C8.77334 6.52301 8.67801 6.06468 8.67801 5.58801C8.67801 5.04535 8.78434 4.54301 8.99701 4.08101C9.20968 3.61901 9.55068 3.24501 10.02 2.95901C10.2327 2.83434 10.471 2.73168 10.735 2.65101C10.999 2.56301 11.252 2.51901 11.494 2.51901C11.9267 2.51901 12.308 2.60701 12.638 2.78301C12.968 2.95901 13.2247 3.20834 13.408 3.53101C13.5987 3.84634 13.694 4.22401 13.694 4.66401C13.694 4.78868 13.6647 4.86934 13.606 4.90601C13.5547 4.94268 13.474 4.96101 13.364 4.96101C13.2173 4.96101 13.0707 4.95734 12.924 4.95001C12.7773 4.94268 12.6307 4.93534 12.484 4.92801C12.2787 4.91334 12.0733 4.90601 11.868 4.90601C11.67 4.90601 11.4683 4.90601 11.263 4.90601C11.0137 4.90601 10.7643 4.90601 10.515 4.90601C10.2657 4.90601 10.0163 4.91334 9.76701 4.92801C9.75968 5.04535 9.75234 5.15901 9.74501 5.26901C9.73768 5.37901 9.73401 5.49268 9.73401 5.61001C9.73401 5.88134 9.76701 6.16368 9.83301 6.45701C9.89901 6.74301 10.0053 7.01068 10.152 7.26001C10.2987 7.50201 10.4857 7.70001 10.713 7.85401C10.9403 8.00068 11.2153 8.07401 11.538 8.07401C11.868 8.07401 12.1833 8.02268 12.484 7.92001C12.7847 7.81735 13.0597 7.65234 13.309 7.42501C13.375 7.35901 13.4337 7.28934 13.485 7.21601C13.5437 7.13534 13.606 7.06568 13.672 7.00701C13.7087 6.97034 13.749 6.95201 13.793 6.95201C13.8297 6.95201 13.859 6.96668 13.881 6.99601C13.903 7.02534 13.914 7.05834 13.914 7.09501ZM18.9402 3.54201C18.9402 3.61534 18.9108 3.68501 18.8522 3.75101C18.8008 3.80968 18.7348 3.83901 18.6542 3.83901C18.5442 3.83901 18.4635 3.80234 18.4122 3.72901C18.3682 3.65568 18.3278 3.57134 18.2912 3.47601C18.2618 3.38068 18.2142 3.29634 18.1482 3.22301C18.0822 3.14968 17.9722 3.11301 17.8182 3.11301C17.7888 3.11301 17.7595 3.11301 17.7302 3.11301C17.7082 3.11301 17.6825 3.11668 17.6532 3.12401C17.5285 3.14601 17.3928 3.22301 17.2462 3.35501C17.0995 3.48701 16.9565 3.64468 16.8172 3.82801C16.6852 4.00401 16.5752 4.18001 16.4872 4.35601C16.3992 4.53201 16.3515 4.67868 16.3442 4.79601C16.3368 4.91334 16.3332 5.03068 16.3332 5.14801C16.3332 5.25801 16.3332 5.36801 16.3332 5.47801C16.3332 5.87401 16.3332 6.27001 16.3332 6.66601C16.3405 7.06201 16.3442 7.45434 16.3442 7.84301C16.3442 7.95301 16.3882 8.03368 16.4762 8.08501C16.5715 8.12901 16.6668 8.15101 16.7622 8.15101C16.8355 8.15101 16.9088 8.14735 16.9822 8.14001C17.0555 8.13268 17.1288 8.12901 17.2022 8.12901C17.2388 8.12901 17.2645 8.14735 17.2792 8.18401C17.2938 8.21335 17.3012 8.24268 17.3012 8.27201C17.3012 8.38935 17.2425 8.44801 17.1252 8.44801C16.9052 8.44801 16.6852 8.44435 16.4652 8.43701C16.2452 8.42235 16.0252 8.41501 15.8052 8.41501C15.5778 8.41501 15.3468 8.42235 15.1122 8.43701C14.8848 8.45168 14.6538 8.45901 14.4192 8.45901C14.3898 8.45901 14.3678 8.43701 14.3532 8.39301C14.3458 8.34901 14.3422 8.31235 14.3422 8.28301C14.3422 8.20968 14.3715 8.16935 14.4302 8.16201C14.5108 8.14735 14.5952 8.14368 14.6832 8.15101C14.7712 8.15835 14.8518 8.16201 14.9252 8.16201C15.0352 8.16201 15.1232 8.14001 15.1892 8.09601C15.2625 8.04468 15.3028 7.96035 15.3102 7.84301C15.3248 7.60835 15.3322 7.37001 15.3322 7.12801C15.3395 6.88601 15.3432 6.64401 15.3432 6.40201V5.33501C15.3358 5.01968 15.3322 4.70801 15.3322 4.40001C15.3395 4.08468 15.3285 3.77301 15.2992 3.46501C15.2918 3.31834 15.2515 3.21568 15.1782 3.15701C15.1048 3.09101 14.9948 3.05801 14.8482 3.05801C14.7895 3.05801 14.7272 3.06534 14.6612 3.08001C14.6025 3.08734 14.5402 3.09101 14.4742 3.09101C14.4155 3.09101 14.3862 3.04701 14.3862 2.95901C14.3862 2.90768 14.4118 2.87101 14.4632 2.84901C14.5365 2.82701 14.6135 2.81234 14.6942 2.80501C14.7748 2.79034 14.8518 2.77934 14.9252 2.77201C15.1232 2.73534 15.3212 2.69868 15.5192 2.66201C15.7172 2.62534 15.9152 2.58134 16.1132 2.53001C16.1792 2.55201 16.2268 2.59234 16.2562 2.65101C16.2708 2.68034 16.2818 2.76101 16.2892 2.89301C16.2965 3.02501 16.3002 3.17901 16.3002 3.35501C16.3002 3.52368 16.3002 3.68501 16.3002 3.83901C16.3002 3.98568 16.3002 4.08834 16.3002 4.14701C16.4615 3.89034 16.6448 3.63368 16.8502 3.37701C17.0555 3.12034 17.2902 2.90768 17.5542 2.73901C17.8182 2.57034 18.1152 2.48601 18.4452 2.48601C18.6212 2.48601 18.7348 2.54101 18.7862 2.65101C18.8375 2.76101 18.8705 2.88934 18.8852 3.03601C18.8998 3.11668 18.9108 3.20101 18.9182 3.28901C18.9328 3.37701 18.9402 3.46134 18.9402 3.54201ZM26.9298 5.29101C26.9298 5.04168 26.9152 4.78134 26.8858 4.51001C26.8565 4.23134 26.7942 3.97101 26.6988 3.72901C26.6035 3.48701 26.4605 3.29268 26.2698 3.14601C26.0792 2.99201 25.8188 2.91501 25.4888 2.91501C25.2908 2.91501 25.0782 2.96634 24.8508 3.06901C24.6308 3.16434 24.4365 3.29634 24.2678 3.46501C24.1065 3.63368 24.0148 3.82801 23.9928 4.04801C23.9782 4.27534 23.9708 4.50634 23.9708 4.74101C23.9708 4.97568 23.9708 5.21034 23.9708 5.44501C23.9708 5.65034 23.9708 5.85934 23.9708 6.07201C23.9782 6.27734 23.9855 6.48634 23.9928 6.69901C24.0148 7.07301 24.1358 7.39201 24.3558 7.65601C24.5758 7.91268 24.8875 8.04101 25.2908 8.04101C25.6722 8.04101 25.9728 7.95668 26.1928 7.78801C26.4128 7.61201 26.5742 7.38468 26.6768 7.10601C26.7868 6.82734 26.8565 6.53034 26.8858 6.21501C26.9152 5.89234 26.9298 5.58434 26.9298 5.29101ZM28.0628 5.30201C28.0628 5.87401 27.9602 6.39101 27.7548 6.85301C27.5495 7.31501 27.2415 7.68168 26.8308 7.95301C26.4275 8.21701 25.9215 8.34901 25.3128 8.34901C25.0782 8.34901 24.8362 8.29035 24.5868 8.17301C24.3448 8.04835 24.1395 7.90535 23.9708 7.74401V10.087C23.9708 10.1897 24.0112 10.2483 24.0918 10.263C24.1798 10.2777 24.2605 10.285 24.3338 10.285C24.3998 10.285 24.4658 10.2813 24.5318 10.274C24.5978 10.2667 24.6638 10.263 24.7298 10.263C24.8252 10.263 24.8728 10.3107 24.8728 10.406C24.8728 10.516 24.8178 10.571 24.7078 10.571C24.4805 10.571 24.2532 10.5637 24.0258 10.549C23.7985 10.5343 23.5712 10.527 23.3438 10.527C23.1532 10.527 22.9625 10.5343 22.7718 10.549C22.5885 10.5637 22.4015 10.571 22.2108 10.571C22.1595 10.571 22.1265 10.5527 22.1118 10.516C22.1045 10.4793 22.1008 10.4463 22.1008 10.417C22.1008 10.3143 22.1522 10.263 22.2548 10.263C22.3135 10.263 22.3722 10.263 22.4308 10.263C22.4895 10.2703 22.5482 10.274 22.6068 10.274C22.6582 10.274 22.7315 10.2667 22.8268 10.252C22.9295 10.2373 22.9808 10.1933 22.9808 10.12C22.9808 9.35735 22.9808 8.59101 22.9808 7.82101C22.9882 7.05101 22.9918 6.28468 22.9918 5.52201C22.9918 5.17734 22.9882 4.83634 22.9808 4.49901C22.9808 4.16168 22.9772 3.82434 22.9698 3.48701C22.9625 3.32568 22.9332 3.21568 22.8818 3.15701C22.8305 3.09101 22.7205 3.05801 22.5518 3.05801C22.4785 3.05801 22.4052 3.06901 22.3318 3.09101C22.2585 3.10568 22.1852 3.11301 22.1118 3.11301C22.0312 3.11301 21.9908 3.07634 21.9908 3.00301C21.9908 2.93701 22.0238 2.89301 22.0898 2.87101C22.1045 2.86368 22.1705 2.84901 22.2878 2.82701C22.4052 2.80501 22.5445 2.77934 22.7058 2.75001C22.8745 2.71334 23.0395 2.68034 23.2008 2.65101C23.3622 2.62168 23.4978 2.59601 23.6078 2.57401C23.7178 2.55201 23.7765 2.54101 23.7838 2.54101C23.8425 2.54101 23.8828 2.57768 23.9048 2.65101C23.9195 2.69501 23.9268 2.77568 23.9268 2.89301C23.9342 3.00301 23.9378 3.11668 23.9378 3.23401C23.9378 3.34401 23.9378 3.42834 23.9378 3.48701C24.1432 3.21568 24.4035 2.99201 24.7188 2.81601C25.0415 2.63268 25.3752 2.54101 25.7198 2.54101C26.2258 2.54101 26.6512 2.67668 26.9958 2.94801C27.3478 3.21201 27.6118 3.55668 27.7878 3.98201C27.9712 4.40001 28.0628 4.84001 28.0628 5.30201ZM32.9732 4.57601C32.9659 4.27534 32.9402 3.98934 32.8962 3.71801C32.8522 3.43934 32.7459 3.21201 32.5772 3.03601C32.4086 2.85268 32.1336 2.76101 31.7522 2.76101C31.4076 2.76101 31.1252 2.85634 30.9052 3.04701C30.6926 3.23034 30.5276 3.46501 30.4102 3.75101C30.2929 4.02968 30.2049 4.31568 30.1462 4.60901C30.3296 4.61634 30.5092 4.62368 30.6852 4.63101C30.8612 4.63101 31.0372 4.63101 31.2132 4.63101C31.5066 4.63101 31.7999 4.62734 32.0932 4.62001C32.3866 4.60534 32.6799 4.59068 32.9732 4.57601ZM34.2382 7.09501C34.2382 7.13168 34.2309 7.15368 34.2162 7.16101C34.1942 7.23434 34.1392 7.32234 34.0512 7.42501C33.9706 7.52768 33.8789 7.62668 33.7762 7.72201C33.6736 7.81001 33.5892 7.87601 33.5232 7.92001C33.2812 8.08868 33.0062 8.22435 32.6982 8.32701C32.3976 8.42968 32.0969 8.48101 31.7962 8.48101C31.5469 8.48101 31.2682 8.44068 30.9602 8.36001C30.6596 8.27935 30.4029 8.16935 30.1902 8.03001C29.7796 7.75868 29.4789 7.40301 29.2882 6.96301C29.0976 6.52301 29.0022 6.06468 29.0022 5.58801C29.0022 5.04535 29.1086 4.54301 29.3212 4.08101C29.5339 3.61901 29.8749 3.24501 30.3442 2.95901C30.5569 2.83434 30.7952 2.73168 31.0592 2.65101C31.3232 2.56301 31.5762 2.51901 31.8182 2.51901C32.2509 2.51901 32.6322 2.60701 32.9622 2.78301C33.2922 2.95901 33.5489 3.20834 33.7322 3.53101C33.9229 3.84634 34.0182 4.22401 34.0182 4.66401C34.0182 4.78868 33.9889 4.86934 33.9302 4.90601C33.8789 4.94268 33.7982 4.96101 33.6882 4.96101C33.5416 4.96101 33.3949 4.95734 33.2482 4.95001C33.1016 4.94268 32.9549 4.93534 32.8082 4.92801C32.6029 4.91334 32.3976 4.90601 32.1922 4.90601C31.9942 4.90601 31.7926 4.90601 31.5872 4.90601C31.3379 4.90601 31.0886 4.90601 30.8392 4.90601C30.5899 4.90601 30.3406 4.91334 30.0912 4.92801C30.0839 5.04535 30.0766 5.15901 30.0692 5.26901C30.0619 5.37901 30.0582 5.49268 30.0582 5.61001C30.0582 5.88134 30.0912 6.16368 30.1572 6.45701C30.2232 6.74301 30.3296 7.01068 30.4762 7.26001C30.6229 7.50201 30.8099 7.70001 31.0372 7.85401C31.2646 8.00068 31.5396 8.07401 31.8622 8.07401C32.1922 8.07401 32.5076 8.02268 32.8082 7.92001C33.1089 7.81735 33.3839 7.65234 33.6332 7.42501C33.6992 7.35901 33.7579 7.28934 33.8092 7.21601C33.8679 7.13534 33.9302 7.06568 33.9962 7.00701C34.0329 6.97034 34.0732 6.95201 34.1172 6.95201C34.1539 6.95201 34.1832 6.96668 34.2052 6.99601C34.2272 7.02534 34.2382 7.05834 34.2382 7.09501ZM37.9444 8.29401C37.9444 8.33068 37.9334 8.36735 37.9114 8.40401C37.8967 8.43335 37.8674 8.44801 37.8234 8.44801C37.596 8.44801 37.365 8.44435 37.1304 8.43701C36.8957 8.42235 36.661 8.41501 36.4264 8.41501H36.0414C35.8874 8.41501 35.7334 8.42235 35.5794 8.43701C35.4254 8.44435 35.2714 8.44801 35.1174 8.44801C35.088 8.44801 35.066 8.43701 35.0514 8.41501C35.044 8.38568 35.0404 8.36001 35.0404 8.33801C35.0404 8.31601 35.0404 8.29401 35.0404 8.27201C35.0404 8.25001 35.044 8.22801 35.0514 8.20601C35.066 8.17668 35.1064 8.16201 35.1724 8.16201C35.2457 8.15468 35.319 8.15468 35.3924 8.16201C35.473 8.16201 35.5244 8.16201 35.5464 8.16201C35.649 8.16201 35.7407 8.14001 35.8214 8.09601C35.902 8.04468 35.9424 7.96035 35.9424 7.84301C35.9424 7.27834 35.946 6.71734 35.9534 6.16001C35.9607 5.59534 35.9644 5.03434 35.9644 4.47701C35.9644 3.90501 35.9607 3.33301 35.9534 2.76101C35.9534 2.18168 35.9534 1.60601 35.9534 1.03401C35.9534 0.982678 35.9497 0.927678 35.9424 0.869011C35.935 0.803011 35.913 0.751678 35.8764 0.715011C35.847 0.678345 35.8177 0.660012 35.7884 0.660012C35.759 0.652678 35.7224 0.649012 35.6784 0.649012C35.5464 0.649012 35.4144 0.671012 35.2824 0.715011C35.1577 0.759011 35.033 0.781011 34.9084 0.781011C34.8277 0.781011 34.7874 0.733345 34.7874 0.638011C34.7874 0.579345 34.8314 0.539012 34.9194 0.517011C35.0147 0.495011 35.088 0.480345 35.1394 0.473011C35.396 0.414345 35.6747 0.348345 35.9754 0.275011C36.276 0.201678 36.5474 0.117345 36.7894 0.0220112C36.804 0.0220112 36.8187 0.0183446 36.8334 0.0110114C36.848 0.00367812 36.859 1.15037e-05 36.8664 1.15037e-05C36.9104 1.15037e-05 36.936 0.0146782 36.9434 0.0440116C36.958 0.0733445 36.9654 0.106345 36.9654 0.143012C36.9654 0.348345 36.9617 0.553678 36.9544 0.759012C36.9544 0.957012 36.9544 1.15868 36.9544 1.36401V4.44401C36.9544 5.00868 36.958 5.57701 36.9654 6.14901C36.9727 6.71368 36.9764 7.27834 36.9764 7.84301C36.9764 7.96035 37.024 8.04468 37.1194 8.09601C37.222 8.14001 37.321 8.16201 37.4164 8.16201C37.497 8.16201 37.574 8.15835 37.6474 8.15101C37.7207 8.14368 37.794 8.14001 37.8674 8.14001C37.904 8.14001 37.926 8.16201 37.9334 8.20601C37.9407 8.24268 37.9444 8.27201 37.9444 8.29401ZM43.4631 5.53301C43.4631 5.21768 43.4374 4.90234 43.3861 4.58701C43.3421 4.26434 43.2541 3.96734 43.1221 3.69601C42.9974 3.42468 42.8141 3.20834 42.5721 3.04701C42.3301 2.87834 42.0148 2.79401 41.6261 2.79401C41.2594 2.79401 40.9588 2.88201 40.7241 3.05801C40.4968 3.23401 40.3171 3.46134 40.1851 3.74001C40.0604 4.01868 39.9724 4.31934 39.9211 4.64201C39.8771 4.96468 39.8551 5.26901 39.8551 5.55501C39.8551 5.87034 39.8771 6.18568 39.9211 6.50101C39.9724 6.81634 40.0641 7.10235 40.1961 7.35901C40.3281 7.60835 40.5151 7.81001 40.7571 7.96401C41.0064 8.11801 41.3254 8.19501 41.7141 8.19501C42.0954 8.19501 42.3998 8.11435 42.6271 7.95301C42.8618 7.79168 43.0378 7.57901 43.1551 7.31501C43.2798 7.05101 43.3604 6.76501 43.3971 6.45701C43.4411 6.14168 43.4631 5.83368 43.4631 5.53301ZM44.5961 5.56601C44.5961 6.11601 44.4641 6.61101 44.2001 7.05101C43.9434 7.49101 43.5914 7.83935 43.1441 8.09601C42.7041 8.35268 42.2091 8.48101 41.6591 8.48101C41.1238 8.48101 40.6398 8.35268 40.2071 8.09601C39.7744 7.83201 39.4298 7.48368 39.1731 7.05101C38.9164 6.61101 38.7881 6.12335 38.7881 5.58801C38.7881 5.03801 38.9128 4.53201 39.1621 4.07001C39.4114 3.60068 39.7524 3.22301 40.1851 2.93701C40.6251 2.65101 41.1311 2.50801 41.7031 2.50801C42.3191 2.50801 42.8434 2.64001 43.2761 2.90401C43.7088 3.16068 44.0351 3.52001 44.2551 3.98201C44.4824 4.43668 44.5961 4.96468 44.5961 5.56601ZM57.8744 8.29401C57.8744 8.39668 57.8341 8.44801 57.7534 8.44801C57.5481 8.44801 57.3391 8.44068 57.1264 8.42601C56.9137 8.41135 56.7011 8.40401 56.4884 8.40401C56.2757 8.40401 56.0594 8.41135 55.8394 8.42601C55.6267 8.44068 55.4141 8.44801 55.2014 8.44801C55.1721 8.44801 55.1501 8.42968 55.1354 8.39301C55.1281 8.35635 55.1244 8.32701 55.1244 8.30501C55.1244 8.23901 55.1574 8.19868 55.2234 8.18401C55.2967 8.16935 55.3737 8.16568 55.4544 8.17301C55.5424 8.18035 55.6084 8.18401 55.6524 8.18401C55.7551 8.18401 55.8394 8.15835 55.9054 8.10701C55.9714 8.05568 56.0044 7.97868 56.0044 7.87601C56.0044 7.38468 56.0081 6.89701 56.0154 6.41301C56.0301 5.92901 56.0374 5.44501 56.0374 4.96101C56.0374 4.88034 56.0374 4.79968 56.0374 4.71901C56.0374 4.63834 56.0337 4.55768 56.0264 4.47701C56.0191 4.30101 56.0081 4.12134 55.9934 3.93801C55.9861 3.74734 55.9567 3.57134 55.9054 3.41001C55.8541 3.24134 55.7661 3.10568 55.6414 3.00301C55.5167 2.90034 55.3371 2.84901 55.1024 2.84901C54.9337 2.84901 54.7467 2.90034 54.5414 3.00301C54.3434 3.09834 54.1527 3.21201 53.9694 3.34401C53.7861 3.47601 53.6321 3.60068 53.5074 3.71801C53.5221 3.82068 53.5294 3.92701 53.5294 4.03701C53.5294 4.13968 53.5294 4.24234 53.5294 4.34501C53.5294 4.55768 53.5294 4.77401 53.5294 4.99401C53.5367 5.20668 53.5404 5.41934 53.5404 5.63201C53.5404 6.00601 53.5367 6.38001 53.5294 6.75401C53.5294 7.12801 53.5294 7.50201 53.5294 7.87601C53.5294 7.98601 53.5771 8.06301 53.6724 8.10701C53.7677 8.15101 53.8631 8.17301 53.9584 8.17301C54.0171 8.17301 54.0757 8.16935 54.1344 8.16201C54.2004 8.15468 54.2591 8.15101 54.3104 8.15101C54.3471 8.15101 54.3691 8.16935 54.3764 8.20601C54.3911 8.24268 54.3984 8.27201 54.3984 8.29401C54.3984 8.33068 54.3874 8.36735 54.3654 8.40401C54.3434 8.43335 54.3104 8.44801 54.2664 8.44801C54.0611 8.44801 53.8521 8.44068 53.6394 8.42601C53.4341 8.41135 53.2251 8.40401 53.0124 8.40401C52.8071 8.40401 52.5981 8.41135 52.3854 8.42601C52.1727 8.44068 51.9601 8.44801 51.7474 8.44801C51.7181 8.44801 51.6961 8.42968 51.6814 8.39301C51.6667 8.35635 51.6594 8.32701 51.6594 8.30501C51.6594 8.24635 51.6887 8.20601 51.7474 8.18401C51.8061 8.16935 51.8757 8.16568 51.9564 8.17301C52.0444 8.18035 52.1177 8.18401 52.1764 8.18401C52.2791 8.18401 52.3634 8.16201 52.4294 8.11801C52.5027 8.06668 52.5394 7.98601 52.5394 7.87601V5.07101C52.5394 4.91701 52.5357 4.72634 52.5284 4.49901C52.5284 4.27168 52.5137 4.04801 52.4844 3.82801C52.4624 3.60068 52.4221 3.42101 52.3634 3.28901C52.3121 3.15701 52.2241 3.05434 52.0994 2.98101C51.9821 2.90768 51.8501 2.87101 51.7034 2.87101C51.5127 2.87101 51.3184 2.91868 51.1204 3.01401C50.9224 3.10934 50.7354 3.22668 50.5594 3.36601C50.3834 3.50534 50.2331 3.64468 50.1084 3.78401V7.86501C50.1084 7.97501 50.1487 8.05568 50.2294 8.10701C50.3101 8.15101 50.3981 8.17301 50.4934 8.17301C50.5521 8.17301 50.6107 8.16935 50.6694 8.16201C50.7281 8.14735 50.7831 8.14001 50.8344 8.14001C50.8637 8.14001 50.8821 8.16201 50.8894 8.20601C50.8967 8.24268 50.9004 8.26835 50.9004 8.28301C50.9004 8.31968 50.8894 8.35635 50.8674 8.39301C50.8527 8.42235 50.8234 8.43701 50.7794 8.43701C50.6401 8.43701 50.5007 8.43335 50.3614 8.42601C50.2221 8.41135 50.0827 8.40401 49.9434 8.40401C49.6647 8.40401 49.3861 8.41135 49.1074 8.42601C48.8287 8.43335 48.5501 8.43701 48.2714 8.43701C48.2421 8.43701 48.2201 8.41868 48.2054 8.38201C48.1907 8.34535 48.1834 8.31601 48.1834 8.29401C48.1834 8.20601 48.2201 8.16201 48.2934 8.16201C48.3741 8.16201 48.4511 8.16568 48.5244 8.17301C48.5977 8.17301 48.6711 8.17301 48.7444 8.17301C48.8471 8.17301 48.9351 8.15101 49.0084 8.10701C49.0817 8.05568 49.1184 7.97501 49.1184 7.86501C49.1184 7.12434 49.1147 6.38368 49.1074 5.64301C49.1074 4.89501 49.1074 4.15068 49.1074 3.41001C49.1074 3.32934 49.1001 3.24868 49.0854 3.16801C49.0707 3.08734 49.0231 3.03234 48.9424 3.00301C48.8911 2.98101 48.8361 2.97001 48.7774 2.97001C48.6821 2.97001 48.5867 2.98468 48.4914 3.01401C48.3961 3.03601 48.2971 3.04701 48.1944 3.04701C48.1284 3.04701 48.0954 3.00301 48.0954 2.91501C48.0954 2.85634 48.1174 2.81968 48.1614 2.80501C48.1981 2.79034 48.2384 2.78301 48.2824 2.78301C48.3337 2.77568 48.3814 2.76834 48.4254 2.76101C48.5941 2.73901 48.7627 2.71334 48.9314 2.68401C49.1074 2.64735 49.2761 2.61068 49.4374 2.57401C49.4961 2.55934 49.5584 2.54468 49.6244 2.53001C49.6904 2.51534 49.7564 2.50801 49.8224 2.50801C49.9104 2.50801 49.9691 2.57401 49.9984 2.70601C50.0351 2.83068 50.0534 2.96634 50.0534 3.11301C50.0607 3.25968 50.0644 3.36601 50.0644 3.43201C50.2184 3.30001 50.3907 3.16434 50.5814 3.02501C50.7721 2.87834 50.9737 2.75368 51.1864 2.65101C51.3991 2.54834 51.6117 2.49701 51.8244 2.49701C52.1984 2.49701 52.5137 2.55934 52.7704 2.68401C53.0271 2.80868 53.2471 3.04334 53.4304 3.38801C53.5917 3.24868 53.7751 3.10934 53.9804 2.97001C54.1857 2.82334 54.3984 2.70234 54.6184 2.60701C54.8457 2.50434 55.0694 2.45301 55.2894 2.45301C55.7734 2.45301 56.1401 2.52268 56.3894 2.66201C56.6461 2.80134 56.8184 3.01768 56.9064 3.31101C57.0017 3.59701 57.0494 3.96734 57.0494 4.42201C57.0494 4.99401 57.0457 5.56968 57.0384 6.14901C57.0311 6.72101 57.0274 7.29668 57.0274 7.87601C57.0274 7.98601 57.0751 8.06301 57.1704 8.10701C57.2731 8.15101 57.3721 8.17301 57.4674 8.17301C57.5261 8.17301 57.5811 8.16935 57.6324 8.16201C57.6911 8.15468 57.7461 8.15101 57.7974 8.15101C57.8267 8.15101 57.8451 8.16935 57.8524 8.20601C57.8671 8.24268 57.8744 8.27201 57.8744 8.29401ZM61.9545 7.15001C61.9252 6.82001 61.9069 6.49001 61.8995 6.16001C61.8995 5.82268 61.8959 5.48534 61.8885 5.14801H61.7345C61.5072 5.14801 61.2542 5.18468 60.9755 5.25801C60.7042 5.32401 60.4439 5.42668 60.1945 5.56601C59.9452 5.70534 59.7399 5.88134 59.5785 6.09401C59.4245 6.29934 59.3475 6.53768 59.3475 6.80901C59.3475 7.16101 59.4465 7.42868 59.6445 7.61201C59.8425 7.78801 60.1102 7.87601 60.4475 7.87601C60.6089 7.87601 60.7849 7.83935 60.9755 7.76601C61.1662 7.68535 61.3495 7.59001 61.5255 7.48001C61.7015 7.37001 61.8445 7.26001 61.9545 7.15001ZM63.8795 7.85401C63.8795 7.88335 63.8759 7.90535 63.8685 7.92001C63.7952 8.08135 63.6705 8.20601 63.4945 8.29401C63.3259 8.37468 63.1572 8.41501 62.9885 8.41501C62.6805 8.41501 62.4569 8.32701 62.3175 8.15101C62.1855 7.96768 62.0792 7.74401 61.9985 7.48001C61.7199 7.73668 61.4119 7.95301 61.0745 8.12901C60.7372 8.29768 60.3742 8.38201 59.9855 8.38201C59.7142 8.38201 59.4575 8.33068 59.2155 8.22801C58.9809 8.11801 58.7902 7.96035 58.6435 7.75501C58.4969 7.54968 58.4235 7.30034 58.4235 7.00701C58.4235 6.69901 58.5005 6.43501 58.6545 6.21501C58.8159 5.98768 59.0175 5.79701 59.2595 5.64301C59.5089 5.48168 59.7729 5.35334 60.0515 5.25801C60.3375 5.15535 60.6052 5.07835 60.8545 5.02701C61.0232 4.99034 61.1955 4.95734 61.3715 4.92801C61.5475 4.89868 61.7199 4.86934 61.8885 4.84001C61.8885 4.63468 61.8775 4.39634 61.8555 4.12501C61.8409 3.85368 61.7859 3.63001 61.6905 3.45401C61.5952 3.28534 61.4669 3.13501 61.3055 3.00301C61.1442 2.87101 60.9645 2.80501 60.7665 2.80501C60.4292 2.80501 60.1652 2.89301 59.9745 3.06901C59.7839 3.24501 59.6482 3.49434 59.5675 3.81701C59.5602 3.85368 59.5529 3.89401 59.5455 3.93801C59.5455 3.97468 59.5419 4.01134 59.5345 4.04801C59.5272 4.09201 59.4979 4.13234 59.4465 4.16901C59.4025 4.19834 59.3549 4.21301 59.3035 4.21301C59.1642 4.21301 59.0359 4.18001 58.9185 4.11401C58.8085 4.04801 58.7535 3.93801 58.7535 3.78401C58.7535 3.69601 58.7682 3.61901 58.7975 3.55301C58.8929 3.32568 59.0469 3.13868 59.2595 2.99201C59.4722 2.83801 59.7069 2.72068 59.9635 2.64001C60.2275 2.55934 60.4732 2.51901 60.7005 2.51901C61.0965 2.51901 61.4559 2.59234 61.7785 2.73901C62.1012 2.88568 62.3579 3.10201 62.5485 3.38801C62.7465 3.66668 62.8455 4.01868 62.8455 4.44401C62.8455 4.92068 62.8419 5.40101 62.8345 5.88501C62.8345 6.36901 62.8492 6.85301 62.8785 7.33701C62.8859 7.49835 62.9189 7.64135 62.9775 7.76601C63.0362 7.88335 63.1572 7.94201 63.3405 7.94201C63.4359 7.94201 63.5349 7.92001 63.6375 7.87601C63.7475 7.82468 63.8172 7.79901 63.8465 7.79901C63.8685 7.79901 63.8795 7.81735 63.8795 7.85401ZM69.0929 5.29101C69.0929 5.04168 69.0783 4.78134 69.0489 4.51001C69.0196 4.23134 68.9573 3.97101 68.8619 3.72901C68.7666 3.48701 68.6236 3.29268 68.4329 3.14601C68.2423 2.99201 67.9819 2.91501 67.6519 2.91501C67.4539 2.91501 67.2413 2.96634 67.0139 3.06901C66.7939 3.16434 66.5996 3.29634 66.4309 3.46501C66.2696 3.63368 66.1779 3.82801 66.1559 4.04801C66.1413 4.27534 66.1339 4.50634 66.1339 4.74101C66.1339 4.97568 66.1339 5.21034 66.1339 5.44501C66.1339 5.65034 66.1339 5.85934 66.1339 6.07201C66.1413 6.27734 66.1486 6.48634 66.1559 6.69901C66.1779 7.07301 66.2989 7.39201 66.5189 7.65601C66.7389 7.91268 67.0506 8.04101 67.4539 8.04101C67.8353 8.04101 68.1359 7.95668 68.3559 7.78801C68.5759 7.61201 68.7373 7.38468 68.8399 7.10601C68.9499 6.82734 69.0196 6.53034 69.0489 6.21501C69.0783 5.89234 69.0929 5.58434 69.0929 5.29101ZM70.2259 5.30201C70.2259 5.87401 70.1233 6.39101 69.9179 6.85301C69.7126 7.31501 69.4046 7.68168 68.9939 7.95301C68.5906 8.21701 68.0846 8.34901 67.4759 8.34901C67.2413 8.34901 66.9993 8.29035 66.7499 8.17301C66.5079 8.04835 66.3026 7.90535 66.1339 7.74401V10.087C66.1339 10.1897 66.1743 10.2483 66.2549 10.263C66.3429 10.2777 66.4236 10.285 66.4969 10.285C66.5629 10.285 66.6289 10.2813 66.6949 10.274C66.7609 10.2667 66.8269 10.263 66.8929 10.263C66.9883 10.263 67.0359 10.3107 67.0359 10.406C67.0359 10.516 66.9809 10.571 66.8709 10.571C66.6436 10.571 66.4163 10.5637 66.1889 10.549C65.9616 10.5343 65.7343 10.527 65.5069 10.527C65.3163 10.527 65.1256 10.5343 64.9349 10.549C64.7516 10.5637 64.5646 10.571 64.3739 10.571C64.3226 10.571 64.2896 10.5527 64.2749 10.516C64.2676 10.4793 64.2639 10.4463 64.2639 10.417C64.2639 10.3143 64.3153 10.263 64.4179 10.263C64.4766 10.263 64.5353 10.263 64.5939 10.263C64.6526 10.2703 64.7113 10.274 64.7699 10.274C64.8213 10.274 64.8946 10.2667 64.9899 10.252C65.0926 10.2373 65.1439 10.1933 65.1439 10.12C65.1439 9.35735 65.1439 8.59101 65.1439 7.82101C65.1513 7.05101 65.1549 6.28468 65.1549 5.52201C65.1549 5.17734 65.1513 4.83634 65.1439 4.49901C65.1439 4.16168 65.1403 3.82434 65.1329 3.48701C65.1256 3.32568 65.0963 3.21568 65.0449 3.15701C64.9936 3.09101 64.8836 3.05801 64.7149 3.05801C64.6416 3.05801 64.5683 3.06901 64.4949 3.09101C64.4216 3.10568 64.3483 3.11301 64.2749 3.11301C64.1943 3.11301 64.1539 3.07634 64.1539 3.00301C64.1539 2.93701 64.1869 2.89301 64.2529 2.87101C64.2676 2.86368 64.3336 2.84901 64.4509 2.82701C64.5683 2.80501 64.7076 2.77934 64.8689 2.75001C65.0376 2.71334 65.2026 2.68034 65.3639 2.65101C65.5253 2.62168 65.6609 2.59601 65.7709 2.57401C65.8809 2.55201 65.9396 2.54101 65.9469 2.54101C66.0056 2.54101 66.0459 2.57768 66.0679 2.65101C66.0826 2.69501 66.0899 2.77568 66.0899 2.89301C66.0973 3.00301 66.1009 3.11668 66.1009 3.23401C66.1009 3.34401 66.1009 3.42834 66.1009 3.48701C66.3063 3.21568 66.5666 2.99201 66.8819 2.81601C67.2046 2.63268 67.5383 2.54101 67.8829 2.54101C68.3889 2.54101 68.8143 2.67668 69.1589 2.94801C69.5109 3.21201 69.7749 3.55668 69.9509 3.98201C70.1343 4.40001 70.2259 4.84001 70.2259 5.30201ZM74.6303 7.15001C74.601 6.82001 74.5826 6.49001 74.5753 6.16001C74.5753 5.82268 74.5716 5.48534 74.5643 5.14801H74.4103C74.183 5.14801 73.93 5.18468 73.6513 5.25801C73.38 5.32401 73.1196 5.42668 72.8703 5.56601C72.621 5.70534 72.4156 5.88134 72.2543 6.09401C72.1003 6.29934 72.0233 6.53768 72.0233 6.80901C72.0233 7.16101 72.1223 7.42868 72.3203 7.61201C72.5183 7.78801 72.786 7.87601 73.1233 7.87601C73.2846 7.87601 73.4606 7.83935 73.6513 7.76601C73.842 7.68535 74.0253 7.59001 74.2013 7.48001C74.3773 7.37001 74.5203 7.26001 74.6303 7.15001ZM76.5553 7.85401C76.5553 7.88335 76.5516 7.90535 76.5443 7.92001C76.471 8.08135 76.3463 8.20601 76.1703 8.29401C76.0016 8.37468 75.833 8.41501 75.6643 8.41501C75.3563 8.41501 75.1326 8.32701 74.9933 8.15101C74.8613 7.96768 74.755 7.74401 74.6743 7.48001C74.3956 7.73668 74.0876 7.95301 73.7503 8.12901C73.413 8.29768 73.05 8.38201 72.6613 8.38201C72.39 8.38201 72.1333 8.33068 71.8913 8.22801C71.6566 8.11801 71.466 7.96035 71.3193 7.75501C71.1726 7.54968 71.0993 7.30034 71.0993 7.00701C71.0993 6.69901 71.1763 6.43501 71.3303 6.21501C71.4916 5.98768 71.6933 5.79701 71.9353 5.64301C72.1846 5.48168 72.4486 5.35334 72.7273 5.25801C73.0133 5.15535 73.281 5.07835 73.5303 5.02701C73.699 4.99034 73.8713 4.95734 74.0473 4.92801C74.2233 4.89868 74.3956 4.86934 74.5643 4.84001C74.5643 4.63468 74.5533 4.39634 74.5313 4.12501C74.5166 3.85368 74.4616 3.63001 74.3663 3.45401C74.271 3.28534 74.1426 3.13501 73.9813 3.00301C73.82 2.87101 73.6403 2.80501 73.4423 2.80501C73.105 2.80501 72.841 2.89301 72.6503 3.06901C72.4596 3.24501 72.324 3.49434 72.2433 3.81701C72.236 3.85368 72.2286 3.89401 72.2213 3.93801C72.2213 3.97468 72.2176 4.01134 72.2103 4.04801C72.203 4.09201 72.1736 4.13234 72.1223 4.16901C72.0783 4.19834 72.0306 4.21301 71.9793 4.21301C71.84 4.21301 71.7116 4.18001 71.5943 4.11401C71.4843 4.04801 71.4293 3.93801 71.4293 3.78401C71.4293 3.69601 71.444 3.61901 71.4733 3.55301C71.5686 3.32568 71.7226 3.13868 71.9353 2.99201C72.148 2.83801 72.3826 2.72068 72.6393 2.64001C72.9033 2.55934 73.149 2.51901 73.3763 2.51901C73.7723 2.51901 74.1316 2.59234 74.4543 2.73901C74.777 2.88568 75.0336 3.10201 75.2243 3.38801C75.4223 3.66668 75.5213 4.01868 75.5213 4.44401C75.5213 4.92068 75.5176 5.40101 75.5103 5.88501C75.5103 6.36901 75.525 6.85301 75.5543 7.33701C75.5616 7.49835 75.5946 7.64135 75.6533 7.76601C75.712 7.88335 75.833 7.94201 76.0163 7.94201C76.1116 7.94201 76.2106 7.92001 76.3133 7.87601C76.4233 7.82468 76.493 7.79901 76.5223 7.79901C76.5443 7.79901 76.5553 7.81735 76.5553 7.85401Z" fill="black"/>
</svg>
