<svg width="8" height="12" viewBox="0 0 8 12" fill="none" xmlns="http://www.w3.org/2000/svg">
<path d="M6.14408 5.91991C6.14408 5.61058 6.13342 5.23191 6.11208 4.78391C6.10142 4.32525 6.06408 3.84525 6.00008 3.34391C5.93608 2.84258 5.82408 2.37325 5.66408 1.93591C5.50408 1.49858 5.28542 1.14658 5.00808 0.879913C4.73075 0.60258 4.36808 0.463914 3.92008 0.463914C3.51475 0.463914 3.17342 0.607914 2.89608 0.895913C2.61875 1.17325 2.39475 1.54125 2.22408 1.99991C2.05342 2.44791 1.92008 2.92791 1.82408 3.43991C1.73875 3.94125 1.68008 4.42658 1.64808 4.89591C1.61608 5.35458 1.60008 5.72791 1.60008 6.01591C1.60008 6.30391 1.61075 6.66658 1.63208 7.10391C1.66408 7.53058 1.71742 7.98391 1.79208 8.46391C1.86675 8.93325 1.98408 9.37591 2.14408 9.79191C2.31475 10.2079 2.53342 10.5492 2.80008 10.8159C3.06675 11.0719 3.40275 11.1999 3.80808 11.1999C4.23475 11.1999 4.58675 11.0719 4.86408 10.8159C5.14142 10.5492 5.36542 10.2079 5.53608 9.79191C5.70675 9.36525 5.83475 8.91191 5.92008 8.43191C6.01608 7.94125 6.07475 7.47725 6.09608 7.03991C6.12808 6.59191 6.14408 6.21858 6.14408 5.91991ZM7.80808 5.71191C7.80808 6.20258 7.76008 6.71991 7.66408 7.26391C7.57875 7.80791 7.44008 8.34125 7.24808 8.86391C7.05608 9.38658 6.80008 9.86125 6.48008 10.2879C6.17075 10.7146 5.79208 11.0559 5.34408 11.3119C4.89608 11.5572 4.37342 11.6799 3.77608 11.6799C3.06142 11.6799 2.45875 11.5039 1.96808 11.1519C1.48808 10.7892 1.10408 10.3252 0.816082 9.75991C0.528082 9.19458 0.320082 8.59191 0.192082 7.95191C0.0640821 7.30125 8.20756e-05 6.68791 8.20756e-05 6.11191C8.20756e-05 5.62125 0.0427487 5.09858 0.128082 4.54391C0.213415 3.97858 0.352082 3.42925 0.544082 2.89591C0.736082 2.36258 0.986749 1.87725 1.29608 1.43991C1.61608 1.00258 2.00008 0.655914 2.44808 0.399914C2.90675 0.133247 3.44008 -8.67844e-05 4.04808 -8.67844e-05C4.62408 -8.67844e-05 5.12008 0.12258 5.53608 0.367913C5.96275 0.613247 6.32008 0.93858 6.60808 1.34391C6.90675 1.74925 7.14142 2.20258 7.31208 2.70391C7.48275 3.20525 7.60542 3.71725 7.68008 4.23991C7.76542 4.75191 7.80808 5.24258 7.80808 5.71191Z" fill="#1C2434"/>
</svg>
