<svg width="33" height="14" viewBox="0 0 33 14" fill="none" xmlns="http://www.w3.org/2000/svg">
<path d="M8.65805 3.25809C8.65805 2.29809 8.35805 1.60209 7.75805 1.17009C7.17005 0.726091 6.43205 0.504091 5.54405 0.504091C5.30405 0.504091 5.05805 0.510091 4.80605 0.522091C4.55405 0.522091 4.30205 0.522091 4.05005 0.522091C3.93005 0.522091 3.81005 0.558091 3.69005 0.630092C3.57005 0.702091 3.51005 0.804091 3.51005 0.936091V6.04809C3.77405 6.24009 4.09805 6.35409 4.48205 6.39009C4.86605 6.42609 5.20805 6.44409 5.50805 6.44409C6.54005 6.44409 7.32005 6.16809 7.84805 5.61609C8.38805 5.06409 8.65805 4.27809 8.65805 3.25809ZM10.638 3.20409C10.638 3.98409 10.488 4.62009 10.188 5.11209C9.90005 5.60409 9.51005 5.98809 9.01805 6.26409C8.52605 6.54009 7.96805 6.73209 7.34405 6.84009C6.73205 6.93609 6.10205 6.98409 5.45405 6.98409C5.13005 6.98409 4.80605 6.96609 4.48205 6.93009C4.15805 6.89409 3.84005 6.85209 3.52805 6.80409V12.1861C3.52805 12.3661 3.60605 12.4861 3.76205 12.5461C3.91805 12.6061 4.09205 12.6361 4.28405 12.6361C4.47605 12.6361 4.63205 12.6361 4.75205 12.6361C4.82405 12.6361 4.89605 12.6361 4.96805 12.6361C5.05205 12.6241 5.13005 12.6181 5.20205 12.6181C5.31005 12.6181 5.36405 12.6661 5.36405 12.7621C5.36405 12.9181 5.35205 13.0261 5.32805 13.0861C5.30405 13.1341 5.20805 13.1581 5.04005 13.1581C4.63205 13.1581 4.23005 13.1461 3.83405 13.1221C3.43805 13.0981 3.04205 13.0861 2.64605 13.0861C2.23805 13.0861 1.82405 13.1041 1.40405 13.1401C0.996049 13.1641 0.588049 13.1761 0.180049 13.1761C0.0600488 13.1761 4.88348e-05 13.0981 4.88348e-05 12.9421C4.88348e-05 12.8701 0.0120488 12.8041 0.0360488 12.7441C0.0600488 12.6841 0.120049 12.6541 0.216049 12.6541C0.360049 12.6541 0.504049 12.6601 0.648049 12.6721C0.792049 12.6721 0.936049 12.6721 1.08005 12.6721C1.22405 12.6721 1.35005 12.6361 1.45805 12.5641C1.57805 12.4921 1.64405 12.3781 1.65605 12.2221C1.68005 12.0061 1.68605 11.7901 1.67405 11.5741C1.67405 11.3461 1.67405 11.1241 1.67405 10.9081C1.67405 10.4761 1.67405 10.0441 1.67405 9.61209C1.67405 9.16809 1.67405 8.73009 1.67405 8.29809V5.14809C1.67405 4.44009 1.66805 3.73809 1.65605 3.04209C1.65605 2.33409 1.65605 1.63209 1.65605 0.936091C1.65605 0.720091 1.54805 0.594091 1.33205 0.558091C1.12805 0.510091 0.948049 0.486091 0.792049 0.486091C0.684049 0.486091 0.576049 0.492091 0.468049 0.504091C0.360049 0.504091 0.258049 0.504091 0.162049 0.504091C0.0780488 0.504091 0.0300488 0.468091 0.0180488 0.396091C0.0180488 0.312091 0.0180488 0.246091 0.0180488 0.198091C0.0180488 0.150091 0.0300488 0.108091 0.0540488 0.0720912C0.0780488 0.0240911 0.114049 9.10759e-05 0.162049 9.10759e-05C0.558049 9.10759e-05 0.954049 0.0120913 1.35005 0.0360917C1.74605 0.0600914 2.14805 0.0720912 2.55605 0.0720912C3.18005 0.0720912 3.80405 0.0600914 4.42805 0.0360917C5.05205 0.0120913 5.67605 9.10759e-05 6.30005 9.10759e-05C6.80405 9.10759e-05 7.30805 0.0540911 7.81205 0.162091C8.32805 0.270091 8.79605 0.450091 9.21605 0.702092C9.64805 0.954091 9.99005 1.28409 10.242 1.69209C10.506 2.10009 10.638 2.60409 10.638 3.20409ZM17.1365 12.8701C17.1365 12.9181 17.1305 12.9841 17.1185 13.0681C17.1065 13.1401 17.0645 13.1761 16.9925 13.1761C16.8485 13.1761 16.7045 13.1701 16.5605 13.1581C16.4285 13.1461 16.2905 13.1401 16.1465 13.1401C15.5585 13.1041 14.9585 13.0861 14.3465 13.0861C14.0825 13.0861 13.8185 13.0921 13.5545 13.1041C13.2905 13.1161 13.0265 13.1281 12.7625 13.1401C12.6425 13.1521 12.5165 13.1641 12.3845 13.1761C12.2645 13.1881 12.1385 13.1941 12.0065 13.1941C11.9105 13.1941 11.8625 13.1341 11.8625 13.0141C11.8625 12.9301 11.8685 12.8521 11.8805 12.7801C11.8925 12.7081 11.9525 12.6721 12.0605 12.6721C12.1805 12.6721 12.2945 12.6781 12.4025 12.6901C12.5105 12.6901 12.6245 12.6901 12.7445 12.6901C12.8885 12.6901 13.0565 12.6541 13.2485 12.5821C13.4525 12.5101 13.5545 12.3901 13.5545 12.2221V1.04409C13.5545 0.840091 13.4765 0.708091 13.3205 0.648091C13.1645 0.576092 12.9785 0.540092 12.7625 0.540092C12.5585 0.540092 12.3665 0.546092 12.1865 0.558091C12.0185 0.558091 11.9225 0.528091 11.8985 0.468091C11.8865 0.444091 11.8805 0.390091 11.8805 0.306091C11.8805 0.258091 11.8865 0.204091 11.8985 0.144091C11.9105 0.0720916 11.9465 0.0360917 12.0065 0.0360917C12.4025 0.0360917 12.7985 0.0480915 13.1945 0.0720912C13.6025 0.0960909 14.0045 0.108091 14.4005 0.108091H15.2105C15.4025 0.108091 15.5945 0.108091 15.7865 0.108091C15.9905 0.108091 16.1885 0.102091 16.3805 0.090091C16.4765 0.0780911 16.5665 0.0720912 16.6505 0.0720912C16.7465 0.0600914 16.8365 0.0540915 16.9205 0.0540915C17.0525 0.0540915 17.1185 0.120091 17.1185 0.252091C17.1185 0.324091 17.1125 0.390091 17.1005 0.450092C17.0885 0.510092 17.0345 0.540092 16.9385 0.540092C16.7945 0.540092 16.6505 0.540092 16.5065 0.540092C16.3745 0.528091 16.2365 0.522091 16.0925 0.522091C15.9485 0.522091 15.7925 0.570091 15.6245 0.666091C15.4685 0.750091 15.3905 0.876092 15.3905 1.04409V12.2221C15.3905 12.3781 15.4625 12.4921 15.6065 12.5641C15.7505 12.6361 15.8945 12.6721 16.0385 12.6721C16.1945 12.6721 16.3445 12.6721 16.4885 12.6721C16.6445 12.6601 16.8005 12.6541 16.9565 12.6541C17.0765 12.6541 17.1365 12.7261 17.1365 12.8701ZM32.042 12.9421C32.042 13.0381 32.006 13.1101 31.934 13.1581C31.874 13.2061 31.796 13.2301 31.7 13.2301C31.52 13.2301 31.334 13.2241 31.142 13.2121C30.962 13.2121 30.782 13.2061 30.602 13.1941C30.266 13.1821 29.924 13.1821 29.576 13.1941C29.24 13.1941 28.898 13.1941 28.55 13.1941C28.358 13.1941 28.214 13.0981 28.118 12.9061C27.638 11.9341 27.122 11.0281 26.57 10.1881C26.03 9.34809 25.472 8.47209 24.896 7.56009C24.824 7.68009 24.674 7.90809 24.446 8.24409C24.23 8.58009 23.978 8.96409 23.69 9.39609C23.402 9.82809 23.12 10.2541 22.844 10.6741C22.58 11.0941 22.358 11.4541 22.178 11.7541C22.01 12.0421 21.926 12.2101 21.926 12.2581C21.926 12.4381 22.004 12.5581 22.16 12.6181C22.328 12.6781 22.514 12.7141 22.718 12.7261C22.934 12.7261 23.12 12.7321 23.276 12.7441C23.444 12.7441 23.528 12.7921 23.528 12.8881C23.528 13.0801 23.438 13.1761 23.258 13.1761C23.162 13.1761 23.066 13.1821 22.97 13.1941C22.874 13.1941 22.778 13.1941 22.682 13.1941C22.442 13.1941 22.202 13.1881 21.962 13.1761C21.734 13.1521 21.5 13.1401 21.26 13.1401C20.84 13.1401 20.414 13.1521 19.982 13.1761C19.562 13.2001 19.142 13.2121 18.722 13.2121C18.566 13.2121 18.488 13.1281 18.488 12.9601C18.488 12.8041 18.548 12.7201 18.668 12.7081C18.728 12.6961 18.788 12.6961 18.848 12.7081C18.92 12.7081 18.986 12.7081 19.046 12.7081C19.346 12.7081 19.61 12.6841 19.838 12.6361C20.066 12.5881 20.294 12.4681 20.522 12.2761C20.726 12.0961 20.924 11.9041 21.116 11.7001C21.32 11.4961 21.5 11.2861 21.656 11.0701C22.16 10.4341 22.658 9.79209 23.15 9.14409C23.654 8.48409 24.128 7.81809 24.572 7.14609C23.912 6.15009 23.264 5.15409 22.628 4.15809C22.004 3.16209 21.356 2.17809 20.684 1.20609C20.564 1.03809 20.45 0.930092 20.342 0.882092C20.246 0.822092 20.096 0.792092 19.892 0.792092C19.772 0.792092 19.64 0.798092 19.496 0.810091C19.364 0.822091 19.232 0.828091 19.1 0.828091C19.04 0.828091 18.974 0.816091 18.902 0.792092C18.83 0.756091 18.794 0.696091 18.794 0.612091C18.794 0.528091 18.8 0.456091 18.812 0.396091C18.824 0.324092 18.872 0.276091 18.956 0.252091C19.208 0.192091 19.532 0.156091 19.928 0.144091C20.336 0.132092 20.678 0.120091 20.954 0.108091C21.122 0.0960909 21.284 0.0840911 21.44 0.0720912C21.608 0.0600914 21.77 0.0540915 21.926 0.0540915C22.07 0.0540915 22.19 0.120091 22.286 0.252091C22.346 0.300091 22.388 0.354091 22.412 0.414091C22.448 0.474091 22.49 0.534091 22.538 0.594091C23.054 1.44609 23.57 2.30409 24.086 3.16809C24.602 4.02009 25.106 4.88409 25.598 5.76009C25.706 5.59209 25.874 5.34009 26.102 5.00409C26.33 4.65609 26.576 4.27209 26.84 3.85209C27.116 3.42009 27.38 2.99409 27.632 2.57409C27.896 2.15409 28.106 1.78209 28.262 1.45809C28.43 1.12209 28.514 0.888091 28.514 0.756091C28.514 0.636091 28.448 0.570091 28.316 0.558091C28.196 0.534091 28.094 0.522091 28.01 0.522091C27.878 0.522091 27.74 0.528091 27.596 0.540092C27.464 0.552091 27.326 0.558091 27.182 0.558091C27.086 0.558091 27.026 0.540091 27.002 0.504091C26.978 0.456091 26.966 0.390091 26.966 0.306091C26.966 0.162091 27.044 0.090091 27.2 0.090091C27.356 0.090091 27.512 0.0960909 27.668 0.108091C27.824 0.120091 27.98 0.126092 28.136 0.126092C28.472 0.126092 28.808 0.126092 29.144 0.126092C29.492 0.114091 29.834 0.102091 30.17 0.090091C30.338 0.0780911 30.5 0.0660913 30.656 0.0540915C30.824 0.0420916 30.992 0.0360917 31.16 0.0360917C31.328 0.0360917 31.412 0.120092 31.412 0.288092C31.412 0.456092 31.316 0.552091 31.124 0.576091C30.944 0.600091 30.728 0.618091 30.476 0.630092C30.236 0.630092 30.032 0.684092 29.864 0.792092C29.768 0.852092 29.66 0.942091 29.54 1.06209C29.432 1.18209 29.342 1.29009 29.27 1.38609C28.73 2.19009 28.178 2.98809 27.614 3.78009C27.05 4.56009 26.474 5.34009 25.886 6.12009C26.306 6.74409 26.726 7.36809 27.146 7.99209C27.578 8.60409 28.004 9.21609 28.424 9.82809C28.712 10.2481 29.006 10.6681 29.306 11.0881C29.606 11.5081 29.918 11.9161 30.242 12.3121C30.374 12.4681 30.536 12.5701 30.728 12.6181C30.932 12.6541 31.13 12.6721 31.322 12.6721C31.406 12.6721 31.484 12.6661 31.556 12.6541C31.64 12.6421 31.724 12.6361 31.808 12.6361C31.904 12.6361 31.964 12.6721 31.988 12.7441C32.024 12.8041 32.042 12.8701 32.042 12.9421Z" fill="#3CA67B"/>
</svg>
