<svg width="8" height="12" viewBox="0 0 8 12" fill="none" xmlns="http://www.w3.org/2000/svg">
<path d="M7.808 9.2C7.808 9.22133 7.78667 9.28 7.744 9.376C7.712 9.46133 7.69067 9.52 7.68 9.552C7.63733 9.65867 7.59467 9.76533 7.552 9.872C7.52 9.97867 7.488 10.0853 7.456 10.192C7.40267 10.3947 7.35467 10.5973 7.312 10.8C7.26933 11.0027 7.22133 11.2 7.168 11.392C7.11467 11.5413 7.024 11.616 6.896 11.616C6.59733 11.616 6.24533 11.6053 5.84 11.584C5.43467 11.5627 5.088 11.552 4.8 11.552C4.23467 11.552 3.70667 11.5573 3.216 11.568C2.736 11.568 2.25067 11.5733 1.76 11.584C1.51467 11.584 1.264 11.5947 1.008 11.616C0.762666 11.6267 0.517333 11.632 0.271999 11.632C0.218666 11.632 0.159999 11.616 0.0959993 11.584C0.0319993 11.552 -7.15256e-07 11.4987 -7.15256e-07 11.424C-7.15256e-07 11.0293 0.090666 10.6507 0.271999 10.288C0.442666 9.95733 0.687999 9.58933 1.008 9.184C1.33867 8.77867 1.70133 8.368 2.096 7.952C2.49067 7.536 2.87467 7.14133 3.248 6.768C3.632 6.39467 3.96267 6.07467 4.24 5.808C4.624 5.43467 4.95467 4.98667 5.232 4.464C5.50933 3.93067 5.648 3.392 5.648 2.848C5.648 2.44267 5.59467 2.064 5.488 1.712C5.392 1.34933 5.216 1.056 4.96 0.832001C4.704 0.608001 4.34133 0.496001 3.872 0.496001C3.46667 0.496001 3.104 0.565334 2.784 0.704C2.47467 0.832001 2.20267 1.07733 1.968 1.44C1.81867 1.67467 1.72267 1.952 1.68 2.272C1.648 2.58133 1.62133 2.87467 1.6 3.152C1.58933 3.51467 1.38667 3.696 0.991999 3.696C0.426666 3.696 0.143999 3.42933 0.143999 2.896C0.143999 2.39467 0.271999 1.96267 0.527999 1.6C0.794666 1.23733 1.13067 0.938667 1.536 0.704C1.952 0.469334 2.39467 0.293334 2.864 0.176001C3.33333 0.0586675 3.776 9.53674e-07 4.192 9.53674e-07C4.71467 9.53674e-07 5.216 0.112001 5.696 0.336001C6.18667 0.560001 6.58667 0.880001 6.896 1.296C7.20533 1.70133 7.36 2.18667 7.36 2.752C7.36 3.456 7.22667 4.05867 6.96 4.56C6.69333 5.06133 6.34133 5.504 5.904 5.888C5.47733 6.272 5.01333 6.62933 4.512 6.96C4.01067 7.28 3.52 7.616 3.04 7.968C2.70933 8.21333 2.38933 8.496 2.08 8.816C1.78133 9.12533 1.49867 9.44 1.232 9.76C1.18933 9.824 1.12 9.92 1.024 10.048C0.938666 10.176 0.895999 10.2827 0.895999 10.368C0.895999 10.4533 0.938666 10.496 1.024 10.496C1.664 10.496 2.304 10.4853 2.944 10.464C3.584 10.432 4.22933 10.4107 4.88 10.4C5.47733 10.3893 5.97333 10.2987 6.368 10.128C6.77333 9.95733 7.15733 9.62667 7.52 9.136C7.552 9.09333 7.58933 9.072 7.632 9.072C7.664 9.072 7.70133 9.088 7.744 9.12C7.78667 9.14133 7.808 9.168 7.808 9.2Z" fill="#1C2434"/>
</svg>
