<svg width="32" height="12" viewBox="0 0 32 12" fill="none" xmlns="http://www.w3.org/2000/svg">
<path d="M10.932 8.64011C10.932 8.74411 10.884 8.79611 10.788 8.79611C10.492 8.79611 10.2 8.78811 9.912 8.77211C9.624 8.75611 9.336 8.74811 9.048 8.74811C8.912 8.74811 8.776 8.75211 8.64 8.76011C8.504 8.76011 8.368 8.76411 8.232 8.77211C8.096 8.78011 7.96 8.79211 7.824 8.80811C7.696 8.81611 7.564 8.82011 7.428 8.82011C7.356 8.82011 7.308 8.80011 7.284 8.76011C7.268 8.71211 7.26 8.66011 7.26 8.60411C7.26 8.57211 7.268 8.54011 7.284 8.50811C7.3 8.46811 7.328 8.44811 7.368 8.44811C7.392 8.44011 7.428 8.43611 7.476 8.43611C7.532 8.43611 7.588 8.44011 7.644 8.44811C7.708 8.44811 7.768 8.44811 7.824 8.44811C7.936 8.44811 8.06 8.43611 8.196 8.41211C8.34 8.38811 8.42 8.30011 8.436 8.14811C8.444 8.12411 8.444 8.10011 8.436 8.07611C8.436 8.05211 8.436 8.02811 8.436 8.00411V0.648105H8.364C8.06 1.47211 7.744 2.29211 7.416 3.10811C7.088 3.91611 6.76 4.72411 6.432 5.53211C6.304 5.86011 6.172 6.18811 6.036 6.51611C5.9 6.84411 5.764 7.17211 5.628 7.50011C5.572 7.64411 5.516 7.79211 5.46 7.94411C5.412 8.09611 5.352 8.24011 5.28 8.37611C5.224 8.46411 5.136 8.50811 5.016 8.50811C4.904 8.50811 4.82 8.46411 4.764 8.37611C4.7 8.25611 4.64 8.12811 4.584 7.99211C4.536 7.85611 4.484 7.72411 4.428 7.59611C4.308 7.31611 4.192 7.04011 4.08 6.76811C3.968 6.49611 3.856 6.22411 3.744 5.95211C3.376 5.07211 3.008 4.19611 2.64 3.32411C2.28 2.44411 1.92 1.5681 1.56 0.696105C1.56 1.93611 1.56 3.18011 1.56 4.42811C1.568 5.66811 1.572 6.90811 1.572 8.14811C1.572 8.30811 1.64 8.40011 1.776 8.42411C1.92 8.44811 2.052 8.46011 2.172 8.46011C2.252 8.46011 2.332 8.45611 2.412 8.44811C2.492 8.44011 2.572 8.43611 2.652 8.43611C2.692 8.43611 2.712 8.46011 2.712 8.50811C2.712 8.54811 2.708 8.60411 2.7 8.67611C2.692 8.74811 2.66 8.78411 2.604 8.78411C2.388 8.78411 2.168 8.78011 1.944 8.77211C1.728 8.75611 1.512 8.74811 1.296 8.74811C1.088 8.74811 0.875999 8.75611 0.659999 8.77211C0.451999 8.78011 0.243999 8.78411 0.035999 8.78411C0.027999 8.76811 0.019999 8.75611 0.011999 8.74811C0.011999 8.73211 0.00799903 8.72011 -9.53674e-07 8.71211V8.60411C-9.53674e-07 8.52411 0.015999 8.48011 0.047999 8.47211C0.079999 8.46411 0.123999 8.46011 0.179999 8.46011C0.243999 8.46011 0.303999 8.46411 0.359999 8.47211C0.415999 8.47211 0.471999 8.47211 0.527999 8.47211C0.647999 8.47211 0.775999 8.45611 0.911999 8.42411C1.048 8.39211 1.12 8.30011 1.128 8.14811C1.144 8.02011 1.148 7.89211 1.14 7.76411C1.14 7.62811 1.14 7.49611 1.14 7.36811C1.14 7.11211 1.136 6.85611 1.128 6.60011C1.128 6.33611 1.128 6.07611 1.128 5.82011C1.128 4.96411 1.132 4.11211 1.14 3.26411C1.156 2.41611 1.164 1.56811 1.164 0.720105C1.164 0.568105 1.092 0.468105 0.947999 0.420105C0.803999 0.372105 0.671999 0.348105 0.551999 0.348105C0.479999 0.348105 0.407999 0.352105 0.335999 0.360105C0.263999 0.368105 0.191999 0.372105 0.119999 0.372105C0.071999 0.372105 0.039999 0.348105 0.023999 0.300105C0.00799904 0.252105 -9.53674e-07 0.212105 -9.53674e-07 0.180105C-9.53674e-07 0.068105 0.043999 0.012105 0.131999 0.012105C0.339999 0.012105 0.551999 0.0201051 0.767999 0.0361054C0.983999 0.0441053 1.196 0.0481052 1.404 0.0481052C1.812 0.0481052 2.22 0.0361052 2.628 0.012105L5.472 6.85211C5.912 5.70811 6.372 4.57611 6.852 3.45611C7.332 2.32811 7.776 1.18811 8.184 0.0361054C8.384 0.0441053 8.58 0.0521052 8.772 0.0601051C8.972 0.0601051 9.172 0.0601051 9.372 0.0601051C9.612 0.0601051 9.848 0.0521052 10.08 0.0361054C10.32 0.0121052 10.56 0.000105143 10.8 0.000105143C10.848 0.000105143 10.876 0.0241051 10.884 0.0721049C10.892 0.120105 10.896 0.160105 10.896 0.192105C10.896 0.224105 10.892 0.264105 10.884 0.312105C10.876 0.360105 10.848 0.384105 10.8 0.384105C10.696 0.384105 10.596 0.380105 10.5 0.372105C10.404 0.364105 10.308 0.360105 10.212 0.360105C10.116 0.360105 9.996 0.384105 9.852 0.432105C9.716 0.472105 9.648 0.552105 9.648 0.672105V8.05211C9.648 8.23611 9.7 8.35211 9.804 8.40011C9.916 8.44011 10.056 8.46011 10.224 8.46011C10.32 8.46011 10.416 8.45611 10.512 8.44811C10.608 8.44011 10.708 8.43611 10.812 8.43611C10.876 8.43611 10.912 8.46011 10.92 8.50811C10.928 8.55611 10.932 8.60011 10.932 8.64011ZM15.4352 7.40411C15.4032 7.04411 15.3832 6.68411 15.3752 6.32411C15.3752 5.95611 15.3712 5.58811 15.3632 5.22011H15.1952C14.9472 5.22011 14.6712 5.26011 14.3672 5.34011C14.0712 5.41211 13.7872 5.52411 13.5152 5.67611C13.2432 5.82811 13.0192 6.02011 12.8432 6.25211C12.6752 6.47611 12.5912 6.73611 12.5912 7.03211C12.5912 7.41611 12.6992 7.70811 12.9152 7.90811C13.1312 8.10011 13.4232 8.19611 13.7912 8.19611C13.9672 8.19611 14.1592 8.15611 14.3672 8.07611C14.5752 7.98811 14.7752 7.88411 14.9672 7.76411C15.1592 7.64411 15.3152 7.52411 15.4352 7.40411ZM17.5352 8.17211C17.5352 8.20411 17.5312 8.22811 17.5232 8.24411C17.4432 8.42011 17.3072 8.55611 17.1152 8.65211C16.9312 8.74011 16.7472 8.78411 16.5632 8.78411C16.2272 8.78411 15.9832 8.68811 15.8312 8.49611C15.6872 8.29611 15.5712 8.05211 15.4832 7.76411C15.1792 8.04411 14.8432 8.28011 14.4752 8.47211C14.1072 8.65611 13.7112 8.74811 13.2872 8.74811C12.9912 8.74811 12.7112 8.69211 12.4472 8.58011C12.1912 8.46011 11.9832 8.28811 11.8232 8.06411C11.6632 7.84011 11.5832 7.56811 11.5832 7.24811C11.5832 6.91211 11.6672 6.62411 11.8352 6.38411C12.0112 6.13611 12.2312 5.92811 12.4952 5.76011C12.7672 5.58411 13.0552 5.44411 13.3592 5.34011C13.6712 5.22811 13.9632 5.14411 14.2352 5.08811C14.4192 5.04811 14.6072 5.01211 14.7992 4.98011C14.9912 4.94811 15.1792 4.91611 15.3632 4.88411C15.3632 4.66011 15.3512 4.40011 15.3272 4.10411C15.3112 3.80811 15.2512 3.56411 15.1472 3.37211C15.0432 3.18811 14.9032 3.02411 14.7272 2.88011C14.5512 2.73611 14.3552 2.66411 14.1392 2.66411C13.7712 2.66411 13.4832 2.76011 13.2752 2.95211C13.0672 3.14411 12.9192 3.41611 12.8312 3.76811C12.8232 3.80811 12.8152 3.85211 12.8072 3.90011C12.8072 3.94011 12.8032 3.98011 12.7952 4.02011C12.7872 4.06811 12.7552 4.11211 12.6992 4.15211C12.6512 4.18411 12.5992 4.20011 12.5432 4.20011C12.3912 4.20011 12.2512 4.16411 12.1232 4.09211C12.0032 4.02011 11.9432 3.90011 11.9432 3.73211C11.9432 3.63611 11.9592 3.55211 11.9912 3.48011C12.0952 3.23211 12.2632 3.02811 12.4952 2.86811C12.7272 2.70011 12.9832 2.57211 13.2632 2.48411C13.5512 2.39611 13.8192 2.3521 14.0672 2.3521C14.4992 2.3521 14.8912 2.43211 15.2432 2.59211C15.5952 2.75211 15.8752 2.98811 16.0832 3.30011C16.2992 3.60411 16.4072 3.98811 16.4072 4.45211C16.4072 4.97211 16.4032 5.49611 16.3952 6.02411C16.3952 6.55211 16.4112 7.08011 16.4432 7.60811C16.4512 7.78411 16.4872 7.94011 16.5512 8.07611C16.6152 8.20411 16.7472 8.26811 16.9472 8.26811C17.0512 8.26811 17.1592 8.24411 17.2712 8.19611C17.3912 8.14011 17.4672 8.11211 17.4992 8.11211C17.5232 8.11211 17.5352 8.13211 17.5352 8.17211ZM23.2225 5.37611C23.2225 5.10411 23.2065 4.82011 23.1745 4.52411C23.1425 4.22011 23.0745 3.93611 22.9705 3.67211C22.8665 3.40811 22.7105 3.19611 22.5025 3.03611C22.2945 2.86811 22.0105 2.78411 21.6505 2.78411C21.4345 2.78411 21.2025 2.84011 20.9545 2.95211C20.7145 3.05611 20.5025 3.20011 20.3185 3.38411C20.1425 3.56811 20.0425 3.78011 20.0185 4.02011C20.0025 4.26811 19.9945 4.52011 19.9945 4.77611C19.9945 5.03211 19.9945 5.28811 19.9945 5.54411C19.9945 5.76811 19.9945 5.99611 19.9945 6.22811C20.0025 6.45211 20.0105 6.68011 20.0185 6.91211C20.0425 7.32011 20.1745 7.66811 20.4145 7.95611C20.6545 8.23611 20.9945 8.37611 21.4345 8.37611C21.8505 8.37611 22.1785 8.28411 22.4185 8.10011C22.6585 7.90811 22.8345 7.66011 22.9465 7.35611C23.0665 7.05211 23.1425 6.72811 23.1745 6.38411C23.2065 6.03211 23.2225 5.69611 23.2225 5.37611ZM24.4585 5.38811C24.4585 6.01211 24.3465 6.57611 24.1225 7.08011C23.8985 7.58411 23.5625 7.98411 23.1145 8.28011C22.6745 8.56811 22.1225 8.71211 21.4585 8.71211C21.2025 8.71211 20.9385 8.64811 20.6665 8.52011C20.4025 8.38411 20.1785 8.22811 19.9945 8.05211V10.6081C19.9945 10.7201 20.0385 10.7841 20.1265 10.8001C20.2225 10.8161 20.3105 10.8241 20.3905 10.8241C20.4625 10.8241 20.5345 10.8201 20.6065 10.8121C20.6785 10.8041 20.7505 10.8001 20.8225 10.8001C20.9265 10.8001 20.9785 10.8521 20.9785 10.9561C20.9785 11.0761 20.9185 11.1361 20.7985 11.1361C20.5505 11.1361 20.3025 11.1281 20.0545 11.1121C19.8065 11.0961 19.5585 11.0881 19.3105 11.0881C19.1025 11.0881 18.8945 11.0961 18.6865 11.1121C18.4865 11.1281 18.2825 11.1361 18.0745 11.1361C18.0185 11.1361 17.9825 11.1161 17.9665 11.0761C17.9585 11.0361 17.9545 11.0001 17.9545 10.9681C17.9545 10.8561 18.0105 10.8001 18.1225 10.8001C18.1865 10.8001 18.2505 10.8001 18.3145 10.8001C18.3785 10.8081 18.4425 10.8121 18.5065 10.8121C18.5625 10.8121 18.6425 10.8041 18.7465 10.7881C18.8585 10.7721 18.9145 10.7241 18.9145 10.6441C18.9145 9.81211 18.9145 8.97611 18.9145 8.13611C18.9225 7.29611 18.9265 6.46011 18.9265 5.62811C18.9265 5.25211 18.9225 4.88011 18.9145 4.51211C18.9145 4.14411 18.9105 3.77611 18.9025 3.40811C18.8945 3.23211 18.8625 3.11211 18.8065 3.04811C18.7505 2.97611 18.6305 2.94011 18.4465 2.94011C18.3665 2.94011 18.2865 2.95211 18.2065 2.97611C18.1265 2.99211 18.0465 3.00011 17.9665 3.00011C17.8785 3.00011 17.8345 2.96011 17.8345 2.88011C17.8345 2.80811 17.8705 2.76011 17.9425 2.7361C17.9585 2.72811 18.0305 2.71211 18.1585 2.6881C18.2865 2.66411 18.4385 2.63611 18.6145 2.60411C18.7985 2.56411 18.9785 2.52811 19.1545 2.49611C19.3305 2.46411 19.4785 2.43611 19.5985 2.4121C19.7185 2.38811 19.7825 2.37611 19.7905 2.37611C19.8545 2.37611 19.8985 2.41611 19.9225 2.49611C19.9385 2.54411 19.9465 2.63211 19.9465 2.76011C19.9545 2.88011 19.9585 3.00411 19.9585 3.13211C19.9585 3.25211 19.9585 3.34411 19.9585 3.40811C20.1825 3.11211 20.4665 2.86811 20.8105 2.67611C21.1625 2.47611 21.5265 2.37611 21.9025 2.37611C22.4545 2.37611 22.9185 2.52411 23.2945 2.82011C23.6785 3.10811 23.9665 3.48411 24.1585 3.94811C24.3585 4.40411 24.4585 4.88411 24.4585 5.38811ZM29.2633 7.40411C29.2313 7.04411 29.2113 6.68411 29.2033 6.32411C29.2033 5.95611 29.1993 5.58811 29.1913 5.22011H29.0233C28.7753 5.22011 28.4993 5.26011 28.1953 5.34011C27.8993 5.41211 27.6153 5.52411 27.3433 5.67611C27.0713 5.82811 26.8473 6.02011 26.6713 6.25211C26.5033 6.47611 26.4193 6.73611 26.4193 7.03211C26.4193 7.41611 26.5273 7.70811 26.7433 7.90811C26.9593 8.10011 27.2513 8.19611 27.6193 8.19611C27.7953 8.19611 27.9873 8.15611 28.1953 8.07611C28.4033 7.98811 28.6033 7.88411 28.7953 7.76411C28.9873 7.64411 29.1433 7.52411 29.2633 7.40411ZM31.3633 8.17211C31.3633 8.20411 31.3593 8.22811 31.3513 8.24411C31.2713 8.42011 31.1353 8.55611 30.9433 8.65211C30.7593 8.74011 30.5753 8.78411 30.3913 8.78411C30.0553 8.78411 29.8113 8.68811 29.6593 8.49611C29.5153 8.29611 29.3993 8.05211 29.3113 7.76411C29.0073 8.04411 28.6713 8.28011 28.3033 8.47211C27.9353 8.65611 27.5393 8.74811 27.1153 8.74811C26.8193 8.74811 26.5393 8.69211 26.2753 8.58011C26.0193 8.46011 25.8113 8.28811 25.6513 8.06411C25.4913 7.84011 25.4113 7.56811 25.4113 7.24811C25.4113 6.91211 25.4953 6.62411 25.6633 6.38411C25.8393 6.13611 26.0593 5.92811 26.3233 5.76011C26.5953 5.58411 26.8833 5.44411 27.1873 5.34011C27.4993 5.22811 27.7913 5.14411 28.0633 5.08811C28.2473 5.04811 28.4353 5.01211 28.6273 4.98011C28.8193 4.94811 29.0073 4.91611 29.1913 4.88411C29.1913 4.66011 29.1793 4.40011 29.1553 4.10411C29.1393 3.80811 29.0793 3.56411 28.9753 3.37211C28.8713 3.18811 28.7313 3.02411 28.5553 2.88011C28.3793 2.73611 28.1833 2.66411 27.9673 2.66411C27.5993 2.66411 27.3113 2.76011 27.1033 2.95211C26.8953 3.14411 26.7473 3.41611 26.6593 3.76811C26.6513 3.80811 26.6433 3.85211 26.6353 3.90011C26.6353 3.94011 26.6313 3.98011 26.6233 4.02011C26.6153 4.06811 26.5833 4.11211 26.5273 4.15211C26.4793 4.18411 26.4273 4.20011 26.3713 4.20011C26.2193 4.20011 26.0793 4.16411 25.9513 4.09211C25.8313 4.02011 25.7713 3.90011 25.7713 3.73211C25.7713 3.63611 25.7873 3.55211 25.8193 3.48011C25.9233 3.23211 26.0913 3.02811 26.3233 2.86811C26.5553 2.70011 26.8113 2.57211 27.0913 2.48411C27.3793 2.39611 27.6473 2.3521 27.8953 2.3521C28.3273 2.3521 28.7193 2.43211 29.0713 2.59211C29.4233 2.75211 29.7033 2.98811 29.9113 3.30011C30.1273 3.60411 30.2353 3.98811 30.2353 4.45211C30.2353 4.97211 30.2313 5.49611 30.2233 6.02411C30.2233 6.55211 30.2393 7.08011 30.2713 7.60811C30.2793 7.78411 30.3153 7.94011 30.3793 8.07611C30.4433 8.20411 30.5753 8.26811 30.7753 8.26811C30.8793 8.26811 30.9873 8.24411 31.0993 8.19611C31.2193 8.14011 31.2953 8.11211 31.3273 8.11211C31.3513 8.11211 31.3633 8.13211 31.3633 8.17211Z" fill="#8A7268"/>
</svg>
