<svg width="242" height="17" viewBox="0 0 242 17" fill="none" xmlns="http://www.w3.org/2000/svg">
<path d="M1.19209e-07 16.5V0.5H5.40625C6.66146 0.5 7.6875 0.726562 8.48438 1.17969C9.28646 1.6276 9.88021 2.23438 10.2656 3C10.651 3.76562 10.8438 4.61979 10.8438 5.5625C10.8438 6.50521 10.651 7.36198 10.2656 8.13281C9.88542 8.90365 9.29688 9.51823 8.5 9.97656C7.70313 10.4297 6.68229 10.6562 5.4375 10.6562H1.5625V8.9375H5.375C6.23438 8.9375 6.92448 8.78906 7.44531 8.49219C7.96615 8.19531 8.34375 7.79427 8.57813 7.28906C8.81771 6.77865 8.9375 6.20312 8.9375 5.5625C8.9375 4.92188 8.81771 4.34896 8.57813 3.84375C8.34375 3.33854 7.96354 2.94271 7.4375 2.65625C6.91146 2.36458 6.21354 2.21875 5.34375 2.21875H1.9375V16.5H1.19209e-07ZM13.7148 16.5V4.5H15.4961V6.3125H15.6211C15.8398 5.71875 16.2357 5.23698 16.8086 4.86719C17.3815 4.49739 18.0273 4.3125 18.7461 4.3125C18.8815 4.3125 19.0508 4.3151 19.2539 4.32031C19.457 4.32552 19.6107 4.33333 19.7148 4.34375V6.21875C19.6523 6.20312 19.5091 6.17969 19.2852 6.14844C19.0664 6.11198 18.8346 6.09375 18.5898 6.09375C18.0065 6.09375 17.4857 6.21615 17.0273 6.46094C16.5742 6.70052 16.2148 7.03385 15.9492 7.46094C15.6888 7.88281 15.5586 8.36458 15.5586 8.90625V16.5H13.7148ZM26.4102 16.75C25.3268 16.75 24.3763 16.4922 23.5586 15.9766C22.7461 15.4609 22.1107 14.7396 21.6523 13.8125C21.1992 12.8854 20.9727 11.8021 20.9727 10.5625C20.9727 9.3125 21.1992 8.22135 21.6523 7.28906C22.1107 6.35677 22.7461 5.63281 23.5586 5.11719C24.3763 4.60156 25.3268 4.34375 26.4102 4.34375C27.4935 4.34375 28.4414 4.60156 29.2539 5.11719C30.0716 5.63281 30.707 6.35677 31.1602 7.28906C31.6185 8.22135 31.8477 9.3125 31.8477 10.5625C31.8477 11.8021 31.6185 12.8854 31.1602 13.8125C30.707 14.7396 30.0716 15.4609 29.2539 15.9766C28.4414 16.4922 27.4935 16.75 26.4102 16.75ZM26.4102 15.0938C27.2331 15.0938 27.9102 14.8828 28.4414 14.4609C28.9727 14.0391 29.3659 13.4844 29.6211 12.7969C29.8763 12.1094 30.0039 11.3646 30.0039 10.5625C30.0039 9.76042 29.8763 9.01302 29.6211 8.32031C29.3659 7.6276 28.9727 7.06771 28.4414 6.64062C27.9102 6.21354 27.2331 6 26.4102 6C25.5872 6 24.9102 6.21354 24.3789 6.64062C23.8477 7.06771 23.4544 7.6276 23.1992 8.32031C22.944 9.01302 22.8164 9.76042 22.8164 10.5625C22.8164 11.3646 22.944 12.1094 23.1992 12.7969C23.4544 13.4844 23.8477 14.0391 24.3789 14.4609C24.9102 14.8828 25.5872 15.0938 26.4102 15.0938ZM39.1934 16.75C38.1934 16.75 37.3105 16.4974 36.5449 15.9922C35.7793 15.4818 35.1803 14.763 34.748 13.8359C34.3158 12.9036 34.0996 11.8021 34.0996 10.5313C34.0996 9.27083 34.3158 8.17708 34.748 7.25C35.1803 6.32292 35.7819 5.60677 36.5527 5.10156C37.3236 4.59635 38.2142 4.34375 39.2246 4.34375C40.0059 4.34375 40.623 4.47396 41.0762 4.73438C41.5345 4.98958 41.8835 5.28125 42.123 5.60937C42.3678 5.93229 42.5579 6.19792 42.6934 6.40625H42.8496V0.5H44.6934V16.5H42.9121V14.6562H42.6934C42.5579 14.875 42.3652 15.151 42.1152 15.4844C41.8652 15.8125 41.5085 16.1068 41.0449 16.3672C40.5814 16.6224 39.9642 16.75 39.1934 16.75ZM39.4434 15.0938C40.1829 15.0938 40.8079 14.901 41.3184 14.5156C41.8288 14.125 42.2168 13.5859 42.4824 12.8984C42.748 12.2057 42.8809 11.4062 42.8809 10.5C42.8809 9.60417 42.7507 8.82031 42.4902 8.14844C42.2298 7.47135 41.8444 6.94531 41.334 6.57031C40.8236 6.1901 40.1934 6 39.4434 6C38.6621 6 38.0111 6.20052 37.4902 6.60156C36.9746 6.9974 36.5866 7.53646 36.3262 8.21875C36.071 8.89583 35.9434 9.65625 35.9434 10.5C35.9434 11.3542 36.0736 12.1302 36.334 12.8281C36.5996 13.5208 36.9902 14.0729 37.5059 14.4844C38.0267 14.8906 38.6725 15.0938 39.4434 15.0938ZM55.8887 11.5937V4.5H57.7324V16.5H55.8887V14.4687H55.7637C55.4824 15.0781 55.0449 15.5964 54.4512 16.0234C53.8574 16.4453 53.1074 16.6563 52.2012 16.6563C51.4512 16.6563 50.7845 16.4922 50.2012 16.1641C49.6178 15.8307 49.1595 15.3307 48.8262 14.6641C48.4928 13.9922 48.3262 13.1458 48.3262 12.125V4.5H50.1699V12C50.1699 12.875 50.4147 13.5729 50.9043 14.0938C51.3991 14.6146 52.0293 14.875 52.7949 14.875C53.2533 14.875 53.7194 14.7578 54.1934 14.5234C54.6725 14.2891 55.0736 13.9297 55.3965 13.4453C55.7246 12.9609 55.8887 12.3437 55.8887 11.5937ZM66.3281 4.5V6.0625H60.1094V4.5H66.3281ZM61.9219 1.625H63.7656V13.0625C63.7656 13.5833 63.8411 13.974 63.9922 14.2344C64.1484 14.4896 64.3464 14.6615 64.5859 14.75C64.8307 14.8333 65.0885 14.875 65.3594 14.875C65.5625 14.875 65.7292 14.8646 65.8594 14.8437C65.9896 14.8177 66.0938 14.7969 66.1719 14.7812L66.5469 16.4375C66.4219 16.4844 66.2474 16.5313 66.0234 16.5781C65.7995 16.6302 65.5156 16.6563 65.1719 16.6563C64.651 16.6563 64.1406 16.5443 63.6406 16.3203C63.1458 16.0964 62.7344 15.7552 62.4062 15.2969C62.0833 14.8385 61.9219 14.2604 61.9219 13.5625V1.625ZM73.8477 16.75C72.7643 16.75 71.8138 16.4922 70.9961 15.9766C70.1836 15.4609 69.5482 14.7396 69.0898 13.8125C68.6367 12.8854 68.4102 11.8021 68.4102 10.5625C68.4102 9.3125 68.6367 8.22135 69.0898 7.28906C69.5482 6.35677 70.1836 5.63281 70.9961 5.11719C71.8138 4.60156 72.7643 4.34375 73.8477 4.34375C74.931 4.34375 75.8789 4.60156 76.6914 5.11719C77.5091 5.63281 78.1445 6.35677 78.5977 7.28906C79.056 8.22135 79.2852 9.3125 79.2852 10.5625C79.2852 11.8021 79.056 12.8854 78.5977 13.8125C78.1445 14.7396 77.5091 15.4609 76.6914 15.9766C75.8789 16.4922 74.931 16.75 73.8477 16.75ZM73.8477 15.0938C74.6706 15.0938 75.3477 14.8828 75.8789 14.4609C76.4102 14.0391 76.8034 13.4844 77.0586 12.7969C77.3138 12.1094 77.4414 11.3646 77.4414 10.5625C77.4414 9.76042 77.3138 9.01302 77.0586 8.32031C76.8034 7.6276 76.4102 7.06771 75.8789 6.64062C75.3477 6.21354 74.6706 6 73.8477 6C73.0247 6 72.3477 6.21354 71.8164 6.64062C71.2852 7.06771 70.8919 7.6276 70.6367 8.32031C70.3815 9.01302 70.2539 9.76042 70.2539 10.5625C70.2539 11.3646 70.3815 12.1094 70.6367 12.7969C70.8919 13.4844 71.2852 14.0391 71.8164 14.4609C72.3477 14.8828 73.0247 15.0938 73.8477 15.0938ZM90.5996 7.1875L88.9434 7.65625C88.8392 7.38021 88.6855 7.11198 88.4824 6.85156C88.2845 6.58594 88.0137 6.36719 87.6699 6.19531C87.3262 6.02344 86.8861 5.9375 86.3496 5.9375C85.6152 5.9375 85.0033 6.10677 84.5137 6.44531C84.0293 6.77865 83.7871 7.20312 83.7871 7.71875C83.7871 8.17708 83.9538 8.53906 84.2871 8.80469C84.6204 9.07031 85.1413 9.29167 85.8496 9.46875L87.6309 9.90625C88.7038 10.1667 89.5033 10.5651 90.0293 11.1016C90.5553 11.6328 90.8184 12.3177 90.8184 13.1562C90.8184 13.8437 90.6204 14.4583 90.2246 15C89.834 15.5417 89.2871 15.9688 88.584 16.2813C87.8809 16.5938 87.0632 16.75 86.1309 16.75C84.9069 16.75 83.8939 16.4844 83.0918 15.9531C82.2897 15.4219 81.7819 14.6458 81.5684 13.625L83.3184 13.1875C83.485 13.8333 83.8001 14.3177 84.2637 14.6406C84.7324 14.9635 85.3444 15.125 86.0996 15.125C86.959 15.125 87.6413 14.9427 88.1465 14.5781C88.6569 14.2083 88.9121 13.7656 88.9121 13.25C88.9121 12.8333 88.7663 12.4844 88.4746 12.2031C88.1829 11.9167 87.735 11.7031 87.1309 11.5625L85.1309 11.0937C84.0319 10.8333 83.2246 10.4297 82.709 9.88281C82.1986 9.33073 81.9434 8.64062 81.9434 7.8125C81.9434 7.13542 82.1335 6.53646 82.5137 6.01562C82.8991 5.49479 83.4225 5.08594 84.084 4.78906C84.7507 4.49219 85.5059 4.34375 86.3496 4.34375C87.5371 4.34375 88.4694 4.60417 89.1465 5.125C89.8288 5.64583 90.3132 6.33333 90.5996 7.1875ZM100.031 16.5V0.5H105.438C106.688 0.5 107.714 0.713541 108.516 1.14062C109.318 1.5625 109.911 2.14323 110.297 2.88281C110.682 3.6224 110.875 4.46354 110.875 5.40625C110.875 6.34896 110.682 7.1849 110.297 7.91406C109.911 8.64323 109.32 9.21615 108.523 9.63281C107.727 10.0443 106.708 10.25 105.469 10.25H101.094V8.5H105.406C106.26 8.5 106.948 8.375 107.469 8.125C107.995 7.875 108.375 7.52083 108.609 7.0625C108.849 6.59896 108.969 6.04687 108.969 5.40625C108.969 4.76562 108.849 4.20573 108.609 3.72656C108.37 3.2474 107.987 2.8776 107.461 2.61719C106.935 2.35156 106.24 2.21875 105.375 2.21875H101.969V16.5H100.031ZM107.563 9.3125L111.5 16.5H109.25L105.375 9.3125H107.563ZM118.756 16.75C117.6 16.75 116.602 16.4948 115.764 15.9844C114.93 15.4688 114.287 14.75 113.834 13.8281C113.386 12.901 113.162 11.8229 113.162 10.5938C113.162 9.36458 113.386 8.28125 113.834 7.34375C114.287 6.40104 114.917 5.66667 115.725 5.14062C116.537 4.60937 117.485 4.34375 118.568 4.34375C119.193 4.34375 119.811 4.44792 120.42 4.65625C121.029 4.86458 121.584 5.20312 122.084 5.67188C122.584 6.13542 122.982 6.75 123.279 7.51562C123.576 8.28125 123.725 9.22396 123.725 10.3437V11.125H114.475V9.53125H121.85C121.85 8.85417 121.714 8.25 121.443 7.71875C121.178 7.1875 120.798 6.76823 120.303 6.46094C119.813 6.15365 119.235 6 118.568 6C117.834 6 117.199 6.18229 116.662 6.54687C116.131 6.90625 115.722 7.375 115.436 7.95312C115.149 8.53125 115.006 9.15104 115.006 9.8125V10.875C115.006 11.7813 115.162 12.5495 115.475 13.1797C115.792 13.8047 116.232 14.2812 116.795 14.6094C117.357 14.9323 118.011 15.0938 118.756 15.0938C119.24 15.0938 119.678 15.026 120.068 14.8906C120.464 14.75 120.805 14.5417 121.092 14.2656C121.378 13.9844 121.6 13.6354 121.756 13.2187L123.537 13.7188C123.35 14.3229 123.035 14.8542 122.592 15.3125C122.149 15.7656 121.602 16.1198 120.951 16.375C120.3 16.625 119.568 16.75 118.756 16.75ZM128.373 0.5V16.5H126.529V0.5H128.373ZM135.281 16.7813C134.521 16.7813 133.831 16.638 133.211 16.3516C132.591 16.0599 132.099 15.6406 131.734 15.0938C131.37 14.5417 131.188 13.875 131.188 13.0937C131.188 12.4062 131.323 11.849 131.594 11.4219C131.865 10.9896 132.227 10.651 132.68 10.4062C133.133 10.1615 133.633 9.97917 134.18 9.85937C134.732 9.73438 135.286 9.63542 135.844 9.5625C136.573 9.46875 137.164 9.39844 137.617 9.35156C138.076 9.29948 138.409 9.21354 138.617 9.09375C138.831 8.97396 138.938 8.76562 138.938 8.46875V8.40625C138.938 7.63542 138.727 7.03646 138.305 6.60937C137.888 6.18229 137.255 5.96875 136.406 5.96875C135.526 5.96875 134.836 6.16146 134.336 6.54687C133.836 6.93229 133.484 7.34375 133.281 7.78125L131.531 7.15625C131.844 6.42708 132.26 5.85937 132.781 5.45312C133.307 5.04167 133.88 4.75521 134.5 4.59375C135.125 4.42708 135.74 4.34375 136.344 4.34375C136.729 4.34375 137.172 4.39062 137.672 4.48437C138.177 4.57292 138.664 4.75781 139.133 5.03906C139.607 5.32031 140 5.74479 140.313 6.3125C140.625 6.88021 140.781 7.64062 140.781 8.59375V16.5H138.938V14.875H138.844C138.719 15.1354 138.51 15.4141 138.219 15.7109C137.927 16.0078 137.539 16.2604 137.055 16.4687C136.57 16.6771 135.979 16.7813 135.281 16.7813ZM135.562 15.125C136.292 15.125 136.906 14.9818 137.406 14.6953C137.911 14.4089 138.292 14.0391 138.547 13.5859C138.807 13.1328 138.938 12.6562 138.938 12.1562V10.4687C138.859 10.5625 138.688 10.6484 138.422 10.7266C138.161 10.7995 137.859 10.8646 137.516 10.9219C137.177 10.974 136.846 11.0208 136.523 11.0625C136.206 11.099 135.948 11.1302 135.75 11.1562C135.271 11.2187 134.823 11.3203 134.406 11.4609C133.995 11.5964 133.661 11.8021 133.406 12.0781C133.156 12.349 133.031 12.7187 133.031 13.1875C133.031 13.8281 133.268 14.3125 133.742 14.6406C134.221 14.9635 134.828 15.125 135.562 15.125ZM149.021 16.75C147.896 16.75 146.928 16.4844 146.115 15.9531C145.303 15.4219 144.678 14.6901 144.24 13.7578C143.803 12.8255 143.584 11.7604 143.584 10.5625C143.584 9.34375 143.808 8.26823 144.256 7.33594C144.709 6.39844 145.339 5.66667 146.146 5.14062C146.959 4.60937 147.907 4.34375 148.99 4.34375C149.834 4.34375 150.594 4.5 151.271 4.8125C151.949 5.125 152.503 5.5625 152.936 6.125C153.368 6.6875 153.636 7.34375 153.74 8.09375H151.896C151.756 7.54687 151.443 7.0625 150.959 6.64062C150.48 6.21354 149.834 6 149.021 6C148.303 6 147.673 6.1875 147.131 6.5625C146.594 6.93229 146.175 7.45573 145.873 8.13281C145.576 8.80469 145.428 9.59375 145.428 10.5C145.428 11.4271 145.574 12.2344 145.865 12.9219C146.162 13.6094 146.579 14.1432 147.115 14.5234C147.657 14.9036 148.292 15.0938 149.021 15.0938C149.501 15.0938 149.936 15.0104 150.326 14.8437C150.717 14.6771 151.048 14.4375 151.318 14.125C151.589 13.8125 151.782 13.4375 151.896 13H153.74C153.636 13.7083 153.378 14.3464 152.967 14.9141C152.561 15.4766 152.021 15.9245 151.35 16.2578C150.683 16.5859 149.907 16.75 149.021 16.75ZM156.436 16.5V4.5H158.279V16.5H156.436ZM157.373 2.5C157.014 2.5 156.704 2.3776 156.443 2.13281C156.188 1.88802 156.061 1.59375 156.061 1.25C156.061 0.90625 156.188 0.611979 156.443 0.367187C156.704 0.122396 157.014 0 157.373 0C157.732 0 158.04 0.122396 158.295 0.367187C158.555 0.611979 158.686 0.90625 158.686 1.25C158.686 1.59375 158.555 1.88802 158.295 2.13281C158.04 2.3776 157.732 2.5 157.373 2.5ZM166.531 16.75C165.448 16.75 164.497 16.4922 163.68 15.9766C162.867 15.4609 162.232 14.7396 161.773 13.8125C161.32 12.8854 161.094 11.8021 161.094 10.5625C161.094 9.3125 161.32 8.22135 161.773 7.28906C162.232 6.35677 162.867 5.63281 163.68 5.11719C164.497 4.60156 165.448 4.34375 166.531 4.34375C167.615 4.34375 168.563 4.60156 169.375 5.11719C170.193 5.63281 170.828 6.35677 171.281 7.28906C171.74 8.22135 171.969 9.3125 171.969 10.5625C171.969 11.8021 171.74 12.8854 171.281 13.8125C170.828 14.7396 170.193 15.4609 169.375 15.9766C168.563 16.4922 167.615 16.75 166.531 16.75ZM166.531 15.0938C167.354 15.0938 168.031 14.8828 168.562 14.4609C169.094 14.0391 169.487 13.4844 169.742 12.7969C169.997 12.1094 170.125 11.3646 170.125 10.5625C170.125 9.76042 169.997 9.01302 169.742 8.32031C169.487 7.6276 169.094 7.06771 168.562 6.64062C168.031 6.21354 167.354 6 166.531 6C165.708 6 165.031 6.21354 164.5 6.64062C163.969 7.06771 163.576 7.6276 163.32 8.32031C163.065 9.01302 162.938 9.76042 162.938 10.5625C162.938 11.3646 163.065 12.1094 163.32 12.7969C163.576 13.4844 163.969 14.0391 164.5 14.4609C165.031 14.8828 165.708 15.0938 166.531 15.0938ZM176.627 9.28125V16.5H174.783V4.5H176.564V6.375H176.721C177.002 5.76563 177.429 5.27604 178.002 4.90625C178.575 4.53125 179.314 4.34375 180.221 4.34375C181.033 4.34375 181.744 4.51042 182.354 4.84375C182.963 5.17188 183.437 5.67188 183.775 6.34375C184.114 7.01042 184.283 7.85417 184.283 8.875V16.5H182.439V9C182.439 8.05729 182.195 7.32292 181.705 6.79687C181.215 6.26562 180.544 6 179.689 6C179.101 6 178.575 6.1276 178.111 6.38281C177.653 6.63802 177.291 7.01042 177.025 7.5C176.76 7.98958 176.627 8.58333 176.627 9.28125ZM191.184 16.7813C190.423 16.7813 189.733 16.638 189.113 16.3516C188.493 16.0599 188.001 15.6406 187.637 15.0938C187.272 14.5417 187.09 13.875 187.09 13.0937C187.09 12.4062 187.225 11.849 187.496 11.4219C187.767 10.9896 188.129 10.651 188.582 10.4062C189.035 10.1615 189.535 9.97917 190.082 9.85937C190.634 9.73438 191.189 9.63542 191.746 9.5625C192.475 9.46875 193.066 9.39844 193.52 9.35156C193.978 9.29948 194.311 9.21354 194.52 9.09375C194.733 8.97396 194.84 8.76562 194.84 8.46875V8.40625C194.84 7.63542 194.629 7.03646 194.207 6.60937C193.79 6.18229 193.158 5.96875 192.309 5.96875C191.428 5.96875 190.738 6.16146 190.238 6.54687C189.738 6.93229 189.387 7.34375 189.184 7.78125L187.434 7.15625C187.746 6.42708 188.163 5.85937 188.684 5.45312C189.21 5.04167 189.783 4.75521 190.402 4.59375C191.027 4.42708 191.642 4.34375 192.246 4.34375C192.632 4.34375 193.074 4.39062 193.574 4.48437C194.079 4.57292 194.566 4.75781 195.035 5.03906C195.509 5.32031 195.902 5.74479 196.215 6.3125C196.527 6.88021 196.684 7.64062 196.684 8.59375V16.5H194.84V14.875H194.746C194.621 15.1354 194.413 15.4141 194.121 15.7109C193.829 16.0078 193.441 16.2604 192.957 16.4687C192.473 16.6771 191.882 16.7813 191.184 16.7813ZM191.465 15.125C192.194 15.125 192.809 14.9818 193.309 14.6953C193.814 14.4089 194.194 14.0391 194.449 13.5859C194.71 13.1328 194.84 12.6562 194.84 12.1562V10.4687C194.762 10.5625 194.59 10.6484 194.324 10.7266C194.064 10.7995 193.762 10.8646 193.418 10.9219C193.079 10.974 192.749 11.0208 192.426 11.0625C192.108 11.099 191.85 11.1302 191.652 11.1562C191.173 11.2187 190.725 11.3203 190.309 11.4609C189.897 11.5964 189.564 11.8021 189.309 12.0781C189.059 12.349 188.934 12.7187 188.934 13.1875C188.934 13.8281 189.171 14.3125 189.645 14.6406C190.124 14.9635 190.73 15.125 191.465 15.125ZM204.58 16.75C203.58 16.75 202.697 16.4974 201.932 15.9922C201.166 15.4818 200.567 14.763 200.135 13.8359C199.702 12.9036 199.486 11.8021 199.486 10.5313C199.486 9.27083 199.702 8.17708 200.135 7.25C200.567 6.32292 201.169 5.60677 201.939 5.10156C202.71 4.59635 203.601 4.34375 204.611 4.34375C205.393 4.34375 206.01 4.47396 206.463 4.73438C206.921 4.98958 207.27 5.28125 207.51 5.60937C207.755 5.93229 207.945 6.19792 208.08 6.40625H208.236V0.5H210.08V16.5H208.299V14.6562H208.08C207.945 14.875 207.752 15.151 207.502 15.4844C207.252 15.8125 206.895 16.1068 206.432 16.3672C205.968 16.6224 205.351 16.75 204.58 16.75ZM204.83 15.0938C205.57 15.0938 206.195 14.901 206.705 14.5156C207.215 14.125 207.604 13.5859 207.869 12.8984C208.135 12.2057 208.268 11.4062 208.268 10.5C208.268 9.60417 208.137 8.82031 207.877 8.14844C207.617 7.47135 207.231 6.94531 206.721 6.57031C206.21 6.1901 205.58 6 204.83 6C204.049 6 203.398 6.20052 202.877 6.60156C202.361 6.9974 201.973 7.53646 201.713 8.21875C201.458 8.89583 201.33 9.65625 201.33 10.5C201.33 11.3542 201.46 12.1302 201.721 12.8281C201.986 13.5208 202.377 14.0729 202.893 14.4844C203.413 14.8906 204.059 15.0938 204.83 15.0938ZM218.588 16.75C217.505 16.75 216.554 16.4922 215.736 15.9766C214.924 15.4609 214.288 14.7396 213.83 13.8125C213.377 12.8854 213.15 11.8021 213.15 10.5625C213.15 9.3125 213.377 8.22135 213.83 7.28906C214.288 6.35677 214.924 5.63281 215.736 5.11719C216.554 4.60156 217.505 4.34375 218.588 4.34375C219.671 4.34375 220.619 4.60156 221.432 5.11719C222.249 5.63281 222.885 6.35677 223.338 7.28906C223.796 8.22135 224.025 9.3125 224.025 10.5625C224.025 11.8021 223.796 12.8854 223.338 13.8125C222.885 14.7396 222.249 15.4609 221.432 15.9766C220.619 16.4922 219.671 16.75 218.588 16.75ZM218.588 15.0938C219.411 15.0938 220.088 14.8828 220.619 14.4609C221.15 14.0391 221.544 13.4844 221.799 12.7969C222.054 12.1094 222.182 11.3646 222.182 10.5625C222.182 9.76042 222.054 9.01302 221.799 8.32031C221.544 7.6276 221.15 7.06771 220.619 6.64062C220.088 6.21354 219.411 6 218.588 6C217.765 6 217.088 6.21354 216.557 6.64062C216.025 7.06771 215.632 7.6276 215.377 8.32031C215.122 9.01302 214.994 9.76042 214.994 10.5625C214.994 11.3646 215.122 12.1094 215.377 12.7969C215.632 13.4844 216.025 14.0391 216.557 14.4609C217.088 14.8828 217.765 15.0938 218.588 15.0938ZM235.34 7.1875L233.684 7.65625C233.579 7.38021 233.426 7.11198 233.223 6.85156C233.025 6.58594 232.754 6.36719 232.41 6.19531C232.066 6.02344 231.626 5.9375 231.09 5.9375C230.355 5.9375 229.743 6.10677 229.254 6.44531C228.77 6.77865 228.527 7.20312 228.527 7.71875C228.527 8.17708 228.694 8.53906 229.027 8.80469C229.361 9.07031 229.882 9.29167 230.59 9.46875L232.371 9.90625C233.444 10.1667 234.243 10.5651 234.77 11.1016C235.296 11.6328 235.559 12.3177 235.559 13.1562C235.559 13.8437 235.361 14.4583 234.965 15C234.574 15.5417 234.027 15.9688 233.324 16.2813C232.621 16.5938 231.803 16.75 230.871 16.75C229.647 16.75 228.634 16.4844 227.832 15.9531C227.03 15.4219 226.522 14.6458 226.309 13.625L228.059 13.1875C228.225 13.8333 228.54 14.3177 229.004 14.6406C229.473 14.9635 230.085 15.125 230.84 15.125C231.699 15.125 232.382 14.9427 232.887 14.5781C233.397 14.2083 233.652 13.7656 233.652 13.25C233.652 12.8333 233.507 12.4844 233.215 12.2031C232.923 11.9167 232.475 11.7031 231.871 11.5625L229.871 11.0937C228.772 10.8333 227.965 10.4297 227.449 9.88281C226.939 9.33073 226.684 8.64062 226.684 7.8125C226.684 7.13542 226.874 6.53646 227.254 6.01562C227.639 5.49479 228.163 5.08594 228.824 4.78906C229.491 4.49219 230.246 4.34375 231.09 4.34375C232.277 4.34375 233.21 4.60417 233.887 5.125C234.569 5.64583 235.053 6.33333 235.34 7.1875ZM239.678 16.625C239.292 16.625 238.962 16.487 238.686 16.2109C238.41 15.9349 238.271 15.6042 238.271 15.2187C238.271 14.8333 238.41 14.5026 238.686 14.2266C238.962 13.9505 239.292 13.8125 239.678 13.8125C240.063 13.8125 240.394 13.9505 240.67 14.2266C240.946 14.5026 241.084 14.8333 241.084 15.2187C241.084 15.474 241.019 15.7083 240.889 15.9219C240.764 16.1354 240.594 16.3073 240.381 16.4375C240.173 16.5625 239.938 16.625 239.678 16.625ZM239.678 7.71875C239.292 7.71875 238.962 7.58073 238.686 7.30469C238.41 7.02865 238.271 6.69792 238.271 6.3125C238.271 5.92708 238.41 5.59635 238.686 5.32031C238.962 5.04427 239.292 4.90625 239.678 4.90625C240.063 4.90625 240.394 5.04427 240.67 5.32031C240.946 5.59635 241.084 5.92708 241.084 6.3125C241.084 6.56771 241.019 6.80208 240.889 7.01562C240.764 7.22917 240.594 7.40104 240.381 7.53125C240.173 7.65625 239.938 7.71875 239.678 7.71875Z" fill="#1C2434"/>
</svg>
