<svg width="70" height="15" viewBox="0 0 70 15" fill="none" xmlns="http://www.w3.org/2000/svg">
<path d="M7.00489 3.79512C7.00489 2.91512 6.77489 2.31512 6.31489 1.99512C5.86489 1.66512 5.22989 1.50012 4.40989 1.50012H3.91489C3.81489 1.50012 3.68989 1.51012 3.53989 1.53012C3.39989 1.54012 3.26989 1.57512 3.14989 1.63512C3.03989 1.68512 2.98489 1.78012 2.98489 1.92012V6.09012C3.09489 6.13012 3.21989 6.15512 3.35989 6.16512C3.49989 6.17512 3.62989 6.18012 3.74989 6.18012C4.14989 6.18012 4.53989 6.14512 4.91989 6.07512C5.30989 6.00512 5.65989 5.88512 5.96989 5.71512C6.28989 5.54512 6.53989 5.30512 6.71989 4.99512C6.90989 4.68512 7.00489 4.28512 7.00489 3.79512ZM10.2899 11.8801C10.2899 11.9501 10.2199 12.0051 10.0799 12.0451C9.93989 12.0851 9.77489 12.1101 9.58489 12.1201C9.39489 12.1401 9.21489 12.1501 9.04489 12.1501C8.88489 12.1501 8.77489 12.1501 8.71489 12.1501C8.31489 12.1501 7.99489 12.1101 7.75489 12.0301C7.51489 11.9401 7.27989 11.7151 7.04989 11.3551C6.55989 10.5651 6.08489 9.76512 5.62489 8.95512C5.17489 8.14512 4.72489 7.33012 4.27489 6.51012L2.98489 6.55512V11.3101C2.98489 11.4601 3.04489 11.5601 3.16489 11.6101C3.28489 11.6601 3.40489 11.6851 3.52489 11.6851C3.66489 11.6851 3.79989 11.6801 3.92989 11.6701C4.05989 11.6601 4.18989 11.6551 4.31989 11.6551C4.38989 11.6551 4.42989 11.6851 4.43989 11.7451C4.45989 11.8051 4.46989 11.8601 4.46989 11.9101C4.46989 11.9901 4.44489 12.0451 4.39489 12.0751C4.35489 12.0951 4.29989 12.1051 4.22989 12.1051C3.78989 12.1051 3.34489 12.1001 2.89489 12.0901C2.44489 12.0701 1.99989 12.0601 1.55989 12.0601C1.31989 12.0601 1.07989 12.0701 0.839893 12.0901C0.609893 12.1001 0.374893 12.1051 0.134893 12.1051C0.0748926 12.1051 0.0348926 12.0801 0.0148926 12.0301C0.00489258 11.9701 -0.000107419 11.9201 -0.000107419 11.8801C-0.000107419 11.7501 0.0548926 11.6851 0.164893 11.6851C0.254893 11.6851 0.339893 11.6901 0.419893 11.7001C0.509893 11.7001 0.594893 11.7001 0.674893 11.7001C0.824893 11.7001 0.984893 11.6851 1.15489 11.6551C1.33489 11.6151 1.43489 11.5001 1.45489 11.3101C1.47489 11.0601 1.47989 10.7701 1.46989 10.4401C1.46989 10.1001 1.46989 9.80512 1.46989 9.55512C1.46989 9.22512 1.46989 8.89512 1.46989 8.56512C1.46989 8.22512 1.46989 7.89012 1.46989 7.56012C1.46989 6.87012 1.46989 6.18012 1.46989 5.49012C1.47989 4.80012 1.48489 4.11012 1.48489 3.42012C1.48489 3.17012 1.48489 2.92012 1.48489 2.67012C1.48489 2.41012 1.47489 2.16012 1.45489 1.92012C1.43489 1.72012 1.32989 1.61012 1.13989 1.59012C0.959893 1.56012 0.794893 1.54512 0.644893 1.54512C0.584893 1.54512 0.524893 1.55012 0.464893 1.56012C0.404893 1.56012 0.344893 1.56012 0.284893 1.56012C0.134893 1.56012 0.0598926 1.47512 0.0598926 1.30512C0.0598926 1.19512 0.109893 1.14012 0.209893 1.14012C0.549893 1.14012 0.884893 1.15012 1.21489 1.17012C1.55489 1.19012 1.89489 1.20012 2.23489 1.20012C2.70489 1.20012 3.16989 1.18012 3.62989 1.14012C4.08989 1.10012 4.54989 1.08012 5.00989 1.08012C5.38989 1.08012 5.78989 1.12012 6.20989 1.20012C6.63989 1.28012 7.03989 1.41012 7.40989 1.59012C7.77989 1.77012 8.07989 2.02012 8.30989 2.34012C8.54989 2.65012 8.66989 3.04512 8.66989 3.52512C8.66989 4.12512 8.49989 4.64512 8.15989 5.08512C7.82989 5.51512 7.39989 5.85012 6.86989 6.09012C6.67989 6.18012 6.48489 6.25012 6.28489 6.30012C6.08489 6.34012 5.88489 6.38012 5.68489 6.42012C6.14489 7.20012 6.62489 7.97012 7.12489 8.73012C7.63489 9.49012 8.14989 10.2401 8.66989 10.9801C8.81989 11.1901 8.97489 11.3601 9.13489 11.4901C9.30489 11.6101 9.51489 11.6951 9.76489 11.7451C9.82489 11.7551 9.92489 11.7601 10.0649 11.7601C10.2149 11.7601 10.2899 11.8001 10.2899 11.8801ZM17.6254 9.46512C17.6254 9.04512 17.5304 8.69512 17.3404 8.41512C17.1504 8.13512 16.9054 7.89512 16.6054 7.69512C16.3154 7.48512 16.0104 7.29012 15.6904 7.11012V11.7001C16.2804 11.5001 16.7504 11.2451 17.1004 10.9351C17.4504 10.6251 17.6254 10.1351 17.6254 9.46512ZM15.1504 1.32012C14.5804 1.44012 14.1254 1.64012 13.7854 1.92012C13.4554 2.20012 13.2904 2.65512 13.2904 3.28512C13.2904 3.64512 13.3854 3.96012 13.5754 4.23012C13.7754 4.50012 14.0154 4.73512 14.2954 4.93512C14.5854 5.13512 14.8704 5.32012 15.1504 5.49012V1.32012ZM19.1404 9.24012C19.1404 9.74012 19.0404 10.1651 18.8404 10.5151C18.6504 10.8551 18.3854 11.1401 18.0454 11.3701C17.7154 11.5901 17.3454 11.7601 16.9354 11.8801C16.5254 12.0001 16.1104 12.0851 15.6904 12.1351V13.2601H15.1504V12.1651C14.8504 12.1551 14.5604 12.1351 14.2804 12.1051C14.0004 12.0651 13.7204 11.9951 13.4404 11.8951C13.2304 11.8151 13.0254 11.7251 12.8254 11.6251C12.6354 11.5151 12.4254 11.4401 12.1954 11.4001C12.1454 11.0501 12.0754 10.6701 11.9854 10.2601C11.8954 9.84012 11.8504 9.46012 11.8504 9.12012C11.8504 8.97012 11.9404 8.89512 12.1204 8.89512C12.2504 8.89512 12.3354 8.93012 12.3754 9.00012C12.4254 9.06012 12.4604 9.14512 12.4804 9.25512C12.5004 9.38512 12.5204 9.51012 12.5404 9.63012C12.5704 9.75012 12.6054 9.87512 12.6454 10.0051C12.8354 10.6151 13.1454 11.0401 13.5754 11.2801C14.0154 11.5101 14.5404 11.6501 15.1504 11.7001V6.84012C14.7704 6.65012 14.3854 6.46512 13.9954 6.28512C13.6854 6.13512 13.3704 5.94012 13.0504 5.70012C12.7404 5.46012 12.4804 5.18012 12.2704 4.86012C12.0704 4.54012 11.9704 4.19012 11.9704 3.81012C11.9704 3.20012 12.1204 2.70012 12.4204 2.31012C12.7304 1.91012 13.1254 1.60512 13.6054 1.39512C14.0954 1.18512 14.6104 1.06012 15.1504 1.02012V0.000116765H15.6904V1.03512C15.9704 1.04512 16.2304 1.08512 16.4704 1.15512C16.7204 1.22512 16.9704 1.32012 17.2204 1.44012C17.3704 1.51012 17.5454 1.56012 17.7454 1.59012C17.9454 1.62012 18.1254 1.64512 18.2854 1.66512C18.2954 1.81512 18.3104 2.00512 18.3304 2.23512C18.3504 2.45512 18.3754 2.68012 18.4054 2.91012C18.4354 3.13012 18.4654 3.31012 18.4954 3.45012C18.5254 3.52012 18.5404 3.60012 18.5404 3.69012C18.5404 3.84012 18.5004 3.94012 18.4204 3.99012C18.3404 4.03012 18.2354 4.05012 18.1054 4.05012C18.0254 4.05012 17.9654 4.04012 17.9254 4.02012C17.8954 4.00012 17.8704 3.95512 17.8504 3.88512C17.8204 3.74512 17.7954 3.60512 17.7754 3.46512C17.7554 3.32512 17.7254 3.19012 17.6854 3.06012C17.5554 2.60012 17.3004 2.22012 16.9204 1.92012C16.5504 1.62012 16.1404 1.42012 15.6904 1.32012V5.73012C16.0904 5.91012 16.4904 6.10012 16.8904 6.30012C17.3004 6.49012 17.6754 6.71512 18.0154 6.97512C18.3554 7.23512 18.6254 7.55012 18.8254 7.92012C19.0354 8.28012 19.1404 8.72012 19.1404 9.24012ZM28.8483 9.81012C28.8483 9.83012 28.8283 9.88512 28.7883 9.97512C28.7583 10.0551 28.7383 10.1101 28.7283 10.1401C28.6883 10.2401 28.6483 10.3401 28.6083 10.4401C28.5783 10.5401 28.5483 10.6401 28.5183 10.7401C28.4683 10.9301 28.4233 11.1201 28.3833 11.3101C28.3433 11.5001 28.2983 11.6851 28.2483 11.8651C28.1983 12.0051 28.1133 12.0751 27.9933 12.0751C27.7133 12.0751 27.3833 12.0651 27.0033 12.0451C26.6233 12.0251 26.2983 12.0151 26.0283 12.0151C25.4983 12.0151 25.0033 12.0201 24.5433 12.0301C24.0933 12.0301 23.6383 12.0351 23.1783 12.0451C22.9483 12.0451 22.7133 12.0551 22.4733 12.0751C22.2433 12.0851 22.0133 12.0901 21.7833 12.0901C21.7333 12.0901 21.6783 12.0751 21.6183 12.0451C21.5583 12.0151 21.5283 11.9651 21.5283 11.8951C21.5283 11.5251 21.6133 11.1701 21.7833 10.8301C21.9433 10.5201 22.1733 10.1751 22.4733 9.79512C22.7833 9.41512 23.1233 9.03012 23.4933 8.64012C23.8633 8.25012 24.2233 7.88012 24.5733 7.53012C24.9333 7.18012 25.2433 6.88012 25.5033 6.63012C25.8633 6.28012 26.1733 5.86012 26.4333 5.37012C26.6933 4.87012 26.8233 4.36512 26.8233 3.85512C26.8233 3.47512 26.7733 3.12012 26.6733 2.79012C26.5833 2.45012 26.4183 2.17512 26.1783 1.96512C25.9383 1.75512 25.5983 1.65012 25.1583 1.65012C24.7783 1.65012 24.4383 1.71512 24.1383 1.84512C23.8483 1.96512 23.5933 2.19512 23.3733 2.53512C23.2333 2.75512 23.1433 3.01512 23.1033 3.31512C23.0733 3.60512 23.0483 3.88012 23.0283 4.14012C23.0183 4.48012 22.8283 4.65012 22.4583 4.65012C21.9283 4.65012 21.6633 4.40012 21.6633 3.90012C21.6633 3.43012 21.7833 3.02512 22.0233 2.68512C22.2733 2.34512 22.5883 2.06512 22.9683 1.84512C23.3583 1.62512 23.7733 1.46012 24.2133 1.35012C24.6533 1.24012 25.0683 1.18512 25.4583 1.18512C25.9483 1.18512 26.4183 1.29012 26.8683 1.50012C27.3283 1.71012 27.7033 2.01012 27.9933 2.40012C28.2833 2.78012 28.4283 3.23512 28.4283 3.76512C28.4283 4.42512 28.3033 4.99012 28.0533 5.46012C27.8033 5.93012 27.4733 6.34512 27.0633 6.70512C26.6633 7.06512 26.2283 7.40012 25.7583 7.71012C25.2883 8.01012 24.8283 8.32512 24.3783 8.65512C24.0683 8.88512 23.7683 9.15012 23.4783 9.45012C23.1983 9.74012 22.9333 10.0351 22.6833 10.3351C22.6433 10.3951 22.5783 10.4851 22.4883 10.6051C22.4083 10.7251 22.3683 10.8251 22.3683 10.9051C22.3683 10.9851 22.4083 11.0251 22.4883 11.0251C23.0883 11.0251 23.6883 11.0151 24.2883 10.9951C24.8883 10.9651 25.4933 10.9451 26.1033 10.9351C26.6633 10.9251 27.1283 10.8401 27.4983 10.6801C27.8783 10.5201 28.2383 10.2101 28.5783 9.75012C28.6083 9.71012 28.6433 9.69012 28.6833 9.69012C28.7133 9.69012 28.7483 9.70512 28.7883 9.73512C28.8283 9.75512 28.8483 9.78012 28.8483 9.81012ZM34.6959 4.29012C34.6959 4.04012 34.6909 3.79012 34.6809 3.54012C34.6809 3.29012 34.6809 3.04012 34.6809 2.79012L30.8259 8.35512H34.6809C34.6809 7.67512 34.6809 6.99512 34.6809 6.31512C34.6909 5.63512 34.6959 4.96012 34.6959 4.29012ZM38.1159 7.86012C38.1159 7.88012 38.1009 7.94012 38.0709 8.04012C38.0509 8.13012 38.0359 8.19512 38.0259 8.23512C37.9959 8.34512 37.9609 8.46512 37.9209 8.59512C37.8909 8.72512 37.8659 8.84512 37.8459 8.95512C37.8359 9.02512 37.8059 9.06512 37.7559 9.07512C37.7059 9.07512 37.6509 9.07512 37.5909 9.07512H36.1209C36.1209 9.35512 36.1209 9.63512 36.1209 9.91512C36.1309 10.1951 36.1359 10.4801 36.1359 10.7701V11.3101C36.1359 11.4601 36.1909 11.5601 36.3009 11.6101C36.4209 11.6601 36.5559 11.6901 36.7059 11.7001C36.8559 11.7001 36.9759 11.7001 37.0659 11.7001C37.1359 11.7001 37.2059 11.6951 37.2759 11.6851C37.3559 11.6751 37.4309 11.6701 37.5009 11.6701C37.5709 11.6701 37.6109 11.7001 37.6209 11.7601C37.6309 11.8101 37.6359 11.8601 37.6359 11.9101C37.6359 11.9501 37.6259 12.0001 37.6059 12.0601C37.5959 12.1101 37.5659 12.1351 37.5159 12.1351C37.4759 12.1351 37.4309 12.1351 37.3809 12.1351C37.3409 12.1351 37.2959 12.1301 37.2459 12.1201C36.9459 12.1001 36.6409 12.0851 36.3309 12.0751C36.0309 12.0651 35.7359 12.0601 35.4459 12.0601C35.1859 12.0601 34.9209 12.0651 34.6509 12.0751C34.3909 12.0851 34.1309 12.0951 33.8709 12.1051C33.7809 12.1151 33.6909 12.1201 33.6009 12.1201C33.5109 12.1301 33.4259 12.1351 33.3459 12.1351C33.2659 12.1351 33.2159 12.1151 33.1959 12.0751C33.1759 12.0251 33.1659 11.9651 33.1659 11.8951C33.1659 11.8451 33.1709 11.8001 33.1809 11.7601C33.2009 11.7101 33.2459 11.6851 33.3159 11.6851C33.3659 11.6851 33.4159 11.6901 33.4659 11.7001C33.5259 11.7001 33.5809 11.7001 33.6309 11.7001C33.7409 11.7001 33.8759 11.7001 34.0359 11.7001C34.2059 11.7001 34.3509 11.6751 34.4709 11.6251C34.6009 11.5651 34.6659 11.4601 34.6659 11.3101V9.07512H30.1959C30.1259 9.07512 30.0609 9.06012 30.0009 9.03012C29.9509 8.99012 29.9259 8.93512 29.9259 8.86512C29.9259 8.78512 29.9459 8.71512 29.9859 8.65512C29.9959 8.63512 30.0059 8.61512 30.0159 8.59512C30.0259 8.57512 30.0359 8.56012 30.0459 8.55012C30.8759 7.35012 31.7109 6.14512 32.5509 4.93512C33.4009 3.72512 34.2259 2.51012 35.0259 1.29012C35.0559 1.23012 35.0909 1.18012 35.1309 1.14012C35.1609 1.09012 35.2059 1.06512 35.2659 1.06512H36.0609C36.0809 1.06512 36.1109 1.07012 36.1509 1.08012C36.1909 1.08012 36.2059 1.09512 36.1959 1.12512L36.1359 1.29012V8.35512H37.0509C37.1809 8.35512 37.3109 8.33512 37.4409 8.29512C37.5809 8.24512 37.6909 8.17012 37.7709 8.07012C37.7909 8.05012 37.8109 8.01512 37.8309 7.96512C37.8609 7.90512 37.8809 7.86512 37.8909 7.84512C37.9209 7.79512 37.9559 7.77012 37.9959 7.77012C38.0759 7.77012 38.1159 7.80012 38.1159 7.86012ZM45.0136 4.93512C45.0136 4.82512 45.0136 4.71512 45.0136 4.60512C45.0136 4.48512 45.0086 4.37012 44.9986 4.26012C44.9786 3.85012 44.8886 3.44012 44.7286 3.03012C44.5686 2.61012 44.3336 2.26012 44.0236 1.98012C43.7136 1.69012 43.3236 1.54512 42.8536 1.54512C42.3236 1.54512 41.9036 1.69012 41.5936 1.98012C41.2836 2.27012 41.0586 2.63512 40.9186 3.07512C40.7886 3.51512 40.7236 3.96012 40.7236 4.41012C40.7236 4.75012 40.7436 5.10012 40.7836 5.46012C40.8236 5.81012 40.9086 6.14012 41.0386 6.45012C41.1686 6.75012 41.3636 6.99512 41.6236 7.18512C41.8836 7.36512 42.2286 7.45512 42.6586 7.45512C42.8786 7.45512 43.1286 7.41512 43.4086 7.33512C43.6986 7.25512 43.9686 7.14012 44.2186 6.99012C44.4686 6.84012 44.6536 6.66512 44.7736 6.46512C44.9136 6.23512 44.9886 5.99012 44.9986 5.73012C45.0086 5.46012 45.0136 5.19512 45.0136 4.93512ZM46.4686 5.64012C46.4686 5.98012 46.4236 6.34512 46.3336 6.73512C46.2536 7.11512 46.1536 7.46512 46.0336 7.78512C45.5236 9.15512 44.7686 10.2501 43.7686 11.0701C42.7686 11.8901 41.5686 12.4901 40.1686 12.8701C40.1586 12.8701 40.1486 12.8701 40.1386 12.8701C40.1386 12.8701 40.1336 12.8701 40.1236 12.8701C40.0336 12.8701 39.9886 12.8301 39.9886 12.7501C39.9886 12.7001 40.0086 12.6651 40.0486 12.6451C40.0886 12.6251 40.1286 12.6101 40.1686 12.6001C40.6286 12.4001 41.0836 12.1851 41.5336 11.9551C41.9836 11.7251 42.3836 11.4301 42.7336 11.0701C43.0536 10.7501 43.3586 10.3751 43.6486 9.94512C43.9486 9.51512 44.2036 9.06512 44.4136 8.59512C44.6236 8.11512 44.7486 7.65012 44.7886 7.20012C44.4386 7.43012 44.0636 7.62012 43.6636 7.77012C43.2636 7.92012 42.8486 7.99512 42.4186 7.99512C41.7686 7.99512 41.2036 7.86512 40.7236 7.60512C40.2436 7.33512 39.8686 6.96012 39.5986 6.48012C39.3386 5.99012 39.2086 5.42012 39.2086 4.77012C39.2086 3.98012 39.3736 3.31512 39.7036 2.77512C40.0336 2.23512 40.4886 1.82512 41.0686 1.54512C41.6586 1.26512 42.3286 1.12512 43.0786 1.12512C43.6186 1.12512 44.1136 1.26012 44.5636 1.53012C45.0136 1.80012 45.3936 2.15512 45.7036 2.59512C46.0136 3.02512 46.2236 3.49012 46.3336 3.99012C46.3936 4.26012 46.4286 4.53512 46.4386 4.81512C46.4586 5.08512 46.4686 5.36012 46.4686 5.64012ZM50.9963 11.3551C50.9963 11.6351 50.9363 11.9501 50.8163 12.3001C50.6963 12.6601 50.5413 13.0001 50.3513 13.3201C50.1713 13.6401 49.9763 13.9001 49.7663 14.1001L49.4963 14.0101C49.6663 13.7301 49.8113 13.3751 49.9313 12.9451C50.0513 12.5151 50.1113 12.1351 50.1113 11.8051V11.7451C49.9313 11.8951 49.7313 11.9701 49.5113 11.9701C49.3413 11.9701 49.1863 11.8801 49.0463 11.7001C48.9063 11.5101 48.8363 11.3351 48.8363 11.1751C48.8363 10.8451 48.9313 10.5651 49.1213 10.3351C49.3113 10.1051 49.5763 9.99012 49.9163 9.99012C50.3263 9.99012 50.6063 10.1301 50.7563 10.4101C50.9163 10.6801 50.9963 10.9951 50.9963 11.3551ZM59.0604 6.69012C59.0604 6.40012 59.0504 6.04512 59.0304 5.62512C59.0204 5.19512 58.9854 4.74512 58.9254 4.27512C58.8654 3.80512 58.7604 3.36512 58.6104 2.95512C58.4604 2.54512 58.2554 2.21512 57.9954 1.96512C57.7354 1.70512 57.3954 1.57512 56.9754 1.57512C56.5954 1.57512 56.2754 1.71012 56.0154 1.98012C55.7554 2.24012 55.5454 2.58512 55.3854 3.01512C55.2254 3.43512 55.1004 3.88512 55.0104 4.36512C54.9304 4.83512 54.8754 5.29012 54.8454 5.73012C54.8154 6.16012 54.8004 6.51012 54.8004 6.78012C54.8004 7.05012 54.8104 7.39012 54.8304 7.80012C54.8604 8.20012 54.9104 8.62512 54.9804 9.07512C55.0504 9.51512 55.1604 9.93012 55.3104 10.3201C55.4704 10.7101 55.6754 11.0301 55.9254 11.2801C56.1754 11.5201 56.4904 11.6401 56.8704 11.6401C57.2704 11.6401 57.6004 11.5201 57.8604 11.2801C58.1204 11.0301 58.3304 10.7101 58.4904 10.3201C58.6504 9.92012 58.7704 9.49512 58.8504 9.04512C58.9404 8.58512 58.9954 8.15012 59.0154 7.74012C59.0454 7.32012 59.0604 6.97012 59.0604 6.69012ZM60.6204 6.49512C60.6204 6.95512 60.5754 7.44012 60.4854 7.95012C60.4054 8.46012 60.2754 8.96012 60.0954 9.45012C59.9154 9.94012 59.6754 10.3851 59.3754 10.7851C59.0854 11.1851 58.7304 11.5051 58.3104 11.7451C57.8904 11.9751 57.4004 12.0901 56.8404 12.0901C56.1704 12.0901 55.6054 11.9251 55.1454 11.5951C54.6954 11.2551 54.3354 10.8201 54.0654 10.2901C53.7954 9.76012 53.6004 9.19512 53.4804 8.59512C53.3604 7.98512 53.3004 7.41012 53.3004 6.87012C53.3004 6.41012 53.3404 5.92012 53.4204 5.40012C53.5004 4.87012 53.6304 4.35512 53.8104 3.85512C53.9904 3.35512 54.2254 2.90012 54.5154 2.49012C54.8154 2.08012 55.1754 1.75512 55.5954 1.51512C56.0254 1.26512 56.5254 1.14012 57.0954 1.14012C57.6354 1.14012 58.1004 1.25512 58.4904 1.48512C58.8904 1.71512 59.2254 2.02012 59.4954 2.40012C59.7754 2.78012 59.9954 3.20512 60.1554 3.67512C60.3154 4.14512 60.4304 4.62512 60.5004 5.11512C60.5804 5.59512 60.6204 6.05512 60.6204 6.49512ZM67.9081 6.69012C67.9081 6.40012 67.8981 6.04512 67.8781 5.62512C67.8681 5.19512 67.8331 4.74512 67.7731 4.27512C67.7131 3.80512 67.6081 3.36512 67.4581 2.95512C67.3081 2.54512 67.1031 2.21512 66.8431 1.96512C66.5831 1.70512 66.2431 1.57512 65.8231 1.57512C65.4431 1.57512 65.1231 1.71012 64.8631 1.98012C64.6031 2.24012 64.3931 2.58512 64.2331 3.01512C64.0731 3.43512 63.9481 3.88512 63.8581 4.36512C63.7781 4.83512 63.7231 5.29012 63.6931 5.73012C63.6631 6.16012 63.6481 6.51012 63.6481 6.78012C63.6481 7.05012 63.6581 7.39012 63.6781 7.80012C63.7081 8.20012 63.7581 8.62512 63.8281 9.07512C63.8981 9.51512 64.0081 9.93012 64.1581 10.3201C64.3181 10.7101 64.5231 11.0301 64.7731 11.2801C65.0231 11.5201 65.3381 11.6401 65.7181 11.6401C66.1181 11.6401 66.4481 11.5201 66.7081 11.2801C66.9681 11.0301 67.1781 10.7101 67.3381 10.3201C67.4981 9.92012 67.6181 9.49512 67.6981 9.04512C67.7881 8.58512 67.8431 8.15012 67.8631 7.74012C67.8931 7.32012 67.9081 6.97012 67.9081 6.69012ZM69.4681 6.49512C69.4681 6.95512 69.4231 7.44012 69.3331 7.95012C69.2531 8.46012 69.1231 8.96012 68.9431 9.45012C68.7631 9.94012 68.5231 10.3851 68.2231 10.7851C67.9331 11.1851 67.5781 11.5051 67.1581 11.7451C66.7381 11.9751 66.2481 12.0901 65.6881 12.0901C65.0181 12.0901 64.4531 11.9251 63.9931 11.5951C63.5431 11.2551 63.1831 10.8201 62.9131 10.2901C62.6431 9.76012 62.4481 9.19512 62.3281 8.59512C62.2081 7.98512 62.1481 7.41012 62.1481 6.87012C62.1481 6.41012 62.1881 5.92012 62.2681 5.40012C62.3481 4.87012 62.4781 4.35512 62.6581 3.85512C62.8381 3.35512 63.0731 2.90012 63.3631 2.49012C63.6631 2.08012 64.0231 1.75512 64.4431 1.51512C64.8731 1.26512 65.3731 1.14012 65.9431 1.14012C66.4831 1.14012 66.9481 1.25512 67.3381 1.48512C67.7381 1.71512 68.0731 2.02012 68.3431 2.40012C68.6231 2.78012 68.8431 3.20512 69.0031 3.67512C69.1631 4.14512 69.2781 4.62512 69.3481 5.11512C69.4281 5.59512 69.4681 6.05512 69.4681 6.49512Z" fill="#3CA67B"/>
</svg>
