<svg width="122" height="14" viewBox="0 0 122 14" fill="none" xmlns="http://www.w3.org/2000/svg">
<path d="M8.358 7.19598H4.522V10.962H3.822V7.19598H-2.83122e-06V6.50998H3.822V2.84198H4.522V6.50998H8.358V7.19598ZM16.968 8.30198C16.968 8.74065 16.8793 9.20731 16.702 9.70198C16.5247 10.1966 16.268 10.5933 15.932 10.892C15.5587 11.2186 15.1107 11.4706 14.588 11.648C14.0653 11.8253 13.5567 11.914 13.062 11.914C12.8287 11.914 12.5487 11.886 12.222 11.83C11.8953 11.7646 11.5733 11.6713 11.256 11.55C10.9387 11.4193 10.6727 11.2513 10.458 11.046C10.2433 10.8313 10.136 10.5746 10.136 10.276C10.136 10.0706 10.206 9.91198 10.346 9.79998C10.486 9.67865 10.654 9.61798 10.85 9.61798C11.018 9.61798 11.1673 9.65998 11.298 9.74398C11.4287 9.82798 11.4987 9.96331 11.508 10.15C11.5453 10.5793 11.6667 10.9106 11.872 11.144C12.0867 11.3773 12.4227 11.494 12.88 11.494C13.524 11.494 14.0467 11.3446 14.448 11.046C14.8493 10.738 15.148 10.276 15.344 9.65998C15.4093 9.44531 15.4467 9.22598 15.456 9.00198C15.4747 8.76865 15.484 8.53998 15.484 8.31598C15.484 8.00798 15.4467 7.67664 15.372 7.32198C15.3067 6.95798 15.1807 6.64998 14.994 6.39798C14.8353 6.18331 14.63 6.03864 14.378 5.96398C14.1353 5.88931 13.8833 5.85198 13.622 5.85198C13.4167 5.85198 13.1927 5.88931 12.95 5.96398C12.7073 6.02931 12.5067 6.12731 12.348 6.25798C12.1893 6.38864 12.0447 6.55664 11.914 6.76198C11.7833 6.95798 11.7087 7.16331 11.69 7.37798C11.6807 7.43398 11.6713 7.50398 11.662 7.58798C11.6527 7.67198 11.606 7.71398 11.522 7.71398C11.4753 7.71398 11.3773 7.69531 11.228 7.65798C11.088 7.61131 10.9527 7.55998 10.822 7.50398C10.7007 7.43864 10.64 7.38265 10.64 7.33598C10.64 7.30798 10.6447 7.27998 10.654 7.25198C10.6633 7.22398 10.6727 7.19598 10.682 7.16798C10.7473 6.95331 10.7987 6.68731 10.836 6.36998C10.8827 6.04331 10.9153 5.70264 10.934 5.34798C10.9527 4.98398 10.9667 4.63398 10.976 4.29798C10.9853 3.96198 10.99 3.67731 10.99 3.44398C10.99 2.89331 10.962 2.33798 10.906 1.77798C11.1953 1.81531 11.48 1.84331 11.76 1.86198C12.0493 1.88064 12.3387 1.88998 12.628 1.88998H14.63C14.8727 1.88998 15.1527 1.87598 15.47 1.84798C15.7967 1.81998 16.0673 1.74531 16.282 1.62398C16.3287 1.59598 16.38 1.56798 16.436 1.53998C16.5013 1.50264 16.5573 1.48398 16.604 1.48398C16.632 1.48398 16.674 1.48864 16.73 1.49798C16.786 1.49798 16.814 1.52131 16.814 1.56798C16.814 1.61465 16.7813 1.71264 16.716 1.86198C16.6507 2.00198 16.5807 2.14664 16.506 2.29598C16.4313 2.44531 16.38 2.54331 16.352 2.58998C16.3147 2.65531 16.268 2.69731 16.212 2.71598C16.156 2.73464 16.0907 2.74398 16.016 2.74398C15.8947 2.74398 15.7687 2.74398 15.638 2.74398C15.5167 2.73465 15.3907 2.72531 15.26 2.71598C15.1013 2.69731 14.938 2.69264 14.77 2.70198C14.602 2.70198 14.4387 2.70198 14.28 2.70198C14.0187 2.70198 13.7573 2.70198 13.496 2.70198C13.2347 2.69264 12.9687 2.68798 12.698 2.68798C12.5393 2.68798 12.376 2.68798 12.208 2.68798C12.0493 2.68798 11.8907 2.69264 11.732 2.70198C11.7227 3.28998 11.6993 3.88265 11.662 4.47998C11.634 5.06798 11.606 5.65598 11.578 6.24398C12.0073 5.94531 12.404 5.72598 12.768 5.58598C13.1413 5.43665 13.5893 5.36198 14.112 5.36198C14.4667 5.36198 14.8073 5.41331 15.134 5.51598C15.47 5.61864 15.7687 5.79131 16.03 6.03398C16.3287 6.31398 16.5573 6.65931 16.716 7.06998C16.884 7.48065 16.968 7.89131 16.968 8.30198ZM25.2258 8.30198C25.2258 8.74065 25.1371 9.20731 24.9598 9.70198C24.7825 10.1966 24.5258 10.5933 24.1898 10.892C23.8165 11.2186 23.3685 11.4706 22.8458 11.648C22.3231 11.8253 21.8145 11.914 21.3198 11.914C21.0865 11.914 20.8065 11.886 20.4798 11.83C20.1531 11.7646 19.8311 11.6713 19.5138 11.55C19.1965 11.4193 18.9305 11.2513 18.7158 11.046C18.5011 10.8313 18.3938 10.5746 18.3938 10.276C18.3938 10.0706 18.4638 9.91198 18.6038 9.79998C18.7438 9.67865 18.9118 9.61798 19.1078 9.61798C19.2758 9.61798 19.4251 9.65998 19.5558 9.74398C19.6865 9.82798 19.7565 9.96331 19.7658 10.15C19.8031 10.5793 19.9245 10.9106 20.1298 11.144C20.3445 11.3773 20.6805 11.494 21.1378 11.494C21.7818 11.494 22.3045 11.3446 22.7058 11.046C23.1071 10.738 23.4058 10.276 23.6018 9.65998C23.6671 9.44531 23.7045 9.22598 23.7138 9.00198C23.7325 8.76865 23.7418 8.53998 23.7418 8.31598C23.7418 8.00798 23.7045 7.67664 23.6298 7.32198C23.5645 6.95798 23.4385 6.64998 23.2518 6.39798C23.0931 6.18331 22.8878 6.03864 22.6358 5.96398C22.3931 5.88931 22.1411 5.85198 21.8798 5.85198C21.6745 5.85198 21.4505 5.88931 21.2078 5.96398C20.9651 6.02931 20.7645 6.12731 20.6058 6.25798C20.4471 6.38864 20.3025 6.55664 20.1718 6.76198C20.0411 6.95798 19.9665 7.16331 19.9478 7.37798C19.9385 7.43398 19.9291 7.50398 19.9198 7.58798C19.9105 7.67198 19.8638 7.71398 19.7798 7.71398C19.7331 7.71398 19.6351 7.69531 19.4858 7.65798C19.3458 7.61131 19.2105 7.55998 19.0798 7.50398C18.9585 7.43864 18.8978 7.38265 18.8978 7.33598C18.8978 7.30798 18.9025 7.27998 18.9118 7.25198C18.9211 7.22398 18.9305 7.19598 18.9398 7.16798C19.0051 6.95331 19.0565 6.68731 19.0938 6.36998C19.1405 6.04331 19.1731 5.70264 19.1918 5.34798C19.2105 4.98398 19.2245 4.63398 19.2338 4.29798C19.2431 3.96198 19.2478 3.67731 19.2478 3.44398C19.2478 2.89331 19.2198 2.33798 19.1638 1.77798C19.4531 1.81531 19.7378 1.84331 20.0178 1.86198C20.3071 1.88064 20.5965 1.88998 20.8858 1.88998H22.8878C23.1305 1.88998 23.4105 1.87598 23.7278 1.84798C24.0545 1.81998 24.3251 1.74531 24.5398 1.62398C24.5865 1.59598 24.6378 1.56798 24.6938 1.53998C24.7591 1.50264 24.8151 1.48398 24.8618 1.48398C24.8898 1.48398 24.9318 1.48864 24.9878 1.49798C25.0438 1.49798 25.0718 1.52131 25.0718 1.56798C25.0718 1.61465 25.0391 1.71264 24.9738 1.86198C24.9085 2.00198 24.8385 2.14664 24.7638 2.29598C24.6891 2.44531 24.6378 2.54331 24.6098 2.58998C24.5725 2.65531 24.5258 2.69731 24.4698 2.71598C24.4138 2.73464 24.3485 2.74398 24.2738 2.74398C24.1525 2.74398 24.0265 2.74398 23.8958 2.74398C23.7745 2.73465 23.6485 2.72531 23.5178 2.71598C23.3591 2.69731 23.1958 2.69264 23.0278 2.70198C22.8598 2.70198 22.6965 2.70198 22.5378 2.70198C22.2765 2.70198 22.0151 2.70198 21.7538 2.70198C21.4925 2.69264 21.2265 2.68798 20.9558 2.68798C20.7971 2.68798 20.6338 2.68798 20.4658 2.68798C20.3071 2.68798 20.1485 2.69264 19.9898 2.70198C19.9805 3.28998 19.9571 3.88265 19.9198 4.47998C19.8918 5.06798 19.8638 5.65598 19.8358 6.24398C20.2651 5.94531 20.6618 5.72598 21.0258 5.58598C21.3991 5.43665 21.8471 5.36198 22.3698 5.36198C22.7245 5.36198 23.0651 5.41331 23.3918 5.51598C23.7278 5.61864 24.0265 5.79131 24.2878 6.03398C24.5865 6.31398 24.8151 6.65931 24.9738 7.06998C25.1418 7.48065 25.2258 7.89131 25.2258 8.30198ZM34.8976 13.496C33.6843 12.7866 32.793 11.858 32.2236 10.71C31.6543 9.55265 31.3696 8.28331 31.3696 6.90198C31.3696 5.46464 31.6496 4.15331 32.2096 2.96798C32.779 1.77331 33.675 0.783978 34.8976 -2.22921e-05L35.0376 0.307978C34.3936 0.793311 33.8803 1.39998 33.4976 2.12798C33.1243 2.84664 32.8536 3.61664 32.6856 4.43798C32.527 5.24998 32.4476 6.04331 32.4476 6.81798C32.4476 7.37798 32.4943 7.96131 32.5876 8.56798C32.681 9.16531 32.8303 9.75331 33.0356 10.332C33.241 10.9013 33.5116 11.4333 33.8476 11.928C34.1836 12.4133 34.5943 12.8333 35.0796 13.188L34.8976 13.496ZM41.2144 4.88598C41.2144 5.00731 41.1724 5.10531 41.0884 5.17998C41.0044 5.25464 40.9017 5.29198 40.7804 5.29198C40.6684 5.29198 40.561 5.24998 40.4584 5.16598C40.197 4.95131 39.9404 4.73198 39.6884 4.50798C39.4457 4.28398 39.1937 4.06931 38.9324 3.86398C38.9697 4.09731 39.0117 4.33065 39.0584 4.56398C39.105 4.79731 39.1517 5.03064 39.1984 5.26398C39.217 5.35731 39.2404 5.45998 39.2684 5.57198C39.2964 5.67464 39.315 5.77731 39.3244 5.87998C39.3244 5.89865 39.3244 5.92198 39.3244 5.94998C39.3244 5.97798 39.3244 6.00131 39.3244 6.01998C39.3244 6.13198 39.2824 6.23464 39.1984 6.32798C39.1144 6.41198 39.0164 6.45398 38.9044 6.45398C38.7737 6.45398 38.6664 6.40731 38.5824 6.31398C38.5077 6.22064 38.4704 6.11331 38.4704 5.99198C38.4704 5.90798 38.4844 5.82398 38.5124 5.73998C38.5497 5.64664 38.573 5.55798 38.5824 5.47398C38.629 5.20331 38.6757 4.93731 38.7224 4.67598C38.769 4.40531 38.8017 4.13931 38.8204 3.87798C38.531 4.08331 38.265 4.30731 38.0224 4.54998C37.7797 4.79264 37.523 5.02131 37.2524 5.23598C37.1684 5.30131 37.0844 5.33398 37.0004 5.33398C36.8884 5.33398 36.7857 5.29664 36.6924 5.22198C36.6084 5.14731 36.5664 5.04931 36.5664 4.92798C36.5664 4.83464 36.5897 4.74598 36.6364 4.66198C36.683 4.57798 36.753 4.52198 36.8464 4.49398C37.173 4.39131 37.4997 4.28864 37.8264 4.18598C38.153 4.07398 38.4704 3.93398 38.7784 3.76598C38.5637 3.66331 38.3444 3.56998 38.1204 3.48598C37.8964 3.39264 37.6724 3.31331 37.4484 3.24798C37.3457 3.20131 37.2384 3.16398 37.1264 3.13598C37.0144 3.10798 36.907 3.07531 36.8044 3.03798C36.7297 3.00998 36.669 2.95864 36.6224 2.88398C36.585 2.79998 36.5664 2.72064 36.5664 2.64598C36.5664 2.51531 36.6084 2.41731 36.6924 2.35198C36.7764 2.27731 36.879 2.23998 37.0004 2.23998C37.1217 2.23998 37.215 2.27264 37.2804 2.33798C37.411 2.44064 37.5324 2.55264 37.6444 2.67398C37.7657 2.79531 37.887 2.91198 38.0084 3.02398C38.139 3.13598 38.2697 3.24331 38.4004 3.34598C38.5404 3.44864 38.685 3.55131 38.8344 3.65398C38.797 3.30864 38.741 2.96798 38.6664 2.63198C38.5917 2.29598 38.5217 1.95531 38.4564 1.60998C38.4564 1.59131 38.4517 1.57731 38.4424 1.56798C38.4424 1.54931 38.4424 1.53531 38.4424 1.52598C38.4424 1.41398 38.4844 1.31598 38.5684 1.23198C38.6617 1.13864 38.7644 1.09198 38.8764 1.09198C38.9977 1.09198 39.1004 1.14331 39.1844 1.24598C39.2684 1.33931 39.3104 1.44198 39.3104 1.55398C39.3104 1.56331 39.3057 1.57264 39.2964 1.58198C39.2964 1.58198 39.2964 1.58664 39.2964 1.59598C39.2124 1.93198 39.1424 2.27731 39.0864 2.63198C39.0304 2.97731 38.979 3.31798 38.9324 3.65398C39.2124 3.44864 39.4737 3.22931 39.7164 2.99598C39.9684 2.76264 40.225 2.53864 40.4864 2.32398C40.5797 2.24931 40.673 2.21198 40.7664 2.21198C40.8784 2.21198 40.9764 2.24931 41.0604 2.32398C41.1444 2.39864 41.1864 2.49664 41.1864 2.61798C41.1864 2.81398 41.107 2.94931 40.9484 3.02398C40.911 3.02398 40.799 3.06131 40.6124 3.13598C40.435 3.20131 40.2297 3.28064 39.9964 3.37398C39.7724 3.46731 39.5624 3.55131 39.3664 3.62598C39.1797 3.70064 39.0584 3.75198 39.0024 3.77998C39.2264 3.88264 39.455 3.98064 39.6884 4.07398C39.931 4.15798 40.169 4.23731 40.4024 4.31198C40.4957 4.33998 40.589 4.36798 40.6824 4.39598C40.785 4.42398 40.8784 4.45664 40.9624 4.49398C41.1304 4.57798 41.2144 4.70864 41.2144 4.88598ZM47.5171 4.88598C47.5171 5.00731 47.4751 5.10531 47.3911 5.17998C47.3071 5.25464 47.2044 5.29198 47.0831 5.29198C46.9711 5.29198 46.8638 5.24998 46.7611 5.16598C46.4998 4.95131 46.2431 4.73198 45.9911 4.50798C45.7484 4.28398 45.4964 4.06931 45.2351 3.86398C45.2724 4.09731 45.3144 4.33065 45.3611 4.56398C45.4078 4.79731 45.4544 5.03064 45.5011 5.26398C45.5198 5.35731 45.5431 5.45998 45.5711 5.57198C45.5991 5.67464 45.6178 5.77731 45.6271 5.87998C45.6271 5.89865 45.6271 5.92198 45.6271 5.94998C45.6271 5.97798 45.6271 6.00131 45.6271 6.01998C45.6271 6.13198 45.5851 6.23464 45.5011 6.32798C45.4171 6.41198 45.3191 6.45398 45.2071 6.45398C45.0764 6.45398 44.9691 6.40731 44.8851 6.31398C44.8104 6.22064 44.7731 6.11331 44.7731 5.99198C44.7731 5.90798 44.7871 5.82398 44.8151 5.73998C44.8524 5.64664 44.8758 5.55798 44.8851 5.47398C44.9318 5.20331 44.9784 4.93731 45.0251 4.67598C45.0718 4.40531 45.1044 4.13931 45.1231 3.87798C44.8338 4.08331 44.5678 4.30731 44.3251 4.54998C44.0824 4.79264 43.8258 5.02131 43.5551 5.23598C43.4711 5.30131 43.3871 5.33398 43.3031 5.33398C43.1911 5.33398 43.0884 5.29664 42.9951 5.22198C42.9111 5.14731 42.8691 5.04931 42.8691 4.92798C42.8691 4.83464 42.8924 4.74598 42.9391 4.66198C42.9858 4.57798 43.0558 4.52198 43.1491 4.49398C43.4758 4.39131 43.8024 4.28864 44.1291 4.18598C44.4558 4.07398 44.7731 3.93398 45.0811 3.76598C44.8664 3.66331 44.6471 3.56998 44.4231 3.48598C44.1991 3.39264 43.9751 3.31331 43.7511 3.24798C43.6484 3.20131 43.5411 3.16398 43.4291 3.13598C43.3171 3.10798 43.2098 3.07531 43.1071 3.03798C43.0324 3.00998 42.9718 2.95864 42.9251 2.88398C42.8878 2.79998 42.8691 2.72064 42.8691 2.64598C42.8691 2.51531 42.9111 2.41731 42.9951 2.35198C43.0791 2.27731 43.1818 2.23998 43.3031 2.23998C43.4244 2.23998 43.5178 2.27264 43.5831 2.33798C43.7138 2.44064 43.8351 2.55264 43.9471 2.67398C44.0684 2.79531 44.1898 2.91198 44.3111 3.02398C44.4418 3.13598 44.5724 3.24331 44.7031 3.34598C44.8431 3.44864 44.9878 3.55131 45.1371 3.65398C45.0998 3.30864 45.0438 2.96798 44.9691 2.63198C44.8944 2.29598 44.8244 1.95531 44.7591 1.60998C44.7591 1.59131 44.7544 1.57731 44.7451 1.56798C44.7451 1.54931 44.7451 1.53531 44.7451 1.52598C44.7451 1.41398 44.7871 1.31598 44.8711 1.23198C44.9644 1.13864 45.0671 1.09198 45.1791 1.09198C45.3004 1.09198 45.4031 1.14331 45.4871 1.24598C45.5711 1.33931 45.6131 1.44198 45.6131 1.55398C45.6131 1.56331 45.6084 1.57264 45.5991 1.58198C45.5991 1.58198 45.5991 1.58664 45.5991 1.59598C45.5151 1.93198 45.4451 2.27731 45.3891 2.63198C45.3331 2.97731 45.2818 3.31798 45.2351 3.65398C45.5151 3.44864 45.7764 3.22931 46.0191 2.99598C46.2711 2.76264 46.5278 2.53864 46.7891 2.32398C46.8824 2.24931 46.9758 2.21198 47.0691 2.21198C47.1811 2.21198 47.2791 2.24931 47.3631 2.32398C47.4471 2.39864 47.4891 2.49664 47.4891 2.61798C47.4891 2.81398 47.4098 2.94931 47.2511 3.02398C47.2138 3.02398 47.1018 3.06131 46.9151 3.13598C46.7378 3.20131 46.5324 3.28064 46.2991 3.37398C46.0751 3.46731 45.8651 3.55131 45.6691 3.62598C45.4824 3.70064 45.3611 3.75198 45.3051 3.77998C45.5291 3.88264 45.7578 3.98064 45.9911 4.07398C46.2338 4.15798 46.4718 4.23731 46.7051 4.31198C46.7984 4.33998 46.8918 4.36798 46.9851 4.39598C47.0878 4.42398 47.1811 4.45664 47.2651 4.49398C47.4331 4.57798 47.5171 4.70864 47.5171 4.88598ZM52.6158 6.90198C52.6158 8.28331 52.3312 9.55265 51.7618 10.71C51.2018 11.858 50.3152 12.7866 49.1018 13.496L48.9618 13.174C49.4378 12.8286 49.8392 12.4086 50.1658 11.914C50.4925 11.4193 50.7585 10.8873 50.9638 10.318C51.1692 9.73931 51.3138 9.15131 51.3978 8.55398C51.4912 7.94731 51.5378 7.36864 51.5378 6.81798C51.5378 6.04331 51.4538 5.24998 51.2858 4.43798C51.1272 3.61664 50.8565 2.84664 50.4738 2.12798C50.1005 1.39998 49.5918 0.793311 48.9478 0.307978L49.0878 -2.22921e-05C50.3105 0.783978 51.2018 1.77331 51.7618 2.96798C52.3312 4.15331 52.6158 5.46464 52.6158 6.90198ZM63.6226 4.88598C63.6226 5.00731 63.5806 5.10531 63.4966 5.17998C63.4126 5.25464 63.3099 5.29198 63.1886 5.29198C63.0766 5.29198 62.9692 5.24998 62.8666 5.16598C62.6052 4.95131 62.3486 4.73198 62.0966 4.50798C61.8539 4.28398 61.6019 4.06931 61.3406 3.86398C61.3779 4.09731 61.4199 4.33065 61.4666 4.56398C61.5132 4.79731 61.5599 5.03064 61.6066 5.26398C61.6252 5.35731 61.6486 5.45998 61.6766 5.57198C61.7046 5.67464 61.7232 5.77731 61.7326 5.87998C61.7326 5.89865 61.7326 5.92198 61.7326 5.94998C61.7326 5.97798 61.7326 6.00131 61.7326 6.01998C61.7326 6.13198 61.6906 6.23464 61.6066 6.32798C61.5226 6.41198 61.4246 6.45398 61.3126 6.45398C61.1819 6.45398 61.0746 6.40731 60.9906 6.31398C60.9159 6.22064 60.8786 6.11331 60.8786 5.99198C60.8786 5.90798 60.8926 5.82398 60.9206 5.73998C60.9579 5.64664 60.9812 5.55798 60.9906 5.47398C61.0372 5.20331 61.0839 4.93731 61.1306 4.67598C61.1772 4.40531 61.2099 4.13931 61.2286 3.87798C60.9392 4.08331 60.6732 4.30731 60.4306 4.54998C60.1879 4.79264 59.9312 5.02131 59.6606 5.23598C59.5766 5.30131 59.4926 5.33398 59.4086 5.33398C59.2966 5.33398 59.1939 5.29664 59.1006 5.22198C59.0166 5.14731 58.9746 5.04931 58.9746 4.92798C58.9746 4.83464 58.9979 4.74598 59.0446 4.66198C59.0912 4.57798 59.1612 4.52198 59.2546 4.49398C59.5812 4.39131 59.9079 4.28864 60.2346 4.18598C60.5612 4.07398 60.8786 3.93398 61.1866 3.76598C60.9719 3.66331 60.7526 3.56998 60.5286 3.48598C60.3046 3.39264 60.0806 3.31331 59.8566 3.24798C59.7539 3.20131 59.6466 3.16398 59.5346 3.13598C59.4226 3.10798 59.3152 3.07531 59.2126 3.03798C59.1379 3.00998 59.0772 2.95864 59.0306 2.88398C58.9932 2.79998 58.9746 2.72064 58.9746 2.64598C58.9746 2.51531 59.0166 2.41731 59.1006 2.35198C59.1846 2.27731 59.2872 2.23998 59.4086 2.23998C59.5299 2.23998 59.6232 2.27264 59.6886 2.33798C59.8192 2.44064 59.9406 2.55264 60.0526 2.67398C60.1739 2.79531 60.2952 2.91198 60.4166 3.02398C60.5472 3.13598 60.6779 3.24331 60.8086 3.34598C60.9486 3.44864 61.0932 3.55131 61.2426 3.65398C61.2052 3.30864 61.1492 2.96798 61.0746 2.63198C60.9999 2.29598 60.9299 1.95531 60.8646 1.60998C60.8646 1.59131 60.8599 1.57731 60.8506 1.56798C60.8506 1.54931 60.8506 1.53531 60.8506 1.52598C60.8506 1.41398 60.8926 1.31598 60.9766 1.23198C61.0699 1.13864 61.1726 1.09198 61.2846 1.09198C61.4059 1.09198 61.5086 1.14331 61.5926 1.24598C61.6766 1.33931 61.7186 1.44198 61.7186 1.55398C61.7186 1.56331 61.7139 1.57264 61.7046 1.58198C61.7046 1.58198 61.7046 1.58664 61.7046 1.59598C61.6206 1.93198 61.5506 2.27731 61.4946 2.63198C61.4386 2.97731 61.3872 3.31798 61.3406 3.65398C61.6206 3.44864 61.8819 3.22931 62.1246 2.99598C62.3766 2.76264 62.6332 2.53864 62.8946 2.32398C62.9879 2.24931 63.0812 2.21198 63.1746 2.21198C63.2866 2.21198 63.3846 2.24931 63.4686 2.32398C63.5526 2.39864 63.5946 2.49664 63.5946 2.61798C63.5946 2.81398 63.5152 2.94931 63.3566 3.02398C63.3192 3.02398 63.2072 3.06131 63.0206 3.13598C62.8432 3.20131 62.6379 3.28064 62.4046 3.37398C62.1806 3.46731 61.9706 3.55131 61.7746 3.62598C61.5879 3.70064 61.4666 3.75198 61.4106 3.77998C61.6346 3.88264 61.8632 3.98064 62.0966 4.07398C62.3392 4.15798 62.5772 4.23731 62.8106 4.31198C62.9039 4.33998 62.9972 4.36798 63.0906 4.39598C63.1932 4.42398 63.2866 4.45664 63.3706 4.49398C63.5386 4.57798 63.6226 4.70864 63.6226 4.88598ZM69.9253 4.88598C69.9253 5.00731 69.8833 5.10531 69.7993 5.17998C69.7153 5.25464 69.6126 5.29198 69.4913 5.29198C69.3793 5.29198 69.272 5.24998 69.1693 5.16598C68.908 4.95131 68.6513 4.73198 68.3993 4.50798C68.1566 4.28398 67.9046 4.06931 67.6433 3.86398C67.6806 4.09731 67.7226 4.33065 67.7693 4.56398C67.816 4.79731 67.8626 5.03064 67.9093 5.26398C67.928 5.35731 67.9513 5.45998 67.9793 5.57198C68.0073 5.67464 68.026 5.77731 68.0353 5.87998C68.0353 5.89865 68.0353 5.92198 68.0353 5.94998C68.0353 5.97798 68.0353 6.00131 68.0353 6.01998C68.0353 6.13198 67.9933 6.23464 67.9093 6.32798C67.8253 6.41198 67.7273 6.45398 67.6153 6.45398C67.4846 6.45398 67.3773 6.40731 67.2933 6.31398C67.2186 6.22064 67.1813 6.11331 67.1813 5.99198C67.1813 5.90798 67.1953 5.82398 67.2233 5.73998C67.2606 5.64664 67.284 5.55798 67.2933 5.47398C67.34 5.20331 67.3866 4.93731 67.4333 4.67598C67.48 4.40531 67.5126 4.13931 67.5313 3.87798C67.242 4.08331 66.976 4.30731 66.7333 4.54998C66.4906 4.79264 66.234 5.02131 65.9633 5.23598C65.8793 5.30131 65.7953 5.33398 65.7113 5.33398C65.5993 5.33398 65.4966 5.29664 65.4033 5.22198C65.3193 5.14731 65.2773 5.04931 65.2773 4.92798C65.2773 4.83464 65.3006 4.74598 65.3473 4.66198C65.394 4.57798 65.464 4.52198 65.5573 4.49398C65.884 4.39131 66.2106 4.28864 66.5373 4.18598C66.864 4.07398 67.1813 3.93398 67.4893 3.76598C67.2746 3.66331 67.0553 3.56998 66.8313 3.48598C66.6073 3.39264 66.3833 3.31331 66.1593 3.24798C66.0566 3.20131 65.9493 3.16398 65.8373 3.13598C65.7253 3.10798 65.618 3.07531 65.5153 3.03798C65.4406 3.00998 65.38 2.95864 65.3333 2.88398C65.296 2.79998 65.2773 2.72064 65.2773 2.64598C65.2773 2.51531 65.3193 2.41731 65.4033 2.35198C65.4873 2.27731 65.59 2.23998 65.7113 2.23998C65.8326 2.23998 65.926 2.27264 65.9913 2.33798C66.122 2.44064 66.2433 2.55264 66.3553 2.67398C66.4766 2.79531 66.598 2.91198 66.7193 3.02398C66.85 3.13598 66.9806 3.24331 67.1113 3.34598C67.2513 3.44864 67.396 3.55131 67.5453 3.65398C67.508 3.30864 67.452 2.96798 67.3773 2.63198C67.3026 2.29598 67.2326 1.95531 67.1673 1.60998C67.1673 1.59131 67.1626 1.57731 67.1533 1.56798C67.1533 1.54931 67.1533 1.53531 67.1533 1.52598C67.1533 1.41398 67.1953 1.31598 67.2793 1.23198C67.3726 1.13864 67.4753 1.09198 67.5873 1.09198C67.7086 1.09198 67.8113 1.14331 67.8953 1.24598C67.9793 1.33931 68.0213 1.44198 68.0213 1.55398C68.0213 1.56331 68.0166 1.57264 68.0073 1.58198C68.0073 1.58198 68.0073 1.58664 68.0073 1.59598C67.9233 1.93198 67.8533 2.27731 67.7973 2.63198C67.7413 2.97731 67.69 3.31798 67.6433 3.65398C67.9233 3.44864 68.1846 3.22931 68.4273 2.99598C68.6793 2.76264 68.936 2.53864 69.1973 2.32398C69.2906 2.24931 69.384 2.21198 69.4773 2.21198C69.5893 2.21198 69.6873 2.24931 69.7713 2.32398C69.8553 2.39864 69.8973 2.49664 69.8973 2.61798C69.8973 2.81398 69.818 2.94931 69.6593 3.02398C69.622 3.02398 69.51 3.06131 69.3233 3.13598C69.146 3.20131 68.9406 3.28064 68.7073 3.37398C68.4833 3.46731 68.2733 3.55131 68.0773 3.62598C67.8906 3.70064 67.7693 3.75198 67.7133 3.77998C67.9373 3.88264 68.166 3.98064 68.3993 4.07398C68.642 4.15798 68.88 4.23731 69.1133 4.31198C69.2066 4.33998 69.3 4.36798 69.3933 4.39598C69.496 4.42398 69.5893 4.45664 69.6733 4.49398C69.8413 4.57798 69.9253 4.70864 69.9253 4.88598ZM76.228 4.88598C76.228 5.00731 76.186 5.10531 76.102 5.17998C76.018 5.25464 75.9154 5.29198 75.794 5.29198C75.682 5.29198 75.5747 5.24998 75.472 5.16598C75.2107 4.95131 74.954 4.73198 74.702 4.50798C74.4594 4.28398 74.2074 4.06931 73.946 3.86398C73.9834 4.09731 74.0254 4.33065 74.072 4.56398C74.1187 4.79731 74.1654 5.03064 74.212 5.26398C74.2307 5.35731 74.254 5.45998 74.282 5.57198C74.31 5.67464 74.3287 5.77731 74.338 5.87998C74.338 5.89865 74.338 5.92198 74.338 5.94998C74.338 5.97798 74.338 6.00131 74.338 6.01998C74.338 6.13198 74.296 6.23464 74.212 6.32798C74.128 6.41198 74.03 6.45398 73.918 6.45398C73.7874 6.45398 73.68 6.40731 73.596 6.31398C73.5214 6.22064 73.484 6.11331 73.484 5.99198C73.484 5.90798 73.498 5.82398 73.526 5.73998C73.5634 5.64664 73.5867 5.55798 73.596 5.47398C73.6427 5.20331 73.6894 4.93731 73.736 4.67598C73.7827 4.40531 73.8154 4.13931 73.834 3.87798C73.5447 4.08331 73.2787 4.30731 73.036 4.54998C72.7934 4.79264 72.5367 5.02131 72.266 5.23598C72.182 5.30131 72.098 5.33398 72.014 5.33398C71.902 5.33398 71.7994 5.29664 71.706 5.22198C71.622 5.14731 71.58 5.04931 71.58 4.92798C71.58 4.83464 71.6034 4.74598 71.65 4.66198C71.6967 4.57798 71.7667 4.52198 71.86 4.49398C72.1867 4.39131 72.5134 4.28864 72.84 4.18598C73.1667 4.07398 73.484 3.93398 73.792 3.76598C73.5774 3.66331 73.358 3.56998 73.134 3.48598C72.91 3.39264 72.686 3.31331 72.462 3.24798C72.3594 3.20131 72.252 3.16398 72.14 3.13598C72.028 3.10798 71.9207 3.07531 71.818 3.03798C71.7434 3.00998 71.6827 2.95864 71.636 2.88398C71.5987 2.79998 71.58 2.72064 71.58 2.64598C71.58 2.51531 71.622 2.41731 71.706 2.35198C71.79 2.27731 71.8927 2.23998 72.014 2.23998C72.1354 2.23998 72.2287 2.27264 72.294 2.33798C72.4247 2.44064 72.546 2.55264 72.658 2.67398C72.7794 2.79531 72.9007 2.91198 73.022 3.02398C73.1527 3.13598 73.2834 3.24331 73.414 3.34598C73.554 3.44864 73.6987 3.55131 73.848 3.65398C73.8107 3.30864 73.7547 2.96798 73.68 2.63198C73.6054 2.29598 73.5354 1.95531 73.47 1.60998C73.47 1.59131 73.4654 1.57731 73.456 1.56798C73.456 1.54931 73.456 1.53531 73.456 1.52598C73.456 1.41398 73.498 1.31598 73.582 1.23198C73.6754 1.13864 73.778 1.09198 73.89 1.09198C74.0114 1.09198 74.114 1.14331 74.198 1.24598C74.282 1.33931 74.324 1.44198 74.324 1.55398C74.324 1.56331 74.3194 1.57264 74.31 1.58198C74.31 1.58198 74.31 1.58664 74.31 1.59598C74.226 1.93198 74.156 2.27731 74.1 2.63198C74.044 2.97731 73.9927 3.31798 73.946 3.65398C74.226 3.44864 74.4874 3.22931 74.73 2.99598C74.982 2.76264 75.2387 2.53864 75.5 2.32398C75.5934 2.24931 75.6867 2.21198 75.78 2.21198C75.892 2.21198 75.99 2.24931 76.074 2.32398C76.158 2.39864 76.2 2.49664 76.2 2.61798C76.2 2.81398 76.1207 2.94931 75.962 3.02398C75.9247 3.02398 75.8127 3.06131 75.626 3.13598C75.4487 3.20131 75.2434 3.28064 75.01 3.37398C74.786 3.46731 74.576 3.55131 74.38 3.62598C74.1934 3.70064 74.072 3.75198 74.016 3.77998C74.24 3.88264 74.4687 3.98064 74.702 4.07398C74.9447 4.15798 75.1827 4.23731 75.416 4.31198C75.5094 4.33998 75.6027 4.36798 75.696 4.39598C75.7987 4.42398 75.892 4.45664 75.976 4.49398C76.144 4.57798 76.228 4.70864 76.228 4.88598ZM82.5308 4.88598C82.5308 5.00731 82.4888 5.10531 82.4048 5.17998C82.3208 5.25464 82.2181 5.29198 82.0968 5.29198C81.9848 5.29198 81.8774 5.24998 81.7748 5.16598C81.5134 4.95131 81.2568 4.73198 81.0048 4.50798C80.7621 4.28398 80.5101 4.06931 80.2488 3.86398C80.2861 4.09731 80.3281 4.33065 80.3748 4.56398C80.4214 4.79731 80.4681 5.03064 80.5148 5.26398C80.5334 5.35731 80.5568 5.45998 80.5848 5.57198C80.6128 5.67464 80.6314 5.77731 80.6408 5.87998C80.6408 5.89865 80.6408 5.92198 80.6408 5.94998C80.6408 5.97798 80.6408 6.00131 80.6408 6.01998C80.6408 6.13198 80.5988 6.23464 80.5148 6.32798C80.4308 6.41198 80.3328 6.45398 80.2208 6.45398C80.0901 6.45398 79.9828 6.40731 79.8988 6.31398C79.8241 6.22064 79.7868 6.11331 79.7868 5.99198C79.7868 5.90798 79.8008 5.82398 79.8288 5.73998C79.8661 5.64664 79.8894 5.55798 79.8988 5.47398C79.9454 5.20331 79.9921 4.93731 80.0388 4.67598C80.0854 4.40531 80.1181 4.13931 80.1368 3.87798C79.8474 4.08331 79.5814 4.30731 79.3388 4.54998C79.0961 4.79264 78.8394 5.02131 78.5688 5.23598C78.4848 5.30131 78.4008 5.33398 78.3168 5.33398C78.2048 5.33398 78.1021 5.29664 78.0088 5.22198C77.9248 5.14731 77.8828 5.04931 77.8828 4.92798C77.8828 4.83464 77.9061 4.74598 77.9528 4.66198C77.9994 4.57798 78.0694 4.52198 78.1628 4.49398C78.4894 4.39131 78.8161 4.28864 79.1428 4.18598C79.4694 4.07398 79.7868 3.93398 80.0948 3.76598C79.8801 3.66331 79.6608 3.56998 79.4368 3.48598C79.2128 3.39264 78.9888 3.31331 78.7648 3.24798C78.6621 3.20131 78.5548 3.16398 78.4428 3.13598C78.3308 3.10798 78.2234 3.07531 78.1208 3.03798C78.0461 3.00998 77.9854 2.95864 77.9388 2.88398C77.9014 2.79998 77.8828 2.72064 77.8828 2.64598C77.8828 2.51531 77.9248 2.41731 78.0088 2.35198C78.0928 2.27731 78.1954 2.23998 78.3168 2.23998C78.4381 2.23998 78.5314 2.27264 78.5968 2.33798C78.7274 2.44064 78.8488 2.55264 78.9608 2.67398C79.0821 2.79531 79.2034 2.91198 79.3248 3.02398C79.4554 3.13598 79.5861 3.24331 79.7168 3.34598C79.8568 3.44864 80.0014 3.55131 80.1508 3.65398C80.1134 3.30864 80.0574 2.96798 79.9828 2.63198C79.9081 2.29598 79.8381 1.95531 79.7728 1.60998C79.7728 1.59131 79.7681 1.57731 79.7588 1.56798C79.7588 1.54931 79.7588 1.53531 79.7588 1.52598C79.7588 1.41398 79.8008 1.31598 79.8848 1.23198C79.9781 1.13864 80.0808 1.09198 80.1928 1.09198C80.3141 1.09198 80.4168 1.14331 80.5008 1.24598C80.5848 1.33931 80.6268 1.44198 80.6268 1.55398C80.6268 1.56331 80.6221 1.57264 80.6128 1.58198C80.6128 1.58198 80.6128 1.58664 80.6128 1.59598C80.5288 1.93198 80.4588 2.27731 80.4028 2.63198C80.3468 2.97731 80.2954 3.31798 80.2488 3.65398C80.5288 3.44864 80.7901 3.22931 81.0328 2.99598C81.2848 2.76264 81.5414 2.53864 81.8028 2.32398C81.8961 2.24931 81.9894 2.21198 82.0828 2.21198C82.1948 2.21198 82.2928 2.24931 82.3768 2.32398C82.4608 2.39864 82.5028 2.49664 82.5028 2.61798C82.5028 2.81398 82.4234 2.94931 82.2648 3.02398C82.2274 3.02398 82.1154 3.06131 81.9288 3.13598C81.7514 3.20131 81.5461 3.28064 81.3128 3.37398C81.0888 3.46731 80.8788 3.55131 80.6828 3.62598C80.4961 3.70064 80.3748 3.75198 80.3188 3.77998C80.5428 3.88264 80.7714 3.98064 81.0048 4.07398C81.2474 4.15798 81.4854 4.23731 81.7188 4.31198C81.8121 4.33998 81.9054 4.36798 81.9988 4.39598C82.1014 4.42398 82.1948 4.45664 82.2788 4.49398C82.4468 4.57798 82.5308 4.70864 82.5308 4.88598ZM88.0075 7.83998H84.3255V7.01398H88.0075V7.83998ZM95.097 5.22198C95.097 5.11931 95.097 5.01664 95.097 4.91398C95.097 4.80198 95.0923 4.69464 95.083 4.59198C95.0643 4.20931 94.9803 3.82665 94.831 3.44398C94.6816 3.05198 94.4623 2.72531 94.173 2.46398C93.8836 2.19331 93.5196 2.05798 93.081 2.05798C92.5863 2.05798 92.1943 2.19331 91.905 2.46398C91.6156 2.73464 91.4056 3.07531 91.275 3.48598C91.1536 3.89664 91.093 4.31198 91.093 4.73198C91.093 5.04931 91.1116 5.37598 91.149 5.71198C91.1863 6.03864 91.2656 6.34664 91.387 6.63598C91.5083 6.91598 91.6903 7.14464 91.933 7.32198C92.1756 7.48998 92.4976 7.57398 92.899 7.57398C93.1043 7.57398 93.3376 7.53664 93.599 7.46198C93.8696 7.38731 94.1216 7.27998 94.355 7.13998C94.5883 6.99998 94.761 6.83664 94.873 6.64998C95.0036 6.43531 95.0736 6.20664 95.083 5.96398C95.0923 5.71198 95.097 5.46464 95.097 5.22198ZM96.455 5.87998C96.455 6.19731 96.413 6.53798 96.329 6.90198C96.2543 7.25664 96.161 7.58331 96.049 7.88198C95.573 9.16065 94.8683 10.1826 93.935 10.948C93.0016 11.7133 91.8816 12.2733 90.575 12.628C90.5656 12.628 90.5563 12.628 90.547 12.628C90.547 12.628 90.5423 12.628 90.533 12.628C90.449 12.628 90.407 12.5906 90.407 12.516C90.407 12.4693 90.4256 12.4366 90.463 12.418C90.5003 12.3993 90.5376 12.3853 90.575 12.376C91.0043 12.1893 91.429 11.9886 91.849 11.774C92.269 11.5593 92.6423 11.284 92.969 10.948C93.2676 10.6493 93.5523 10.2993 93.823 9.89798C94.103 9.49665 94.341 9.07665 94.537 8.63798C94.733 8.18998 94.8496 7.75598 94.887 7.33598C94.5603 7.55065 94.2103 7.72798 93.837 7.86798C93.4636 8.00798 93.0763 8.07798 92.675 8.07798C92.0683 8.07798 91.541 7.95664 91.093 7.71398C90.645 7.46198 90.295 7.11198 90.043 6.66398C89.8003 6.20664 89.679 5.67465 89.679 5.06798C89.679 4.33065 89.833 3.70998 90.141 3.20598C90.449 2.70198 90.8736 2.31931 91.415 2.05798C91.9656 1.79664 92.591 1.66598 93.291 1.66598C93.795 1.66598 94.257 1.79198 94.677 2.04398C95.097 2.29598 95.4516 2.62731 95.741 3.03798C96.0303 3.43931 96.2263 3.87331 96.329 4.33998C96.385 4.59198 96.4176 4.84864 96.427 5.10998C96.4456 5.36198 96.455 5.61865 96.455 5.87998ZM103.481 9.18398C103.481 8.76398 103.392 8.41398 103.215 8.13398C103.047 7.84464 102.823 7.60198 102.543 7.40598C102.263 7.20998 101.955 7.04665 101.619 6.91598C101.283 6.77598 100.951 6.64531 100.625 6.52398C100.121 6.81331 99.7194 7.18198 99.4208 7.62998C99.1221 8.06864 98.9728 8.58664 98.9728 9.18398C98.9728 9.95865 99.1594 10.542 99.5328 10.934C99.9061 11.326 100.48 11.522 101.255 11.522C101.703 11.522 102.09 11.4193 102.417 11.214C102.753 11.0086 103.014 10.7286 103.201 10.374C103.387 10.0193 103.481 9.62265 103.481 9.18398ZM103.215 3.80798C103.215 3.17331 103.037 2.70665 102.683 2.40798C102.337 2.09998 101.861 1.94598 101.255 1.94598C100.685 1.94598 100.242 2.10464 99.9248 2.42198C99.6074 2.72998 99.4488 3.16398 99.4488 3.72398C99.4488 4.16264 99.5561 4.52198 99.7708 4.80198C99.9854 5.08198 100.261 5.31064 100.597 5.48798C100.942 5.66531 101.292 5.81931 101.647 5.94998C102.085 5.75398 102.454 5.47398 102.753 5.10998C103.061 4.73665 103.215 4.30264 103.215 3.80798ZM104.867 8.70798C104.867 9.42665 104.689 10.0286 104.335 10.514C103.989 10.99 103.532 11.3493 102.963 11.592C102.393 11.8253 101.773 11.942 101.101 11.942C100.55 11.942 100.023 11.8486 99.5188 11.662C99.0241 11.466 98.6181 11.1673 98.3008 10.766C97.9928 10.3646 97.8388 9.85598 97.8388 9.23998C97.8388 8.72665 97.9554 8.29731 98.1888 7.95198C98.4314 7.59731 98.7348 7.29398 99.0988 7.04198C99.4721 6.78065 99.8548 6.54731 100.247 6.34198C99.9574 6.22064 99.6634 6.06198 99.3648 5.86598C99.0661 5.66998 98.8141 5.43198 98.6088 5.15198C98.4034 4.87198 98.3008 4.55464 98.3008 4.19998C98.3008 3.58398 98.4594 3.08464 98.7768 2.70198C99.0941 2.30998 99.5001 2.02531 99.9948 1.84798C100.489 1.67064 101.007 1.58198 101.549 1.58198C101.969 1.58198 102.389 1.65664 102.809 1.80598C103.229 1.95531 103.579 2.18398 103.859 2.49198C104.139 2.79998 104.279 3.19198 104.279 3.66798C104.279 4.09731 104.19 4.46598 104.013 4.77398C103.845 5.08198 103.611 5.34331 103.313 5.55798C103.014 5.77265 102.683 5.95931 102.319 6.11798C102.701 6.22998 103.089 6.40731 103.481 6.64998C103.873 6.88331 104.199 7.17264 104.461 7.51798C104.731 7.86331 104.867 8.25998 104.867 8.70798ZM111.613 5.22198C111.613 5.11931 111.613 5.01664 111.613 4.91398C111.613 4.80198 111.608 4.69464 111.599 4.59198C111.58 4.20931 111.496 3.82665 111.347 3.44398C111.197 3.05198 110.978 2.72531 110.689 2.46398C110.399 2.19331 110.035 2.05798 109.597 2.05798C109.102 2.05798 108.71 2.19331 108.421 2.46398C108.131 2.73464 107.921 3.07531 107.791 3.48598C107.669 3.89664 107.609 4.31198 107.609 4.73198C107.609 5.04931 107.627 5.37598 107.665 5.71198C107.702 6.03864 107.781 6.34664 107.903 6.63598C108.024 6.91598 108.206 7.14464 108.449 7.32198C108.691 7.48998 109.013 7.57398 109.415 7.57398C109.62 7.57398 109.853 7.53664 110.115 7.46198C110.385 7.38731 110.637 7.27998 110.871 7.13998C111.104 6.99998 111.277 6.83664 111.389 6.64998C111.519 6.43531 111.589 6.20664 111.599 5.96398C111.608 5.71198 111.613 5.46464 111.613 5.22198ZM112.971 5.87998C112.971 6.19731 112.929 6.53798 112.845 6.90198C112.77 7.25664 112.677 7.58331 112.565 7.88198C112.089 9.16065 111.384 10.1826 110.451 10.948C109.517 11.7133 108.397 12.2733 107.091 12.628C107.081 12.628 107.072 12.628 107.063 12.628C107.063 12.628 107.058 12.628 107.049 12.628C106.965 12.628 106.923 12.5906 106.923 12.516C106.923 12.4693 106.941 12.4366 106.979 12.418C107.016 12.3993 107.053 12.3853 107.091 12.376C107.52 12.1893 107.945 11.9886 108.365 11.774C108.785 11.5593 109.158 11.284 109.485 10.948C109.783 10.6493 110.068 10.2993 110.339 9.89798C110.619 9.49665 110.857 9.07665 111.053 8.63798C111.249 8.18998 111.365 7.75598 111.403 7.33598C111.076 7.55065 110.726 7.72798 110.353 7.86798C109.979 8.00798 109.592 8.07798 109.191 8.07798C108.584 8.07798 108.057 7.95664 107.609 7.71398C107.161 7.46198 106.811 7.11198 106.559 6.66398C106.316 6.20664 106.195 5.67465 106.195 5.06798C106.195 4.33065 106.349 3.70998 106.657 3.20598C106.965 2.70198 107.389 2.31931 107.931 2.05798C108.481 1.79664 109.107 1.66598 109.807 1.66598C110.311 1.66598 110.773 1.79198 111.193 2.04398C111.613 2.29598 111.967 2.62731 112.257 3.03798C112.546 3.43931 112.742 3.87331 112.845 4.33998C112.901 4.59198 112.933 4.84864 112.943 5.10998C112.961 5.36198 112.971 5.61865 112.971 5.87998ZM119.828 6.85998C119.828 6.58931 119.819 6.25798 119.8 5.86598C119.791 5.46464 119.758 5.04465 119.702 4.60598C119.646 4.16731 119.548 3.75664 119.408 3.37398C119.268 2.99131 119.077 2.68331 118.834 2.44998C118.592 2.20731 118.274 2.08598 117.882 2.08598C117.528 2.08598 117.229 2.21198 116.986 2.46398C116.744 2.70664 116.548 3.02864 116.398 3.42998C116.249 3.82198 116.132 4.24198 116.048 4.68998C115.974 5.12864 115.922 5.55331 115.894 5.96398C115.866 6.36531 115.852 6.69198 115.852 6.94398C115.852 7.19598 115.862 7.51331 115.88 7.89598C115.908 8.26931 115.955 8.66598 116.02 9.08598C116.086 9.49665 116.188 9.88398 116.328 10.248C116.478 10.612 116.669 10.9106 116.902 11.144C117.136 11.368 117.43 11.48 117.784 11.48C118.158 11.48 118.466 11.368 118.708 11.144C118.951 10.9106 119.147 10.612 119.296 10.248C119.446 9.87465 119.558 9.47798 119.632 9.05798C119.716 8.62864 119.768 8.22264 119.786 7.83998C119.814 7.44798 119.828 7.12131 119.828 6.85998ZM121.284 6.67798C121.284 7.10731 121.242 7.55998 121.158 8.03598C121.084 8.51198 120.962 8.97865 120.794 9.43598C120.626 9.89331 120.402 10.3086 120.122 10.682C119.852 11.0553 119.52 11.354 119.128 11.578C118.736 11.7926 118.279 11.9 117.756 11.9C117.131 11.9 116.604 11.746 116.174 11.438C115.754 11.1206 115.418 10.7146 115.166 10.22C114.914 9.72531 114.732 9.19798 114.62 8.63798C114.508 8.06865 114.452 7.53198 114.452 7.02798C114.452 6.59864 114.49 6.14131 114.564 5.65598C114.639 5.16131 114.76 4.68064 114.928 4.21398C115.096 3.74731 115.316 3.32264 115.586 2.93998C115.866 2.55731 116.202 2.25398 116.594 2.02998C116.996 1.79664 117.462 1.67998 117.994 1.67998C118.498 1.67998 118.932 1.78731 119.296 2.00198C119.67 2.21664 119.982 2.50131 120.234 2.85598C120.496 3.21065 120.701 3.60731 120.85 4.04598C121 4.48464 121.107 4.93264 121.172 5.38998C121.247 5.83798 121.284 6.26731 121.284 6.67798Z" fill="#767676"/>
</svg>
