<svg width="18" height="12" viewBox="0 0 18 12" fill="none" xmlns="http://www.w3.org/2000/svg">
<path d="M7.80797 9.24791C7.80797 9.26925 7.78664 9.32791 7.74397 9.42391C7.71197 9.50925 7.69064 9.56791 7.67997 9.59991C7.6373 9.70658 7.59464 9.81325 7.55197 9.91991C7.51997 10.0266 7.48797 10.1332 7.45597 10.2399C7.40264 10.4426 7.35464 10.6452 7.31197 10.8479C7.2693 11.0506 7.2213 11.2479 7.16797 11.4399C7.11464 11.5892 7.02397 11.6639 6.89597 11.6639C6.5973 11.6639 6.2453 11.6532 5.83997 11.6319C5.43464 11.6106 5.08797 11.5999 4.79997 11.5999C4.23464 11.5999 3.70664 11.6052 3.21597 11.6159C2.73597 11.6159 2.25064 11.6212 1.75997 11.6319C1.51464 11.6319 1.26397 11.6426 1.00797 11.6639C0.762636 11.6746 0.517302 11.6799 0.271969 11.6799C0.218635 11.6799 0.159969 11.6639 0.0959688 11.6319C0.0319688 11.5999 -3.12328e-05 11.5466 -3.12328e-05 11.4719C-3.12328e-05 11.0772 0.0906355 10.6986 0.271969 10.3359C0.442635 10.0052 0.687969 9.63725 1.00797 9.23191C1.33864 8.82658 1.7013 8.41591 2.09597 7.99991C2.49064 7.58391 2.87464 7.18925 3.24797 6.81591C3.63197 6.44258 3.96264 6.12258 4.23997 5.85591C4.62397 5.48258 4.95464 5.03458 5.23197 4.51191C5.5093 3.97858 5.64797 3.43991 5.64797 2.89591C5.64797 2.49058 5.59464 2.11191 5.48797 1.75991C5.39197 1.39725 5.21597 1.10391 4.95997 0.879913C4.70397 0.655914 4.3413 0.543914 3.87197 0.543914C3.46664 0.543914 3.10397 0.613247 2.78397 0.751913C2.47464 0.879913 2.20264 1.12525 1.96797 1.48791C1.81864 1.72258 1.72264 1.99991 1.67997 2.31991C1.64797 2.62925 1.6213 2.92258 1.59997 3.19991C1.5893 3.56258 1.38664 3.74391 0.991969 3.74391C0.426636 3.74391 0.143969 3.47725 0.143969 2.94391C0.143969 2.44258 0.271969 2.01058 0.527969 1.64791C0.794635 1.28525 1.13064 0.98658 1.53597 0.751913C1.95197 0.517247 2.39464 0.341247 2.86397 0.223913C3.3333 0.10658 3.77597 0.0479136 4.19197 0.0479136C4.71464 0.0479136 5.21597 0.159914 5.69597 0.383914C6.18664 0.607914 6.58664 0.927914 6.89597 1.34391C7.2053 1.74925 7.35997 2.23458 7.35997 2.79991C7.35997 3.50391 7.22664 4.10658 6.95997 4.60791C6.6933 5.10925 6.3413 5.55191 5.90397 5.93591C5.4773 6.31991 5.0133 6.67725 4.51197 7.00791C4.01064 7.32791 3.51997 7.66391 3.03997 8.01591C2.7093 8.26125 2.3893 8.54391 2.07997 8.86391C1.7813 9.17325 1.49864 9.48791 1.23197 9.80791C1.1893 9.87191 1.11997 9.96791 1.02397 10.0959C0.938635 10.2239 0.895969 10.3306 0.895969 10.4159C0.895969 10.5012 0.938635 10.5439 1.02397 10.5439C1.66397 10.5439 2.30397 10.5332 2.94397 10.5119C3.58397 10.4799 4.2293 10.4586 4.87997 10.4479C5.4773 10.4372 5.9733 10.3466 6.36797 10.1759C6.7733 10.0052 7.1573 9.67458 7.51997 9.18391C7.55197 9.14125 7.5893 9.11991 7.63197 9.11991C7.66397 9.11991 7.7013 9.13591 7.74397 9.16791C7.78664 9.18925 7.80797 9.21591 7.80797 9.24791ZM15.5655 5.91991C15.5655 5.61058 15.5548 5.23191 15.5335 4.78391C15.5228 4.32525 15.4855 3.84525 15.4215 3.34391C15.3575 2.84258 15.2455 2.37325 15.0855 1.93591C14.9255 1.49858 14.7068 1.14658 14.4295 0.879913C14.1521 0.60258 13.7895 0.463914 13.3415 0.463914C12.9361 0.463914 12.5948 0.607914 12.3175 0.895913C12.0401 1.17325 11.8161 1.54125 11.6455 1.99991C11.4748 2.44791 11.3415 2.92791 11.2455 3.43991C11.1601 3.94125 11.1015 4.42658 11.0695 4.89591C11.0375 5.35458 11.0215 5.72791 11.0215 6.01591C11.0215 6.30391 11.0321 6.66658 11.0535 7.10391C11.0855 7.53058 11.1388 7.98391 11.2135 8.46391C11.2881 8.93325 11.4055 9.37591 11.5655 9.79191C11.7361 10.2079 11.9548 10.5492 12.2215 10.8159C12.4881 11.0719 12.8241 11.1999 13.2295 11.1999C13.6561 11.1999 14.0081 11.0719 14.2855 10.8159C14.5628 10.5492 14.7868 10.2079 14.9575 9.79191C15.1281 9.36525 15.2561 8.91191 15.3415 8.43191C15.4375 7.94125 15.4961 7.47725 15.5175 7.03991C15.5495 6.59191 15.5655 6.21858 15.5655 5.91991ZM17.2295 5.71191C17.2295 6.20258 17.1815 6.71991 17.0855 7.26391C17.0001 7.80791 16.8615 8.34125 16.6695 8.86391C16.4775 9.38658 16.2215 9.86125 15.9015 10.2879C15.5921 10.7146 15.2135 11.0559 14.7655 11.3119C14.3175 11.5572 13.7948 11.6799 13.1975 11.6799C12.4828 11.6799 11.8801 11.5039 11.3895 11.1519C10.9095 10.7892 10.5255 10.3252 10.2375 9.75991C9.94947 9.19458 9.74147 8.59191 9.61347 7.95191C9.48547 7.30125 9.42147 6.68791 9.42147 6.11191C9.42147 5.62125 9.46414 5.09858 9.54947 4.54391C9.6348 3.97858 9.77347 3.42925 9.96547 2.89591C10.1575 2.36258 10.4081 1.87725 10.7175 1.43991C11.0375 1.00258 11.4215 0.655914 11.8695 0.399914C12.3281 0.133247 12.8615 -8.67844e-05 13.4695 -8.67844e-05C14.0455 -8.67844e-05 14.5415 0.12258 14.9575 0.367913C15.3841 0.613247 15.7415 0.93858 16.0295 1.34391C16.3281 1.74925 16.5628 2.20258 16.7335 2.70391C16.9041 3.20525 17.0268 3.71725 17.1015 4.23991C17.1868 4.75191 17.2295 5.24258 17.2295 5.71191Z" fill="#1C2434"/>
</svg>
